<svg width="24" height="24" viewBox="0 0 24 24" fill="none" xmlns="http://www.w3.org/2000/svg">
<path fill-rule="evenodd" clip-rule="evenodd" d="M14 7C14 9.20914 12.2091 11 10 11C7.79086 11 6 9.20914 6 7C6 4.79086 7.79086 3 10 3C12.2091 3 14 4.79086 14 7ZM17 17C17 19.2091 13.866 21 10 21C6.13401 21 3 19.2091 3 17C3 14.7909 6.13401 13 10 13C13.866 13 17 14.7909 17 17ZM16.476 12.5846L20.5846 8.47602C20.8486 8.92266 21 9.44364 21 10C21 11.6569 19.6569 13 18 13C17.4436 13 16.9227 12.8486 16.476 12.5846ZM15 10C15 10.5564 15.1514 11.0773 15.4154 11.524L19.524 7.41536C19.0773 7.15145 18.5564 7 18 7C16.3431 7 15 8.34315 15 10Z" fill="#28303F"/>
</svg>
