<svg width="24" height="24" viewBox="0 0 24 24" fill="none" xmlns="http://www.w3.org/2000/svg">
<path fill-rule="evenodd" clip-rule="evenodd" d="M12.5815 17.9185C12.5815 18.5781 12.6977 19.2107 12.9106 19.7968C12.2949 19.9299 11.6556 20 11 20C6.02944 20 2 15.9706 2 11C2 6.02944 6.02944 2 11 2C15.9706 2 20 6.02944 20 11C20 11.583 19.9446 12.153 19.8387 12.7051C19.2869 12.5192 18.696 12.4185 18.0815 12.4185C15.044 12.4185 12.5815 14.8809 12.5815 17.9185ZM11 13.75C9.54938 13.75 8.18828 14.1238 7.00546 14.7797C6.64321 14.9805 6.18671 14.8497 5.98584 14.4875C5.78496 14.1252 5.91578 13.6687 6.27802 13.4679C7.67773 12.6917 9.28842 12.25 11 12.25C11.3656 12.25 11.7268 12.2702 12.0824 12.3095C12.4941 12.355 12.791 12.7256 12.7455 13.1373C12.7 13.549 12.3293 13.8459 11.9176 13.8004C11.6166 13.7671 11.3104 13.75 11 13.75ZM11 5C12.6569 5 14 6.34315 14 8C14 9.65685 12.6569 11 11 11C9.34315 11 8 9.65685 8 8C8 6.34315 9.34315 5 11 5ZM22 18C22 20.2091 20.2091 22 18 22C15.7909 22 14 20.2091 14 18C14 15.7909 15.7909 14 18 14C20.2091 14 22 15.7909 22 18ZM20.75 18C20.75 18.4142 20.4142 18.75 20 18.75H16C15.5858 18.75 15.25 18.4142 15.25 18C15.25 17.5858 15.5858 17.25 16 17.25H20C20.4142 17.25 20.75 17.5858 20.75 18Z" fill="#28303F"/>
</svg>
