<svg width="24" height="24" viewBox="0 0 24 24" fill="none" xmlns="http://www.w3.org/2000/svg">
<path fill-rule="evenodd" clip-rule="evenodd" d="M9.92154 2.57125C11.2077 1.80958 12.7923 1.80958 14.0785 2.57125L18.9215 5.43932C20.2077 6.20099 21 7.6086 21 9.13192V14.8681C21 16.3914 20.2077 17.799 18.9215 18.5607L18.301 18.9281L14.0785 21.4288C12.7923 22.1904 11.2077 22.1904 9.92154 21.4288L5.69896 18.9281L5.07846 18.5607C3.7923 17.799 3 16.3914 3 14.8681V9.13192C3 7.6086 3.7923 6.20099 5.07846 5.43932L9.92154 2.57125ZM16.0952 15.2041C15.023 14.4572 13.5831 14 12 14C10.4169 14 8.97703 14.4572 7.90484 15.2041C7.39026 15.5626 7.49802 16.2988 8.03578 16.6215L11.4855 18.6913C11.8022 18.8813 12.1978 18.8813 12.5145 18.6913L15.9642 16.6215C16.502 16.2988 16.6097 15.5626 16.0952 15.2041ZM12 6C13.6569 6 15 7.34315 15 9C15 10.6569 13.6569 12 12 12C10.3431 12 9 10.6569 9 9C9 7.34315 10.3431 6 12 6Z" fill="#28303F"/>
</svg>
