<svg width="24" height="24" viewBox="0 0 24 24" fill="none" xmlns="http://www.w3.org/2000/svg">
<path fill-rule="evenodd" clip-rule="evenodd" d="M22 12C22 15.0134 20.6672 17.7154 18.5588 19.5488C16.8031 21.0756 14.5095 22 12 22C9.49052 22 7.19694 21.0756 5.44117 19.5488C3.33285 17.7154 2 15.0134 2 12C2 6.47715 6.47715 2 12 2C17.5228 2 22 6.47715 22 12ZM15 9C15 7.34315 13.6569 6 12 6C10.3431 6 9 7.34315 9 9C9 10.6569 10.3431 12 12 12C13.6569 12 15 10.6569 15 9ZM12 14C13.7127 14 14.839 14.9166 15.6332 15.9355C16.2257 16.6957 16.0218 17.8107 15.1622 18.2467C14.2124 18.7285 13.1379 19 12 19C10.8621 19 9.78761 18.7285 8.83779 18.2467C7.97822 17.8107 7.77427 16.6956 8.3668 15.9355C9.16096 14.9166 10.2873 14 12 14Z" fill="#28303F"/>
</svg>
