<svg width="24" height="24" viewBox="0 0 24 24" fill="none" xmlns="http://www.w3.org/2000/svg">
<path fill-rule="evenodd" clip-rule="evenodd" d="M18 2H6C3.79086 2 2 3.79086 2 6V18C2 19.8642 3.27532 21.4306 5.00111 21.8743C5.32039 21.9563 5.6551 22 6 22H18C18.3449 22 18.6796 21.9563 18.9989 21.8743C20.7247 21.4306 22 19.8642 22 18V6C22 3.79086 20.2091 2 18 2ZM15 9C15 7.34315 13.6569 6 12 6C10.3431 6 9 7.34315 9 9C9 10.6569 10.3431 12 12 12C13.6569 12 15 10.6569 15 9ZM7.15257 17.0155C7.70085 15.2824 9.66322 14 12 14C14.3368 14 16.2991 15.2824 16.8474 17.0155C17.014 17.5421 16.5523 18 16 18H8C7.44772 18 6.98599 17.5421 7.15257 17.0155Z" fill="#28303F"/>
</svg>
