<svg width="24" height="24" viewBox="0 0 24 24" fill="none" xmlns="http://www.w3.org/2000/svg">
<path d="M5.07846 5.43932L5.46063 6.08465L5.07846 5.43932ZM5.07846 18.5607L5.46063 17.9153L5.07846 18.5607ZM14.0785 21.4288L14.4606 22.0741L14.0785 21.4288ZM9.92154 21.4288L9.53937 22.0741L9.92154 21.4288ZM18.9215 18.5607L19.3037 19.206V19.206L18.9215 18.5607ZM18.9215 5.43932L18.5394 6.08465L18.9215 5.43932ZM14.0785 2.57125L13.6963 3.21658L14.0785 2.57125ZM9.92154 2.57125L9.53937 1.92592L9.92154 2.57125ZM13.6963 3.21658L18.5394 6.08465L19.3037 4.79399L14.4606 1.92592L13.6963 3.21658ZM20.25 9.13192V14.8681H21.75V9.13192H20.25ZM3.75 14.8681V9.13192H2.25V14.8681H3.75ZM5.46063 6.08465L10.3037 3.21658L9.53937 1.92592L4.6963 4.79399L5.46063 6.08465ZM3.75 9.13192C3.75 7.86735 4.40779 6.70814 5.46063 6.08465L4.6963 4.79399C3.17682 5.69383 2.25 7.34985 2.25 9.13192H3.75ZM5.46063 17.9153C4.40779 17.2919 3.75 16.1327 3.75 14.8681H2.25C2.25 16.6502 3.17682 18.3062 4.6963 19.206L5.46063 17.9153ZM13.6963 20.7834C12.6458 21.4055 11.3542 21.4055 10.3037 20.7834L9.53937 22.0741C11.0612 22.9753 12.9388 22.9753 14.4606 22.0741L13.6963 20.7834ZM20.25 14.8681C20.25 16.1327 19.5922 17.2919 18.5394 17.9153L19.3037 19.206C20.8232 18.3062 21.75 16.6502 21.75 14.8681H20.25ZM18.5394 6.08465C19.5922 6.70814 20.25 7.86735 20.25 9.13192H21.75C21.75 7.34985 20.8232 5.69383 19.3037 4.79399L18.5394 6.08465ZM14.4606 1.92592C12.9388 1.02469 11.0612 1.02469 9.53937 1.92592L10.3037 3.21658C11.3542 2.59447 12.6458 2.59447 13.6963 3.21658L14.4606 1.92592ZM18.5394 17.9153L17.9189 18.2828L18.6832 19.5735L19.3037 19.206L18.5394 17.9153ZM17.9189 18.2828L13.6963 20.7834L14.4606 22.0741L18.6832 19.5735L17.9189 18.2828ZM12 15.9479C14.4044 15.9479 16.5141 17.2869 17.6478 19.2966L18.9543 18.5597C17.5721 16.1095 14.9803 14.4479 12 14.4479V15.9479ZM10.3037 20.7834L6.08112 18.2828L5.31679 19.5735L9.53937 22.0741L10.3037 20.7834ZM6.08112 18.2828L5.46063 17.9153L4.6963 19.206L5.31679 19.5735L6.08112 18.2828ZM6.35219 19.2966C7.48587 17.2869 9.59558 15.9479 12 15.9479V14.4479C9.01966 14.4479 6.42785 16.1095 5.04572 18.5597L6.35219 19.2966Z" fill="#28303F"/>
<circle r="3" transform="matrix(1 0 0 -1 12 9)" stroke="#28303F" stroke-width="1.5" stroke-linejoin="round"/>
</svg>
