<svg width="24" height="24" viewBox="0 0 24 24" fill="none" xmlns="http://www.w3.org/2000/svg">
<path d="M7 15C9.94583 13.6802 11.6997 13.6532 15 15" stroke="#28303F" stroke-width="1.5" stroke-linecap="round" stroke-linejoin="round"/>
<circle r="3" transform="matrix(1 0 0 -1 11 8)" stroke="#28303F" stroke-width="1.5" stroke-linejoin="round"/>
<path d="M18.6959 13.9791C18.5463 14.3654 18.7381 14.7998 19.1243 14.9494C19.5106 15.0991 19.945 14.9073 20.0946 14.521L18.6959 13.9791ZM13.166 20.5084C13.5699 20.4167 13.8231 20.015 13.7314 19.611C13.6397 19.2071 13.238 18.9539 12.834 19.0456L13.166 20.5084ZM20.75 11C20.75 5.61522 16.3848 1.25 11 1.25V2.75C15.5563 2.75 19.25 6.44365 19.25 11H20.75ZM11 1.25C5.61522 1.25 1.25 5.61522 1.25 11H2.75C2.75 6.44365 6.44365 2.75 11 2.75V1.25ZM1.25 11C1.25 16.3848 5.61522 20.75 11 20.75V19.25C6.44365 19.25 2.75 15.5563 2.75 11H1.25ZM20.0946 14.521C20.5181 13.4279 20.75 12.2401 20.75 11H19.25C19.25 12.0519 19.0535 13.0561 18.6959 13.9791L20.0946 14.521ZM11 20.75C11.7436 20.75 12.4687 20.6666 13.166 20.5084L12.834 19.0456C12.2449 19.1793 11.6312 19.25 11 19.25V20.75Z" fill="#28303F"/>
<path d="M20 18L16 18" stroke="#28303F" stroke-width="1.5" stroke-linecap="round"/>
</svg>
