<svg width="24" height="24" viewBox="0 0 24 24" fill="none" xmlns="http://www.w3.org/2000/svg">
<circle r="3" transform="matrix(1 0 0 -1 12 9)" stroke="#28303F" stroke-width="1.5" stroke-linejoin="round"/>
<path d="M6 2.75H18V1.25H6V2.75ZM21.25 6V18H22.75V6H21.25ZM18 21.25H6V22.75H18V21.25ZM2.75 18V6H1.25V18H2.75ZM18 2.75C19.7949 2.75 21.25 4.20507 21.25 6H22.75C22.75 3.37665 20.6234 1.25 18 1.25V2.75ZM6 1.25C3.37665 1.25 1.25 3.37665 1.25 6H2.75C2.75 4.20507 4.20507 2.75 6 2.75V1.25ZM21.25 18C21.25 19.5137 20.2145 20.7874 18.8122 21.1479L19.1856 22.6006C21.2348 22.0738 22.75 20.2148 22.75 18H21.25ZM18.8122 21.1479C18.5534 21.2144 18.2814 21.25 18 21.25V22.75C18.4084 22.75 18.8058 22.6983 19.1856 22.6006L18.8122 21.1479ZM12 15.75C15.4142 15.75 18.1891 18.4878 18.249 21.8875L19.7488 21.8611C19.6745 17.6448 16.2338 14.25 12 14.25V15.75ZM6 21.25C5.71861 21.25 5.44663 21.2144 5.18784 21.1479L4.81437 22.6006C5.19415 22.6983 5.59158 22.75 6 22.75V21.25ZM5.18784 21.1479C3.78548 20.7874 2.75 19.5137 2.75 18H1.25C1.25 20.2148 2.76516 22.0738 4.81437 22.6006L5.18784 21.1479ZM5.75099 21.8875C5.81087 18.4878 8.58579 15.75 12 15.75V14.25C7.76622 14.25 4.32549 17.6448 4.25122 21.8611L5.75099 21.8875Z" fill="#28303F"/>
</svg>
