<svg width="24" height="24" viewBox="0 0 24 24" fill="none" xmlns="http://www.w3.org/2000/svg">
<path d="M6.27788 14.4679C5.91564 14.6687 5.78482 15.1252 5.9857 15.4875C6.18657 15.8497 6.64307 15.9805 7.00532 15.7797L6.27788 14.4679ZM11.9175 14.8004C12.3292 14.8459 12.6998 14.549 12.7453 14.1373C12.7908 13.7256 12.494 13.355 12.0823 13.3095L11.9175 14.8004ZM7.00532 15.7797C8.18814 15.1238 9.54924 14.75 10.9999 14.75V13.25C9.28829 13.25 7.67759 13.6917 6.27788 14.4679L7.00532 15.7797ZM10.9999 14.75C11.3103 14.75 11.6165 14.7671 11.9175 14.8004L12.0823 13.3095C11.7266 13.2702 11.3655 13.25 10.9999 13.25V14.75Z" fill="#28303F"/>
<circle r="3" transform="matrix(1 0 0 -1 11 8)" stroke="#28303F" stroke-width="1.5" stroke-linejoin="round"/>
<path d="M19.3953 14.2501C19.7858 13.242 20 12.146 20 11C20 6.02944 15.9706 2 11 2C6.02944 2 2 6.02944 2 11C2 15.9706 6.02944 20 11 20C12.146 20 13.242 19.7858 14.2501 19.3953M19.3953 14.2501C20.9164 14.8163 22 16.2816 22 18C22 20.2091 20.2091 22 18 22C16.2816 22 14.8163 20.9164 14.2501 19.3953M19.3953 14.2501C18.9609 14.0884 18.4907 14 18 14C15.7909 14 14 15.7909 14 18C14 18.4907 14.0884 18.9609 14.2501 19.3953" stroke="#28303F" stroke-width="1.5" stroke-linejoin="round"/>
<path d="M20.5 15.5L15.5 20.5" stroke="#28303F" stroke-width="1.5" stroke-linecap="round"/>
</svg>
