<svg width="24" height="24" viewBox="0 0 24 24" fill="none" xmlns="http://www.w3.org/2000/svg">
<path d="M9.25 7C9.25 8.24264 8.24264 9.25 7 9.25V10.75C9.07107 10.75 10.75 9.07107 10.75 7H9.25ZM7 9.25C5.75736 9.25 4.75 8.24264 4.75 7H3.25C3.25 9.07107 4.92893 10.75 7 10.75V9.25ZM4.75 7C4.75 5.75736 5.75736 4.75 7 4.75V3.25C4.92893 3.25 3.25 4.92893 3.25 7H4.75ZM7 4.75C8.24264 4.75 9.25 5.75736 9.25 7H10.75C10.75 4.92893 9.07107 3.25 7 3.25V4.75ZM19.25 17C19.25 18.2426 18.2426 19.25 17 19.25V20.75C19.0711 20.75 20.75 19.0711 20.75 17H19.25ZM17 19.25C15.7574 19.25 14.75 18.2426 14.75 17H13.25C13.25 19.0711 14.9289 20.75 17 20.75V19.25ZM14.75 17C14.75 15.7574 15.7574 14.75 17 14.75V13.25C14.9289 13.25 13.25 14.9289 13.25 17H14.75ZM17 14.75C18.2426 14.75 19.25 15.7574 19.25 17H20.75C20.75 14.9289 19.0711 13.25 17 13.25V14.75ZM16 4.75H18V3.25H16V4.75ZM19.25 6V8H20.75V6H19.25ZM18 9.25H16V10.75H18V9.25ZM14.75 8V6H13.25V8H14.75ZM16 9.25C15.3096 9.25 14.75 8.69036 14.75 8H13.25C13.25 9.51878 14.4812 10.75 16 10.75V9.25ZM19.25 8C19.25 8.69036 18.6904 9.25 18 9.25V10.75C19.5188 10.75 20.75 9.51878 20.75 8H19.25ZM18 4.75C18.6904 4.75 19.25 5.30964 19.25 6H20.75C20.75 4.48122 19.5188 3.25 18 3.25V4.75ZM16 3.25C14.4812 3.25 13.25 4.48122 13.25 6H14.75C14.75 5.30964 15.3096 4.75 16 4.75V3.25ZM6 14.75H8V13.25H6V14.75ZM9.25 16V18H10.75V16H9.25ZM8 19.25H6V20.75H8V19.25ZM4.75 18V16H3.25V18H4.75ZM6 19.25C5.30964 19.25 4.75 18.6904 4.75 18H3.25C3.25 19.5188 4.48122 20.75 6 20.75V19.25ZM9.25 18C9.25 18.6904 8.69036 19.25 8 19.25V20.75C9.51878 20.75 10.75 19.5188 10.75 18H9.25ZM8 14.75C8.69036 14.75 9.25 15.3096 9.25 16H10.75C10.75 14.4812 9.51878 13.25 8 13.25V14.75ZM6 13.25C4.48122 13.25 3.25 14.4812 3.25 16H4.75C4.75 15.3096 5.30964 14.75 6 14.75V13.25Z" fill="#28303F"/>
</svg>
