<svg width="24" height="24" viewBox="0 0 24 24" fill="none" xmlns="http://www.w3.org/2000/svg">
<path d="M9.25 7C9.25 8.24264 8.24264 9.25 7 9.25V10.75C9.07107 10.75 10.75 9.07107 10.75 7H9.25ZM7 9.25C5.75736 9.25 4.75 8.24264 4.75 7H3.25C3.25 9.07107 4.92893 10.75 7 10.75V9.25ZM4.75 7C4.75 5.75736 5.75736 4.75 7 4.75V3.25C4.92893 3.25 3.25 4.92893 3.25 7H4.75ZM7 4.75C8.24264 4.75 9.25 5.75736 9.25 7H10.75C10.75 4.92893 9.07107 3.25 7 3.25V4.75ZM19.25 17C19.25 18.2426 18.2426 19.25 17 19.25V20.75C19.0711 20.75 20.75 19.0711 20.75 17H19.25ZM17 19.25C15.7574 19.25 14.75 18.2426 14.75 17H13.25C13.25 19.0711 14.9289 20.75 17 20.75V19.25ZM14.75 17C14.75 15.7574 15.7574 14.75 17 14.75V13.25C14.9289 13.25 13.25 14.9289 13.25 17H14.75ZM17 14.75C18.2426 14.75 19.25 15.7574 19.25 17H20.75C20.75 14.9289 19.0711 13.25 17 13.25V14.75ZM9.25 17C9.25 18.2426 8.24264 19.25 7 19.25V20.75C9.07107 20.75 10.75 19.0711 10.75 17H9.25ZM7 19.25C5.75736 19.25 4.75 18.2426 4.75 17H3.25C3.25 19.0711 4.92893 20.75 7 20.75V19.25ZM4.75 17C4.75 15.7574 5.75736 14.75 7 14.75V13.25C4.92893 13.25 3.25 14.9289 3.25 17H4.75ZM7 14.75C8.24264 14.75 9.25 15.7574 9.25 17H10.75C10.75 14.9289 9.07107 13.25 7 13.25V14.75ZM19.25 7C19.25 8.24264 18.2426 9.25 17 9.25V10.75C19.0711 10.75 20.75 9.07107 20.75 7H19.25ZM17 9.25C15.7574 9.25 14.75 8.24264 14.75 7H13.25C13.25 9.07107 14.9289 10.75 17 10.75V9.25ZM14.75 7C14.75 5.75736 15.7574 4.75 17 4.75V3.25C14.9289 3.25 13.25 4.92893 13.25 7H14.75ZM17 4.75C18.2426 4.75 19.25 5.75736 19.25 7H20.75C20.75 4.92893 19.0711 3.25 17 3.25V4.75Z" fill="#28303F"/>
</svg>
