<svg width="24" height="24" viewBox="0 0 24 24" fill="none" xmlns="http://www.w3.org/2000/svg">
<path d="M14 11.25C13.5858 11.25 13.25 11.5858 13.25 12C13.25 12.4142 13.5858 12.75 14 12.75V11.25ZM22 12.75C22.4142 12.75 22.75 12.4142 22.75 12C22.75 11.5858 22.4142 11.25 22 11.25V12.75ZM14 6.25C13.5858 6.25 13.25 6.58579 13.25 7C13.25 7.41421 13.5858 7.75 14 7.75V6.25ZM22 7.75C22.4142 7.75 22.75 7.41421 22.75 7C22.75 6.58579 22.4142 6.25 22 6.25V7.75ZM16 16.25C15.5858 16.25 15.25 16.5858 15.25 17C15.25 17.4142 15.5858 17.75 16 17.75V16.25ZM22 17.75C22.4142 17.75 22.75 17.4142 22.75 17C22.75 16.5858 22.4142 16.25 22 16.25V17.75ZM14 12.75H22V11.25H14V12.75ZM14 7.75H22V6.25H14V7.75ZM16 17.75H22V16.25H16V17.75ZM9.25 8C9.25 9.24264 8.24264 10.25 7 10.25V11.75C9.07107 11.75 10.75 10.0711 10.75 8H9.25ZM7 10.25C5.75736 10.25 4.75 9.24264 4.75 8H3.25C3.25 10.0711 4.92893 11.75 7 11.75V10.25ZM4.75 8C4.75 6.75736 5.75736 5.75 7 5.75V4.25C4.92893 4.25 3.25 5.92893 3.25 8H4.75ZM7 5.75C8.24264 5.75 9.25 6.75736 9.25 8H10.75C10.75 5.92893 9.07107 4.25 7 4.25V5.75ZM11.25 16C11.25 16.4615 10.9343 17.0074 10.1497 17.4782C9.37993 17.94 8.26815 18.25 7 18.25V19.75C8.49327 19.75 9.88149 19.3884 10.9214 18.7644C11.9464 18.1494 12.75 17.1954 12.75 16H11.25ZM7 18.25C5.73185 18.25 4.62007 17.94 3.85034 17.4782C3.06568 17.0074 2.75 16.4615 2.75 16H1.25C1.25 17.1954 2.05361 18.1494 3.07859 18.7644C4.11851 19.3884 5.50673 19.75 7 19.75V18.25ZM2.75 16C2.75 15.5385 3.06568 14.9926 3.85034 14.5218C4.62007 14.06 5.73185 13.75 7 13.75V12.25C5.50673 12.25 4.11851 12.6116 3.07859 13.2356C2.05361 13.8506 1.25 14.8046 1.25 16H2.75ZM7 13.75C8.26815 13.75 9.37993 14.06 10.1497 14.5218C10.9343 14.9926 11.25 15.5385 11.25 16H12.75C12.75 14.8046 11.9464 13.8506 10.9214 13.2356C9.88149 12.6116 8.49327 12.25 7 12.25V13.75Z" fill="#28303F"/>
</svg>
