<svg width="24" height="24" viewBox="0 0 24 24" fill="none" xmlns="http://www.w3.org/2000/svg">
<path fill-rule="evenodd" clip-rule="evenodd" d="M13.5 3.5C13.5 4.32843 12.8284 5 12 5C11.1716 5 10.5 4.32843 10.5 3.5C10.5 2.67157 11.1716 2 12 2C12.8284 2 13.5 2.67157 13.5 3.5ZM13 21C13 21.5523 12.5523 22 12 22C11.4477 22 11 21.5523 11 21C11 20.4477 11.4477 20 12 20C12.5523 20 13 20.4477 13 21ZM8 22C8.55228 22 9 21.5523 9 21C9 20.4477 8.55228 20 8 20C7.44772 20 7 20.4477 7 21C7 21.5523 7.44772 22 8 22ZM17 21C17 21.5523 16.5523 22 16 22C15.4477 22 15 21.5523 15 21C15 20.4477 15.4477 20 16 20C16.5523 20 17 20.4477 17 21ZM4.27174 5.82038C4.3709 5.41821 4.77731 5.17258 5.17948 5.27174C7.86026 5.93273 9.89512 6.25087 11.9333 6.24993C13.973 6.24899 16.0536 5.9285 18.8267 5.27021C19.2297 5.17454 19.634 5.42369 19.7297 5.82671C19.8253 6.22972 19.5762 6.63398 19.1732 6.72965C17.221 7.19306 15.5643 7.50247 14 7.64994V11.9547L14.744 17.9071C14.7954 18.3181 14.5039 18.6929 14.0929 18.7443C13.6818 18.7957 13.307 18.5041 13.2556 18.0931L12.494 12H11.5057L10.744 18.0931C10.6927 18.5041 10.3178 18.7957 9.90681 18.7443C9.49579 18.6929 9.20425 18.3181 9.25563 17.9071L10 11.9521V7.66265C8.41679 7.52088 6.76358 7.20725 4.82038 6.72812C4.41821 6.62896 4.17258 6.22255 4.27174 5.82038Z" fill="#28303F"/>
</svg>
