<svg width="24" height="24" viewBox="0 0 24 24" fill="none" xmlns="http://www.w3.org/2000/svg">
<path fill-rule="evenodd" clip-rule="evenodd" d="M9.60489 6.22367V4.39522C9.60489 3.07237 10.6773 2 12.0001 2C13.3229 2 14.3953 3.07237 14.3953 4.39522V6.22367C14.3953 6.97211 14.8208 7.66776 15.5211 8.06443L20.4351 10.8478C21.4554 11.4258 21.0036 12.8536 19.8004 12.8536H15.9143L9.58228 6.52151C9.59723 6.42358 9.60489 6.3241 9.60489 6.22367ZM3.53033 2.46967C3.23744 2.17678 2.76256 2.17678 2.46967 2.46967C2.17678 2.76256 2.17678 3.23744 2.46967 3.53033L7.53719 8.59786L3.56492 10.8478C2.54458 11.4258 2.99642 12.8536 4.19965 12.8536H8.40709C9.06851 12.8536 9.6047 13.3395 9.6047 13.9389V16.5377C9.6047 16.9663 9.46472 17.3853 9.20242 17.7418L7.31578 20.3065C6.63455 21.2326 7.74939 22.3771 8.84783 21.8794L10.9287 20.9364C11.6031 20.6309 12.3968 20.6309 13.0711 20.9364L15.152 21.8794C16.2504 22.3771 17.3653 21.2326 16.684 20.3065L14.7974 17.7418C14.5351 17.3853 14.3951 16.9663 14.3951 16.5377V15.4558L20.4697 21.5303C20.7626 21.8232 21.2374 21.8232 21.5303 21.5303C21.8232 21.2374 21.8232 20.7626 21.5303 20.4697L3.53033 2.46967Z" fill="#28303F"/>
</svg>
