<svg width="24" height="24" viewBox="0 0 24 24" fill="none" xmlns="http://www.w3.org/2000/svg">
<path fill-rule="evenodd" clip-rule="evenodd" d="M12.5303 2.98432C12.2374 2.69143 11.7626 2.69143 11.4697 2.98432C11.1768 3.27721 11.1768 3.75209 11.4697 4.04498L18.5407 11.116C19.0289 11.6042 19.0289 12.3957 18.5407 12.8838L15.5784 15.8462V14.8284C15.5784 14.4142 15.2426 14.0784 14.8284 14.0784C14.4142 14.0784 14.0784 14.4142 14.0784 14.8284V16.6568C14.0784 17.6233 14.8619 18.4068 15.8284 18.4068H17.6568C18.071 18.4068 18.4068 18.071 18.4068 17.6568C18.4068 17.2426 18.071 16.9068 17.6568 16.9068H16.6391L19.6014 13.9445C20.6753 12.8705 20.6753 11.1293 19.6014 10.0554L12.5303 2.98432ZM6.34307 5.59302C5.92886 5.59302 5.59307 5.9288 5.59307 6.34302C5.59307 6.75723 5.92886 7.09302 6.34307 7.09302H7.3608L4.39847 10.0553C3.32453 11.1293 3.32453 12.8705 4.39847 13.9444L11.4695 21.0155C11.7624 21.3084 12.2373 21.3084 12.5302 21.0155C12.8231 20.7226 12.8231 20.2477 12.5302 19.9548L5.45913 12.8838C4.97098 12.3956 4.97098 11.6042 5.45913 11.116L8.4215 8.15363L8.4215 9.17144C8.4215 9.58566 8.75729 9.92144 9.1715 9.92144C9.58571 9.92144 9.9215 9.58566 9.9215 9.17144L9.9215 7.34302C9.9215 6.37652 9.138 5.59302 8.1715 5.59302L6.34307 5.59302Z" fill="#28303F"/>
</svg>
