<svg width="24" height="24" viewBox="0 0 24 24" fill="none" xmlns="http://www.w3.org/2000/svg">
<path fill-rule="evenodd" clip-rule="evenodd" d="M22 12C22 17.5228 17.5228 22 12 22C6.47715 22 2 17.5228 2 12C2 6.47715 6.47715 2 12 2C17.5228 2 22 6.47715 22 12ZM9.96395 13.7491L8.67082 16.3354C8.48558 16.7059 8.03507 16.8561 7.66459 16.6708C7.29411 16.4856 7.14394 16.0351 7.32918 15.6646L11.3292 7.66459C11.4562 7.4105 11.7159 7.25 12 7.25C12.2841 7.25 12.5438 7.4105 12.6708 7.66459L16.6708 15.6646C16.8561 16.0351 16.7059 16.4856 16.3354 16.6708C15.9649 16.8561 15.5144 16.7059 15.3292 16.3354L14.036 13.7491C14.0241 13.7497 14.0121 13.75 14 13.75H10C9.98791 13.75 9.9759 13.7497 9.96395 13.7491ZM13.2865 12.25H10.7135L12 9.67705L13.2865 12.25Z" fill="#28303F"/>
</svg>
