<svg width="24" height="24" viewBox="0 0 24 24" fill="none" xmlns="http://www.w3.org/2000/svg">
<path fill-rule="evenodd" clip-rule="evenodd" d="M18 6C19.1046 6 20 6.89543 20 8V16C20 17.1046 19.1046 18 18 18L4 18C2.89543 18 2 17.1046 2 16V8C2 6.89543 2.89543 6 4 6H18ZM14.4939 9.43557C14.8056 9.70833 14.8372 10.1822 14.5644 10.4939L11.6945 13.7738C11.0778 14.4786 10.0156 14.5729 9.2843 13.9879L7.53148 12.5857C7.20803 12.3269 7.15559 11.8549 7.41435 11.5315C7.67311 11.208 8.14507 11.1556 8.46852 11.4143L10.2213 12.8166C10.3258 12.9002 10.4776 12.8867 10.5657 12.786L13.4356 9.50612C13.7083 9.19439 14.1822 9.16281 14.4939 9.43557ZM22.75 10C22.75 9.58579 22.4142 9.25 22 9.25C21.5858 9.25 21.25 9.58579 21.25 10V14C21.25 14.4142 21.5858 14.75 22 14.75C22.4142 14.75 22.75 14.4142 22.75 14V10Z" fill="#28303F"/>
</svg>
