<svg width="24" height="24" viewBox="0 0 24 24" fill="none" xmlns="http://www.w3.org/2000/svg">
<path fill-rule="evenodd" clip-rule="evenodd" d="M10 1.25C9.58579 1.25 9.25 1.58579 9.25 2C9.25 2.41421 9.58579 2.75 10 2.75H14C14.4142 2.75 14.75 2.41421 14.75 2C14.75 1.58579 14.4142 1.25 14 1.25H10ZM8 4C6.89543 4 6 4.89543 6 6V20C6 21.1046 6.89543 22 8 22H16C17.1046 22 18 21.1046 18 20V6C18 4.89543 17.1046 4 16 4H8ZM12.75 9C12.75 8.58579 12.4142 8.25 12 8.25C11.5858 8.25 11.25 8.58579 11.25 9V13C11.25 13.4142 11.5858 13.75 12 13.75C12.4142 13.75 12.75 13.4142 12.75 13V9ZM12 15.25C12.4142 15.25 12.75 15.5858 12.75 16V17C12.75 17.4142 12.4142 17.75 12 17.75C11.5858 17.75 11.25 17.4142 11.25 17V16C11.25 15.5858 11.5858 15.25 12 15.25Z" fill="#28303F"/>
</svg>
