<svg width="24" height="24" viewBox="0 0 24 24" fill="none" xmlns="http://www.w3.org/2000/svg">
<path fill-rule="evenodd" clip-rule="evenodd" d="M2.46967 2.46967C2.76257 2.17678 3.23744 2.17678 3.53033 2.46967L7.06066 6L18.8646 17.804L21.5303 20.4697C21.8232 20.7626 21.8232 21.2374 21.5303 21.5303C21.2374 21.8232 20.7626 21.8232 20.4697 21.5303L16.9393 18L4 18C2.89543 18 2 17.1046 2 16V8C2 6.89543 2.89543 6 4 6H4.93934L2.46967 3.53033C2.17678 3.23744 2.17678 2.76256 2.46967 2.46967ZM22 9.25C22.4142 9.25 22.75 9.58579 22.75 10V14C22.75 14.4142 22.4142 14.75 22 14.75C21.5858 14.75 21.25 14.4142 21.25 14V10C21.25 9.58579 21.5858 9.25 22 9.25ZM19.9999 8V16C19.9999 16.2771 19.9435 16.5411 19.8416 16.7811L9.06055 6H17.9999C19.1045 6 19.9999 6.89543 19.9999 8Z" fill="#28303F"/>
</svg>
