<svg width="24" height="24" viewBox="0 0 24 24" fill="none" xmlns="http://www.w3.org/2000/svg">
<path fill-rule="evenodd" clip-rule="evenodd" d="M10 1.25C9.58579 1.25 9.25 1.58579 9.25 2C9.25 2.41421 9.58579 2.75 10 2.75H14C14.4142 2.75 14.75 2.41421 14.75 2C14.75 1.58579 14.4142 1.25 14 1.25H10ZM6 6C6 4.89543 6.89543 4 8 4H16C17.1046 4 18 4.89543 18 6V20C18 21.1046 17.1046 22 16 22H8C6.89543 22 6 21.1046 6 20V6ZM15.4939 10.4356C15.8056 10.7083 15.8372 11.1822 15.5644 11.4939L12.6945 14.7738C12.0778 15.4786 11.0156 15.5729 10.2843 14.9879L8.53148 13.5857C8.20803 13.3269 8.15559 12.8549 8.41435 12.5315C8.67311 12.208 9.14507 12.1556 9.46852 12.4143L11.2213 13.8166C11.3258 13.9002 11.4776 13.8867 11.5657 13.786L14.4356 10.5061C14.7083 10.1944 15.1822 10.1628 15.4939 10.4356Z" fill="#28303F"/>
</svg>
