<svg width="24" height="24" viewBox="0 0 24 24" fill="none" xmlns="http://www.w3.org/2000/svg">
<path fill-rule="evenodd" clip-rule="evenodd" d="M9.25 2C9.25 1.58579 9.58579 1.25 10 1.25H14C14.4142 1.25 14.75 1.58579 14.75 2C14.75 2.41421 14.4142 2.75 14 2.75H10C9.58579 2.75 9.25 2.41421 9.25 2ZM2.46967 2.46967C2.76256 2.17678 3.23744 2.17678 3.53033 2.46967L6.19604 5.13538L18 16.9393L21.5303 20.4697C21.8232 20.7626 21.8232 21.2374 21.5303 21.5303C21.2374 21.8232 20.7626 21.8232 20.4697 21.5303L18 19.0607V20C18 21.1046 17.1046 22 16 22H8C6.89543 22 6 21.1046 6 20V7.06066L2.46967 3.53033C2.17678 3.23744 2.17678 2.76256 2.46967 2.46967ZM8.00007 4H16.0001C17.1046 4 18.0001 4.89543 18.0001 6V14.9393L7.21899 4.15827C7.45896 4.05637 7.72293 4 8.00007 4Z" fill="#28303F"/>
</svg>
