<svg width="24" height="24" viewBox="0 0 24 24" fill="none" xmlns="http://www.w3.org/2000/svg">
<path fill-rule="evenodd" clip-rule="evenodd" d="M13.1599 4.94313C12.9971 4.80743 12.7499 4.92322 12.7499 5.13518V10.5988L16.4695 8.11899C16.6085 8.0263 16.6192 7.82591 16.4909 7.71893L13.1599 4.94313ZM11.2499 10.5988V5.13518C11.2499 3.65146 12.9804 2.84094 14.1202 3.79079L17.4511 6.56659C18.3498 7.31547 18.2749 8.71819 17.3016 9.36707L13.3519 12.0001L17.3016 14.6332C18.2749 15.2821 18.3498 16.6848 17.4511 17.4337L14.1202 20.2095C12.9804 21.1593 11.2499 20.3488 11.2499 18.8651V13.4015L6.41589 16.6242C6.07124 16.8539 5.60559 16.7608 5.37583 16.4162C5.14606 16.0715 5.23919 15.6059 5.58384 15.3761L10.6478 12.0001L5.58384 8.62418C5.23919 8.39441 5.14606 7.92876 5.37583 7.58411C5.60559 7.23947 6.07124 7.14634 6.41589 7.3761L11.2499 10.5988ZM12.7499 13.4015V18.8651C12.7499 19.0771 12.9971 19.1928 13.1599 19.0572L16.4909 16.2814C16.6192 16.1744 16.6085 15.974 16.4695 15.8813L12.7499 13.4015ZM18.4141 10.5859L19.8283 12.0002L18.4141 13.4144L16.9999 12.0002L18.4141 10.5859ZM6.99994 12.0002L5.58572 10.5859L4.17151 12.0002L5.58572 13.4144L6.99994 12.0002Z" fill="#28303F"/>
</svg>
