<svg width="24" height="24" viewBox="0 0 24 24" fill="none" xmlns="http://www.w3.org/2000/svg">
<path fill-rule="evenodd" clip-rule="evenodd" d="M11.1601 4.94313C10.9973 4.80743 10.7501 4.92322 10.7501 5.13518V10.5988L14.4697 8.11899C14.6088 8.0263 14.6195 7.82591 14.4911 7.71893L11.1601 4.94313ZM9.25008 10.5988V5.13518C9.25008 3.65146 10.9806 2.84094 12.1204 3.79079L15.4514 6.56659C16.35 7.31547 16.2751 8.71819 15.3018 9.36707L11.3522 12.0001L15.3018 14.6332C16.2751 15.2821 16.35 16.6848 15.4514 17.4337L12.1204 20.2095C10.9806 21.1593 9.25008 20.3488 9.25008 18.8651V13.4015L4.4161 16.6242C4.07146 16.8539 3.60581 16.7608 3.37604 16.4162C3.14628 16.0715 3.23941 15.6059 3.58405 15.3761L8.648 12.0001L3.58405 8.62418C3.23941 8.39441 3.14628 7.92876 3.37604 7.58411C3.60581 7.23947 4.07146 7.14634 4.4161 7.3761L9.25008 10.5988ZM10.7501 13.4015V18.8651C10.7501 19.0771 10.9973 19.1928 11.1601 19.0572L14.4911 16.2814C14.6195 16.1744 14.6088 15.974 14.4697 15.8813L10.7501 13.4015ZM17 12.0002C17 12.5525 16.5523 13.0002 16 13.0002C15.4477 13.0002 15 12.5525 15 12.0002C15 11.448 15.4477 11.0002 16 11.0002C16.5523 11.0002 17 11.448 17 12.0002ZM19.3406 8.22886C19.0688 7.91627 18.5951 7.8832 18.2825 8.15498C17.97 8.42676 17.9369 8.90048 18.2087 9.21306C18.8578 9.95964 19.25 10.9331 19.25 12.0001C19.25 13.089 18.8415 14.0807 18.1682 14.833C17.8919 15.1417 17.9182 15.6158 18.2269 15.8921C18.5356 16.1683 19.0097 16.142 19.2859 15.8333C20.1958 14.8166 20.75 13.4722 20.75 12.0001C20.75 10.5578 20.218 9.23798 19.3406 8.22886Z" fill="#28303F"/>
</svg>
