<svg width="24" height="24" viewBox="0 0 24 24" fill="none" xmlns="http://www.w3.org/2000/svg">
<path fill-rule="evenodd" clip-rule="evenodd" d="M4.53033 3.46967C4.23744 3.17678 3.76256 3.17678 3.46967 3.46967C3.17678 3.76256 3.17678 4.23744 3.46967 4.53033L10.8227 11.8834L5.58405 15.3759C5.23941 15.6056 5.14628 16.0713 5.37604 16.4159C5.60581 16.7606 6.07146 16.8537 6.4161 16.6239L11.2501 13.4013V18.8649C11.2501 20.3486 12.9806 21.1591 14.1204 20.2092L16.863 17.9237L19.4697 20.5303C19.7626 20.8232 20.2374 20.8232 20.5303 20.5303C20.8232 20.2374 20.8232 19.7626 20.5303 19.4697L4.53033 3.46967ZM15.798 16.8587L12.7501 13.8107V18.8649C12.7501 19.0768 12.9973 19.1926 13.1601 19.0569L15.798 16.8587ZM13.2956 10.2348L14.3773 11.3165L17.3018 9.36683C18.2751 8.71795 18.35 7.31522 17.4514 6.56635L14.1204 3.79055C12.9806 2.8407 11.2501 3.65122 11.2501 5.13494V8.18923L12.7501 9.68923V5.13494C12.7501 4.92298 12.9973 4.80719 13.1601 4.94288L16.4911 7.71868C16.6195 7.82566 16.6088 8.02605 16.4697 8.11875L13.2956 10.2348Z" fill="#28303F"/>
</svg>
