<svg width="24" height="24" viewBox="0 0 24 24" fill="none" xmlns="http://www.w3.org/2000/svg">
<path fill-rule="evenodd" clip-rule="evenodd" d="M2.46967 2.46967C2.76256 2.17678 3.23744 2.17678 3.53033 2.46967L21.5303 20.4697C21.8232 20.7626 21.8232 21.2374 21.5303 21.5303C21.2374 21.8232 20.7626 21.8232 20.4697 21.5303L18.6685 19.7291C17.8963 20.2174 16.9812 20.5 16 20.5H8C5.23858 20.5 3 18.2614 3 15.5V11.5C3 9.4885 4.1878 7.75443 5.90027 6.96093L2.46967 3.53033C2.17678 3.23744 2.17678 2.76256 2.46967 2.46967ZM12 16.5001C10.3431 16.5001 9 15.1569 9 13.5001C9 12.5597 9.43262 11.7205 10.1097 11.1704L14.3297 15.3904C13.7796 16.0674 12.9403 16.5001 12 16.5001ZM20.9999 11.5C20.9999 8.73858 18.7613 6.5 15.9999 6.5H15.8739C15.4299 4.77477 13.8638 3.5 11.9999 3.5C10.526 3.5 9.23832 4.29716 8.54443 5.48386L20.5768 17.5162C20.8488 16.8995 20.9999 16.2174 20.9999 15.5V11.5ZM13 7C13 7.55228 12.5523 8 12 8C11.4477 8 11 7.55228 11 7C11 6.44772 11.4477 6 12 6C12.5523 6 13 6.44772 13 7Z" fill="#28303F"/>
</svg>
