<svg width="24" height="24" viewBox="0 0 24 24" fill="none" xmlns="http://www.w3.org/2000/svg">
<path fill-rule="evenodd" clip-rule="evenodd" d="M13.0807 2.30926C12.0324 2.19357 11.25 3.0584 11.25 3.99998V4.49998C11.25 4.9142 11.5858 5.24998 12 5.24998C12.4142 5.24998 12.75 4.9142 12.75 4.49998V3.99998C12.75 3.92812 12.7791 3.87106 12.8145 3.83692C12.8462 3.8062 12.8785 3.79606 12.9161 3.80021C17.041 4.25544 20.25 7.75347 20.25 12C20.25 12.4142 20.5858 12.75 21 12.75C21.4142 12.75 21.75 12.4142 21.75 12C21.75 6.98028 17.9572 2.84746 13.0807 2.30926ZM3.75 12C3.75 11.5858 3.41421 11.25 3 11.25C2.58579 11.25 2.25 11.5858 2.25 12C2.25 17.0197 6.04275 21.1525 10.9193 21.6907C11.9676 21.8064 12.75 20.9416 12.75 20V19.5C12.75 19.0858 12.4142 18.75 12 18.75C11.5858 18.75 11.25 19.0858 11.25 19.5V20C11.25 20.0718 11.2209 20.1289 11.1855 20.163C11.1538 20.1938 11.1215 20.2039 11.0839 20.1998C6.95901 19.7445 3.75 16.2465 3.75 12ZM17 13.8529V11.7353C17 10.2734 15.7563 9.08824 14.2222 9.08824H14.1522C13.9055 8.17488 13.0355 7.5 12 7.5C10.9645 7.5 10.0945 8.17488 9.84779 9.08824H9.77778C8.24365 9.08824 7 10.2734 7 11.7353V13.8529C7 15.3149 8.24365 16.5 9.77778 16.5H14.2222C15.7563 16.5 17 15.3149 17 13.8529ZM13.5 12.5C13.5 11.6716 12.8284 11 12 11C11.1716 11 10.5 11.6716 10.5 12.5C10.5 13.3284 11.1716 14 12 14C12.8284 14 13.5 13.3284 13.5 12.5Z" fill="#28303F"/>
</svg>
