<svg width="24" height="24" viewBox="0 0 24 24" fill="none" xmlns="http://www.w3.org/2000/svg">
<path fill-rule="evenodd" clip-rule="evenodd" d="M7.45089 6.82362C5.88155 8.70461 4.75 11.0384 4.75 13C4.75 16.7508 7.59833 19.8364 11.25 20.2117L11.25 3.88318C10.8489 4.01244 10.3932 4.23748 9.89971 4.56568C9.07978 5.11098 8.22594 5.89464 7.45089 6.82362ZM9.06905 3.31668C10.0147 2.68775 11.0375 2.25 12 2.25C12.9625 2.25 13.9853 2.68775 14.931 3.31668C15.8923 3.95602 16.8509 4.84394 17.7009 5.86267C19.3816 7.87711 20.75 10.5433 20.75 13C20.75 17.8325 16.8325 21.75 12 21.75C7.16751 21.75 3.25 17.8325 3.25 13C3.25 10.5433 4.61845 7.8771 6.29911 5.86267C7.14906 4.84394 8.10772 3.95602 9.06905 3.31668Z" fill="#28303F"/>
</svg>
