<svg width="24" height="24" viewBox="0 0 24 24" fill="none" xmlns="http://www.w3.org/2000/svg">
<path d="M14.6291 3.46381C14.9925 2.05994 16.2339 1 17.7461 1C19.4542 1 20.737 2.34919 20.9418 3.89911C22.1335 4.23013 22.9961 5.35041 22.9961 6.65C22.9961 8.19807 21.7792 9.5 20.2211 9.5H15.4961C13.8138 9.5 12.4961 8.0936 12.4961 6.41667C12.4961 5.04042 13.3812 3.84916 14.6291 3.46381Z" fill="#141B34"/>
<path fill-rule="evenodd" clip-rule="evenodd" d="M10 14C10 13.4477 10.4477 13 11 13H13C13.5523 13 14 13.4477 14 14C14 14.5523 13.5523 15 13 15H11C10.4477 15 10 14.5523 10 14Z" fill="#141B34"/>
<path fill-rule="evenodd" clip-rule="evenodd" d="M9.94328 1L11 1C11.5523 1 12 1.44772 12 2C12 2.55229 11.5523 3 11 3H10C8.33876 3 7.17091 3.0013 6.27041 3.09622C5.38772 3.18926 4.8778 3.36317 4.49248 3.63297C4.15804 3.86715 3.86715 4.15804 3.63297 4.49248C3.36317 4.8778 3.18926 5.38772 3.09622 6.27041C3.0013 7.17091 3 8.33876 3 10C3 11.6612 3.0013 12.8291 3.09622 13.7296C3.18926 14.6123 3.36317 15.1222 3.63297 15.5075C3.86715 15.842 4.15804 16.1329 4.49248 16.367C4.8778 16.6368 5.38772 16.8107 6.27041 16.9038C7.17091 16.9987 8.33876 17 10 17H14C15.6612 17 16.8291 16.9987 17.7296 16.9038C18.6123 16.8107 19.1222 16.6368 19.5075 16.367C19.842 16.1329 20.1329 15.842 20.367 15.5075C20.8376 14.8355 20.9772 13.866 20.9963 11.4919C21.0008 10.9397 21.4521 10.4956 22.0044 10.5C22.5566 10.5045 23.0007 10.9558 22.9963 11.5081C22.9782 13.7528 22.8928 15.3873 22.0053 16.6547C21.6373 17.1802 21.1802 17.6373 20.6547 18.0053C19.8777 18.5494 18.9867 18.7824 17.9392 18.8928C16.9216 19 15.6482 19 14.0567 19H13.4C13.0229 19 13 19.0229 13 19.4V20C13 20.8273 13.1727 21 14 21H16C16.5523 21 17 21.4477 17 22C17 22.5523 16.5523 23 16 23H8C7.44772 23 7 22.5523 7 22C7 21.4477 7.44772 21 8 21H10C10.8273 21 11 20.8273 11 20V19.4C11 19.0229 10.9771 19 10.6 19H9.94327C8.35178 19 7.07837 19 6.06076 18.8928C5.01328 18.7824 4.12227 18.5494 3.34533 18.0053C2.81978 17.6373 2.36266 17.1802 1.99466 16.6547C1.45065 15.8777 1.21765 14.9867 1.10724 13.9392C0.999973 12.9216 0.999985 11.6482 1 10.0567V9.94328C0.999985 8.35179 0.999973 7.07838 1.10724 6.06076C1.21765 5.01328 1.45065 4.12227 1.99466 3.34533C2.36266 2.81978 2.81978 2.36266 3.34533 1.99466C4.12227 1.45065 5.01328 1.21765 6.06076 1.10724C7.07838 0.999973 8.35179 0.999985 9.94328 1Z" fill="#141B34"/>
</svg>
