<svg width="24" height="24" viewBox="0 0 24 24" fill="none" xmlns="http://www.w3.org/2000/svg">
<path fill-rule="evenodd" clip-rule="evenodd" d="M12 8C13.3807 8 14.5 6.88071 14.5 5.5C14.5 4.11929 13.3807 3 12 3C10.6193 3 9.5 4.11929 9.5 5.5C9.5 6.88071 10.6193 8 12 8ZM9.57063 19.845L5.85168 15.2465C5.30036 14.5647 5 13.7177 5 12.8447V12.6723C5 10.6441 6.66206 9 8.71231 9C9.69688 9 10.6411 9.3869 11.3373 10.0756L12 10.7311L12.6627 10.0756C13.3589 9.3869 14.3031 9 15.2877 9C17.3379 9 19 10.6441 19 12.6723V12.8447C19 13.7177 18.6996 14.5647 18.1483 15.2465L14.4294 19.845C13.1839 21.385 10.8161 21.385 9.57063 19.845Z" fill="#28303F"/>
</svg>
