<svg width="24" height="24" viewBox="0 0 24 24" fill="none" xmlns="http://www.w3.org/2000/svg">
<path fill-rule="evenodd" clip-rule="evenodd" d="M13.8546 6.75C13.5579 7.48296 12.8393 8 12 8C11.1607 8 10.4421 7.48296 10.1454 6.75H3C2.58579 6.75 2.25 6.41421 2.25 6C2.25 5.58579 2.58579 5.25 3 5.25H10.1454C10.4421 4.51704 11.1607 4 12 4C12.8393 4 13.5579 4.51704 13.8546 5.25H21C21.4142 5.25 21.75 5.58579 21.75 6C21.75 6.41421 21.4142 6.75 21 6.75H13.8546ZM2.25 12C2.25 11.5858 2.58579 11.25 3 11.25H13C13.4142 11.25 13.75 11.5858 13.75 12C13.75 12.4142 13.4142 12.75 13 12.75H3C2.58579 12.75 2.25 12.4142 2.25 12ZM17 10C17.8393 10 18.5579 10.517 18.8546 11.25H21C21.4142 11.25 21.75 11.5858 21.75 12C21.75 12.4142 21.4142 12.75 21 12.75H18.8546C18.5579 13.483 17.8393 14 17 14C15.8954 14 15 13.1046 15 12C15 10.8954 15.8954 10 17 10ZM12 17.25C11.5858 17.25 11.25 17.5858 11.25 18C11.25 18.4142 11.5858 18.75 12 18.75H20C20.4142 18.75 20.75 18.4142 20.75 18C20.75 17.5858 20.4142 17.25 20 17.25H12ZM2.25 18C2.25 17.5858 2.58579 17.25 3 17.25H6.14538C6.44207 16.517 7.16066 16 8 16C9.10457 16 10 16.8954 10 18C10 19.1046 9.10457 20 8 20C7.16066 20 6.44207 19.483 6.14538 18.75H3C2.58579 18.75 2.25 18.4142 2.25 18Z" fill="#28303F"/>
</svg>
