<svg width="24" height="24" viewBox="0 0 24 24" fill="none" xmlns="http://www.w3.org/2000/svg">
<path fill-rule="evenodd" clip-rule="evenodd" d="M5.75 10C5.75 6.54822 8.54822 3.75 12 3.75C15.4518 3.75 18.25 6.54822 18.25 10V17C18.25 17.4142 18.5858 17.75 19 17.75C19.4142 17.75 19.75 17.4142 19.75 17V10C19.75 5.71979 16.2802 2.25 12 2.25C7.71979 2.25 4.25 5.71979 4.25 10V17C4.25 17.4142 4.58579 17.75 5 17.75C5.41421 17.75 5.75 17.4142 5.75 17V10ZM12 7.25C10.4812 7.25 9.25 8.48122 9.25 10V16.5147C9.25 18.3049 8.53884 20.0218 7.27297 21.2877L7.03033 21.5303C6.73744 21.8232 6.26256 21.8232 5.96967 21.5303C5.67678 21.2374 5.67678 20.7626 5.96967 20.4697L6.21231 20.227C7.19688 19.2425 7.75 17.9071 7.75 16.5147V10C7.75 7.65279 9.65279 5.75 12 5.75C14.3472 5.75 16.25 7.65279 16.25 10V16.5147C16.25 18.3049 15.5388 20.0218 14.273 21.2877L14.0303 21.5303C13.7374 21.8232 13.2626 21.8232 12.9697 21.5303C12.6768 21.2374 12.6768 20.7626 12.9697 20.4697L13.2123 20.227C14.1969 19.2425 14.75 17.9071 14.75 16.5147V10C14.75 8.48122 13.5188 7.25 12 7.25ZM12 9.25C12.4142 9.25 12.75 9.58579 12.75 10V14C12.75 14.4142 12.4142 14.75 12 14.75C11.5858 14.75 11.25 14.4142 11.25 14V10C11.25 9.58579 11.5858 9.25 12 9.25Z" fill="#28303F"/>
</svg>
