<svg width="24" height="24" viewBox="0 0 24 24" fill="none" xmlns="http://www.w3.org/2000/svg">
<path fill-rule="evenodd" clip-rule="evenodd" d="M19.1923 1.71154C19.0758 1.43205 18.8027 1.25 18.5 1.25C18.1972 1.25 17.9241 1.43205 17.8076 1.71154L15.3076 7.71154C15.1483 8.09389 15.3291 8.53299 15.7115 8.69231C16.0938 8.85162 16.5329 8.67081 16.6923 8.28846L17.3333 6.75H19.6666L20.3076 8.28846C20.467 8.67081 20.9061 8.85162 21.2884 8.69231C21.6708 8.53299 21.8516 8.09389 21.6923 7.71154L19.1923 1.71154ZM18.5 3.95L19.0416 5.25H17.9583L18.5 3.95ZM12 2L3 13.5H8V22L17 10.5H12V2Z" fill="#28303F"/>
</svg>
