<svg width="24" height="24" viewBox="0 0 24 24" fill="none" xmlns="http://www.w3.org/2000/svg">
<path fill-rule="evenodd" clip-rule="evenodd" d="M11.9999 1.25C12.4141 1.25 12.7499 1.58579 12.7499 2V4C12.7499 4.0116 12.7496 4.02315 12.7491 4.03462C16.5694 4.38944 19.6104 7.43047 19.9653 11.2508C19.9767 11.2503 19.9883 11.25 19.9999 11.25H21.9999C22.4141 11.25 22.7499 11.5858 22.7499 12C22.7499 12.4142 22.4141 12.75 21.9999 12.75H19.9999C19.9883 12.75 19.9767 12.7497 19.9653 12.7492C19.8592 13.8917 19.5128 14.9645 18.9772 15.9166L15.6962 12.6357C15.7315 12.4291 15.7499 12.2167 15.7499 12C15.7499 9.92893 14.071 8.25 11.9999 8.25C11.7832 8.25 11.5708 8.26838 11.3642 8.30366L8.08325 5.0227C9.03536 4.4871 10.1082 4.14073 11.2507 4.03462C11.2502 4.02315 11.2499 4.0116 11.2499 4V2C11.2499 1.58579 11.5857 1.25 11.9999 1.25ZM4.03462 11.2508C4.02315 11.2503 4.0116 11.25 4 11.25H2C1.58579 11.25 1.25 11.5858 1.25 12C1.25 12.4142 1.58579 12.75 2 12.75H4C4.0116 12.75 4.02315 12.7497 4.03462 12.7492C4.38944 16.5695 7.43047 19.6106 11.2508 19.9654C11.2503 19.9769 11.25 19.9884 11.25 20V22C11.25 22.4142 11.5858 22.75 12 22.75C12.4142 22.75 12.75 22.4142 12.75 22V20C12.75 19.9884 12.7497 19.9769 12.7492 19.9654C14.3957 19.8125 15.8974 19.1606 17.1018 18.1624L20.4697 21.5303C20.7626 21.8232 21.2374 21.8232 21.5303 21.5303C21.8232 21.2374 21.8232 20.7626 21.5303 20.4697L3.53033 2.46967C3.23744 2.17678 2.76256 2.17678 2.46967 2.46967C2.17678 2.76256 2.17678 3.23744 2.46967 3.53033L5.83758 6.89824C4.83941 8.10257 4.18754 9.6043 4.03462 11.2508ZM9.75 11.9999C9.75 13.2426 10.7574 14.2499 12 14.2499C12.3474 14.2499 12.6763 14.1712 12.9701 14.0306L14.068 15.1286C13.4752 15.5213 12.7643 15.7499 12 15.7499C9.92893 15.7499 8.25 14.071 8.25 11.9999C8.25 11.2356 8.47866 10.5247 8.8713 9.93188L9.96928 11.0299C9.82871 11.3236 9.75 11.6526 9.75 11.9999Z" fill="#28303F"/>
</svg>
