<svg width="24" height="24" viewBox="0 0 24 24" fill="none" xmlns="http://www.w3.org/2000/svg">
<path fill-rule="evenodd" clip-rule="evenodd" d="M12.75 2C12.75 1.58579 12.4142 1.25 12 1.25C11.5858 1.25 11.25 1.58579 11.25 2V4C11.25 4.0116 11.2503 4.02315 11.2508 4.03462C7.43047 4.38944 4.38944 7.43047 4.03462 11.2508C4.02315 11.2503 4.0116 11.25 4 11.25H2C1.58579 11.25 1.25 11.5858 1.25 12C1.25 12.4142 1.58579 12.75 2 12.75H4C4.0116 12.75 4.02315 12.7497 4.03462 12.7492C4.38944 16.5695 7.43047 19.6106 11.2508 19.9654C11.2503 19.9769 11.25 19.9884 11.25 20V22C11.25 22.4142 11.5858 22.75 12 22.75C12.4142 22.75 12.75 22.4142 12.75 22V20C12.75 19.9884 12.7497 19.9769 12.7492 19.9654C16.5695 19.6106 19.6106 16.5695 19.9654 12.7492C19.9769 12.7497 19.9884 12.75 20 12.75H22C22.4142 12.75 22.75 12.4142 22.75 12C22.75 11.5858 22.4142 11.25 22 11.25H20C19.9884 11.25 19.9769 11.2503 19.9654 11.2508C19.6106 7.43047 16.5695 4.38944 12.7492 4.03462C12.7497 4.02315 12.75 4.0116 12.75 4V2ZM12 9.75C10.7574 9.75 9.75 10.7574 9.75 12C9.75 13.2426 10.7574 14.25 12 14.25C13.2426 14.25 14.25 13.2426 14.25 12C14.25 10.7574 13.2426 9.75 12 9.75ZM8.25 12C8.25 9.92893 9.92893 8.25 12 8.25C14.0711 8.25 15.75 9.92893 15.75 12C15.75 14.0711 14.0711 15.75 12 15.75C9.92893 15.75 8.25 14.0711 8.25 12Z" fill="#28303F"/>
</svg>
