<svg width="24" height="24" viewBox="0 0 24 24" fill="none" xmlns="http://www.w3.org/2000/svg">
<path fill-rule="evenodd" clip-rule="evenodd" d="M12 3.25C12.4142 3.25 12.75 3.58579 12.75 4V20C12.75 20.4142 12.4142 20.75 12 20.75C11.5858 20.75 11.25 20.4142 11.25 20V4C11.25 3.58579 11.5858 3.25 12 3.25ZM8 6.25C8.41421 6.25 8.75 6.58579 8.75 7V17C8.75 17.4142 8.41421 17.75 8 17.75C7.58579 17.75 7.25 17.4142 7.25 17V7C7.25 6.58579 7.58579 6.25 8 6.25ZM16.75 7C16.75 6.58579 16.4142 6.25 16 6.25C15.5858 6.25 15.25 6.58579 15.25 7V17C15.25 17.4142 15.5858 17.75 16 17.75C16.4142 17.75 16.75 17.4142 16.75 17V7ZM4 9.25C4.41421 9.25 4.75 9.58579 4.75 10V14C4.75 14.4142 4.41421 14.75 4 14.75C3.58579 14.75 3.25 14.4142 3.25 14V10C3.25 9.58579 3.58579 9.25 4 9.25ZM20.75 10C20.75 9.58579 20.4142 9.25 20 9.25C19.5858 9.25 19.25 9.58579 19.25 10V14C19.25 14.4142 19.5858 14.75 20 14.75C20.4142 14.75 20.75 14.4142 20.75 14V10Z" fill="#28303F"/>
</svg>
