<svg width="24" height="24" viewBox="0 0 24 24" fill="none" xmlns="http://www.w3.org/2000/svg">
<path fill-rule="evenodd" clip-rule="evenodd" d="M13.0831 2.25H10.9166H10.9166H10.9166C9.56503 2.24998 8.4663 2.24997 7.57897 2.35153C6.65331 2.45747 5.85556 2.68278 5.14787 3.20079C4.44017 3.71879 3.99157 4.40577 3.62244 5.24756C3.26858 6.05452 2.95289 7.08982 2.56454 8.3634L1.36632 12.2927L1.28568 12.6079L1.28568 12.6079C1.27748 12.64 1.27337 12.656 1.27111 12.6724C1.26884 12.6887 1.26842 12.7053 1.2676 12.7383L1.25 13.4418V13.4418V13.4418C1.24999 15.1243 1.24998 16.4571 1.38317 17.5068C1.52004 18.5855 1.80783 19.4674 2.4598 20.187C2.57721 20.3166 2.70182 20.4396 2.83307 20.5555C3.56189 21.1992 4.45505 21.4834 5.5476 21.6185C6.61069 21.75 7.96058 21.75 9.66452 21.75H9.66456H9.66459H9.66463H14.3354H14.3354H14.3354H14.3355C16.0394 21.75 17.3893 21.75 18.4524 21.6185C19.545 21.4834 20.4381 21.1992 21.1669 20.5555C21.2982 20.4396 21.4228 20.3166 21.5402 20.187C22.1922 19.4674 22.48 18.5855 22.6168 17.5068C22.75 16.4572 22.75 15.1244 22.75 13.442V13.442V13.442V13.4419L22.7321 12.7382C22.7313 12.7052 22.7309 12.6887 22.7286 12.6724C22.7263 12.656 22.7222 12.64 22.7141 12.608L22.6334 12.2927L21.4352 8.36342C21.0468 7.08983 20.7311 6.05452 20.3773 5.24756C20.0081 4.40577 19.5595 3.71879 18.8519 3.20079C18.1442 2.68278 17.3464 2.45747 16.4208 2.35153C15.5334 2.24997 14.4347 2.24998 13.0832 2.25H13.0831H13.0831ZM20.3807 11.599L19.579 8.96992C19.1696 7.62748 18.8852 6.70003 18.5817 6.00778C18.2882 5.33867 18.0159 4.98496 17.6844 4.74235C17.353 4.49973 16.9303 4.34472 16.1946 4.26051C15.4333 4.17339 14.4486 4.17188 13.024 4.17188H10.9753C9.55061 4.17188 8.5659 4.17339 7.80469 4.26051C7.06893 4.34472 6.64629 4.49973 6.31483 4.74234C5.98337 4.98496 5.711 5.33867 5.4176 6.00778C5.11404 6.70003 4.82961 7.62748 4.42024 8.96992L3.61371 11.6148C3.50704 11.9645 3.45371 12.1394 3.5438 12.259C3.63388 12.3785 3.81887 12.3783 4.18885 12.3779L19.8068 12.3622C20.1761 12.3618 20.3607 12.3616 20.4506 12.2422C20.5404 12.1227 20.4872 11.9481 20.3807 11.599ZM12 17C12 16.4477 12.4477 16 13 16H13.0112C13.5635 16 14.0112 16.4477 14.0112 17C14.0112 17.5523 13.5635 18 13.0112 18H13C12.4477 18 12 17.5523 12 17ZM16.9888 17C16.9888 16.4477 17.4365 16 17.9888 16H18C18.5523 16 19 16.4477 19 17C19 17.5523 18.5523 18 18 18H17.9888C17.4365 18 16.9888 17.5523 16.9888 17Z" fill="#141B34"/>
</svg>
