<svg width="24" height="24" viewBox="0 0 24 24" fill="none" xmlns="http://www.w3.org/2000/svg">
<path fill-rule="evenodd" clip-rule="evenodd" d="M2.53033 1.46967C2.23744 1.17678 1.76256 1.17678 1.46967 1.46967C1.17678 1.76256 1.17678 2.23744 1.46967 2.53033L4.88273 5.94339C2.65588 7.91213 1.25 10.792 1.25 14C1.25 16.9683 2.45406 19.6569 4.3986 21.6014C4.6915 21.8943 5.16637 21.8943 5.45926 21.6014C5.75216 21.3085 5.75216 20.8336 5.45926 20.5407C3.78452 18.866 2.75 16.5545 2.75 14C2.75 11.2071 3.98709 8.70336 5.94569 7.00635L7.71977 8.78043C6.21291 10.0176 5.25 11.8961 5.25 14C5.25 15.8638 6.00634 17.5523 7.22703 18.773C7.51992 19.0659 7.9948 19.0659 8.28769 18.773C8.58058 18.4801 8.58058 18.0052 8.28769 17.7123C7.33681 16.7614 6.75 15.45 6.75 14C6.75 12.3116 7.54659 10.8088 8.78696 9.84762L11.1354 12.196C10.4637 12.5185 10 13.2051 10 14C10 15.1046 10.8954 16 12 16C12.7949 16 13.4815 15.5363 13.804 14.8646L21.4697 22.5303C21.7626 22.8232 22.2374 22.8232 22.5303 22.5303C22.8232 22.2374 22.8232 21.7626 22.5303 21.4697L9.41752 8.35686C9.41009 8.3491 9.40252 8.34154 9.39482 8.33416L6.53768 5.47702C6.53213 5.47129 6.52651 5.46567 6.52082 5.46016L2.53033 1.46967ZM12 4.75C10.8926 4.75 9.83228 4.94426 8.85012 5.29994C8.46066 5.44097 8.0306 5.23958 7.88956 4.85012C7.74853 4.46066 7.94992 4.0306 8.33938 3.88956C9.48293 3.47545 10.716 3.25 12 3.25C17.9371 3.25 22.75 8.06294 22.75 14C22.75 15.284 22.5245 16.5171 22.1104 17.6606C21.9694 18.0501 21.5393 18.2515 21.1499 18.1104C20.7604 17.9694 20.559 17.5393 20.7001 17.1499C21.0557 16.1677 21.25 15.1074 21.25 14C21.25 8.89137 17.1086 4.75 12 4.75ZM11.25 8C11.25 7.58579 11.5858 7.25 12 7.25C15.7279 7.25 18.75 10.2721 18.75 14C18.75 14.4142 18.4142 14.75 18 14.75C17.5858 14.75 17.25 14.4142 17.25 14C17.25 11.1005 14.8995 8.75 12 8.75C11.5858 8.75 11.25 8.41421 11.25 8Z" fill="#28303F"/>
</svg>
