<svg width="24" height="24" viewBox="0 0 24 24" fill="none" xmlns="http://www.w3.org/2000/svg">
<path fill-rule="evenodd" clip-rule="evenodd" d="M2.75 14C2.75 8.89137 6.89137 4.75 12 4.75C17.1086 4.75 21.25 8.89137 21.25 14C21.25 16.5545 20.2155 18.866 18.5407 20.5407C18.2478 20.8336 18.2478 21.3085 18.5407 21.6014C18.8336 21.8943 19.3085 21.8943 19.6014 21.6014C21.5459 19.6569 22.75 16.9683 22.75 14C22.75 8.06294 17.9371 3.25 12 3.25C6.06294 3.25 1.25 8.06294 1.25 14C1.25 16.9683 2.45406 19.6569 4.3986 21.6014C4.6915 21.8943 5.16637 21.8943 5.45926 21.6014C5.75216 21.3085 5.75216 20.8336 5.45926 20.5407C3.78452 18.866 2.75 16.5545 2.75 14ZM6.75 14C6.75 11.1005 9.1005 8.75 12 8.75C14.8995 8.75 17.25 11.1005 17.25 14C17.25 15.45 16.6632 16.7614 15.7123 17.7123C15.4194 18.0052 15.4194 18.4801 15.7123 18.773C16.0052 19.0659 16.4801 19.0659 16.773 18.773C17.9937 17.5523 18.75 15.8638 18.75 14C18.75 10.2721 15.7279 7.25 12 7.25C8.27208 7.25 5.25 10.2721 5.25 14C5.25 15.8638 6.00634 17.5523 7.22703 18.773C7.51992 19.0659 7.9948 19.0659 8.28769 18.773C8.58058 18.4801 8.58058 18.0052 8.28769 17.7123C7.33681 16.7614 6.75 15.45 6.75 14ZM12 16C13.1046 16 14 15.1046 14 14C14 12.8954 13.1046 12 12 12C10.8954 12 10 12.8954 10 14C10 15.1046 10.8954 16 12 16Z" fill="#28303F"/>
</svg>
