<svg width="24" height="24" viewBox="0 0 24 24" fill="none" xmlns="http://www.w3.org/2000/svg">
<path fill-rule="evenodd" clip-rule="evenodd" d="M4.53033 3.46967C4.23744 3.17678 3.76256 3.17678 3.46967 3.46967C3.17678 3.76256 3.17678 4.23744 3.46967 4.53033L7.25 8.31066L7.25 18.1718C7.20334 18.1367 7.15858 18.0979 7.11612 18.0555L5.53033 16.4697C5.23744 16.1768 4.76256 16.1768 4.46967 16.4697C4.17678 16.7626 4.17678 17.2374 4.46967 17.5303L6.05546 19.1161C7.1294 20.1901 8.8706 20.1901 9.94454 19.1161L11.5303 17.5303C11.8232 17.2374 11.8232 16.7626 11.5303 16.4697C11.2374 16.1768 10.7626 16.1768 10.4697 16.4697L8.88388 18.0555C8.84142 18.0979 8.79666 18.1367 8.75 18.1718L8.75 9.81066L19.4697 20.5303C19.7626 20.8232 20.2374 20.8232 20.5303 20.5303C20.8232 20.2374 20.8232 19.7626 20.5303 19.4697L8.53112 7.47046L8.52954 7.46888L4.53033 3.46967ZM16.75 5.82817L16.75 13.6893L15.25 12.1893V5.82817C15.2033 5.86325 15.1586 5.90202 15.1161 5.94449L13.5303 7.53027C13.2374 7.82317 12.7626 7.82317 12.4697 7.53027C12.1768 7.23738 12.1768 6.76251 12.4697 6.46961L14.0555 4.88383C15.1294 3.80988 16.8706 3.80988 17.9445 4.88382L19.5303 6.46961C19.8232 6.7625 19.8232 7.23738 19.5303 7.53027C19.2374 7.82316 18.7626 7.82316 18.4697 7.53027L16.8839 5.94449C16.8414 5.90202 16.7967 5.86325 16.75 5.82817Z" fill="#28303F"/>
</svg>
