<svg width="24" height="24" viewBox="0 0 24 24" fill="none" xmlns="http://www.w3.org/2000/svg">
<path fill-rule="evenodd" clip-rule="evenodd" d="M15.1161 5.94424C15.1586 5.90178 15.2033 5.863 15.25 5.82793L15.25 13.9997C15.25 14.4139 15.5858 14.7497 16 14.7497C16.4142 14.7497 16.75 14.4139 16.75 13.9997L16.75 5.82793C16.7967 5.863 16.8414 5.90178 16.8839 5.94424L18.4697 7.53003C18.7626 7.82292 19.2374 7.82292 19.5303 7.53003C19.8232 7.23713 19.8232 6.76226 19.5303 6.46937L17.9445 4.88358C16.8706 3.80964 15.1294 3.80964 14.0555 4.88358L12.4697 6.46937C12.1768 6.76226 12.1768 7.23713 12.4697 7.53003C12.7626 7.82292 13.2374 7.82292 13.5303 7.53003L15.1161 5.94424ZM8.88388 18.0553C8.84142 18.0977 8.79666 18.1365 8.75 18.1716L8.75 9.99981C8.75 9.5856 8.41421 9.24981 8 9.24981C7.58579 9.24981 7.25 9.5856 7.25 9.99981L7.25 18.1716C7.20334 18.1365 7.15858 18.0977 7.11612 18.0553L5.53033 16.4695C5.23744 16.1766 4.76256 16.1766 4.46967 16.4695C4.17678 16.7624 4.17678 17.2373 4.46967 17.5301L6.05546 19.1159C7.1294 20.1899 8.8706 20.1899 9.94454 19.1159L11.5303 17.5301C11.8232 17.2373 11.8232 16.7624 11.5303 16.4695C11.2374 16.1766 10.7626 16.1766 10.4697 16.4695L8.88388 18.0553Z" fill="#28303F"/>
</svg>
