<svg width="24" height="24" viewBox="0 0 24 24" fill="none" xmlns="http://www.w3.org/2000/svg">
<path fill-rule="evenodd" clip-rule="evenodd" d="M18.1304 2.16569C19.9111 1.57212 21.75 2.89754 21.75 4.77457V16.9997C21.75 19.0708 20.0711 20.7497 18 20.7497C15.9289 20.7497 14.25 19.0708 14.25 16.9997C14.25 14.9286 15.9289 13.2497 18 13.2497C18.8442 13.2497 19.6233 13.5287 20.25 13.9994V9.77457C20.25 8.92137 19.4141 8.31891 18.6047 8.58872L11.9723 10.7995C10.6451 11.2419 9.75 12.4839 9.75 13.8828V18.9997C9.75 21.0708 8.07107 22.7497 6 22.7497C3.92893 22.7497 2.25 21.0708 2.25 18.9997C2.25 16.9286 3.92893 15.2497 6 15.2497C6.8442 15.2497 7.62325 15.5287 8.25 15.9994V8.88275C8.25 6.83821 9.55829 5.02305 11.4979 4.37651L18.1304 2.16569Z" fill="#28303F"/>
</svg>
