<svg width="24" height="24" viewBox="0 0 24 24" fill="none" xmlns="http://www.w3.org/2000/svg">
<path fill-rule="evenodd" clip-rule="evenodd" d="M21.7499 4.77457C21.7499 2.89754 19.911 1.57212 18.1303 2.16569L11.4978 4.37651C10.5327 4.69822 9.72389 5.30927 9.15479 6.09396L13.3883 10.3275L18.6046 8.58871C19.4141 8.31891 20.2499 8.92137 20.2499 9.77457V13.9994C19.6232 13.5287 18.8441 13.2497 17.9999 13.2497C17.4998 13.2497 17.0225 13.3476 16.5862 13.5253L21.4743 18.4135C21.652 17.9772 21.7499 17.4999 21.7499 16.9997V4.77457ZM3.53033 2.46943C3.23744 2.17653 2.76256 2.17653 2.46967 2.46943C2.17678 2.76232 2.17678 3.23719 2.46967 3.53009L8.25 9.31042V15.9994C7.62325 15.5287 6.8442 15.2497 6 15.2497C3.92893 15.2497 2.25 16.9286 2.25 18.9997C2.25 21.0708 3.92893 22.7497 6 22.7497C8.07107 22.7497 9.75 21.0708 9.75 18.9997V13.8828C9.75 13.0444 10.0715 12.2625 10.6148 11.6752C10.978 11.2825 11.4405 10.9768 11.9723 10.7995L3.53033 2.46943ZM21.5303 21.5301C21.8232 21.2372 21.8232 20.7623 21.5303 20.4694L20.6818 19.6209L15.3788 14.3179C14.6823 14.9988 14.25 15.9488 14.25 16.9997C14.25 19.0708 15.9289 20.7497 18 20.7497C18.5001 20.7497 18.9774 20.6518 19.4137 20.4741L20.4697 21.5301C20.7626 21.823 21.2374 21.823 21.5303 21.5301Z" fill="#28303F"/>
</svg>
