<svg width="24" height="24" viewBox="0 0 24 24" fill="none" xmlns="http://www.w3.org/2000/svg">
<path fill-rule="evenodd" clip-rule="evenodd" d="M7 1.25C4.92893 1.25 3.25 2.92893 3.25 5V19C3.25 21.0711 4.92893 22.75 7 22.75H10.5C10.9142 22.75 11.25 22.4142 11.25 22C11.25 21.5858 10.9142 21.25 10.5 21.25H7C5.75736 21.25 4.75 20.2426 4.75 19V5C4.75 3.75736 5.75736 2.75 7 2.75H15C16.2426 2.75 17.25 3.75736 17.25 5V10.5C17.25 10.9142 17.5858 11.25 18 11.25C18.4142 11.25 18.75 10.9142 18.75 10.5V5C18.75 2.92893 17.0711 1.25 15 1.25H7ZM16 13.75C15.3096 13.75 14.75 14.3096 14.75 15V16H17.25V15C17.25 14.3096 16.6904 13.75 16 13.75ZM13.25 15V16.1454C12.517 16.4421 12 17.1607 12 18V20C12 21.1046 12.8954 22 14 22H18C19.1046 22 20 21.1046 20 20V18C20 17.1607 19.483 16.4421 18.75 16.1454V15C18.75 13.4812 17.5188 12.25 16 12.25C14.4812 12.25 13.25 13.4812 13.25 15Z" fill="#28303F"/>
</svg>
