<svg width="24" height="24" viewBox="0 0 24 24" fill="none" xmlns="http://www.w3.org/2000/svg">
<path fill-rule="evenodd" clip-rule="evenodd" d="M2.75 12C2.75 6.89137 6.89137 2.75 12 2.75C16.75 2.75 20.6637 6.33026 21.1899 10.9394L19.2372 10.2885C18.8442 10.1575 18.4195 10.3699 18.2885 10.7628C18.1575 11.1558 18.3699 11.5805 18.7628 11.7115L21.7628 12.7115C21.9915 12.7877 22.243 12.7494 22.4385 12.6084C22.6341 12.4675 22.75 12.2411 22.75 12C22.75 6.06294 17.9371 1.25 12 1.25C6.06294 1.25 1.25 6.06294 1.25 12C1.25 17.9371 6.06294 22.75 12 22.75C16.2219 22.75 19.874 20.3161 21.6322 16.7782C21.8165 16.4073 21.6652 15.9571 21.2943 15.7728C20.9234 15.5885 20.4732 15.7397 20.2889 16.1107C18.7744 19.1582 15.6308 21.25 12 21.25C6.89137 21.25 2.75 17.1086 2.75 12ZM12 7.75C11.3096 7.75 10.75 8.30964 10.75 9V10H13.25V9C13.25 8.30964 12.6904 7.75 12 7.75ZM9.25 10C9.25 10.0479 9.25449 10.0947 9.26307 10.1401C8.5232 10.4335 8 11.1557 8 12V14C8 15.1046 8.89543 16 10 16H14C15.1046 16 16 15.1046 16 14V12C16 11.1557 15.4768 10.4335 14.7369 10.1401C14.7455 10.0947 14.75 10.0479 14.75 10V9C14.75 7.48122 13.5188 6.25 12 6.25C10.4812 6.25 9.25 7.48122 9.25 9V10Z" fill="#28303F"/>
</svg>
