<svg width="24" height="24" viewBox="0 0 24 24" fill="none" xmlns="http://www.w3.org/2000/svg">
<path fill-rule="evenodd" clip-rule="evenodd" d="M14.1662 2.49141C13.7623 2.39975 13.3605 2.65291 13.2688 3.05686C13.1772 3.4608 13.4303 3.86257 13.8343 3.95423C16.9174 4.65383 19.3462 7.08263 20.0458 10.1658C20.1133 10.4634 20.3545 10.6904 20.6556 10.7399C20.9568 10.7894 21.2579 10.6514 21.4171 10.3911L22.6401 8.39107C22.8562 8.03769 22.7449 7.57604 22.3915 7.35995C22.0381 7.14386 21.5765 7.25515 21.3604 7.60853L20.9887 8.21627C19.7834 5.35592 17.2536 3.19198 14.1662 2.49141ZM3.95466 13.8338C3.88713 13.5362 3.646 13.3092 3.34487 13.2597C3.04373 13.2102 2.74264 13.3481 2.58342 13.6085L1.36028 15.6085C1.14417 15.9619 1.25544 16.4235 1.60881 16.6396C1.96217 16.8557 2.42383 16.7445 2.63994 16.3911L3.01169 15.7832C4.21699 18.6436 6.74685 20.8076 9.83427 21.5082C10.2382 21.5999 10.64 21.3467 10.7316 20.9428C10.8233 20.5388 10.5701 20.137 10.1662 20.0454C7.08307 19.3458 4.65426 16.917 3.95466 13.8338ZM5.45914 8.64121C4.67809 9.42226 4.67809 10.6886 5.45914 11.4696L12.5302 18.5407C13.3113 19.3217 14.5776 19.3217 15.3586 18.5407L18.5409 15.3585C19.3219 14.5774 19.3219 13.3111 18.5409 12.53L11.4698 5.45897C10.6887 4.67792 9.42242 4.67793 8.64137 5.45897L5.45914 8.64121Z" fill="#28303F"/>
</svg>
