<svg width="24" height="24" viewBox="0 0 24 24" fill="none" xmlns="http://www.w3.org/2000/svg">
<path fill-rule="evenodd" clip-rule="evenodd" d="M20 6L20 18C20 20.2091 18.2091 22 16 22L8 22C5.79086 22 4 20.2091 4 18V8.65685C4 7.59599 4.42143 6.57857 5.17157 5.82843L7.82843 3.17157C8.57858 2.42143 9.59599 2 10.6569 2H16C18.2091 2 20 3.79086 20 6ZM17.75 5C17.75 4.58579 17.4142 4.25 17 4.25C16.5858 4.25 16.25 4.58579 16.25 5V7C16.25 7.41421 16.5858 7.75 17 7.75C17.4142 7.75 17.75 7.41421 17.75 7V5ZM14 4.25C14.4142 4.25 14.75 4.58579 14.75 5V7C14.75 7.41421 14.4142 7.75 14 7.75C13.5858 7.75 13.25 7.41421 13.25 7V5C13.25 4.58579 13.5858 4.25 14 4.25ZM11.75 5C11.75 4.58579 11.4142 4.25 11 4.25C10.5858 4.25 10.25 4.58579 10.25 5V7C10.25 7.41421 10.5858 7.75 11 7.75C11.4142 7.75 11.75 7.41421 11.75 7V5Z" fill="#28303F"/>
</svg>
