<svg width="24" height="24" viewBox="0 0 24 24" fill="none" xmlns="http://www.w3.org/2000/svg">
<path fill-rule="evenodd" clip-rule="evenodd" d="M5.3777 4.94296L10.3755 2.72171C11.4098 2.26204 12.5904 2.26203 13.6246 2.72171L18.6026 4.93415C20.0583 5.58113 21.0139 7.03525 20.9119 8.62498C20.5206 14.7228 18.7773 17.4793 14.0647 20.6773C12.821 21.5213 11.1805 21.5192 9.93588 20.6766C5.23776 17.496 3.42971 14.7778 3.07008 8.6036C2.97809 7.0243 3.93208 5.58546 5.3777 4.94296ZM15.5645 10.4936C15.8373 10.1818 15.8057 9.70801 15.494 9.43525C15.1822 9.16249 14.7084 9.19408 14.4356 9.5058L11.5657 12.7857C11.4776 12.8864 11.3259 12.8999 11.2214 12.8163L9.4686 11.414C9.14515 11.1553 8.67319 11.2077 8.41443 11.5312C8.15567 11.8546 8.20811 12.3266 8.53156 12.5853L10.2844 13.9876C11.0157 14.5726 12.0779 14.4782 12.6946 13.7735L15.5645 10.4936Z" fill="#28303F"/>
</svg>
