<svg width="24" height="24" viewBox="0 0 24 24" fill="none" xmlns="http://www.w3.org/2000/svg">
<path fill-rule="evenodd" clip-rule="evenodd" d="M11.1515 4H12.8485C13.7857 4 14.5455 4.71634 14.5455 5.6C14.5455 6.61122 15.6274 7.25412 16.5156 6.77065L16.6058 6.72154C17.4174 6.27972 18.4553 6.54192 18.9239 7.30719L19.7724 8.69283C20.241 9.45809 19.9629 10.4366 19.1512 10.8785C18.2627 11.3622 18.2627 12.6378 19.1512 13.1215C19.9629 13.5634 20.241 14.5419 19.7724 15.3072L18.9239 16.6928C18.4553 17.4581 17.4174 17.7203 16.6058 17.2785L16.5156 17.2294C15.6274 16.7459 14.5455 17.3888 14.5455 18.4C14.5455 19.2837 13.7857 20 12.8485 20H11.1515C10.2143 20 9.45453 19.2837 9.45453 18.4C9.45453 17.3888 8.37258 16.7459 7.48444 17.2294L7.39423 17.2785C6.58258 17.7203 5.54472 17.4581 5.07612 16.6928L4.22763 15.3072C3.75902 14.5419 4.03711 13.5634 4.84876 13.1215C5.73733 12.6378 5.73734 11.3622 4.84877 10.8785C4.03711 10.4366 3.75902 9.45808 4.22763 8.69281L5.07612 7.30717C5.54472 6.54191 6.58258 6.27971 7.39423 6.72153L7.48444 6.77064C8.37258 7.25411 9.45453 6.61121 9.45453 5.6C9.45453 4.71634 10.2143 4 11.1515 4ZM12 15C13.6569 15 15 13.6569 15 12C15 10.3431 13.6569 9 12 9C10.3431 9 9 10.3431 9 12C9 13.6569 10.3431 15 12 15Z" fill="#28303F"/>
</svg>
