<svg width="24" height="24" viewBox="0 0 24 24" fill="none" xmlns="http://www.w3.org/2000/svg">
<path fill-rule="evenodd" clip-rule="evenodd" d="M12.75 2C12.75 1.58579 12.4142 1.25 12 1.25C11.5858 1.25 11.25 1.58579 11.25 2V6C11.25 6.41421 11.5858 6.75 12 6.75C12.4142 6.75 12.75 6.41421 12.75 6V2ZM8.30028 3.51924C8.67984 3.3534 8.8531 2.91126 8.68726 2.5317C8.52143 2.15213 8.07929 1.97887 7.69972 2.14471C3.90459 3.80287 1.25 7.59054 1.25 11.9999C1.25 17.937 6.06294 22.7499 12 22.7499C17.9371 22.7499 22.75 17.937 22.75 11.9999C22.75 7.59054 20.0954 3.80287 16.3003 2.14471C15.9207 1.97887 15.4786 2.15213 15.3127 2.5317C15.1469 2.91126 15.3202 3.3534 15.6997 3.51924C18.9682 4.94731 21.25 8.20796 21.25 11.9999C21.25 17.1085 17.1086 21.2499 12 21.2499C6.89137 21.2499 2.75 17.1085 2.75 11.9999C2.75 8.20796 5.03179 4.94731 8.30028 3.51924Z" fill="#28303F"/>
</svg>
