<svg width="24" height="24" viewBox="0 0 24 24" fill="none" xmlns="http://www.w3.org/2000/svg">
<path fill-rule="evenodd" clip-rule="evenodd" d="M21.75 4C21.75 3.58579 21.4142 3.25 21 3.25C20.5858 3.25 20.25 3.58579 20.25 4V20C20.25 20.4142 20.5858 20.75 21 20.75C21.4142 20.75 21.75 20.4142 21.75 20V4ZM15.75 8C15.75 7.58579 15.4142 7.25 15 7.25C14.5858 7.25 14.25 7.58579 14.25 8V20C14.25 20.4142 14.5858 20.75 15 20.75C15.4142 20.75 15.75 20.4142 15.75 20V8ZM9 11.25C9.41421 11.25 9.75 11.5858 9.75 12V20C9.75 20.4142 9.41421 20.75 9 20.75C8.58579 20.75 8.25 20.4142 8.25 20V12C8.25 11.5858 8.58579 11.25 9 11.25ZM3.75 16C3.75 15.5858 3.41421 15.25 3 15.25C2.58579 15.25 2.25 15.5858 2.25 16V20C2.25 20.4142 2.58579 20.75 3 20.75C3.41421 20.75 3.75 20.4142 3.75 20V16Z" fill="#28303F"/>
</svg>
