<svg width="24" height="24" viewBox="0 0 24 24" fill="none" xmlns="http://www.w3.org/2000/svg">
<path fill-rule="evenodd" clip-rule="evenodd" d="M5.14817 19C3.18336 19 2.25357 16.6687 3.71401 15.404L9.41047 10.4711L2.46967 3.53033C2.17678 3.23744 2.17678 2.76256 2.46967 2.46967C2.76256 2.17678 3.23744 2.17678 3.53033 2.46967L21.5303 20.4697C21.8232 20.7626 21.8232 21.2374 21.5303 21.5303C21.2374 21.8232 20.7626 21.8232 20.4697 21.5303L17.9393 19H5.14817ZM21 16.9372V5.06681C21 3.28093 18.8016 2.33888 17.4219 3.53357L11.6191 8.55851L20.822 17.7614C20.9365 17.509 21 17.2302 21 16.9372Z" fill="#28303F"/>
</svg>
