<svg width="24" height="24" viewBox="0 0 24 24" fill="none" xmlns="http://www.w3.org/2000/svg">
<path fill-rule="evenodd" clip-rule="evenodd" d="M15 20H4.14817C2.18336 20 1.25357 17.6687 2.71401 16.404L16.422 4.53357C17.8016 3.33888 20 4.28093 20 6.06681V13C20 13.5523 19.5523 14 19 14H17C16.4477 14 16 14.4477 16 15V19C16 19.5523 15.5523 20 15 20ZM22.2803 16.2803C22.5732 15.9874 22.5732 15.5126 22.2803 15.2197C21.9874 14.9268 21.5126 14.9268 21.2197 15.2197L19.75 16.6893L18.2803 15.2197C17.9874 14.9268 17.5126 14.9268 17.2197 15.2197C16.9268 15.5126 16.9268 15.9874 17.2197 16.2803L18.6893 17.75L17.2197 19.2197C16.9268 19.5126 16.9268 19.9874 17.2197 20.2803C17.5126 20.5732 17.9874 20.5732 18.2803 20.2803L19.75 18.8107L21.2197 20.2803C21.5126 20.5732 21.9874 20.5732 22.2803 20.2803C22.5732 19.9874 22.5732 19.5126 22.2803 19.2197L20.8107 17.75L22.2803 16.2803Z" fill="#28303F"/>
</svg>
