<svg width="24" height="24" viewBox="0 0 24 24" fill="none" xmlns="http://www.w3.org/2000/svg">
<path fill-rule="evenodd" clip-rule="evenodd" d="M19 9.75H21V6.06681C21 4.28093 18.8016 3.33888 17.422 4.53357L3.71401 16.404C2.25357 17.6687 3.18336 20 5.14817 20H16.75V12C16.75 10.7574 17.7574 9.75 19 9.75ZM19.75 12C19.75 11.5858 19.4142 11.25 19 11.25C18.5858 11.25 18.25 11.5858 18.25 12V16C18.25 16.4142 18.5858 16.75 19 16.75C19.4142 16.75 19.75 16.4142 19.75 16V12ZM19.75 19C19.75 18.5858 19.4142 18.25 19 18.25C18.5858 18.25 18.25 18.5858 18.25 19V20C18.25 20.4142 18.5858 20.75 19 20.75C19.4142 20.75 19.75 20.4142 19.75 20V19Z" fill="#28303F"/>
</svg>
