<svg width="24" height="24" viewBox="0 0 24 24" fill="none" xmlns="http://www.w3.org/2000/svg">
<path fill-rule="evenodd" clip-rule="evenodd" d="M20 3.25C20.4142 3.25 20.75 3.58579 20.75 4V13C20.75 13.4142 20.4142 13.75 20 13.75C19.5858 13.75 19.25 13.4142 19.25 13V4C19.25 3.58579 19.5858 3.25 20 3.25ZM14 7.25C14.4142 7.25 14.75 7.58579 14.75 8V20C14.75 20.4142 14.4142 20.75 14 20.75C13.5858 20.75 13.25 20.4142 13.25 20V8C13.25 7.58579 13.5858 7.25 14 7.25ZM8.75 12C8.75 11.5858 8.41421 11.25 8 11.25C7.58579 11.25 7.25 11.5858 7.25 12V20C7.25 20.4142 7.58579 20.75 8 20.75C8.41421 20.75 8.75 20.4142 8.75 20V12ZM2 15.25C2.41421 15.25 2.75 15.5858 2.75 16V20C2.75 20.4142 2.41421 20.75 2 20.75C1.58579 20.75 1.25 20.4142 1.25 20V16C1.25 15.5858 1.58579 15.25 2 15.25ZM21.0607 18L22.5303 16.5303C22.8232 16.2374 22.8232 15.7626 22.5303 15.4697C22.2374 15.1768 21.7626 15.1768 21.4697 15.4697L20 16.9393L18.5303 15.4697C18.2374 15.1768 17.7626 15.1768 17.4697 15.4697C17.1768 15.7626 17.1768 16.2374 17.4697 16.5303L18.9393 18L17.4697 19.4697C17.1768 19.7626 17.1768 20.2374 17.4697 20.5303C17.7626 20.8232 18.2374 20.8232 18.5303 20.5303L20 19.0607L21.4697 20.5303C21.7626 20.8232 22.2374 20.8232 22.5303 20.5303C22.8232 20.2374 22.8232 19.7626 22.5303 19.4697L21.0607 18Z" fill="#28303F"/>
</svg>
