<svg width="24" height="24" viewBox="0 0 24 24" fill="none" xmlns="http://www.w3.org/2000/svg">
<path fill-rule="evenodd" clip-rule="evenodd" d="M4 18L4 6C4 3.79086 5.79086 2 8 2H13.3431C14.404 2 15.4214 2.42143 16.1716 3.17157L18.8284 5.82843C19.5786 6.57857 20 7.59599 20 8.65685L20 18C20 20.2091 18.2091 22 16 22L8 22C5.79086 22 4 20.2091 4 18ZM11.25 18C11.25 17.5858 11.5858 17.25 12 17.25H16C16.4142 17.25 16.75 17.5858 16.75 18C16.75 18.4142 16.4142 18.75 16 18.75H12C11.5858 18.75 11.25 18.4142 11.25 18ZM12 13.25C11.5858 13.25 11.25 13.5858 11.25 14C11.25 14.4142 11.5858 14.75 12 14.75H16C16.4142 14.75 16.75 14.4142 16.75 14C16.75 13.5858 16.4142 13.25 16 13.25H12Z" fill="#28303F"/>
</svg>
