<svg width="24" height="24" viewBox="0 0 24 24" fill="none" xmlns="http://www.w3.org/2000/svg">
<path fill-rule="evenodd" clip-rule="evenodd" d="M22 6C22 3.79086 20.2091 2 18 2H6C3.79086 2 2 3.79086 2 6V11.25H22V6ZM22 12.75H2V18C2 20.2091 3.79086 22 6 22H18C20.2091 22 22 20.2091 22 18V12.75ZM18 4.25C18.4142 4.25 18.75 4.58579 18.75 5V7C18.75 7.41421 18.4142 7.75 18 7.75C17.5858 7.75 17.25 7.41421 17.25 7V5C17.25 4.58579 17.5858 4.25 18 4.25ZM14.75 5C14.75 4.58579 14.4142 4.25 14 4.25C13.5858 4.25 13.25 4.58579 13.25 5V7C13.25 7.41421 13.5858 7.75 14 7.75C14.4142 7.75 14.75 7.41421 14.75 7V5ZM18 15.25C18.4142 15.25 18.75 15.5858 18.75 16V18C18.75 18.4142 18.4142 18.75 18 18.75C17.5858 18.75 17.25 18.4142 17.25 18V16C17.25 15.5858 17.5858 15.25 18 15.25ZM14.75 16C14.75 15.5858 14.4142 15.25 14 15.25C13.5858 15.25 13.25 15.5858 13.25 16V18C13.25 18.4142 13.5858 18.75 14 18.75C14.4142 18.75 14.75 18.4142 14.75 18V16Z" fill="#28303F"/>
</svg>
