<svg width="24" height="24" viewBox="0 0 24 24" fill="none" xmlns="http://www.w3.org/2000/svg">
<path fill-rule="evenodd" clip-rule="evenodd" d="M19.8284 7.82843C19.961 7.96101 20.0833 8.10195 20.1949 8.25L18 8.25C16.2051 8.25 14.75 6.79493 14.75 5V2.80513C14.8981 2.91667 15.039 3.03899 15.1716 3.17157L19.8284 7.82843ZM13.25 5V2.10414C12.955 2.03547 12.6509 2 12.3431 2H7C4.79086 2 3 3.79086 3 6V18C3 20.2091 4.79086 22 7 22L17 22C19.2091 22 21 20.2091 21 18L21 10.6569C21 10.3491 20.9645 10.045 20.8959 9.75L18 9.75C15.3767 9.75 13.25 7.62335 13.25 5ZM15.5644 12.4939C15.8372 12.1822 15.8056 11.7083 15.4939 11.4356C15.1822 11.1628 14.7083 11.1944 14.4356 11.5061L11.5657 14.786C11.4776 14.8867 11.3258 14.9002 11.2213 14.8166L9.46852 13.4143C9.14507 13.1556 8.67311 13.208 8.41435 13.5315C8.15559 13.8549 8.20803 14.3269 8.53148 14.5857L10.2843 15.9879C11.0156 16.5729 12.0778 16.4786 12.6945 15.7738L15.5644 12.4939Z" fill="#28303F"/>
</svg>
