<svg width="24" height="24" viewBox="0 0 24 24" fill="none" xmlns="http://www.w3.org/2000/svg">
<path fill-rule="evenodd" clip-rule="evenodd" d="M22.75 12C22.75 8.27208 19.7279 5.25 16 5.25H8C4.27208 5.25 1.25 8.27208 1.25 12C1.25 15.7279 4.27208 18.75 8 18.75L16 18.75C19.7279 18.75 22.75 15.7279 22.75 12ZM13.093 17.25C11.2484 16.2265 10 14.259 10 12C10 9.74098 11.2484 7.77355 13.093 6.75L8 6.75C5.10051 6.75 2.75 9.1005 2.75 12C2.75 14.8995 5.10051 17.25 8 17.25L13.093 17.25Z" fill="#28303F"/>
</svg>
