<svg width="24" height="24" viewBox="0 0 24 24" fill="none" xmlns="http://www.w3.org/2000/svg">
<path fill-rule="evenodd" clip-rule="evenodd" d="M10.2001 3.40033L11.2001 2.06699C11.6001 1.53366 12.4001 1.53366 12.8001 2.06699L13.8001 3.40033C14.2945 4.05956 13.8242 5.00033 13.0001 5.00033H12.75V10.9597L17.079 9.51666C17.1811 9.48263 17.25 9.38709 17.25 9.27948V7.29955C16.8016 7.04018 16.5 6.55544 16.5 6.00024C16.5 5.17182 17.1716 4.50024 18 4.50024C18.8284 4.50024 19.5 5.17182 19.5 6.00024C19.5 6.55547 19.1983 7.04024 18.75 7.29959V9.27948C18.75 10.0327 18.268 10.7015 17.5534 10.9397L12.75 12.5408V13.9811C12.7503 13.9937 12.7503 14.0065 12.75 14.0192V18.0002C12.75 18.0481 12.7455 18.095 12.7369 18.1404C13.4768 18.4338 14 19.1559 14 20.0002C14 21.1048 13.1046 22.0002 12 22.0002C10.8954 22.0002 10 21.1048 10 20.0002C10 19.1559 10.5232 18.4338 11.2631 18.1404C11.2545 18.095 11.25 18.0481 11.25 18.0002V14.5408L6.44664 12.9397C5.73204 12.7015 5.25004 12.0327 5.25004 11.2795V9.46875C4.81871 9.35775 4.5 8.96622 4.5 8.50024V7.50024C4.5 6.94796 4.94772 6.50024 5.5 6.50024H6.5C7.05228 6.50024 7.5 6.94796 7.5 7.50024V8.50024C7.5 8.96619 7.18133 9.3577 6.75004 9.46873V11.2795C6.75004 11.3871 6.8189 11.4826 6.92098 11.5167L11.25 12.9597V12.0192C11.2497 12.0065 11.2497 11.9937 11.25 11.9811V5.00033H11.0001C10.1761 5.00033 9.70568 4.05956 10.2001 3.40033Z" fill="#28303F"/>
</svg>
