<svg width="24" height="24" viewBox="0 0 24 24" fill="none" xmlns="http://www.w3.org/2000/svg">
<path fill-rule="evenodd" clip-rule="evenodd" d="M7.5 7C7.5 5.89543 8.39543 5 9.5 5H14.5C15.6046 5 16.5 5.89543 16.5 7V17C16.5 18.1046 15.6046 19 14.5 19H9.5C8.39543 19 7.5 18.1046 7.5 17V7ZM19 9.25C19.4142 9.25 19.75 9.58579 19.75 10V14C19.75 14.4142 19.4142 14.75 19 14.75C18.5858 14.75 18.25 14.4142 18.25 14V10C18.25 9.58579 18.5858 9.25 19 9.25ZM22.75 9C22.75 8.58579 22.4142 8.25 22 8.25C21.5858 8.25 21.25 8.58579 21.25 9V15C21.25 15.4142 21.5858 15.75 22 15.75C22.4142 15.75 22.75 15.4142 22.75 15V9ZM5 14.75C4.58579 14.75 4.25 14.4142 4.25 14L4.25 10C4.25 9.58579 4.58579 9.25 5 9.25C5.41421 9.25 5.75 9.58579 5.75 10L5.75 14C5.75 14.4142 5.41421 14.75 5 14.75ZM1.25 15C1.25 15.4142 1.58579 15.75 2 15.75C2.41421 15.75 2.75 15.4142 2.75 15L2.75 9C2.75 8.58579 2.41421 8.25 2 8.25C1.58579 8.25 1.25 8.58579 1.25 9V15Z" fill="#28303F"/>
</svg>
