<svg width="24" height="24" viewBox="0 0 24 24" fill="none" xmlns="http://www.w3.org/2000/svg">
<path fill-rule="evenodd" clip-rule="evenodd" d="M1.46967 1.46967C1.17678 1.76256 1.17678 2.23744 1.46967 2.53033L3.68028 4.74095C2.6632 5.46618 2 6.65564 2 8V16C2 18.2091 3.79086 20 6 20H12C13.8826 20 15.4615 18.6994 15.8871 16.9477L21.4697 22.5303C21.7626 22.8232 22.2374 22.8232 22.5303 22.5303C22.8232 22.2374 22.8232 21.7626 22.5303 21.4697L2.53033 1.46967C2.23744 1.17678 1.76256 1.17678 1.46967 1.46967ZM16 12.9393L7.06066 4H12C14.2091 4 16 5.79086 16 8V12.9393ZM17.5 14.4393L20.0069 16.9463C21.0253 16.9347 22 16.144 22 14.9424V9.05749C22 7.24442 19.781 6.3669 18.5409 7.68961L17.5 8.79993V14.4393Z" fill="#28303F"/>
</svg>
