<svg width="24" height="24" viewBox="0 0 24 24" fill="none" xmlns="http://www.w3.org/2000/svg">
<path fill-rule="evenodd" clip-rule="evenodd" d="M2 8C2 5.79086 3.79086 4 6 4H12C14.2091 4 16 5.79086 16 8V16C16 18.2091 14.2091 20 12 20H6C3.79086 20 2 18.2091 2 16V8ZM13 9C13 10.1046 12.1046 11 11 11C9.89543 11 9 10.1046 9 9C9 7.89543 9.89543 7 11 7C12.1046 7 13 7.89543 13 9ZM18.5409 16.3103L17.5 15.1999V8.79993L18.5409 7.68961C19.781 6.3669 22 7.24442 22 9.05749V14.9424C22 16.7554 19.781 17.633 18.5409 16.3103Z" fill="#28303F"/>
</svg>
