<svg width="24" height="24" viewBox="0 0 24 24" fill="none" xmlns="http://www.w3.org/2000/svg">
<path fill-rule="evenodd" clip-rule="evenodd" d="M12 18C12.6831 18 13.3516 17.9104 14 17.7515V13.2361C13.4692 13.7111 12.7684 14 12 14C10.3431 14 9 12.6569 9 11C9 9.34315 10.3431 8 12 8C13.3062 8 14.4175 8.83481 14.8293 10H21.8319C21.6891 9.58654 21.4552 9.19495 21.1303 8.8531C19.1745 6.79533 15.8155 4 12 4C8.18448 4 4.82549 6.79533 2.86971 8.8531C1.7101 10.0732 1.7101 11.9268 2.86971 13.1469C4.82549 15.2047 8.18448 18 12 18ZM18.5 12.75C18.0858 12.75 17.75 13.0858 17.75 13.5V15H19.25V13.5C19.25 13.0858 18.9142 12.75 18.5 12.75ZM16.25 13.5V15.1454C15.517 15.4421 15 16.1607 15 17V18C15 19.1046 15.8954 20 17 20H20C21.1046 20 22 19.1046 22 18V17C22 16.1607 21.483 15.4421 20.75 15.1454V13.5C20.75 12.2574 19.7426 11.25 18.5 11.25C17.2574 11.25 16.25 12.2574 16.25 13.5Z" fill="#28303F"/>
</svg>
