<svg width="24" height="24" viewBox="0 0 24 24" fill="none" xmlns="http://www.w3.org/2000/svg">
<path fill-rule="evenodd" clip-rule="evenodd" d="M2.86971 9.8531C1.7101 11.0732 1.7101 12.9268 2.86971 14.1469C4.82549 16.2047 8.18448 19 12 19C13.66 19 15.2337 18.4709 16.6429 17.7036L19.4697 20.5303C19.7626 20.8232 20.2374 20.8232 20.5303 20.5303C20.8232 20.2374 20.8232 19.7626 20.5303 19.4697L4.53033 3.46967C4.23744 3.17678 3.76256 3.17678 3.46967 3.46967C3.17678 3.76256 3.17678 4.23744 3.46967 4.53033L6.04468 7.10534C4.78196 7.97414 3.69953 8.98001 2.86971 9.8531ZM9 12C9 13.6569 10.3431 15 12 15C12.5564 15 13.0773 14.8486 13.524 14.5847L9.41536 10.4761C9.15145 10.9227 9 11.4437 9 12ZM21.1302 9.8531C22.2899 11.0732 22.2899 12.9268 21.1302 14.1469C20.5631 14.7437 19.8779 15.4025 19.0977 16.0371L14.9992 11.9386C14.9669 10.3305 13.6694 9.03283 12.0612 9.00061L8.71851 5.6579C9.75435 5.25098 10.8567 5 11.9999 5C15.8155 5 19.1745 7.79533 21.1302 9.8531Z" fill="#28303F"/>
</svg>
