<svg width="24" height="24" viewBox="0 0 24 24" fill="none" xmlns="http://www.w3.org/2000/svg">
<path fill-rule="evenodd" clip-rule="evenodd" d="M13.1005 5.24234C12.3195 6.02339 12.3195 7.28972 13.1005 8.07077L15.9289 10.8992C16.71 11.6802 17.9763 11.6802 18.7574 10.8992L21.5858 8.07077C22.3668 7.28972 22.3668 6.02339 21.5858 5.24234L18.7574 2.41391C17.9763 1.63286 16.71 1.63286 15.9289 2.41391L13.1005 5.24234ZM4 1.9998C2.89543 1.9998 2 2.89523 2 3.9998V7.9998C2 9.10437 2.89543 9.9998 4 9.9998H8C9.10457 9.9998 10 9.10437 10 7.9998V3.9998C10 2.89523 9.10457 1.9998 8 1.9998H4ZM4 13.9998C2.89543 13.9998 2 14.8952 2 15.9998V19.9998C2 21.1044 2.89543 21.9998 4 21.9998H8C9.10457 21.9998 10 21.1044 10 19.9998V15.9998C10 14.8952 9.10457 13.9998 8 13.9998H4ZM14 15.9998C14 14.8952 14.8954 13.9998 16 13.9998H20C21.1046 13.9998 22 14.8952 22 15.9998V19.9998C22 21.1044 21.1046 21.9998 20 21.9998H16C14.8954 21.9998 14 21.1044 14 19.9998V15.9998Z" fill="#28303F"/>
</svg>
