<svg width="24" height="24" viewBox="0 0 24 24" fill="none" xmlns="http://www.w3.org/2000/svg">
<path fill-rule="evenodd" clip-rule="evenodd" d="M10.3928 18.8304L3.03577 8.89839C2.44188 8.09664 2.52295 6.96823 3.29572 6.3371C8.74374 1.88763 15.2561 1.88763 20.7041 6.3371C21.4769 6.96823 21.558 8.09664 20.9641 8.89839L19.2499 11.2125V10C19.2499 8.75736 18.2426 7.75 16.9999 7.75C15.7573 7.75 14.7499 8.75736 14.7499 10V17.2875L13.607 18.8304C12.8075 19.9098 11.1924 19.9098 10.3928 18.8304ZM17.75 10C17.75 9.58579 17.4142 9.25 17 9.25C16.5858 9.25 16.25 9.58579 16.25 10V14C16.25 14.4142 16.5858 14.75 17 14.75C17.4142 14.75 17.75 14.4142 17.75 14V10ZM17.75 17C17.75 16.5858 17.4142 16.25 17 16.25C16.5858 16.25 16.25 16.5858 16.25 17V18C16.25 18.4142 16.5858 18.75 17 18.75C17.4142 18.75 17.75 18.4142 17.75 18V17Z" fill="#28303F"/>
</svg>
