<svg width="24" height="24" viewBox="0 0 24 24" fill="none" xmlns="http://www.w3.org/2000/svg">
<path fill-rule="evenodd" clip-rule="evenodd" d="M2.46967 2.46967C2.76256 2.17678 3.23744 2.17678 3.53033 2.46967L6.23675 5.17609C6.24496 5.18393 6.253 5.19197 6.26088 5.20022L10.0141 8.95347C10.0218 8.96084 10.0294 8.96838 10.0368 8.9761L15.2073 14.1466C15.2142 14.1533 15.221 14.1601 15.2276 14.167L21.5303 20.4697C21.8232 20.7626 21.8232 21.2374 21.5303 21.5303C21.2374 21.8232 20.7626 21.8232 20.4697 21.5303L14.2093 15.27C13.7015 14.941 13.0967 14.75 12.4451 14.75C11.4658 14.75 10.5884 15.1821 9.99145 15.8686C9.71965 16.1812 9.24593 16.2143 8.93336 15.9425C8.6208 15.6707 8.58775 15.1969 8.85955 14.8844C9.67848 13.9426 10.8649 13.3253 12.1958 13.2564L9.30693 10.3676C8.34161 10.765 7.46763 11.3405 6.72617 12.0538C6.42766 12.341 5.95288 12.3318 5.6657 12.0333C5.37853 11.7348 5.38772 11.26 5.68622 10.9729C6.41511 10.2716 7.25323 9.6825 8.17288 9.23355L5.595 6.65566C4.84733 7.10816 4.14783 7.63258 3.50614 8.21939C3.20047 8.49892 2.72607 8.47773 2.44654 8.17206C2.16701 7.86638 2.1882 7.39198 2.49387 7.11245C3.11767 6.542 3.79076 6.02438 4.50607 5.56673L2.46967 3.53033C2.17678 3.23744 2.17678 2.76256 2.46967 2.46967ZM13.4451 19C13.4451 19.5523 12.9974 20 12.4451 20C11.8928 20 11.4451 19.5523 11.4451 19C11.4451 18.4477 11.8928 18 12.4451 18C12.9974 18 13.4451 18.4477 13.4451 19ZM8.75752 5.2697C9.92725 4.9315 11.1643 4.75 12.4451 4.75C15.8903 4.75 19.027 6.06396 21.384 8.21939C21.6897 8.49892 22.1641 8.47773 22.4436 8.17206C22.7231 7.86638 22.7019 7.39198 22.3963 7.11245C19.7736 4.7141 16.2795 3.25 12.4451 3.25C11.0219 3.25 9.64465 3.45176 8.34089 3.82872C7.94298 3.94377 7.71367 4.35961 7.82872 4.75752C7.94377 5.15544 8.35961 5.38474 8.75752 5.2697ZM13.065 8.26948C12.6516 8.24351 12.2955 8.55758 12.2695 8.97098C12.2435 9.38438 12.5576 9.74056 12.971 9.76653C14.9822 9.89289 16.798 10.7397 18.164 12.0538C18.4625 12.341 18.9373 12.3318 19.2244 12.0333C19.5116 11.7348 19.5024 11.26 19.2039 10.9729C17.5913 9.42148 15.4439 8.41893 13.065 8.26948Z" fill="#28303F"/>
</svg>
