<svg width="24" height="24" viewBox="0 0 24 24" fill="none" xmlns="http://www.w3.org/2000/svg">
<path fill-rule="evenodd" clip-rule="evenodd" d="M3.53033 2.46967C3.23744 2.17678 2.76256 2.17678 2.46967 2.46967C2.17678 2.76256 2.17678 3.23744 2.46967 3.53033L5.65901 6.71967C4.85406 7.17026 4.06432 7.7094 3.29575 8.3371C2.52298 8.96823 2.44191 10.0966 3.0358 10.8984L10.3928 20.8304C11.1924 21.9098 12.8075 21.9098 13.6071 20.8304L16.2295 17.2901L20.4697 21.5303C20.7626 21.8232 21.2374 21.8232 21.5303 21.5303C21.8232 21.2374 21.8232 20.7626 21.5303 20.4697L3.53033 2.46967ZM20.9641 10.8984C21.558 10.0966 21.4769 8.96823 20.7041 8.3371C16.9299 5.25461 12.6448 4.3076 8.55664 5.49606L17.9832 14.9226L20.9641 10.8984Z" fill="#28303F"/>
</svg>
