<svg width="24" height="24" viewBox="0 0 24 24" fill="none" xmlns="http://www.w3.org/2000/svg">
<path fill-rule="evenodd" clip-rule="evenodd" d="M3.06107 8.21939C5.41808 6.06396 8.55473 4.75 12 4.75C15.4453 4.75 18.5819 6.06396 20.9389 8.21939C21.2446 8.49892 21.719 8.47773 21.9985 8.17206C22.2781 7.86638 22.2569 7.39198 21.9512 7.11245C19.3286 4.7141 15.8344 3.25 12 3.25C8.16561 3.25 4.67144 4.7141 2.0488 7.11245C1.74313 7.39198 1.72194 7.86638 2.00147 8.17206C2.281 8.47773 2.7554 8.49892 3.06107 8.21939ZM6.2811 12.0538C7.76484 10.6264 9.77929 9.75 12 9.75C14.2207 9.75 16.2352 10.6264 17.7189 12.0538C18.0174 12.341 18.4922 12.3318 18.7794 12.0333C19.0665 11.7348 19.0574 11.26 18.7588 10.9729C17.0069 9.28742 14.6238 8.25 12 8.25C9.37619 8.25 6.99311 9.28742 5.24116 10.9729C4.94265 11.26 4.93346 11.7348 5.22064 12.0333C5.50781 12.3318 5.98259 12.341 6.2811 12.0538ZM9.54638 15.8686C10.1434 15.1821 11.0208 14.75 12 14.75C12.9792 14.75 13.8566 15.1821 14.4536 15.8687C14.7254 16.1812 15.1991 16.2143 15.5117 15.9425C15.8243 15.6707 15.8573 15.1969 15.5855 14.8844C14.7158 13.8842 13.4315 13.25 12 13.25C10.5685 13.25 9.28422 13.8842 8.41448 14.8844C8.14268 15.1969 8.17573 15.6707 8.4883 15.9425C8.80086 16.2143 9.27458 16.1812 9.54638 15.8686ZM12 20C12.5523 20 13 19.5523 13 19C13 18.4477 12.5523 18 12 18C11.4477 18 11 18.4477 11 19C11 19.5523 11.4477 20 12 20Z" fill="#28303F"/>
</svg>
