<svg width="24" height="24" viewBox="0 0 24 24" fill="none" xmlns="http://www.w3.org/2000/svg">
<path fill-rule="evenodd" clip-rule="evenodd" d="M10.3928 18.8304L3.03577 8.89839C2.44188 8.09664 2.52295 6.96823 3.29572 6.3371C8.74374 1.88764 15.2561 1.88763 20.7041 6.3371C21.4769 6.96823 21.558 8.09664 20.9641 8.89839L18.4559 12.2844C17.5719 11.5325 16.2439 11.574 15.4089 12.409C14.5303 13.2877 14.5303 14.7123 15.4089 15.591L15.7523 15.9343L13.607 18.8304C12.8075 19.9098 11.1924 19.9098 10.3928 18.8304ZM17.5303 13.4697C17.2374 13.1768 16.7626 13.1768 16.4697 13.4697C16.1768 13.7626 16.1768 14.2374 16.4697 14.5303L18.0607 16.1213L16.4697 17.7123C16.1768 18.0052 16.1768 18.4801 16.4697 18.773C16.7626 19.0659 17.2375 19.0659 17.5304 18.773L19.1213 17.182L20.7123 18.773C21.0052 19.0659 21.4801 19.0659 21.773 18.773C22.0659 18.4801 22.0659 18.0052 21.773 17.7123L20.182 16.1213L21.773 14.5303C22.0659 14.2374 22.0659 13.7626 21.773 13.4697C21.4801 13.1768 21.0052 13.1768 20.7123 13.4697L19.1213 15.0607L17.5303 13.4697Z" fill="#28303F"/>
</svg>
