<svg width="24" height="24" viewBox="0 0 24 24" fill="none" xmlns="http://www.w3.org/2000/svg">
<path opacity="0.4" d="M7 3H11C13.2091 3 15 4.79086 15 7V17C15 19.2091 13.2091 21 11 21H7C4.79086 21 3 19.2091 3 17V7C3 4.79086 4.79086 3 7 3Z" fill="#28303F"/>
<path fill-rule="evenodd" clip-rule="evenodd" d="M12.5303 8.46967C12.2374 8.17678 11.7626 8.17678 11.4697 8.46967L8.46967 11.4697C8.17678 11.7626 8.17678 12.2374 8.46967 12.5303L11.4697 15.5303C11.7626 15.8232 12.2374 15.8232 12.5303 15.5303C12.8232 15.2374 12.8232 14.7626 12.5303 14.4697L10.8107 12.75H21C21.4142 12.75 21.75 12.4142 21.75 12C21.75 11.5858 21.4142 11.25 21 11.25H10.8107L12.5303 9.53033C12.8232 9.23744 12.8232 8.76256 12.5303 8.46967Z" fill="#28303F"/>
</svg>
