<svg width="24" height="24" viewBox="0 0 24 24" fill="none" xmlns="http://www.w3.org/2000/svg">
<path opacity="0.4" d="M22 12C22 16.4183 18.4183 20 14 20C9.58172 20 6 16.4183 6 12C6 7.58172 9.58172 4 14 4C18.4183 4 22 7.58172 22 12Z" fill="#28303F"/>
<path fill-rule="evenodd" clip-rule="evenodd" d="M11.4697 7.46967C11.7626 7.17678 12.2374 7.17678 12.5303 7.46967L16.5303 11.4696C16.671 11.6103 16.75 11.801 16.75 12C16.75 12.1989 16.671 12.3896 16.5303 12.5303L12.5303 16.5303C12.2374 16.8232 11.7626 16.8232 11.4697 16.5303C11.1768 16.2374 11.1768 15.7626 11.4697 15.4697L14.1894 12.75H2C1.58579 12.75 1.25 12.4142 1.25 12C1.25 11.5858 1.58579 11.25 2 11.25H14.1893L11.4697 8.53033C11.1768 8.23744 11.1768 7.76257 11.4697 7.46967Z" fill="#28303F"/>
</svg>
