<svg width="24" height="24" viewBox="0 0 24 24" fill="none" xmlns="http://www.w3.org/2000/svg">
<path fill-rule="evenodd" clip-rule="evenodd" d="M2.25 12C2.25 11.8011 2.32902 11.6103 2.46967 11.4697L5.46967 8.46967C5.76256 8.17678 6.23744 8.17678 6.53033 8.46967C6.82322 8.76257 6.82322 9.23744 6.53033 9.53033L4.81066 11.25L19.1893 11.25L17.4697 9.53033C17.1768 9.23744 17.1768 8.76256 17.4697 8.46967C17.7626 8.17678 18.2374 8.17678 18.5303 8.46967L21.5303 11.4697C21.671 11.6103 21.75 11.8011 21.75 12C21.75 12.1989 21.671 12.3897 21.5303 12.5303L18.5303 15.5303C18.2374 15.8232 17.7626 15.8232 17.4697 15.5303C17.1768 15.2374 17.1768 14.7626 17.4697 14.4697L19.1893 12.75L4.81066 12.75L6.53033 14.4697C6.82322 14.7626 6.82322 15.2374 6.53033 15.5303C6.23744 15.8232 5.76256 15.8232 5.46967 15.5303L2.46967 12.5303C2.32902 12.3897 2.25 12.1989 2.25 12Z" fill="#28303F"/>
<path opacity="0.4" fill-rule="evenodd" clip-rule="evenodd" d="M12.5303 21.5303C12.2374 21.8232 11.7626 21.8232 11.4697 21.5303L8.46967 18.5303C8.17678 18.2374 8.17678 17.7626 8.46967 17.4697C8.76256 17.1768 9.23744 17.1768 9.53033 17.4697L11.25 19.1893L11.25 4.81066L9.53033 6.53033C9.23744 6.82322 8.76256 6.82322 8.46967 6.53033C8.17678 6.23744 8.17678 5.76256 8.46967 5.46967L11.4697 2.46967C11.7626 2.17678 12.2374 2.17678 12.5303 2.46967L15.5303 5.46967C15.8232 5.76256 15.8232 6.23744 15.5303 6.53033C15.2374 6.82322 14.7626 6.82322 14.4697 6.53033L12.75 4.81066L12.75 19.1893L14.4697 17.4697C14.7626 17.1768 15.2374 17.1768 15.5303 17.4697C15.8232 17.7626 15.8232 18.2374 15.5303 18.5303L12.5303 21.5303Z" fill="#28303F"/>
</svg>
