<svg width="24" height="24" viewBox="0 0 24 24" fill="none" xmlns="http://www.w3.org/2000/svg">
<path opacity="0.4" d="M18 2H6C3.79086 2 2 3.79086 2 6V18C2 20.2091 3.79086 22 6 22H18C20.2091 22 22 20.2091 22 18V6C22 3.79086 20.2091 2 18 2Z" fill="#28303F"/>
<path fill-rule="evenodd" clip-rule="evenodd" d="M16.5303 8.46967C16.8232 8.76256 16.8232 9.23744 16.5303 9.53033L14.5303 11.5303C14.2374 11.8232 13.7626 11.8232 13.4697 11.5303C13.1768 11.2374 13.1768 10.7626 13.4697 10.4697L14.1893 9.75L8 9.75C7.58579 9.75 7.25 9.41421 7.25 9C7.25 8.58579 7.58579 8.25 8 8.25L14.1893 8.25L13.4697 7.53033C13.1768 7.23744 13.1768 6.76256 13.4697 6.46967C13.7626 6.17678 14.2374 6.17678 14.5303 6.46967L16.5303 8.46967Z" fill="#28303F"/>
<path fill-rule="evenodd" clip-rule="evenodd" d="M7.46967 15.5303C7.17678 15.2374 7.17678 14.7626 7.46967 14.4697L9.46967 12.4697C9.76256 12.1768 10.2374 12.1768 10.5303 12.4697C10.8232 12.7626 10.8232 13.2374 10.5303 13.5303L9.81066 14.25L16 14.25C16.4142 14.25 16.75 14.5858 16.75 15C16.75 15.4142 16.4142 15.75 16 15.75L9.81066 15.75L10.5303 16.4697C10.8232 16.7626 10.8232 17.2374 10.5303 17.5303C10.2374 17.8232 9.76256 17.8232 9.46967 17.5303L7.46967 15.5303Z" fill="#28303F"/>
</svg>
