<svg width="24" height="24" viewBox="0 0 24 24" fill="none" xmlns="http://www.w3.org/2000/svg">
<path opacity="0.4" d="M22 12C22 17.5228 17.5228 22 12 22C6.47715 22 2 17.5228 2 12C2 6.47715 6.47715 2 12 2C17.5228 2 22 6.47715 22 12Z" fill="#28303F"/>
<path fill-rule="evenodd" clip-rule="evenodd" d="M10.5303 6.46967C10.2374 6.17678 9.76256 6.17678 9.46967 6.46967L7.46967 8.46967C7.17678 8.76256 7.17678 9.23744 7.46967 9.53033L9.46967 11.5303C9.76256 11.8232 10.2374 11.8232 10.5303 11.5303C10.8232 11.2374 10.8232 10.7626 10.5303 10.4697L9.81066 9.75H13C14.2426 9.75 15.25 10.7574 15.25 12C15.25 13.2426 14.2426 14.25 13 14.25H8C7.58579 14.25 7.25 14.5858 7.25 15C7.25 15.4142 7.58579 15.75 8 15.75H13C15.0711 15.75 16.75 14.0711 16.75 12C16.75 9.92893 15.0711 8.25 13 8.25H9.81066L10.5303 7.53033C10.8232 7.23744 10.8232 6.76256 10.5303 6.46967Z" fill="#28303F"/>
</svg>
