<svg width="24" height="24" viewBox="0 0 24 24" fill="none" xmlns="http://www.w3.org/2000/svg">
<path opacity="0.4" d="M18 2H6C3.79086 2 2 3.79086 2 6V18C2 20.2091 3.79086 22 6 22H18C20.2091 22 22 20.2091 22 18V6C22 3.79086 20.2091 2 18 2Z" fill="#28303F"/>
<path fill-rule="evenodd" clip-rule="evenodd" d="M7.46967 12.5303C7.17678 12.2374 7.17678 11.7626 7.46967 11.4697L10.4697 8.46967C10.7626 8.17678 11.2374 8.17678 11.5303 8.46967C11.8232 8.76256 11.8232 9.23744 11.5303 9.53033L9.81066 11.25L16 11.25C16.4142 11.25 16.75 11.5858 16.75 12C16.75 12.4142 16.4142 12.75 16 12.75L9.81066 12.75L11.5303 14.4697C11.8232 14.7626 11.8232 15.2374 11.5303 15.5303C11.2374 15.8232 10.7626 15.8232 10.4697 15.5303L7.46967 12.5303Z" fill="#28303F"/>
</svg>
