<svg width="24" height="24" viewBox="0 0 24 24" fill="none" xmlns="http://www.w3.org/2000/svg">
<path opacity="0.4" d="M6 2H18C20.2091 2 22 3.79086 22 6V18C22 20.2091 20.2091 22 18 22H6C3.79086 22 2 20.2091 2 18V6C2 3.79086 3.79086 2 6 2Z" fill="#28303F"/>
<path fill-rule="evenodd" clip-rule="evenodd" d="M13.4697 6.46967C13.7626 6.17678 14.2374 6.17678 14.5303 6.46967L16.5303 8.46967C16.8232 8.76256 16.8232 9.23744 16.5303 9.53033L14.5303 11.5303C14.2374 11.8232 13.7626 11.8232 13.4697 11.5303C13.1768 11.2374 13.1768 10.7626 13.4697 10.4697L14.1893 9.75H11C9.75736 9.75 8.75 10.7574 8.75 12C8.75 13.2426 9.75736 14.25 11 14.25H16C16.4142 14.25 16.75 14.5858 16.75 15C16.75 15.4142 16.4142 15.75 16 15.75H11C8.92893 15.75 7.25 14.0711 7.25 12C7.25 9.92893 8.92893 8.25 11 8.25H14.1893L13.4697 7.53033C13.1768 7.23744 13.1768 6.76256 13.4697 6.46967Z" fill="#28303F"/>
</svg>
