<svg width="24" height="24" viewBox="0 0 24 24" fill="none" xmlns="http://www.w3.org/2000/svg">
<path opacity="0.4" d="M18 2H6C3.79086 2 2 3.79086 2 6V18C2 20.2091 3.79086 22 6 22H18C20.2091 22 22 20.2091 22 18V6C22 3.79086 20.2091 2 18 2Z" fill="#28303F"/>
<path fill-rule="evenodd" clip-rule="evenodd" d="M16.6929 10.287C16.5768 10.5673 16.3033 10.75 16 10.75L7.99998 10.75C7.58576 10.75 7.24998 10.4142 7.24998 10C7.24998 9.58579 7.58576 9.25 7.99998 9.25L14.1893 9.25L13.4696 8.53033C13.1768 8.23744 13.1768 7.76256 13.4696 7.46967C13.7625 7.17678 14.2374 7.17678 14.5303 7.46967L16.5303 9.46967C16.7448 9.68417 16.809 10.0068 16.6929 10.287Z" fill="#28303F"/>
<path fill-rule="evenodd" clip-rule="evenodd" d="M7.30711 13.713C7.4232 13.4327 7.69668 13.25 8.00002 13.25L16 13.25C16.4142 13.25 16.75 13.5858 16.75 14C16.75 14.4142 16.4142 14.75 16 14.75L9.81068 14.75L10.5304 15.4697C10.8232 15.7626 10.8232 16.2374 10.5304 16.5303C10.2375 16.8232 9.76258 16.8232 9.46969 16.5303L7.46969 14.5303C7.25519 14.3158 7.19103 13.9932 7.30711 13.713Z" fill="#28303F"/>
</svg>
