<svg width="24" height="24" viewBox="0 0 24 24" fill="none" xmlns="http://www.w3.org/2000/svg">
<path opacity="0.4" d="M6 2H18C20.2091 2 22 3.79086 22 6V18C22 20.2091 20.2091 22 18 22H6C3.79086 22 2 20.2091 2 18V6C2 3.79086 3.79086 2 6 2Z" fill="#28303F"/>
<path fill-rule="evenodd" clip-rule="evenodd" d="M16.5999 15.45C16.3514 15.7814 15.8813 15.8485 15.5499 15.6L12.7499 13.5C12.3055 13.1667 11.6944 13.1667 11.2499 13.5L8.44992 15.6C8.11855 15.8485 7.64845 15.7814 7.39992 15.45C7.15139 15.1186 7.21855 14.6485 7.54992 14.4L10.3499 12.3C11.3277 11.5667 12.6721 11.5667 13.6499 12.3L16.4499 14.4C16.7813 14.6485 16.8485 15.1186 16.5999 15.45Z" fill="#28303F"/>
<path fill-rule="evenodd" clip-rule="evenodd" d="M16.5999 10.45C16.3514 10.7814 15.8813 10.8485 15.5499 10.6L12.7499 8.5C12.3055 8.16667 11.6944 8.16667 11.2499 8.5L8.44992 10.6C8.11855 10.8485 7.64845 10.7814 7.39992 10.45C7.15139 10.1186 7.21855 9.64853 7.54992 9.4L10.3499 7.3C11.3277 6.56667 12.6721 6.56667 13.6499 7.3L16.4499 9.4C16.7813 9.64853 16.8485 10.1186 16.5999 10.45Z" fill="#28303F"/>
</svg>
