<svg width="24" height="24" viewBox="0 0 24 24" fill="none" xmlns="http://www.w3.org/2000/svg">
<path fill-rule="evenodd" clip-rule="evenodd" d="M6.41438 17.4685C6.67313 17.7919 7.1451 17.8444 7.46855 17.5856L12 13.9604L16.5315 17.5856C16.855 17.8444 17.3269 17.7919 17.5857 17.4685C17.8444 17.145 17.792 16.6731 17.4685 16.4143L12.4685 12.4143C12.1946 12.1952 11.8054 12.1952 11.5315 12.4143L6.53151 16.4143C6.20806 16.6731 6.15562 17.145 6.41438 17.4685Z" fill="#28303F"/>
<path opacity="0.4" fill-rule="evenodd" clip-rule="evenodd" d="M6.41438 11.4685C6.67313 11.7919 7.1451 11.8444 7.46855 11.5856L12 7.96044L16.5315 11.5856C16.855 11.8444 17.3269 11.7919 17.5857 11.4685C17.8444 11.145 17.792 10.6731 17.4685 10.4143L12.4685 6.41432C12.1946 6.19519 11.8054 6.19519 11.5315 6.41432L6.53151 10.4143C6.20806 10.6731 6.15562 11.145 6.41438 11.4685Z" fill="#28303F"/>
</svg>
