<svg width="24" height="24" viewBox="0 0 24 24" fill="none" xmlns="http://www.w3.org/2000/svg">
<path opacity="0.4" d="M22 12C22 17.5228 17.5228 22 12 22C6.47715 22 2 17.5228 2 12C2 6.47715 6.47715 2 12 2C17.5228 2 22 6.47715 22 12Z" fill="#28303F"/>
<path fill-rule="evenodd" clip-rule="evenodd" d="M16.6 15.45C16.3515 15.7814 15.8814 15.8485 15.55 15.6L12.75 13.5C12.3055 13.1667 11.6944 13.1667 11.25 13.5L8.44998 15.6C8.11861 15.8485 7.64851 15.7814 7.39998 15.45C7.15146 15.1186 7.21861 14.6485 7.54998 14.4L10.35 12.3C11.3278 11.5667 12.6722 11.5667 13.65 12.3L16.45 14.4C16.7814 14.6485 16.8485 15.1186 16.6 15.45Z" fill="#28303F"/>
<path fill-rule="evenodd" clip-rule="evenodd" d="M16.6 10.45C16.3515 10.7814 15.8814 10.8485 15.55 10.6L12.75 8.5C12.3055 8.16667 11.6944 8.16667 11.25 8.5L8.44998 10.6C8.11861 10.8485 7.64851 10.7814 7.39998 10.45C7.15146 10.1186 7.21861 9.64853 7.54998 9.4L10.35 7.3C11.3278 6.56667 12.6722 6.56667 13.65 7.3L16.45 9.4C16.7814 9.64853 16.8485 10.1186 16.6 10.45Z" fill="#28303F"/>
</svg>
