<svg width="24" height="24" viewBox="0 0 24 24" fill="none" xmlns="http://www.w3.org/2000/svg">
<path opacity="0.4" d="M6 2H18C20.2091 2 22 3.79086 22 6V18C22 20.2091 20.2091 22 18 22H6C3.79086 22 2 20.2091 2 18V6C2 3.79086 3.79086 2 6 2Z" fill="#28303F"/>
<path fill-rule="evenodd" clip-rule="evenodd" d="M8.55004 16.6C8.21867 16.3515 8.15152 15.8814 8.40004 15.55L10.5 12.75C10.8334 12.3056 10.8334 11.6945 10.5 11.25L8.40004 8.45004C8.15152 8.11867 8.21867 7.64857 8.55004 7.40004C8.88142 7.15152 9.35152 7.21867 9.60004 7.55004L11.7 10.35C12.4334 11.3278 12.4334 12.6723 11.7 13.65L9.60004 16.45C9.35152 16.7814 8.88141 16.8486 8.55004 16.6Z" fill="#28303F"/>
<path fill-rule="evenodd" clip-rule="evenodd" d="M13.55 16.6C13.2187 16.3515 13.1515 15.8814 13.4 15.55L15.5 12.75C15.8334 12.3056 15.8334 11.6945 15.5 11.25L13.4 8.45004C13.1515 8.11867 13.2187 7.64857 13.55 7.40004C13.8814 7.15152 14.3515 7.21867 14.6 7.55004L16.7 10.35C17.4334 11.3278 17.4334 12.6723 16.7 13.65L14.6 16.45C14.3515 16.7814 13.8814 16.8486 13.55 16.6Z" fill="#28303F"/>
</svg>
