<svg width="24" height="24" viewBox="0 0 24 24" fill="none" xmlns="http://www.w3.org/2000/svg">
<path fill-rule="evenodd" clip-rule="evenodd" d="M6.41438 6.53151C6.67313 6.20806 7.1451 6.15562 7.46855 6.41438L12 10.0396L16.5315 6.41438C16.855 6.15562 17.3269 6.20806 17.5857 6.53151C17.8444 6.85495 17.792 7.32692 17.4685 7.58568L12.4685 11.5857C12.1946 11.8048 11.8054 11.8048 11.5315 11.5857L6.53151 7.58568C6.20806 7.32692 6.15562 6.85495 6.41438 6.53151Z" fill="#28303F"/>
<path opacity="0.4" fill-rule="evenodd" clip-rule="evenodd" d="M6.41438 12.5315C6.67313 12.2081 7.1451 12.1556 7.46855 12.4144L12 16.0396L16.5315 12.4144C16.855 12.1556 17.3269 12.2081 17.5857 12.5315C17.8444 12.855 17.792 13.3269 17.4685 13.5857L12.4685 17.5857C12.1946 17.8048 11.8054 17.8048 11.5315 17.5857L6.53151 13.5857C6.20806 13.3269 6.15562 12.855 6.41438 12.5315Z" fill="#28303F"/>
</svg>
