<svg width="24" height="24" viewBox="0 0 24 24" fill="none" xmlns="http://www.w3.org/2000/svg">
<path opacity="0.4" d="M6 2H18C20.2091 2 22 3.79086 22 6V18C22 20.2091 20.2091 22 18 22H6C3.79086 22 2 20.2091 2 18V6C2 3.79086 3.79086 2 6 2Z" fill="#28303F"/>
<path fill-rule="evenodd" clip-rule="evenodd" d="M16.4499 7.40004C16.7813 7.64857 16.8485 8.11867 16.5999 8.45004L14.4999 11.25C14.1666 11.6945 14.1666 12.3056 14.4999 12.75L16.5999 15.55C16.8485 15.8814 16.7813 16.3515 16.4499 16.6C16.1186 16.8486 15.6485 16.7814 15.3999 16.45L13.2999 13.65C12.5666 12.6723 12.5666 11.3278 13.2999 10.35L15.3999 7.55004C15.6485 7.21867 16.1186 7.15152 16.4499 7.40004Z" fill="#28303F"/>
<path fill-rule="evenodd" clip-rule="evenodd" d="M11.4499 7.40004C11.7813 7.64857 11.8485 8.11867 11.5999 8.45004L9.49994 11.25C9.16661 11.6945 9.16661 12.3056 9.49994 12.75L11.5999 15.55C11.8485 15.8814 11.7813 16.3515 11.4499 16.6C11.1186 16.8486 10.6485 16.7814 10.3999 16.45L8.29994 13.65C7.56661 12.6723 7.56661 11.3278 8.29994 10.35L10.3999 7.55004C10.6485 7.21867 11.1186 7.15152 11.4499 7.40004Z" fill="#28303F"/>
</svg>
