<svg width="24" height="24" viewBox="0 0 24 24" fill="none" xmlns="http://www.w3.org/2000/svg">
<path fill-rule="evenodd" clip-rule="evenodd" d="M17.4685 6.41438C17.7919 6.67313 17.8444 7.1451 17.5856 7.46855L13.9604 12L17.5856 16.5315C17.8444 16.855 17.7919 17.3269 17.4685 17.5857C17.145 17.8444 16.6731 17.792 16.4143 17.4685L12.4143 12.4685C12.1952 12.1946 12.1952 11.8054 12.4143 11.5315L16.4143 6.53151C16.6731 6.20806 17.145 6.15562 17.4685 6.41438Z" fill="#28303F"/>
<path opacity="0.4" fill-rule="evenodd" clip-rule="evenodd" d="M11.4685 6.41438C11.7919 6.67313 11.8444 7.1451 11.5856 7.46855L7.96044 12L11.5856 16.5315C11.8444 16.855 11.7919 17.3269 11.4685 17.5857C11.145 17.8444 10.6731 17.792 10.4143 17.4685L6.41432 12.4685C6.19519 12.1946 6.19519 11.8054 6.41432 11.5315L10.4143 6.53151C10.6731 6.20806 11.145 6.15562 11.4685 6.41438Z" fill="#28303F"/>
</svg>
