<svg width="24" height="24" viewBox="0 0 24 24" fill="none" xmlns="http://www.w3.org/2000/svg">
<path opacity="0.4" d="M22 12C22 17.5228 17.5228 22 12 22C6.47715 22 2 17.5228 2 12C2 6.47715 6.47715 2 12 2C17.5228 2 22 6.47715 22 12Z" fill="#28303F"/>
<path fill-rule="evenodd" clip-rule="evenodd" d="M7.40004 8.55004C7.64857 8.21867 8.11867 8.15152 8.45004 8.40004L11.25 10.5C11.6945 10.8334 12.3056 10.8334 12.75 10.5L15.55 8.40004C15.8814 8.15152 16.3515 8.21867 16.6 8.55004C16.8486 8.88142 16.7814 9.35152 16.45 9.60004L13.65 11.7C12.6723 12.4334 11.3278 12.4334 10.35 11.7L7.55004 9.60004C7.21867 9.35152 7.15152 8.88142 7.40004 8.55004Z" fill="#28303F"/>
<path fill-rule="evenodd" clip-rule="evenodd" d="M7.40004 13.55C7.64857 13.2187 8.11867 13.1515 8.45004 13.4L11.25 15.5C11.6945 15.8334 12.3056 15.8334 12.75 15.5L15.55 13.4C15.8814 13.1515 16.3515 13.2187 16.6 13.55C16.8486 13.8814 16.7814 14.3515 16.45 14.6L13.65 16.7C12.6723 17.4334 11.3278 17.4334 10.35 16.7L7.55004 14.6C7.21867 14.3515 7.15152 13.8814 7.40004 13.55Z" fill="#28303F"/>
</svg>
