<svg width="24" height="24" viewBox="0 0 24 24" fill="none" xmlns="http://www.w3.org/2000/svg">
<path opacity="0.4" d="M22 12C22 17.5228 17.5228 22 12 22C6.47715 22 2 17.5228 2 12C2 6.47715 6.47715 2 12 2C17.5228 2 22 6.47715 22 12Z" fill="#28303F"/>
<path fill-rule="evenodd" clip-rule="evenodd" d="M15.45 7.40004C15.7814 7.64857 15.8485 8.11867 15.6 8.45004L13.5 11.25C13.1667 11.6945 13.1667 12.3056 13.5 12.75L15.6 15.55C15.8485 15.8814 15.7814 16.3515 15.45 16.6C15.1186 16.8486 14.6485 16.7814 14.4 16.45L12.3 13.65C11.5667 12.6723 11.5667 11.3278 12.3 10.35L14.4 7.55004C14.6485 7.21867 15.1186 7.15152 15.45 7.40004Z" fill="#28303F"/>
<path fill-rule="evenodd" clip-rule="evenodd" d="M10.45 7.40004C10.7814 7.64857 10.8485 8.11867 10.6 8.45004L8.5 11.25C8.16667 11.6945 8.16667 12.3056 8.5 12.75L10.6 15.55C10.8485 15.8814 10.7814 16.3515 10.45 16.6C10.1186 16.8486 9.64853 16.7814 9.4 16.45L7.3 13.65C6.56667 12.6723 6.56667 11.3278 7.3 10.35L9.4 7.55004C9.64853 7.21867 10.1186 7.15152 10.45 7.40004Z" fill="#28303F"/>
</svg>
