<svg width="24" height="24" viewBox="0 0 24 24" fill="none" xmlns="http://www.w3.org/2000/svg">
<path opacity="0.4" d="M20 13C20 17.4183 16.4183 21 12 21C7.58172 21 4 17.4183 4 13C4 8.58172 7.58172 5 12 5C16.4183 5 20 8.58172 20 13Z" fill="#28303F"/>
<path fill-rule="evenodd" clip-rule="evenodd" d="M7.46967 10.4697C7.17678 10.7626 7.17678 11.2374 7.46967 11.5303L11.4696 15.5303C11.6103 15.671 11.801 15.75 12 15.75C12.1989 15.75 12.3896 15.671 12.5303 15.5303L16.5303 11.5303C16.8232 11.2374 16.8232 10.7626 16.5303 10.4697C16.2374 10.1768 15.7626 10.1768 15.4697 10.4697L12.75 13.1894L12.75 1C12.75 0.585787 12.4142 0.25 12 0.25C11.5858 0.25 11.25 0.585787 11.25 1L11.25 13.1893L8.53033 10.4697C8.23744 10.1768 7.76257 10.1768 7.46967 10.4697Z" fill="#28303F"/>
</svg>
