<svg width="24" height="24" viewBox="0 0 24 24" fill="none" xmlns="http://www.w3.org/2000/svg">
<path opacity="0.4" d="M18 2H6C3.79086 2 2 3.79086 2 6V18C2 20.2091 3.79086 22 6 22H18C20.2091 22 22 20.2091 22 18V6C22 3.79086 20.2091 2 18 2Z" fill="#28303F"/>
<path fill-rule="evenodd" clip-rule="evenodd" d="M13.4697 6.46967C13.7626 6.17678 14.2375 6.17678 14.5304 6.46967L16.5304 8.46967C16.7449 8.68417 16.809 9.00676 16.6929 9.28701C16.5768 9.56727 16.3034 9.75 16 9.75H10C9.30967 9.75 8.75002 10.3096 8.75002 11V12C8.75002 12.4142 8.41424 12.75 8.00002 12.75C7.58581 12.75 7.25002 12.4142 7.25002 12V11C7.25002 9.48122 8.48124 8.25 10 8.25H14.1894L13.4697 7.53033C13.1768 7.23744 13.1768 6.76256 13.4697 6.46967Z" fill="#28303F"/>
<path fill-rule="evenodd" clip-rule="evenodd" d="M10.5304 17.5303C10.2375 17.8232 9.76258 17.8232 9.46969 17.5303L7.46969 15.5303C7.25519 15.3158 7.19103 14.9932 7.30711 14.713C7.4232 14.4327 7.69668 14.25 8.00002 14.25H14C14.6904 14.25 15.25 13.6904 15.25 13V12C15.25 11.5858 15.5858 11.25 16 11.25C16.4142 11.25 16.75 11.5858 16.75 12V13C16.75 14.5188 15.5188 15.75 14 15.75H9.81068L10.5304 16.4697C10.8232 16.7626 10.8232 17.2374 10.5304 17.5303Z" fill="#28303F"/>
</svg>
