<svg width="24" height="24" viewBox="0 0 24 24" fill="none" xmlns="http://www.w3.org/2000/svg">
<path opacity="0.4" fill-rule="evenodd" clip-rule="evenodd" d="M16.4697 3.46967C16.7626 3.17678 17.2374 3.17678 17.5303 3.46967L20.5303 6.46967C20.7448 6.68417 20.809 7.00676 20.6929 7.28701C20.5768 7.56727 20.3033 7.75 20 7.75H9C6.65279 7.75 4.75 9.65279 4.75 12V13C4.75 13.4142 4.41421 13.75 4 13.75C3.58579 13.75 3.25 13.4142 3.25 13V12C3.25 8.82436 5.82436 6.25 9 6.25H18.1893L16.4697 4.53033C16.1768 4.23744 16.1768 3.76256 16.4697 3.46967Z" fill="#28303F"/>
<path fill-rule="evenodd" clip-rule="evenodd" d="M7.53033 20.5303C7.23744 20.8232 6.76256 20.8232 6.46967 20.5303L3.46967 17.5303C3.25517 17.3158 3.191 16.9932 3.30709 16.713C3.42318 16.4327 3.69665 16.25 4 16.25H15C17.3472 16.25 19.25 14.3472 19.25 12V11C19.25 10.5858 19.5858 10.25 20 10.25C20.4142 10.25 20.75 10.5858 20.75 11V12C20.75 15.1756 18.1756 17.75 15 17.75H5.81066L7.53033 19.4697C7.82322 19.7626 7.82322 20.2374 7.53033 20.5303Z" fill="#28303F"/>
</svg>
