<svg width="24" height="24" viewBox="0 0 24 24" fill="none" xmlns="http://www.w3.org/2000/svg">
<path opacity="0.4" d="M19 13C19 17.4183 15.4183 21 11 21C6.58172 21 3 17.4183 3 13C3 8.58172 6.58172 5 11 5C15.4183 5 19 8.58172 19 13Z" fill="#28303F"/>
<path fill-rule="evenodd" clip-rule="evenodd" d="M16 3.75C15.5858 3.75 15.25 3.41421 15.25 3C15.25 2.58579 15.5858 2.25 16 2.25H21C21.4142 2.25 21.75 2.58579 21.75 3V8C21.75 8.41421 21.4142 8.75 21 8.75C20.5858 8.75 20.25 8.41421 20.25 8V4.81066L10.5303 14.5303C10.2374 14.8232 9.76256 14.8232 9.46967 14.5303C9.17678 14.2374 9.17678 13.7626 9.46967 13.4697L19.1893 3.75H16Z" fill="#28303F"/>
</svg>
