<svg width="24" height="24" viewBox="0 0 24 24" fill="none" xmlns="http://www.w3.org/2000/svg">
<path d="M6 12H8C10.2091 12 12 13.7909 12 16V18C12 20.2091 10.2091 22 8 22H6C3.79086 22 2 20.2091 2 18V16C2 13.7909 3.79086 12 6 12Z" fill="#28303F"/>
<path opacity="0.4" d="M10 2H18C20.2091 2 22 3.79086 22 6V14C22 16.2091 20.2091 18 18 18H10C7.79086 18 6 16.2091 6 14V6C6 3.79086 7.79086 2 10 2Z" fill="#28303F"/>
<path fill-rule="evenodd" clip-rule="evenodd" d="M11.25 7C11.25 6.58579 11.5858 6.25 12 6.25H17C17.4142 6.25 17.75 6.58579 17.75 7V12C17.75 12.4142 17.4142 12.75 17 12.75C16.5858 12.75 16.25 12.4142 16.25 12V8.81066L10.5303 14.5303C10.2374 14.8232 9.76256 14.8232 9.46967 14.5303C9.17678 14.2374 9.17678 13.7626 9.46967 13.4697L15.1893 7.75H12C11.5858 7.75 11.25 7.41421 11.25 7Z" fill="#28303F"/>
</svg>
