<svg width="24" height="24" viewBox="0 0 24 24" fill="none" xmlns="http://www.w3.org/2000/svg">
<path opacity="0.4" d="M7 5H15C17.2091 5 19 6.79086 19 9V17C19 19.2091 17.2091 21 15 21H7C4.79086 21 3 19.2091 3 17V9C3 6.79086 4.79086 5 7 5Z" fill="#28303F"/>
<path fill-rule="evenodd" clip-rule="evenodd" d="M15 2.25L21 2.25C21.4142 2.25 21.75 2.58579 21.75 3L21.75 8.99999C21.75 9.41421 21.4142 9.74999 21 9.74999C20.5858 9.74999 20.25 9.41421 20.25 8.99999L20.25 4.81066L10.5303 14.5303C10.2374 14.8232 9.76256 14.8232 9.46967 14.5303C9.17678 14.2374 9.17678 13.7626 9.46967 13.4697L19.1893 3.75L15 3.75C14.5858 3.75 14.25 3.41421 14.25 3C14.25 2.58579 14.5858 2.25 15 2.25Z" fill="#28303F"/>
</svg>
