<svg width="24" height="24" viewBox="0 0 24 24" fill="none" xmlns="http://www.w3.org/2000/svg">
<path opacity="0.4" d="M14 22H6C3.79086 22 2 20.2091 2 18V10C2 7.79086 3.79086 6 6 6H14C16.2091 6 18 7.79086 18 10V18C18 20.2091 16.2091 22 14 22Z" fill="#28303F"/>
<path d="M18 12H16C13.7909 12 12 10.2091 12 8V6C12 3.79086 13.7909 2 16 2H18C20.2091 2 22 3.79086 22 6V8C22 10.2091 20.2091 12 18 12Z" fill="#28303F"/>
<path fill-rule="evenodd" clip-rule="evenodd" d="M8.81066 16.25L12 16.25C12.4142 16.25 12.75 16.5858 12.75 17C12.75 17.4142 12.4142 17.75 12 17.75L7 17.75C6.80109 17.75 6.61032 17.671 6.46967 17.5303C6.32902 17.3897 6.25 17.1989 6.25 17L6.25 12C6.25 11.5858 6.58579 11.25 7 11.25C7.41421 11.25 7.75 11.5858 7.75 12L7.75 15.1893L13.4697 9.46967C13.7626 9.17678 14.2374 9.17678 14.5303 9.46967C14.8232 9.76256 14.8232 10.2374 14.5303 10.5303L8.81066 16.25Z" fill="#28303F"/>
</svg>
