<svg width="24" height="24" viewBox="0 0 24 24" fill="none" xmlns="http://www.w3.org/2000/svg">
<path opacity="0.4" d="M6.625 5.375H14.625C16.8341 5.375 18.625 7.16586 18.625 9.375V17.375C18.625 19.5841 16.8341 21.375 14.625 21.375H6.625C4.41586 21.375 2.625 19.5841 2.625 17.375V9.375C2.625 7.16586 4.41586 5.375 6.625 5.375Z" fill="#28303F"/>
<path fill-rule="evenodd" clip-rule="evenodd" d="M21.1553 2.84467C21.4482 3.13756 21.4482 3.61244 21.1553 3.90533L11.4357 13.625H15.625C16.0392 13.625 16.375 13.9608 16.375 14.375C16.375 14.7892 16.0392 15.125 15.625 15.125H9.62501C9.21079 15.125 8.87501 14.7892 8.87501 14.375L8.875 8.375C8.875 7.96079 9.21079 7.625 9.625 7.625C10.0392 7.625 10.375 7.96079 10.375 8.375L10.375 12.5643L20.0947 2.84467C20.3876 2.55178 20.8624 2.55178 21.1553 2.84467Z" fill="#28303F"/>
</svg>
