<svg width="24" height="24" viewBox="0 0 24 24" fill="none" xmlns="http://www.w3.org/2000/svg">
<path opacity="0.4" d="M18 12C18 16.4183 14.4183 20 10 20C5.58172 20 2 16.4183 2 12C2 7.58172 5.58172 4 10 4C14.4183 4 18 7.58172 18 12Z" fill="#28303F"/>
<path fill-rule="evenodd" clip-rule="evenodd" d="M17.4697 7.46967C17.7626 7.17678 18.2374 7.17678 18.5303 7.46967L22.5303 11.4696C22.671 11.6103 22.75 11.801 22.75 12C22.75 12.1989 22.671 12.3896 22.5303 12.5303L18.5303 16.5303C18.2374 16.8232 17.7626 16.8232 17.4697 16.5303C17.1768 16.2374 17.1768 15.7626 17.4697 15.4697L20.1894 12.75H8C7.58579 12.75 7.25 12.4142 7.25 12C7.25 11.5858 7.58579 11.25 8 11.25H20.1893L17.4697 8.53033C17.1768 8.23744 17.1768 7.76257 17.4697 7.46967Z" fill="#28303F"/>
</svg>
