<svg width="24" height="24" viewBox="0 0 24 24" fill="none" xmlns="http://www.w3.org/2000/svg">
<path opacity="0.4" d="M17 3H7C4.79086 3 3 4.79086 3 7V17C3 19.2091 4.79086 21 7 21H17C19.2091 21 21 19.2091 21 17V7C21 4.79086 19.2091 3 17 3Z" fill="#28303F"/>
<path fill-rule="evenodd" clip-rule="evenodd" d="M8.40915 6.75C7.99494 6.75 7.65915 7.08579 7.65915 7.5V10C7.65915 10.343 7.89181 10.6423 8.22419 10.7268L10.1891 11.2268C10.5905 11.329 10.9987 11.0864 11.1009 10.685C11.203 10.2835 10.9604 9.87531 10.559 9.77316L9.72569 9.56112C10.2989 9.05579 11.0509 8.75 11.874 8.75C13.6689 8.75 15.124 10.2051 15.124 12C15.124 13.7949 13.6689 15.25 11.874 15.25C10.3607 15.25 9.08719 14.215 8.72637 12.8131C8.62312 12.4119 8.21424 12.1704 7.8131 12.2737C7.41196 12.3769 7.17047 12.7858 7.27371 13.1869C7.80097 15.2355 9.65969 16.75 11.874 16.75C14.4974 16.75 16.624 14.6234 16.624 12C16.624 9.37665 14.4974 7.25 11.874 7.25C10.8642 7.25 9.92836 7.56522 9.15915 8.10195V7.5C9.15915 7.08579 8.82337 6.75 8.40915 6.75Z" fill="#28303F"/>
</svg>
