<svg width="24" height="24" viewBox="0 0 24 24" fill="none" xmlns="http://www.w3.org/2000/svg">
<path opacity="0.4" d="M3 12C3 16.9706 7.02944 21 12 21C16.9706 21 21 16.9706 21 12C21 7.02944 16.9706 3 12 3C7.02944 3 3 7.02944 3 12Z" fill="#28303F"/>
<path fill-rule="evenodd" clip-rule="evenodd" d="M15.4649 6.75C15.8791 6.75 16.2149 7.08579 16.2149 7.5V10C16.2149 10.343 15.9822 10.6423 15.6498 10.7268L13.685 11.2268C13.2835 11.329 12.8753 11.0864 12.7732 10.685C12.671 10.2835 12.9136 9.87531 13.315 9.77316L14.1483 9.56112C13.5752 9.05579 12.8231 8.75 12 8.75C10.2051 8.75 8.75 10.2051 8.75 12C8.75 13.7949 10.2051 15.25 12 15.25C13.5133 15.25 14.7868 14.215 15.1477 12.8131C15.2509 12.4119 15.6598 12.1704 16.0609 12.2737C16.4621 12.3769 16.7036 12.7858 16.6003 13.1869C16.0731 15.2355 14.2143 16.75 12 16.75C9.37665 16.75 7.25 14.6234 7.25 12C7.25 9.37665 9.37665 7.25 12 7.25C13.0098 7.25 13.9457 7.56522 14.7149 8.10195V7.5C14.7149 7.08579 15.0507 6.75 15.4649 6.75Z" fill="#28303F"/>
</svg>
