<svg width="24" height="24" viewBox="0 0 24 24" fill="none" xmlns="http://www.w3.org/2000/svg">
<path fill-rule="evenodd" clip-rule="evenodd" d="M18.5542 7.35068C18.9128 7.14327 19.3716 7.26579 19.579 7.62434C20.3239 8.91211 20.75 10.4074 20.75 11.9999C20.75 16.8324 16.8325 20.7499 12 20.7499C11.0614 20.7499 10.1566 20.6019 9.30817 20.3278L9.8437 21.7327C9.99123 22.1198 9.79707 22.5532 9.41002 22.7007C9.02297 22.8482 8.58961 22.6541 8.44207 22.267L7.26395 19.1762C7.15061 18.8789 7.23723 18.5424 7.48004 18.3368C7.72285 18.1311 8.069 18.1011 8.34361 18.2618C9.41644 18.8898 10.665 19.2499 12 19.2499C16.0041 19.2499 19.25 16.0039 19.25 11.9999C19.25 10.6781 18.897 9.44104 18.2806 8.37542C18.0732 8.01688 18.1957 7.55808 18.5542 7.35068Z" fill="#28303F"/>
<path opacity="0.4" fill-rule="evenodd" clip-rule="evenodd" d="M14.59 1.29914C14.9771 1.15161 15.4104 1.34578 15.558 1.73283L16.7361 4.82359C16.8494 5.12092 16.7628 5.45739 16.52 5.66304C16.2771 5.86868 15.931 5.89873 15.6564 5.738C14.5836 5.11008 13.335 4.74996 12 4.74996C7.99594 4.74996 4.75 7.99589 4.75 12C4.75 13.3217 5.10304 14.5588 5.71946 15.6244C5.92687 15.983 5.80435 16.4418 5.4458 16.6492C5.08726 16.8566 4.62846 16.734 4.42105 16.3755C3.67612 15.0877 3.25 13.5925 3.25 12C3.25 7.16747 7.16751 3.24996 12 3.24996C12.9386 3.24996 13.8434 3.39798 14.6918 3.67204L14.1563 2.26709C14.0088 1.88004 14.203 1.44667 14.59 1.29914Z" fill="#28303F"/>
</svg>
