<svg width="24" height="24" viewBox="0 0 24 24" fill="none" xmlns="http://www.w3.org/2000/svg">
<path opacity="0.4" d="M13.5 6.75C13.0858 6.75 12.75 6.41421 12.75 6C12.75 5.58579 13.0858 5.25 13.5 5.25H18C18.4142 5.25 18.75 5.58579 18.75 6V10.5C18.75 10.9142 18.4142 11.25 18 11.25C17.5858 11.25 17.25 10.9142 17.25 10.5V7.81066L12.5303 12.5303L11.4697 11.4697L16.1893 6.75H13.5Z" fill="#28303F"/>
<path d="M10.6274 17.1226C11.0417 17.1226 11.3774 17.4583 11.3774 17.8726C11.3774 18.2868 11.0417 18.6226 10.6274 18.6226L6.12745 18.6226C5.71323 18.6226 5.37745 18.2868 5.37745 17.8726L5.37745 13.3726C5.37745 12.9583 5.71323 12.6226 6.12745 12.6226C6.54166 12.6226 6.87745 12.9583 6.87745 13.3726L6.87745 16.0619L11.5971 11.3422L12.6578 12.4029L7.93811 17.1226L10.6274 17.1226Z" fill="#28303F"/>
</svg>
