<svg width="24" height="24" viewBox="0 0 24 24" fill="none" xmlns="http://www.w3.org/2000/svg">
<path opacity="0.4" fill-rule="evenodd" clip-rule="evenodd" d="M16 9.25C16.4142 9.25 16.75 9.58579 16.75 10L16.75 14C16.75 14.4142 16.4142 14.75 16 14.75C15.5858 14.75 15.25 14.4142 15.25 14L15.25 10C15.25 9.58579 15.5858 9.25 16 9.25Z" fill="#28303F"/>
<path fill-rule="evenodd" clip-rule="evenodd" d="M12 6.25C12.4142 6.25 12.75 6.58579 12.75 7L12.75 17C12.75 17.4142 12.4142 17.75 12 17.75C11.5858 17.75 11.25 17.4142 11.25 17L11.25 7C11.25 6.58579 11.5858 6.25 12 6.25Z" fill="#28303F"/>
<path opacity="0.4" fill-rule="evenodd" clip-rule="evenodd" d="M8 9.25C8.41421 9.25 8.75 9.58579 8.75 10L8.75 14C8.75 14.4142 8.41421 14.75 8 14.75C7.58579 14.75 7.25 14.4142 7.25 14L7.25 10C7.25 9.58579 7.58579 9.25 8 9.25Z" fill="#28303F"/>
</svg>
