<svg width="24" height="24" viewBox="0 0 24 24" fill="none" xmlns="http://www.w3.org/2000/svg">
<path fill-rule="evenodd" clip-rule="evenodd" d="M13.25 12C13.25 11.5858 13.5858 11.25 14 11.25L22 11.25C22.4142 11.25 22.75 11.5858 22.75 12C22.75 12.4142 22.4142 12.75 22 12.75L14 12.75C13.5858 12.75 13.25 12.4142 13.25 12Z" fill="#28303F"/>
<path fill-rule="evenodd" clip-rule="evenodd" d="M13.25 7C13.25 6.58579 13.5858 6.25 14 6.25L22 6.25C22.4142 6.25 22.75 6.58579 22.75 7C22.75 7.41421 22.4142 7.75 22 7.75L14 7.75C13.5858 7.75 13.25 7.41421 13.25 7Z" fill="#28303F"/>
<path fill-rule="evenodd" clip-rule="evenodd" d="M15.25 17C15.25 16.5858 15.5858 16.25 16 16.25H22C22.4142 16.25 22.75 16.5858 22.75 17C22.75 17.4142 22.4142 17.75 22 17.75H16C15.5858 17.75 15.25 17.4142 15.25 17Z" fill="#28303F"/>
<circle cx="7" cy="8" r="3" fill="#28303F"/>
<ellipse opacity="0.4" cx="7" cy="15.5" rx="5" ry="3.5" fill="#28303F"/>
</svg>
