<svg width="24" height="24" viewBox="0 0 24 24" fill="none" xmlns="http://www.w3.org/2000/svg">
<path fill-rule="evenodd" clip-rule="evenodd" d="M17 2H7C4.79086 2 3 3.79086 3 6V11.25H21V6C21 3.79086 19.2091 2 17 2ZM21 12.75H3V18C3 20.2091 4.79086 22 7 22H17C19.2091 22 21 20.2091 21 18V12.75ZM9.25 6C9.25 5.58579 9.58579 5.25 10 5.25H14C14.4142 5.25 14.75 5.58579 14.75 6C14.75 6.41421 14.4142 6.75 14 6.75H10C9.58579 6.75 9.25 6.41421 9.25 6ZM10 16.25C9.58579 16.25 9.25 16.5858 9.25 17C9.25 17.4142 9.58579 17.75 10 17.75H14C14.4142 17.75 14.75 17.4142 14.75 17C14.75 16.5858 14.4142 16.25 14 16.25H10Z" fill="#28303F"/>
</svg>
