<svg width="24" height="24" viewBox="0 0 24 24" fill="none" xmlns="http://www.w3.org/2000/svg">
<path fill-rule="evenodd" clip-rule="evenodd" d="M20 3C21.1046 3 22 3.89543 22 5V19C22 20.1046 21.1046 21 20 21C18.8954 21 18 20.1046 18 19V5C18 3.89543 18.8954 3 20 3ZM4 11C5.10457 11 6 11.8954 6 13L6 19C6 20.1046 5.10457 21 4 21C2.89543 21 2 20.1046 2 19V13C2 11.8954 2.89543 11 4 11ZM14 9C14 7.89543 13.1046 7 12 7C10.8954 7 10 7.89543 10 9V19C10 20.1046 10.8954 21 12 21C13.1046 21 14 20.1046 14 19L14 9Z" fill="#28303F"/>
</svg>
