<svg width="24" height="24" viewBox="0 0 24 24" fill="none" xmlns="http://www.w3.org/2000/svg">
<path fill-rule="evenodd" clip-rule="evenodd" d="M11 3.125C9.75736 3.125 8.75 4.13236 8.75 5.375V6.375C8.75 6.78921 8.41421 7.125 8 7.125C7.58579 7.125 7.25 6.78921 7.25 6.375V5.375C7.25 3.30393 8.92893 1.625 11 1.625H13C15.0711 1.625 16.75 3.30393 16.75 5.375V6.375C16.75 6.78921 16.4142 7.125 16 7.125C15.5858 7.125 15.25 6.78921 15.25 6.375V5.375C15.25 4.13236 14.2426 3.125 13 3.125H11Z" fill="#28303F"/>
<path d="M6 6.375H18C20.2091 6.375 22 8.16586 22 10.375C22 10.375 19.648 12.6767 13.6848 12.925C13.5789 12.9294 13.4876 12.8491 13.4647 12.7456C13.3164 12.0733 12.7169 11.5703 12 11.5703C11.3044 11.5703 10.7194 12.0438 10.5497 12.6861C10.5227 12.7882 10.4288 12.8645 10.3235 12.8564C4.34828 12.3973 2 10.375 2 10.375C2 8.16586 3.79086 6.375 6 6.375Z" fill="#28303F"/>
<path d="M10.5 14.2583C10.5 14.1532 10.4173 14.0661 10.3126 14.0581C5.6231 13.7023 3.00088 12.4687 2 11.8876V18.375C2 20.5842 3.79086 22.375 6 22.375H18C20.2091 22.375 22 20.5842 22 18.375V11.9294C20.9969 12.5867 18.3689 13.9605 13.6942 14.1644C13.5867 14.1691 13.5 14.2574 13.5 14.3651V14.4703C13.5 15.2987 12.8284 15.9703 12 15.9703C11.1716 15.9703 10.5 15.2987 10.5 14.4703V14.2583Z" fill="#28303F"/>
<rect x="11.25" y="12.375" width="1.5" height="2.79403" rx="0.75" fill="#28303F"/>
</svg>
