<svg width="24" height="24" viewBox="0 0 24 24" fill="none" xmlns="http://www.w3.org/2000/svg">
<path fill-rule="evenodd" clip-rule="evenodd" d="M11.0017 3.125C9.75907 3.125 8.75171 4.13236 8.75171 5.375V6.375C8.75171 6.78921 8.41592 7.125 8.00171 7.125C7.5875 7.125 7.25171 6.78921 7.25171 6.375V5.375C7.25171 3.30393 8.93064 1.625 11.0017 1.625H13.0017C15.0728 1.625 16.7517 3.30393 16.7517 5.375V6.375C16.7517 6.78921 16.4159 7.125 16.0017 7.125C15.5875 7.125 15.2517 6.78921 15.2517 6.375V5.375C15.2517 4.13236 14.2443 3.125 13.0017 3.125H11.0017Z" fill="#28303F"/>
<path d="M18.0017 6.375H6.00169C3.8695 6.375 2.12696 8.04327 2.00815 10.1457C1.99993 10.2911 2.06483 10.4287 2.18353 10.513C2.62666 10.8274 3.90148 11.6161 6.24604 12.2114C6.40556 12.2519 6.56401 12.1517 6.63451 12.0029C6.87501 11.4955 7.39188 11.1447 7.9907 11.1447C8.81913 11.1447 9.4907 11.8162 9.4907 12.6447C9.4907 12.7216 9.54875 12.7863 9.62534 12.7941C9.91294 12.8233 10.2097 12.8489 10.5157 12.8705L13.4948 12.9322C13.7772 12.9226 14.0516 12.9085 14.3183 12.8902C14.4225 12.8831 14.503 12.7961 14.503 12.6916V12.6447C14.503 11.8162 15.1746 11.1447 16.003 11.1447C16.6429 11.1447 17.1892 11.5453 17.4047 12.1094C17.4675 12.2737 17.6346 12.3907 17.8049 12.3469C20.1606 11.7418 21.4257 10.85 21.8434 10.5118C21.948 10.4272 22.0032 10.2991 21.9963 10.1648C21.8869 8.05335 20.1403 6.375 18.0017 6.375Z" fill="#28303F"/>
<path d="M9.47336 14.2631C9.49174 14.144 9.59654 14.0503 9.71625 14.0647C11.213 14.2443 12.7698 14.3062 14.3165 14.2087C14.4245 14.2019 14.5177 14.2819 14.5424 14.3874C14.6974 15.0507 15.2925 15.5447 16.003 15.5447C16.8315 15.5447 17.503 14.8731 17.503 14.0447V13.9999C17.503 13.8597 17.6002 13.7385 17.7364 13.7057C19.0124 13.3988 20.2429 12.9525 21.3841 12.341C21.6591 12.1936 22.0017 12.3876 22.0017 12.6996V18.375C22.0017 20.5841 20.2108 22.375 18.0017 22.375H6.00169C3.79255 22.375 2.00169 20.5841 2.00169 18.375L1.99817 12.5443C1.99799 12.2473 2.31078 12.0525 2.58189 12.1738C3.64185 12.6484 4.8925 13.0799 6.26167 13.4253C6.39587 13.4592 6.4907 13.5795 6.4907 13.7179V14.0447C6.4907 14.8731 7.16227 15.5447 7.9907 15.5447C8.73741 15.5447 9.36281 14.9798 9.47336 14.2631Z" fill="#28303F"/>
<rect x="7.24072" y="11.9478" width="1.5" height="2.79403" rx="0.75" fill="#28303F"/>
<rect x="15.2531" y="11.9478" width="1.5" height="2.79403" rx="0.75" fill="#28303F"/>
</svg>
