<svg width="24" height="24" viewBox="0 0 24 24" fill="none" xmlns="http://www.w3.org/2000/svg">
<path fill-rule="evenodd" clip-rule="evenodd" d="M8.75 5C8.75 3.75736 9.75736 2.75 11 2.75H13C14.2426 2.75 15.25 3.75736 15.25 5V6H8.75V5ZM7.25 6V5C7.25 2.92893 8.92893 1.25 11 1.25H13C15.0711 1.25 16.75 2.92893 16.75 5V6H18C20.2091 6 22 7.79086 22 10V18C22 20.2091 20.2091 22 18 22H6C3.79086 22 2 20.2091 2 18V10C2 7.79086 3.79086 6 6 6H7.25ZM6.25 10C6.25 9.58579 6.58579 9.25 7 9.25H17C17.4142 9.25 17.75 9.58579 17.75 10C17.75 10.4142 17.4142 10.75 17 10.75H7C6.58579 10.75 6.25 10.4142 6.25 10ZM7 13.25C6.58579 13.25 6.25 13.5858 6.25 14C6.25 14.4142 6.58579 14.75 7 14.75H17C17.4142 14.75 17.75 14.4142 17.75 14C17.75 13.5858 17.4142 13.25 17 13.25H7ZM6.25 18C6.25 17.5858 6.58579 17.25 7 17.25H17C17.4142 17.25 17.75 17.5858 17.75 18C17.75 18.4142 17.4142 18.75 17 18.75H7C6.58579 18.75 6.25 18.4142 6.25 18Z" fill="#28303F"/>
</svg>
