<svg width="24" height="24" viewBox="0 0 24 24" fill="none" xmlns="http://www.w3.org/2000/svg">
<path fill-rule="evenodd" clip-rule="evenodd" d="M2.09502 1.25613C1.68415 1.20363 1.30851 1.49415 1.25601 1.90502C1.20351 2.31589 1.49402 2.69153 1.9049 2.74403C5.32859 3.18151 8.01218 3.81887 10.8096 5.11635C13.5187 6.37287 16.368 8.26392 20.1125 11.2501H19C18.5857 11.2501 18.25 11.5859 18.25 12.0001C18.25 12.4143 18.5857 12.7501 19 12.7501H21C21.9665 12.7501 22.75 11.9666 22.75 11.0001V9.00008C22.75 8.58587 22.4142 8.25008 22 8.25008C21.5857 8.25008 21.25 8.58587 21.25 9.00008V10.239C17.367 7.12847 14.3561 5.10775 11.4407 3.75559C8.4591 2.37267 5.61345 1.70571 2.09502 1.25613ZM1.99994 10C1.99994 8.89543 2.89537 8 3.99994 8C5.10451 8 5.99994 8.89543 5.99994 10L5.99994 20C5.99994 21.1046 5.10451 22 3.99994 22C2.89537 22 1.99994 21.1046 1.99994 20L1.99994 10ZM18 18C18 16.8954 18.8954 16 20 16C21.1046 16 22 16.8954 22 18V20C22 21.1046 21.1046 22 20 22C18.8954 22 18 21.1046 18 20V18ZM11.9999 12C10.8954 12 9.99994 12.8954 9.99994 14V20C9.99994 21.1046 10.8954 22 11.9999 22C13.1045 22 13.9999 21.1046 13.9999 20V14C13.9999 12.8954 13.1045 12 11.9999 12Z" fill="#28303F"/>
</svg>
