<svg width="24" height="24" viewBox="0 0 24 24" fill="none" xmlns="http://www.w3.org/2000/svg">
<path fill-rule="evenodd" clip-rule="evenodd" d="M14.3402 7.62173C13.8424 7.35563 13.3044 7.17726 12.75 7.09253V2.02808C14.1344 2.1322 15.4848 2.52369 16.714 3.1807C18.1643 3.95592 19.4011 5.07685 20.3147 6.44421C21.2284 7.81157 21.7907 9.38315 21.9519 11.0197C21.9594 11.0964 21.9661 11.1732 21.9719 11.2499H16.9074C16.7978 10.5326 16.5321 9.84697 16.1277 9.24186C15.6742 8.56305 15.0602 8.00658 14.3402 7.62173ZM6.4443 3.68522C7.88019 2.72579 9.53634 2.15695 11.25 2.02808V7.09253C10.5346 7.20186 9.84869 7.46678 9.24195 7.8722C8.42556 8.41769 7.78927 9.19302 7.41353 10.1001C7.03778 11.0073 6.93947 12.0054 7.13102 12.9684C7.27339 13.6841 7.57112 14.3565 7.99965 14.9397L4.41854 18.5208C3.29792 17.2179 2.52906 15.6446 2.19215 13.9508C1.8063 12.011 2.00433 10.0003 2.76121 8.17308C3.51809 6.34582 4.79981 4.78403 6.4443 3.68522ZM5.47921 19.5814C6.53174 20.4867 7.76345 21.1647 9.09718 21.5693C10.6709 22.0467 12.338 22.1286 13.9509 21.8078C15.5488 21.4899 17.0446 20.7865 18.3084 19.7591L13.8014 16.626C13.5323 16.7307 13.2537 16.8122 12.9685 16.8689C12.1678 17.0282 11.3402 16.9875 10.5589 16.7505C10.0188 16.5867 9.51228 16.3324 9.06032 16.0003L5.47921 19.5814ZM16.5865 13.8997C16.7399 13.5293 16.8473 13.1432 16.9074 12.7499H21.9719C21.8926 13.8043 21.6462 14.8431 21.2388 15.8267C20.7999 16.8863 20.1835 17.859 19.4194 18.7046L15.2155 15.7822C15.815 15.2725 16.2851 14.6274 16.5865 13.8997Z" fill="#28303F"/>
</svg>
