<svg width="24" height="24" viewBox="0 0 24 24" fill="none" xmlns="http://www.w3.org/2000/svg">
<path fill-rule="evenodd" clip-rule="evenodd" d="M6 2C3.79086 2 2 3.79086 2 6V18C2 20.2091 3.79086 22 6 22H18C20.2091 22 22 20.2091 22 18V6C22 3.79086 20.2091 2 18 2H6ZM8.75 9C8.75 8.30964 9.30964 7.75 10 7.75C10.6904 7.75 11.25 8.30964 11.25 9V15C11.25 16.5188 12.4812 17.75 14 17.75C15.5188 17.75 16.75 16.5188 16.75 15V14C16.75 13.3096 17.3096 12.75 18 12.75H19C19.4142 12.75 19.75 12.4142 19.75 12C19.75 11.5858 19.4142 11.25 19 11.25H18C16.4812 11.25 15.25 12.4812 15.25 14V15C15.25 15.6904 14.6904 16.25 14 16.25C13.3096 16.25 12.75 15.6904 12.75 15V9C12.75 7.48122 11.5188 6.25 10 6.25C8.48122 6.25 7.25 7.48122 7.25 9V10C7.25 10.6904 6.69036 11.25 6 11.25H5C4.58579 11.25 4.25 11.5858 4.25 12C4.25 12.4142 4.58579 12.75 5 12.75H6C7.51878 12.75 8.75 11.5188 8.75 10V9Z" fill="#28303F"/>
</svg>
