<svg width="24" height="24" viewBox="0 0 24 24" fill="none" xmlns="http://www.w3.org/2000/svg">
<path fill-rule="evenodd" clip-rule="evenodd" d="M2.75 2C2.75 1.58579 2.41421 1.25 2 1.25C1.58579 1.25 1.25 1.58579 1.25 2V17C1.25 19.6234 3.37665 21.75 6 21.75H22C22.4142 21.75 22.75 21.4142 22.75 21C22.75 20.5858 22.4142 20.25 22 20.25H6C4.20507 20.25 2.75 18.7949 2.75 17V2ZM9.75 9C9.75 8.30964 10.3096 7.75 11 7.75C11.6904 7.75 12.25 8.30964 12.25 9V15C12.25 16.5188 13.4812 17.75 15 17.75C16.5188 17.75 17.75 16.5188 17.75 15V14C17.75 13.3096 18.3096 12.75 19 12.75H20C20.4142 12.75 20.75 12.4142 20.75 12C20.75 11.5858 20.4142 11.25 20 11.25H19C17.4812 11.25 16.25 12.4812 16.25 14V15C16.25 15.6904 15.6904 16.25 15 16.25C14.3096 16.25 13.75 15.6904 13.75 15V9C13.75 7.48122 12.5188 6.25 11 6.25C9.48122 6.25 8.25 7.48122 8.25 9V10C8.25 10.6904 7.69036 11.25 7 11.25H6C5.58579 11.25 5.25 11.5858 5.25 12C5.25 12.4142 5.58579 12.75 6 12.75H7C8.51878 12.75 9.75 11.5188 9.75 10V9Z" fill="#28303F"/>
</svg>
