<svg width="24" height="24" viewBox="0 0 24 24" fill="none" xmlns="http://www.w3.org/2000/svg">
<path fill-rule="evenodd" clip-rule="evenodd" d="M6 2C3.79086 2 2 3.79086 2 6V18C2 20.2091 3.79086 22 6 22H18C20.2091 22 22 20.2091 22 18V6C22 3.79086 20.2091 2 18 2H6ZM14.5 8.25C14.0858 8.25 13.75 8.58579 13.75 9C13.75 9.41421 14.0858 9.75 14.5 9.75H15.4393L13.1372 13.2617C13.0364 13.4155 12.8095 13.4114 12.7143 13.2541L10.8061 10.1017C10.1065 8.946 8.4169 8.98511 7.77157 10.1719L5.34113 14.6417C5.14326 15.0056 5.27785 15.461 5.64175 15.6589C6.00565 15.8568 6.46105 15.7222 6.65891 15.3583L9.08936 10.8885C9.18155 10.7189 9.42292 10.7133 9.52286 10.8784L11.431 14.0308C12.0978 15.1323 13.6857 15.1609 14.3917 14.084L16.8378 10.3527L17.3292 11.3354C17.5144 11.7059 17.9649 11.8561 18.3354 11.6708C18.7059 11.4856 18.8561 11.0351 18.6708 10.6646L17.9472 9.21738C17.6508 8.62451 17.0448 8.25 16.382 8.25H14.5Z" fill="#28303F"/>
</svg>
