<svg width="24" height="24" viewBox="0 0 24 24" fill="none" xmlns="http://www.w3.org/2000/svg">
<path fill-rule="evenodd" clip-rule="evenodd" d="M2 6C2 3.79086 3.79086 2 6 2H18C20.2091 2 22 3.79086 22 6V18C22 20.2091 20.2091 22 18 22H6C3.79086 22 2 20.2091 2 18V6ZM16 11C14.8954 11 14 11.8954 14 13V15C14 16.1046 14.8954 17 16 17C17.1046 17 18 16.1046 18 15V13C18 11.8954 17.1046 11 16 11ZM6 9C6 7.89543 6.89543 7 8 7C9.10457 7 10 7.89543 10 9V15C10 16.1046 9.10457 17 8 17C6.89543 17 6 16.1046 6 15L6 9Z" fill="#28303F"/>
</svg>
