<svg width="24" height="24" viewBox="0 0 24 24" fill="none" xmlns="http://www.w3.org/2000/svg">
<path fill-rule="evenodd" clip-rule="evenodd" d="M2.75 2C2.75 1.58579 2.41421 1.25 2 1.25C1.58579 1.25 1.25 1.58579 1.25 2V18C1.25 20.6234 3.37665 22.75 6 22.75H22C22.4142 22.75 22.75 22.4142 22.75 22C22.75 21.5858 22.4142 21.25 22 21.25H6C4.20507 21.25 2.75 19.7949 2.75 18V2ZM15.5 15.75C15.0858 15.75 14.75 15.4142 14.75 15C14.75 14.5858 15.0858 14.25 15.5 14.25H16.4393L14.1372 10.7383C14.0364 10.5845 13.8095 10.5886 13.7143 10.7459L11.8061 13.8983C11.1065 15.054 9.4169 15.0149 8.77157 13.8281L6.34113 9.35827C6.14326 8.99438 6.27785 8.53897 6.64175 8.34111C7.00565 8.14324 7.46105 8.27783 7.65891 8.64173L10.0894 13.1115C10.1816 13.2811 10.4229 13.2867 10.5229 13.1216L12.431 9.96919C13.0978 8.86767 14.6857 8.83911 15.3917 9.91595L17.8378 13.6473L18.3292 12.6646C18.5144 12.2941 18.9649 12.1439 19.3354 12.3292C19.7059 12.5144 19.8561 12.9649 19.6708 13.3354L18.9472 14.7826C18.6508 15.3755 18.0448 15.75 17.382 15.75H15.5Z" fill="#28303F"/>
</svg>
