<svg width="24" height="24" viewBox="0 0 24 24" fill="none" xmlns="http://www.w3.org/2000/svg">
<path fill-rule="evenodd" clip-rule="evenodd" d="M2.75 2C2.75 1.58579 2.41421 1.25 2 1.25C1.58579 1.25 1.25 1.58579 1.25 2V18C1.25 20.6234 3.37665 22.75 6 22.75H22C22.4142 22.75 22.75 22.4142 22.75 22C22.75 21.5858 22.4142 21.25 22 21.25H6C4.20507 21.25 2.75 19.7949 2.75 18V2ZM21.592 9.46049C21.8464 9.13353 21.7874 8.66232 21.4605 8.40802C21.1335 8.15372 20.6623 8.21262 20.408 8.53958L16.6524 13.3683C16.4856 13.5827 16.1811 13.5827 16.0144 13.3683L13.0481 9.55446C12.3474 8.65366 10.986 8.65366 10.2853 9.55446L6.40802 14.5396C6.15372 14.8665 6.21262 15.3377 6.53958 15.592C6.86654 15.8464 7.33775 15.7875 7.59205 15.4605L11.4694 10.4754C11.5695 10.3467 11.7639 10.3467 11.864 10.4754L14.8303 14.2892C15.5977 15.2757 17.0691 15.2757 17.8364 14.2892L21.592 9.46049Z" fill="#28303F"/>
</svg>
