<svg width="24" height="24" viewBox="0 0 24 24" fill="none" xmlns="http://www.w3.org/2000/svg">
<path fill-rule="evenodd" clip-rule="evenodd" d="M19 1.25C18.5857 1.25 18.25 1.58579 18.25 2C18.25 2.41421 18.5857 2.75 19 2.75H20.1125C16.368 5.73616 13.5187 7.62721 10.8096 8.88373C8.01218 10.1812 5.32859 10.8186 1.9049 11.256C1.49402 11.3085 1.20351 11.6842 1.25601 12.0951C1.30851 12.5059 1.68415 12.7965 2.09502 12.744C5.61345 12.2944 8.4591 11.6274 11.4407 10.2445C14.3561 8.89233 17.367 6.87162 21.25 3.76111V5C21.25 5.41421 21.5857 5.75 22 5.75C22.4142 5.75 22.75 5.41421 22.75 5V3C22.75 2.0335 21.9665 1.25 21 1.25H19ZM22 10C22 8.89543 21.1046 8 20 8C18.8954 8 18 8.89543 18 10V20C18 21.1046 18.8954 22 20 22C21.1046 22 22 21.1046 22 20V10ZM6 18C6 16.8954 5.10457 16 4 16C2.89543 16 2 16.8954 2 18L2 20C2 21.1046 2.89543 22 4 22C5.10457 22 6 21.1046 6 20V18ZM12 12C13.1046 12 14 12.8954 14 14V20C14 21.1046 13.1046 22 12 22C10.8954 22 10 21.1046 10 20V14C10 12.8954 10.8954 12 12 12Z" fill="#28303F"/>
</svg>
