<svg width="24" height="24" viewBox="0 0 24 24" fill="none" xmlns="http://www.w3.org/2000/svg">
<path fill-rule="evenodd" clip-rule="evenodd" d="M6 2C3.79086 2 2 3.79086 2 6V18C2 20.2091 3.79086 22 6 22H18C20.2091 22 22 20.2091 22 18V6C22 3.79086 20.2091 2 18 2H6ZM14.5 15.75C14.0858 15.75 13.75 15.4142 13.75 15C13.75 14.5858 14.0858 14.25 14.5 14.25H15.4393L13.1372 10.7383C13.0364 10.5845 12.8095 10.5886 12.7143 10.7459L10.8061 13.8983C10.1065 15.054 8.4169 15.0149 7.77157 13.8281L5.34113 9.35827C5.14326 8.99438 5.27785 8.53897 5.64175 8.34111C6.00565 8.14324 6.46105 8.27783 6.65891 8.64173L9.08936 13.1115C9.18155 13.2811 9.42292 13.2867 9.52286 13.1216L11.431 9.96919C12.0978 8.86767 13.6857 8.83911 14.3917 9.91596L16.8378 13.6473L17.3292 12.6646C17.5144 12.2941 17.9649 12.1439 18.3354 12.3292C18.7059 12.5144 18.8561 12.9649 18.6708 13.3354L17.9472 14.7826C17.6508 15.3755 17.0448 15.75 16.382 15.75H14.5Z" fill="#28303F"/>
</svg>
