<svg width="24" height="24" viewBox="0 0 24 24" fill="none" xmlns="http://www.w3.org/2000/svg">
<path fill-rule="evenodd" clip-rule="evenodd" d="M6 1.25C3.37665 1.25 1.25 3.37665 1.25 6V18C1.25 20.6234 3.37665 22.75 6 22.75H18C20.6234 22.75 22.75 20.6234 22.75 18V6C22.75 3.37665 20.6234 1.25 18 1.25H6ZM2.75 6C2.75 4.20507 4.20507 2.75 6 2.75H18C19.7949 2.75 21.25 4.20507 21.25 6V14.4375L19.3877 13.0408C18.5914 12.4436 17.4772 12.5228 16.7735 13.2265L15.9621 14.0379C14.9968 15.0032 13.3695 14.7391 12.759 13.5181L11.241 10.4819C10.6305 9.26091 9.00317 8.99683 8.03788 9.96212L7.22654 10.7735C6.52276 11.4772 5.40857 11.5564 4.61233 10.9592L2.75 9.5625V6Z" fill="#28303F"/>
</svg>
