<svg width="24" height="24" viewBox="0 0 24 24" fill="none" xmlns="http://www.w3.org/2000/svg">
<path fill-rule="evenodd" clip-rule="evenodd" d="M2.75 2C2.75 1.58579 2.41421 1.25 2 1.25C1.58579 1.25 1.25 1.58579 1.25 2V18C1.25 20.6234 3.37665 22.75 6 22.75H22C22.4142 22.75 22.75 22.4142 22.75 22C22.75 21.5858 22.4142 21.25 22 21.25H6C4.20507 21.25 2.75 19.7949 2.75 18V2ZM15.5 8.25C15.0858 8.25 14.75 8.58579 14.75 9C14.75 9.41421 15.0858 9.75 15.5 9.75H16.4393L14.1372 13.2617C14.0364 13.4155 13.8095 13.4114 13.7143 13.2541L11.8061 10.1017C11.1065 8.946 9.4169 8.98511 8.77157 10.1719L6.34113 14.6417C6.14326 15.0056 6.27785 15.461 6.64175 15.6589C7.00565 15.8568 7.46105 15.7222 7.65891 15.3583L10.0894 10.8885C10.1816 10.7189 10.4229 10.7133 10.5229 10.8784L12.431 14.0308C13.0978 15.1323 14.6857 15.1609 15.3917 14.084L17.8378 10.3527L18.3292 11.3354C18.5144 11.7059 18.9649 11.8561 19.3354 11.6708C19.7059 11.4856 19.8561 11.0351 19.6708 10.6646L18.9472 9.21738C18.6508 8.62451 18.0448 8.25 17.382 8.25H15.5Z" fill="#28303F"/>
</svg>
