<svg width="24" height="24" viewBox="0 0 24 24" fill="none" xmlns="http://www.w3.org/2000/svg">
<path fill-rule="evenodd" clip-rule="evenodd" d="M16.1804 22H7.81965C5.5109 22 3.6393 20.214 3.6393 18.0108V13.133C3.6393 12.4248 3.34447 11.7456 2.81969 11.2448C1.60381 10.0845 1.76187 8.16205 3.15251 7.19692L9.54124 2.763C11.0071 1.74567 12.9929 1.74567 14.4588 2.763L20.8475 7.19691C22.2381 8.16205 22.3962 10.0845 21.1803 11.2448C20.6555 11.7456 20.3607 12.4248 20.3607 13.133V18.0108C20.3607 20.214 18.4891 22 16.1804 22ZM9.75 13.5C9.75 13.0858 10.0858 12.75 10.5 12.75C10.9142 12.75 11.25 13.0858 11.25 13.5V16.5C11.25 17.7426 12.2574 18.75 13.5 18.75C14.7426 18.75 15.75 17.7426 15.75 16.5V16C15.75 15.8619 15.8619 15.75 16 15.75H17C17.4142 15.75 17.75 15.4142 17.75 15C17.75 14.5858 17.4142 14.25 17 14.25H16C15.0335 14.25 14.25 15.0335 14.25 16V16.5C14.25 16.9142 13.9142 17.25 13.5 17.25C13.0858 17.25 12.75 16.9142 12.75 16.5V13.5C12.75 12.2574 11.7426 11.25 10.5 11.25C9.25736 11.25 8.25 12.2574 8.25 13.5V14C8.25 14.1381 8.13807 14.25 8 14.25H7C6.58579 14.25 6.25 14.5858 6.25 15C6.25 15.4142 6.58579 15.75 7 15.75H8C8.9665 15.75 9.75 14.9665 9.75 14V13.5Z" fill="#28303F"/>
</svg>
