<svg width="24" height="24" viewBox="0 0 24 24" fill="none" xmlns="http://www.w3.org/2000/svg">
<path fill-rule="evenodd" clip-rule="evenodd" d="M21 10.1503V17.9668C21 20.1943 19.2091 22 17 22H7C4.79086 22 3 20.1943 3 17.9668V10.1503C3 8.93937 3.53964 7.7925 4.46986 7.02652L9.46986 2.90935C10.9423 1.69689 13.0577 1.69688 14.5301 2.90935L19.5301 7.02652C20.4604 7.7925 21 8.93937 21 10.1503ZM9.75 13.5C9.75 13.0858 10.0858 12.75 10.5 12.75C10.9142 12.75 11.25 13.0858 11.25 13.5V16.5C11.25 17.7426 12.2574 18.75 13.5 18.75C14.7426 18.75 15.75 17.7426 15.75 16.5V16C15.75 15.8619 15.8619 15.75 16 15.75H17C17.4142 15.75 17.75 15.4142 17.75 15C17.75 14.5858 17.4142 14.25 17 14.25H16C15.0335 14.25 14.25 15.0335 14.25 16V16.5C14.25 16.9142 13.9142 17.25 13.5 17.25C13.0858 17.25 12.75 16.9142 12.75 16.5V13.5C12.75 12.2574 11.7426 11.25 10.5 11.25C9.25736 11.25 8.25 12.2574 8.25 13.5V14C8.25 14.1381 8.13807 14.25 8 14.25H7C6.58579 14.25 6.25 14.5858 6.25 15C6.25 15.4142 6.58579 15.75 7 15.75H8C8.9665 15.75 9.75 14.9665 9.75 14V13.5Z" fill="#28303F"/>
</svg>
