<svg width="24" height="24" viewBox="0 0 24 24" fill="none" xmlns="http://www.w3.org/2000/svg">
<path fill-rule="evenodd" clip-rule="evenodd" d="M11.7889 21H8.12309C6.28761 21 4.68768 19.7508 4.24252 17.9701L2.62125 11.4851C2.30567 10.2228 3.26039 9 4.56153 9H9.99998L8.59115 6.88675C7.48355 5.22536 8.67453 3 10.6713 3H12L15.8682 9.76943C15.9546 9.92052 16 10.0915 16 10.2656V18.4648C16 18.7992 15.8329 19.1114 15.5547 19.2969L14.0077 20.3282C13.3506 20.7662 12.5786 21 11.7889 21ZM20 8H19.5C18.3954 8 17.5 8.89543 17.5 10V19C17.5 20.1046 18.3954 21 19.5 21H20C21.1045 21 22 20.1046 22 19V10C22 8.89543 21.1045 8 20 8Z" fill="#28303F"/>
</svg>
