<svg width="24" height="24" viewBox="0 0 24 24" fill="none" xmlns="http://www.w3.org/2000/svg">
<path fill-rule="evenodd" clip-rule="evenodd" d="M2 6C2 3.79086 3.79086 2 6 2H18C20.2091 2 22 3.79086 22 6V16C22 18.2091 20.2091 20 18 20H12.75V21.25H14C14.4142 21.25 14.75 21.5858 14.75 22C14.75 22.4142 14.4142 22.75 14 22.75H12H10C9.58579 22.75 9.25 22.4142 9.25 22C9.25 21.5858 9.58579 21.25 10 21.25H11.25V20H6C3.79086 20 2 18.2091 2 16V6ZM10.5 7.75C10.0858 7.75 9.75 8.08579 9.75 8.5V9C9.75 10.5188 8.51878 11.75 7 11.75H6C5.58579 11.75 5.25 11.4142 5.25 11C5.25 10.5858 5.58579 10.25 6 10.25H7C7.69036 10.25 8.25 9.69036 8.25 9V8.5C8.25 7.25736 9.25736 6.25 10.5 6.25C11.7426 6.25 12.75 7.25736 12.75 8.5V13.5C12.75 13.9142 13.0858 14.25 13.5 14.25C13.9142 14.25 14.25 13.9142 14.25 13.5V13C14.25 11.4812 15.4812 10.25 17 10.25H18C18.4142 10.25 18.75 10.5858 18.75 11C18.75 11.4142 18.4142 11.75 18 11.75H17C16.3096 11.75 15.75 12.3096 15.75 13V13.5C15.75 14.7426 14.7426 15.75 13.5 15.75C12.2574 15.75 11.25 14.7426 11.25 13.5V8.5C11.25 8.08579 10.9142 7.75 10.5 7.75Z" fill="#28303F"/>
</svg>
