<svg width="24" height="24" viewBox="0 0 24 24" fill="none" xmlns="http://www.w3.org/2000/svg">
<path fill-rule="evenodd" clip-rule="evenodd" d="M13.2376 11.8231L22.5303 2.53033C22.8232 2.23744 22.8232 1.76256 22.5303 1.46967C22.2374 1.17678 21.7626 1.17678 21.4697 1.46967L18.5209 4.4184C16.7701 2.91114 14.4915 2 12 2C6.47715 2 2 6.47715 2 12C2 17.5228 6.47715 22 12 22C17.5228 22 22 17.5228 22 12C22 10.022 21.4257 8.17806 20.4347 6.62594L18.0524 9.00822C18.499 9.90989 18.75 10.9256 18.75 12C18.75 15.7279 15.7279 18.75 12 18.75C8.27208 18.75 5.25 15.7279 5.25 12C5.25 8.27208 8.27208 5.25 12 5.25C13.5938 5.25 15.0585 5.80235 16.2133 6.72608L15.1441 7.79521C14.2677 7.1388 13.1793 6.75 12 6.75C9.1005 6.75 6.75 9.1005 6.75 12C6.75 14.8995 9.1005 17.25 12 17.25C14.8995 17.25 17.25 14.8995 17.25 12C17.25 11.3477 17.131 10.7232 16.9136 10.147L14.7304 12.3303C14.5672 13.6933 13.407 14.75 12 14.75C10.4812 14.75 9.25 13.5188 9.25 12C9.25 10.4812 10.4812 9.25 12 9.25C12.4869 9.25 12.9442 9.37652 13.3409 9.59848L12.1769 10.7624C12.1191 10.7542 12.0601 10.75 12 10.75C11.3096 10.75 10.75 11.3096 10.75 12C10.75 12.6904 11.3096 13.25 12 13.25C12.6904 13.25 13.25 12.6904 13.25 12C13.25 11.9399 13.2458 11.8809 13.2376 11.8231Z" fill="#28303F"/>
</svg>
