<svg width="24" height="24" viewBox="0 0 24 24" fill="none" xmlns="http://www.w3.org/2000/svg">
<path d="M15.7123 4.28769C16.0052 4.58058 16.48 4.58058 16.7729 4.28769C17.0658 3.9948 17.0658 3.51992 16.7729 3.22703L15.7123 4.28769ZM9.34831 5.34835C9.05542 5.64124 9.05542 6.11612 9.34831 6.40901C9.64121 6.7019 10.1161 6.7019 10.409 6.40901L9.34831 5.34835ZM7.22699 3.22703C6.9341 3.51992 6.9341 3.9948 7.22699 4.28769C7.51989 4.58058 7.99476 4.58058 8.28765 4.28769L7.22699 3.22703ZM13.591 6.40901C13.8838 6.7019 14.3587 6.7019 14.6516 6.40901C14.9445 6.11612 14.9445 5.64124 14.6516 5.34835L13.591 6.40901ZM2 12H1.25H2ZM6 8V8.75V8ZM6 18V17.25V18ZM2 14H2.75H2ZM22 14H22.75H22ZM18 18V18.75V18ZM22 12H21.25H22ZM18 8V7.25V8ZM3 14.25H2.25V15.75H3V14.25ZM21 15.75H21.75V14.25H21V15.75ZM15.25 22C15.25 22.4142 15.5858 22.75 16 22.75C16.4142 22.75 16.75 22.4142 16.75 22H15.25ZM16.75 20.5C16.75 20.0858 16.4142 19.75 16 19.75C15.5858 19.75 15.25 20.0858 15.25 20.5H16.75ZM11.25 22C11.25 22.4142 11.5858 22.75 12 22.75C12.4142 22.75 12.75 22.4142 12.75 22H11.25ZM12.75 20.5C12.75 20.0858 12.4142 19.75 12 19.75C11.5858 19.75 11.25 20.0858 11.25 20.5H12.75ZM7.25 22C7.25 22.4142 7.58579 22.75 8 22.75C8.41421 22.75 8.75 22.4142 8.75 22H7.25ZM8.75 20.5C8.75 20.0858 8.41421 19.75 8 19.75C7.58579 19.75 7.25 20.0858 7.25 20.5H8.75ZM12 2.75C13.4499 2.75 14.7614 3.3368 15.7123 4.28769L16.7729 3.22703C15.5522 2.00634 13.8637 1.25 12 1.25V2.75ZM10.409 6.40901C10.817 6.00102 11.3784 5.75 12 5.75V4.25C10.9646 4.25 10.0261 4.67055 9.34831 5.34835L10.409 6.40901ZM8.28765 4.28769C9.23854 3.3368 10.55 2.75 12 2.75V1.25C10.1362 1.25 8.44768 2.00634 7.22699 3.22703L8.28765 4.28769ZM12 5.75C12.6215 5.75 13.183 6.00102 13.591 6.40901L14.6516 5.34835C13.9738 4.67055 13.0353 4.25 12 4.25V5.75ZM21.25 12V14H22.75V12H21.25ZM18 17.25L6 17.25L6 18.75L18 18.75V17.25ZM2.75 14L2.75 12H1.25L1.25 14H2.75ZM6 8.75L18 8.75V7.25L6 7.25V8.75ZM2.75 12C2.75 10.2051 4.20507 8.75 6 8.75V7.25C3.37665 7.25 1.25 9.37665 1.25 12H2.75ZM6 17.25C4.20507 17.25 2.75 15.7949 2.75 14H1.25C1.25 16.6234 3.37665 18.75 6 18.75V17.25ZM21.25 14C21.25 15.7949 19.7949 17.25 18 17.25V18.75C20.6234 18.75 22.75 16.6234 22.75 14H21.25ZM22.75 12C22.75 9.37665 20.6234 7.25 18 7.25V8.75C19.7949 8.75 21.25 10.2051 21.25 12H22.75ZM3 15.75H21V14.25H3V15.75ZM16.75 22V20.5H15.25V22H16.75ZM12.75 22V20.5H11.25V22H12.75ZM8.75 22V20.5H7.25V22H8.75Z" fill="#28303F"/>
</svg>
