<svg width="24" height="24" viewBox="0 0 24 24" fill="none" xmlns="http://www.w3.org/2000/svg">
<path d="M1.25 8C1.25 8.41421 1.58579 8.75 2 8.75C2.41421 8.75 2.75 8.41421 2.75 8H1.25ZM8 2.75C8.41421 2.75 8.75 2.41421 8.75 2C8.75 1.58579 8.41421 1.25 8 1.25V2.75ZM16 1.25C15.5858 1.25 15.25 1.58579 15.25 2C15.25 2.41421 15.5858 2.75 16 2.75V1.25ZM21.25 8C21.25 8.41421 21.5858 8.75 22 8.75C22.4142 8.75 22.75 8.41421 22.75 8H21.25ZM22.75 15.9444C22.75 15.5302 22.4142 15.1944 22 15.1944C21.5858 15.1944 21.25 15.5302 21.25 15.9444H22.75ZM16 21.25C15.5858 21.25 15.25 21.5858 15.25 22C15.25 22.4142 15.5858 22.75 16 22.75V21.25ZM8 22.75C8.41421 22.75 8.75 22.4142 8.75 22C8.75 21.5858 8.41421 21.25 8 21.25V22.75ZM2.75 15.9444C2.75 15.5302 2.41421 15.1944 2 15.1944C1.58579 15.1944 1.25 15.5302 1.25 15.9444H2.75ZM7 11.25C6.58579 11.25 6.25 11.5858 6.25 12C6.25 12.4142 6.58579 12.75 7 12.75V11.25ZM17 12.75C17.4142 12.75 17.75 12.4142 17.75 12C17.75 11.5858 17.4142 11.25 17 11.25V12.75ZM15.25 9.5C15.25 9.91421 15.5858 10.25 16 10.25C16.4142 10.25 16.75 9.91421 16.75 9.5H15.25ZM16.75 7.5C16.75 7.08579 16.4142 6.75 16 6.75C15.5858 6.75 15.25 7.08579 15.25 7.5H16.75ZM11.25 9.5C11.25 9.91421 11.5858 10.25 12 10.25C12.4142 10.25 12.75 9.91421 12.75 9.5H11.25ZM12.75 7.5C12.75 7.08579 12.4142 6.75 12 6.75C11.5858 6.75 11.25 7.08579 11.25 7.5H12.75ZM7.25 9.5C7.25 9.91421 7.58579 10.25 8 10.25C8.41421 10.25 8.75 9.91421 8.75 9.5H7.25ZM8.75 7.5C8.75 7.08579 8.41421 6.75 8 6.75C7.58579 6.75 7.25 7.08579 7.25 7.5H8.75ZM11.25 16.5C11.25 16.9142 11.5858 17.25 12 17.25C12.4142 17.25 12.75 16.9142 12.75 16.5H11.25ZM12.75 14.5C12.75 14.0858 12.4142 13.75 12 13.75C11.5858 13.75 11.25 14.0858 11.25 14.5H12.75ZM15.25 16.5C15.25 16.9142 15.5858 17.25 16 17.25C16.4142 17.25 16.75 16.9142 16.75 16.5H15.25ZM16.75 14.5C16.75 14.0858 16.4142 13.75 16 13.75C15.5858 13.75 15.25 14.0858 15.25 14.5H16.75ZM7.25 16.5C7.25 16.9142 7.58579 17.25 8 17.25C8.41421 17.25 8.75 16.9142 8.75 16.5H7.25ZM8.75 14.5C8.75 14.0858 8.41421 13.75 8 13.75C7.58579 13.75 7.25 14.0858 7.25 14.5H8.75ZM2.75 8V6H1.25V8H2.75ZM6 2.75H8V1.25H6V2.75ZM16 2.75H18V1.25H16V2.75ZM21.25 6V8H22.75V6H21.25ZM21.25 15.9444V18H22.75V15.9444H21.25ZM18 21.25H16V22.75H18V21.25ZM8 21.25H6V22.75H8V21.25ZM2.75 18V15.9444H1.25V18H2.75ZM6 21.25C4.20507 21.25 2.75 19.7949 2.75 18H1.25C1.25 20.6234 3.37665 22.75 6 22.75V21.25ZM21.25 18C21.25 19.7949 19.7949 21.25 18 21.25V22.75C20.6234 22.75 22.75 20.6234 22.75 18H21.25ZM18 2.75C19.7949 2.75 21.25 4.20507 21.25 6H22.75C22.75 3.37665 20.6234 1.25 18 1.25V2.75ZM2.75 6C2.75 4.20507 4.20507 2.75 6 2.75V1.25C3.37665 1.25 1.25 3.37665 1.25 6H2.75ZM7 12.75H17V11.25H7V12.75ZM16.75 9.5V7.5H15.25V9.5H16.75ZM12.75 9.5V7.5H11.25V9.5H12.75ZM8.75 9.5V7.5H7.25V9.5H8.75ZM12.75 16.5V14.5H11.25V16.5H12.75ZM16.75 16.5V14.5H15.25V16.5H16.75ZM8.75 16.5V14.5H7.25V16.5H8.75Z" fill="#28303F"/>
</svg>
