<svg width="24" height="24" viewBox="0 0 24 24" fill="none" xmlns="http://www.w3.org/2000/svg">
<path d="M7.25 17C7.25 17.4142 7.58579 17.75 8 17.75C8.41421 17.75 8.75 17.4142 8.75 17H7.25ZM8 16H7.25H8ZM16 16H15.25H16ZM15.25 17C15.25 17.4142 15.5858 17.75 16 17.75C16.4142 17.75 16.75 17.4142 16.75 17H15.25ZM12 12V12.75V12ZM21.75 9C21.75 8.58579 21.4142 8.25 21 8.25C20.5858 8.25 20.25 8.58579 20.25 9H21.75ZM3.75 9C3.75 8.58579 3.41421 8.25 3 8.25C2.58579 8.25 2.25 8.58579 2.25 9H3.75ZM8.75 17V16H7.25V17H8.75ZM15.25 16V17H16.75V16H15.25ZM12 12.75C13.7949 12.75 15.25 14.2051 15.25 16H16.75C16.75 13.3766 14.6234 11.25 12 11.25V12.75ZM8.75 16C8.75 14.2051 10.2051 12.75 12 12.75V11.25C9.37665 11.25 7.25 13.3766 7.25 16H8.75ZM20.25 9C20.25 13.5563 16.5563 17.25 12 17.25V18.75C17.3848 18.75 21.75 14.3848 21.75 9H20.25ZM12 17.25C7.44365 17.25 3.75 13.5563 3.75 9H2.25C2.25 14.3848 6.61522 18.75 12 18.75V17.25ZM3.5 6.75H20.5V5.25H3.5V6.75ZM20.5 8.25H3.5V9.75H20.5V8.25ZM3.5 8.25C3.08579 8.25 2.75 7.91421 2.75 7.5H1.25C1.25 8.74264 2.25736 9.75 3.5 9.75V8.25ZM21.25 7.5C21.25 7.91421 20.9142 8.25 20.5 8.25V9.75C21.7426 9.75 22.75 8.74264 22.75 7.5H21.25ZM20.5 6.75C20.9142 6.75 21.25 7.08579 21.25 7.5H22.75C22.75 6.25736 21.7426 5.25 20.5 5.25V6.75ZM3.5 5.25C2.25736 5.25 1.25 6.25736 1.25 7.5H2.75C2.75 7.08579 3.08579 6.75 3.5 6.75V5.25Z" fill="#28303F"/>
<circle r="1" transform="matrix(1 0 0 -1 12 15)" fill="#28303F"/>
</svg>
