<svg width="24" height="24" viewBox="0 0 24 24" fill="none" xmlns="http://www.w3.org/2000/svg">
<path d="M20 19.25C20.4142 19.25 20.75 18.9142 20.75 18.5C20.75 18.0858 20.4142 17.75 20 17.75V19.25ZM4 17.75C3.58579 17.75 3.25 18.0858 3.25 18.5C3.25 18.9142 3.58579 19.25 4 19.25V17.75ZM11.25 22C11.25 22.4142 11.5858 22.75 12 22.75C12.4142 22.75 12.75 22.4142 12.75 22H11.25ZM17.25 8C17.25 10.8995 14.8995 13.25 12 13.25V14.75C15.7279 14.75 18.75 11.7279 18.75 8H17.25ZM12 13.25C9.1005 13.25 6.75 10.8995 6.75 8H5.25C5.25 11.7279 8.27208 14.75 12 14.75V13.25ZM6.75 8C6.75 5.10051 9.1005 2.75 12 2.75V1.25C8.27208 1.25 5.25 4.27208 5.25 8H6.75ZM12 2.75C14.8995 2.75 17.25 5.10051 17.25 8H18.75C18.75 4.27208 15.7279 1.25 12 1.25V2.75ZM13.25 8C13.25 9.59868 13.0329 11.0149 12.7027 12.0055C12.5363 12.5047 12.3547 12.8546 12.1894 13.0643C12.0175 13.2824 11.9478 13.25 12 13.25V14.75C12.6044 14.75 13.0609 14.3818 13.3675 13.9927C13.6809 13.5952 13.9302 13.0664 14.1257 12.4798C14.5194 11.2988 14.75 9.71503 14.75 8H13.25ZM12 13.25C12.0522 13.25 11.9825 13.2824 11.8106 13.0643C11.6453 12.8546 11.4637 12.5047 11.2973 12.0055C10.9671 11.0149 10.75 9.59868 10.75 8H9.25C9.25 9.71503 9.48061 11.2988 9.87427 12.4798C10.0698 13.0664 10.3191 13.5952 10.6325 13.9927C10.9391 14.3818 11.3956 14.75 12 14.75V13.25ZM10.75 8C10.75 6.40132 10.9671 4.98512 11.2973 3.99453C11.4637 3.49531 11.6453 3.14542 11.8106 2.93574C11.9825 2.7176 12.0522 2.75 12 2.75V1.25C11.3956 1.25 10.9391 1.61818 10.6325 2.00728C10.3191 2.40483 10.0698 2.93362 9.87427 3.52019C9.48061 4.70117 9.25 6.28497 9.25 8H10.75ZM12 2.75C11.9478 2.75 12.0175 2.7176 12.1894 2.93574C12.3547 3.14542 12.5363 3.49531 12.7027 3.99453C13.0329 4.98512 13.25 6.40132 13.25 8H14.75C14.75 6.28497 14.5194 4.70117 14.1257 3.52019C13.9302 2.93362 13.6809 2.40483 13.3675 2.00728C13.0609 1.61818 12.6044 1.25 12 1.25V2.75ZM14.25 18.5C14.25 17.2574 13.2426 16.25 12 16.25V17.75C12.4142 17.75 12.75 18.0858 12.75 18.5H14.25ZM12 16.25C10.7574 16.25 9.75 17.2574 9.75 18.5H11.25C11.25 18.0858 11.5858 17.75 12 17.75V16.25ZM9.75 18.5C9.75 19.7426 10.7574 20.75 12 20.75V19.25C11.5858 19.25 11.25 18.9142 11.25 18.5H9.75ZM12 20.75C13.2426 20.75 14.25 19.7426 14.25 18.5H12.75C12.75 18.9142 12.4142 19.25 12 19.25V20.75ZM12.75 17V14H11.25V17H12.75ZM13.5 19.25H20V17.75H13.5V19.25ZM4 19.25H10.5V17.75H4V19.25ZM12.75 22V20H11.25V22H12.75ZM6 8.75H18V7.25H6V8.75Z" fill="#28303F"/>
</svg>
