<svg width="24" height="24" viewBox="0 0 24 24" fill="none" xmlns="http://www.w3.org/2000/svg">
<path d="M15.7123 4.28769C16.0052 4.58058 16.4801 4.58058 16.773 4.28769C17.0659 3.9948 17.0659 3.51992 16.773 3.22703L15.7123 4.28769ZM9.34835 5.34835C9.05546 5.64124 9.05546 6.11612 9.34835 6.40901C9.64124 6.7019 10.1161 6.7019 10.409 6.40901L9.34835 5.34835ZM7.22703 3.22703C6.93414 3.51992 6.93414 3.9948 7.22703 4.28769C7.51992 4.58058 7.9948 4.58058 8.28769 4.28769L7.22703 3.22703ZM13.591 6.40901C13.8839 6.7019 14.3588 6.7019 14.6516 6.40901C14.9445 6.11612 14.9445 5.64124 14.6516 5.34835L13.591 6.40901ZM6 12H5.25H6ZM10 8V7.25V8ZM10 22V22.75V22ZM6 18H6.75H6ZM18 18H17.25H18ZM14 22V21.25V22ZM18 12H18.75H18ZM14 8V8.75V8ZM9.75 13.5C9.75 13.0858 9.41421 12.75 9 12.75C8.58579 12.75 8.25 13.0858 8.25 13.5H9.75ZM8.25 16.5C8.25 16.9142 8.58579 17.25 9 17.25C9.41421 17.25 9.75 16.9142 9.75 16.5H8.25ZM12 2.75C13.45 2.75 14.7614 3.33681 15.7123 4.28769L16.773 3.22703C15.5523 2.00634 13.8638 1.25 12 1.25V2.75ZM10.409 6.40901C10.817 6.00102 11.3785 5.75 12 5.75V4.25C10.9647 4.25 10.0261 4.67055 9.34835 5.34835L10.409 6.40901ZM8.28769 4.28769C9.23857 3.3368 10.55 2.75 12 2.75V1.25C10.1362 1.25 8.44772 2.00634 7.22703 3.22703L8.28769 4.28769ZM12 5.75C12.6215 5.75 13.183 6.00102 13.591 6.40901L14.6516 5.34835C13.9739 4.67055 13.0353 4.25 12 4.25V5.75ZM17.25 12L17.25 18H18.75L18.75 12H17.25ZM14 21.25H10V22.75H14V21.25ZM6.75 18L6.75 12H5.25L5.25 18H6.75ZM10 8.75L14 8.75V7.25L10 7.25V8.75ZM6.75 12C6.75 10.2051 8.20508 8.75 10 8.75V7.25C7.37665 7.25 5.25 9.37665 5.25 12H6.75ZM10 21.25C8.20507 21.25 6.75 19.7949 6.75 18H5.25C5.25 20.6234 7.37665 22.75 10 22.75V21.25ZM17.25 18C17.25 19.7949 15.7949 21.25 14 21.25V22.75C16.6234 22.75 18.75 20.6234 18.75 18H17.25ZM18.75 12C18.75 9.37665 16.6234 7.25 14 7.25V8.75C15.7949 8.75 17.25 10.2051 17.25 12H18.75ZM8.25 13.5V16.5H9.75V13.5H8.25Z" fill="#28303F"/>
</svg>
