<svg width="24" height="24" viewBox="0 0 24 24" fill="none" xmlns="http://www.w3.org/2000/svg">
<path d="M4.91227 13.1013L4.35722 13.6057L4.91227 13.1013ZM4.91227 10.8987L4.35722 10.3943L4.91227 10.8987ZM19.0877 13.1013L19.6428 13.6057L19.0877 13.1013ZM19.0877 10.8987L19.6428 10.3943L19.0877 10.8987ZM1.25 8C1.25 8.41421 1.58579 8.75 2 8.75C2.41421 8.75 2.75 8.41421 2.75 8H1.25ZM8 2.75C8.41421 2.75 8.75 2.41421 8.75 2C8.75 1.58579 8.41421 1.25 8 1.25V2.75ZM16 1.25C15.5858 1.25 15.25 1.58579 15.25 2C15.25 2.41421 15.5858 2.75 16 2.75V1.25ZM21.25 8C21.25 8.41421 21.5858 8.75 22 8.75C22.4142 8.75 22.75 8.41421 22.75 8H21.25ZM22.75 16C22.75 15.5858 22.4142 15.25 22 15.25C21.5858 15.25 21.25 15.5858 21.25 16H22.75ZM16 21.25C15.5858 21.25 15.25 21.5858 15.25 22C15.25 22.4142 15.5858 22.75 16 22.75V21.25ZM8 22.75C8.41421 22.75 8.75 22.4142 8.75 22C8.75 21.5858 8.41421 21.25 8 21.25V22.75ZM2.75 16.5556C2.75 16.1413 2.41421 15.8056 2 15.8056C1.58579 15.8056 1.25 16.1413 1.25 16.5556H2.75ZM18.5327 12.5969C17.8889 13.3054 16.9353 14.2301 15.7885 14.9734C14.6382 15.7188 13.3429 16.25 12 16.25V17.75C13.735 17.75 15.3146 17.0679 16.6043 16.2321C17.8973 15.3941 18.9487 14.3695 19.6428 13.6057L18.5327 12.5969ZM12 16.25C10.6571 16.25 9.36178 15.7188 8.21153 14.9734C7.0647 14.2301 6.11114 13.3054 5.46732 12.5969L4.35722 13.6057C5.0513 14.3695 6.10265 15.3941 7.39574 16.2321C8.6854 17.0679 10.265 17.75 12 17.75V16.25ZM5.46732 11.4031C6.11114 10.6946 7.0647 9.76989 8.21153 9.02664C9.36178 8.28117 10.6571 7.75 12 7.75V6.25C10.265 6.25 8.6854 6.93206 7.39574 7.76788C6.10265 8.60592 5.0513 9.63052 4.35722 10.3943L5.46732 11.4031ZM12 7.75C13.3429 7.75 14.6382 8.28117 15.7885 9.02664C16.9353 9.76989 17.8889 10.6946 18.5327 11.4031L19.6428 10.3943C18.9487 9.63052 17.8973 8.60592 16.6043 7.76788C15.3146 6.93206 13.735 6.25 12 6.25V7.75ZM5.46732 12.5969C5.15118 12.249 5.15118 11.751 5.46732 11.4031L4.35722 10.3943C3.52121 11.3143 3.52121 12.6857 4.35722 13.6057L5.46732 12.5969ZM19.6428 13.6057C20.4788 12.6857 20.4788 11.3143 19.6428 10.3943L18.5327 11.4031C18.8488 11.751 18.8488 12.249 18.5327 12.5969L19.6428 13.6057ZM13.25 12C13.25 12.6904 12.6904 13.25 12 13.25V14.75C13.5188 14.75 14.75 13.5188 14.75 12H13.25ZM12 13.25C11.3096 13.25 10.75 12.6904 10.75 12H9.25C9.25 13.5188 10.4812 14.75 12 14.75V13.25ZM10.75 12C10.75 11.3096 11.3096 10.75 12 10.75V9.25C10.4812 9.25 9.25 10.4812 9.25 12H10.75ZM12 10.75C12.6904 10.75 13.25 11.3096 13.25 12H14.75C14.75 10.4812 13.5188 9.25 12 9.25V10.75ZM2.75 8V6H1.25V8H2.75ZM6 2.75H8V1.25H6V2.75ZM16 2.75H18V1.25H16V2.75ZM21.25 6V8H22.75V6H21.25ZM21.25 16V18H22.75V16H21.25ZM18 21.25H16V22.75H18V21.25ZM8 21.25H6V22.75H8V21.25ZM2.75 18V16.5556H1.25V18H2.75ZM6 21.25C4.20507 21.25 2.75 19.7949 2.75 18H1.25C1.25 20.6234 3.37665 22.75 6 22.75V21.25ZM21.25 18C21.25 19.7949 19.7949 21.25 18 21.25V22.75C20.6234 22.75 22.75 20.6234 22.75 18H21.25ZM18 2.75C19.7949 2.75 21.25 4.20507 21.25 6H22.75C22.75 3.37665 20.6234 1.25 18 1.25V2.75ZM2.75 6C2.75 4.20507 4.20507 2.75 6 2.75V1.25C3.37665 1.25 1.25 3.37665 1.25 6H2.75Z" fill="#28303F"/>
</svg>
