<svg width="24" height="24" viewBox="0 0 24 24" fill="none" xmlns="http://www.w3.org/2000/svg">
<path d="M1.25 8C1.25 8.41421 1.58579 8.75 2 8.75C2.41421 8.75 2.75 8.41421 2.75 8H1.25ZM8 2.75C8.41421 2.75 8.75 2.41421 8.75 2C8.75 1.58579 8.41421 1.25 8 1.25V2.75ZM16 1.25C15.5858 1.25 15.25 1.58579 15.25 2C15.25 2.41421 15.5858 2.75 16 2.75V1.25ZM21.25 8C21.25 8.41421 21.5858 8.75 22 8.75C22.4142 8.75 22.75 8.41421 22.75 8H21.25ZM22.75 16C22.75 15.5858 22.4142 15.25 22 15.25C21.5858 15.25 21.25 15.5858 21.25 16H22.75ZM16 21.25C15.5858 21.25 15.25 21.5858 15.25 22C15.25 22.4142 15.5858 22.75 16 22.75V21.25ZM8 22.75C8.41421 22.75 8.75 22.4142 8.75 22C8.75 21.5858 8.41421 21.25 8 21.25V22.75ZM2.75 16C2.75 15.5858 2.41421 15.25 2 15.25C1.58579 15.25 1.25 15.5858 1.25 16H2.75ZM13.75 10C13.75 9.58579 13.4142 9.25 13 9.25C12.5858 9.25 12.25 9.58579 12.25 10H13.75ZM12.25 13C12.25 13.4142 12.5858 13.75 13 13.75C13.4142 13.75 13.75 13.4142 13.75 13H12.25ZM7.46967 16.4697C7.17678 16.7626 7.17678 17.2374 7.46967 17.5303C7.76256 17.8232 8.23744 17.8232 8.53033 17.5303L7.46967 16.4697ZM8.34315 16.6569L7.81282 16.1265L7.81282 16.1265L8.34315 16.6569ZM13.4697 16.4697C13.1768 16.7626 13.1768 17.2374 13.4697 17.5303C13.7626 17.8232 14.2374 17.8232 14.5303 17.5303L13.4697 16.4697ZM2.75 8V6H1.25V8H2.75ZM6 2.75H8V1.25H6V2.75ZM16 2.75H18V1.25H16V2.75ZM21.25 6V8H22.75V6H21.25ZM21.25 16V18H22.75V16H21.25ZM18 21.25H16V22.75H18V21.25ZM8 21.25H6V22.75H8V21.25ZM2.75 18V16H1.25V18H2.75ZM6 21.25C4.20507 21.25 2.75 19.7949 2.75 18H1.25C1.25 20.6234 3.37665 22.75 6 22.75V21.25ZM21.25 18C21.25 19.7949 19.7949 21.25 18 21.25V22.75C20.6234 22.75 22.75 20.6234 22.75 18H21.25ZM18 2.75C19.7949 2.75 21.25 4.20507 21.25 6H22.75C22.75 3.37665 20.6234 1.25 18 1.25V2.75ZM2.75 6C2.75 4.20507 4.20507 2.75 6 2.75V1.25C3.37665 1.25 1.25 3.37665 1.25 6H2.75ZM12.25 10V13H13.75V10H12.25ZM8.53033 17.5303L8.87348 17.1872L7.81282 16.1265L7.46967 16.4697L8.53033 17.5303ZM10.75 12.6569V10H9.25V12.6569H10.75ZM15.25 10V12.6569H16.75V10H15.25ZM13.8128 16.1265L13.4697 16.4697L14.5303 17.5303L14.8735 17.1872L13.8128 16.1265ZM15.25 12.6569C15.25 13.9582 14.733 15.2063 13.8128 16.1265L14.8735 17.1872C16.075 15.9857 16.75 14.3561 16.75 12.6569H15.25ZM13 7.75C14.2426 7.75 15.25 8.75736 15.25 10H16.75C16.75 7.92893 15.0711 6.25 13 6.25V7.75ZM10.75 10C10.75 8.75736 11.7574 7.75 13 7.75V6.25C10.9289 6.25 9.25 7.92893 9.25 10H10.75ZM8.87348 17.1872C10.075 15.9857 10.75 14.3561 10.75 12.6569H9.25C9.25 13.9582 8.73303 15.2063 7.81282 16.1265L8.87348 17.1872Z" fill="#28303F"/>
</svg>
