<svg width="24" height="24" viewBox="0 0 24 24" fill="none" xmlns="http://www.w3.org/2000/svg">
<path d="M15.7123 7.04501C16.0052 7.33791 16.4801 7.33791 16.773 7.04501C17.0659 6.75212 17.0659 6.27725 16.773 5.98435L15.7123 7.04501ZM9.34835 8.10567C9.05546 8.39857 9.05546 8.87344 9.34835 9.16633C9.64124 9.45923 10.1161 9.45923 10.409 9.16633L9.34835 8.10567ZM7.22703 5.98435C6.93414 6.27725 6.93414 6.75212 7.22703 7.04501C7.51992 7.33791 7.9948 7.33791 8.28769 7.04501L7.22703 5.98435ZM13.591 9.16633C13.8839 9.45923 14.3588 9.45923 14.6516 9.16633C14.9445 8.87344 14.9445 8.39857 14.6516 8.10567L13.591 9.16633ZM5 14H5.75H5ZM7 12V11.25V12ZM7 18V18.75V18ZM5 16H4.25H5ZM19 16H19.75H19ZM17 18V17.25V18ZM19 14H18.25H19ZM17 12V11.25V12ZM12 14H11.25H12ZM14 12V12.75V12ZM14 18V18.75V18ZM12 16H12.75H12ZM12 5.50732C13.45 5.50732 14.7614 6.09413 15.7123 7.04501L16.773 5.98435C15.5523 4.76366 13.8638 4.00732 12 4.00732V5.50732ZM10.409 9.16633C10.817 8.75834 11.3785 8.50732 12 8.50732V7.00732C10.9647 7.00732 10.0261 7.42788 9.34835 8.10567L10.409 9.16633ZM8.28769 7.04501C9.23857 6.09413 10.55 5.50732 12 5.50732V4.00732C10.1362 4.00732 8.44772 4.76366 7.22703 5.98435L8.28769 7.04501ZM12 8.50732C12.6215 8.50732 13.183 8.75834 13.591 9.16633L14.6516 8.10567C13.9739 7.42788 13.0353 7.00732 12 7.00732V8.50732ZM18.25 14V16H19.75V14H18.25ZM17 17.25H7V18.75H17V17.25ZM5.75 16L5.75 14H4.25L4.25 16H5.75ZM7 12.75L17 12.75V11.25L7 11.25V12.75ZM5.75 14C5.75 13.3096 6.30964 12.75 7 12.75V11.25C5.48122 11.25 4.25 12.4812 4.25 14H5.75ZM7 17.25C6.30964 17.25 5.75 16.6903 5.75 16H4.25C4.25 17.5187 5.48122 18.75 7 18.75V17.25ZM18.25 16C18.25 16.6903 17.6904 17.25 17 17.25V18.75C18.5188 18.75 19.75 17.5187 19.75 16H18.25ZM19.75 14C19.75 12.4812 18.5188 11.25 17 11.25V12.75C17.6904 12.75 18.25 13.3096 18.25 14H19.75ZM17 17.25H14V18.75H17V17.25ZM12.75 16V14H11.25V16H12.75ZM14 12.75H17V11.25H14V12.75ZM12.75 14C12.75 13.3096 13.3096 12.75 14 12.75V11.25C12.4812 11.25 11.25 12.4812 11.25 14H12.75ZM14 17.25C13.3096 17.25 12.75 16.6903 12.75 16H11.25C11.25 17.5187 12.4812 18.75 14 18.75V17.25Z" fill="#28303F"/>
</svg>
