<svg width="24" height="24" viewBox="0 0 24 24" fill="none" xmlns="http://www.w3.org/2000/svg">
<path d="M4.46986 7.02652L3.99311 6.44755H3.99311L4.46986 7.02652ZM9.46986 2.90935L8.99311 2.33037V2.33037L9.46986 2.90935ZM14.5301 2.90935L14.0534 3.48832L14.5301 2.90935ZM19.5301 7.02652L19.0534 7.6055V7.6055L19.5301 7.02652ZM20.25 10.1503V17.9668H21.75V10.1503H20.25ZM17 21.25H7V22.75H17V21.25ZM3.75 17.9668V10.1503H2.25V17.9668H3.75ZM4.94661 7.6055L9.94661 3.48832L8.99311 2.33037L3.99311 6.44755L4.94661 7.6055ZM14.0534 3.48832L19.0534 7.6055L20.0069 6.44755L15.0069 2.33037L14.0534 3.48832ZM9.94661 3.48832C11.1421 2.50389 12.8579 2.50389 14.0534 3.48832L15.0069 2.33037C13.2575 0.889874 10.7425 0.889878 8.99311 2.33037L9.94661 3.48832ZM7 21.25C5.2109 21.25 3.75 19.7859 3.75 17.9668H2.25C2.25 20.6027 4.37082 22.75 7 22.75V21.25ZM20.25 17.9668C20.25 19.7859 18.7891 21.25 17 21.25V22.75C19.6292 22.75 21.75 20.6027 21.75 17.9668H20.25ZM21.75 10.1503C21.75 8.71654 21.1111 7.35681 20.0069 6.44755L19.0534 7.6055C19.8096 8.22818 20.25 9.16221 20.25 10.1503H21.75ZM3.75 10.1503C3.75 9.16221 4.1904 8.22819 4.94661 7.6055L3.99311 6.44755C2.88889 7.35681 2.25 8.71654 2.25 10.1503H3.75ZM10 12.75H14V11.25H10V12.75ZM15.25 14V16H16.75V14H15.25ZM14 17.25H10V18.75H14V17.25ZM8.75 16V14H7.25V16H8.75ZM10 17.25C9.30964 17.25 8.75 16.6904 8.75 16H7.25C7.25 17.5188 8.48122 18.75 10 18.75V17.25ZM15.25 16C15.25 16.6904 14.6904 17.25 14 17.25V18.75C15.5188 18.75 16.75 17.5188 16.75 16H15.25ZM14 12.75C14.6904 12.75 15.25 13.3096 15.25 14H16.75C16.75 12.4812 15.5188 11.25 14 11.25V12.75ZM10 11.25C8.48122 11.25 7.25 12.4812 7.25 14H8.75C8.75 13.3096 9.30964 12.75 10 12.75V11.25ZM10.75 12V11H9.25V12H10.75ZM13.25 11V12H14.75V11H13.25ZM12 9.75C12.6904 9.75 13.25 10.3096 13.25 11H14.75C14.75 9.48122 13.5188 8.25 12 8.25V9.75ZM10.75 11C10.75 10.3096 11.3096 9.75 12 9.75V8.25C10.4812 8.25 9.25 9.48122 9.25 11H10.75Z" fill="#28303F"/>
</svg>
