<svg width="24" height="24" viewBox="0 0 24 24" fill="none" xmlns="http://www.w3.org/2000/svg">
<path d="M4.46986 7.02652L3.99311 6.44755H3.99311L4.46986 7.02652ZM9.46986 2.90935L8.99311 2.33037V2.33037L9.46986 2.90935ZM14.5301 2.90935L14.0534 3.48832L14.5301 2.90935ZM19.5301 7.02652L19.0534 7.6055V7.6055L19.5301 7.02652ZM6.32918 16.6646C6.14394 17.0351 6.29411 17.4856 6.66459 17.6708C7.03507 17.8561 7.48558 17.7059 7.67082 17.3354L6.32918 16.6646ZM9.10557 12.7889L9.77639 13.1243L9.10557 12.7889ZM10.8944 12.7889L10.2236 13.1243L10.8944 12.7889ZM12.1056 15.2111L12.7764 14.8757L12.1056 15.2111ZM13.8944 15.2111L13.2236 14.8757L13.8944 15.2111ZM16 11L16.6708 10.6646C16.5438 10.4105 16.2841 10.25 16 10.25V11ZM16.3292 13.3354C16.5144 13.7059 16.9649 13.8561 17.3354 13.6708C17.7059 13.4856 17.8561 13.0351 17.6708 12.6646L16.3292 13.3354ZM14 10.25C13.5858 10.25 13.25 10.5858 13.25 11C13.25 11.4142 13.5858 11.75 14 11.75V10.25ZM20.25 10.1503V17.9668H21.75V10.1503H20.25ZM17 21.25H7V22.75H17V21.25ZM3.75 17.9668V10.1503H2.25V17.9668H3.75ZM4.94661 7.6055L9.94661 3.48832L8.99311 2.33037L3.99311 6.44755L4.94661 7.6055ZM14.0534 3.48832L19.0534 7.6055L20.0069 6.44755L15.0069 2.33037L14.0534 3.48832ZM9.94661 3.48832C11.1421 2.50389 12.8579 2.50389 14.0534 3.48832L15.0069 2.33037C13.2575 0.889874 10.7425 0.889878 8.99311 2.33037L9.94661 3.48832ZM7 21.25C5.2109 21.25 3.75 19.7859 3.75 17.9668H2.25C2.25 20.6027 4.37082 22.75 7 22.75V21.25ZM20.25 17.9668C20.25 19.7859 18.7891 21.25 17 21.25V22.75C19.6292 22.75 21.75 20.6027 21.75 17.9668H20.25ZM21.75 10.1503C21.75 8.71654 21.1111 7.35681 20.0069 6.44755L19.0534 7.6055C19.8096 8.22818 20.25 9.16221 20.25 10.1503H21.75ZM3.75 10.1503C3.75 9.16221 4.1904 8.22819 4.94661 7.6055L3.99311 6.44755C2.88889 7.35681 2.25 8.71654 2.25 10.1503H3.75ZM7.67082 17.3354L9.77639 13.1243L8.43475 12.4534L6.32918 16.6646L7.67082 17.3354ZM10.2236 13.1243L11.4348 15.5466L12.7764 14.8757L11.5652 12.4534L10.2236 13.1243ZM14.5652 15.5466L16.6708 11.3354L15.3292 10.6646L13.2236 14.8757L14.5652 15.5466ZM15.3292 11.3354L16.3292 13.3354L17.6708 12.6646L16.6708 10.6646L15.3292 11.3354ZM16 10.25H14V11.75H16V10.25ZM11.4348 15.5466C12.0797 16.8364 13.9203 16.8364 14.5652 15.5466L13.2236 14.8757C13.1315 15.06 12.8685 15.06 12.7764 14.8757L11.4348 15.5466ZM9.77639 13.1243C9.86852 12.94 10.1315 12.94 10.2236 13.1243L11.5652 12.4534C10.9203 11.1636 9.07967 11.1636 8.43475 12.4534L9.77639 13.1243Z" fill="#28303F"/>
</svg>
