<svg width="24" height="24" viewBox="0 0 24 24" fill="none" xmlns="http://www.w3.org/2000/svg">
<path d="M4.46986 7.02652L3.99311 6.44755H3.99311L4.46986 7.02652ZM9.46986 2.90935L8.99311 2.33037V2.33037L9.46986 2.90935ZM14.5301 2.90935L14.0534 3.48832L14.5301 2.90935ZM19.5301 7.02652L19.0534 7.6055V7.6055L19.5301 7.02652ZM8 10.25C7.58579 10.25 7.25 10.5858 7.25 11C7.25 11.4142 7.58579 11.75 8 11.75V10.25ZM10 11.75C10.4142 11.75 10.75 11.4142 10.75 11C10.75 10.5858 10.4142 10.25 10 10.25V11.75ZM12 10.25C11.5858 10.25 11.25 10.5858 11.25 11C11.25 11.4142 11.5858 11.75 12 11.75V10.25ZM16 11.75C16.4142 11.75 16.75 11.4142 16.75 11C16.75 10.5858 16.4142 10.25 16 10.25V11.75ZM14 15.25C13.5858 15.25 13.25 15.5858 13.25 16C13.25 16.4142 13.5858 16.75 14 16.75V15.25ZM16 16.75C16.4142 16.75 16.75 16.4142 16.75 16C16.75 15.5858 16.4142 15.25 16 15.25V16.75ZM8 15.25C7.58579 15.25 7.25 15.5858 7.25 16C7.25 16.4142 7.58579 16.75 8 16.75V15.25ZM12 16.75C12.4142 16.75 12.75 16.4142 12.75 16C12.75 15.5858 12.4142 15.25 12 15.25V16.75ZM10.75 10C10.75 9.58579 10.4142 9.25 10 9.25C9.58579 9.25 9.25 9.58579 9.25 10H10.75ZM9.25 12C9.25 12.4142 9.58579 12.75 10 12.75C10.4142 12.75 10.75 12.4142 10.75 12H9.25ZM14.75 15C14.75 14.5858 14.4142 14.25 14 14.25C13.5858 14.25 13.25 14.5858 13.25 15H14.75ZM13.25 17C13.25 17.4142 13.5858 17.75 14 17.75C14.4142 17.75 14.75 17.4142 14.75 17H13.25ZM20.25 10.1503V17.9668H21.75V10.1503H20.25ZM17 21.25H7V22.75H17V21.25ZM3.75 17.9668V10.1503H2.25V17.9668H3.75ZM4.94661 7.6055L9.94661 3.48832L8.99311 2.33037L3.99311 6.44755L4.94661 7.6055ZM14.0534 3.48832L19.0534 7.6055L20.0069 6.44755L15.0069 2.33037L14.0534 3.48832ZM9.94661 3.48832C11.1421 2.50389 12.8579 2.50389 14.0534 3.48832L15.0069 2.33037C13.2575 0.889874 10.7425 0.889878 8.99311 2.33037L9.94661 3.48832ZM7 21.25C5.2109 21.25 3.75 19.7859 3.75 17.9668H2.25C2.25 20.6027 4.37082 22.75 7 22.75V21.25ZM20.25 17.9668C20.25 19.7859 18.7891 21.25 17 21.25V22.75C19.6292 22.75 21.75 20.6027 21.75 17.9668H20.25ZM21.75 10.1503C21.75 8.71654 21.1111 7.35681 20.0069 6.44755L19.0534 7.6055C19.8096 8.22818 20.25 9.16221 20.25 10.1503H21.75ZM3.75 10.1503C3.75 9.16221 4.1904 8.22819 4.94661 7.6055L3.99311 6.44755C2.88889 7.35681 2.25 8.71654 2.25 10.1503H3.75ZM8 11.75H10V10.25H8V11.75ZM12 11.75H16V10.25H12V11.75ZM14 16.75H16V15.25H14V16.75ZM8 16.75H12V15.25H8V16.75ZM9.25 10V12H10.75V10H9.25ZM13.25 15V17H14.75V15H13.25Z" fill="#28303F"/>
</svg>
