<svg width="24" height="24" viewBox="0 0 24 24" fill="none" xmlns="http://www.w3.org/2000/svg">
<path d="M3.15251 7.19692L3.58013 7.81306H3.58013L3.15251 7.19692ZM9.54124 2.763L9.11361 2.14685V2.14685L9.54124 2.763ZM14.4588 2.763L14.8864 2.14685V2.14685L14.4588 2.763ZM20.8475 7.19691L20.4199 7.81306L20.8475 7.19691ZM2.81969 11.2448L2.30191 11.7874L2.30191 11.7874L2.81969 11.2448ZM21.1803 11.2448L20.6625 10.7022V10.7022L21.1803 11.2448ZM6.32918 16.6646C6.14394 17.0351 6.29411 17.4856 6.66459 17.6708C7.03507 17.8561 7.48558 17.7059 7.67082 17.3354L6.32918 16.6646ZM9.10557 12.7889L9.77639 13.1243L9.10557 12.7889ZM10.8944 12.7889L10.2236 13.1243L10.8944 12.7889ZM12.1056 15.2111L12.7764 14.8757L12.1056 15.2111ZM13.8944 15.2111L13.2236 14.8757L13.8944 15.2111ZM16 11L16.6708 10.6646C16.5438 10.4105 16.2841 10.25 16 10.25V11ZM16.3292 13.3354C16.5144 13.7059 16.9649 13.8561 17.3354 13.6708C17.7059 13.4856 17.8561 13.0351 17.6708 12.6646L16.3292 13.3354ZM14 10.25C13.5858 10.25 13.25 10.5858 13.25 11C13.25 11.4142 13.5858 11.75 14 11.75V10.25ZM16.1804 21.25H7.81965V22.75H16.1804V21.25ZM3.58013 7.81306L9.96886 3.37914L9.11361 2.14685L2.72488 6.58077L3.58013 7.81306ZM14.0311 3.37914L20.4199 7.81306L21.2751 6.58077L14.8864 2.14685L14.0311 3.37914ZM19.6107 13.133V18.0108H21.1107V13.133H19.6107ZM4.3893 18.0108V13.133H2.8893V18.0108H4.3893ZM4.3893 13.133C4.3893 12.2143 4.00651 11.3407 3.33747 10.7022L2.30191 11.7874C2.68244 12.1505 2.8893 12.6354 2.8893 13.133H4.3893ZM20.6625 10.7022C19.9935 11.3407 19.6107 12.2143 19.6107 13.133H21.1107C21.1107 12.6354 21.3176 12.1505 21.6981 11.7874L20.6625 10.7022ZM9.96886 3.37914C11.1775 2.54029 12.8224 2.54029 14.0311 3.37914L14.8864 2.14685C13.1634 0.951051 10.8366 0.951051 9.11361 2.14685L9.96886 3.37914ZM7.81965 21.25C5.89166 21.25 4.3893 19.7671 4.3893 18.0108H2.8893C2.8893 20.6609 5.13015 22.75 7.81965 22.75V21.25ZM16.1804 22.75C18.8698 22.75 21.1107 20.6609 21.1107 18.0108H19.6107C19.6107 19.7671 18.1083 21.25 16.1804 21.25V22.75ZM20.4199 7.81306C21.4262 8.51149 21.53 9.87443 20.6625 10.7022L21.6981 11.7874C23.2624 10.2946 23.05 7.8126 21.2751 6.58077L20.4199 7.81306ZM2.72488 6.58077C0.949956 7.8126 0.737579 10.2946 2.30191 11.7874L3.33747 10.7022C2.47003 9.87443 2.57378 8.51149 3.58013 7.81306L2.72488 6.58077ZM7.67082 17.3354L9.77639 13.1243L8.43475 12.4534L6.32918 16.6646L7.67082 17.3354ZM10.2236 13.1243L11.4348 15.5466L12.7764 14.8757L11.5652 12.4534L10.2236 13.1243ZM14.5652 15.5466L16.6708 11.3354L15.3292 10.6646L13.2236 14.8757L14.5652 15.5466ZM15.3292 11.3354L16.3292 13.3354L17.6708 12.6646L16.6708 10.6646L15.3292 11.3354ZM16 10.25H14V11.75H16V10.25ZM11.4348 15.5466C12.0797 16.8364 13.9203 16.8364 14.5652 15.5466L13.2236 14.8757C13.1315 15.06 12.8685 15.06 12.7764 14.8757L11.4348 15.5466ZM9.77639 13.1243C9.86852 12.94 10.1315 12.94 10.2236 13.1243L11.5652 12.4534C10.9203 11.1636 9.07967 11.1636 8.43475 12.4534L9.77639 13.1243Z" fill="#28303F"/>
</svg>
