<svg width="24" height="24" viewBox="0 0 24 24" fill="none" xmlns="http://www.w3.org/2000/svg">
<path d="M4.46986 7.02652L3.99311 6.44755H3.99311L4.46986 7.02652ZM9.46986 2.90935L8.99311 2.33037V2.33037L9.46986 2.90935ZM14.5301 2.90935L14.0534 3.48832L14.5301 2.90935ZM19.5301 7.02652L19.0534 7.6055V7.6055L19.5301 7.02652ZM15.5356 12.2929L15.0052 11.7626H15.0052L15.5356 12.2929ZM14.6517 12.1162C14.3588 12.4091 14.3588 12.8839 14.6517 13.1768C14.9446 13.4697 15.4194 13.4697 15.7123 13.1768L14.6517 12.1162ZM10.7626 14.2375C11.0555 14.5304 11.5303 14.5304 11.8232 14.2375C12.1161 13.9446 12.1161 13.4697 11.8232 13.1768L10.7626 14.2375ZM8.46445 13.7071L8.99478 14.2374H8.99478L8.46445 13.7071ZM9.34833 13.8838C9.64123 13.5909 9.64122 13.1161 9.34833 12.8232C9.05544 12.5303 8.58056 12.5303 8.28767 12.8232L9.34833 13.8838ZM13.2374 11.7625C12.9445 11.4696 12.4697 11.4696 12.1768 11.7625C11.8839 12.0554 11.8839 12.5303 12.1768 12.8232L13.2374 11.7625ZM20.25 10.1503V17.9668H21.75V10.1503H20.25ZM17 21.25H7V22.75H17V21.25ZM3.75 17.9668V10.1503H2.25V17.9668H3.75ZM4.94661 7.6055L9.94661 3.48832L8.99311 2.33037L3.99311 6.44755L4.94661 7.6055ZM14.0534 3.48832L19.0534 7.6055L20.0069 6.44755L15.0069 2.33037L14.0534 3.48832ZM9.94661 3.48832C11.1421 2.50389 12.8579 2.50389 14.0534 3.48832L15.0069 2.33037C13.2575 0.889874 10.7425 0.889878 8.99311 2.33037L9.94661 3.48832ZM7 21.25C5.2109 21.25 3.75 19.7859 3.75 17.9668H2.25C2.25 20.6027 4.37082 22.75 7 22.75V21.25ZM20.25 17.9668C20.25 19.7859 18.7891 21.25 17 21.25V22.75C19.6292 22.75 21.75 20.6027 21.75 17.9668H20.25ZM21.75 10.1503C21.75 8.71654 21.1111 7.35681 20.0069 6.44755L19.0534 7.6055C19.8096 8.22818 20.25 9.16221 20.25 10.1503H21.75ZM3.75 10.1503C3.75 9.16221 4.1904 8.22819 4.94661 7.6055L3.99311 6.44755C2.88889 7.35681 2.25 8.71654 2.25 10.1503H3.75ZM11.8232 11.409L13.2375 9.99484L12.1768 8.93418L10.7626 10.3484L11.8232 11.409ZM15.0052 11.7626L14.6517 12.1162L15.7123 13.1768L16.0659 12.8233L15.0052 11.7626ZM10.7626 10.3484C9.68864 11.4223 9.68864 13.1635 10.7626 14.2375L11.8232 13.1768C11.3351 12.6887 11.3351 11.8972 11.8232 11.409L10.7626 10.3484ZM15.0052 9.99484C15.4934 10.483 15.4934 11.2744 15.0052 11.7626L16.0659 12.8233C17.1398 11.7493 17.1398 10.0081 16.0659 8.93418L15.0052 9.99484ZM16.0659 8.93418C14.9919 7.86023 13.2507 7.86023 12.1768 8.93418L13.2375 9.99484C13.7256 9.50668 14.5171 9.50668 15.0052 9.99484L16.0659 8.93418ZM12.1768 14.591L10.7625 16.0052L11.8232 17.0658L13.2374 15.6516L12.1768 14.591ZM8.99478 14.2374L9.34833 13.8838L8.28767 12.8232L7.93412 13.1767L8.99478 14.2374ZM13.2374 15.6516C14.3114 14.5777 14.3114 12.8365 13.2374 11.7625L12.1768 12.8232C12.6649 13.3113 12.6649 14.1028 12.1768 14.591L13.2374 15.6516ZM8.99478 16.0052C8.50662 15.517 8.50662 14.7256 8.99478 14.2374L7.93412 13.1767C6.86018 14.2507 6.86018 15.9919 7.93412 17.0658L8.99478 16.0052ZM7.93412 17.0658C9.00806 18.1398 10.7493 18.1398 11.8232 17.0658L10.7625 16.0052C10.2744 16.4933 9.48293 16.4933 8.99478 16.0052L7.93412 17.0658Z" fill="#28303F"/>
</svg>
