<svg width="24" height="24" viewBox="0 0 24 24" fill="none" xmlns="http://www.w3.org/2000/svg">
<path d="M12.75 17C12.75 17.4142 12.4142 17.75 12 17.75C11.5858 17.75 11.25 17.4142 11.25 17C11.25 16.5858 11.5858 16.25 12 16.25C12.4142 16.25 12.75 16.5858 12.75 17Z" fill="#28303F"/>
<path d="M4.46986 7.02652L3.99311 6.44755H3.99311L4.46986 7.02652ZM9.46986 2.90935L8.99311 2.33037V2.33037L9.46986 2.90935ZM14.5301 2.90935L14.0534 3.48832L14.5301 2.90935ZM19.5301 7.02652L19.0534 7.6055V7.6055L19.5301 7.02652ZM15.7123 13.2877C16.0052 13.5806 16.48 13.5806 16.7729 13.2877C17.0658 12.9948 17.0658 12.5199 16.7729 12.227L15.7123 13.2877ZM9.34831 14.3483C9.05542 14.6412 9.05542 15.1161 9.34831 15.409C9.64121 15.7019 10.1161 15.7019 10.409 15.409L9.34831 14.3483ZM7.22699 12.227C6.9341 12.5199 6.9341 12.9948 7.22699 13.2877C7.51989 13.5806 7.99476 13.5806 8.28765 13.2877L7.22699 12.227ZM13.591 15.409C13.8838 15.7019 14.3587 15.7019 14.6516 15.409C14.9445 15.1161 14.9445 14.6412 14.6516 14.3483L13.591 15.409ZM20.25 10.1503V17.9668H21.75V10.1503H20.25ZM17 21.25H7V22.75H17V21.25ZM3.75 17.9668V10.1503H2.25V17.9668H3.75ZM4.94661 7.6055L9.94661 3.48832L8.99311 2.33037L3.99311 6.44755L4.94661 7.6055ZM14.0534 3.48832L19.0534 7.6055L20.0069 6.44755L15.0069 2.33037L14.0534 3.48832ZM9.94661 3.48832C11.1421 2.50389 12.8579 2.50389 14.0534 3.48832L15.0069 2.33037C13.2575 0.889874 10.7425 0.889878 8.99311 2.33037L9.94661 3.48832ZM7 21.25C5.2109 21.25 3.75 19.7859 3.75 17.9668H2.25C2.25 20.6027 4.37082 22.75 7 22.75V21.25ZM20.25 17.9668C20.25 19.7859 18.7891 21.25 17 21.25V22.75C19.6292 22.75 21.75 20.6027 21.75 17.9668H20.25ZM21.75 10.1503C21.75 8.71654 21.1111 7.35681 20.0069 6.44755L19.0534 7.6055C19.8096 8.22818 20.25 9.16221 20.25 10.1503H21.75ZM3.75 10.1503C3.75 9.16221 4.1904 8.22819 4.94661 7.6055L3.99311 6.44755C2.88889 7.35681 2.25 8.71654 2.25 10.1503H3.75ZM12 11.75C13.4499 11.75 14.7614 12.3368 15.7123 13.2877L16.7729 12.227C15.5522 11.0063 13.8637 10.25 12 10.25V11.75ZM10.409 15.409C10.817 15.001 11.3784 14.75 12 14.75V13.25C10.9646 13.25 10.0261 13.6706 9.34831 14.3483L10.409 15.409ZM8.28765 13.2877C9.23854 12.3368 10.55 11.75 12 11.75V10.25C10.1362 10.25 8.44768 11.0063 7.22699 12.227L8.28765 13.2877ZM12 14.75C12.6215 14.75 13.183 15.001 13.591 15.409L14.6516 14.3483C13.9738 13.6706 13.0353 13.25 12 13.25V14.75Z" fill="#28303F"/>
</svg>
