<svg width="24" height="24" viewBox="0 0 24 24" fill="none" xmlns="http://www.w3.org/2000/svg">
<path d="M3.15251 7.19692L3.58013 7.81306H3.58013L3.15251 7.19692ZM9.54124 2.763L9.11361 2.14685V2.14685L9.54124 2.763ZM14.4588 2.763L14.8864 2.14685V2.14685L14.4588 2.763ZM20.8475 7.19691L20.4199 7.81306L20.8475 7.19691ZM2.81969 11.2448L2.30191 11.7874L2.30191 11.7874L2.81969 11.2448ZM21.1803 11.2448L20.6625 10.7022V10.7022L21.1803 11.2448ZM7.67082 10.6646C7.48558 10.2941 7.03507 10.1439 6.66459 10.3292C6.29411 10.5144 6.14394 10.9649 6.32918 11.3354L7.67082 10.6646ZM9.10557 15.2111L9.77639 14.8757L9.10557 15.2111ZM10.8944 15.2111L10.2236 14.8757L10.8944 15.2111ZM12.1056 12.7889L12.7764 13.1243L12.1056 12.7889ZM13.8944 12.7889L13.2236 13.1243L13.8944 12.7889ZM16 17V17.75C16.2841 17.75 16.5438 17.5895 16.6708 17.3354L16 17ZM17.6708 15.3354C17.8561 14.9649 17.7059 14.5144 17.3354 14.3292C16.9649 14.1439 16.5144 14.2941 16.3292 14.6646L17.6708 15.3354ZM14 16.25C13.5858 16.25 13.25 16.5858 13.25 17C13.25 17.4142 13.5858 17.75 14 17.75V16.25ZM16.1804 21.25H7.81965V22.75H16.1804V21.25ZM3.58013 7.81306L9.96886 3.37914L9.11361 2.14685L2.72488 6.58077L3.58013 7.81306ZM14.0311 3.37914L20.4199 7.81306L21.2751 6.58077L14.8864 2.14685L14.0311 3.37914ZM19.6107 13.133V18.0108H21.1107V13.133H19.6107ZM4.3893 18.0108V13.133H2.8893V18.0108H4.3893ZM4.3893 13.133C4.3893 12.2143 4.00651 11.3407 3.33747 10.7022L2.30191 11.7874C2.68244 12.1505 2.8893 12.6354 2.8893 13.133H4.3893ZM20.6625 10.7022C19.9935 11.3407 19.6107 12.2143 19.6107 13.133H21.1107C21.1107 12.6354 21.3176 12.1505 21.6981 11.7874L20.6625 10.7022ZM9.96886 3.37914C11.1775 2.54029 12.8224 2.54029 14.0311 3.37914L14.8864 2.14685C13.1634 0.951051 10.8366 0.951051 9.11361 2.14685L9.96886 3.37914ZM7.81965 21.25C5.89166 21.25 4.3893 19.7671 4.3893 18.0108H2.8893C2.8893 20.6609 5.13015 22.75 7.81965 22.75V21.25ZM16.1804 22.75C18.8698 22.75 21.1107 20.6609 21.1107 18.0108H19.6107C19.6107 19.7671 18.1083 21.25 16.1804 21.25V22.75ZM20.4199 7.81306C21.4262 8.51149 21.53 9.87443 20.6625 10.7022L21.6981 11.7874C23.2624 10.2946 23.05 7.8126 21.2751 6.58077L20.4199 7.81306ZM2.72488 6.58077C0.949956 7.8126 0.737579 10.2946 2.30191 11.7874L3.33747 10.7022C2.47003 9.87443 2.57378 8.51149 3.58013 7.81306L2.72488 6.58077ZM6.32918 11.3354L8.43475 15.5466L9.77639 14.8757L7.67082 10.6646L6.32918 11.3354ZM11.5652 15.5466L12.7764 13.1243L11.4348 12.4534L10.2236 14.8757L11.5652 15.5466ZM13.2236 13.1243L15.3292 17.3354L16.6708 16.6646L14.5652 12.4534L13.2236 13.1243ZM16.6708 17.3354L17.6708 15.3354L16.3292 14.6646L15.3292 16.6646L16.6708 17.3354ZM16 16.25H14V17.75H16V16.25ZM12.7764 13.1243C12.8685 12.94 13.1315 12.94 13.2236 13.1243L14.5652 12.4534C13.9203 11.1636 12.0797 11.1636 11.4348 12.4534L12.7764 13.1243ZM8.43475 15.5466C9.07967 16.8364 10.9203 16.8364 11.5652 15.5466L10.2236 14.8757C10.1315 15.06 9.86852 15.06 9.77639 14.8757L8.43475 15.5466Z" fill="#28303F"/>
</svg>
