<svg width="24" height="24" viewBox="0 0 24 24" fill="none" xmlns="http://www.w3.org/2000/svg">
<path d="M4.46986 7.02652L3.99311 6.44755H3.99311L4.46986 7.02652ZM9.46986 2.90935L8.99311 2.33037V2.33037L9.46986 2.90935ZM14.5301 2.90935L14.0534 3.48832L14.5301 2.90935ZM19.5301 7.02652L19.0534 7.6055V7.6055L19.5301 7.02652ZM7.98614 15.138L8.49909 15.6852L7.98614 15.138ZM16.0139 15.138L15.5009 15.6852L16.0139 15.138ZM11 18.25C10.5858 18.25 10.25 18.5858 10.25 19C10.25 19.4142 10.5858 19.75 11 19.75V18.25ZM13 19.75C13.4142 19.75 13.75 19.4142 13.75 19C13.75 18.5858 13.4142 18.25 13 18.25V19.75ZM20.25 10.1503V17.9668H21.75V10.1503H20.25ZM17 21.25H7V22.75H17V21.25ZM3.75 17.9668V10.1503H2.25V17.9668H3.75ZM4.94661 7.6055L9.94661 3.48832L8.99311 2.33037L3.99311 6.44755L4.94661 7.6055ZM14.0534 3.48832L19.0534 7.6055L20.0069 6.44755L15.0069 2.33037L14.0534 3.48832ZM9.94661 3.48832C11.1421 2.50389 12.8579 2.50389 14.0534 3.48832L15.0069 2.33037C13.2575 0.889874 10.7425 0.889878 8.99311 2.33037L9.94661 3.48832ZM7 21.25C5.2109 21.25 3.75 19.7859 3.75 17.9668H2.25C2.25 20.6027 4.37082 22.75 7 22.75V21.25ZM20.25 17.9668C20.25 19.7859 18.7891 21.25 17 21.25V22.75C19.6292 22.75 21.75 20.6027 21.75 17.9668H20.25ZM21.75 10.1503C21.75 8.71654 21.1111 7.35681 20.0069 6.44755L19.0534 7.6055C19.8096 8.22818 20.25 9.16221 20.25 10.1503H21.75ZM3.75 10.1503C3.75 9.16221 4.1904 8.22819 4.94661 7.6055L3.99311 6.44755C2.88889 7.35681 2.25 8.71654 2.25 10.1503H3.75ZM15.2775 16.25H8.72246V17.75H15.2775V16.25ZM14.5833 12.3333V13.5672H16.0833V12.3333H14.5833ZM9.41667 13.5672V12.3333H7.91667V13.5672H9.41667ZM8.49909 15.6852C9.08452 15.1363 9.41667 14.3696 9.41667 13.5672H7.91667C7.91667 13.955 7.75613 14.3256 7.47318 14.5908L8.49909 15.6852ZM14.5833 13.5672C14.5833 14.3696 14.9155 15.1363 15.5009 15.6852L16.5268 14.5908C16.2439 14.3256 16.0833 13.955 16.0833 13.5672H14.5833ZM8.72246 16.25C8.42639 16.25 8.2831 15.8876 8.49909 15.6852L7.47318 14.5908C6.26516 15.7234 7.06659 17.75 8.72246 17.75V16.25ZM15.2775 17.75C16.9334 17.75 17.7348 15.7234 16.5268 14.5908L15.5009 15.6852C15.7169 15.8876 15.5736 16.25 15.2775 16.25V17.75ZM16.0833 12.3333C16.0833 10.0782 14.2552 8.25 12 8.25V9.75C13.4267 9.75 14.5833 10.9066 14.5833 12.3333H16.0833ZM9.41667 12.3333C9.41667 10.9066 10.5733 9.75 12 9.75V8.25C9.74484 8.25 7.91667 10.0782 7.91667 12.3333H9.41667ZM11 19.75H13V18.25H11V19.75Z" fill="#28303F"/>
</svg>
