<svg width="24" height="24" viewBox="0 0 24 24" fill="none" xmlns="http://www.w3.org/2000/svg">
<path d="M3.15251 7.19692L3.58013 7.81306H3.58013L3.15251 7.19692ZM9.54124 2.763L9.11361 2.14685V2.14685L9.54124 2.763ZM14.4588 2.763L14.8864 2.14685V2.14685L14.4588 2.763ZM20.8475 7.19691L20.4199 7.81306L20.8475 7.19691ZM2.81969 11.2448L2.30191 11.7874L2.30191 11.7874L2.81969 11.2448ZM21.1803 11.2448L20.6625 10.7022V10.7022L21.1803 11.2448ZM10.3354 12.3292C9.96493 12.1439 9.51442 12.2941 9.32918 12.6646C9.14394 13.0351 9.29411 13.4856 9.66459 13.6708L10.3354 12.3292ZM11.1056 13.5528L10.7702 14.2236L11.1056 13.5528ZM12.8944 13.5528L13.2298 14.2236L12.8944 13.5528ZM14.3354 13.6708C14.7059 13.4856 14.8561 13.0351 14.6708 12.6646C14.4856 12.2941 14.0351 12.1439 13.6646 12.3292L14.3354 13.6708ZM16.1804 21.25H7.81965V22.75H16.1804V21.25ZM3.58013 7.81306L9.96886 3.37914L9.11361 2.14685L2.72488 6.58077L3.58013 7.81306ZM14.0311 3.37914L20.4199 7.81306L21.2751 6.58077L14.8864 2.14685L14.0311 3.37914ZM19.6107 13.133V18.0108H21.1107V13.133H19.6107ZM4.3893 18.0108V13.133H2.8893V18.0108H4.3893ZM4.3893 13.133C4.3893 12.2143 4.00651 11.3407 3.33747 10.7022L2.30191 11.7874C2.68244 12.1505 2.8893 12.6354 2.8893 13.133H4.3893ZM20.6625 10.7022C19.9935 11.3407 19.6107 12.2143 19.6107 13.133H21.1107C21.1107 12.6354 21.3176 12.1505 21.6981 11.7874L20.6625 10.7022ZM9.96886 3.37914C11.1775 2.54029 12.8224 2.54029 14.0311 3.37914L14.8864 2.14685C13.1634 0.951051 10.8366 0.951051 9.11361 2.14685L9.96886 3.37914ZM7.81965 21.25C5.89166 21.25 4.3893 19.7671 4.3893 18.0108H2.8893C2.8893 20.6609 5.13015 22.75 7.81965 22.75V21.25ZM16.1804 22.75C18.8698 22.75 21.1107 20.6609 21.1107 18.0108H19.6107C19.6107 19.7671 18.1083 21.25 16.1804 21.25V22.75ZM20.4199 7.81306C21.4262 8.51149 21.53 9.87443 20.6625 10.7022L21.6981 11.7874C23.2624 10.2946 23.05 7.8126 21.2751 6.58077L20.4199 7.81306ZM2.72488 6.58077C0.949956 7.8126 0.737579 10.2946 2.30191 11.7874L3.33747 10.7022C2.47003 9.87443 2.57378 8.51149 3.58013 7.81306L2.72488 6.58077ZM10 10.75H14V9.25H10V10.75ZM16.25 13V15H17.75V13H16.25ZM14 17.25H10V18.75H14V17.25ZM7.75 15V13H6.25V15H7.75ZM10 17.25C8.75736 17.25 7.75 16.2426 7.75 15H6.25C6.25 17.0711 7.92893 18.75 10 18.75V17.25ZM16.25 15C16.25 16.2426 15.2426 17.25 14 17.25V18.75C16.0711 18.75 17.75 17.0711 17.75 15H16.25ZM14 10.75C15.2426 10.75 16.25 11.7574 16.25 13H17.75C17.75 10.9289 16.0711 9.25 14 9.25V10.75ZM10 9.25C7.92893 9.25 6.25 10.9289 6.25 13H7.75C7.75 11.7574 8.75736 10.75 10 10.75V9.25ZM9.66459 13.6708L10.7702 14.2236L11.441 12.882L10.3354 12.3292L9.66459 13.6708ZM13.2298 14.2236L14.3354 13.6708L13.6646 12.3292L12.559 12.882L13.2298 14.2236ZM10.7702 14.2236C11.5444 14.6107 12.4556 14.6107 13.2298 14.2236L12.559 12.882C12.2071 13.0579 11.7929 13.0579 11.441 12.882L10.7702 14.2236Z" fill="#28303F"/>
</svg>
