<svg width="24" height="24" viewBox="0 0 24 24" fill="none" xmlns="http://www.w3.org/2000/svg">
<path d="M3.15251 7.19692L3.58013 7.81306H3.58013L3.15251 7.19692ZM9.54124 2.763L9.11361 2.14685V2.14685L9.54124 2.763ZM14.4588 2.763L14.8864 2.14685V2.14685L14.4588 2.763ZM20.8475 7.19691L20.4199 7.81306L20.8475 7.19691ZM2.81969 11.2448L2.30191 11.7874L2.30191 11.7874L2.81969 11.2448ZM21.1803 11.2448L20.6625 10.7022V10.7022L21.1803 11.2448ZM12 11.7123L11.4697 12.2426C11.7626 12.5355 12.2374 12.5355 12.5303 12.2426L12 11.7123ZM12.3094 11.4029L12.8397 11.9333H12.8397L12.3094 11.4029ZM11.6906 11.4029L11.1603 11.9333H11.1603L11.6906 11.4029ZM13.2374 16.662L12.7071 16.1317V16.1317L13.2374 16.662ZM15.403 14.4965L15.9333 15.0268V15.0268L15.403 14.4965ZM8.59705 11.4029L8.06672 10.8726L8.59705 11.4029ZM16.1804 21.25H7.81965V22.75H16.1804V21.25ZM3.58013 7.81306L9.96886 3.37914L9.11361 2.14685L2.72488 6.58077L3.58013 7.81306ZM14.0311 3.37914L20.4199 7.81306L21.2751 6.58077L14.8864 2.14685L14.0311 3.37914ZM19.6107 13.133V18.0108H21.1107V13.133H19.6107ZM4.3893 18.0108V13.133H2.8893V18.0108H4.3893ZM4.3893 13.133C4.3893 12.2143 4.00651 11.3407 3.33747 10.7022L2.30191 11.7874C2.68244 12.1505 2.8893 12.6354 2.8893 13.133H4.3893ZM20.6625 10.7022C19.9935 11.3407 19.6107 12.2143 19.6107 13.133H21.1107C21.1107 12.6354 21.3176 12.1505 21.6981 11.7874L20.6625 10.7022ZM9.96886 3.37914C11.1775 2.54029 12.8224 2.54029 14.0311 3.37914L14.8864 2.14685C13.1634 0.951051 10.8366 0.951051 9.11361 2.14685L9.96886 3.37914ZM7.81965 21.25C5.89166 21.25 4.3893 19.7671 4.3893 18.0108H2.8893C2.8893 20.6609 5.13015 22.75 7.81965 22.75V21.25ZM16.1804 22.75C18.8698 22.75 21.1107 20.6609 21.1107 18.0108H19.6107C19.6107 19.7671 18.1083 21.25 16.1804 21.25V22.75ZM20.4199 7.81306C21.4262 8.51149 21.53 9.87443 20.6625 10.7022L21.6981 11.7874C23.2624 10.2946 23.05 7.8126 21.2751 6.58077L20.4199 7.81306ZM2.72488 6.58077C0.949956 7.8126 0.737579 10.2946 2.30191 11.7874L3.33747 10.7022C2.47003 9.87443 2.57378 8.51149 3.58013 7.81306L2.72488 6.58077ZM12.5303 12.2426L12.8397 11.9333L11.779 10.8726L11.4697 11.182L12.5303 12.2426ZM11.1603 11.9333L11.4697 12.2426L12.5303 11.182L12.221 10.8726L11.1603 11.9333ZM8.06672 15.0268L10.2322 17.1924L11.2929 16.1317L9.12738 13.9662L8.06672 15.0268ZM13.7678 17.1924L15.9333 15.0268L14.8726 13.9662L12.7071 16.1317L13.7678 17.1924ZM14.8726 11.9333C15.434 12.4946 15.434 13.4048 14.8726 13.9662L15.9333 15.0268C17.0804 13.8797 17.0804 12.0198 15.9333 10.8726L14.8726 11.9333ZM15.9333 10.8726C14.7861 9.72543 12.9262 9.72543 11.779 10.8726L12.8397 11.9333C13.4011 11.3719 14.3112 11.3719 14.8726 11.9333L15.9333 10.8726ZM9.12738 11.9333C9.68876 11.3719 10.5989 11.3719 11.1603 11.9333L12.221 10.8726C11.0738 9.72543 9.21388 9.72543 8.06672 10.8726L9.12738 11.9333ZM10.2322 17.1924C11.2085 18.1687 12.7915 18.1687 13.7678 17.1924L12.7071 16.1317C12.3166 16.5222 11.6834 16.5222 11.2929 16.1317L10.2322 17.1924ZM8.06672 10.8726C6.91955 12.0198 6.91955 13.8797 8.06672 15.0268L9.12738 13.9662C8.566 13.4048 8.566 12.4946 9.12738 11.9333L8.06672 10.8726Z" fill="#28303F"/>
</svg>
