<svg width="24" height="24" viewBox="0 0 24 24" fill="none" xmlns="http://www.w3.org/2000/svg">
<path d="M4.46986 7.02652L3.99311 6.44755H3.99311L4.46986 7.02652ZM9.46986 2.90935L8.99311 2.33037V2.33037L9.46986 2.90935ZM14.5301 2.90935L14.0534 3.48832L14.5301 2.90935ZM19.5301 7.02652L19.0534 7.6055V7.6055L19.5301 7.02652ZM9.10649 10.4468L9.4419 11.1176L9.10649 10.4468ZM11.1056 9.44721L11.441 10.118L11.1056 9.44721ZM12.8944 9.44721L13.2298 8.77639L12.8944 9.44721ZM14.8851 10.4426L14.5497 11.1134L14.8851 10.4426ZM8.02788 12.2375L8.777 12.2012L8.02788 12.2375ZM10.887 18.1872L11.3505 17.5976L10.887 18.1872ZM13.113 18.1873L13.5775 18.7761L13.113 18.1873ZM15.9644 12.247L16.7134 12.2873V12.2873L15.9644 12.247ZM20.25 10.1503V17.9668H21.75V10.1503H20.25ZM17 21.25H7V22.75H17V21.25ZM3.75 17.9668V10.1503H2.25V17.9668H3.75ZM4.94661 7.6055L9.94661 3.48832L8.99311 2.33037L3.99311 6.44755L4.94661 7.6055ZM14.0534 3.48832L19.0534 7.6055L20.0069 6.44755L15.0069 2.33037L14.0534 3.48832ZM9.94661 3.48832C11.1421 2.50389 12.8579 2.50389 14.0534 3.48832L15.0069 2.33037C13.2575 0.889874 10.7425 0.889878 8.99311 2.33037L9.94661 3.48832ZM7 21.25C5.2109 21.25 3.75 19.7859 3.75 17.9668H2.25C2.25 20.6027 4.37082 22.75 7 22.75V21.25ZM20.25 17.9668C20.25 19.7859 18.7891 21.25 17 21.25V22.75C19.6292 22.75 21.75 20.6027 21.75 17.9668H20.25ZM21.75 10.1503C21.75 8.71654 21.1111 7.35681 20.0069 6.44755L19.0534 7.6055C19.8096 8.22818 20.25 9.16221 20.25 10.1503H21.75ZM3.75 10.1503C3.75 9.16221 4.1904 8.22819 4.94661 7.6055L3.99311 6.44755C2.88889 7.35681 2.25 8.71654 2.25 10.1503H3.75ZM9.4419 11.1176L11.441 10.118L10.7702 8.77639L8.77108 9.77593L9.4419 11.1176ZM12.559 10.118L14.5497 11.1134L15.2205 9.77175L13.2298 8.77639L12.559 10.118ZM7.27876 12.2739C7.35482 13.8414 7.5905 15.0594 8.10616 16.1049C8.62547 17.1577 9.39571 17.9689 10.4235 18.7768L11.3505 17.5976C10.4214 16.8672 9.83565 16.2203 9.45142 15.4413C9.06356 14.655 8.84813 13.6673 8.777 12.2012L7.27876 12.2739ZM13.5775 18.7761C14.6105 17.9612 15.3742 17.1426 15.888 16.0896C16.3977 15.0451 16.6301 13.8341 16.7134 12.2873L15.2155 12.2067C15.1375 13.6573 14.9252 14.6425 14.54 15.4318C14.1589 16.2126 13.5775 16.8655 12.6484 17.5984L13.5775 18.7761ZM10.4235 18.7768C11.3467 19.5026 12.653 19.5055 13.5775 18.7761L12.6484 17.5984C12.2705 17.8966 11.7315 17.8971 11.3505 17.5976L10.4235 18.7768ZM11.441 10.118C11.7929 9.94208 12.2071 9.94208 12.559 10.118L13.2298 8.77639C12.4556 8.38929 11.5444 8.38929 10.7702 8.77639L11.441 10.118ZM14.5497 11.1134C14.9842 11.3306 15.2393 11.764 15.2155 12.2067L16.7134 12.2873C16.7715 11.2063 16.1509 10.2369 15.2205 9.77175L14.5497 11.1134ZM8.77108 9.77593C7.84707 10.2379 7.22657 11.1983 7.27876 12.2739L8.777 12.2012C8.75571 11.7625 9.00982 11.3336 9.4419 11.1176L8.77108 9.77593Z" fill="#28303F"/>
</svg>
