<svg width="24" height="24" viewBox="0 0 24 24" fill="none" xmlns="http://www.w3.org/2000/svg">
<path d="M4.46986 7.02652L3.99311 6.44755H3.99311L4.46986 7.02652ZM9.46986 2.90935L8.99311 2.33037V2.33037L9.46986 2.90935ZM14.5301 2.90935L14.0534 3.48832L14.5301 2.90935ZM19.5301 7.02652L19.0534 7.6055V7.6055L19.5301 7.02652ZM20.25 10.1503V17.9668H21.75V10.1503H20.25ZM17 21.25H7V22.75H17V21.25ZM3.75 17.9668V10.1503H2.25V17.9668H3.75ZM4.94661 7.6055L9.94661 3.48832L8.99311 2.33037L3.99311 6.44755L4.94661 7.6055ZM14.0534 3.48832L19.0534 7.6055L20.0069 6.44755L15.0069 2.33037L14.0534 3.48832ZM9.94661 3.48832C11.1421 2.50389 12.8579 2.50389 14.0534 3.48832L15.0069 2.33037C13.2575 0.889874 10.7425 0.889878 8.99311 2.33037L9.94661 3.48832ZM7 21.25C5.2109 21.25 3.75 19.7859 3.75 17.9668H2.25C2.25 20.6027 4.37082 22.75 7 22.75V21.25ZM20.25 17.9668C20.25 19.7859 18.7891 21.25 17 21.25V22.75C19.6292 22.75 21.75 20.6027 21.75 17.9668H20.25ZM21.75 10.1503C21.75 8.71654 21.1111 7.35681 20.0069 6.44755L19.0534 7.6055C19.8096 8.22818 20.25 9.16221 20.25 10.1503H21.75ZM3.75 10.1503C3.75 9.16221 4.1904 8.22819 4.94661 7.6055L3.99311 6.44755C2.88889 7.35681 2.25 8.71654 2.25 10.1503H3.75ZM8 13.75C7.58579 13.75 7.25 13.4142 7.25 13H5.75C5.75 14.2426 6.75736 15.25 8 15.25V13.75ZM7.25 13C7.25 12.5858 7.58579 12.25 8 12.25V10.75C6.75736 10.75 5.75 11.7574 5.75 13H7.25ZM15.75 9.5C15.75 9.91421 15.4142 10.25 15 10.25V11.75C16.2426 11.75 17.25 10.7426 17.25 9.5H15.75ZM14.25 9.5C14.25 9.08579 14.5858 8.75 15 8.75V7.25C13.7574 7.25 12.75 8.25736 12.75 9.5H14.25ZM15 8.75C15.4142 8.75 15.75 9.08579 15.75 9.5H17.25C17.25 8.25736 16.2426 7.25 15 7.25V8.75ZM15.75 16.5C15.75 16.9142 15.4142 17.25 15 17.25V18.75C16.2426 18.75 17.25 17.7426 17.25 16.5H15.75ZM15 17.25C14.5858 17.25 14.25 16.9142 14.25 16.5H12.75C12.75 17.7426 13.7574 18.75 15 18.75V17.25ZM15 15.75C15.4142 15.75 15.75 16.0858 15.75 16.5H17.25C17.25 15.2574 16.2426 14.25 15 14.25V15.75ZM15 10.25C14.7075 10.25 14.4527 10.0827 14.3286 9.83503L12.9875 10.5069C13.356 11.2424 14.118 11.75 15 11.75V10.25ZM14.3286 9.83503C14.2785 9.73506 14.25 9.62194 14.25 9.5H12.75C12.75 9.86043 12.8353 10.2031 12.9875 10.5069L14.3286 9.83503ZM14.25 16.5C14.25 16.3781 14.2785 16.2649 14.3286 16.165L12.9875 15.4931C12.8353 15.7969 12.75 16.1396 12.75 16.5H14.25ZM14.3286 16.165C14.4527 15.9173 14.7075 15.75 15 15.75V14.25C14.118 14.25 13.356 14.7576 12.9875 15.4931L14.3286 16.165ZM9.67734 12.9999L13.9935 10.8418L13.3227 9.50015L9.00652 11.6582L9.67734 12.9999ZM8 12.25C8.29253 12.25 8.54733 12.4173 8.67138 12.665L10.0125 11.9931C9.64401 11.2576 8.88196 10.75 8 10.75V12.25ZM8.67138 12.665C8.72146 12.7649 8.75 12.8781 8.75 13H10.25C10.25 12.6396 10.1647 12.2969 10.0125 11.9931L8.67138 12.665ZM9.00652 14.3418L13.3227 16.4999L13.9935 15.1582L9.67734 13.0001L9.00652 14.3418ZM8.75 13C8.75 13.1219 8.72146 13.2351 8.67138 13.335L10.0125 14.0069C10.1647 13.7031 10.25 13.3604 10.25 13H8.75ZM8.67138 13.335C8.54733 13.5827 8.29253 13.75 8 13.75V15.25C8.88196 15.25 9.64401 14.7424 10.0125 14.0069L8.67138 13.335Z" fill="#28303F"/>
</svg>
