<svg width="24" height="24" viewBox="0 0 24 24" fill="none" xmlns="http://www.w3.org/2000/svg">
<path d="M3.15251 7.19692L3.58013 7.81306H3.58013L3.15251 7.19692ZM9.54124 2.763L9.11361 2.14685V2.14685L9.54124 2.763ZM14.4588 2.763L14.8864 2.14685V2.14685L14.4588 2.763ZM20.8475 7.19691L20.4199 7.81306L20.8475 7.19691ZM2.81969 11.2448L2.30191 11.7874L2.30191 11.7874L2.81969 11.2448ZM21.1803 11.2448L20.6625 10.7022V10.7022L21.1803 11.2448ZM9.10649 10.4468L9.4419 11.1176L9.10649 10.4468ZM11.1056 9.44721L11.441 10.118L11.1056 9.44721ZM12.8944 9.44721L13.2298 8.77639L12.8944 9.44721ZM14.8851 10.4426L14.5497 11.1134L14.8851 10.4426ZM8.02788 12.2375L8.777 12.2012L8.02788 12.2375ZM10.887 18.1872L11.3505 17.5976L10.887 18.1872ZM13.113 18.1873L13.5775 18.7761L13.113 18.1873ZM15.9644 12.247L16.7134 12.2873V12.2873L15.9644 12.247ZM16.1804 21.25H7.81965V22.75H16.1804V21.25ZM3.58013 7.81306L9.96886 3.37914L9.11361 2.14685L2.72488 6.58077L3.58013 7.81306ZM14.0311 3.37914L20.4199 7.81306L21.2751 6.58077L14.8864 2.14685L14.0311 3.37914ZM19.6107 13.133V18.0108H21.1107V13.133H19.6107ZM4.3893 18.0108V13.133H2.8893V18.0108H4.3893ZM4.3893 13.133C4.3893 12.2143 4.00651 11.3407 3.33747 10.7022L2.30191 11.7874C2.68244 12.1505 2.8893 12.6354 2.8893 13.133H4.3893ZM20.6625 10.7022C19.9935 11.3407 19.6107 12.2143 19.6107 13.133H21.1107C21.1107 12.6354 21.3176 12.1505 21.6981 11.7874L20.6625 10.7022ZM9.96886 3.37914C11.1775 2.54029 12.8224 2.54029 14.0311 3.37914L14.8864 2.14685C13.1634 0.951051 10.8366 0.951051 9.11361 2.14685L9.96886 3.37914ZM7.81965 21.25C5.89166 21.25 4.3893 19.7671 4.3893 18.0108H2.8893C2.8893 20.6609 5.13015 22.75 7.81965 22.75V21.25ZM16.1804 22.75C18.8698 22.75 21.1107 20.6609 21.1107 18.0108H19.6107C19.6107 19.7671 18.1083 21.25 16.1804 21.25V22.75ZM20.4199 7.81306C21.4262 8.51149 21.53 9.87443 20.6625 10.7022L21.6981 11.7874C23.2624 10.2946 23.05 7.8126 21.2751 6.58077L20.4199 7.81306ZM2.72488 6.58077C0.949956 7.8126 0.737579 10.2946 2.30191 11.7874L3.33747 10.7022C2.47003 9.87443 2.57378 8.51149 3.58013 7.81306L2.72488 6.58077ZM9.4419 11.1176L11.441 10.118L10.7702 8.77639L8.77108 9.77593L9.4419 11.1176ZM12.559 10.118L14.5497 11.1134L15.2205 9.77175L13.2298 8.77639L12.559 10.118ZM7.27876 12.2739C7.35482 13.8414 7.5905 15.0594 8.10616 16.1049C8.62547 17.1577 9.39571 17.9689 10.4235 18.7768L11.3505 17.5976C10.4214 16.8672 9.83565 16.2203 9.45142 15.4413C9.06356 14.655 8.84813 13.6673 8.777 12.2012L7.27876 12.2739ZM13.5775 18.7761C14.6105 17.9612 15.3742 17.1426 15.888 16.0896C16.3977 15.0451 16.6301 13.8341 16.7134 12.2873L15.2155 12.2067C15.1375 13.6573 14.9252 14.6425 14.54 15.4318C14.1589 16.2126 13.5775 16.8655 12.6484 17.5984L13.5775 18.7761ZM10.4235 18.7768C11.3467 19.5026 12.653 19.5055 13.5775 18.7761L12.6484 17.5984C12.2705 17.8966 11.7315 17.8971 11.3505 17.5976L10.4235 18.7768ZM11.441 10.118C11.7929 9.94208 12.2071 9.94208 12.559 10.118L13.2298 8.77639C12.4556 8.38929 11.5444 8.38929 10.7702 8.77639L11.441 10.118ZM14.5497 11.1134C14.9842 11.3306 15.2393 11.764 15.2155 12.2067L16.7134 12.2873C16.7715 11.2063 16.1509 10.2369 15.2205 9.77175L14.5497 11.1134ZM8.77108 9.77593C7.84707 10.2379 7.22657 11.1983 7.27876 12.2739L8.777 12.2012C8.75571 11.7625 9.00982 11.3336 9.4419 11.1176L8.77108 9.77593Z" fill="#28303F"/>
</svg>
