<svg width="24" height="24" viewBox="0 0 24 24" fill="none" xmlns="http://www.w3.org/2000/svg">
<path d="M3.15251 7.19692L3.58013 7.81306H3.58013L3.15251 7.19692ZM9.54124 2.763L9.11361 2.14685V2.14685L9.54124 2.763ZM14.4588 2.763L14.8864 2.14685V2.14685L14.4588 2.763ZM20.8475 7.19691L20.4199 7.81306L20.8475 7.19691ZM2.81969 11.2448L2.30191 11.7874L2.30191 11.7874L2.81969 11.2448ZM21.1803 11.2448L20.6625 10.7022V10.7022L21.1803 11.2448ZM11.2929 10.8787L10.7626 10.3484L11.2929 10.8787ZM12.7071 9.46451L13.2375 9.99484L12.7071 9.46451ZM15.5356 12.2929L15.0052 11.7626H15.0052L15.5356 12.2929ZM14.6517 12.1162C14.3588 12.4091 14.3588 12.8839 14.6517 13.1768C14.9446 13.4697 15.4194 13.4697 15.7123 13.1768L14.6517 12.1162ZM10.7626 14.2375C11.0555 14.5304 11.5303 14.5304 11.8232 14.2375C12.1161 13.9446 12.1161 13.4697 11.8232 13.1768L10.7626 14.2375ZM8.46445 13.7071L8.99478 14.2374H8.99478L8.46445 13.7071ZM9.34833 13.8838C9.64123 13.5909 9.64122 13.1161 9.34833 12.8232C9.05544 12.5303 8.58056 12.5303 8.28767 12.8232L9.34833 13.8838ZM13.2374 11.7625C12.9445 11.4696 12.4697 11.4696 12.1768 11.7625C11.8839 12.0554 11.8839 12.5303 12.1768 12.8232L13.2374 11.7625ZM16.1804 21.25H7.81965V22.75H16.1804V21.25ZM3.58013 7.81306L9.96886 3.37914L9.11361 2.14685L2.72488 6.58077L3.58013 7.81306ZM14.0311 3.37914L20.4199 7.81306L21.2751 6.58077L14.8864 2.14685L14.0311 3.37914ZM19.6107 13.133V18.0108H21.1107V13.133H19.6107ZM4.3893 18.0108V13.133H2.8893V18.0108H4.3893ZM4.3893 13.133C4.3893 12.2143 4.00651 11.3407 3.33747 10.7022L2.30191 11.7874C2.68244 12.1505 2.8893 12.6354 2.8893 13.133H4.3893ZM20.6625 10.7022C19.9935 11.3407 19.6107 12.2143 19.6107 13.133H21.1107C21.1107 12.6354 21.3176 12.1505 21.6981 11.7874L20.6625 10.7022ZM9.96886 3.37914C11.1775 2.54029 12.8224 2.54029 14.0311 3.37914L14.8864 2.14685C13.1634 0.951051 10.8366 0.951051 9.11361 2.14685L9.96886 3.37914ZM7.81965 21.25C5.89166 21.25 4.3893 19.7671 4.3893 18.0108H2.8893C2.8893 20.6609 5.13015 22.75 7.81965 22.75V21.25ZM16.1804 22.75C18.8698 22.75 21.1107 20.6609 21.1107 18.0108H19.6107C19.6107 19.7671 18.1083 21.25 16.1804 21.25V22.75ZM20.4199 7.81306C21.4262 8.51149 21.53 9.87443 20.6625 10.7022L21.6981 11.7874C23.2624 10.2946 23.05 7.8126 21.2751 6.58077L20.4199 7.81306ZM2.72488 6.58077C0.949956 7.8126 0.737579 10.2946 2.30191 11.7874L3.33747 10.7022C2.47003 9.87443 2.57378 8.51149 3.58013 7.81306L2.72488 6.58077ZM11.8232 11.409L13.2375 9.99484L12.1768 8.93418L10.7626 10.3484L11.8232 11.409ZM15.0052 11.7626L14.6517 12.1162L15.7123 13.1768L16.0659 12.8233L15.0052 11.7626ZM10.7626 10.3484C9.68864 11.4223 9.68864 13.1635 10.7626 14.2375L11.8232 13.1768C11.3351 12.6887 11.3351 11.8972 11.8232 11.409L10.7626 10.3484ZM15.0052 9.99484C15.4934 10.483 15.4934 11.2744 15.0052 11.7626L16.0659 12.8233C17.1398 11.7493 17.1398 10.0081 16.0659 8.93418L15.0052 9.99484ZM16.0659 8.93418C14.9919 7.86023 13.2507 7.86023 12.1768 8.93418L13.2375 9.99484C13.7256 9.50668 14.5171 9.50668 15.0052 9.99484L16.0659 8.93418ZM12.1768 14.591L10.7625 16.0052L11.8232 17.0658L13.2374 15.6516L12.1768 14.591ZM8.99478 14.2374L9.34833 13.8838L8.28767 12.8232L7.93412 13.1767L8.99478 14.2374ZM13.2374 15.6516C14.3114 14.5777 14.3114 12.8365 13.2374 11.7625L12.1768 12.8232C12.6649 13.3113 12.6649 14.1028 12.1768 14.591L13.2374 15.6516ZM8.99478 16.0052C8.50662 15.517 8.50662 14.7256 8.99478 14.2374L7.93412 13.1767C6.86018 14.2507 6.86018 15.9919 7.93412 17.0658L8.99478 16.0052ZM7.93412 17.0658C9.00806 18.1398 10.7493 18.1398 11.8232 17.0658L10.7625 16.0052C10.2744 16.4933 9.48293 16.4933 8.99478 16.0052L7.93412 17.0658Z" fill="#28303F"/>
</svg>
