<svg width="24" height="24" viewBox="0 0 24 24" fill="none" xmlns="http://www.w3.org/2000/svg">
<path d="M4.46986 7.02652L3.99311 6.44755H3.99311L4.46986 7.02652ZM9.46986 2.90935L8.99311 2.33037V2.33037L9.46986 2.90935ZM14.5301 2.90935L14.0534 3.48832L14.5301 2.90935ZM19.5301 7.02652L19.0534 7.6055V7.6055L19.5301 7.02652ZM12.75 10C12.75 9.58579 12.4142 9.25 12 9.25C11.5858 9.25 11.25 9.58579 11.25 10H12.75ZM11.25 12C11.25 12.4142 11.5858 12.75 12 12.75C12.4142 12.75 12.75 12.4142 12.75 12H11.25ZM15.5623 10.8578C15.2882 10.5473 14.8143 10.5177 14.5037 10.7918C14.1931 11.0659 14.1636 11.5399 14.4377 11.8504L15.5623 10.8578ZM9.5623 11.8504C9.8364 11.5399 9.80685 11.0659 9.4963 10.7918C9.18575 10.5177 8.71179 10.5473 8.4377 10.8578L9.5623 11.8504ZM20.25 10.1503V17.9668H21.75V10.1503H20.25ZM17 21.25H7V22.75H17V21.25ZM3.75 17.9668V10.1503H2.25V17.9668H3.75ZM4.94661 7.6055L9.94661 3.48832L8.99311 2.33037L3.99311 6.44755L4.94661 7.6055ZM14.0534 3.48832L19.0534 7.6055L20.0069 6.44755L15.0069 2.33037L14.0534 3.48832ZM9.94661 3.48832C11.1421 2.50389 12.8579 2.50389 14.0534 3.48832L15.0069 2.33037C13.2575 0.889874 10.7425 0.889878 8.99311 2.33037L9.94661 3.48832ZM7 21.25C5.2109 21.25 3.75 19.7859 3.75 17.9668H2.25C2.25 20.6027 4.37082 22.75 7 22.75V21.25ZM20.25 17.9668C20.25 19.7859 18.7891 21.25 17 21.25V22.75C19.6292 22.75 21.75 20.6027 21.75 17.9668H20.25ZM21.75 10.1503C21.75 8.71654 21.1111 7.35681 20.0069 6.44755L19.0534 7.6055C19.8096 8.22818 20.25 9.16221 20.25 10.1503H21.75ZM3.75 10.1503C3.75 9.16221 4.1904 8.22819 4.94661 7.6055L3.99311 6.44755C2.88889 7.35681 2.25 8.71654 2.25 10.1503H3.75ZM11.25 10V12H12.75V10H11.25ZM15.25 14C15.25 15.7949 13.7949 17.25 12 17.25V18.75C14.6234 18.75 16.75 16.6233 16.75 14H15.25ZM12 17.25C10.2051 17.25 8.75 15.7949 8.75 14H7.25C7.25 16.6233 9.37665 18.75 12 18.75V17.25ZM14.4377 11.8504C14.9438 12.4238 15.25 13.1752 15.25 14H16.75C16.75 12.7958 16.301 11.6947 15.5623 10.8578L14.4377 11.8504ZM8.75 14C8.75 13.1752 9.05623 12.4238 9.5623 11.8504L8.4377 10.8578C7.69904 11.6947 7.25 12.7958 7.25 14H8.75Z" fill="#28303F"/>
</svg>
