<svg width="24" height="24" viewBox="0 0 24 24" fill="none" xmlns="http://www.w3.org/2000/svg">
<path d="M3.15251 7.19692L3.58013 7.81306H3.58013L3.15251 7.19692ZM9.54124 2.763L9.11361 2.14685V2.14685L9.54124 2.763ZM14.4588 2.763L14.8864 2.14685V2.14685L14.4588 2.763ZM20.8475 7.19691L20.4199 7.81306L20.8475 7.19691ZM2.81969 11.2448L2.30191 11.7874L2.30191 11.7874L2.81969 11.2448ZM21.1803 11.2448L20.6625 10.7022V10.7022L21.1803 11.2448ZM8.00859 15.0974L7.49532 15.6443L8.00859 15.0974ZM8.00859 12.9026L8.52186 13.4494L8.00859 12.9026ZM15.9914 15.0974L15.4781 14.5506L15.9914 15.0974ZM15.9914 12.9026L16.5047 12.3557L15.9914 12.9026ZM16.1804 21.25H7.81965V22.75H16.1804V21.25ZM3.58013 7.81306L9.96886 3.37914L9.11361 2.14685L2.72488 6.58077L3.58013 7.81306ZM14.0311 3.37914L20.4199 7.81306L21.2751 6.58077L14.8864 2.14685L14.0311 3.37914ZM19.6107 13.133V18.0108H21.1107V13.133H19.6107ZM4.3893 18.0108V13.133H2.8893V18.0108H4.3893ZM4.3893 13.133C4.3893 12.2143 4.00651 11.3407 3.33747 10.7022L2.30191 11.7874C2.68244 12.1505 2.8893 12.6354 2.8893 13.133H4.3893ZM20.6625 10.7022C19.9935 11.3407 19.6107 12.2143 19.6107 13.133H21.1107C21.1107 12.6354 21.3176 12.1505 21.6981 11.7874L20.6625 10.7022ZM9.96886 3.37914C11.1775 2.54029 12.8224 2.54029 14.0311 3.37914L14.8864 2.14685C13.1634 0.951051 10.8366 0.951051 9.11361 2.14685L9.96886 3.37914ZM7.81965 21.25C5.89166 21.25 4.3893 19.7671 4.3893 18.0108H2.8893C2.8893 20.6609 5.13015 22.75 7.81965 22.75V21.25ZM16.1804 22.75C18.8698 22.75 21.1107 20.6609 21.1107 18.0108H19.6107C19.6107 19.7671 18.1083 21.25 16.1804 21.25V22.75ZM20.4199 7.81306C21.4262 8.51149 21.53 9.87443 20.6625 10.7022L21.6981 11.7874C23.2624 10.2946 23.05 7.8126 21.2751 6.58077L20.4199 7.81306ZM2.72488 6.58077C0.949956 7.8126 0.737579 10.2946 2.30191 11.7874L3.33747 10.7022C2.47003 9.87443 2.57378 8.51149 3.58013 7.81306L2.72488 6.58077ZM15.4781 14.5506C14.5965 15.3781 13.3307 16.25 12 16.25V17.75C13.9303 17.75 15.5609 16.5301 16.5047 15.6443L15.4781 14.5506ZM12 16.25C10.6693 16.25 9.40352 15.3781 8.52186 14.5506L7.49532 15.6443C8.43914 16.5301 10.0697 17.75 12 17.75V16.25ZM8.52186 13.4494C9.40352 12.6219 10.6693 11.75 12 11.75V10.25C10.0697 10.25 8.43914 11.4699 7.49532 12.3557L8.52186 13.4494ZM12 11.75C13.3307 11.75 14.5965 12.6219 15.4781 13.4494L16.5047 12.3557C15.5609 11.4699 13.9303 10.25 12 10.25V11.75ZM8.52186 14.5506C8.19201 14.241 8.19201 13.759 8.52186 13.4494L7.49532 12.3557C6.53419 13.2578 6.53419 14.7422 7.49532 15.6443L8.52186 14.5506ZM16.5047 15.6443C17.4658 14.7422 17.4658 13.2578 16.5047 12.3557L15.4781 13.4494C15.808 13.759 15.808 14.241 15.4781 14.5506L16.5047 15.6443Z" fill="#28303F"/>
<circle cx="12" cy="14" r="1" fill="#28303F"/>
</svg>
