<svg width="24" height="24" viewBox="0 0 24 24" fill="none" xmlns="http://www.w3.org/2000/svg">
<path d="M4.46986 7.02652L3.99311 6.44755H3.99311L4.46986 7.02652ZM9.46986 2.90935L8.99311 2.33037V2.33037L9.46986 2.90935ZM14.5301 2.90935L14.0534 3.48832L14.5301 2.90935ZM19.5301 7.02652L19.0534 7.6055V7.6055L19.5301 7.02652ZM13.7193 12.1243L13.0298 12.4194C13.1828 12.777 13.5838 12.9582 13.9533 12.8369L13.7193 12.1243ZM20.25 10.1503V17.9668H21.75V10.1503H20.25ZM17 21.25H7V22.75H17V21.25ZM3.75 17.9668V10.1503H2.25V17.9668H3.75ZM4.94661 7.6055L9.94661 3.48832L8.99311 2.33037L3.99311 6.44755L4.94661 7.6055ZM14.0534 3.48832L19.0534 7.6055L20.0069 6.44755L15.0069 2.33037L14.0534 3.48832ZM9.94661 3.48832C11.1421 2.50389 12.8579 2.50389 14.0534 3.48832L15.0069 2.33037C13.2575 0.889874 10.7425 0.889878 8.99311 2.33037L9.94661 3.48832ZM7 21.25C5.2109 21.25 3.75 19.7859 3.75 17.9668H2.25C2.25 20.6027 4.37082 22.75 7 22.75V21.25ZM20.25 17.9668C20.25 19.7859 18.7891 21.25 17 21.25V22.75C19.6292 22.75 21.75 20.6027 21.75 17.9668H20.25ZM21.75 10.1503C21.75 8.71654 21.1111 7.35681 20.0069 6.44755L19.0534 7.6055C19.8096 8.22818 20.25 9.16221 20.25 10.1503H21.75ZM3.75 10.1503C3.75 9.16221 4.1904 8.22819 4.94661 7.6055L3.99311 6.44755C2.88889 7.35681 2.25 8.71654 2.25 10.1503H3.75ZM10.5 16.25C8.98122 16.25 7.75 15.0188 7.75 13.5H6.25C6.25 15.8472 8.15279 17.75 10.5 17.75V16.25ZM7.75 13.5C7.75 11.9812 8.98122 10.75 10.5 10.75V9.25C8.15279 9.25 6.25 11.1528 6.25 13.5H7.75ZM16.25 14.5C16.25 15.4665 15.4665 16.25 14.5 16.25V17.75C16.2949 17.75 17.75 16.2949 17.75 14.5H16.25ZM14.5 12.75C15.4665 12.75 16.25 13.5335 16.25 14.5H17.75C17.75 12.7051 16.2949 11.25 14.5 11.25V12.75ZM13.9533 12.8369C14.1244 12.7807 14.3078 12.75 14.5 12.75V11.25C14.1469 11.25 13.8055 11.3066 13.4853 11.4118L13.9533 12.8369ZM10.5 10.75C11.6339 10.75 12.6092 11.4364 13.0298 12.4194L14.4088 11.8293C13.7605 10.314 12.2553 9.25 10.5 9.25V10.75ZM14.5 16.25H10.5V17.75H14.5V16.25Z" fill="#28303F"/>
</svg>
