<svg width="24" height="24" viewBox="0 0 24 24" fill="none" xmlns="http://www.w3.org/2000/svg">
<path d="M4.46986 7.02652L3.99311 6.44755H3.99311L4.46986 7.02652ZM9.46986 2.90935L8.99311 2.33037V2.33037L9.46986 2.90935ZM14.5301 2.90935L14.0534 3.48832L14.5301 2.90935ZM19.5301 7.02652L19.0534 7.6055V7.6055L19.5301 7.02652ZM13.591 16.6517C13.8839 16.9446 14.3588 16.9446 14.6517 16.6517C14.9446 16.3588 14.9446 15.8839 14.6517 15.591L13.591 16.6517ZM10.409 11.3484C10.1161 11.0555 9.64126 11.0555 9.34837 11.3484C9.05547 11.6413 9.05547 12.1161 9.34837 12.409L10.409 11.3484ZM9.34833 15.591C9.05544 15.8839 9.05544 16.3588 9.34833 16.6517C9.64123 16.9446 10.1161 16.9446 10.409 16.6517L9.34833 15.591ZM14.6516 12.409C14.9445 12.1161 14.9445 11.6413 14.6516 11.3484C14.3587 11.0555 13.8839 11.0555 13.591 11.3484L14.6516 12.409ZM20.25 10.1503V17.9668H21.75V10.1503H20.25ZM17 21.25H7V22.75H17V21.25ZM3.75 17.9668V10.1503H2.25V17.9668H3.75ZM4.94661 7.6055L9.94661 3.48832L8.99311 2.33037L3.99311 6.44755L4.94661 7.6055ZM14.0534 3.48832L19.0534 7.6055L20.0069 6.44755L15.0069 2.33037L14.0534 3.48832ZM9.94661 3.48832C11.1421 2.50389 12.8579 2.50389 14.0534 3.48832L15.0069 2.33037C13.2575 0.889874 10.7425 0.889878 8.99311 2.33037L9.94661 3.48832ZM7 21.25C5.2109 21.25 3.75 19.7859 3.75 17.9668H2.25C2.25 20.6027 4.37082 22.75 7 22.75V21.25ZM20.25 17.9668C20.25 19.7859 18.7891 21.25 17 21.25V22.75C19.6292 22.75 21.75 20.6027 21.75 17.9668H20.25ZM21.75 10.1503C21.75 8.71654 21.1111 7.35681 20.0069 6.44755L19.0534 7.6055C19.8096 8.22818 20.25 9.16221 20.25 10.1503H21.75ZM3.75 10.1503C3.75 9.16221 4.1904 8.22819 4.94661 7.6055L3.99311 6.44755C2.88889 7.35681 2.25 8.71654 2.25 10.1503H3.75ZM14.6517 15.591L10.409 11.3484L9.34837 12.409L13.591 16.6517L14.6517 15.591ZM10.409 16.6517L14.6516 12.409L13.591 11.3484L9.34833 15.591L10.409 16.6517Z" fill="#28303F"/>
</svg>
