<svg width="24" height="24" viewBox="0 0 24 24" fill="none" xmlns="http://www.w3.org/2000/svg">
<path d="M4.46986 7.02652L3.99311 6.44755H3.99311L4.46986 7.02652ZM9.46986 2.90935L8.99311 2.33037V2.33037L9.46986 2.90935ZM14.5301 2.90935L14.0534 3.48832L14.5301 2.90935ZM19.5301 7.02652L19.0534 7.6055V7.6055L19.5301 7.02652ZM10.3354 12.3292C9.96493 12.1439 9.51442 12.2941 9.32918 12.6646C9.14394 13.0351 9.29411 13.4856 9.66459 13.6708L10.3354 12.3292ZM11.1056 13.5528L10.7702 14.2236H10.7702L11.1056 13.5528ZM12.8944 13.5528L13.2298 14.2236L12.8944 13.5528ZM14.3354 13.6708C14.7059 13.4856 14.8561 13.0351 14.6708 12.6646C14.4856 12.2941 14.0351 12.1439 13.6646 12.3292L14.3354 13.6708ZM20.25 10.1503V17.9668H21.75V10.1503H20.25ZM17 21.25H7V22.75H17V21.25ZM3.75 17.9668V10.1503H2.25V17.9668H3.75ZM4.94661 7.6055L9.94661 3.48832L8.99311 2.33037L3.99311 6.44755L4.94661 7.6055ZM14.0534 3.48832L19.0534 7.6055L20.0069 6.44755L15.0069 2.33037L14.0534 3.48832ZM9.94661 3.48832C11.1421 2.50389 12.8579 2.50389 14.0534 3.48832L15.0069 2.33037C13.2575 0.889874 10.7425 0.889878 8.99311 2.33037L9.94661 3.48832ZM7 21.25C5.2109 21.25 3.75 19.7859 3.75 17.9668H2.25C2.25 20.6027 4.37082 22.75 7 22.75V21.25ZM20.25 17.9668C20.25 19.7859 18.7891 21.25 17 21.25V22.75C19.6292 22.75 21.75 20.6027 21.75 17.9668H20.25ZM21.75 10.1503C21.75 8.71654 21.1111 7.35681 20.0069 6.44755L19.0534 7.6055C19.8096 8.22818 20.25 9.16221 20.25 10.1503H21.75ZM3.75 10.1503C3.75 9.16221 4.1904 8.22819 4.94661 7.6055L3.99311 6.44755C2.88889 7.35681 2.25 8.71654 2.25 10.1503H3.75ZM10 10.75H14V9.25H10V10.75ZM16.25 13V15H17.75V13H16.25ZM14 17.25H10V18.75H14V17.25ZM7.75 15V13H6.25V15H7.75ZM10 17.25C8.75736 17.25 7.75 16.2426 7.75 15H6.25C6.25 17.0711 7.92893 18.75 10 18.75V17.25ZM16.25 15C16.25 16.2426 15.2426 17.25 14 17.25V18.75C16.0711 18.75 17.75 17.0711 17.75 15H16.25ZM14 10.75C15.2426 10.75 16.25 11.7574 16.25 13H17.75C17.75 10.9289 16.0711 9.25 14 9.25V10.75ZM10 9.25C7.92893 9.25 6.25 10.9289 6.25 13H7.75C7.75 11.7574 8.75736 10.75 10 10.75V9.25ZM9.66459 13.6708L10.7702 14.2236L11.441 12.882L10.3354 12.3292L9.66459 13.6708ZM13.2298 14.2236L14.3354 13.6708L13.6646 12.3292L12.559 12.882L13.2298 14.2236ZM10.7702 14.2236C11.5444 14.6107 12.4556 14.6107 13.2298 14.2236L12.559 12.882C12.2071 13.0579 11.7929 13.0579 11.441 12.882L10.7702 14.2236Z" fill="#28303F"/>
</svg>
