<svg width="24" height="24" viewBox="0 0 24 24" fill="none" xmlns="http://www.w3.org/2000/svg">
<path d="M4.46986 7.02652L3.99311 6.44755H3.99311L4.46986 7.02652ZM9.46986 2.90935L8.99311 2.33037V2.33037L9.46986 2.90935ZM14.5301 2.90935L14.0534 3.48832L14.5301 2.90935ZM19.5301 7.02652L19.0534 7.6055V7.6055L19.5301 7.02652ZM10.5303 14.4697C10.2374 14.1768 9.76256 14.1768 9.46967 14.4697C9.17678 14.7626 9.17678 15.2374 9.46967 15.5303L10.5303 14.4697ZM12.7071 16.2929L12.1768 15.7626L12.7071 16.2929ZM14.5303 15.5303C14.8232 15.2374 14.8232 14.7626 14.5303 14.4697C14.2374 14.1768 13.7626 14.1768 13.4697 14.4697L14.5303 15.5303ZM11.25 16C11.25 16.4142 11.5858 16.75 12 16.75C12.4142 16.75 12.75 16.4142 12.75 16H11.25ZM12.75 9C12.75 8.58579 12.4142 8.25 12 8.25C11.5858 8.25 11.25 8.58579 11.25 9H12.75ZM20.25 10.1503V17.9668H21.75V10.1503H20.25ZM17 21.25H7V22.75H17V21.25ZM3.75 17.9668V10.1503H2.25V17.9668H3.75ZM4.94661 7.6055L9.94661 3.48832L8.99311 2.33037L3.99311 6.44755L4.94661 7.6055ZM14.0534 3.48832L19.0534 7.6055L20.0069 6.44755L15.0069 2.33037L14.0534 3.48832ZM9.94661 3.48832C11.1421 2.50389 12.8579 2.50389 14.0534 3.48832L15.0069 2.33037C13.2575 0.889874 10.7425 0.889878 8.99311 2.33037L9.94661 3.48832ZM7 21.25C5.2109 21.25 3.75 19.7859 3.75 17.9668H2.25C2.25 20.6027 4.37082 22.75 7 22.75V21.25ZM20.25 17.9668C20.25 19.7859 18.7891 21.25 17 21.25V22.75C19.6292 22.75 21.75 20.6027 21.75 17.9668H20.25ZM21.75 10.1503C21.75 8.71654 21.1111 7.35681 20.0069 6.44755L19.0534 7.6055C19.8096 8.22818 20.25 9.16221 20.25 10.1503H21.75ZM3.75 10.1503C3.75 9.16221 4.1904 8.22819 4.94661 7.6055L3.99311 6.44755C2.88889 7.35681 2.25 8.71654 2.25 10.1503H3.75ZM9.46967 15.5303L10.7626 16.8232L11.8232 15.7626L10.5303 14.4697L9.46967 15.5303ZM13.2374 16.8232L14.5303 15.5303L13.4697 14.4697L12.1768 15.7626L13.2374 16.8232ZM10.7626 16.8232C11.446 17.5066 12.554 17.5066 13.2374 16.8232L12.1768 15.7626C12.0791 15.8602 11.9209 15.8602 11.8232 15.7626L10.7626 16.8232ZM12.75 16V9H11.25V16H12.75Z" fill="#28303F"/>
</svg>
