<svg width="24" height="24" viewBox="0 0 24 24" fill="none" xmlns="http://www.w3.org/2000/svg">
<path d="M3.15251 7.19692L3.58013 7.81306H3.58013L3.15251 7.19692ZM9.54124 2.763L9.11361 2.14685V2.14685L9.54124 2.763ZM14.4588 2.763L14.8864 2.14685V2.14685L14.4588 2.763ZM20.8475 7.19691L20.4199 7.81306L20.8475 7.19691ZM2.81969 11.2448L2.30191 11.7874L2.30191 11.7874L2.81969 11.2448ZM21.1803 11.2448L20.6625 10.7022V10.7022L21.1803 11.2448ZM12 9L12.4799 8.42368C12.2019 8.19211 11.7981 8.19211 11.5201 8.42368L12 9ZM16.1804 21.25H7.81965V22.75H16.1804V21.25ZM3.58013 7.81306L9.96886 3.37914L9.11361 2.14685L2.72488 6.58077L3.58013 7.81306ZM14.0311 3.37914L20.4199 7.81306L21.2751 6.58077L14.8864 2.14685L14.0311 3.37914ZM19.6107 13.133V18.0108H21.1107V13.133H19.6107ZM4.3893 18.0108V13.133H2.8893V18.0108H4.3893ZM4.3893 13.133C4.3893 12.2143 4.00651 11.3407 3.33747 10.7022L2.30191 11.7874C2.68244 12.1505 2.8893 12.6354 2.8893 13.133H4.3893ZM20.6625 10.7022C19.9935 11.3407 19.6107 12.2143 19.6107 13.133H21.1107C21.1107 12.6354 21.3176 12.1505 21.6981 11.7874L20.6625 10.7022ZM9.96886 3.37914C11.1775 2.54029 12.8224 2.54029 14.0311 3.37914L14.8864 2.14685C13.1634 0.951051 10.8366 0.951051 9.11361 2.14685L9.96886 3.37914ZM7.81965 21.25C5.89166 21.25 4.3893 19.7671 4.3893 18.0108H2.8893C2.8893 20.6609 5.13015 22.75 7.81965 22.75V21.25ZM16.1804 22.75C18.8698 22.75 21.1107 20.6609 21.1107 18.0108H19.6107C19.6107 19.7671 18.1083 21.25 16.1804 21.25V22.75ZM20.4199 7.81306C21.4262 8.51149 21.53 9.87443 20.6625 10.7022L21.6981 11.7874C23.2624 10.2946 23.05 7.8126 21.2751 6.58077L20.4199 7.81306ZM2.72488 6.58077C0.949956 7.8126 0.737579 10.2946 2.30191 11.7874L3.33747 10.7022C2.47003 9.87443 2.57378 8.51149 3.58013 7.81306L2.72488 6.58077ZM16.25 14.4C16.25 13.6104 15.975 12.8383 15.6167 12.1582C15.2551 11.4719 14.7819 10.8292 14.3237 10.285C13.8637 9.73852 13.4058 9.27612 13.0638 8.95081C12.8923 8.7877 12.7487 8.65792 12.647 8.56804C12.5961 8.52307 12.5556 8.48802 12.5272 8.4637C12.513 8.45154 12.5018 8.44206 12.4939 8.43535C12.4899 8.432 12.4867 8.42934 12.4844 8.42739C12.4832 8.42642 12.4823 8.42562 12.4815 8.425C12.4812 8.42469 12.4808 8.42442 12.4806 8.4242C12.4804 8.42409 12.4803 8.42396 12.4802 8.42391C12.4801 8.42379 12.4799 8.42368 12 9C11.5201 9.57632 11.5199 9.57624 11.5199 9.57616C11.5198 9.57615 11.5198 9.57608 11.5197 9.57606C11.5197 9.57602 11.5197 9.57602 11.5197 9.57606C11.5198 9.57615 11.5202 9.57641 11.5207 9.57685C11.5217 9.57772 11.5236 9.57928 11.5262 9.58152C11.5315 9.586 11.54 9.59319 11.5514 9.60298C11.5743 9.62257 11.609 9.65257 11.6538 9.69216C11.7435 9.77138 11.8734 9.88873 12.03 10.0377C12.3442 10.3366 12.7613 10.7582 13.1763 11.251C13.5931 11.7461 13.9949 12.2981 14.2896 12.8574C14.5875 13.4228 14.75 13.947 14.75 14.4H16.25ZM12 9C11.5201 8.42368 11.5199 8.42379 11.5198 8.42391C11.5197 8.42396 11.5196 8.42409 11.5194 8.4242C11.5192 8.42442 11.5188 8.42469 11.5185 8.425C11.5177 8.42562 11.5168 8.42642 11.5156 8.42739C11.5133 8.42934 11.5101 8.432 11.5061 8.43535C11.4982 8.44206 11.487 8.45154 11.4728 8.4637C11.4444 8.48802 11.4039 8.52307 11.353 8.56804C11.2513 8.65792 11.1077 8.7877 10.9362 8.95081C10.5942 9.27612 10.1363 9.73852 9.67625 10.285C9.21807 10.8292 8.74493 11.4719 8.38335 12.1582C8.025 12.8383 7.75 13.6104 7.75 14.4H9.25C9.25 13.947 9.4125 13.4228 9.7104 12.8574C10.0051 12.2981 10.4069 11.7461 10.8237 11.251C11.2387 10.7582 11.6558 10.3366 11.97 10.0377C12.1266 9.88873 12.2565 9.77138 12.3462 9.69216C12.391 9.65257 12.4257 9.62257 12.4486 9.60298C12.46 9.59319 12.4685 9.586 12.4738 9.58152C12.4764 9.57928 12.4783 9.57772 12.4793 9.57685C12.4798 9.57641 12.4802 9.57615 12.4803 9.57606C12.4803 9.57602 12.4803 9.57602 12.4803 9.57606C12.4802 9.57608 12.4802 9.57615 12.4801 9.57616C12.4801 9.57624 12.4799 9.57632 12 9ZM7.75 14.4C7.75 15.8452 8.29397 16.9545 9.13245 17.6943C9.95446 18.4197 11.013 18.75 12 18.75V17.25C11.3302 17.25 10.6387 17.023 10.1249 16.5696C9.6276 16.1308 9.25 15.4401 9.25 14.4H7.75ZM12 18.75C12.987 18.75 14.0455 18.4197 14.8675 17.6943C15.706 16.9545 16.25 15.8452 16.25 14.4H14.75C14.75 15.4401 14.3724 16.1308 13.8751 16.5696C13.3613 17.023 12.6698 17.25 12 17.25V18.75Z" fill="#28303F"/>
</svg>
