<svg width="24" height="24" viewBox="0 0 24 24" fill="none" xmlns="http://www.w3.org/2000/svg">
<path d="M3.15251 7.19692L3.58013 7.81306H3.58013L3.15251 7.19692ZM9.54124 2.763L9.11361 2.14685V2.14685L9.54124 2.763ZM14.4588 2.763L14.8864 2.14685V2.14685L14.4588 2.763ZM20.8475 7.19691L20.4199 7.81306L20.8475 7.19691ZM2.81969 11.2448L2.30191 11.7874L2.30191 11.7874L2.81969 11.2448ZM21.1803 11.2448L20.6625 10.7022V10.7022L21.1803 11.2448ZM15.4619 11.6536L14.8223 12.0453V12.0453L15.4619 11.6536ZM15.8862 12.3464L16.5258 11.9547V11.9547L15.8862 12.3464ZM8.53807 16.3464L9.17768 15.9547L9.17768 15.9547L8.53807 16.3464ZM8.11383 15.6536L7.47422 16.0453L7.47422 16.0453L8.11383 15.6536ZM8.4244 14.5608L8.06581 13.902H8.06581L8.4244 14.5608ZM9.69713 16.6392L9.33855 15.9805L9.33854 15.9805L9.69713 16.6392ZM15.5756 13.4392L15.217 12.7805L15.217 12.7805L15.5756 13.4392ZM14.3029 11.3608L14.6615 12.0195L14.3029 11.3608ZM8.11382 12.3464L7.47421 11.9547L7.47421 11.9547L8.11382 12.3464ZM8.53806 11.6536L9.17767 12.0453L9.17767 12.0453L8.53806 11.6536ZM15.8862 15.6536L16.5258 16.0453L16.5258 16.0453L15.8862 15.6536ZM15.4619 16.3464L14.8223 15.9547L14.8223 15.9547L15.4619 16.3464ZM14.3029 16.6392L14.6615 15.9805L14.6614 15.9805L14.3029 16.6392ZM15.5756 14.5608L15.9342 13.902L15.9342 13.902L15.5756 14.5608ZM9.69712 11.3608L9.33853 12.0195L9.33853 12.0195L9.69712 11.3608ZM8.42439 13.4392L8.78297 12.7805H8.78297L8.42439 13.4392ZM14.2578 11.3853L13.8992 10.7266L13.8992 10.7266L14.2578 11.3853ZM14.2578 16.6147L13.8992 17.2734L13.8992 17.2734L14.2578 16.6147ZM9.74222 16.6147L10.1008 17.2734L10.1008 17.2734L9.74222 16.6147ZM9.74222 11.3853L10.1008 10.7266V10.7266L9.74222 11.3853ZM16.1804 21.25H7.81965V22.75H16.1804V21.25ZM3.58013 7.81306L9.96886 3.37914L9.11361 2.14685L2.72488 6.58077L3.58013 7.81306ZM14.0311 3.37914L20.4199 7.81306L21.2751 6.58077L14.8864 2.14685L14.0311 3.37914ZM19.6107 13.133V18.0108H21.1107V13.133H19.6107ZM4.3893 18.0108V13.133H2.8893V18.0108H4.3893ZM4.3893 13.133C4.3893 12.2143 4.00651 11.3407 3.33747 10.7022L2.30191 11.7874C2.68244 12.1505 2.8893 12.6354 2.8893 13.133H4.3893ZM20.6625 10.7022C19.9935 11.3407 19.6107 12.2143 19.6107 13.133H21.1107C21.1107 12.6354 21.3176 12.1505 21.6981 11.7874L20.6625 10.7022ZM9.96886 3.37914C11.1775 2.54029 12.8224 2.54029 14.0311 3.37914L14.8864 2.14685C13.1634 0.951051 10.8366 0.951051 9.11361 2.14685L9.96886 3.37914ZM7.81965 21.25C5.89166 21.25 4.3893 19.7671 4.3893 18.0108H2.8893C2.8893 20.6609 5.13015 22.75 7.81965 22.75V21.25ZM16.1804 22.75C18.8698 22.75 21.1107 20.6609 21.1107 18.0108H19.6107C19.6107 19.7671 18.1083 21.25 16.1804 21.25V22.75ZM20.4199 7.81306C21.4262 8.51149 21.53 9.87443 20.6625 10.7022L21.6981 11.7874C23.2624 10.2946 23.05 7.8126 21.2751 6.58077L20.4199 7.81306ZM2.72488 6.58077C0.949956 7.8126 0.737579 10.2946 2.30191 11.7874L3.33747 10.7022C2.47003 9.87443 2.57378 8.51149 3.58013 7.81306L2.72488 6.58077ZM11.5758 10.75H12.4242V9.25H11.5758V10.75ZM12.4242 17.25H11.5758V18.75H12.4242V17.25ZM11.5758 17.25C11.5343 17.25 11.5058 17.2346 11.4903 17.22C11.4826 17.2128 11.4794 17.207 11.4782 17.2044C11.4774 17.2026 11.4773 17.2017 11.4773 17.2H9.97726C9.97726 18.097 10.7351 18.75 11.5758 18.75V17.25ZM12.5227 17.2C12.5227 17.2017 12.5226 17.2026 12.5217 17.2044C12.5206 17.207 12.5173 17.2128 12.5097 17.22C12.4942 17.2346 12.4657 17.25 12.4242 17.25V18.75C13.2649 18.75 14.0227 18.097 14.0227 17.2H12.5227ZM12.4242 10.75C12.4657 10.75 12.4942 10.7654 12.5097 10.78C12.5173 10.7872 12.5206 10.793 12.5217 10.7956C12.5226 10.7974 12.5227 10.7983 12.5227 10.8H14.0227C14.0227 9.90299 13.2649 9.25 12.4242 9.25V10.75ZM11.5758 9.25C10.7351 9.25 9.97726 9.90299 9.97726 10.8H11.4773C11.4773 10.7983 11.4774 10.7974 11.4782 10.7956C11.4794 10.793 11.4826 10.7872 11.4903 10.78C11.5058 10.7654 11.5343 10.75 11.5758 10.75V9.25ZM14.8223 12.0453L15.2466 12.7381L16.5258 11.9547L16.1016 11.2619L14.8223 12.0453ZM9.17768 15.9547L8.75344 15.2619L7.47422 16.0453L7.89846 16.7381L9.17768 15.9547ZM8.75344 15.2619C8.75145 15.2587 8.75065 15.2566 8.75037 15.2558C8.75007 15.255 8.75003 15.2546 8.75003 15.2546C8.75002 15.2546 8.75 15.2544 8.75003 15.254C8.75006 15.2536 8.75016 15.2527 8.7505 15.2516C8.75115 15.2493 8.75282 15.2451 8.75698 15.2399C8.76087 15.2351 8.76846 15.2274 8.78298 15.2195L8.06581 13.902C7.30287 14.3174 7.00414 15.2776 7.47422 16.0453L8.75344 15.2619ZM9.33854 15.9805C9.30979 15.9962 9.27333 16.0012 9.23698 15.992C9.20075 15.9828 9.18399 15.9651 9.17768 15.9547L7.89846 16.7381C8.35131 17.4776 9.31616 17.7005 10.0557 17.298L9.33854 15.9805ZM15.2466 12.7381C15.2486 12.7413 15.2494 12.7434 15.2496 12.7442C15.2499 12.745 15.25 12.7454 15.25 12.7454C15.25 12.7454 15.25 12.7456 15.25 12.746C15.25 12.7464 15.2499 12.7473 15.2495 12.7484C15.2489 12.7507 15.2472 12.7549 15.243 12.7601C15.2391 12.7649 15.2316 12.7726 15.217 12.7805L15.9342 14.098C16.6971 13.6826 16.9959 12.7224 16.5258 11.9547L15.2466 12.7381ZM16.1016 11.2619C15.6487 10.5224 14.6839 10.2995 13.9443 10.702L14.6615 12.0195C14.6902 12.0038 14.7267 11.9988 14.763 12.008C14.7993 12.0172 14.816 12.0349 14.8223 12.0453L16.1016 11.2619ZM8.75343 12.7381L9.17767 12.0453L7.89845 11.2619L7.47421 11.9547L8.75343 12.7381ZM15.2466 15.2619L14.8223 15.9547L16.1015 16.7381L16.5258 16.0453L15.2466 15.2619ZM14.8223 15.9547C14.816 15.9651 14.7993 15.9828 14.763 15.992C14.7267 16.0012 14.6902 15.9962 14.6615 15.9805L13.9443 17.298C14.6838 17.7005 15.6487 17.4776 16.1015 16.7381L14.8223 15.9547ZM15.217 15.2195C15.2315 15.2274 15.2391 15.2351 15.243 15.2399C15.2472 15.2451 15.2488 15.2493 15.2495 15.2516C15.2498 15.2527 15.2499 15.2536 15.25 15.254C15.25 15.2544 15.25 15.2546 15.25 15.2546C15.25 15.2546 15.2499 15.255 15.2496 15.2558C15.2494 15.2566 15.2486 15.2587 15.2466 15.2619L16.5258 16.0453C16.9959 15.2776 16.6971 14.3174 15.9342 13.902L15.217 15.2195ZM9.17767 12.0453C9.18398 12.0349 9.20074 12.0172 9.23697 12.008C9.27332 11.9988 9.30978 12.0038 9.33853 12.0195L10.0557 10.702C9.31615 10.2995 8.3513 10.5224 7.89845 11.2619L9.17767 12.0453ZM7.47421 11.9547C7.00412 12.7224 7.30286 13.6826 8.0658 14.098L8.78297 12.7805C8.76845 12.7726 8.76086 12.7649 8.75697 12.7601C8.75281 12.7549 8.75114 12.7507 8.75049 12.7484C8.75015 12.7473 8.75005 12.7464 8.75001 12.746C8.74999 12.7456 8.75001 12.7454 8.75002 12.7454C8.75002 12.7454 8.75006 12.745 8.75036 12.7442C8.75064 12.7434 8.75143 12.7413 8.75343 12.7381L7.47421 11.9547ZM14.6164 12.044L14.6615 12.0195L13.9443 10.702L13.8992 10.7266L14.6164 12.044ZM14.6614 15.9805L14.6163 15.9559L13.8992 17.2734L13.9443 17.298L14.6614 15.9805ZM9.38364 15.956L9.33855 15.9805L10.0557 17.298L10.1008 17.2734L9.38364 15.956ZM9.33853 12.0195L9.38364 12.044L10.1008 10.7266L10.0557 10.702L9.33853 12.0195ZM9.97726 10.8C9.97726 10.7896 9.98078 10.773 9.99029 10.7569C9.9987 10.7427 10.0089 10.7337 10.0181 10.7282C10.0274 10.7226 10.0402 10.718 10.0567 10.7174C10.0754 10.7168 10.0917 10.7216 10.1008 10.7266L9.38364 12.044C10.3275 12.5578 11.4773 11.8746 11.4773 10.8H9.97726ZM8.0658 14.098C7.98821 14.0557 7.98818 13.9443 8.06581 13.902L8.78298 15.2195C9.74917 14.6935 9.74912 13.3064 8.78297 12.7805L8.0658 14.098ZM10.1008 17.2734C10.0917 17.2784 10.0754 17.2832 10.0567 17.2826C10.0402 17.282 10.0274 17.2774 10.0181 17.2719C10.0089 17.2663 9.9987 17.2573 9.99029 17.2431C9.98078 17.227 9.97726 17.2104 9.97726 17.2H11.4773C11.4773 16.1254 10.3275 15.4422 9.38364 15.956L10.1008 17.2734ZM14.0227 17.2C14.0227 17.2104 14.0192 17.227 14.0097 17.2431C14.0013 17.2573 13.9911 17.2663 13.9818 17.2718C13.9726 17.2774 13.9598 17.282 13.9433 17.2826C13.9246 17.2832 13.9083 17.2784 13.8992 17.2734L14.6164 15.956C13.6725 15.4422 12.5227 16.1254 12.5227 17.2H14.0227ZM15.9342 13.902C16.0118 13.9443 16.0118 14.0557 15.9342 14.098L15.217 12.7805C14.2509 13.3064 14.2508 14.6935 15.217 15.2195L15.9342 13.902ZM13.8992 10.7266C13.9083 10.7216 13.9246 10.7168 13.9433 10.7174C13.9598 10.718 13.9726 10.7227 13.9818 10.7282C13.9911 10.7337 14.0013 10.7427 14.0097 10.7569C14.0192 10.773 14.0227 10.7896 14.0227 10.8H12.5227C12.5227 11.8746 13.6725 12.5578 14.6164 12.044L13.8992 10.7266Z" fill="#28303F"/>
<path d="M12.75 14C12.75 14.4142 12.4142 14.75 12 14.75C11.5858 14.75 11.25 14.4142 11.25 14C11.25 13.5858 11.5858 13.25 12 13.25C12.4142 13.25 12.75 13.5858 12.75 14Z" fill="#28303F"/>
</svg>
