<svg width="24" height="24" viewBox="0 0 24 24" fill="none" xmlns="http://www.w3.org/2000/svg">
<path d="M4.46986 7.02652L3.99311 6.44755H3.99311L4.46986 7.02652ZM9.46986 2.90935L8.99311 2.33037V2.33037L9.46986 2.90935ZM14.5301 2.90935L14.0534 3.48832L14.5301 2.90935ZM19.5301 7.02652L19.0534 7.6055V7.6055L19.5301 7.02652ZM12 12L11.4697 12.5303C11.7626 12.8232 12.2374 12.8232 12.5303 12.5303L12 12ZM12.3094 11.6906L12.8397 12.221H12.8397L12.3094 11.6906ZM11.6906 11.6906L11.1603 12.221H11.1603L11.6906 11.6906ZM8.59705 14.7842L8.06672 15.3146L8.59705 14.7842ZM10.7626 16.9497L11.2929 16.4194L10.7626 16.9497ZM13.2374 16.9497L12.7071 16.4194V16.4194L13.2374 16.9497ZM15.403 14.7842L15.9333 15.3146V15.3146L15.403 14.7842ZM8.59705 11.6906L8.06672 11.1603L8.59705 11.6906ZM20.25 10.1503V17.9668H21.75V10.1503H20.25ZM17 21.25H7V22.75H17V21.25ZM3.75 17.9668V10.1503H2.25V17.9668H3.75ZM4.94661 7.6055L9.94661 3.48832L8.99311 2.33037L3.99311 6.44755L4.94661 7.6055ZM14.0534 3.48832L19.0534 7.6055L20.0069 6.44755L15.0069 2.33037L14.0534 3.48832ZM9.94661 3.48832C11.1421 2.50389 12.8579 2.50389 14.0534 3.48832L15.0069 2.33037C13.2575 0.889874 10.7425 0.889878 8.99311 2.33037L9.94661 3.48832ZM7 21.25C5.2109 21.25 3.75 19.7859 3.75 17.9668H2.25C2.25 20.6027 4.37082 22.75 7 22.75V21.25ZM20.25 17.9668C20.25 19.7859 18.7891 21.25 17 21.25V22.75C19.6292 22.75 21.75 20.6027 21.75 17.9668H20.25ZM21.75 10.1503C21.75 8.71654 21.1111 7.35681 20.0069 6.44755L19.0534 7.6055C19.8096 8.22818 20.25 9.16221 20.25 10.1503H21.75ZM3.75 10.1503C3.75 9.16221 4.1904 8.22819 4.94661 7.6055L3.99311 6.44755C2.88889 7.35681 2.25 8.71654 2.25 10.1503H3.75ZM12.5303 12.5303L12.8397 12.221L11.779 11.1603L11.4697 11.4697L12.5303 12.5303ZM11.1603 12.221L11.4697 12.5303L12.5303 11.4697L12.221 11.1603L11.1603 12.221ZM8.06672 15.3146L10.2322 17.4801L11.2929 16.4194L9.12738 14.2539L8.06672 15.3146ZM13.7678 17.4801L15.9333 15.3146L14.8726 14.2539L12.7071 16.4194L13.7678 17.4801ZM14.8726 12.221C15.434 12.7824 15.434 13.6925 14.8726 14.2539L15.9333 15.3146C17.0804 14.1674 17.0804 12.3075 15.9333 11.1603L14.8726 12.221ZM15.9333 11.1603C14.7861 10.0131 12.9262 10.0131 11.779 11.1603L12.8397 12.221C13.4011 11.6596 14.3112 11.6596 14.8726 12.221L15.9333 11.1603ZM9.12738 12.221C9.68876 11.6596 10.5989 11.6596 11.1603 12.221L12.221 11.1603C11.0738 10.0131 9.21388 10.0131 8.06672 11.1603L9.12738 12.221ZM10.2322 17.4801C11.2085 18.4564 12.7915 18.4564 13.7678 17.4801L12.7071 16.4194C12.3166 16.8099 11.6834 16.8099 11.2929 16.4194L10.2322 17.4801ZM8.06672 11.1603C6.91955 12.3075 6.91955 14.1674 8.06672 15.3146L9.12738 14.2539C8.566 13.6925 8.566 12.7823 9.12738 12.221L8.06672 11.1603Z" fill="#28303F"/>
</svg>
