<svg width="24" height="24" viewBox="0 0 24 24" fill="none" xmlns="http://www.w3.org/2000/svg">
<path d="M3.15251 7.19692L3.58013 7.81306H3.58013L3.15251 7.19692ZM9.54124 2.763L9.11361 2.14685V2.14685L9.54124 2.763ZM14.4588 2.763L14.8864 2.14685V2.14685L14.4588 2.763ZM20.8475 7.19691L20.4199 7.81306L20.8475 7.19691ZM2.81969 11.2448L2.30191 11.7874L2.30191 11.7874L2.81969 11.2448ZM21.1803 11.2448L20.6625 10.7022V10.7022L21.1803 11.2448ZM16.1804 21.25H7.81965V22.75H16.1804V21.25ZM3.58013 7.81306L9.96886 3.37914L9.11361 2.14685L2.72488 6.58077L3.58013 7.81306ZM14.0311 3.37914L20.4199 7.81306L21.2751 6.58077L14.8864 2.14685L14.0311 3.37914ZM19.6107 13.133V18.0108H21.1107V13.133H19.6107ZM4.3893 18.0108V13.133H2.8893V18.0108H4.3893ZM4.3893 13.133C4.3893 12.2143 4.00651 11.3407 3.33747 10.7022L2.30191 11.7874C2.68244 12.1505 2.8893 12.6354 2.8893 13.133H4.3893ZM20.6625 10.7022C19.9935 11.3407 19.6107 12.2143 19.6107 13.133H21.1107C21.1107 12.6354 21.3176 12.1505 21.6981 11.7874L20.6625 10.7022ZM9.96886 3.37914C11.1775 2.54029 12.8224 2.54029 14.0311 3.37914L14.8864 2.14685C13.1634 0.951051 10.8366 0.951051 9.11361 2.14685L9.96886 3.37914ZM7.81965 21.25C5.89166 21.25 4.3893 19.7671 4.3893 18.0108H2.8893C2.8893 20.6609 5.13015 22.75 7.81965 22.75V21.25ZM16.1804 22.75C18.8698 22.75 21.1107 20.6609 21.1107 18.0108H19.6107C19.6107 19.7671 18.1083 21.25 16.1804 21.25V22.75ZM20.4199 7.81306C21.4262 8.51149 21.53 9.87443 20.6625 10.7022L21.6981 11.7874C23.2624 10.2946 23.05 7.8126 21.2751 6.58077L20.4199 7.81306ZM2.72488 6.58077C0.949956 7.8126 0.737579 10.2946 2.30191 11.7874L3.33747 10.7022C2.47003 9.87443 2.57378 8.51149 3.58013 7.81306L2.72488 6.58077ZM10 12.75H14V11.25H10V12.75ZM15.25 14V16H16.75V14H15.25ZM14 17.25H10V18.75H14V17.25ZM8.75 16V14H7.25V16H8.75ZM10 17.25C9.30964 17.25 8.75 16.6904 8.75 16H7.25C7.25 17.5188 8.48122 18.75 10 18.75V17.25ZM15.25 16C15.25 16.6904 14.6904 17.25 14 17.25V18.75C15.5188 18.75 16.75 17.5188 16.75 16H15.25ZM14 12.75C14.6904 12.75 15.25 13.3096 15.25 14H16.75C16.75 12.4812 15.5188 11.25 14 11.25V12.75ZM10 11.25C8.48122 11.25 7.25 12.4812 7.25 14H8.75C8.75 13.3096 9.30964 12.75 10 12.75V11.25ZM10.75 12V11H9.25V12H10.75ZM13.25 11V12H14.75V11H13.25ZM12 9.75C12.6904 9.75 13.25 10.3096 13.25 11H14.75C14.75 9.48122 13.5188 8.25 12 8.25V9.75ZM10.75 11C10.75 10.3096 11.3096 9.75 12 9.75V8.25C10.4812 8.25 9.25 9.48122 9.25 11H10.75Z" fill="#28303F"/>
</svg>
