<svg width="24" height="24" viewBox="0 0 24 24" fill="none" xmlns="http://www.w3.org/2000/svg">
<path d="M3.15251 7.19692L3.58013 7.81306H3.58013L3.15251 7.19692ZM9.54124 2.763L9.11361 2.14685V2.14685L9.54124 2.763ZM14.4588 2.763L14.8864 2.14685V2.14685L14.4588 2.763ZM20.8475 7.19691L20.4199 7.81306L20.8475 7.19691ZM2.81969 11.2448L2.30191 11.7874L2.30191 11.7874L2.81969 11.2448ZM21.1803 11.2448L20.6625 10.7022V10.7022L21.1803 11.2448ZM16.1804 21.25H7.81965V22.75H16.1804V21.25ZM3.58013 7.81306L9.96886 3.37914L9.11361 2.14685L2.72488 6.58077L3.58013 7.81306ZM14.0311 3.37914L20.4199 7.81306L21.2751 6.58077L14.8864 2.14685L14.0311 3.37914ZM19.6107 13.133V18.0108H21.1107V13.133H19.6107ZM4.3893 18.0108V13.133H2.8893V18.0108H4.3893ZM4.3893 13.133C4.3893 12.2143 4.00651 11.3407 3.33747 10.7022L2.30191 11.7874C2.68244 12.1505 2.8893 12.6354 2.8893 13.133H4.3893ZM20.6625 10.7022C19.9935 11.3407 19.6107 12.2143 19.6107 13.133H21.1107C21.1107 12.6354 21.3176 12.1505 21.6981 11.7874L20.6625 10.7022ZM9.96886 3.37914C11.1775 2.54029 12.8224 2.54029 14.0311 3.37914L14.8864 2.14685C13.1634 0.951051 10.8366 0.951051 9.11361 2.14685L9.96886 3.37914ZM7.81965 21.25C5.89166 21.25 4.3893 19.7671 4.3893 18.0108H2.8893C2.8893 20.6609 5.13015 22.75 7.81965 22.75V21.25ZM16.1804 22.75C18.8698 22.75 21.1107 20.6609 21.1107 18.0108H19.6107C19.6107 19.7671 18.1083 21.25 16.1804 21.25V22.75ZM20.4199 7.81306C21.4262 8.51149 21.53 9.87443 20.6625 10.7022L21.6981 11.7874C23.2624 10.2946 23.05 7.8126 21.2751 6.58077L20.4199 7.81306ZM2.72488 6.58077C0.949956 7.8126 0.737579 10.2946 2.30191 11.7874L3.33747 10.7022C2.47003 9.87443 2.57378 8.51149 3.58013 7.81306L2.72488 6.58077ZM9 14.75C8.58579 14.75 8.25 14.4142 8.25 14H6.75C6.75 15.2426 7.75736 16.25 9 16.25V14.75ZM8.25 14C8.25 13.5858 8.58579 13.25 9 13.25V11.75C7.75736 11.75 6.75 12.7574 6.75 14H8.25ZM15.75 10.5C15.75 10.9142 15.4142 11.25 15 11.25V12.75C16.2426 12.75 17.25 11.7426 17.25 10.5H15.75ZM14.25 10.5C14.25 10.0858 14.5858 9.75 15 9.75V8.25C13.7574 8.25 12.75 9.25736 12.75 10.5H14.25ZM15 9.75C15.4142 9.75 15.75 10.0858 15.75 10.5H17.25C17.25 9.25736 16.2426 8.25 15 8.25V9.75ZM15.75 17.5C15.75 17.9142 15.4142 18.25 15 18.25V19.75C16.2426 19.75 17.25 18.7426 17.25 17.5H15.75ZM15 18.25C14.5858 18.25 14.25 17.9142 14.25 17.5H12.75C12.75 18.7426 13.7574 19.75 15 19.75V18.25ZM15 16.75C15.4142 16.75 15.75 17.0858 15.75 17.5H17.25C17.25 16.2574 16.2426 15.25 15 15.25V16.75ZM15 11.25C14.7075 11.25 14.4527 11.0827 14.3286 10.835L12.9875 11.5069C13.356 12.2424 14.118 12.75 15 12.75V11.25ZM14.3286 10.835C14.2785 10.7351 14.25 10.6219 14.25 10.5H12.75C12.75 10.8604 12.8353 11.2031 12.9875 11.5069L14.3286 10.835ZM14.25 17.5C14.25 17.3781 14.2785 17.2649 14.3286 17.165L12.9875 16.4931C12.8353 16.7969 12.75 17.1396 12.75 17.5H14.25ZM14.3286 17.165C14.4527 16.9173 14.7075 16.75 15 16.75V15.25C14.118 15.25 13.356 15.7576 12.9875 16.4931L14.3286 17.165ZM10.751 13.9576L14.0672 11.7996L13.249 10.5424L9.93285 12.7004L10.751 13.9576ZM9 13.25C9.29253 13.25 9.54733 13.4173 9.67138 13.665L11.0125 12.9931C10.644 12.2576 9.88196 11.75 9 11.75V13.25ZM9.67138 13.665C9.72146 13.7649 9.75 13.8781 9.75 14H11.25C11.25 13.6396 11.1647 13.2969 11.0125 12.9931L9.67138 13.665ZM9.93285 15.2996L13.249 17.4576L14.0672 16.2004L10.751 14.0424L9.93285 15.2996ZM9.75 14C9.75 14.1219 9.72146 14.2351 9.67138 14.335L11.0125 15.0069C11.1647 14.7031 11.25 14.3604 11.25 14H9.75ZM9.67138 14.335C9.54733 14.5827 9.29253 14.75 9 14.75V16.25C9.88196 16.25 10.644 15.7424 11.0125 15.0069L9.67138 14.335Z" fill="#28303F"/>
</svg>
