<svg width="24" height="24" viewBox="0 0 24 24" fill="none" xmlns="http://www.w3.org/2000/svg">
<path d="M12.75 17C12.75 17.4142 12.4142 17.75 12 17.75C11.5858 17.75 11.25 17.4142 11.25 17C11.25 16.5858 11.5858 16.25 12 16.25C12.4142 16.25 12.75 16.5858 12.75 17Z" fill="#28303F"/>
<path d="M15.7123 13.2877C16.0052 13.5806 16.48 13.5806 16.7729 13.2877C17.0658 12.9948 17.0658 12.5199 16.7729 12.227L15.7123 13.2877ZM9.34831 14.3483C9.05542 14.6412 9.05542 15.1161 9.34831 15.409C9.64121 15.7019 10.1161 15.7019 10.409 15.409L9.34831 14.3483ZM7.22699 12.227C6.9341 12.5199 6.9341 12.9948 7.22699 13.2877C7.51989 13.5806 7.99476 13.5806 8.28765 13.2877L7.22699 12.227ZM13.591 15.409C13.8838 15.7019 14.3587 15.7019 14.6516 15.409C14.9445 15.1161 14.9445 14.6412 14.6516 14.3483L13.591 15.409ZM3.15251 7.19692L3.58013 7.81306H3.58013L3.15251 7.19692ZM9.54124 2.763L9.11361 2.14685V2.14685L9.54124 2.763ZM14.4588 2.763L14.8864 2.14685V2.14685L14.4588 2.763ZM20.8475 7.19691L20.4199 7.81306L20.8475 7.19691ZM2.81969 11.2448L2.30191 11.7874L2.30191 11.7874L2.81969 11.2448ZM21.1803 11.2448L20.6625 10.7022V10.7022L21.1803 11.2448ZM12 11.75C13.4499 11.75 14.7614 12.3368 15.7123 13.2877L16.7729 12.227C15.5522 11.0063 13.8637 10.25 12 10.25V11.75ZM10.409 15.409C10.817 15.001 11.3784 14.75 12 14.75V13.25C10.9646 13.25 10.0261 13.6706 9.34831 14.3483L10.409 15.409ZM8.28765 13.2877C9.23854 12.3368 10.55 11.75 12 11.75V10.25C10.1362 10.25 8.44768 11.0063 7.22699 12.227L8.28765 13.2877ZM12 14.75C12.6215 14.75 13.183 15.001 13.591 15.409L14.6516 14.3483C13.9738 13.6706 13.0353 13.25 12 13.25V14.75ZM16.1804 21.25H7.81965V22.75H16.1804V21.25ZM3.58013 7.81306L9.96886 3.37914L9.11361 2.14685L2.72488 6.58077L3.58013 7.81306ZM14.0311 3.37914L20.4199 7.81306L21.2751 6.58077L14.8864 2.14685L14.0311 3.37914ZM19.6107 13.133V18.0108H21.1107V13.133H19.6107ZM4.3893 18.0108V13.133H2.8893V18.0108H4.3893ZM4.3893 13.133C4.3893 12.2143 4.00651 11.3407 3.33747 10.7022L2.30191 11.7874C2.68244 12.1505 2.8893 12.6354 2.8893 13.133H4.3893ZM20.6625 10.7022C19.9935 11.3407 19.6107 12.2143 19.6107 13.133H21.1107C21.1107 12.6354 21.3176 12.1505 21.6981 11.7874L20.6625 10.7022ZM9.96886 3.37914C11.1775 2.54029 12.8224 2.54029 14.0311 3.37914L14.8864 2.14685C13.1634 0.951051 10.8366 0.951051 9.11361 2.14685L9.96886 3.37914ZM7.81965 21.25C5.89166 21.25 4.3893 19.7671 4.3893 18.0108H2.8893C2.8893 20.6609 5.13015 22.75 7.81965 22.75V21.25ZM16.1804 22.75C18.8698 22.75 21.1107 20.6609 21.1107 18.0108H19.6107C19.6107 19.7671 18.1083 21.25 16.1804 21.25V22.75ZM20.4199 7.81306C21.4262 8.51149 21.53 9.87443 20.6625 10.7022L21.6981 11.7874C23.2624 10.2946 23.05 7.8126 21.2751 6.58077L20.4199 7.81306ZM2.72488 6.58077C0.949956 7.8126 0.737579 10.2946 2.30191 11.7874L3.33747 10.7022C2.47003 9.87443 2.57378 8.51149 3.58013 7.81306L2.72488 6.58077Z" fill="#28303F"/>
</svg>
