<svg width="24" height="24" viewBox="0 0 24 24" fill="none" xmlns="http://www.w3.org/2000/svg">
<path d="M4.46986 7.02652L3.99311 6.44755H3.99311L4.46986 7.02652ZM9.46986 2.90935L8.99311 2.33037V2.33037L9.46986 2.90935ZM14.5301 2.90935L14.0534 3.48832L14.5301 2.90935ZM19.5301 7.02652L19.0534 7.6055V7.6055L19.5301 7.02652ZM13.6 9.45C13.8485 9.11863 13.7814 8.64853 13.45 8.4C13.1186 8.15147 12.6485 8.21863 12.4 8.55L13.6 9.45ZM10 13L9.4 12.55C9.22955 12.7773 9.20214 13.0813 9.32918 13.3354C9.45622 13.5895 9.71592 13.75 10 13.75V13ZM14 13L14.6 13.45C14.7704 13.2227 14.7979 12.9187 14.6708 12.6646C14.5438 12.4105 14.2841 12.25 14 12.25V13ZM10.4 16.55C10.1515 16.8814 10.2186 17.3515 10.55 17.6C10.8814 17.8485 11.3515 17.7814 11.6 17.45L10.4 16.55ZM20.25 10.1503V17.9668H21.75V10.1503H20.25ZM17 21.25H7V22.75H17V21.25ZM3.75 17.9668V10.1503H2.25V17.9668H3.75ZM4.94661 7.6055L9.94661 3.48832L8.99311 2.33037L3.99311 6.44755L4.94661 7.6055ZM14.0534 3.48832L19.0534 7.6055L20.0069 6.44755L15.0069 2.33037L14.0534 3.48832ZM9.94661 3.48832C11.1421 2.50389 12.8579 2.50389 14.0534 3.48832L15.0069 2.33037C13.2575 0.889874 10.7425 0.889878 8.99311 2.33037L9.94661 3.48832ZM7 21.25C5.2109 21.25 3.75 19.7859 3.75 17.9668H2.25C2.25 20.6027 4.37082 22.75 7 22.75V21.25ZM20.25 17.9668C20.25 19.7859 18.7891 21.25 17 21.25V22.75C19.6292 22.75 21.75 20.6027 21.75 17.9668H20.25ZM21.75 10.1503C21.75 8.71654 21.1111 7.35681 20.0069 6.44755L19.0534 7.6055C19.8096 8.22818 20.25 9.16221 20.25 10.1503H21.75ZM3.75 10.1503C3.75 9.16221 4.1904 8.22819 4.94661 7.6055L3.99311 6.44755C2.88889 7.35681 2.25 8.71654 2.25 10.1503H3.75ZM12.4 8.55L9.4 12.55L10.6 13.45L13.6 9.45L12.4 8.55ZM10 13.75H14V12.25H10V13.75ZM13.4 12.55L10.4 16.55L11.6 17.45L14.6 13.45L13.4 12.55Z" fill="#28303F"/>
</svg>
