<svg width="24" height="24" viewBox="0 0 24 24" fill="none" xmlns="http://www.w3.org/2000/svg">
<path d="M4.46986 7.02652L3.99311 6.44755H3.99311L4.46986 7.02652ZM9.46986 2.90935L8.99311 2.33037V2.33037L9.46986 2.90935ZM14.5301 2.90935L14.0534 3.48832L14.5301 2.90935ZM19.5301 7.02652L19.0534 7.6055V7.6055L19.5301 7.02652ZM12 9L12.4799 8.42368C12.2019 8.19211 11.7981 8.19211 11.5201 8.42368L12 9ZM20.25 10.1503V17.9668H21.75V10.1503H20.25ZM17 21.25H7V22.75H17V21.25ZM3.75 17.9668V10.1503H2.25V17.9668H3.75ZM4.94661 7.6055L9.94661 3.48832L8.99311 2.33037L3.99311 6.44755L4.94661 7.6055ZM14.0534 3.48832L19.0534 7.6055L20.0069 6.44755L15.0069 2.33037L14.0534 3.48832ZM9.94661 3.48832C11.1421 2.50389 12.8579 2.50389 14.0534 3.48832L15.0069 2.33037C13.2575 0.889874 10.7425 0.889878 8.99311 2.33037L9.94661 3.48832ZM7 21.25C5.2109 21.25 3.75 19.7859 3.75 17.9668H2.25C2.25 20.6027 4.37082 22.75 7 22.75V21.25ZM20.25 17.9668C20.25 19.7859 18.7891 21.25 17 21.25V22.75C19.6292 22.75 21.75 20.6027 21.75 17.9668H20.25ZM21.75 10.1503C21.75 8.71654 21.1111 7.35681 20.0069 6.44755L19.0534 7.6055C19.8096 8.22818 20.25 9.16221 20.25 10.1503H21.75ZM3.75 10.1503C3.75 9.16221 4.1904 8.22819 4.94661 7.6055L3.99311 6.44755C2.88889 7.35681 2.25 8.71654 2.25 10.1503H3.75ZM16.25 14.4C16.25 13.6104 15.975 12.8383 15.6167 12.1582C15.2551 11.4719 14.7819 10.8292 14.3237 10.285C13.8637 9.73852 13.4058 9.27612 13.0638 8.95081C12.8923 8.7877 12.7487 8.65792 12.647 8.56804C12.5961 8.52307 12.5556 8.48802 12.5272 8.4637C12.513 8.45154 12.5018 8.44206 12.4939 8.43535C12.4899 8.432 12.4867 8.42934 12.4844 8.42739C12.4832 8.42642 12.4823 8.42562 12.4815 8.425C12.4812 8.42469 12.4808 8.42442 12.4806 8.4242C12.4804 8.42409 12.4803 8.42396 12.4802 8.42391C12.4801 8.42379 12.4799 8.42368 12 9C11.5201 9.57632 11.5199 9.57624 11.5199 9.57616C11.5198 9.57615 11.5198 9.57608 11.5197 9.57606C11.5197 9.57602 11.5197 9.57602 11.5197 9.57606C11.5198 9.57615 11.5202 9.57641 11.5207 9.57685C11.5217 9.57772 11.5236 9.57928 11.5262 9.58152C11.5315 9.586 11.54 9.59319 11.5514 9.60298C11.5743 9.62257 11.609 9.65257 11.6538 9.69216C11.7435 9.77138 11.8734 9.88873 12.03 10.0377C12.3442 10.3366 12.7613 10.7582 13.1763 11.251C13.5931 11.7461 13.9949 12.2981 14.2896 12.8574C14.5875 13.4228 14.75 13.947 14.75 14.4H16.25ZM12 9C11.5201 8.42368 11.5199 8.42379 11.5198 8.42391C11.5197 8.42396 11.5196 8.42409 11.5194 8.4242C11.5192 8.42442 11.5188 8.42469 11.5185 8.425C11.5177 8.42562 11.5168 8.42642 11.5156 8.42739C11.5133 8.42934 11.5101 8.432 11.5061 8.43535C11.4982 8.44206 11.487 8.45154 11.4728 8.4637C11.4444 8.48802 11.4039 8.52307 11.353 8.56804C11.2513 8.65792 11.1077 8.7877 10.9362 8.95081C10.5942 9.27612 10.1363 9.73852 9.67625 10.285C9.21807 10.8292 8.74493 11.4719 8.38335 12.1582C8.025 12.8383 7.75 13.6104 7.75 14.4H9.25C9.25 13.947 9.4125 13.4228 9.7104 12.8574C10.0051 12.2981 10.4069 11.7461 10.8237 11.251C11.2387 10.7582 11.6558 10.3366 11.97 10.0377C12.1266 9.88873 12.2565 9.77138 12.3462 9.69216C12.391 9.65257 12.4257 9.62257 12.4486 9.60298C12.46 9.59319 12.4685 9.586 12.4738 9.58152C12.4764 9.57928 12.4783 9.57772 12.4793 9.57685C12.4798 9.57641 12.4802 9.57615 12.4803 9.57606C12.4803 9.57602 12.4803 9.57602 12.4803 9.57606C12.4802 9.57608 12.4802 9.57615 12.4801 9.57616C12.4801 9.57624 12.4799 9.57632 12 9ZM7.75 14.4C7.75 15.8452 8.29397 16.9545 9.13245 17.6943C9.95446 18.4197 11.013 18.75 12 18.75V17.25C11.3302 17.25 10.6387 17.023 10.1249 16.5696C9.6276 16.1308 9.25 15.4401 9.25 14.4H7.75ZM12 18.75C12.987 18.75 14.0455 18.4197 14.8675 17.6943C15.706 16.9545 16.25 15.8452 16.25 14.4H14.75C14.75 15.4401 14.3724 16.1308 13.8751 16.5696C13.3613 17.023 12.6698 17.25 12 17.25V18.75Z" fill="#28303F"/>
</svg>
