<svg width="24" height="24" viewBox="0 0 24 24" fill="none" xmlns="http://www.w3.org/2000/svg">
<path d="M3.15251 7.19692L3.58013 7.81306H3.58013L3.15251 7.19692ZM9.54124 2.763L9.11361 2.14685V2.14685L9.54124 2.763ZM14.4588 2.763L14.8864 2.14685V2.14685L14.4588 2.763ZM20.8475 7.19691L20.4199 7.81306L20.8475 7.19691ZM2.81969 11.2448L2.30191 11.7874L2.30191 11.7874L2.81969 11.2448ZM21.1803 11.2448L20.6625 10.7022V10.7022L21.1803 11.2448ZM12 19L11.5201 19.5763C11.7981 19.8079 12.2019 19.8079 12.4799 19.5763L12 19ZM16.1804 21.25H7.81965V22.75H16.1804V21.25ZM3.58013 7.81306L9.96886 3.37914L9.11361 2.14685L2.72488 6.58077L3.58013 7.81306ZM14.0311 3.37914L20.4199 7.81306L21.2751 6.58077L14.8864 2.14685L14.0311 3.37914ZM19.6107 13.133V18.0108H21.1107V13.133H19.6107ZM4.3893 18.0108V13.133H2.8893V18.0108H4.3893ZM4.3893 13.133C4.3893 12.2143 4.00651 11.3407 3.33747 10.7022L2.30191 11.7874C2.68244 12.1505 2.8893 12.6354 2.8893 13.133H4.3893ZM20.6625 10.7022C19.9935 11.3407 19.6107 12.2143 19.6107 13.133H21.1107C21.1107 12.6354 21.3176 12.1505 21.6981 11.7874L20.6625 10.7022ZM9.96886 3.37914C11.1775 2.54029 12.8224 2.54029 14.0311 3.37914L14.8864 2.14685C13.1634 0.951051 10.8366 0.951051 9.11361 2.14685L9.96886 3.37914ZM7.81965 21.25C5.89166 21.25 4.3893 19.7671 4.3893 18.0108H2.8893C2.8893 20.6609 5.13015 22.75 7.81965 22.75V21.25ZM16.1804 22.75C18.8698 22.75 21.1107 20.6609 21.1107 18.0108H19.6107C19.6107 19.7671 18.1083 21.25 16.1804 21.25V22.75ZM20.4199 7.81306C21.4262 8.51149 21.53 9.87443 20.6625 10.7022L21.6981 11.7874C23.2624 10.2946 23.05 7.8126 21.2751 6.58077L20.4199 7.81306ZM2.72488 6.58077C0.949956 7.8126 0.737579 10.2946 2.30191 11.7874L3.33747 10.7022C2.47003 9.87443 2.57378 8.51149 3.58013 7.81306L2.72488 6.58077ZM14.75 13.6C14.75 14.053 14.5875 14.5772 14.2896 15.1426C13.9949 15.7019 13.5931 16.2539 13.1763 16.749C12.7613 17.2418 12.3442 17.6634 12.03 17.9623C11.8734 18.1113 11.7435 18.2286 11.6538 18.3078C11.609 18.3474 11.5743 18.3774 11.5514 18.397C11.54 18.4068 11.5315 18.414 11.5262 18.4185C11.5236 18.4207 11.5217 18.4223 11.5207 18.4232C11.5202 18.4236 11.5198 18.4238 11.5197 18.4239C11.5197 18.424 11.5197 18.424 11.5197 18.4239C11.5198 18.4239 11.5198 18.4239 11.5199 18.4238C11.5199 18.4238 11.5201 18.4237 12 19C12.4799 19.5763 12.4801 19.5762 12.4802 19.5761C12.4803 19.576 12.4804 19.5759 12.4806 19.5758C12.4808 19.5756 12.4812 19.5753 12.4815 19.575C12.4823 19.5744 12.4832 19.5736 12.4844 19.5726C12.4867 19.5707 12.4899 19.568 12.4939 19.5646C12.5018 19.5579 12.513 19.5485 12.5272 19.5363C12.5556 19.512 12.5961 19.4769 12.647 19.432C12.7487 19.3421 12.8923 19.2123 13.0638 19.0492C13.4058 18.7239 13.8637 18.2615 14.3237 17.715C14.7819 17.1708 15.2551 16.5281 15.6167 15.8418C15.975 15.1617 16.25 14.3896 16.25 13.6H14.75ZM12 19C12.4799 18.4237 12.4801 18.4238 12.4801 18.4238C12.4802 18.4239 12.4802 18.4239 12.4803 18.4239C12.4803 18.424 12.4803 18.424 12.4803 18.4239C12.4802 18.4238 12.4798 18.4236 12.4793 18.4232C12.4783 18.4223 12.4764 18.4207 12.4738 18.4185C12.4685 18.414 12.46 18.4068 12.4486 18.397C12.4257 18.3774 12.391 18.3474 12.3462 18.3078C12.2565 18.2286 12.1266 18.1113 11.97 17.9623C11.6558 17.6634 11.2387 17.2418 10.8237 16.749C10.4069 16.2539 10.0051 15.7019 9.7104 15.1426C9.4125 14.5772 9.25 14.053 9.25 13.6H7.75C7.75 14.3896 8.025 15.1617 8.38335 15.8418C8.74493 16.5281 9.21807 17.1708 9.67625 17.715C10.1363 18.2615 10.5942 18.7239 10.9362 19.0492C11.1077 19.2123 11.2513 19.3421 11.353 19.432C11.4039 19.4769 11.4444 19.512 11.4728 19.5363C11.487 19.5485 11.4982 19.5579 11.5061 19.5646C11.5101 19.568 11.5133 19.5707 11.5156 19.5726C11.5168 19.5736 11.5177 19.5744 11.5185 19.575C11.5188 19.5753 11.5192 19.5756 11.5194 19.5758C11.5196 19.5759 11.5197 19.576 11.5198 19.5761C11.5199 19.5762 11.5201 19.5763 12 19ZM9.25 13.6C9.25 12.5599 9.6276 11.8692 10.1249 11.4304C10.6387 10.977 11.3302 10.75 12 10.75V9.25C11.013 9.25 9.95446 9.58033 9.13245 10.3056C8.29397 11.0455 7.75 12.1548 7.75 13.6H9.25ZM12 10.75C12.6698 10.75 13.3613 10.977 13.8751 11.4304C14.3724 11.8692 14.75 12.5599 14.75 13.6H16.25C16.25 12.1548 15.706 11.0455 14.8675 10.3056C14.0455 9.58033 12.987 9.25 12 9.25V10.75Z" fill="#28303F"/>
<circle cx="12" cy="13" r="1" fill="#28303F"/>
</svg>
