<svg width="24" height="24" viewBox="0 0 24 24" fill="none" xmlns="http://www.w3.org/2000/svg">
<path d="M4.46986 7.02652L3.99311 6.44755H3.99311L4.46986 7.02652ZM9.46986 2.90935L8.99311 2.33037V2.33037L9.46986 2.90935ZM14.5301 2.90935L14.0534 3.48832L14.5301 2.90935ZM19.5301 7.02652L19.0534 7.6055V7.6055L19.5301 7.02652ZM13.5046 12.3131C13.8156 12.5867 14.2895 12.5564 14.5631 12.2454C14.8367 11.9344 14.8064 11.4605 14.4954 11.1869L13.5046 12.3131ZM14.4954 16.8131C14.8064 16.5395 14.8367 16.0656 14.5631 15.7546C14.2895 15.4436 13.8156 15.4133 13.5046 15.6869L14.4954 16.8131ZM20.25 10.1503V17.9668H21.75V10.1503H20.25ZM17 21.25H7V22.75H17V21.25ZM3.75 17.9668V10.1503H2.25V17.9668H3.75ZM4.94661 7.6055L9.94661 3.48832L8.99311 2.33037L3.99311 6.44755L4.94661 7.6055ZM14.0534 3.48832L19.0534 7.6055L20.0069 6.44755L15.0069 2.33037L14.0534 3.48832ZM9.94661 3.48832C11.1421 2.50389 12.8579 2.50389 14.0534 3.48832L15.0069 2.33037C13.2575 0.889874 10.7425 0.889878 8.99311 2.33037L9.94661 3.48832ZM7 21.25C5.2109 21.25 3.75 19.7859 3.75 17.9668H2.25C2.25 20.6027 4.37082 22.75 7 22.75V21.25ZM20.25 17.9668C20.25 19.7859 18.7891 21.25 17 21.25V22.75C19.6292 22.75 21.75 20.6027 21.75 17.9668H20.25ZM21.75 10.1503C21.75 8.71654 21.1111 7.35681 20.0069 6.44755L19.0534 7.6055C19.8096 8.22818 20.25 9.16221 20.25 10.1503H21.75ZM3.75 10.1503C3.75 9.16221 4.1904 8.22819 4.94661 7.6055L3.99311 6.44755C2.88889 7.35681 2.25 8.71654 2.25 10.1503H3.75ZM12.0094 16.25C10.7594 16.25 9.75 15.2404 9.75 14H8.25C8.25 16.0733 9.93536 17.75 12.0094 17.75V16.25ZM9.75 14C9.75 12.7596 10.7594 11.75 12.0094 11.75V10.25C9.93536 10.25 8.25 11.9267 8.25 14H9.75ZM12.0094 11.75C12.5836 11.75 13.1059 11.9623 13.5046 12.3131L14.4954 11.1869C13.8331 10.6041 12.9616 10.25 12.0094 10.25V11.75ZM13.5046 15.6869C13.1059 16.0377 12.5836 16.25 12.0094 16.25V17.75C12.9616 17.75 13.8331 17.3959 14.4954 16.8131L13.5046 15.6869Z" fill="#28303F"/>
<path d="M16.5 9.5C16.5 10.0523 16.0523 10.5 15.5 10.5C14.9477 10.5 14.5 10.0523 14.5 9.5C14.5 8.94772 14.9477 8.5 15.5 8.5C16.0523 8.5 16.5 8.94772 16.5 9.5Z" fill="#28303F"/>
</svg>
