<svg width="24" height="24" viewBox="0 0 24 24" fill="none" xmlns="http://www.w3.org/2000/svg">
<path d="M4.46986 7.02652L3.99311 6.44755H3.99311L4.46986 7.02652ZM9.46986 2.90935L8.99311 2.33037V2.33037L9.46986 2.90935ZM14.5301 2.90935L14.0534 3.48832L14.5301 2.90935ZM19.5301 7.02652L19.0534 7.6055V7.6055L19.5301 7.02652ZM7.67082 10.6646C7.48558 10.2941 7.03507 10.1439 6.66459 10.3292C6.29411 10.5144 6.14394 10.9649 6.32918 11.3354L7.67082 10.6646ZM9.10557 15.2111L9.77639 14.8757L9.10557 15.2111ZM10.8944 15.2111L10.2236 14.8757L10.8944 15.2111ZM12.1056 12.7889L12.7764 13.1243L12.1056 12.7889ZM13.8944 12.7889L13.2236 13.1243L13.8944 12.7889ZM16 17V17.75C16.2841 17.75 16.5438 17.5895 16.6708 17.3354L16 17ZM17.6708 15.3354C17.8561 14.9649 17.7059 14.5144 17.3354 14.3292C16.9649 14.1439 16.5144 14.2941 16.3292 14.6646L17.6708 15.3354ZM14 16.25C13.5858 16.25 13.25 16.5858 13.25 17C13.25 17.4142 13.5858 17.75 14 17.75V16.25ZM20.25 10.1503V17.9668H21.75V10.1503H20.25ZM17 21.25H7V22.75H17V21.25ZM3.75 17.9668V10.1503H2.25V17.9668H3.75ZM4.94661 7.6055L9.94661 3.48832L8.99311 2.33037L3.99311 6.44755L4.94661 7.6055ZM14.0534 3.48832L19.0534 7.6055L20.0069 6.44755L15.0069 2.33037L14.0534 3.48832ZM9.94661 3.48832C11.1421 2.50389 12.8579 2.50389 14.0534 3.48832L15.0069 2.33037C13.2575 0.889874 10.7425 0.889878 8.99311 2.33037L9.94661 3.48832ZM7 21.25C5.2109 21.25 3.75 19.7859 3.75 17.9668H2.25C2.25 20.6027 4.37082 22.75 7 22.75V21.25ZM20.25 17.9668C20.25 19.7859 18.7891 21.25 17 21.25V22.75C19.6292 22.75 21.75 20.6027 21.75 17.9668H20.25ZM21.75 10.1503C21.75 8.71654 21.1111 7.35681 20.0069 6.44755L19.0534 7.6055C19.8096 8.22818 20.25 9.16221 20.25 10.1503H21.75ZM3.75 10.1503C3.75 9.16221 4.1904 8.22819 4.94661 7.6055L3.99311 6.44755C2.88889 7.35681 2.25 8.71654 2.25 10.1503H3.75ZM6.32918 11.3354L8.43475 15.5466L9.77639 14.8757L7.67082 10.6646L6.32918 11.3354ZM11.5652 15.5466L12.7764 13.1243L11.4348 12.4534L10.2236 14.8757L11.5652 15.5466ZM13.2236 13.1243L15.3292 17.3354L16.6708 16.6646L14.5652 12.4534L13.2236 13.1243ZM16.6708 17.3354L17.6708 15.3354L16.3292 14.6646L15.3292 16.6646L16.6708 17.3354ZM16 16.25H14V17.75H16V16.25ZM12.7764 13.1243C12.8685 12.94 13.1315 12.94 13.2236 13.1243L14.5652 12.4534C13.9203 11.1636 12.0797 11.1636 11.4348 12.4534L12.7764 13.1243ZM8.43475 15.5466C9.07967 16.8364 10.9203 16.8364 11.5652 15.5466L10.2236 14.8757C10.1315 15.06 9.86852 15.06 9.77639 14.8757L8.43475 15.5466Z" fill="#28303F"/>
</svg>
