<svg width="24" height="24" viewBox="0 0 24 24" fill="none" xmlns="http://www.w3.org/2000/svg">
<path d="M3.15251 7.19692L3.58013 7.81306H3.58013L3.15251 7.19692ZM9.54124 2.763L9.11361 2.14685V2.14685L9.54124 2.763ZM14.4588 2.763L14.8864 2.14685V2.14685L14.4588 2.763ZM20.8475 7.19691L20.4199 7.81306L20.8475 7.19691ZM2.81969 11.2448L2.30191 11.7874L2.30191 11.7874L2.81969 11.2448ZM21.1803 11.2448L20.6625 10.7022V10.7022L21.1803 11.2448ZM7.98614 15.138L8.49909 15.6852L7.98614 15.138ZM16.0139 15.138L15.5009 15.6852L16.0139 15.138ZM11 18.25C10.5858 18.25 10.25 18.5858 10.25 19C10.25 19.4142 10.5858 19.75 11 19.75V18.25ZM13 19.75C13.4142 19.75 13.75 19.4142 13.75 19C13.75 18.5858 13.4142 18.25 13 18.25V19.75ZM16.1804 21.25H7.81965V22.75H16.1804V21.25ZM3.58013 7.81306L9.96886 3.37914L9.11361 2.14685L2.72488 6.58077L3.58013 7.81306ZM14.0311 3.37914L20.4199 7.81306L21.2751 6.58077L14.8864 2.14685L14.0311 3.37914ZM19.6107 13.133V18.0108H21.1107V13.133H19.6107ZM4.3893 18.0108V13.133H2.8893V18.0108H4.3893ZM4.3893 13.133C4.3893 12.2143 4.00651 11.3407 3.33747 10.7022L2.30191 11.7874C2.68244 12.1505 2.8893 12.6354 2.8893 13.133H4.3893ZM20.6625 10.7022C19.9935 11.3407 19.6107 12.2143 19.6107 13.133H21.1107C21.1107 12.6354 21.3176 12.1505 21.6981 11.7874L20.6625 10.7022ZM9.96886 3.37914C11.1775 2.54029 12.8224 2.54029 14.0311 3.37914L14.8864 2.14685C13.1634 0.951051 10.8366 0.951051 9.11361 2.14685L9.96886 3.37914ZM7.81965 21.25C5.89166 21.25 4.3893 19.7671 4.3893 18.0108H2.8893C2.8893 20.6609 5.13015 22.75 7.81965 22.75V21.25ZM16.1804 22.75C18.8698 22.75 21.1107 20.6609 21.1107 18.0108H19.6107C19.6107 19.7671 18.1083 21.25 16.1804 21.25V22.75ZM20.4199 7.81306C21.4262 8.51149 21.53 9.87443 20.6625 10.7022L21.6981 11.7874C23.2624 10.2946 23.05 7.8126 21.2751 6.58077L20.4199 7.81306ZM2.72488 6.58077C0.949956 7.8126 0.737579 10.2946 2.30191 11.7874L3.33747 10.7022C2.47003 9.87443 2.57378 8.51149 3.58013 7.81306L2.72488 6.58077ZM15.2775 16.25H8.72246V17.75H15.2775V16.25ZM14.5833 12.3333V13.5672H16.0833V12.3333H14.5833ZM9.41667 13.5672V12.3333H7.91667V13.5672H9.41667ZM8.49909 15.6852C9.08452 15.1363 9.41667 14.3696 9.41667 13.5672H7.91667C7.91667 13.955 7.75613 14.3256 7.47318 14.5908L8.49909 15.6852ZM14.5833 13.5672C14.5833 14.3696 14.9155 15.1363 15.5009 15.6852L16.5268 14.5908C16.2439 14.3256 16.0833 13.955 16.0833 13.5672H14.5833ZM8.72246 16.25C8.42639 16.25 8.2831 15.8876 8.49909 15.6852L7.47318 14.5908C6.26516 15.7234 7.06659 17.75 8.72246 17.75V16.25ZM15.2775 17.75C16.9334 17.75 17.7348 15.7234 16.5268 14.5908L15.5009 15.6852C15.7169 15.8876 15.5736 16.25 15.2775 16.25V17.75ZM16.0833 12.3333C16.0833 10.0782 14.2552 8.25 12 8.25V9.75C13.4267 9.75 14.5833 10.9066 14.5833 12.3333H16.0833ZM9.41667 12.3333C9.41667 10.9066 10.5733 9.75 12 9.75V8.25C9.74484 8.25 7.91667 10.0782 7.91667 12.3333H9.41667ZM11 19.75H13V18.25H11V19.75Z" fill="#28303F"/>
</svg>
