<svg width="24" height="24" viewBox="0 0 24 24" fill="none" xmlns="http://www.w3.org/2000/svg">
<path d="M12.75 18C12.75 18.4142 12.4142 18.75 12 18.75C11.5858 18.75 11.25 18.4142 11.25 18C11.25 17.5858 11.5858 17.25 12 17.25C12.4142 17.25 12.75 17.5858 12.75 18Z" fill="#28303F"/>
<path d="M15.7123 14.2877C16.0052 14.5806 16.48 14.5806 16.7729 14.2877C17.0658 13.9948 17.0658 13.5199 16.7729 13.227L15.7123 14.2877ZM9.34831 15.3484C9.05542 15.6413 9.05542 16.1161 9.34831 16.409C9.64121 16.7019 10.1161 16.7019 10.409 16.409L9.34831 15.3484ZM7.22699 13.227C6.9341 13.5199 6.9341 13.9948 7.22699 14.2877C7.51989 14.5806 7.99476 14.5806 8.28765 14.2877L7.22699 13.227ZM13.591 16.409C13.8838 16.7019 14.3587 16.7019 14.6516 16.409C14.9445 16.1161 14.9445 15.6413 14.6516 15.3484L13.591 16.409ZM13.2155 3.06654L12.707 3.61784L13.2155 3.06654ZM10.7845 3.06654L10.276 2.51524V2.51524L10.7845 3.06654ZM12 12.75C13.4499 12.75 14.7614 13.3368 15.7123 14.2877L16.7729 13.227C15.5522 12.0064 13.8637 11.25 12 11.25V12.75ZM10.409 16.409C10.817 16.001 11.3784 15.75 12 15.75V14.25C10.9646 14.25 10.0261 14.6706 9.34831 15.3484L10.409 16.409ZM8.28765 14.2877C9.23854 13.3368 10.55 12.75 12 12.75V11.25C10.1362 11.25 8.44768 12.0064 7.22699 13.227L8.28765 14.2877ZM12 15.75C12.6215 15.75 13.183 16.001 13.591 16.409L14.6516 15.3484C13.9738 14.6706 13.0353 14.25 12 14.25V15.75ZM20.75 14C20.75 11.6735 19.4946 9.29391 18.0544 7.30612C16.597 5.29445 14.8608 3.56375 13.724 2.51524L12.707 3.61784C13.8084 4.6337 15.4645 6.28805 16.8397 8.18618C18.2322 10.1082 19.25 12.1631 19.25 14H20.75ZM10.276 2.51524C9.13918 3.56375 7.40305 5.29445 5.94557 7.30612C4.50539 9.29391 3.25 11.6735 3.25 14H4.75C4.75 12.1631 5.76776 10.1082 7.16027 8.18618C8.53548 6.28805 10.1916 4.6337 11.293 3.61784L10.276 2.51524ZM3.25 14C3.25 16.9715 4.39225 19.1826 6.09151 20.6403C7.77267 22.0825 9.95342 22.75 12 22.75V21.25C10.2595 21.25 8.44024 20.6789 7.06817 19.5018C5.7142 18.3403 4.75 16.5514 4.75 14H3.25ZM12 22.75C14.0466 22.75 16.2273 22.0825 17.9085 20.6403C19.6077 19.1826 20.75 16.9715 20.75 14H19.25C19.25 16.5514 18.2858 18.3403 16.9318 19.5018C15.5598 20.6789 13.7405 21.25 12 21.25V22.75ZM13.724 2.51524C12.7428 1.61015 11.2572 1.61015 10.276 2.51524L11.293 3.61784C11.6998 3.24262 12.3002 3.24262 12.707 3.61784L13.724 2.51524Z" fill="#28303F"/>
</svg>
