<svg width="24" height="24" viewBox="0 0 24 24" fill="none" xmlns="http://www.w3.org/2000/svg">
<path d="M19 18V10" stroke="#28303F" stroke-width="1.5" stroke-linecap="round" stroke-linejoin="round"/>
<path d="M17.7123 4.28769C18.0052 4.58058 18.4801 4.58058 18.773 4.28769C19.0659 3.9948 19.0659 3.51992 18.773 3.22703L17.7123 4.28769ZM11.3484 5.34835C11.0555 5.64124 11.0555 6.11612 11.3484 6.40901C11.6412 6.7019 12.1161 6.7019 12.409 6.40901L11.3484 5.34835ZM9.22703 3.22703C8.93414 3.51992 8.93414 3.9948 9.22703 4.28769C9.51992 4.58058 9.9948 4.58058 10.2877 4.28769L9.22703 3.22703ZM15.591 6.40901C15.8839 6.7019 16.3588 6.7019 16.6517 6.40901C16.9445 6.11612 16.9445 5.64124 16.6517 5.34835L15.591 6.40901ZM9 10.8198H8.25H9ZM9.80388 9.83922L9.95097 10.5747L9.80388 9.83922ZM10.1961 13.7608L10.3432 14.4962L10.1961 13.7608ZM9 12.7802H9.75H9ZM19 11.1802H19.75H19ZM18.1961 12.1608L18.049 11.4253L18.1961 12.1608ZM19 9.2198H18.25H19ZM17.8039 8.23922L17.6568 7.50379L17.8039 8.23922ZM9.75 12C9.75 11.5858 9.41421 11.25 9 11.25C8.58579 11.25 8.25 11.5858 8.25 12H9.75ZM18.25 18C18.25 18.6904 17.6904 19.25 17 19.25V20.75C18.5188 20.75 19.75 19.5188 19.75 18H18.25ZM17 19.25C16.3096 19.25 15.75 18.6904 15.75 18H14.25C14.25 19.5188 15.4812 20.75 17 20.75V19.25ZM15.75 18C15.75 17.3096 16.3096 16.75 17 16.75V15.25C15.4812 15.25 14.25 16.4812 14.25 18H15.75ZM17 16.75C17.6904 16.75 18.25 17.3096 18.25 18H19.75C19.75 16.4812 18.5188 15.25 17 15.25V16.75ZM8.25 20C8.25 20.6904 7.69036 21.25 7 21.25V22.75C8.51878 22.75 9.75 21.5188 9.75 20H8.25ZM7 21.25C6.30964 21.25 5.75 20.6904 5.75 20H4.25C4.25 21.5188 5.48122 22.75 7 22.75V21.25ZM5.75 20C5.75 19.3096 6.30964 18.75 7 18.75V17.25C5.48122 17.25 4.25 18.4812 4.25 20H5.75ZM7 18.75C7.69036 18.75 8.25 19.3096 8.25 20H9.75C9.75 18.4812 8.51878 17.25 7 17.25V18.75ZM14 2.75C15.45 2.75 16.7614 3.3368 17.7123 4.28769L18.773 3.22703C17.5523 2.00634 15.8638 1.25 14 1.25V2.75ZM12.409 6.40901C12.817 6.00102 13.3785 5.75 14 5.75V4.25C12.9647 4.25 12.0261 4.67055 11.3484 5.34835L12.409 6.40901ZM10.2877 4.28769C11.2386 3.3368 12.55 2.75 14 2.75V1.25C12.1362 1.25 10.4477 2.00634 9.22703 3.22703L10.2877 4.28769ZM14 5.75C14.6215 5.75 15.183 6.00102 15.591 6.40901L16.6517 5.34835C15.9739 4.67055 15.0353 4.25 14 4.25V5.75ZM18.25 9.2198V11.1802H19.75V9.2198H18.25ZM18.049 11.4253L10.049 13.0253L10.3432 14.4962L18.3432 12.8962L18.049 11.4253ZM9.75 12.7802V10.8198H8.25V12.7802H9.75ZM9.95097 10.5747L17.951 8.97466L17.6568 7.50379L9.6568 9.10379L9.95097 10.5747ZM9.75 10.8198C9.75 10.7006 9.83411 10.598 9.95097 10.5747L9.6568 9.10379C8.83881 9.26739 8.25 9.98561 8.25 10.8198H9.75ZM10.049 13.0253C9.89433 13.0563 9.75 12.938 9.75 12.7802H8.25C8.25 13.8845 9.26032 14.7128 10.3432 14.4962L10.049 13.0253ZM18.25 11.1802C18.25 11.2994 18.1659 11.402 18.049 11.4253L18.3432 12.8962C19.1612 12.7326 19.75 12.0144 19.75 11.1802H18.25ZM19.75 9.2198C19.75 8.11547 18.7397 7.28721 17.6568 7.50379L17.951 8.97466C18.1057 8.94372 18.25 9.06204 18.25 9.2198H19.75ZM9.75 20V12H8.25V20H9.75Z" fill="#28303F"/>
</svg>
