<svg width="24" height="24" viewBox="0 0 24 24" fill="none" xmlns="http://www.w3.org/2000/svg">
<path d="M15.7123 4.28769C16.0052 4.58058 16.4801 4.58058 16.773 4.28769C17.0659 3.9948 17.0659 3.51992 16.773 3.22703L15.7123 4.28769ZM9.34835 5.34835C9.05546 5.64124 9.05546 6.11612 9.34835 6.40901C9.64124 6.7019 10.1161 6.7019 10.409 6.40901L9.34835 5.34835ZM7.22703 3.22703C6.93414 3.51992 6.93414 3.9948 7.22703 4.28769C7.51992 4.58058 7.9948 4.58058 8.28769 4.28769L7.22703 3.22703ZM13.591 6.40901C13.8839 6.7019 14.3588 6.7019 14.6517 6.40901C14.9445 6.11612 14.9445 5.64124 14.6517 5.34835L13.591 6.40901ZM15.3218 7.99614C14.9477 7.8184 14.5003 7.97762 14.3226 8.35176C14.1448 8.72591 14.304 9.17329 14.6782 9.35103L15.3218 7.99614ZM9.32182 9.35103C9.69596 9.17329 9.85518 8.72591 9.67745 8.35176C9.49971 7.97762 9.05232 7.8184 8.67818 7.99614L9.32182 9.35103ZM12.75 8C12.75 7.58579 12.4142 7.25 12 7.25C11.5858 7.25 11.25 7.58579 11.25 8H12.75ZM11.25 10C11.25 10.4142 11.5858 10.75 12 10.75C12.4142 10.75 12.75 10.4142 12.75 10H11.25ZM12 2.75C13.45 2.75 14.7614 3.3368 15.7123 4.28769L16.773 3.22703C15.5523 2.00634 13.8638 1.25 12 1.25V2.75ZM10.409 6.40901C10.817 6.00102 11.3785 5.75 12 5.75V4.25C10.9647 4.25 10.0261 4.67055 9.34835 5.34835L10.409 6.40901ZM8.28769 4.28769C9.23857 3.3368 10.55 2.75 12 2.75V1.25C10.1362 1.25 8.44772 2.00634 7.22703 3.22703L8.28769 4.28769ZM12 5.75C12.6215 5.75 13.183 6.00102 13.591 6.40901L14.6517 5.34835C13.9739 4.67055 13.0353 4.25 12 4.25V5.75ZM18.25 15C18.25 18.4517 15.4518 21.25 12 21.25V22.75C16.2802 22.75 19.75 19.2802 19.75 15H18.25ZM12 21.25C8.54822 21.25 5.75 18.4517 5.75 15H4.25C4.25 19.2802 7.71979 22.75 12 22.75V21.25ZM14.6782 9.35103C16.7915 10.3549 18.25 12.5079 18.25 15H19.75C19.75 11.9072 17.9384 9.23915 15.3218 7.99614L14.6782 9.35103ZM5.75 15C5.75 12.5079 7.20852 10.3549 9.32182 9.35103L8.67818 7.99614C6.06159 9.23915 4.25 11.9072 4.25 15H5.75ZM11.25 8V10H12.75V8H11.25Z" fill="#28303F"/>
</svg>
