<svg width="24" height="24" viewBox="0 0 24 24" fill="none" xmlns="http://www.w3.org/2000/svg">
<path d="M10.0001 13L9.46974 13.5303C9.68423 13.7448 10.0068 13.809 10.2871 13.6929C10.5673 13.5768 10.7501 13.3033 10.7501 13H10.0001ZM14.0001 13H13.2501C13.2501 13.4142 13.5859 13.75 14.0001 13.75V13ZM8.58585 11.5858L8.05552 12.1161H8.05552L8.58585 11.5858ZM5.28534 13.8276L4.60257 14.138H4.60257L5.28534 13.8276ZM7.93425 19.6552L8.61703 19.3449L7.93425 19.6552ZM19.1517 19.9846L18.5006 19.6124L19.1517 19.9846ZM19.473 19.4223L20.1242 19.7944L20.1242 19.7944L19.473 19.4223ZM5.25007 8C5.25007 8.41421 5.58585 8.75 6.00007 8.75C6.41428 8.75 6.75007 8.41421 6.75007 8H5.25007ZM17.2501 8C17.2501 8.41421 17.5859 8.75 18.0001 8.75C18.4143 8.75 18.7501 8.41421 18.7501 8H17.2501ZM10.7501 13V7H9.25007V13H10.7501ZM13.2501 7V13H14.7501V7H13.2501ZM14.0001 13.75H16.0001V12.25H14.0001V13.75ZM15.6788 21.25H11.5757V22.75H15.6788V21.25ZM7.10607 11.75H7.17164V10.25H7.10607V11.75ZM8.05552 12.1161L9.46974 13.5303L10.5304 12.4697L9.11618 11.0555L8.05552 12.1161ZM4.60257 14.138L7.25148 19.9656L8.61703 19.3449L5.96812 13.5173L4.60257 14.138ZM19.8029 20.3567L20.1242 19.7944L18.8219 19.0502L18.5006 19.6124L19.8029 20.3567ZM20.7501 17.4377V17H19.2501V17.4377H20.7501ZM20.1242 19.7944C20.5343 19.0767 20.7501 18.2644 20.7501 17.4377H19.2501C19.2501 18.0033 19.1025 18.5591 18.8219 19.0502L20.1242 19.7944ZM7.17164 11.75C7.50316 11.75 7.8211 11.8817 8.05552 12.1161L9.11618 11.0555C8.60046 10.5397 7.90098 10.25 7.17164 10.25V11.75ZM7.10607 10.25C5.10603 10.25 3.77494 12.3172 4.60257 14.138L5.96812 13.5173C5.59192 12.6896 6.19696 11.75 7.10607 11.75V10.25ZM15.6788 22.75C17.3833 22.75 18.9572 21.8366 19.8029 20.3567L18.5006 19.6124C17.9219 20.6251 16.8451 21.25 15.6788 21.25V22.75ZM16.0001 13.75C17.795 13.75 19.2501 15.2051 19.2501 17H20.7501C20.7501 14.3766 18.6234 12.25 16.0001 12.25V13.75ZM12.0001 5.75C12.6904 5.75 13.2501 6.30964 13.2501 7H14.7501C14.7501 5.48122 13.5188 4.25 12.0001 4.25V5.75ZM11.5757 21.25C10.3013 21.25 9.1444 20.5051 8.61703 19.3449L7.25148 19.9656C8.02226 21.6613 9.71304 22.75 11.5757 22.75V21.25ZM10.7501 7C10.7501 6.30964 11.3097 5.75 12.0001 5.75V4.25C10.4813 4.25 9.25007 5.48122 9.25007 7H10.7501ZM6.75007 8C6.75007 5.10051 9.10057 2.75 12.0001 2.75V1.25C8.27214 1.25 5.25007 4.27208 5.25007 8H6.75007ZM12.0001 2.75C14.8996 2.75 17.2501 5.10051 17.2501 8H18.7501C18.7501 4.27208 15.728 1.25 12.0001 1.25V2.75Z" fill="#28303F"/>
</svg>
