<svg width="24" height="24" viewBox="0 0 24 24" fill="none" xmlns="http://www.w3.org/2000/svg">
<path d="M18 22.75C18.4142 22.75 18.75 22.4142 18.75 22C18.75 21.5858 18.4142 21.25 18 21.25V22.75ZM17.25 13C17.25 13.4142 17.5858 13.75 18 13.75C18.4142 13.75 18.75 13.4142 18.75 13H17.25ZM10 2.75H14V1.25H10V2.75ZM18 21.25H10V22.75H18V21.25ZM6.75 18V6H5.25V18H6.75ZM17.25 6V13H18.75V6H17.25ZM10 21.25C8.20507 21.25 6.75 19.7949 6.75 18H5.25C5.25 20.6234 7.37665 22.75 10 22.75V21.25ZM14 2.75C15.7949 2.75 17.25 4.20507 17.25 6H18.75C18.75 3.37665 16.6234 1.25 14 1.25V2.75ZM10 1.25C7.37665 1.25 5.25 3.37665 5.25 6H6.75C6.75 4.20507 8.20507 2.75 10 2.75V1.25ZM13.5 19.75H20.5V18.25H13.5V19.75ZM20.5 15.25H13.5V16.75H20.5V15.25ZM13.5 15.25C12.2574 15.25 11.25 16.2574 11.25 17.5H12.75C12.75 17.0858 13.0858 16.75 13.5 16.75V15.25ZM22.75 17.5C22.75 16.2574 21.7426 15.25 20.5 15.25V16.75C20.9142 16.75 21.25 17.0858 21.25 17.5H22.75ZM20.5 19.75C21.7426 19.75 22.75 18.7426 22.75 17.5H21.25C21.25 17.9142 20.9142 18.25 20.5 18.25V19.75ZM13.5 18.25C13.0858 18.25 12.75 17.9142 12.75 17.5H11.25C11.25 18.7426 12.2574 19.75 13.5 19.75V18.25Z" fill="#28303F"/>
<path d="M12.75 5.75C12.75 6.16421 12.4142 6.5 12 6.5C11.5858 6.5 11.25 6.16421 11.25 5.75C11.25 5.33579 11.5858 5 12 5C12.4142 5 12.75 5.33579 12.75 5.75Z" fill="#28303F"/>
<path d="M10 5.75C10 6.16421 9.66421 6.5 9.25 6.5C8.83579 6.5 8.5 6.16421 8.5 5.75C8.5 5.33579 8.83579 5 9.25 5C9.66421 5 10 5.33579 10 5.75Z" fill="#28303F"/>
<path d="M15.5 5.75C15.5 6.16421 15.1642 6.5 14.75 6.5C14.3358 6.5 14 6.16421 14 5.75C14 5.33579 14.3358 5 14.75 5C15.1642 5 15.5 5.33579 15.5 5.75Z" fill="#28303F"/>
<path d="M12.75 8.75C12.75 9.16421 12.4142 9.5 12 9.5C11.5858 9.5 11.25 9.16421 11.25 8.75C11.25 8.33579 11.5858 8 12 8C12.4142 8 12.75 8.33579 12.75 8.75Z" fill="#28303F"/>
<path d="M12.75 11.75C12.75 12.1642 12.4142 12.5 12 12.5C11.5858 12.5 11.25 12.1642 11.25 11.75C11.25 11.3358 11.5858 11 12 11C12.4142 11 12.75 11.3358 12.75 11.75Z" fill="#28303F"/>
<path d="M10 8.75C10 9.16421 9.66421 9.5 9.25 9.5C8.83579 9.5 8.5 9.16421 8.5 8.75C8.5 8.33579 8.83579 8 9.25 8C9.66421 8 10 8.33579 10 8.75Z" fill="#28303F"/>
<path d="M10 11.75C10 12.1642 9.66421 12.5 9.25 12.5C8.83579 12.5 8.5 12.1642 8.5 11.75C8.5 11.3358 8.83579 11 9.25 11C9.66421 11 10 11.3358 10 11.75Z" fill="#28303F"/>
<path d="M15.5 8.75C15.5 9.16421 15.1642 9.5 14.75 9.5C14.3358 9.5 14 9.16421 14 8.75C14 8.33579 14.3358 8 14.75 8C15.1642 8 15.5 8.33579 15.5 8.75Z" fill="#28303F"/>
<path d="M15.5 11.75C15.5 12.1642 15.1642 12.5 14.75 12.5C14.3358 12.5 14 12.1642 14 11.75C14 11.3358 14.3358 11 14.75 11C15.1642 11 15.5 11.3358 15.5 11.75Z" fill="#28303F"/>
</svg>
