<svg width="24" height="24" viewBox="0 0 24 24" fill="none" xmlns="http://www.w3.org/2000/svg">
<path d="M12.75 18C12.75 18.4142 12.4142 18.75 12 18.75C11.5858 18.75 11.25 18.4142 11.25 18C11.25 17.5858 11.5858 17.25 12 17.25C12.4142 17.25 12.75 17.5858 12.75 18Z" fill="#28303F"/>
<path d="M15.7123 14.2877C16.0052 14.5806 16.48 14.5806 16.7729 14.2877C17.0658 13.9948 17.0658 13.5199 16.7729 13.227L15.7123 14.2877ZM9.34831 15.3483C9.05542 15.6412 9.05542 16.1161 9.34831 16.409C9.64121 16.7019 10.1161 16.7019 10.409 16.409L9.34831 15.3483ZM7.22699 13.227C6.9341 13.5199 6.9341 13.9948 7.22699 14.2877C7.51989 14.5806 7.99476 14.5806 8.28765 14.2877L7.22699 13.227ZM13.591 16.409C13.8838 16.7019 14.3587 16.7019 14.6516 16.409C14.9445 16.1161 14.9445 15.6412 14.6516 15.3483L13.591 16.409ZM12 12.75C13.4499 12.75 14.7614 13.3368 15.7123 14.2877L16.7729 13.227C15.5522 12.0063 13.8637 11.25 12 11.25V12.75ZM10.409 16.409C10.817 16.001 11.3784 15.75 12 15.75V14.25C10.9646 14.25 10.0261 14.6706 9.34831 15.3483L10.409 16.409ZM8.28765 14.2877C9.23854 13.3368 10.55 12.75 12 12.75V11.25C10.1362 11.25 8.44768 12.0063 7.22699 13.227L8.28765 14.2877ZM12 15.75C12.6215 15.75 13.183 16.001 13.591 16.409L14.6516 15.3483C13.9738 14.6706 13.0353 14.25 12 14.25V15.75ZM8 8.75H16V7.25H8V8.75ZM19.25 12V18H20.75V12H19.25ZM16 21.25H8V22.75H16V21.25ZM4.75 18V12H3.25V18H4.75ZM8 21.25C6.20507 21.25 4.75 19.7949 4.75 18H3.25C3.25 20.6234 5.37665 22.75 8 22.75V21.25ZM19.25 18C19.25 19.7949 17.7949 21.25 16 21.25V22.75C18.6234 22.75 20.75 20.6234 20.75 18H19.25ZM16 8.75C17.7949 8.75 19.25 10.2051 19.25 12H20.75C20.75 9.37665 18.6234 7.25 16 7.25V8.75ZM8 7.25C5.37665 7.25 3.25 9.37665 3.25 12H4.75C4.75 10.2051 6.20507 8.75 8 8.75V7.25ZM8.75 8V6H7.25V8H8.75ZM15.25 6V8H16.75V6H15.25ZM12 2.75C13.7949 2.75 15.25 4.20507 15.25 6H16.75C16.75 3.37665 14.6234 1.25 12 1.25V2.75ZM8.75 6C8.75 4.20507 10.2051 2.75 12 2.75V1.25C9.37665 1.25 7.25 3.37665 7.25 6H8.75Z" fill="#28303F"/>
</svg>
