<svg width="24" height="24" viewBox="0 0 24 24" fill="none" xmlns="http://www.w3.org/2000/svg">
<path d="M15.7123 4.28769C16.0052 4.58058 16.48 4.58058 16.7729 4.28769C17.0658 3.9948 17.0658 3.51992 16.7729 3.22703L15.7123 4.28769ZM9.34831 5.34835C9.05542 5.64124 9.05542 6.11612 9.34831 6.40901C9.64121 6.7019 10.1161 6.7019 10.409 6.40901L9.34831 5.34835ZM7.22699 3.22703C6.9341 3.51992 6.9341 3.9948 7.22699 4.28769C7.51989 4.58058 7.99476 4.58058 8.28765 4.28769L7.22699 3.22703ZM13.591 6.40901C13.8838 6.7019 14.3587 6.7019 14.6516 6.40901C14.9445 6.11612 14.9445 5.64124 14.6516 5.34835L13.591 6.40901ZM12 2.75C13.4499 2.75 14.7614 3.3368 15.7123 4.28769L16.7729 3.22703C15.5522 2.00634 13.8637 1.25 12 1.25V2.75ZM10.409 6.40901C10.817 6.00102 11.3784 5.75 12 5.75V4.25C10.9646 4.25 10.0261 4.67055 9.34831 5.34835L10.409 6.40901ZM8.28765 4.28769C9.23854 3.3368 10.55 2.75 12 2.75V1.25C10.1362 1.25 8.44768 2.00634 7.22699 3.22703L8.28765 4.28769ZM12 5.75C12.6215 5.75 13.183 6.00102 13.591 6.40901L14.6516 5.34835C13.9738 4.67055 13.0353 4.25 12 4.25V5.75ZM8 8.75H16V7.25H8V8.75ZM18.25 11V19H19.75V11H18.25ZM16 21.25H8V22.75H16V21.25ZM5.75 19V11H4.25V19H5.75ZM8 21.25C6.75736 21.25 5.75 20.2426 5.75 19H4.25C4.25 21.0711 5.92893 22.75 8 22.75V21.25ZM18.25 19C18.25 20.2426 17.2426 21.25 16 21.25V22.75C18.0711 22.75 19.75 21.0711 19.75 19H18.25ZM16 8.75C17.2426 8.75 18.25 9.75736 18.25 11H19.75C19.75 8.92893 18.0711 7.25 16 7.25V8.75ZM8 7.25C5.92893 7.25 4.25 8.92893 4.25 11H5.75C5.75 9.75736 6.75736 8.75 8 8.75V7.25ZM15.25 15C15.25 16.7949 13.7949 18.25 12 18.25V19.75C14.6234 19.75 16.75 17.6234 16.75 15H15.25ZM12 18.25C10.2051 18.25 8.75 16.7949 8.75 15H7.25C7.25 17.6234 9.37665 19.75 12 19.75V18.25ZM8.75 15C8.75 13.2051 10.2051 11.75 12 11.75V10.25C9.37665 10.25 7.25 12.3766 7.25 15H8.75ZM12 11.75C13.7949 11.75 15.25 13.2051 15.25 15H16.75C16.75 12.3766 14.6234 10.25 12 10.25V11.75Z" fill="#28303F"/>
<path d="M11.25 15C11.25 15.4142 10.9142 15.75 10.5 15.75C10.0858 15.75 9.75 15.4142 9.75 15C9.75 14.5858 10.0858 14.25 10.5 14.25C10.9142 14.25 11.25 14.5858 11.25 15Z" fill="#28303F"/>
<path d="M14.25 15C14.25 15.4142 13.9142 15.75 13.5 15.75C13.0858 15.75 12.75 15.4142 12.75 15C12.75 14.5858 13.0858 14.25 13.5 14.25C13.9142 14.25 14.25 14.5858 14.25 15Z" fill="#28303F"/>
</svg>
