<svg width="24" height="24" viewBox="0 0 24 24" fill="none" xmlns="http://www.w3.org/2000/svg">
<path d="M15.7124 4.28769C16.0053 4.58058 16.4802 4.58058 16.7731 4.28769C17.066 3.9948 17.066 3.51992 16.7731 3.22703L15.7124 4.28769ZM9.34844 5.34835C9.05555 5.64124 9.05555 6.11612 9.34844 6.40901C9.64133 6.7019 10.1162 6.7019 10.4091 6.40901L9.34844 5.34835ZM7.22712 3.22703C6.93422 3.51992 6.93422 3.9948 7.22712 4.28769C7.52001 4.58058 7.99488 4.58058 8.28778 4.28769L7.22712 3.22703ZM13.5911 6.40901C13.884 6.7019 14.3588 6.7019 14.6517 6.40901C14.9446 6.11612 14.9446 5.64124 14.6517 5.34835L13.5911 6.40901ZM5.6508 13.0287L4.99518 12.6645L5.6508 13.0287ZM18.3494 13.0287L19.005 12.6645L18.3494 13.0287ZM16.1272 9.02871L15.4715 9.39295L16.1272 9.02871ZM7.87303 9.02871L8.52864 9.39295L7.87303 9.02871ZM12.7501 16C12.7501 15.5858 12.4143 15.25 12.0001 15.25C11.5859 15.25 11.2501 15.5858 11.2501 16H12.7501ZM15.0001 22.75C15.4143 22.75 15.7501 22.4142 15.7501 22C15.7501 21.5858 15.4143 21.25 15.0001 21.25V22.75ZM9.00009 21.25C8.58587 21.25 8.25009 21.5858 8.25009 22C8.25009 22.4142 8.58587 22.75 9.00009 22.75V21.25ZM12.0001 2.75C13.45 2.75 14.7615 3.33681 15.7124 4.28769L16.7731 3.22703C15.5524 2.00634 13.8638 1.25 12.0001 1.25V2.75ZM10.4091 6.40901C10.8171 6.00102 11.3786 5.75 12.0001 5.75V4.25C10.9648 4.25 10.0262 4.67055 9.34844 5.34835L10.4091 6.40901ZM8.28778 4.28769C9.23866 3.3368 10.5501 2.75 12.0001 2.75V1.25C10.1363 1.25 8.44781 2.00634 7.22712 3.22703L8.28778 4.28769ZM12.0001 5.75C12.6216 5.75 13.1831 6.00102 13.5911 6.40901L14.6517 5.34835C13.9739 4.67055 13.0354 4.25 12.0001 4.25V5.75ZM9.62134 8.75H14.3788V7.25H9.62134V8.75ZM15.4715 9.39295L17.6938 13.3929L19.005 12.6645L16.7828 8.66448L15.4715 9.39295ZM16.6011 15.25H7.39912V16.75H16.6011V15.25ZM6.30642 13.3929L8.52864 9.39295L7.21741 8.66448L4.99518 12.6645L6.30642 13.3929ZM7.39912 15.25C6.44601 15.25 5.84355 14.2261 6.30642 13.3929L4.99518 12.6645C3.97687 14.4974 5.30229 16.75 7.39912 16.75V15.25ZM17.6938 13.3929C18.1566 14.2261 17.5542 15.25 16.6011 15.25V16.75C18.6979 16.75 20.0233 14.4974 19.005 12.6645L17.6938 13.3929ZM14.3788 8.75C14.8328 8.75 15.2511 8.99611 15.4715 9.39295L16.7828 8.66448C16.2978 7.79145 15.3775 7.25 14.3788 7.25V8.75ZM9.62134 7.25C8.62263 7.25 7.70242 7.79145 7.21741 8.66448L8.52864 9.39295C8.7491 8.99611 9.16738 8.75 9.62134 8.75V7.25ZM11.2501 16V22H12.7501V16H11.2501ZM12.0001 22.75H15.0001V21.25H12.0001V22.75ZM12.0001 21.25H9.00009V22.75H12.0001V21.25Z" fill="#28303F"/>
</svg>
