<svg width="24" height="24" viewBox="0 0 24 24" fill="none" xmlns="http://www.w3.org/2000/svg">
<path d="M12.75 13C12.75 13.4142 12.4142 13.75 12 13.75C11.5858 13.75 11.25 13.4142 11.25 13C11.25 12.5858 11.5858 12.25 12 12.25C12.4142 12.25 12.75 12.5858 12.75 13Z" fill="#28303F"/>
<path d="M15.7123 9.28769C16.0052 9.58058 16.48 9.58058 16.7729 9.28769C17.0658 8.9948 17.0658 8.51992 16.7729 8.22703L15.7123 9.28769ZM9.34831 10.3484C9.05542 10.6412 9.05542 11.1161 9.34831 11.409C9.64121 11.7019 10.1161 11.7019 10.409 11.409L9.34831 10.3484ZM7.22699 8.22703C6.9341 8.51992 6.9341 8.9948 7.22699 9.28769C7.51989 9.58058 7.99476 9.58058 8.28765 9.28769L7.22699 8.22703ZM13.591 11.409C13.8838 11.7019 14.3587 11.7019 14.6516 11.409C14.9445 11.1161 14.9445 10.6412 14.6516 10.3484L13.591 11.409ZM2 7H1.25H2ZM6 3V3.75V3ZM6 17V16.25V17ZM2 13H2.75H2ZM22 13H22.75H22ZM18 17V17.75V17ZM22 7H21.25H22ZM6.75122 20.2925C6.36046 20.4299 6.15507 20.858 6.29246 21.2488C6.42986 21.6395 6.85801 21.8449 7.24878 21.7075L6.75122 20.2925ZM16.7652 21.7123C17.1586 21.842 17.5826 21.6282 17.7123 21.2348C17.842 20.8414 17.6282 20.4174 17.2348 20.2877L16.7652 21.7123ZM11.25 20C11.25 20.4142 11.5858 20.75 12 20.75C12.4142 20.75 12.75 20.4142 12.75 20H11.25ZM12.75 17C12.75 16.5858 12.4142 16.25 12 16.25C11.5858 16.25 11.25 16.5858 11.25 17H12.75ZM12 7.75C13.4499 7.75 14.7614 8.33681 15.7123 9.28769L16.7729 8.22703C15.5522 7.00634 13.8637 6.25 12 6.25V7.75ZM10.409 11.409C10.817 11.001 11.3784 10.75 12 10.75V9.25C10.9646 9.25 10.0261 9.67056 9.34831 10.3484L10.409 11.409ZM8.28765 9.28769C9.23854 8.33681 10.55 7.75 12 7.75V6.25C10.1362 6.25 8.44768 7.00634 7.22699 8.22703L8.28765 9.28769ZM12 10.75C12.6215 10.75 13.183 11.001 13.591 11.409L14.6516 10.3484C13.9738 9.67055 13.0353 9.25 12 9.25V10.75ZM21.25 7V13H22.75V7H21.25ZM18 16.25L6 16.25V17.75L18 17.75V16.25ZM2.75 13L2.75 7H1.25L1.25 13H2.75ZM6 3.75L18 3.75V2.25L6 2.25V3.75ZM2.75 7C2.75 5.20507 4.20508 3.75 6 3.75V2.25C3.37665 2.25 1.25 4.37665 1.25 7H2.75ZM6 16.25C4.20507 16.25 2.75 14.7949 2.75 13H1.25C1.25 15.6234 3.37665 17.75 6 17.75V16.25ZM21.25 13C21.25 14.7949 19.7949 16.25 18 16.25V17.75C20.6234 17.75 22.75 15.6234 22.75 13H21.25ZM22.75 7C22.75 4.37665 20.6234 2.25 18 2.25V3.75C19.7949 3.75 21.25 5.20508 21.25 7H22.75ZM7.24878 21.7075C9.0921 21.0594 10.4849 20.752 11.8874 20.75C13.2932 20.748 14.7646 21.0528 16.7652 21.7123L17.2348 20.2877C15.1647 19.6053 13.5199 19.2477 11.8852 19.25C10.2472 19.2523 8.67538 19.6159 6.75122 20.2925L7.24878 21.7075ZM12.75 20V17H11.25V20H12.75Z" fill="#28303F"/>
</svg>
