<svg width="24" height="24" viewBox="0 0 24 24" fill="none" xmlns="http://www.w3.org/2000/svg">
<path d="M12.75 14C12.75 14.4142 12.4142 14.75 12 14.75C11.5858 14.75 11.25 14.4142 11.25 14C11.25 13.5858 11.5858 13.25 12 13.25C12.4142 13.25 12.75 13.5858 12.75 14Z" fill="#28303F"/>
<path d="M15.7123 10.2877C16.0052 10.5806 16.4801 10.5806 16.773 10.2877C17.0659 9.9948 17.0659 9.51992 16.773 9.22703L15.7123 10.2877ZM9.34835 11.3484C9.05546 11.6412 9.05546 12.1161 9.34835 12.409C9.64124 12.7019 10.1161 12.7019 10.409 12.409L9.34835 11.3484ZM7.22703 9.22703C6.93414 9.51992 6.93414 9.9948 7.22703 10.2877C7.51992 10.5806 7.9948 10.5806 8.28769 10.2877L7.22703 9.22703ZM13.591 12.409C13.8839 12.7019 14.3588 12.7019 14.6517 12.409C14.9445 12.1161 14.9445 11.6412 14.6517 11.3484L13.591 12.409ZM5 6H4.25H5ZM9 2V2.75V2ZM9 22V22.75V22ZM5 18H5.75H5ZM19 18H19.75H19ZM15 22V21.25V22ZM19 6H18.25H19ZM15 2V1.25V2ZM11 18.25C10.5858 18.25 10.25 18.5858 10.25 19C10.25 19.4142 10.5858 19.75 11 19.75V18.25ZM13 19.75C13.4142 19.75 13.75 19.4142 13.75 19C13.75 18.5858 13.4142 18.25 13 18.25V19.75ZM12 8.75C13.45 8.75 14.7614 9.33681 15.7123 10.2877L16.773 9.22703C15.5523 8.00634 13.8638 7.25 12 7.25V8.75ZM10.409 12.409C10.817 12.001 11.3785 11.75 12 11.75V10.25C10.9647 10.25 10.0261 10.6706 9.34835 11.3484L10.409 12.409ZM8.28769 10.2877C9.23857 9.33681 10.55 8.75 12 8.75V7.25C10.1362 7.25 8.44772 8.00634 7.22703 9.22703L8.28769 10.2877ZM12 11.75C12.6215 11.75 13.183 12.001 13.591 12.409L14.6517 11.3484C13.9739 10.6706 13.0353 10.25 12 10.25V11.75ZM18.25 6V18H19.75V6H18.25ZM15 21.25H9V22.75H15V21.25ZM5.75 18L5.75 6H4.25L4.25 18H5.75ZM9 2.75L15 2.75V1.25L9 1.25V2.75ZM5.75 6C5.75 4.20507 7.20508 2.75 9 2.75V1.25C6.37665 1.25 4.25 3.37665 4.25 6H5.75ZM9 21.25C7.20507 21.25 5.75 19.7949 5.75 18H4.25C4.25 20.6234 6.37665 22.75 9 22.75V21.25ZM18.25 18C18.25 19.7949 16.7949 21.25 15 21.25V22.75C17.6234 22.75 19.75 20.6234 19.75 18H18.25ZM19.75 6C19.75 3.37665 17.6234 1.25 15 1.25V2.75C16.7949 2.75 18.25 4.20508 18.25 6H19.75ZM11 19.75H13V18.25H11V19.75Z" fill="#28303F"/>
</svg>
