<svg width="24" height="24" viewBox="0 0 24 24" fill="none" xmlns="http://www.w3.org/2000/svg">
<path d="M12.75 15C12.75 15.4142 12.4142 15.75 12 15.75C11.5858 15.75 11.25 15.4142 11.25 15C11.25 14.5858 11.5858 14.25 12 14.25C12.4142 14.25 12.75 14.5858 12.75 15Z" fill="#28303F"/>
<path d="M15.7123 11.2877C16.0052 11.5806 16.4801 11.5806 16.773 11.2877C17.0659 10.9948 17.0659 10.5199 16.773 10.227L15.7123 11.2877ZM9.34835 12.3484C9.05546 12.6412 9.05546 13.1161 9.34835 13.409C9.64124 13.7019 10.1161 13.7019 10.409 13.409L9.34835 12.3484ZM7.22703 10.227C6.93414 10.5199 6.93414 10.9948 7.22703 11.2877C7.51992 11.5806 7.9948 11.5806 8.28769 11.2877L7.22703 10.227ZM13.591 13.409C13.8839 13.7019 14.3588 13.7019 14.6517 13.409C14.9445 13.1161 14.9445 12.6412 14.6517 12.3484L13.591 13.409ZM5 10H4.25H5ZM9 6V6.75V6ZM9 18V18.75V18ZM5 14H5.75H5ZM19 14H19.75H19ZM15 18V17.25V18ZM19 10H18.25H19ZM15 6V5.25V6ZM16 4H15.25H16ZM8 4H7.25H8ZM10 2V1.25V2ZM14 2V2.75V2ZM8 20H8.75H8ZM16 20H16.75H16ZM14 22V21.25V22ZM10 22V22.75V22ZM12 9.75C13.45 9.75 14.7614 10.3368 15.7123 11.2877L16.773 10.227C15.5523 9.00634 13.8638 8.25 12 8.25V9.75ZM10.409 13.409C10.817 13.001 11.3785 12.75 12 12.75V11.25C10.9647 11.25 10.0261 11.6706 9.34835 12.3484L10.409 13.409ZM8.28769 11.2877C9.23857 10.3368 10.55 9.75 12 9.75V8.25C10.1362 8.25 8.44772 9.00634 7.22703 10.227L8.28769 11.2877ZM12 12.75C12.6215 12.75 13.183 13.001 13.591 13.409L14.6517 12.3484C13.9739 11.6706 13.0353 11.25 12 11.25V12.75ZM18.25 10V14H19.75V10H18.25ZM15 17.25H9V18.75H15V17.25ZM5.75 14L5.75 10H4.25L4.25 14H5.75ZM9 6.75L15 6.75V5.25L9 5.25V6.75ZM5.75 10C5.75 8.20507 7.20508 6.75 9 6.75V5.25C6.37665 5.25 4.25 7.37665 4.25 10H5.75ZM9 17.25C7.20507 17.25 5.75 15.7949 5.75 14H4.25C4.25 16.6234 6.37665 18.75 9 18.75V17.25ZM18.25 14C18.25 15.7949 16.7949 17.25 15 17.25V18.75C17.6234 18.75 19.75 16.6234 19.75 14H18.25ZM19.75 10C19.75 7.37665 17.6234 5.25 15 5.25V6.75C16.7949 6.75 18.25 8.20507 18.25 10H19.75ZM15.25 4V6H16.75V4H15.25ZM8.75 6V4H7.25V6H8.75ZM10 2.75L14 2.75V1.25L10 1.25V2.75ZM8.75 4C8.75 3.30964 9.30964 2.75 10 2.75V1.25C8.48122 1.25 7.25 2.48122 7.25 4H8.75ZM16.75 4C16.75 2.48122 15.5188 1.25 14 1.25V2.75C14.6904 2.75 15.25 3.30964 15.25 4H16.75ZM8.75 20V18H7.25V20H8.75ZM15.25 18V20H16.75V18H15.25ZM14 21.25H10V22.75H14V21.25ZM15.25 20C15.25 20.6904 14.6904 21.25 14 21.25V22.75C15.5188 22.75 16.75 21.5188 16.75 20H15.25ZM7.25 20C7.25 21.5188 8.48122 22.75 10 22.75V21.25C9.30964 21.25 8.75 20.6904 8.75 20H7.25Z" fill="#28303F"/>
</svg>
