<svg width="24" height="24" viewBox="0 0 24 24" fill="none" xmlns="http://www.w3.org/2000/svg">
<path d="M12.75 11.75C12.75 12.1642 12.4142 12.5 12 12.5C11.5858 12.5 11.25 12.1642 11.25 11.75C11.25 11.3358 11.5858 11 12 11C12.4142 11 12.75 11.3358 12.75 11.75Z" fill="#28303F"/>
<path d="M14.4465 7.8653C14.7259 8.17101 15.2003 8.19227 15.5061 7.91279C15.8118 7.6333 15.833 7.1589 15.5535 6.85319L14.4465 7.8653ZM9.94643 9.17357C9.66695 9.47928 9.68821 9.95368 9.99392 10.2332C10.2996 10.5127 10.774 10.4914 11.0535 10.1857L9.94643 9.17357ZM8.44646 6.85319C8.16697 7.1589 8.18823 7.6333 8.49394 7.91279C8.79966 8.19227 9.27406 8.17101 9.55354 7.8653L8.44646 6.85319ZM12.9464 10.1857C13.2259 10.4914 13.7003 10.5127 14.006 10.2332C14.3117 9.95368 14.333 9.47928 14.0535 9.17357L12.9464 10.1857ZM18 22.75C18.4142 22.75 18.75 22.4142 18.75 22C18.75 21.5858 18.4142 21.25 18 21.25V22.75ZM17.25 13C17.25 13.4142 17.5858 13.75 18 13.75C18.4142 13.75 18.75 13.4142 18.75 13H17.25ZM12 6.75C12.9415 6.75 13.8071 7.1659 14.4465 7.8653L15.5535 6.85319C14.6574 5.87297 13.4017 5.25 12 5.25V6.75ZM11.0535 10.1857C11.309 9.90618 11.6443 9.75 12 9.75V8.25C11.1841 8.25 10.4587 8.61325 9.94643 9.17357L11.0535 10.1857ZM9.55354 7.8653C10.1929 7.1659 11.0585 6.75 12 6.75V5.25C10.5983 5.25 9.34259 5.87297 8.44646 6.85319L9.55354 7.8653ZM12 9.75C12.3557 9.75 12.6909 9.90618 12.9464 10.1857L14.0535 9.17357C13.5413 8.61325 12.8159 8.25 12 8.25V9.75ZM10 2.75H14V1.25H10V2.75ZM18 21.25H10V22.75H18V21.25ZM6.75 18V6H5.25V18H6.75ZM17.25 6V13H18.75V6H17.25ZM10 21.25C8.20507 21.25 6.75 19.7949 6.75 18H5.25C5.25 20.6234 7.37665 22.75 10 22.75V21.25ZM14 2.75C15.7949 2.75 17.25 4.20507 17.25 6H18.75C18.75 3.37665 16.6234 1.25 14 1.25V2.75ZM10 1.25C7.37665 1.25 5.25 3.37665 5.25 6H6.75C6.75 4.20507 8.20507 2.75 10 2.75V1.25ZM13.5 19.75H20.5V18.25H13.5V19.75ZM20.5 15.25H13.5V16.75H20.5V15.25ZM13.5 15.25C12.2574 15.25 11.25 16.2574 11.25 17.5H12.75C12.75 17.0858 13.0858 16.75 13.5 16.75V15.25ZM22.75 17.5C22.75 16.2574 21.7426 15.25 20.5 15.25V16.75C20.9142 16.75 21.25 17.0858 21.25 17.5H22.75ZM20.5 19.75C21.7426 19.75 22.75 18.7426 22.75 17.5H21.25C21.25 17.9142 20.9142 18.25 20.5 18.25V19.75ZM13.5 18.25C13.0858 18.25 12.75 17.9142 12.75 17.5H11.25C11.25 18.7426 12.2574 19.75 13.5 19.75V18.25Z" fill="#28303F"/>
</svg>
