<svg width="24" height="24" viewBox="0 0 24 24" fill="none" xmlns="http://www.w3.org/2000/svg">
<path d="M3.44712 7.10557L2.7763 6.77016L3.44712 7.10557ZM20.5527 7.10557L21.2235 6.77016L20.5527 7.10557ZM18.5527 3.10557L17.8819 3.44098L18.5527 3.10557ZM5.44712 3.10557L6.11795 3.44098L5.44712 3.10557ZM3.99991 5.25C3.5857 5.25 3.24991 5.58579 3.24991 6C3.24991 6.41421 3.5857 6.75 3.99991 6.75V5.25ZM19.9999 6.75C20.4141 6.75 20.7499 6.41421 20.7499 6C20.7499 5.58579 20.4141 5.25 19.9999 5.25V6.75ZM10.1999 2V1.25C9.82866 1.25 9.51328 1.5216 9.45821 1.88874L10.1999 2ZM13.7999 2L14.5416 1.88874C14.4865 1.5216 14.1712 1.25 13.7999 1.25V2ZM14.9999 10V10.75C15.2182 10.75 15.4257 10.6549 15.5682 10.4894C15.7107 10.324 15.774 10.1047 15.7416 9.88874L14.9999 10ZM8.99991 10L8.25821 9.88874C8.22582 10.1047 8.28913 10.324 8.43161 10.4894C8.57408 10.6549 8.78158 10.75 8.99991 10.75V10ZM19.7499 10C19.7499 9.58579 19.4141 9.25 18.9999 9.25C18.5857 9.25 18.2499 9.58579 18.2499 10H19.7499ZM5.74991 10C5.74991 9.58579 5.41412 9.25 4.99991 9.25C4.5857 9.25 4.24991 9.58579 4.24991 10H5.74991ZM16.4999 17.25C16.0857 17.25 15.7499 17.5858 15.7499 18C15.7499 18.4142 16.0857 18.75 16.4999 18.75V17.25ZM7.49991 18.75C7.91412 18.75 8.24991 18.4142 8.24991 18C8.24991 17.5858 7.91412 17.25 7.49991 17.25V18.75ZM13.5999 14.45C13.8484 14.1186 13.7813 13.6485 13.4499 13.4C13.1185 13.1515 12.6484 13.2186 12.3999 13.55L13.5999 14.45ZM9.99991 18L9.39991 17.55C9.22946 17.7773 9.20205 18.0813 9.32909 18.3354C9.45613 18.5895 9.71583 18.75 9.99991 18.75V18ZM13.9999 18L14.5999 18.45C14.7704 18.2227 14.7978 17.9187 14.6707 17.6646C14.5437 17.4105 14.284 17.25 13.9999 17.25V18ZM10.3999 21.55C10.1514 21.8814 10.2185 22.3515 10.5499 22.6C10.8813 22.8485 11.3514 22.7814 11.5999 22.45L10.3999 21.55ZM7.23598 2.75H16.7638V1.25H7.23598V2.75ZM17.8819 3.44098L19.8819 7.44098L21.2235 6.77016L19.2235 2.77016L17.8819 3.44098ZM18.7638 9.25H5.23598V10.75H18.7638V9.25ZM4.11794 7.44098L6.11795 3.44098L4.7763 2.77016L2.7763 6.77016L4.11794 7.44098ZM5.23598 9.25C4.30675 9.25 3.70238 8.27211 4.11794 7.44098L2.7763 6.77016C1.86206 8.59864 3.19168 10.75 5.23598 10.75V9.25ZM19.8819 7.44098C20.2974 8.27211 19.6931 9.25 18.7638 9.25V10.75C20.8081 10.75 22.1378 8.59864 21.2235 6.77016L19.8819 7.44098ZM16.7638 2.75C17.2373 2.75 17.6701 3.0175 17.8819 3.44098L19.2235 2.77016C18.7577 1.83851 17.8055 1.25 16.7638 1.25V2.75ZM7.23598 1.25C6.19436 1.25 5.24213 1.83851 4.7763 2.77016L6.11795 3.44098C6.32969 3.0175 6.76251 2.75 7.23598 2.75V1.25ZM3.99991 6.75H19.9999V5.25H3.99991V6.75ZM10.1999 2.75H13.7999V1.25H10.1999V2.75ZM13.0582 2.11126L14.2582 10.1113L15.7416 9.88874L14.5416 1.88874L13.0582 2.11126ZM14.9999 9.25H8.99991V10.75H14.9999V9.25ZM9.74161 10.1113L10.9416 2.11126L9.45821 1.88874L8.25821 9.88874L9.74161 10.1113ZM18.2499 10V16H19.7499V10H18.2499ZM5.74991 16V10H4.24991V16H5.74991ZM16.9999 17.25H16.4999V18.75H16.9999V17.25ZM7.49991 17.25H6.99991V18.75H7.49991V17.25ZM4.24991 16C4.24991 17.5188 5.48113 18.75 6.99991 18.75V17.25C6.30956 17.25 5.74991 16.6904 5.74991 16H4.24991ZM18.2499 16C18.2499 16.6904 17.6903 17.25 16.9999 17.25V18.75C18.5187 18.75 19.7499 17.5188 19.7499 16H18.2499ZM12.3999 13.55L9.39991 17.55L10.5999 18.45L13.5999 14.45L12.3999 13.55ZM9.99991 18.75H13.9999V17.25H9.99991V18.75ZM13.3999 17.55L10.3999 21.55L11.5999 22.45L14.5999 18.45L13.3999 17.55Z" fill="#28303F"/>
</svg>
