<svg width="24" height="24" viewBox="0 0 24 24" fill="none" xmlns="http://www.w3.org/2000/svg">
<path d="M15.7123 7.28769C16.0052 7.58058 16.48 7.58058 16.7729 7.28769C17.0658 6.9948 17.0658 6.51992 16.7729 6.22703L15.7123 7.28769ZM9.34831 8.34835C9.05542 8.64124 9.05542 9.11612 9.34831 9.40901C9.64121 9.7019 10.1161 9.7019 10.409 9.40901L9.34831 8.34835ZM7.22699 6.22703C6.9341 6.51992 6.9341 6.9948 7.22699 7.28769C7.51989 7.58058 7.99476 7.58058 8.28765 7.28769L7.22699 6.22703ZM13.591 9.40901C13.8838 9.7019 14.3587 9.7019 14.6516 9.40901C14.9445 9.11612 14.9445 8.64124 14.6516 8.34835L13.591 9.40901ZM12 5.75C13.4499 5.75 14.7614 6.33681 15.7123 7.28769L16.7729 6.22703C15.5522 5.00634 13.8637 4.25 12 4.25V5.75ZM10.409 9.40901C10.817 9.00102 11.3784 8.75 12 8.75V7.25C10.9646 7.25 10.0261 7.67055 9.34831 8.34835L10.409 9.40901ZM8.28765 7.28769C9.23854 6.33681 10.55 5.75 12 5.75V4.25C10.1362 4.25 8.44768 5.00634 7.22699 6.22703L8.28765 7.28769ZM12 8.75C12.6215 8.75 13.183 9.00102 13.591 9.40901L14.6516 8.34835C13.9738 7.67055 13.0353 7.25 12 7.25V8.75ZM9 2.75H15V1.25H9V2.75ZM18.25 6V18H19.75V6H18.25ZM15 21.25H9V22.75H15V21.25ZM5.75 18V6H4.25V18H5.75ZM9 21.25C7.20507 21.25 5.75 19.7949 5.75 18H4.25C4.25 20.6234 6.37665 22.75 9 22.75V21.25ZM18.25 18C18.25 19.7949 16.7949 21.25 15 21.25V22.75C17.6234 22.75 19.75 20.6234 19.75 18H18.25ZM15 2.75C16.7949 2.75 18.25 4.20507 18.25 6H19.75C19.75 3.37665 17.6234 1.25 15 1.25V2.75ZM9 1.25C6.37665 1.25 4.25 3.37665 4.25 6H5.75C5.75 4.20507 7.20507 2.75 9 2.75V1.25ZM15.25 15C15.25 16.7949 13.7949 18.25 12 18.25V19.75C14.6234 19.75 16.75 17.6234 16.75 15H15.25ZM12 18.25C10.2051 18.25 8.75 16.7949 8.75 15H7.25C7.25 17.6234 9.37665 19.75 12 19.75V18.25ZM8.75 15C8.75 13.2051 10.2051 11.75 12 11.75V10.25C9.37665 10.25 7.25 12.3766 7.25 15H8.75ZM12 11.75C13.7949 11.75 15.25 13.2051 15.25 15H16.75C16.75 12.3766 14.6234 10.25 12 10.25V11.75Z" fill="#28303F"/>
<circle cx="12" cy="15" r="1" fill="#28303F"/>
</svg>
