<svg width="24" height="24" viewBox="0 0 24 24" fill="none" xmlns="http://www.w3.org/2000/svg">
<path d="M16.9352 3.30067C15.4791 2.47281 13.7948 2 12 2C9.53976 2 7.28704 2.88844 5.54515 4.36199M16.9352 3.30067C12.1441 7.93021 9.1272 14.3843 9.00393 21.5434M16.9352 3.30067C19.5439 4.78379 21.4202 7.40643 21.887 10.4915M5.54515 4.36199C8.23859 8.36586 12.8117 11 18 11C19.3443 11 20.6473 10.8232 21.887 10.4915M5.54515 4.36199C3.37676 6.19634 2 8.93739 2 12C2 16.4791 4.94479 20.2704 9.00393 21.5434M2 12.8535C3.56389 12.3008 5.24682 12 7 12C12.1951 12 16.7733 14.641 19.4653 18.6536M9.00393 21.5434C9.94983 21.8401 10.9562 22 12 22C14.968 22 17.6339 20.707 19.4653 18.6536M19.4653 18.6536C21.0419 16.886 22 14.5549 22 12C22 11.4872 21.9614 10.9835 21.887 10.4915" stroke="#28303F" stroke-width="1.5"/>
</svg>
