<svg width="24" height="24" viewBox="0 0 24 24" fill="none" xmlns="http://www.w3.org/2000/svg">
<path d="M2 16L1.33965 15.6444C1.21424 15.8773 1.22079 16.1591 1.35688 16.3859L2 16ZM22 16L22.6431 16.3859C22.7792 16.1591 22.7858 15.8773 22.6604 15.6444L22 16ZM19 21V21.75C19.2634 21.75 19.5076 21.6118 19.6431 21.3859L19 21ZM5 21L4.35688 21.3859C4.49242 21.6118 4.73655 21.75 5 21.75V21ZM15 3L15.6604 2.64443C15.5295 2.40149 15.2759 2.25 15 2.25V3ZM9 3V2.25C8.72409 2.25 8.47046 2.40149 8.33965 2.64443L9 3ZM7.77778 16L7.12216 15.6358H7.12216L7.77778 16ZM21.3569 15.6141L18.3569 20.6141L19.6431 21.3859L22.6431 16.3859L21.3569 15.6141ZM19 20.25H5V21.75H19V20.25ZM5.64312 20.6141L2.64312 15.6141L1.35688 16.3859L4.35688 21.3859L5.64312 20.6141ZM14.3396 3.35557L21.3396 16.3556L22.6604 15.6444L15.6604 2.64443L14.3396 3.35557ZM9 3.75H15V2.25H9V3.75ZM2.66035 16.3556L9.66035 3.35557L8.33965 2.64443L1.33965 15.6444L2.66035 16.3556ZM16.2222 16.75H22V15.25H16.2222V16.75ZM7.77778 16.75H16.2222V15.25H7.77778V16.75ZM7.12216 15.6358L4.34438 20.6358L5.65562 21.3642L8.4334 16.3642L7.12216 15.6358ZM11.3444 8.03577L7.12216 15.6358L8.4334 16.3642L12.6556 8.76423L11.3444 8.03577ZM16.8778 15.6358L12.6556 8.03577L11.3444 8.76423L15.5666 16.3642L16.8778 15.6358ZM12.6556 8.03577L9.65562 2.63577L8.34438 3.36423L11.3444 8.76423L12.6556 8.03577Z" fill="#28303F"/>
</svg>
