<svg width="24" height="24" viewBox="0 0 24 24" fill="none" xmlns="http://www.w3.org/2000/svg">
<path d="M18 3H18.75C18.75 2.58579 18.4142 2.25 18 2.25V3ZM18 7V7.75C18.4142 7.75 18.75 7.41421 18.75 7H18ZM14 21V21.75C14.4142 21.75 14.75 21.4142 14.75 21H14ZM10 21H9.25C9.25 21.4142 9.58579 21.75 10 21.75V21ZM10 14H10.75C10.75 13.5858 10.4142 13.25 10 13.25V14ZM6 14H5.25C5.25 14.4142 5.58579 14.75 6 14.75V14ZM6 10V9.25C5.58579 9.25 5.25 9.58579 5.25 10H6ZM10 10V10.75C10.4142 10.75 10.75 10.4142 10.75 10H10ZM14 10H13.25C13.25 10.4142 13.5858 10.75 14 10.75V10ZM18 10H18.75C18.75 9.58579 18.4142 9.25 18 9.25V10ZM18 14V14.75C18.4142 14.75 18.75 14.4142 18.75 14H18ZM14 14V13.25C13.5858 13.25 13.25 13.5858 13.25 14H14ZM15 3.75H18V2.25H15V3.75ZM17.25 3V7H18.75V3H17.25ZM18 6.25H15V7.75H18V6.25ZM14 20.25H10V21.75H14V20.25ZM10.75 21V14H9.25V21H10.75ZM10 13.25H6V14.75H10V13.25ZM6.75 14V10H5.25V14H6.75ZM6 10.75H10V9.25H6V10.75ZM10.75 10V8H9.25V10H10.75ZM13.25 8V10H14.75V8H13.25ZM14 10.75H18V9.25H14V10.75ZM17.25 10V14H18.75V10H17.25ZM13.25 14V21H14.75V14H13.25ZM18 13.25H14V14.75H18V13.25ZM15 6.25C14.0335 6.25 13.25 7.0335 13.25 8H14.75C14.75 7.86193 14.8619 7.75 15 7.75V6.25ZM15 2.25C11.8244 2.25 9.25 4.82436 9.25 8H10.75C10.75 5.65279 12.6528 3.75 15 3.75V2.25Z" fill="#28303F"/>
</svg>
