<svg width="24" height="24" viewBox="0 0 24 24" fill="none" xmlns="http://www.w3.org/2000/svg">
<path d="M17 6H17.75C17.75 5.58579 17.4142 5.25 17 5.25V6ZM17 9V9.75C17.4142 9.75 17.75 9.41421 17.75 9H17ZM13.5 22H12.75C12.75 22.4142 13.0858 22.75 13.5 22.75V22ZM10.5 22V22.75C10.9142 22.75 11.25 22.4142 11.25 22H10.5ZM10.5 15H11.25C11.25 14.5858 10.9142 14.25 10.5 14.25V15ZM7 15H6.25C6.25 15.4142 6.58579 15.75 7 15.75V15ZM7 12V11.25C6.58579 11.25 6.25 11.5858 6.25 12H7ZM10.5 12V12.75C10.9142 12.75 11.25 12.4142 11.25 12H10.5ZM13.5 12H12.75C12.75 12.4142 13.0858 12.75 13.5 12.75V12ZM17 12H17.75C17.75 11.5858 17.4142 11.25 17 11.25V12ZM17 15V15.75C17.4142 15.75 17.75 15.4142 17.75 15H17ZM13.5 15V14.25C13.0858 14.25 12.75 14.5858 12.75 15H13.5ZM6 2.75H18V1.25H6V2.75ZM21.25 6V18H22.75V6H21.25ZM2.75 18V6H1.25V18H2.75ZM6 21.25C4.20507 21.25 2.75 19.7949 2.75 18H1.25C1.25 20.6234 3.37665 22.75 6 22.75V21.25ZM21.25 18C21.25 19.7949 19.7949 21.25 18 21.25V22.75C20.6234 22.75 22.75 20.6234 22.75 18H21.25ZM18 2.75C19.7949 2.75 21.25 4.20507 21.25 6H22.75C22.75 3.37665 20.6234 1.25 18 1.25V2.75ZM6 1.25C3.37665 1.25 1.25 3.37665 1.25 6H2.75C2.75 4.20507 4.20507 2.75 6 2.75V1.25ZM14.5 6.75H17V5.25H14.5V6.75ZM16.25 6V9H17.75V6H16.25ZM17 8.25H14.5V9.75H17V8.25ZM11.25 22V15H9.75V22H11.25ZM10.5 14.25H7V15.75H10.5V14.25ZM7.75 15V12H6.25V15H7.75ZM7 12.75H10.5V11.25H7V12.75ZM11.25 12V10H9.75V12H11.25ZM12.75 10V12H14.25V10H12.75ZM13.5 12.75H17V11.25H13.5V12.75ZM16.25 12V15H17.75V12H16.25ZM12.75 15V22H14.25V15H12.75ZM17 14.25H13.5V15.75H17V14.25ZM18 21.25H13.5V22.75H18V21.25ZM10.5 21.25H6V22.75H10.5V21.25ZM14.5 8.25C13.5335 8.25 12.75 9.0335 12.75 10H14.25C14.25 9.86193 14.3619 9.75 14.5 9.75V8.25ZM14.5 5.25C11.8766 5.25 9.75 7.37665 9.75 10H11.25C11.25 8.20507 12.7051 6.75 14.5 6.75V5.25Z" fill="#28303F"/>
</svg>
