<svg width="24" height="24" viewBox="0 0 24 24" fill="none" xmlns="http://www.w3.org/2000/svg">
<path d="M16 3H16.75C16.75 2.58579 16.4142 2.25 16 2.25V3ZM16 7V7.75C16.4142 7.75 16.75 7.41421 16.75 7H16ZM11 21V21.75C11.4142 21.75 11.75 21.4142 11.75 21H11ZM7 21H6.25C6.25 21.4142 6.58579 21.75 7 21.75V21ZM7 14H7.75C7.75 13.5858 7.41421 13.25 7 13.25V14ZM4 14H3.25C3.25 14.4142 3.58579 14.75 4 14.75V14ZM4 10V9.25C3.58579 9.25 3.25 9.58579 3.25 10H4ZM7 10V10.75C7.41421 10.75 7.75 10.4142 7.75 10H7ZM11 10H10.25C10.25 10.4142 10.5858 10.75 11 10.75V10ZM20 10H20.75C20.75 9.58579 20.4142 9.25 20 9.25V10ZM11 14V13.25C10.5858 13.25 10.25 13.5858 10.25 14H11ZM16 14H16.75C16.75 13.5858 16.4142 13.25 16 13.25V14ZM16 21H15.25C15.25 21.4142 15.5858 21.75 16 21.75V21ZM20 21V21.75C20.4142 21.75 20.75 21.4142 20.75 21H20ZM12 3.75H16V2.25H12V3.75ZM15.25 3V7H16.75V3H15.25ZM16 6.25H12V7.75H16V6.25ZM11 20.25H7V21.75H11V20.25ZM7.75 21V14H6.25V21H7.75ZM7 13.25H4V14.75H7V13.25ZM4.75 14V10H3.25V14H4.75ZM4 10.75H7V9.25H4V10.75ZM7.75 10V8H6.25V10H7.75ZM10.25 8V10H11.75V8H10.25ZM11 10.75H20V9.25H11V10.75ZM19.25 10V14H20.75V10H19.25ZM10.25 14V21H11.75V14H10.25ZM16 13.25H11V14.75H16V13.25ZM16.75 21V14H15.25V21H16.75ZM19.25 14V21H20.75V14H19.25ZM20 20.25H16V21.75H20V20.25ZM12 6.25C11.0335 6.25 10.25 7.0335 10.25 8H11.75C11.75 7.86193 11.8619 7.75 12 7.75V6.25ZM12 2.25C8.82436 2.25 6.25 4.82436 6.25 8H7.75C7.75 5.65279 9.65279 3.75 12 3.75V2.25Z" fill="#28303F"/>
</svg>
