<svg width="24" height="24" viewBox="0 0 24 24" fill="none" xmlns="http://www.w3.org/2000/svg">
<rect x="2" y="3" width="20" height="18" rx="4" stroke="#28303F" stroke-width="1.5"/>
<path d="M2.46852 6.41435C2.14507 6.15559 1.67311 6.20803 1.41435 6.53148C1.15559 6.85493 1.20803 7.32689 1.53148 7.58565L2.46852 6.41435ZM22.4685 7.58565C22.792 7.32689 22.8444 6.85493 22.5857 6.53148C22.3269 6.20803 21.8549 6.15559 21.5315 6.41435L22.4685 7.58565ZM14.4988 13.001L14.0303 12.4153L14.4988 13.001ZM1.53148 7.58565L9.0327 13.5866L9.96974 12.4153L2.46852 6.41435L1.53148 7.58565ZM14.9673 13.5866L22.4685 7.58565L21.5315 6.41435L14.0303 12.4153L14.9673 13.5866ZM9.0327 13.5866C10.7675 14.9745 13.2325 14.9745 14.9673 13.5866L14.0303 12.4153C12.8433 13.3649 11.1567 13.3649 9.96974 12.4153L9.0327 13.5866Z" fill="#28303F"/>
</svg>
