<svg width="24" height="24" viewBox="0 0 24 24" fill="none" xmlns="http://www.w3.org/2000/svg">
<path d="M18 12H22" stroke="#28303F" stroke-width="1.5" stroke-linecap="round" stroke-linejoin="round"/>
<path d="M20 14L20 10" stroke="#28303F" stroke-width="1.5" stroke-linecap="round" stroke-linejoin="round"/>
<path d="M15 12H15.75C15.75 11.5858 15.4142 11.25 15 11.25V12ZM8.5 11.25C8.08579 11.25 7.75 11.5858 7.75 12C7.75 12.4142 8.08579 12.75 8.5 12.75V11.25ZM12.5659 7.93414C12.8588 8.22703 13.3336 8.22703 13.6265 7.93414C13.9194 7.64124 13.9194 7.16637 13.6265 6.87348L12.5659 7.93414ZM14.25 12C14.25 15.1756 11.6756 17.75 8.5 17.75V19.25C12.5041 19.25 15.75 16.0041 15.75 12H14.25ZM8.5 17.75C5.32436 17.75 2.75 15.1756 2.75 12H1.25C1.25 16.0041 4.49594 19.25 8.5 19.25V17.75ZM2.75 12C2.75 8.82436 5.32436 6.25 8.5 6.25V4.75C4.49594 4.75 1.25 7.99594 1.25 12H2.75ZM8.5 12.75H15V11.25H8.5V12.75ZM8.5 6.25C10.088 6.25 11.5245 6.89277 12.5659 7.93414L13.6265 6.87348C12.3154 5.5623 10.5018 4.75 8.5 4.75V6.25Z" fill="#28303F"/>
</svg>
