<svg width="24" height="24" viewBox="0 0 24 24" fill="none" xmlns="http://www.w3.org/2000/svg">
<path d="M12 10.5V9.75C11.8011 9.75 11.6103 9.82902 11.4697 9.96967C11.329 10.1103 11.25 10.3011 11.25 10.5H12ZM12 13.5H11.25C11.25 13.9142 11.5858 14.25 12 14.25V13.5ZM19.0711 4.92893L19.6014 5.45926C19.8943 5.16637 19.8943 4.6915 19.6014 4.3986L19.0711 4.92893ZM16.9497 7.05025L16.4194 7.58058C16.7123 7.87348 17.1872 7.87348 17.4801 7.58058L16.9497 7.05025ZM21.8883 10.5L22.6299 10.3884C22.5747 10.0214 22.2594 9.75 21.8883 9.75V10.5ZM18.8389 13.5L19.5717 13.66C19.6201 13.4382 19.5654 13.2064 19.4231 13.0296C19.2807 12.8528 19.0659 12.75 18.8389 12.75V13.5ZM11.25 10.5V13.5H12.75V10.5H11.25ZM21.25 12C21.25 17.1086 17.1086 21.25 12 21.25V22.75C17.9371 22.75 22.75 17.9371 22.75 12H21.25ZM12 21.25C6.89137 21.25 2.75 17.1086 2.75 12H1.25C1.25 17.9371 6.06294 22.75 12 22.75V21.25ZM2.75 12C2.75 6.89137 6.89137 2.75 12 2.75V1.25C6.06294 1.25 1.25 6.06294 1.25 12H2.75ZM12 18.25C8.54822 18.25 5.75 15.4518 5.75 12H4.25C4.25 16.2802 7.71979 19.75 12 19.75V18.25ZM5.75 12C5.75 8.54822 8.54822 5.75 12 5.75V4.25C7.71979 4.25 4.25 7.71979 4.25 12H5.75ZM12 2.75C14.5545 2.75 16.866 3.78452 18.5407 5.45926L19.6014 4.3986C17.6569 2.45406 14.9683 1.25 12 1.25V2.75ZM17.4801 7.58058L19.6014 5.45926L18.5407 4.3986L16.4194 6.51992L17.4801 7.58058ZM12 5.75C13.7261 5.75 15.2876 6.44873 16.4194 7.58058L17.4801 6.51992C16.0784 5.11827 14.1399 4.25 12 4.25V5.75ZM21.1466 10.6116C21.2147 11.064 21.25 11.5277 21.25 12H22.75C22.75 11.4527 22.709 10.9145 22.6299 10.3884L21.1466 10.6116ZM18.1062 13.34C17.4931 16.148 14.9911 18.25 12 18.25V19.75C15.7111 19.75 18.8114 17.1423 19.5717 13.66L18.1062 13.34ZM12 14.25H18.8389V12.75H12V14.25ZM21.8883 9.75L12 9.75V11.25L21.8883 11.25V9.75Z" fill="#28303F"/>
</svg>
