<svg width="24" height="24" viewBox="0 0 24 24" fill="none" xmlns="http://www.w3.org/2000/svg">
<path d="M12 1C6.75238 1 2.5 5.30833 2.5 10.625C2.5 15.5989 6.90308 19.6807 11.7997 19.7894C11.9101 19.7919 12 19.8812 12 19.9917V22.6779C12 22.8262 12.1563 22.9225 12.2884 22.855C17.8706 20.0009 21.5 15.4016 21.5 10.625C21.5 5.30833 17.2476 1 12 1Z" stroke="#28303F" stroke-width="1.5"/>
<path d="M17.2385 11.8077C17.2385 12.904 16.2537 13.8487 15.4166 13.9835C15.3076 14.0011 15.2177 13.9105 15.2177 13.8V11.8923C15.2177 11.7819 15.1281 11.6923 15.0177 11.6923H13.4385C13.3281 11.6923 13.2385 11.6028 13.2385 11.4923V8.2C13.2385 8.08954 13.3281 8 13.4385 8H17.0385C17.149 8 17.2385 8.08954 17.2385 8.2V11.8077Z" stroke="#28303F" stroke-width="1.5"/>
<path d="M10.7615 11.8077C10.7615 12.904 9.77662 13.8487 8.93956 13.9835C8.83051 14.0011 8.74064 13.9105 8.74064 13.8V11.8923C8.74064 11.7819 8.6511 11.6923 8.54064 11.6923H6.96147C6.85102 11.6923 6.76147 11.6028 6.76147 11.4923V8.2C6.76147 8.08954 6.85102 8 6.96147 8H10.5615C10.6719 8 10.7615 8.08954 10.7615 8.2V11.8077Z" stroke="#28303F" stroke-width="1.5"/>
</svg>
