<svg width="24" height="24" viewBox="0 0 24 24" fill="none" xmlns="http://www.w3.org/2000/svg">
<circle cx="4" cy="4" r="2" stroke="#28303F" stroke-width="1.5"/>
<path d="M2 8.5H6V22H2V8.5Z" stroke="#28303F" stroke-width="1.5" stroke-linejoin="round"/>
<path d="M9 8.5V7.75C8.58579 7.75 8.25 8.08579 8.25 8.5H9ZM13 8.5H13.75C13.75 8.08579 13.4142 7.75 13 7.75V8.5ZM13 22V22.75C13.4142 22.75 13.75 22.4142 13.75 22H13ZM9 22H8.25C8.25 22.4142 8.58579 22.75 9 22.75V22ZM21 22V22.75C21.4142 22.75 21.75 22.4142 21.75 22H21ZM17 22H16.25C16.25 22.4142 16.5858 22.75 17 22.75V22ZM13 9.34141H12.25C12.25 9.58488 12.3682 9.81319 12.567 9.95376C12.7657 10.0943 13.0204 10.1297 13.2499 10.0485L13 9.34141ZM9 9.25H13V7.75H9V9.25ZM13 21.25H9V22.75H13V21.25ZM9.75 22V8.5H8.25V22H9.75ZM9.75 22V15H8.25V22H9.75ZM20.25 15V22H21.75V15H20.25ZM21 21.25H17V22.75H21V21.25ZM12.25 15V22H13.75V15H12.25ZM16.25 15V22H17.75V15H16.25ZM15 13.75C15.6904 13.75 16.25 14.3096 16.25 15H17.75C17.75 13.4812 16.5188 12.25 15 12.25V13.75ZM15 12.25C13.4812 12.25 12.25 13.4812 12.25 15H13.75C13.75 14.3096 14.3096 13.75 15 13.75V12.25ZM21.75 15C21.75 11.2721 18.7279 8.25 15 8.25V9.75C17.8995 9.75 20.25 12.1005 20.25 15H21.75ZM13.2499 10.0485C13.7963 9.85542 14.385 9.75 15 9.75V8.25C14.2124 8.25 13.4548 8.3852 12.7501 8.63428L13.2499 10.0485ZM12.25 8.5V9.34141H13.75V8.5H12.25Z" fill="#28303F"/>
</svg>
