<svg width="24" height="24" viewBox="0 0 24 24" fill="none" xmlns="http://www.w3.org/2000/svg">
<path d="M7.72984 21.045L8.05049 20.367C7.91227 20.3017 7.75737 20.2801 7.60654 20.3052L7.72984 21.045ZM2.93565 16.229L3.67598 16.3491C3.70008 16.2004 3.67887 16.0479 3.61511 15.9115L2.93565 16.229ZM3.37452 21.7709L3.25122 21.0311L3.37452 21.7709ZM21.25 12C21.25 17.1086 17.1087 21.25 12 21.25V22.75C17.9371 22.75 22.75 17.9371 22.75 12H21.25ZM2.75003 12C2.75003 6.89137 6.89139 2.75 12 2.75V1.25C6.06296 1.25 1.25003 6.06294 1.25003 12H2.75003ZM12 2.75C17.1087 2.75 21.25 6.89137 21.25 12H22.75C22.75 6.06294 17.9371 1.25 12 1.25V2.75ZM3.49782 22.5107L7.85314 21.7848L7.60654 20.3052L3.25122 21.0311L3.49782 22.5107ZM12 21.25C10.5856 21.25 9.24734 20.9331 8.05049 20.367L7.40919 21.723C8.80232 22.3819 10.3592 22.75 12 22.75V21.25ZM3.61511 15.9115C3.0603 14.7244 2.75003 13.3995 2.75003 12H1.25003C1.25003 13.6234 1.61039 15.1648 2.25619 16.5466L3.61511 15.9115ZM2.19532 16.109L1.48268 20.5044L2.96335 20.7445L3.67598 16.3491L2.19532 16.109ZM3.25122 21.0311C3.08248 21.0592 2.93597 20.9134 2.96335 20.7445L1.48268 20.5044C1.29103 21.6865 2.3166 22.7076 3.49782 22.5107L3.25122 21.0311Z" fill="#28303F"/>
<path d="M10 9L6 15L10 12L14 15L18 9L14 12L10 9Z" fill="#28303F"/>
</svg>
