<svg width="24" height="24" viewBox="0 0 24 24" fill="none" xmlns="http://www.w3.org/2000/svg">
<path d="M8.5 3V2.25C8.18536 2.25 7.90416 2.4464 7.79584 2.74181L8.5 3ZM9 13V12.25C8.69332 12.25 8.41754 12.4367 8.30364 12.7215L9 13ZM7 18V18.75C7.30668 18.75 7.58246 18.5633 7.69636 18.2785L7 18ZM3 18L2.29584 17.7418C2.2115 17.9718 2.24483 18.2286 2.38512 18.4295C2.52542 18.6303 2.75499 18.75 3 18.75V18ZM8.5 3.75H13V2.25H8.5V3.75ZM13 12.25H9V13.75H13V12.25ZM8.30364 12.7215L6.30364 17.7215L7.69636 18.2785L9.69636 13.2785L8.30364 12.7215ZM7 17.25H3V18.75H7V17.25ZM3.70416 18.2582L9.20416 3.25819L7.79584 2.74181L2.29584 17.7418L3.70416 18.2582ZM17.25 8C17.25 10.3472 15.3472 12.25 13 12.25V13.75C16.1756 13.75 18.75 11.1756 18.75 8H17.25ZM13 3.75C15.3472 3.75 17.25 5.65279 17.25 8H18.75C18.75 4.82436 16.1756 2.25 13 2.25V3.75Z" fill="#28303F"/>
<path d="M12 16V15.25C11.6933 15.25 11.4176 15.4367 11.3037 15.7214L12 16ZM10 21V21.75C10.3067 21.75 10.5825 21.5633 10.6964 21.2785L10 21ZM5.79297 21L5.09718 20.72C5.00418 20.9511 5.03203 21.2134 5.17149 21.4198C5.31096 21.6263 5.54383 21.75 5.79297 21.75V21ZM7.69582 18.2799C7.85043 17.8956 7.66425 17.4588 7.27998 17.3042C6.8957 17.1496 6.45885 17.3357 6.30423 17.72L7.69582 18.2799ZM18.3003 5.72875C17.9207 5.56291 17.4786 5.73617 17.3128 6.11574C17.1469 6.4953 17.3202 6.93744 17.6997 7.10328L18.3003 5.72875ZM16 15.25H12V16.75H16V15.25ZM11.3037 15.7214L9.30367 20.7214L10.6964 21.2785L12.6964 16.2785L11.3037 15.7214ZM10 20.25H5.79297V21.75H10V20.25ZM20.25 11C20.25 13.3472 18.3472 15.25 16 15.25V16.75C19.1757 16.75 21.75 14.1756 21.75 11H20.25ZM6.48876 21.2799L7.69582 18.2799L6.30423 17.72L5.09718 20.72L6.48876 21.2799ZM17.6997 7.10328C19.2023 7.75979 20.25 9.25837 20.25 11H21.75C21.75 8.64094 20.3295 6.61536 18.3003 5.72875L17.6997 7.10328Z" fill="#28303F"/>
</svg>
