<svg width="24" height="24" viewBox="0 0 24 24" fill="none" xmlns="http://www.w3.org/2000/svg">
<path d="M8.86884 21.5L8.14353 21.3092C8.04264 21.6926 8.25761 22.0883 8.63419 22.2123L8.86884 21.5ZM5.54957 20.6004C5.88076 20.8492 6.35091 20.7824 6.59967 20.4512C6.84844 20.12 6.78162 19.6498 6.45043 19.4011L5.54957 20.6004ZM12.2253 11.6908C12.3307 11.2903 12.0914 10.8801 11.6908 10.7747C11.2903 10.6693 10.8801 10.9086 10.7747 11.3092L12.2253 11.6908ZM21.25 12C21.25 17.1086 17.1086 21.25 12 21.25V22.75C17.9371 22.75 22.75 17.9371 22.75 12H21.25ZM2.75 12C2.75 6.89137 6.89137 2.75 12 2.75V1.25C6.06294 1.25 1.25 6.06294 1.25 12H2.75ZM12 2.75C17.1086 2.75 21.25 6.89137 21.25 12H22.75C22.75 6.06294 17.9371 1.25 12 1.25V2.75ZM12 21.25C10.9871 21.25 10.0137 21.0875 9.10349 20.7877L8.63419 22.2123C9.69392 22.5614 10.8257 22.75 12 22.75V21.25ZM6.45043 19.4011C4.20201 17.7122 2.75 15.0258 2.75 12H1.25C1.25 15.5175 2.9402 18.6404 5.54957 20.6004L6.45043 19.4011ZM10.7747 11.3092L8.14353 21.3092L9.59415 21.6908L12.2253 11.6908L10.7747 11.3092Z" fill="#28303F"/>
<path d="M10.1725 16.6555C10.7386 16.8779 11.355 17 12 17C14.7614 17 17 14.7614 17 12C17 9.23858 14.7614 7 12 7C9.23858 7 7 9.23858 7 12C7 12.9107 7.24349 13.7646 7.66891 14.5" stroke="#28303F" stroke-width="1.5" stroke-linecap="round"/>
</svg>
