<svg width="24" height="24" viewBox="0 0 24 24" fill="none" xmlns="http://www.w3.org/2000/svg">
<path d="M10.5492 16.8482L10.6761 16.109L10.0345 15.9989L9.83522 16.6186L10.5492 16.8482ZM9.16595 21.1503L8.45195 20.9207H8.45195L9.16595 21.1503ZM7.58889 21.9473L7.7979 21.227H7.7979L7.58889 21.9473ZM6.74984 20.4492L7.46384 20.6787L6.74984 20.4492ZM10.7919 7.87792L10.0779 7.64835L10.7919 7.87792ZM13.2081 8.57902L13.9221 8.8086V8.8086L13.2081 8.57902ZM11.2948 14.5295L10.5808 14.3L10.3021 15.1665L11.206 15.2743L11.2948 14.5295ZM6.55763 10.0337L5.81255 10.1194L6.55763 10.0337ZM7.27632 9.4856C7.27632 7.15864 9.32073 5.14996 12 5.14996V3.64996C8.59009 3.64996 5.77632 6.2357 5.77632 9.4856H7.27632ZM12 1.25C7.23952 1.25 3.25 4.8682 3.25 9.4856H4.75C4.75 5.79405 7.96704 2.75 12 2.75V1.25ZM20.75 9.4856C20.75 4.8682 16.7605 1.25 12 1.25V2.75C16.033 2.75 19.25 5.79405 19.25 9.4856H20.75ZM12 17.7212C16.7605 17.7212 20.75 14.103 20.75 9.4856H19.25C19.25 13.1771 16.033 16.2212 12 16.2212V17.7212ZM10.4224 17.5874C10.9353 17.6754 11.4627 17.7212 12 17.7212V16.2212C11.548 16.2212 11.1054 16.1827 10.6761 16.109L10.4224 17.5874ZM9.87995 21.3798L11.2632 17.0778L9.83522 16.6186L8.45195 20.9207L9.87995 21.3798ZM7.37988 22.6676C8.40887 22.9662 9.5432 22.4271 9.87995 21.3798L8.45195 20.9207C8.38111 21.141 8.10329 21.3157 7.7979 21.227L7.37988 22.6676ZM6.03584 20.2196C5.69316 21.2853 6.33726 22.3651 7.37988 22.6676L7.7979 21.227C7.50613 21.1424 7.39892 20.8806 7.46384 20.6787L6.03584 20.2196ZM12.578 6.36055C11.549 6.06196 10.4147 6.60103 10.0779 7.64835L11.5059 8.1075C11.5768 7.88717 11.8546 7.71251 12.16 7.80112L12.578 6.36055ZM13.9221 8.8086C14.2647 7.74286 13.6206 6.66309 12.578 6.36055L12.16 7.80112C12.4518 7.88579 12.559 8.14755 12.4941 8.34945L13.9221 8.8086ZM12.0088 14.7591L13.9221 8.8086L12.4941 8.34945L10.5808 14.3L12.0088 14.7591ZM12 13.8212C11.7904 13.8212 11.5847 13.8088 11.3836 13.7848L11.206 15.2743C11.466 15.3053 11.731 15.3212 12 15.3212V13.8212ZM16.7237 9.4856C16.7237 11.8125 14.6793 13.8212 12 13.8212V15.3212C15.4099 15.3212 18.2237 12.7355 18.2237 9.4856H16.7237ZM12 5.14996C14.6793 5.14996 16.7237 7.15864 16.7237 9.4856H18.2237C18.2237 6.2357 15.4099 3.64996 12 3.64996V5.14996ZM10.0779 7.64835L6.03584 20.2196L7.46384 20.6787L11.5059 8.1075L10.0779 7.64835ZM7.30272 9.94796C7.28529 9.7964 7.27632 9.64217 7.27632 9.4856H5.77632C5.77632 9.69954 5.78858 9.91101 5.81255 10.1194L7.30272 9.94796ZM3.25 9.4856C3.25 9.88366 3.28014 10.2757 3.33846 10.6596L4.82144 10.4343C4.77439 10.1246 4.75 9.80784 4.75 9.4856H3.25ZM3.33846 10.6596C3.55524 12.0867 5.07296 12.5728 6.16951 12.0873L5.56225 10.7157C5.37433 10.7989 5.18273 10.788 5.04584 10.7256C4.91989 10.6683 4.84247 10.5728 4.82144 10.4343L3.33846 10.6596ZM5.81255 10.1194C5.85015 10.4463 5.69736 10.6559 5.56225 10.7157L6.16951 12.0873C7.06237 11.692 7.39359 10.7379 7.30272 9.94796L5.81255 10.1194Z" fill="#28303F"/>
</svg>
