<svg width="24" height="24" viewBox="0 0 24 24" fill="none" xmlns="http://www.w3.org/2000/svg">
<path d="M12 5.5C12 4.67157 12.6716 4 13.5 4V4C14.3284 4 15 4.67157 15 5.5V10.5C15 11.3284 14.3284 12 13.5 12V12C12.6716 12 12 11.3284 12 10.5V5.5Z" stroke="#28303F" stroke-width="1.5"/>
<path d="M17 12H16.25C16.25 12.4142 16.5858 12.75 17 12.75V12ZM18.5 11.25H17V12.75H18.5V11.25ZM17.75 12V10.5H16.25V12H17.75ZM18.5 9.75C18.9142 9.75 19.25 10.0858 19.25 10.5H20.75C20.75 9.25736 19.7426 8.25 18.5 8.25V9.75ZM17.75 10.5C17.75 10.0858 18.0858 9.75 18.5 9.75V8.25C17.2574 8.25 16.25 9.25736 16.25 10.5H17.75ZM18.5 12.75C19.7426 12.75 20.75 11.7426 20.75 10.5H19.25C19.25 10.9142 18.9142 11.25 18.5 11.25V12.75Z" fill="#28303F"/>
<path d="M14 19H13.25C13.25 18.5858 13.5858 18.25 14 18.25V19ZM15.5 19.75H14V18.25H15.5V19.75ZM14.75 19V20.5H13.25V19H14.75ZM15.5 21.25C15.9142 21.25 16.25 20.9142 16.25 20.5H17.75C17.75 21.7426 16.7426 22.75 15.5 22.75V21.25ZM14.75 20.5C14.75 20.9142 15.0858 21.25 15.5 21.25V22.75C14.2574 22.75 13.25 21.7426 13.25 20.5H14.75ZM15.5 18.25C16.7426 18.25 17.75 19.2574 17.75 20.5H16.25C16.25 20.0858 15.9142 19.75 15.5 19.75V18.25Z" fill="#28303F"/>
<path d="M10 7H10.75C10.75 7.41421 10.4142 7.75 10 7.75V7ZM8.5 6.25H10V7.75H8.5V6.25ZM9.25 7V5.5H10.75V7H9.25ZM8.5 4.75C8.08579 4.75 7.75 5.08579 7.75 5.5H6.25C6.25 4.25736 7.25736 3.25 8.5 3.25V4.75ZM9.25 5.5C9.25 5.08579 8.91421 4.75 8.5 4.75V3.25C9.74264 3.25 10.75 4.25736 10.75 5.5H9.25ZM8.5 7.75C7.25736 7.75 6.25 6.74264 6.25 5.5H7.75C7.75 5.91421 8.08579 6.25 8.5 6.25V7.75Z" fill="#28303F"/>
<path d="M7 14H7.75C7.75 13.5858 7.41421 13.25 7 13.25V14ZM5.5 14.75H7V13.25H5.5V14.75ZM6.25 14V15.5H7.75V14H6.25ZM5.5 16.25C5.08579 16.25 4.75 15.9142 4.75 15.5H3.25C3.25 16.7426 4.25736 17.75 5.5 17.75V16.25ZM6.25 15.5C6.25 15.9142 5.91421 16.25 5.5 16.25V17.75C6.74264 17.75 7.75 16.7426 7.75 15.5H6.25ZM5.5 13.25C4.25736 13.25 3.25 14.2574 3.25 15.5H4.75C4.75 15.0858 5.08579 14.75 5.5 14.75V13.25Z" fill="#28303F"/>
<path d="M9 15.5C9 14.6716 9.67157 14 10.5 14V14C11.3284 14 12 14.6716 12 15.5V20.5C12 21.3284 11.3284 22 10.5 22V22C9.67157 22 9 21.3284 9 20.5V15.5Z" stroke="#28303F" stroke-width="1.5"/>
<path d="M8.5 9C9.32843 9 10 9.67157 10 10.5V10.5C10 11.3284 9.32843 12 8.5 12L3.5 12C2.67157 12 2 11.3284 2 10.5V10.5C2 9.67157 2.67157 9 3.5 9L8.5 9Z" stroke="#28303F" stroke-width="1.5"/>
<path d="M20.5 14C21.3284 14 22 14.6716 22 15.5V15.5C22 16.3284 21.3284 17 20.5 17L15.5 17C14.6716 17 14 16.3284 14 15.5V15.5C14 14.6716 14.6716 14 15.5 14L20.5 14Z" stroke="#28303F" stroke-width="1.5"/>
</svg>
