<svg width="24" height="24" viewBox="0 0 24 24" fill="none" xmlns="http://www.w3.org/2000/svg">
<path d="M22 17V17.75C22.3228 17.75 22.6094 17.5434 22.7115 17.2372C22.8136 16.9309 22.7083 16.5937 22.45 16.4L22 17ZM2 17L1.55 16.4C1.29174 16.5937 1.1864 16.9309 1.28849 17.2372C1.39057 17.5434 1.67718 17.75 2 17.75V17ZM6 8.5V9.25C6.41421 9.25 6.75 8.91421 6.75 8.5H6ZM6 11.5H6.75C6.75 11.0858 6.41422 10.75 6 10.75L6 11.5ZM18 8.5H17.25C17.25 8.91421 17.5858 9.25 18 9.25V8.5ZM18 11.5L18 10.75C17.5858 10.75 17.25 11.0858 17.25 11.5H18ZM18.5 11.5L18.5 10.75L18.5 11.5ZM5.49999 11.5L5.5 10.75L5.49999 11.5ZM8.53333 19.4L8.08333 20L8.53333 19.4ZM7.33334 19L7.33335 18.25L7.33334 19ZM14.4 20.2L14.85 20.8L14.4 20.2ZM9.60001 20.2L9.15001 20.8L9.60001 20.2ZM15.4667 19.4L15.9167 20L15.4667 19.4ZM4.36467 17.5886L3.80285 18.0854L4.36467 17.5886ZM6.56154 19L6.56155 18.25L6.56154 19ZM19.6 15.2L19.15 15.8L19.6 15.2ZM19.6353 17.5886L20.1972 18.0855L19.6353 17.5886ZM20.1972 18.0855C20.3211 17.9453 20.4709 17.8613 20.7392 17.8105C21.0435 17.7528 21.4258 17.75 22 17.75V16.25C21.4721 16.25 20.9323 16.2472 20.46 16.3367C19.9516 16.433 19.47 16.6434 19.0735 17.0918L20.1972 18.0855ZM22.45 16.4L20.05 14.6L19.15 15.8L21.55 17.6L22.45 16.4ZM2.45 17.6L4.84999 15.8L3.94999 14.6L1.55 16.4L2.45 17.6ZM17.4384 18.25H16.6667V19.75H17.4384V18.25ZM15.0167 18.8L13.95 19.6L14.85 20.8L15.9167 20L15.0167 18.8ZM10.05 19.6L8.98333 18.8L8.08333 20L9.15001 20.8L10.05 19.6ZM2 17.75C2.57418 17.75 2.95648 17.7528 3.26081 17.8105C3.52909 17.8613 3.67887 17.9453 3.80285 18.0854L4.9265 17.0918C4.52995 16.6433 4.04844 16.433 3.54003 16.3367C3.06767 16.2472 2.5279 16.25 2 16.25V17.75ZM7.33335 18.25L6.56155 18.25L6.56154 19.75L7.33334 19.75L7.33335 18.25ZM6.75 8.5V8.00001H5.25V8.5H6.75ZM6.75 12V11.5H5.25V12H6.75ZM5.50001 9.25H6V7.75H5.50001V9.25ZM6 10.75L5.5 10.75L5.49999 12.25L5.99999 12.25L6 10.75ZM18.75 8.5V8.00001H17.25V8.5H18.75ZM18.75 12V11.5H17.25V12H18.75ZM18.5 7.75H18V9.25H18.5V7.75ZM18 12.25L18.5 12.25L18.5 10.75L18 10.75L18 12.25ZM18.5 12.25C19.7426 12.25 20.75 11.2426 20.75 10H19.25C19.25 10.4142 18.9142 10.75 18.5 10.75L18.5 12.25ZM18.5 9.25C18.9142 9.25 19.25 9.58579 19.25 10H20.75C20.75 8.75736 19.7426 7.75 18.5 7.75V9.25ZM5.5 10.75C5.08579 10.75 4.75 10.4142 4.75 10H3.25C3.25 11.2426 4.25735 12.25 5.49999 12.25L5.5 10.75ZM8.98333 18.8C8.50732 18.443 7.92836 18.25 7.33335 18.25L7.33334 19.75C7.6038 19.75 7.86696 19.8377 8.08333 20L8.98333 18.8ZM13.95 19.6C12.7944 20.4667 11.2056 20.4667 10.05 19.6L9.15001 20.8C10.8389 22.0667 13.1611 22.0667 14.85 20.8L13.95 19.6ZM16.6667 18.25C16.0716 18.25 15.4927 18.443 15.0167 18.8L15.9167 20C16.133 19.8377 16.3962 19.75 16.6667 19.75V18.25ZM3.80285 18.0854C4.10221 18.424 4.46953 18.8339 4.89906 19.1537C5.33963 19.4817 5.89083 19.75 6.56154 19.75L6.56155 18.25C6.31452 18.25 6.07127 18.1563 5.79483 17.9505C5.50734 17.7365 5.23509 17.4407 4.9265 17.0918L3.80285 18.0854ZM20.05 14.6C19.2316 13.9862 18.75 13.023 18.75 12H17.25C17.25 13.4951 17.9539 14.903 19.15 15.8L20.05 14.6ZM5.50001 7.75C4.25736 7.75 3.25 8.75736 3.25 10H4.75C4.75 9.58579 5.08579 9.25 5.50001 9.25V7.75ZM19.0735 17.0918C18.7649 17.4407 18.4927 17.7365 18.2052 17.9505C17.9287 18.1564 17.6855 18.25 17.4384 18.25V19.75C18.1092 19.75 18.6604 19.4817 19.1009 19.1537C19.5305 18.8339 19.8978 18.424 20.1972 18.0855L19.0735 17.0918ZM4.84999 15.8C6.04607 14.903 6.75 13.4951 6.75 12H5.25C5.25 13.023 4.76837 13.9862 3.94999 14.6L4.84999 15.8ZM12 2.75001C14.8995 2.75001 17.25 5.10052 17.25 8.00001H18.75C18.75 4.27209 15.7279 1.25001 12 1.25001L12 2.75001ZM12 1.25001C8.27208 1.25 5.25 4.27208 5.25 8.00001H6.75C6.75 5.10051 9.10051 2.75 12 2.75001L12 1.25001Z" fill="#28303F"/>
</svg>
