<svg width="24" height="24" viewBox="0 0 24 24" fill="none" xmlns="http://www.w3.org/2000/svg">
<path d="M19.2976 4.44458L19 3.75612L19 3.75612L19.2976 4.44458ZM3.90891 11.0952L3.61137 10.4067H3.61137L3.90891 11.0952ZM20.682 5.51906L21.4227 5.63646V5.63645L20.682 5.51906ZM18.5779 18.795L17.8372 18.6776L18.5779 18.795ZM16.8631 19.325L16.316 19.838L16.3177 19.8398L16.8631 19.325ZM4.16248 13.0028L4.05512 13.7451H4.05512L4.16248 13.0028ZM10.6065 12.8927L10.1887 12.2699L10.6065 12.8927ZM7.80554 13.5297L7.91289 12.7875L7.80554 13.5297ZM15.7232 9.92966L15.1309 9.4695C15.1249 9.47728 15.119 9.48518 15.1133 9.4932L15.7232 9.92966ZM15.4538 9.64086L15.8717 10.2637L15.4538 9.64086ZM13.5295 15.7699L14.0766 15.2569L14.0748 15.255L13.5295 15.7699ZM13.4045 13.1698L13.9967 13.63C14.0027 13.6222 14.0086 13.6143 14.0144 13.6063L13.4045 13.1698ZM19 3.75612L3.61137 10.4067L4.20644 11.7837L19.5951 5.13304L19 3.75612ZM21.4227 5.63645C21.6387 4.27383 20.2665 3.20881 19 3.75612L19.5951 5.13304C19.776 5.05485 19.9721 5.20699 19.9412 5.40166L21.4227 5.63645ZM19.3187 18.9124L21.4227 5.63646L19.9412 5.40166L17.8372 18.6776L19.3187 18.9124ZM16.3177 19.8398C17.3152 20.8964 19.0912 20.3475 19.3187 18.9124L17.8372 18.6776C17.8047 18.8826 17.551 18.9611 17.4085 18.8101L16.3177 19.8398ZM12.9824 16.2829L16.316 19.838L17.4102 18.812L14.0766 15.2569L12.9824 16.2829ZM14.0144 13.6063L16.3331 10.3661L15.1133 9.4932L12.7945 12.7334L14.0144 13.6063ZM15.036 9.01803L10.1887 12.2699L11.0243 13.5155L15.8717 10.2637L15.036 9.01803ZM4.05512 13.7451L7.69818 14.272L7.91289 12.7875L4.26983 12.2606L4.05512 13.7451ZM3.61137 10.4067C1.99153 11.1068 2.30864 13.4925 4.05512 13.7451L4.26983 12.2606C4.19056 12.2491 4.14844 12.2192 4.12208 12.1907C4.09115 12.1573 4.06591 12.1071 4.0578 12.0461C4.04969 11.9851 4.06094 11.9301 4.08208 11.8897C4.10008 11.8553 4.13292 11.8154 4.20644 11.7837L3.61137 10.4067ZM10.1887 12.2699C9.52034 12.7182 8.70941 12.9027 7.91289 12.7875L7.69818 14.272C8.86232 14.4404 10.0475 14.1708 11.0243 13.5155L10.1887 12.2699ZM16.3154 10.3898C16.9774 9.5378 15.932 8.41692 15.036 9.01803L15.8717 10.2637C15.3529 10.6117 14.7477 9.96278 15.1309 9.4695L16.3154 10.3898ZM14.0748 15.255C13.6516 14.8067 13.6184 14.1168 13.9967 13.63L12.8122 12.7097C11.98 13.7807 12.053 15.2985 12.9841 16.2848L14.0748 15.255Z" fill="#28303F"/>
</svg>
