<svg width="24" height="24" viewBox="0 0 24 24" fill="none" xmlns="http://www.w3.org/2000/svg">
<path d="M10 9H10.75C10.75 8.58579 10.4142 8.25 10 8.25V9ZM10 12V12.75C10.4142 12.75 10.75 12.4142 10.75 12H10ZM13 3V2.25C12.5858 2.25 12.25 2.58579 12.25 3H13ZM16 3H16.75C16.75 2.58579 16.4142 2.25 16 2.25V3ZM16 8.19731L16.3755 7.5481C16.1435 7.41388 15.8575 7.4137 15.6253 7.54763C15.3931 7.68156 15.25 7.92924 15.25 8.19731H16ZM20 6H20.75C20.75 5.58579 20.4142 5.25 20 5.25V6ZM20 9V9.75C20.4142 9.75 20.75 9.41421 20.75 9H20ZM15.25 15C15.25 17.8995 12.8995 20.25 10 20.25V21.75C13.7279 21.75 16.75 18.7279 16.75 15H15.25ZM10 20.25C7.10051 20.25 4.75 17.8995 4.75 15H3.25C3.25 18.7279 6.27208 21.75 10 21.75V20.25ZM4.75 15C4.75 12.1005 7.10051 9.75 10 9.75V8.25C6.27208 8.25 3.25 11.2721 3.25 15H4.75ZM12.25 15C12.25 16.2426 11.2426 17.25 10 17.25V18.75C12.0711 18.75 13.75 17.0711 13.75 15H12.25ZM10 17.25C8.75736 17.25 7.75 16.2426 7.75 15H6.25C6.25 17.0711 7.92893 18.75 10 18.75V17.25ZM7.75 15C7.75 13.7574 8.75736 12.75 10 12.75V11.25C7.92893 11.25 6.25 12.9289 6.25 15H7.75ZM19 5.25C17.7574 5.25 16.75 4.24264 16.75 3H15.25C15.25 5.07107 16.9289 6.75 19 6.75V5.25ZM12.25 3V15H13.75V3H12.25ZM13 3.75H16V2.25H13V3.75ZM9.25 9V12H10.75V9H9.25ZM16.75 15V8.19731H15.25V15H16.75ZM19 8.25C18.0425 8.25 17.147 7.99436 16.3755 7.5481L15.6245 8.84651C16.6181 9.42128 17.7718 9.75 19 9.75V8.25ZM19 6.75H20V5.25H19V6.75ZM19.25 6V9H20.75V6H19.25ZM20 8.25H19V9.75H20V8.25Z" fill="#28303F"/>
</svg>
