<svg width="24" height="24" viewBox="0 0 24 24" fill="none" xmlns="http://www.w3.org/2000/svg">
<path d="M10 8H9.25C9.25 8.41421 9.58579 8.75 10 8.75V8ZM10 12V11.25C9.58579 11.25 9.25 11.5858 9.25 12H10ZM6.75 17V4H5.25V17H6.75ZM16 21.25H11V22.75H16V21.25ZM10 8.75H16V7.25H10V8.75ZM16 11.25H10V12.75H16V11.25ZM9.25 12V16H10.75V12H9.25ZM12 18.75H16V17.25H12V18.75ZM10.75 8V4H9.25V8H10.75ZM9.25 16C9.25 17.5188 10.4812 18.75 12 18.75V17.25C11.3096 17.25 10.75 16.6904 10.75 16H9.25ZM17.25 10C17.25 10.6904 16.6904 11.25 16 11.25V12.75C17.5188 12.75 18.75 11.5188 18.75 10H17.25ZM18.75 10C18.75 8.48122 17.5188 7.25 16 7.25V8.75C16.6904 8.75 17.25 9.30964 17.25 10H18.75ZM17.25 20C17.25 20.6904 16.6904 21.25 16 21.25V22.75C17.5188 22.75 18.75 21.5188 18.75 20H17.25ZM18.75 20C18.75 18.4812 17.5188 17.25 16 17.25V18.75C16.6904 18.75 17.25 19.3096 17.25 20H18.75ZM5.25 17C5.25 20.1756 7.82436 22.75 11 22.75V21.25C8.65279 21.25 6.75 19.3472 6.75 17H5.25ZM8 2.75C8.69036 2.75 9.25 3.30964 9.25 4H10.75C10.75 2.48122 9.51878 1.25 8 1.25V2.75ZM8 1.25C6.48122 1.25 5.25 2.48122 5.25 4H6.75C6.75 3.30964 7.30964 2.75 8 2.75V1.25Z" fill="#28303F"/>
</svg>
