<svg width="24" height="24" viewBox="0 0 24 24" fill="none" xmlns="http://www.w3.org/2000/svg">
<path d="M9 2V1.25C8.58579 1.25 8.25 1.58579 8.25 2H9ZM5 7V6.25C4.58579 6.25 4.25 6.58579 4.25 7H5ZM5 11H4.25C4.25 11.4142 4.58579 11.75 5 11.75V11ZM9 11H9.75C9.75 10.5858 9.41421 10.25 9 10.25V11ZM19 22V22.75C19.4142 22.75 19.75 22.4142 19.75 22H19ZM19 18H19.75C19.75 17.5858 19.4142 17.25 19 17.25V18ZM13 11V10.25C12.5858 10.25 12.25 10.5858 12.25 11H13ZM17 11V11.75C17.4142 11.75 17.75 11.4142 17.75 11H17ZM17 7H17.75C17.75 6.58579 17.4142 6.25 17 6.25V7ZM13 7H12.25C12.25 7.41421 12.5858 7.75 13 7.75V7ZM13 2H13.75C13.75 1.58579 13.4142 1.25 13 1.25V2ZM8.25 2V3.5H9.75V2H8.25ZM5.5 6.25H5V7.75H5.5V6.25ZM4.25 7V11H5.75V7H4.25ZM5 11.75H9V10.25H5V11.75ZM8.25 11V16H9.75V11H8.25ZM15 22.75H19V21.25H15V22.75ZM19.75 22V18H18.25V22H19.75ZM19 17.25H15V18.75H19V17.25ZM13.75 16V11H12.25V16H13.75ZM13 11.75H17V10.25H13V11.75ZM17.75 11V7H16.25V11H17.75ZM17 6.25H13V7.75H17V6.25ZM13.75 7V2H12.25V7H13.75ZM13 1.25H9V2.75H13V1.25ZM15 17.25C14.3096 17.25 13.75 16.6904 13.75 16H12.25C12.25 17.5188 13.4812 18.75 15 18.75V17.25ZM8.25 16C8.25 19.7279 11.2721 22.75 15 22.75V21.25C12.1005 21.25 9.75 18.8995 9.75 16H8.25ZM8.25 3.5C8.25 5.01878 7.01878 6.25 5.5 6.25V7.75C7.84721 7.75 9.75 5.84721 9.75 3.5H8.25Z" fill="#28303F"/>
</svg>
