<svg width="24" height="24" viewBox="0 0 24 24" fill="none" xmlns="http://www.w3.org/2000/svg">
<path d="M7.66725 20L7.64668 20.7497C7.65353 20.7499 7.66039 20.75 7.66725 20.75V20ZM3 4.88889L3.5973 4.43531C3.40257 4.17887 3.06587 4.07535 2.76071 4.17809C2.45554 4.28082 2.25 4.56689 2.25 4.88889H3ZM8.4 16.4444L8.92703 16.9781C9.1355 16.7722 9.20498 16.4637 9.10491 16.1883C9.00484 15.9129 8.75355 15.721 8.46152 15.697L8.4 16.4444ZM3 18.9503L2.92881 18.2037C2.63318 18.2319 2.38203 18.4319 2.28832 18.7137C2.19461 18.9955 2.276 19.306 2.49587 19.5056L3 18.9503ZM11.5889 8.96808V9.71808C11.8182 9.71808 12.0349 9.61318 12.1772 9.43333C12.3194 9.25349 12.3716 9.01845 12.3188 8.79532L11.5889 8.96808ZM21 4.88889L21.7148 5.11581C21.8205 4.78294 21.6824 4.42119 21.3819 4.24338C21.0813 4.06556 20.6977 4.11876 20.4569 4.37166L21 4.88889ZM19.0934 8.22229L18.6845 7.59355C18.4756 7.72941 18.3478 7.96016 18.3435 8.20932L19.0934 8.22229ZM18.2303 5.46181L17.6397 5.92409C17.7316 6.04143 17.8563 6.12874 17.9979 6.17491L18.2303 5.46181ZM12.2266 8C12.2266 6.17014 13.6304 4.75 15.286 4.75V3.25C12.7338 3.25 10.7266 5.41158 10.7266 8H12.2266ZM7.87297 15.9108C6.64696 17.1217 4.70491 18.0344 2.92881 18.2037L3.07119 19.6969C5.18808 19.4951 7.45304 18.4338 8.92703 16.9781L7.87297 15.9108ZM11.5889 8.21808C9.41235 8.21808 6.0951 7.7246 3.5973 4.43531L2.4027 5.34246C5.3049 9.16429 9.18765 9.71808 11.5889 9.71808V8.21808ZM12.3188 8.79532C12.2587 8.54165 12.2266 8.27535 12.2266 8H10.7266C10.7266 8.3923 10.7724 8.77454 10.8591 9.14084L12.3188 8.79532ZM7.68782 19.2503C7.11342 19.2345 6.19427 19.1649 5.32735 19.0096C4.89389 18.932 4.49028 18.8358 4.15659 18.7211C3.80851 18.6015 3.60127 18.4832 3.50413 18.395L2.49587 19.5056C2.81745 19.7976 3.25212 19.9964 3.66909 20.1397C4.10046 20.288 4.58504 20.4005 5.06286 20.4861C6.01851 20.6573 7.01426 20.7324 7.64668 20.7497L7.68782 19.2503ZM20.2852 4.66196C20.2064 4.91014 20.0456 5.49166 19.7598 6.1201C19.464 6.77086 19.0959 7.326 18.6845 7.59355L19.5023 8.85104C20.2878 8.34021 20.8025 7.45109 21.1253 6.74095C21.4584 6.00851 21.6524 5.31252 21.7148 5.11581L20.2852 4.66196ZM18.3435 8.20932C18.2371 14.3599 13.465 19.25 7.66725 19.25V20.75C14.3512 20.75 19.7239 15.1344 19.8433 8.23527L18.3435 8.20932ZM17.9979 6.17491C18.6255 6.3794 19.308 6.38664 19.9164 6.25698C20.5182 6.12875 21.1199 5.85046 21.5431 5.40612L20.4569 4.37166C20.2969 4.53962 19.9987 4.70578 19.6038 4.78992C19.2156 4.87264 18.8048 4.86019 18.4627 4.74871L17.9979 6.17491ZM15.286 4.75C16.2239 4.75 17.072 5.1988 17.6397 5.92409L18.8209 4.99952C17.9913 3.93973 16.7204 3.25 15.286 3.25V4.75ZM8.46152 15.697C7.26444 15.5984 3.75 13.6473 3.75 4.88889H2.25C2.25 13.9082 5.93556 16.9941 8.33848 17.1919L8.46152 15.697Z" fill="#28303F"/>
</svg>
