<svg width="24" height="24" viewBox="0 0 24 24" fill="none" xmlns="http://www.w3.org/2000/svg">
<path d="M7.72984 21.045L8.05049 20.367C7.91227 20.3017 7.75737 20.2801 7.60654 20.3052L7.72984 21.045ZM2.93565 16.229L3.67598 16.3491C3.70008 16.2004 3.67887 16.0479 3.61511 15.9115L2.93565 16.229ZM3.37452 21.7709L3.25122 21.0311L3.37452 21.7709ZM21.25 12C21.25 17.1086 17.1087 21.25 12 21.25V22.75C17.9371 22.75 22.75 17.9371 22.75 12H21.25ZM2.75003 12C2.75003 6.89137 6.89139 2.75 12 2.75V1.25C6.06296 1.25 1.25003 6.06294 1.25003 12H2.75003ZM12 2.75C17.1087 2.75 21.25 6.89137 21.25 12H22.75C22.75 6.06294 17.9371 1.25 12 1.25V2.75ZM3.49782 22.5107L7.85314 21.7848L7.60654 20.3052L3.25122 21.0311L3.49782 22.5107ZM12 21.25C10.5856 21.25 9.24734 20.9331 8.05049 20.367L7.40919 21.723C8.80232 22.3819 10.3592 22.75 12 22.75V21.25ZM3.61511 15.9115C3.0603 14.7244 2.75003 13.3995 2.75003 12H1.25003C1.25003 13.6234 1.61039 15.1648 2.25619 16.5466L3.61511 15.9115ZM2.19532 16.109L1.48268 20.5044L2.96335 20.7445L3.67598 16.3491L2.19532 16.109ZM3.25122 21.0311C3.08248 21.0592 2.93597 20.9134 2.96335 20.7445L1.48268 20.5044C1.29103 21.6865 2.3166 22.7076 3.49782 22.5107L3.25122 21.0311Z" fill="#28303F"/>
<path d="M16 15.1111V14.6749C16 14.1331 15.6701 13.6458 15.167 13.4446L14.7005 13.258C14.1789 13.0494 13.5845 13.2753 13.3333 13.7778C13.3333 13.7778 12.2222 13.5556 11.3333 12.6667C10.4444 11.7778 10.2222 10.6667 10.2222 10.6667C10.7247 10.4155 10.9506 9.82105 10.742 9.29949L10.5554 8.83296C10.3542 8.32988 9.86693 8 9.32509 8H8.88889C8.39797 8 8 8.39797 8 8.88889C8 12.8162 11.1838 16 15.1111 16C15.602 16 16 15.602 16 15.1111Z" fill="#28303F"/>
</svg>
