<svg width="24" height="24" viewBox="0 0 24 24" fill="none" xmlns="http://www.w3.org/2000/svg">
<circle cx="14.0392" cy="5.26833" r="1.14186" stroke="#28303F" stroke-width="1.5"/>
<path d="M5.86645 16.8856C5.86645 17.1986 5.6127 17.4524 5.29968 17.4524V18.9524C6.44112 18.9524 7.36645 18.0271 7.36645 16.8856H5.86645ZM5.29968 17.4524C4.98666 17.4524 4.73291 17.1986 4.73291 16.8856H3.23291C3.23291 18.0271 4.15823 18.9524 5.29968 18.9524V17.4524ZM4.73291 16.8856C4.73291 16.5726 4.98666 16.3188 5.29968 16.3188V14.8188C4.15823 14.8188 3.23291 15.7442 3.23291 16.8856H4.73291ZM5.29968 16.3188C5.6127 16.3188 5.86645 16.5726 5.86645 16.8856H7.36645C7.36645 15.7442 6.44112 14.8188 5.29968 14.8188V16.3188ZM8.49998 16.8856C8.49998 17.7268 7.96323 18.8789 7.1796 19.873C6.7995 20.3552 6.39232 20.7597 6.02305 21.036C5.62424 21.3345 5.37777 21.4027 5.29967 21.4027V22.9027C5.87996 22.9027 6.45647 22.5852 6.92179 22.237C7.41666 21.8666 7.91475 21.3634 8.35763 20.8016C9.21997 19.7076 9.99998 18.2261 9.99998 16.8856H8.49998ZM5.29967 21.4027C5.22158 21.4027 4.9751 21.3345 4.5763 21.036C4.20703 20.7597 3.79985 20.3552 3.41974 19.873C2.63612 18.8789 2.09937 17.7268 2.09937 16.8856H0.599365C0.599365 18.2261 1.37938 19.7076 2.24172 20.8016C2.68459 21.3634 3.18269 21.8666 3.67755 22.237C4.14288 22.5852 4.71939 22.9027 5.29967 22.9027V21.4027ZM2.09937 16.8856C2.09937 15.1181 3.53219 13.6853 5.29967 13.6853V12.1853C2.70376 12.1853 0.599365 14.2897 0.599365 16.8856H2.09937ZM5.29967 13.6853C7.06715 13.6853 8.49998 15.1181 8.49998 16.8856H9.99998C9.99998 14.2897 7.89558 12.1853 5.29967 12.1853V13.6853Z" fill="#28303F"/>
<path d="M16.7148 5.26836C16.7148 5.96462 16.2655 6.94181 15.5912 7.79725C15.2658 8.21012 14.9187 8.55432 14.6068 8.78772C14.4512 8.90421 14.3163 8.98406 14.2079 9.03257C14.1545 9.05646 14.1127 9.07043 14.0823 9.07811C14.0517 9.08584 14.0381 9.0858 14.0392 9.0858V10.5858C14.5758 10.5858 15.0976 10.2939 15.5056 9.98866C15.943 9.66127 16.381 9.21834 16.7692 8.72583C17.5223 7.77053 18.2148 6.46399 18.2148 5.26836H16.7148ZM14.0392 9.0858C14.0403 9.0858 14.0268 9.08584 13.9962 9.07811C13.9658 9.07043 13.9239 9.05646 13.8706 9.03257C13.7622 8.98406 13.6273 8.90421 13.4716 8.78772C13.1598 8.55432 12.8127 8.21012 12.4873 7.79725C11.8129 6.94181 11.3636 5.96462 11.3636 5.26836H9.86365C9.86365 6.46399 10.5562 7.77053 11.3092 8.72583C11.6974 9.21834 12.1354 9.66127 12.5729 9.98866C12.9808 10.2939 13.5027 10.5858 14.0392 10.5858V9.0858ZM11.3636 5.26836C11.3636 3.79067 12.5615 2.59277 14.0392 2.59277V1.09277C11.7331 1.09277 9.86365 2.96225 9.86365 5.26836H11.3636ZM14.0392 2.59277C15.5169 2.59277 16.7148 3.79067 16.7148 5.26836H18.2148C18.2148 2.96225 16.3453 1.09277 14.0392 1.09277V2.59277Z" fill="#28303F"/>
<path d="M13.9455 12.1946V14.9599C13.9455 16.2258 14.9718 17.252 16.2377 17.252H18.495C19.7802 17.252 20.822 18.2939 20.822 19.5791C20.822 20.8642 19.7802 21.9061 18.495 21.9061H9.96451" stroke="#28303F" stroke-width="1.5" stroke-linecap="round"/>
</svg>
