<svg width="24" height="24" viewBox="0 0 24 24" fill="none" xmlns="http://www.w3.org/2000/svg">
<path d="M7.5 16C7.5 16.8284 6.82843 17.5 6 17.5C5.17157 17.5 4.5 16.8284 4.5 16C4.5 15.1716 5.17157 14.5 6 14.5C6.82843 14.5 7.5 15.1716 7.5 16Z" fill="#28303F"/>
<path d="M20 5C20 5.55228 19.5523 6 19 6C18.4477 6 18 5.55228 18 5C18 4.44772 18.4477 4 19 4C19.5523 4 20 4.44772 20 5Z" fill="#28303F"/>
<path d="M9.25 16C9.25 16.9255 8.81301 18.2902 8.11052 19.4365C7.76437 20.0014 7.37713 20.4738 6.98913 20.7966C6.59574 21.1238 6.26059 21.25 6 21.25V22.75C6.73941 22.75 7.40426 22.4024 7.94837 21.9498C8.49787 21.4927 8.98563 20.8793 9.38948 20.2203C10.187 18.9189 10.75 17.2836 10.75 16H9.25ZM6 21.25C5.73941 21.25 5.40426 21.1238 5.01087 20.7966C4.62287 20.4738 4.23563 20.0014 3.88948 19.4365C3.18699 18.2902 2.75 16.9255 2.75 16H1.25C1.25 17.2836 1.81301 18.9189 2.61052 20.2203C3.01437 20.8793 3.50213 21.4927 4.05163 21.9498C4.59574 22.4024 5.26059 22.75 6 22.75V21.25ZM2.75 16C2.75 14.2051 4.20507 12.75 6 12.75V11.25C3.37665 11.25 1.25 13.3766 1.25 16H2.75ZM6 12.75C7.79493 12.75 9.25 14.2051 9.25 16H10.75C10.75 13.3766 8.62335 11.25 6 11.25V12.75Z" fill="#28303F"/>
<path d="M21.25 5C21.25 5.37483 21.0836 5.88252 20.7633 6.47646C20.4519 7.05377 20.0371 7.63645 19.637 8.14066L20.8121 9.07302C21.2415 8.53179 21.7145 7.87256 22.0834 7.18857C22.4434 6.52122 22.75 5.74822 22.75 5H21.25ZM18.2726 8.18811C17.887 7.73791 17.4969 7.21666 17.2065 6.68135C16.9118 6.13828 16.75 5.63596 16.75 5.20914H15.25C15.25 5.98677 15.5341 6.74428 15.8881 7.39672C16.2463 8.05692 16.7077 8.66685 17.1333 9.1638L18.2726 8.18811ZM16.75 5.20914C16.75 4.26038 17.0342 3.66982 17.4006 3.31472C17.773 2.95382 18.3192 2.75 19 2.75V1.25C18.0239 1.25 17.0701 1.54618 16.3567 2.23757C15.6373 2.93475 15.25 3.94876 15.25 5.20914H16.75ZM19 2.75C19.6818 2.75 20.2366 2.95484 20.6132 3.30168C20.9797 3.63921 21.25 4.17738 21.25 5H22.75C22.75 3.82262 22.3487 2.86079 21.6294 2.19832C20.9202 1.54516 19.9751 1.25 19 1.25V2.75ZM19.637 8.14066C19.2681 8.60569 18.6346 8.61084 18.2726 8.18811L17.1333 9.1638C18.1328 10.3309 19.88 10.2477 20.8121 9.07302L19.637 8.14066Z" fill="#28303F"/>
<path d="M11.9697 15.4697C11.6768 15.7626 11.6768 16.2374 11.9697 16.5303C12.2626 16.8232 12.7374 16.8232 13.0303 16.5303L11.9697 15.4697ZM17.5303 12.0303C17.8232 11.7374 17.8232 11.2626 17.5303 10.9697C17.2374 10.6768 16.7626 10.6768 16.4697 10.9697L17.5303 12.0303ZM13.191 16.3696C13.4839 16.0767 13.4839 15.6018 13.191 15.309C12.8982 15.0161 12.4233 15.0161 12.1304 15.309L13.191 16.3696ZM14.059 13.3804C13.7661 13.6733 13.7661 14.1482 14.059 14.441C14.3518 14.7339 14.8267 14.7339 15.1196 14.441L14.059 13.3804ZM15.441 14.1196C15.7339 13.8267 15.7339 13.3518 15.441 13.059C15.1482 12.7661 14.6733 12.7661 14.3804 13.059L15.441 14.1196ZM16.309 11.1304C16.0161 11.4233 16.0161 11.8982 16.309 12.191C16.6018 12.4839 17.0767 12.4839 17.3696 12.191L16.309 11.1304ZM13.0303 16.5303L13.191 16.3696L12.1304 15.309L11.9697 15.4697L13.0303 16.5303ZM15.1196 14.441L15.441 14.1196L14.3804 13.059L14.059 13.3804L15.1196 14.441ZM17.3696 12.191L17.5303 12.0303L16.4697 10.9697L16.309 11.1304L17.3696 12.191Z" fill="#28303F"/>
</svg>
