<svg width="24" height="24" viewBox="0 0 24 24" fill="none" xmlns="http://www.w3.org/2000/svg">
<path d="M19.1994 17.4393L18.6232 17.9194L18.6232 17.9194L19.1994 17.4393ZM20.2663 18.7196L20.8425 18.2395V18.2395L20.2663 18.7196ZM3.73361 18.7196L4.30978 19.1998L3.73361 18.7196ZM4.80059 17.4393L4.22442 16.9591L4.80059 17.4393ZM15 15.25C14.5858 15.25 14.25 15.5858 14.25 16C14.25 16.4142 14.5858 16.75 15 16.75V15.25ZM8.99997 16.75C9.41419 16.75 9.74997 16.4142 9.74997 16C9.74997 15.5858 9.41419 15.25 8.99997 15.25V16.75ZM18.6232 17.9194L19.6902 19.1998L20.8425 18.2395L19.7755 16.9591L18.6232 17.9194ZM18.7299 21.25H5.27006V22.75H18.7299V21.25ZM4.30978 19.1998L5.37676 17.9194L4.22442 16.9591L3.15745 18.2395L4.30978 19.1998ZM16.1265 15.25H15V16.75H16.1265V15.25ZM7.87347 16.75H8.99997V15.25H7.87347V16.75ZM5.27006 21.25C4.21026 21.25 3.63132 20.0139 4.30978 19.1998L3.15745 18.2395C1.66482 20.0306 2.9385 22.75 5.27006 22.75V21.25ZM19.6902 19.1998C20.3686 20.0139 19.7897 21.25 18.7299 21.25V22.75C21.0614 22.75 22.3351 20.0306 20.8425 18.2395L19.6902 19.1998ZM19.7755 16.9591C18.8731 15.8762 17.5362 15.25 16.1265 15.25V16.75C17.091 16.75 18.0057 17.1784 18.6232 17.9194L19.7755 16.9591ZM5.37676 17.9194C5.99424 17.1784 6.90894 16.75 7.87347 16.75V15.25C6.46377 15.25 5.12689 15.8762 4.22442 16.9591L5.37676 17.9194Z" fill="#28303F"/>
<path d="M20.2764 3.44721L19.6056 3.1118V3.1118L20.2764 3.44721ZM19.2236 5.55279L19.8944 5.8882L19.2236 5.55279ZM19.2236 6.44721L18.5528 6.78262V6.78262L19.2236 6.44721ZM20.2764 8.55279L20.9472 8.21738V8.21738L20.2764 8.55279ZM11.25 19C11.25 19.4142 11.5858 19.75 12 19.75C12.4142 19.75 12.75 19.4142 12.75 19H11.25ZM14 2.75H19.382V1.25H14V2.75ZM19.6056 3.1118L18.5528 5.21738L19.8944 5.8882L20.9472 3.78262L19.6056 3.1118ZM18.5528 6.78262L19.6056 8.8882L20.9472 8.21738L19.8944 6.1118L18.5528 6.78262ZM12.75 19V10H11.25V19H12.75ZM12.75 10V4H11.25V10H12.75ZM19.382 9.25H12V10.75H19.382V9.25ZM19.6056 8.8882C19.6887 9.05442 19.5678 9.25 19.382 9.25V10.75C20.6829 10.75 21.529 9.38095 20.9472 8.21738L19.6056 8.8882ZM18.5528 5.21738C18.3064 5.71005 18.3064 6.28995 18.5528 6.78262L19.8944 6.1118C19.8592 6.04142 19.8592 5.95858 19.8944 5.8882L18.5528 5.21738ZM19.382 2.75C19.5678 2.75 19.6887 2.94558 19.6056 3.1118L20.9472 3.78262C21.529 2.61905 20.6829 1.25 19.382 1.25V2.75ZM14 1.25C12.4812 1.25 11.25 2.48122 11.25 4H12.75C12.75 3.30964 13.3096 2.75 14 2.75V1.25Z" fill="#28303F"/>
</svg>
