<svg width="24" height="24" viewBox="0 0 24 24" fill="none" xmlns="http://www.w3.org/2000/svg">
<ellipse cx="12" cy="19" rx="9" ry="3" stroke="#28303F" stroke-width="1.5"/>
<path d="M20.2764 3.44721L19.6056 3.1118V3.1118L20.2764 3.44721ZM19.2236 5.55279L19.8944 5.8882L19.2236 5.55279ZM19.2236 6.44721L18.5528 6.78262V6.78262L19.2236 6.44721ZM20.2764 8.55279L20.9472 8.21738V8.21738L20.2764 8.55279ZM11.25 19C11.25 19.4142 11.5858 19.75 12 19.75C12.4142 19.75 12.75 19.4142 12.75 19H11.25ZM14 2.75H19.382V1.25H14V2.75ZM19.6056 3.1118L18.5528 5.21738L19.8944 5.8882L20.9472 3.78262L19.6056 3.1118ZM18.5528 6.78262L19.6056 8.8882L20.9472 8.21738L19.8944 6.1118L18.5528 6.78262ZM12.75 19V10H11.25V19H12.75ZM12.75 10V4H11.25V10H12.75ZM19.382 9.25H12V10.75H19.382V9.25ZM19.6056 8.8882C19.6887 9.05442 19.5678 9.25 19.382 9.25V10.75C20.6829 10.75 21.529 9.38095 20.9472 8.21738L19.6056 8.8882ZM18.5528 5.21738C18.3064 5.71005 18.3064 6.28995 18.5528 6.78262L19.8944 6.1118C19.8592 6.04142 19.8592 5.95858 19.8944 5.8882L18.5528 5.21738ZM19.382 2.75C19.5678 2.75 19.6887 2.94558 19.6056 3.1118L20.9472 3.78262C21.529 2.61905 20.6829 1.25 19.382 1.25V2.75ZM14 1.25C12.4812 1.25 11.25 2.48122 11.25 4H12.75C12.75 3.30964 13.3096 2.75 14 2.75V1.25Z" fill="#28303F"/>
</svg>
