<svg width="24" height="24" viewBox="0 0 24 24" fill="none" xmlns="http://www.w3.org/2000/svg">
<path d="M8.66667 19.7778L8.66667 20.5278H8.66667V19.7778ZM4.22222 10.8889V10.1389V10.8889ZM6.44445 13.1111H7.19445H6.44445ZM8.66667 15.3333V14.5833V15.3333ZM17.3449 3.54675L17.7463 2.91321L17.3449 3.54675ZM20.9605 17.1944C21.3747 17.1944 21.7105 16.8587 21.7105 16.4444C21.7105 16.0302 21.3747 15.6944 20.9605 15.6944V17.1944ZM5.71407 19.7778L5.24229 20.3608L5.71407 19.7778ZM2.06103 10.8889L1.31557 10.8065L2.06103 10.8889ZM21.25 12C21.25 17.1086 17.1086 21.25 12 21.25V22.75C17.9371 22.75 22.75 17.9371 22.75 12H21.25ZM15.6944 14.2222C15.6944 15.8637 17.0252 17.1944 18.6667 17.1944V15.6944C17.8536 15.6944 17.1944 15.0353 17.1944 14.2222H15.6944ZM14.2222 12.75C15.0353 12.75 15.6944 13.4091 15.6944 14.2222H17.1944C17.1944 12.5807 15.8637 11.25 14.2222 11.25V12.75ZM11.25 9.77778C11.25 11.4193 12.5807 12.75 14.2222 12.75V11.25C13.4091 11.25 12.75 10.5909 12.75 9.77778H11.25ZM14.2222 6.80556C12.5807 6.80556 11.25 8.13626 11.25 9.77778H12.75C12.75 8.96469 13.4091 8.30556 14.2222 8.30556V6.80556ZM15.6944 5.33333C15.6944 6.14642 15.0353 6.80556 14.2222 6.80556V8.30556C15.8637 8.30556 17.1944 6.97485 17.1944 5.33333H15.6944ZM7.19445 13.1111C7.19445 11.4696 5.86374 10.1389 4.22222 10.1389V11.6389C5.03531 11.6389 5.69445 12.298 5.69445 13.1111H7.19445ZM8.66667 14.5833C7.85358 14.5833 7.19445 13.9242 7.19445 13.1111H5.69445C5.69445 14.7526 7.02515 16.0833 8.66667 16.0833V14.5833ZM11.6389 17.5556C11.6389 15.914 10.3082 14.5833 8.66667 14.5833V16.0833C9.47975 16.0833 10.1389 16.7425 10.1389 17.5556H11.6389ZM8.66667 20.5278C10.3082 20.5278 11.6389 19.1971 11.6389 17.5556H10.1389C10.1389 18.3686 9.47975 19.0278 8.66667 19.0278V20.5278ZM16.8984 2.94416C16.1694 3.48439 15.6944 4.35347 15.6944 5.33333H17.1944C17.1944 4.84875 17.4278 4.41882 17.7915 4.14933L16.8984 2.94416ZM12 2.75C13.8194 2.75 15.514 3.27451 16.9435 4.18028L17.7463 2.91321C16.0838 1.85979 14.112 1.25 12 1.25V2.75ZM16.9435 4.18028C19.5334 5.82127 21.25 8.71043 21.25 12H22.75C22.75 8.17523 20.752 4.81765 17.7463 2.91321L16.9435 4.18028ZM18.6667 17.1944H20.9605V15.6944H18.6667V17.1944ZM5.71407 20.5278L8.66667 20.5278L8.66667 19.0278L5.71407 19.0278L5.71407 20.5278ZM12 21.25C9.79646 21.25 7.77469 20.4804 6.18586 19.1947L5.24229 20.3608C7.0884 21.8547 9.44066 22.75 12 22.75V21.25ZM6.18586 19.1947C4.08871 17.4977 2.75 14.9055 2.75 12H1.25C1.25 15.3773 2.80832 18.3912 5.24229 20.3608L6.18586 19.1947ZM4.22222 10.1389H2.06103V11.6389H4.22222V10.1389ZM2.75 12C2.75 11.652 2.76918 11.3088 2.80649 10.9713L1.31557 10.8065C1.27223 11.1986 1.25 11.5968 1.25 12H2.75ZM2.80649 10.9713C3.31767 6.34714 7.23927 2.75 12 2.75V1.25C6.46617 1.25 1.90983 5.43075 1.31557 10.8065L2.80649 10.9713Z" fill="#28303F"/>
</svg>
