<svg width="24" height="24" viewBox="0 0 24 24" fill="none" xmlns="http://www.w3.org/2000/svg">
<ellipse cx="12" cy="12" rx="4" ry="10" stroke="#28303F" stroke-width="1.5"/>
<path d="M12 14.2222L12 14.9722L12 14.2222ZM2.00383 11.7205L1.25411 11.7L2.00383 11.7205ZM21.25 12C21.25 17.1086 17.1086 21.25 12 21.25V22.75C17.9371 22.75 22.75 17.9371 22.75 12H21.25ZM12 21.25C6.89137 21.25 2.75 17.1086 2.75 12H1.25C1.25 17.9371 6.06294 22.75 12 22.75V21.25ZM21.52 11.1411C20.7374 11.7842 19.4549 12.3736 17.7847 12.8001C16.1276 13.2232 14.1421 13.4722 12 13.4722L12 14.9722C14.2528 14.9722 16.3642 14.7109 18.1558 14.2535C19.9344 13.7993 21.4526 13.1379 22.4723 12.3L21.52 11.1411ZM12 2.75C17.0221 2.75 21.1096 6.75241 21.2465 11.7411L22.7459 11.7C22.5868 5.90141 17.8367 1.25 12 1.25V2.75ZM21.2465 11.7411C21.2488 11.8271 21.25 11.9134 21.25 12H22.75C22.75 11.8997 22.7486 11.7997 22.7459 11.7L21.2465 11.7411ZM12 13.4722C9.85789 13.4722 7.87237 13.2232 6.21526 12.8001C4.54505 12.3736 3.26261 11.7842 2.47999 11.1411L1.52767 12.3C2.54741 13.1379 4.0656 13.7993 5.84417 14.2535C7.63583 14.7109 9.74723 14.9722 12 14.9722L12 13.4722ZM2.75 12C2.75 11.9134 2.75119 11.8271 2.75355 11.7411L1.25411 11.7C1.25138 11.7997 1.25 11.8997 1.25 12H2.75ZM2.75355 11.7411C2.89043 6.75241 6.97793 2.75 12 2.75V1.25C6.16329 1.25 1.41322 5.90141 1.25411 11.7L2.75355 11.7411Z" fill="#28303F"/>
</svg>
