<svg width="26" height="26" viewBox="0 0 26 26" fill="none" xmlns="http://www.w3.org/2000/svg">
<path d="M13.0628 5.00018L13.0784 3.00024" stroke="#28303F" stroke-width="1.5" stroke-linecap="round"/>
<path d="M12.9217 22.9997L12.9373 20.9998" stroke="#28303F" stroke-width="1.5" stroke-linecap="round"/>
<path d="M20.9998 13.0627L22.9998 13.0784" stroke="#28303F" stroke-width="1.5" stroke-linecap="round"/>
<path d="M3.00037 12.9216L5.00031 12.9373" stroke="#28303F" stroke-width="1.5" stroke-linecap="round"/>
<path d="M4.07086 3.92969L21.9292 22.0702" stroke="#28303F" stroke-width="1.5" stroke-linecap="round"/>
<path d="M9.76434 5.68138C10.7722 5.23509 11.8889 4.99101 13.0628 5.00021C17.4809 5.03484 21.0345 8.64453 20.9998 13.0627C20.9906 14.2365 20.7291 15.3493 20.267 16.35M7.38773 7.29894C5.92871 8.73526 5.01763 10.7282 5.00031 12.9373C4.96568 17.3554 8.51921 20.9651 12.9374 20.9997C15.1464 21.017 17.1534 20.1373 18.6124 18.701" stroke="#28303F" stroke-width="1.5" stroke-linecap="round"/>
<path d="M15.1 15.1424C14.5533 15.6783 13.8026 16.0063 12.9765 15.9998C11.3197 15.9868 9.98716 14.6332 10.0001 12.9764C10.0067 12.1453 10.3505 11.3958 10.9008 10.8568" stroke="#28303F" stroke-width="1.5"/>
</svg>
