<svg width="24" height="24" viewBox="0 0 24 24" fill="none" xmlns="http://www.w3.org/2000/svg">
<path d="M4.54424 6.74749L5.00566 7.33875L4.54424 6.74749ZM9.54424 2.84544L9.08281 2.25418V2.25418L9.54424 2.84544ZM14.4558 2.84544L14.9172 2.25418L14.9172 2.25418L14.4558 2.84544ZM19.4558 6.74749L18.9943 7.33875L18.9943 7.33875L19.4558 6.74749ZM20.25 9.91558V17.9865H21.75V9.91558H20.25ZM17 21.25H7V22.75H17V21.25ZM3.75 17.9865V9.91558H2.25V17.9865H3.75ZM5.00566 7.33875L10.0057 3.4367L9.08281 2.25418L4.08281 6.15623L5.00566 7.33875ZM13.9943 3.4367L18.9943 7.33875L19.9172 6.15623L14.9172 2.25418L13.9943 3.4367ZM10.0057 3.4367C11.1789 2.5211 12.8211 2.5211 13.9943 3.4367L14.9172 2.25418C13.2015 0.915273 10.7985 0.915272 9.08281 2.25418L10.0057 3.4367ZM7 21.25C5.20746 21.25 3.75 19.7913 3.75 17.9865H2.25C2.25 20.6149 4.37426 22.75 7 22.75V21.25ZM20.25 17.9865C20.25 19.7913 18.7925 21.25 17 21.25V22.75C19.6257 22.75 21.75 20.6149 21.75 17.9865H20.25ZM21.75 9.91558C21.75 8.44661 21.0741 7.0591 19.9172 6.15623L18.9943 7.33875C19.7861 7.95666 20.25 8.90748 20.25 9.91558H21.75ZM3.75 9.91558C3.75 8.90749 4.21388 7.95666 5.00566 7.33875L4.08281 6.15623C2.9259 7.0591 2.25 8.4466 2.25 9.91558H3.75Z" fill="#28303F"/>
<path d="M16.3047 15.8012C16.3047 18.0835 14.1524 22 12 22C9.84766 22 7.69531 18.0835 7.69531 15.8012C7.69531 13.5189 9.62259 11.6687 12 11.6687C14.3774 11.6687 16.3047 13.5189 16.3047 15.8012Z" stroke="#28303F" stroke-width="1.5"/>
<path d="M13.2914 15.5429C13.2914 16.2562 12.7132 16.8343 12 16.8343C11.2868 16.8343 10.7086 16.2562 10.7086 15.5429C10.7086 14.8297 11.2868 14.2515 12 14.2515C12.7132 14.2515 13.2914 14.8297 13.2914 15.5429Z" stroke="#28303F" stroke-width="1.5"/>
</svg>
