<svg width="24" height="24" viewBox="0 0 24 24" fill="none" xmlns="http://www.w3.org/2000/svg">
<circle cx="12" cy="11" r="3" stroke="#28303F" stroke-width="1.5"/>
<path d="M18.25 11C18.25 12.9712 17.2342 15.0553 15.8651 16.6722C15.1868 17.4733 14.4443 18.132 13.7421 18.5847C13.0237 19.0478 12.4184 19.25 12 19.25V20.75C12.8316 20.75 13.7263 20.3795 14.5548 19.8454C15.3994 19.301 16.2507 18.5381 17.0099 17.6415C18.5158 15.863 19.75 13.4471 19.75 11H18.25ZM12 19.25C11.5816 19.25 10.9763 19.0478 10.2579 18.5847C9.55565 18.132 8.81318 17.4733 8.13488 16.6722C6.76576 15.0553 5.75 12.9712 5.75 11H4.25C4.25 13.4471 5.48424 15.863 6.99012 17.6415C7.74932 18.5381 8.6006 19.301 9.44521 19.8454C10.2737 20.3795 11.1684 20.75 12 20.75V19.25ZM5.75 11C5.75 8.97778 6.46207 7.43144 7.56552 6.38812C8.67552 5.33861 10.2331 4.75 12 4.75V3.25C9.90088 3.25 7.95849 3.95225 6.53498 5.29817C5.10494 6.65028 4.25 8.60395 4.25 11H5.75ZM12 4.75C13.7669 4.75 15.3245 5.33861 16.4345 6.38812C17.5379 7.43144 18.25 8.97778 18.25 11H19.75C19.75 8.60395 18.8951 6.65028 17.465 5.29817C16.0415 3.95225 14.0991 3.25 12 3.25V4.75Z" fill="#28303F"/>
<path d="M20.9532 6C21.6231 7.31242 22 8.86243 22 10.625C22 11.7562 21.7771 12.8953 21.3912 14M2.60876 14C2.22291 12.8953 2 11.7562 2 10.625C2 8.86243 2.37686 7.31242 3.04679 6" stroke="#28303F" stroke-width="1.5" stroke-linecap="round"/>
</svg>
