<svg width="24" height="24" viewBox="0 0 24 24" fill="none" xmlns="http://www.w3.org/2000/svg">
<path d="M13.5 9.5C13.5 10.3284 12.8284 11 12 11C11.1716 11 10.5 10.3284 10.5 9.5C10.5 8.67157 11.1716 8 12 8C12.8284 8 13.5 8.67157 13.5 9.5Z" stroke="#28303F" stroke-width="1.5"/>
<path d="M20.25 10.8889C20.25 13.0928 18.9651 15.7033 17.1927 17.8014C16.3165 18.8387 15.3496 19.7157 14.4183 20.3274C13.4717 20.9492 12.6339 21.25 12 21.25V22.75C13.0536 22.75 14.1845 22.2756 15.2418 21.5811C16.3145 20.8766 17.3867 19.8962 18.3386 18.7694C20.2224 16.5393 21.75 13.5941 21.75 10.8889H20.25ZM12 21.25C11.3661 21.25 10.5283 20.9492 9.58168 20.3274C8.65039 19.7157 7.68353 18.8387 6.80731 17.8014C5.03493 15.7033 3.75 13.0928 3.75 10.8889H2.25C2.25 13.5941 3.77757 16.5393 5.66144 18.7694C6.61334 19.8962 7.68554 20.8766 8.75817 21.5811C9.81548 22.2756 10.9464 22.75 12 22.75V21.25ZM3.75 10.8889C3.75 6.40266 7.43484 2.75 12 2.75V1.25C6.62403 1.25 2.25 5.55672 2.25 10.8889H3.75ZM12 2.75C16.5652 2.75 20.25 6.40266 20.25 10.8889H21.75C21.75 5.55672 17.376 1.25 12 1.25V2.75Z" fill="#28303F"/>
<path d="M14.8626 15.1L15.2925 15.7145L14.8626 15.1ZM9.13736 15.1L8.70746 15.7145L9.13736 15.1ZM7.75 11C7.75 8.65279 9.65279 6.75 12 6.75V5.25C8.82436 5.25 6.25 7.82436 6.25 11H7.75ZM12 6.75C14.3472 6.75 16.25 8.65279 16.25 11H17.75C17.75 7.82436 15.1756 5.25 12 5.25V6.75ZM12 13.75C13.0063 13.75 13.8602 14.4112 14.1471 15.3247L15.5782 14.8752C15.1005 13.3545 13.6802 12.25 12 12.25V13.75ZM16.25 11C16.25 12.4416 15.533 13.7158 14.4327 14.4854L15.2925 15.7145C16.7768 14.6763 17.75 12.9518 17.75 11H16.25ZM14.4327 14.4854C13.7438 14.9673 12.906 15.25 12 15.25V16.75C13.2234 16.75 14.3597 16.3671 15.2925 15.7145L14.4327 14.4854ZM12 12.25C10.3198 12.25 8.89948 13.3545 8.42182 14.8752L9.85289 15.3247C10.1398 14.4112 10.9937 13.75 12 13.75V12.25ZM12 15.25C11.094 15.25 10.2562 14.9673 9.56725 14.4854L8.70746 15.7145C9.64031 16.3671 10.7766 16.75 12 16.75V15.25ZM9.56725 14.4854C8.46702 13.7158 7.75 12.4416 7.75 11H6.25C6.25 12.9518 7.22321 14.6763 8.70746 15.7145L9.56725 14.4854Z" fill="#28303F"/>
</svg>
