<svg width="24" height="24" viewBox="0 0 24 24" fill="none" xmlns="http://www.w3.org/2000/svg">
<path d="M13.25 9C13.25 9.69036 12.6904 10.25 12 10.25V11.75C13.5188 11.75 14.75 10.5188 14.75 9H13.25ZM12 10.25C11.3096 10.25 10.75 9.69036 10.75 9H9.25C9.25 10.5188 10.4812 11.75 12 11.75V10.25ZM10.75 9C10.75 8.30964 11.3096 7.75 12 7.75V6.25C10.4812 6.25 9.25 7.48122 9.25 9H10.75ZM12 7.75C12.6904 7.75 13.25 8.30964 13.25 9H14.75C14.75 7.48122 13.5188 6.25 12 6.25V7.75ZM17.25 9C17.25 10.4072 16.3716 12.2425 15.161 13.7784C14.5674 14.5314 13.9253 15.1714 13.3319 15.6155C12.7089 16.0817 12.2489 16.25 12 16.25V17.75C12.7511 17.75 13.5411 17.3325 14.2306 16.8165C14.9497 16.2783 15.6826 15.5396 16.339 14.7069C17.6284 13.0712 18.75 10.9065 18.75 9H17.25ZM12 16.25C11.7511 16.25 11.2911 16.0817 10.6681 15.6155C10.0747 15.1714 9.43263 14.5314 8.83901 13.7784C7.62837 12.2425 6.75 10.4072 6.75 9H5.25C5.25 10.9065 6.37163 13.0712 7.66099 14.7069C8.31737 15.5396 9.05033 16.2783 9.76938 16.8165C10.4589 17.3325 11.2489 17.75 12 17.75V16.25ZM6.75 9C6.75 6.10051 9.10051 3.75 12 3.75V2.25C8.27208 2.25 5.25 5.27208 5.25 9H6.75ZM12 3.75C14.8995 3.75 17.25 6.10051 17.25 9H18.75C18.75 5.27208 15.7279 2.25 12 2.25V3.75Z" fill="#28303F"/>
<path d="M19.1994 16.4393L18.6232 16.9194L18.6232 16.9194L19.1994 16.4393ZM20.2663 17.7196L20.8425 17.2395V17.2395L20.2663 17.7196ZM3.73361 17.7196L4.30978 18.1998L3.73361 17.7196ZM4.80059 16.4393L4.22442 15.9591L4.80059 16.4393ZM18.6232 16.9194L19.6902 18.1998L20.8425 17.2395L19.7755 15.9591L18.6232 16.9194ZM18.7299 20.25H5.27006V21.75H18.7299V20.25ZM4.30978 18.1998L5.37676 16.9194L4.22442 15.9591L3.15745 17.2395L4.30978 18.1998ZM16.1265 14.25H15V15.75H16.1265V14.25ZM7.87347 15.75H8.99997V14.25H7.87347V15.75ZM5.27006 20.25C4.21026 20.25 3.63132 19.0139 4.30978 18.1998L3.15745 17.2395C1.66482 19.0306 2.9385 21.75 5.27006 21.75V20.25ZM19.6902 18.1998C20.3686 19.0139 19.7897 20.25 18.7299 20.25V21.75C21.0614 21.75 22.3351 19.0306 20.8425 17.2395L19.6902 18.1998ZM19.7755 15.9591C18.8731 14.8762 17.5362 14.25 16.1265 14.25V15.75C17.091 15.75 18.0057 16.1784 18.6232 16.9194L19.7755 15.9591ZM5.37676 16.9194C5.99424 16.1784 6.90894 15.75 7.87347 15.75V14.25C6.46377 14.25 5.12689 14.8762 4.22442 15.9591L5.37676 16.9194Z" fill="#28303F"/>
</svg>
