<svg width="24" height="24" viewBox="0 0 24 24" fill="none" xmlns="http://www.w3.org/2000/svg">
<path d="M2.72215 6.64222L2.26981 6.04398H2.26981L2.72215 6.64222ZM8 4.02478L7.91657 3.27943L8 4.02478ZM20.2637 5.32119L19.8454 4.69869L19.8454 4.69869L20.2637 5.32119ZM3.73627 18.6788L3.31795 18.0563H3.31795L3.73627 18.6788ZM21.2778 17.3578L20.8255 16.7595L20.8255 16.7595L21.2778 17.3578ZM3.17449 7.24045C3.72741 6.82238 4.54868 6.24309 5.44982 5.74595C6.3646 5.24127 7.29651 4.85821 8.08343 4.77012L7.91657 3.27943C6.83621 3.40036 5.6981 3.89585 4.72524 4.43256C3.73872 4.9768 2.85471 5.60173 2.26981 6.04398L3.17449 7.24045ZM4.15459 19.3013C5.35883 18.4921 6.8692 17.6664 8.08343 17.5305L7.91657 16.0398C6.30818 16.2198 4.53267 17.24 3.31795 18.0563L4.15459 19.3013ZM8.08343 17.5305C9.4033 17.3827 10.3425 18.0616 11.5459 18.9771C12.6833 19.8424 14.085 20.9443 16.0834 20.7206L15.9166 19.2299C14.5967 19.3776 13.6575 18.6987 12.4541 17.7833C11.3167 16.918 9.91501 15.8161 7.91657 16.0398L8.08343 17.5305ZM16.0834 20.7206C17.1638 20.5996 18.3019 20.1042 19.2748 19.5674C20.2613 19.0232 21.1453 18.3983 21.7302 17.956L20.8255 16.7595C20.2726 17.1776 19.4513 17.7569 18.5502 18.2541C17.6354 18.7587 16.7035 19.1418 15.9166 19.2299L16.0834 20.7206ZM21.25 6.19353V15.8629H22.75V6.19353H21.25ZM2.75 17.8065V8.13706H1.25V17.8065H2.75ZM21.7302 17.956C22.3994 17.45 22.75 16.6638 22.75 15.8629H21.25C21.25 16.2324 21.0899 16.5596 20.8255 16.7595L21.7302 17.956ZM3.31795 18.0563C3.21451 18.1258 3.07068 18.136 2.93501 18.0689C2.80323 18.0037 2.75 17.904 2.75 17.8065H1.25C1.25 19.3239 3.00174 20.076 4.15459 19.3013L3.31795 18.0563ZM20.6821 5.9437C20.7855 5.87419 20.9293 5.86396 21.065 5.93107C21.1968 5.99625 21.25 6.09602 21.25 6.19353H22.75C22.75 4.67607 20.9983 3.92398 19.8454 4.69869L20.6821 5.9437ZM2.26981 6.04398C1.60064 6.54996 1.25 7.33619 1.25 8.13706H2.75C2.75 7.76755 2.91011 7.44036 3.17449 7.24045L2.26981 6.04398ZM7.25 4.02478V16.7851H8.75V4.02478H7.25ZM18.4326 7.23666C19.2504 6.8554 20.0328 6.38002 20.6821 5.9437L19.8454 4.69869C19.2351 5.1088 18.5229 5.53958 17.7988 5.87713L18.4326 7.23666ZM8.08343 4.77012C9.0325 4.66389 9.79654 4.9887 10.6011 5.52689C11.015 5.8038 11.4037 6.11162 11.8479 6.44553C12.2778 6.76879 12.7463 7.10556 13.2589 7.37875L13.9644 6.05502C13.5599 5.83944 13.1684 5.56172 12.7493 5.24659C12.3443 4.94211 11.8948 4.58763 11.4351 4.28013C10.4923 3.64948 9.36762 3.11701 7.91657 3.27943L8.08343 4.77012ZM15.25 16.059V19.9752H16.75V16.059H15.25Z" fill="#28303F"/>
<path d="M18.6673 11.0567L18.4178 10.3494L18.6673 11.0567ZM12.5342 8.00153L11.8849 7.62627H11.8849L12.5342 8.00153ZM19.6311 8.31987L18.9506 8.63526L19.6311 8.31987ZM12.8641 7.51654L13.4518 7.98256L12.8641 7.51654ZM17.25 4C17.25 4.69036 16.6904 5.25 16 5.25V6.75C17.5188 6.75 18.75 5.51878 18.75 4H17.25ZM16 5.25C15.3096 5.25 14.75 4.69036 14.75 4H13.25C13.25 5.51878 14.4812 6.75 16 6.75V5.25ZM14.75 4C14.75 3.30964 15.3096 2.75 16 2.75V1.25C14.4812 1.25 13.25 2.48122 13.25 4H14.75ZM16 2.75C16.6904 2.75 17.25 3.30964 17.25 4H18.75C18.75 2.48122 17.5188 1.25 16 1.25V2.75ZM17.25 12V14H18.75V12H17.25ZM14.75 14V12H13.25V14H14.75ZM16 15.25C15.3096 15.25 14.75 14.6904 14.75 14H13.25C13.25 15.5188 14.4812 16.75 16 16.75V15.25ZM17.25 14C17.25 14.6904 16.6904 15.25 16 15.25V16.75C17.5188 16.75 18.75 15.5188 18.75 14H17.25ZM11.25 10C11.25 10.9665 12.0335 11.75 13 11.75V10.25C12.8619 10.25 12.75 10.1381 12.75 10H11.25ZM14.75 12C14.75 11.0335 13.9665 10.25 13 10.25V11.75C13.1381 11.75 13.25 11.8619 13.25 12H14.75ZM19.25 10C19.25 10.1381 19.1381 10.25 19 10.25V11.75C19.9665 11.75 20.75 10.9665 20.75 10H19.25ZM18.75 12C18.75 11.8923 18.8186 11.7986 18.9168 11.764L18.4178 10.3494C17.7386 10.589 17.25 11.2365 17.25 12H18.75ZM18.9168 11.764C18.9418 11.7551 18.9695 11.75 19 11.75V10.25C18.7972 10.25 18.6009 10.2848 18.4178 10.3494L18.9168 11.764ZM11.8849 7.62627C11.4809 8.32529 11.25 9.13681 11.25 10H12.75C12.75 9.4073 12.908 8.85377 13.1836 8.37679L11.8849 7.62627ZM16 6.75C17.3062 6.75 18.434 7.52061 18.9506 8.63526L20.3116 8.00449C19.5584 6.37956 17.9119 5.25 16 5.25V6.75ZM18.9506 8.63526C19.1425 9.04929 19.25 9.51106 19.25 10H20.75C20.75 9.28879 20.5932 8.61213 20.3116 8.00449L18.9506 8.63526ZM16 5.25C14.4906 5.25 13.1453 5.95491 12.2765 7.05053L13.4518 7.98256C14.0483 7.2303 14.9678 6.75 16 6.75V5.25ZM12.2765 7.05053C12.1325 7.23205 12.0015 7.42442 11.8849 7.62627L13.1836 8.37679C13.2634 8.23873 13.3531 8.10699 13.4518 7.98256L12.2765 7.05053Z" fill="#28303F"/>
</svg>
