<svg width="24" height="24" viewBox="0 0 24 24" fill="none" xmlns="http://www.w3.org/2000/svg">
<path d="M3.28856 8.64222L2.83622 8.04398H2.83622L3.28856 8.64222ZM8.56641 6.02478L8.48298 5.27943L8.56641 6.02478ZM20.8301 7.32119L20.4118 6.69869L20.4118 6.69869L20.8301 7.32119ZM4.30267 20.6788L3.88435 20.0563H3.88435L4.30267 20.6788ZM21.8443 19.3578L21.3919 18.7595L21.3919 18.7595L21.8443 19.3578ZM3.7409 9.24045C4.29382 8.82238 5.11509 8.24309 6.01622 7.74595C6.93101 7.24127 7.86292 6.85821 8.64984 6.77012L8.48298 5.27943C7.40262 5.40036 6.26451 5.89585 5.29165 6.43256C4.30513 6.9768 3.42111 7.60173 2.83622 8.04398L3.7409 9.24045ZM8.64984 6.77012C9.96971 6.62239 10.9089 7.30126 12.1123 8.21673C13.2497 9.08201 14.6514 10.1839 16.6498 9.96021L16.483 8.46952C15.1631 8.61726 14.2239 7.93839 13.0205 7.02291C11.8831 6.15763 10.4814 5.05574 8.48298 5.27943L8.64984 6.77012ZM16.6498 9.96021C18.2582 9.78018 20.0337 8.75999 21.2485 7.9437L20.4118 6.69869C19.2076 7.50794 17.6972 8.33361 16.483 8.46952L16.6498 9.96021ZM4.72099 21.3013C5.92524 20.4921 7.43561 19.6664 8.64984 19.5305L8.48298 18.0398C6.87459 18.2198 5.09908 19.24 3.88435 20.0563L4.72099 21.3013ZM8.64983 19.5305C9.96971 19.3827 10.9089 20.0616 12.1123 20.9771C13.2497 21.8424 14.6514 22.9443 16.6498 22.7206L16.483 21.2299C15.1631 21.3776 14.2239 20.6987 13.0205 19.7833C11.8831 18.918 10.4814 17.8161 8.48298 18.0398L8.64983 19.5305ZM16.6498 22.7206C17.7302 22.5996 18.8683 22.1042 19.8412 21.5674C20.8277 21.0232 21.7117 20.3983 22.2966 19.956L21.3919 18.7595C20.839 19.1776 20.0177 19.7569 19.1166 20.2541C18.2018 20.7587 17.2699 21.1418 16.483 21.2299L16.6498 22.7206ZM21.8164 8.19353V17.8629H23.3164V8.19353H21.8164ZM3.31641 19.8065V10.1371H1.81641V19.8065H3.31641ZM22.2966 19.956C22.9658 19.45 23.3164 18.6638 23.3164 17.8629H21.8164C21.8164 18.2324 21.6563 18.5596 21.3919 18.7595L22.2966 19.956ZM3.88435 20.0563C3.78092 20.1258 3.63709 20.136 3.50142 20.0689C3.36963 20.0037 3.31641 19.904 3.31641 19.8065H1.81641C1.81641 21.3239 3.56815 22.076 4.72099 21.3013L3.88435 20.0563ZM21.2485 7.9437C21.3519 7.87419 21.4957 7.86396 21.6314 7.93107C21.7632 7.99625 21.8164 8.09602 21.8164 8.19353H23.3164C23.3164 6.67607 21.5647 5.92398 20.4118 6.69869L21.2485 7.9437ZM2.83622 8.04398C2.16704 8.54996 1.81641 9.33619 1.81641 10.1371H3.31641C3.31641 9.76755 3.47652 9.44036 3.7409 9.24045L2.83622 8.04398ZM7.81641 6.02478V18.7851H9.31641V6.02478H7.81641ZM15.8164 9.21487V21.9752H17.3164V9.21487H15.8164Z" fill="#28303F"/>
<path d="M13.1022 13.1071C13.1022 13.5213 13.438 13.8571 13.8522 13.8571C14.2664 13.8571 14.6022 13.5213 14.6022 13.1071H13.1022ZM13.8522 2.0835V1.3335C13.6533 1.3335 13.4625 1.41251 13.3218 1.55317C13.1812 1.69382 13.1022 1.88458 13.1022 2.0835L13.8522 2.0835ZM19.8522 2.0835L20.5179 2.42893C20.6385 2.19643 20.6291 1.91783 20.4931 1.69399C20.3571 1.47015 20.1141 1.3335 19.8522 1.3335V2.0835ZM19.8522 5.70663V6.45662C20.1214 6.45662 20.3699 6.31237 20.5034 6.07864C20.6369 5.84491 20.6349 5.55755 20.4982 5.32568L19.8522 5.70663ZM18.8522 4.01069L18.1865 3.66526C18.0675 3.89461 18.0749 4.16906 18.2061 4.39163L18.8522 4.01069ZM14.6022 13.1071V5.70663H13.1022V13.1071H14.6022ZM13.8522 2.8335H19.8522V1.3335H13.8522V2.8335ZM19.8522 4.95663H13.8522V6.45662H19.8522V4.95663ZM14.6022 5.70663V2.0835L13.1022 2.0835V5.70663H14.6022ZM19.1865 1.73806L18.1865 3.66526L19.5179 4.35612L20.5179 2.42893L19.1865 1.73806ZM18.2061 4.39163L19.2061 6.08757L20.4982 5.32568L19.4982 3.62975L18.2061 4.39163Z" fill="#28303F"/>
</svg>
