<svg width="24" height="24" viewBox="0 0 24 24" fill="none" xmlns="http://www.w3.org/2000/svg">
<path d="M7.06961 6.22241C5.4279 6.7161 3.67612 7.92089 2.72215 8.64221C2.25538 8.99514 2 9.55186 2 10.137V19.8065C2 20.6599 3.0279 21.1548 3.73627 20.6788C4.94575 19.866 6.58869 18.9431 8 18.7851C11.3183 18.4137 12.6817 22.3466 16 21.9752C17.8673 21.7662 20.14 20.2181 21.2778 19.3578C21.7446 19.0048 22 18.4481 22 17.8629V8.19352C22 7.34006 20.9721 6.84516 20.2637 7.32118C19.2185 8.02356 17.8496 8.80821 16.5862 9.11035" stroke="#28303F" stroke-width="1.5"/>
<path d="M17 6.8C17 9.45097 14.5 14 12 14C9.5 14 7 9.45097 7 6.8C7 4.14903 9.23858 2 12 2C14.7614 2 17 4.14903 17 6.8Z" stroke="#28303F" stroke-width="1.5"/>
<path d="M13.5 6.5C13.5 7.32843 12.8284 8 12 8C11.1716 8 10.5 7.32843 10.5 6.5C10.5 5.67157 11.1716 5 12 5C12.8284 5 13.5 5.67157 13.5 6.5Z" stroke="#28303F" stroke-width="1.5"/>
</svg>
