<svg width="24" height="24" viewBox="0 0 24 24" fill="none" xmlns="http://www.w3.org/2000/svg">
<path d="M2.72215 8.64222L2.26981 8.04398H2.26981L2.72215 8.64222ZM20.2637 7.3212L19.8454 6.69869L19.8454 6.69869L20.2637 7.3212ZM3.73627 20.6788L3.31795 20.0563H3.31795L3.73627 20.6788ZM21.2778 19.3578L20.8255 18.7595L20.8255 18.7595L21.2778 19.3578ZM6.1768 6.55155L6.47336 7.24042L6.1768 6.55155ZM4.15459 21.3013C5.35883 20.4921 6.8692 19.6664 8.08343 19.5305L7.91657 18.0398C6.30818 18.2198 4.53267 19.24 3.31795 20.0563L4.15459 21.3013ZM8.08343 19.5305C9.4033 19.3827 10.3425 20.0616 11.5459 20.9771C12.6833 21.8424 14.085 22.9443 16.0834 22.7206L15.9166 21.2299C14.5967 21.3776 13.6575 20.6987 12.4541 19.7833C11.3167 18.918 9.91501 17.8161 7.91657 18.0398L8.08343 19.5305ZM16.0834 22.7206C17.1638 22.5996 18.3019 22.1042 19.2748 21.5674C20.2613 21.0232 21.1453 20.3983 21.7302 19.956L20.8255 18.7595C20.2726 19.1776 19.4513 19.7569 18.5502 20.2541C17.6354 20.7587 16.7035 21.1418 15.9166 21.2299L16.0834 22.7206ZM21.25 8.19353V17.8629H22.75V8.19353H21.25ZM2.75 19.8065V10.1371H1.25V19.8065H2.75ZM21.7302 19.956C22.3994 19.45 22.75 18.6638 22.75 17.8629H21.25C21.25 18.2325 21.0899 18.5596 20.8255 18.7595L21.7302 19.956ZM3.31795 20.0563C3.21451 20.1258 3.07068 20.136 2.93501 20.0689C2.80323 20.0037 2.75 19.904 2.75 19.8065H1.25C1.25 21.3239 3.00174 22.076 4.15459 21.3013L3.31795 20.0563ZM20.6821 7.9437C20.7855 7.87419 20.9293 7.86396 21.065 7.93107C21.1968 7.99625 21.25 8.09602 21.25 8.19353H22.75C22.75 6.67607 20.9983 5.92398 19.8454 6.69869L20.6821 7.9437ZM2.26981 8.04398C1.60064 8.54996 1.25 9.33619 1.25 10.1371H2.75C2.75 9.76755 2.91011 9.44036 3.17449 9.24046L2.26981 8.04398ZM15.25 12.73V21.9752H16.75V12.73H15.25ZM7.25 11.2636V18.7851H8.75V11.2636H7.25ZM3.17449 9.24046C3.9409 8.66096 5.20232 7.78762 6.47336 7.24042L5.88023 5.86267C4.44275 6.48152 3.06758 7.44077 2.26981 8.04398L3.17449 9.24046ZM6.47336 7.24042C6.82417 7.0894 7.16763 6.96681 7.49477 6.88202L7.11842 5.43C6.70121 5.53813 6.28426 5.68874 5.88023 5.86267L6.47336 7.24042ZM19.326 8.77867C19.8131 8.50764 20.2731 8.21853 20.6821 7.9437L19.8454 6.69869C19.4633 6.95545 19.0396 7.22148 18.5967 7.46795L19.326 8.77867Z" fill="#28303F"/>
<path d="M10.1471 8.41587L9.90998 9.12738H9.90998L10.1471 8.41587ZM11.6624 8.92094L11.4252 9.63246L11.6624 8.92094ZM11.9786 9.23717L11.2671 9.47434V9.47434L11.9786 9.23717ZM12.4837 10.7524L13.1952 10.5152L12.4837 10.7524ZM13.4176 10.7912L12.7282 10.4958L13.4176 10.7912ZM15.4071 6.14893L16.0965 6.44437V6.44437L15.4071 6.14893ZM14.7506 5.4924L14.4552 4.80304V4.80304L14.7506 5.4924ZM10.1083 7.48196L9.81286 6.7926L10.1083 7.48196ZM9.90998 9.12738L11.4252 9.63246L11.8995 8.20943L10.3843 7.70436L9.90998 9.12738ZM11.2671 9.47434L11.7722 10.9896L13.1952 10.5152L12.6901 9L11.2671 9.47434ZM14.1069 11.0867L16.0965 6.44437L14.7178 5.85349L12.7282 10.4958L14.1069 11.0867ZM14.4552 4.80304L9.81286 6.7926L10.4037 8.17132L15.046 6.18176L14.4552 4.80304ZM16.0965 6.44437C16.541 5.40722 15.4923 4.35855 14.4552 4.80304L15.046 6.18176C14.8386 6.27066 14.6289 6.06092 14.7178 5.85349L16.0965 6.44437ZM11.7722 10.9896C12.1356 12.08 13.6542 12.1431 14.1069 11.0867L12.7282 10.4958C12.8188 10.2845 13.1225 10.2971 13.1952 10.5152L11.7722 10.9896ZM11.4252 9.63246C11.3505 9.60757 11.292 9.54899 11.2671 9.47434L12.6901 9C12.5657 8.62674 12.2728 8.33385 11.8995 8.20943L11.4252 9.63246ZM10.3843 7.70436C10.6024 7.77705 10.615 8.08076 10.4037 8.17132L9.81286 6.7926C8.7564 7.24537 8.81956 8.76391 9.90998 9.12738L10.3843 7.70436ZM18.1495 8C18.1495 10.8995 15.799 13.25 12.8995 13.25V14.75C16.6275 14.75 19.6495 11.7279 19.6495 8H18.1495ZM12.8995 13.25C10 13.25 7.64954 10.8995 7.64954 8H6.14954C6.14954 11.7279 9.17161 14.75 12.8995 14.75V13.25ZM7.64954 8C7.64954 5.10051 10 2.75 12.8995 2.75V1.25C9.17161 1.25 6.14954 4.27208 6.14954 8H7.64954ZM12.8995 2.75C15.799 2.75 18.1495 5.10051 18.1495 8H19.6495C19.6495 4.27208 16.6275 1.25 12.8995 1.25V2.75Z" fill="#28303F"/>
</svg>
