<svg width="24" height="24" viewBox="0 0 24 24" fill="none" xmlns="http://www.w3.org/2000/svg">
<path d="M2.72215 4.64222L2.26981 4.04398H2.26981L2.72215 4.64222ZM8 2.02478L7.91657 1.27943L8 2.02478ZM16 5.21487L16.0834 5.96021L16 5.21487ZM20.2637 3.32119L19.8454 2.69869L19.8454 2.69869L20.2637 3.32119ZM3.73627 16.6788L3.31795 16.0563H3.31795L3.73627 16.6788ZM21.2778 15.3578L20.8255 14.7595L20.8255 14.7595L21.2778 15.3578ZM3.17449 5.24045C3.72741 4.82238 4.54868 4.24309 5.44982 3.74595C6.3646 3.24127 7.29651 2.85821 8.08343 2.77012L7.91657 1.27943C6.83621 1.40036 5.6981 1.89585 4.72524 2.43256C3.73872 2.9768 2.85471 3.60173 2.26981 4.04398L3.17449 5.24045ZM8.08343 2.77012C9.4033 2.62239 10.3425 3.30126 11.5459 4.21673C12.6833 5.08201 14.085 6.1839 16.0834 5.96021L15.9166 4.46952C14.5967 4.61726 13.6575 3.93839 12.4541 3.02291C11.3167 2.15763 9.91501 1.05574 7.91657 1.27943L8.08343 2.77012ZM16.0834 5.96021C17.6918 5.78018 19.4673 4.75999 20.6821 3.9437L19.8454 2.69869C18.6412 3.50794 17.1308 4.33361 15.9166 4.46952L16.0834 5.96021ZM16.0834 18.7206C17.1638 18.5996 18.3019 18.1042 19.2748 17.5674C20.2613 17.0232 21.1453 16.3983 21.7302 15.956L20.8255 14.7595C20.2726 15.1776 19.4513 15.7569 18.5502 16.2541C17.6354 16.7587 16.7035 17.1418 15.9166 17.2299L16.0834 18.7206ZM21.25 4.19353V13.8629H22.75V4.19353H21.25ZM2.75 15.8065V6.13706H1.25V15.8065H2.75ZM21.7302 15.956C22.3994 15.45 22.75 14.6638 22.75 13.8629H21.25C21.25 14.2324 21.0899 14.5596 20.8255 14.7595L21.7302 15.956ZM3.31795 16.0563C3.21451 16.1258 3.07068 16.136 2.93501 16.0689C2.80323 16.0037 2.75 15.904 2.75 15.8065H1.25C1.25 17.3239 3.00174 18.076 4.15459 17.3013L3.31795 16.0563ZM20.6821 3.9437C20.7855 3.87419 20.9293 3.86396 21.065 3.93107C21.1968 3.99625 21.25 4.09602 21.25 4.19353H22.75C22.75 2.67607 20.9983 1.92398 19.8454 2.69869L20.6821 3.9437ZM2.26981 4.04398C1.60064 4.54996 1.25 5.33619 1.25 6.13706H2.75C2.75 5.76755 2.91011 5.44036 3.17449 5.24045L2.26981 4.04398ZM4.15459 17.3013C5.08473 16.6762 6.2287 16.0192 7.28364 15.7016L6.8512 14.2653C5.58032 14.6479 4.28845 15.4041 3.31795 16.0563L4.15459 17.3013Z" fill="#28303F"/>
<path d="M17 14.8C17 17.451 14.5 22 12 22C9.5 22 7 17.451 7 14.8C7 12.149 9.23858 10 12 10C14.7614 10 17 12.149 17 14.8Z" stroke="#28303F" stroke-width="1.5"/>
<path d="M13.5 14.5C13.5 15.3284 12.8284 16 12 16C11.1716 16 10.5 15.3284 10.5 14.5C10.5 13.6716 11.1716 13 12 13C12.8284 13 13.5 13.6716 13.5 14.5Z" stroke="#28303F" stroke-width="1.5"/>
</svg>
