<svg width="24" height="24" viewBox="0 0 24 24" fill="none" xmlns="http://www.w3.org/2000/svg">
<path d="M2.72215 8.64222L2.26981 8.04398H2.26981L2.72215 8.64222ZM8 6.02478L7.91657 5.27943L8 6.02478ZM3.73627 20.6788L3.31795 20.0563H3.31795L3.73627 20.6788ZM8 18.7851L7.91657 18.0398H7.91657L8 18.7851ZM16 21.9752L15.9166 21.2299L16 21.9752ZM21.2778 19.3578L20.8255 18.7595L20.8255 18.7595L21.2778 19.3578ZM3.17449 9.24045C3.72741 8.82238 4.54868 8.24309 5.44982 7.74595C6.3646 7.24127 7.29651 6.85821 8.08343 6.77012L7.91657 5.27943C6.83621 5.40036 5.6981 5.89585 4.72524 6.43256C3.73872 6.9768 2.85471 7.60173 2.26981 8.04398L3.17449 9.24045ZM4.15459 21.3013C5.35883 20.4921 6.8692 19.6664 8.08343 19.5305L7.91657 18.0398C6.30818 18.2198 4.53267 19.24 3.31795 20.0563L4.15459 21.3013ZM8.08343 19.5305C9.4033 19.3827 10.3425 20.0616 11.5459 20.9771C12.6833 21.8424 14.085 22.9443 16.0834 22.7206L15.9166 21.2299C14.5967 21.3776 13.6575 20.6987 12.4541 19.7833C11.3167 18.918 9.91501 17.8161 7.91657 18.0398L8.08343 19.5305ZM16.0834 22.7206C17.1638 22.5996 18.3019 22.1042 19.2748 21.5674C20.2613 21.0232 21.1453 20.3983 21.7302 19.956L20.8255 18.7595C20.2726 19.1776 19.4513 19.7569 18.5502 20.2541C17.6354 20.7587 16.7035 21.1418 15.9166 21.2299L16.0834 22.7206ZM21.25 8.19353V17.8629H22.75V8.19353H21.25ZM2.75 19.8065V10.1371H1.25V19.8065H2.75ZM21.7302 19.956C22.3994 19.45 22.75 18.6638 22.75 17.8629H21.25C21.25 18.2324 21.0899 18.5596 20.8255 18.7595L21.7302 19.956ZM3.31795 20.0563C3.21451 20.1258 3.07068 20.136 2.93501 20.0689C2.80323 20.0037 2.75 19.904 2.75 19.8065H1.25C1.25 21.3239 3.00174 22.076 4.15459 21.3013L3.31795 20.0563ZM2.26981 8.04398C1.60064 8.54996 1.25 9.33619 1.25 10.1371H2.75C2.75 9.76755 2.91011 9.44036 3.17449 9.24045L2.26981 8.04398ZM8.08343 6.77012C9.24814 6.63975 10.1292 7.15695 11.1566 7.92258L12.0529 6.71981C10.9916 5.9289 9.69729 5.08011 7.91657 5.27943L8.08343 6.77012ZM21.105 7.95359C21.2074 8.01889 21.25 8.10377 21.25 8.19353H22.75C22.75 7.52379 22.3856 6.99115 21.9114 6.6888L21.105 7.95359Z" fill="#28303F"/>
<path d="M20.8308 6.8C20.8308 7.93874 20.2742 9.59936 19.3861 10.9906C18.9479 11.6771 18.4529 12.2591 17.9487 12.6617C17.4401 13.0679 16.9761 13.25 16.5808 13.25V14.75C17.4355 14.75 18.2215 14.3635 18.8847 13.8339C19.5525 13.3007 20.1512 12.5798 20.6505 11.7977C21.6374 10.2516 22.3308 8.31222 22.3308 6.8H20.8308ZM16.5808 13.25C16.1855 13.25 15.7215 13.0679 15.2129 12.6617C14.7087 12.2591 14.2137 11.6771 13.7755 10.9906C12.8874 9.59936 12.3308 7.93874 12.3308 6.8H10.8308C10.8308 8.31222 11.5242 10.2516 12.5111 11.7977C13.0104 12.5798 13.6092 13.3007 14.2769 13.8339C14.9401 14.3635 15.7261 14.75 16.5808 14.75V13.25ZM12.3308 6.8C12.3308 4.59181 14.2045 2.75 16.5808 2.75V1.25C13.4343 1.25 10.8308 3.70626 10.8308 6.8H12.3308ZM16.5808 2.75C18.9572 2.75 20.8308 4.59181 20.8308 6.8H22.3308C22.3308 3.70626 19.7273 1.25 16.5808 1.25V2.75ZM17.3308 6.5C17.3308 6.91421 16.995 7.25 16.5808 7.25V8.75C17.8235 8.75 18.8308 7.74264 18.8308 6.5H17.3308ZM16.5808 7.25C16.1666 7.25 15.8308 6.91421 15.8308 6.5H14.3308C14.3308 7.74264 15.3382 8.75 16.5808 8.75V7.25ZM15.8308 6.5C15.8308 6.08579 16.1666 5.75 16.5808 5.75V4.25C15.3382 4.25 14.3308 5.25736 14.3308 6.5H15.8308ZM16.5808 5.75C16.995 5.75 17.3308 6.08579 17.3308 6.5H18.8308C18.8308 5.25736 17.8235 4.25 16.5808 4.25V5.75Z" fill="#28303F"/>
</svg>
