<svg width="24" height="24" viewBox="0 0 24 24" fill="none" xmlns="http://www.w3.org/2000/svg">
<path d="M12.3045 16.6108C11.0287 15.6521 9.80287 14.5833 8 14.7851C6.58869 14.9431 4.94575 15.866 3.73627 16.6788C3.0279 17.1548 2 16.6599 2 15.8065V6.13706C2 5.55187 2.25538 4.99516 2.72215 4.64222C3.85997 3.78189 6.13272 2.23379 8 2.02478C11.3183 1.65335 12.6817 5.5863 16 5.21487C17.4113 5.0569 19.0542 4.13397 20.2637 3.32119C20.9721 2.84517 22 3.34007 22 4.19353V13.8629C22 13.9786 21.99 14.0932 21.9704 14.2054" stroke="#28303F" stroke-width="1.5"/>
<path d="M21.25 14.8C21.25 15.9387 20.6934 17.5994 19.8053 18.9906C19.3671 19.6771 18.8721 20.2591 18.3679 20.6617C17.8593 21.0679 17.3953 21.25 17 21.25V22.75C17.8547 22.75 18.6407 22.3635 19.3039 21.8339C19.9716 21.3007 20.5704 20.5798 21.0697 19.7977C22.0566 18.2516 22.75 16.3122 22.75 14.8H21.25ZM17 21.25C16.6047 21.25 16.1407 21.0679 15.6321 20.6617C15.1279 20.2591 14.6329 19.6771 14.1947 18.9906C13.3066 17.5994 12.75 15.9387 12.75 14.8H11.25C11.25 16.3122 11.9434 18.2516 12.9303 19.7977C13.4296 20.5798 14.0284 21.3007 14.6961 21.8339C15.3593 22.3635 16.1453 22.75 17 22.75V21.25ZM12.75 14.8C12.75 12.5918 14.6236 10.75 17 10.75V9.25C13.8535 9.25 11.25 11.7063 11.25 14.8H12.75ZM17 10.75C19.3764 10.75 21.25 12.5918 21.25 14.8H22.75C22.75 11.7063 20.1465 9.25 17 9.25V10.75ZM17.75 14.5C17.75 14.9142 17.4142 15.25 17 15.25V16.75C18.2426 16.75 19.25 15.7426 19.25 14.5H17.75ZM17 15.25C16.5858 15.25 16.25 14.9142 16.25 14.5H14.75C14.75 15.7426 15.7574 16.75 17 16.75V15.25ZM16.25 14.5C16.25 14.0858 16.5858 13.75 17 13.75V12.25C15.7574 12.25 14.75 13.2574 14.75 14.5H16.25ZM17 13.75C17.4142 13.75 17.75 14.0858 17.75 14.5H19.25C19.25 13.2574 18.2426 12.25 17 12.25V13.75Z" fill="#28303F"/>
</svg>
