<svg width="24" height="24" viewBox="0 0 24 24" fill="none" xmlns="http://www.w3.org/2000/svg">
<path d="M19.1434 6.26999C19.1434 7.264 18.655 8.72806 17.8693 9.95889C17.4823 10.5652 17.047 11.0761 16.6068 11.4276C16.1622 11.7827 15.7665 11.9338 15.4394 11.9338V13.4338C16.2258 13.4338 16.9435 13.0783 17.5428 12.5998C18.1466 12.1177 18.6856 11.4679 19.1337 10.766C20.0182 9.38031 20.6434 7.63748 20.6434 6.26999H19.1434ZM15.4394 11.9338C15.1123 11.9338 14.7165 11.7827 14.2719 11.4276C13.8317 11.0761 13.3965 10.5652 13.0094 9.95889C12.2237 8.72806 11.7354 7.264 11.7354 6.26999H10.2354C10.2354 7.63748 10.8605 9.38031 11.7451 10.766C12.1931 11.4679 12.7322 12.1177 13.3359 12.5998C13.9352 13.0783 14.6529 13.4338 15.4394 13.4338V11.9338ZM11.7354 6.26999C11.7354 4.35128 13.3645 2.74414 15.4394 2.74414V1.24414C12.5944 1.24414 10.2354 3.46573 10.2354 6.26999H11.7354ZM15.4394 2.74414C17.5142 2.74414 19.1434 4.35128 19.1434 6.26999H20.6434C20.6434 3.46573 18.2843 1.24414 15.4394 1.24414V2.74414ZM16.0256 6.00275C16.0256 6.32651 15.7631 6.58896 15.4394 6.58896V8.08896C16.5915 8.08896 17.5256 7.15493 17.5256 6.00275H16.0256ZM15.4394 6.58896C15.1156 6.58896 14.8532 6.32651 14.8532 6.00275H13.3532C13.3532 7.15493 14.2872 8.08896 15.4394 8.08896V6.58896ZM14.8532 6.00275C14.8532 5.679 15.1156 5.41655 15.4394 5.41655V3.91655C14.2872 3.91655 13.3532 4.85057 13.3532 6.00275H14.8532ZM15.4394 5.41655C15.7631 5.41655 16.0256 5.679 16.0256 6.00275H17.5256C17.5256 4.85057 16.5915 3.91655 15.4394 3.91655V5.41655Z" fill="#28303F"/>
<path d="M8 6.03552C6.13272 6.24453 3.85997 7.79263 2.72215 8.65296C2.25538 9.0059 2 9.56261 2 10.1478V19.8172C2 20.6707 3.0279 21.1656 3.73627 20.6895C4.94575 19.8768 6.58869 18.9538 8 18.7959M8 6.03552V18.7959M8 6.03552C9.21922 5.89905 10.1745 6.34367 11.0599 6.94236M8 18.7959C11.3183 18.4244 12.6817 22.3574 16 21.986M16 21.986C17.8673 21.777 20.14 20.2289 21.2778 19.3685C21.7446 19.0156 22 18.4589 22 17.8737C22 17.8737 22 17.8737 22 17.8737C22 17.8737 22 9.05772 22 8.20427C22 7.35082 20.9721 6.85591 20.2637 7.33194C20.0372 7.48416 19.7955 7.64025 19.5429 7.79445M16 21.986V12.5604" stroke="#28303F" stroke-width="1.5"/>
</svg>
