<svg width="24" height="24" viewBox="0 0 24 24" fill="none" xmlns="http://www.w3.org/2000/svg">
<path d="M2.35636 8.92494L2.82154 9.51324H2.82154L2.35636 8.92494ZM8 6.02478L8.08343 6.77012L8 6.02478ZM16 9.21487L16.0834 9.96021L16 9.21487ZM20.2637 7.32119L19.8454 6.69869L19.8454 6.69869L20.2637 7.32119ZM3.73627 20.6788L3.31795 20.0563H3.31795L3.73627 20.6788ZM8 18.7851L7.91657 18.0398H7.91657L8 18.7851ZM16 21.9752L15.9166 21.2299L16 21.9752ZM21.6436 19.0751L21.1785 18.4868L21.6436 19.0751ZM2.82154 9.51324C3.27579 9.15407 4.13204 8.51095 5.12191 7.9323C6.1296 7.34324 7.1951 6.86956 8.08343 6.77012L7.91657 5.27943C6.70772 5.41474 5.4203 6.02038 4.36491 6.63733C3.29171 7.26469 2.37474 7.95427 1.89118 8.33663L2.82154 9.51324ZM8.08343 6.77012C9.4033 6.62239 10.3425 7.30126 11.5459 8.21673C12.6833 9.08201 14.085 10.1839 16.0834 9.96021L15.9166 8.46952C14.5967 8.61726 13.6575 7.93839 12.4541 7.02291C11.3167 6.15763 9.91501 5.05574 7.91657 5.27943L8.08343 6.77012ZM16.0834 9.96021C17.6918 9.78018 19.4673 8.75999 20.6821 7.9437L19.8454 6.69869C18.6412 7.50794 17.1308 8.33361 15.9166 8.46952L16.0834 9.96021ZM4.15459 21.3013C5.35883 20.4921 6.8692 19.6664 8.08343 19.5305L7.91657 18.0398C6.30818 18.2198 4.53267 19.24 3.31795 20.0563L4.15459 21.3013ZM8.08343 19.5305C9.4033 19.3827 10.3425 20.0616 11.5459 20.9771C12.6833 21.8424 14.085 22.9443 16.0834 22.7206L15.9166 21.2299C14.5967 21.3776 13.6575 20.6987 12.4541 19.7833C11.3167 18.918 9.91501 17.8161 7.91657 18.0398L8.08343 19.5305ZM16.0834 22.7206C17.2923 22.5853 18.5797 21.9796 19.6351 21.3627C20.7083 20.7353 21.6253 20.0457 22.1088 19.6634L21.1785 18.4868C20.7242 18.8459 19.868 19.4891 18.8781 20.0677C17.8704 20.6568 16.8049 21.1304 15.9166 21.2299L16.0834 22.7206ZM21.25 8.19353V18.324H22.75V8.19353H21.25ZM2.75 19.8065V9.67596H1.25V19.8065H2.75ZM22.1088 19.6634C22.5281 19.3318 22.75 18.8331 22.75 18.324H21.25C21.25 18.4002 21.2182 18.4553 21.1785 18.4868L22.1088 19.6634ZM3.31795 20.0563C3.21451 20.1258 3.07068 20.136 2.93501 20.0689C2.80323 20.0037 2.75 19.904 2.75 19.8065H1.25C1.25 21.3239 3.00174 22.076 4.15459 21.3013L3.31795 20.0563ZM20.6821 7.9437C20.7855 7.87419 20.9293 7.86396 21.065 7.93107C21.1968 7.99625 21.25 8.09602 21.25 8.19353H22.75C22.75 6.67607 20.9983 5.92398 19.8454 6.69869L20.6821 7.9437ZM1.89118 8.33663C1.4719 8.66816 1.25 9.16692 1.25 9.67596H2.75C2.75 9.59982 2.78179 9.54468 2.82154 9.51324L1.89118 8.33663Z" fill="#28303F"/>
<circle cx="16" cy="4" r="2" stroke="#28303F" stroke-width="1.5"/>
<path d="M15.25 14C15.25 14.4142 15.5858 14.75 16 14.75C16.4142 14.75 16.75 14.4142 16.75 14H15.25ZM16.75 6C16.75 5.58579 16.4142 5.25 16 5.25C15.5858 5.25 15.25 5.58579 15.25 6H16.75ZM16.75 14V6H15.25V14H16.75Z" fill="#28303F"/>
</svg>
