<svg width="24" height="24" viewBox="0 0 24 24" fill="none" xmlns="http://www.w3.org/2000/svg">
<path d="M2.72215 4.64222L2.26981 4.04398H2.26981L2.72215 4.64222ZM8 2.02478L7.91657 1.27943L8 2.02478ZM20.2637 3.32119L19.8454 2.69869L19.8454 2.69869L20.2637 3.32119ZM3.73627 16.6788L3.31795 16.0563H3.31795L3.73627 16.6788ZM21.2778 15.3578L20.8255 14.7595L20.8255 14.7595L21.2778 15.3578ZM3.17449 5.24045C3.72741 4.82238 4.54868 4.24309 5.44982 3.74595C6.3646 3.24127 7.29651 2.85821 8.08343 2.77012L7.91657 1.27943C6.83621 1.40036 5.6981 1.89585 4.72524 2.43256C3.73872 2.9768 2.85471 3.60173 2.26981 4.04398L3.17449 5.24045ZM8.08343 2.77012C9.4033 2.62239 10.3425 3.30126 11.5459 4.21673C12.6833 5.08201 14.085 6.1839 16.0834 5.96021L15.9166 4.46952C14.5967 4.61726 13.6575 3.93839 12.4541 3.02291C11.3167 2.15763 9.91501 1.05574 7.91657 1.27943L8.08343 2.77012ZM16.0834 5.96021C17.6918 5.78018 19.4673 4.75999 20.6821 3.9437L19.8454 2.69869C18.6412 3.50794 17.1308 4.33361 15.9166 4.46952L16.0834 5.96021ZM4.15459 17.3013C5.35883 16.4921 6.8692 15.6664 8.08343 15.5305L7.91657 14.0398C6.30818 14.2198 4.53267 15.24 3.31795 16.0563L4.15459 17.3013ZM21.25 4.19353V13.8629H22.75V4.19353H21.25ZM2.75 15.8065V6.13706H1.25V15.8065H2.75ZM21.7302 15.956C22.3994 15.45 22.75 14.6638 22.75 13.8629H21.25C21.25 14.2324 21.0899 14.5596 20.8255 14.7595L21.7302 15.956ZM3.31795 16.0563C3.21451 16.1258 3.07068 16.136 2.93501 16.0689C2.80323 16.0037 2.75 15.904 2.75 15.8065H1.25C1.25 17.3239 3.00174 18.076 4.15459 17.3013L3.31795 16.0563ZM20.6821 3.9437C20.7855 3.87419 20.9293 3.86396 21.065 3.93107C21.1968 3.99625 21.25 4.09602 21.25 4.19353H22.75C22.75 2.67607 20.9983 1.92398 19.8454 2.69869L20.6821 3.9437ZM2.26981 4.04398C1.60064 4.54996 1.25 5.33619 1.25 6.13706H2.75C2.75 5.76755 2.91011 5.44036 3.17449 5.24045L2.26981 4.04398ZM7.25 2.02478V14.7851H8.75V2.02478H7.25ZM18.9783 17.7268C20.0842 17.1483 21.0886 16.4412 21.7302 15.956L20.8255 14.7595C20.217 15.2196 19.2864 15.8728 18.283 16.3977L18.9783 17.7268ZM8.08343 15.5305C8.70641 15.4607 9.2418 15.5771 9.75334 15.8063L10.3667 14.4374C9.65236 14.1174 8.84789 13.9355 7.91657 14.0398L8.08343 15.5305ZM15.25 5.21487V12.8867H16.75V5.21487H15.25Z" fill="#28303F"/>
<path d="M10.6328 16.7193L10.87 16.0078H10.87L10.6328 16.7193ZM13.5271 17.6841L13.2899 18.3956H13.2899L13.5271 17.6841ZM14.2102 18.3672L13.4987 18.6043L13.4987 18.6043L14.2102 18.3672ZM15.175 21.2615L15.8865 21.0243V21.0243L15.175 21.2615ZM19.837 13.4235L20.5485 13.6607V13.6607L19.837 13.4235ZM18.4707 12.0573L18.7079 12.7688L18.7079 12.7688L18.4707 12.0573ZM17.2244 21.2615L16.5128 21.0243L17.2244 21.2615ZM10.6328 14.6699L10.3957 13.9584L10.3957 13.9584L10.6328 14.6699ZM18.4598 17.5551L17.7483 17.3179L18.4598 17.5551ZM10.2616 14.8776L10.75 15.4468L10.2616 14.8776ZM10.3957 17.4308L13.2899 18.3956L13.7643 16.9725L10.87 16.0078L10.3957 17.4308ZM13.4987 18.6043L14.4635 21.4986L15.8865 21.0243L14.9217 18.13L13.4987 18.6043ZM20.5485 13.6607C21.0254 12.23 19.6643 10.8689 18.2336 11.3458L18.7079 12.7688C18.966 12.6828 19.2115 12.9283 19.1255 13.1864L20.5485 13.6607ZM14.4635 21.4986C15.0196 23.1671 17.3797 23.1671 17.9359 21.4986L16.5128 21.0243C16.4125 21.3252 15.9868 21.3252 15.8865 21.0243L14.4635 21.4986ZM13.2899 18.3956C13.3885 18.4284 13.4659 18.5058 13.4987 18.6043L14.9217 18.13C14.7396 17.5835 14.3108 17.1547 13.7643 16.9725L13.2899 18.3956ZM18.2336 11.3458L10.3957 13.9584L10.87 15.3814L18.7079 12.7688L18.2336 11.3458ZM19.1255 13.1864L17.7483 17.3179L19.1713 17.7922L20.5485 13.6607L19.1255 13.1864ZM17.7483 17.3179L16.5128 21.0243L17.9359 21.4986L19.1713 17.7922L17.7483 17.3179ZM10.87 16.0078C10.7342 15.9625 10.6688 15.87 10.6496 15.7576C10.6277 15.6294 10.6734 15.5126 10.75 15.4468L9.77322 14.3084C8.77657 15.1635 8.95662 16.9511 10.3957 17.4308L10.87 16.0078ZM10.75 15.4468C10.7772 15.4235 10.8152 15.3997 10.87 15.3814L10.3957 13.9584C10.1602 14.0369 9.95072 14.1561 9.77322 14.3084L10.75 15.4468Z" fill="#28303F"/>
</svg>
