<svg width="24" height="24" viewBox="0 0 24 24" fill="none" xmlns="http://www.w3.org/2000/svg">
<path d="M19 16.8621C19.9089 16.3529 20.7266 15.7746 21.2778 15.3578C21.7446 15.0048 22 14.4481 22 13.8629V4.19353C22 3.34007 20.9721 2.84517 20.2637 3.32119C19.0542 4.13397 17.4113 5.0569 16 5.21487C12.6817 5.5863 11.3183 1.65335 8 2.02478C6.13272 2.23379 3.85997 3.78189 2.72215 4.64222C2.25538 4.99516 2 5.55187 2 6.13706V15.8065C2 16.6599 3.0279 17.1548 3.73627 16.6788C4.94575 15.866 6.58869 14.9431 8 14.7851C8.80621 14.6949 9.49702 14.8587 10.1285 15.1532" stroke="#28303F" stroke-width="1.5"/>
<path d="M10.7385 16.7193L10.9757 16.0078H10.9757L10.7385 16.7193ZM13.6328 17.6841L13.3957 18.3956H13.3957L13.6328 17.6841ZM14.3159 18.3672L13.6044 18.6043L13.6044 18.6043L14.3159 18.3672ZM15.2807 21.2614L15.9922 21.0243V21.0243L15.2807 21.2614ZM19.9427 13.4235L20.6542 13.6607V13.6607L19.9427 13.4235ZM18.5765 12.0573L18.8136 12.7688L18.8136 12.7688L18.5765 12.0573ZM17.3301 21.2614L16.6186 21.0243V21.0243L17.3301 21.2614ZM10.7385 14.6699L10.5014 13.9584L10.5014 13.9584L10.7385 14.6699ZM10.3673 14.8776L9.87894 14.3084H9.87894L10.3673 14.8776ZM18.5655 17.5551L17.854 17.3179L18.5655 17.5551ZM10.5014 17.4308L13.3957 18.3956L13.87 16.9725L10.9757 16.0078L10.5014 17.4308ZM13.6044 18.6043L14.5692 21.4986L15.9922 21.0243L15.0275 18.13L13.6044 18.6043ZM20.6542 13.6607C21.1311 12.23 19.77 10.8689 18.3393 11.3458L18.8136 12.7688C19.0717 12.6828 19.3172 12.9283 19.2312 13.1864L20.6542 13.6607ZM14.5692 21.4986C15.1254 23.1671 17.4854 23.1671 18.0416 21.4986L16.6186 21.0243C16.5182 21.3252 16.0925 21.3252 15.9922 21.0243L14.5692 21.4986ZM13.3957 18.3956C13.4942 18.4284 13.5716 18.5058 13.6044 18.6043L15.0275 18.13C14.8453 17.5835 14.4165 17.1547 13.87 16.9725L13.3957 18.3956ZM18.3393 11.3458L10.5014 13.9584L10.9757 15.3814L18.8136 12.7688L18.3393 11.3458ZM10.9757 16.0078C10.84 15.9625 10.7745 15.87 10.7553 15.7576C10.7334 15.6294 10.7791 15.5126 10.8557 15.4468L9.87894 14.3084C8.88228 15.1635 9.06233 16.9511 10.5014 17.4308L10.9757 16.0078ZM10.8557 15.4468C10.8829 15.4235 10.921 15.3997 10.9757 15.3814L10.5014 13.9584C10.2659 14.0369 10.0564 14.1561 9.87894 14.3084L10.8557 15.4468ZM19.2312 13.1864L17.854 17.3179L19.277 17.7922L20.6542 13.6607L19.2312 13.1864ZM17.854 17.3179L16.6186 21.0243L18.0416 21.4986L19.277 17.7922L17.854 17.3179Z" fill="#28303F"/>
</svg>
