<svg width="24" height="24" viewBox="0 0 24 24" fill="none" xmlns="http://www.w3.org/2000/svg">
<path d="M8 2.27038C6.13272 2.47939 3.85997 4.02749 2.72215 4.88782C2.25538 5.24076 2 5.79748 2 6.38266V16.0521C2 16.9055 3.0279 17.4004 3.73627 16.9244C4.94575 16.1116 6.58869 15.1887 8 15.0307M8 2.27038C11.3183 1.89896 12.6817 5.8319 16 5.46047M8 2.27038V15.0307M16 5.46047C17.4113 5.3025 19.0542 4.37957 20.2637 3.5668C20.9721 3.09078 22 3.58568 22 4.43913V14.1085C22 14.6937 21.7446 15.2505 21.2778 15.6034C20.8478 15.9286 20.2556 16.352 19.5844 16.7643M16 5.46047V11.8406M8 15.0307C9.21369 14.8949 10.1659 15.3349 11.0478 15.9294" stroke="#28303F" stroke-width="1.5"/>
<path d="M19.5547 15.8054C19.5547 18.0877 17.4024 22.0041 15.25 22.0041C13.0977 22.0041 10.9453 18.0877 10.9453 15.8054C10.9453 13.523 12.8726 11.6729 15.25 11.6729C17.6274 11.6729 19.5547 13.523 19.5547 15.8054Z" stroke="#28303F" stroke-width="1.5"/>
<path d="M16.5414 15.5471C16.5414 16.2603 15.9632 16.8385 15.25 16.8385C14.5368 16.8385 13.9586 16.2603 13.9586 15.5471C13.9586 14.8339 14.5368 14.2557 15.25 14.2557C15.9632 14.2557 16.5414 14.8339 16.5414 15.5471Z" stroke="#28303F" stroke-width="1.5"/>
</svg>
