<svg width="24" height="24" viewBox="0 0 24 24" fill="none" xmlns="http://www.w3.org/2000/svg">
<path d="M2.72215 4.91272L2.26981 4.31449H2.26981L2.72215 4.91272ZM8 2.29529L7.91657 1.54994L8 2.29529ZM20.2637 3.5917L19.8454 2.9692L19.8454 2.9692L20.2637 3.5917ZM3.73627 16.9493L3.31795 16.3268H3.31795L3.73627 16.9493ZM21.2778 15.6283L20.8255 15.0301L20.8255 15.0301L21.2778 15.6283ZM3.17449 5.51096C3.72741 5.09289 4.54868 4.51359 5.44982 4.01646C6.3646 3.51178 7.29651 3.12871 8.08343 3.04063L7.91657 1.54994C6.83621 1.67087 5.6981 2.16635 4.72524 2.70307C3.73872 3.24731 2.85471 3.87223 2.26981 4.31449L3.17449 5.51096ZM8.08343 3.04063C9.4033 2.89289 10.3425 3.57176 11.5459 4.48724C12.6833 5.35252 14.085 6.45441 16.0834 6.23072L15.9166 4.74003C14.5967 4.88777 13.6575 4.2089 12.4541 3.29342C11.3167 2.42814 9.91501 1.32625 7.91657 1.54994L8.08343 3.04063ZM16.0834 6.23072C17.6918 6.05069 19.4673 5.0305 20.6821 4.2142L19.8454 2.9692C18.6412 3.77845 17.1308 4.60412 15.9166 4.74003L16.0834 6.23072ZM16.0834 18.9911C17.1638 18.8701 18.3019 18.3747 19.2748 17.8379C20.2613 17.2937 21.1453 16.6688 21.7302 16.2265L20.8255 15.0301C20.2726 15.4481 19.4513 16.0274 18.5502 16.5246C17.6354 17.0292 16.7035 17.4123 15.9166 17.5004L16.0834 18.9911ZM21.25 4.46404V14.1334H22.75V4.46404H21.25ZM2.75 16.077V6.40757H1.25V16.077H2.75ZM21.7302 16.2265C22.3994 15.7206 22.75 14.9343 22.75 14.1334H21.25C21.25 14.503 21.0899 14.8302 20.8255 15.0301L21.7302 16.2265ZM3.31795 16.3268C3.21451 16.3963 3.07068 16.4065 2.93501 16.3394C2.80323 16.2743 2.75 16.1745 2.75 16.077H1.25C1.25 17.5944 3.00174 18.3465 4.15459 17.5718L3.31795 16.3268ZM20.6821 4.2142C20.7855 4.14469 20.9293 4.13447 21.065 4.20157C21.1968 4.26676 21.25 4.36652 21.25 4.46404H22.75C22.75 2.94658 20.9983 2.19449 19.8454 2.9692L20.6821 4.2142ZM2.26981 4.31449C1.60064 4.82046 1.25 5.6067 1.25 6.40757H2.75C2.75 6.03806 2.91011 5.71086 3.17449 5.51096L2.26981 4.31449ZM4.15459 17.5718C5.06132 16.9625 6.17326 16.3214 7.20837 15.9953L6.75768 14.5646C5.51837 14.955 4.26594 15.6898 3.31795 16.3268L4.15459 17.5718ZM7.25 2.29529V11.77H8.75V2.29529H7.25ZM15.25 5.48537V11.8656H16.75V5.48537H15.25Z" fill="#28303F"/>
<path d="M16.25 14.7438C16.25 15.8826 15.6934 17.5432 14.8053 18.9344C14.3671 19.6209 13.8721 20.203 13.3679 20.6056C12.8593 21.0117 12.3953 21.1938 12 21.1938V22.6938C12.8547 22.6938 13.6407 22.3074 14.3039 21.7777C14.9716 21.2445 15.5704 20.5236 16.0697 19.7415C17.0566 18.1955 17.75 16.2561 17.75 14.7438H16.25ZM12 21.1938C11.6047 21.1938 11.1407 21.0117 10.6321 20.6056C10.1279 20.203 9.63291 19.6209 9.19468 18.9344C8.3066 17.5432 7.75 15.8826 7.75 14.7438H6.25C6.25 16.2561 6.9434 18.1955 7.93032 19.7415C8.42959 20.5236 9.02835 21.2445 9.69606 21.7777C10.3593 22.3074 11.1453 22.6938 12 22.6938V21.1938ZM7.75 14.7438C7.75 12.5357 9.62364 10.6938 12 10.6938V9.19385C8.85351 9.19385 6.25 11.6501 6.25 14.7438H7.75ZM12 10.6938C14.3764 10.6938 16.25 12.5357 16.25 14.7438H17.75C17.75 11.6501 15.1465 9.19385 12 9.19385V10.6938ZM12.75 14.4438C12.75 14.8581 12.4142 15.1938 12 15.1938V16.6938C13.2426 16.6938 14.25 15.6865 14.25 14.4438H12.75ZM12 15.1938C11.5858 15.1938 11.25 14.8581 11.25 14.4438H9.75C9.75 15.6865 10.7574 16.6938 12 16.6938V15.1938ZM11.25 14.4438C11.25 14.0296 11.5858 13.6938 12 13.6938V12.1938C10.7574 12.1938 9.75 13.2012 9.75 14.4438H11.25ZM12 13.6938C12.4142 13.6938 12.75 14.0296 12.75 14.4438H14.25C14.25 13.2012 13.2426 12.1938 12 12.1938V13.6938Z" fill="#28303F"/>
</svg>
