<svg width="24" height="24" viewBox="0 0 24 24" fill="none" xmlns="http://www.w3.org/2000/svg">
<path d="M2.72215 9.13782L2.26981 8.53958H2.26981L2.72215 9.13782ZM8 6.52038L7.91657 5.77504L8 6.52038ZM20.2637 7.8168L19.8454 7.1943L19.8454 7.1943L20.2637 7.8168ZM3.73627 21.1744L3.31795 20.5519H3.31795L3.73627 21.1744ZM21.2778 19.8534L20.8255 19.2551L20.8255 19.2551L21.2778 19.8534ZM17.0294 9.48225L17.256 10.1972L17.0294 9.48225ZM14.9996 9.69278L14.8866 10.4342L14.9996 9.69278ZM3.17449 9.73606C3.72741 9.31798 4.54868 8.73869 5.44982 8.24155C6.3646 7.73688 7.29651 7.35381 8.08343 7.26573L7.91657 5.77504C6.83621 5.89597 5.6981 6.39145 4.72524 6.92816C3.73872 7.47241 2.85471 8.09733 2.26981 8.53958L3.17449 9.73606ZM4.15459 21.7969C5.35883 20.9877 6.8692 20.162 8.08343 20.0261L7.91657 18.5354C6.30818 18.7154 4.53267 19.7356 3.31795 20.5519L4.15459 21.7969ZM8.08343 20.0261C9.4033 19.8783 10.3425 20.5572 11.5459 21.4727C12.6833 22.338 14.085 23.4399 16.0834 23.2162L15.9166 21.7255C14.5967 21.8732 13.6575 21.1943 12.4541 20.2789C11.3167 19.4136 9.91501 18.3117 7.91657 18.5354L8.08343 20.0261ZM16.0834 23.2162C17.1638 23.0952 18.3019 22.5998 19.2748 22.063C20.2613 21.5188 21.1453 20.8939 21.7302 20.4516L20.8255 19.2551C20.2726 19.6732 19.4513 20.2525 18.5502 20.7497C17.6354 21.2543 16.7035 21.6374 15.9166 21.7255L16.0834 23.2162ZM21.25 8.68913V18.3585H22.75V8.68913H21.25ZM2.75 20.3021V10.6327H1.25V20.3021H2.75ZM21.7302 20.4516C22.3994 19.9457 22.75 19.1594 22.75 18.3585H21.25C21.25 18.7281 21.0899 19.0552 20.8255 19.2551L21.7302 20.4516ZM3.31795 20.5519C3.21451 20.6214 3.07068 20.6316 2.93501 20.5645C2.80323 20.4994 2.75 20.3996 2.75 20.3021H1.25C1.25 21.8195 3.00174 22.5716 4.15459 21.7969L3.31795 20.5519ZM20.6821 8.4393C20.7855 8.36979 20.9293 8.35957 21.065 8.42667C21.1968 8.49186 21.25 8.59162 21.25 8.68913H22.75C22.75 7.17168 20.9983 6.41959 19.8454 7.1943L20.6821 8.4393ZM2.26981 8.53958C1.60064 9.04556 1.25 9.8318 1.25 10.6327H2.75C2.75 10.2632 2.91011 9.93596 3.17449 9.73606L2.26981 8.53958ZM7.25 6.52038V19.2807H8.75V6.52038H7.25ZM16.0834 10.4558C16.4757 10.4119 16.8705 10.3194 17.256 10.1972L16.8027 8.76732C16.4879 8.86714 16.1906 8.93446 15.9166 8.96513L16.0834 10.4558ZM17.256 10.1972C18.4907 9.80576 19.7374 9.07413 20.6821 8.4393L19.8454 7.1943C18.9421 7.80131 17.8349 8.4401 16.8027 8.76732L17.256 10.1972ZM8.08343 7.26573C9.25575 7.13451 10.1402 7.65922 11.1759 8.43262C12.1489 9.15915 13.3383 10.1981 14.8866 10.4342L15.1127 8.95136C14.0298 8.78618 13.2014 8.07301 12.0734 7.23072C11.0082 6.4353 9.70842 5.57447 7.91657 5.77504L8.08343 7.26573ZM14.8866 10.4342C15.2656 10.492 15.6635 10.5028 16.0834 10.4558L15.9166 8.96513C15.6282 8.9974 15.3624 8.98944 15.1127 8.95136L14.8866 10.4342ZM15.25 9.71047V22.4708H16.75V9.71047H15.25Z" fill="#28303F"/>
<path d="M17.6333 14.4956C17.6333 14.9098 17.9691 15.2456 18.3833 15.2456C18.7975 15.2456 19.1333 14.9098 19.1333 14.4956H17.6333ZM19.6333 4.49561C19.6333 5.18596 19.0737 5.74561 18.3833 5.74561V7.24561C19.9021 7.24561 21.1333 6.01439 21.1333 4.49561H19.6333ZM18.3833 5.74561C17.693 5.74561 17.1333 5.18596 17.1333 4.49561H15.6333C15.6333 6.01439 16.8645 7.24561 18.3833 7.24561V5.74561ZM17.1333 4.49561C17.1333 3.80525 17.693 3.24561 18.3833 3.24561V1.74561C16.8645 1.74561 15.6333 2.97682 15.6333 4.49561H17.1333ZM18.3833 3.24561C19.0737 3.24561 19.6333 3.80525 19.6333 4.49561H21.1333C21.1333 2.97682 19.9021 1.74561 18.3833 1.74561V3.24561ZM19.1333 14.4956V6.49561H17.6333V14.4956H19.1333Z" fill="#28303F"/>
</svg>
