<svg width="24" height="24" viewBox="0 0 24 24" fill="none" xmlns="http://www.w3.org/2000/svg">
<path d="M6.29904 6.5C4.9023 7.07929 3.52775 8.0332 2.72215 8.64234C2.25538 8.99528 2 9.55199 2 10.1372V19.8066C2 20.66 3.0279 21.155 3.73627 20.6789C4.94575 19.8662 6.58869 18.9432 8 18.7853C11.3183 18.4138 12.6817 22.3468 16 21.9753C17.8673 21.7663 20.14 20.2182 21.2778 19.3579C21.7446 19.005 22 18.4483 22 17.8631V8.19365C22 7.3402 20.9721 6.84529 20.2637 7.32132C19.583 7.77877 18.7649 8.27112 17.9282 8.64234" stroke="#28303F" stroke-width="1.5"/>
<path d="M9.24761 8.41587L9.01044 9.12738H9.01044L9.24761 8.41587ZM10.7628 8.92094L10.5257 9.63246L10.7628 8.92094ZM11.0791 9.23717L10.3675 9.47434V9.47434L11.0791 9.23717ZM11.5841 10.7524L12.2956 10.5152L11.5841 10.7524ZM12.518 10.7912L11.8287 10.4958L12.518 10.7912ZM14.5076 6.14893L15.197 6.44437V6.44437L14.5076 6.14893ZM13.8511 5.4924L13.5556 4.80304V4.80304L13.8511 5.4924ZM9.20877 7.48196L8.91333 6.7926L9.20877 7.48196ZM9.01044 9.12738L10.5257 9.63246L11 8.20943L9.48478 7.70436L9.01044 9.12738ZM10.3675 9.47434L10.8726 10.9896L12.2956 10.5152L11.7906 9L10.3675 9.47434ZM13.2074 11.0867L15.197 6.44437L13.8182 5.85349L11.8287 10.4958L13.2074 11.0867ZM13.5556 4.80304L8.91333 6.7926L9.50421 8.17132L14.1465 6.18176L13.5556 4.80304ZM15.197 6.44437C15.6415 5.40722 14.5928 4.35855 13.5556 4.80304L14.1465 6.18176C13.9391 6.27066 13.7293 6.06092 13.8182 5.85349L15.197 6.44437ZM10.8726 10.9896C11.2361 12.08 12.7546 12.1431 13.2074 11.0867L11.8287 10.4958C11.9192 10.2845 12.2229 10.2971 12.2956 10.5152L10.8726 10.9896ZM10.5257 9.63246C10.451 9.60757 10.3924 9.54899 10.3675 9.47434L11.7906 9C11.6662 8.62674 11.3733 8.33385 11 8.20943L10.5257 9.63246ZM9.48478 7.70436C9.70287 7.77705 9.7155 8.08076 9.50421 8.17132L8.91333 6.7926C7.85687 7.24537 7.92003 8.76391 9.01044 9.12738L9.48478 7.70436ZM17.25 8C17.25 10.8995 14.8995 13.25 12 13.25V14.75C15.7279 14.75 18.75 11.7279 18.75 8H17.25ZM12 13.25C9.10051 13.25 6.75 10.8995 6.75 8H5.25C5.25 11.7279 8.27208 14.75 12 14.75V13.25ZM6.75 8C6.75 5.10051 9.10051 2.75 12 2.75V1.25C8.27208 1.25 5.25 4.27208 5.25 8H6.75ZM12 2.75C14.8995 2.75 17.25 5.10051 17.25 8H18.75C18.75 4.27208 15.7279 1.25 12 1.25V2.75Z" fill="#28303F"/>
</svg>
