<svg width="24" height="24" viewBox="0 0 24 24" fill="none" xmlns="http://www.w3.org/2000/svg">
<path d="M2.72215 8.69142L2.26981 8.09318H2.26981L2.72215 8.69142ZM20.2637 7.37039L19.8454 6.74789L19.8454 6.74789L20.2637 7.37039ZM3.73627 20.728L3.31795 20.1055H3.31795L3.73627 20.728ZM21.2778 19.407L20.8255 18.8087L20.8255 18.8087L21.2778 19.407ZM4.15459 21.3505C5.35883 20.5413 6.8692 19.7156 8.08343 19.5797L7.91657 18.089C6.30818 18.269 4.53267 19.2892 3.31795 20.1055L4.15459 21.3505ZM8.08343 19.5797C9.4033 19.4319 10.3425 20.1108 11.5459 21.0263C12.6833 21.8916 14.085 22.9935 16.0834 22.7698L15.9166 21.2791C14.5967 21.4268 13.6575 20.7479 12.4541 19.8325C11.3167 18.9672 9.91501 17.8653 7.91657 18.089L8.08343 19.5797ZM16.0834 22.7698C17.1638 22.6488 18.3019 22.1534 19.2748 21.6166C20.2613 21.0724 21.1453 20.4475 21.7302 20.0052L20.8255 18.8087C20.2726 19.2268 19.4513 19.8061 18.5502 20.3033C17.6354 20.8079 16.7035 21.191 15.9166 21.2791L16.0834 22.7698ZM21.25 8.24273V17.9121H22.75V8.24273H21.25ZM2.75 19.8557V10.1863H1.25V19.8557H2.75ZM21.7302 20.0052C22.3994 19.4992 22.75 18.713 22.75 17.9121H21.25C21.25 18.2816 21.0899 18.6088 20.8255 18.8087L21.7302 20.0052ZM3.31795 20.1055C3.21451 20.175 3.07068 20.1852 2.93501 20.1181C2.80323 20.0529 2.75 19.9532 2.75 19.8557H1.25C1.25 21.3731 3.00174 22.1252 4.15459 21.3505L3.31795 20.1055ZM20.6821 7.99289C20.7855 7.92338 20.9293 7.91316 21.065 7.98026C21.1968 8.04545 21.25 8.14521 21.25 8.24273H22.75C22.75 6.72527 20.9983 5.97318 19.8454 6.74789L20.6821 7.99289ZM2.26981 8.09318C1.60064 8.59915 1.25 9.38539 1.25 10.1863H2.75C2.75 9.81675 2.91011 9.48955 3.17449 9.28965L2.26981 8.09318ZM7.25 9.37839V18.8343H8.75V9.37839H7.25ZM3.17449 9.28965C4.18257 8.52742 5.97987 7.30955 7.53878 6.92001L7.17514 5.46476C5.29211 5.93528 3.2815 7.32822 2.26981 8.09318L3.17449 9.28965ZM16.9668 9.83618C18.2983 9.47283 19.6682 8.67422 20.6821 7.99289L19.8454 6.74789C18.8695 7.40372 17.663 8.09134 16.5719 8.3891L16.9668 9.83618ZM15.25 11.2113V22.0244H16.75V11.2113H15.25Z" fill="#28303F"/>
<path d="M16.7119 6.86348C16.7119 8.00222 16.1553 9.66283 15.2672 11.054C14.829 11.7406 14.334 12.3226 13.8299 12.7252C13.3212 13.1313 12.8572 13.3135 12.4619 13.3135V14.8135C13.3166 14.8135 14.1026 14.427 14.7659 13.8973C15.4336 13.3641 16.0323 12.6433 16.5316 11.8611C17.5185 10.3151 18.2119 8.3757 18.2119 6.86348H16.7119ZM12.4619 13.3135C12.0666 13.3135 11.6026 13.1313 11.094 12.7252C10.5898 12.3226 10.0948 11.7406 9.65659 11.054C8.76851 9.66283 8.21191 8.00222 8.21191 6.86348H6.71191C6.71191 8.3757 7.40532 10.3151 8.39224 11.8611C8.8915 12.6433 9.49026 13.3641 10.158 13.8973C10.8212 14.427 11.6072 14.8135 12.4619 14.8135V13.3135ZM8.21191 6.86348C8.21191 4.65528 10.0856 2.81348 12.4619 2.81348V1.31348C9.31543 1.31348 6.71191 3.76973 6.71191 6.86348H8.21191ZM12.4619 2.81348C14.8383 2.81348 16.7119 4.65528 16.7119 6.86348H18.2119C18.2119 3.76973 15.6084 1.31348 12.4619 1.31348V2.81348ZM13.2119 6.56348C13.2119 6.97769 12.8761 7.31348 12.4619 7.31348V8.81348C13.7046 8.81348 14.7119 7.80612 14.7119 6.56348H13.2119ZM12.4619 7.31348C12.0477 7.31348 11.7119 6.97769 11.7119 6.56348H10.2119C10.2119 7.80612 11.2193 8.81348 12.4619 8.81348V7.31348ZM11.7119 6.56348C11.7119 6.14926 12.0477 5.81348 12.4619 5.81348V4.31348C11.2193 4.31348 10.2119 5.32084 10.2119 6.56348H11.7119ZM12.4619 5.81348C12.8761 5.81348 13.2119 6.14926 13.2119 6.56348H14.7119C14.7119 5.32084 13.7046 4.31348 12.4619 4.31348V5.81348Z" fill="#28303F"/>
</svg>
