<svg width="24" height="24" viewBox="0 0 24 24" fill="none" xmlns="http://www.w3.org/2000/svg">
<path d="M7.09814 6.87805C5.23087 7.08706 2.95812 8.63516 1.82029 9.49549C1.35352 9.84843 1.09814 10.4051 1.09814 10.9903V20.6597C1.09814 21.5132 2.12604 22.0081 2.83441 21.5321C4.0439 20.7193 5.68683 19.7964 7.09814 19.6384C10.4165 19.267 11.7798 23.1999 15.0981 22.8285C16.9654 22.6195 19.2382 21.0714 20.376 20.2111C20.8428 19.8581 21.0981 19.3014 21.0981 18.7162V9.0468C21.0981 8.19335 20.0702 7.69844 19.3619 8.17447C18.1524 8.98724 16.5095 9.91017 15.0981 10.0681C11.7798 10.4396 10.4165 6.50662 7.09814 6.87805Z" stroke="#28303F" stroke-width="1.5"/>
<path d="M14.25 13.9601C14.25 14.3743 14.5858 14.7101 15 14.7101C15.4142 14.7101 15.75 14.3743 15.75 13.9601H14.25ZM15.75 5.96012C15.75 5.54591 15.4142 5.21012 15 5.21012C14.5858 5.21012 14.25 5.54591 14.25 5.96012H15.75ZM15 2.04346V1.29346C14.5858 1.29346 14.25 1.62924 14.25 2.04346H15ZM21 2.04346L21.6761 2.36801C21.7877 2.13561 21.7721 1.86221 21.6348 1.64403C21.4975 1.42584 21.2578 1.29346 21 1.29346V2.04346ZM21 6.21012V6.96012C21.2578 6.96012 21.4975 6.82774 21.6348 6.60955C21.7721 6.39137 21.7877 6.11797 21.6761 5.88558L21 6.21012ZM15 6.21012H14.25C14.25 6.62434 14.5858 6.96012 15 6.96012V6.21012ZM20 4.12679L19.3239 3.80224C19.2254 4.0074 19.2254 4.24618 19.3239 4.45134L20 4.12679ZM15.75 13.9601V5.96012H14.25V13.9601H15.75ZM15 2.79346H21V1.29346H15V2.79346ZM21 5.46012H15V6.96012H21V5.46012ZM15.75 6.21012V2.04346H14.25V6.21012H15.75ZM20.3239 1.71891L19.3239 3.80224L20.6761 4.45134L21.6761 2.36801L20.3239 1.71891ZM19.3239 4.45134L20.3239 6.53467L21.6761 5.88558L20.6761 3.80224L19.3239 4.45134Z" fill="#28303F"/>
</svg>
