<svg width="24" height="24" viewBox="0 0 24 24" fill="none" xmlns="http://www.w3.org/2000/svg">
<path d="M2.72215 6.64222L2.26981 6.04398H2.26981L2.72215 6.64222ZM8 4.02478L7.91657 3.27943L8 4.02478ZM16 7.21487L16.0834 7.96021L16 7.21487ZM20.2637 5.32119L19.8454 4.69869L19.8454 4.69869L20.2637 5.32119ZM3.73627 18.6788L3.31795 18.0563H3.31795L3.73627 18.6788ZM8 16.7851L7.91657 16.0398H7.91657L8 16.7851ZM16 19.9752L15.9166 19.2299L16 19.9752ZM21.2778 17.3578L20.8255 16.7595L20.8255 16.7595L21.2778 17.3578ZM3.17449 7.24045C3.72741 6.82238 4.54868 6.24309 5.44982 5.74595C6.3646 5.24127 7.29651 4.85821 8.08343 4.77012L7.91657 3.27943C6.83621 3.40036 5.6981 3.89585 4.72524 4.43256C3.73872 4.9768 2.85471 5.60173 2.26981 6.04398L3.17449 7.24045ZM8.08343 4.77012C9.4033 4.62239 10.3425 5.30126 11.5459 6.21673C12.6833 7.08201 14.085 8.1839 16.0834 7.96021L15.9166 6.46952C14.5967 6.61726 13.6575 5.93839 12.4541 5.02291C11.3167 4.15763 9.91501 3.05574 7.91657 3.27943L8.08343 4.77012ZM16.0834 7.96021C17.6918 7.78018 19.4673 6.75999 20.6821 5.9437L19.8454 4.69869C18.6412 5.50794 17.1308 6.33361 15.9166 6.46952L16.0834 7.96021ZM4.15459 19.3013C5.35883 18.4921 6.8692 17.6664 8.08343 17.5305L7.91657 16.0398C6.30818 16.2198 4.53267 17.24 3.31795 18.0563L4.15459 19.3013ZM8.08343 17.5305C9.4033 17.3827 10.3425 18.0616 11.5459 18.9771C12.6833 19.8424 14.085 20.9443 16.0834 20.7206L15.9166 19.2299C14.5967 19.3776 13.6575 18.6987 12.4541 17.7833C11.3167 16.918 9.91501 15.8161 7.91657 16.0398L8.08343 17.5305ZM16.0834 20.7206C17.1638 20.5996 18.3019 20.1042 19.2748 19.5674C20.2613 19.0232 21.1453 18.3983 21.7302 17.956L20.8255 16.7595C20.2726 17.1776 19.4513 17.7569 18.5502 18.2541C17.6354 18.7587 16.7035 19.1418 15.9166 19.2299L16.0834 20.7206ZM21.25 6.19353V15.8629H22.75V6.19353H21.25ZM2.75 17.8065V8.13706H1.25V17.8065H2.75ZM21.7302 17.956C22.3994 17.45 22.75 16.6638 22.75 15.8629H21.25C21.25 16.2324 21.0899 16.5596 20.8255 16.7595L21.7302 17.956ZM3.31795 18.0563C3.21451 18.1258 3.07068 18.136 2.93501 18.0689C2.80323 18.0037 2.75 17.904 2.75 17.8065H1.25C1.25 19.3239 3.00174 20.076 4.15459 19.3013L3.31795 18.0563ZM20.6821 5.9437C20.7855 5.87419 20.9293 5.86396 21.065 5.93107C21.1968 5.99625 21.25 6.09602 21.25 6.19353H22.75C22.75 4.67607 20.9983 3.92398 19.8454 4.69869L20.6821 5.9437ZM2.26981 6.04398C1.60064 6.54996 1.25 7.33619 1.25 8.13706H2.75C2.75 7.76755 2.91011 7.44036 3.17449 7.24045L2.26981 6.04398Z" fill="#28303F"/>
</svg>
