<svg width="24" height="24" viewBox="0 0 24 24" fill="none" xmlns="http://www.w3.org/2000/svg">
<path d="M5.50729 12.1619L5.74446 11.4504V11.4504L5.50729 12.1619ZM9.20976 13.3961L8.97259 14.1076L9.20976 13.3961ZM16.0206 18.4927L16.7321 18.7299L16.0206 18.4927ZM19.8831 6.90526L19.1716 6.66809L19.1716 6.66809L19.8831 6.90526ZM17.0947 4.11693L16.8576 3.40542V3.40542L17.0947 4.11693ZM5.50729 7.97942L5.27012 7.2679L5.50729 7.97942ZM5.27012 12.8734L8.97259 14.1076L9.44693 12.6846L5.74446 11.4504L5.27012 12.8734ZM9.89242 15.0274L11.1266 18.7299L12.5496 18.2555L11.3154 14.5531L9.89242 15.0274ZM16.7321 18.7299L20.5946 7.14243L19.1716 6.66809L15.3091 18.2555L16.7321 18.7299ZM16.8576 3.40542L5.27012 7.2679L5.74446 8.69093L17.3319 4.82845L16.8576 3.40542ZM20.5946 7.14244C21.3644 4.83283 19.1672 2.63555 16.8576 3.40542L17.3319 4.82845C18.4689 4.44946 19.5505 5.53113 19.1716 6.66809L20.5946 7.14244ZM11.1266 18.7299C12.0244 21.4234 15.8343 21.4234 16.7321 18.7299L15.3091 18.2555C14.8671 19.5815 12.9916 19.5815 12.5496 18.2555L11.1266 18.7299ZM8.97259 14.1076C9.40687 14.2523 9.74766 14.5931 9.89242 15.0274L11.3154 14.5531C11.0214 13.6709 10.3291 12.9786 9.44693 12.6846L8.97259 14.1076ZM5.74446 11.4504C4.41851 11.0084 4.41851 9.13291 5.74446 8.69093L5.27012 7.2679C2.57663 8.16573 2.57663 11.9756 5.27012 12.8734L5.74446 11.4504Z" fill="#28303F"/>
</svg>
