<svg width="24" height="24" viewBox="0 0 24 24" fill="none" xmlns="http://www.w3.org/2000/svg">
<path d="M13.25 4C13.25 4.69036 12.6904 5.25 12 5.25V6.75C13.5188 6.75 14.75 5.51878 14.75 4H13.25ZM12 5.25C11.3096 5.25 10.75 4.69036 10.75 4H9.25C9.25 5.51878 10.4812 6.75 12 6.75V5.25ZM10.75 4C10.75 3.30964 11.3096 2.75 12 2.75V1.25C10.4812 1.25 9.25 2.48122 9.25 4H10.75ZM12 2.75C12.6904 2.75 13.25 3.30964 13.25 4H14.75C14.75 2.48122 13.5188 1.25 12 1.25V2.75ZM15.25 10V12H16.75V10H15.25ZM8.75 12V10H7.25V12H8.75ZM12 6.75C13.7949 6.75 15.25 8.20507 15.25 10H16.75C16.75 7.37665 14.6234 5.25 12 5.25V6.75ZM12 5.25C9.37665 5.25 7.25 7.37665 7.25 10H8.75C8.75 8.20507 10.2051 6.75 12 6.75V5.25ZM12 18.25C11.3096 18.25 10.75 17.6904 10.75 17H9.25C9.25 18.5188 10.4812 19.75 12 19.75V18.25ZM13.25 17C13.25 17.6904 12.6904 18.25 12 18.25V19.75C13.5188 19.75 14.75 18.5188 14.75 17H13.25ZM14.75 14C14.75 13.8619 14.8619 13.75 15 13.75V12.25C14.0335 12.25 13.25 13.0335 13.25 14H14.75ZM7.25 12C7.25 12.9665 8.0335 13.75 9 13.75V12.25C8.86193 12.25 8.75 12.1381 8.75 12H7.25ZM10.75 14C10.75 13.0335 9.9665 12.25 9 12.25V13.75C9.13807 13.75 9.25 13.8619 9.25 14H10.75ZM15.25 12C15.25 12.1381 15.1381 12.25 15 12.25V13.75C15.9665 13.75 16.75 12.9665 16.75 12H15.25ZM14.75 17V14H13.25V17H14.75ZM9.25 14V17H10.75V14H9.25Z" fill="#28303F"/>
<path d="M14.0566 15.3264C13.6435 15.2951 13.2834 15.6046 13.2521 16.0177C13.2209 16.4307 13.5304 16.7908 13.9434 16.8221L14.0566 15.3264ZM10.0566 16.8221C10.4696 16.7908 10.7791 16.4307 10.7479 16.0177C10.7166 15.6046 10.3565 15.2951 9.94343 15.3264L10.0566 16.8221ZM20.25 18.9999C20.25 19.0858 20.1985 19.287 19.8285 19.5786C19.467 19.8634 18.8975 20.1528 18.1268 20.4097C16.5933 20.9209 14.4271 21.2499 12 21.2499V22.7499C14.5435 22.7499 16.8773 22.4073 18.6011 21.8327C19.4591 21.5467 20.2076 21.1896 20.757 20.7567C21.2979 20.3304 21.75 19.7424 21.75 18.9999H20.25ZM12 21.2499C9.5729 21.2499 7.4067 20.9209 5.87321 20.4097C5.10255 20.1528 4.53298 19.8634 4.17149 19.5786C3.80155 19.287 3.75 19.0858 3.75 18.9999H2.25C2.25 19.7424 2.70213 20.3304 3.24303 20.7567C3.79239 21.1896 4.54085 21.5467 5.39887 21.8327C7.12274 22.4073 9.45654 22.7499 12 22.7499V21.2499ZM13.9434 16.8221C15.8978 16.9699 17.564 17.3332 18.7171 17.8087C19.2961 18.0475 19.7067 18.2987 19.9605 18.5335C20.2139 18.768 20.25 18.9253 20.25 18.9999H21.75C21.75 18.3606 21.4121 17.8331 20.9793 17.4326C20.5467 17.0323 19.9589 16.6983 19.2889 16.422C17.9439 15.8673 16.1102 15.4817 14.0566 15.3264L13.9434 16.8221ZM3.75 18.9999C3.75 18.9253 3.78609 18.768 4.03952 18.5335C4.29326 18.2987 4.70394 18.0475 5.28293 17.8087C6.43596 17.3332 8.10224 16.9699 10.0566 16.8221L9.94343 15.3264C7.88979 15.4817 6.05607 15.8673 4.71109 16.422C4.04107 16.6983 3.45325 17.0323 3.02073 17.4326C2.58791 17.8331 2.25 18.3606 2.25 18.9999H3.75Z" fill="#28303F"/>
</svg>
