<svg width="24" height="24" viewBox="0 0 24 24" fill="none" xmlns="http://www.w3.org/2000/svg">
<ellipse cx="12" cy="19" rx="9" ry="3" stroke="#28303F" stroke-width="1.5"/>
<path d="M11.25 19C11.25 19.4142 11.5858 19.75 12 19.75C12.4142 19.75 12.75 19.4142 12.75 19H11.25ZM14.25 5C14.25 6.24264 13.2426 7.25 12 7.25V8.75C14.0711 8.75 15.75 7.07107 15.75 5H14.25ZM12 7.25C10.7574 7.25 9.75 6.24264 9.75 5H8.25C8.25 7.07107 9.92893 8.75 12 8.75V7.25ZM9.75 5C9.75 3.75736 10.7574 2.75 12 2.75V1.25C9.92893 1.25 8.25 2.92893 8.25 5H9.75ZM12 2.75C13.2426 2.75 14.25 3.75736 14.25 5H15.75C15.75 2.92893 14.0711 1.25 12 1.25V2.75ZM12.75 19V8H11.25V19H12.75Z" fill="#28303F"/>
</svg>
