<svg width="24" height="24" viewBox="0 0 24 24" fill="none" xmlns="http://www.w3.org/2000/svg">
<path d="M19.1994 16.4393L18.6232 16.9194L18.6232 16.9194L19.1994 16.4393ZM20.2663 17.7196L20.8425 17.2395V17.2395L20.2663 17.7196ZM3.73361 17.7196L4.30978 18.1998L3.73361 17.7196ZM4.80059 16.4393L4.22442 15.9591L4.80059 16.4393ZM15 14.25C14.5858 14.25 14.25 14.5858 14.25 15C14.25 15.4142 14.5858 15.75 15 15.75V14.25ZM8.99997 15.75C9.41419 15.75 9.74997 15.4142 9.74997 15C9.74997 14.5858 9.41419 14.25 8.99997 14.25V15.75ZM18.6232 16.9194L19.6902 18.1998L20.8425 17.2395L19.7755 15.9591L18.6232 16.9194ZM18.7299 20.25H5.27006V21.75H18.7299V20.25ZM4.30978 18.1998L5.37676 16.9194L4.22442 15.9591L3.15745 17.2395L4.30978 18.1998ZM16.1265 14.25H15V15.75H16.1265V14.25ZM7.87347 15.75H8.99997V14.25H7.87347V15.75ZM5.27006 20.25C4.21026 20.25 3.63132 19.0139 4.30978 18.1998L3.15745 17.2395C1.66482 19.0306 2.9385 21.75 5.27006 21.75V20.25ZM19.6902 18.1998C20.3686 19.0139 19.7897 20.25 18.7299 20.25V21.75C21.0614 21.75 22.3351 19.0306 20.8425 17.2395L19.6902 18.1998ZM19.7755 15.9591C18.8731 14.8762 17.5362 14.25 16.1265 14.25V15.75C17.091 15.75 18.0057 16.1784 18.6232 16.9194L19.7755 15.9591ZM5.37676 16.9194C5.99424 16.1784 6.90894 15.75 7.87347 15.75V14.25C6.46377 14.25 5.12689 14.8762 4.22442 15.9591L5.37676 16.9194Z" fill="#28303F"/>
<path d="M11.25 17C11.25 17.4142 11.5858 17.75 12 17.75C12.4142 17.75 12.75 17.4142 12.75 17H11.25ZM13.25 5C13.25 5.69036 12.6904 6.25 12 6.25V7.75C13.5188 7.75 14.75 6.51878 14.75 5H13.25ZM12 6.25C11.3096 6.25 10.75 5.69036 10.75 5H9.25C9.25 6.51878 10.4812 7.75 12 7.75V6.25ZM10.75 5C10.75 4.30964 11.3096 3.75 12 3.75V2.25C10.4812 2.25 9.25 3.48122 9.25 5H10.75ZM12 3.75C12.6904 3.75 13.25 4.30964 13.25 5H14.75C14.75 3.48122 13.5188 2.25 12 2.25V3.75ZM12.75 17V7H11.25V17H12.75Z" fill="#28303F"/>
</svg>
