<svg width="24" height="24" viewBox="0 0 24 24" fill="none" xmlns="http://www.w3.org/2000/svg">
<path d="M21.25 12V18H22.75V12H21.25ZM18 21.25H6V22.75H18V21.25ZM2.75 18V12H1.25V18H2.75ZM6 21.25C4.20507 21.25 2.75 19.7949 2.75 18H1.25C1.25 20.6234 3.37665 22.75 6 22.75V21.25ZM21.25 18C21.25 19.7949 19.7949 21.25 18 21.25V22.75C20.6234 22.75 22.75 20.6234 22.75 18H21.25ZM18 8.75C19.7949 8.75 21.25 10.2051 21.25 12H22.75C22.75 9.37665 20.6234 7.25 18 7.25V8.75ZM6 7.25C3.37665 7.25 1.25 9.37665 1.25 12H2.75C2.75 10.2051 4.20507 8.75 6 8.75V7.25ZM8.0077 7.25H6V8.75H8.0077V7.25ZM18 7.25H16.0873V8.75H18V7.25Z" fill="#28303F"/>
<path d="M12.5 15L11.5 15" stroke="#28303F" stroke-width="1.5" stroke-linecap="round"/>
<path d="M18 15L17 15" stroke="#28303F" stroke-width="1.5" stroke-linecap="round"/>
<path d="M7 15L6 15" stroke="#28303F" stroke-width="1.5" stroke-linecap="round"/>
<path d="M15.704 6.27585C15.704 7.26986 15.2157 8.73391 14.43 9.96475C14.0429 10.5711 13.6077 11.082 13.1675 11.4335C12.7229 11.7885 12.3271 11.9396 12 11.9396V13.4396C12.7865 13.4396 13.5042 13.0842 14.1035 12.6056C14.7072 12.1235 15.2463 11.4738 15.6943 10.7719C16.5789 9.38617 17.204 7.64334 17.204 6.27585H15.704ZM12 11.9396C11.6729 11.9396 11.2772 11.7885 10.8326 11.4335C10.3924 11.082 9.95713 10.5711 9.57008 9.96475C8.78437 8.73391 8.29602 7.26986 8.29602 6.27585H6.79602C6.79602 7.64334 7.42117 9.38617 8.30572 10.7719C8.7538 11.4738 9.29285 12.1235 9.89658 12.6056C10.4959 13.0842 11.2136 13.4396 12 13.4396V11.9396ZM8.29602 6.27585C8.29602 4.35714 9.92521 2.75 12 2.75V1.25C9.15509 1.25 6.79602 3.47159 6.79602 6.27585H8.29602ZM12 2.75C14.0749 2.75 15.704 4.35714 15.704 6.27585H17.204C17.204 3.47159 14.845 1.25 12 1.25V2.75ZM12.5862 6.00861C12.5862 6.33236 12.3238 6.59482 12 6.59482V8.09482C13.1522 8.09482 14.0862 7.16079 14.0862 6.00861H12.5862ZM12 6.59482C11.6763 6.59482 11.4138 6.33236 11.4138 6.00861H9.91383C9.91383 7.16079 10.8479 8.09482 12 8.09482V6.59482ZM11.4138 6.00861C11.4138 5.68486 11.6763 5.42241 12 5.42241V3.92241C10.8479 3.92241 9.91383 4.85643 9.91383 6.00861H11.4138ZM12 5.42241C12.3238 5.42241 12.5862 5.68486 12.5862 6.00861H14.0862C14.0862 4.85643 13.1522 3.92241 12 3.92241V5.42241Z" fill="#28303F"/>
</svg>
