<svg width="24" height="24" viewBox="0 0 24 24" fill="none" xmlns="http://www.w3.org/2000/svg">
<circle cx="17" cy="5" r="3" stroke="#28303F" stroke-width="1.5"/>
<path d="M16.25 12C16.25 12.4142 16.5858 12.75 17 12.75C17.4142 12.75 17.75 12.4142 17.75 12H16.25ZM17.75 8C17.75 7.58579 17.4142 7.25 17 7.25C16.5858 7.25 16.25 7.58579 16.25 8H17.75ZM17.75 12V8H16.25V12H17.75Z" fill="#28303F"/>
<path d="M12 16V17" stroke="#28303F" stroke-width="1.5" stroke-linecap="round"/>
<path d="M12 11.5V12.5" stroke="#28303F" stroke-width="1.5" stroke-linecap="round"/>
<path d="M12 7V8" stroke="#28303F" stroke-width="1.5" stroke-linecap="round"/>
<path d="M2.01343 17.2978L1.31118 17.0344L2.01343 17.2978ZM21.9867 17.2978L22.689 17.0344L21.9867 17.2978ZM6.51343 5.29775L7.21568 5.56109L6.51343 5.29775ZM11.083 4.75C11.4972 4.75 11.833 4.41421 11.833 4C11.833 3.58579 11.4972 3.25 11.083 3.25V4.75ZM20.1348 10.2231C19.9893 9.83527 19.557 9.63877 19.1692 9.78421C18.7813 9.92965 18.5848 10.362 18.7303 10.7498L20.1348 10.2231ZM20.1141 19.25H3.88609V20.75H20.1141V19.25ZM2.71568 17.5611L7.21568 5.56109L5.81118 5.03441L1.31118 17.0344L2.71568 17.5611ZM3.88609 19.25C3.01333 19.25 2.40923 18.3783 2.71568 17.5611L1.31118 17.0344C0.637001 18.8322 1.96602 20.75 3.88609 20.75V19.25ZM21.2845 17.5611C21.5909 18.3783 20.9868 19.25 20.1141 19.25V20.75C22.0341 20.75 23.3632 18.8322 22.689 17.0344L21.2845 17.5611ZM8.38609 3.25C7.23976 3.25 6.21368 3.96107 5.81118 5.03441L7.21568 5.56109C7.39863 5.07322 7.86503 4.75 8.38609 4.75V3.25ZM8.38609 4.75H11.083V3.25H8.38609V4.75ZM18.7303 10.7498L21.2845 17.5611L22.689 17.0344L20.1348 10.2231L18.7303 10.7498Z" fill="#28303F"/>
</svg>
