<svg width="24" height="24" viewBox="0 0 24 24" fill="none" xmlns="http://www.w3.org/2000/svg">
<path d="M12 16V17" stroke="#28303F" stroke-width="1.5" stroke-linecap="round"/>
<path d="M12 11.5V12.5" stroke="#28303F" stroke-width="1.5" stroke-linecap="round"/>
<path d="M12 7V8" stroke="#28303F" stroke-width="1.5" stroke-linecap="round"/>
<path d="M2.01343 17.2978L1.31118 17.0344L2.01343 17.2978ZM21.9867 17.2978L22.689 17.0344L21.9867 17.2978ZM6.51343 5.29775L7.21568 5.56109L6.51343 5.29775ZM11.1676 4.75C11.5818 4.75 11.9176 4.41421 11.9176 4C11.9176 3.58579 11.5818 3.25 11.1676 3.25V4.75ZM21.4107 13.6256C21.2653 13.2378 20.8329 13.0413 20.4451 13.1867C20.0573 13.3322 19.8608 13.7645 20.0062 14.1523L21.4107 13.6256ZM20.1141 19.25H3.88609V20.75H20.1141V19.25ZM2.71568 17.5611L7.21568 5.56109L5.81118 5.03441L1.31118 17.0344L2.71568 17.5611ZM3.88609 19.25C3.01333 19.25 2.40923 18.3783 2.71568 17.5611L1.31118 17.0344C0.637001 18.8322 1.96602 20.75 3.88609 20.75V19.25ZM21.2845 17.5611C21.5909 18.3783 20.9868 19.25 20.1141 19.25V20.75C22.0341 20.75 23.3632 18.8322 22.689 17.0344L21.2845 17.5611ZM8.38609 3.25C7.23976 3.25 6.21368 3.96107 5.81118 5.03441L7.21568 5.56109C7.39863 5.07322 7.86503 4.75 8.38609 4.75V3.25ZM8.38609 4.75H11.1676V3.25H8.38609V4.75ZM20.0062 14.1523L21.2845 17.5611L22.689 17.0344L21.4107 13.6256L20.0062 14.1523Z" fill="#28303F"/>
<path d="M18.6745 6.31254C18.6745 6.65763 18.3948 6.93739 18.0497 6.93739V8.43739C19.2232 8.43739 20.1745 7.48606 20.1745 6.31254H18.6745ZM18.0497 6.93739C17.7046 6.93739 17.4248 6.65763 17.4248 6.31254H15.9248C15.9248 7.48606 16.8761 8.43739 18.0497 8.43739V6.93739ZM17.4248 6.31254C17.4248 5.96744 17.7046 5.68769 18.0497 5.68769V4.18769C16.8761 4.18769 15.9248 5.13902 15.9248 6.31254H17.4248ZM18.0497 5.68769C18.3948 5.68769 18.6745 5.96744 18.6745 6.31254H20.1745C20.1745 5.13902 19.2232 4.18769 18.0497 4.18769V5.68769ZM21.4242 6.31253C21.4242 7.20181 20.8584 8.41198 20.0385 9.45216C19.6402 9.9574 19.2131 10.3819 18.8248 10.6725C18.4069 10.9852 18.1423 11.0619 18.0497 11.0619V12.5619C18.6445 12.5619 19.2391 12.2359 19.7235 11.8734C20.2374 11.4888 20.7555 10.9656 21.2165 10.3807C22.1151 9.2407 22.9242 7.70118 22.9242 6.31253H21.4242ZM18.0497 11.0619C17.957 11.0619 17.6924 10.9852 17.2746 10.6725C16.8862 10.3819 16.4591 9.9574 16.0608 9.45216C15.2409 8.41198 14.6751 7.20181 14.6751 6.31253H13.1751C13.1751 7.70118 13.9842 9.2407 14.8828 10.3807C15.3438 10.9656 15.8619 11.4888 16.3758 11.8734C16.8602 12.2359 17.4548 12.5619 18.0497 12.5619V11.0619ZM14.6751 6.31253C14.6751 4.44882 16.1859 2.93799 18.0497 2.93799V1.43799C15.3575 1.43799 13.1751 3.6204 13.1751 6.31253H14.6751ZM18.0497 2.93799C19.9134 2.93799 21.4242 4.44882 21.4242 6.31253H22.9242C22.9242 3.6204 20.7418 1.43799 18.0497 1.43799V2.93799Z" fill="#28303F"/>
</svg>
