<svg width="24" height="24" viewBox="0 0 24 24" fill="none" xmlns="http://www.w3.org/2000/svg">
<path d="M15.6315 4.70712L15.2565 4.0576L15.6315 4.70712ZM3.86589 11.5L3.49089 10.8505H3.49089L3.86589 11.5ZM3.49986 12.866L4.14938 12.491L3.49986 12.866ZM5.49986 16.3301L4.85035 16.7051H4.85035L5.49986 16.3301ZM6.86589 16.6962L7.24089 17.3457L6.86589 16.6962ZM18.6315 9.90327L18.2565 9.25376L18.6315 9.90327ZM19.0975 9.29607L18.373 9.10195L19.0975 9.29607ZM19.8295 6.56402L19.1051 6.3699L19.8295 6.56402ZM19.1224 5.33927L19.3165 4.61483H19.3165L19.1224 5.33927ZM16.3903 4.60722L16.1962 5.33167L16.1962 5.33167L16.3903 4.60722ZM13.4998 5.93786L13.8748 6.58738L13.4998 5.93786ZM10.4998 7.66991L10.8748 8.31943L10.4998 7.66991ZM10.4998 14.5981L10.1248 13.9486L10.4998 14.5981ZM2.85035 13.241L4.85035 16.7051L6.14938 15.9551L4.14938 12.491L2.85035 13.241ZM19.8219 9.49018L20.5539 6.75813L19.1051 6.3699L18.373 9.10195L19.8219 9.49018ZM19.3165 4.61483L16.5845 3.88278L16.1962 5.33167L18.9283 6.06372L19.3165 4.61483ZM20.5539 6.75813C20.8041 5.82457 20.2501 4.86498 19.3165 4.61483L18.9283 6.06372C19.0616 6.09945 19.1408 6.23654 19.1051 6.3699L20.5539 6.75813ZM4.85035 16.7051C5.33359 17.5422 6.40388 17.8289 7.24089 17.3457L6.49089 16.0466C6.37132 16.1157 6.21842 16.0747 6.14938 15.9551L4.85035 16.7051ZM3.49089 10.8505C2.65388 11.3337 2.3671 12.404 2.85035 13.241L4.14938 12.491C4.08035 12.3715 4.12132 12.2186 4.24089 12.1495L3.49089 10.8505ZM16.0065 5.35664C16.0639 5.32349 16.1322 5.3145 16.1962 5.33167L16.5845 3.88278C16.1361 3.76265 15.6585 3.82554 15.2565 4.0576L16.0065 5.35664ZM19.0065 10.5528C19.4085 10.3207 19.7018 9.9385 19.8219 9.49018L18.373 9.10195C18.3558 9.166 18.3139 9.2206 18.2565 9.25376L19.0065 10.5528ZM11.4998 2.75H12.4998V1.25H11.4998V2.75ZM12.4998 21.25H11.4998V22.75H12.4998V21.25ZM11.4998 21.25C11.3617 21.25 11.2498 21.1381 11.2498 21H9.74982C9.74982 21.9665 10.5333 22.75 11.4998 22.75V21.25ZM12.7498 21C12.7498 21.1381 12.6379 21.25 12.4998 21.25V22.75C13.4663 22.75 14.2498 21.9665 14.2498 21H12.7498ZM12.4998 2.75C12.6379 2.75 12.7498 2.86193 12.7498 3H14.2498C14.2498 2.0335 13.4663 1.25 12.4998 1.25V2.75ZM11.4998 1.25C10.5333 1.25 9.74982 2.0335 9.74982 3H11.2498C11.2498 2.86193 11.3617 2.75 11.4998 2.75V1.25ZM12.7498 3V5.93786H14.2498V3H12.7498ZM15.2565 4.0576L13.1248 5.28834L13.8748 6.58738L16.0065 5.35664L15.2565 4.0576ZM13.1248 5.28834L10.1248 7.02039L10.8748 8.31943L13.8748 6.58738L13.1248 5.28834ZM10.1248 7.02039L3.49089 10.8505L4.24089 12.1495L10.8748 8.31943L10.1248 7.02039ZM11.2498 7.66991V3H9.74982V7.66991H11.2498ZM11.2498 21V14.5981H9.74982V21H11.2498ZM7.24089 17.3457L10.8748 15.2476L10.1248 13.9486L6.49089 16.0466L7.24089 17.3457ZM10.8748 15.2476L13.8748 13.5156L13.1248 12.2165L10.1248 13.9486L10.8748 15.2476ZM13.8748 13.5156L19.0065 10.5528L18.2565 9.25376L13.1248 12.2165L13.8748 13.5156ZM12.7498 12.8661V21H14.2498V12.8661H12.7498Z" fill="#28303F"/>
</svg>
