<svg width="24" height="24" viewBox="0 0 24 24" fill="none" xmlns="http://www.w3.org/2000/svg">
<path d="M17 11.5H5.41421C5.149 11.5 4.89464 11.3946 4.70711 11.2071L2.70711 9.20711C2.31658 8.81658 2.31658 8.18342 2.70711 7.79289L4.70711 5.79289C4.89464 5.60536 5.149 5.5 5.41421 5.5H17C17.5523 5.5 18 5.94772 18 6.5V10.5C18 11.0523 17.5523 11.5 17 11.5Z" stroke="#28303F" stroke-width="1.5" stroke-linecap="round" stroke-linejoin="round"/>
<path d="M7 14.5H18.5858C18.851 14.5 19.1054 14.6054 19.2929 14.7929L21.2929 16.7929C21.6834 17.1834 21.6834 17.8166 21.2929 18.2071L19.2929 20.2071C19.1054 20.3946 18.851 20.5 18.5858 20.5H7C6.44772 20.5 6 20.0523 6 19.5V15.5C6 14.9477 6.44771 14.5 7 14.5Z" stroke="#28303F" stroke-width="1.5" stroke-linecap="round" stroke-linejoin="round"/>
<path d="M10.5 22H11.25H10.5ZM11.5 3.75H12.5V2.25H11.5V3.75ZM12.5 22.25H11.5V23.75H12.5V22.25ZM11.5 22.25C11.3619 22.25 11.25 22.1381 11.25 22H9.75C9.75 22.9665 10.5335 23.75 11.5 23.75V22.25ZM12.75 22C12.75 22.1381 12.6381 22.25 12.5 22.25V23.75C13.4665 23.75 14.25 22.9665 14.25 22H12.75ZM12.5 3.75C12.6381 3.75 12.75 3.86193 12.75 4H14.25C14.25 3.0335 13.4665 2.25 12.5 2.25V3.75ZM11.5 2.25C10.5335 2.25 9.75 3.0335 9.75 4H11.25C11.25 3.86193 11.3619 3.75 11.5 3.75V2.25ZM12.75 4V5.5H14.25V4H12.75ZM11.25 5.5V4H9.75V5.5H11.25ZM12.75 11.5V14.5H14.25V11.5H12.75ZM11.25 14.5V11.5H9.75V14.5H11.25ZM12.75 20.5V22H14.25V20.5H12.75ZM11.25 22L11.25 20.5H9.75L9.75 22H11.25Z" fill="#28303F"/>
</svg>
