<svg width="24" height="24" viewBox="0 0 24 24" fill="none" xmlns="http://www.w3.org/2000/svg">
<path d="M9.5 12H5.41421C5.149 12 4.89464 11.8946 4.70711 11.7071L2.70711 9.70711C2.31658 9.31658 2.31658 8.68342 2.70711 8.29289L4.70711 6.29289C4.89464 6.10536 5.149 6 5.41421 6H9.5C10.0523 6 10.5 6.44772 10.5 7V11C10.5 11.5523 10.0523 12 9.5 12Z" stroke="#28303F" stroke-width="1.5" stroke-linecap="round" stroke-linejoin="round"/>
<path d="M14.5 12H18.5858C18.851 12 19.1054 12.1054 19.2929 12.2929L21.2929 14.2929C21.6834 14.6834 21.6834 15.3166 21.2929 15.7071L19.2929 17.7071C19.1054 17.8946 18.851 18 18.5858 18H14.5C13.9477 18 13.5 17.5523 13.5 17V13C13.5 12.4477 13.9477 12 14.5 12Z" stroke="#28303F" stroke-width="1.5" stroke-linecap="round" stroke-linejoin="round"/>
<path d="M10.5 3C10.5 2.44772 10.9477 2 11.5 2H12.5C13.0523 2 13.5 2.44772 13.5 3V21C13.5 21.5523 13.0523 22 12.5 22H11.5C10.9477 22 10.5 21.5523 10.5 21V3Z" stroke="#28303F" stroke-width="1.5"/>
</svg>
