<svg width="24" height="24" viewBox="0 0 24 24" fill="none" xmlns="http://www.w3.org/2000/svg">
<path d="M15.7181 3.91549L15.9122 4.63994L15.7181 3.91549ZM5.55717 6.63811L5.75129 7.36255L5.55717 6.63811ZM4.85007 7.86285L5.57451 7.66874L4.85007 7.86285ZM5.62653 10.7606L4.90208 10.9547L5.62653 10.7606ZM6.85127 11.4677L7.04538 12.1922L6.85127 11.4677ZM17.0122 8.74512L16.8181 8.02068L17.0122 8.74512ZM17.6693 8.1805L18.3563 8.48148L17.6693 8.1805ZM18.4402 6.42103L17.7533 6.12005V6.12005L18.4402 6.42103ZM18.1168 5.21421L18.5613 4.61008L18.5613 4.61008L18.1168 5.21421ZM16.5695 4.07591L16.1251 4.68004L16.1251 4.68004L16.5695 4.07591ZM17.3 18.6247L16.7143 18.1562L17.3 18.6247ZM18.5 17.1247L17.9143 16.6562L18.5 17.1247ZM18.5 15.8753L17.9143 16.3438L18.5 15.8753ZM17.3 14.3753L16.7143 14.8438H16.7143L17.3 14.3753ZM10.4998 21L9.74976 21V21H10.4998ZM10.4998 5.31375L10.6939 6.03819L10.4998 5.31375ZM10.4998 10.4901L10.3056 9.76568L10.4998 10.4901ZM4.12562 8.05697L4.90208 10.9547L6.35097 10.5665L5.57451 7.66874L4.12562 8.05697ZM18.3563 8.48148L19.1272 6.72201L17.7533 6.12005L16.9824 7.87952L18.3563 8.48148ZM18.5613 4.61008L17.0139 3.47177L16.1251 4.68004L17.6724 5.81835L18.5613 4.61008ZM19.1272 6.72201C19.4556 5.97232 19.2206 5.0951 18.5613 4.61008L17.6724 5.81835C17.7666 5.88763 17.8002 6.01295 17.7533 6.12005L19.1272 6.72201ZM4.90208 10.9547C5.15223 11.8883 6.11182 12.4423 7.04538 12.1922L6.65716 10.7433C6.52379 10.779 6.3867 10.6999 6.35097 10.5665L4.90208 10.9547ZM5.36306 5.91366C4.42949 6.16381 3.87548 7.1234 4.12562 8.05697L5.57451 7.66874C5.53878 7.53537 5.61792 7.39829 5.75129 7.36255L5.36306 5.91366ZM15.9122 4.63994C15.9856 4.62028 16.0639 4.63504 16.1251 4.68004L17.0139 3.47177C16.5857 3.15674 16.0375 3.05345 15.524 3.19105L15.9122 4.63994ZM17.2063 9.46957C17.7198 9.33197 18.1429 8.96842 18.3563 8.48148L16.9824 7.87952C16.9519 7.94908 16.8914 8.00102 16.8181 8.02068L17.2063 9.46957ZM4.24976 15V18H5.74976V15H4.24976ZM17.8857 19.0932L19.0857 17.5932L17.9143 16.6562L16.7143 18.1562L17.8857 19.0932ZM19.0857 15.4068L17.8857 13.9068L16.7143 14.8438L17.9143 16.3438L19.0857 15.4068ZM19.0857 17.5932C19.597 16.9541 19.597 16.0459 19.0857 15.4068L17.9143 16.3438C17.9874 16.4351 17.9874 16.5649 17.9143 16.6562L19.0857 17.5932ZM4.24976 18C4.24976 18.9665 5.03326 19.75 5.99976 19.75V18.25C5.86169 18.25 5.74976 18.1381 5.74976 18H4.24976ZM5.99976 13.25C5.03326 13.25 4.24976 14.0335 4.24976 15H5.74976C5.74976 14.8619 5.86168 14.75 5.99976 14.75V13.25ZM16.5191 14.75C16.5951 14.75 16.6669 14.7845 16.7143 14.8438L17.8857 13.9068C17.5536 13.4917 17.0508 13.25 16.5191 13.25V14.75ZM16.5191 19.75C17.0508 19.75 17.5536 19.5083 17.8857 19.0932L16.7143 18.1562C16.6669 18.2155 16.5951 18.25 16.5191 18.25V19.75ZM11.4998 2.75H12.4998V1.25H11.4998V2.75ZM12.4998 21.25H11.4998V22.75H12.4998V21.25ZM11.4998 21.25C11.3617 21.25 11.2498 21.1381 11.2498 21H9.74976C9.74976 21.9665 10.5333 22.75 11.4998 22.75V21.25ZM12.7498 21C12.7498 21.1381 12.6378 21.25 12.4998 21.25V22.75C13.4663 22.75 14.2498 21.9665 14.2498 21H12.7498ZM12.4998 2.75C12.6378 2.75 12.7498 2.86193 12.7498 3H14.2498C14.2498 2.0335 13.4663 1.25 12.4998 1.25V2.75ZM11.4998 1.25C10.5333 1.25 9.74976 2.0335 9.74976 3H11.2498C11.2498 2.86193 11.3617 2.75 11.4998 2.75V1.25ZM12.7498 3V4.5099H14.2498V3H12.7498ZM15.524 3.19105L13.3056 3.78545L13.6939 5.23434L15.9122 4.63994L15.524 3.19105ZM13.3056 3.78545L10.3056 4.5893L10.6939 6.03819L13.6939 5.23434L13.3056 3.78545ZM10.3056 4.5893L5.36306 5.91366L5.75129 7.36255L10.6939 6.03819L10.3056 4.5893ZM11.2498 5.31375V3H9.74976V5.31375H11.2498ZM13.6939 10.4107L17.2063 9.46957L16.8181 8.02068L13.3056 8.96184L13.6939 10.4107ZM7.04538 12.1922L10.6939 11.2146L10.3056 9.76568L6.65716 10.7433L7.04538 12.1922ZM10.6939 11.2146L13.6939 10.4107L13.3056 8.96184L10.3056 9.76568L10.6939 11.2146ZM12.7498 9.68628V14H14.2498V9.68628H12.7498ZM16.5191 13.25H13.4998V14.75H16.5191V13.25ZM13.4998 13.25H10.4998V14.75H13.4998V13.25ZM10.4998 13.25H5.99976V14.75H10.4998V13.25ZM11.2498 14V10.4901H9.74976V14H11.2498ZM12.7498 19V21H14.2498V19H12.7498ZM13.4998 19.75H16.5191V18.25H13.4998V19.75ZM5.99976 19.75H10.4998V18.25H5.99976V19.75ZM10.4998 19.75H13.4998V18.25H10.4998V19.75ZM11.2498 21L11.2498 19L9.74977 19L9.74976 21L11.2498 21Z" fill="#28303F"/>
</svg>
