<svg width="24" height="24" viewBox="0 0 24 24" fill="none" xmlns="http://www.w3.org/2000/svg">
<path d="M3.25394 15.0273L2.72361 15.5576H2.72361L3.25394 15.0273ZM3.25394 8.97272L3.78427 9.50305L3.25394 8.97272ZM15.0273 20.7461L15.5576 21.2764L15.0273 20.7461ZM8.97272 20.7461L9.50305 20.2157L8.97272 20.7461ZM20.7461 8.97272L20.2157 9.50305L20.7461 8.97272ZM20.7461 15.0273L20.2157 14.4969L20.7461 15.0273ZM15.0273 3.25394L15.5576 2.72361L15.0273 3.25394ZM8.97272 3.25394L8.44239 2.72361L8.97272 3.25394ZM14.4969 3.78427L20.2157 9.50305L21.2764 8.44239L15.5576 2.72361L14.4969 3.78427ZM20.2157 14.4969L14.4969 20.2157L15.5576 21.2764L21.2764 15.5576L20.2157 14.4969ZM9.50305 20.2157L3.78427 14.4969L2.72361 15.5576L8.44239 21.2764L9.50305 20.2157ZM3.78427 9.50305L9.50305 3.78427L8.44239 2.72361L2.72361 8.44239L3.78427 9.50305ZM3.78427 14.4969C2.40524 13.1179 2.40524 10.8821 3.78427 9.50305L2.72361 8.44239C0.758795 10.4072 0.758799 13.5928 2.72361 15.5576L3.78427 14.4969ZM14.4969 20.2157C13.1179 21.5948 10.8821 21.5948 9.50305 20.2157L8.44239 21.2764C10.4072 23.2412 13.5928 23.2412 15.5576 21.2764L14.4969 20.2157ZM20.2157 9.50305C21.5948 10.8821 21.5948 13.1179 20.2157 14.4969L21.2764 15.5576C23.2412 13.5928 23.2412 10.4072 21.2764 8.44239L20.2157 9.50305ZM15.5576 2.72361C13.5928 0.758795 10.4072 0.758799 8.44239 2.72361L9.50305 3.78427C10.8821 2.40524 13.1179 2.40524 14.4969 3.78427L15.5576 2.72361Z" fill="#28303F"/>
<path d="M9.46967 7.05546C9.17678 7.34835 9.17678 7.82322 9.46967 8.11612C9.76256 8.40901 10.2374 8.40901 10.5303 8.11612L9.46967 7.05546ZM11.2929 6.29289L10.7626 5.76256V5.76256L11.2929 6.29289ZM12.7071 6.29289L12.1768 6.82322V6.82322L12.7071 6.29289ZM13.4697 8.11612C13.7626 8.40901 14.2374 8.40901 14.5303 8.11612C14.8232 7.82322 14.8232 7.34835 14.5303 7.05546L13.4697 8.11612ZM12 16H11.25H12ZM12.75 6.58579C12.75 6.17157 12.4142 5.83579 12 5.83579C11.5858 5.83579 11.25 6.17157 11.25 6.58579L12.75 6.58579ZM16.9445 9.46967C16.6517 9.17678 16.1768 9.17678 15.8839 9.46967C15.591 9.76256 15.591 10.2374 15.8839 10.5303L16.9445 9.46967ZM17.7071 11.2929L17.1768 11.8232H17.1768L17.7071 11.2929ZM17.7071 12.7071L17.1768 12.1768L17.7071 12.7071ZM15.8839 13.4697C15.591 13.7626 15.591 14.2374 15.8839 14.5303C16.1768 14.8232 16.6516 14.8232 16.9445 14.5303L15.8839 13.4697ZM16 12V11.25V12ZM17.4142 12.75C17.8284 12.75 18.1642 12.4142 18.1642 12C18.1642 11.5858 17.8284 11.25 17.4142 11.25V12.75ZM11.25 17C11.25 17.4142 11.5858 17.75 12 17.75C12.4142 17.75 12.75 17.4142 12.75 17H11.25ZM8.11612 10.5303C8.40901 10.2374 8.40901 9.76256 8.11612 9.46967C7.82322 9.17678 7.34835 9.17678 7.05546 9.46967L8.11612 10.5303ZM6.29289 11.2929L5.76256 10.7626L6.29289 11.2929ZM6.29289 12.7071L6.82322 12.1768H6.82322L6.29289 12.7071ZM7.05546 14.5303C7.34835 14.8232 7.82322 14.8232 8.11612 14.5303C8.40901 14.2374 8.40901 13.7626 8.11612 13.4697L7.05546 14.5303ZM8 12V11.25V12ZM6.58579 11.25C6.17157 11.25 5.83579 11.5858 5.83579 12C5.83579 12.4142 6.17157 12.75 6.58579 12.75V11.25ZM10.5303 8.11612L11.8232 6.82322L10.7626 5.76256L9.46967 7.05546L10.5303 8.11612ZM12.1768 6.82322L13.4697 8.11612L14.5303 7.05546L13.2374 5.76256L12.1768 6.82322ZM11.8232 6.82322C11.9209 6.72559 12.0791 6.72559 12.1768 6.82322L13.2374 5.76256C12.554 5.07915 11.446 5.07914 10.7626 5.76256L11.8232 6.82322ZM12.75 16L12.75 6.58579L11.25 6.58579L11.25 16H12.75ZM15.8839 10.5303L17.1768 11.8232L18.2374 10.7626L16.9445 9.46967L15.8839 10.5303ZM17.1768 12.1768L15.8839 13.4697L16.9445 14.5303L18.2374 13.2374L17.1768 12.1768ZM17.1768 11.8232C17.2744 11.9209 17.2744 12.0791 17.1768 12.1768L18.2374 13.2374C18.9209 12.554 18.9209 11.446 18.2374 10.7626L17.1768 11.8232ZM16 12.75H17.4142V11.25H16V12.75ZM11.25 16L11.25 17H12.75L12.75 16H11.25ZM16 11.25C13.3766 11.25 11.25 13.3766 11.25 16H12.75C12.75 14.2051 14.2051 12.75 16 12.75V11.25ZM7.05546 9.46967L5.76256 10.7626L6.82322 11.8232L8.11612 10.5303L7.05546 9.46967ZM5.76256 13.2374L7.05546 14.5303L8.11612 13.4697L6.82322 12.1768L5.76256 13.2374ZM5.76256 10.7626C5.07914 11.446 5.07915 12.554 5.76256 13.2374L6.82322 12.1768C6.72559 12.0791 6.72559 11.9209 6.82322 11.8232L5.76256 10.7626ZM8 11.25H6.58579V12.75H8V11.25ZM8 12.75C9.79493 12.75 11.25 14.2051 11.25 16H12.75C12.75 13.3766 10.6234 11.25 8 11.25V12.75Z" fill="#28303F"/>
</svg>
