<svg width="24" height="24" viewBox="0 0 24 24" fill="none" xmlns="http://www.w3.org/2000/svg">
<path d="M3.25394 15.0273L2.72361 15.5576L3.25394 15.0273ZM3.25394 8.97272L3.78427 9.50305L3.25394 8.97272ZM15.0273 20.7461L15.5576 21.2764L15.0273 20.7461ZM8.97272 20.7461L9.50305 20.2157L8.97272 20.7461ZM20.7461 8.97272L21.2764 8.44239L20.7461 8.97272ZM20.7461 15.0273L20.2157 14.4969L20.7461 15.0273ZM15.0273 3.25394L14.4969 3.78427L15.0273 3.25394ZM8.97272 3.25394L8.44239 2.72361L8.97272 3.25394ZM14.4969 3.78427L20.2157 9.50305L21.2764 8.44239L15.5576 2.72361L14.4969 3.78427ZM20.2157 14.4969L14.4969 20.2157L15.5576 21.2764L21.2764 15.5576L20.2157 14.4969ZM9.50305 20.2157L3.78427 14.4969L2.72361 15.5576L8.44239 21.2764L9.50305 20.2157ZM3.78427 9.50305L9.50305 3.78427L8.44239 2.72361L2.72361 8.44239L3.78427 9.50305ZM3.78427 14.4969C2.40524 13.1179 2.40524 10.8821 3.78427 9.50305L2.72361 8.44239C0.758795 10.4072 0.758799 13.5928 2.72361 15.5576L3.78427 14.4969ZM14.4969 20.2157C13.1179 21.5948 10.8821 21.5948 9.50305 20.2157L8.44239 21.2764C10.4072 23.2412 13.5928 23.2412 15.5576 21.2764L14.4969 20.2157ZM20.2157 9.50305C21.5948 10.8821 21.5948 13.1179 20.2157 14.4969L21.2764 15.5576C23.2412 13.5928 23.2412 10.4072 21.2764 8.44239L20.2157 9.50305ZM15.5576 2.72361C13.5928 0.758795 10.4072 0.758799 8.44239 2.72361L9.50305 3.78427C10.8821 2.40524 13.1179 2.40524 14.4969 3.78427L15.5576 2.72361Z" fill="#28303F"/>
<path d="M13.9445 7.46967C13.6517 7.17678 13.1768 7.17678 12.8839 7.46967C12.591 7.76256 12.591 8.23744 12.8839 8.53033L13.9445 7.46967ZM14.7071 9.29289L14.1768 9.82322V9.82322L14.7071 9.29289ZM14.7071 10.7071L14.1768 10.1768H14.1768L14.7071 10.7071ZM12.8839 11.4697C12.591 11.7626 12.591 12.2374 12.8839 12.5303C13.1768 12.8232 13.6516 12.8232 13.9445 12.5303L12.8839 11.4697ZM12 10V9.25V10ZM14.4142 10.75C14.8284 10.75 15.1642 10.4142 15.1642 10C15.1642 9.58579 14.8284 9.25 14.4142 9.25V10.75ZM9.25 16C9.25 16.4142 9.58579 16.75 10 16.75C10.4142 16.75 10.75 16.4142 10.75 16H9.25ZM12.8839 8.53033L14.1768 9.82322L15.2374 8.76256L13.9445 7.46967L12.8839 8.53033ZM14.1768 10.1768L12.8839 11.4697L13.9445 12.5303L15.2374 11.2374L14.1768 10.1768ZM14.1768 9.82322C14.2744 9.92085 14.2744 10.0791 14.1768 10.1768L15.2374 11.2374C15.9209 10.554 15.9209 9.44598 15.2374 8.76256L14.1768 9.82322ZM12 10.75L14.4142 10.75V9.25L12 9.25V10.75ZM9.25 12V16H10.75V12H9.25ZM12 9.25C10.4812 9.25 9.25 10.4812 9.25 12H10.75C10.75 11.3096 11.3096 10.75 12 10.75V9.25Z" fill="#28303F"/>
</svg>
