<svg width="24" height="24" viewBox="0 0 24 24" fill="none" xmlns="http://www.w3.org/2000/svg">
<path d="M3.25394 15.0273L2.72361 15.5576H2.72361L3.25394 15.0273ZM3.25394 8.97272L3.78427 9.50305L3.25394 8.97272ZM15.0273 20.7461L15.5576 21.2764L15.0273 20.7461ZM8.97272 20.7461L9.50305 20.2157L8.97272 20.7461ZM20.7461 8.97272L20.2157 9.50305L20.7461 8.97272ZM20.7461 15.0273L20.2157 14.4969L20.7461 15.0273ZM15.0273 3.25394L15.5576 2.72361L15.0273 3.25394ZM8.97272 3.25394L8.44239 2.72361L8.97272 3.25394ZM14.4969 3.78427L20.2157 9.50305L21.2764 8.44239L15.5576 2.72361L14.4969 3.78427ZM20.2157 14.4969L14.4969 20.2157L15.5576 21.2764L21.2764 15.5576L20.2157 14.4969ZM9.50305 20.2157L3.78427 14.4969L2.72361 15.5576L8.44239 21.2764L9.50305 20.2157ZM3.78427 9.50305L9.50305 3.78427L8.44239 2.72361L2.72361 8.44239L3.78427 9.50305ZM3.78427 14.4969C2.40524 13.1179 2.40524 10.8821 3.78427 9.50305L2.72361 8.44239C0.758795 10.4072 0.758799 13.5928 2.72361 15.5576L3.78427 14.4969ZM14.4969 20.2157C13.1179 21.5948 10.8821 21.5948 9.50305 20.2157L8.44239 21.2764C10.4072 23.2412 13.5928 23.2412 15.5576 21.2764L14.4969 20.2157ZM20.2157 9.50305C21.5948 10.8821 21.5948 13.1179 20.2157 14.4969L21.2764 15.5576C23.2412 13.5928 23.2412 10.4072 21.2764 8.44239L20.2157 9.50305ZM15.5576 2.72361C13.5928 0.758795 10.4072 0.758799 8.44239 2.72361L9.50305 3.78427C10.8821 2.40524 13.1179 2.40524 14.4969 3.78427L15.5576 2.72361Z" fill="#28303F"/>
<path d="M11.1161 8.53033C11.409 8.23744 11.409 7.76256 11.1161 7.46967C10.8232 7.17678 10.3483 7.17678 10.0555 7.46967L11.1161 8.53033ZM9.29289 9.29289L8.76256 8.76256H8.76256L9.29289 9.29289ZM9.29289 10.7071L9.82322 10.1768H9.82322L9.29289 10.7071ZM10.0555 12.5303C10.3483 12.8232 10.8232 12.8232 11.1161 12.5303C11.409 12.2374 11.409 11.7626 11.1161 11.4697L10.0555 12.5303ZM12 10V9.25V10ZM9.58579 9.25C9.17157 9.25 8.83579 9.58579 8.83579 10C8.83579 10.4142 9.17157 10.75 9.58579 10.75L9.58579 9.25ZM14 12H14.75H14ZM13.25 16C13.25 16.4142 13.5858 16.75 14 16.75C14.4142 16.75 14.75 16.4142 14.75 16H13.25ZM10.0555 7.46967L8.76256 8.76256L9.82322 9.82322L11.1161 8.53033L10.0555 7.46967ZM8.76256 11.2374L10.0555 12.5303L11.1161 11.4697L9.82322 10.1768L8.76256 11.2374ZM8.76256 8.76256C8.07914 9.44598 8.07915 10.554 8.76256 11.2374L9.82322 10.1768C9.72559 10.0791 9.72559 9.92085 9.82322 9.82322L8.76256 8.76256ZM12 9.25L9.58579 9.25L9.58579 10.75L12 10.75V9.25ZM13.25 12V16H14.75V12H13.25ZM12 10.75C12.6904 10.75 13.25 11.3096 13.25 12H14.75C14.75 10.4812 13.5188 9.25 12 9.25V10.75Z" fill="#28303F"/>
</svg>
