<svg width="24" height="24" viewBox="0 0 24 24" fill="none" xmlns="http://www.w3.org/2000/svg">
<path d="M3.25394 15.0273L2.72361 15.5576H2.72361L3.25394 15.0273ZM3.25394 8.97272L3.78427 9.50305L3.25394 8.97272ZM15.0273 20.7461L15.5576 21.2764L15.0273 20.7461ZM8.97272 20.7461L9.50305 20.2157L8.97272 20.7461ZM20.7461 8.97272L20.2157 9.50305L20.7461 8.97272ZM20.7461 15.0273L20.2157 14.4969L20.7461 15.0273ZM15.0273 3.25394L15.5576 2.72361L15.0273 3.25394ZM8.97272 3.25394L8.44239 2.72361L8.97272 3.25394ZM14.4969 3.78427L20.2157 9.50305L21.2764 8.44239L15.5576 2.72361L14.4969 3.78427ZM20.2157 14.4969L14.4969 20.2157L15.5576 21.2764L21.2764 15.5576L20.2157 14.4969ZM9.50305 20.2157L3.78427 14.4969L2.72361 15.5576L8.44239 21.2764L9.50305 20.2157ZM3.78427 9.50305L9.50305 3.78427L8.44239 2.72361L2.72361 8.44239L3.78427 9.50305ZM3.78427 14.4969C2.40524 13.1179 2.40524 10.8821 3.78427 9.50305L2.72361 8.44239C0.758795 10.4072 0.758799 13.5928 2.72361 15.5576L3.78427 14.4969ZM14.4969 20.2157C13.1179 21.5948 10.8821 21.5948 9.50305 20.2157L8.44239 21.2764C10.4072 23.2412 13.5928 23.2412 15.5576 21.2764L14.4969 20.2157ZM20.2157 9.50305C21.5948 10.8821 21.5948 13.1179 20.2157 14.4969L21.2764 15.5576C23.2412 13.5928 23.2412 10.4072 21.2764 8.44239L20.2157 9.50305ZM15.5576 2.72361C13.5928 0.758795 10.4072 0.758799 8.44239 2.72361L9.50305 3.78427C10.8821 2.40524 13.1179 2.40524 14.4969 3.78427L15.5576 2.72361Z" fill="#28303F"/>
<path d="M15.9445 8.46967C15.6517 8.17678 15.1768 8.17678 14.8839 8.46967C14.591 8.76256 14.591 9.23744 14.8839 9.53033L15.9445 8.46967ZM16.7071 10.2929L16.1768 10.8232L16.7071 10.2929ZM16.7071 11.7071L16.1768 11.1768L16.7071 11.7071ZM14.8839 12.4697C14.591 12.7626 14.591 13.2374 14.8839 13.5303C15.1768 13.8232 15.6517 13.8232 15.9445 13.5303L14.8839 12.4697ZM14 11V11.75V11ZM16.4142 11.75C16.8284 11.75 17.1642 11.4142 17.1642 11C17.1642 10.5858 16.8284 10.25 16.4142 10.25V11.75ZM12 13H12.75H12ZM11.25 16C11.25 16.4142 11.5858 16.75 12 16.75C12.4142 16.75 12.75 16.4142 12.75 16H11.25ZM9.11612 9.53033C9.40901 9.23744 9.40901 8.76256 9.11612 8.46967C8.82322 8.17678 8.34835 8.17678 8.05546 8.46967L9.11612 9.53033ZM7.29289 10.2929L6.76256 9.76256H6.76256L7.29289 10.2929ZM7.29289 11.7071L7.82322 11.1768H7.82322L7.29289 11.7071ZM8.05546 13.5303C8.34835 13.8232 8.82322 13.8232 9.11612 13.5303C9.40901 13.2374 9.40901 12.7626 9.11612 12.4697L8.05546 13.5303ZM10 11V11.75V11ZM7.58579 10.25C7.17157 10.25 6.83579 10.5858 6.83579 11C6.83579 11.4142 7.17157 11.75 7.58579 11.75L7.58579 10.25ZM14.8839 9.53033L16.1768 10.8232L17.2374 9.76256L15.9445 8.46967L14.8839 9.53033ZM16.1768 11.1768L14.8839 12.4697L15.9445 13.5303L17.2374 12.2374L16.1768 11.1768ZM16.1768 10.8232C16.2744 10.9209 16.2744 11.0791 16.1768 11.1768L17.2374 12.2374C17.9209 11.554 17.9209 10.446 17.2374 9.76256L16.1768 10.8232ZM14 11.75L16.4142 11.75V10.25L14 10.25V11.75ZM11.25 13V16H12.75V13H11.25ZM14 10.25C12.4812 10.25 11.25 11.4812 11.25 13H12.75C12.75 12.3096 13.3096 11.75 14 11.75V10.25ZM8.05546 8.46967L6.76256 9.76256L7.82322 10.8232L9.11612 9.53033L8.05546 8.46967ZM6.76256 12.2374L8.05546 13.5303L9.11612 12.4697L7.82322 11.1768L6.76256 12.2374ZM6.76256 9.76256C6.07914 10.446 6.07915 11.554 6.76256 12.2374L7.82322 11.1768C7.72559 11.0791 7.72559 10.9209 7.82322 10.8232L6.76256 9.76256ZM10 10.25L7.58579 10.25L7.58579 11.75L10 11.75V10.25ZM10 11.75C10.6904 11.75 11.25 12.3096 11.25 13H12.75C12.75 11.4812 11.5188 10.25 10 10.25V11.75Z" fill="#28303F"/>
</svg>
