<svg width="24" height="24" viewBox="0 0 24 24" fill="none" xmlns="http://www.w3.org/2000/svg">
<path d="M3.25394 15.0273L2.72361 15.5576H2.72361L3.25394 15.0273ZM3.25394 8.97272L3.78427 9.50305L3.25394 8.97272ZM15.0273 20.7461L15.5576 21.2764L15.0273 20.7461ZM8.97272 20.7461L9.50305 20.2157L8.97272 20.7461ZM20.7461 8.97272L20.2157 9.50305L20.7461 8.97272ZM20.7461 15.0273L20.2157 14.4969L20.7461 15.0273ZM15.0273 3.25394L15.5576 2.72361L15.0273 3.25394ZM8.97272 3.25394L8.44239 2.72361L8.97272 3.25394ZM14.4969 3.78427L20.2157 9.50305L21.2764 8.44239L15.5576 2.72361L14.4969 3.78427ZM20.2157 14.4969L14.4969 20.2157L15.5576 21.2764L21.2764 15.5576L20.2157 14.4969ZM9.50305 20.2157L3.78427 14.4969L2.72361 15.5576L8.44239 21.2764L9.50305 20.2157ZM3.78427 9.50305L9.50305 3.78427L8.44239 2.72361L2.72361 8.44239L3.78427 9.50305ZM3.78427 14.4969C2.40524 13.1179 2.40524 10.8821 3.78427 9.50305L2.72361 8.44239C0.758795 10.4072 0.758799 13.5928 2.72361 15.5576L3.78427 14.4969ZM14.4969 20.2157C13.1179 21.5948 10.8821 21.5948 9.50305 20.2157L8.44239 21.2764C10.4072 23.2412 13.5928 23.2412 15.5576 21.2764L14.4969 20.2157ZM20.2157 9.50305C21.5948 10.8821 21.5948 13.1179 20.2157 14.4969L21.2764 15.5576C23.2412 13.5928 23.2412 10.4072 21.2764 8.44239L20.2157 9.50305ZM15.5576 2.72361C13.5928 0.758795 10.4072 0.758799 8.44239 2.72361L9.50305 3.78427C10.8821 2.40524 13.1179 2.40524 14.4969 3.78427L15.5576 2.72361Z" fill="#28303F"/>
<path d="M11.5303 12.9445C11.8232 12.6516 11.8232 12.1768 11.5303 11.8839C11.2374 11.591 10.7626 11.591 10.4697 11.8839L11.5303 12.9445ZM9.70711 13.7071L10.2374 14.2374H10.2374L9.70711 13.7071ZM8.29289 13.7071L8.82322 13.1768L8.82322 13.1768L8.29289 13.7071ZM7.53033 11.8839C7.23744 11.591 6.76256 11.591 6.46967 11.8839C6.17678 12.1768 6.17678 12.6516 6.46967 12.9445L7.53033 11.8839ZM8.25 13.4142C8.25 13.8284 8.58579 14.1642 9 14.1642C9.41421 14.1642 9.75 13.8284 9.75 13.4142H8.25ZM14.25 16C14.25 16.4142 14.5858 16.75 15 16.75C15.4142 16.75 15.75 16.4142 15.75 16H14.25ZM10.4697 11.8839L9.17678 13.1768L10.2374 14.2374L11.5303 12.9445L10.4697 11.8839ZM8.82322 13.1768L7.53033 11.8839L6.46967 12.9445L7.76256 14.2374L8.82322 13.1768ZM9.17678 13.1768C9.07915 13.2744 8.92085 13.2744 8.82322 13.1768L7.76256 14.2374C8.44598 14.9209 9.55402 14.9209 10.2374 14.2374L9.17678 13.1768ZM8.25 11V13.4142H9.75V11H8.25ZM14.25 11V16H15.75V11H14.25ZM12 8.75C13.2426 8.75 14.25 9.75736 14.25 11H15.75C15.75 8.92893 14.0711 7.25 12 7.25V8.75ZM9.75 11C9.75 9.75736 10.7574 8.75 12 8.75V7.25C9.92893 7.25 8.25 8.92893 8.25 11H9.75Z" fill="#28303F"/>
</svg>
