<svg width="24" height="24" viewBox="0 0 24 24" fill="none" xmlns="http://www.w3.org/2000/svg">
<path d="M3.25394 15.0273L2.72361 15.5576H2.72361L3.25394 15.0273ZM3.25394 8.97272L3.78427 9.50305L3.25394 8.97272ZM15.0273 20.7461L15.5576 21.2764L15.0273 20.7461ZM8.97272 20.7461L9.50305 20.2157L8.97272 20.7461ZM20.7461 8.97272L20.2157 9.50305L20.7461 8.97272ZM20.7461 15.0273L20.2157 14.4969L20.7461 15.0273ZM15.0273 3.25394L15.5576 2.72361L15.0273 3.25394ZM8.97272 3.25394L8.44239 2.72361L8.97272 3.25394ZM14.4969 3.78427L20.2157 9.50305L21.2764 8.44239L15.5576 2.72361L14.4969 3.78427ZM20.2157 14.4969L14.4969 20.2157L15.5576 21.2764L21.2764 15.5576L20.2157 14.4969ZM9.50305 20.2157L3.78427 14.4969L2.72361 15.5576L8.44239 21.2764L9.50305 20.2157ZM3.78427 9.50305L9.50305 3.78427L8.44239 2.72361L2.72361 8.44239L3.78427 9.50305ZM3.78427 14.4969C2.40524 13.1179 2.40524 10.8821 3.78427 9.50305L2.72361 8.44239C0.758795 10.4072 0.758799 13.5928 2.72361 15.5576L3.78427 14.4969ZM14.4969 20.2157C13.1179 21.5948 10.8821 21.5948 9.50305 20.2157L8.44239 21.2764C10.4072 23.2412 13.5928 23.2412 15.5576 21.2764L14.4969 20.2157ZM20.2157 9.50305C21.5948 10.8821 21.5948 13.1179 20.2157 14.4969L21.2764 15.5576C23.2412 13.5928 23.2412 10.4072 21.2764 8.44239L20.2157 9.50305ZM15.5576 2.72361C13.5928 0.758795 10.4072 0.758799 8.44239 2.72361L9.50305 3.78427C10.8821 2.40524 13.1179 2.40524 14.4969 3.78427L15.5576 2.72361Z" fill="#28303F"/>
<path d="M13.5303 11.8839C13.2374 11.591 12.7626 11.591 12.4697 11.8839C12.1768 12.1768 12.1768 12.6516 12.4697 12.9445L13.5303 11.8839ZM14.2929 13.7071L13.7626 14.2374L14.2929 13.7071ZM15.7071 13.7071L15.1768 13.1768V13.1768L15.7071 13.7071ZM17.5303 12.9445C17.8232 12.6516 17.8232 12.1768 17.5303 11.8839C17.2374 11.591 16.7626 11.591 16.4697 11.8839L17.5303 12.9445ZM14.25 13.4142C14.25 13.8284 14.5858 14.1642 15 14.1642C15.4142 14.1642 15.75 13.8284 15.75 13.4142H14.25ZM8.25 16C8.25 16.4142 8.58579 16.75 9 16.75C9.41421 16.75 9.75 16.4142 9.75 16H8.25ZM12.4697 12.9445L13.7626 14.2374L14.8232 13.1768L13.5303 11.8839L12.4697 12.9445ZM16.2374 14.2374L17.5303 12.9445L16.4697 11.8839L15.1768 13.1768L16.2374 14.2374ZM13.7626 14.2374C14.446 14.9209 15.554 14.9209 16.2374 14.2374L15.1768 13.1768C15.0791 13.2744 14.9209 13.2744 14.8232 13.1768L13.7626 14.2374ZM14.25 11V13.4142H15.75V11H14.25ZM8.25 11V16H9.75V11H8.25ZM12 7.25C9.92893 7.25 8.25 8.92893 8.25 11H9.75C9.75 9.75736 10.7574 8.75 12 8.75V7.25ZM15.75 11C15.75 8.92893 14.0711 7.25 12 7.25V8.75C13.2426 8.75 14.25 9.75736 14.25 11H15.75Z" fill="#28303F"/>
</svg>
