<svg width="24" height="24" viewBox="0 0 24 24" fill="none" xmlns="http://www.w3.org/2000/svg">
<path fill-rule="evenodd" clip-rule="evenodd" d="M7.49703 2.68736C7.87655 2.5214 8.04967 2.07921 7.88371 1.6997C7.71775 1.32018 7.27556 1.14706 6.89604 1.31302C4.63929 2.29988 2.72442 3.92041 1.37541 5.94934C1.14607 6.29427 1.23977 6.75981 1.5847 6.98915C1.92963 7.21849 2.39517 7.12478 2.62451 6.77986C3.81575 4.98821 5.50668 3.55772 7.49703 2.68736ZM17.1039 1.31302C16.7244 1.14706 16.2822 1.32018 16.1162 1.6997C15.9503 2.07921 16.1234 2.5214 16.5029 2.68736C18.4932 3.55772 20.1842 4.98821 21.3754 6.77985C21.6047 7.12478 22.0703 7.21849 22.4152 6.98915C22.7601 6.75981 22.8538 6.29427 22.6245 5.94934C21.2755 3.92041 19.3606 2.29988 17.1039 1.31302ZM18.9916 18.6681C20.2475 17.1207 21.0001 15.1484 21.0001 13.0002C21.0001 8.02968 16.9707 4.00024 12.0001 4.00024C7.02956 4.00024 3.00012 8.02968 3.00012 13.0002C3.00012 15.1484 3.75269 17.1207 5.00856 18.668L3.34594 21.6333C3.14337 21.9946 3.27204 22.4518 3.63334 22.6543C3.99464 22.8569 4.45175 22.7282 4.65432 22.3669L6.09693 19.794C7.67715 21.1682 9.74147 22.0002 12.0001 22.0002C14.2587 22.0002 16.323 21.1682 17.9033 19.794L19.346 22.3669C19.5485 22.7282 20.0056 22.8569 20.3669 22.6543C20.7282 22.4517 20.8569 21.9946 20.6543 21.6333L18.9916 18.6681ZM15.4938 10.4358C15.8055 10.7086 15.8371 11.1824 15.5643 11.4941L12.6944 14.774C12.0777 15.4788 11.0155 15.5732 10.2842 14.9882L8.53138 13.5859C8.20794 13.3271 8.1555 12.8552 8.41425 12.5317C8.67301 12.2083 9.14498 12.1558 9.46843 12.4146L11.2212 13.8169C11.3257 13.9004 11.4775 13.887 11.5656 13.7863L14.4355 10.5064C14.7082 10.1946 15.1821 10.1631 15.4938 10.4358Z" fill="#28303F"/>
</svg>
