<svg width="24" height="24" viewBox="0 0 24 24" fill="none" xmlns="http://www.w3.org/2000/svg">
<path fill-rule="evenodd" clip-rule="evenodd" d="M7.49715 2.68736C7.87667 2.5214 8.04979 2.07921 7.88383 1.6997C7.71787 1.32018 7.27568 1.14706 6.89617 1.31302C4.63941 2.29988 2.72454 3.92041 1.37553 5.94934C1.14619 6.29427 1.2399 6.75981 1.58482 6.98915C1.92975 7.21849 2.39529 7.12478 2.62463 6.77986C3.81588 4.98821 5.50681 3.55772 7.49715 2.68736ZM17.104 1.31302C16.7245 1.14706 16.2823 1.32018 16.1163 1.6997C15.9504 2.07921 16.1235 2.5214 16.503 2.68736C18.4934 3.55772 20.1843 4.98821 21.3755 6.77985C21.6049 7.12478 22.0704 7.21849 22.4153 6.98915C22.7603 6.75981 22.854 6.29427 22.6246 5.94934C21.2756 3.92041 19.3607 2.29988 17.104 1.31302ZM18.9916 18.6681C20.2475 17.1207 21.0001 15.1484 21.0001 13.0002C21.0001 8.02968 16.9707 4.00024 12.0001 4.00024C7.02956 4.00024 3.00012 8.02968 3.00012 13.0002C3.00012 15.1484 3.75269 17.1207 5.00856 18.668L3.34594 21.6333C3.14337 21.9946 3.27204 22.4518 3.63334 22.6543C3.99464 22.8569 4.45175 22.7282 4.65432 22.3669L6.09693 19.794C7.67715 21.1682 9.74147 22.0002 12.0001 22.0002C14.2587 22.0002 16.323 21.1682 17.9033 19.794L19.346 22.3669C19.5485 22.7282 20.0056 22.8569 20.3669 22.6543C20.7282 22.4517 20.8569 21.9946 20.6543 21.6333L18.9916 18.6681ZM14.6517 11.4091C14.9446 11.1162 14.9446 10.6413 14.6517 10.3484C14.3588 10.0556 13.8839 10.0556 13.591 10.3484L11.9999 11.9395L10.409 10.3486C10.1161 10.0557 9.64127 10.0557 9.34838 10.3486C9.05548 10.6415 9.05548 11.1164 9.34838 11.4093L10.9393 13.0002L9.34837 14.5911C9.05547 14.884 9.05547 15.3589 9.34837 15.6517C9.64126 15.9446 10.1161 15.9446 10.409 15.6517L11.9999 14.0608L13.591 15.6519C13.8839 15.9448 14.3588 15.9448 14.6517 15.6519C14.9446 15.359 14.9446 14.8841 14.6517 14.5913L13.0606 13.0002L14.6517 11.4091Z" fill="#28303F"/>
</svg>
