<svg width="24" height="24" viewBox="0 0 24 24" fill="none" xmlns="http://www.w3.org/2000/svg">
<path fill-rule="evenodd" clip-rule="evenodd" d="M7.49703 3.68736C7.87655 3.5214 8.04967 3.07921 7.88371 2.6997C7.71775 2.32018 7.27556 2.14706 6.89604 2.31302C4.63929 3.29988 2.72442 4.92041 1.37541 6.94934C1.14607 7.29427 1.23977 7.75981 1.5847 7.98915C1.92963 8.21849 2.39517 8.12478 2.62451 7.77986C3.81575 5.98821 5.50668 4.55772 7.49703 3.68736ZM17.1039 2.31302C16.7244 2.14706 16.2822 2.32018 16.1162 2.6997C15.9503 3.07921 16.1234 3.5214 16.5029 3.68736C18.4932 4.55772 20.1842 5.98821 21.3754 7.77985C21.6047 8.12478 22.0703 8.21849 22.4152 7.98915C22.7601 7.75981 22.8538 7.29427 22.6245 6.94934C21.2755 4.92041 19.3606 3.29988 17.1039 2.31302ZM18.9915 18.6681C20.2474 17.1207 21 15.1484 21 13.0002C21 8.02968 16.9706 4.00024 12 4.00024C7.02944 4.00024 3 8.02968 3 13.0002C3 15.1484 3.75257 17.1207 5.00843 18.668L3.34582 21.6333C3.14325 21.9946 3.27192 22.4518 3.63322 22.6543C3.99452 22.8569 4.45163 22.7282 4.6542 22.3669L6.0968 19.794C7.67703 21.1682 9.74135 22.0002 12 22.0002C14.2586 22.0002 16.3229 21.1682 17.9031 19.794L19.3458 22.3669C19.5484 22.7282 20.0055 22.8569 20.3668 22.6543C20.7281 22.4517 20.8568 21.9946 20.6542 21.6333L18.9915 18.6681ZM12 7.25024C12.4142 7.25024 12.75 7.58603 12.75 8.00024V12.5989L15.416 14.3762C15.7607 14.606 15.8538 15.0716 15.624 15.4163C15.3943 15.7609 14.9286 15.854 14.584 15.6243L11.584 13.6243C11.3753 13.4852 11.25 13.251 11.25 13.0002V8.00024C11.25 7.58603 11.5858 7.25024 12 7.25024Z" fill="#28303F"/>
</svg>
