<svg width="24" height="24" viewBox="0 0 24 24" fill="none" xmlns="http://www.w3.org/2000/svg">
<path fill-rule="evenodd" clip-rule="evenodd" d="M8.75 2C8.75 1.58579 8.41421 1.25 8 1.25C7.58579 1.25 7.25 1.58579 7.25 2V3.5H7C4.79086 3.5 3 5.29086 3 7.5V8.25H21V7.5C21 5.29086 19.2091 3.5 17 3.5H16.75V2C16.75 1.58579 16.4142 1.25 16 1.25C15.5858 1.25 15.25 1.58579 15.25 2V3.5H8.75V2ZM21 9.75H3V18C3 20.2091 4.79086 22 7 22H17C19.2091 22 21 20.2091 21 18V9.75ZM15 15.75C15.4142 15.75 15.75 15.4142 15.75 15C15.75 14.5858 15.4142 14.25 15 14.25H9C8.58579 14.25 8.25 14.5858 8.25 15C8.25 15.4142 8.58579 15.75 9 15.75H15Z" fill="#28303F"/>
</svg>
