<svg width="24" height="24" viewBox="0 0 24 24" fill="none" xmlns="http://www.w3.org/2000/svg">
<path fill-rule="evenodd" clip-rule="evenodd" d="M8.75 2C8.75 1.58579 8.41421 1.25 8 1.25C7.58579 1.25 7.25 1.58579 7.25 2V3.5H7C4.79086 3.5 3 5.29086 3 7.5V8.25H21V7.5C21 5.29086 19.2091 3.5 17 3.5H16.75V2C16.75 1.58579 16.4142 1.25 16 1.25C15.5858 1.25 15.25 1.58579 15.25 2V3.5H8.75V2ZM21 9.75H3V18C3 20.2091 4.79086 22 7 22H17C19.2091 22 21 20.2091 21 18V9.75ZM10.409 12.3483C10.1161 12.0554 9.64126 12.0554 9.34837 12.3483C9.05547 12.6412 9.05547 13.1161 9.34837 13.409L10.9393 15L9.34833 16.591C9.05544 16.8839 9.05544 17.3587 9.34833 17.6516C9.64123 17.9445 10.1161 17.9445 10.409 17.6516L12 16.0606L13.591 17.6516C13.8839 17.9445 14.3588 17.9445 14.6517 17.6516C14.9446 17.3587 14.9446 16.8839 14.6517 16.591L13.0607 15L14.6516 13.409C14.9445 13.1161 14.9445 12.6412 14.6516 12.3483C14.3587 12.0554 13.8839 12.0554 13.591 12.3483L12 13.9393L10.409 12.3483Z" fill="#28303F"/>
</svg>
