<svg width="24" height="24" viewBox="0 0 24 24" fill="none" xmlns="http://www.w3.org/2000/svg">
<path fill-rule="evenodd" clip-rule="evenodd" d="M8.00008 2C5.52794 2 4.11679 4.82229 5.60008 6.8L8.15008 10.2C8.95008 11.2667 8.95008 12.7333 8.15008 13.8L5.60008 17.2C4.11679 19.1777 5.52794 22 8.00008 22H16.0001C18.4722 22 19.8834 19.1777 18.4001 17.2L15.8501 13.8C15.0501 12.7333 15.0501 11.2667 15.8501 10.2L18.4001 6.8C19.8834 4.82229 18.4722 2 16.0001 2H8.00008ZM12.7809 14.9761C12.3806 14.4757 11.6195 14.4757 11.2192 14.9761L9.29983 17.3753C8.77602 18.0301 9.24219 19 10.0807 19H13.9195C14.758 19 15.2241 18.0301 14.7003 17.3753L12.7809 14.9761Z" fill="#28303F"/>
</svg>
