<svg width="24" height="24" viewBox="0 0 24 24" fill="none" xmlns="http://www.w3.org/2000/svg">
<path fill-rule="evenodd" clip-rule="evenodd" d="M16.0001 22C18.4722 22 19.8834 19.1777 18.4001 17.2L15.8501 13.8C15.0501 12.7333 15.0501 11.2667 15.8501 10.2L18.4001 6.8C19.8834 4.82229 18.4722 2 16.0001 2H8.00008C5.52794 2 4.1168 4.82229 5.60008 6.8L8.15008 10.2C8.95008 11.2667 8.95008 12.7333 8.15008 13.8L5.60008 17.2C4.11679 19.1777 5.52794 22 8.00008 22L16.0001 22ZM11.2192 9.02391C11.6195 9.52432 12.3806 9.52432 12.7809 9.02391L14.7003 6.62469C15.2241 5.96993 14.758 5 13.9195 5L10.0807 5C9.24219 5 8.77602 5.96993 9.29983 6.62469L11.2192 9.02391Z" fill="#28303F"/>
</svg>
