<svg width="24" height="24" viewBox="0 0 24 24" fill="none" xmlns="http://www.w3.org/2000/svg">
<path fill-rule="evenodd" clip-rule="evenodd" d="M9.20407 4.13575C10.092 3.88462 11.0296 3.75 11.9999 3.75C12.9703 3.75 13.9079 3.88462 14.7958 4.13575C15.1944 4.24849 15.6089 4.01676 15.7216 3.61818C15.8344 3.21961 15.6026 2.80511 15.2041 2.69238C14.1846 2.40405 13.1097 2.25 11.9999 2.25C10.8902 2.25 9.81525 2.40405 8.79583 2.69238C8.39725 2.80511 8.16553 3.21961 8.27826 3.61818C8.39099 4.01676 8.80549 4.24849 9.20407 4.13575ZM12 22C7.30558 22 3.5 18.1944 3.5 13.5C3.5 8.80558 7.30558 5 12 5C16.6944 5 20.5 8.80558 20.5 13.5C20.5 14.3701 20.3693 15.2096 20.1264 16H18C15.7909 16 14 17.7909 14 20V20.5H20.5C20.9142 20.5 21.25 20.8358 21.25 21.25C21.25 21.6642 20.9142 22 20.5 22H12.5C12.4612 22 12.4232 21.9971 12.386 21.9914C12.2581 21.9971 12.1294 22 12 22ZM12 8.25C12.4142 8.25 12.75 8.58579 12.75 9V12.7007C13.1984 12.96 13.5 13.4448 13.5 14C13.5 14.8284 12.8284 15.5 12 15.5C11.1716 15.5 10.5 14.8284 10.5 14C10.5 13.4448 10.8016 12.96 11.25 12.7007V9C11.25 8.58579 11.5858 8.25 12 8.25ZM16.25 18.25C16.25 17.8358 16.5858 17.5 17 17.5H20.5C20.9142 17.5 21.25 17.8358 21.25 18.25C21.25 18.6642 20.9142 19 20.5 19H17C16.5858 19 16.25 18.6642 16.25 18.25Z" fill="#28303F"/>
</svg>
