<svg width="24" height="24" viewBox="0 0 24 24" fill="none" xmlns="http://www.w3.org/2000/svg">
<path fill-rule="evenodd" clip-rule="evenodd" d="M11.9999 3.75C11.0296 3.75 10.092 3.88462 9.20407 4.13575C8.80549 4.24849 8.39099 4.01676 8.27826 3.61818C8.16553 3.21961 8.39725 2.80511 8.79583 2.69238C9.81525 2.40405 10.8902 2.25 11.9999 2.25C13.1097 2.25 14.1846 2.40405 15.2041 2.69238C15.6026 2.80511 15.8344 3.21961 15.7216 3.61818C15.6089 4.01676 15.1944 4.24849 14.7958 4.13575C13.9079 3.88462 12.9703 3.75 11.9999 3.75ZM12 22C7.30558 22 3.5 18.1944 3.5 13.5C3.5 8.80558 7.30558 5 12 5C16.6944 5 20.5 8.80558 20.5 13.5C20.5 14.3701 20.3693 15.2096 20.1264 16H18C15.7909 16 14 17.7909 14 20V21.7634C13.3586 21.9181 12.6889 22 12 22ZM12 8.25C12.4142 8.25 12.75 8.58579 12.75 9V12.7007C13.1984 12.96 13.5 13.4448 13.5 14C13.5 14.8284 12.8284 15.5 12 15.5C11.1716 15.5 10.5 14.8284 10.5 14C10.5 13.4448 10.8016 12.96 11.25 12.7007V9C11.25 8.58579 11.5858 8.25 12 8.25ZM19.9446 19.116C20.2375 18.8231 20.2375 18.3483 19.9446 18.0554C19.6517 17.7625 19.1768 17.7625 18.8839 18.0554L18 18.9392L17.1161 18.0554C16.8233 17.7625 16.3484 17.7625 16.0555 18.0554C15.7626 18.3483 15.7626 18.8231 16.0555 19.116L16.9394 19.9999L16.0555 20.8838C15.7626 21.1767 15.7626 21.6516 16.0555 21.9445C16.3484 22.2373 16.8233 22.2373 17.1161 21.9445L18 21.0606L18.8839 21.9445C19.1768 22.2373 19.6517 22.2373 19.9446 21.9445C20.2375 21.6516 20.2375 21.1767 19.9446 20.8838L19.0607 19.9999L19.9446 19.116Z" fill="#28303F"/>
</svg>
