<svg width="24" height="24" viewBox="0 0 24 24" fill="none" xmlns="http://www.w3.org/2000/svg">
<path fill-rule="evenodd" clip-rule="evenodd" d="M9.20412 4.13575C10.092 3.88462 11.0297 3.75 12 3.75C12.9703 3.75 13.908 3.88462 14.7959 4.13575C15.1945 4.24849 15.609 4.01676 15.7217 3.61818C15.8344 3.21961 15.6027 2.80511 15.2041 2.69238C14.1847 2.40405 13.1097 2.25 12 2.25C10.8903 2.25 9.81531 2.40405 8.79588 2.69238C8.3973 2.80511 8.16558 3.21961 8.27831 3.61818C8.39104 4.01676 8.80554 4.24849 9.20412 4.13575ZM20.5 13.5C20.5 18.1944 16.6944 22 12 22C7.30558 22 3.5 18.1944 3.5 13.5C3.5 8.80558 7.30558 5 12 5C16.6944 5 20.5 8.80558 20.5 13.5ZM12.75 9C12.75 8.58579 12.4142 8.25 12 8.25C11.5858 8.25 11.25 8.58579 11.25 9V12.7007C10.8016 12.96 10.5 13.4448 10.5 14C10.5 14.8284 11.1716 15.5 12 15.5C12.8284 15.5 13.5 14.8284 13.5 14C13.5 13.4448 13.1984 12.96 12.75 12.7007V9Z" fill="#28303F"/>
</svg>
