<svg width="24" height="24" viewBox="0 0 24 24" fill="none" xmlns="http://www.w3.org/2000/svg">
<path fill-rule="evenodd" clip-rule="evenodd" d="M11.9999 3.75C11.0296 3.75 10.092 3.88462 9.20407 4.13575C8.80549 4.24849 8.39099 4.01676 8.27826 3.61818C8.16553 3.21961 8.39725 2.80511 8.79583 2.69238C9.81525 2.40405 10.8902 2.25 11.9999 2.25C13.1097 2.25 14.1846 2.40405 15.2041 2.69238C15.6026 2.80511 15.8344 3.21961 15.7216 3.61818C15.6089 4.01676 15.1944 4.24849 14.7958 4.13575C13.9079 3.88462 12.9703 3.75 11.9999 3.75ZM18 17.25C18.4142 17.25 18.75 17.5858 18.75 18V19.25H20C20.4142 19.25 20.75 19.5858 20.75 20C20.75 20.4142 20.4142 20.75 20 20.75H18.75V22C18.75 22.4142 18.4142 22.75 18 22.75C17.5858 22.75 17.25 22.4142 17.25 22V20.75H16C15.5858 20.75 15.25 20.4142 15.25 20C15.25 19.5858 15.5858 19.25 16 19.25H17.25V18C17.25 17.5858 17.5858 17.25 18 17.25ZM3.5 13.5C3.5 18.1944 7.30558 22 12 22C12.6889 22 13.3586 21.9181 14 21.7634V20C14 17.7909 15.7909 16 18 16H20.1264C20.3693 15.2096 20.5 14.3701 20.5 13.5C20.5 8.80558 16.6944 5 12 5C7.30558 5 3.5 8.80558 3.5 13.5ZM12.75 9C12.75 8.58579 12.4142 8.25 12 8.25C11.5858 8.25 11.25 8.58579 11.25 9V12.7007C10.8016 12.96 10.5 13.4448 10.5 14C10.5 14.8284 11.1716 15.5 12 15.5C12.8284 15.5 13.5 14.8284 13.5 14C13.5 13.4448 13.1984 12.96 12.75 12.7007V9Z" fill="#28303F"/>
</svg>
