<svg width="24" height="24" viewBox="0 0 24 24" fill="none" xmlns="http://www.w3.org/2000/svg">
<path fill-rule="evenodd" clip-rule="evenodd" d="M11.9999 3.75C11.0296 3.75 10.092 3.88462 9.20407 4.13575C8.80549 4.24849 8.39099 4.01676 8.27826 3.61818C8.16553 3.21961 8.39725 2.80511 8.79583 2.69238C9.81525 2.40405 10.8902 2.25 11.9999 2.25C13.1097 2.25 14.1846 2.40405 15.2041 2.69238C15.6026 2.80511 15.8344 3.21961 15.7216 3.61818C15.6089 4.01676 15.1944 4.24849 14.7958 4.13575C13.9079 3.88462 12.9703 3.75 11.9999 3.75ZM12 22C7.30558 22 3.5 18.1944 3.5 13.5C3.5 8.80558 7.30558 5 12 5C16.6944 5 20.5 8.80558 20.5 13.5C20.5 14.3701 20.3693 15.2096 20.1264 16H18C15.7909 16 14 17.7909 14 20V21.7634C13.3586 21.9181 12.6889 22 12 22ZM12 8.25C12.4142 8.25 12.75 8.58579 12.75 9V12.7007C13.1984 12.96 13.5 13.4448 13.5 14C13.5 14.8284 12.8284 15.5 12 15.5C11.1716 15.5 10.5 14.8284 10.5 14C10.5 13.4448 10.8016 12.96 11.25 12.7007V9C11.25 8.58579 11.5858 8.25 12 8.25ZM20.592 18.4605C20.8463 18.1335 20.7874 17.6623 20.4605 17.408C20.1335 17.1537 19.6623 17.2126 19.408 17.5396L17.7343 19.6914C17.6452 19.806 17.4776 19.8209 17.3697 19.7238L16.5017 18.9426C16.1938 18.6655 15.7196 18.6904 15.4425 18.9983C15.1654 19.3062 15.1904 19.7804 15.4983 20.0575L16.3663 20.8387C17.1214 21.5183 18.2946 21.4143 18.9184 20.6124L20.592 18.4605Z" fill="#28303F"/>
</svg>
