<svg width="24" height="24" viewBox="0 0 24 24" fill="none" xmlns="http://www.w3.org/2000/svg">
<path fill-rule="evenodd" clip-rule="evenodd" d="M1.25 6C1.25 3.37665 3.37665 1.25 6 1.25H18C20.6234 1.25 22.75 3.37665 22.75 6V13C22.75 13.4142 22.4142 13.75 22 13.75C21.5858 13.75 21.25 13.4142 21.25 13V6C21.25 4.20507 19.7949 2.75 18 2.75H6C4.20507 2.75 2.75 4.20507 2.75 6V18C2.75 19.7949 4.20507 21.25 6 21.25H13C13.4142 21.25 13.75 21.5858 13.75 22C13.75 22.4142 13.4142 22.75 13 22.75H6C3.37665 22.75 1.25 20.6234 1.25 18V6ZM21.4939 16.4356C21.8056 16.7083 21.8372 17.1822 21.5645 17.4939L18.6946 20.7738C18.0779 21.4786 17.0156 21.5729 16.2843 20.9879L14.5315 19.5857C14.2081 19.3269 14.1556 18.8549 14.4144 18.5315C14.6731 18.208 15.1451 18.1556 15.4685 18.4144L17.2214 19.8166C17.3258 19.9002 17.4776 19.8867 17.5657 19.786L20.4356 16.5061C20.7084 16.1944 21.1822 16.1628 21.4939 16.4356ZM12 5.25C12.4142 5.25 12.75 5.58579 12.75 6V10.1454C13.483 10.4421 14 11.1607 14 12C14 13.1046 13.1046 14 12 14C11.7229 14 11.4589 13.9436 11.2189 13.8417L9.53033 15.5303C9.23744 15.8232 8.76256 15.8232 8.46967 15.5303C8.17678 15.2374 8.17678 14.7626 8.46967 14.4697L10.1583 12.7811C10.0564 12.5411 10 12.2771 10 12C10 11.1607 10.517 10.4421 11.25 10.1454V6C11.25 5.58579 11.5858 5.25 12 5.25Z" fill="#28303F"/>
</svg>
