<svg width="24" height="24" viewBox="0 0 24 24" fill="none" xmlns="http://www.w3.org/2000/svg">
<path fill-rule="evenodd" clip-rule="evenodd" d="M6 1.25C3.37665 1.25 1.25 3.37665 1.25 6V18C1.25 20.6234 3.37665 22.75 6 22.75H22C22.4142 22.75 22.75 22.4142 22.75 22C22.75 21.5858 22.4142 21.25 22 21.25H6C4.20507 21.25 2.75 19.7949 2.75 18V6C2.75 4.20507 4.20507 2.75 6 2.75H18C19.7949 2.75 21.25 4.20507 21.25 6V10C21.25 10.4142 21.5858 10.75 22 10.75C22.4142 10.75 22.75 10.4142 22.75 10V6C22.75 3.37665 20.6234 1.25 18 1.25H6ZM12 5.25C12.4142 5.25 12.75 5.58579 12.75 6V10.1454C13.483 10.4421 14 11.1607 14 12C14 13.1046 13.1046 14 12 14C11.7229 14 11.4589 13.9436 11.2189 13.8417L9.53033 15.5303C9.23744 15.8232 8.76256 15.8232 8.46967 15.5303C8.17678 15.2374 8.17678 14.7626 8.46967 14.4697L10.1583 12.7811C10.0564 12.5411 10 12.2771 10 12C10 11.1607 10.517 10.4421 11.25 10.1454V6C11.25 5.58579 11.5858 5.25 12 5.25ZM15.25 18C15.25 17.5858 15.5858 17.25 16 17.25H22C22.4142 17.25 22.75 17.5858 22.75 18C22.75 18.4142 22.4142 18.75 22 18.75H16C15.5858 18.75 15.25 18.4142 15.25 18ZM18 13.25C17.5858 13.25 17.25 13.5858 17.25 14C17.25 14.4142 17.5858 14.75 18 14.75H22C22.4142 14.75 22.75 14.4142 22.75 14C22.75 13.5858 22.4142 13.25 22 13.25H18Z" fill="#28303F"/>
</svg>
