<svg width="24" height="24" viewBox="0 0 24 24" fill="none" xmlns="http://www.w3.org/2000/svg">
<path fill-rule="evenodd" clip-rule="evenodd" d="M2.75359 12.2605C2.7512 12.174 2.75 12.0871 2.75 12C2.75 6.89137 6.89137 2.75 12 2.75C17.1086 2.75 21.25 6.89136 21.25 12C21.25 17.1086 17.1086 21.25 12 21.25C11.9129 21.25 11.826 21.2488 11.7395 21.2464C11.3254 21.235 10.9805 21.5614 10.9691 21.9754C10.9576 22.3895 11.284 22.7344 11.6981 22.7458C11.7984 22.7486 11.899 22.75 12 22.75C17.9371 22.75 22.75 17.9371 22.75 12C22.75 6.06294 17.9371 1.25 12 1.25C6.06294 1.25 1.25 6.06294 1.25 12C1.25 12.101 1.25139 12.2016 1.25416 12.3019C1.2656 12.716 1.61052 13.0424 2.02458 13.0309C2.43863 13.0195 2.76502 12.6746 2.75359 12.2605ZM2.38743 14.8667C2.77438 14.7189 3.20788 14.9128 3.35568 15.2997C3.41753 15.4616 3.4838 15.6214 3.55436 15.7788C3.72376 16.1568 3.55467 16.6006 3.17668 16.77C2.79869 16.9394 2.35494 16.7703 2.18554 16.3923C2.10347 16.2092 2.02638 16.0233 1.95442 15.835C1.80662 15.448 2.00049 15.0145 2.38743 14.8667ZM4.21802 18.3251C4.51896 18.0404 4.99365 18.0537 5.27827 18.3546C5.3972 18.4804 5.51962 18.6028 5.64537 18.7217C5.94632 19.0063 5.95955 19.481 5.67494 19.782C5.39032 20.0829 4.91563 20.0962 4.61469 19.8115C4.46868 19.6735 4.32654 19.5313 4.18846 19.3853C3.90384 19.0844 3.91708 18.6097 4.21802 18.3251ZM7.23004 20.8233C7.39944 20.4453 7.84319 20.2762 8.22118 20.4456C8.3786 20.5162 8.53835 20.5825 8.70028 20.6443C9.08722 20.7921 9.28109 21.2256 9.13329 21.6126C8.98549 21.9995 8.55199 22.1934 8.16504 22.0456C7.97666 21.9736 7.79082 21.8965 7.60771 21.8145C7.22972 21.6451 7.06063 21.2013 7.23004 20.8233ZM14 12C14 12.8393 13.483 13.5579 12.75 13.8546V16C12.75 16.4142 12.4142 16.75 12 16.75C11.5858 16.75 11.25 16.4142 11.25 16V13.8546C10.7487 13.6517 10.3483 13.2513 10.1454 12.75H6C5.58579 12.75 5.25 12.4142 5.25 12C5.25 11.5858 5.58579 11.25 6 11.25H10.1454C10.4421 10.517 11.1607 10 12 10C13.1046 10 14 10.8954 14 12Z" fill="#28303F"/>
</svg>
