<svg width="24" height="24" viewBox="0 0 24 24" fill="none" xmlns="http://www.w3.org/2000/svg">
<path fill-rule="evenodd" clip-rule="evenodd" d="M6 1.25C3.37665 1.25 1.25 3.37665 1.25 6V18C1.25 20.6234 3.37665 22.75 6 22.75H22C22.4142 22.75 22.75 22.4142 22.75 22C22.75 21.5858 22.4142 21.25 22 21.25H6C4.20507 21.25 2.75 19.7949 2.75 18V6C2.75 4.20507 4.20507 2.75 6 2.75H18C19.7949 2.75 21.25 4.20507 21.25 6V10.1893L20.5303 9.46967C20.2374 9.17678 19.7626 9.17678 19.4697 9.46967C19.1768 9.76256 19.1768 10.2374 19.4697 10.5303L21.4697 12.5303C21.6842 12.7448 22.0068 12.809 22.287 12.6929C22.5673 12.5768 22.75 12.3033 22.75 12V6C22.75 3.37665 20.6234 1.25 18 1.25H6ZM12 5.25C12.4142 5.25 12.75 5.58579 12.75 6V10.1454C13.483 10.4421 14 11.1607 14 12C14 13.1046 13.1046 14 12 14C11.7229 14 11.4589 13.9436 11.2189 13.8417L9.53033 15.5303C9.23744 15.8232 8.76256 15.8232 8.46967 15.5303C8.17678 15.2374 8.17678 14.7626 8.46967 14.4697L10.1583 12.7811C10.0564 12.5411 10 12.2771 10 12C10 11.1607 10.517 10.4421 11.25 10.1454V6C11.25 5.58579 11.5858 5.25 12 5.25Z" fill="#28303F"/>
</svg>
