<svg width="24" height="24" viewBox="0 0 24 24" fill="none" xmlns="http://www.w3.org/2000/svg">
<path fill-rule="evenodd" clip-rule="evenodd" d="M6 1.25C3.37665 1.25 1.25 3.37665 1.25 6V18C1.25 20.6234 3.37665 22.75 6 22.75H8.88889C9.3031 22.75 9.63889 22.4142 9.63889 22C9.63889 21.5858 9.3031 21.25 8.88889 21.25H6C4.20508 21.25 2.75 19.7949 2.75 18V6C2.75 4.20507 4.20507 2.75 6 2.75H18C19.7949 2.75 21.25 4.20507 21.25 6V10.1893L20.5303 9.46967C20.2374 9.17678 19.7626 9.17678 19.4697 9.46967C19.1768 9.76256 19.1768 10.2374 19.4697 10.5303L21.4697 12.5303C21.6842 12.7448 22.0068 12.809 22.287 12.6929C22.5673 12.5768 22.75 12.3033 22.75 12V6C22.75 3.37665 20.6234 1.25 18 1.25H6ZM12.75 7C12.75 6.58579 12.4142 6.25 12 6.25C11.5857 6.25 11.25 6.58579 11.25 7V11.4594L8.76279 12.2885C8.36983 12.4195 8.15746 12.8442 8.28845 13.2372C8.41943 13.6301 8.84417 13.8425 9.23713 13.7115L12.2371 12.7115C12.5434 12.6094 12.75 12.3228 12.75 12V7ZM20 15.25C18.4812 15.25 17.25 16.4812 17.25 18V20C17.25 21.5188 18.4812 22.75 20 22.75C21.5188 22.75 22.75 21.5188 22.75 20V18C22.75 16.4812 21.5188 15.25 20 15.25ZM18.75 18C18.75 17.3096 19.3096 16.75 20 16.75C20.6904 16.75 21.25 17.3096 21.25 18V20C21.25 20.6904 20.6904 21.25 20 21.25C19.3096 21.25 18.75 20.6904 18.75 20V18ZM11.25 18C11.25 16.4812 12.4812 15.25 14 15.25H16C16.4142 15.25 16.75 15.5858 16.75 16C16.75 16.4142 16.4142 16.75 16 16.75H14C13.3096 16.75 12.75 17.3096 12.75 18V18.25H14.5C15.7426 18.25 16.75 19.2574 16.75 20.5C16.75 21.7426 15.7426 22.75 14.5 22.75H14C12.4812 22.75 11.25 21.5188 11.25 20V18ZM12.75 19.75V20C12.75 20.6904 13.3096 21.25 14 21.25H14.5C14.9142 21.25 15.25 20.9142 15.25 20.5C15.25 20.0858 14.9142 19.75 14.5 19.75H12.75Z" fill="#28303F"/>
</svg>
