<svg width="24" height="24" viewBox="0 0 24 24" fill="none" xmlns="http://www.w3.org/2000/svg">
<path fill-rule="evenodd" clip-rule="evenodd" d="M11.6981 1.25416C11.7984 1.25139 11.899 1.25 12 1.25C17.9371 1.25 22.75 6.06294 22.75 12C22.75 17.9371 17.9371 22.75 12 22.75C11.899 22.75 11.7984 22.7486 11.6981 22.7458C11.284 22.7344 10.9576 22.3895 10.9691 21.9754C10.9805 21.5614 11.3254 21.235 11.7395 21.2464C11.826 21.2488 11.9129 21.25 12 21.25C17.1086 21.25 21.25 17.1086 21.25 12C21.25 6.89137 17.1086 2.75 12 2.75C11.9129 2.75 11.826 2.7512 11.7395 2.75359C11.3254 2.76503 10.9805 2.43864 10.9691 2.02458C10.9576 1.61052 11.284 1.2656 11.6981 1.25416ZM9.13329 2.38743C9.28109 2.77438 9.08722 3.20788 8.70028 3.35568C8.53835 3.41753 8.3786 3.4838 8.22118 3.55436C7.84319 3.72376 7.39944 3.55467 7.23004 3.17668C7.06063 2.79869 7.22972 2.35494 7.60771 2.18554C7.79082 2.10348 7.97666 2.02638 8.16504 1.95442C8.55199 1.80662 8.98549 2.00049 9.13329 2.38743ZM5.67494 4.21802C5.95955 4.51896 5.94632 4.99365 5.64537 5.27827C5.51962 5.3972 5.3972 5.51962 5.27827 5.64537C4.99365 5.94632 4.51896 5.95955 4.21802 5.67494C3.91708 5.39032 3.90384 4.91563 4.18846 4.61469C4.32654 4.46868 4.46868 4.32654 4.61469 4.18846C4.91563 3.90384 5.39032 3.91708 5.67494 4.21802ZM3.17668 7.23004C3.55467 7.39944 3.72376 7.84319 3.55436 8.22118C3.4838 8.3786 3.41753 8.53835 3.35568 8.70028C3.20788 9.08722 2.77438 9.28109 2.38743 9.13329C2.00049 8.98549 1.80662 8.55199 1.95442 8.16504C2.02638 7.97666 2.10348 7.79082 2.18554 7.60771C2.35494 7.22973 2.79869 7.06063 3.17668 7.23004ZM2.02458 10.9691C2.43864 10.9805 2.76503 11.3254 2.75359 11.7395C2.7512 11.826 2.75 11.9129 2.75 12C2.75 12.0871 2.7512 12.174 2.75359 12.2605C2.76503 12.6746 2.43864 13.0195 2.02458 13.0309C1.61052 13.0424 1.2656 12.716 1.25416 12.3019C1.25139 12.2016 1.25 12.101 1.25 12C1.25 11.899 1.25139 11.7984 1.25416 11.6981C1.2656 11.284 1.61052 10.9576 2.02458 10.9691ZM2.38743 14.8667C2.77438 14.7189 3.20788 14.9128 3.35568 15.2997C3.41753 15.4616 3.4838 15.6214 3.55436 15.7788C3.72376 16.1568 3.55467 16.6006 3.17668 16.77C2.79869 16.9394 2.35494 16.7703 2.18554 16.3923C2.10348 16.2092 2.02638 16.0233 1.95442 15.835C1.80662 15.448 2.00049 15.0145 2.38743 14.8667ZM4.21802 18.3251C4.51896 18.0404 4.99365 18.0537 5.27827 18.3546C5.3972 18.4804 5.51962 18.6028 5.64537 18.7217C5.94632 19.0063 5.95955 19.481 5.67494 19.782C5.39032 20.0829 4.91563 20.0962 4.61469 19.8115C4.46868 19.6735 4.32654 19.5313 4.18846 19.3853C3.90384 19.0844 3.91708 18.6097 4.21802 18.3251ZM7.23004 20.8233C7.39944 20.4453 7.84319 20.2762 8.22118 20.4456C8.3786 20.5162 8.53835 20.5825 8.70028 20.6443C9.08722 20.7921 9.28109 21.2256 9.13329 21.6126C8.98549 21.9995 8.55199 22.1934 8.16504 22.0456C7.97666 21.9736 7.79082 21.8965 7.60771 21.8145C7.22973 21.6451 7.06063 21.2013 7.23004 20.8233ZM12 5.25C12.4142 5.25 12.75 5.58579 12.75 6V10.1454C13.483 10.4421 14 11.1607 14 12C14 12.8393 13.483 13.5579 12.75 13.8546V16C12.75 16.4142 12.4142 16.75 12 16.75C11.5858 16.75 11.25 16.4142 11.25 16V13.8546C10.517 13.5579 10 12.8393 10 12C10 11.1607 10.517 10.4421 11.25 10.1454V6C11.25 5.58579 11.5858 5.25 12 5.25Z" fill="#28303F"/>
</svg>
