<svg width="24" height="24" viewBox="0 0 24 24" fill="none" xmlns="http://www.w3.org/2000/svg">
<path fill-rule="evenodd" clip-rule="evenodd" d="M1.25 6C1.25 3.37665 3.37665 1.25 6 1.25H18C20.6234 1.25 22.75 3.37665 22.75 6V13C22.75 13.4142 22.4142 13.75 22 13.75C21.5858 13.75 21.25 13.4142 21.25 13V6C21.25 4.20507 19.7949 2.75 18 2.75H6C4.20507 2.75 2.75 4.20507 2.75 6V18C2.75 19.7949 4.20507 21.25 6 21.25H13C13.4142 21.25 13.75 21.5858 13.75 22C13.75 22.4142 13.4142 22.75 13 22.75H6C3.37665 22.75 1.25 20.6234 1.25 18V6ZM20.6516 15.3483C20.9445 15.6412 20.9445 16.1161 20.6516 16.409L19.0606 18L20.6516 19.591C20.9445 19.8839 20.9445 20.3588 20.6516 20.6517C20.3587 20.9446 19.8839 20.9446 19.591 20.6517L18 19.0607L16.409 20.6516C16.1161 20.9445 15.6412 20.9445 15.3483 20.6516C15.0554 20.3587 15.0554 19.8839 15.3483 19.591L16.9393 18L15.3483 16.409C15.0554 16.1161 15.0554 15.6413 15.3483 15.3484C15.6412 15.0555 16.1161 15.0555 16.409 15.3484L18 16.9393L19.591 15.3483C19.8839 15.0554 20.3587 15.0554 20.6516 15.3483ZM12 5.25C12.4142 5.25 12.75 5.58579 12.75 6V10.1454C13.483 10.4421 14 11.1607 14 12C14 13.1046 13.1046 14 12 14C11.7229 14 11.4589 13.9436 11.2189 13.8417L9.53033 15.5303C9.23744 15.8232 8.76256 15.8232 8.46967 15.5303C8.17678 15.2374 8.17678 14.7626 8.46967 14.4697L10.1583 12.7811C10.0564 12.5411 10 12.2771 10 12C10 11.1607 10.517 10.4421 11.25 10.1454V6C11.25 5.58579 11.5858 5.25 12 5.25Z" fill="#28303F"/>
</svg>
