<svg width="24" height="24" viewBox="0 0 24 24" fill="none" xmlns="http://www.w3.org/2000/svg">
<path fill-rule="evenodd" clip-rule="evenodd" d="M17 4V5.1254C15.5969 4.10314 13.8689 3.5 12 3.5C10.1311 3.5 8.40311 4.10314 7 5.1254V4C7 2.89543 7.89543 2 9 2H15C16.1046 2 17 2.89543 17 4ZM12 20.5C10.1311 20.5 8.40311 19.8969 7 18.8746V20C7 21.1046 7.89543 22 9 22H15C16.1046 22 17 21.1046 17 20V18.8746C15.5969 19.8969 13.8689 20.5 12 20.5ZM19 12C19 15.866 15.866 19 12 19C8.13401 19 5 15.866 5 12C5 8.13401 8.13401 5 12 5C15.866 5 19 8.13401 19 12ZM12 8.25C12.4143 8.25 12.75 8.58579 12.75 9V12C12.75 12.2841 12.5895 12.5438 12.3355 12.6708L10.3355 13.6708C9.96497 13.8561 9.51446 13.7059 9.32922 13.3354C9.14398 12.9649 9.29415 12.5144 9.66463 12.3292L11.25 11.5365V9C11.25 8.58579 11.5858 8.25 12 8.25Z" fill="#28303F"/>
</svg>
