<svg width="24" height="24" viewBox="0 0 24 24" fill="none" xmlns="http://www.w3.org/2000/svg">
<path d="M11.2191 11.0239L11.8048 10.5554L11.2191 11.0239ZM9.36501 8.70626L9.95066 8.23774V8.23774L9.36501 8.70626ZM11.716 6.46599L11.1857 6.99632L11.716 6.46599ZM12 6.75L11.4697 7.28033C11.7626 7.57322 12.2374 7.57322 12.5303 7.28033L12 6.75ZM12.284 6.46599L12.8143 6.99632V6.99632L12.284 6.46599ZM14.635 8.70626L15.2206 9.17478L14.635 8.70626ZM12.7809 11.0239L12.1952 10.5554L12.7809 11.0239ZM7.6 13.8L7 14.25H7L7.6 13.8ZM8.8 15.4L9.4 14.95L8.8 15.4ZM15.2 15.4L14.6 14.95L15.2 15.4ZM16.4 13.8L15.8 13.35L15.8 13.35L16.4 13.8ZM11.8048 10.5554L9.95066 8.23774L8.77936 9.17478L10.6335 11.4924L11.8048 10.5554ZM9.75 7.6657V7.59099H8.25V7.6657H9.75ZM11.1857 6.99632L11.4697 7.28033L12.5303 6.21967L12.2463 5.93566L11.1857 6.99632ZM12.5303 7.28033L12.8143 6.99632L11.7537 5.93566L11.4697 6.21967L12.5303 7.28033ZM14.25 7.59099V7.6657H15.75V7.59099H14.25ZM14.0493 8.23774L12.1952 10.5554L13.3665 11.4924L15.2206 9.17478L14.0493 8.23774ZM14.25 7.6657C14.25 7.87363 14.1792 8.07537 14.0493 8.23774L15.2206 9.17478C15.5633 8.74644 15.75 8.21424 15.75 7.6657H14.25ZM13.409 6.75C13.8735 6.75 14.25 7.12652 14.25 7.59099H15.75C15.75 6.2981 14.7019 5.25 13.409 5.25V6.75ZM10.591 6.75C10.814 6.75 11.0279 6.8386 11.1857 6.99632L12.2463 5.93566C11.8073 5.49664 11.2119 5.25 10.591 5.25V6.75ZM9.75 7.59099C9.75 7.12652 10.1265 6.75 10.591 6.75V5.25C9.2981 5.25 8.25 6.2981 8.25 7.59099H9.75ZM9.95066 8.23774C9.82077 8.07537 9.75 7.87363 9.75 7.6657H8.25C8.25 8.21424 8.43669 8.74645 8.77936 9.17478L9.95066 8.23774ZM12.8143 6.99632C12.9721 6.8386 13.186 6.75 13.409 6.75V5.25C12.7881 5.25 12.1927 5.49664 11.7537 5.93566L12.8143 6.99632ZM10.6335 11.4924C11.3341 12.3681 12.666 12.3681 13.3665 11.4924L12.1952 10.5554C12.0951 10.6805 11.9049 10.6805 11.8048 10.5554L10.6335 11.4924ZM21.25 16V19H22.75V16H21.25ZM19 21.25H5V22.75H19V21.25ZM2.75 19V16H1.25V19H2.75ZM5 13.75H6V12.25H5V13.75ZM7 14.25L8.2 15.85L9.4 14.95L8.2 13.35L7 14.25ZM18 13.75H19V12.25H18V13.75ZM15.8 15.85L17 14.25L15.8 13.35L14.6 14.95L15.8 15.85ZM12 17.75C13.4951 17.75 14.9029 17.0461 15.8 15.85L14.6 14.95C13.9862 15.7684 13.023 16.25 12 16.25V17.75ZM18 12.25C17.1344 12.25 16.3194 12.6575 15.8 13.35L17 14.25C17.2361 13.9352 17.6066 13.75 18 13.75V12.25ZM8.2 15.85C9.09706 17.0461 10.5049 17.75 12 17.75V16.25C10.977 16.25 10.0138 15.7684 9.4 14.95L8.2 15.85ZM6 13.75C6.39345 13.75 6.76393 13.9352 7 14.25L8.2 13.35C7.68065 12.6575 6.86558 12.25 6 12.25V13.75ZM5 21.25C3.75736 21.25 2.75 20.2426 2.75 19H1.25C1.25 21.0711 2.92893 22.75 5 22.75V21.25ZM21.25 19C21.25 20.2426 20.2426 21.25 19 21.25V22.75C21.0711 22.75 22.75 21.0711 22.75 19H21.25ZM22.75 16C22.75 13.9289 21.0711 12.25 19 12.25V13.75C20.2426 13.75 21.25 14.7574 21.25 16H22.75ZM2.75 16C2.75 14.7574 3.75736 13.75 5 13.75V12.25C2.92893 12.25 1.25 13.9289 1.25 16H2.75ZM20.75 13V6H19.25V13H20.75ZM16 1.25H8V2.75H16V1.25ZM3.25 6V13H4.75V6H3.25ZM8 1.25C5.37665 1.25 3.25 3.37665 3.25 6H4.75C4.75 4.20507 6.20507 2.75 8 2.75V1.25ZM20.75 6C20.75 3.37665 18.6234 1.25 16 1.25V2.75C17.7949 2.75 19.25 4.20507 19.25 6H20.75Z" fill="#28303F"/>
</svg>
