<svg width="24" height="24" viewBox="0 0 24 24" fill="none" xmlns="http://www.w3.org/2000/svg">
<path d="M14.6517 7.40902C14.9446 7.11613 14.9446 6.64126 14.6517 6.34836C14.3588 6.05547 13.8839 6.05547 13.591 6.34836L14.6517 7.40902ZM9.34837 10.591C9.05547 10.8839 9.05547 11.3588 9.34837 11.6517C9.64126 11.9446 10.1161 11.9446 10.409 11.6517L9.34837 10.591ZM13.591 11.6517C13.8839 11.9446 14.3588 11.9446 14.6517 11.6517C14.9446 11.3588 14.9446 10.8839 14.6517 10.591L13.591 11.6517ZM10.409 6.34837C10.1161 6.05547 9.64126 6.05547 9.34837 6.34837C9.05547 6.64126 9.05547 7.11613 9.34837 7.40903L10.409 6.34837ZM7.6 13.8L7 14.25H7L7.6 13.8ZM8.8 15.4L9.4 14.95L8.8 15.4ZM15.2 15.4L14.6 14.95L15.2 15.4ZM16.4 13.8L15.8 13.35L15.8 13.35L16.4 13.8ZM13.591 6.34836L9.34837 10.591L10.409 11.6517L14.6517 7.40902L13.591 6.34836ZM14.6517 10.591L10.409 6.34837L9.34837 7.40903L13.591 11.6517L14.6517 10.591ZM21.25 16V19H22.75V16H21.25ZM19 21.25H5V22.75H19V21.25ZM2.75 19V16H1.25V19H2.75ZM5 13.75H6V12.25H5V13.75ZM7 14.25L8.2 15.85L9.4 14.95L8.2 13.35L7 14.25ZM18 13.75H19V12.25H18V13.75ZM15.8 15.85L17 14.25L15.8 13.35L14.6 14.95L15.8 15.85ZM12 17.75C13.4951 17.75 14.9029 17.0461 15.8 15.85L14.6 14.95C13.9862 15.7684 13.023 16.25 12 16.25V17.75ZM18 12.25C17.1344 12.25 16.3194 12.6575 15.8 13.35L17 14.25C17.2361 13.9352 17.6066 13.75 18 13.75V12.25ZM8.2 15.85C9.09706 17.0461 10.5049 17.75 12 17.75V16.25C10.977 16.25 10.0138 15.7684 9.4 14.95L8.2 15.85ZM6 13.75C6.39345 13.75 6.76393 13.9352 7 14.25L8.2 13.35C7.68065 12.6575 6.86558 12.25 6 12.25V13.75ZM5 21.25C3.75736 21.25 2.75 20.2426 2.75 19H1.25C1.25 21.0711 2.92893 22.75 5 22.75V21.25ZM21.25 19C21.25 20.2426 20.2426 21.25 19 21.25V22.75C21.0711 22.75 22.75 21.0711 22.75 19H21.25ZM22.75 16C22.75 13.9289 21.0711 12.25 19 12.25V13.75C20.2426 13.75 21.25 14.7574 21.25 16H22.75ZM2.75 16C2.75 14.7574 3.75736 13.75 5 13.75V12.25C2.92893 12.25 1.25 13.9289 1.25 16H2.75ZM20.75 13V6H19.25V13H20.75ZM16 1.25H8V2.75H16V1.25ZM3.25 6V13H4.75V6H3.25ZM8 1.25C5.37665 1.25 3.25 3.37665 3.25 6H4.75C4.75 4.20507 6.20507 2.75 8 2.75V1.25ZM20.75 6C20.75 3.37665 18.6234 1.25 16 1.25V2.75C17.7949 2.75 19.25 4.20507 19.25 6H20.75Z" fill="#28303F"/>
</svg>
