<svg width="24" height="24" viewBox="0 0 24 24" fill="none" xmlns="http://www.w3.org/2000/svg">
<path d="M14.5305 7.8637C14.8233 7.57081 14.8233 7.09593 14.5305 6.80304C14.2376 6.51015 13.7627 6.51015 13.4698 6.80304L14.5305 7.8637ZM11.3335 4.6667L10.8031 4.13637L11.3335 4.6667ZM6.00012 10L6.53045 10.5304L6.00012 10ZM19.8638 13.197C20.1567 12.9041 20.1567 12.4293 19.8638 12.1364C19.5709 11.8435 19.096 11.8435 18.8031 12.1364L19.8638 13.197ZM13.4698 6.80304L8.13646 12.1364L9.19712 13.197L14.5305 7.8637L13.4698 6.80304ZM11.8638 15.8637L17.1971 10.5304L16.1365 9.46971L10.8031 14.803L11.8638 15.8637ZM10.8031 4.13637L5.46979 9.46971L6.53045 10.5304L11.8638 5.19703L10.8031 4.13637ZM14.5305 18.5304L19.8638 13.197L18.8031 12.1364L13.4698 17.4697L14.5305 18.5304ZM5.46979 18.5304C7.97182 21.0324 12.0284 21.0324 14.5305 18.5304L13.4698 17.4697C11.5535 19.386 8.44669 19.386 6.53045 17.4697L5.46979 18.5304ZM5.46979 9.46971C2.96775 11.9717 2.96776 16.0283 5.46979 18.5304L6.53045 17.4697C4.6142 15.5535 4.6142 12.4466 6.53045 10.5304L5.46979 9.46971ZM17.1971 4.13637C15.4315 2.37072 12.5688 2.37072 10.8031 4.13637L11.8638 5.19703C13.0436 4.01717 14.9566 4.01717 16.1365 5.19703L17.1971 4.13637ZM17.1971 10.5304C18.9628 8.76471 18.9628 5.90203 17.1971 4.13637L16.1365 5.19703C17.3163 6.3769 17.3163 8.28984 16.1365 9.46971L17.1971 10.5304ZM8.13646 15.8637C9.16573 16.893 10.8345 16.893 11.8638 15.8637L10.8031 14.803C10.3596 15.2465 9.6406 15.2465 9.19712 14.803L8.13646 15.8637ZM8.13646 12.1364C7.10718 13.1657 7.10718 14.8344 8.13646 15.8637L9.19712 14.803C8.75363 14.3596 8.75363 13.6405 9.19712 13.197L8.13646 12.1364Z" fill="#28303F"/>
</svg>
