<svg width="24" height="24" viewBox="0 0 24 24" fill="none" xmlns="http://www.w3.org/2000/svg">
<path d="M3 18H2.25H3ZM3 6H3.75H3ZM7 2V1.25V2ZM17 2V1.25V2ZM21 6H20.25H21ZM21 12.3431H21.75H21ZM11.3431 22V21.25V22ZM7 22V22.75V22ZM19.8284 15.1716L19.2981 14.6412V14.6412L19.8284 15.1716ZM14.1716 20.8284L14.7019 21.3588L14.1716 20.8284ZM13 18H13.75H13ZM17 14V13.25V14ZM11.2191 11.0239L11.8048 10.5554L11.2191 11.0239ZM9.36501 8.70626L9.95066 8.23774L9.95066 8.23774L9.36501 8.70626ZM11.716 6.46599L11.1857 6.99632V6.99632L11.716 6.46599ZM12 6.75L11.4697 7.28033C11.6103 7.42098 11.8011 7.5 12 7.5C12.1989 7.5 12.3897 7.42098 12.5303 7.28033L12 6.75ZM12.284 6.46599L11.7537 5.93566L11.7537 5.93566L12.284 6.46599ZM14.635 8.70626L15.2206 9.17478L14.635 8.70626ZM12.7809 11.0239L12.1952 10.5554L12.7809 11.0239ZM3.75 18L3.75 6H2.25L2.25 18H3.75ZM7 2.75L17 2.75V1.25L7 1.25V2.75ZM20.25 6V12.3431H21.75V6H20.25ZM11.3431 21.25H7V22.75H11.3431V21.25ZM19.2981 14.6412L13.6412 20.2981L14.7019 21.3588L20.3588 15.7019L19.2981 14.6412ZM11.3431 22.75C12.6029 22.75 13.8111 22.2496 14.7019 21.3588L13.6412 20.2981C13.0317 20.9076 12.2051 21.25 11.3431 21.25V22.75ZM20.25 12.3431C20.25 13.2051 19.9076 14.0318 19.2981 14.6412L20.3588 15.7019C21.2496 14.8111 21.75 13.6029 21.75 12.3431H20.25ZM3.75 6C3.75 4.20507 5.20508 2.75 7 2.75V1.25C4.37665 1.25 2.25 3.37665 2.25 6H3.75ZM2.25 18C2.25 20.6234 4.37665 22.75 7 22.75V21.25C5.20507 21.25 3.75 19.7949 3.75 18H2.25ZM17 2.75C18.7949 2.75 20.25 4.20508 20.25 6H21.75C21.75 3.37665 19.6234 1.25 17 1.25V2.75ZM13.75 22L13.75 18H12.25L12.25 22H13.75ZM17 14.75L21 14.75V13.25L17 13.25V14.75ZM13.75 18C13.75 16.2051 15.2051 14.75 17 14.75V13.25C14.3766 13.25 12.25 15.3766 12.25 18H13.75ZM11.8048 10.5554L9.95066 8.23774L8.77936 9.17478L10.6335 11.4924L11.8048 10.5554ZM9.75 7.6657V7.59099H8.25V7.6657H9.75ZM11.1857 6.99632L11.4697 7.28033L12.5303 6.21967L12.2463 5.93566L11.1857 6.99632ZM12.5303 7.28033L12.8143 6.99632L11.7537 5.93566L11.4697 6.21967L12.5303 7.28033ZM14.25 7.59099V7.6657H15.75V7.59099H14.25ZM14.0493 8.23774L12.1952 10.5554L13.3665 11.4924L15.2206 9.17478L14.0493 8.23774ZM14.25 7.6657C14.25 7.87363 14.1792 8.07537 14.0493 8.23774L15.2206 9.17478C15.5633 8.74645 15.75 8.21424 15.75 7.6657H14.25ZM13.409 6.75C13.8735 6.75 14.25 7.12652 14.25 7.59099H15.75C15.75 6.2981 14.7019 5.25 13.409 5.25V6.75ZM10.591 6.75C10.814 6.75 11.0279 6.8386 11.1857 6.99632L12.2463 5.93566C11.8073 5.49664 11.2119 5.25 10.591 5.25V6.75ZM9.75 7.59099C9.75 7.12652 10.1265 6.75 10.591 6.75V5.25C9.2981 5.25 8.25 6.2981 8.25 7.59099H9.75ZM9.95066 8.23774C9.82077 8.07537 9.75 7.87363 9.75 7.6657H8.25C8.25 8.21424 8.43669 8.74645 8.77936 9.17478L9.95066 8.23774ZM12.8143 6.99632C12.9721 6.8386 13.186 6.75 13.409 6.75V5.25C12.7881 5.25 12.1927 5.49664 11.7537 5.93566L12.8143 6.99632ZM10.6335 11.4924C11.334 12.3681 12.666 12.3681 13.3665 11.4924L12.1952 10.5554C12.0951 10.6805 11.9049 10.6805 11.8048 10.5554L10.6335 11.4924Z" fill="#28303F"/>
</svg>
