<svg width="24" height="24" viewBox="0 0 24 24" fill="none" xmlns="http://www.w3.org/2000/svg">
<path d="M21.8766 18.9899L22.6034 19.1749H22.6034L21.8766 18.9899ZM9.87657 18.9899L10.6034 19.1749L9.87657 18.9899ZM6.46967 9.46967C6.17678 9.76256 6.17678 10.2374 6.46967 10.5303C6.76256 10.8232 7.23744 10.8232 7.53033 10.5303L6.46967 9.46967ZM11.4142 8.41421L10.8839 8.94454H10.8839L11.4142 8.41421ZM12.4697 10.5303C12.7626 10.8232 13.2374 10.8232 13.5303 10.5303C13.8232 10.2374 13.8232 9.76256 13.5303 9.46967L12.4697 10.5303ZM10.75 8C10.75 7.58579 10.4142 7.25 10 7.25C9.58579 7.25 9.25 7.58579 9.25 8H10.75ZM9.25 13C9.25 13.4142 9.58579 13.75 10 13.75C10.4142 13.75 10.75 13.4142 10.75 13H9.25ZM21.1498 18.8048C20.7918 20.2109 19.5163 21.25 18 21.25V22.75C20.2187 22.75 22.0803 21.2296 22.6034 19.1749L21.1498 18.8048ZM9.14976 18.8048C8.7918 20.2109 7.51631 21.25 6 21.25V22.75C8.21866 22.75 10.0803 21.2296 10.6034 19.1749L9.14976 18.8048ZM1.25 18C1.25 20.6234 3.37665 22.75 6 22.75V21.25C4.20507 21.25 2.75 19.7949 2.75 18H1.25ZM18 21.25H6V22.75H18V21.25ZM2.75 18V5H1.25V18H2.75ZM5 2.75H15V1.25H5V2.75ZM11 18.75H18V17.25H11V18.75ZM18 18.75H21V17.25H18V18.75ZM17.25 5V18H18.75V5H17.25ZM15 2.75C16.2426 2.75 17.25 3.75736 17.25 5H18.75C18.75 2.92893 17.0711 1.25 15 1.25V2.75ZM10.6034 19.1749C10.6384 19.0376 10.7105 18.92 10.7921 18.8443C10.8697 18.7724 10.9403 18.75 11 18.75V17.25C10.0011 17.25 9.34202 18.0496 9.14976 18.8048L10.6034 19.1749ZM2.75 5C2.75 3.75736 3.75736 2.75 5 2.75V1.25C2.92893 1.25 1.25 2.92893 1.25 5H2.75ZM22.6034 19.1749C22.8937 18.0344 21.8968 17.25 21 17.25V18.75C21.0741 18.75 21.1255 18.7815 21.1461 18.8037C21.1547 18.8131 21.1537 18.8158 21.152 18.8096C21.1496 18.8011 21.1517 18.7971 21.1498 18.8048L22.6034 19.1749ZM7.53033 10.5303L9.11612 8.94454L8.05546 7.88388L6.46967 9.46967L7.53033 10.5303ZM10.8839 8.94454L12.4697 10.5303L13.5303 9.46967L11.9445 7.88388L10.8839 8.94454ZM9.25 8V13H10.75V8H9.25ZM9.11612 8.94454C9.60427 8.45639 10.3957 8.45639 10.8839 8.94454L11.9445 7.88388C10.8706 6.80994 9.1294 6.80994 8.05546 7.88388L9.11612 8.94454Z" fill="#28303F"/>
</svg>
