<svg width="24" height="24" viewBox="0 0 24 24" fill="none" xmlns="http://www.w3.org/2000/svg">
<path d="M6 6.25C5.58579 6.25 5.25 6.58579 5.25 7C5.25 7.41421 5.58579 7.75 6 7.75V6.25ZM14 7.75C14.4142 7.75 14.75 7.41421 14.75 7C14.75 6.58579 14.4142 6.25 14 6.25V7.75ZM6 11.25C5.58579 11.25 5.25 11.5858 5.25 12C5.25 12.4142 5.58579 12.75 6 12.75V11.25ZM14 12.75C14.4142 12.75 14.75 12.4142 14.75 12C14.75 11.5858 14.4142 11.25 14 11.25V12.75ZM6 16.25C5.58579 16.25 5.25 16.5858 5.25 17C5.25 17.4142 5.58579 17.75 6 17.75V16.25ZM10 17.75C10.4142 17.75 10.75 17.4142 10.75 17C10.75 16.5858 10.4142 16.25 10 16.25V17.75ZM5 2.75H15V1.25H5V2.75ZM20 21.25H5V22.75H20V21.25ZM2.75 19V5H1.25V19H2.75ZM18 8.75H20V7.25H18V8.75ZM21.25 10V20H22.75V10H21.25ZM18.75 20V8H17.25V20H18.75ZM20 21.25C19.3096 21.25 18.75 20.6904 18.75 20H17.25C17.25 21.5188 18.4812 22.75 20 22.75V21.25ZM21.25 20C21.25 20.6904 20.6904 21.25 20 21.25V22.75C21.5188 22.75 22.75 21.5188 22.75 20H21.25ZM17.25 5V8H18.75V5H17.25ZM5 21.25C3.75736 21.25 2.75 20.2426 2.75 19H1.25C1.25 21.0711 2.92893 22.75 5 22.75V21.25ZM15 2.75C16.2426 2.75 17.25 3.75736 17.25 5H18.75C18.75 2.92893 17.0711 1.25 15 1.25V2.75ZM20 8.75C20.6904 8.75 21.25 9.30964 21.25 10H22.75C22.75 8.48122 21.5188 7.25 20 7.25V8.75ZM5 1.25C2.92893 1.25 1.25 2.92893 1.25 5H2.75C2.75 3.75736 3.75736 2.75 5 2.75V1.25ZM6 7.75H14V6.25H6V7.75ZM6 12.75H14V11.25H6V12.75ZM6 17.75H10V16.25H6V17.75Z" fill="#28303F"/>
</svg>
