<svg width="24" height="24" viewBox="0 0 24 24" fill="none" xmlns="http://www.w3.org/2000/svg">
<path d="M21.8766 18.9899L22.6034 19.1749H22.6034L21.8766 18.9899ZM9.87657 18.9899L10.6034 19.1749L9.87657 18.9899ZM6.46967 12.4697C6.17678 12.7626 6.17678 13.2374 6.46967 13.5303C6.76256 13.8232 7.23744 13.8232 7.53033 13.5303L6.46967 12.4697ZM9.03033 12.0303C9.32322 11.7374 9.32322 11.2626 9.03033 10.9697C8.73744 10.6768 8.26256 10.6768 7.96967 10.9697L9.03033 12.0303ZM21.1498 18.8048C20.7918 20.2109 19.5163 21.25 18 21.25V22.75C20.2187 22.75 22.0803 21.2296 22.6034 19.1749L21.1498 18.8048ZM9.14976 18.8048C8.7918 20.2109 7.51631 21.25 6 21.25V22.75C8.21866 22.75 10.0803 21.2296 10.6034 19.1749L9.14976 18.8048ZM1.25 18C1.25 20.6234 3.37665 22.75 6 22.75V21.25C4.20507 21.25 2.75 19.7949 2.75 18H1.25ZM18 21.25H6V22.75H18V21.25ZM2.75 18V5H1.25V18H2.75ZM5 2.75H15V1.25H5V2.75ZM11 18.75H18V17.25H11V18.75ZM18 18.75H21V17.25H18V18.75ZM17.25 5V18H18.75V5H17.25ZM15 2.75C16.2426 2.75 17.25 3.75736 17.25 5H18.75C18.75 2.92893 17.0711 1.25 15 1.25V2.75ZM10.6034 19.1749C10.6384 19.0376 10.7105 18.92 10.7921 18.8443C10.8697 18.7724 10.9403 18.75 11 18.75V17.25C10.0011 17.25 9.34202 18.0496 9.14976 18.8048L10.6034 19.1749ZM2.75 5C2.75 3.75736 3.75736 2.75 5 2.75V1.25C2.92893 1.25 1.25 2.92893 1.25 5H2.75ZM22.6034 19.1749C22.8937 18.0344 21.8968 17.25 21 17.25V18.75C21.0741 18.75 21.1255 18.7815 21.1461 18.8037C21.1547 18.8131 21.1537 18.8158 21.152 18.8096C21.1496 18.8011 21.1517 18.7971 21.1498 18.8048L22.6034 19.1749ZM12.25 9.5C12.25 10.4665 11.4665 11.25 10.5 11.25V12.75C12.2949 12.75 13.75 11.2949 13.75 9.5H12.25ZM10.5 11.25C9.5335 11.25 8.75 10.4665 8.75 9.5H7.25C7.25 11.2949 8.70507 12.75 10.5 12.75V11.25ZM8.75 9.5C8.75 8.5335 9.5335 7.75 10.5 7.75V6.25C8.70507 6.25 7.25 7.70507 7.25 9.5H8.75ZM10.5 7.75C11.4665 7.75 12.25 8.5335 12.25 9.5H13.75C13.75 7.70507 12.2949 6.25 10.5 6.25V7.75ZM7.53033 13.5303L9.03033 12.0303L7.96967 10.9697L6.46967 12.4697L7.53033 13.5303Z" fill="#28303F"/>
</svg>
