<svg width="24" height="24" viewBox="0 0 24 24" fill="none" xmlns="http://www.w3.org/2000/svg">
<path d="M7 10H7.75H7ZM11 6V5.25V6ZM17 6V6.75V6ZM21 10H20.25H21ZM21 14.3431H21.75H21ZM13.3431 22V21.25V22ZM11 22V22.75V22ZM19.8284 17.1716L19.2981 16.6412V16.6412L19.8284 17.1716ZM16.1716 20.8284L15.6412 20.2981H15.6412L16.1716 20.8284ZM3 14H2.25H3ZM3 6H2.25H3ZM13 2V1.25V2ZM15 20H14.25H15ZM19 16V16.75V16ZM7.75 18L7.75 10H6.25L6.25 18H7.75ZM11 6.75L17 6.75V5.25L11 5.25V6.75ZM20.25 10V14.3431H21.75V10H20.25ZM13.3431 21.25H11V22.75H13.3431V21.25ZM19.2981 16.6412L15.6412 20.2981L16.7019 21.3588L20.3588 17.7019L19.2981 16.6412ZM13.3431 22.75C14.6029 22.75 15.8111 22.2496 16.7019 21.3588L15.6412 20.2981C15.0317 20.9076 14.2051 21.25 13.3431 21.25V22.75ZM20.25 14.3431C20.25 15.2051 19.9076 16.0317 19.2981 16.6412L20.3588 17.7019C21.2496 16.8111 21.75 15.6029 21.75 14.3431H20.25ZM7.75 10C7.75 8.20507 9.20508 6.75 11 6.75V5.25C8.37665 5.25 6.25 7.37665 6.25 10H7.75ZM6.25 18C6.25 20.6234 8.37665 22.75 11 22.75V21.25C9.20507 21.25 7.75 19.7949 7.75 18H6.25ZM17 6.75C18.7949 6.75 20.25 8.20507 20.25 10H21.75C21.75 7.37665 19.6234 5.25 17 5.25V6.75ZM3.75 14L3.75 6H2.25L2.25 14H3.75ZM7 2.75L13 2.75V1.25L7 1.25V2.75ZM3.75 6C3.75 4.20507 5.20508 2.75 7 2.75V1.25C4.37665 1.25 2.25 3.37665 2.25 6H3.75ZM2.25 14C2.25 16.6234 4.37665 18.75 7 18.75V17.25C5.20507 17.25 3.75 15.7949 3.75 14H2.25ZM13 2.75C14.7949 2.75 16.25 4.20508 16.25 6H17.75C17.75 3.37665 15.6234 1.25 13 1.25V2.75ZM15.75 22V20H14.25V22H15.75ZM19 16.75H21V15.25H19V16.75ZM15.75 20C15.75 18.2051 17.2051 16.75 19 16.75V15.25C16.3766 15.25 14.25 17.3766 14.25 20H15.75Z" fill="#28303F"/>
</svg>
