<svg width="24" height="24" viewBox="0 0 24 24" fill="none" xmlns="http://www.w3.org/2000/svg">
<path d="M22.8766 18.9899L23.6034 19.1749H23.6034L22.8766 18.9899ZM10.8766 18.9899L11.6034 19.1749L10.8766 18.9899ZM15 7.75C15.4142 7.75 15.75 7.41421 15.75 7C15.75 6.58579 15.4142 6.25 15 6.25V7.75ZM7 6.25C6.58579 6.25 6.25 6.58579 6.25 7C6.25 7.41421 6.58579 7.75 7 7.75V6.25ZM11 12.75C11.4142 12.75 11.75 12.4142 11.75 12C11.75 11.5858 11.4142 11.25 11 11.25V12.75ZM7 11.25C6.58579 11.25 6.25 11.5858 6.25 12C6.25 12.4142 6.58579 12.75 7 12.75V11.25ZM22.1498 18.8048C21.7918 20.2109 20.5163 21.25 19 21.25V22.75C21.2187 22.75 23.0803 21.2296 23.6034 19.1749L22.1498 18.8048ZM10.1498 18.8048C9.7918 20.2109 8.51631 21.25 7 21.25V22.75C9.21866 22.75 11.0803 21.2296 11.6034 19.1749L10.1498 18.8048ZM2.25 18C2.25 20.6234 4.37665 22.75 7 22.75V21.25C5.20507 21.25 3.75 19.7949 3.75 18H2.25ZM19 21.25H7V22.75H19V21.25ZM3.75 18V5H2.25V18H3.75ZM6 2.75H16V1.25H6V2.75ZM12 18.75H19V17.25H12V18.75ZM19 18.75H22V17.25H19V18.75ZM18.25 5V18H19.75V5H18.25ZM16 2.75C17.2426 2.75 18.25 3.75736 18.25 5H19.75C19.75 2.92893 18.0711 1.25 16 1.25V2.75ZM11.6034 19.1749C11.6384 19.0376 11.7105 18.92 11.7921 18.8443C11.8697 18.7724 11.9403 18.75 12 18.75V17.25C11.0011 17.25 10.342 18.0496 10.1498 18.8048L11.6034 19.1749ZM3.75 5C3.75 3.75736 4.75736 2.75 6 2.75V1.25C3.92893 1.25 2.25 2.92893 2.25 5H3.75ZM23.6034 19.1749C23.8937 18.0344 22.8968 17.25 22 17.25V18.75C22.0741 18.75 22.1255 18.7815 22.1461 18.8037C22.1547 18.8131 22.1537 18.8158 22.152 18.8096C22.1496 18.8011 22.1517 18.7971 22.1498 18.8048L23.6034 19.1749ZM15 6.25H7V7.75H15V6.25ZM11 11.25H7V12.75H11V11.25Z" fill="#28303F"/>
</svg>
