<svg width="24" height="24" viewBox="0 0 24 24" fill="none" xmlns="http://www.w3.org/2000/svg">
<path d="M21.8766 18.9899L22.6034 19.1749H22.6034L21.8766 18.9899ZM9.87657 18.9899L10.6034 19.1749L9.87657 18.9899ZM7.53033 9.46967C7.23744 9.17678 6.76256 9.17678 6.46967 9.46967C6.17678 9.76256 6.17678 10.2374 6.46967 10.5303L7.53033 9.46967ZM11.4142 11.5858L10.8839 11.0555H10.8839L11.4142 11.5858ZM13.5303 10.5303C13.8232 10.2374 13.8232 9.76256 13.5303 9.46967C13.2374 9.17678 12.7626 9.17678 12.4697 9.46967L13.5303 10.5303ZM9.25 12C9.25 12.4142 9.58579 12.75 10 12.75C10.4142 12.75 10.75 12.4142 10.75 12H9.25ZM10.75 7C10.75 6.58579 10.4142 6.25 10 6.25C9.58579 6.25 9.25 6.58579 9.25 7H10.75ZM21.1498 18.8048C20.7918 20.2109 19.5163 21.25 18 21.25V22.75C20.2187 22.75 22.0803 21.2296 22.6034 19.1749L21.1498 18.8048ZM9.14976 18.8048C8.7918 20.2109 7.51631 21.25 6 21.25V22.75C8.21866 22.75 10.0803 21.2296 10.6034 19.1749L9.14976 18.8048ZM1.25 18C1.25 20.6234 3.37665 22.75 6 22.75V21.25C4.20507 21.25 2.75 19.7949 2.75 18H1.25ZM18 21.25H6V22.75H18V21.25ZM2.75 18V5H1.25V18H2.75ZM5 2.75H15V1.25H5V2.75ZM11 18.75H18V17.25H11V18.75ZM18 18.75H21V17.25H18V18.75ZM17.25 5V18H18.75V5H17.25ZM15 2.75C16.2426 2.75 17.25 3.75736 17.25 5H18.75C18.75 2.92893 17.0711 1.25 15 1.25V2.75ZM10.6034 19.1749C10.6384 19.0376 10.7105 18.92 10.7921 18.8443C10.8697 18.7724 10.9403 18.75 11 18.75V17.25C10.0011 17.25 9.34202 18.0496 9.14976 18.8048L10.6034 19.1749ZM2.75 5C2.75 3.75736 3.75736 2.75 5 2.75V1.25C2.92893 1.25 1.25 2.92893 1.25 5H2.75ZM22.6034 19.1749C22.8937 18.0344 21.8968 17.25 21 17.25V18.75C21.0741 18.75 21.1255 18.7815 21.1461 18.8037C21.1547 18.8131 21.1537 18.8158 21.152 18.8096C21.1496 18.8011 21.1517 18.7971 21.1498 18.8048L22.6034 19.1749ZM6.46967 10.5303L8.05546 12.1161L9.11612 11.0555L7.53033 9.46967L6.46967 10.5303ZM11.9445 12.1161L13.5303 10.5303L12.4697 9.46967L10.8839 11.0555L11.9445 12.1161ZM10.75 12V7H9.25V12H10.75ZM8.05546 12.1161C9.1294 13.1901 10.8706 13.1901 11.9445 12.1161L10.8839 11.0555C10.3957 11.5436 9.60427 11.5436 9.11612 11.0555L8.05546 12.1161Z" fill="#28303F"/>
</svg>
