<svg width="24" height="24" viewBox="0 0 24 24" fill="none" xmlns="http://www.w3.org/2000/svg">
<path d="M21.8766 18.9899L22.6034 19.1749H22.6034L21.8766 18.9899ZM9.87657 18.9899L10.6034 19.1749L9.87657 18.9899ZM9.21913 12.0239L9.80478 11.5554H9.80478L9.21913 12.0239ZM7.36501 9.70626L7.95066 9.23774V9.23774L7.36501 9.70626ZM9.71599 7.46599L9.18566 7.99632L9.71599 7.46599ZM10 7.75L9.46967 8.28033C9.76256 8.57322 10.2374 8.57322 10.5303 8.28033L10 7.75ZM10.284 7.46599L10.8143 7.99632V7.99632L10.284 7.46599ZM12.635 9.70626L13.2206 10.1748V10.1748L12.635 9.70626ZM10.7809 12.0239L10.1952 11.5554L10.7809 12.0239ZM21.1498 18.8048C20.7918 20.2109 19.5163 21.25 18 21.25V22.75C20.2187 22.75 22.0803 21.2296 22.6034 19.1749L21.1498 18.8048ZM9.14976 18.8048C8.7918 20.2109 7.51631 21.25 6 21.25V22.75C8.21866 22.75 10.0803 21.2296 10.6034 19.1749L9.14976 18.8048ZM1.25 18C1.25 20.6234 3.37665 22.75 6 22.75V21.25C4.20507 21.25 2.75 19.7949 2.75 18H1.25ZM18 21.25H6V22.75H18V21.25ZM2.75 18V5H1.25V18H2.75ZM5 2.75H15V1.25H5V2.75ZM11 18.75H18V17.25H11V18.75ZM18 18.75H21V17.25H18V18.75ZM17.25 5V18H18.75V5H17.25ZM15 2.75C16.2426 2.75 17.25 3.75736 17.25 5H18.75C18.75 2.92893 17.0711 1.25 15 1.25V2.75ZM10.6034 19.1749C10.6384 19.0376 10.7105 18.92 10.7921 18.8443C10.8697 18.7724 10.9403 18.75 11 18.75V17.25C10.0011 17.25 9.34202 18.0496 9.14976 18.8048L10.6034 19.1749ZM2.75 5C2.75 3.75736 3.75736 2.75 5 2.75V1.25C2.92893 1.25 1.25 2.92893 1.25 5H2.75ZM22.6034 19.1749C22.8937 18.0344 21.8968 17.25 21 17.25V18.75C21.0741 18.75 21.1255 18.7815 21.1461 18.8037C21.1547 18.8131 21.1537 18.8158 21.152 18.8096C21.1496 18.8011 21.1517 18.7971 21.1498 18.8048L22.6034 19.1749ZM9.80478 11.5554L7.95066 9.23774L6.77936 10.1748L8.63348 12.4924L9.80478 11.5554ZM7.75 8.6657V8.59099H6.25V8.6657H7.75ZM9.18566 7.99632L9.46967 8.28033L10.5303 7.21967L10.2463 6.93566L9.18566 7.99632ZM10.5303 8.28033L10.8143 7.99632L9.75368 6.93566L9.46967 7.21967L10.5303 8.28033ZM12.25 8.59099V8.6657H13.75V8.59099H12.25ZM12.0493 9.23774L10.1952 11.5554L11.3665 12.4924L13.2206 10.1748L12.0493 9.23774ZM12.25 8.6657C12.25 8.87363 12.1792 9.07537 12.0493 9.23774L13.2206 10.1748C13.5633 9.74644 13.75 9.21424 13.75 8.6657H12.25ZM11.409 7.75C11.8735 7.75 12.25 8.12652 12.25 8.59099H13.75C13.75 7.2981 12.7019 6.25 11.409 6.25V7.75ZM8.59099 7.75C8.81403 7.75 9.02794 7.8386 9.18566 7.99632L10.2463 6.93566C9.8073 6.49664 9.21186 6.25 8.59099 6.25V7.75ZM7.75 8.59099C7.75 8.12652 8.12652 7.75 8.59099 7.75V6.25C7.2981 6.25 6.25 7.2981 6.25 8.59099H7.75ZM7.95066 9.23774C7.82077 9.07537 7.75 8.87363 7.75 8.6657H6.25C6.25 9.21424 6.43669 9.74645 6.77936 10.1748L7.95066 9.23774ZM10.8143 7.99632C10.9721 7.8386 11.186 7.75 11.409 7.75V6.25C10.7881 6.25 10.1927 6.49664 9.75368 6.93566L10.8143 7.99632ZM8.63348 12.4924C9.33405 13.3681 10.666 13.3681 11.3665 12.4924L10.1952 11.5554C10.0951 11.6805 9.90486 11.6805 9.80478 11.5554L8.63348 12.4924Z" fill="#28303F"/>
</svg>
