<svg width="24" height="24" viewBox="0 0 24 24" fill="none" xmlns="http://www.w3.org/2000/svg">
<path d="M3 6H2.25H3ZM3 18H3.75H3ZM7 22V21.25V22ZM17 22V22.75V22ZM21 18H20.25H21ZM21 11.6569H21.75H21ZM11.3431 2V1.25V2ZM7 2V2.75V2ZM19.8284 8.82843L19.2981 9.35876L19.8284 8.82843ZM14.1716 3.17157L14.7019 2.64124V2.64124L14.1716 3.17157ZM13 6H12.25H13ZM17 10V10.75V10ZM2.25 6L2.25 18H3.75L3.75 6H2.25ZM7 22.75H17V21.25H7V22.75ZM21.75 18V11.6569H20.25V18H21.75ZM11.3431 1.25L7 1.25V2.75L11.3431 2.75V1.25ZM20.3588 8.2981L14.7019 2.64124L13.6412 3.7019L19.2981 9.35876L20.3588 8.2981ZM11.3431 2.75C12.2051 2.75 13.0317 3.09241 13.6412 3.7019L14.7019 2.64124C13.8111 1.75044 12.6029 1.25 11.3431 1.25V2.75ZM21.75 11.6569C21.75 10.3971 21.2496 9.18889 20.3588 8.2981L19.2981 9.35876C19.9076 9.96825 20.25 10.7949 20.25 11.6569H21.75ZM2.25 18C2.25 20.6234 4.37665 22.75 7 22.75V21.25C5.20508 21.25 3.75 19.7949 3.75 18H2.25ZM3.75 6C3.75 4.20508 5.20507 2.75 7 2.75V1.25C4.37665 1.25 2.25 3.37665 2.25 6H3.75ZM17 22.75C19.6234 22.75 21.75 20.6234 21.75 18H20.25C20.25 19.7949 18.7949 21.25 17 21.25V22.75ZM12.25 2V6H13.75V2H12.25ZM17 10.75L21 10.75V9.25L17 9.25V10.75ZM12.25 6C12.25 8.62335 14.3766 10.75 17 10.75V9.25C15.2051 9.25 13.75 7.79493 13.75 6H12.25Z" fill="#28303F"/>
<path d="M5.90234 13.6318H7.4873C7.84473 13.6318 8.11719 13.6592 8.30469 13.7139C8.55664 13.7881 8.77246 13.9199 8.95215 14.1094C9.13184 14.2988 9.26855 14.5312 9.3623 14.8066C9.45605 15.0801 9.50293 15.418 9.50293 15.8203C9.50293 16.1738 9.45898 16.4785 9.37109 16.7344C9.26367 17.0469 9.11035 17.2998 8.91113 17.4932C8.76074 17.6396 8.55762 17.7539 8.30176 17.8359C8.11035 17.8965 7.85449 17.9268 7.53418 17.9268H5.90234V13.6318ZM6.76953 14.3584V17.2031H7.41699C7.65918 17.2031 7.83398 17.1895 7.94141 17.1621C8.08203 17.127 8.19824 17.0674 8.29004 16.9834C8.38379 16.8994 8.45996 16.7617 8.51855 16.5703C8.57715 16.377 8.60645 16.1143 8.60645 15.7822C8.60645 15.4502 8.57715 15.1953 8.51855 15.0176C8.45996 14.8398 8.37793 14.7012 8.27246 14.6016C8.16699 14.502 8.0332 14.4346 7.87109 14.3994C7.75 14.3721 7.5127 14.3584 7.15918 14.3584H6.76953Z" fill="#28303F"/>
<path d="M10.0654 15.8057C10.0654 15.3682 10.1309 15.001 10.2617 14.7041C10.3594 14.4854 10.4922 14.2891 10.6602 14.1152C10.8301 13.9414 11.0156 13.8125 11.2168 13.7285C11.4844 13.6152 11.793 13.5586 12.1426 13.5586C12.7754 13.5586 13.2812 13.7549 13.6602 14.1475C14.041 14.54 14.2314 15.0859 14.2314 15.7852C14.2314 16.4785 14.043 17.0215 13.666 17.4141C13.2891 17.8047 12.7852 18 12.1543 18C11.5156 18 11.0078 17.8057 10.6309 17.417C10.2539 17.0264 10.0654 16.4893 10.0654 15.8057ZM10.959 15.7764C10.959 16.2627 11.0713 16.6318 11.2959 16.8838C11.5205 17.1338 11.8057 17.2588 12.1514 17.2588C12.4971 17.2588 12.7803 17.1348 13.001 16.8867C13.2236 16.6367 13.335 16.2627 13.335 15.7646C13.335 15.2725 13.2266 14.9053 13.0098 14.6631C12.7949 14.4209 12.5088 14.2998 12.1514 14.2998C11.7939 14.2998 11.5059 14.4229 11.2871 14.6689C11.0684 14.9131 10.959 15.2822 10.959 15.7764Z" fill="#28303F"/>
<path d="M17.6592 16.3477L18.5 16.6143C18.3711 17.083 18.1562 17.4316 17.8555 17.6602C17.5566 17.8867 17.1768 18 16.7158 18C16.1455 18 15.6768 17.8057 15.3096 17.417C14.9424 17.0264 14.7588 16.4932 14.7588 15.8174C14.7588 15.1025 14.9434 14.5479 15.3125 14.1533C15.6816 13.7568 16.167 13.5586 16.7686 13.5586C17.2939 13.5586 17.7207 13.7139 18.0488 14.0244C18.2441 14.208 18.3906 14.4717 18.4883 14.8154L17.6299 15.0205C17.5791 14.7979 17.4727 14.6221 17.3105 14.4932C17.1504 14.3643 16.9551 14.2998 16.7246 14.2998C16.4062 14.2998 16.1475 14.4141 15.9482 14.6426C15.751 14.8711 15.6523 15.2412 15.6523 15.7529C15.6523 16.2959 15.75 16.6826 15.9453 16.9131C16.1406 17.1436 16.3945 17.2588 16.707 17.2588C16.9375 17.2588 17.1357 17.1855 17.3018 17.0391C17.4678 16.8926 17.5869 16.6621 17.6592 16.3477Z" fill="#28303F"/>
</svg>
