<svg width="24" height="24" viewBox="0 0 24 24" fill="none" xmlns="http://www.w3.org/2000/svg">
<path d="M4 18H3.25H4ZM4 10H4.75H4ZM8 6V6.75V6ZM16 6V5.25V6ZM20 10H19.25H20ZM20 12.325H20.75H20ZM10.2363 22V21.25V22ZM8 22V22.75V22ZM18.8064 15.1752L19.3326 15.7096L18.8064 15.1752ZM13.0427 20.8503L12.5165 20.3158L13.0427 20.8503ZM12 18H12.75H12.75H12ZM16 14V14.75V14ZM8.25 6C8.25 6.41421 8.58579 6.75 9 6.75C9.41421 6.75 9.75 6.41421 9.75 6H8.25ZM12.75 8C12.75 7.58579 12.4142 7.25 12 7.25C11.5858 7.25 11.25 7.58579 11.25 8H12.75ZM4.75 18L4.75 10H3.25L3.25 18H4.75ZM8 6.75L16 6.75V5.25L8 5.25V6.75ZM19.25 10V12.325H20.75V10H19.25ZM10.2363 21.25H8V22.75H10.2363V21.25ZM18.2802 14.6408L12.5165 20.3158L13.5689 21.3847L19.3326 15.7096L18.2802 14.6408ZM10.2363 22.75C11.4833 22.75 12.6803 22.2596 13.5689 21.3847L12.5165 20.3158C11.9085 20.9145 11.0895 21.25 10.2363 21.25V22.75ZM19.25 12.325C19.25 13.1956 18.9006 14.0299 18.2802 14.6408L19.3326 15.7096C20.2394 14.8168 20.75 13.5975 20.75 12.325H19.25ZM4.75 10C4.75 8.20507 6.20508 6.75 8 6.75V5.25C5.37665 5.25 3.25 7.37665 3.25 10H4.75ZM3.25 18C3.25 20.6234 5.37665 22.75 8 22.75V21.25C6.20507 21.25 4.75 19.7949 4.75 18H3.25ZM16 6.75C17.7949 6.75 19.25 8.20507 19.25 10H20.75C20.75 7.37665 18.6234 5.25 16 5.25V6.75ZM12.75 22V18H11.25L11.25 22H12.75ZM16 14.75H20V13.25H16V14.75ZM12.75 18C12.75 16.2051 14.2051 14.75 16 14.75V13.25C13.3766 13.25 11.25 15.3766 11.25 18H12.75ZM9.75 6V5H8.25V6H9.75ZM14.25 5V8.5H15.75V5H14.25ZM12.75 8.5V8H11.25V8.5H12.75ZM13.5 9.25C13.0858 9.25 12.75 8.91421 12.75 8.5H11.25C11.25 9.74264 12.2574 10.75 13.5 10.75V9.25ZM14.25 8.5C14.25 8.91421 13.9142 9.25 13.5 9.25V10.75C14.7426 10.75 15.75 9.74264 15.75 8.5H14.25ZM12 2.75C13.2426 2.75 14.25 3.75736 14.25 5H15.75C15.75 2.92893 14.0711 1.25 12 1.25V2.75ZM9.75 5C9.75 3.75736 10.7574 2.75 12 2.75V1.25C9.92893 1.25 8.25 2.92893 8.25 5H9.75Z" fill="#28303F"/>
</svg>
