<svg width="24" height="24" viewBox="0 0 24 24" fill="none" xmlns="http://www.w3.org/2000/svg">
<path d="M3 18H2.25H3ZM3 6H3.75H3ZM7 2V1.25V2ZM17 2V1.25V2ZM21 6H20.25H21ZM21 12.3431H21.75H21ZM11.3431 22V21.25V22ZM7 22V22.75V22ZM19.8284 15.1716L19.2981 14.6412V14.6412L19.8284 15.1716ZM14.1716 20.8284L14.7019 21.3588L14.1716 20.8284ZM13 18H12.25H13ZM17 14V13.25V14ZM8.46967 11.4697C8.17678 11.7626 8.17678 12.2374 8.46967 12.5303C8.76256 12.8232 9.23744 12.8232 9.53033 12.5303L8.46967 11.4697ZM11.0303 11.0303C11.3232 10.7374 11.3232 10.2626 11.0303 9.96967C10.7374 9.67678 10.2626 9.67678 9.96967 9.96967L11.0303 11.0303ZM3.75 18L3.75 6H2.25L2.25 18H3.75ZM7 2.75L17 2.75V1.25L7 1.25V2.75ZM20.25 6V12.3431H21.75V6H20.25ZM11.3431 21.25H7V22.75H11.3431V21.25ZM19.2981 14.6412L13.6412 20.2981L14.7019 21.3588L20.3588 15.7019L19.2981 14.6412ZM11.3431 22.75C12.6029 22.75 13.8111 22.2496 14.7019 21.3588L13.6412 20.2981C13.0317 20.9076 12.2051 21.25 11.3431 21.25V22.75ZM20.25 12.3431C20.25 13.2051 19.9076 14.0318 19.2981 14.6412L20.3588 15.7019C21.2496 14.8111 21.75 13.6029 21.75 12.3431H20.25ZM3.75 6C3.75 4.20507 5.20508 2.75 7 2.75V1.25C4.37665 1.25 2.25 3.37665 2.25 6H3.75ZM2.25 18C2.25 20.6234 4.37665 22.75 7 22.75V21.25C5.20507 21.25 3.75 19.7949 3.75 18H2.25ZM17 2.75C18.7949 2.75 20.25 4.20508 20.25 6H21.75C21.75 3.37665 19.6234 1.25 17 1.25V2.75ZM13.75 22V18H12.25V22H13.75ZM17 14.75L21 14.75V13.25L17 13.25V14.75ZM13.75 18C13.75 16.2051 15.2051 14.75 17 14.75V13.25C14.3766 13.25 12.25 15.3766 12.25 18H13.75ZM14.25 8.5C14.25 9.4665 13.4665 10.25 12.5 10.25V11.75C14.2949 11.75 15.75 10.2949 15.75 8.5H14.25ZM12.5 10.25C11.5335 10.25 10.75 9.4665 10.75 8.5H9.25C9.25 10.2949 10.7051 11.75 12.5 11.75V10.25ZM10.75 8.5C10.75 7.5335 11.5335 6.75 12.5 6.75V5.25C10.7051 5.25 9.25 6.70507 9.25 8.5H10.75ZM12.5 6.75C13.4665 6.75 14.25 7.5335 14.25 8.5H15.75C15.75 6.70507 14.2949 5.25 12.5 5.25V6.75ZM9.53033 12.5303L11.0303 11.0303L9.96967 9.96967L8.46967 11.4697L9.53033 12.5303Z" fill="#28303F"/>
</svg>
