<svg width="24" height="24" viewBox="0 0 24 24" fill="none" xmlns="http://www.w3.org/2000/svg">
<path d="M17 14H16.25H17ZM13 18V17.25V18ZM3 14H2.25H3ZM3 9.65685H3.75H3ZM10.6569 2V2.75V2ZM13 2V1.25V2ZM4.17157 6.82843L4.7019 7.35876H4.7019L4.17157 6.82843ZM7.82843 3.17157L8.35876 3.7019V3.7019L7.82843 3.17157ZM21 10H20.25H21ZM21 18H21.75H21ZM17 22V21.25V22ZM11 22V22.75V22ZM9 4L8.25 4V4H9ZM5 8L5 8.75H5V8ZM16.25 6L16.25 14H17.75L17.75 6H16.25ZM13 17.25H7V18.75H13V17.25ZM3.75 14L3.75 9.65685H2.25L2.25 14H3.75ZM10.6569 2.75L13 2.75V1.25L10.6569 1.25V2.75ZM4.7019 7.35876L8.35876 3.7019L7.2981 2.64124L3.64124 6.2981L4.7019 7.35876ZM10.6569 1.25C9.39708 1.25 8.18889 1.75045 7.2981 2.64124L8.35876 3.7019C8.96825 3.09241 9.7949 2.75 10.6569 2.75V1.25ZM3.75 9.65685C3.75 8.7949 4.09241 7.96825 4.7019 7.35876L3.64124 6.2981C2.75045 7.18889 2.25 8.39708 2.25 9.65685H3.75ZM16.25 14C16.25 15.7949 14.7949 17.25 13 17.25V18.75C15.6234 18.75 17.75 16.6234 17.75 14H16.25ZM17.75 6C17.75 3.37665 15.6234 1.25 13 1.25V2.75C14.7949 2.75 16.25 4.20508 16.25 6H17.75ZM7 17.25C5.20507 17.25 3.75 15.7949 3.75 14H2.25C2.25 16.6234 4.37665 18.75 7 18.75V17.25ZM20.25 10V18H21.75V10H20.25ZM17 21.25H11V22.75H17V21.25ZM20.25 18C20.25 19.7949 18.7949 21.25 17 21.25V22.75C19.6234 22.75 21.75 20.6234 21.75 18H20.25ZM21.75 10C21.75 7.37665 19.6234 5.25 17 5.25V6.75C18.7949 6.75 20.25 8.20508 20.25 10H21.75ZM11 21.25C9.20507 21.25 7.75 19.7949 7.75 18H6.25C6.25 20.6234 8.37665 22.75 11 22.75V21.25ZM8.25 2L8.25 4L9.75 4L9.75 2L8.25 2ZM5 7.25L3 7.25L3 8.75L5 8.75L5 7.25ZM8.25 4C8.25 5.79493 6.79492 7.25 5 7.25V8.75C7.62335 8.75 9.75 6.62335 9.75 4H8.25Z" fill="#28303F"/>
</svg>
