<svg width="24" height="24" viewBox="0 0 24 24" fill="none" xmlns="http://www.w3.org/2000/svg">
<path d="M21.8766 18.9899L22.6034 19.1749H22.6034L21.8766 18.9899ZM9.87657 18.9899L10.6034 19.1749L9.87657 18.9899ZM8.40903 7.34835C8.11613 7.05546 7.64126 7.05546 7.34837 7.34835C7.05547 7.64124 7.05547 8.11612 7.34837 8.40901L8.40903 7.34835ZM11.591 12.6517C11.8839 12.9445 12.3588 12.9445 12.6517 12.6517C12.9446 12.3588 12.9446 11.8839 12.6517 11.591L11.591 12.6517ZM12.6516 8.40901C12.9445 8.11612 12.9445 7.64124 12.6516 7.34835C12.3587 7.05546 11.8839 7.05546 11.591 7.34835L12.6516 8.40901ZM7.34833 11.591C7.05544 11.8839 7.05544 12.3588 7.34833 12.6517C7.64123 12.9445 8.1161 12.9445 8.40899 12.6517L7.34833 11.591ZM21.1498 18.8048C20.7918 20.2109 19.5163 21.25 18 21.25V22.75C20.2187 22.75 22.0803 21.2296 22.6034 19.1749L21.1498 18.8048ZM9.14976 18.8048C8.7918 20.2109 7.51631 21.25 6 21.25V22.75C8.21866 22.75 10.0803 21.2296 10.6034 19.1749L9.14976 18.8048ZM1.25 18C1.25 20.6234 3.37665 22.75 6 22.75V21.25C4.20507 21.25 2.75 19.7949 2.75 18H1.25ZM18 21.25H6V22.75H18V21.25ZM2.75 18V5H1.25V18H2.75ZM5 2.75H15V1.25H5V2.75ZM11 18.75H18V17.25H11V18.75ZM18 18.75H21V17.25H18V18.75ZM17.25 5V18H18.75V5H17.25ZM15 2.75C16.2426 2.75 17.25 3.75736 17.25 5H18.75C18.75 2.92893 17.0711 1.25 15 1.25V2.75ZM10.6034 19.1749C10.6384 19.0376 10.7105 18.92 10.7921 18.8443C10.8697 18.7724 10.9403 18.75 11 18.75V17.25C10.0011 17.25 9.34202 18.0496 9.14976 18.8048L10.6034 19.1749ZM2.75 5C2.75 3.75736 3.75736 2.75 5 2.75V1.25C2.92893 1.25 1.25 2.92893 1.25 5H2.75ZM22.6034 19.1749C22.8937 18.0344 21.8968 17.25 21 17.25V18.75C21.0741 18.75 21.1255 18.7815 21.1461 18.8037C21.1547 18.8131 21.1537 18.8158 21.152 18.8096C21.1496 18.8011 21.1517 18.7971 21.1498 18.8048L22.6034 19.1749ZM7.34837 8.40901L11.591 12.6517L12.6517 11.591L8.40903 7.34835L7.34837 8.40901ZM11.591 7.34835L7.34833 11.591L8.40899 12.6517L12.6516 8.40901L11.591 7.34835Z" fill="#28303F"/>
</svg>
