<svg width="24" height="24" viewBox="0 0 24 24" fill="none" xmlns="http://www.w3.org/2000/svg">
<path d="M3 6H2.25H3ZM3 18H3.75H3ZM7 22V21.25V22ZM17 22V22.75V22ZM21 18H20.25H21ZM21 11.6569H21.75H21ZM11.3431 2V1.25V2ZM7 2V2.75V2ZM19.8284 8.82843L19.2981 9.35876L19.8284 8.82843ZM14.1716 3.17157L14.7019 2.64124V2.64124L14.1716 3.17157ZM13 6H12.25H13ZM17 10V10.75V10ZM12.3321 17.4453L12.7481 18.0693L12.3321 17.4453ZM14.1279 13.7519L13.7119 14.376L14.1279 13.7519ZM12.332 12.5547L12.7481 11.9307L12.332 12.5547ZM2.25 6L2.25 18H3.75L3.75 6H2.25ZM7 22.75H17V21.25H7V22.75ZM21.75 18V11.6569H20.25V18H21.75ZM11.3431 1.25L7 1.25V2.75L11.3431 2.75V1.25ZM20.3588 8.2981L14.7019 2.64124L13.6412 3.7019L19.2981 9.35876L20.3588 8.2981ZM11.3431 2.75C12.2051 2.75 13.0317 3.09241 13.6412 3.7019L14.7019 2.64124C13.8111 1.75044 12.6029 1.25 11.3431 1.25V2.75ZM21.75 11.6569C21.75 10.3971 21.2496 9.18889 20.3588 8.2981L19.2981 9.35876C19.9076 9.96825 20.25 10.7949 20.25 11.6569H21.75ZM2.25 18C2.25 20.6234 4.37665 22.75 7 22.75V21.25C5.20508 21.25 3.75 19.7949 3.75 18H2.25ZM3.75 6C3.75 4.20508 5.20507 2.75 7 2.75V1.25C4.37665 1.25 2.25 3.37665 2.25 6H3.75ZM17 22.75C19.6234 22.75 21.75 20.6234 21.75 18H20.25C20.25 19.7949 18.7949 21.25 17 21.25V22.75ZM12.25 2V6H13.75V2H12.25ZM17 10.75L21 10.75V9.25L17 9.25V10.75ZM12.25 6C12.25 8.62335 14.3766 10.75 17 10.75V9.25C15.2051 9.25 13.75 7.79493 13.75 6H12.25ZM9.25 13.8028V16.1972H10.75V13.8028H9.25ZM12.7481 18.0693L14.5439 16.8721L13.7119 15.624L11.916 16.8213L12.7481 18.0693ZM14.5439 13.1279L12.7481 11.9307L11.916 13.1787L13.7119 14.376L14.5439 13.1279ZM14.5439 16.8721C15.8798 15.9815 15.8798 14.0185 14.5439 13.1279L13.7119 14.376C14.1572 14.6728 14.1572 15.3272 13.7119 15.624L14.5439 16.8721ZM9.25 16.1972C9.25 17.9943 11.2528 19.0662 12.7481 18.0693L11.916 16.8213C11.4176 17.1535 10.75 16.7962 10.75 16.1972H9.25ZM10.75 13.8028C10.75 13.2038 11.4176 12.8465 11.916 13.1787L12.7481 11.9307C11.2528 10.9338 9.25 12.0057 9.25 13.8028H10.75Z" fill="#28303F"/>
</svg>
