<svg width="24" height="24" viewBox="0 0 24 24" fill="none" xmlns="http://www.w3.org/2000/svg">
<path d="M10.317 3.40238L9.82313 3.96682V3.96682L10.317 3.40238ZM9.27982 2.49485L9.7737 1.93041V1.93041L9.27982 2.49485ZM20.317 13.4024L19.8231 13.9668L19.8231 13.9668L20.317 13.4024ZM19.2798 12.4948L19.7737 11.9304L19.2798 12.4948ZM17.25 9.5C17.25 9.91421 17.5858 10.25 18 10.25C18.4142 10.25 18.75 9.91421 18.75 9.5H17.25ZM13.5 5.25C13.0858 5.25 12.75 5.58579 12.75 6C12.75 6.41421 13.0858 6.75 13.5 6.75V5.25ZM10.5 18.75C10.9142 18.75 11.25 18.4142 11.25 18C11.25 17.5858 10.9142 17.25 10.5 17.25V18.75ZM6.75 14.5C6.75 14.0858 6.41421 13.75 6 13.75C5.58579 13.75 5.25 14.0858 5.25 14.5H6.75ZM2.25 4V10H3.75V4H2.25ZM5 12.75H9V11.25H5V12.75ZM11.75 10V4.90754H10.25V10H11.75ZM10.8109 2.83795L9.7737 1.93041L8.78595 3.05928L9.82313 3.96682L10.8109 2.83795ZM7.96282 1.25H5V2.75H7.96282V1.25ZM9.7737 1.93041C9.2724 1.49177 8.62893 1.25 7.96282 1.25V2.75C8.26559 2.75 8.55808 2.8599 8.78595 3.05928L9.7737 1.93041ZM11.75 4.90754C11.75 4.11454 11.4077 3.36014 10.8109 2.83795L9.82313 3.96682C10.0944 4.20418 10.25 4.54708 10.25 4.90754H11.75ZM9 12.75C10.5188 12.75 11.75 11.5188 11.75 10H10.25C10.25 10.6904 9.69036 11.25 9 11.25V12.75ZM2.25 10C2.25 11.5188 3.48122 12.75 5 12.75V11.25C4.30964 11.25 3.75 10.6904 3.75 10H2.25ZM3.75 4C3.75 3.30965 4.30965 2.75 5 2.75V1.25C3.48122 1.25 2.25 2.48122 2.25 4H3.75ZM12.25 14V20H13.75V14H12.25ZM15 22.75H19V21.25H15V22.75ZM21.75 20V14.9075H20.25V20H21.75ZM20.8109 12.838L19.7737 11.9304L18.7859 13.0593L19.8231 13.9668L20.8109 12.838ZM17.9628 11.25H15V12.75H17.9628V11.25ZM19.7737 11.9304C19.2724 11.4918 18.6289 11.25 17.9628 11.25V12.75C18.2656 12.75 18.5581 12.8599 18.7859 13.0593L19.7737 11.9304ZM21.75 14.9075C21.75 14.1145 21.4077 13.3601 20.8109 12.8379L19.8231 13.9668C20.0944 14.2042 20.25 14.5471 20.25 14.9075H21.75ZM19 22.75C20.5188 22.75 21.75 21.5188 21.75 20H20.25C20.25 20.6904 19.6904 21.25 19 21.25V22.75ZM12.25 20C12.25 21.5188 13.4812 22.75 15 22.75V21.25C14.3096 21.25 13.75 20.6904 13.75 20H12.25ZM13.75 14C13.75 13.3096 14.3096 12.75 15 12.75V11.25C13.4812 11.25 12.25 12.4812 12.25 14H13.75ZM18.75 9.5V8H17.25V9.5H18.75ZM16 5.25H13.5V6.75H16V5.25ZM8 18.75H10.5V17.25H8V18.75ZM5.25 14.5V16H6.75V14.5H5.25ZM8 17.25C7.30964 17.25 6.75 16.6904 6.75 16H5.25C5.25 17.5188 6.48122 18.75 8 18.75V17.25ZM18.75 8C18.75 6.48122 17.5188 5.25 16 5.25V6.75C16.6904 6.75 17.25 7.30964 17.25 8H18.75Z" fill="#28303F"/>
</svg>
