<svg width="24" height="24" viewBox="0 0 24 24" fill="none" xmlns="http://www.w3.org/2000/svg">
<path d="M11.0667 3.8L10.6167 4.4L11.0667 3.8ZM12.9333 5.2L13.3833 4.6L12.9333 5.2ZM8.46967 12.4697C8.17678 12.7626 8.17678 13.2374 8.46967 13.5303C8.76256 13.8232 9.23744 13.8232 9.53033 13.5303L8.46967 12.4697ZM13.4142 11.4142L12.8839 11.9445H12.8839L13.4142 11.4142ZM14.4697 13.5303C14.7626 13.8232 15.2374 13.8232 15.5303 13.5303C15.8232 13.2374 15.8232 12.7626 15.5303 12.4697L14.4697 13.5303ZM12.75 11C12.75 10.5858 12.4142 10.25 12 10.25C11.5858 10.25 11.25 10.5858 11.25 11H12.75ZM11.25 16C11.25 16.4142 11.5858 16.75 12 16.75C12.4142 16.75 12.75 16.4142 12.75 16H11.25ZM21.25 10V17H22.75V10H21.25ZM18 20.25H6V21.75H18V20.25ZM2.75 17V7H1.25V17H2.75ZM15.3333 6.75H18V5.25H15.3333V6.75ZM6 3.75H8.66667V2.25H6V3.75ZM10.6167 4.4L12.4833 5.8L13.3833 4.6L11.5167 3.2L10.6167 4.4ZM8.66667 3.75C9.36987 3.75 10.0541 3.97808 10.6167 4.4L11.5167 3.2C10.6945 2.58334 9.69443 2.25 8.66667 2.25V3.75ZM15.3333 5.25C14.6301 5.25 13.9459 5.02192 13.3833 4.6L12.4833 5.8C13.3055 6.41665 14.3056 6.75 15.3333 6.75V5.25ZM6 20.25C4.20507 20.25 2.75 18.7949 2.75 17H1.25C1.25 19.6234 3.37665 21.75 6 21.75V20.25ZM21.25 17C21.25 18.7949 19.7949 20.25 18 20.25V21.75C20.6234 21.75 22.75 19.6234 22.75 17H21.25ZM22.75 10C22.75 7.37665 20.6234 5.25 18 5.25V6.75C19.7949 6.75 21.25 8.20507 21.25 10H22.75ZM2.75 7C2.75 5.20507 4.20507 3.75 6 3.75V2.25C3.37665 2.25 1.25 4.37665 1.25 7H2.75ZM9.53033 13.5303L11.1161 11.9445L10.0555 10.8839L8.46967 12.4697L9.53033 13.5303ZM12.8839 11.9445L14.4697 13.5303L15.5303 12.4697L13.9445 10.8839L12.8839 11.9445ZM11.25 11V16H12.75V11H11.25ZM11.1161 11.9445C11.6043 11.4564 12.3957 11.4564 12.8839 11.9445L13.9445 10.8839C12.8706 9.80994 11.1294 9.80994 10.0555 10.8839L11.1161 11.9445Z" fill="#28303F"/>
</svg>
