<svg width="24" height="24" viewBox="0 0 24 24" fill="none" xmlns="http://www.w3.org/2000/svg">
<path d="M21.688 13.1576L21.0386 12.7825L21.688 13.1576ZM18.4208 18.8152L17.7713 18.4402L18.4208 18.8152ZM6.27081 12.4224L6.96037 12.7174L6.27081 12.4224ZM2.39324 19.58C2.23033 19.9609 2.40699 20.4016 2.78782 20.5646C3.16865 20.7275 3.60944 20.5508 3.77235 20.17L2.39324 19.58ZM11.0788 4.78592L10.6884 5.42631L11.0788 4.78592ZM8.91049 3.46408L9.30088 2.82369L9.30088 2.82369L8.91049 3.46408ZM2.75 17.625V6.375H1.25V17.625H2.75ZM12.7227 6H16.0763V4.5H12.7227V6ZM5.24839 3.75H7.26659V2.25H5.24839V3.75ZM18.5747 8.625V9.75H20.0747V8.625H18.5747ZM10.2287 10.5H19.3247V9H10.2287V10.5ZM19.3247 10.5H19.8311V9H19.3247V10.5ZM21.0386 12.7825L17.7713 18.4402L19.0703 19.1903L22.3375 13.5327L21.0386 12.7825ZM14.7069 20.25H5.24839V21.75H14.7069V20.25ZM5.58125 12.1274L2.39324 19.58L3.77235 20.17L6.96037 12.7174L5.58125 12.1274ZM11.4692 4.14553L9.30088 2.82369L8.5201 4.10447L10.6884 5.42631L11.4692 4.14553ZM17.7713 18.4402C17.1178 19.5718 15.9509 20.25 14.7069 20.25V21.75C16.5056 21.75 18.1583 20.7695 19.0703 19.1903L17.7713 18.4402ZM19.8311 10.5C20.8882 10.5 21.6406 11.74 21.0386 12.7825L22.3375 13.5327C23.4676 11.5759 22.1406 9 19.8311 9V10.5ZM10.2287 9C8.20426 9 6.38945 10.2381 5.58125 12.1274L6.96037 12.7174C7.5425 11.3565 8.82986 10.5 10.2287 10.5V9ZM7.26659 3.75C7.70534 3.75 8.13796 3.87151 8.5201 4.10447L9.30088 2.82369C8.68606 2.44889 7.98372 2.25 7.26659 2.25V3.75ZM16.0763 6C17.4294 6 18.5747 7.14796 18.5747 8.625H20.0747C20.0747 6.37411 18.3114 4.5 16.0763 4.5V6ZM12.7227 4.5C12.2839 4.5 11.8513 4.37849 11.4692 4.14553L10.6884 5.42631C11.3032 5.80111 12.0056 6 12.7227 6V4.5ZM2.75 6.375C2.75 4.89796 3.89534 3.75 5.24839 3.75V2.25C3.01337 2.25 1.25 4.12411 1.25 6.375H2.75ZM1.25 17.625C1.25 19.8759 3.01337 21.75 5.24839 21.75V20.25C3.89534 20.25 2.75 19.102 2.75 17.625H1.25Z" fill="#28303F"/>
</svg>
