<svg width="24" height="24" viewBox="0 0 24 24" fill="none" xmlns="http://www.w3.org/2000/svg">
<path d="M14.6517 11.409C14.9446 11.1161 14.9446 10.6413 14.6517 10.3484C14.3588 10.0555 13.8839 10.0555 13.591 10.3484L14.6517 11.409ZM9.34837 14.591C9.05547 14.8839 9.05547 15.3588 9.34837 15.6517C9.64126 15.9446 10.1161 15.9446 10.409 15.6517L9.34837 14.591ZM13.591 15.6516C13.8839 15.9445 14.3588 15.9445 14.6517 15.6516C14.9446 15.3587 14.9446 14.8839 14.6517 14.591L13.591 15.6516ZM10.409 10.3483C10.1161 10.0554 9.64126 10.0554 9.34837 10.3483C9.05547 10.6412 9.05547 11.1161 9.34837 11.409L10.409 10.3483ZM11.0667 3.8L10.6167 4.4L11.0667 3.8ZM12.9333 5.2L13.3833 4.6L12.9333 5.2ZM13.591 10.3484L9.34837 14.591L10.409 15.6517L14.6517 11.409L13.591 10.3484ZM14.6517 14.591L10.409 10.3483L9.34837 11.409L13.591 15.6516L14.6517 14.591ZM21.25 10V17H22.75V10H21.25ZM18 20.25H6V21.75H18V20.25ZM2.75 17V7H1.25V17H2.75ZM15.3333 6.75H18V5.25H15.3333V6.75ZM6 3.75H8.66667V2.25H6V3.75ZM10.6167 4.4L12.4833 5.8L13.3833 4.6L11.5167 3.2L10.6167 4.4ZM8.66667 3.75C9.36987 3.75 10.0541 3.97808 10.6167 4.4L11.5167 3.2C10.6945 2.58334 9.69443 2.25 8.66667 2.25V3.75ZM15.3333 5.25C14.6301 5.25 13.9459 5.02192 13.3833 4.6L12.4833 5.8C13.3055 6.41665 14.3056 6.75 15.3333 6.75V5.25ZM6 20.25C4.20507 20.25 2.75 18.7949 2.75 17H1.25C1.25 19.6234 3.37665 21.75 6 21.75V20.25ZM21.25 17C21.25 18.7949 19.7949 20.25 18 20.25V21.75C20.6234 21.75 22.75 19.6234 22.75 17H21.25ZM22.75 10C22.75 7.37665 20.6234 5.25 18 5.25V6.75C19.7949 6.75 21.25 8.20507 21.25 10H22.75ZM2.75 7C2.75 5.20507 4.20507 3.75 6 3.75V2.25C3.37665 2.25 1.25 4.37665 1.25 7H2.75Z" fill="#28303F"/>
</svg>
