<svg width="24" height="24" viewBox="0 0 24 24" fill="none" xmlns="http://www.w3.org/2000/svg">
<path d="M19.9999 8V8.75C20.4141 8.75 20.7499 8.41421 20.7499 8H19.9999ZM3.99993 8H3.24993C3.24993 8.41421 3.58572 8.75 3.99993 8.75V8ZM11.4131 2.6336L11.874 2.042V2.042L11.4131 2.6336ZM12.3535 3.3664L11.8925 3.958V3.958L12.3535 3.3664ZM22.4816 10.4191L23.2149 10.5762L22.4816 10.4191ZM20.6775 18.8381L21.4108 18.9953L20.6775 18.8381ZM3.32239 18.8381L4.05574 18.681L3.32239 18.8381ZM1.5183 10.4191L0.784952 10.5762L1.5183 10.4191ZM8.4696 17.4697C8.17671 17.7626 8.17671 18.2375 8.4696 18.5304C8.7625 18.8233 9.23737 18.8233 9.53026 18.5304L8.4696 17.4697ZM11.0303 17.0304C11.3232 16.7375 11.3232 16.2626 11.0303 15.9697C10.7374 15.6768 10.2625 15.6768 9.9696 15.9697L11.0303 17.0304ZM14.2499 14.5001C14.2499 15.4666 13.4664 16.2501 12.4999 16.2501V17.7501C14.2949 17.7501 15.7499 16.295 15.7499 14.5001H14.2499ZM12.4999 16.2501C11.5334 16.2501 10.7499 15.4666 10.7499 14.5001H9.24993C9.24993 16.295 10.705 17.7501 12.4999 17.7501V16.2501ZM10.7499 14.5001C10.7499 13.5336 11.5334 12.7501 12.4999 12.7501V11.2501C10.705 11.2501 9.24993 12.7051 9.24993 14.5001H10.7499ZM12.4999 12.7501C13.4664 12.7501 14.2499 13.5336 14.2499 14.5001H15.7499C15.7499 12.7051 14.2949 11.2501 12.4999 11.2501V12.7501ZM19.2499 7V8H20.7499V7H19.2499ZM19.9999 7.25H3.99993V8.75H19.9999V7.25ZM4.74993 8V5H3.24993V8H4.74993ZM14.1974 4.75H16.9999V3.25H14.1974V4.75ZM6.99993 2.75H9.5691V1.25H6.99993V2.75ZM10.9521 3.2252L11.8925 3.958L12.8145 2.7748L11.874 2.042L10.9521 3.2252ZM14.1974 3.25C13.6964 3.25 13.2097 3.08276 12.8145 2.7748L11.8925 3.958C12.5512 4.47127 13.3624 4.75 14.1974 4.75V3.25ZM20.7499 7C20.7499 4.92893 19.071 3.25 16.9999 3.25V4.75C18.2426 4.75 19.2499 5.75736 19.2499 7H20.7499ZM9.5691 2.75C10.0701 2.75 10.5568 2.91724 10.9521 3.2252L11.874 2.042C11.2153 1.52873 10.4042 1.25 9.5691 1.25V2.75ZM4.74993 5C4.74993 3.75736 5.75729 2.75 6.99993 2.75V1.25C4.92887 1.25 3.24993 2.92893 3.24993 5H4.74993ZM3.47391 8.75H20.526V7.25H3.47391V8.75ZM21.7482 10.2619L19.9441 18.681L21.4108 18.9953L23.2149 10.5762L21.7482 10.2619ZM16.7663 21.25H7.2336V22.75H16.7663V21.25ZM4.05574 18.681L2.25166 10.2619L0.784952 10.5762L2.58904 18.9953L4.05574 18.681ZM7.2336 21.25C5.7011 21.25 4.37684 20.1794 4.05574 18.681L2.58904 18.9953C3.05834 21.1853 4.99379 22.75 7.2336 22.75V21.25ZM19.9441 18.681C19.623 20.1794 18.2988 21.25 16.7663 21.25V22.75C19.0061 22.75 20.9415 21.1853 21.4108 18.9953L19.9441 18.681ZM20.526 8.75C21.3218 8.75 21.915 9.48377 21.7482 10.2619L23.2149 10.5762C23.5818 8.8643 22.2767 7.25 20.526 7.25V8.75ZM3.47391 7.25C1.72314 7.25 0.418114 8.8643 0.784952 10.5762L2.25166 10.2619C2.08491 9.48377 2.6781 8.75 3.47391 8.75V7.25ZM9.53026 18.5304L11.0303 17.0304L9.9696 15.9697L8.4696 17.4697L9.53026 18.5304Z" fill="#28303F"/>
</svg>
