<svg width="24" height="24" viewBox="0 0 24 24" fill="none" xmlns="http://www.w3.org/2000/svg">
<path d="M8.46973 14.4697C8.17683 14.7626 8.17683 15.2374 8.46973 15.5303C8.76262 15.8232 9.23749 15.8232 9.53039 15.5303L8.46973 14.4697ZM10.5858 13.4142L10.0555 12.8839L10.5858 13.4142ZM13.4143 13.4142L12.8839 13.9445H12.8839L13.4143 13.4142ZM14.4697 15.5303C14.7626 15.8232 15.2375 15.8232 15.5304 15.5303C15.8233 15.2374 15.8233 14.7626 15.5304 14.4697L14.4697 15.5303ZM12.7501 13C12.7501 12.5858 12.4143 12.25 12.0001 12.25C11.5858 12.25 11.2501 12.5858 11.2501 13H12.7501ZM11.2501 18C11.2501 18.4142 11.5858 18.75 12.0001 18.75C12.4143 18.75 12.7501 18.4142 12.7501 18H11.2501ZM20.0001 8V8.75C20.4143 8.75 20.7501 8.41421 20.7501 8H20.0001ZM4.00006 8H3.25006C3.25006 8.41421 3.58584 8.75 4.00006 8.75V8ZM11.4132 2.6336L11.8742 2.042V2.042L11.4132 2.6336ZM12.3536 3.3664L11.8926 3.958V3.958L12.3536 3.3664ZM22.4817 10.4191L23.215 10.5762L22.4817 10.4191ZM20.6776 18.8381L21.411 18.9953L20.6776 18.8381ZM3.32251 18.8381L4.05586 18.681L3.32251 18.8381ZM1.51843 10.4191L0.785074 10.5762L1.51843 10.4191ZM9.53039 15.5303L11.1162 13.9445L10.0555 12.8839L8.46973 14.4697L9.53039 15.5303ZM12.8839 13.9445L14.4697 15.5303L15.5304 14.4697L13.9446 12.8839L12.8839 13.9445ZM11.2501 13V18H12.7501V13H11.2501ZM11.1162 13.9445C11.6043 13.4564 12.3958 13.4564 12.8839 13.9445L13.9446 12.8839C12.8707 11.8099 11.1295 11.8099 10.0555 12.8839L11.1162 13.9445ZM19.2501 7V8H20.7501V7H19.2501ZM20.0001 7.25H4.00006V8.75H20.0001V7.25ZM4.75006 8V5H3.25006V8H4.75006ZM14.1976 4.75H17.0001V3.25H14.1976V4.75ZM7.00006 2.75H9.56923V1.25H7.00006V2.75ZM10.9522 3.2252L11.8926 3.958L12.8146 2.7748L11.8742 2.042L10.9522 3.2252ZM14.1976 3.25C13.6965 3.25 13.2098 3.08276 12.8146 2.7748L11.8926 3.958C12.5513 4.47127 13.3625 4.75 14.1976 4.75V3.25ZM20.7501 7C20.7501 4.92893 19.0711 3.25 17.0001 3.25V4.75C18.2427 4.75 19.2501 5.75736 19.2501 7H20.7501ZM9.56923 2.75C10.0703 2.75 10.557 2.91724 10.9522 3.2252L11.8742 2.042C11.2155 1.52873 10.4043 1.25 9.56923 1.25V2.75ZM4.75006 5C4.75006 3.75736 5.75742 2.75 7.00006 2.75V1.25C4.92899 1.25 3.25006 2.92893 3.25006 5H4.75006ZM3.47403 8.75H20.5261V7.25H3.47403V8.75ZM21.7483 10.2619L19.9443 18.681L21.411 18.9953L23.215 10.5762L21.7483 10.2619ZM16.7664 21.25H7.23372V22.75H16.7664V21.25ZM4.05586 18.681L2.25178 10.2619L0.785074 10.5762L2.58916 18.9953L4.05586 18.681ZM7.23372 21.25C5.70122 21.25 4.37696 20.1794 4.05586 18.681L2.58916 18.9953C3.05846 21.1853 4.99391 22.75 7.23372 22.75V21.25ZM19.9443 18.681C19.6231 20.1794 18.2989 21.25 16.7664 21.25V22.75C19.0062 22.75 20.9416 21.1853 21.411 18.9953L19.9443 18.681ZM20.5261 8.75C21.3219 8.75 21.9151 9.48377 21.7483 10.2619L23.215 10.5762C23.5819 8.8643 22.2769 7.25 20.5261 7.25V8.75ZM3.47403 7.25C1.72326 7.25 0.418236 8.8643 0.785074 10.5762L2.25178 10.2619C2.08503 9.48377 2.67823 8.75 3.47403 8.75V7.25Z" fill="#28303F"/>
</svg>
