<svg width="24" height="24" viewBox="0 0 24 24" fill="none" xmlns="http://www.w3.org/2000/svg">
<path d="M13.5909 17.6517C13.8838 17.9445 14.3587 17.9445 14.6516 17.6517C14.9445 17.3588 14.9445 16.8839 14.6516 16.591L13.5909 17.6517ZM10.409 12.3484C10.1161 12.0555 9.64119 12.0555 9.3483 12.3484C9.05541 12.6412 9.05541 13.1161 9.3483 13.409L10.409 12.3484ZM9.34827 16.591C9.05537 16.8839 9.05537 17.3588 9.34827 17.6517C9.64116 17.9445 10.116 17.9445 10.4089 17.6517L9.34827 16.591ZM14.6516 13.409C14.9445 13.1161 14.9445 12.6412 14.6516 12.3484C14.3587 12.0555 13.8838 12.0555 13.5909 12.3484L14.6516 13.409ZM19.9999 8V8.75C20.4141 8.75 20.7499 8.41421 20.7499 8H19.9999ZM3.99993 8H3.24993C3.24993 8.41421 3.58572 8.75 3.99993 8.75V8ZM11.4131 2.6336L11.874 2.042V2.042L11.4131 2.6336ZM12.3535 3.3664L11.8925 3.958V3.958L12.3535 3.3664ZM22.4816 10.4191L23.2149 10.5762L22.4816 10.4191ZM20.6775 18.8381L21.4108 18.9953L20.6775 18.8381ZM3.32239 18.8381L4.05574 18.681L3.32239 18.8381ZM1.5183 10.4191L0.784952 10.5762L1.5183 10.4191ZM14.6516 16.591L10.409 12.3484L9.3483 13.409L13.5909 17.6517L14.6516 16.591ZM10.4089 17.6517L14.6516 13.409L13.5909 12.3484L9.34827 16.591L10.4089 17.6517ZM19.2499 7V8H20.7499V7H19.2499ZM19.9999 7.25H3.99993V8.75H19.9999V7.25ZM4.74993 8V5H3.24993V8H4.74993ZM14.1974 4.75H16.9999V3.25H14.1974V4.75ZM6.99993 2.75H9.5691V1.25H6.99993V2.75ZM10.9521 3.2252L11.8925 3.958L12.8145 2.7748L11.874 2.042L10.9521 3.2252ZM14.1974 3.25C13.6964 3.25 13.2097 3.08276 12.8145 2.7748L11.8925 3.958C12.5512 4.47127 13.3624 4.75 14.1974 4.75V3.25ZM20.7499 7C20.7499 4.92893 19.071 3.25 16.9999 3.25V4.75C18.2426 4.75 19.2499 5.75736 19.2499 7H20.7499ZM9.5691 2.75C10.0701 2.75 10.5568 2.91724 10.9521 3.2252L11.874 2.042C11.2153 1.52873 10.4042 1.25 9.5691 1.25V2.75ZM4.74993 5C4.74993 3.75736 5.75729 2.75 6.99993 2.75V1.25C4.92887 1.25 3.24993 2.92893 3.24993 5H4.74993ZM3.47391 8.75H20.526V7.25H3.47391V8.75ZM21.7482 10.2619L19.9441 18.681L21.4108 18.9953L23.2149 10.5762L21.7482 10.2619ZM16.7663 21.25H7.2336V22.75H16.7663V21.25ZM4.05574 18.681L2.25166 10.2619L0.784952 10.5762L2.58904 18.9953L4.05574 18.681ZM7.2336 21.25C5.7011 21.25 4.37684 20.1794 4.05574 18.681L2.58904 18.9953C3.05834 21.1853 4.99379 22.75 7.2336 22.75V21.25ZM19.9441 18.681C19.623 20.1794 18.2988 21.25 16.7663 21.25V22.75C19.0061 22.75 20.9415 21.1853 21.4108 18.9953L19.9441 18.681ZM20.526 8.75C21.3218 8.75 21.915 9.48377 21.7482 10.2619L23.2149 10.5762C23.5818 8.8643 22.2767 7.25 20.526 7.25V8.75ZM3.47391 7.25C1.72314 7.25 0.418114 8.8643 0.784952 10.5762L2.25166 10.2619C2.08491 9.48377 2.6781 8.75 3.47391 8.75V7.25Z" fill="#28303F"/>
</svg>
