<svg width="24" height="24" viewBox="0 0 24 24" fill="none" xmlns="http://www.w3.org/2000/svg">
<path d="M11.2191 17.024L10.6334 17.4925L11.2191 17.024ZM9.36494 14.7063L9.95059 14.2378L9.36494 14.7063ZM11.7159 12.4661L12.2463 11.9357L12.2463 11.9357L11.7159 12.4661ZM11.9999 12.7501L11.4696 13.2804C11.6103 13.421 11.801 13.5001 11.9999 13.5001C12.1988 13.5001 12.3896 13.421 12.5303 13.2804L11.9999 12.7501ZM12.2839 12.4661L11.7536 11.9357V11.9357L12.2839 12.4661ZM14.6349 14.7063L15.2206 15.1748L14.6349 14.7063ZM12.7808 17.024L13.3665 17.4925L12.7808 17.024ZM19.9999 8V8.75C20.4141 8.75 20.7499 8.41421 20.7499 8H19.9999ZM3.99993 8H3.24993C3.24993 8.41421 3.58572 8.75 3.99993 8.75V8ZM11.4131 2.6336L11.874 2.042V2.042L11.4131 2.6336ZM12.3535 3.3664L11.8925 3.958V3.958L12.3535 3.3664ZM22.4816 10.4191L23.2149 10.5762L22.4816 10.4191ZM20.6775 18.8381L21.4108 18.9953L20.6775 18.8381ZM3.32239 18.8381L4.05574 18.681L3.32239 18.8381ZM1.5183 10.4191L0.784952 10.5762L1.5183 10.4191ZM11.8047 16.5555L9.95059 14.2378L8.77929 15.1748L10.6334 17.4925L11.8047 16.5555ZM9.74993 13.6658V13.5911H8.24993V13.6658H9.74993ZM11.1856 12.9964L11.4696 13.2804L12.5303 12.2197L12.2463 11.9357L11.1856 12.9964ZM12.5303 13.2804L12.8143 12.9964L11.7536 11.9357L11.4696 12.2197L12.5303 13.2804ZM14.2499 13.5911V13.6658H15.7499V13.5911H14.2499ZM14.0493 14.2378L12.1952 16.5555L13.3665 17.4925L15.2206 15.1748L14.0493 14.2378ZM14.2499 13.6658C14.2499 13.8737 14.1792 14.0754 14.0493 14.2378L15.2206 15.1748C15.5632 14.7465 15.7499 14.2143 15.7499 13.6658H14.2499ZM13.4089 12.7501C13.8734 12.7501 14.2499 13.1266 14.2499 13.5911H15.7499C15.7499 12.2982 14.7018 11.2501 13.4089 11.2501V12.7501ZM10.5909 12.7501C10.814 12.7501 11.0279 12.8387 11.1856 12.9964L12.2463 11.9357C11.8072 11.4967 11.2118 11.2501 10.5909 11.2501V12.7501ZM9.74993 13.5911C9.74993 13.1266 10.1265 12.7501 10.5909 12.7501V11.2501C9.29803 11.2501 8.24993 12.2982 8.24993 13.5911H9.74993ZM9.95059 14.2378C9.8207 14.0754 9.74993 13.8737 9.74993 13.6658H8.24993C8.24993 14.2143 8.43662 14.7465 8.77929 15.1748L9.95059 14.2378ZM12.8143 12.9964C12.972 12.8387 13.1859 12.7501 13.4089 12.7501V11.2501C12.7881 11.2501 12.1926 11.4967 11.7536 11.9357L12.8143 12.9964ZM10.6334 17.4925C11.334 18.3682 12.6659 18.3682 13.3665 17.4925L12.1952 16.5555C12.0951 16.6806 11.9048 16.6806 11.8047 16.5555L10.6334 17.4925ZM19.2499 7V8H20.7499V7H19.2499ZM19.9999 7.25H3.99993V8.75H19.9999V7.25ZM4.74993 8V5H3.24993V8H4.74993ZM14.1974 4.75H16.9999V3.25H14.1974V4.75ZM6.99993 2.75H9.5691V1.25H6.99993V2.75ZM10.9521 3.2252L11.8925 3.958L12.8145 2.7748L11.874 2.042L10.9521 3.2252ZM14.1974 3.25C13.6964 3.25 13.2097 3.08276 12.8145 2.7748L11.8925 3.958C12.5512 4.47127 13.3624 4.75 14.1974 4.75V3.25ZM20.7499 7C20.7499 4.92893 19.071 3.25 16.9999 3.25V4.75C18.2426 4.75 19.2499 5.75736 19.2499 7H20.7499ZM9.5691 2.75C10.0701 2.75 10.5568 2.91724 10.9521 3.2252L11.874 2.042C11.2153 1.52873 10.4042 1.25 9.5691 1.25V2.75ZM4.74993 5C4.74993 3.75736 5.75729 2.75 6.99993 2.75V1.25C4.92887 1.25 3.24993 2.92893 3.24993 5H4.74993ZM3.47391 8.75H20.526V7.25H3.47391V8.75ZM21.7482 10.2619L19.9441 18.681L21.4108 18.9953L23.2149 10.5762L21.7482 10.2619ZM16.7663 21.25H7.2336V22.75H16.7663V21.25ZM4.05574 18.681L2.25166 10.2619L0.784952 10.5762L2.58904 18.9953L4.05574 18.681ZM7.2336 21.25C5.7011 21.25 4.37684 20.1794 4.05574 18.681L2.58904 18.9953C3.05834 21.1853 4.99379 22.75 7.2336 22.75V21.25ZM19.9441 18.681C19.623 20.1794 18.2988 21.25 16.7663 21.25V22.75C19.0061 22.75 20.9415 21.1853 21.4108 18.9953L19.9441 18.681ZM20.526 8.75C21.3218 8.75 21.915 9.48377 21.7482 10.2619L23.2149 10.5762C23.5818 8.8643 22.2767 7.25 20.526 7.25V8.75ZM3.47391 7.25C1.72314 7.25 0.418114 8.8643 0.784952 10.5762L2.25166 10.2619C2.08491 9.48377 2.6781 8.75 3.47391 8.75V7.25Z" fill="#28303F"/>
</svg>
