<svg width="24" height="24" viewBox="0 0 24 24" fill="none" xmlns="http://www.w3.org/2000/svg">
<path d="M9.53039 14.4697C9.23749 14.1768 8.76262 14.1768 8.46973 14.4697C8.17683 14.7626 8.17683 15.2374 8.46973 15.5303L9.53039 14.4697ZM10.5858 16.5858L10.0555 17.1161L10.5858 16.5858ZM13.4143 16.5858L12.8839 16.0555H12.8839L13.4143 16.5858ZM15.5304 15.5303C15.8233 15.2374 15.8233 14.7626 15.5304 14.4697C15.2375 14.1768 14.7626 14.1768 14.4697 14.4697L15.5304 15.5303ZM11.2501 17C11.2501 17.4142 11.5858 17.75 12.0001 17.75C12.4143 17.75 12.7501 17.4142 12.7501 17H11.2501ZM12.7501 12C12.7501 11.5858 12.4143 11.25 12.0001 11.25C11.5858 11.25 11.2501 11.5858 11.2501 12H12.7501ZM20.0001 8V8.75C20.4143 8.75 20.7501 8.41421 20.7501 8H20.0001ZM4.00006 8H3.25006C3.25006 8.41421 3.58584 8.75 4.00006 8.75V8ZM11.4132 2.6336L11.8742 2.042V2.042L11.4132 2.6336ZM12.3536 3.3664L11.8926 3.958V3.958L12.3536 3.3664ZM22.4817 10.4191L23.215 10.5762L22.4817 10.4191ZM20.6776 18.8381L21.411 18.9953L20.6776 18.8381ZM3.32251 18.8381L4.05586 18.681L3.32251 18.8381ZM1.51843 10.4191L0.785074 10.5762L1.51843 10.4191ZM8.46973 15.5303L10.0555 17.1161L11.1162 16.0555L9.53039 14.4697L8.46973 15.5303ZM13.9446 17.1161L15.5304 15.5303L14.4697 14.4697L12.8839 16.0555L13.9446 17.1161ZM12.7501 17V12H11.2501V17H12.7501ZM10.0555 17.1161C11.1295 18.1901 12.8707 18.1901 13.9446 17.1161L12.8839 16.0555C12.3958 16.5436 11.6043 16.5436 11.1162 16.0555L10.0555 17.1161ZM19.2501 7V8H20.7501V7H19.2501ZM20.0001 7.25H4.00006V8.75H20.0001V7.25ZM4.75006 8V5H3.25006V8H4.75006ZM14.1976 4.75H17.0001V3.25H14.1976V4.75ZM7.00006 2.75H9.56923V1.25H7.00006V2.75ZM10.9522 3.2252L11.8926 3.958L12.8146 2.7748L11.8742 2.042L10.9522 3.2252ZM14.1976 3.25C13.6965 3.25 13.2098 3.08276 12.8146 2.7748L11.8926 3.958C12.5513 4.47127 13.3625 4.75 14.1976 4.75V3.25ZM20.7501 7C20.7501 4.92893 19.0711 3.25 17.0001 3.25V4.75C18.2427 4.75 19.2501 5.75736 19.2501 7H20.7501ZM9.56923 2.75C10.0703 2.75 10.557 2.91724 10.9522 3.2252L11.8742 2.042C11.2155 1.52873 10.4043 1.25 9.56923 1.25V2.75ZM4.75006 5C4.75006 3.75736 5.75742 2.75 7.00006 2.75V1.25C4.92899 1.25 3.25006 2.92893 3.25006 5H4.75006ZM3.47403 8.75H20.5261V7.25H3.47403V8.75ZM21.7483 10.2619L19.9443 18.681L21.411 18.9953L23.215 10.5762L21.7483 10.2619ZM16.7664 21.25H7.23372V22.75H16.7664V21.25ZM4.05586 18.681L2.25178 10.2619L0.785074 10.5762L2.58916 18.9953L4.05586 18.681ZM7.23372 21.25C5.70122 21.25 4.37696 20.1794 4.05586 18.681L2.58916 18.9953C3.05846 21.1853 4.99391 22.75 7.23372 22.75V21.25ZM19.9443 18.681C19.6231 20.1794 18.2989 21.25 16.7664 21.25V22.75C19.0062 22.75 20.9416 21.1853 21.411 18.9953L19.9443 18.681ZM20.5261 8.75C21.3219 8.75 21.9151 9.48377 21.7483 10.2619L23.215 10.5762C23.5819 8.8643 22.2769 7.25 20.5261 7.25V8.75ZM3.47403 7.25C1.72326 7.25 0.418236 8.8643 0.785074 10.5762L2.25178 10.2619C2.08503 9.48377 2.67823 8.75 3.47403 8.75V7.25Z" fill="#28303F"/>
</svg>
