<svg width="24" height="24" viewBox="0 0 24 24" fill="none" xmlns="http://www.w3.org/2000/svg">
<path d="M11.0667 3.8L10.6167 4.4L11.0667 3.8ZM12.9333 5.2L13.3833 4.6L12.9333 5.2ZM9.53033 12.4697C9.23744 12.1768 8.76256 12.1768 8.46967 12.4697C8.17678 12.7626 8.17678 13.2374 8.46967 13.5303L9.53033 12.4697ZM13.4142 14.5858L12.8839 14.0555H12.8839L13.4142 14.5858ZM15.5303 13.5303C15.8232 13.2374 15.8232 12.7626 15.5303 12.4697C15.2374 12.1768 14.7626 12.1768 14.4697 12.4697L15.5303 13.5303ZM11.25 15C11.25 15.4142 11.5858 15.75 12 15.75C12.4142 15.75 12.75 15.4142 12.75 15H11.25ZM12.75 10C12.75 9.58579 12.4142 9.25 12 9.25C11.5858 9.25 11.25 9.58579 11.25 10H12.75ZM21.25 10V17H22.75V10H21.25ZM18 20.25H6V21.75H18V20.25ZM2.75 17V7H1.25V17H2.75ZM15.3333 6.75H18V5.25H15.3333V6.75ZM6 3.75H8.66667V2.25H6V3.75ZM10.6167 4.4L12.4833 5.8L13.3833 4.6L11.5167 3.2L10.6167 4.4ZM8.66667 3.75C9.36987 3.75 10.0541 3.97808 10.6167 4.4L11.5167 3.2C10.6945 2.58334 9.69443 2.25 8.66667 2.25V3.75ZM15.3333 5.25C14.6301 5.25 13.9459 5.02192 13.3833 4.6L12.4833 5.8C13.3055 6.41665 14.3056 6.75 15.3333 6.75V5.25ZM6 20.25C4.20507 20.25 2.75 18.7949 2.75 17H1.25C1.25 19.6234 3.37665 21.75 6 21.75V20.25ZM21.25 17C21.25 18.7949 19.7949 20.25 18 20.25V21.75C20.6234 21.75 22.75 19.6234 22.75 17H21.25ZM22.75 10C22.75 7.37665 20.6234 5.25 18 5.25V6.75C19.7949 6.75 21.25 8.20507 21.25 10H22.75ZM2.75 7C2.75 5.20507 4.20507 3.75 6 3.75V2.25C3.37665 2.25 1.25 4.37665 1.25 7H2.75ZM8.46967 13.5303L10.0555 15.1161L11.1161 14.0555L9.53033 12.4697L8.46967 13.5303ZM13.9445 15.1161L15.5303 13.5303L14.4697 12.4697L12.8839 14.0555L13.9445 15.1161ZM12.75 15V10H11.25V15H12.75ZM10.0555 15.1161C11.1294 16.1901 12.8706 16.1901 13.9445 15.1161L12.8839 14.0555C12.3957 14.5436 11.6043 14.5436 11.1161 14.0555L10.0555 15.1161Z" fill="#28303F"/>
</svg>
