<svg width="24" height="24" viewBox="0 0 24 24" fill="none" xmlns="http://www.w3.org/2000/svg">
<path d="M7.53333 2.4L7.08333 3V3L7.53333 2.4ZM8.46667 3.1L8.91667 2.5V2.5L8.46667 3.1ZM15.5333 14.4L15.0833 15L15.5333 14.4ZM16 5.25C15.5858 5.25 15.25 5.58579 15.25 6C15.25 6.41421 15.5858 6.75 16 6.75V5.25ZM5.75 13C5.75 12.5858 5.41421 12.25 5 12.25C4.58579 12.25 4.25 12.5858 4.25 13H5.75ZM8 18.75C8.41421 18.75 8.75 18.4142 8.75 18C8.75 17.5858 8.41421 17.25 8 17.25V18.75ZM18.25 12.5C18.25 12.9142 18.5858 13.25 19 13.25C19.4142 13.25 19.75 12.9142 19.75 12.5H18.25ZM12.25 5.5V8H13.75V5.5H12.25ZM11 9.25H5V10.75H11V9.25ZM3.75 8V4H2.25V8H3.75ZM9.66667 4.25H11V2.75H9.66667V4.25ZM5 2.75H6.33333V1.25H5V2.75ZM7.08333 3L8.01667 3.7L8.91667 2.5L7.98333 1.8L7.08333 3ZM6.33333 2.75C6.6038 2.75 6.86696 2.83772 7.08333 3L7.98333 1.8C7.50732 1.44299 6.92835 1.25 6.33333 1.25V2.75ZM9.66667 2.75C9.3962 2.75 9.13304 2.66228 8.91667 2.5L8.01667 3.7C8.49268 4.05701 9.07165 4.25 9.66667 4.25V2.75ZM5 9.25C4.30964 9.25 3.75 8.69036 3.75 8H2.25C2.25 9.51878 3.48122 10.75 5 10.75V9.25ZM12.25 8C12.25 8.69036 11.6904 9.25 11 9.25V10.75C12.5188 10.75 13.75 9.51878 13.75 8H12.25ZM13.75 5.5C13.75 3.98122 12.5188 2.75 11 2.75V4.25C11.6904 4.25 12.25 4.80964 12.25 5.5H13.75ZM3.75 4C3.75 3.30964 4.30964 2.75 5 2.75V1.25C3.48122 1.25 2.25 2.48122 2.25 4H3.75ZM20.25 17.5V20H21.75V17.5H20.25ZM19 21.25H13V22.75H19V21.25ZM11.75 20V16H10.25V20H11.75ZM17.6667 16.25H19V14.75H17.6667V16.25ZM13 14.75H14.3333V13.25H13V14.75ZM15.0833 15L16.0167 15.7L16.9167 14.5L15.9833 13.8L15.0833 15ZM14.3333 14.75C14.6038 14.75 14.867 14.8377 15.0833 15L15.9833 13.8C15.5073 13.443 14.9284 13.25 14.3333 13.25V14.75ZM17.6667 14.75C17.3962 14.75 17.133 14.6623 16.9167 14.5L16.0167 15.7C16.4927 16.057 17.0716 16.25 17.6667 16.25V14.75ZM13 21.25C12.3096 21.25 11.75 20.6904 11.75 20H10.25C10.25 21.5188 11.4812 22.75 13 22.75V21.25ZM20.25 20C20.25 20.6904 19.6904 21.25 19 21.25V22.75C20.5188 22.75 21.75 21.5188 21.75 20H20.25ZM21.75 17.5C21.75 15.9812 20.5188 14.75 19 14.75V16.25C19.6904 16.25 20.25 16.8096 20.25 17.5H21.75ZM11.75 16C11.75 15.3096 12.3096 14.75 13 14.75V13.25C11.4812 13.25 10.25 14.4812 10.25 16H11.75ZM16 6.75H17V5.25H16V6.75ZM5.75 16V13H4.25V16H5.75ZM8 17.25H7V18.75H8V17.25ZM18.25 8V12.5H19.75V8H18.25ZM4.25 16C4.25 17.5188 5.48122 18.75 7 18.75V17.25C6.30964 17.25 5.75 16.6904 5.75 16H4.25ZM17 6.75C17.6904 6.75 18.25 7.30964 18.25 8H19.75C19.75 6.48122 18.5188 5.25 17 5.25V6.75Z" fill="#28303F"/>
</svg>
