<svg width="24" height="24" viewBox="0 0 24 24" fill="none" xmlns="http://www.w3.org/2000/svg">
<path d="M11.0667 3.8L10.6167 4.4L11.0667 3.8ZM12.9333 5.2L13.3833 4.6L12.9333 5.2ZM10.7506 9.46351C10.36 9.60128 10.155 10.0296 10.2927 10.4203C10.4305 10.8109 10.8589 11.0159 11.2495 10.8781L10.7506 9.46351ZM14.1219 13.7505C13.9841 14.1412 14.1891 14.5695 14.5798 14.7073C14.9704 14.8451 15.3987 14.6401 15.5365 14.2494L14.1219 13.7505ZM9.87818 12.2494C10.0159 11.8588 9.81095 11.4305 9.42032 11.2927C9.02969 11.1549 8.60134 11.3599 8.46357 11.7506L9.87818 12.2494ZM13.2495 16.5365C13.6401 16.3987 13.8451 15.9703 13.7074 15.5797C13.5696 15.1891 13.1412 14.9841 12.7506 15.1218L13.2495 16.5365ZM21.25 10V17H22.75V10H21.25ZM18 20.25H6V21.75H18V20.25ZM2.75 17V7H1.25V17H2.75ZM15.3333 6.75H18V5.25H15.3333V6.75ZM6 3.75H8.66667V2.25H6V3.75ZM10.6167 4.4L12.4833 5.8L13.3833 4.6L11.5167 3.2L10.6167 4.4ZM8.66667 3.75C9.36987 3.75 10.0541 3.97808 10.6167 4.4L11.5167 3.2C10.6945 2.58334 9.69443 2.25 8.66667 2.25V3.75ZM15.3333 5.25C14.6301 5.25 13.9459 5.02192 13.3833 4.6L12.4833 5.8C13.3055 6.41665 14.3056 6.75 15.3333 6.75V5.25ZM6 20.25C4.20507 20.25 2.75 18.7949 2.75 17H1.25C1.25 19.6234 3.37665 21.75 6 21.75V20.25ZM21.25 17C21.25 18.7949 19.7949 20.25 18 20.25V21.75C20.6234 21.75 22.75 19.6234 22.75 17H21.25ZM22.75 10C22.75 7.37665 20.6234 5.25 18 5.25V6.75C19.7949 6.75 21.25 8.20507 21.25 10H22.75ZM2.75 7C2.75 5.20507 4.20507 3.75 6 3.75V2.25C3.37665 2.25 1.25 4.37665 1.25 7H2.75ZM11.2495 10.8781C12.0428 10.5983 12.9588 10.7767 13.591 11.409L14.6517 10.3483C13.5958 9.29244 12.0679 8.99894 10.7506 9.46351L11.2495 10.8781ZM13.591 11.409C14.2233 12.0413 14.4017 12.9572 14.1219 13.7505L15.5365 14.2494C16.0011 12.9321 15.7076 11.4042 14.6517 10.3483L13.591 11.409ZM10.4091 14.591C9.7768 13.9587 9.5984 13.0428 9.87818 12.2494L8.46357 11.7506C7.999 13.0679 8.29251 14.5957 9.3484 15.6516L10.4091 14.591ZM12.7506 15.1218C11.9573 15.4016 11.0413 15.2232 10.4091 14.591L9.3484 15.6516C10.4043 16.7075 11.9322 17.001 13.2495 16.5365L12.7506 15.1218Z" fill="#28303F"/>
</svg>
