<svg width="24" height="24" viewBox="0 0 24 24" fill="none" xmlns="http://www.w3.org/2000/svg">
<path d="M11.2532 7.76797L10.8113 8.37398L11.2532 7.76797ZM12.7468 8.85703L13.1887 8.25102L12.7468 8.85703ZM4.25 7.53513C4.25 7.94934 4.58579 8.28513 5 8.28513C5.41421 8.28513 5.75 7.94934 5.75 7.53513H4.25ZM18.25 10.1601C18.25 10.5743 18.5858 10.9101 19 10.9101C19.4142 10.9101 19.75 10.5743 19.75 10.1601H18.25ZM20.25 13.625V18H21.75V13.625H20.25ZM17 21.25H7V22.75H17V21.25ZM3.75 18V11H2.25V18H3.75ZM15.1035 10.375H17V8.875H15.1035V10.375ZM7 7.75H8.89653V6.25H7V7.75ZM10.8113 8.37398L12.3049 9.46304L13.1887 8.25102L11.6951 7.16196L10.8113 8.37398ZM8.89653 7.75C9.58476 7.75 10.2552 7.96849 10.8113 8.37398L11.6951 7.16196C10.8823 6.56932 9.90241 6.25 8.89653 6.25V7.75ZM15.1035 8.875C14.4152 8.875 13.7448 8.65651 13.1887 8.25102L12.3049 9.46304C13.1177 10.0557 14.0976 10.375 15.1035 10.375V8.875ZM7 21.25C5.20507 21.25 3.75 19.7949 3.75 18H2.25C2.25 20.6234 4.37665 22.75 7 22.75V21.25ZM20.25 18C20.25 19.7949 18.7949 21.25 17 21.25V22.75C19.6234 22.75 21.75 20.6234 21.75 18H20.25ZM21.75 13.625C21.75 11.0016 19.6234 8.875 17 8.875V10.375C18.7949 10.375 20.25 11.8301 20.25 13.625H21.75ZM3.75 11C3.75 9.20507 5.20508 7.75 7 7.75V6.25C4.37665 6.25 2.25 8.37665 2.25 11H3.75ZM5.75 7.53513V4H4.25V7.53513H5.75ZM7 2.75H17V1.25H7V2.75ZM18.25 4V10.1601H19.75V4H18.25ZM17 2.75C17.6904 2.75 18.25 3.30964 18.25 4H19.75C19.75 2.48122 18.5188 1.25 17 1.25V2.75ZM5.75 4C5.75 3.30964 6.30964 2.75 7 2.75V1.25C5.48122 1.25 4.25 2.48122 4.25 4H5.75Z" fill="#28303F"/>
</svg>
