<svg width="24" height="24" viewBox="0 0 24 24" fill="none" xmlns="http://www.w3.org/2000/svg">
<path fill-rule="evenodd" clip-rule="evenodd" d="M4 2C2.89543 2 2 2.89543 2 4V20C2 21.1046 2.89543 22 4 22C5.10457 22 6 21.1046 6 20V16.75H8.25V17.5C8.25 17.9142 8.58579 18.25 9 18.25C9.41421 18.25 9.75 17.9142 9.75 17.5V16.75H11.25V17.5C11.25 17.9142 11.5858 18.25 12 18.25C12.4142 18.25 12.75 17.9142 12.75 17.5V16.75H18V20C18 21.1046 18.8954 22 20 22C21.1046 22 22 21.1046 22 20V4C22 2.89543 21.1046 2 20 2C18.8954 2 18 2.89543 18 4V7.25H15.75V6.5C15.75 6.08579 15.4142 5.75 15 5.75C14.5858 5.75 14.25 6.08579 14.25 6.5V7.25H12.75V6.5C12.75 6.08579 12.4142 5.75 12 5.75C11.5858 5.75 11.25 6.08579 11.25 6.5V7.25H6V4C6 2.89543 5.10457 2 4 2ZM6 8.75V15.25H8.25V14.5C8.25 14.0858 8.58579 13.75 9 13.75C9.41421 13.75 9.75 14.0858 9.75 14.5V15.25H11.25V14.5C11.25 14.0858 11.5858 13.75 12 13.75C12.4142 13.75 12.75 14.0858 12.75 14.5V15.25H18V8.75H15.75V9.5C15.75 9.91421 15.4142 10.25 15 10.25C14.5858 10.25 14.25 9.91421 14.25 9.5V8.75H12.75V9.5C12.75 9.91421 12.4142 10.25 12 10.25C11.5858 10.25 11.25 9.91421 11.25 9.5V8.75H6Z" fill="#28303F"/>
</svg>
