<svg width="24" height="24" viewBox="0 0 24 24" fill="none" xmlns="http://www.w3.org/2000/svg">
<path fill-rule="evenodd" clip-rule="evenodd" d="M20.0146 2.73961C20.4147 2.84682 20.6521 3.25807 20.5449 3.65817L20.1789 5.02419C20.0717 5.42429 19.6604 5.66173 19.2603 5.55452C18.8602 5.44732 18.6228 5.03606 18.73 4.63596L19.096 3.26994C19.2032 2.86984 19.6145 2.6324 20.0146 2.73961ZM15.8685 4.43579C15.1957 3.27045 13.5872 3.08865 12.6713 4.07441L6.22278 11.0145C6.44775 11.2186 6.64531 11.4605 6.80532 11.7377L9.30532 16.0678C9.46535 16.345 9.57612 16.6371 9.64035 16.934L18.8749 14.8194C20.1866 14.5191 20.8334 13.0352 20.1606 11.8699L15.8685 4.43579ZM7.84812 16.7271L5.34812 12.397C4.9339 11.6796 4.01652 11.4338 3.29908 11.848C2.58164 12.2622 2.33583 13.1796 2.75004 13.897L5.25004 18.2271C5.66425 18.9446 6.58164 19.1904 7.29908 18.7762C8.01652 18.362 8.26233 17.4446 7.84812 16.7271ZM13.7093 21.1467L11.8059 17.85L14.8655 17.1494L16.3074 19.6468C16.7216 20.3642 16.4758 21.2816 15.7583 21.6958C15.0409 22.11 14.1235 21.8642 13.7093 21.1467ZM21.6485 7.56981C21.2484 7.4626 20.8372 7.70004 20.73 8.10014C20.6228 8.50024 20.8602 8.91149 21.2603 9.0187L22.6263 9.38472C23.0264 9.49193 23.4377 9.25449 23.5449 8.85439C23.6521 8.45429 23.4147 8.04304 23.0146 7.93583L21.6485 7.56981Z" fill="#28303F"/>
</svg>
