<svg width="24" height="24" viewBox="0 0 24 24" fill="none" xmlns="http://www.w3.org/2000/svg">
<path fill-rule="evenodd" clip-rule="evenodd" d="M3.5 3C2.67157 3 2 3.67157 2 4.5V6.25H5V4.5C5 3.67157 4.32843 3 3.5 3ZM2 7.75V17.6667C2 18.5321 2.28071 19.3743 2.8 20.0667L3.5 21L4.2 20.0667C4.71929 19.3743 5 18.5321 5 17.6667V7.75H2ZM18 3H12C9.79086 3 8 4.79086 8 7V17C8 19.2091 9.79086 21 12 21H13C13.5523 21 14 20.5523 14 20V16C14 15.4477 14.4477 15 15 15H21C21.5523 15 22 14.5523 22 14V7C22 4.79086 20.2091 3 18 3ZM11.25 7C11.25 6.58579 11.5858 6.25 12 6.25H18C18.4142 6.25 18.75 6.58579 18.75 7C18.75 7.41421 18.4142 7.75 18 7.75H12C11.5858 7.75 11.25 7.41421 11.25 7ZM12 10.25C11.5858 10.25 11.25 10.5858 11.25 11C11.25 11.4142 11.5858 11.75 12 11.75H18C18.4142 11.75 18.75 11.4142 18.75 11C18.75 10.5858 18.4142 10.25 18 10.25H12ZM22.5645 17.4939C22.8372 17.1822 22.8056 16.7083 22.4939 16.4356C22.1822 16.1628 21.7084 16.1944 21.4356 16.5061L18.5657 19.786C18.4776 19.8867 18.3258 19.9002 18.2214 19.8166L16.4685 18.4144C16.1451 18.1556 15.6731 18.208 15.4144 18.5315C15.1556 18.8549 15.2081 19.3269 15.5315 19.5857L17.2843 20.9879C18.0156 21.5729 19.0779 21.4786 19.6946 20.7738L22.5645 17.4939Z" fill="#28303F"/>
</svg>
