<svg width="24" height="24" viewBox="0 0 24 24" fill="none" xmlns="http://www.w3.org/2000/svg">
<path fill-rule="evenodd" clip-rule="evenodd" d="M7 2C5.34315 2 4 3.34315 4 5V15.6458C4.79613 14.9333 5.84747 14.5 7 14.5H20V5C20 3.34315 18.6569 2 17 2H7ZM10 7.61803C10 6.87465 10.7823 6.39116 11.4472 6.72361L14.2111 8.10557C14.9482 8.4741 14.9482 9.5259 14.2111 9.89443L11.4472 11.2764C10.7823 11.6088 10 11.1253 10 10.382V7.61803ZM7 16C5.34315 16 4 17.3431 4 19C4 20.6569 5.34315 22 7 22H17C18.6569 22 20 20.6569 20 19V16H7Z" fill="#28303F"/>
</svg>
