<svg width="24" height="24" viewBox="0 0 24 24" fill="none" xmlns="http://www.w3.org/2000/svg">
<path fill-rule="evenodd" clip-rule="evenodd" d="M8.25 4C8.25 2.48122 9.48122 1.25 11 1.25H13C14.5188 1.25 15.75 2.48122 15.75 4V4.66591C17.6804 5.66313 19 7.67746 19 10V14.7906C16.3674 13.7791 14.198 13.25 12 13.25C9.80199 13.25 7.63261 13.7791 5 14.7906V10C5 7.67746 6.31963 5.66313 8.25 4.66591V4ZM14.25 4V4.13039C13.8468 4.04495 13.4287 4 13 4H11C10.5713 4 10.1532 4.04495 9.75 4.13039V4C9.75 3.30964 10.3096 2.75 11 2.75H13C13.6904 2.75 14.25 3.30964 14.25 4ZM12 14.75C14.0813 14.75 16.1953 15.2815 19 16.4018V18C19 20.2091 17.2091 22 15 22H9C6.79086 22 5 20.2091 5 18V16.4018C7.8047 15.2815 9.91873 14.75 12 14.75ZM11 8.25C10.5858 8.25 10.25 8.58579 10.25 9C10.25 9.41421 10.5858 9.75 11 9.75H13C13.4142 9.75 13.75 9.41421 13.75 9C13.75 8.58579 13.4142 8.25 13 8.25H11ZM2 14C2 12.8954 2.89543 12 4 12V20C2.89543 20 2 19.1046 2 18V14ZM20 12C21.1046 12 22 12.8954 22 14V18C22 19.1046 21.1046 20 20 20V12Z" fill="#28303F"/>
</svg>
