<svg width="24" height="24" viewBox="0 0 24 24" fill="none" xmlns="http://www.w3.org/2000/svg">
<path fill-rule="evenodd" clip-rule="evenodd" d="M10.5 2C13.9206 2 16.8693 4.02051 18.2177 6.93314C17.0271 7.62605 16.2268 8.91592 16.2268 10.3927C16.2268 11.901 17.0617 13.2144 18.2945 13.8959C17.0787 16.6826 14.4123 18.6912 11.2493 18.9674C11.2498 18.9782 11.25 18.9891 11.25 19V21.2242C16.0727 20.8919 20.0204 17.3787 21.0104 12.7674C20.764 12.8487 20.5005 12.8927 20.2268 12.8927C18.8461 12.8927 17.7268 11.7734 17.7268 10.3927C17.7268 9.01199 18.8461 7.8927 20.2268 7.8927C21.5795 7.8927 22.6812 8.96697 22.7254 10.3089C22.7415 10.3699 22.75 10.4339 22.75 10.5C22.75 17.2655 17.2655 22.75 10.5 22.75C10.0858 22.75 9.75 22.4142 9.75 22V19C9.75 18.9891 9.75024 18.9782 9.7507 18.9674C5.40722 18.5881 2 14.9419 2 10.5C2 5.80558 5.80558 2 10.5 2ZM10.5 9C11.3284 9 12 9.67157 12 10.5C12 11.3284 11.3284 12 10.5 12C9.67157 12 9 11.3284 9 10.5C9 9.67157 9.67157 9 10.5 9Z" fill="#28303F"/>
</svg>
