<svg width="24" height="24" viewBox="0 0 24 24" fill="none" xmlns="http://www.w3.org/2000/svg">
<path fill-rule="evenodd" clip-rule="evenodd" d="M3 8C3 5.79086 4.79086 4 7 4H17C19.2091 4 21 5.79086 21 8V18H19.3333C18.8731 18 18.5 17.6269 18.5 17.1667C18.5 16.2462 17.7538 15.5 16.8333 15.5H13.1667C12.2462 15.5 11.5 16.2462 11.5 17.1667C11.5 17.6269 11.1269 18 10.6667 18H3V8ZM6.25 8C6.25 7.58579 6.58579 7.25 7 7.25H12C12.4142 7.25 12.75 7.58579 12.75 8C12.75 8.41421 12.4142 8.75 12 8.75H7C6.58579 8.75 6.25 8.41421 6.25 8ZM13 18C13 17.4477 13.4477 17 14 17H16C16.5523 17 17 17.4477 17 18V19.25H22C22.4142 19.25 22.75 19.5858 22.75 20C22.75 20.4142 22.4142 20.75 22 20.75H2C1.58579 20.75 1.25 20.4142 1.25 20C1.25 19.5858 1.58579 19.25 2 19.25H13V18Z" fill="#28303F"/>
</svg>
