<svg width="24" height="24" viewBox="0 0 24 24" fill="none" xmlns="http://www.w3.org/2000/svg">
<path fill-rule="evenodd" clip-rule="evenodd" d="M11.0397 3.32379C11.5395 2.7241 12.4605 2.7241 12.9603 3.32379L15.1904 5.99992H8.80961L11.0397 3.32379ZM6.85705 5.99992L9.88739 2.36352C10.9868 1.04419 13.0132 1.04419 14.1126 2.36352L17.1429 5.99992H18C20.2091 5.99992 22 7.79079 22 9.99992V17.9999C22 20.2091 20.2091 21.9999 18 21.9999H6C3.79086 21.9999 2 20.2091 2 17.9999V9.99992C2 7.79079 3.79086 5.99992 6 5.99992H6.85705ZM6.25 9.99992C6.25 9.58571 6.58579 9.24992 7 9.24992H17C17.4142 9.24992 17.75 9.58571 17.75 9.99992C17.75 10.4141 17.4142 10.7499 17 10.7499H7C6.58579 10.7499 6.25 10.4141 6.25 9.99992ZM7 13.2499C6.58579 13.2499 6.25 13.5857 6.25 13.9999C6.25 14.4141 6.58579 14.7499 7 14.7499H17C17.4142 14.7499 17.75 14.4141 17.75 13.9999C17.75 13.5857 17.4142 13.2499 17 13.2499H7ZM6.25 17.9999C6.25 17.5857 6.58579 17.2499 7 17.2499H12C12.4142 17.2499 12.75 17.5857 12.75 17.9999C12.75 18.4141 12.4142 18.7499 12 18.7499H7C6.58579 18.7499 6.25 18.4141 6.25 17.9999Z" fill="#28303F"/>
</svg>
