<svg width="24" height="24" viewBox="0 0 24 24" fill="none" xmlns="http://www.w3.org/2000/svg">
<path fill-rule="evenodd" clip-rule="evenodd" d="M17 2H7C5.34315 2 4 3.34315 4 5V12.6458C4.79613 11.9333 5.84747 11.5 7 11.5H20V5C20 3.34315 18.6569 2 17 2ZM8 4.25C7.58579 4.25 7.25 4.58579 7.25 5C7.25 5.41421 7.58579 5.75 8 5.75H16C16.4142 5.75 16.75 5.41421 16.75 5C16.75 4.58579 16.4142 4.25 16 4.25H8ZM7.24992 8.50001C7.24992 8.08579 7.58571 7.75001 7.99992 7.75001H11.9999C12.4141 7.75001 12.7499 8.08579 12.7499 8.50001C12.7499 8.91422 12.4141 9.25001 11.9999 9.25001H7.99992C7.58571 9.25001 7.24992 8.91422 7.24992 8.50001ZM7 13H20V16C20 17.4865 18.9189 18.7205 17.5 18.9585V16C17.5 15.1716 16.8284 14.5 16 14.5H12C11.1716 14.5 10.5 15.1716 10.5 16V19H7C5.34315 19 4 17.6569 4 16C4 14.3431 5.34315 13 7 13ZM12 16H16V22L14 20L12 22V16Z" fill="#28303F"/>
</svg>
