<svg width="24" height="24" viewBox="0 0 24 24" fill="none" xmlns="http://www.w3.org/2000/svg">
<path fill-rule="evenodd" clip-rule="evenodd" d="M7 2H17C18.6569 2 20 3.34315 20 5V14.5H7C5.84747 14.5 4.79613 14.9333 4 15.6458V5C4 3.34315 5.34315 2 7 2ZM15.75 9C15.75 9.41421 15.4142 9.75 15 9.75L9 9.75C8.58579 9.75 8.25 9.41421 8.25 9C8.25 8.58579 8.58579 8.25 9 8.25L15 8.25C15.4142 8.25 15.75 8.58579 15.75 9ZM7 16C5.34315 16 4 17.3431 4 19C4 20.6569 5.34315 22 7 22H17C18.6569 22 20 20.6569 20 19V16H7Z" fill="#28303F"/>
</svg>
