<svg width="24" height="24" viewBox="0 0 24 24" fill="none" xmlns="http://www.w3.org/2000/svg">
<path fill-rule="evenodd" clip-rule="evenodd" d="M7 2H17C18.6569 2 20 3.34315 20 5V14.5H7C5.84747 14.5 4.79613 14.9333 4 15.6458V5C4 3.34315 5.34315 2 7 2ZM14.773 6.46967C15.0659 6.76256 15.0659 7.23744 14.773 7.53033L13.182 9.12134L14.773 10.7123C15.0659 11.0052 15.0659 11.4801 14.773 11.773C14.4801 12.0659 14.0052 12.0659 13.7123 11.773L12.1213 10.182L10.5303 11.773C10.2374 12.0659 9.76256 12.0659 9.46967 11.773C9.17678 11.4801 9.17678 11.0052 9.46967 10.7123L11.0606 9.12134L9.46967 7.53036C9.17678 7.23747 9.17678 6.7626 9.46967 6.4697C9.76256 6.17681 10.2374 6.17681 10.5303 6.4697L12.1213 8.06068L13.7123 6.46967C14.0052 6.17678 14.4801 6.17678 14.773 6.46967ZM7 16C5.34315 16 4 17.3431 4 19C4 20.6569 5.34315 22 7 22H17C18.6569 22 20 20.6569 20 19V16H7Z" fill="#28303F"/>
</svg>
