<svg width="24" height="24" viewBox="0 0 24 24" fill="none" xmlns="http://www.w3.org/2000/svg">
<path fill-rule="evenodd" clip-rule="evenodd" d="M17 2H7C5.34315 2 4 3.34315 4 5V15.6458C4.79613 14.9333 5.84747 14.5 7 14.5H20V5C20 3.34315 18.6569 2 17 2ZM10.75 7C10.75 6.30964 11.3096 5.75 12 5.75C12.6904 5.75 13.25 6.30964 13.25 7C13.25 7.69036 12.6904 8.25 12 8.25C11.5858 8.25 11.25 8.58579 11.25 9C11.25 9.41421 11.5858 9.75 12 9.75C13.5188 9.75 14.75 8.51878 14.75 7C14.75 5.48122 13.5188 4.25 12 4.25C10.4812 4.25 9.25 5.48122 9.25 7C9.25 7.41421 9.58579 7.75 10 7.75C10.4142 7.75 10.75 7.41421 10.75 7ZM13 12C13 12.5523 12.5523 13 12 13C11.4477 13 11 12.5523 11 12C11 11.4477 11.4477 11 12 11C12.5523 11 13 11.4477 13 12ZM7 15.6458C5.34315 15.6458 4 16.989 4 18.6458C4 20.3027 5.34315 21.6458 7 21.6458H17C18.6569 21.6458 20 20.3027 20 18.6458V15.6458H7Z" fill="#28303F"/>
</svg>
