<svg width="24" height="24" viewBox="0 0 24 24" fill="none" xmlns="http://www.w3.org/2000/svg">
<path fill-rule="evenodd" clip-rule="evenodd" d="M11.25 5.50845C9.13095 4.05265 6.18953 3.3897 3.99433 3.14164C2.89642 3.01758 2 3.93439 2 5.06555V16.3303C2 17.4615 2.89642 18.3786 3.99433 18.5027C6.18953 18.7507 9.13095 19.4137 11.25 20.8695V5.50845ZM12.75 20.8695C13.4409 20.3949 14.2191 20.0045 15.0305 19.6853C15.0103 19.5031 15 19.318 15 19.1304C15 16.3689 17.2386 14.1304 20 14.1304C20.7111 14.1304 21.3875 14.2788 22 14.5464V5.06555C22 3.93439 21.1036 3.01758 20.0057 3.14164C17.8105 3.3897 14.869 4.05265 12.75 5.50845V20.8695ZM4.25884 8.27023C4.32223 7.86089 4.70545 7.58045 5.11478 7.64385C6.41756 7.8456 7.88471 8.18284 9.27051 8.71873C9.65684 8.86812 9.84892 9.30242 9.69952 9.68875C9.55012 10.0751 9.11583 10.2672 8.7295 10.1178C7.47085 9.63105 6.11399 9.31647 4.88522 9.12617C4.47588 9.06278 4.19544 8.67956 4.25884 8.27023ZM5.11478 11.6438C4.70545 11.5805 4.32223 11.8609 4.25884 12.2702C4.19544 12.6796 4.47588 13.0628 4.88522 13.1262C5.50446 13.2221 6.15813 13.3498 6.81653 13.5159C7.21815 13.6173 7.62588 13.3738 7.72721 12.9722C7.82854 12.5706 7.5851 12.1628 7.18347 12.0615C6.47447 11.8826 5.77452 11.746 5.11478 11.6438ZM17.068 19.1663C16.4384 18.5367 16.4384 17.5159 17.068 16.8863C17.6976 16.2567 18.7184 16.2567 19.348 16.8863L19.4928 17.031L19.6375 16.8863C20.2671 16.2567 21.2879 16.2567 21.9175 16.8863C22.5471 17.5159 22.5471 18.5367 21.9175 19.1663L20.2426 20.8412C20.0365 21.0473 19.7627 21.1446 19.4928 21.1331C19.2228 21.1446 18.949 21.0473 18.7429 20.8412L17.068 19.1663Z" fill="#28303F"/>
</svg>
