<svg width="24" height="24" viewBox="0 0 24 24" fill="none" xmlns="http://www.w3.org/2000/svg">
<path fill-rule="evenodd" clip-rule="evenodd" d="M11.25 5.37808C9.13095 3.92228 6.18953 3.25933 3.99433 3.01127C2.89642 2.88721 2 3.80402 2 4.93518V16.2C2 17.3311 2.89642 18.2483 3.99433 18.3723C6.18953 18.6204 9.13095 19.2833 11.25 20.7391V5.37808ZM12.75 20.7391C13.4409 20.2645 14.2191 19.8742 15.0305 19.555C15.0103 19.3728 15 19.1876 15 19C15 16.2386 17.2386 14 20 14C20.7111 14 21.3875 14.1484 22 14.416V4.93518C22 3.80402 21.1036 2.88721 20.0057 3.01127C17.8105 3.25933 14.869 3.92228 12.75 5.37808V20.7391ZM4.25884 8.13986C4.32223 7.73052 4.70545 7.45008 5.11478 7.51347C6.41756 7.71523 7.88471 8.05247 9.27051 8.58836C9.65684 8.73775 9.84892 9.17205 9.69952 9.55838C9.55012 9.94471 9.11583 10.1368 8.7295 9.98739C7.47085 9.50067 6.11399 9.1861 4.88522 8.9958C4.47588 8.93241 4.19544 8.54919 4.25884 8.13986ZM5.11478 11.5135C4.70545 11.4501 4.32223 11.7305 4.25884 12.1399C4.19544 12.5492 4.47588 12.9324 4.88522 12.9958C5.50446 13.0917 6.15813 13.2195 6.81653 13.3856C7.21815 13.4869 7.62588 13.2435 7.72721 12.8418C7.82854 12.4402 7.5851 12.0325 7.18347 11.9311C6.47447 11.7523 5.77452 11.6156 5.11478 11.5135ZM22 18.75C22.4142 18.75 22.75 18.4142 22.75 18C22.75 17.5858 22.4142 17.25 22 17.25H18C17.5858 17.25 17.25 17.5858 17.25 18C17.25 18.4142 17.5858 18.75 18 18.75H22Z" fill="#28303F"/>
</svg>
