<svg width="24" height="24" viewBox="0 0 24 24" fill="none" xmlns="http://www.w3.org/2000/svg">
<path fill-rule="evenodd" clip-rule="evenodd" d="M1.25 3.75C1.25 3.33579 1.58579 3 2 3H4H15C16.6569 3 18 4.34315 18 6C18 7.65685 16.6569 9 15 9H20H22C22.4142 9 22.75 9.33579 22.75 9.75C22.75 10.1642 22.4142 10.5 22 10.5H20V13.5H22C22.4142 13.5 22.75 13.8358 22.75 14.25C22.75 14.6642 22.4142 15 22 15H20H15C16.6569 15 18 16.3431 18 18C18 19.6569 16.6569 21 15 21H4H2C1.58579 21 1.25 20.6642 1.25 20.25C1.25 19.8358 1.58579 19.5 2 19.5H4V16.5H2C1.58579 16.5 1.25 16.1642 1.25 15.75C1.25 15.3358 1.58579 15 2 15H4H9C7.34315 15 6 13.6569 6 12C6 10.3431 7.34315 9 9 9H4H2C1.58579 9 1.25 8.66421 1.25 8.25C1.25 7.83579 1.58579 7.5 2 7.5H4V4.5H2C1.58579 4.5 1.25 4.16421 1.25 3.75Z" fill="#28303F"/>
</svg>
