<svg width="24" height="24" viewBox="0 0 24 24" fill="none" xmlns="http://www.w3.org/2000/svg">
<path fill-rule="evenodd" clip-rule="evenodd" d="M3.99433 3.01127C6.18953 3.25933 9.13095 3.92228 11.25 5.37808V20.7391C9.13095 19.2833 6.18953 18.6204 3.99433 18.3723C2.89642 18.2483 2 17.3311 2 16.2V4.93518C2 3.80402 2.89642 2.88721 3.99433 3.01127ZM15.0305 19.555C14.2191 19.8742 13.4409 20.2645 12.75 20.7391V5.37808C14.869 3.92228 17.8105 3.25933 20.0057 3.01127C21.1036 2.88721 22 3.80402 22 4.93518V14.416C21.3875 14.1484 20.7111 14 20 14C17.2386 14 15 16.2386 15 19C15 19.1876 15.0103 19.3728 15.0305 19.555ZM5.11478 7.51347C4.70545 7.45008 4.32223 7.73052 4.25884 8.13986C4.19544 8.54919 4.47588 8.93241 4.88522 8.9958C6.11399 9.1861 7.47085 9.50067 8.7295 9.98739C9.11583 10.1368 9.55012 9.94471 9.69952 9.55838C9.84892 9.17205 9.65684 8.73775 9.27051 8.58836C7.88471 8.05247 6.41756 7.71523 5.11478 7.51347ZM4.25884 12.1399C4.32223 11.7305 4.70545 11.4501 5.11478 11.5135C5.77452 11.6156 6.47447 11.7523 7.18347 11.9311C7.5851 12.0325 7.82854 12.4402 7.72721 12.8418C7.62588 13.2435 7.21815 13.4869 6.81653 13.3856C6.15813 13.2195 5.50446 13.0917 4.88522 12.9958C4.47588 12.9324 4.19544 12.5492 4.25884 12.1399ZM19 18.25C19.4142 18.25 19.75 18.5858 19.75 19V22C19.75 22.4142 19.4142 22.75 19 22.75C18.5858 22.75 18.25 22.4142 18.25 22V19C18.25 18.5858 18.5858 18.25 19 18.25ZM19 17C19.5523 17 20 16.5523 20 16C20 15.4477 19.5523 15 19 15C18.4477 15 18 15.4477 18 16C18 16.5523 18.4477 17 19 17Z" fill="#28303F"/>
</svg>
