<svg width="24" height="24" viewBox="0 0 24 24" fill="none" xmlns="http://www.w3.org/2000/svg">
<path fill-rule="evenodd" clip-rule="evenodd" d="M7 2H17C18.6569 2 20 3.34315 20 5V14.5H7C5.84747 14.5 4.79613 14.9333 4 15.6458V5C4 3.34315 5.34315 2 7 2ZM15.4939 6.43557C15.8056 6.70833 15.8372 7.18215 15.5644 7.49388L12.6945 10.7738C12.0778 11.4786 11.0156 11.5729 10.2843 10.9879L8.53148 9.58565C8.20803 9.32689 8.15559 8.85493 8.41435 8.53148C8.67311 8.20803 9.14507 8.15559 9.46852 8.41435L11.2213 9.81661C11.3258 9.90018 11.4776 9.8867 11.5657 9.78601L14.4356 6.50612C14.7083 6.19439 15.1822 6.16281 15.4939 6.43557ZM7 16C5.34315 16 4 17.3431 4 19C4 20.6569 5.34315 22 7 22H17C18.6569 22 20 20.6569 20 19V16H7Z" fill="#28303F"/>
</svg>
