<svg width="24" height="24" viewBox="0 0 24 24" fill="none" xmlns="http://www.w3.org/2000/svg">
<path fill-rule="evenodd" clip-rule="evenodd" d="M11.25 4.37808C9.13095 2.92228 6.18953 2.25933 3.99433 2.01127C2.89642 1.88721 2 2.80402 2 3.93518V15.2C2 16.3311 2.89642 17.2483 3.99433 17.3723C6.18953 17.6204 9.13095 18.2833 11.25 19.7391V4.37808ZM12.75 19.7391C13.4409 19.2645 14.2191 18.8742 15.0305 18.555C15.0103 18.3728 15 18.1876 15 18C15 15.2386 17.2386 13 20 13C20.7111 13 21.3875 13.1484 22 13.416V3.93518C22 2.80402 21.1036 1.88721 20.0057 2.01127C17.8105 2.25933 14.869 2.92228 12.75 4.37808V19.7391ZM4.25884 7.13986C4.32223 6.73052 4.70545 6.45008 5.11478 6.51347C6.41756 6.71523 7.88471 7.05247 9.27051 7.58836C9.65684 7.73775 9.84892 8.17205 9.69952 8.55838C9.55012 8.94471 9.11583 9.13679 8.7295 8.98739C7.47085 8.50067 6.11399 8.1861 4.88522 7.9958C4.47588 7.93241 4.19544 7.54919 4.25884 7.13986ZM5.11478 10.5135C4.70545 10.4501 4.32223 10.7305 4.25884 11.1399C4.19544 11.5492 4.47588 11.9324 4.88522 11.9958C5.50446 12.0917 6.15813 12.2195 6.81653 12.3856C7.21815 12.4869 7.62588 12.2435 7.72721 11.8418C7.82854 11.4402 7.5851 11.0325 7.18347 10.9311C6.47447 10.7523 5.77452 10.6156 5.11478 10.5135ZM17.75 17C17.75 16.3096 18.3096 15.75 19 15.75C19.6904 15.75 20.25 16.3096 20.25 17C20.25 17.6904 19.6904 18.25 19 18.25C18.3096 18.25 17.75 17.6904 17.75 17ZM19 14.25C17.4812 14.25 16.25 15.4812 16.25 17C16.25 18.5188 17.4812 19.75 19 19.75C19.4869 19.75 19.9442 19.6235 20.3409 19.4015L20.9697 20.0303C21.2626 20.3232 21.7374 20.3232 22.0303 20.0303C22.3232 19.7374 22.3232 19.2626 22.0303 18.9697L21.4015 18.3409C21.6235 17.9442 21.75 17.4869 21.75 17C21.75 15.4812 20.5188 14.25 19 14.25Z" fill="#28303F"/>
</svg>
