<svg width="24" height="24" viewBox="0 0 24 24" fill="none" xmlns="http://www.w3.org/2000/svg">
<path fill-rule="evenodd" clip-rule="evenodd" d="M11.25 5.37808C9.13095 3.92228 6.18953 3.25933 3.99433 3.01127C2.89642 2.88721 2 3.80402 2 4.93518V16.2C2 17.3311 2.89642 18.2483 3.99433 18.3723C6.18953 18.6204 9.13095 19.2833 11.25 20.7391V5.37808ZM12.75 20.7391C13.4409 20.2645 14.2191 19.8742 15.0305 19.555C15.0103 19.3728 15 19.1876 15 19C15 16.2386 17.2386 14 20 14C20.7111 14 21.3875 14.1484 22 14.416V4.93518C22 3.80402 21.1036 2.88721 20.0057 3.01127C17.8105 3.25933 14.869 3.92228 12.75 5.37808V20.7391ZM4.25884 8.13986C4.32223 7.73052 4.70545 7.45008 5.11478 7.51347C6.41756 7.71523 7.88471 8.05247 9.27051 8.58836C9.65684 8.73775 9.84892 9.17205 9.69952 9.55838C9.55012 9.94471 9.11583 10.1368 8.7295 9.98739C7.47085 9.50067 6.11399 9.1861 4.88522 8.9958C4.47588 8.93241 4.19544 8.54919 4.25884 8.13986ZM5.11478 11.5135C4.70545 11.4501 4.32223 11.7305 4.25884 12.1399C4.19544 12.5492 4.47588 12.9324 4.88522 12.9958C5.50446 13.0917 6.15813 13.2195 6.81653 13.3856C7.21815 13.4869 7.62588 13.2435 7.72721 12.8418C7.82854 12.4402 7.5851 12.0325 7.18347 11.9311C6.47447 11.7523 5.77452 11.6156 5.11478 11.5135ZM20.4697 20.5303C20.7626 20.8232 21.2374 20.8232 21.5303 20.5303C21.8232 20.2374 21.8232 19.7626 21.5303 19.4697L20.5606 18.5L21.5303 17.5303C21.8232 17.2374 21.8232 16.7626 21.5303 16.4697C21.2374 16.1768 20.7625 16.1768 20.4696 16.4697L19.5 17.4393L18.5304 16.4697C18.2375 16.1768 17.7626 16.1768 17.4697 16.4697C17.1768 16.7626 17.1768 17.2374 17.4697 17.5303L18.4393 18.5L17.4697 19.4697C17.1768 19.7626 17.1768 20.2374 17.4697 20.5303C17.7626 20.8232 18.2374 20.8232 18.5303 20.5303L19.5 19.5607L20.4697 20.5303Z" fill="#28303F"/>
</svg>
