<svg width="24" height="24" viewBox="0 0 24 24" fill="none" xmlns="http://www.w3.org/2000/svg">
<path fill-rule="evenodd" clip-rule="evenodd" d="M7 2H17C18.6569 2 20 3.34315 20 5V14.5H7C5.84747 14.5 4.79613 14.9333 4 15.6458V5C4 3.34315 5.34315 2 7 2ZM12.75 10.1892L13.4697 9.46958C13.7626 9.17668 14.2374 9.17668 14.5303 9.46958C14.8232 9.76247 14.8232 10.2373 14.5303 10.5302L13.2374 11.8231C12.554 12.5065 11.446 12.5065 10.7626 11.8231L9.46967 10.5302C9.17678 10.2373 9.17678 9.76247 9.46967 9.46958C9.76256 9.17668 10.2374 9.17668 10.5303 9.46958L11.25 10.1892V5.99991C11.25 5.58569 11.5858 5.24991 12 5.24991C12.4142 5.24991 12.75 5.58569 12.75 5.99991V10.1892ZM7 16C5.34315 16 4 17.3431 4 19C4 20.6569 5.34315 22 7 22H17C18.6569 22 20 20.6569 20 19V16H7Z" fill="#28303F"/>
</svg>
