<svg width="24" height="24" viewBox="0 0 24 24" fill="none" xmlns="http://www.w3.org/2000/svg">
<path fill-rule="evenodd" clip-rule="evenodd" d="M7 2H17C18.6569 2 20 3.34315 20 5V14.5H7C5.84747 14.5 4.79613 14.9333 4 15.6458V5C4 3.34315 5.34315 2 7 2ZM12.221 7.43067L12 7.65164L11.779 7.43067C11.1688 6.82047 10.1795 6.82047 9.56932 7.43067C8.95913 8.04086 8.95913 9.03018 9.56932 9.64038L11.1161 11.1872C11.6043 11.6753 12.3957 11.6753 12.8839 11.1872L14.4307 9.64038C15.0409 9.03018 15.0409 8.04086 14.4307 7.43067C13.8205 6.82047 12.8312 6.82047 12.221 7.43067ZM7 16C5.34315 16 4 17.3431 4 19C4 20.6569 5.34315 22 7 22H17C18.6569 22 20 20.6569 20 19V16H7Z" fill="#28303F"/>
</svg>
