<svg width="24" height="24" viewBox="0 0 24 24" fill="none" xmlns="http://www.w3.org/2000/svg">
<path fill-rule="evenodd" clip-rule="evenodd" d="M17 2H7C5.34315 2 4 3.34315 4 5V15.6458C4.79613 14.9333 5.84747 14.5 7 14.5H20V5C20 3.34315 18.6569 2 17 2ZM9.75 8C9.75 6.75736 10.7574 5.75 12 5.75C13.2426 5.75 14.25 6.75736 14.25 8C14.25 9.24264 13.2426 10.25 12 10.25C10.7574 10.25 9.75 9.24264 9.75 8ZM12 4.25C9.92893 4.25 8.25 5.92893 8.25 8C8.25 10.0711 9.92893 11.75 12 11.75C12.7643 11.75 13.4752 11.5213 14.068 11.1287L14.9697 12.0303C15.2626 12.3232 15.7374 12.3232 16.0303 12.0303C16.3232 11.7374 16.3232 11.2626 16.0303 10.9697L15.1287 10.068C15.5213 9.47522 15.75 8.76431 15.75 8C15.75 5.92893 14.0711 4.25 12 4.25ZM7 16C5.34315 16 4 17.3431 4 19C4 20.6569 5.34315 22 7 22H17C18.6569 22 20 20.6569 20 19V16H7Z" fill="#28303F"/>
</svg>
