<svg width="24" height="24" viewBox="0 0 24 24" fill="none" xmlns="http://www.w3.org/2000/svg">
<path fill-rule="evenodd" clip-rule="evenodd" d="M6.39603 4.00751C7.8564 4.16468 9.78855 4.57166 11.25 5.44474V15.6854C9.78855 14.8124 7.8564 14.4054 6.39603 14.2482C5.6275 14.1655 5 13.5541 5 12.8V5.29012C5 4.53602 5.6275 3.92481 6.39603 4.00751ZM17.604 14.2482C16.1436 14.4054 14.2114 14.8124 12.75 15.6854V5.44474C14.2114 4.57166 16.1436 4.16468 17.604 4.00751C18.3725 3.92481 19 4.53602 19 5.29012V12.8C19 13.5541 18.3725 14.1655 17.604 14.2482ZM2 11.9999C2 10.7367 2.58554 9.61026 3.5 8.8772V12.7999C3.5 14.4376 4.82763 15.588 6.23553 15.7396C7.71117 15.8984 9.50618 16.3152 10.6891 17.1046C11.479 17.6317 12.521 17.6317 13.3109 17.1046C14.4938 16.3152 16.2888 15.8984 17.7645 15.7396C19.1724 15.588 20.5 14.4376 20.5 12.7999V8.8772C21.4145 9.61026 22 10.7367 22 11.9999V15.9999C22 18.209 20.2091 19.9999 18 19.9999H6C3.79086 19.9999 2 18.209 2 15.9999V11.9999Z" fill="#28303F"/>
</svg>
