<svg width="24" height="24" viewBox="0 0 24 24" fill="none" xmlns="http://www.w3.org/2000/svg">
<path fill-rule="evenodd" clip-rule="evenodd" d="M5.09451 4.25C5.42755 2.95608 6.60212 2 8 2H16C17.3979 2 18.5725 2.95608 18.9055 4.25H12L5.09451 4.25ZM5 5.75V10.5H11.25V5.75H5ZM19 5.75V10.5H12.75V5.75H19ZM19 5.75V4.25H20C21.5188 4.25 22.75 5.48122 22.75 7V8C22.75 8.41421 22.4142 8.75 22 8.75C21.5858 8.75 21.25 8.41421 21.25 8V7C21.25 6.30964 20.6904 5.75 20 5.75H19ZM2.75 7C2.75 6.30964 3.30964 5.75 4 5.75L5 5.75V4.25H4C2.48122 4.25 1.25 5.48122 1.25 7V8C1.25 8.41421 1.58579 8.75 2 8.75C2.41421 8.75 2.75 8.41421 2.75 8V7ZM5 12C3.89543 12 3 12.8954 3 14V16C3 17.1046 3.89543 18 5 18H19C20.1046 18 21 17.1046 21 16V14C21 12.8954 20.1046 12 19 12H5ZM6 21V19.5H10V21C10 21.5523 9.55228 22 9 22H7C6.44772 22 6 21.5523 6 21ZM14 19.5V21C14 21.5523 14.4477 22 15 22H17C17.5523 22 18 21.5523 18 21V19.5H14Z" fill="#28303F"/>
</svg>
