<svg width="24" height="24" viewBox="0 0 24 24" fill="none" xmlns="http://www.w3.org/2000/svg">
<path fill-rule="evenodd" clip-rule="evenodd" d="M11.25 2H6C3.79086 2 2 3.79086 2 6V11.25H11.25V2ZM2 12.75V18C2 20.2091 3.79086 22 6 22H11.25V12.75H2ZM12.75 22H18C20.2091 22 22 20.2091 22 18V12.75H12.75V22ZM22 11.25V6C22 3.79086 20.2091 2 18 2H12.75V11.25H22ZM19.75 15.5C19.75 15.9142 19.4142 16.25 19 16.25H15.5C15.0858 16.25 14.75 15.9142 14.75 15.5C14.75 15.0858 15.0858 14.75 15.5 14.75H19C19.4142 14.75 19.75 15.0858 19.75 15.5ZM19 19.25C19.4142 19.25 19.75 18.9142 19.75 18.5C19.75 18.0858 19.4142 17.75 19 17.75H15.5C15.0858 17.75 14.75 18.0858 14.75 18.5C14.75 18.9142 15.0858 19.25 15.5 19.25H19Z" fill="#28303F"/>
</svg>
