<svg width="24" height="24" viewBox="0 0 24 24" fill="none" xmlns="http://www.w3.org/2000/svg">
<path fill-rule="evenodd" clip-rule="evenodd" d="M12 1.25C12.4142 1.25 12.75 1.58579 12.75 2V3H17C18.6569 3 20 4.34315 20 6V15C20 16.588 18.7662 17.8878 17.205 17.9931L18.6963 21.7214C18.8501 22.106 18.6631 22.5425 18.2785 22.6963C17.8939 22.8501 17.4574 22.6631 17.3036 22.2785L15.5922 18H12.75V21C12.75 21.4142 12.4142 21.75 12 21.75C11.5858 21.75 11.25 21.4142 11.25 21V18H8.40771L6.69631 22.2785C6.54248 22.6631 6.106 22.8501 5.72141 22.6963C5.33682 22.5425 5.14976 22.106 5.3036 21.7214L6.79492 17.9931C5.23372 17.8877 4 16.5879 4 15V6C4 4.34315 5.34315 3 7 3H11.25V2C11.25 1.58579 11.5858 1.25 12 1.25Z" fill="#28303F"/>
</svg>
