<svg width="24" height="24" viewBox="0 0 24 24" fill="none" xmlns="http://www.w3.org/2000/svg">
<path fill-rule="evenodd" clip-rule="evenodd" d="M10.25 2C10.25 1.58579 10.5858 1.25 11 1.25H13C13.4142 1.25 13.75 1.58579 13.75 2C13.75 2.41421 13.4142 2.75 13 2.75H12.75V6.75H13C13.4142 6.75 13.75 7.08579 13.75 7.5C13.75 7.91421 13.4142 8.25 13 8.25H12.75V11.25H15.75V11C15.75 10.5858 16.0858 10.25 16.5 10.25C16.9142 10.25 17.25 10.5858 17.25 11V11.25H21.25V11C21.25 10.5858 21.5858 10.25 22 10.25C22.4142 10.25 22.75 10.5858 22.75 11V13C22.75 13.4142 22.4142 13.75 22 13.75C21.5858 13.75 21.25 13.4142 21.25 13V12.75H17.25V13C17.25 13.4142 16.9142 13.75 16.5 13.75C16.0858 13.75 15.75 13.4142 15.75 13V12.75H12.75V15.75H13C13.4142 15.75 13.75 16.0858 13.75 16.5C13.75 16.9142 13.4142 17.25 13 17.25H12.75V21.25H13C13.4142 21.25 13.75 21.5858 13.75 22C13.75 22.4142 13.4142 22.75 13 22.75H11C10.5858 22.75 10.25 22.4142 10.25 22C10.25 21.5858 10.5858 21.25 11 21.25H11.25V17.25H11C10.5858 17.25 10.25 16.9142 10.25 16.5C10.25 16.0858 10.5858 15.75 11 15.75H11.25V12.75H8.25V13C8.25 13.4142 7.91421 13.75 7.5 13.75C7.08579 13.75 6.75 13.4142 6.75 13V12.75H2.75V13C2.75 13.4142 2.41421 13.75 2 13.75C1.58579 13.75 1.25 13.4142 1.25 13V11C1.25 10.5858 1.58579 10.25 2 10.25C2.41421 10.25 2.75 10.5858 2.75 11V11.25H6.75V11C6.75 10.5858 7.08579 10.25 7.5 10.25C7.91421 10.25 8.25 10.5858 8.25 11V11.25H11.25V8.25H11C10.5858 8.25 10.25 7.91421 10.25 7.5C10.25 7.08579 10.5858 6.75 11 6.75H11.25V2.75H11C10.5858 2.75 10.25 2.41421 10.25 2ZM5.46967 1.46967C5.76256 1.17678 6.23744 1.17678 6.53033 1.46967L7 1.93934L7.46967 1.46967C7.76256 1.17678 8.23744 1.17678 8.53033 1.46967C8.82322 1.76256 8.82322 2.23744 8.53033 2.53033L7.75 3.31066V4C7.75 4.41421 7.41421 4.75 7 4.75C6.58579 4.75 6.25 4.41421 6.25 4V3.31066L5.46967 2.53033C5.17678 2.23744 5.17678 1.76256 5.46967 1.46967ZM20.5303 15.4697C20.2374 15.1768 19.7626 15.1768 19.4697 15.4697C19.1768 15.7626 19.1768 16.2374 19.4697 16.5303L19.9393 17L19.4697 17.4697C19.1768 17.7626 19.1768 18.2374 19.4697 18.5303C19.7626 18.8232 20.2374 18.8232 20.5303 18.5303L21 18.0607L21.4697 18.5303C21.7626 18.8232 22.2374 18.8232 22.5303 18.5303C22.8232 18.2374 22.8232 17.7626 22.5303 17.4697L22.0607 17L22.5303 16.5303C22.8232 16.2374 22.8232 15.7626 22.5303 15.4697C22.2374 15.1768 21.7626 15.1768 21.4697 15.4697L21 15.9393L20.5303 15.4697Z" fill="#28303F"/>
</svg>
