<svg width="24" height="24" viewBox="0 0 24 24" fill="none" xmlns="http://www.w3.org/2000/svg">
<path fill-rule="evenodd" clip-rule="evenodd" d="M10 2C8.89543 2 8 2.89543 8 4C8 5.10457 8.89543 6 10 6H14C15.1046 6 16 5.10457 16 4C16 2.89543 15.1046 2 14 2H10ZM6.50013 4.03101C4.52691 4.277 3 5.96022 3 8.00008V18.0001C3 20.2092 4.79086 22.0001 7 22.0001H17C19.2091 22.0001 21 20.2092 21 18.0001V8.00008C21 5.96022 19.4731 4.277 17.4999 4.03101C17.4833 5.94976 15.9227 7.50008 14 7.50008H10C8.07732 7.50008 6.51674 5.94976 6.50013 4.03101ZM7.25 10C7.25 9.58579 7.58579 9.25 8 9.25H16C16.4142 9.25 16.75 9.58579 16.75 10C16.75 10.4142 16.4142 10.75 16 10.75H8C7.58579 10.75 7.25 10.4142 7.25 10ZM8 13.25C7.58579 13.25 7.25 13.5858 7.25 14C7.25 14.4142 7.58579 14.75 8 14.75H16C16.4142 14.75 16.75 14.4142 16.75 14C16.75 13.5858 16.4142 13.25 16 13.25H8ZM7.25 18C7.25 17.5858 7.58579 17.25 8 17.25H12C12.4142 17.25 12.75 17.5858 12.75 18C12.75 18.4142 12.4142 18.75 12 18.75H8C7.58579 18.75 7.25 18.4142 7.25 18Z" fill="#28303F"/>
</svg>
