<svg width="24" height="24" viewBox="0 0 24 24" fill="none" xmlns="http://www.w3.org/2000/svg">
<path fill-rule="evenodd" clip-rule="evenodd" d="M12 1.25C12.4142 1.25 12.75 1.58579 12.75 2.00001L12.75 4.10919C14.108 4.43585 15.1149 5.62947 15.1149 7.05194C15.1149 7.61917 14.9548 8.15002 14.6761 8.60401C14.1393 9.47865 13.1626 10.068 12.0432 10.0828L12.0001 10.0831L11.9568 10.0828C10.8375 10.068 9.86074 9.47861 9.32396 8.60395C9.04535 8.14997 8.88525 7.61915 8.88525 7.05194C8.88525 5.6295 9.89206 4.43591 11.25 4.10921L11.25 1.99999C11.25 1.58578 11.5858 1.25 12 1.25ZM8.49558 10.0002L5.9743 14.25H3C2.58579 14.25 2.25 14.5858 2.25 15C2.25 15.4142 2.58579 15.75 3 15.75H5.08438L3.55641 18.3255C3.10711 19.0828 2.92234 19.9615 3.02982 20.8297L3.0939 21.3473C3.13453 21.6754 3.47674 21.8745 3.78204 21.7476L4.28866 21.537C5.11503 21.1935 5.80461 20.5984 6.25391 19.8411L8.68105 15.75H15.319L17.7461 19.8411C18.1954 20.5984 18.885 21.1935 19.7113 21.537L20.218 21.7476C20.5233 21.8745 20.8655 21.6754 20.9061 21.3473L20.9702 20.8297C21.0777 19.9615 20.8929 19.0828 20.4436 18.3255L18.9156 15.75H21C21.4142 15.75 21.75 15.4142 21.75 15C21.75 14.5858 21.4142 14.25 21 14.25H18.0257L15.5045 10.0003C14.8218 10.782 13.8748 11.329 12.8059 11.5141L14.429 14.25H9.57097L11.1941 11.5141C10.1252 11.329 9.17823 10.7819 8.49558 10.0002Z" fill="#28303F"/>
</svg>
