<svg width="24" height="24" viewBox="0 0 24 24" fill="none" xmlns="http://www.w3.org/2000/svg">
<path fill-rule="evenodd" clip-rule="evenodd" d="M7.5 4C7.5 2.89543 8.39543 2 9.5 2H14.5C15.6046 2 16.5 2.89543 16.5 4V9C16.5 10.1046 15.6046 11 14.5 11H9.5C8.39543 11 7.5 10.1046 7.5 9V4ZM12.3942 4.03283C12.6153 4.16949 12.7499 4.41089 12.7499 4.67082V7.92082H12.9999C13.4141 7.92082 13.7499 8.25661 13.7499 8.67082C13.7499 9.08503 13.4141 9.42082 12.9999 9.42082H10.9999C10.5857 9.42082 10.2499 9.08503 10.2499 8.67082C10.2499 8.25661 10.5857 7.92082 10.9999 7.92082H11.2499V5.87801C10.8981 6.00287 10.5003 5.84865 10.3291 5.50623C10.1439 5.13575 10.294 4.68524 10.6645 4.5L11.6645 4C11.897 3.88375 12.1731 3.89618 12.3942 4.03283ZM2 15C2 13.8954 2.89543 13 4 13H9C10.1046 13 11 13.8954 11 15V20C11 21.1046 10.1046 22 9 22H4C2.89543 22 2 21.1046 2 20V15ZM13 15C13 13.8954 13.8954 13 15 13H20C21.1046 13 22 13.8954 22 15V20C22 21.1046 21.1046 22 20 22H15C13.8954 22 13 21.1046 13 20V15Z" fill="#28303F"/>
</svg>
