<svg width="24" height="24" viewBox="0 0 24 24" fill="none" xmlns="http://www.w3.org/2000/svg">
<path fill-rule="evenodd" clip-rule="evenodd" d="M9 2C7.89543 2 7 2.89543 7 4V7H17V4C17 2.89543 16.1046 2 15 2H9ZM1.25 9.25C1.25 8.83579 1.58579 8.5 2 8.5H22C22.4142 8.5 22.75 8.83579 22.75 9.25C22.75 9.66421 22.4142 10 22 10H21V16C21 16.3516 20.9093 16.6819 20.75 16.969V22C20.75 22.4142 20.4142 22.75 20 22.75C19.5858 22.75 19.25 22.4142 19.25 22V17.9845C19.1681 17.9947 19.0847 18 19 18H17.75V20C17.75 20.4142 17.4142 20.75 17 20.75C16.5858 20.75 16.25 20.4142 16.25 20V18H7.75V20C7.75 20.4142 7.41421 20.75 7 20.75C6.58579 20.75 6.25 20.4142 6.25 20V18H5C4.91533 18 4.8319 17.9947 4.75 17.9845V22C4.75 22.4142 4.41421 22.75 4 22.75C3.58579 22.75 3.25 22.4142 3.25 22V16.969C3.09071 16.6819 3 16.3516 3 16V10H2C1.58579 10 1.25 9.66421 1.25 9.25Z" fill="#28303F"/>
</svg>
