<svg width="24" height="24" viewBox="0 0 24 24" fill="none" xmlns="http://www.w3.org/2000/svg">
<path fill-rule="evenodd" clip-rule="evenodd" d="M20 6V14C20 16.1984 18.2266 17.9825 16.0323 17.9999C16.3317 17.3974 16.5 16.7184 16.5 16C16.5 13.5147 14.4853 11.5 12 11.5C9.51472 11.5 7.5 13.5147 7.5 16C7.5 16.7184 7.66833 17.3974 7.9677 17.9999C5.77343 17.9825 4 16.1984 4 14V6C4 3.79086 5.79086 2 8 2H16C18.2091 2 20 3.79086 20 6ZM7.25 6C7.25 5.58579 7.58579 5.25 8 5.25H16C16.4142 5.25 16.75 5.58579 16.75 6C16.75 6.41421 16.4142 6.75 16 6.75H8C7.58579 6.75 7.25 6.41421 7.25 6ZM8 8.25C7.58579 8.25 7.25 8.58579 7.25 9C7.25 9.41421 7.58579 9.75 8 9.75H12C12.4142 9.75 12.75 9.41421 12.75 9C12.75 8.58579 12.4142 8.25 12 8.25H8ZM14 18.2361C14.6137 17.6868 15 16.8885 15 16C15 14.3431 13.6569 13 12 13C10.3431 13 9 14.3431 9 16C9 16.8885 9.38625 17.6868 10 18.2361V22L12 21L14 22V18.2361Z" fill="#28303F"/>
</svg>
