<svg width="24" height="24" viewBox="0 0 24 24" fill="none" xmlns="http://www.w3.org/2000/svg">
<path fill-rule="evenodd" clip-rule="evenodd" d="M22 15V5C22 3.89543 21.1046 3 20 3H4C2.89543 3 2 3.89543 2 5V15C2 16.1046 2.89543 17 4 17H9.5H10.9682C10.6688 16.3976 10.5 15.7182 10.5 15C10.5 12.5147 12.5147 10.5 15 10.5C17.4853 10.5 19.5 12.5147 19.5 15C19.5 15.7182 19.3312 16.3976 19.0318 17H20C21.1046 17 22 16.1046 22 15ZM5.25 7C5.25 6.58579 5.58579 6.25 6 6.25H18C18.4142 6.25 18.75 6.58579 18.75 7C18.75 7.41421 18.4142 7.75 18 7.75H6C5.58579 7.75 5.25 7.41421 5.25 7ZM6 10.25C5.58579 10.25 5.25 10.5858 5.25 11C5.25 11.4142 5.58579 11.75 6 11.75H9C9.41421 11.75 9.75 11.4142 9.75 11C9.75 10.5858 9.41421 10.25 9 10.25H6ZM18 15C18 15.8885 17.6137 16.6868 17 17.2361V21L15 20L13 21V17.2361C12.3863 16.6868 12 15.8885 12 15C12 13.3431 13.3431 12 15 12C16.6569 12 18 13.3431 18 15Z" fill="#28303F"/>
</svg>
