<svg width="24" height="24" viewBox="0 0 24 24" fill="none" xmlns="http://www.w3.org/2000/svg">
<path fill-rule="evenodd" clip-rule="evenodd" d="M8.79773 2.00438C9.45887 2.07702 10.4409 2.27285 11.25 2.60733V8.60308C10.4409 8.26116 9.45887 8.05076 8.79773 7.97813C8.35857 7.92988 8 7.57321 8 7.13331V2.75257C8 2.31268 8.35857 1.95614 8.79773 2.00438ZM15.2023 7.97813C14.5411 8.05076 13.5591 8.26116 12.75 8.60308V2.60733C13.5591 2.27285 14.5411 2.07702 15.2023 2.00438C15.6414 1.95614 16 2.31268 16 2.75257V7.13331C16 7.57321 15.6414 7.92988 15.2023 7.97813ZM6.5 5H5C3.89543 5 3 5.89543 3 7V17C3 18.1046 3.89543 19 5 19H11.25V21.25H9C8.58579 21.25 8.25 21.5858 8.25 22C8.25 22.4142 8.58579 22.75 9 22.75H15C15.4142 22.75 15.75 22.4142 15.75 22C15.75 21.5858 15.4142 21.25 15 21.25H12.75V19H19C20.1046 19 21 18.1046 21 17V7C21 5.89543 20.1046 5 19 5H17.5V7.13327C17.5 8.43176 16.4689 9.34795 15.3661 9.46911C15.0106 9.50816 14.5087 9.60156 14.0087 9.74804C13.491 9.89971 13.0827 10.0774 12.8445 10.2396C12.335 10.5867 11.665 10.5867 11.1555 10.2396C10.9173 10.0774 10.509 9.89971 9.99132 9.74804C9.49134 9.60156 8.98943 9.50816 8.63393 9.46911C7.53107 9.34795 6.5 8.43176 6.5 7.13327V5Z" fill="#28303F"/>
</svg>
