<svg width="24" height="24" viewBox="0 0 24 24" fill="none" xmlns="http://www.w3.org/2000/svg">
<path fill-rule="evenodd" clip-rule="evenodd" d="M22 12C22 17.5228 17.5228 22 12 22C6.47715 22 2 17.5228 2 12C2 6.47715 6.47715 2 12 2C17.5228 2 22 6.47715 22 12ZM7.25 14C7.25 13.5858 7.58579 13.25 8 13.25H16C16.4142 13.25 16.75 13.5858 16.75 14C16.75 14.4142 16.4142 14.75 16 14.75H8C7.58579 14.75 7.25 14.4142 7.25 14ZM8 9.25C7.58579 9.25 7.25 9.58579 7.25 10C7.25 10.4142 7.58579 10.75 8 10.75H16C16.4142 10.75 16.75 10.4142 16.75 10C16.75 9.58579 16.4142 9.25 16 9.25H8Z" fill="#28303F"/>
</svg>
