<svg width="24" height="24" viewBox="0 0 24 24" fill="none" xmlns="http://www.w3.org/2000/svg">
<path fill-rule="evenodd" clip-rule="evenodd" d="M5 2C3.34315 2 2 3.34315 2 5V19C2 20.6569 3.34315 22 5 22H11V5C11 3.34315 9.65685 2 8 2H5ZM5 5.25C4.58579 5.25 4.25 5.58579 4.25 6C4.25 6.41421 4.58579 6.75 5 6.75H8C8.41421 6.75 8.75 6.41421 8.75 6C8.75 5.58579 8.41421 5.25 8 5.25H5ZM4.25 9C4.25 8.58579 4.58579 8.25 5 8.25H8C8.41421 8.25 8.75 8.58579 8.75 9C8.75 9.41421 8.41421 9.75 8 9.75H5C4.58579 9.75 4.25 9.41421 4.25 9ZM19 8H13V22H19C20.6569 22 22 20.6569 22 19V11C22 9.34315 20.6569 8 19 8ZM16 11.25C15.5858 11.25 15.25 11.5858 15.25 12C15.25 12.4142 15.5858 12.75 16 12.75H19C19.4142 12.75 19.75 12.4142 19.75 12C19.75 11.5858 19.4142 11.25 19 11.25H16ZM15.25 15C15.25 14.5858 15.5858 14.25 16 14.25H19C19.4142 14.25 19.75 14.5858 19.75 15C19.75 15.4142 19.4142 15.75 19 15.75H16C15.5858 15.75 15.25 15.4142 15.25 15Z" fill="#28303F"/>
</svg>
