<svg width="24" height="24" viewBox="0 0 24 24" fill="none" xmlns="http://www.w3.org/2000/svg">
<path fill-rule="evenodd" clip-rule="evenodd" d="M9 1.25C8.58579 1.25 8.25 1.58579 8.25 2C8.25 2.41421 8.58579 2.75 9 2.75H10L10 8.28988C8.3665 8.77603 6.98288 9.8424 6.08815 11.25H17.9118C17.0171 9.8424 15.6335 8.77603 14 8.28988V2.75H15C15.4142 2.75 15.75 2.41421 15.75 2C15.75 1.58579 15.4142 1.25 15 1.25H9ZM5 15C5 14.2129 5.12991 13.4561 5.36945 12.75H18.6305C18.8701 13.4561 19 14.2129 19 15C19 18.866 15.866 22 12 22C8.13401 22 5 18.866 5 15Z" fill="#28303F"/>
</svg>
