<svg width="24" height="24" viewBox="0 0 24 24" fill="none" xmlns="http://www.w3.org/2000/svg">
<path fill-rule="evenodd" clip-rule="evenodd" d="M7 6H17C18.1046 6 19 5.10457 19 4C19 2.89543 18.1046 2 17 2H7C5.89543 2 5 2.89543 5 4C5 5.10457 5.89543 6 7 6ZM5.27795 11.3282L6.51994 7.46741C6.67688 7.48893 6.83714 7.50006 7 7.50006H17C17.1629 7.50006 17.3231 7.48893 17.4801 7.46741L18.7221 11.3282C19.2189 12.583 19.0429 13.9812 18.2476 15.0969L12.9519 21.5261C12.8931 21.6085 12.825 21.6801 12.75 21.741V13.8546C13.483 13.5579 14 12.8393 14 12C14 10.8954 13.1046 10 12 10C10.8954 10 10 10.8954 10 12C10 12.8393 10.517 13.5579 11.25 13.8546V21.741C11.175 21.6801 11.1069 21.6085 11.0481 21.5261L5.75238 15.0969C4.95707 13.9812 4.78105 12.583 5.27795 11.3282Z" fill="#28303F"/>
</svg>
