<svg width="24" height="24" viewBox="0 0 24 24" fill="none" xmlns="http://www.w3.org/2000/svg">
<path fill-rule="evenodd" clip-rule="evenodd" d="M2.25 6C2.25 3.92893 3.92893 2.25 6 2.25C6.41421 2.25 6.75 2.58579 6.75 3C6.75 3.41421 6.41421 3.75 6 3.75C4.75736 3.75 3.75 4.75736 3.75 6V14.2595C4.49122 13.6299 5.45125 13.25 6.5 13.25C8.2327 13.25 9.72321 14.2869 10.3849 15.774C10.8384 15.4444 11.3965 15.25 12 15.25C12.6035 15.25 13.1616 15.4444 13.6151 15.774C14.2768 14.2869 15.7673 13.25 17.5 13.25C18.5488 13.25 19.5088 13.6299 20.25 14.2595V6C20.25 4.75736 19.2426 3.75 18 3.75C17.5858 3.75 17.25 3.41421 17.25 3C17.25 2.58579 17.5858 2.25 18 2.25C20.0711 2.25 21.75 3.92893 21.75 6V17.5C21.75 19.8472 19.8472 21.75 17.5 21.75C15.3219 21.75 13.5266 20.1116 13.2791 18H13.25C13.25 17.3096 12.6904 16.75 12 16.75C11.3096 16.75 10.75 17.3096 10.75 18H10.7209C10.4734 20.1116 8.67805 21.75 6.5 21.75C4.15279 21.75 2.25 19.8472 2.25 17.5V6Z" fill="#28303F"/>
</svg>
