<svg width="24" height="24" viewBox="0 0 24 24" fill="none" xmlns="http://www.w3.org/2000/svg">
<path fill-rule="evenodd" clip-rule="evenodd" d="M12 16C15.866 16 19 12.866 19 9C19 5.13401 15.866 2 12 2C8.13401 2 5 5.13401 5 9C5 12.866 8.13401 16 12 16ZM2.75 9C2.75 8.58579 2.41421 8.25 2 8.25C1.58579 8.25 1.25 8.58579 1.25 9C1.25 14.6849 5.66285 19.3392 11.25 19.7242V21.25H9C8.58579 21.25 8.25 21.5858 8.25 22C8.25 22.4142 8.58579 22.75 9 22.75H15C15.4142 22.75 15.75 22.4142 15.75 22C15.75 21.5858 15.4142 21.25 15 21.25H12.75V19.7242C18.3372 19.3392 22.75 14.6849 22.75 9C22.75 8.58579 22.4142 8.25 22 8.25C21.5858 8.25 21.25 8.58579 21.25 9C21.25 14.1086 17.1086 18.25 12 18.25C6.89137 18.25 2.75 14.1086 2.75 9Z" fill="#28303F"/>
</svg>
