<svg width="24" height="24" viewBox="0 0 24 24" fill="none" xmlns="http://www.w3.org/2000/svg">
<path fill-rule="evenodd" clip-rule="evenodd" d="M2.59172 9.04509L11.2604 5.15915C11.7337 4.94695 12.2663 4.94695 12.7396 5.15915L21.4083 9.04509C21.8028 9.22193 22 9.61096 22 10V16C22 16.4142 21.6642 16.75 21.25 16.75C20.8358 16.75 20.5 16.4142 20.5 16V11.3621L12.7396 14.8408C12.2663 15.0531 11.7337 15.0531 11.2604 14.8408L2.59172 10.9549C1.80276 10.6012 1.80276 9.39876 2.59172 9.04509ZM6 16V14.1266L10.6468 16.2096C11.5105 16.5968 12.4895 16.5968 13.3532 16.2096L18 14.1266V16C18 17.6569 16.6569 19 15 19H9C7.34315 19 6 17.6569 6 16Z" fill="#28303F"/>
</svg>
