<svg width="24" height="25" viewBox="0 0 24 25" fill="none" xmlns="http://www.w3.org/2000/svg">
<path fill-rule="evenodd" clip-rule="evenodd" d="M16 18.4585V18.7502C16 21.0513 14.2091 22.9168 12 22.9168C9.79086 22.9168 8 21.0513 8 18.7502V18.4585H11.7893C11.8561 18.4788 11.9268 18.4897 12 18.4897C12.0732 18.4897 12.1439 18.4788 12.2107 18.4585H16ZM16 16.9585V16.4468C16 15.7657 16.3334 15.1422 16.8085 14.6743C18.158 13.345 19 11.4625 19 9.37516C19 5.34809 15.866 2.0835 12 2.0835C8.13401 2.0835 5 5.34809 5 9.37516C5 11.4625 5.84201 13.345 7.19153 14.6743C7.66659 15.1422 8 15.7657 8 16.4468V16.9585H11.25V11.7821L9.46967 9.92759C9.17678 9.62249 9.17678 9.12783 9.46967 8.82274C9.76256 8.51764 10.2374 8.51764 10.5303 8.82274L12 10.3536L13.4697 8.82274C13.7626 8.51764 14.2374 8.51764 14.5303 8.82274C14.8232 9.12783 14.8232 9.62249 14.5303 9.92759L12.75 11.7821V16.9585H16Z" fill="#28303F"/>
</svg>
