<svg width="24" height="24" viewBox="0 0 24 24" fill="none" xmlns="http://www.w3.org/2000/svg">
<path fill-rule="evenodd" clip-rule="evenodd" d="M17 7.14111C17 6.93367 16.9874 6.72918 16.9628 6.52837C16.6607 4.056 14.554 2.14111 12 2.14111C9.44602 2.14111 7.33928 4.056 7.03717 6.52837C7.01263 6.72918 7 6.93367 7 7.14111C7 9.90254 12 14.1411 12 14.1411C12 14.1411 17 9.90254 17 7.14111ZM13.5 7.14111C13.5 7.96954 12.8284 8.64111 12 8.64111C11.1716 8.64111 10.5 7.96954 10.5 7.14111C10.5 6.31269 11.1716 5.64111 12 5.64111C12.8284 5.64111 13.5 6.31269 13.5 7.14111ZM5.5606 6.25118C5.55625 6.28286 5.55213 6.31461 5.54824 6.34644C5.51635 6.60747 5.5 6.87272 5.5 7.14111C5.5 8.23824 5.97788 9.30481 6.49309 10.1684C7.02894 11.0665 7.72132 11.9342 8.37939 12.6738C9.0426 13.4191 9.70116 14.0679 10.1915 14.5288L11.25 15.4724V21.859C9.34891 20.5999 6.74481 20.023 4.7949 19.8054C3.80678 19.6951 3 18.8799 3 17.8744V7.86127C3 6.8558 3.80678 6.04085 4.7949 6.15113C5.04065 6.17856 5.29678 6.21169 5.5606 6.25118ZM12.75 21.859V15.4724L13.8085 14.5288C14.2988 14.0679 14.9574 13.4191 15.6206 12.6738C16.2787 11.9342 16.9711 11.0665 17.5069 10.1684C18.0221 9.30481 18.5 8.23824 18.5 7.14111C18.5 6.87272 18.4837 6.60747 18.4518 6.34644C18.4479 6.31461 18.4437 6.28286 18.4394 6.25118C18.7032 6.21169 18.9594 6.17856 19.2051 6.15113C20.1932 6.04085 21 6.8558 21 7.86127V17.8744C21 18.8799 20.1932 19.6951 19.2051 19.8054C17.2552 20.023 14.6511 20.5999 12.75 21.859Z" fill="#28303F"/>
</svg>
