<svg width="24" height="24" viewBox="0 0 24 24" fill="none" xmlns="http://www.w3.org/2000/svg">
<path fill-rule="evenodd" clip-rule="evenodd" d="M11.25 2H5C3.34315 2 2 3.34315 2 5V6.25H11.25V2ZM2 17V7.75H11.25V20H5.75V22C5.75 22.4142 5.41421 22.75 5 22.75C4.58579 22.75 4.25 22.4142 4.25 22V20C4.25 19.9685 4.25195 19.9374 4.25572 19.907C2.9589 19.5759 2 18.3999 2 17ZM12.75 20V7.75H22V17C22 18.3999 21.0411 19.5759 19.7443 19.907C19.7481 19.9374 19.75 19.9685 19.75 20V22C19.75 22.4142 19.4142 22.75 19 22.75C18.5858 22.75 18.25 22.4142 18.25 22V20H12.75ZM22 5V6.25H12.75V2H19C20.6569 2 22 3.34315 22 5ZM8.25 14C8.25 14.4142 8.58579 14.75 9 14.75C9.41421 14.75 9.75 14.4142 9.75 14V12C9.75 11.5858 9.41421 11.25 9 11.25C8.58579 11.25 8.25 11.5858 8.25 12V14ZM15 14.75C14.5858 14.75 14.25 14.4142 14.25 14V12C14.25 11.5858 14.5858 11.25 15 11.25C15.4142 11.25 15.75 11.5858 15.75 12V14C15.75 14.4142 15.4142 14.75 15 14.75Z" fill="#28303F"/>
</svg>
