<svg width="24" height="24" viewBox="0 0 24 24" fill="none" xmlns="http://www.w3.org/2000/svg">
<path fill-rule="evenodd" clip-rule="evenodd" d="M2 6C2 3.79086 3.79086 2 6 2H18C20.2091 2 22 3.79086 22 6V6.25H2V6ZM2 7.75H22V18C22 20.2091 20.2091 22 18 22H6C3.79086 22 2 20.2091 2 18V7.75ZM12 10.25C11.7159 10.25 11.4562 10.4105 11.3292 10.6646L8.90715 15.5086L7.62404 13.584C7.39427 13.2393 6.92862 13.1462 6.58397 13.376C6.23933 13.6057 6.1462 14.0714 6.37596 14.416L8.37596 17.416C8.52426 17.6385 8.77977 17.7652 9.0466 17.7486C9.31344 17.7319 9.55126 17.5745 9.67082 17.3354L12.4635 11.75H17C17.4142 11.75 17.75 11.4142 17.75 11C17.75 10.5858 17.4142 10.25 17 10.25H12ZM13.4697 13.4697C13.7626 13.1768 14.2374 13.1768 14.5303 13.4697L15.5 14.4393L16.4697 13.4697C16.7626 13.1768 17.2374 13.1768 17.5303 13.4697C17.8232 13.7626 17.8232 14.2374 17.5303 14.5303L16.5607 15.5L17.5303 16.4697C17.8232 16.7626 17.8232 17.2374 17.5303 17.5303C17.2374 17.8232 16.7626 17.8232 16.4697 17.5303L15.5 16.5607L14.5303 17.5303C14.2374 17.8232 13.7626 17.8232 13.4697 17.5303C13.1768 17.2374 13.1768 16.7626 13.4697 16.4697L14.4393 15.5L13.4697 14.5303C13.1768 14.2374 13.1768 13.7626 13.4697 13.4697Z" fill="#28303F"/>
</svg>
