<svg width="24" height="24" viewBox="0 0 24 24" fill="none" xmlns="http://www.w3.org/2000/svg">
<path fill-rule="evenodd" clip-rule="evenodd" d="M8 1.25C8.41421 1.25 8.75 1.58579 8.75 2C8.75 2.41421 8.41421 2.75 8 2.75H6C4.20507 2.75 2.75 4.20507 2.75 6V18C2.75 19.7949 4.20507 21.25 6 21.25H8C8.41421 21.25 8.75 21.5858 8.75 22C8.75 22.4142 8.41421 22.75 8 22.75H6C3.37665 22.75 1.25 20.6234 1.25 18V6C1.25 3.37665 3.37665 1.25 6 1.25H8ZM15.25 2C15.25 1.58579 15.5858 1.25 16 1.25H18C20.6234 1.25 22.75 3.37665 22.75 6V18C22.75 20.6234 20.6234 22.75 18 22.75H16C15.5858 22.75 15.25 22.4142 15.25 22C15.25 21.5858 15.5858 21.25 16 21.25H18C19.7949 21.25 21.25 19.7949 21.25 18V6C21.25 4.20507 19.7949 2.75 18 2.75H16C15.5858 2.75 15.25 2.41421 15.25 2ZM7 8C7.55228 8 8 7.55228 8 7C8 6.44772 7.55228 6 7 6C6.44772 6 6 6.44772 6 7C6 7.55228 6.44772 8 7 8ZM13 12C13 12.5523 12.5523 13 12 13C11.4477 13 11 12.5523 11 12C11 11.4477 11.4477 11 12 11C12.5523 11 13 11.4477 13 12ZM18 12C18 12.5523 17.5523 13 17 13C16.4477 13 16 12.5523 16 12C16 11.4477 16.4477 11 17 11C17.5523 11 18 11.4477 18 12ZM17 18C17.5523 18 18 17.5523 18 17C18 16.4477 17.5523 16 17 16C16.4477 16 16 16.4477 16 17C16 17.5523 16.4477 18 17 18ZM13 17C13 17.5523 12.5523 18 12 18C11.4477 18 11 17.5523 11 17C11 16.4477 11.4477 16 12 16C12.5523 16 13 16.4477 13 17ZM7 18C7.55228 18 8 17.5523 8 17C8 16.4477 7.55228 16 7 16C6.44772 16 6 16.4477 6 17C6 17.5523 6.44772 18 7 18ZM8 12C8 12.5523 7.55228 13 7 13C6.44772 13 6 12.5523 6 12C6 11.4477 6.44772 11 7 11C7.55228 11 8 11.4477 8 12ZM13 7C13 7.55228 12.5523 8 12 8C11.4477 8 11 7.55228 11 7C11 6.44772 11.4477 6 12 6C12.5523 6 13 6.44772 13 7ZM17 8C17.5523 8 18 7.55228 18 7C18 6.44772 17.5523 6 17 6C16.4477 6 16 6.44772 16 7C16 7.55228 16.4477 8 17 8Z" fill="#28303F"/>
</svg>
