<svg width="24" height="24" viewBox="0 0 24 24" fill="none" xmlns="http://www.w3.org/2000/svg">
<path fill-rule="evenodd" clip-rule="evenodd" d="M17 5V9.1254C15.5969 8.10314 13.8689 7.5 12 7.5C10.1311 7.5 8.40311 8.10314 7 9.1254V5C7 3.89543 7.89543 3 9 3H15C16.1046 3 17 3.89543 17 5ZM22.5303 11.5303C22.8232 11.2374 22.8232 10.7626 22.5303 10.4697C22.2374 10.1768 21.7626 10.1768 21.4697 10.4697L20.4697 11.4697C20.1768 11.7626 20.1768 12.2374 20.4697 12.5303C20.7626 12.8232 21.2374 12.8232 21.5303 12.5303L22.5303 11.5303ZM20.4697 19.4697C20.7626 19.1768 21.2374 19.1768 21.5303 19.4697L22.5303 20.4697C22.8232 20.7626 22.8232 21.2374 22.5303 21.5303C22.2374 21.8232 21.7626 21.8232 21.4697 21.5303L20.4697 20.5303C20.1768 20.2374 20.1768 19.7626 20.4697 19.4697ZM1.46967 11.5303C1.17678 11.2374 1.17678 10.7626 1.46967 10.4697C1.76256 10.1768 2.23744 10.1768 2.53033 10.4697L3.53033 11.4697C3.82322 11.7626 3.82322 12.2374 3.53033 12.5303C3.23744 12.8232 2.76256 12.8232 2.46967 12.5303L1.46967 11.5303ZM3.53033 19.4697C3.23744 19.1768 2.76256 19.1768 2.46967 19.4697L1.46967 20.4697C1.17678 20.7626 1.17678 21.2374 1.46967 21.5303C1.76256 21.8232 2.23744 21.8232 2.53033 21.5303L3.53033 20.5303C3.82322 20.2374 3.82322 19.7626 3.53033 19.4697ZM12 23C15.866 23 19 19.866 19 16C19 12.134 15.866 9 12 9C8.13401 9 5 12.134 5 16C5 19.866 8.13401 23 12 23ZM12.75 13C12.75 12.7401 12.6154 12.4987 12.3943 12.362C12.1732 12.2254 11.8971 12.2129 11.6646 12.3292L10.6646 12.8292C10.2941 13.0144 10.1439 13.4649 10.3292 13.8354C10.5004 14.1778 10.8982 14.3321 11.25 14.2072V18.25H11C10.5858 18.25 10.25 18.5858 10.25 19C10.25 19.4142 10.5858 19.75 11 19.75H12H13C13.4142 19.75 13.75 19.4142 13.75 19C13.75 18.5858 13.4142 18.25 13 18.25H12.75V13Z" fill="#28303F"/>
</svg>
