<svg width="24" height="24" viewBox="0 0 24 24" fill="none" xmlns="http://www.w3.org/2000/svg">
<path fill-rule="evenodd" clip-rule="evenodd" d="M17 4V5.92072C15.5477 5.02003 13.8346 4.5 12 4.5C10.1654 4.5 8.4523 5.02003 7 5.92072V4C7 2.89543 7.89543 2 9 2H15C16.1046 2 17 2.89543 17 4ZM20 14C20 18.4183 16.4183 22 12 22C7.58172 22 4 18.4183 4 14C4 9.58172 7.58172 6 12 6C16.4183 6 20 9.58172 20 14ZM12.7869 10.5086L13.3432 11.6805C13.471 11.9497 13.718 12.1364 14.0038 12.1796L15.2477 12.3675C15.9675 12.4762 16.2549 13.3958 15.7341 13.9236L14.834 14.8358C14.6272 15.0454 14.5328 15.3474 14.5816 15.6434L14.7941 16.9314C14.917 17.6767 14.1646 18.2451 13.5209 17.8932L12.4083 17.285C12.1527 17.1453 11.8473 17.1453 11.5917 17.285L10.4791 17.8932C9.83536 18.2451 9.08297 17.6767 9.20591 16.9314L9.4184 15.6434C9.46722 15.3474 9.37284 15.0454 9.16603 14.8358L8.26595 13.9236C7.74515 13.3958 8.03253 12.4762 8.75226 12.3675L9.99615 12.1796C10.282 12.1364 10.529 11.9497 10.6568 11.6805L11.2131 10.5086C11.535 9.83048 12.465 9.83048 12.7869 10.5086Z" fill="#28303F"/>
</svg>
