<svg width="24" height="24" viewBox="0 0 24 24" fill="none" xmlns="http://www.w3.org/2000/svg">
<path fill-rule="evenodd" clip-rule="evenodd" d="M12 1.25C12.4142 1.25 12.75 1.58579 12.75 2V3.25H14C14.4142 3.25 14.75 3.58579 14.75 4V5.83407C17.1064 6.88659 18.75 9.25056 18.75 12.0001C18.75 15.4745 16.125 18.3358 12.75 18.7089V21.25H15C15.4142 21.25 15.75 21.5858 15.75 22C15.75 22.4142 15.4142 22.75 15 22.75H9C8.58579 22.75 8.25 22.4142 8.25 22C8.25 21.5858 8.58579 21.25 9 21.25H11.25V18.7501H8C7.58579 18.7501 7.25 18.4143 7.25 18.0001C7.25 17.5859 7.58579 17.2501 8 17.2501H11.9876L12 17.25L12.0116 17.2501C14.9058 17.2438 17.25 14.8957 17.25 12.0001C17.25 10.1097 16.2506 8.45143 14.75 7.52688V12C14.75 12.4142 14.4142 12.75 14 12.75H12.75V14C12.75 14.4142 12.4142 14.75 12 14.75C11.5858 14.75 11.25 14.4142 11.25 14V12.75H10C9.58579 12.75 9.25 12.4142 9.25 12V4C9.25 3.58579 9.58579 3.25 10 3.25H11.25V2C11.25 1.58579 11.5858 1.25 12 1.25Z" fill="#28303F"/>
</svg>
