<svg width="24" height="24" viewBox="0 0 24 24" fill="none" xmlns="http://www.w3.org/2000/svg">
<path fill-rule="evenodd" clip-rule="evenodd" d="M22 12C22 17.5228 17.5228 22 12 22C6.47715 22 2 17.5228 2 12C2 6.47715 6.47715 2 12 2C17.5228 2 22 6.47715 22 12ZM8.6413 8.6413C8.93419 8.34841 9.40907 8.34841 9.70196 8.6413L12 10.9393L14.298 8.6413C14.5909 8.34841 15.0658 8.34841 15.3587 8.6413C15.6516 8.93419 15.6516 9.40907 15.3587 9.70196L13.0607 12L15.3588 14.2982C15.6517 14.591 15.6517 15.0659 15.3588 15.3588C15.0659 15.6517 14.591 15.6517 14.2982 15.3588L12 13.0607L9.70184 15.3588C9.40895 15.6517 8.93408 15.6517 8.64118 15.3588C8.34829 15.0659 8.34829 14.591 8.64118 14.2982L10.9393 12L8.6413 9.70196C8.34841 9.40907 8.34841 8.93419 8.6413 8.6413Z" fill="#28303F"/>
</svg>
