<svg width="24" height="24" viewBox="0 0 24 24" fill="none" xmlns="http://www.w3.org/2000/svg">
<path fill-rule="evenodd" clip-rule="evenodd" d="M4.0702 5.25C4.02411 5.49294 4 5.74365 4 6V6.75H2C1.58579 6.75 1.25 6.41421 1.25 6C1.25 5.58579 1.58579 5.25 2 5.25H4.0702ZM4.0702 18.75C4.42125 20.6006 6.04721 22 8 22H18C20.2091 22 22 20.2091 22 18V6C22 3.79086 20.2091 2 18 2H8C6.04721 2 4.42125 3.39935 4.0702 5.25H6C6.41421 5.25 6.75 5.58579 6.75 6C6.75 6.41421 6.41421 6.75 6 6.75H4V11.25H2C1.58579 11.25 1.25 11.5858 1.25 12C1.25 12.4142 1.58579 12.75 2 12.75H4V17.25H2C1.58579 17.25 1.25 17.5858 1.25 18C1.25 18.4142 1.58579 18.75 2 18.75H4.0702ZM4.0702 18.75C4.02411 18.5071 4 18.2563 4 18V17.25H6C6.41421 17.25 6.75 17.5858 6.75 18C6.75 18.4142 6.41421 18.75 6 18.75H4.0702ZM4 12.75V11.25H6C6.41421 11.25 6.75 11.5858 6.75 12C6.75 12.4142 6.41421 12.75 6 12.75H4ZM18.75 6C18.75 6.41421 18.4142 6.75 18 6.75L10 6.75C9.58579 6.75 9.25 6.41421 9.25 6C9.25 5.58579 9.58579 5.25 10 5.25L18 5.25C18.4142 5.25 18.75 5.58579 18.75 6ZM14 10.75C14.4142 10.75 14.75 10.4142 14.75 10C14.75 9.58579 14.4142 9.25 14 9.25L10 9.25C9.58579 9.25 9.25 9.58579 9.25 10C9.25 10.4142 9.58579 10.75 10 10.75L14 10.75Z" fill="#28303F"/>
</svg>
