<svg width="24" height="24" viewBox="0 0 24 24" fill="none" xmlns="http://www.w3.org/2000/svg">
<path fill-rule="evenodd" clip-rule="evenodd" d="M8.42914 3.86983C9.44119 3.1639 10.6712 2.75 12.0001 2.75C13.329 2.75 14.5589 3.1639 15.571 3.86983C15.9107 4.1068 16.3782 4.02349 16.6152 3.68376C16.8522 3.34403 16.7689 2.87652 16.4291 2.63955C15.1735 1.76373 13.6457 1.25 12.0001 1.25C10.3545 1.25 8.82661 1.76373 7.57099 2.63955C7.23126 2.87652 7.14796 3.34403 7.38493 3.68376C7.6219 4.02349 8.08941 4.1068 8.42914 3.86983ZM11.9999 5.75C11.4067 5.75 10.8527 5.90825 10.3754 6.18433C10.0169 6.39174 9.55808 6.26922 9.35068 5.91067C9.14327 5.55213 9.26579 5.09333 9.62434 4.88592C10.3238 4.48133 11.1359 4.25 11.9999 4.25C12.8638 4.25 13.676 4.48133 14.3754 4.88592C14.734 5.09333 14.8565 5.55213 14.6491 5.91067C14.4417 6.26922 13.9829 6.39174 13.6243 6.18433C13.1471 5.90825 12.5931 5.75 11.9999 5.75ZM11.25 9.7521C9.56799 8.68752 7.3004 8.19607 5.59546 8.00877C4.71714 7.91227 4 8.62535 4 9.50514V18.2666C4 19.1464 4.71714 19.8598 5.59546 19.9562C7.3004 20.1436 9.56799 20.635 11.25 21.6996V9.7521ZM12.75 21.6996C14.432 20.635 16.6996 20.1436 18.4045 19.9562C19.2829 19.8598 20 19.1464 20 18.2666V9.50514C20 8.62535 19.2829 7.91227 18.4045 8.00877C16.6996 8.19607 14.432 8.68752 12.75 9.7521V21.6996Z" fill="#28303F"/>
</svg>
