<svg width="24" height="24" viewBox="0 0 24 24" fill="none" xmlns="http://www.w3.org/2000/svg">
<path fill-rule="evenodd" clip-rule="evenodd" d="M10.0128 21.8025C5.44193 20.8809 2 16.8424 2 12C2 6.47715 6.47715 2 12 2C17.5228 2 22 6.47715 22 12C22 14.7695 20.8742 17.276 19.0552 19.0869C18.0031 20.1343 16.4444 19.2179 16.4444 17.7333V16.4444C16.4444 15.2171 15.4495 14.2222 14.2222 14.2222C12.9949 14.2222 12 15.2171 12 16.4444V20C12 21.1046 11.0955 22.0209 10.0128 21.8025ZM9.5 6C10.3284 6 11 6.67157 11 7.5C11 8.32843 10.3284 9 9.5 9C8.67157 9 8 8.32843 8 7.5C8 6.67157 8.67157 6 9.5 6ZM18.5 10C18.5 9.17157 17.8284 8.5 17 8.5C16.1716 8.5 15.5 9.17157 15.5 10C15.5 10.8284 16.1716 11.5 17 11.5C17.8284 11.5 18.5 10.8284 18.5 10ZM8 14C8.82843 14 9.5 14.6716 9.5 15.5C9.5 16.3284 8.82843 17 8 17C7.17157 17 6.5 16.3284 6.5 15.5C6.5 14.6716 7.17157 14 8 14Z" fill="#28303F"/>
</svg>
