<svg width="24" height="24" viewBox="0 0 24 24" fill="none" xmlns="http://www.w3.org/2000/svg">
<path fill-rule="evenodd" clip-rule="evenodd" d="M3.5 3C2.67157 3 2 3.67157 2 4.5V6.25H5V4.5C5 3.67157 4.32843 3 3.5 3ZM2 7.75V17.6667C2 18.5321 2.28071 19.3743 2.8 20.0667L3.1 20.4667C3.3 20.7333 3.7 20.7333 3.9 20.4667L4.2 20.0667C4.71929 19.3743 5 18.5321 5 17.6667V7.75H2ZM8 18C8 16.3431 9.34315 15 11 15H22V18C22 19.6569 20.6569 21 19 21H11C9.34315 21 8 19.6569 8 18ZM19 3H11C9.34315 3 8 4.34315 8 6V14.6458C8.79613 13.9333 9.84747 13.5 11 13.5H22V6C22 4.34315 20.6569 3 19 3ZM12 5.25C11.5858 5.25 11.25 5.58579 11.25 6C11.25 6.41421 11.5858 6.75 12 6.75H18C18.4142 6.75 18.75 6.41421 18.75 6C18.75 5.58579 18.4142 5.25 18 5.25H12ZM11.25 10C11.25 9.58579 11.5858 9.25 12 9.25H15C15.4142 9.25 15.75 9.58579 15.75 10C15.75 10.4142 15.4142 10.75 15 10.75H12C11.5858 10.75 11.25 10.4142 11.25 10Z" fill="#28303F"/>
</svg>
