<svg width="24" height="24" viewBox="0 0 24 24" fill="none" xmlns="http://www.w3.org/2000/svg">
<path fill-rule="evenodd" clip-rule="evenodd" d="M2 4.5C2 3.67157 2.67157 3 3.5 3C4.32843 3 5 3.67157 5 4.5V6.25H2V4.5ZM2 17.5389V7.75H5V17.5389C5 18.3286 4.76625 19.1006 4.3282 19.7577L3.91603 20.376C3.71811 20.6728 3.28189 20.6728 3.08397 20.376L2.6718 19.7577C2.23375 19.1006 2 18.3286 2 17.5389ZM8 6C8 4.34315 9.34315 3 11 3H19C20.6569 3 22 4.34315 22 6V18C22 19.6569 20.6569 21 19 21H11C9.34315 21 8 19.6569 8 18V6ZM11.25 8C11.25 7.58579 11.5858 7.25 12 7.25H18C18.4142 7.25 18.75 7.58579 18.75 8C18.75 8.41421 18.4142 8.75 18 8.75H12C11.5858 8.75 11.25 8.41421 11.25 8ZM12 11.25C11.5858 11.25 11.25 11.5858 11.25 12C11.25 12.4142 11.5858 12.75 12 12.75H18C18.4142 12.75 18.75 12.4142 18.75 12C18.75 11.5858 18.4142 11.25 18 11.25H12ZM11.25 16C11.25 15.5858 11.5858 15.25 12 15.25H15C15.4142 15.25 15.75 15.5858 15.75 16C15.75 16.4142 15.4142 16.75 15 16.75H12C11.5858 16.75 11.25 16.4142 11.25 16Z" fill="#28303F"/>
</svg>
