<svg width="24" height="24" viewBox="0 0 24 24" fill="none" xmlns="http://www.w3.org/2000/svg">
<path fill-rule="evenodd" clip-rule="evenodd" d="M4.17624 4.17624C4.44481 3.90767 4.88821 3.73204 5.58219 3.75141C6.27835 3.77084 7.1537 3.98788 8.16018 4.41923C8.9639 4.76368 9.82792 5.23474 10.7199 5.82048C9.84777 6.50702 8.97612 7.27999 8.12808 8.12803C7.28002 8.97609 6.50703 9.84778 5.82047 10.7199C5.23473 9.82795 4.76368 8.96393 4.41923 8.1602C3.98788 7.15372 3.77084 6.27837 3.75141 5.5822C3.73204 4.88822 3.90767 4.44481 4.17624 4.17624ZM8.75106 3.04051C9.78273 3.48266 10.8823 4.10209 12 4.87445C13.1177 4.1021 14.2172 3.48267 15.2489 3.04052C16.3589 2.5648 17.427 2.27848 18.3759 2.252C19.327 2.22546 20.2302 2.4614 20.8844 3.11559C21.5386 3.76978 21.7745 4.67299 21.748 5.62405C21.7215 6.57294 21.4352 7.64107 20.9594 8.75109C20.5173 9.78277 19.8979 10.8823 19.1255 12C19.8978 13.1177 20.5172 14.2172 20.9594 15.2489C21.4351 16.3589 21.7214 17.427 21.7479 18.3759C21.7744 19.327 21.5385 20.2302 20.8843 20.8844C20.2301 21.5386 19.3269 21.7745 18.3758 21.7479C17.4269 21.7215 16.3588 21.4352 15.2488 20.9594C14.2172 20.5173 13.1177 19.8979 12 19.1256C10.8823 19.8979 9.7828 20.5173 8.75115 20.9594C7.64113 21.4352 6.57301 21.7215 5.62412 21.748C4.67306 21.7745 3.76986 21.5386 3.11566 20.8844C2.46148 20.2302 2.22554 19.327 2.25208 18.3759C2.27856 17.427 2.56488 16.3589 3.0406 15.2489C3.48273 14.2172 4.10213 13.1177 4.87446 12C4.10209 10.8823 3.48266 9.78277 3.04051 8.75108C2.56479 7.64106 2.27847 6.57293 2.25199 5.62404C2.22545 4.67298 2.46138 3.76977 3.11557 3.11558C3.76976 2.46139 4.67297 2.22545 5.62403 2.25199C6.57292 2.27847 7.64104 2.56479 8.75106 3.04051ZM9.18874 9.18869C10.1158 8.26166 11.0645 7.4367 12 6.72672C12.9354 7.4367 13.8842 8.26165 14.8112 9.18868C15.7383 10.1157 16.5633 11.0645 17.2733 12C16.5633 12.9355 15.7383 13.8843 14.8113 14.8113C13.8842 15.7383 12.9355 16.5633 12 17.2733C11.0645 16.5633 10.1157 15.7383 9.18865 14.8113C8.26163 13.8842 7.43669 12.9355 6.72671 12C7.43671 11.0645 8.26168 10.1157 9.18874 9.18869ZM15.8719 8.12802C16.7199 8.97609 17.4929 9.84778 18.1795 10.7199C18.7652 9.82796 19.2363 8.96394 19.5807 8.16021C20.0121 7.15373 20.2291 6.27838 20.2485 5.58221C20.2679 4.88823 20.0923 4.44482 19.8237 4.17625C19.5551 3.90768 19.1117 3.73205 18.4178 3.75142C17.7216 3.77085 16.8463 3.98789 15.8398 4.41924C15.0361 4.76369 14.172 5.23474 13.2801 5.82048C14.1522 6.50702 15.0238 7.27998 15.8719 8.12802ZM15.872 15.8719C16.72 15.0239 17.493 14.1523 18.1795 13.2802C18.7652 14.1721 19.2362 15.036 19.5806 15.8397C20.012 16.8462 20.229 17.7216 20.2485 18.4177C20.2678 19.1117 20.0922 19.5551 19.8236 19.8237C19.5551 20.0923 19.1117 20.2679 18.4177 20.2485C17.7215 20.2291 16.8462 20.0121 15.8397 19.5807C15.036 19.2363 14.172 18.7652 13.2801 18.1795C14.1522 17.493 15.0239 16.72 15.872 15.8719ZM8.12799 15.8719C8.97605 16.72 9.84773 17.493 10.7198 18.1795C9.82794 18.7653 8.96396 19.2363 8.16027 19.5807C7.15379 20.0121 6.27844 20.2291 5.58228 20.2485C4.8883 20.2679 4.4449 20.0923 4.17633 19.8237C3.90776 19.5551 3.73213 19.1117 3.7515 18.4177C3.77093 17.7216 3.98797 16.8462 4.41932 15.8397C4.76376 15.0361 5.23478 14.1721 5.82048 13.2802C6.50701 14.1523 7.27997 15.0239 8.12799 15.8719ZM12 14C13.1046 14 14 13.1046 14 12C14 10.8954 13.1046 10 12 10C10.8954 10 10 10.8954 10 12C10 13.1046 10.8954 14 12 14Z" fill="#28303F"/>
</svg>
