<svg width="24" height="24" viewBox="0 0 24 24" fill="none" xmlns="http://www.w3.org/2000/svg">
<path fill-rule="evenodd" clip-rule="evenodd" d="M12.75 3C12.75 2.58579 12.4142 2.25 12 2.25C11.5858 2.25 11.25 2.58579 11.25 3V5C11.25 5.41421 11.5858 5.75 12 5.75C12.4142 5.75 12.75 5.41421 12.75 5V3ZM12 15C14.2091 15 16 13.2091 16 11C16 8.79086 14.2091 7 12 7C9.79086 7 8 8.79086 8 11C8 13.2091 9.79086 15 12 15ZM11.25 11C11.25 10.5858 11.5858 10.25 12 10.25C12.4142 10.25 12.75 10.5858 12.75 11C12.75 11.4142 12.4142 11.75 12 11.75C11.5858 11.75 11.25 11.4142 11.25 11ZM12 8.75C10.7574 8.75 9.75 9.75736 9.75 11C9.75 12.2426 10.7574 13.25 12 13.25C13.2426 13.25 14.25 12.2426 14.25 11C14.25 9.75736 13.2426 8.75 12 8.75ZM6.5 11H5C3.89543 11 3 11.8954 3 13V17C3 17.8393 3.51704 18.5579 4.25 18.8546V21C4.25 21.4142 4.58579 21.75 5 21.75C5.41421 21.75 5.75 21.4142 5.75 21V19H18.25V21C18.25 21.4142 18.5858 21.75 19 21.75C19.4142 21.75 19.75 21.4142 19.75 21V18.8546C20.483 18.5579 21 17.8393 21 17V13C21 11.8954 20.1046 11 19 11H17.5C17.5 14.0376 15.0376 16.5 12 16.5C8.96243 16.5 6.5 14.0376 6.5 11ZM19.5303 5.53033L18.0303 7.03033C17.7374 7.32322 17.2626 7.32322 16.9697 7.03033C16.6768 6.73744 16.6768 6.26256 16.9697 5.96967L18.4697 4.46967C18.7626 4.17678 19.2374 4.17678 19.5303 4.46967C19.8232 4.76256 19.8232 5.23744 19.5303 5.53033ZM5.53033 4.46967C5.23744 4.17678 4.76256 4.17678 4.46967 4.46967C4.17678 4.76256 4.17678 5.23744 4.46967 5.53033L5.96967 7.03033C6.26256 7.32322 6.73744 7.32322 7.03033 7.03033C7.32322 6.73744 7.32322 6.26256 7.03033 5.96967L5.53033 4.46967Z" fill="#28303F"/>
</svg>
