<svg width="24" height="24" viewBox="0 0 24 24" fill="none" xmlns="http://www.w3.org/2000/svg">
<path fill-rule="evenodd" clip-rule="evenodd" d="M5.47913 4.41858C7.05266 3.06392 9.05256 2.19077 11.2501 2.02783V3.00013C11.2501 3.41434 11.5859 3.75013 12.0001 3.75013C12.4143 3.75013 12.7501 3.41434 12.7501 3.00013V2.02783C14.9477 2.19077 16.9475 3.0639 18.5211 4.41852L17.8337 5.10585C17.5408 5.39875 17.5408 5.87362 17.8337 6.16651C18.1266 6.45941 18.6015 6.45941 18.8944 6.16651L19.5817 5.47918C20.9364 7.05271 21.8095 9.05259 21.9724 11.2501H21.0001C20.5859 11.2501 20.2501 11.5859 20.2501 12.0001C20.2501 12.4143 20.5859 12.7501 21.0001 12.7501H21.9724C21.8095 14.9477 20.9363 16.9476 19.5817 18.5211L18.8943 17.8337C18.6014 17.5408 18.1265 17.5408 17.8336 17.8337C17.5407 18.1266 17.5407 18.6015 17.8336 18.8944L18.521 19.5818C16.9475 20.9364 14.9476 21.8095 12.7501 21.9724V21.0001C12.7501 20.5859 12.4143 20.2501 12.0001 20.2501C11.5859 20.2501 11.2501 20.5859 11.2501 21.0001V21.9724C9.05259 21.8095 7.05271 20.9364 5.47918 19.5817L6.16645 18.8945C6.45934 18.6016 6.45934 18.1267 6.16645 17.8338C5.87355 17.5409 5.39868 17.5409 5.10579 17.8338L4.41852 18.5211C3.0639 16.9475 2.19077 14.9477 2.02783 12.7501H3.00013C3.41434 12.7501 3.75013 12.4143 3.75013 12.0001C3.75013 11.5859 3.41434 11.2501 3.00013 11.2501H2.02783C2.19077 9.05262 3.06388 7.05276 4.41847 5.47925L5.10567 6.16645C5.39857 6.45934 5.87344 6.45934 6.16633 6.16645C6.45923 5.87355 6.45923 5.39868 6.16633 5.10579L5.47913 4.41858ZM12 6.00013C14.6125 6.00013 16.8349 7.66975 17.6586 10.0001L6.34144 10.0001C7.16511 7.66975 9.38759 6.00013 12 6.00013ZM12 18.0001C9.38759 18.0001 7.16511 16.3305 6.34144 14.0001H17.6586C16.8349 16.3305 14.6125 18.0001 12 18.0001Z" fill="#28303F"/>
</svg>
