<svg width="24" height="24" viewBox="0 0 24 24" fill="none" xmlns="http://www.w3.org/2000/svg">
<path fill-rule="evenodd" clip-rule="evenodd" d="M7 2H9C10.1046 2 11 2.89543 11 4C15.4183 4 19 7.58172 19 12C19 16.4183 15.4183 20 11 20C11 21.1046 10.1046 22 9 22H7C5.89543 22 5 21.1046 5 20V18.75H6C6.41421 18.75 6.75 18.4142 6.75 18C6.75 17.5858 6.41421 17.25 6 17.25H5V14.75H6C6.41421 14.75 6.75 14.4142 6.75 14C6.75 13.5858 6.41421 13.25 6 13.25H5V10.75H6C6.41421 10.75 6.75 10.4142 6.75 10C6.75 9.58579 6.41421 9.25 6 9.25H5V6.75H6C6.41421 6.75 6.75 6.41421 6.75 6C6.75 5.58579 6.41421 5.25 6 5.25H5V4C5 2.89543 5.89543 2 7 2ZM14 12C14 13.6569 12.6569 15 11 15V9C12.6569 9 14 10.3431 14 12Z" fill="#28303F"/>
</svg>
