<svg width="24" height="24" viewBox="0 0 24 24" fill="none" xmlns="http://www.w3.org/2000/svg">
<path fill-rule="evenodd" clip-rule="evenodd" d="M2 8.00027C2 6.8957 2.89543 6.00027 4 6.00027H6.29844C6.75258 6.00027 7.1932 5.84571 7.54783 5.56201L10.7506 2.99979C11.481 2.41544 12.519 2.41544 13.2494 2.99979L16.4522 5.56201C16.8068 5.84571 17.2474 6.00027 17.7016 6.00027H20C21.1046 6.00027 22 6.8957 22 8.00027V20.0003C22 21.1048 21.1046 22.0003 20 22.0003L15 22.0003V18.0003C15 16.3434 13.6569 15.0003 12 15.0003C10.3431 15.0003 9 16.3434 9 18.0003V22.0003L4 22.0003C2.89543 22.0003 2 21.1048 2 20.0003V8.00027ZM14 10.0003C14 8.8957 13.1046 8.00027 12 8.00027C10.8954 8.00027 10 8.8957 10 10.0003C10 11.1048 10.8954 12.0003 12 12.0003C13.1046 12.0003 14 11.1048 14 10.0003Z" fill="#28303F"/>
</svg>
