<svg width="24" height="24" viewBox="0 0 24 24" fill="none" xmlns="http://www.w3.org/2000/svg">
<path fill-rule="evenodd" clip-rule="evenodd" d="M5 5C5 3.34315 6.34315 2 8 2H16C17.6569 2 19 3.34315 19 5V19C19 20.6569 17.6569 22 16 22H8C6.34315 22 5 20.6569 5 19V5ZM9.25 8C9.25 6.48122 10.4812 5.25 12 5.25C13.5188 5.25 14.75 6.48122 14.75 8V10V12C14.75 12.4142 14.4142 12.75 14 12.75C13.5858 12.75 13.25 12.4142 13.25 12V10.75H10.75V12C10.75 12.4142 10.4142 12.75 10 12.75C9.58579 12.75 9.25 12.4142 9.25 12V10V8ZM13.25 9.25V8C13.25 7.30964 12.6904 6.75 12 6.75C11.3096 6.75 10.75 7.30964 10.75 8V9.25H13.25ZM10.25 19C10.25 18.5858 10.5858 18.25 11 18.25H13C13.4142 18.25 13.75 18.5858 13.75 19C13.75 19.4142 13.4142 19.75 13 19.75H11C10.5858 19.75 10.25 19.4142 10.25 19ZM9 14.25C8.58579 14.25 8.25 14.5858 8.25 15C8.25 15.4142 8.58579 15.75 9 15.75H15C15.4142 15.75 15.75 15.4142 15.75 15C15.75 14.5858 15.4142 14.25 15 14.25H9Z" fill="#28303F"/>
</svg>
