<svg width="24" height="24" viewBox="0 0 24 24" fill="none" xmlns="http://www.w3.org/2000/svg">
<path fill-rule="evenodd" clip-rule="evenodd" d="M11.5046 7.92816C11.5363 7.82242 11.6336 7.75 11.744 7.75H21C21.4142 7.75 21.75 7.41421 21.75 7C21.75 6.58579 21.4142 6.25 21 6.25H11.744C10.9712 6.25 10.2899 6.75692 10.0678 7.49714L7.85086 14.887C7.79192 15.0835 7.53448 15.1293 7.41141 14.9652L5.9 12.95C5.5695 12.5093 5.05083 12.25 4.5 12.25H3C2.58579 12.25 2.25 12.5858 2.25 13C2.25 13.4142 2.58579 13.75 3 13.75H4.5C4.57869 13.75 4.65279 13.787 4.7 13.85L6.21141 15.8652C7.07295 17.0139 8.875 16.6934 9.2876 15.3181L11.5046 7.92816ZM18.6516 12.2877C18.9445 11.9948 18.9445 11.5199 18.6516 11.227C18.3587 10.9341 17.8839 10.9341 17.591 11.227L16 12.818L14.409 11.227C14.1161 10.9341 13.6412 10.9341 13.3483 11.227C13.0554 11.5199 13.0554 11.9948 13.3483 12.2877L14.9393 13.8786L13.3483 15.4696C13.0554 15.7625 13.0554 16.2374 13.3483 16.5303C13.6412 16.8232 14.1161 16.8232 14.409 16.5303L16 14.9393L17.591 16.5303C17.8839 16.8232 18.3587 16.8232 18.6516 16.5303C18.9445 16.2374 18.9445 15.7625 18.6516 15.4696L17.0606 13.8786L18.6516 12.2877Z" fill="#28303F"/>
</svg>
