<svg width="24" height="24" viewBox="0 0 24 24" fill="none" xmlns="http://www.w3.org/2000/svg">
<path fill-rule="evenodd" clip-rule="evenodd" d="M5 4C5 2.89543 5.89543 2 7 2C8.10457 2 9 2.89543 9 4V5.25H5V4ZM5 17.7889V6.75H9V17.7889C9 18.5786 8.76625 19.3506 8.3282 20.0077L7.41603 21.376C7.21811 21.6728 6.78189 21.6728 6.58397 21.376L5.6718 20.0077C5.23375 19.3506 5 18.5786 5 17.7889ZM14 2C12.8954 2 12 2.89543 12 4V20C12 21.1046 12.8954 22 14 22H18C19.1046 22 20 21.1046 20 20V18.75H18C17.5858 18.75 17.25 18.4142 17.25 18C17.25 17.5858 17.5858 17.25 18 17.25H20V14.75H18C17.5858 14.75 17.25 14.4142 17.25 14C17.25 13.5858 17.5858 13.25 18 13.25H20V10.75H18C17.5858 10.75 17.25 10.4142 17.25 10C17.25 9.58579 17.5858 9.25 18 9.25H20V6.75H18C17.5858 6.75 17.25 6.41421 17.25 6C17.25 5.58579 17.5858 5.25 18 5.25H20V4C20 2.89543 19.1046 2 18 2H14Z" fill="#28303F"/>
</svg>
