<svg width="24" height="24" viewBox="0 0 24 24" fill="none" xmlns="http://www.w3.org/2000/svg">
<path fill-rule="evenodd" clip-rule="evenodd" d="M18.5 11.5V6H20V11.5C20 11.9142 19.6642 12.25 19.25 12.25C18.8358 12.25 18.5 11.9142 18.5 11.5Z" fill="#28303F"/>
<path d="M16 10V7H8V10C8 12.2091 9.79086 14 12 14C14.2091 14 16 12.2091 16 10Z" fill="#28303F"/>
<path d="M4.02813 5.54334L10.7817 2.54177C11.5574 2.19701 12.4428 2.19701 13.2185 2.54177L19.9721 5.54334C20.368 5.7193 20.368 6.2812 19.9721 6.45716L13.2185 9.45873C12.4428 9.80349 11.5574 9.80349 10.7817 9.45873L4.02813 6.45716C3.63222 6.2812 3.63222 5.7193 4.02813 5.54334Z" fill="#28303F"/>
<path d="M14.2996 15.3999L12.711 17.0062C12.3196 17.4019 11.6804 17.4019 11.289 17.0062L9.70045 15.3999C9.45505 15.1517 9.09681 15.046 8.762 15.1444C5.95686 15.9693 4 17.8332 4 20.0003C4 21.1049 4.89543 22.0003 6 22.0003H18C19.1046 22.0003 20 21.1049 20 20.0003C20 17.8332 18.0431 15.9693 15.238 15.1444C14.9032 15.046 14.5449 15.1517 14.2996 15.3999Z" fill="#28303F"/>
</svg>
