<svg width="24" height="24" viewBox="0 0 24 24" fill="none" xmlns="http://www.w3.org/2000/svg">
<path fill-rule="evenodd" clip-rule="evenodd" d="M20.2378 10.5143V11.501C20.2378 12.7273 19.2437 13.7214 18.0174 13.7214C16.7912 13.7214 15.7971 12.7273 15.7971 11.501V10.5143L17.3411 11.2005C17.7717 11.3919 18.2632 11.3919 18.6938 11.2005L20.2378 10.5143ZM14.4094 9.89754V12.3337C14.4094 12.5637 14.223 12.7501 13.9931 12.7501C13.7631 12.7501 13.5767 12.5637 13.5767 12.3337V9.52694C13.5818 9.52955 13.587 9.53204 13.5923 9.5344L14.4094 9.89754Z" fill="#28303F"/>
<path d="M22.4426 9.43711L18.6938 7.77097C18.2632 7.5796 17.7717 7.5796 17.3411 7.77097L13.5923 9.43711C13.3726 9.53478 13.3726 9.84668 13.5923 9.94435L17.3411 11.6105C17.7717 11.8019 18.2632 11.8019 18.6938 11.6105L22.4426 9.94435C22.6624 9.84668 22.6624 9.53478 22.4426 9.43711Z" fill="#28303F"/>
<path fill-rule="evenodd" clip-rule="evenodd" d="M16.3165 18.572H21.3478C21.961 18.572 22.458 18.0749 22.458 17.4618C22.458 16.2588 21.3718 15.2243 19.8147 14.7664C19.6288 14.7117 19.43 14.7704 19.2938 14.9082L18.412 15.7998C18.1947 16.0195 17.8399 16.0195 17.6226 15.7998L16.7409 14.9082C16.6046 14.7704 16.4058 14.7117 16.2199 14.7664C15.6744 14.9268 15.1868 15.158 14.7833 15.4424C15.7445 16.3219 16.3126 17.403 16.3165 18.572Z" fill="#28303F"/>
<path fill-rule="evenodd" clip-rule="evenodd" d="M11.7817 8.20691V9.71234C11.7817 11.5831 10.2652 13.0996 8.39452 13.0996C6.52381 13.0996 5.0073 11.5831 5.0073 9.71234V8.20691L7.36276 9.25379C8.01962 9.54573 8.76942 9.54573 9.42628 9.25379L11.7817 8.20691ZM2.89029 7.26602V10.9825C2.89029 11.3333 2.60594 11.6177 2.25518 11.6177C1.90443 11.6177 1.62008 11.3333 1.62008 10.9825V6.70066C1.6278 6.70464 1.63571 6.70843 1.64382 6.71204L2.89029 7.26602Z" fill="#28303F"/>
<path d="M15.1455 5.93844L9.42659 3.39669C8.76973 3.10475 8.01994 3.10475 7.36307 3.39669L1.64414 5.93844C1.30888 6.08744 1.30888 6.56326 1.64414 6.71226L7.36307 9.25401C8.01994 9.54595 8.76973 9.54595 9.42659 9.25401L15.1455 6.71226C15.4808 6.56326 15.4808 6.08744 15.1455 5.93844Z" fill="#28303F"/>
<path d="M6.44723 14.2848L7.7924 15.645C8.12385 15.9802 8.66516 15.9802 8.99661 15.645L10.3418 14.2848C10.5496 14.0747 10.8529 13.9851 11.1365 14.0685C13.5119 14.767 15.1689 16.3454 15.1689 18.1805C15.1689 19.1158 14.4107 19.8741 13.4753 19.8741H3.31367C2.37832 19.8741 1.62006 19.1158 1.62006 18.1805C1.62006 16.3454 3.27714 14.767 5.65255 14.0685C5.93607 13.9851 6.23943 14.0747 6.44723 14.2848Z" fill="#28303F"/>
</svg>
