<svg width="24" height="24" viewBox="0 0 24 24" fill="none" xmlns="http://www.w3.org/2000/svg">
<path fill-rule="evenodd" clip-rule="evenodd" d="M12 2C10.8954 2 10 2.89543 10 4V5.5H14V4C14 2.89543 13.1046 2 12 2ZM5 7C3.34315 7 2 8.34315 2 10V19C2 20.6569 3.34315 22 5 22H19C20.6569 22 22 20.6569 22 19V10C22 8.34315 20.6569 7 19 7H5ZM9 14C7.34315 14 6 15.3431 6 17C6 17.5523 6.44772 18 7 18H11C11.5523 18 12 17.5523 12 17C12 15.3431 10.6569 14 9 14ZM9 14C10.1046 14 11 13.1046 11 12C11 10.8954 10.1046 10 9 10C7.89543 10 7 10.8954 7 12C7 13.1046 7.89543 14 9 14ZM18.75 12C18.75 12.4142 18.4142 12.75 18 12.75H15C14.5858 12.75 14.25 12.4142 14.25 12C14.25 11.5858 14.5858 11.25 15 11.25H18C18.4142 11.25 18.75 11.5858 18.75 12ZM18 16.75C18.4142 16.75 18.75 16.4142 18.75 16C18.75 15.5858 18.4142 15.25 18 15.25L15 15.25C14.5858 15.25 14.25 15.5858 14.25 16C14.25 16.4142 14.5858 16.75 15 16.75L18 16.75Z" fill="#28303F"/>
</svg>
