<svg width="24" height="24" viewBox="0 0 24 24" fill="none" xmlns="http://www.w3.org/2000/svg">
<path fill-rule="evenodd" clip-rule="evenodd" d="M9.05701 2.58584C9.62792 2.01493 10.4861 1.84328 11.2327 2.1507L15.2397 3.80062C16.5593 4.34401 16.9015 6.05504 15.8924 7.06419L13.0639 9.89261C12.0548 10.9018 10.3438 10.5596 9.80037 9.2399L8.93123 7.12913L3.94424 12.1161C3.45609 12.6043 3.45609 13.3957 3.94424 13.8839L11.3104 21.25H14.9997C15.4139 21.25 15.7497 21.5858 15.7497 22C15.7497 22.4142 15.4139 22.75 14.9997 22.75H6.9997C6.58548 22.75 6.2497 22.4142 6.2497 22C6.2497 21.5858 6.58548 21.25 6.9997 21.25H9.18904L2.88358 14.9445C1.80964 13.8706 1.80964 12.1294 2.88358 11.0555L8.31251 5.62652L8.15046 5.23296C7.84304 4.48638 8.01468 3.62817 8.5856 3.05725L9.05701 2.58584ZM21.7672 8.21406C21.7672 8.62827 21.4314 8.96406 21.0172 8.96406H19.603C19.1887 8.96406 18.853 8.62827 18.853 8.21406C18.853 7.79984 19.1887 7.46406 19.603 7.46406H21.0172C21.4314 7.46406 21.7672 7.79984 21.7672 8.21406ZM18.012 9.80523C17.7191 9.51234 17.2443 9.51234 16.9514 9.80523C16.6585 10.0981 16.6585 10.573 16.9514 10.8659L18.3656 12.2801C18.6585 12.573 19.1333 12.573 19.4262 12.2801C19.7191 11.9872 19.7191 11.5123 19.4262 11.2194L18.012 9.80523ZM16.1104 12.4568C16.1104 12.0426 15.7746 11.7068 15.3604 11.7068C14.9461 11.7068 14.6104 12.0426 14.6104 12.4568V13.871C14.6104 14.2852 14.9461 14.621 15.3604 14.621C15.7746 14.621 16.1104 14.2852 16.1104 13.871V12.4568Z" fill="#28303F"/>
</svg>
