<svg width="24" height="24" viewBox="0 0 24 24" fill="none" xmlns="http://www.w3.org/2000/svg">
<path fill-rule="evenodd" clip-rule="evenodd" d="M8 8.77858V5C8 3.89543 8.89543 3 10 3H20C21.1046 3 22 3.89543 22 5V13C22 14.1046 21.1046 15 20 15H18.2231C17.9054 15 17.5923 14.9243 17.3097 14.7792L9.0866 10.5578C8.41949 10.2153 8 9.52847 8 8.77858ZM12 6.25C11.5858 6.25 11.25 6.58579 11.25 7C11.25 7.41421 11.5858 7.75 12 7.75H18C18.4142 7.75 18.75 7.41421 18.75 7C18.75 6.58579 18.4142 6.25 18 6.25H12ZM14.25 11C14.25 10.5858 14.5858 10.25 15 10.25H18C18.4142 10.25 18.75 10.5858 18.75 11C18.75 11.4142 18.4142 11.75 18 11.75H15C14.5858 11.75 14.25 11.4142 14.25 11ZM10 14C10 15.1046 9.10457 16 8 16C6.89543 16 6 15.1046 6 14C6 12.8954 6.89543 12 8 12C9.10457 12 10 12.8954 10 14ZM14.3124 14.3183C14.6889 14.4908 14.8543 14.936 14.6817 15.3126C14.0767 16.6326 11.9322 19.0228 7.9999 19.0228C4.6595 19.0228 3.01867 20.704 2.65706 21.3615C2.45744 21.7244 2.0014 21.8568 1.63846 21.6572C1.27552 21.4576 1.14312 21.0016 1.34273 20.6386C1.98112 19.4779 4.14029 17.5228 7.9999 17.5228C11.2676 17.5228 12.9231 15.5493 13.3181 14.6876C13.4907 14.311 13.9358 14.1457 14.3124 14.3183Z" fill="#28303F"/>
</svg>
