<svg width="24" height="24" viewBox="0 0 24 24" fill="none" xmlns="http://www.w3.org/2000/svg">
<path fill-rule="evenodd" clip-rule="evenodd" d="M7 7.24853V5C7 3.89543 7.89543 3 9 3H20C21.1046 3 22 3.89543 22 5V14C22 15.1046 21.1046 16 20 16H14.9075C14.3308 16 13.7822 15.751 13.4024 15.317L7.49485 8.56554C7.17584 8.20096 7 7.73298 7 7.24853ZM11 6.75C10.5858 6.75 10.25 7.08579 10.25 7.5C10.25 7.91421 10.5858 8.25 11 8.25H18C18.4142 8.25 18.75 7.91421 18.75 7.5C18.75 7.08579 18.4142 6.75 18 6.75H11ZM13.25 11.5C13.25 11.0858 13.5858 10.75 14 10.75H18C18.4142 10.75 18.75 11.0858 18.75 11.5C18.75 11.9142 18.4142 12.25 18 12.25H14C13.5858 12.25 13.25 11.9142 13.25 11.5ZM9 13C9 14.1046 8.10457 15 7 15C5.89543 15 5 14.1046 5 13C5 11.8954 5.89543 11 7 11C8.10457 11 9 11.8954 9 13ZM2 18C2 16.8954 2.89543 16 4 16H4.17157C4.70201 16 5.21071 16.2107 5.58579 16.5858C6.36684 17.3668 7.63316 17.3668 8.41421 16.5858C8.78929 16.2107 9.29799 16 9.82843 16H10C11.1046 16 12 16.8954 12 18V19C12 20.1046 11.1046 21 10 21H4C2.89543 21 2 20.1046 2 19V18Z" fill="#28303F"/>
</svg>
