<svg width="24" height="24" viewBox="0 0 24 24" fill="none" xmlns="http://www.w3.org/2000/svg">
<path fill-rule="evenodd" clip-rule="evenodd" d="M17.1334 2.21275C16.3984 2.65072 16.1465 3.62071 16.5709 4.37929L19.1321 8.95772C19.5565 9.7163 20.4964 9.97621 21.2314 9.53824C21.9664 9.10028 22.2182 8.13029 21.7939 7.37171L19.2326 2.79327C18.8083 2.03469 17.8684 1.77478 17.1334 2.21275ZM15.0585 4.67017L7.44257 9.20821C6.46254 9.79216 6.12676 11.0855 6.69258 12.0969L6.83868 12.3581L6.82082 12.3684L3.04675 14.6172L2.65468 13.9164C2.45245 13.5549 1.99547 13.4258 1.63397 13.628C1.27248 13.8302 1.14337 14.2872 1.34559 14.6487L2.88234 17.3957C3.08457 17.7572 3.54155 17.8863 3.90305 17.6841C4.26454 17.4819 4.39365 17.0249 4.19143 16.6634L3.77934 15.9268L7.57114 13.6674L7.71708 13.9283C8.2829 14.9397 9.53605 15.2863 10.5161 14.7023L11.8864 13.8858L7.90013 21.6578C7.71109 22.0264 7.85663 22.4784 8.22519 22.6675C8.59376 22.8565 9.04578 22.711 9.23481 22.3424L13.69 13.6561L18.1451 22.3424C18.3342 22.711 18.7862 22.8565 19.1548 22.6675C19.5233 22.4784 19.6689 22.0264 19.4798 21.6578L14.6492 12.2396L18.144 10.1572C18.0249 10.014 17.9174 9.85807 17.8233 9.69001L15.2621 5.11158C15.1819 4.96814 15.1141 4.82054 15.0585 4.67017Z" fill="#28303F"/>
</svg>
