<svg width="24" height="24" viewBox="0 0 24 24" fill="none" xmlns="http://www.w3.org/2000/svg">
<path fill-rule="evenodd" clip-rule="evenodd" d="M6 1.25C3.37665 1.25 1.25 3.37665 1.25 6V8C1.25 8.41421 1.58579 8.75 2 8.75C2.41421 8.75 2.75 8.41421 2.75 8V6C2.75 4.20507 4.20507 2.75 6 2.75H8C8.41421 2.75 8.75 2.41421 8.75 2C8.75 1.58579 8.41421 1.25 8 1.25H6ZM16 1.25C15.5858 1.25 15.25 1.58579 15.25 2C15.25 2.41421 15.5858 2.75 16 2.75H18C19.7949 2.75 21.25 4.20507 21.25 6V8C21.25 8.41421 21.5858 8.75 22 8.75C22.4142 8.75 22.75 8.41421 22.75 8V6C22.75 3.37665 20.6234 1.25 18 1.25H16ZM2.75 16C2.75 15.5858 2.41421 15.25 2 15.25C1.58579 15.25 1.25 15.5858 1.25 16V18C1.25 20.6234 3.37665 22.75 6 22.75H8C8.41421 22.75 8.75 22.4142 8.75 22C8.75 21.5858 8.41421 21.25 8 21.25H6C4.20507 21.25 2.75 19.7949 2.75 18V16ZM22.75 16C22.75 15.5858 22.4142 15.25 22 15.25C21.5858 15.25 21.25 15.5858 21.25 16V18C21.25 19.7949 19.7949 21.25 18 21.25H16C15.5858 21.25 15.25 21.5858 15.25 22C15.25 22.4142 15.5858 22.75 16 22.75H18C20.6234 22.75 22.75 20.6234 22.75 18V16ZM12 17C14.7614 17 17 14.7614 17 12C17 9.23858 14.7614 7 12 7C9.23858 7 7 9.23858 7 12C7 14.7614 9.23858 17 12 17Z" fill="#28303F"/>
</svg>
