<svg width="24" height="24" viewBox="0 0 24 24" fill="none" xmlns="http://www.w3.org/2000/svg">
<circle cx="17" cy="7" r="5" stroke="#28303F" stroke-width="1.5"/>
<path d="M19 5V9" stroke="#28303F" stroke-width="1.5" stroke-linecap="round" stroke-linejoin="round"/>
<path d="M15 5V9" stroke="#28303F" stroke-width="1.5" stroke-linecap="round" stroke-linejoin="round"/>
<path d="M19 7L15 7" stroke="#28303F" stroke-width="1.5" stroke-linecap="round" stroke-linejoin="round"/>
<path d="M6.44444 11.3333L6.10903 10.6625C5.80653 10.8138 5.64268 11.1488 5.70901 11.4804L6.44444 11.3333ZM12.6667 17.5556L12.5196 18.291C12.8512 18.3573 13.1862 18.1935 13.3375 17.891L12.6667 17.5556ZM15.2642 16.4612L14.9857 17.1576L15.2642 16.4612ZM6.57624 11.2674L6.24083 10.5966L6.57624 11.2674ZM7.53876 8.7358L6.84241 9.01434L7.53876 8.7358ZM17.25 18.9096V20.2222H18.75V18.9096H17.25ZM3.77778 6.75H5.09038V5.25H3.77778V6.75ZM12.6667 17.5556C12.8138 16.8201 12.814 16.8202 12.8142 16.8202C12.8142 16.8202 12.8144 16.8203 12.8145 16.8203C12.8148 16.8203 12.815 16.8204 12.8151 16.8204C12.8154 16.8205 12.8156 16.8205 12.8157 16.8205C12.8158 16.8205 12.8154 16.8205 12.8145 16.8203C12.8127 16.8199 12.8088 16.8191 12.803 16.8178C12.7913 16.8152 12.7717 16.8107 12.745 16.8042C12.6914 16.7912 12.6092 16.7699 12.5033 16.7388C12.2912 16.6764 11.9864 16.575 11.6288 16.4218C10.9101 16.1138 9.99947 15.6055 9.197 14.803L8.13634 15.8637C9.11164 16.839 10.201 17.4418 11.0379 17.8005C11.4581 17.9805 11.8199 18.1013 12.08 18.1779C12.2103 18.2162 12.3155 18.2435 12.3904 18.2617C12.4279 18.2709 12.4579 18.2777 12.4796 18.2825C12.4905 18.2849 12.4993 18.2868 12.506 18.2882C12.5093 18.2889 12.5121 18.2895 12.5144 18.2899C12.5155 18.2902 12.5165 18.2904 12.5174 18.2906C12.5178 18.2906 12.5182 18.2907 12.5186 18.2908C12.5188 18.2908 12.519 18.2909 12.5191 18.2909C12.5194 18.2909 12.5196 18.291 12.6667 17.5556ZM9.197 14.803C8.39453 14.0005 7.88623 13.0899 7.57825 12.3712C7.42499 12.0136 7.32357 11.7088 7.26119 11.4967C7.23005 11.3908 7.20879 11.3086 7.19576 11.255C7.18926 11.2283 7.18481 11.2087 7.18223 11.197C7.18094 11.1912 7.18012 11.1873 7.17974 11.1855C7.17954 11.1846 7.17946 11.1842 7.17949 11.1843C7.1795 11.1844 7.17954 11.1846 7.1796 11.1849C7.17964 11.185 7.17968 11.1852 7.17972 11.1855C7.17975 11.1856 7.17979 11.1858 7.1798 11.1858C7.17984 11.186 7.17988 11.1862 6.44444 11.3333C5.70901 11.4804 5.70905 11.4806 5.7091 11.4809C5.70912 11.481 5.70917 11.4812 5.70921 11.4814C5.70928 11.4818 5.70936 11.4822 5.70945 11.4826C5.70962 11.4835 5.70983 11.4845 5.71006 11.4856C5.71053 11.4879 5.71111 11.4907 5.71181 11.494C5.71322 11.5007 5.71511 11.5095 5.71751 11.5204C5.7223 11.5421 5.72915 11.5721 5.73826 11.6096C5.75649 11.6845 5.78384 11.7897 5.82214 11.92C5.89865 12.1801 6.01945 12.5419 6.19953 12.9621C6.55821 13.799 7.16103 14.8884 8.13634 15.8637L9.197 14.803ZM6.77985 12.0042L6.91165 11.9383L6.24083 10.5966L6.10903 10.6625L6.77985 12.0042ZM8.23512 8.45726L7.64369 6.97867L6.25097 7.53576L6.84241 9.01434L8.23512 8.45726ZM17.0213 16.3563L15.5427 15.7649L14.9857 17.1576L16.4642 17.749L17.0213 16.3563ZM12.0617 17.0884L11.9958 17.2201L13.3375 17.891L13.4034 17.7592L12.0617 17.0884ZM15.5427 15.7649C14.2148 15.2337 12.7014 15.8091 12.0617 17.0884L13.4034 17.7592C13.6941 17.1777 14.382 16.9161 14.9857 17.1576L15.5427 15.7649ZM6.91165 11.9383C8.1909 11.2986 8.7663 9.78521 8.23512 8.45726L6.84241 9.01434C7.08385 9.61796 6.82231 10.3059 6.24083 10.5966L6.91165 11.9383ZM5.09038 6.75C5.60151 6.75 6.06115 7.06119 6.25097 7.53576L7.64369 6.97867C7.22606 5.93461 6.21486 5.25 5.09038 5.25V6.75ZM18.75 18.9096C18.75 17.7851 18.0654 16.7739 17.0213 16.3563L16.4642 17.749C16.9388 17.9389 17.25 18.3985 17.25 18.9096H18.75ZM16.2222 21.25C8.78172 21.25 2.75 15.2183 2.75 7.77778H1.25C1.25 16.0467 7.95329 22.75 16.2222 22.75V21.25ZM16.2222 22.75C17.6183 22.75 18.75 21.6183 18.75 20.2222H17.25C17.25 20.7898 16.7898 21.25 16.2222 21.25V22.75ZM2.75 7.77778C2.75 7.21015 3.21015 6.75 3.77778 6.75V5.25C2.38173 5.25 1.25 6.38172 1.25 7.77778H2.75Z" fill="#28303F"/>
</svg>
