<svg width="24" height="24" viewBox="0 0 24 24" fill="none" xmlns="http://www.w3.org/2000/svg">
<path d="M18.6782 12.9114L12.9114 18.6782L13.972 19.7388L19.7388 13.972L18.6782 12.9114ZM5.32184 11.0886L11.0886 5.32184L10.028 4.26118L4.26118 10.028L5.32184 11.0886ZM5.32184 18.6782C3.22605 16.5824 3.22605 13.1844 5.32184 11.0886L4.26118 10.028C1.57961 12.7095 1.57961 17.0572 4.26118 19.7388L5.32184 18.6782ZM12.9114 18.6782C10.8156 20.7739 7.41763 20.7739 5.32184 18.6782L4.26118 19.7388C6.94276 22.4204 11.2905 22.4204 13.972 19.7388L12.9114 18.6782ZM18.6782 5.32184C20.7739 7.41763 20.7739 10.8156 18.6782 12.9114L19.7388 13.972C22.4204 11.2905 22.4204 6.94276 19.7388 4.26118L18.6782 5.32184ZM19.7388 4.26118C17.0572 1.57961 12.7095 1.57961 10.028 4.26118L11.0886 5.32184C13.1844 3.22605 16.5824 3.22605 18.6782 5.32184L19.7388 4.26118Z" fill="#28303F"/>
<path d="M17.48 6.51996C17.1871 6.22707 16.7123 6.22707 16.4194 6.51996C16.1265 6.81286 16.1265 7.28773 16.4194 7.58062L17.48 6.51996ZM16.4194 10.7626C16.1265 11.0555 16.1265 11.5304 16.4194 11.8233C16.7123 12.1162 17.1871 12.1162 17.48 11.8233L16.4194 10.7626ZM16.4194 7.58062C17.2981 8.4593 17.2981 9.88392 16.4194 10.7626L17.48 11.8233C18.9445 10.3588 18.9445 7.98443 17.48 6.51996L16.4194 7.58062Z" fill="#28303F"/>
<path d="M8.28765 7.22699C7.99476 6.9341 7.51989 6.9341 7.22699 7.22699C6.9341 7.51989 6.9341 7.99476 7.22699 8.28765L8.28765 7.22699ZM15.7123 16.7729C16.0052 17.0658 16.48 17.0658 16.7729 16.7729C17.0658 16.48 17.0658 16.0052 16.7729 15.7123L15.7123 16.7729ZM7.22699 8.28765L15.7123 16.7729L16.7729 15.7123L8.28765 7.22699L7.22699 8.28765Z" fill="#28303F"/>
</svg>
