<svg width="24" height="24" viewBox="0 0 24 24" fill="none" xmlns="http://www.w3.org/2000/svg">
<path d="M12 5.52422L11.451 6.03522C11.5929 6.18764 11.7918 6.27422 12 6.27422C12.2082 6.27422 12.4071 6.18764 12.549 6.03522L12 5.52422ZM12.765 4.70229L12.2161 4.1913V4.1913L12.765 4.70229ZM11.235 4.70229L11.7839 4.1913V4.1913L11.235 4.70229ZM3.58447 12.9217L3.03548 13.4326L3.58447 12.9217ZM10.4699 20.3191L11.0189 19.8081L10.4699 20.3191ZM13.5301 20.3191L12.9811 19.8081L13.5301 20.3191ZM20.4155 12.9217L19.8665 12.4107L20.4155 12.9217ZM20.4155 4.70229L20.9645 4.1913L20.4155 4.70229ZM3.58447 4.70229L3.03548 4.1913L3.58447 4.70229ZM3 11.25C2.58579 11.25 2.25 11.5858 2.25 12C2.25 12.4142 2.58579 12.75 3 12.75V11.25ZM8 12V12.75C8.25076 12.75 8.48494 12.6247 8.62404 12.416L8 12ZM10 9L10.624 8.58397C10.4849 8.37533 10.2508 8.25 10 8.25C9.74924 8.25 9.51506 8.37533 9.37596 8.58397L10 9ZM14 15L13.376 15.416C13.5151 15.6247 13.7492 15.75 14 15.75C14.2508 15.75 14.4849 15.6247 14.624 15.416L14 15ZM16 12V11.25C15.7492 11.25 15.5151 11.3753 15.376 11.584L16 12ZM21 12.75C21.4142 12.75 21.75 12.4142 21.75 12C21.75 11.5858 21.4142 11.25 21 11.25V12.75ZM12.549 6.03522L13.314 5.21328L12.2161 4.1913L11.451 5.01323L12.549 6.03522ZM10.686 5.21328L11.451 6.03522L12.549 5.01323L11.7839 4.1913L10.686 5.21328ZM3.03548 13.4326L9.92091 20.8301L11.0189 19.8081L4.13345 12.4107L3.03548 13.4326ZM14.0791 20.8301L20.9645 13.4326L19.8665 12.4107L12.9811 19.8081L14.0791 20.8301ZM19.8665 5.21328C21.7111 7.19505 21.7112 10.4289 19.8665 12.4107L20.9645 13.4326C23.3452 10.875 23.3452 6.74896 20.9645 4.1913L19.8665 5.21328ZM20.9645 4.1913C18.5553 1.6029 14.6253 1.6029 12.2161 4.1913L13.314 5.21328C15.13 3.26224 18.0505 3.26224 19.8665 5.21328L20.9645 4.1913ZM4.13346 5.21328C5.94946 3.26224 8.86996 3.26224 10.686 5.21328L11.7839 4.1913C9.3747 1.6029 5.44472 1.6029 3.03548 4.1913L4.13346 5.21328ZM9.92091 20.8301C11.0626 22.0566 12.9374 22.0566 14.0791 20.8301L12.9811 19.8081C12.4327 20.3973 11.5673 20.3973 11.0189 19.8081L9.92091 20.8301ZM3.03548 4.1913C0.654841 6.74896 0.65484 10.875 3.03548 13.4326L4.13345 12.4107C2.28885 10.4289 2.28885 7.19505 4.13346 5.21328L3.03548 4.1913ZM3 12.75H8V11.25H3V12.75ZM8.62404 12.416L10.624 9.41603L9.37596 8.58397L7.37596 11.584L8.62404 12.416ZM9.37596 9.41603L13.376 15.416L14.624 14.584L10.624 8.58397L9.37596 9.41603ZM14.624 15.416L16.624 12.416L15.376 11.584L13.376 14.584L14.624 15.416ZM16 12.75H21V11.25H16V12.75Z" fill="#28303F"/>
</svg>
