<svg width="24" height="24" viewBox="0 0 24 24" fill="none" xmlns="http://www.w3.org/2000/svg">
<path d="M16 4H17C19.2091 4 21 5.79086 21 8V18C21 20.2091 19.2091 22 17 22H7C4.79086 22 3 20.2091 3 18V8C3 5.79086 4.79086 4 7 4H8M16 4C16 5.10457 15.1046 6 14 6H10C8.89543 6 8 5.10457 8 4M16 4C16 2.89543 15.1046 2 14 2H10C8.89543 2 8 2.89543 8 4" stroke="#28303F" stroke-width="1.5"/>
<path d="M7 13H9L11 11L13 15L15 13H17" stroke="#28303F" stroke-width="1.5" stroke-linecap="round" stroke-linejoin="round"/>
</svg>
