<svg width="24" height="24" viewBox="0 0 24 24" fill="none" xmlns="http://www.w3.org/2000/svg">
<path d="M13.9551 5.0052C13.6622 5.2981 13.6622 5.77297 13.9551 6.06586C14.248 6.35876 14.7229 6.35876 15.0158 6.06586L13.9551 5.0052ZM16.7836 7.83363C16.4907 8.12652 16.4907 8.6014 16.7836 8.89429C17.0765 9.18718 17.5513 9.18718 17.8442 8.89429L16.7836 7.83363ZM15.0158 6.06586L17.1371 3.94454L16.0765 2.88388L13.9551 5.0052L15.0158 6.06586ZM18.9049 5.71231L16.7836 7.83363L17.8442 8.89429L19.9655 6.77297L18.9049 5.71231ZM18.9049 3.94454C19.393 4.4327 19.393 5.22416 18.9049 5.71231L19.9655 6.77297C21.0395 5.69903 21.0395 3.95783 19.9655 2.88388L18.9049 3.94454ZM17.1371 3.94454C17.6253 3.45639 18.4167 3.45639 18.9049 3.94454L19.9655 2.88388C18.8916 1.80994 17.1504 1.80994 16.0765 2.88388L17.1371 3.94454Z" fill="#28303F"/>
<path d="M13.955 5.00538C14.2478 4.71249 14.7227 4.71249 15.0156 5.00538C15.3085 5.29828 15.3085 5.77315 15.0156 6.06604L13.955 5.00538ZM16.7834 7.83381C17.0763 7.54092 17.5511 7.54092 17.844 7.83381C18.1369 8.12671 18.1369 8.60158 17.844 8.89447L16.7834 7.83381ZM7.41421 15.4352L7.41421 16.1852L6.66421 16.1852V15.4352H7.41421ZM15.0156 6.06604L9.11612 11.9655L8.05546 10.9049L13.955 5.00538L15.0156 6.06604ZM10.8839 13.7333L16.7834 7.83381L17.844 8.89447L11.9445 14.794L10.8839 13.7333ZM8.16421 14.2636L8.16421 15.4352L6.66421 15.4352L6.66421 14.2636L8.16421 14.2636ZM7.41421 14.6852L8.58579 14.6852L8.58579 16.1852L7.41421 16.1852L7.41421 14.6852ZM11.9445 14.794C11.0537 15.6848 9.84557 16.1852 8.58579 16.1852L8.58579 14.6852C9.44774 14.6852 10.2744 14.3428 10.8839 13.7333L11.9445 14.794ZM9.11612 11.9655C8.50662 12.575 8.16421 13.4017 8.16421 14.2636L6.66421 14.2636C6.66421 13.0039 7.16466 11.7957 8.05546 10.9049L9.11612 11.9655Z" fill="#28303F"/>
<path d="M13.0713 4.12109L18.7281 9.77795" stroke="#28303F" stroke-width="1.5" stroke-linecap="round" stroke-linejoin="round"/>
<path d="M7 20.5C7 21.6046 6.32843 22 5.5 22C4.67157 22 4 21.6046 4 20.5C4 19.3954 5.5 18 5.5 18C5.5 18 7 19.3954 7 20.5Z" stroke="#28303F" stroke-width="1.5" stroke-linejoin="round"/>
</svg>
