<svg width="24" height="24" viewBox="0 0 24 24" fill="none" xmlns="http://www.w3.org/2000/svg">
<path d="M14 8.05556L13.25 8.05556L14 8.05556ZM22 8.05556L22.75 8.05556L22 8.05556ZM19.1322 2.9812L19.6506 2.43922L19.1322 2.9812ZM14.75 8.05556C14.75 7.26871 15.0887 6.42729 15.62 5.60644C16.1458 4.79408 16.8182 4.06655 17.3862 3.52319L16.3494 2.43922C15.7347 3.02718 14.9732 3.84522 14.3608 4.79139C13.7538 5.72909 13.25 6.85918 13.25 8.05556L14.75 8.05556ZM18.6138 3.52319C19.1818 4.06655 19.8542 4.79408 20.38 5.60644C20.9113 6.42729 21.25 7.26871 21.25 8.05556L22.75 8.05556C22.75 6.85918 22.2462 5.72909 21.6392 4.79139C21.0268 3.84522 20.2653 3.02718 19.6506 2.43922L18.6138 3.52319ZM21.25 8.05556C21.25 9.63978 20.0191 11.25 18 11.25L18 12.75C20.9515 12.75 22.75 10.3602 22.75 8.05556L21.25 8.05556ZM18 11.25C15.9809 11.25 14.75 9.63978 14.75 8.05556L13.25 8.05556C13.25 10.3602 15.0485 12.75 18 12.75L18 11.25ZM17.3862 3.52319C17.7386 3.18612 18.2614 3.18612 18.6138 3.52319L19.6506 2.43922C18.7183 1.54745 17.2817 1.54745 16.3494 2.43922L17.3862 3.52319Z" fill="#28303F"/>
<path d="M2 9.25C1.58579 9.25 1.25 9.58579 1.25 10C1.25 10.4142 1.58579 10.75 2 10.75V9.25ZM4 10L4.30061 9.31288C4.20582 9.27141 4.10347 9.25 4 9.25V10ZM7.29544 14.8106C6.91472 14.6475 6.47381 14.8238 6.31064 15.2046C6.14747 15.5853 6.32384 16.0262 6.70456 16.1894L7.29544 14.8106ZM8.74342 16.2472L8.44798 16.9365L8.74342 16.2472ZM2 10.75H4V9.25H2V10.75ZM3.69939 10.6871L9.96163 13.4269L10.5629 12.0526L4.30061 9.31288L3.69939 10.6871ZM9.03886 15.5578L7.29544 14.8106L6.70456 16.1894L8.44798 16.9365L9.03886 15.5578ZM10.5635 14.948C10.3109 15.5374 9.62827 15.8104 9.03886 15.5578L8.44798 16.9365C9.79884 17.5155 11.3632 16.8897 11.9422 15.5389L10.5635 14.948ZM9.96163 13.4269C10.546 13.6825 10.8147 14.3617 10.5635 14.948L11.9422 15.5389C12.518 14.1952 11.9022 12.6386 10.5629 12.0526L9.96163 13.4269Z" fill="#28303F"/>
<path d="M2.33541 18.3292C1.96493 18.1439 1.51442 18.2941 1.32918 18.6646C1.14394 19.0351 1.29411 19.4856 1.66459 19.6708L2.33541 18.3292ZM11.3354 15.3292L10.6646 14.9938L9.99377 16.3354L10.6646 16.6708L11.3354 15.3292ZM13.7331 17.3666L13.3977 18.0374L13.7331 17.3666ZM16.4164 18.75H18V17.25H16.4164V18.75ZM18 21.25H9.88854V22.75H18V21.25ZM6.64625 20.4846L2.33541 18.3292L1.66459 19.6708L5.97542 21.8262L6.64625 20.4846ZM14.0685 16.6957L11.3354 15.3292L10.6646 16.6708L13.3977 18.0374L14.0685 16.6957ZM9.88854 21.25C8.76302 21.25 7.65295 20.9879 6.64625 20.4846L5.97542 21.8262C7.19041 22.4337 8.53015 22.75 9.88854 22.75V21.25ZM19.25 20C19.25 20.6904 18.6904 21.25 18 21.25V22.75C19.5188 22.75 20.75 21.5188 20.75 20H19.25ZM18 18.75C18.6904 18.75 19.25 19.3096 19.25 20H20.75C20.75 18.4812 19.5188 17.25 18 17.25V18.75ZM16.4164 17.25C15.6014 17.25 14.7975 17.0602 14.0685 16.6957L13.3977 18.0374C14.335 18.506 15.3685 18.75 16.4164 18.75V17.25Z" fill="#28303F"/>
</svg>
