<svg width="24" height="24" viewBox="0 0 24 24" fill="none" xmlns="http://www.w3.org/2000/svg">
<path d="M22 6.5C22 8.98528 19.9853 11 17.5 11C15.0147 11 13 8.98528 13 6.5C13 4.01472 15.0147 2 17.5 2C19.9853 2 22 4.01472 22 6.5Z" stroke="#28303F" stroke-width="1.5"/>
<path d="M19 4.5V8.5" stroke="#28303F" stroke-width="1.5" stroke-linecap="round" stroke-linejoin="round"/>
<path d="M16 4.5V8.5" stroke="#28303F" stroke-width="1.5" stroke-linecap="round" stroke-linejoin="round"/>
<path d="M19 6.5L16 6.5" stroke="#28303F" stroke-width="1.5" stroke-linecap="round" stroke-linejoin="round"/>
<path d="M2 9V18M2 22V18M2 18H22V22" stroke="#28303F" stroke-width="1.5" stroke-linecap="round" stroke-linejoin="round"/>
<path d="M2 14V13.25C1.58579 13.25 1.25 13.5858 1.25 14H2ZM22 18V18.75C22.4142 18.75 22.75 18.4142 22.75 18H22ZM2 18H1.25C1.25 18.4142 1.58579 18.75 2 18.75V18ZM2 14.75H20V13.25H2V14.75ZM21.25 16V18H22.75V16H21.25ZM22 17.25H2V18.75H22V17.25ZM2.75 18V14H1.25V18H2.75ZM20 14.75C20.6904 14.75 21.25 15.3096 21.25 16H22.75C22.75 14.4812 21.5188 13.25 20 13.25V14.75Z" fill="#28303F"/>
<path d="M5 14H4.25C4.25 14.4142 4.58579 14.75 5 14.75V14ZM10 14V14.75C10.4142 14.75 10.75 14.4142 10.75 14H10ZM5.75 14V12H4.25V14H5.75ZM6 11.75H9V10.25H6V11.75ZM9.25 12V14H10.75V12H9.25ZM10 13.25H5V14.75H10V13.25ZM9 11.75C9.13807 11.75 9.25 11.8619 9.25 12H10.75C10.75 11.0335 9.9665 10.25 9 10.25V11.75ZM5.75 12C5.75 11.8619 5.86193 11.75 6 11.75V10.25C5.0335 10.25 4.25 11.0335 4.25 12H5.75Z" fill="#28303F"/>
</svg>
