<svg width="24" height="24" viewBox="0 0 24 24" fill="none" xmlns="http://www.w3.org/2000/svg">
<path d="M3.25 22C3.25 22.4142 3.58579 22.75 4 22.75C4.41421 22.75 4.75 22.4142 4.75 22H3.25ZM19.25 22C19.25 22.4142 19.5858 22.75 20 22.75C20.4142 22.75 20.75 22.4142 20.75 22H19.25ZM8.25 22C8.25 22.4142 8.58579 22.75 9 22.75C9.41421 22.75 9.75 22.4142 9.75 22H8.25ZM14.25 22C14.25 22.4142 14.5858 22.75 15 22.75C15.4142 22.75 15.75 22.4142 15.75 22H14.25ZM4.75 22V6H3.25V22H4.75ZM8 2.75H16V1.25H8V2.75ZM19.25 6V22H20.75V6H19.25ZM16 2.75C17.7949 2.75 19.25 4.20507 19.25 6H20.75C20.75 3.37665 18.6234 1.25 16 1.25V2.75ZM4.75 6C4.75 4.20507 6.20507 2.75 8 2.75V1.25C5.37665 1.25 3.25 3.37665 3.25 6H4.75ZM9.75 22V17H8.25V22H9.75ZM14.25 17V22H15.75V17H14.25ZM12 14.75C13.2426 14.75 14.25 15.7574 14.25 17H15.75C15.75 14.9289 14.0711 13.25 12 13.25V14.75ZM9.75 17C9.75 15.7574 10.7574 14.75 12 14.75V13.25C9.92893 13.25 8.25 14.9289 8.25 17H9.75Z" fill="#28303F"/>
<path d="M12 5V11" stroke="#28303F" stroke-width="1.5" stroke-linecap="round"/>
<path d="M15 8H9" stroke="#28303F" stroke-width="1.5" stroke-linecap="round"/>
<path d="M2 22H22" stroke="#28303F" stroke-width="1.5" stroke-linecap="round"/>
</svg>
