<svg width="24" height="24" viewBox="0 0 24 24" fill="none" xmlns="http://www.w3.org/2000/svg">
<path d="M7.73407 12.8521L8.47653 12.9582L7.73407 12.8521ZM8.83008 12.2511L14.0155 7.06564L12.9549 6.00498L7.76942 11.1904L8.83008 12.2511ZM15.7833 7.06564L17.1975 8.47985L18.2582 7.41919L16.844 6.00498L15.7833 7.06564ZM17.1975 10.2476L12.0121 15.4331L13.0727 16.4937L18.2582 11.3083L17.1975 10.2476ZM11.305 15.7866L9.65504 16.0223L9.86717 17.5072L11.5171 17.2715L11.305 15.7866ZM8.24082 14.6081L8.47653 12.9582L6.9916 12.7461L6.7559 14.396L8.24082 14.6081ZM9.65504 16.0223C8.83008 16.1402 8.12297 15.4331 8.24082 14.6081L6.7559 14.396C6.49663 16.2109 8.05226 17.7665 9.86717 17.5072L9.65504 16.0223ZM12.0121 15.4331C11.8208 15.6243 11.5727 15.7484 11.305 15.7866L11.5171 17.2715C12.1061 17.1874 12.652 16.9145 13.0727 16.4937L12.0121 15.4331ZM17.1975 8.47985C17.6857 8.96801 17.6857 9.75946 17.1975 10.2476L18.2582 11.3083C19.3321 10.2343 19.3321 8.49313 18.2582 7.41919L17.1975 8.47985ZM14.0155 7.06564C14.5037 6.57748 15.2951 6.57748 15.7833 7.06564L16.844 6.00498C15.77 4.93104 14.0288 4.93104 12.9549 6.00498L14.0155 7.06564ZM7.76942 11.1904C7.34868 11.6112 7.07575 12.157 6.9916 12.7461L8.47653 12.9582C8.51478 12.6904 8.63883 12.4423 8.83008 12.2511L7.76942 11.1904Z" fill="#28303F"/>
<path d="M19.8496 4.41406L17.0212 7.24249" stroke="#28303F" stroke-width="1.5" stroke-linecap="round" stroke-linejoin="round"/>
<path d="M18.4351 3L21.2635 5.82843" stroke="#28303F" stroke-width="1.5" stroke-linecap="round" stroke-linejoin="round"/>
<path d="M9.24286 10.7781L16.3139 12.1923" stroke="#28303F" stroke-width="1.5" stroke-linecap="round" stroke-linejoin="round"/>
<path d="M7.82859 16.435L2.99999 21" stroke="#28303F" stroke-width="1.5" stroke-linecap="round" stroke-linejoin="round"/>
</svg>
