<svg width="24" height="24" viewBox="0 0 24 24" fill="none" xmlns="http://www.w3.org/2000/svg">
<path d="M20 9.88889H20.75H20ZM4 9.88889H3.25H4ZM13.1551 21.0499L13.6475 21.6157L13.1551 21.0499ZM19.25 9.88889C19.25 11.9781 18.2013 14.1282 16.8023 16.048C15.4142 17.9527 13.749 19.539 12.6628 20.4841L13.6475 21.6157C14.7769 20.6329 16.5341 18.963 18.0146 16.9314C19.4841 14.9148 20.75 12.4484 20.75 9.88889H19.25ZM11.3372 20.4841C10.251 19.539 8.58576 17.9527 7.19771 16.048C5.79871 14.1282 4.75 11.9781 4.75 9.88889H3.25C3.25 12.4484 4.51592 14.9148 5.98545 16.9314C7.46593 18.963 9.22311 20.6329 10.3525 21.6157L11.3372 20.4841ZM4.75 9.88889C4.75 6.36022 7.49565 2.75 12 2.75V1.25C6.56322 1.25 3.25 5.63978 3.25 9.88889H4.75ZM12 2.75C16.5043 2.75 19.25 6.36022 19.25 9.88889H20.75C20.75 5.63978 17.4368 1.25 12 1.25V2.75ZM12.6628 20.4841C12.2745 20.822 11.7255 20.822 11.3372 20.4841L10.3525 21.6157C11.3054 22.4448 12.6946 22.4448 13.6475 21.6157L12.6628 20.4841Z" fill="#28303F"/>
<circle cx="12" cy="10" r="5" stroke="#28303F" stroke-width="1.5"/>
<path d="M14 8V12" stroke="#28303F" stroke-width="1.5" stroke-linecap="round" stroke-linejoin="round"/>
<path d="M10 8V12" stroke="#28303F" stroke-width="1.5" stroke-linecap="round" stroke-linejoin="round"/>
<path d="M14 10L10 10" stroke="#28303F" stroke-width="1.5" stroke-linecap="round" stroke-linejoin="round"/>
</svg>
