<svg width="24" height="24" viewBox="0 0 24 24" fill="none" xmlns="http://www.w3.org/2000/svg">
<path d="M10.2111 7.89443L9.87574 7.22361V7.22361L10.2111 7.89443ZM6 10L5.66459 9.32918C5.4105 9.45622 5.25 9.71592 5.25 10H6ZM18 10H18.75C18.75 9.71592 18.5895 9.45622 18.3354 9.32918L18 10ZM13.7889 7.89443L13.4534 8.56525L13.7889 7.89443ZM16.5607 18.1994L17.0409 18.7756H17.0409L16.5607 18.1994ZM15.8411 18.7991L15.361 18.2229H15.361L15.8411 18.7991ZM8.15889 18.7991L7.67876 19.3752L8.15889 18.7991ZM7.43926 18.1994L6.95912 18.7756L7.43926 18.1994ZM17.25 11C17.25 11.4142 17.5858 11.75 18 11.75C18.4142 11.75 18.75 11.4142 18.75 11H17.25ZM18 15.25C17.5858 15.25 17.25 15.5858 17.25 16C17.25 16.4142 17.5858 16.75 18 16.75V15.25ZM5.25 11C5.25 11.4142 5.58579 11.75 6 11.75C6.41421 11.75 6.75 11.4142 6.75 11H5.25ZM6 16.75C6.41421 16.75 6.75 16.4142 6.75 16C6.75 15.5858 6.41421 15.25 6 15.25V16.75ZM9.87574 7.22361L5.66459 9.32918L6.33541 10.6708L10.5466 8.56525L9.87574 7.22361ZM5.25 10V15.1265H6.75V10H5.25ZM18.75 15.1265V10H17.25V15.1265H18.75ZM18.3354 9.32918L14.1243 7.22361L13.4534 8.56525L17.6646 10.6708L18.3354 9.32918ZM16.0806 17.6232L15.361 18.2229L16.3212 19.3752L17.0409 18.7756L16.0806 17.6232ZM8.63903 18.2229L7.9194 17.6232L6.95912 18.7756L7.67876 19.3752L8.63903 18.2229ZM17.25 15.1265C17.25 16.091 16.8216 17.0057 16.0806 17.6232L17.0409 18.7756C18.1238 17.8731 18.75 16.5362 18.75 15.1265H17.25ZM5.25 15.1265C5.25 16.5362 5.87616 17.8731 6.95912 18.7756L7.9194 17.6232C7.17842 17.0057 6.75 16.091 6.75 15.1265H5.25ZM15.361 18.2229C13.414 19.8454 10.586 19.8454 8.63903 18.2229L7.67876 19.3752C10.182 21.4613 13.818 21.4613 16.3212 19.3752L15.361 18.2229ZM10.5466 8.56525C11.4615 8.10777 12.5385 8.10777 13.4534 8.56525L14.1243 7.22361C12.787 6.55498 11.213 6.55498 9.87574 7.22361L10.5466 8.56525ZM18.75 11V8H17.25V11H18.75ZM21.25 8V12H22.75V8H21.25ZM21.25 12C21.25 13.7949 19.7949 15.25 18 15.25V16.75C20.6234 16.75 22.75 14.6234 22.75 12H21.25ZM20 6.75C20.6904 6.75 21.25 7.30964 21.25 8H22.75C22.75 6.48122 21.5188 5.25 20 5.25V6.75ZM18.75 8C18.75 7.30964 19.3096 6.75 20 6.75V5.25C18.4812 5.25 17.25 6.48122 17.25 8H18.75ZM6.75 11V8H5.25V11H6.75ZM1.25 8V12H2.75V8H1.25ZM1.25 12C1.25 14.6234 3.37665 16.75 6 16.75V15.25C4.20507 15.25 2.75 13.7949 2.75 12H1.25ZM4 5.25C2.48122 5.25 1.25 6.48122 1.25 8H2.75C2.75 7.30964 3.30964 6.75 4 6.75V5.25ZM6.75 8C6.75 6.48122 5.51878 5.25 4 5.25V6.75C4.69036 6.75 5.25 7.30964 5.25 8H6.75Z" fill="#28303F"/>
</svg>
