<svg width="24" height="24" viewBox="0 0 24 24" fill="none" xmlns="http://www.w3.org/2000/svg">
<path d="M8 11V17" stroke="#28303F" stroke-width="1.5" stroke-linecap="round"/>
<path d="M11 14H5" stroke="#28303F" stroke-width="1.5" stroke-linecap="round"/>
<path d="M19 12H14" stroke="#28303F" stroke-width="1.5" stroke-linecap="round"/>
<path d="M17 16H14" stroke="#28303F" stroke-width="1.5" stroke-linecap="round"/>
<path d="M14 6H18C20.2091 6 22 7.79086 22 10V18C22 20.2091 20.2091 22 18 22H6C3.79086 22 2 20.2091 2 18V10C2 7.79086 3.79086 6 6 6H10M14 6V4C14 2.89543 13.1046 2 12 2C10.8954 2 10 2.89543 10 4V6M14 6C14 7.10457 13.1046 8 12 8C10.8954 8 10 7.10457 10 6" stroke="#28303F" stroke-width="1.5"/>
</svg>
