<svg width="24" height="24" viewBox="0 0 24 24" fill="none" xmlns="http://www.w3.org/2000/svg">
<circle cx="9" cy="15" r="7" stroke="#28303F" stroke-width="1.5"/>
<path d="M8.0625 8.06221L7.31919 7.96228L7.18831 8.93587L8.16197 8.80558L8.0625 8.06221ZM15.9376 15.9373L15.1942 15.8378L15.0639 16.8115L16.0375 16.6806L15.9376 15.9373ZM8.99977 8.75C12.4515 8.75 15.2498 11.5482 15.2498 15H16.7498C16.7498 10.7198 13.28 7.25 8.99977 7.25V8.75ZM19.4192 4.58058C21.86 7.02136 21.86 10.9786 19.4192 13.4194L20.4798 14.4801C23.5064 11.4535 23.5064 6.54649 20.4798 3.51992L19.4192 4.58058ZM10.5804 4.58058C13.0211 2.13981 16.9784 2.13981 19.4192 4.58058L20.4798 3.51992C17.4533 0.493359 12.5463 0.493359 9.51969 3.51992L10.5804 4.58058ZM8.80581 8.16213C8.98194 6.85199 9.57284 5.58809 10.5804 4.58058L9.51969 3.51992C8.2717 4.76792 7.53759 6.33765 7.31919 7.96228L8.80581 8.16213ZM8.16197 8.80558C8.43568 8.76895 8.71531 8.75 8.99977 8.75V7.25C8.64859 7.25 8.3025 7.27341 7.96303 7.31883L8.16197 8.80558ZM19.4192 13.4194C18.4117 14.4269 17.1478 15.0178 15.8376 15.194L16.0375 16.6806C17.6621 16.4622 19.2319 15.7281 20.4798 14.4801L19.4192 13.4194ZM15.2498 15C15.2498 15.2845 15.2308 15.5641 15.1942 15.8378L16.6809 16.0367C16.7264 15.6973 16.7498 15.3512 16.7498 15H15.2498Z" fill="#28303F"/>
<path d="M2 15H16" stroke="#28303F" stroke-width="1.5" stroke-linecap="round" stroke-linejoin="round"/>
<path d="M20.48 4.58062C20.7729 4.28773 20.7729 3.81286 20.48 3.51996C20.1871 3.22707 19.7123 3.22707 19.4194 3.51996L20.48 4.58062ZM13.4194 9.51996C13.1265 9.81285 13.1265 10.2877 13.4194 10.5806C13.7123 10.8735 14.1871 10.8735 14.48 10.5806L13.4194 9.51996ZM14.48 10.5806L20.48 4.58062L19.4194 3.51996L13.4194 9.51996L14.48 10.5806Z" fill="#28303F"/>
</svg>
