<svg width="24" height="24" viewBox="0 0 24 24" fill="none" xmlns="http://www.w3.org/2000/svg">
<path d="M5 10C5 7.79086 6.79086 6 9 6H15C17.2091 6 19 7.79086 19 10V18C19 20.2091 17.2091 22 15 22H9C6.79086 22 5 20.2091 5 18V10Z" stroke="#28303F" stroke-width="1.5"/>
<path d="M5 4C5 2.89543 5.89543 2 7 2H17C18.1046 2 19 2.89543 19 4C19 5.10457 18.1046 6 17 6H7C5.89543 6 5 5.10457 5 4Z" stroke="#28303F" stroke-width="1.5"/>
<path d="M15 14C15 15.6569 13.6569 17 12 17C10.3431 17 9 15.6569 9 14C9 12.3431 10.3431 11 12 11C13.6569 11 15 12.3431 15 14Z" stroke="#28303F" stroke-width="1.5"/>
</svg>
