<svg width="24" height="24" viewBox="0 0 24 24" fill="none" xmlns="http://www.w3.org/2000/svg">
<rect x="12.5381" y="8.6333" width="4" height="5.52265" rx="1" transform="rotate(45 12.5381 8.6333)" stroke="#28303F" stroke-width="1.5"/>
<path d="M9.79391 19.8344L10.3242 20.3647L9.79391 19.8344ZM19.8343 9.79391L19.304 9.26358L19.8343 9.79391ZM19.304 9.26358L9.26358 19.304L10.3242 20.3647L20.3647 10.3242L19.304 9.26358ZM4.69598 14.7364L14.7364 4.69598L13.6758 3.63532L3.63532 13.6758L4.69598 14.7364ZM4.69598 19.304C3.43467 18.0427 3.43467 15.9977 4.69598 14.7364L3.63532 13.6758C1.78823 15.5229 1.78823 18.5176 3.63532 20.3647L4.69598 19.304ZM9.26358 19.304C8.00227 20.5653 5.95729 20.5653 4.69598 19.304L3.63532 20.3647C5.48241 22.2118 8.47714 22.2118 10.3242 20.3647L9.26358 19.304ZM19.304 4.69598C20.5653 5.95729 20.5653 8.00227 19.304 9.26358L20.3647 10.3242C22.2118 8.47715 22.2118 5.48242 20.3647 3.63532L19.304 4.69598ZM20.3647 3.63532C18.5176 1.78823 15.5229 1.78822 13.6758 3.63532L14.7364 4.69598C15.9977 3.43467 18.0427 3.43467 19.304 4.69598L20.3647 3.63532Z" fill="#28303F"/>
<path d="M16.2427 6.34326L17.6569 7.75748" stroke="#28303F" stroke-width="1.5" stroke-linecap="round" stroke-linejoin="round"/>
<path d="M6.34326 16.2427L7.75748 17.6569" stroke="#28303F" stroke-width="1.5" stroke-linecap="round" stroke-linejoin="round"/>
</svg>
