<svg width="24" height="24" viewBox="0 0 24 24" fill="none" xmlns="http://www.w3.org/2000/svg">
<path d="M22 16C22 17.1046 21.1046 18 20 18C18.8954 18 18 17.1046 18 16C18 14.8954 18.8954 14 20 14C21.1046 14 22 14.8954 22 16Z" stroke="#28303F" stroke-width="1.5"/>
<path d="M1.25 5V8H2.75V5H1.25ZM12.75 8V5H11.25V8H12.75ZM12.75 5C12.75 3.48122 11.5188 2.25 10 2.25V3.75C10.6904 3.75 11.25 4.30964 11.25 5H12.75ZM7 13.75C10.1756 13.75 12.75 11.1756 12.75 8H11.25C11.25 10.3472 9.34721 12.25 7 12.25V13.75ZM1.25 8C1.25 11.1756 3.82436 13.75 7 13.75V12.25C4.65279 12.25 2.75 10.3472 2.75 8H1.25ZM4 2.25C2.48122 2.25 1.25 3.48122 1.25 5H2.75C2.75 4.30964 3.30964 3.75 4 3.75V2.25Z" fill="#28303F"/>
<path d="M7.75 13C7.75 12.5858 7.41421 12.25 7 12.25C6.58579 12.25 6.25 12.5858 6.25 13H7.75ZM19.25 14C19.25 14.4142 19.5858 14.75 20 14.75C20.4142 14.75 20.75 14.4142 20.75 14H19.25ZM6.25 13V18.25H7.75V13H6.25ZM15.25 18.25V12.75H13.75V18.25H15.25ZM19.25 12.75V14H20.75V12.75H19.25ZM17.25 10.75C18.3546 10.75 19.25 11.6454 19.25 12.75H20.75C20.75 10.817 19.183 9.25 17.25 9.25V10.75ZM15.25 12.75C15.25 11.6454 16.1454 10.75 17.25 10.75V9.25C15.317 9.25 13.75 10.817 13.75 12.75H15.25ZM10.75 22.75C13.2353 22.75 15.25 20.7353 15.25 18.25H13.75C13.75 19.9069 12.4069 21.25 10.75 21.25V22.75ZM6.25 18.25C6.25 20.7353 8.26472 22.75 10.75 22.75V21.25C9.09315 21.25 7.75 19.9069 7.75 18.25H6.25Z" fill="#28303F"/>
<path d="M10 2V4" stroke="#28303F" stroke-width="1.5" stroke-linecap="round" stroke-linejoin="round"/>
<path d="M4 2V4" stroke="#28303F" stroke-width="1.5" stroke-linecap="round" stroke-linejoin="round"/>
</svg>
