<svg width="24" height="24" viewBox="0 0 24 24" fill="none" xmlns="http://www.w3.org/2000/svg">
<path d="M9 5V4.25H8.25V5H9ZM15 5H15.75V4.25H15V5ZM15.8906 8.59373L15.4746 9.21777L15.8906 8.59373ZM8.1094 8.59373L8.52543 9.21777H8.52543L8.1094 8.59373ZM16.2188 8.81253L16.6348 8.1885L16.2188 8.81253ZM7.7812 8.81253L7.36517 8.1885H7.36517L7.7812 8.81253ZM9.5 2.75H14.5V1.25H9.5V2.75ZM14.5 4.25H9.5V5.75H14.5V4.25ZM9.5 4.25C9.08579 4.25 8.75 3.91421 8.75 3.5H7.25C7.25 4.74264 8.25736 5.75 9.5 5.75V4.25ZM15.25 3.5C15.25 3.91421 14.9142 4.25 14.5 4.25V5.75C15.7426 5.75 16.75 4.74264 16.75 3.5H15.25ZM14.5 2.75C14.9142 2.75 15.25 3.08579 15.25 3.5H16.75C16.75 2.25736 15.7426 1.25 14.5 1.25V2.75ZM9.5 1.25C8.25736 1.25 7.25 2.25736 7.25 3.5H8.75C8.75 3.08579 9.08579 2.75 9.5 2.75V1.25ZM17.25 12.1407V18H18.75V12.1407H17.25ZM14 21.25H10V22.75H14V21.25ZM6.75 18V12.1407H5.25V18H6.75ZM8.19722 9.43657L8.52543 9.21777L7.69338 7.9697L7.36517 8.1885L8.19722 9.43657ZM15.4746 9.21777L15.8028 9.43657L16.6348 8.1885L16.3066 7.9697L15.4746 9.21777ZM9.75 6.92963V5H8.25V6.92963H9.75ZM9 5.75H15V4.25H9V5.75ZM14.25 5V6.92963H15.75V5H14.25ZM16.3066 7.9697C15.9589 7.73786 15.75 7.34757 15.75 6.92963H14.25C14.25 7.8491 14.7095 8.70774 15.4746 9.21777L16.3066 7.9697ZM8.52543 9.21777C9.29047 8.70774 9.75 7.8491 9.75 6.92963H8.25C8.25 7.34757 8.04112 7.73786 7.69338 7.9697L8.52543 9.21777ZM10 21.25C8.20507 21.25 6.75 19.7949 6.75 18H5.25C5.25 20.6234 7.37665 22.75 10 22.75V21.25ZM17.25 18C17.25 19.7949 15.7949 21.25 14 21.25V22.75C16.6234 22.75 18.75 20.6234 18.75 18H17.25ZM18.75 12.1407C18.75 10.5526 17.9563 9.06946 16.6348 8.1885L15.8028 9.43657C16.7069 10.0393 17.25 11.0541 17.25 12.1407H18.75ZM6.75 12.1407C6.75 11.0541 7.29308 10.0393 8.19722 9.43657L7.36517 8.1885C6.04373 9.06946 5.25 10.5526 5.25 12.1407H6.75Z" fill="#28303F"/>
<circle cx="12" cy="15" r="3" stroke="#28303F" stroke-width="1.5"/>
</svg>
