<svg width="24" height="24" viewBox="0 0 24 24" fill="none" xmlns="http://www.w3.org/2000/svg">
<path d="M16.0063 3.85678L15.476 3.32645V3.32645L16.0063 3.85678ZM9.68948 10.1736L10.2198 10.704L9.68948 10.1736ZM9.1379 11.2768L8.39544 11.1707L9.1379 11.2768ZM8.97702 12.403L9.71948 12.509L8.97702 12.403ZM8.42544 13.5061L8.95577 14.0365L8.42544 13.5061ZM3.42839 18.5032L2.89806 17.9728L3.42839 18.5032ZM11.597 15.023L11.7031 15.7654H11.7031L11.597 15.023ZM12.7232 14.8621L12.6171 14.1196H12.6171L12.7232 14.8621ZM13.8264 14.3105L14.3567 14.8408L13.8264 14.3105ZM20.1432 7.99366L19.6129 7.46333L20.1432 7.99366ZM15.476 3.32645L9.15915 9.6433L10.2198 10.704L16.5367 4.38711L15.476 3.32645ZM8.39544 11.1707L8.23456 12.2969L9.71948 12.509L9.88036 11.3829L8.39544 11.1707ZM7.8951 12.9758L2.89806 17.9728L3.95872 19.0335L8.95577 14.0365L7.8951 12.9758ZM6.02716 21.1019L11.0242 16.1049L9.96355 15.0442L4.9665 20.0413L6.02716 21.1019ZM11.7031 15.7654L12.8293 15.6046L12.6171 14.1196L11.491 14.2805L11.7031 15.7654ZM14.3567 14.8408L20.6736 8.52399L19.6129 7.46333L13.296 13.7802L14.3567 14.8408ZM20.6736 8.52399C22.1088 7.08873 22.1088 4.76171 20.6736 3.32645L19.6129 4.38711C20.4624 5.23658 20.4624 6.61385 19.6129 7.46333L20.6736 8.52399ZM12.8293 15.6046C13.4076 15.5219 13.9436 15.254 14.3567 14.8408L13.296 13.7802C13.1124 13.9638 12.8742 14.0829 12.6171 14.1196L12.8293 15.6046ZM11.0242 16.1049C11.2078 15.9213 11.446 15.8022 11.7031 15.7654L11.491 14.2805C10.9126 14.3631 10.3767 14.6311 9.96355 15.0442L11.0242 16.1049ZM2.89806 21.1019C3.76214 21.966 5.16308 21.966 6.02716 21.1019L4.9665 20.0413C4.68821 20.3196 4.23701 20.3196 3.95872 20.0413L2.89806 21.1019ZM2.89806 17.9728C2.03398 18.8369 2.03398 20.2379 2.89806 21.1019L3.95872 20.0413C3.68043 19.763 3.68043 19.3118 3.95872 19.0335L2.89806 17.9728ZM8.23456 12.2969C8.19783 12.554 8.07872 12.7922 7.8951 12.9758L8.95577 14.0365C9.36888 13.6233 9.63686 13.0874 9.71948 12.509L8.23456 12.2969ZM9.15915 9.6433C8.74604 10.0564 8.47806 10.5924 8.39544 11.1707L9.88036 11.3829C9.91708 11.1258 10.0362 10.8876 10.2198 10.704L9.15915 9.6433ZM16.5367 4.38711C17.3861 3.53763 18.7634 3.53763 19.6129 4.38711L20.6736 3.32645C19.2383 1.89118 16.9113 1.89118 15.476 3.32645L16.5367 4.38711Z" fill="#28303F"/>
<path d="M6 16L8 18" stroke="#28303F" stroke-width="1.5" stroke-linecap="round" stroke-linejoin="round"/>
</svg>
