<svg width="24" height="24" viewBox="0 0 24 24" fill="none" xmlns="http://www.w3.org/2000/svg">
<path d="M11.9446 5.41544L12.4466 5.97268L11.9446 5.41544ZM20.2633 4.23907L19.7485 4.7845L20.2633 4.23907ZM15.5799 20.8618V21.6118V20.8618ZM8 6.16028C7.58579 6.16028 7.25 6.49607 7.25 6.91028C7.25 7.32449 7.58579 7.66028 8 7.66028V6.16028ZM12.0239 12.7252C11.6099 12.712 11.2636 13.0369 11.2504 13.4509C11.2372 13.8649 11.5621 14.2112 11.9761 14.2244L12.0239 12.7252ZM12.4466 5.97268C13.4154 5.09994 14.6257 4.17805 15.9087 3.79419C17.1273 3.42957 18.4288 3.53895 19.7485 4.7845L20.7781 3.69365C19.0313 2.045 17.1596 1.85421 15.4787 2.35714C13.862 2.84083 12.4462 3.95422 11.4427 4.8582L12.4466 5.97268ZM19.7485 4.7845C20.8013 5.77815 21.2538 7.17922 21.25 8.82336C21.2461 10.4739 20.7789 12.3047 20.0651 14.0318C19.3528 15.7553 18.4142 17.3291 17.512 18.4596C17.06 19.0261 16.6323 19.462 16.2635 19.7489C15.8682 20.0563 15.6436 20.1118 15.5799 20.1118V21.6118C16.1587 21.6118 16.7185 21.2952 17.1843 20.9329C17.6765 20.5502 18.1868 20.0189 18.6845 19.3952C19.6818 18.1455 20.6898 16.4475 21.4514 14.6047C22.2116 12.7653 22.7455 10.7351 22.75 8.82687C22.7545 6.91231 22.2226 5.05702 20.7781 3.69365L19.7485 4.7845ZM11.4427 4.8582C10.668 5.556 9.74148 6.16028 8 6.16028V7.66028C10.2032 7.66028 11.4725 6.85024 12.4466 5.97268L11.4427 4.8582ZM15.5799 20.1118C15.4643 20.1118 15.4036 20.0802 15.3418 20.0183C15.2578 19.9341 15.1564 19.7712 15.0591 19.4816C14.8597 18.8884 14.7691 18.0687 14.657 17.1152C14.5518 16.2203 14.4263 15.1987 14.114 14.3959C13.9544 13.9857 13.7263 13.5771 13.3794 13.2628C13.0167 12.9342 12.5604 12.7423 12.0239 12.7252L11.9761 14.2244C12.1595 14.2303 12.2751 14.2864 12.3722 14.3744C12.4851 14.4767 12.6045 14.6531 12.716 14.9397C12.9459 15.5306 13.0567 16.35 13.1673 17.2904C13.271 18.1721 13.3759 19.182 13.6372 19.9595C13.7703 20.3552 13.9656 20.7629 14.2803 21.0781C14.6171 21.4155 15.0571 21.6118 15.5799 21.6118V20.1118Z" fill="#28303F"/>
<path d="M3.73655 4.23907L4.25134 4.7845L3.73655 4.23907ZM8.41988 20.8618V21.6118V20.8618ZM12.4998 4.80675C12.8086 5.0829 12.835 5.55704 12.5588 5.86577C12.2827 6.1745 11.8085 6.2009 11.4998 5.92475L12.4998 4.80675ZM11.9761 12.7252C12.3901 12.712 12.7364 13.0369 12.7496 13.4509C12.7628 13.8649 12.4379 14.2112 12.0239 14.2244L11.9761 12.7252ZM4.25134 4.7845C3.19856 5.77815 2.74599 7.17922 2.74985 8.82336C2.75371 10.4739 3.22094 12.3047 3.93468 14.0318C4.64698 15.7553 5.58562 17.3291 6.48779 18.4596C6.93986 19.0261 7.36748 19.462 7.73637 19.7489C8.13166 20.0563 8.35619 20.1118 8.41988 20.1118V21.6118C7.84109 21.6118 7.28133 21.2952 6.81552 20.9329C6.32331 20.5502 5.81301 20.0189 5.31535 19.3952C4.31806 18.1455 3.31002 16.4475 2.5484 14.6047C1.78823 12.7653 1.25432 10.7351 1.24985 8.82687C1.24537 6.91231 1.77726 5.05702 3.22176 3.69365L4.25134 4.7845ZM11.4998 5.92475C10.5295 5.05679 9.32685 4.15383 8.05601 3.78382C6.84889 3.43236 5.55959 3.54972 4.25134 4.7845L3.22176 3.69365C4.95141 2.06114 6.80477 1.85723 8.47533 2.34362C10.0822 2.81146 11.4922 3.90548 12.4998 4.80675L11.4998 5.92475ZM8.41988 20.1118C8.53551 20.1118 8.5962 20.0802 8.65806 20.0182C8.74206 19.9341 8.84342 19.7711 8.94077 19.4815C9.14015 18.8883 9.2307 18.0687 9.34284 17.1151C9.44809 16.2202 9.57353 15.1986 9.88589 14.3957C10.0455 13.9855 10.2736 13.577 10.6206 13.2627C10.9833 12.9341 11.4397 12.7423 11.9761 12.7252L12.0239 14.2244C11.8404 14.2303 11.7247 14.2864 11.6276 14.3744C11.5148 14.4766 11.3953 14.653 11.2838 14.9396C11.054 15.5304 10.9432 16.3498 10.8326 17.2903C10.7289 18.172 10.6239 19.1819 10.3626 19.9594C10.2296 20.3552 10.0343 20.7629 9.71955 21.0781C9.38271 21.4154 8.94269 21.6118 8.41988 21.6118V20.1118Z" fill="#28303F"/>
</svg>
