<svg width="24" height="24" viewBox="0 0 24 24" fill="none" xmlns="http://www.w3.org/2000/svg">
<path d="M8 14.9L7.25 14.9L8 14.9ZM22 14.9L22.75 14.9L22 14.9ZM16.1708 4.99944L16.6753 4.44452L16.1708 4.99944ZM8.75 14.9C8.75 13.0876 9.61092 11.2182 10.7834 9.52993C11.9471 7.85451 13.3595 6.44024 14.3338 5.55436L13.3247 4.44452C12.3066 5.37023 10.8043 6.87029 9.55143 8.67428C8.30746 10.4654 7.25 12.6406 7.25 14.9L8.75 14.9ZM15.6662 5.55436C16.6405 6.44024 18.0529 7.85451 19.2166 9.52993C20.3891 11.2182 21.25 13.0876 21.25 14.9L22.75 14.9C22.75 12.6406 21.6925 10.4654 20.4486 8.67428C19.1957 6.87029 17.6934 5.37023 16.6753 4.44452L15.6662 5.55436ZM21.25 14.9C21.25 18.0605 18.8641 21.25 15 21.25L15 22.75C19.8344 22.75 22.75 18.7395 22.75 14.9L21.25 14.9ZM15 21.25C11.1359 21.25 8.75 18.0605 8.75 14.9L7.25 14.9C7.25 18.7395 10.1656 22.75 15 22.75L15 21.25ZM14.3338 5.55436C14.7203 5.20293 15.2797 5.20293 15.6662 5.55436L16.6753 4.44452C15.7166 3.57288 14.2834 3.57288 13.3247 4.44452L14.3338 5.55436Z" fill="#28303F"/>
<path d="M8 14.9H7.25H8ZM2 11.6889H1.25H2ZM8 18V17.25V18ZM12.1939 6.61286L12.7423 7.12443L13.1455 6.69215L12.8194 6.1991L12.1939 6.61286ZM8.68349 17.9631L8.76518 18.7086L9.80322 18.5949L9.36388 17.6476L8.68349 17.9631ZM9.1905 3.06658L9.71076 2.52637L9.1905 3.06658ZM2.75 11.6889C2.75 10.1521 3.429 8.5636 4.37708 7.10973C5.31839 5.66624 6.47746 4.42761 7.33 3.60657L6.28949 2.52613C5.39264 3.38985 4.14684 4.71669 3.12062 6.29039C2.10117 7.85372 1.25 9.73414 1.25 11.6889H2.75ZM8 17.25C4.78117 17.25 2.75 14.4875 2.75 11.6889H1.25C1.25 15.1125 3.76299 18.75 8 18.75V17.25ZM8.67024 3.6068C9.50606 4.41175 10.637 5.61856 11.5683 7.02661L12.8194 6.1991C11.8053 4.66582 10.5905 3.37361 9.71076 2.52637L8.67024 3.6068ZM8.75 14.9C8.75 13.5181 9.25042 12.098 10.0192 10.7407C10.7855 9.38773 11.7926 8.14265 12.7423 7.12443L11.6454 6.10128C10.6476 7.17107 9.55773 8.51175 8.71398 10.0015C7.8727 11.4868 7.25 13.1663 7.25 14.9H8.75ZM8.60179 17.2176C8.4073 17.2389 8.20668 17.25 8 17.25V18.75C8.26055 18.75 8.51572 18.736 8.76518 18.7086L8.60179 17.2176ZM9.36388 17.6476C8.96136 16.7796 8.75 15.8332 8.75 14.9H7.25C7.25 16.0567 7.51119 17.218 8.00309 18.2787L9.36388 17.6476ZM7.33 3.60657C7.7132 3.23753 8.28679 3.23751 8.67024 3.6068L9.71076 2.52637C8.74668 1.5979 7.25384 1.59743 6.28949 2.52613L7.33 3.60657Z" fill="#28303F"/>
<path d="M19.7321 16.163C19.8221 15.7586 19.5673 15.3579 19.163 15.2679C18.7586 15.1779 18.3579 15.4327 18.2679 15.837L19.7321 16.163ZM15.8576 18.2636C15.451 18.3423 15.185 18.7357 15.2636 19.1424C15.3423 19.549 15.7357 19.815 16.1424 19.7364L15.8576 18.2636ZM18.2679 15.837C18.0081 17.0042 17.1355 18.0166 15.8576 18.2636L16.1424 19.7364C18.0945 19.359 19.3631 17.8204 19.7321 16.163L18.2679 15.837Z" fill="#28303F"/>
</svg>
