<svg width="24" height="24" viewBox="0 0 24 24" fill="none" xmlns="http://www.w3.org/2000/svg">
<path d="M12 7V15H15L18.5 21H20" stroke="#28303F" stroke-width="1.5" stroke-linecap="round" stroke-linejoin="round"/>
<path d="M13.5 3.5C13.5 4.32843 12.8284 5 12 5C11.1716 5 10.5 4.32843 10.5 3.5C10.5 2.67157 11.1716 2 12 2C12.8284 2 13.5 2.67157 13.5 3.5Z" stroke="#28303F" stroke-width="1.5"/>
<path d="M17.9364 19.9824C18.2028 19.6653 18.1617 19.1922 17.8445 18.9257C17.5274 18.6593 17.0543 18.7004 16.7879 19.0176L17.9364 19.9824ZM15 8.75C15.4142 8.75 15.75 8.41421 15.75 8C15.75 7.58579 15.4142 7.25 15 7.25V8.75ZM12 21.25C8.54822 21.25 5.75 18.4518 5.75 15H4.25C4.25 19.2802 7.71979 22.75 12 22.75V21.25ZM5.75 15C5.75 11.5482 8.54822 8.75 12 8.75V7.25C7.71979 7.25 4.25 10.7198 4.25 15H5.75ZM16.7879 19.0176C15.6402 20.3837 13.9216 21.25 12 21.25V22.75C14.3833 22.75 16.5159 21.6733 17.9364 19.9824L16.7879 19.0176ZM12 8.75H15V7.25H12V8.75Z" fill="#28303F"/>
</svg>
