<svg width="24" height="24" viewBox="0 0 24 24" fill="none" xmlns="http://www.w3.org/2000/svg">
<circle cx="7" cy="16" r="5" stroke="#28303F" stroke-width="1.5"/>
<circle cx="20.5" cy="19.5" r="1.5" stroke="#28303F" stroke-width="1.5"/>
<path d="M12 15.25C11.5858 15.25 11.25 15.5858 11.25 16C11.25 16.4142 11.5858 16.75 12 16.75V15.25ZM12 16.75H18.5V15.25H12V16.75ZM18.5 16.75C19.1904 16.75 19.75 17.3096 19.75 18H21.25C21.25 16.4812 20.0188 15.25 18.5 15.25V16.75Z" fill="#28303F"/>
<path d="M4 2.25C3.58579 2.25 3.25 2.58579 3.25 3C3.25 3.41421 3.58579 3.75 4 3.75V2.25ZM6.25 11C6.25 11.4142 6.58579 11.75 7 11.75C7.41421 11.75 7.75 11.4142 7.75 11H6.25ZM4 3.75H5V2.25H4V3.75ZM6.25 5V11H7.75V5H6.25ZM5 3.75C5.69036 3.75 6.25 4.30964 6.25 5H7.75C7.75 3.48122 6.51878 2.25 5 2.25V3.75Z" fill="#28303F"/>
<path d="M7 5.25C6.58579 5.25 6.25 5.58579 6.25 6C6.25 6.41421 6.58579 6.75 7 6.75V5.25ZM18.25 16C18.25 16.4142 18.5858 16.75 19 16.75C19.4142 16.75 19.75 16.4142 19.75 16H18.25ZM7 6.75H17V5.25H7V6.75ZM18.25 8V16H19.75V8H18.25ZM17 6.75C17.6904 6.75 18.25 7.30964 18.25 8H19.75C19.75 6.48122 18.5188 5.25 17 5.25V6.75Z" fill="#28303F"/>
</svg>
