<svg width="24" height="24" viewBox="0 0 24 24" fill="none" xmlns="http://www.w3.org/2000/svg">
<path fill-rule="evenodd" clip-rule="evenodd" d="M12.75 2C12.75 1.58579 12.4142 1.25 12 1.25C11.5858 1.25 11.25 1.58579 11.25 2V5L9 5C7.89543 5 7 5.89543 7 7V8.5C7 9.60457 7.89543 10.5 9 10.5H11.25V13.5H6C4.89543 13.5 4 14.3954 4 15.5V17C4 18.1046 4.89543 19 6 19L11.25 19V22C11.25 22.4142 11.5858 22.75 12 22.75C12.4142 22.75 12.75 22.4142 12.75 22V19H18C19.1046 19 20 18.1046 20 17V15.5C20 14.3954 19.1046 13.5 18 13.5H12.75V10.5H15C16.1046 10.5 17 9.60457 17 8.5V7C17 5.89543 16.1046 5 15 5L12.75 5V2Z" fill="#28303F"/>
</svg>
