<svg width="24" height="24" viewBox="0 0 24 24" fill="none" xmlns="http://www.w3.org/2000/svg">
<path fill-rule="evenodd" clip-rule="evenodd" d="M18 4C19.1046 4 20 4.89543 20 6V11.25H22C22.4142 11.25 22.75 11.5858 22.75 12C22.75 12.4142 22.4142 12.75 22 12.75H20V18C20 19.1046 19.1046 20 18 20H16C14.8954 20 14 19.1046 14 18L14 12.75H10L10 15C10 16.1046 9.10457 17 8 17H6C4.89543 17 4 16.1046 4 15L4 12.75H2C1.58579 12.75 1.25 12.4142 1.25 12C1.25 11.5858 1.58579 11.25 2 11.25H4L4 9C4 7.89543 4.89543 7 6 7L8 7C9.10457 7 10 7.89543 10 9L10 11.25H14L14 6C14 4.89543 14.8954 4 16 4H18Z" fill="#28303F"/>
</svg>
