<svg width="24" height="24" viewBox="0 0 24 24" fill="none" xmlns="http://www.w3.org/2000/svg">
<path fill-rule="evenodd" clip-rule="evenodd" d="M4 2C2.89543 2 2 2.89543 2 4V6C2 7.10457 2.89543 8 4 8H8C9.10457 8 10 7.10457 10 6V4C10 2.89543 9.10457 2 8 2H4ZM4 12C2.89543 12 2 12.8954 2 14V20C2 21.1046 2.89543 22 4 22H8C9.10457 22 10 21.1046 10 20V14C10 12.8954 9.10457 12 8 12H4ZM14 4C14 2.89543 14.8954 2 16 2H20C21.1046 2 22 2.89543 22 4V10C22 11.1046 21.1046 12 20 12H16C14.8954 12 14 11.1046 14 10V4ZM16 16C14.8954 16 14 16.8954 14 18V20C14 21.1046 14.8954 22 16 22H20C21.1046 22 22 21.1046 22 20V18C22 16.8954 21.1046 16 20 16H16Z" fill="#28303F"/>
</svg>
