<svg width="24" height="24" viewBox="0 0 24 24" fill="none" xmlns="http://www.w3.org/2000/svg">
<path fill-rule="evenodd" clip-rule="evenodd" d="M2 4C2 2.89543 2.89543 2 4 2H8C9.10457 2 10 2.89543 10 4V20C10 21.1046 9.10457 22 8 22H4C2.89543 22 2 21.1046 2 20V4ZM14 4C14 2.89543 14.8954 2 16 2H20C21.1046 2 22 2.89543 22 4V8C22 9.10457 21.1046 10 20 10H16C14.8954 10 14 9.10457 14 8V4ZM16 14C14.8954 14 14 14.8954 14 16V20C14 21.1046 14.8954 22 16 22H20C21.1046 22 22 21.1046 22 20V16C22 14.8954 21.1046 14 20 14H16Z" fill="#28303F"/>
</svg>
