<svg width="24" height="24" viewBox="0 0 24 24" fill="none" xmlns="http://www.w3.org/2000/svg">
<path fill-rule="evenodd" clip-rule="evenodd" d="M18.75 5C18.75 5.41421 18.4142 5.75 18 5.75L6 5.75C5.58579 5.75 5.25 5.41421 5.25 5C5.25 4.58579 5.58579 4.25 6 4.25H18C18.4142 4.25 18.75 4.58579 18.75 5ZM18 7C19.6569 7 21 8.34315 21 10V14C21 15.6569 19.6569 17 18 17H6C4.34314 17 3 15.6569 3 14V10C3 8.34315 4.34315 7 6 7L18 7ZM18 19.75C18.4142 19.75 18.75 19.4142 18.75 19C18.75 18.5858 18.4142 18.25 18 18.25L6 18.25C5.58579 18.25 5.25 18.5858 5.25 19C5.25 19.4142 5.58579 19.75 6 19.75L18 19.75Z" fill="#28303F"/>
</svg>
