<svg width="24" height="24" viewBox="0 0 24 24" fill="none" xmlns="http://www.w3.org/2000/svg">
<path fill-rule="evenodd" clip-rule="evenodd" d="M8.3992 4.02288C9.4974 3.52638 10.7164 3.25 12 3.25C13.2836 3.25 14.5026 3.52638 15.6008 4.02288C15.4286 4.42513 15.3333 4.8681 15.3333 5.33333C15.3333 7.17428 16.8257 8.66667 18.6667 8.66667C19.1319 8.66667 19.5749 8.57136 19.9771 8.3992C20.4736 9.4974 20.75 10.7164 20.75 12C20.75 13.2836 20.4736 14.5026 19.9771 15.6008C19.5749 15.4286 19.1319 15.3333 18.6667 15.3333C16.8257 15.3333 15.3333 16.8257 15.3333 18.6667C15.3333 19.1319 15.4286 19.5749 15.6008 19.9771C14.5026 20.4736 13.2836 20.75 12 20.75C10.7164 20.75 9.4974 20.4736 8.3992 19.9771C8.57136 19.5749 8.66667 19.1319 8.66667 18.6667C8.66667 16.8257 7.17428 15.3333 5.33333 15.3333C4.8681 15.3333 4.42513 15.4286 4.02288 15.6008C3.52638 14.5026 3.25 13.2836 3.25 12C3.25 10.7164 3.52638 9.4974 4.02288 8.3992C4.42513 8.57135 4.8681 8.66667 5.33333 8.66667C7.17428 8.66667 8.66667 7.17428 8.66667 5.33333C8.66667 4.8681 8.57135 4.42513 8.3992 4.02288ZM7.491 2.79246C8.85171 2.12486 10.3821 1.75 12 1.75C13.6179 1.75 15.1483 2.12486 16.509 2.79246C17.0905 2.29821 17.8437 2 18.6667 2C20.5076 2 22 3.49238 22 5.33333C22 6.15627 21.7018 6.90954 21.2075 7.491C21.8751 8.85171 22.25 10.3821 22.25 12C22.25 13.6179 21.8751 15.1483 21.2075 16.509C21.7018 17.0905 22 17.8437 22 18.6667C22 20.5076 20.5076 22 18.6667 22C17.8437 22 17.0905 21.7018 16.509 21.2075C15.1483 21.8751 13.6179 22.25 12 22.25C10.3821 22.25 8.85171 21.8751 7.491 21.2075C6.90954 21.7018 6.15627 22 5.33333 22C3.49238 22 2 20.5076 2 18.6667C2 17.8437 2.29821 17.0905 2.79246 16.509C2.12486 15.1483 1.75 13.6179 1.75 12C1.75 10.3821 2.12486 8.85171 2.79246 7.491C2.29821 6.90954 2 6.15626 2 5.33333C2 3.49238 3.49238 2 5.33333 2C6.15626 2 6.90954 2.29821 7.491 2.79246Z" fill="#28303F"/>
</svg>
