<svg width="24" height="24" viewBox="0 0 24 24" fill="none" xmlns="http://www.w3.org/2000/svg">
<path fill-rule="evenodd" clip-rule="evenodd" d="M7 6C7 4.34315 8.34315 3 10 3H14C15.6569 3 17 4.34315 17 6V18C17 19.6569 15.6569 21 14 21H10C8.34315 21 7 19.6569 7 18V6ZM5 5.25C5.41421 5.25 5.75 5.58579 5.75 6V18C5.75 18.4142 5.41421 18.75 5 18.75C4.58579 18.75 4.25 18.4142 4.25 18V6C4.25 5.58579 4.58579 5.25 5 5.25ZM19.75 6C19.75 5.58579 19.4142 5.25 19 5.25C18.5858 5.25 18.25 5.58579 18.25 6V18C18.25 18.4142 18.5858 18.75 19 18.75C19.4142 18.75 19.75 18.4142 19.75 18V6Z" fill="#28303F"/>
</svg>
