<svg width="24" height="24" viewBox="0 0 24 24" fill="none" xmlns="http://www.w3.org/2000/svg">
<path d="M8 8.25C7.58579 8.25 7.25 8.58579 7.25 9C7.25 9.41421 7.58579 9.75 8 9.75V8.25ZM12 9.75C12.4142 9.75 12.75 9.41421 12.75 9C12.75 8.58579 12.4142 8.25 12 8.25V9.75ZM8 12.25C7.58579 12.25 7.25 12.5858 7.25 13C7.25 13.4142 7.58579 13.75 8 13.75V12.25ZM16 13.75C16.4142 13.75 16.75 13.4142 16.75 13C16.75 12.5858 16.4142 12.25 16 12.25V13.75ZM8 16.25C7.58579 16.25 7.25 16.5858 7.25 17C7.25 17.4142 7.58579 17.75 8 17.75V16.25ZM16 17.75C16.4142 17.75 16.75 17.4142 16.75 17C16.75 16.5858 16.4142 16.25 16 16.25V17.75ZM16.7495 2C16.7495 1.58579 16.4137 1.25 15.9995 1.25C15.5853 1.25 15.2495 1.58579 15.2495 2H16.7495ZM15.2495 5C15.2495 5.41421 15.5853 5.75 15.9995 5.75C16.4137 5.75 16.7495 5.41421 16.7495 5H15.2495ZM8.74951 2C8.74951 1.58579 8.41373 1.25 7.99951 1.25C7.5853 1.25 7.24951 1.58579 7.24951 2H8.74951ZM7.24951 5C7.24951 5.41421 7.5853 5.75 7.99951 5.75C8.41373 5.75 8.74951 5.41421 8.74951 5H7.24951ZM7 4.25H17V2.75H7V4.25ZM20.25 7.5V18H21.75V7.5H20.25ZM17 21.25H7V22.75H17V21.25ZM3.75 18V7.5H2.25V18H3.75ZM7 21.25C5.20507 21.25 3.75 19.7949 3.75 18H2.25C2.25 20.6234 4.37665 22.75 7 22.75V21.25ZM20.25 18C20.25 19.7949 18.7949 21.25 17 21.25V22.75C19.6234 22.75 21.75 20.6234 21.75 18H20.25ZM17 4.25C18.7949 4.25 20.25 5.70507 20.25 7.5H21.75C21.75 4.87665 19.6234 2.75 17 2.75V4.25ZM7 2.75C4.37665 2.75 2.25 4.87665 2.25 7.5H3.75C3.75 5.70507 5.20507 4.25 7 4.25V2.75ZM8 9.75H12V8.25H8V9.75ZM8 13.75H16V12.25H8V13.75ZM8 17.75H16V16.25H8V17.75ZM15.2495 2V5H16.7495V2H15.2495ZM7.24951 2V5H8.74951V2H7.24951Z" fill="#28303F"/>
</svg>
