<svg width="24" height="24" viewBox="0 0 24 24" fill="none" xmlns="http://www.w3.org/2000/svg">
<path d="M12 13H11.25C11.25 13.2508 11.3753 13.4849 11.584 13.624L12 13ZM12.75 8C12.75 7.58579 12.4142 7.25 12 7.25C11.5858 7.25 11.25 7.58579 11.25 8H12.75ZM14.584 15.624C14.9286 15.8538 15.3943 15.7607 15.624 15.416C15.8538 15.0714 15.7607 14.6057 15.416 14.376L14.584 15.624ZM17.1039 1.31283C16.7244 1.14687 16.2822 1.31999 16.1163 1.69951C15.9503 2.07902 16.1234 2.52121 16.5029 2.68717L17.1039 1.31283ZM21.3755 6.77967C21.6048 7.12459 22.0703 7.2183 22.4153 6.98896C22.7602 6.75962 22.8539 6.29408 22.6245 5.94915L21.3755 6.77967ZM1.37545 5.94915C1.14611 6.29408 1.23981 6.75962 1.58474 6.98896C1.92967 7.2183 2.39521 7.1246 2.62455 6.77967L1.37545 5.94915ZM7.49707 2.68717C7.87659 2.52121 8.04971 2.07902 7.88375 1.69951C7.71779 1.31999 7.2756 1.14687 6.89609 1.31283L7.49707 2.68717ZM20.3993 22.4491C20.6473 22.7808 21.1173 22.8487 21.4491 22.6007C21.7808 22.3527 21.8487 21.8827 21.6007 21.5509L20.3993 22.4491ZM19.3578 18.5509C19.1098 18.2192 18.6398 18.1513 18.308 18.3993C17.9763 18.6473 17.9084 19.1173 18.1564 19.4491L19.3578 18.5509ZM2.3993 21.5509C2.15129 21.8827 2.21918 22.3527 2.55093 22.6007C2.88269 22.8487 3.35269 22.7808 3.6007 22.4491L2.3993 21.5509ZM5.84342 19.4491C6.09143 19.1173 6.02354 18.6473 5.69178 18.3993C5.36002 18.1513 4.89003 18.2192 4.64202 18.5509L5.84342 19.4491ZM12.75 13V8H11.25V13H12.75ZM11.584 13.624L14.584 15.624L15.416 14.376L12.416 12.376L11.584 13.624ZM20.25 13C20.25 17.5563 16.5563 21.25 12 21.25V22.75C17.3848 22.75 21.75 18.3848 21.75 13H20.25ZM12 21.25C7.44365 21.25 3.75 17.5563 3.75 13H2.25C2.25 18.3848 6.61522 22.75 12 22.75V21.25ZM3.75 13C3.75 8.44365 7.44365 4.75 12 4.75V3.25C6.61522 3.25 2.25 7.61522 2.25 13H3.75ZM12 4.75C16.5563 4.75 20.25 8.44365 20.25 13H21.75C21.75 7.61522 17.3848 3.25 12 3.25V4.75ZM16.5029 2.68717C18.4933 3.55753 20.1842 4.98802 21.3755 6.77967L22.6245 5.94915C21.2755 3.92023 19.3607 2.29969 17.1039 1.31283L16.5029 2.68717ZM2.62455 6.77967C3.8158 4.98802 5.50673 3.55753 7.49707 2.68717L6.89609 1.31283C4.63933 2.29969 2.72446 3.92023 1.37545 5.94915L2.62455 6.77967ZM21.6007 21.5509L19.3578 18.5509L18.1564 19.4491L20.3993 22.4491L21.6007 21.5509ZM3.6007 22.4491L5.84342 19.4491L4.64202 18.5509L2.3993 21.5509L3.6007 22.4491Z" fill="#28303F"/>
</svg>
