<svg width="24" height="24" viewBox="0 0 24 24" fill="none" xmlns="http://www.w3.org/2000/svg">
<path d="M14 5.25C13.5858 5.25 13.25 5.58579 13.25 6C13.25 6.41421 13.5858 6.75 14 6.75V5.25ZM22 6.75C22.4142 6.75 22.75 6.41421 22.75 6C22.75 5.58579 22.4142 5.25 22 5.25V6.75ZM4 2.75H8V1.25H4V2.75ZM9.25 4V8H10.75V4H9.25ZM8 9.25H4V10.75H8V9.25ZM2.75 8V4H1.25V8H2.75ZM4 9.25C3.30964 9.25 2.75 8.69036 2.75 8H1.25C1.25 9.51878 2.48122 10.75 4 10.75V9.25ZM9.25 8C9.25 8.69036 8.69036 9.25 8 9.25V10.75C9.51878 10.75 10.75 9.51878 10.75 8H9.25ZM8 2.75C8.69036 2.75 9.25 3.30964 9.25 4H10.75C10.75 2.48122 9.51878 1.25 8 1.25V2.75ZM4 1.25C2.48122 1.25 1.25 2.48122 1.25 4H2.75C2.75 3.30964 3.30964 2.75 4 2.75V1.25ZM16 14.75H20V13.25H16V14.75ZM21.25 16V20H22.75V16H21.25ZM20 21.25H16V22.75H20V21.25ZM14.75 20V16H13.25V20H14.75ZM16 21.25C15.3096 21.25 14.75 20.6904 14.75 20H13.25C13.25 21.5188 14.4812 22.75 16 22.75V21.25ZM21.25 20C21.25 20.6904 20.6904 21.25 20 21.25V22.75C21.5188 22.75 22.75 21.5188 22.75 20H21.25ZM20 14.75C20.6904 14.75 21.25 15.3096 21.25 16H22.75C22.75 14.4812 21.5188 13.25 20 13.25V14.75ZM16 13.25C14.4812 13.25 13.25 14.4812 13.25 16H14.75C14.75 15.3096 15.3096 14.75 16 14.75V13.25ZM9.25 18C9.25 19.7949 7.79493 21.25 6 21.25V22.75C8.62335 22.75 10.75 20.6234 10.75 18H9.25ZM6 21.25C4.20507 21.25 2.75 19.7949 2.75 18H1.25C1.25 20.6234 3.37665 22.75 6 22.75V21.25ZM2.75 18C2.75 16.2051 4.20507 14.75 6 14.75V13.25C3.37665 13.25 1.25 15.3766 1.25 18H2.75ZM6 14.75C7.79493 14.75 9.25 16.2051 9.25 18H10.75C10.75 15.3766 8.62335 13.25 6 13.25V14.75ZM14 6.75H22V5.25H14V6.75Z" fill="#28303F"/>
</svg>
