<svg width="24" height="24" viewBox="0 0 24 24" fill="none" xmlns="http://www.w3.org/2000/svg">
<path d="M22 5L22.75 5V5H22ZM2 5H1.25H2ZM5 2V2.75V2ZM5 17V17.75V17ZM2 14H2.75H2ZM19 17V16.25V17ZM22 14H21.25H22ZM7 6.25C6.58579 6.25 6.25 6.58579 6.25 7C6.25 7.41421 6.58579 7.75 7 7.75V6.25ZM17 7.75C17.4142 7.75 17.75 7.41421 17.75 7C17.75 6.58579 17.4142 6.25 17 6.25V7.75ZM7 11.25C6.58579 11.25 6.25 11.5858 6.25 12C6.25 12.4142 6.58579 12.75 7 12.75V11.25ZM12 12.75C12.4142 12.75 12.75 12.4142 12.75 12C12.75 11.5858 12.4142 11.25 12 11.25V12.75ZM16.6431 16.6141C16.43 16.2589 15.9693 16.1438 15.6141 16.3569C15.2589 16.57 15.1438 17.0307 15.3569 17.3859L16.6431 16.6141ZM18.3569 22.3859C18.57 22.7411 19.0307 22.8562 19.3859 22.6431C19.7411 22.43 19.8562 21.9693 19.6431 21.6141L18.3569 22.3859ZM8.64312 17.3859C8.85623 17.0307 8.74106 16.57 8.38587 16.3569C8.03069 16.1438 7.56999 16.2589 7.35688 16.6141L8.64312 17.3859ZM4.35688 21.6141C4.14377 21.9693 4.25894 22.43 4.61413 22.6431C4.96931 22.8562 5.43001 22.7411 5.64312 22.3859L4.35688 21.6141ZM12.75 17C12.75 16.5858 12.4142 16.25 12 16.25C11.5858 16.25 11.25 16.5858 11.25 17H12.75ZM11.25 20C11.25 20.4142 11.5858 20.75 12 20.75C12.4142 20.75 12.75 20.4142 12.75 20H11.25ZM19 16.25L5 16.25V17.75L19 17.75V16.25ZM2.75 14L2.75 5H1.25L1.25 14H2.75ZM5 2.75L19 2.75V1.25L5 1.25V2.75ZM21.25 5L21.25 14H22.75L22.75 5L21.25 5ZM19 2.75C20.2426 2.75 21.25 3.75736 21.25 5H22.75C22.75 2.92893 21.0711 1.25 19 1.25V2.75ZM2.75 5C2.75 3.75736 3.75736 2.75 5 2.75V1.25C2.92893 1.25 1.25 2.92893 1.25 5H2.75ZM5 16.25C3.75736 16.25 2.75 15.2426 2.75 14H1.25C1.25 16.0711 2.92893 17.75 5 17.75V16.25ZM19 17.75C21.0711 17.75 22.75 16.0711 22.75 14H21.25C21.25 15.2426 20.2426 16.25 19 16.25V17.75ZM7 7.75H17V6.25H7V7.75ZM7 12.75H12V11.25H7V12.75ZM15.3569 17.3859L18.3569 22.3859L19.6431 21.6141L16.6431 16.6141L15.3569 17.3859ZM7.35688 16.6141L4.35688 21.6141L5.64312 22.3859L8.64312 17.3859L7.35688 16.6141ZM11.25 17V20H12.75V17H11.25Z" fill="#28303F"/>
</svg>
