<svg width="24" height="24" viewBox="0 0 24 24" fill="none" xmlns="http://www.w3.org/2000/svg">
<path d="M12.7501 2C12.7501 1.58579 12.4143 1.25 12.0001 1.25C11.5859 1.25 11.2501 1.58579 11.2501 2H12.7501ZM11.2501 3C11.2501 3.41421 11.5859 3.75 12.0001 3.75C12.4143 3.75 12.7501 3.41421 12.7501 3H11.2501ZM12.7501 21C12.7501 20.5858 12.4143 20.25 12.0001 20.25C11.5859 20.25 11.2501 20.5858 11.2501 21H12.7501ZM11.2501 22C11.2501 22.4142 11.5859 22.75 12.0001 22.75C12.4143 22.75 12.7501 22.4142 12.7501 22H11.2501ZM21.0353 7.64952C21.3941 7.44241 21.517 6.98372 21.3099 6.625C21.1028 6.26628 20.6441 6.14337 20.2853 6.35048L21.0353 7.64952ZM19.4193 6.85048C19.0606 7.05759 18.9377 7.51628 19.1448 7.875C19.3519 8.23372 19.8106 8.35663 20.1693 8.14952L19.4193 6.85048ZM4.58087 17.1495C4.93959 16.9424 5.0625 16.4837 4.85539 16.125C4.64828 15.7663 4.18959 15.6434 3.83087 15.8505L4.58087 17.1495ZM2.96485 16.3505C2.60613 16.5576 2.48322 17.0163 2.69033 17.375C2.89743 17.7337 3.35613 17.8566 3.71485 17.6495L2.96485 16.3505ZM3.71484 6.35048C3.35612 6.14337 2.89743 6.26628 2.69032 6.625C2.48322 6.98372 2.60612 7.44241 2.96484 7.64952L3.71484 6.35048ZM3.83087 8.14952C4.18959 8.35663 4.64828 8.23372 4.85539 7.875C5.06249 7.51628 4.93959 7.05759 4.58087 6.85048L3.83087 8.14952ZM20.1693 15.8505C19.8106 15.6434 19.3519 15.7663 19.1448 16.125C18.9377 16.4837 19.0606 16.9424 19.4193 17.1495L20.1693 15.8505ZM20.2853 17.6495C20.6441 17.8566 21.1028 17.7337 21.3099 17.375C21.517 17.0163 21.3941 16.5576 21.0353 16.3505L20.2853 17.6495ZM17.2501 12C17.2501 14.8995 14.8996 17.25 12.0001 17.25V18.75C15.728 18.75 18.7501 15.7279 18.7501 12H17.2501ZM12.0001 17.25C9.10063 17.25 6.75012 14.8995 6.75012 12H5.25012C5.25012 15.7279 8.2722 18.75 12.0001 18.75V17.25ZM6.75012 12C6.75012 9.1005 9.10063 6.75 12.0001 6.75V5.25C8.2722 5.25 5.25012 8.27208 5.25012 12H6.75012ZM12.0001 6.75C14.8996 6.75 17.2501 9.1005 17.2501 12H18.7501C18.7501 8.27208 15.728 5.25 12.0001 5.25V6.75ZM11.2501 2V3H12.7501V2H11.2501ZM11.2501 21V22H12.7501V21H11.2501ZM20.2853 6.35048L19.4193 6.85048L20.1693 8.14952L21.0353 7.64952L20.2853 6.35048ZM3.83087 15.8505L2.96485 16.3505L3.71485 17.6495L4.58087 17.1495L3.83087 15.8505ZM2.96484 7.64952L3.83087 8.14952L4.58087 6.85048L3.71484 6.35048L2.96484 7.64952ZM19.4193 17.1495L20.2853 17.6495L21.0353 16.3505L20.1693 15.8505L19.4193 17.1495Z" fill="#28303F"/>
</svg>
