<svg width="24" height="24" viewBox="0 0 24 24" fill="none" xmlns="http://www.w3.org/2000/svg">
<path d="M16.6245 3.98703C16.983 4.19443 17.4418 4.07191 17.6492 3.71337C17.8566 3.35482 17.7341 2.89602 17.3755 2.68862L16.6245 3.98703ZM22.0729 8.23747C21.928 7.84946 21.4959 7.65246 21.1079 7.79745C20.7199 7.94244 20.5229 8.37452 20.6678 8.76253L22.0729 8.23747ZM7.46852 9.41435C7.14507 9.15559 6.67311 9.20803 6.41435 9.53148C6.15559 9.85493 6.20803 10.3269 6.53148 10.5857L7.46852 9.41435ZM10.5264 12.8211L10.0579 13.4068L10.5264 12.8211ZM13.2624 12.5973L12.7049 12.0956L13.2624 12.5973ZM21.5575 4.50172C21.8346 4.19384 21.8096 3.71962 21.5017 3.44253C21.1938 3.16544 20.7196 3.19039 20.4425 3.49828L21.5575 4.50172ZM21.25 12C21.25 17.1086 17.1086 21.25 12 21.25V22.75C17.9371 22.75 22.75 17.9371 22.75 12H21.25ZM12 21.25C6.89137 21.25 2.75 17.1086 2.75 12H1.25C1.25 17.9371 6.06294 22.75 12 22.75V21.25ZM2.75 12C2.75 6.89137 6.89137 2.75 12 2.75V1.25C6.06294 1.25 1.25 6.06294 1.25 12H2.75ZM12 2.75C13.6861 2.75 15.2647 3.20043 16.6245 3.98703L17.3755 2.68862C15.7936 1.77351 13.9568 1.25 12 1.25V2.75ZM20.6678 8.76253C21.044 9.76916 21.25 10.8597 21.25 12H22.75C22.75 10.6777 22.5109 9.40951 22.0729 8.23747L20.6678 8.76253ZM6.53148 10.5857L10.0579 13.4068L10.9949 12.2355L7.46852 9.41435L6.53148 10.5857ZM13.8199 13.0991L21.5575 4.50172L20.4425 3.49828L12.7049 12.0956L13.8199 13.0991ZM10.0579 13.4068C11.1955 14.3168 12.8453 14.1819 13.8199 13.0991L12.7049 12.0956C12.262 12.5878 11.512 12.6491 10.9949 12.2355L10.0579 13.4068Z" fill="#28303F"/>
</svg>
