<svg width="24" height="24" viewBox="0 0 24 24" fill="none" xmlns="http://www.w3.org/2000/svg">
<path d="M7.46852 9.41435C7.14507 9.15559 6.67311 9.20803 6.41435 9.53148C6.15559 9.85493 6.20803 10.3269 6.53148 10.5857L7.46852 9.41435ZM10.5264 12.8211L10.0579 13.4068L10.5264 12.8211ZM13.2624 12.5973L12.7049 12.0956L13.2624 12.5973ZM21.5575 4.50172C21.8346 4.19384 21.8096 3.71962 21.5017 3.44253C21.1938 3.16544 20.7196 3.19039 20.4425 3.49828L21.5575 4.50172ZM22.75 9C22.75 8.58579 22.4142 8.25 22 8.25C21.5858 8.25 21.25 8.58579 21.25 9H22.75ZM17 2.75C17.4142 2.75 17.75 2.41421 17.75 2C17.75 1.58579 17.4142 1.25 17 1.25V2.75ZM6.53148 10.5857L10.0579 13.4068L10.9949 12.2355L7.46852 9.41435L6.53148 10.5857ZM13.8199 13.0991L21.5575 4.50172L20.4425 3.49828L12.7049 12.0956L13.8199 13.0991ZM10.0579 13.4068C11.1955 14.3168 12.8453 14.1819 13.8199 13.0991L12.7049 12.0956C12.262 12.5878 11.512 12.6491 10.9949 12.2355L10.0579 13.4068ZM1.25 6V18H2.75V6H1.25ZM6 22.75H18V21.25H6V22.75ZM22.75 18V9H21.25V18H22.75ZM6 2.75H17V1.25H6V2.75ZM18 22.75C20.6234 22.75 22.75 20.6234 22.75 18H21.25C21.25 19.7949 19.7949 21.25 18 21.25V22.75ZM1.25 18C1.25 20.6234 3.37665 22.75 6 22.75V21.25C4.20507 21.25 2.75 19.7949 2.75 18H1.25ZM2.75 6C2.75 4.20507 4.20507 2.75 6 2.75V1.25C3.37665 1.25 1.25 3.37665 1.25 6H2.75Z" fill="#28303F"/>
</svg>
