<svg width="24" height="24" viewBox="0 0 24 24" fill="none" xmlns="http://www.w3.org/2000/svg">
<path d="M8.50172 11.4425C8.19384 11.1654 7.71962 11.1904 7.44253 11.4983C7.16544 11.8062 7.19039 12.2804 7.49828 12.5575L8.50172 11.4425ZM10.5347 14.2812L11.0364 13.7237L10.5347 14.2812ZM11.993 14.1519L12.585 14.6123L11.993 14.1519ZM16.592 9.46046C16.8463 9.13349 16.7874 8.66229 16.4605 8.40799C16.1335 8.15368 15.6623 8.21258 15.408 8.53954L16.592 9.46046ZM12 22.75C17.9371 22.75 22.75 17.9371 22.75 12H21.25C21.25 17.1086 17.1086 21.25 12 21.25V22.75ZM1.25 12C1.25 17.9371 6.06294 22.75 12 22.75V21.25C6.89137 21.25 2.75 17.1086 2.75 12H1.25ZM12 1.25C6.06294 1.25 1.25 6.06294 1.25 12H2.75C2.75 6.89137 6.89137 2.75 12 2.75V1.25ZM12 2.75C17.1086 2.75 21.25 6.89137 21.25 12H22.75C22.75 6.06294 17.9371 1.25 12 1.25V2.75ZM7.49828 12.5575L10.033 14.8387L11.0364 13.7237L8.50172 11.4425L7.49828 12.5575ZM12.585 14.6123L16.592 9.46046L15.408 8.53954L11.401 13.6914L12.585 14.6123ZM10.033 14.8387C10.7881 15.5183 11.9613 15.4142 12.585 14.6123L11.401 13.6914C11.3119 13.806 11.1443 13.8208 11.0364 13.7237L10.033 14.8387Z" fill="#28303F"/>
</svg>
