<svg width="24" height="24" viewBox="0 0 24 24" fill="none" xmlns="http://www.w3.org/2000/svg">
<path d="M12.75 9C12.75 8.58579 12.4142 8.25 12 8.25C11.5858 8.25 11.25 8.58579 11.25 9H12.75ZM12.5528 12.2764L12.8882 11.6056L12.5528 12.2764ZM13.6646 13.6708C14.0351 13.8561 14.4856 13.7059 14.6708 13.3354C14.8561 12.9649 14.7059 12.5144 14.3354 12.3292L13.6646 13.6708ZM11.25 9V11.382H12.75V9H11.25ZM12.2174 12.9472L13.6646 13.6708L14.3354 12.3292L12.8882 11.6056L12.2174 12.9472ZM11.25 11.382C11.25 12.0448 11.6245 12.6508 12.2174 12.9472L12.8882 11.6056C12.8035 11.5632 12.75 11.4767 12.75 11.382H11.25ZM21.25 12C21.25 17.1086 17.1086 21.25 12 21.25V22.75C17.9371 22.75 22.75 17.9371 22.75 12H21.25ZM12 21.25C6.89137 21.25 2.75 17.1086 2.75 12H1.25C1.25 17.9371 6.06294 22.75 12 22.75V21.25ZM2.75 12C2.75 6.89137 6.89137 2.75 12 2.75V1.25C6.06294 1.25 1.25 6.06294 1.25 12H2.75ZM12 2.75C17.1086 2.75 21.25 6.89137 21.25 12H22.75C22.75 6.06294 17.9371 1.25 12 1.25V2.75ZM18.25 12C18.25 15.4518 15.4518 18.25 12 18.25V19.75C16.2802 19.75 19.75 16.2802 19.75 12H18.25ZM12 18.25C8.54822 18.25 5.75 15.4518 5.75 12H4.25C4.25 16.2802 7.71979 19.75 12 19.75V18.25ZM5.75 12C5.75 8.54822 8.54822 5.75 12 5.75V4.25C7.71979 4.25 4.25 7.71979 4.25 12H5.75ZM12 5.75C15.4518 5.75 18.25 8.54822 18.25 12H19.75C19.75 7.71979 16.2802 4.25 12 4.25V5.75Z" fill="#28303F"/>
</svg>
