<svg width="24" height="24" viewBox="0 0 24 24" fill="none" xmlns="http://www.w3.org/2000/svg">
<path d="M12.75 9C12.75 8.58579 12.4142 8.25 12 8.25C11.5858 8.25 11.25 8.58579 11.25 9H12.75ZM12.5528 12.2764L12.8882 11.6056L12.5528 12.2764ZM13.6646 13.6708C14.0351 13.8561 14.4856 13.7059 14.6708 13.3354C14.8561 12.9649 14.7059 12.5144 14.3354 12.3292L13.6646 13.6708ZM11.25 9V11.382H12.75V9H11.25ZM12.2174 12.9472L13.6646 13.6708L14.3354 12.3292L12.8882 11.6056L12.2174 12.9472ZM11.25 11.382C11.25 12.0448 11.6245 12.6508 12.2174 12.9472L12.8882 11.6056C12.8035 11.5632 12.75 11.4767 12.75 11.382H11.25ZM6 2.75H18V1.25H6V2.75ZM21.25 6V18H22.75V6H21.25ZM18 21.25H6V22.75H18V21.25ZM2.75 18V6H1.25V18H2.75ZM6 21.25C4.20507 21.25 2.75 19.7949 2.75 18H1.25C1.25 20.6234 3.37665 22.75 6 22.75V21.25ZM21.25 18C21.25 19.7949 19.7949 21.25 18 21.25V22.75C20.6234 22.75 22.75 20.6234 22.75 18H21.25ZM18 2.75C19.7949 2.75 21.25 4.20507 21.25 6H22.75C22.75 3.37665 20.6234 1.25 18 1.25V2.75ZM6 1.25C3.37665 1.25 1.25 3.37665 1.25 6H2.75C2.75 4.20507 4.20507 2.75 6 2.75V1.25ZM7 5.75H17V4.25H7V5.75ZM18.25 7V17H19.75V7H18.25ZM17 18.25H7V19.75H17V18.25ZM5.75 17V7H4.25V17H5.75ZM7 18.25C6.30964 18.25 5.75 17.6904 5.75 17H4.25C4.25 18.5188 5.48122 19.75 7 19.75V18.25ZM18.25 17C18.25 17.6904 17.6904 18.25 17 18.25V19.75C18.5188 19.75 19.75 18.5188 19.75 17H18.25ZM17 5.75C17.6904 5.75 18.25 6.30964 18.25 7H19.75C19.75 5.48122 18.5188 4.25 17 4.25V5.75ZM7 4.25C5.48122 4.25 4.25 5.48122 4.25 7H5.75C5.75 6.30964 6.30964 5.75 7 5.75V4.25Z" fill="#28303F"/>
</svg>
