<svg width="24" height="24" viewBox="0 0 24 24" fill="none" xmlns="http://www.w3.org/2000/svg">
<path d="M10 13.25C9.58579 13.25 9.25 13.5858 9.25 14C9.25 14.4142 9.58579 14.75 10 14.75V13.25ZM14 14.75C14.4142 14.75 14.75 14.4142 14.75 14C14.75 13.5858 14.4142 13.25 14 13.25V14.75ZM4 11.75H20V10.25H4V11.75ZM21.25 13V17H22.75V13H21.25ZM18 20.25H6V21.75H18V20.25ZM2.75 17V13H1.25V17H2.75ZM6 20.25C4.20507 20.25 2.75 18.7949 2.75 17H1.25C1.25 19.6234 3.37665 21.75 6 21.75V20.25ZM21.25 17C21.25 18.7949 19.7949 20.25 18 20.25V21.75C20.6234 21.75 22.75 19.6234 22.75 17H21.25ZM20 11.75C20.6904 11.75 21.25 12.3096 21.25 13H22.75C22.75 11.4812 21.5188 10.25 20 10.25V11.75ZM4 10.25C2.48122 10.25 1.25 11.4812 1.25 13H2.75C2.75 12.3096 3.30964 11.75 4 11.75V10.25ZM6 7.75H18V6.25H6V7.75ZM19.25 9V11H20.75V9H19.25ZM4.75 11V9H3.25V11H4.75ZM18 7.75C18.6904 7.75 19.25 8.30964 19.25 9H20.75C20.75 7.48122 19.5188 6.25 18 6.25V7.75ZM6 6.25C4.48122 6.25 3.25 7.48122 3.25 9H4.75C4.75 8.30964 5.30964 7.75 6 7.75V6.25ZM8 3.75H16V2.25H8V3.75ZM17.25 5V7H18.75V5H17.25ZM6.75 7V5H5.25V7H6.75ZM16 3.75C16.6904 3.75 17.25 4.30964 17.25 5H18.75C18.75 3.48122 17.5188 2.25 16 2.25V3.75ZM8 2.25C6.48122 2.25 5.25 3.48122 5.25 5H6.75C6.75 4.30964 7.30964 3.75 8 3.75V2.25ZM10 14.75H14V13.25H10V14.75Z" fill="#28303F"/>
</svg>
