<svg width="24" height="24" viewBox="0 0 24 24" fill="none" xmlns="http://www.w3.org/2000/svg">
<path d="M14.8612 8.04584L15.0983 8.75735L14.8612 8.04584ZM8.59084 10.1359L8.35367 9.42443L8.59084 10.1359ZM13.8641 15.4092L13.1525 15.172L13.8641 15.4092ZM15.9542 9.13883L15.2427 8.90166L15.9542 9.13883ZM8.59084 11.7754L8.35367 12.487L8.59084 11.7754ZM10.9063 12.5472L11.1434 11.8357L10.9063 12.5472ZM11.4528 13.0937L10.7412 13.3309L11.4528 13.0937ZM12.2246 15.4092L12.9361 15.172L12.2246 15.4092ZM11.25 4C11.25 4.41421 11.5858 4.75 12 4.75C12.4142 4.75 12.75 4.41421 12.75 4H11.25ZM12.75 20C12.75 19.5858 12.4142 19.25 12 19.25C11.5858 19.25 11.25 19.5858 11.25 20H12.75ZM20 11.25C19.5858 11.25 19.25 11.5858 19.25 12C19.25 12.4142 19.5858 12.75 20 12.75V11.25ZM4 12.75C4.41421 12.75 4.75 12.4142 4.75 12C4.75 11.5858 4.41421 11.25 4 11.25V12.75ZM21.25 12C21.25 17.1086 17.1086 21.25 12 21.25V22.75C17.9371 22.75 22.75 17.9371 22.75 12H21.25ZM12 21.25C6.89137 21.25 2.75 17.1086 2.75 12H1.25C1.25 17.9371 6.06294 22.75 12 22.75V21.25ZM2.75 12C2.75 6.89137 6.89137 2.75 12 2.75V1.25C6.06294 1.25 1.25 6.06294 1.25 12H2.75ZM12 2.75C17.1086 2.75 21.25 6.89137 21.25 12H22.75C22.75 6.06294 17.9371 1.25 12 1.25V2.75ZM14.624 7.33432L8.35367 9.42443L8.82801 10.8475L15.0983 8.75735L14.624 7.33432ZM14.5756 15.6463L16.6657 9.376L15.2427 8.90166L13.1525 15.172L14.5756 15.6463ZM8.35367 12.487L10.6691 13.2588L11.1434 11.8357L8.82801 11.0639L8.35367 12.487ZM10.7412 13.3309L11.513 15.6463L12.9361 15.172L12.1643 12.8566L10.7412 13.3309ZM10.6691 13.2588C10.7032 13.2701 10.7299 13.2968 10.7412 13.3309L12.1643 12.8566C12.0036 12.3746 11.6254 11.9964 11.1434 11.8357L10.6691 13.2588ZM13.1525 15.172C13.1394 15.2115 13.1233 15.2246 13.1137 15.2312C13.0993 15.2409 13.0753 15.25 13.0443 15.25C13.0133 15.25 12.9893 15.2409 12.975 15.2312C12.9653 15.2246 12.9492 15.2115 12.9361 15.172L11.513 15.6463C12.0036 17.1179 14.085 17.1179 14.5756 15.6463L13.1525 15.172ZM8.35367 9.42443C6.88211 9.91495 6.88211 11.9964 8.35367 12.487L8.82801 11.0639C8.78854 11.0508 8.77539 11.0347 8.76882 11.025C8.75912 11.0107 8.75 10.9867 8.75 10.9557C8.75 10.9247 8.75912 10.9007 8.76882 10.8863C8.77539 10.8767 8.78854 10.8606 8.82801 10.8475L8.35367 9.42443ZM15.0983 8.75735C15.128 8.74748 15.1473 8.74926 15.1613 8.75286C15.1781 8.75721 15.1976 8.76744 15.2151 8.78491C15.2326 8.80238 15.2428 8.82186 15.2471 8.83875C15.2507 8.8527 15.2525 8.87204 15.2427 8.90166L16.6657 9.376C17.0863 8.11418 15.8858 6.91372 14.624 7.33432L15.0983 8.75735ZM11.25 2V4H12.75V2H11.25ZM11.25 20V22H12.75V20H11.25ZM22 11.25H20V12.75H22V11.25ZM4 11.25H2V12.75H4V11.25Z" fill="#28303F"/>
</svg>
