<svg width="24" height="24" viewBox="0 0 24 24" fill="none" xmlns="http://www.w3.org/2000/svg">
<path d="M12 2V1.25V2ZM18 2V2.75V2ZM12 21.25H6V22.75H12V21.25ZM2.75 18V12H1.25V18H2.75ZM6 21.25C4.20507 21.25 2.75 19.7949 2.75 18H1.25C1.25 20.6234 3.37665 22.75 6 22.75V21.25ZM15.25 18C15.25 19.7949 13.7949 21.25 12 21.25V22.75C14.6234 22.75 16.75 20.6234 16.75 18H15.25ZM12 8.75C13.7949 8.75 15.25 10.2051 15.25 12H16.75C16.75 9.37665 14.6234 7.25 12 7.25V8.75ZM6 7.25C3.37665 7.25 1.25 9.37665 1.25 12H2.75C2.75 10.2051 4.20507 8.75 6 8.75V7.25ZM12 2.75L18 2.75V1.25L12 1.25V2.75ZM21.25 6V12H22.75V6H21.25ZM21.25 12C21.25 13.7949 19.7949 15.25 18 15.25V16.75C20.6234 16.75 22.75 14.6234 22.75 12H21.25ZM18 2.75C19.7949 2.75 21.25 4.20507 21.25 6H22.75C22.75 3.37665 20.6234 1.25 18 1.25V2.75ZM12 1.25C9.37665 1.25 7.25 3.37665 7.25 6H8.75C8.75 4.20507 10.2051 2.75 12 2.75V1.25ZM8.75 8V6H7.25V8H8.75ZM6 8.75H8V7.25H6V8.75ZM8 8.75H12V7.25H8V8.75ZM18 15.25H16V16.75H18V15.25ZM15.25 12V16H16.75V12H15.25ZM15.25 16V18H16.75V16H15.25Z" fill="#28303F"/>
</svg>
