<svg width="24" height="24" viewBox="0 0 24 24" fill="none" xmlns="http://www.w3.org/2000/svg">
<path d="M9.25 4C9.25 4.41421 9.58579 4.75 10 4.75C10.4142 4.75 10.75 4.41421 10.75 4H9.25ZM10.75 2C10.75 1.58579 10.4142 1.25 10 1.25C9.58579 1.25 9.25 1.58579 9.25 2H10.75ZM13.25 4C13.25 4.41421 13.5858 4.75 14 4.75C14.4142 4.75 14.75 4.41421 14.75 4H13.25ZM14.75 2C14.75 1.58579 14.4142 1.25 14 1.25C13.5858 1.25 13.25 1.58579 13.25 2H14.75ZM14.75 20C14.75 19.5858 14.4142 19.25 14 19.25C13.5858 19.25 13.25 19.5858 13.25 20H14.75ZM13.25 22C13.25 22.4142 13.5858 22.75 14 22.75C14.4142 22.75 14.75 22.4142 14.75 22H13.25ZM10.75 20C10.75 19.5858 10.4142 19.25 10 19.25C9.58579 19.25 9.25 19.5858 9.25 20H10.75ZM9.25 22C9.25 22.4142 9.58579 22.75 10 22.75C10.4142 22.75 10.75 22.4142 10.75 22H9.25ZM20 9.25C19.5858 9.25 19.25 9.58579 19.25 10C19.25 10.4142 19.5858 10.75 20 10.75V9.25ZM22 10.75C22.4142 10.75 22.75 10.4142 22.75 10C22.75 9.58579 22.4142 9.25 22 9.25V10.75ZM20 13.25C19.5858 13.25 19.25 13.5858 19.25 14C19.25 14.4142 19.5858 14.75 20 14.75V13.25ZM22 14.75C22.4142 14.75 22.75 14.4142 22.75 14C22.75 13.5858 22.4142 13.25 22 13.25V14.75ZM4 10.75C4.41421 10.75 4.75 10.4142 4.75 10C4.75 9.58579 4.41421 9.25 4 9.25V10.75ZM2 9.25C1.58579 9.25 1.25 9.58579 1.25 10C1.25 10.4142 1.58579 10.75 2 10.75V9.25ZM4 14.75C4.41421 14.75 4.75 14.4142 4.75 14C4.75 13.5858 4.41421 13.25 4 13.25V14.75ZM2 13.25C1.58579 13.25 1.25 13.5858 1.25 14C1.25 14.4142 1.58579 14.75 2 14.75V13.25ZM8 4.75H16V3.25H8V4.75ZM19.25 8V16H20.75V8H19.25ZM16 19.25H8V20.75H16V19.25ZM4.75 16V8H3.25V16H4.75ZM8 19.25C6.20507 19.25 4.75 17.7949 4.75 16H3.25C3.25 18.6234 5.37665 20.75 8 20.75V19.25ZM19.25 16C19.25 17.7949 17.7949 19.25 16 19.25V20.75C18.6234 20.75 20.75 18.6234 20.75 16H19.25ZM16 4.75C17.7949 4.75 19.25 6.20507 19.25 8H20.75C20.75 5.37665 18.6234 3.25 16 3.25V4.75ZM8 3.25C5.37665 3.25 3.25 5.37665 3.25 8H4.75C4.75 6.20507 6.20507 4.75 8 4.75V3.25ZM11 9.75H13V8.25H11V9.75ZM14.25 11V13H15.75V11H14.25ZM13 14.25H11V15.75H13V14.25ZM9.75 13V11H8.25V13H9.75ZM11 14.25C10.3096 14.25 9.75 13.6904 9.75 13H8.25C8.25 14.5188 9.48122 15.75 11 15.75V14.25ZM14.25 13C14.25 13.6904 13.6904 14.25 13 14.25V15.75C14.5188 15.75 15.75 14.5188 15.75 13H14.25ZM13 9.75C13.6904 9.75 14.25 10.3096 14.25 11H15.75C15.75 9.48122 14.5188 8.25 13 8.25V9.75ZM11 8.25C9.48122 8.25 8.25 9.48122 8.25 11H9.75C9.75 10.3096 10.3096 9.75 11 9.75V8.25ZM10.75 4V2H9.25V4H10.75ZM14.75 4V2H13.25V4H14.75ZM13.25 20V22H14.75V20H13.25ZM9.25 20V22H10.75V20H9.25ZM20 10.75H22V9.25H20V10.75ZM20 14.75H22V13.25H20V14.75ZM4 9.25H2V10.75H4V9.25ZM4 13.25H2V14.75H4V13.25Z" fill="#28303F"/>
</svg>
