<svg width="24" height="24" viewBox="0 0 24 24" fill="none" xmlns="http://www.w3.org/2000/svg">
<path d="M4.24252 6.02986L3.51491 5.84796L4.24252 6.02986ZM2.62125 12.5149L3.34885 12.6968L2.62125 12.5149ZM9.99998 15L10.624 15.416C10.7774 15.1859 10.7917 14.89 10.6612 14.6461C10.5307 14.4022 10.2766 14.25 9.99998 14.25V15ZM8.59115 17.1133L7.96711 16.6972L8.59115 17.1133ZM12 21V21.75C12.2691 21.75 12.5176 21.6058 12.6512 21.3721L12 21ZM15.8682 14.2306L15.217 13.8585L15.8682 14.2306ZM15.5547 4.70313L15.9707 4.0791L15.9707 4.07909L15.5547 4.70313ZM14.0077 3.6718L13.5917 4.29584V4.29584L14.0077 3.6718ZM20 14.25H18V15.75H20V14.25ZM16.75 13V6H15.25V13H16.75ZM18 4.75H20V3.25H18V4.75ZM21.25 6V13H22.75V6H21.25ZM20 4.75C20.6903 4.75 21.25 5.30964 21.25 6H22.75C22.75 4.48122 21.5188 3.25 20 3.25V4.75ZM16.75 6C16.75 5.30964 17.3096 4.75 18 4.75V3.25C16.4812 3.25 15.25 4.48122 15.25 6H16.75ZM18 14.25C17.3096 14.25 16.75 13.6904 16.75 13H15.25C15.25 14.5188 16.4812 15.75 18 15.75V14.25ZM20 15.75C21.5188 15.75 22.75 14.5188 22.75 13H21.25C21.25 13.6904 20.6903 14.25 20 14.25V15.75ZM11.7889 2.25H8.12309V3.75H11.7889V2.25ZM3.51491 5.84796L1.89364 12.333L3.34885 12.6968L4.97012 6.21176L3.51491 5.84796ZM4.56153 15.75H9.99998V14.25H4.56153V15.75ZM9.37594 14.584L7.96711 16.6972L9.21518 17.5293L10.624 15.416L9.37594 14.584ZM10.6713 21.75H12V20.25H10.6713V21.75ZM12.6512 21.3721L16.5194 14.6027L15.217 13.8585L11.3488 20.6279L12.6512 21.3721ZM16.75 13.7344V5.53518H15.25V13.7344H16.75ZM15.9707 4.07909L14.4237 3.04776L13.5917 4.29584L15.1387 5.32717L15.9707 4.07909ZM16.75 5.53518C16.75 4.95007 16.4576 4.40366 15.9707 4.0791L15.1387 5.32717C15.2082 5.37354 15.25 5.4516 15.25 5.53518H16.75ZM1.89364 12.333C1.45973 14.0687 2.77246 15.75 4.56153 15.75V14.25C3.74832 14.25 3.15162 13.4858 3.34885 12.6968L1.89364 12.333ZM8.12309 2.25C5.94346 2.25 4.04354 3.73341 3.51491 5.84796L4.97012 6.21176C5.33182 4.76497 6.63176 3.75 8.12309 3.75V2.25ZM11.7889 3.75C12.4305 3.75 13.0578 3.93992 13.5917 4.29584L14.4237 3.04776C13.6434 2.52758 12.7266 2.25 11.7889 2.25V3.75ZM7.96711 16.6972C6.52724 18.857 8.07551 21.75 10.6713 21.75V20.25C9.27355 20.25 8.43987 18.6922 9.21518 17.5293L7.96711 16.6972ZM16.5194 14.6027C16.6705 14.3383 16.75 14.039 16.75 13.7344H15.25C15.25 13.7779 15.2386 13.8207 15.217 13.8585L16.5194 14.6027Z" fill="#28303F"/>
</svg>
