<svg width="24" height="24" viewBox="0 0 24 24" fill="none" xmlns="http://www.w3.org/2000/svg">
<path d="M22.75 12C22.75 11.5858 22.4142 11.25 22 11.25C21.5858 11.25 21.25 11.5858 21.25 12H22.75ZM12 2.75C12.4142 2.75 12.75 2.41421 12.75 2C12.75 1.58579 12.4142 1.25 12 1.25V2.75ZM9.15467 15.9896L9.04861 15.2471H9.04861L9.15467 15.9896ZM8.01044 14.8453L7.26797 14.7393L8.01044 14.8453ZM9.01164 10.6975L8.48131 10.1671L9.01164 10.6975ZM8.43952 11.8417L9.18199 11.9478L8.43952 11.8417ZM13.3025 14.9884L13.8329 15.5187L13.3025 14.9884ZM12.1583 15.5605L12.2644 16.3029L12.1583 15.5605ZM21.4076 4.02275L20.8772 4.55308V4.55308L21.4076 4.02275ZM21.4076 6.88334L20.8772 6.35301L21.4076 6.88334ZM19.9773 2.59245L20.5076 2.06212V2.06212L19.9773 2.59245ZM17.1167 2.59245L17.647 3.12278L17.1167 2.59245ZM16.4364 4.02275C16.4364 3.60854 16.1006 3.27275 15.6864 3.27275C15.2721 3.27275 14.9364 3.60854 14.9364 4.02275L16.4364 4.02275ZM19.9773 9.06364C20.3915 9.06364 20.7273 8.72785 20.7273 8.31364C20.7273 7.89943 20.3915 7.56364 19.9773 7.56364V9.06364ZM21.25 12V18H22.75V12H21.25ZM18 21.25H6V22.75H18V21.25ZM2.75 18V6H1.25V18H2.75ZM6 2.75H12V1.25H6V2.75ZM2.75 6C2.75 4.20507 4.20507 2.75 6 2.75V1.25C3.37665 1.25 1.25 3.37665 1.25 6H2.75ZM6 21.25C4.20507 21.25 2.75 19.7949 2.75 18H1.25C1.25 20.6234 3.37665 22.75 6 22.75V21.25ZM21.25 18C21.25 19.7949 19.7949 21.25 18 21.25V22.75C20.6234 22.75 22.75 20.6234 22.75 18H21.25ZM19.4469 3.12278L20.8772 4.55308L21.9379 3.49242L20.5076 2.06212L19.4469 3.12278ZM20.8772 6.35301L12.7722 14.458L13.8329 15.5187L21.9379 7.41367L20.8772 6.35301ZM9.54197 11.2278L17.647 3.12278L16.5863 2.06212L8.48131 10.1671L9.54197 11.2278ZM12.0522 14.818L9.04861 15.2471L9.26074 16.732L12.2644 16.3029L12.0522 14.818ZM8.7529 14.9514L9.18199 11.9478L7.69706 11.7356L7.26797 14.7393L8.7529 14.9514ZM9.04861 15.2471C8.87611 15.2717 8.72825 15.1239 8.7529 14.9514L7.26797 14.7393C7.10191 15.9017 8.09829 16.8981 9.26074 16.732L9.04861 15.2471ZM8.48131 10.1671C8.05709 10.5914 7.78191 11.1417 7.69706 11.7356L9.18199 11.9478C9.22093 11.6752 9.34725 11.4225 9.54197 11.2278L8.48131 10.1671ZM12.7722 14.458C12.5775 14.6528 12.3248 14.7791 12.0522 14.818L12.2644 16.3029C12.8583 16.2181 13.4086 15.9429 13.8329 15.5187L12.7722 14.458ZM20.8772 4.55308C21.3743 5.05011 21.3743 5.85597 20.8772 6.35301L21.9379 7.41367C23.0207 6.33085 23.0207 4.57524 21.9379 3.49242L20.8772 4.55308ZM20.5076 2.06212C19.4248 0.979294 17.6692 0.979294 16.5863 2.06212L17.647 3.12278C18.144 2.62574 18.9499 2.62574 19.4469 3.12278L20.5076 2.06212ZM15.6864 4.02275C14.9364 4.02275 14.9364 4.02312 14.9364 4.0235C14.9364 4.02363 14.9364 4.02401 14.9364 4.02428C14.9364 4.02482 14.9364 4.02537 14.9364 4.02595C14.9364 4.02711 14.9364 4.02836 14.9364 4.0297C14.9364 4.03237 14.9364 4.03541 14.9365 4.0388C14.9366 4.04558 14.9368 4.05377 14.9371 4.06334C14.9377 4.08247 14.9388 4.10711 14.9408 4.13689C14.9448 4.19642 14.9522 4.27666 14.9662 4.37465C14.9942 4.57049 15.0485 4.83834 15.1536 5.15386C15.3648 5.7875 15.7796 6.6069 16.5863 7.41367L17.647 6.35301C17.0235 5.72949 16.723 5.1186 16.5767 4.67951C16.503 4.45867 16.4679 4.27955 16.4512 4.16252C16.4428 4.10406 16.4391 4.06139 16.4375 4.03711C16.4367 4.02499 16.4364 4.0175 16.4363 4.01498C16.4363 4.01372 16.4363 4.01371 16.4363 4.01499C16.4363 4.01563 16.4363 4.01659 16.4363 4.01789C16.4363 4.01853 16.4364 4.01926 16.4364 4.02007C16.4364 4.02047 16.4364 4.0209 16.4364 4.02135C16.4364 4.02157 16.4364 4.02192 16.4364 4.02203C16.4364 4.02239 16.4364 4.02275 15.6864 4.02275ZM16.5863 7.41367C17.3931 8.22044 18.2125 8.63515 18.8461 8.84637C19.1617 8.95154 19.4295 9.00578 19.6254 9.03375C19.7233 9.04775 19.8036 9.05522 19.8631 9.05919C19.8929 9.06117 19.9175 9.06228 19.9367 9.0629C19.9462 9.06321 19.9544 9.06339 19.9612 9.0635C19.9646 9.06356 19.9676 9.06359 19.9703 9.06361C19.9716 9.06362 19.9729 9.06363 19.974 9.06363C19.9746 9.06364 19.9752 9.06364 19.9757 9.06364C19.976 9.06364 19.9764 9.06364 19.9765 9.06364C19.9769 9.06364 19.9773 9.06364 19.9773 8.31364C19.9773 7.56364 19.9776 7.56364 19.978 7.56364C19.9781 7.56364 19.9784 7.56364 19.9787 7.56364C19.9791 7.56364 19.9795 7.56364 19.9799 7.56365C19.9807 7.56365 19.9815 7.56365 19.9821 7.56366C19.9834 7.56367 19.9844 7.56368 19.985 7.56369C19.9863 7.56371 19.9863 7.56372 19.985 7.56368C19.9825 7.5636 19.975 7.56332 19.9629 7.56251C19.9386 7.56089 19.8959 7.55718 19.8375 7.54883C19.7205 7.53211 19.5413 7.49695 19.3205 7.42334C18.8814 7.27698 18.2705 6.97654 17.647 6.35301L16.5863 7.41367Z" fill="#28303F"/>
</svg>
