<svg width="24" height="24" viewBox="0 0 24 24" fill="none" xmlns="http://www.w3.org/2000/svg">
<path d="M3 20.25C2.58579 20.25 2.25 20.5858 2.25 21C2.25 21.4142 2.58579 21.75 3 21.75V20.25ZM21 21.75C21.4142 21.75 21.75 21.4142 21.75 21C21.75 20.5858 21.4142 20.25 21 20.25V21.75ZM7.31963 17.9881L7.21356 17.2456H7.21356L7.31963 17.9881ZM6.01193 16.6804L5.26946 16.5743L6.01193 16.6804ZM7.15616 11.94L6.62583 11.4096H6.62583L7.15616 11.94ZM6.50231 13.2477L7.24478 13.3537L6.50231 13.2477ZM12.06 16.8438L12.5904 17.3742L12.06 16.8438ZM10.7523 17.4977L10.8584 18.2401H10.8584L10.7523 17.4977ZM20.3229 5.31171L19.7926 5.84204V5.84204L20.3229 5.31171ZM20.3229 8.58096L19.7926 8.05063L20.3229 8.58096ZM18.6883 3.67708L19.2186 3.14675V3.14675L18.6883 3.67708ZM15.419 3.67708L15.9494 4.20741L15.419 3.67708ZM14.5344 5.31171C14.5344 4.8975 14.1986 4.56171 13.7844 4.56171C13.3702 4.56171 13.0344 4.8975 13.0344 5.31171H14.5344ZM18.6883 10.9656C19.1025 10.9656 19.4383 10.6298 19.4383 10.2156C19.4383 9.80137 19.1025 9.46559 18.6883 9.46559V10.9656ZM3 21.75H21V20.25H3V21.75ZM18.158 4.20741L19.7926 5.84204L20.8532 4.78138L19.2186 3.14675L18.158 4.20741ZM19.7926 8.05063L11.5297 16.3135L12.5904 17.3742L20.8532 9.11129L19.7926 8.05063ZM7.68649 12.4703L15.9494 4.20741L14.8887 3.14675L6.62583 11.4096L7.68649 12.4703ZM10.6463 16.7552L7.21356 17.2456L7.42569 18.7305L10.8584 18.2401L10.6463 16.7552ZM6.75439 16.7864L7.24478 13.3537L5.75985 13.1416L5.26946 16.5743L6.75439 16.7864ZM7.21356 17.2456C6.94571 17.2839 6.71612 17.0543 6.75439 16.7864L5.26946 16.5743C5.08978 17.8321 6.16789 18.9102 7.42569 18.7305L7.21356 17.2456ZM6.62583 11.4096C6.1574 11.8781 5.85354 12.4858 5.75985 13.1416L7.24478 13.3537C7.29256 13.0192 7.44756 12.7092 7.68649 12.4703L6.62583 11.4096ZM11.5297 16.3135C11.2908 16.5524 10.9808 16.7074 10.6463 16.7552L10.8584 18.2401C11.5142 18.1465 12.1219 17.8426 12.5904 17.3742L11.5297 16.3135ZM19.7926 5.84204C20.4025 6.45192 20.4025 7.44074 19.7926 8.05063L20.8532 9.11129C22.0489 7.91562 22.0489 5.97705 20.8532 4.78138L19.7926 5.84204ZM19.2186 3.14675C18.0229 1.95108 16.0844 1.95108 14.8887 3.14675L15.9494 4.20741C16.5593 3.59753 17.5481 3.59753 18.158 4.20741L19.2186 3.14675ZM13.7844 5.31171C13.0344 5.31171 13.0344 5.31209 13.0344 5.31246C13.0344 5.3126 13.0344 5.31299 13.0344 5.31326C13.0344 5.3138 13.0344 5.31436 13.0344 5.31495C13.0344 5.31614 13.0344 5.31742 13.0344 5.31881C13.0345 5.32158 13.0345 5.32477 13.0346 5.32836C13.0347 5.33553 13.0349 5.34431 13.0352 5.35465C13.0359 5.37533 13.0371 5.40226 13.0393 5.43503C13.0436 5.50055 13.0519 5.58957 13.0675 5.69873C13.0987 5.91692 13.1593 6.21669 13.2772 6.57052C13.514 7.28079 13.9798 8.20236 14.8887 9.11129L15.9494 8.05063C15.2237 7.32494 14.8722 6.61189 14.7003 6.09618C14.6139 5.83703 14.5723 5.62598 14.5524 5.4866C14.5425 5.41697 14.538 5.36552 14.5359 5.33525C14.5349 5.32013 14.5346 5.31035 14.5344 5.30629C14.5344 5.30426 14.5344 5.30366 14.5344 5.30455C14.5344 5.30499 14.5344 5.30581 14.5344 5.307C14.5344 5.30759 14.5344 5.30828 14.5344 5.30907C14.5344 5.30946 14.5344 5.30988 14.5344 5.31032C14.5344 5.31054 14.5344 5.31089 14.5344 5.311C14.5344 5.31135 14.5344 5.31171 13.7844 5.31171ZM14.8887 9.11129C15.7976 10.0202 16.7192 10.486 17.4295 10.7228C17.7833 10.8407 18.0831 10.9013 18.3013 10.9325C18.4104 10.9481 18.4995 10.9564 18.565 10.9607C18.5977 10.9629 18.6247 10.9641 18.6453 10.9648C18.6557 10.9651 18.6645 10.9653 18.6716 10.9654C18.6752 10.9655 18.6784 10.9655 18.6812 10.9656C18.6826 10.9656 18.6839 10.9656 18.685 10.9656C18.6856 10.9656 18.6862 10.9656 18.6867 10.9656C18.687 10.9656 18.6874 10.9656 18.6875 10.9656C18.6879 10.9656 18.6883 10.9656 18.6883 10.2156C18.6883 9.46559 18.6886 9.46559 18.689 9.46559C18.6891 9.46559 18.6895 9.46559 18.6897 9.46559C18.6901 9.46559 18.6905 9.46559 18.6909 9.46559C18.6917 9.4656 18.6924 9.4656 18.693 9.46561C18.6942 9.46561 18.695 9.46563 18.6955 9.46563C18.6963 9.46565 18.6957 9.46564 18.6937 9.46558C18.6896 9.46545 18.6799 9.46507 18.6647 9.46406C18.6345 9.46204 18.583 9.45753 18.5134 9.44759C18.374 9.42767 18.163 9.38613 17.9038 9.29975C17.3881 9.12785 16.6751 8.77632 15.9494 8.05063L14.8887 9.11129Z" fill="#28303F"/>
</svg>
