<svg width="24" height="24" viewBox="0 0 24 24" fill="none" xmlns="http://www.w3.org/2000/svg">
<path d="M3.12281 17.6789L2.60418 18.2207L3.12281 17.6789ZM3.12281 12.3211L3.64143 12.8629L3.12281 12.3211ZM20.8772 17.6789L20.3586 17.1371L20.8772 17.6789ZM20.8772 12.3211L21.3958 11.7793L20.8772 12.3211ZM12.75 2C12.75 1.58579 12.4142 1.25 12 1.25C11.5858 1.25 11.25 1.58579 11.25 2H12.75ZM11.25 4C11.25 4.41421 11.5858 4.75 12 4.75C12.4142 4.75 12.75 4.41421 12.75 4H11.25ZM21.5303 5.53033C21.8232 5.23744 21.8232 4.76256 21.5303 4.46967C21.2374 4.17678 20.7625 4.17678 20.4696 4.46967L21.5303 5.53033ZM18.9696 5.96967C18.6767 6.26256 18.6767 6.73744 18.9696 7.03033C19.2625 7.32322 19.7374 7.32322 20.0303 7.03033L18.9696 5.96967ZM3.5303 4.46967C3.23741 4.17678 2.76253 4.17678 2.46964 4.46967C2.17675 4.76256 2.17675 5.23744 2.46964 5.53033L3.5303 4.46967ZM3.96964 7.03033C4.26253 7.32322 4.73741 7.32322 5.0303 7.03033C5.32319 6.73744 5.32319 6.26256 5.0303 5.96967L3.96964 7.03033ZM20.3586 17.1371C18.3249 19.0838 15.2996 21.25 12 21.25V22.75C15.9088 22.75 19.3018 20.2252 21.3958 18.2207L20.3586 17.1371ZM12 21.25C8.70043 21.25 5.67507 19.0838 3.64143 17.1371L2.60418 18.2207C4.69816 20.2252 8.09116 22.75 12 22.75V21.25ZM3.64143 12.8629C5.67507 10.9162 8.70043 8.75 12 8.75V7.25C8.09116 7.25 4.69816 9.77485 2.60418 11.7793L3.64143 12.8629ZM12 8.75C15.2996 8.75 18.3249 10.9162 20.3586 12.8629L21.3958 11.7793C19.3018 9.77485 15.9088 7.25 12 7.25V8.75ZM3.64143 17.1371C2.45286 15.9993 2.45286 14.0007 3.64143 12.8629L2.60418 11.7793C0.798606 13.5077 0.798607 16.4923 2.60418 18.2207L3.64143 17.1371ZM21.3958 18.2207C23.2014 16.4923 23.2014 13.5077 21.3958 11.7793L20.3586 12.8629C21.5471 14.0007 21.5471 15.9993 20.3586 17.1371L21.3958 18.2207ZM14.25 15C14.25 16.2426 13.2426 17.25 12 17.25V18.75C14.071 18.75 15.75 17.0711 15.75 15H14.25ZM12 17.25C10.7573 17.25 9.74997 16.2426 9.74997 15H8.24997C8.24997 17.0711 9.9289 18.75 12 18.75V17.25ZM9.74997 15C9.74997 13.7574 10.7573 12.75 12 12.75V11.25C9.9289 11.25 8.24997 12.9289 8.24997 15H9.74997ZM12 12.75C13.2426 12.75 14.25 13.7574 14.25 15H15.75C15.75 12.9289 14.071 11.25 12 11.25V12.75ZM11.25 2V4H12.75V2H11.25ZM20.4696 4.46967L18.9696 5.96967L20.0303 7.03033L21.5303 5.53033L20.4696 4.46967ZM2.46964 5.53033L3.96964 7.03033L5.0303 5.96967L3.5303 4.46967L2.46964 5.53033Z" fill="#28303F"/>
</svg>
