<svg width="24" height="24" viewBox="0 0 24 24" fill="none" xmlns="http://www.w3.org/2000/svg">
<path d="M8.5 17C8.5 17.8284 7.82843 18.5 7 18.5C6.17157 18.5 5.5 17.8284 5.5 17C5.5 16.1716 6.17157 15.5 7 15.5C7.82843 15.5 8.5 16.1716 8.5 17Z" fill="#28303F"/>
<path d="M6.0928 10.2558C5.68177 10.2045 5.30702 10.4962 5.25576 10.9072C5.20451 11.3182 5.49616 11.693 5.9072 11.7442L6.0928 10.2558ZM12.2558 18.0928C12.307 18.5038 12.6818 18.7955 13.0928 18.7442C13.5038 18.693 13.7955 18.3182 13.7442 17.9072L12.2558 18.0928ZM6 5.25C5.58579 5.25 5.25 5.58579 5.25 6C5.25 6.41421 5.58579 6.75 6 6.75V5.25ZM17.25 18C17.25 18.4142 17.5858 18.75 18 18.75C18.4142 18.75 18.75 18.4142 18.75 18H17.25ZM6 2.75H18V1.25H6V2.75ZM21.25 6V18H22.75V6H21.25ZM18 21.25H6V22.75H18V21.25ZM2.75 18V6H1.25V18H2.75ZM6 21.25C4.20507 21.25 2.75 19.7949 2.75 18H1.25C1.25 20.6234 3.37665 22.75 6 22.75V21.25ZM21.25 18C21.25 19.7949 19.7949 21.25 18 21.25V22.75C20.6234 22.75 22.75 20.6234 22.75 18H21.25ZM18 2.75C19.7949 2.75 21.25 4.20507 21.25 6H22.75C22.75 3.37665 20.6234 1.25 18 1.25V2.75ZM6 1.25C3.37665 1.25 1.25 3.37665 1.25 6H2.75C2.75 4.20507 4.20507 2.75 6 2.75V1.25ZM5.9072 11.7442C9.21756 12.157 11.843 14.7824 12.2558 18.0928L13.7442 17.9072C13.2465 13.9156 10.0844 10.7535 6.0928 10.2558L5.9072 11.7442ZM6 6.75C12.2132 6.75 17.25 11.7868 17.25 18H18.75C18.75 10.9584 13.0416 5.25 6 5.25V6.75Z" fill="#28303F"/>
</svg>
