<svg width="24" height="24" viewBox="0 0 24 24" fill="none" xmlns="http://www.w3.org/2000/svg">
<path d="M3 6.25C2.58579 6.25 2.25 6.58579 2.25 7C2.25 7.41421 2.58579 7.75 3 7.75V6.25ZM8 7.75C8.41421 7.75 8.75 7.41421 8.75 7C8.75 6.58579 8.41421 6.25 8 6.25V7.75ZM21 7.75C21.4142 7.75 21.75 7.41421 21.75 7C21.75 6.58579 21.4142 6.25 21 6.25V7.75ZM16 16.25C15.5858 16.25 15.25 16.5858 15.25 17C15.25 17.4142 15.5858 17.75 16 17.75V16.25ZM21 17.75C21.4142 17.75 21.75 17.4142 21.75 17C21.75 16.5858 21.4142 16.25 21 16.25V17.75ZM3 16.25C2.58579 16.25 2.25 16.5858 2.25 17C2.25 17.4142 2.58579 17.75 3 17.75V16.25ZM14 4V4.75V4ZM16 4V3.25V4ZM16 10V9.25V10ZM14 10V10.75V10ZM8 14V14.75V14ZM10 14V13.25V14ZM10 20V19.25V20ZM8 20V20.75V20ZM3 7.75H8V6.25H3V7.75ZM19 7.75H21V6.25H19V7.75ZM16 17.75H21V16.25H16V17.75ZM3 17.75H5V16.25H3V17.75ZM14 4.75L16 4.75V3.25L14 3.25V4.75ZM16 9.25H14V10.75H16V9.25ZM14 9.25C12.7574 9.25 11.75 8.24264 11.75 7H10.25C10.25 9.07107 11.9289 10.75 14 10.75V9.25ZM18.25 7C18.25 8.24264 17.2426 9.25 16 9.25V10.75C18.0711 10.75 19.75 9.07107 19.75 7H18.25ZM16 4.75C17.2426 4.75 18.25 5.75736 18.25 7H19.75C19.75 4.92893 18.0711 3.25 16 3.25V4.75ZM14 3.25C11.9289 3.25 10.25 4.92893 10.25 7H11.75C11.75 5.75736 12.7574 4.75 14 4.75V3.25ZM8 14.75H10V13.25H8V14.75ZM10 19.25H8V20.75H10V19.25ZM8 19.25C6.75736 19.25 5.75 18.2426 5.75 17H4.25C4.25 19.0711 5.92893 20.75 8 20.75V19.25ZM12.25 17C12.25 18.2426 11.2426 19.25 10 19.25V20.75C12.0711 20.75 13.75 19.0711 13.75 17H12.25ZM10 14.75C11.2426 14.75 12.25 15.7574 12.25 17H13.75C13.75 14.9289 12.0711 13.25 10 13.25V14.75ZM8 13.25C5.92893 13.25 4.25 14.9289 4.25 17H5.75C5.75 15.7574 6.75736 14.75 8 14.75V13.25Z" fill="#28303F"/>
</svg>
