<svg width="24" height="24" viewBox="0 0 24 24" fill="none" xmlns="http://www.w3.org/2000/svg">
<path d="M3.25 21C3.25 21.4142 3.58579 21.75 4 21.75C4.41421 21.75 4.75 21.4142 4.75 21H3.25ZM11.25 21C11.25 21.4142 11.5858 21.75 12 21.75C12.4142 21.75 12.75 21.4142 12.75 21H11.25ZM12.75 14C12.75 13.5858 12.4142 13.25 12 13.25C11.5858 13.25 11.25 13.5858 11.25 14H12.75ZM12.75 3C12.75 2.58579 12.4142 2.25 12 2.25C11.5858 2.25 11.25 2.58579 11.25 3H12.75ZM4.75 3C4.75 2.58579 4.41421 2.25 4 2.25C3.58579 2.25 3.25 2.58579 3.25 3L4.75 3ZM19.25 10C19.25 10.4142 19.5858 10.75 20 10.75C20.4142 10.75 20.75 10.4142 20.75 10H19.25ZM20.75 3C20.75 2.58579 20.4142 2.25 20 2.25C19.5858 2.25 19.25 2.58579 19.25 3H20.75ZM19.25 21C19.25 21.4142 19.5858 21.75 20 21.75C20.4142 21.75 20.75 21.4142 20.75 21H19.25ZM4.75 21V15H3.25V21H4.75ZM12.75 21V14H11.25V21H12.75ZM12.75 5V3H11.25V5H12.75ZM4.75 9L4.75 3L3.25 3L3.25 9H4.75ZM20.75 10V3H19.25V10H20.75ZM20.75 21V19H19.25V21H20.75ZM10.75 9V7H9.25V9H10.75ZM13.25 7V9H14.75V7H13.25ZM13.25 9C13.25 9.69036 12.6904 10.25 12 10.25V11.75C13.5188 11.75 14.75 10.5188 14.75 9H13.25ZM12 5.75C12.6904 5.75 13.25 6.30964 13.25 7H14.75C14.75 5.48122 13.5188 4.25 12 4.25V5.75ZM10.75 7C10.75 6.30964 11.3096 5.75 12 5.75V4.25C10.4812 4.25 9.25 5.48122 9.25 7H10.75ZM9.25 9C9.25 10.5188 10.4812 11.75 12 11.75V10.25C11.3096 10.25 10.75 9.69036 10.75 9H9.25ZM2.75 13V11H1.25V13H2.75ZM5.25 11V13H6.75V11H5.25ZM5.25 13C5.25 13.6904 4.69036 14.25 4 14.25V15.75C5.51878 15.75 6.75 14.5188 6.75 13H5.25ZM4 9.75C4.69036 9.75 5.25 10.3096 5.25 11H6.75C6.75 9.48122 5.51878 8.25 4 8.25V9.75ZM2.75 11C2.75 10.3096 3.30964 9.75 4 9.75V8.25C2.48122 8.25 1.25 9.48122 1.25 11H2.75ZM1.25 13C1.25 14.5188 2.48122 15.75 4 15.75V14.25C3.30964 14.25 2.75 13.6904 2.75 13H1.25ZM18.75 17V15H17.25V17H18.75ZM21.25 15V17H22.75V15H21.25ZM21.25 17C21.25 17.6904 20.6904 18.25 20 18.25V19.75C21.5188 19.75 22.75 18.5188 22.75 17H21.25ZM20 13.75C20.6904 13.75 21.25 14.3096 21.25 15H22.75C22.75 13.4812 21.5188 12.25 20 12.25V13.75ZM18.75 15C18.75 14.3096 19.3096 13.75 20 13.75V12.25C18.4812 12.25 17.25 13.4812 17.25 15H18.75ZM17.25 17C17.25 18.5188 18.4812 19.75 20 19.75V18.25C19.3096 18.25 18.75 17.6904 18.75 17H17.25Z" fill="#28303F"/>
</svg>
