<svg width="24" height="24" viewBox="0 0 24 24" fill="none" xmlns="http://www.w3.org/2000/svg">
<path d="M6.25 21C6.25 21.4142 6.58579 21.75 7 21.75C7.41421 21.75 7.75 21.4142 7.75 21H6.25ZM7.75 16C7.75 15.5858 7.41421 15.25 7 15.25C6.58579 15.25 6.25 15.5858 6.25 16H7.75ZM7.75 3C7.75 2.58579 7.41421 2.25 7 2.25C6.58579 2.25 6.25 2.58579 6.25 3H7.75ZM16.25 8C16.25 8.41421 16.5858 8.75 17 8.75C17.4142 8.75 17.75 8.41421 17.75 8H16.25ZM17.75 3C17.75 2.58579 17.4142 2.25 17 2.25C16.5858 2.25 16.25 2.58579 16.25 3H17.75ZM16.25 21C16.25 21.4142 16.5858 21.75 17 21.75C17.4142 21.75 17.75 21.4142 17.75 21H16.25ZM7.75 21L7.75 16H6.25L6.25 21H7.75ZM7.75 5V3H6.25V5H7.75ZM17.75 8V3H16.25V8H17.75ZM17.75 21V19H16.25V21H17.75ZM4.75 10V8H3.25V10H4.75ZM9.25 8V10H10.75V8H9.25ZM9.25 10C9.25 11.2426 8.24264 12.25 7 12.25V13.75C9.07107 13.75 10.75 12.0711 10.75 10H9.25ZM7 5.75C8.24264 5.75 9.25 6.75736 9.25 8H10.75C10.75 5.92893 9.07107 4.25 7 4.25V5.75ZM4.75 8C4.75 6.75736 5.75736 5.75 7 5.75V4.25C4.92893 4.25 3.25 5.92893 3.25 8H4.75ZM3.25 10C3.25 12.0711 4.92893 13.75 7 13.75V12.25C5.75736 12.25 4.75 11.2426 4.75 10H3.25ZM14.75 16V14H13.25V16H14.75ZM19.25 14V16H20.75V14H19.25ZM19.25 16C19.25 17.2426 18.2426 18.25 17 18.25V19.75C19.0711 19.75 20.75 18.0711 20.75 16H19.25ZM17 11.75C18.2426 11.75 19.25 12.7574 19.25 14H20.75C20.75 11.9289 19.0711 10.25 17 10.25V11.75ZM14.75 14C14.75 12.7574 15.7574 11.75 17 11.75V10.25C14.9289 10.25 13.25 11.9289 13.25 14H14.75ZM13.25 16C13.25 18.0711 14.9289 19.75 17 19.75V18.25C15.7574 18.25 14.75 17.2426 14.75 16H13.25Z" fill="#28303F"/>
</svg>
