<svg width="24" height="24" viewBox="0 0 24 24" fill="none" xmlns="http://www.w3.org/2000/svg">
<path d="M4.25 21C4.25 21.4142 4.58579 21.75 5 21.75C5.41421 21.75 5.75 21.4142 5.75 21H4.25ZM11.25 21C11.25 21.4142 11.5858 21.75 12 21.75C12.4142 21.75 12.75 21.4142 12.75 21H11.25ZM12.75 12C12.75 11.5858 12.4142 11.25 12 11.25C11.5858 11.25 11.25 11.5858 11.25 12H12.75ZM12.75 3C12.75 2.58579 12.4142 2.25 12 2.25C11.5858 2.25 11.25 2.58579 11.25 3H12.75ZM5.75 3C5.75 2.58579 5.41421 2.25 5 2.25C4.58579 2.25 4.25 2.58579 4.25 3L5.75 3ZM18.25 12C18.25 12.4142 18.5858 12.75 19 12.75C19.4142 12.75 19.75 12.4142 19.75 12H18.25ZM19.75 3C19.75 2.58579 19.4142 2.25 19 2.25C18.5858 2.25 18.25 2.58579 18.25 3H19.75ZM18.25 21C18.25 21.4142 18.5858 21.75 19 21.75C19.4142 21.75 19.75 21.4142 19.75 21H18.25ZM5.75 21V14H4.25L4.25 21H5.75ZM12.75 21V12H11.25V21H12.75ZM12.75 5V3H11.25V5H12.75ZM5.75 10L5.75 3L4.25 3L4.25 10H5.75ZM19.75 12V3H18.25V12H19.75ZM19.75 21V19H18.25V21H19.75ZM19 15.75C19.6904 15.75 20.25 16.3096 20.25 17H21.75C21.75 15.4812 20.5188 14.25 19 14.25V15.75ZM20.25 17C20.25 17.6904 19.6904 18.25 19 18.25V19.75C20.5188 19.75 21.75 18.5188 21.75 17H20.25ZM19 18.25C18.3096 18.25 17.75 17.6904 17.75 17H16.25C16.25 18.5188 17.4812 19.75 19 19.75V18.25ZM17.75 17C17.75 16.3096 18.3096 15.75 19 15.75V14.25C17.4812 14.25 16.25 15.4812 16.25 17H17.75ZM12 5.75C12.6904 5.75 13.25 6.30964 13.25 7H14.75C14.75 5.48122 13.5188 4.25 12 4.25V5.75ZM13.25 7C13.25 7.69036 12.6904 8.25 12 8.25V9.75C13.5188 9.75 14.75 8.51878 14.75 7H13.25ZM12 8.25C11.3096 8.25 10.75 7.69036 10.75 7H9.25C9.25 8.51878 10.4812 9.75 12 9.75V8.25ZM10.75 7C10.75 6.30964 11.3096 5.75 12 5.75V4.25C10.4812 4.25 9.25 5.48122 9.25 7H10.75ZM5 10.75C5.69036 10.75 6.25 11.3096 6.25 12H7.75C7.75 10.4812 6.51878 9.25 5 9.25V10.75ZM6.25 12C6.25 12.6904 5.69036 13.25 5 13.25V14.75C6.51878 14.75 7.75 13.5188 7.75 12H6.25ZM5 13.25C4.30964 13.25 3.75 12.6904 3.75 12H2.25C2.25 13.5188 3.48122 14.75 5 14.75V13.25ZM3.75 12C3.75 11.3096 4.30964 10.75 5 10.75V9.25C3.48122 9.25 2.25 10.4812 2.25 12H3.75Z" fill="#28303F"/>
</svg>
