<svg width="24" height="24" viewBox="0 0 24 24" fill="none" xmlns="http://www.w3.org/2000/svg">
<path d="M9 16.6158H9.75C9.75 16.3212 9.57752 16.0539 9.30909 15.9325L9 16.6158ZM15 16.6158L14.6909 15.9325C14.4225 16.0539 14.25 16.3212 14.25 16.6158H15ZM13.8944 20.7945L14.228 21.4662L13.8944 20.7945ZM11.8944 21.7877L12.228 22.4594H12.228L11.8944 21.7877ZM17.2146 5.28135C16.8177 5.16284 16.3999 5.38852 16.2814 5.78542C16.1628 6.18232 16.3885 6.60014 16.7854 6.71865L17.2146 5.28135ZM7.21458 6.71865C7.61148 6.60014 7.83716 6.18232 7.71865 5.78542C7.60014 5.38852 7.18232 5.16284 6.78542 5.28135L7.21458 6.71865ZM14.75 5C14.75 4.58579 14.4142 4.25 14 4.25C13.5858 4.25 13.25 4.58579 13.25 5H14.75ZM13.25 7C13.25 7.41421 13.5858 7.75 14 7.75C14.4142 7.75 14.75 7.41421 14.75 7H13.25ZM10.75 7C10.75 6.58579 10.4142 6.25 10 6.25C9.58579 6.25 9.25 6.58579 9.25 7H10.75ZM9.25 8C9.25 8.41421 9.58579 8.75 10 8.75C10.4142 8.75 10.75 8.41421 10.75 8H9.25ZM10.75 2C10.75 1.58579 10.4142 1.25 10 1.25C9.58579 1.25 9.25 1.58579 9.25 2H10.75ZM9.25 4C9.25 4.41421 9.58579 4.75 10 4.75C10.4142 4.75 10.75 4.41421 10.75 4H9.25ZM19.25 8.32624C19.25 8.44412 19.1885 8.64776 18.8757 8.92324C18.564 9.19767 18.07 9.47902 17.3951 9.73044C16.0508 10.2311 14.1435 10.556 12 10.556V12.056C14.2748 12.056 16.3675 11.7139 17.9186 11.1361C18.6914 10.8483 19.369 10.4875 19.867 10.049C20.3638 9.61145 20.75 9.0312 20.75 8.32624H19.25ZM12 10.556C9.8565 10.556 7.94921 10.2311 6.60493 9.73044C5.92995 9.47902 5.43598 9.19767 5.12435 8.92324C4.81152 8.64776 4.75 8.44412 4.75 8.32624H3.25C3.25 9.0312 3.63619 9.61145 4.13301 10.049C4.63102 10.4875 5.30862 10.8483 6.08136 11.1361C7.63251 11.7139 9.72522 12.056 12 12.056V10.556ZM9.30909 15.9325C6.66909 14.7383 4.75 11.8098 4.75 8.32624H3.25C3.25 12.3459 5.46725 15.841 8.69091 17.2991L9.30909 15.9325ZM9.75 20.0109V16.6158H8.25V20.0109H9.75ZM19.25 8.32624C19.25 11.8098 17.3309 14.7383 14.6909 15.9325L15.3091 17.2991C18.5328 15.841 20.75 12.3459 20.75 8.32624H19.25ZM15.75 19.0176V16.6158H14.25V19.0176H15.75ZM13.5608 20.1227L11.5608 21.116L12.228 22.4594L14.228 21.4662L13.5608 20.1227ZM16.7854 6.71865C17.6516 6.97727 18.3087 7.29086 18.7325 7.61246C19.1664 7.94177 19.25 8.19192 19.25 8.32624H20.75C20.75 7.51954 20.2481 6.87962 19.6392 6.41758C19.0203 5.94784 18.1774 5.56882 17.2146 5.28135L16.7854 6.71865ZM4.75 8.32624C4.75 8.19192 4.83361 7.94177 5.26754 7.61246C5.69133 7.29086 6.34842 6.97727 7.21458 6.71865L6.78542 5.28135C5.82265 5.56882 4.97975 5.94784 4.36076 6.41758C3.75193 6.87962 3.25 7.51954 3.25 8.32624H4.75ZM8.25 20.0109C8.25 22.0526 10.4071 23.3638 12.228 22.4594L11.5608 21.116C10.7221 21.5325 9.75 20.9227 9.75 20.0109H8.25ZM14.25 19.0176C14.25 19.4833 13.9851 19.912 13.5608 20.1227L14.228 21.4662C15.1589 21.0039 15.75 20.0569 15.75 19.0176H14.25ZM13.25 5V7H14.75V5H13.25ZM9.25 7V8H10.75V7H9.25ZM9.25 2V4H10.75V2H9.25Z" fill="#28303F"/>
</svg>
