<svg width="24" height="24" viewBox="0 0 24 24" fill="none" xmlns="http://www.w3.org/2000/svg">
<path d="M2.25 22C2.25 22.4142 2.58579 22.75 3 22.75C3.41421 22.75 3.75 22.4142 3.75 22H2.25ZM3.75 2C3.75 1.58579 3.41421 1.25 3 1.25C2.58579 1.25 2.25 1.58579 2.25 2H3.75ZM3.75 22V14H2.25V22H3.75ZM3.75 14V3H2.25V14H3.75ZM3.75 3V2H2.25V3H3.75ZM15 2.25H3V3.75H15V2.25ZM15 14.75C16.5188 14.75 17.75 13.5188 17.75 12H16.25C16.25 12.6904 15.6904 13.25 15 13.25V14.75ZM15 3.75C15.6904 3.75 16.25 4.30964 16.25 5H17.75C17.75 3.48122 16.5188 2.25 15 2.25V3.75ZM19 18.25H9V19.75H19V18.25ZM20.25 9V17H21.75V9H20.25ZM9 18.25C8.30964 18.25 7.75 17.6904 7.75 17H6.25C6.25 18.5188 7.48122 19.75 9 19.75V18.25ZM19 19.75C20.5188 19.75 21.75 18.5188 21.75 17H20.25C20.25 17.6904 19.6904 18.25 19 18.25V19.75ZM19 7.75C19.6904 7.75 20.25 8.30964 20.25 9H21.75C21.75 7.48122 20.5188 6.25 19 6.25V7.75ZM19 6.25H17V7.75H19V6.25ZM16.25 5V7H17.75V5H16.25ZM16.25 7V12H17.75V7H16.25ZM7.75 17V14H6.25V17H7.75ZM15 13.25H7V14.75H15V13.25ZM7 13.25H3V14.75H7V13.25Z" fill="#28303F"/>
</svg>
