<svg width="24" height="24" viewBox="0 0 24 24" fill="none" xmlns="http://www.w3.org/2000/svg">
<path d="M16.4444 1.25C16.0302 1.25 15.6944 1.58579 15.6944 2C15.6944 2.41421 16.0302 2.75 16.4444 2.75V1.25ZM7.55556 2.75C7.96977 2.75 8.30556 2.41421 8.30556 2C8.30556 1.58579 7.96977 1.25 7.55556 1.25V2.75ZM21.25 7.55556C21.25 7.96977 21.5858 8.30556 22 8.30556C22.4142 8.30556 22.75 7.96977 22.75 7.55556H21.25ZM22.75 16.4444C22.75 16.0302 22.4142 15.6944 22 15.6944C21.5858 15.6944 21.25 16.0302 21.25 16.4444H22.75ZM16.4444 21.25C16.0302 21.25 15.6944 21.5858 15.6944 22C15.6944 22.4142 16.0302 22.75 16.4444 22.75V21.25ZM7.55556 22.75C7.96977 22.75 8.30556 22.4142 8.30556 22C8.30556 21.5858 7.96977 21.25 7.55556 21.25V22.75ZM1.25 7.55556C1.25 7.96977 1.58579 8.30556 2 8.30556C2.41421 8.30556 2.75 7.96977 2.75 7.55556H1.25ZM2.75 16.4444C2.75 16.0302 2.41421 15.6944 2 15.6944C1.58579 15.6944 1.25 16.0302 1.25 16.4444H2.75ZM16.4444 2.75H18V1.25H16.4444V2.75ZM6 2.75H7.55556V1.25H6V2.75ZM21.25 6V7.55556H22.75V6H21.25ZM21.25 16.4444V18H22.75V16.4444H21.25ZM18 21.25H16.4444V22.75H18V21.25ZM7.55556 21.25H6V22.75H7.55556V21.25ZM2.75 7.55556V6H1.25V7.55556H2.75ZM2.75 18V16.4444H1.25V18H2.75ZM6 21.25C4.20507 21.25 2.75 19.7949 2.75 18H1.25C1.25 20.6234 3.37665 22.75 6 22.75V21.25ZM21.25 18C21.25 19.7949 19.7949 21.25 18 21.25V22.75C20.6234 22.75 22.75 20.6234 22.75 18H21.25ZM18 2.75C19.7949 2.75 21.25 4.20507 21.25 6H22.75C22.75 3.37665 20.6234 1.25 18 1.25V2.75ZM6 1.25C3.37665 1.25 1.25 3.37665 1.25 6H2.75C2.75 4.20507 4.20507 2.75 6 2.75V1.25ZM16.25 12C16.25 14.3472 14.3472 16.25 12 16.25V17.75C15.1756 17.75 17.75 15.1756 17.75 12H16.25ZM12 16.25C9.65279 16.25 7.75 14.3472 7.75 12H6.25C6.25 15.1756 8.82436 17.75 12 17.75V16.25ZM7.75 12C7.75 9.65279 9.65279 7.75 12 7.75V6.25C8.82436 6.25 6.25 8.82436 6.25 12H7.75ZM12 7.75C14.3472 7.75 16.25 9.65279 16.25 12H17.75C17.75 8.82436 15.1756 6.25 12 6.25V7.75Z" fill="#28303F"/>
</svg>
