<svg width="24" height="24" viewBox="0 0 24 24" fill="none" xmlns="http://www.w3.org/2000/svg">
<path d="M4 20H3.25H4ZM11.25 22C11.25 22.4142 11.5858 22.75 12 22.75C12.4142 22.75 12.75 22.4142 12.75 22H11.25ZM4 6.75H20V5.25H4V6.75ZM21.25 8V9H22.75V8H21.25ZM20 10.25H4V11.75H20V10.25ZM2.75 9V8H1.25V9H2.75ZM4 10.25C3.30964 10.25 2.75 9.69036 2.75 9H1.25C1.25 10.5188 2.48122 11.75 4 11.75V10.25ZM21.25 9C21.25 9.69036 20.6904 10.25 20 10.25V11.75C21.5188 11.75 22.75 10.5188 22.75 9H21.25ZM20 6.75C20.6904 6.75 21.25 7.30964 21.25 8H22.75C22.75 6.48122 21.5188 5.25 20 5.25V6.75ZM4 5.25C2.48122 5.25 1.25 6.48122 1.25 8H2.75C2.75 7.30964 3.30964 6.75 4 6.75V5.25ZM16 5.25H12V6.75H16V5.25ZM17.25 4C17.25 4.69036 16.6904 5.25 16 5.25V6.75C17.5188 6.75 18.75 5.51878 18.75 4H17.25ZM16 2.75C16.6904 2.75 17.25 3.30964 17.25 4H18.75C18.75 2.48122 17.5188 1.25 16 1.25V2.75ZM16 1.25C13.3766 1.25 11.25 3.37665 11.25 6H12.75C12.75 4.20507 14.2051 2.75 16 2.75V1.25ZM8 6.75H12V5.25H8V6.75ZM5.25 4C5.25 5.51878 6.48122 6.75 8 6.75V5.25C7.30964 5.25 6.75 4.69036 6.75 4H5.25ZM8 1.25C6.48122 1.25 5.25 2.48122 5.25 4H6.75C6.75 3.30964 7.30964 2.75 8 2.75V1.25ZM8 2.75C9.79493 2.75 11.25 4.20507 11.25 6H12.75C12.75 3.37665 10.6234 1.25 8 1.25V2.75ZM19.25 11V20H20.75V11H19.25ZM18 21.25H6V22.75H18V21.25ZM4.75 20L4.75 11H3.25L3.25 20H4.75ZM6 21.25C5.30964 21.25 4.75 20.6904 4.75 20H3.25C3.25 21.5188 4.48122 22.75 6 22.75V21.25ZM19.25 20C19.25 20.6904 18.6904 21.25 18 21.25V22.75C19.5188 22.75 20.75 21.5188 20.75 20H19.25ZM11.25 6V22H12.75V6H11.25Z" fill="#28303F"/>
</svg>
