<svg width="24" height="24" viewBox="0 0 24 24" fill="none" xmlns="http://www.w3.org/2000/svg">
<path d="M21.25 12C21.25 17.1086 17.1086 21.25 12 21.25V22.75C17.9371 22.75 22.75 17.9371 22.75 12H21.25ZM12 21.25C6.89137 21.25 2.75 17.1086 2.75 12H1.25C1.25 17.9371 6.06294 22.75 12 22.75V21.25ZM2.75 12C2.75 6.89137 6.89137 2.75 12 2.75V1.25C6.06294 1.25 1.25 6.06294 1.25 12H2.75ZM12 2.75C17.1086 2.75 21.25 6.89137 21.25 12H22.75C22.75 6.06294 17.9371 1.25 12 1.25V2.75ZM15.25 12C15.25 14.6904 14.8124 17.0916 14.1321 18.7925C13.7911 19.6451 13.4038 20.2846 13.0121 20.6988C12.6219 21.1114 12.2796 21.25 12 21.25V22.75C12.825 22.75 13.535 22.3289 14.1019 21.7295C14.6673 21.1316 15.1419 20.3067 15.5248 19.3496C16.2921 17.4312 16.75 14.8324 16.75 12H15.25ZM12 21.25C11.7204 21.25 11.3781 21.1114 10.9879 20.6988C10.5962 20.2846 10.2089 19.6451 9.86793 18.7925C9.18757 17.0916 8.75 14.6904 8.75 12H7.25C7.25 14.8324 7.70786 17.4312 8.47522 19.3496C8.85806 20.3067 9.33269 21.1316 9.8981 21.7295C10.465 22.3289 11.175 22.75 12 22.75V21.25ZM8.75 12C8.75 9.30957 9.18757 6.90837 9.86793 5.20748C10.2089 4.35495 10.5962 3.71536 10.9879 3.30118C11.3781 2.88858 11.7204 2.75 12 2.75V1.25C11.175 1.25 10.465 1.67106 9.8981 2.27052C9.33269 2.86839 8.85806 3.69327 8.47522 4.65039C7.70786 6.56878 7.25 9.16759 7.25 12H8.75ZM12 2.75C12.2796 2.75 12.6219 2.88858 13.0121 3.30118C13.4038 3.71536 13.7911 4.35495 14.1321 5.20748C14.8124 6.90837 15.25 9.30957 15.25 12H16.75C16.75 9.16759 16.2921 6.56878 15.5248 4.65039C15.1419 3.69327 14.6673 2.86839 14.1019 2.27052C13.535 1.67106 12.825 1.25 12 1.25V2.75ZM12 14.25C9.29054 14.25 6.86654 13.9196 5.14444 13.403C4.27862 13.1432 3.63259 12.8488 3.21975 12.556C2.78743 12.2494 2.75 12.0506 2.75 12H1.25C1.25 12.7778 1.77222 13.3683 2.35195 13.7795C2.95117 14.2045 3.7696 14.5565 4.71342 14.8397C6.61061 15.4088 9.18661 15.75 12 15.75V14.25ZM2.75 12C2.75 11.9494 2.78743 11.7506 3.21975 11.444C3.63259 11.1512 4.27862 10.8568 5.14444 10.597C6.86654 10.0804 9.29054 9.75 12 9.75V8.25C9.18661 8.25 6.61061 8.59115 4.71342 9.16031C3.7696 9.44346 2.95117 9.79551 2.35195 10.2205C1.77222 10.6317 1.25 11.2222 1.25 12H2.75ZM12 9.75C14.7095 9.75 17.1335 10.0804 18.8556 10.597C19.7214 10.8568 20.3674 11.1512 20.7803 11.444C21.2126 11.7506 21.25 11.9494 21.25 12H22.75C22.75 11.2222 22.2278 10.6317 21.648 10.2205C21.0488 9.79551 20.2304 9.44346 19.2866 9.16031C17.3894 8.59115 14.8134 8.25 12 8.25V9.75ZM21.25 12C21.25 12.0506 21.2126 12.2494 20.7803 12.556C20.3674 12.8488 19.7214 13.1432 18.8556 13.403C17.1335 13.9196 14.7095 14.25 12 14.25V15.75C14.8134 15.75 17.3894 15.4088 19.2866 14.8397C20.2304 14.5565 21.0488 14.2045 21.648 13.7795C22.2278 13.3683 22.75 12.7778 22.75 12H21.25Z" fill="#28303F"/>
</svg>
