<svg width="24" height="24" viewBox="0 0 24 24" fill="none" xmlns="http://www.w3.org/2000/svg">
<path d="M13.6831 10.0808L14.3138 10.4866L13.6831 10.0808ZM9.25 8.99997C9.25 9.41418 9.58579 9.74997 10 9.74997C10.4142 9.74997 10.75 9.41418 10.75 8.99997H9.25ZM11.25 13.5C11.25 13.9142 11.5858 14.25 12 14.25C12.4142 14.25 12.75 13.9142 12.75 13.5H11.25ZM12.75 16C12.75 15.5858 12.4142 15.25 12 15.25C11.5858 15.25 11.25 15.5858 11.25 16H12.75ZM11.25 17C11.25 17.4142 11.5858 17.75 12 17.75C12.4142 17.75 12.75 17.4142 12.75 17H11.25ZM5.07846 5.43932L5.46063 6.08465L5.07846 5.43932ZM5.07846 18.5607L5.46063 17.9153H5.46063L5.07846 18.5607ZM14.0785 21.4288L13.6963 20.7834L14.0785 21.4288ZM9.92154 21.4288L9.53937 22.0741L9.92154 21.4288ZM18.9215 18.5607L19.3037 19.206L18.9215 18.5607ZM18.9215 5.43932L18.5394 6.08465L18.9215 5.43932ZM14.0785 2.57125L13.6963 3.21658L14.0785 2.57125ZM9.92154 2.57125L9.53937 1.92592L9.92154 2.57125ZM13.25 8.99997C13.25 9.24993 13.1774 9.48065 13.0524 9.67492L14.3138 10.4866C14.5899 10.0575 14.75 9.54631 14.75 8.99997H13.25ZM10.75 8.99997C10.75 8.30961 11.3096 7.74997 12 7.74997V6.24997C10.4812 6.24997 9.25 7.48119 9.25 8.99997H10.75ZM12 7.74997C12.6904 7.74997 13.25 8.30961 13.25 8.99997H14.75C14.75 7.48119 13.5188 6.24997 12 6.24997V7.74997ZM11.25 13V13.5H12.75V13H11.25ZM13.0524 9.67492C12.9265 9.87062 12.7688 10.0731 12.5836 10.3033C12.4063 10.5237 12.1979 10.7763 12.011 11.0332C11.6424 11.5397 11.25 12.2007 11.25 13H12.75C12.75 12.6947 12.9003 12.3605 13.2239 11.9157C13.383 11.697 13.558 11.485 13.7523 11.2436C13.9387 11.0119 14.1409 10.7553 14.3138 10.4866L13.0524 9.67492ZM11.25 16V17H12.75V16H11.25ZM13.6963 3.21658L18.5394 6.08465L19.3037 4.79399L14.4606 1.92592L13.6963 3.21658ZM20.25 9.13192V14.8681H21.75V9.13192H20.25ZM18.5394 17.9153L13.6963 20.7834L14.4606 22.0741L19.3037 19.206L18.5394 17.9153ZM10.3037 20.7834L5.46063 17.9153L4.6963 19.206L9.53937 22.0741L10.3037 20.7834ZM3.75 14.8681V9.13192H2.25V14.8681H3.75ZM5.46063 6.08465L10.3037 3.21658L9.53937 1.92592L4.6963 4.79399L5.46063 6.08465ZM3.75 9.13192C3.75 7.86735 4.40779 6.70814 5.46063 6.08465L4.6963 4.79399C3.17682 5.69383 2.25 7.34985 2.25 9.13192H3.75ZM5.46063 17.9153C4.40779 17.2919 3.75 16.1327 3.75 14.8681H2.25C2.25 16.6502 3.17682 18.3062 4.6963 19.206L5.46063 17.9153ZM13.6963 20.7834C12.6458 21.4055 11.3542 21.4055 10.3037 20.7834L9.53937 22.0741C11.0612 22.9753 12.9388 22.9753 14.4606 22.0741L13.6963 20.7834ZM20.25 14.8681C20.25 16.1327 19.5922 17.2919 18.5394 17.9153L19.3037 19.206C20.8232 18.3062 21.75 16.6502 21.75 14.8681H20.25ZM18.5394 6.08465C19.5922 6.70814 20.25 7.86735 20.25 9.13192H21.75C21.75 7.34985 20.8232 5.69383 19.3037 4.79399L18.5394 6.08465ZM14.4606 1.92592C12.9388 1.02469 11.0612 1.02469 9.53937 1.92592L10.3037 3.21658C11.3542 2.59447 12.6458 2.59447 13.6963 3.21658L14.4606 1.92592Z" fill="#28303F"/>
</svg>
