<svg width="24" height="24" viewBox="0 0 24 24" fill="none" xmlns="http://www.w3.org/2000/svg">
<path d="M19.061 11.8839L18.6228 12.4926L19.061 11.8839ZM14.0479 12.1569L14.5496 12.7143L14.0479 12.1569ZM9.95209 15.8431L10.4538 16.4006L9.95209 15.8431ZM4.93901 16.1161L5.37724 15.5074H5.37724L4.93901 16.1161ZM21.8247 13.8738L22.5616 14.0135L21.8247 13.8738ZM2.23609 14.17L1.5038 14.332L2.23609 14.17ZM10.25 9C10.25 9.69036 9.69036 10.25 9 10.25V11.75C10.5188 11.75 11.75 10.5188 11.75 9H10.25ZM9 10.25C8.30964 10.25 7.75 9.69036 7.75 9H6.25C6.25 10.5188 7.48122 11.75 9 11.75V10.25ZM7.75 9C7.75 8.30964 8.30964 7.75 9 7.75V6.25C7.48122 6.25 6.25 7.48122 6.25 9H7.75ZM9 7.75C9.69036 7.75 10.25 8.30964 10.25 9H11.75C11.75 7.48122 10.5188 6.25 9 6.25V7.75ZM13.5462 11.5994L9.45036 15.2857L10.4538 16.4006L14.5496 12.7143L13.5462 11.5994ZM9.45036 15.2857C8.31386 16.3085 6.61808 16.4008 5.37724 15.5074L4.50078 16.7247C6.31432 18.0305 8.79277 17.8955 10.4538 16.4006L9.45036 15.2857ZM19.4992 11.2753C17.6857 9.96952 15.2072 10.1045 13.5462 11.5994L14.5496 12.7143C15.6861 11.6915 17.3819 11.5992 18.6228 12.4926L19.4992 11.2753ZM2.75 12C2.75 6.89137 6.89137 2.75 12 2.75V1.25C6.06294 1.25 1.25 6.06294 1.25 12H2.75ZM12 2.75C17.1086 2.75 21.25 6.89137 21.25 12H22.75C22.75 6.06294 17.9371 1.25 12 1.25V2.75ZM21.25 12C21.25 12.5933 21.1942 13.173 21.0879 13.7341L22.5616 14.0135C22.6854 13.3607 22.75 12.6876 22.75 12H21.25ZM21.0879 13.7341C20.2766 18.0139 16.5154 21.25 12 21.25V22.75C17.2494 22.75 21.6186 18.9882 22.5616 14.0135L21.0879 13.7341ZM22.263 13.2652L19.4992 11.2753L18.6228 12.4926L21.3865 14.4825L22.263 13.2652ZM12 21.25C7.58158 21.25 3.88512 18.1514 2.96838 14.008L1.5038 14.332C2.56928 19.1477 6.86307 22.75 12 22.75V21.25ZM2.96838 14.008C2.82549 13.3621 2.75 12.6903 2.75 12H1.25C1.25 12.8 1.33752 13.5805 1.5038 14.332L2.96838 14.008ZM5.37724 15.5074L2.67432 13.5613L1.79786 14.7786L4.50078 16.7247L5.37724 15.5074Z" fill="#28303F"/>
</svg>
