<svg width="24" height="24" viewBox="0 0 24 24" fill="none" xmlns="http://www.w3.org/2000/svg">
<path d="M12.75 8C12.75 7.58579 12.4142 7.25 12 7.25C11.5858 7.25 11.25 7.58579 11.25 8H12.75ZM11.25 9C11.25 9.41421 11.5858 9.75 12 9.75C12.4142 9.75 12.75 9.41421 12.75 9H11.25ZM12.75 11.5C12.75 11.0858 12.4142 10.75 12 10.75C11.5858 10.75 11.25 11.0858 11.25 11.5H12.75ZM11.25 16C11.25 16.4142 11.5858 16.75 12 16.75C12.4142 16.75 12.75 16.4142 12.75 16H11.25ZM18 1.25H6V2.75H18V1.25ZM1.25 6V18H2.75V6H1.25ZM6 22.75H18V21.25H6V22.75ZM22.75 18V6H21.25V18H22.75ZM18 22.75C20.6234 22.75 22.75 20.6234 22.75 18H21.25C21.25 19.7949 19.7949 21.25 18 21.25V22.75ZM1.25 18C1.25 20.6234 3.37665 22.75 6 22.75V21.25C4.20507 21.25 2.75 19.7949 2.75 18H1.25ZM6 1.25C3.37665 1.25 1.25 3.37665 1.25 6H2.75C2.75 4.20507 4.20507 2.75 6 2.75V1.25ZM18 2.75C19.7949 2.75 21.25 4.20507 21.25 6H22.75C22.75 3.37665 20.6234 1.25 18 1.25V2.75ZM11.25 8V9H12.75V8H11.25ZM11.25 11.5V16H12.75V11.5H11.25Z" fill="#28303F"/>
</svg>
