<svg width="24" height="24" viewBox="0 0 24 24" fill="none" xmlns="http://www.w3.org/2000/svg">
<path d="M12.0573 13.4235L12.7688 13.1864L12.0573 13.4235ZM14.6699 21.2614L13.9584 21.4986L14.6699 21.2614ZM21.2614 14.6699L21.0243 15.3814L21.2614 14.6699ZM13.4235 12.0573L13.1864 12.7688L13.4235 12.0573ZM16.7193 21.2614L17.4308 21.4986L16.7193 21.2614ZM17.6841 18.3672L16.9725 18.13L17.6841 18.3672ZM18.3672 17.6841L18.13 16.9725L18.3672 17.6841ZM21.2614 16.7193L21.4986 17.4308L21.2614 16.7193ZM15.9425 10.4092C16.0976 10.7933 16.5347 10.9789 16.9188 10.8237C17.3029 10.6686 17.4884 10.2315 17.3333 9.84739L15.9425 10.4092ZM9.84739 17.3333C10.2315 17.4884 10.6686 17.3029 10.8237 16.9188C10.9789 16.5347 10.7933 16.0976 10.4092 15.9425L9.84739 17.3333ZM11.9094 22.7496C12.3236 22.7531 12.6621 22.4201 12.6655 22.0059C12.669 21.5917 12.336 21.2531 11.9218 21.2497L11.9094 22.7496ZM21.2497 11.9218C21.2531 12.336 21.5917 12.669 22.0059 12.6655C22.4201 12.6621 22.7531 12.3236 22.7496 11.9094L21.2497 11.9218ZM11.3458 13.6607L13.9584 21.4986L15.3814 21.0243L12.7688 13.1864L11.3458 13.6607ZM21.4986 13.9584L13.6607 11.3458L13.1864 12.7688L21.0243 15.3814L21.4986 13.9584ZM17.4308 21.4986L18.3956 18.6043L16.9725 18.13L16.0078 21.0243L17.4308 21.4986ZM18.6043 18.3956L21.4986 17.4308L21.0243 16.0078L18.13 16.9725L18.6043 18.3956ZM18.3956 18.6043C18.4284 18.5058 18.5058 18.4284 18.6043 18.3956L18.13 16.9725C17.5835 17.1547 17.1547 17.5835 16.9725 18.13L18.3956 18.6043ZM21.0243 15.3814C21.3252 15.4818 21.3252 15.9075 21.0243 16.0078L21.4986 17.4308C23.1671 16.8746 23.1671 14.5146 21.4986 13.9584L21.0243 15.3814ZM13.9584 21.4986C14.5146 23.1671 16.8746 23.1671 17.4308 21.4986L16.0078 21.0243C15.9075 21.3252 15.4818 21.3252 15.3814 21.0243L13.9584 21.4986ZM12.7688 13.1864C12.6828 12.9283 12.9283 12.6828 13.1864 12.7688L13.6607 11.3458C12.23 10.8689 10.8689 12.23 11.3458 13.6607L12.7688 13.1864ZM7.75 12C7.75 9.65279 9.65279 7.75 12 7.75V6.25C8.82436 6.25 6.25 8.82436 6.25 12H7.75ZM12 7.75C13.7835 7.75 15.3122 8.84882 15.9425 10.4092L17.3333 9.84739C16.4818 7.7395 14.4157 6.25 12 6.25V7.75ZM10.4092 15.9425C8.84882 15.3122 7.75 13.7835 7.75 12H6.25C6.25 14.4157 7.7395 16.4818 9.84739 17.3333L10.4092 15.9425ZM2.75 12C2.75 6.89137 6.89137 2.75 12 2.75V1.25C6.06294 1.25 1.25 6.06294 1.25 12H2.75ZM11.9218 21.2497C6.84923 21.2077 2.75 17.0825 2.75 12H1.25C1.25 17.9068 6.01395 22.7009 11.9094 22.7496L11.9218 21.2497ZM12 2.75C17.0825 2.75 21.2077 6.84923 21.2497 11.9218L22.7496 11.9094C22.7009 6.01395 17.9068 1.25 12 1.25V2.75Z" fill="#28303F"/>
</svg>
