<svg width="24" height="24" viewBox="0 0 24 24" fill="none" xmlns="http://www.w3.org/2000/svg">
<path d="M18.3226 21.0361L18.0685 21.7418L18.3226 21.0361ZM16.7608 20.4739L17.0148 19.7682H17.0148L16.7608 20.4739ZM15.2626 20.5318L14.9549 19.8479H14.9549L15.2626 20.5318ZM12.8207 21.6307L12.513 20.9467H12.513L12.8207 21.6307ZM11.1793 21.6307L11.487 20.9467H11.487L11.1793 21.6307ZM8.73737 20.5318L9.04515 19.8479H9.04515L8.73737 20.5318ZM7.2392 20.4739L6.98517 19.7682H6.98516L7.2392 20.4739ZM5.67744 21.0361L5.93148 21.7418H5.93148L5.67744 21.0361ZM8 6.25C7.58579 6.25 7.25 6.58579 7.25 7C7.25 7.41421 7.58579 7.75 8 7.75V6.25ZM12 7.75C12.4142 7.75 12.75 7.41421 12.75 7C12.75 6.58579 12.4142 6.25 12 6.25V7.75ZM8 10.25C7.58579 10.25 7.25 10.5858 7.25 11C7.25 11.4142 7.58579 11.75 8 11.75V10.25ZM16 11.75C16.4142 11.75 16.75 11.4142 16.75 11C16.75 10.5858 16.4142 10.25 16 10.25V11.75ZM8 14.25C7.58579 14.25 7.25 14.5858 7.25 15C7.25 15.4142 7.58579 15.75 8 15.75V14.25ZM16 15.75C16.4142 15.75 16.75 15.4142 16.75 15C16.75 14.5858 16.4142 14.25 16 14.25V15.75ZM5 2.75H19V1.25H5V2.75ZM20.25 4V19.1543H21.75V4H20.25ZM18.5766 20.3305L17.0148 19.7682L16.5068 21.1796L18.0685 21.7418L18.5766 20.3305ZM14.9549 19.8479L12.513 20.9467L13.1285 22.3146L15.5704 21.2158L14.9549 19.8479ZM11.487 20.9467L9.04515 19.8479L8.4296 21.2158L10.8715 22.3146L11.487 20.9467ZM6.98516 19.7682L5.4234 20.3305L5.93148 21.7418L7.49324 21.1796L6.98516 19.7682ZM3.75 19.1543V4H2.25V19.1543H3.75ZM5.4234 20.3305C4.60882 20.6237 3.75 20.0201 3.75 19.1543H2.25C2.25 21.059 4.13941 22.3869 5.93148 21.7418L5.4234 20.3305ZM9.04515 19.8479C8.39479 19.5552 7.65618 19.5267 6.98517 19.7682L7.49324 21.1796C7.79825 21.0697 8.13399 21.0827 8.4296 21.2158L9.04515 19.8479ZM12.513 20.9467C12.1867 21.0935 11.8133 21.0935 11.487 20.9467L10.8715 22.3146C11.5892 22.6376 12.4108 22.6376 13.1285 22.3146L12.513 20.9467ZM17.0148 19.7682C16.3438 19.5267 15.6052 19.5552 14.9549 19.8479L15.5704 21.2158C15.866 21.0827 16.2017 21.0697 16.5068 21.1796L17.0148 19.7682ZM20.25 19.1543C20.25 20.0201 19.3912 20.6237 18.5766 20.3305L18.0685 21.7418C19.8606 22.3869 21.75 21.059 21.75 19.1543H20.25ZM19 2.75C19.6904 2.75 20.25 3.30964 20.25 4H21.75C21.75 2.48122 20.5188 1.25 19 1.25V2.75ZM5 1.25C3.48122 1.25 2.25 2.48122 2.25 4H3.75C3.75 3.30964 4.30964 2.75 5 2.75V1.25ZM8 7.75H12V6.25H8V7.75ZM8 11.75H16V10.25H8V11.75ZM8 15.75H16V14.25H8V15.75Z" fill="#28303F"/>
</svg>
