<svg width="24" height="24" viewBox="0 0 24 24" fill="none" xmlns="http://www.w3.org/2000/svg">
<path d="M3.78885 7.89444L3.45344 8.56526H3.45344L3.78885 7.89444ZM11.1056 11.5528L11.441 10.882L11.1056 11.5528ZM20.2111 7.89444L20.5466 8.56526L20.2111 7.89444ZM20.2111 6.10559L20.5466 5.43477V5.43477L20.2111 6.10559ZM12.8944 2.44723L12.559 3.11805L12.8944 2.44723ZM11.1056 2.44723L10.7702 1.77641V1.77641L11.1056 2.44723ZM3.78886 6.10559L3.45345 5.43477L3.45345 5.43477L3.78886 6.10559ZM12.8123 21.639L12.5077 20.9536L12.8123 21.639ZM21.3046 18.6854C21.6831 18.5171 21.8536 18.0739 21.6854 17.6954C21.5171 17.3169 21.0739 17.1464 20.6954 17.3147L21.3046 18.6854ZM3.3046 17.3147C2.92609 17.1464 2.48287 17.3169 2.31464 17.6954C2.14641 18.0739 2.31688 18.5171 2.6954 18.6854L3.3046 17.3147ZM11.1877 21.639L11.4923 20.9536L11.1877 21.639ZM12.8123 16.639L12.5077 15.9536L12.8123 16.639ZM21.3046 13.6854C21.6831 13.5171 21.8536 13.0739 21.6854 12.6954C21.5171 12.3169 21.0739 12.1464 20.6954 12.3147L21.3046 13.6854ZM3.3046 12.3147C2.92609 12.1464 2.48287 12.3169 2.31464 12.6954C2.14641 13.0739 2.31688 13.5171 2.6954 13.6854L3.3046 12.3147ZM11.1877 16.639L11.4923 15.9536L11.1877 16.639ZM3.45344 8.56526L10.7702 12.2236L11.441 10.882L4.12426 7.22362L3.45344 8.56526ZM13.2298 12.2236L20.5466 8.56526L19.8757 7.22362L12.559 10.882L13.2298 12.2236ZM20.5466 5.43477L13.2298 1.77641L12.559 3.11805L19.8757 6.77641L20.5466 5.43477ZM10.7702 1.77641L3.45345 5.43477L4.12427 6.77641L11.441 3.11805L10.7702 1.77641ZM13.2298 1.77641C12.4556 1.38931 11.5444 1.38931 10.7702 1.77641L11.441 3.11805C11.7929 2.9421 12.2071 2.9421 12.559 3.11805L13.2298 1.77641ZM20.5466 8.56526C21.8364 7.92035 21.8364 6.07969 20.5466 5.43477L19.8757 6.77641C20.06 6.86854 20.06 7.13149 19.8757 7.22362L20.5466 8.56526ZM10.7702 12.2236C11.5444 12.6107 12.4556 12.6107 13.2298 12.2236L12.559 10.882C12.2071 11.0579 11.7929 11.0579 11.441 10.882L10.7702 12.2236ZM4.12426 7.22362C3.94001 7.13149 3.94 6.86854 4.12427 6.77641L3.45345 5.43477C2.16361 6.07968 2.16361 7.92034 3.45344 8.56526L4.12426 7.22362ZM13.1169 22.3244L21.3046 18.6854L20.6954 17.3147L12.5077 20.9536L13.1169 22.3244ZM2.6954 18.6854L10.8831 22.3244L11.4923 20.9536L3.3046 17.3147L2.6954 18.6854ZM12.5077 20.9536C12.1845 21.0973 11.8155 21.0973 11.4923 20.9536L10.8831 22.3244C11.5942 22.6404 12.4058 22.6404 13.1169 22.3244L12.5077 20.9536ZM13.1169 17.3244L21.3046 13.6854L20.6954 12.3147L12.5077 15.9536L13.1169 17.3244ZM2.6954 13.6854L10.8831 17.3244L11.4923 15.9536L3.3046 12.3147L2.6954 13.6854ZM12.5077 15.9536C12.1845 16.0973 11.8155 16.0973 11.4923 15.9536L10.8831 17.3244C11.5942 17.6404 12.4058 17.6404 13.1169 17.3244L12.5077 15.9536Z" fill="#28303F"/>
</svg>
