<svg width="24" height="24" viewBox="0 0 24 24" fill="none" xmlns="http://www.w3.org/2000/svg">
<path d="M13.8738 9.06551C13.5809 9.35841 13.5809 9.83328 13.8738 10.1262C14.1667 10.4191 14.6416 10.4191 14.9345 10.1262L13.8738 9.06551ZM19.3303 5.73033C19.6232 5.43744 19.6232 4.96256 19.3303 4.66967C19.0374 4.37678 18.5626 4.37678 18.2697 4.66967L19.3303 5.73033ZM4.66967 18.2697C4.37678 18.5626 4.37678 19.0374 4.66967 19.3303C4.96256 19.6232 5.43744 19.6232 5.73033 19.3303L4.66967 18.2697ZM10.1262 14.9345C10.4191 14.6416 10.4191 14.1667 10.1262 13.8738C9.83327 13.5809 9.3584 13.5809 9.0655 13.8738L10.1262 14.9345ZM14.9345 13.8738C14.6416 13.5809 14.1667 13.5809 13.8738 13.8738C13.5809 14.1667 13.5809 14.6416 13.8738 14.9345L14.9345 13.8738ZM18.2697 19.3303C18.5626 19.6232 19.0374 19.6232 19.3303 19.3303C19.6232 19.0374 19.6232 18.5626 19.3303 18.2697L18.2697 19.3303ZM5.73033 4.66967C5.43744 4.37678 4.96256 4.37678 4.66967 4.66967C4.37678 4.96256 4.37678 5.43744 4.66967 5.73033L5.73033 4.66967ZM9.0655 10.1262C9.3584 10.4191 9.83327 10.4191 10.1262 10.1262C10.4191 9.83327 10.4191 9.3584 10.1262 9.0655L9.0655 10.1262ZM8.6 4.25H15.4V2.75H8.6V4.25ZM19.75 8.6V15.4H21.25V8.6H19.75ZM15.4 19.75H8.6V21.25H15.4V19.75ZM4.25 15.4V8.6H2.75V15.4H4.25ZM8.6 19.75C6.19756 19.75 4.25 17.8024 4.25 15.4H2.75C2.75 18.6309 5.36914 21.25 8.6 21.25V19.75ZM19.75 15.4C19.75 17.8024 17.8024 19.75 15.4 19.75V21.25C18.6309 21.25 21.25 18.6309 21.25 15.4H19.75ZM15.4 4.25C17.8024 4.25 19.75 6.19756 19.75 8.6H21.25C21.25 5.36914 18.6309 2.75 15.4 2.75V4.25ZM8.6 2.75C5.36913 2.75 2.75 5.36913 2.75 8.6H4.25C4.25 6.19756 6.19756 4.25 8.6 4.25V2.75ZM14.65 12C14.65 13.4636 13.4636 14.65 12 14.65V16.15C14.292 16.15 16.15 14.292 16.15 12H14.65ZM12 14.65C10.5364 14.65 9.35 13.4636 9.35 12H7.85C7.85 14.292 9.70802 16.15 12 16.15V14.65ZM9.35 12C9.35 10.5364 10.5364 9.35 12 9.35V7.85C9.70802 7.85 7.85 9.70802 7.85 12H9.35ZM12 9.35C13.4636 9.35 14.65 10.5364 14.65 12H16.15C16.15 9.70802 14.292 7.85 12 7.85V9.35ZM14.9345 10.1262L19.3303 5.73033L18.2697 4.66967L13.8738 9.06551L14.9345 10.1262ZM5.73033 19.3303L10.1262 14.9345L9.0655 13.8738L4.66967 18.2697L5.73033 19.3303ZM13.8738 14.9345L18.2697 19.3303L19.3303 18.2697L14.9345 13.8738L13.8738 14.9345ZM4.66967 5.73033L9.0655 10.1262L10.1262 9.0655L5.73033 4.66967L4.66967 5.73033Z" fill="#28303F"/>
</svg>
