<svg width="24" height="24" viewBox="0 0 24 24" fill="none" xmlns="http://www.w3.org/2000/svg">
<path d="M19.7575 17.9701L20.4851 18.152L19.7575 17.9701ZM21.3787 11.4851L20.6511 11.3032L21.3787 11.4851ZM14 9L13.376 8.58397C13.2225 8.81412 13.2082 9.11003 13.3387 9.35389C13.4693 9.59776 13.7234 9.75 14 9.75V9ZM15.4088 6.88675L16.0329 7.30277L15.4088 6.88675ZM12 3V2.25C11.7309 2.25 11.4823 2.39421 11.3488 2.6279L12 3ZM8.13176 9.76943L8.78294 10.1415L8.78294 10.1415L8.13176 9.76943ZM8.4453 19.2969L8.02927 19.9209L8.02927 19.9209L8.4453 19.2969ZM9.9923 20.3282L10.4083 19.7042V19.7042L9.9923 20.3282ZM4 8.75H6V7.25H4V8.75ZM7.25 10V19H8.75V10H7.25ZM6 20.25H4V21.75H6V20.25ZM2.75 19V10H1.25V19H2.75ZM4 20.25C3.30964 20.25 2.75 19.6904 2.75 19H1.25C1.25 20.5188 2.48122 21.75 4 21.75V20.25ZM7.25 19C7.25 19.6904 6.69036 20.25 6 20.25V21.75C7.51878 21.75 8.75 20.5188 8.75 19H7.25ZM6 8.75C6.69036 8.75 7.25 9.30964 7.25 10H8.75C8.75 8.48122 7.51878 7.25 6 7.25V8.75ZM4 7.25C2.48122 7.25 1.25 8.48122 1.25 10H2.75C2.75 9.30964 3.30964 8.75 4 8.75V7.25ZM12.2111 21.75H15.8769V20.25H12.2111V21.75ZM20.4851 18.152L22.1063 11.667L20.6511 11.3032L19.0299 17.7882L20.4851 18.152ZM19.4384 8.25H14V9.75H19.4384V8.25ZM14.624 9.41603L16.0329 7.30277L14.7848 6.47072L13.376 8.58397L14.624 9.41603ZM13.3287 2.25H12V3.75H13.3287V2.25ZM11.3488 2.6279L7.48057 9.39732L8.78294 10.1415L12.6512 3.3721L11.3488 2.6279ZM7.25 10.2656V18.4648H8.75V10.2656H7.25ZM8.02927 19.9209L9.57628 20.9522L10.4083 19.7042L8.86133 18.6728L8.02927 19.9209ZM7.25 18.4648C7.25 19.0499 7.54243 19.5963 8.02927 19.9209L8.86133 18.6728C8.79177 18.6265 8.75 18.5484 8.75 18.4648H7.25ZM22.1063 11.667C22.5403 9.93132 21.2275 8.25 19.4384 8.25V9.75C20.2517 9.75 20.8484 10.5142 20.6511 11.3032L22.1063 11.667ZM15.8769 21.75C18.0565 21.75 19.9564 20.2666 20.4851 18.152L19.0299 17.7882C18.6682 19.235 17.3682 20.25 15.8769 20.25V21.75ZM12.2111 20.25C11.5695 20.25 10.9422 20.0601 10.4083 19.7042L9.57628 20.9522C10.3565 21.4724 11.2733 21.75 12.2111 21.75V20.25ZM16.0329 7.30277C17.4727 5.14297 15.9245 2.25 13.3287 2.25V3.75C14.7264 3.75 15.5601 5.30775 14.7848 6.47072L16.0329 7.30277ZM7.48058 9.39732C7.32948 9.66174 7.25 9.96102 7.25 10.2656H8.75C8.75 10.2221 8.76135 10.1793 8.78294 10.1415L7.48058 9.39732Z" fill="#28303F"/>
</svg>
