<svg width="24" height="24" viewBox="0 0 24 24" fill="none" xmlns="http://www.w3.org/2000/svg">
<path d="M10 5.25C9.58579 5.25 9.25 5.58579 9.25 6C9.25 6.41421 9.58579 6.75 10 6.75V5.25ZM16 6.75C16.4142 6.75 16.75 6.41421 16.75 6C16.75 5.58579 16.4142 5.25 16 5.25V6.75ZM10 13.25C9.58579 13.25 9.25 13.5858 9.25 14C9.25 14.4142 9.58579 14.75 10 14.75V13.25ZM16 14.75C16.4142 14.75 16.75 14.4142 16.75 14C16.75 13.5858 16.4142 13.25 16 13.25V14.75ZM10 9.25C9.58579 9.25 9.25 9.58579 9.25 10C9.25 10.4142 9.58579 10.75 10 10.75V9.25ZM22 10.75C22.4142 10.75 22.75 10.4142 22.75 10C22.75 9.58579 22.4142 9.25 22 9.25V10.75ZM10 17.25C9.58579 17.25 9.25 17.5858 9.25 18C9.25 18.4142 9.58579 18.75 10 18.75V17.25ZM22 18.75C22.4142 18.75 22.75 18.4142 22.75 18C22.75 17.5858 22.4142 17.25 22 17.25V18.75ZM3 6.75H5V5.25H3V6.75ZM5.25 7V9H6.75V7H5.25ZM5 9.25H3V10.75H5V9.25ZM2.75 9V7H1.25V9H2.75ZM3 9.25C2.86193 9.25 2.75 9.13807 2.75 9H1.25C1.25 9.9665 2.0335 10.75 3 10.75V9.25ZM5.25 9C5.25 9.13807 5.13807 9.25 5 9.25V10.75C5.9665 10.75 6.75 9.9665 6.75 9H5.25ZM5 6.75C5.13807 6.75 5.25 6.86193 5.25 7H6.75C6.75 6.0335 5.9665 5.25 5 5.25V6.75ZM3 5.25C2.0335 5.25 1.25 6.0335 1.25 7H2.75C2.75 6.86193 2.86193 6.75 3 6.75V5.25ZM3 14.75H5V13.25H3V14.75ZM5.25 15V17H6.75V15H5.25ZM5 17.25H3V18.75H5V17.25ZM2.75 17V15H1.25V17H2.75ZM3 17.25C2.86193 17.25 2.75 17.1381 2.75 17H1.25C1.25 17.9665 2.0335 18.75 3 18.75V17.25ZM5.25 17C5.25 17.1381 5.13807 17.25 5 17.25V18.75C5.9665 18.75 6.75 17.9665 6.75 17H5.25ZM5 14.75C5.13807 14.75 5.25 14.8619 5.25 15H6.75C6.75 14.0335 5.9665 13.25 5 13.25V14.75ZM3 13.25C2.0335 13.25 1.25 14.0335 1.25 15H2.75C2.75 14.8619 2.86193 14.75 3 14.75V13.25ZM10 6.75H16V5.25H10V6.75ZM10 14.75H16V13.25H10V14.75ZM10 10.75H22V9.25H10V10.75ZM10 18.75H22V17.25H10V18.75Z" fill="#28303F"/>
</svg>
