<svg width="24" height="24" viewBox="0 0 24 24" fill="none" xmlns="http://www.w3.org/2000/svg">
<path d="M11.25 5C11.25 5.41421 11.5858 5.75 12 5.75C12.4142 5.75 12.75 5.41421 12.75 5H11.25ZM12.75 2C12.75 1.58579 12.4142 1.25 12 1.25C11.5858 1.25 11.25 1.58579 11.25 2H12.75ZM11.25 22C11.25 22.4142 11.5858 22.75 12 22.75C12.4142 22.75 12.75 22.4142 12.75 22H11.25ZM12.75 19C12.75 18.5858 12.4142 18.25 12 18.25C11.5858 18.25 11.25 18.5858 11.25 19H12.75ZM6.51995 7.58057C6.81284 7.87347 7.28771 7.87347 7.58061 7.58057C7.8735 7.28768 7.8735 6.81281 7.58061 6.51991L6.51995 7.58057ZM5.45929 4.39859C5.16639 4.1057 4.69152 4.1057 4.39862 4.39859C4.10573 4.69149 4.10573 5.16636 4.39862 5.45925L5.45929 4.39859ZM18.5408 19.6014C18.8337 19.8943 19.3085 19.8943 19.6014 19.6014C19.8943 19.3085 19.8943 18.8336 19.6014 18.5407L18.5408 19.6014ZM17.4801 16.4194C17.1872 16.1265 16.7123 16.1265 16.4194 16.4194C16.1265 16.7123 16.1265 17.1872 16.4194 17.4801L17.4801 16.4194ZM19 11.25C18.5858 11.25 18.25 11.5858 18.25 12C18.25 12.4142 18.5858 12.75 19 12.75V11.25ZM22 12.75C22.4142 12.75 22.75 12.4142 22.75 12C22.75 11.5858 22.4142 11.25 22 11.25V12.75ZM2 11.25C1.58579 11.25 1.25 11.5858 1.25 12C1.25 12.4142 1.58579 12.75 2 12.75V11.25ZM5 12.75C5.41421 12.75 5.75 12.4142 5.75 12C5.75 11.5858 5.41421 11.25 5 11.25V12.75ZM16.4194 6.51991C16.1265 6.81281 16.1265 7.28768 16.4194 7.58057C16.7123 7.87347 17.1872 7.87347 17.4801 7.58057L16.4194 6.51991ZM19.6014 5.45925C19.8943 5.16636 19.8943 4.69149 19.6014 4.39859C19.3085 4.1057 18.8336 4.1057 18.5407 4.39859L19.6014 5.45925ZM4.39858 18.5407C4.10569 18.8336 4.10569 19.3085 4.39858 19.6014C4.69147 19.8943 5.16635 19.8943 5.45924 19.6014L4.39858 18.5407ZM7.58056 17.4801C7.87346 17.1872 7.87346 16.7123 7.58056 16.4194C7.28767 16.1265 6.8128 16.1265 6.5199 16.4194L7.58056 17.4801ZM12.75 5V2H11.25V5H12.75ZM12.75 22V19H11.25V22H12.75ZM7.58061 6.51991L5.45929 4.39859L4.39862 5.45925L6.51995 7.58057L7.58061 6.51991ZM19.6014 18.5407L17.4801 16.4194L16.4194 17.4801L18.5408 19.6014L19.6014 18.5407ZM19 12.75H22V11.25H19V12.75ZM2 12.75H5V11.25H2V12.75ZM17.4801 7.58057L19.6014 5.45925L18.5407 4.39859L16.4194 6.51991L17.4801 7.58057ZM5.45924 19.6014L7.58056 17.4801L6.5199 16.4194L4.39858 18.5407L5.45924 19.6014Z" fill="#28303F"/>
</svg>
