<svg width="24" height="24" viewBox="0 0 24 24" fill="none" xmlns="http://www.w3.org/2000/svg">
<path d="M13.2498 4C13.2498 4.69036 12.6901 5.25 11.9998 5.25V6.75C13.5186 6.75 14.7498 5.51878 14.7498 4H13.2498ZM11.9998 5.25C11.3094 5.25 10.7498 4.69036 10.7498 4H9.24978C9.24978 5.51878 10.481 6.75 11.9998 6.75V5.25ZM10.7498 4C10.7498 3.30964 11.3094 2.75 11.9998 2.75V1.25C10.481 1.25 9.24978 2.48122 9.24978 4H10.7498ZM11.9998 2.75C12.6901 2.75 13.2498 3.30964 13.2498 4H14.7498C14.7498 2.48122 13.5186 1.25 11.9998 1.25V2.75ZM13.2498 20C13.2498 20.6904 12.6901 21.25 11.9998 21.25V22.75C13.5186 22.75 14.7498 21.5188 14.7498 20H13.2498ZM11.9998 21.25C11.3094 21.25 10.7498 20.6904 10.7498 20H9.24978C9.24978 21.5188 10.481 22.75 11.9998 22.75V21.25ZM10.7498 20C10.7498 19.3096 11.3094 18.75 11.9998 18.75V17.25C10.481 17.25 9.24978 18.4812 9.24978 20H10.7498ZM11.9998 18.75C12.6901 18.75 13.2498 19.3096 13.2498 20H14.7498C14.7498 18.4812 13.5186 17.25 11.9998 17.25V18.75ZM19.553 9.08253C18.9551 9.4277 18.1907 9.22286 17.8455 8.625L16.5464 9.375C17.3058 10.6903 18.9877 11.141 20.303 10.3816L19.553 9.08253ZM17.8455 8.625C17.5003 8.02713 17.7051 7.26264 18.303 6.91746L17.553 5.61843C16.2377 6.37782 15.787 8.05969 16.5464 9.375L17.8455 8.625ZM18.303 6.91746C18.9009 6.57229 19.6654 6.77713 20.0105 7.375L21.3096 6.625C20.5502 5.30969 18.8683 4.85903 17.553 5.61843L18.303 6.91746ZM20.0105 7.375C20.3557 7.97286 20.1509 8.73735 19.553 9.08253L20.303 10.3816C21.6183 9.62217 22.069 7.9403 21.3096 6.625L20.0105 7.375ZM5.69662 17.0825C5.09876 17.4277 4.33427 17.2229 3.98909 16.625L2.69005 17.375C3.44944 18.6903 5.13132 19.141 6.44662 18.3816L5.69662 17.0825ZM3.98909 16.625C3.64391 16.0271 3.84876 15.2626 4.44662 14.9175L3.69662 13.6184C2.38132 14.3778 1.93066 16.0597 2.69005 17.375L3.98909 16.625ZM4.44662 14.9175C5.04449 14.5723 5.80898 14.7771 6.15416 15.375L7.45319 14.625C6.6938 13.3097 5.01193 12.859 3.69662 13.6184L4.44662 14.9175ZM6.15416 15.375C6.49933 15.9729 6.29449 16.7373 5.69662 17.0825L6.44662 18.3816C7.76193 17.6222 8.21258 15.9403 7.45319 14.625L6.15416 15.375ZM18.303 17.0825C17.7051 16.7373 17.5003 15.9729 17.8455 15.375L16.5464 14.625C15.787 15.9403 16.2377 17.6222 17.553 18.3816L18.303 17.0825ZM17.8455 15.375C18.1907 14.7771 18.9551 14.5723 19.553 14.9175L20.303 13.6184C18.9877 12.859 17.3058 13.3097 16.5464 14.625L17.8455 15.375ZM19.553 14.9175C20.1509 15.2626 20.3557 16.0271 20.0105 16.625L21.3096 17.375C22.069 16.0597 21.6183 14.3778 20.303 13.6184L19.553 14.9175ZM20.0105 16.625C19.6654 17.2229 18.9009 17.4277 18.303 17.0825L17.553 18.3816C18.8683 19.141 20.5502 18.6903 21.3096 17.375L20.0105 16.625ZM4.44662 9.08256C3.84876 8.73738 3.64391 7.97289 3.98909 7.37503L2.69005 6.62503C1.93066 7.94033 2.38132 9.6222 3.69662 10.3816L4.44662 9.08256ZM3.98909 7.37503C4.33427 6.77716 5.09876 6.57232 5.69662 6.91749L6.44662 5.61846C5.13132 4.85906 3.44945 5.30972 2.69005 6.62503L3.98909 7.37503ZM5.69662 6.91749C6.29449 7.26267 6.49933 8.02716 6.15416 8.62503L7.45319 9.37503C8.21258 8.05972 7.76193 6.37785 6.44662 5.61846L5.69662 6.91749ZM6.15416 8.62503C5.80898 9.22289 5.04449 9.42774 4.44662 9.08256L3.69662 10.3816C5.01193 11.141 6.6938 10.6903 7.45319 9.37503L6.15416 8.62503Z" fill="#28303F"/>
</svg>
