<svg width="24" height="24" viewBox="0 0 24 24" fill="none" xmlns="http://www.w3.org/2000/svg">
<path d="M3.98731 17.2308L4.67961 17.5192L3.98731 17.2308ZM3.15397 19.2308L3.84628 19.5192L3.15397 19.2308ZM20.8463 19.2308L20.154 19.5192L20.8463 19.2308ZM20.0129 17.2308L20.7053 16.9423V16.9423L20.0129 17.2308ZM16.0001 15.25C15.5859 15.25 15.2501 15.5858 15.2501 16C15.2501 16.4142 15.5859 16.75 16.0001 16.75V15.25ZM8.00013 16.75C8.41434 16.75 8.75013 16.4142 8.75013 16C8.75013 15.5858 8.41434 15.25 8.00013 15.25V16.75ZM18.2501 9.11111C18.2501 10.8311 17.2713 12.8886 15.9049 14.5523C15.2309 15.373 14.49 16.0632 13.7814 16.5419C13.0567 17.0316 12.4406 17.25 12.0001 17.25V18.75C12.8722 18.75 13.7873 18.3483 14.6212 17.7849C15.4712 17.2106 16.3162 16.4149 17.0641 15.5043C18.5415 13.7054 19.7501 11.3185 19.7501 9.11111H18.2501ZM12.0001 17.25C11.5597 17.25 10.9435 17.0316 10.2188 16.5419C9.51023 16.0632 8.76935 15.373 8.09534 14.5523C6.72898 12.8886 5.75013 10.8311 5.75013 9.11111H4.25013C4.25013 11.3185 5.45877 13.7054 6.93616 15.5043C7.68403 16.4149 8.52908 17.2106 9.37908 17.7849C10.213 18.3483 11.1281 18.75 12.0001 18.75V17.25ZM5.75013 9.11111C5.75013 5.58679 8.55944 2.75 12.0001 2.75V1.25C7.70883 1.25 4.25013 4.78072 4.25013 9.11111H5.75013ZM12.0001 2.75C15.4408 2.75 18.2501 5.58679 18.2501 9.11111H19.7501C19.7501 4.78072 16.2914 1.25 12.0001 1.25V2.75ZM13.7501 9C13.7501 9.9665 12.9666 10.75 12.0001 10.75V12.25C13.7951 12.25 15.2501 10.7949 15.2501 9H13.7501ZM12.0001 10.75C11.0336 10.75 10.2501 9.9665 10.2501 9H8.75013C8.75013 10.7949 10.2052 12.25 12.0001 12.25V10.75ZM10.2501 9C10.2501 8.0335 11.0336 7.25 12.0001 7.25V5.75C10.2052 5.75 8.75013 7.20507 8.75013 9H10.2501ZM12.0001 7.25C12.9666 7.25 13.7501 8.0335 13.7501 9H15.2501C15.2501 7.20507 13.7951 5.75 12.0001 5.75V7.25ZM3.295 16.9423L2.46166 18.9423L3.84628 19.5192L4.67961 17.5192L3.295 16.9423ZM5.00013 22.75H19.0001V21.25H5.00013V22.75ZM21.5386 18.9423L20.7053 16.9423L19.3206 17.5192L20.154 19.5192L21.5386 18.9423ZM18.1668 15.25H16.0001V16.75H18.1668V15.25ZM5.83346 16.75H8.00013V15.25H5.83346V16.75ZM20.7053 16.9423C20.2783 15.9175 19.277 15.25 18.1668 15.25V16.75C18.6714 16.75 19.1266 17.0534 19.3206 17.5192L20.7053 16.9423ZM19.0001 22.75C20.9625 22.75 22.2933 20.7537 21.5386 18.9423L20.154 19.5192C20.497 20.3426 19.8921 21.25 19.0001 21.25V22.75ZM2.46166 18.9423C1.70692 20.7537 3.03779 22.75 5.00013 22.75V21.25C4.10815 21.25 3.50321 20.3426 3.84628 19.5192L2.46166 18.9423ZM4.67961 17.5192C4.8737 17.0534 5.32883 16.75 5.83346 16.75V15.25C4.72328 15.25 3.72199 15.9175 3.295 16.9423L4.67961 17.5192Z" fill="#28303F"/>
</svg>
