<svg width="24" height="24" viewBox="0 0 24 24" fill="none" xmlns="http://www.w3.org/2000/svg">
<path d="M20.25 10.8889C20.25 13.0928 18.9651 15.7033 17.1927 17.8014C16.3165 18.8387 15.3496 19.7157 14.4183 20.3274C13.4717 20.9492 12.6339 21.25 12 21.25V22.75C13.0536 22.75 14.1845 22.2756 15.2418 21.5811C16.3145 20.8766 17.3867 19.8962 18.3386 18.7694C20.2224 16.5393 21.75 13.5941 21.75 10.8889H20.25ZM12 21.25C11.3661 21.25 10.5283 20.9492 9.58168 20.3274C8.65039 19.7157 7.68353 18.8387 6.80731 17.8014C5.03493 15.7033 3.75 13.0928 3.75 10.8889H2.25C2.25 13.5941 3.77757 16.5393 5.66144 18.7694C6.61334 19.8962 7.68554 20.8766 8.75817 21.5811C9.81548 22.2756 10.9464 22.75 12 22.75V21.25ZM3.75 10.8889C3.75 6.40266 7.43484 2.75 12 2.75V1.25C6.62403 1.25 2.25 5.55672 2.25 10.8889H3.75ZM12 2.75C16.5652 2.75 20.25 6.40266 20.25 10.8889H21.75C21.75 5.55672 17.376 1.25 12 1.25V2.75ZM14.25 11C14.25 12.2426 13.2426 13.25 12 13.25V14.75C14.0711 14.75 15.75 13.0711 15.75 11H14.25ZM12 13.25C10.7574 13.25 9.75 12.2426 9.75 11H8.25C8.25 13.0711 9.92893 14.75 12 14.75V13.25ZM9.75 11C9.75 9.75736 10.7574 8.75 12 8.75V7.25C9.92893 7.25 8.25 8.92893 8.25 11H9.75ZM12 8.75C13.2426 8.75 14.25 9.75736 14.25 11H15.75C15.75 8.92893 14.0711 7.25 12 7.25V8.75Z" fill="#28303F"/>
</svg>
