<svg width="24" height="24" viewBox="0 0 24 24" fill="none" xmlns="http://www.w3.org/2000/svg">
<path d="M17.4697 13.4697C17.1768 13.7626 17.1768 14.2374 17.4697 14.5303C17.7626 14.8232 18.2374 14.8232 18.5303 14.5303L17.4697 13.4697ZM18.5303 9.46967C18.2374 9.17678 17.7626 9.17678 17.4697 9.46967C17.1768 9.76256 17.1768 10.2374 17.4697 10.5303L18.5303 9.46967ZM18.5303 14.5303L19.8232 13.2374L18.7626 12.1768L17.4697 13.4697L18.5303 14.5303ZM19.8232 10.7626L18.5303 9.46967L17.4697 10.5303L18.7626 11.8232L19.8232 10.7626ZM19.8232 13.2374C20.5066 12.554 20.5066 11.446 19.8232 10.7626L18.7626 11.8232C18.8602 11.9209 18.8602 12.0791 18.7626 12.1768L19.8232 13.2374Z" fill="#28303F"/>
<path d="M19 12.75C19.4142 12.75 19.75 12.4142 19.75 12C19.75 11.5858 19.4142 11.25 19 11.25V12.75ZM13 11.25C12.5858 11.25 12.25 11.5858 12.25 12C12.25 12.4142 12.5858 12.75 13 12.75V11.25ZM3.25 17.2663C3.25 17.6805 3.58579 18.0163 4 18.0163C4.41421 18.0163 4.75 17.6805 4.75 17.2663H3.25ZM16.75 17.2663C16.75 16.8521 16.4142 16.5163 16 16.5163C15.5858 16.5163 15.25 16.8521 15.25 17.2663H16.75ZM15.25 7.26633C15.25 7.68054 15.5858 8.01633 16 8.01633C16.4142 8.01633 16.75 7.68054 16.75 7.26633H15.25ZM4.75 7.26633C4.75 6.85212 4.41421 6.51633 4 6.51633C3.58579 6.51633 3.25 6.85212 3.25 7.26633H4.75ZM4.8906 19.8601L5.30662 19.236L4.8906 19.8601ZM6.8906 21.1934L6.47458 21.8174L6.8906 21.1934ZM6.8906 3.33926L6.47458 2.71522L6.8906 3.33926ZM4.8906 4.6726L4.47457 4.04856L4.8906 4.6726ZM10 4.51633C9.58579 4.51633 9.25 4.85212 9.25 5.26633C9.25 5.68054 9.58579 6.01633 10 6.01633V4.51633ZM10 18.5163C9.58579 18.5163 9.25 18.8521 9.25 19.2663C9.25 19.6805 9.58579 20.0163 10 20.0163V18.5163ZM19 11.25L13 11.25V12.75L19 12.75V11.25ZM4.75 17.2663V7.26633H3.25V17.2663H4.75ZM15.25 17.2663C15.25 17.9567 14.6904 18.5163 14 18.5163V20.0163C15.5188 20.0163 16.75 18.7851 16.75 17.2663H15.25ZM14 6.01633C14.6904 6.01633 15.25 6.57597 15.25 7.26633H16.75C16.75 5.74755 15.5188 4.51633 14 4.51633V6.01633ZM5.30662 5.29663L7.30663 3.9633L6.47458 2.71522L4.47457 4.04856L5.30662 5.29663ZM9.25 5.00336V19.5293H10.75V5.00336H9.25ZM7.30663 20.5694L5.30662 19.236L4.47457 20.4841L6.47458 21.8174L7.30663 20.5694ZM4.75 18.196V6.3367H3.25V18.196H4.75ZM5.30662 19.236C4.95888 19.0042 4.75 18.6139 4.75 18.196H3.25C3.25 19.1154 3.70953 19.9741 4.47457 20.4841L5.30662 19.236ZM9.25 19.5293C9.25 20.5277 8.13732 21.1232 7.30663 20.5694L6.47458 21.8174C8.3021 23.0358 10.75 21.7257 10.75 19.5293H9.25ZM7.30663 3.9633C8.13732 3.4095 9.25 4.00499 9.25 5.00336H10.75C10.75 2.80695 8.3021 1.49687 6.47458 2.71522L7.30663 3.9633ZM4.47457 4.04856C3.70953 4.55859 3.25 5.41723 3.25 6.3367H4.75C4.75 5.91876 4.95888 5.52847 5.30662 5.29663L4.47457 4.04856ZM10 6.01633H14V4.51633H10V6.01633ZM14 18.5163H10V20.0163H14V18.5163Z" fill="#28303F"/>
</svg>
