<svg width="24" height="24" viewBox="0 0 24 24" fill="none" xmlns="http://www.w3.org/2000/svg">
<path d="M19.4697 13.4697C19.1768 13.7626 19.1768 14.2374 19.4697 14.5303C19.7626 14.8232 20.2374 14.8232 20.5303 14.5303L19.4697 13.4697ZM20.5303 9.46967C20.2374 9.17678 19.7626 9.17678 19.4697 9.46967C19.1768 9.76256 19.1768 10.2374 19.4697 10.5303L20.5303 9.46967ZM20.5303 14.5303L21.8232 13.2374L20.7626 12.1768L19.4697 13.4697L20.5303 14.5303ZM21.8232 10.7626L20.5303 9.46967L19.4697 10.5303L20.7626 11.8232L21.8232 10.7626ZM21.8232 13.2374C22.5066 12.554 22.5066 11.446 21.8232 10.7626L20.7626 11.8232C20.8602 11.9209 20.8602 12.0791 20.7626 12.1768L21.8232 13.2374Z" fill="#28303F"/>
<path d="M21 12.75C21.4142 12.75 21.75 12.4142 21.75 12C21.75 11.5858 21.4142 11.25 21 11.25V12.75ZM13 11.25C12.5858 11.25 12.25 11.5858 12.25 12C12.25 12.4142 12.5858 12.75 13 12.75V11.25ZM18.75 16C18.75 15.5858 18.4142 15.25 18 15.25C17.5858 15.25 17.25 15.5858 17.25 16H18.75ZM17.25 8C17.25 8.41421 17.5858 8.75 18 8.75C18.4142 8.75 18.75 8.41421 18.75 8H17.25ZM21 11.25H13V12.75H21V11.25ZM9.25 8V16H10.75V8H9.25ZM2.75 16V8H1.25V16H2.75ZM6 19.25C4.20507 19.25 2.75 17.7949 2.75 16H1.25C1.25 18.6234 3.37665 20.75 6 20.75V19.25ZM9.25 16C9.25 17.7949 7.79493 19.25 6 19.25V20.75C8.62335 20.75 10.75 18.6234 10.75 16H9.25ZM6 4.75C7.79493 4.75 9.25 6.20507 9.25 8H10.75C10.75 5.37665 8.62335 3.25 6 3.25V4.75ZM6 3.25C3.37665 3.25 1.25 5.37665 1.25 8H2.75C2.75 6.20507 4.20507 4.75 6 4.75V3.25ZM6 4.75H14V3.25H6V4.75ZM14 19.25H6V20.75H14V19.25ZM17.25 16C17.25 17.7949 15.7949 19.25 14 19.25V20.75C16.6234 20.75 18.75 18.6234 18.75 16H17.25ZM14 4.75C15.7949 4.75 17.25 6.20507 17.25 8H18.75C18.75 5.37665 16.6234 3.25 14 3.25V4.75Z" fill="#28303F"/>
</svg>
