<svg width="24" height="24" viewBox="0 0 24 24" fill="none" xmlns="http://www.w3.org/2000/svg">
<path d="M12 5.70252L11.463 6.22613C11.6042 6.37089 11.7978 6.45252 12 6.45252C12.2022 6.45252 12.3958 6.37089 12.537 6.22613L12 5.70252ZM12.6851 4.99999L13.222 5.5236L12.6851 4.99999ZM11.315 5.00001L11.8519 4.4764L11.8519 4.4764L11.315 5.00001ZM3.45393 12.7599L2.89742 13.2627L3.45393 12.7599ZM9.18026 19.0981L8.62374 19.6009L9.18026 19.0981ZM14.8197 19.0981L15.3762 19.6009L14.8197 19.0981ZM20.5461 12.7599L21.1026 13.2627L20.5461 12.7599ZM20.4018 4.99999L19.8648 5.5236L20.4018 4.99999ZM3.5982 5L4.13517 5.52361L3.5982 5ZM17 5.74999C16.5858 5.74999 16.25 6.08577 16.25 6.49999C16.25 6.9142 16.5858 7.24999 17 7.24999V5.74999ZM18.25 8.49999C18.25 8.9142 18.5858 9.24999 19 9.24999C19.4142 9.24999 19.75 8.9142 19.75 8.49999H18.25ZM12.537 6.22613L13.222 5.5236L12.1481 4.47638L11.463 5.17892L12.537 6.22613ZM10.778 5.52362L11.463 6.22613L12.537 5.17892L11.8519 4.4764L10.778 5.52362ZM2.89742 13.2627L8.62374 19.6009L9.73677 18.5954L4.01044 12.2572L2.89742 13.2627ZM15.3762 19.6009L21.1026 13.2627L19.9896 12.2571L14.2632 18.5954L15.3762 19.6009ZM19.8648 5.5236C21.6618 7.36638 21.7178 10.3442 19.9896 12.2571L21.1026 13.2627C23.3607 10.7633 23.2892 6.8868 20.9388 4.47638L19.8648 5.5236ZM20.9388 4.47638C18.5135 1.98924 14.5734 1.98924 12.1481 4.47638L13.222 5.5236C15.0586 3.64017 18.0283 3.64016 19.8648 5.5236L20.9388 4.47638ZM4.13517 5.52361C5.97175 3.64018 8.94141 3.64018 10.778 5.52362L11.8519 4.4764C9.42666 1.98925 5.4865 1.98925 3.06123 4.4764L4.13517 5.52361ZM8.62374 19.6009C10.4428 21.6144 13.5572 21.6144 15.3762 19.6009L14.2632 18.5954C13.0397 19.9496 10.9603 19.9496 9.73677 18.5954L8.62374 19.6009ZM3.06123 4.4764C0.710775 6.88682 0.639347 10.7634 2.89742 13.2627L4.01044 12.2572C2.28222 10.3443 2.33823 7.3664 4.13517 5.52361L3.06123 4.4764ZM17 7.24999C17.6903 7.24999 18.25 7.80963 18.25 8.49999H19.75C19.75 6.9812 18.5188 5.74999 17 5.74999V7.24999Z" fill="#28303F"/>
</svg>
