<svg width="24" height="24" viewBox="0 0 24 24" fill="none" xmlns="http://www.w3.org/2000/svg">
<path d="M15 22.75C15.4142 22.75 15.75 22.4142 15.75 22C15.75 21.5858 15.4142 21.25 15 21.25V22.75ZM9 21.25C8.58579 21.25 8.25 21.5858 8.25 22C8.25 22.4142 8.58579 22.75 9 22.75V21.25ZM3.53033 2.21967C3.23744 1.92678 2.76256 1.92678 2.46967 2.21967C2.17678 2.51256 2.17678 2.98744 2.46967 3.28033L3.53033 2.21967ZM20.4697 21.2803C20.7626 21.5732 21.2374 21.5732 21.5303 21.2803C21.8232 20.9874 21.8232 20.5126 21.5303 20.2197L20.4697 21.2803ZM5.75 11C5.75 10.5858 5.41421 10.25 5 10.25C4.58579 10.25 4.25 10.5858 4.25 11H5.75ZM19.75 11C19.75 10.5858 19.4142 10.25 19 10.25C18.5858 10.25 18.25 10.5858 18.25 11H19.75ZM17.8903 14.0955C17.7514 14.4857 17.9552 14.9146 18.3455 15.0535C18.7357 15.1923 19.1646 14.9885 19.3035 14.5983L17.8903 14.0955ZM15.25 11.75C15.25 12.1642 15.5858 12.5 16 12.5C16.4142 12.5 16.75 12.1642 16.75 11.75H15.25ZM7.76661 3.84385C7.57837 4.21282 7.72488 4.66453 8.09385 4.85277C8.46282 5.04101 8.91453 4.8945 9.10277 4.52553L7.76661 3.84385ZM8.75 8C8.75 7.58579 8.41421 7.25 8 7.25C7.58579 7.25 7.25 7.58579 7.25 8H8.75ZM15.4594 15.255C15.7433 14.9534 15.7289 14.4787 15.4273 14.1948C15.1257 13.9109 14.651 13.9253 14.3671 14.2269L15.4594 15.255ZM17.6926 17.2591C17.9737 16.9549 17.955 16.4804 17.6508 16.1992C17.3467 15.9181 16.8722 15.9368 16.591 16.2409L17.6926 17.2591ZM11.25 19V22H12.75V19H11.25ZM12 22.75H15V21.25H12V22.75ZM12 21.25H9V22.75H12V21.25ZM2.46967 3.28033L20.4697 21.2803L21.5303 20.2197L3.53033 2.21967L2.46967 3.28033ZM4.25 11V12H5.75V11H4.25ZM19.75 12V11H18.25V12H19.75ZM4.25 12C4.25 16.2802 7.71979 19.75 12 19.75V18.25C8.54822 18.25 5.75 15.4518 5.75 12H4.25ZM7.25 12C7.25 14.6234 9.37665 16.75 12 16.75V15.25C10.2051 15.25 8.75 13.7949 8.75 12H7.25ZM12 2.75C13.7949 2.75 15.25 4.20507 15.25 6H16.75C16.75 3.37665 14.6234 1.25 12 1.25V2.75ZM19.3035 14.5983C19.5928 13.7851 19.75 12.9101 19.75 12H18.25C18.25 12.7364 18.123 13.4414 17.8903 14.0955L19.3035 14.5983ZM16.75 11.75V6H15.25V11.75H16.75ZM12 1.25C10.1517 1.25 8.55126 2.30586 7.76661 3.84385L9.10277 4.52553C9.64122 3.47009 10.7372 2.75 12 2.75V1.25ZM7.25 8V12H8.75V8H7.25ZM12 16.75C13.3637 16.75 14.5941 16.1744 15.4594 15.255L14.3671 14.2269C13.7734 14.8577 12.9331 15.25 12 15.25V16.75ZM12 19.75C14.2504 19.75 16.2777 18.7898 17.6926 17.2591L16.591 16.2409C15.4482 17.4774 13.8149 18.25 12 18.25V19.75Z" fill="#28303F"/>
</svg>
