<svg width="24" height="24" viewBox="0 0 24 24" fill="none" xmlns="http://www.w3.org/2000/svg">
<path d="M6 10V10.75V10ZM6 14V14.75V14ZM18 14V13.25V14ZM18 10V9.25V10ZM18 13.25L6 13.25V14.75L18 14.75V13.25ZM6 10.75L18 10.75V9.25L6 9.25V10.75ZM4.75 12C4.75 11.3096 5.30964 10.75 6 10.75V9.25C4.48122 9.25 3.25 10.4812 3.25 12H4.75ZM6 13.25C5.30964 13.25 4.75 12.6904 4.75 12H3.25C3.25 13.5188 4.48122 14.75 6 14.75V13.25ZM19.25 12C19.25 12.6904 18.6904 13.25 18 13.25V14.75C19.5188 14.75 20.75 13.5188 20.75 12H19.25ZM20.75 12C20.75 10.4812 19.5188 9.25 18 9.25V10.75C18.6904 10.75 19.25 11.3096 19.25 12H20.75Z" fill="#28303F"/>
</svg>
