<svg width="24" height="24" viewBox="0 0 24 24" fill="none" xmlns="http://www.w3.org/2000/svg">
<path d="M19 17.75C19.4142 17.75 19.75 17.4142 19.75 17C19.75 16.5858 19.4142 16.25 19 16.25V17.75ZM17 16.25C16.5858 16.25 16.25 16.5858 16.25 17C16.25 17.4142 16.5858 17.75 17 17.75V16.25ZM19 7.75C19.4142 7.75 19.75 7.41421 19.75 7C19.75 6.58579 19.4142 6.25 19 6.25V7.75ZM17 6.25C16.5858 6.25 16.25 6.58579 16.25 7C16.25 7.41421 16.5858 7.75 17 7.75V6.25ZM7 7.75C7.41421 7.75 7.75 7.41421 7.75 7C7.75 6.58579 7.41421 6.25 7 6.25V7.75ZM5 6.25C4.58579 6.25 4.25 6.58579 4.25 7C4.25 7.41421 4.58579 7.75 5 7.75V6.25ZM7 17.75C7.41421 17.75 7.75 17.4142 7.75 17C7.75 16.5858 7.41421 16.25 7 16.25V17.75ZM5 16.25C4.58579 16.25 4.25 16.5858 4.25 17C4.25 17.4142 4.58579 17.75 5 17.75V16.25ZM6 4.75H18V3.25H6V4.75ZM21.25 8V16H22.75V8H21.25ZM18 19.25H6V20.75H18V19.25ZM2.75 16V8H1.25V16H2.75ZM6 19.25C4.20507 19.25 2.75 17.7949 2.75 16H1.25C1.25 18.6234 3.37665 20.75 6 20.75V19.25ZM21.25 16C21.25 17.7949 19.7949 19.25 18 19.25V20.75C20.6234 20.75 22.75 18.6234 22.75 16H21.25ZM18 4.75C19.7949 4.75 21.25 6.20507 21.25 8H22.75C22.75 5.37665 20.6234 3.25 18 3.25V4.75ZM6 3.25C3.37665 3.25 1.25 5.37665 1.25 8H2.75C2.75 6.20507 4.20507 4.75 6 4.75V3.25ZM13.25 12C13.25 12.6904 12.6904 13.25 12 13.25V14.75C13.5188 14.75 14.75 13.5188 14.75 12H13.25ZM12 13.25C11.3096 13.25 10.75 12.6904 10.75 12H9.25C9.25 13.5188 10.4812 14.75 12 14.75V13.25ZM10.75 12C10.75 11.3096 11.3096 10.75 12 10.75V9.25C10.4812 9.25 9.25 10.4812 9.25 12H10.75ZM12 10.75C12.6904 10.75 13.25 11.3096 13.25 12H14.75C14.75 10.4812 13.5188 9.25 12 9.25V10.75ZM19 16.25H17V17.75H19V16.25ZM19 6.25H17V7.75H19V6.25ZM7 6.25H5V7.75H7V6.25ZM7 16.25H5V17.75H7V16.25Z" fill="#28303F"/>
</svg>
