<svg width="24" height="24" viewBox="0 0 24 24" fill="none" xmlns="http://www.w3.org/2000/svg">
<path d="M12 13.25C11.3096 13.25 10.75 12.6904 10.75 12H9.25C9.25 13.5188 10.4812 14.75 12 14.75V13.25ZM10.75 12C10.75 11.3096 11.3096 10.75 12 10.75V9.25C10.4812 9.25 9.25 10.4812 9.25 12H10.75ZM12 10.75C12.6904 10.75 13.25 11.3096 13.25 12H14.75C14.75 10.4812 13.5188 9.25 12 9.25V10.75ZM13.25 12C13.25 12.6904 12.6904 13.25 12 13.25V14.75C13.5188 14.75 14.75 13.5188 14.75 12H13.25ZM20 13.25C19.3096 13.25 18.75 12.6904 18.75 12H17.25C17.25 13.5188 18.4812 14.75 20 14.75V13.25ZM18.75 12C18.75 11.3096 19.3096 10.75 20 10.75V9.25C18.4812 9.25 17.25 10.4812 17.25 12H18.75ZM20 10.75C20.6904 10.75 21.25 11.3096 21.25 12H22.75C22.75 10.4812 21.5188 9.25 20 9.25V10.75ZM21.25 12C21.25 12.6904 20.6904 13.25 20 13.25V14.75C21.5188 14.75 22.75 13.5188 22.75 12H21.25ZM4 13.25C3.30964 13.25 2.75 12.6904 2.75 12H1.25C1.25 13.5188 2.48122 14.75 4 14.75V13.25ZM2.75 12C2.75 11.3096 3.30964 10.75 4 10.75V9.25C2.48122 9.25 1.25 10.4812 1.25 12H2.75ZM4 10.75C4.69036 10.75 5.25 11.3096 5.25 12H6.75C6.75 10.4812 5.51878 9.25 4 9.25V10.75ZM5.25 12C5.25 12.6904 4.69036 13.25 4 13.25V14.75C5.51878 14.75 6.75 13.5188 6.75 12H5.25Z" fill="#28303F"/>
</svg>
