<svg width="24" height="24" viewBox="0 0 24 24" fill="none" xmlns="http://www.w3.org/2000/svg">
<path d="M11.25 5C11.25 5.41421 11.5858 5.75 12 5.75C12.4142 5.75 12.75 5.41421 12.75 5H11.25ZM12.75 2C12.75 1.58579 12.4142 1.25 12 1.25C11.5858 1.25 11.25 1.58579 11.25 2H12.75ZM11.25 10C11.25 10.4142 11.5858 10.75 12 10.75C12.4142 10.75 12.75 10.4142 12.75 10H11.25ZM12.75 8C12.75 7.58579 12.4142 7.25 12 7.25C11.5858 7.25 11.25 7.58579 11.25 8H12.75ZM9 5.75H15V4.25H9V5.75ZM18.25 9V15H19.75V9H18.25ZM5.75 15V9H4.25V15H5.75ZM12 21.25C8.54822 21.25 5.75 18.4518 5.75 15H4.25C4.25 19.2802 7.71979 22.75 12 22.75V21.25ZM18.25 15C18.25 18.4518 15.4518 21.25 12 21.25V22.75C16.2802 22.75 19.75 19.2802 19.75 15H18.25ZM15 5.75C16.7949 5.75 18.25 7.20507 18.25 9H19.75C19.75 6.37665 17.6234 4.25 15 4.25V5.75ZM9 4.25C6.37665 4.25 4.25 6.37665 4.25 9H5.75C5.75 7.20507 7.20507 5.75 9 5.75V4.25ZM12.75 5V2H11.25V5H12.75ZM12.75 10V8H11.25V10H12.75Z" fill="#28303F"/>
</svg>
