<svg width="24" height="24" viewBox="0 0 24 24" fill="none" xmlns="http://www.w3.org/2000/svg">
<path d="M7.99197 6V5.25H7.44539L7.27801 5.77032L7.99197 6ZM18.008 6L18.722 5.77032L18.5546 5.25H18.008V6ZM19.7221 11.3282L19.0081 11.5578L19.0156 11.5814L19.0247 11.6043L19.7221 11.3282ZM6.27795 11.3282L6.97526 11.6043L6.98435 11.5814L6.99191 11.5578L6.27795 11.3282ZM19.2476 15.0968L19.8265 15.5737L19.8432 15.5535L19.8583 15.5322L19.2476 15.0968ZM13.9519 21.526L13.373 21.0492L13.3563 21.0694L13.3411 21.0907L13.9519 21.526ZM6.75238 15.0968L6.14166 15.5322L6.15685 15.5535L6.17348 15.5737L6.75238 15.0968ZM12.0481 21.526L12.6589 21.0907L12.6437 21.0694L12.627 21.0492L12.0481 21.526ZM14.25 12C14.25 12.6904 13.6904 13.25 13 13.25V14.75C14.5188 14.75 15.75 13.5188 15.75 12H14.25ZM13 13.25C12.3096 13.25 11.75 12.6904 11.75 12H10.25C10.25 13.5188 11.4812 14.75 13 14.75V13.25ZM11.75 12C11.75 11.3096 12.3096 10.75 13 10.75V9.25C11.4812 9.25 10.25 10.4812 10.25 12H11.75ZM13 10.75C13.6904 10.75 14.25 11.3096 14.25 12H15.75C15.75 10.4812 14.5188 9.25 13 9.25V10.75ZM8 6.75H18V5.25H8V6.75ZM18 1.25H8V2.75H18V1.25ZM20.75 4C20.75 2.48122 19.5188 1.25 18 1.25V2.75C18.6904 2.75 19.25 3.30964 19.25 4H20.75ZM18 6.75C19.5188 6.75 20.75 5.51878 20.75 4H19.25C19.25 4.69036 18.6904 5.25 18 5.25V6.75ZM5.25 4C5.25 5.51878 6.48122 6.75 8 6.75V5.25C7.30964 5.25 6.75 4.69036 6.75 4H5.25ZM6.75 4C6.75 3.30964 7.30964 2.75 8 2.75V1.25C6.48122 1.25 5.25 2.48122 5.25 4H6.75ZM7.99197 6.75H18.008V5.25H7.99197V6.75ZM17.2941 6.22968L19.0081 11.5578L20.436 11.0985L18.722 5.77032L17.2941 6.22968ZM6.99191 11.5578L8.70594 6.22968L7.27801 5.77032L5.56398 11.0985L6.99191 11.5578ZM18.6687 14.62L13.373 21.0492L14.5308 22.0029L19.8265 15.5737L18.6687 14.62ZM6.17348 15.5737L11.4692 22.0029L12.627 21.0492L7.33128 14.62L6.17348 15.5737ZM13.3411 21.0907C13.2743 21.1844 13.153 21.25 13 21.25C12.847 21.25 12.7257 21.1844 12.6589 21.0907L11.4374 21.9614C12.187 23.0129 13.813 23.0129 14.5626 21.9614L13.3411 21.0907ZM5.58064 11.052C4.98836 12.5476 5.20144 14.2132 6.14166 15.5322L7.3631 14.6615C6.71271 13.7491 6.57374 12.6182 6.97526 11.6043L5.58064 11.052ZM19.0247 11.6043C19.4263 12.6182 19.2873 13.7491 18.6369 14.6615L19.8583 15.5322C20.7986 14.2132 21.0116 12.5476 20.4194 11.052L19.0247 11.6043ZM12.25 14V22H13.75V14H12.25Z" fill="#28303F"/>
</svg>
