<svg width="24" height="24" viewBox="0 0 24 24" fill="none" xmlns="http://www.w3.org/2000/svg">
<path d="M19.9487 5.84605L19.2372 6.08322L19.2372 6.08322L19.9487 5.84605ZM19.2885 6.23717C19.4195 6.63013 19.8442 6.8425 20.2372 6.71151C20.6301 6.58052 20.8425 6.15578 20.7115 5.76283L19.2885 6.23717ZM16.2372 1.28849C15.8442 1.1575 15.4195 1.36987 15.2885 1.76283C15.1575 2.15579 15.3699 2.58053 15.7628 2.71151L16.2372 1.28849ZM16.1539 2.05132L15.9168 2.76283V2.76283L16.1539 2.05132ZM4.45549 14.88L3.88393 14.3944H3.88393L4.45549 14.88ZM5.33476 12.8385L4.58953 12.7541L5.33476 12.8385ZM18.6652 12.8385L19.4105 12.7541L18.6652 12.8385ZM19.5445 14.88L20.1161 14.3944L19.5445 14.88ZM18.3204 9.79403L17.5751 9.87846V9.87846L18.3204 9.79403ZM5.67964 9.79403L6.42487 9.87846L5.67964 9.79403ZM15.7023 20.2632C15.8477 19.8753 15.6511 19.4431 15.2632 19.2977C14.8753 19.1523 14.4431 19.3489 14.2977 19.7368L15.7023 20.2632ZM9.7023 19.7368C9.55694 19.3489 9.12467 19.1523 8.7368 19.2977C8.34893 19.4431 8.15234 19.8753 8.2977 20.2632L9.7023 19.7368ZM4.05132 5.84605L4.76283 6.08322L4.76283 6.08322L4.05132 5.84605ZM3.28849 5.76283C3.1575 6.15579 3.36987 6.58053 3.76283 6.71151C4.15579 6.8425 4.58053 6.63013 4.71151 6.23717L3.28849 5.76283ZM8.23717 2.71151C8.63013 2.58053 8.8425 2.15579 8.71151 1.76283C8.58053 1.36987 8.15579 1.1575 7.76283 1.28849L8.23717 2.71151ZM7.84605 2.05132L7.60888 1.3398L7.60888 1.3398L7.84605 2.05132ZM19.2372 6.08322L19.2885 6.23717L20.7115 5.76283L20.6602 5.60888L19.2372 6.08322ZM15.7628 2.71151L15.9168 2.76283L16.3911 1.3398L16.2372 1.28849L15.7628 2.71151ZM20.6602 5.60888C19.9883 3.5933 18.4067 2.01167 16.3911 1.3398L15.9168 2.76283C17.4845 3.28539 18.7146 4.51554 19.2372 6.08322L20.6602 5.60888ZM18.1699 17.25H5.83014V18.75H18.1699V17.25ZM17.5751 9.87846L17.92 12.9229L19.4105 12.7541L19.0656 9.70961L17.5751 9.87846ZM6.07999 12.9229L6.42487 9.87846L4.9344 9.70961L4.58953 12.7541L6.07999 12.9229ZM5.02706 15.3657C5.61173 14.6775 5.97775 13.8255 6.07999 12.9229L4.58953 12.7541C4.52038 13.3645 4.2732 13.9363 3.88393 14.3944L5.02706 15.3657ZM17.92 12.9229C18.0223 13.8255 18.3883 14.6775 18.9729 15.3657L20.1161 14.3944C19.7268 13.9363 19.4796 13.3645 19.4105 12.7541L17.92 12.9229ZM5.83014 17.25C4.94335 17.25 4.37926 16.1281 5.02706 15.3657L3.88393 14.3944C2.46491 16.0647 3.57828 18.75 5.83014 18.75V17.25ZM18.1699 18.75C20.4217 18.75 21.5351 16.0647 20.1161 14.3944L18.9729 15.3657C19.6207 16.1281 19.0567 17.25 18.1699 17.25V18.75ZM19.0656 9.70961C18.6504 6.04473 15.6279 3.25 12 3.25V4.75C14.8302 4.75 17.2419 6.93698 17.5751 9.87846L19.0656 9.70961ZM6.42487 9.87846C6.75808 6.93698 9.16977 4.75 12 4.75V3.25C8.37212 3.25 5.34956 6.04473 4.9344 9.70961L6.42487 9.87846ZM14.2977 19.7368C13.975 20.5979 13.0846 21.25 12 21.25V22.75C13.6855 22.75 15.1516 21.7325 15.7023 20.2632L14.2977 19.7368ZM12 21.25C10.9154 21.25 10.025 20.5979 9.7023 19.7368L8.2977 20.2632C8.84835 21.7325 10.3145 22.75 12 22.75V21.25ZM3.3398 5.60888L3.28849 5.76283L4.71151 6.23717L4.76283 6.08322L3.3398 5.60888ZM7.76283 1.28849L7.60888 1.3398L8.08322 2.76283L8.23717 2.71151L7.76283 1.28849ZM4.76283 6.08322C5.28539 4.51555 6.51554 3.28539 8.08322 2.76283L7.60888 1.3398C5.5933 2.01167 4.01167 3.5933 3.3398 5.60888L4.76283 6.08322Z" fill="#28303F"/>
</svg>
