<svg width="24" height="24" viewBox="0 0 24 24" fill="none" xmlns="http://www.w3.org/2000/svg">
<path d="M17.25 14C17.25 18.0041 14.0041 21.25 10 21.25V22.75C14.8325 22.75 18.75 18.8325 18.75 14H17.25ZM10 21.25C5.99594 21.25 2.75 18.0041 2.75 14H1.25C1.25 18.8325 5.16751 22.75 10 22.75V21.25ZM2.75 14C2.75 9.99594 5.99594 6.75 10 6.75V5.25C5.16751 5.25 1.25 9.16751 1.25 14H2.75ZM17 11.25C14.6528 11.25 12.75 9.34721 12.75 7H11.25C11.25 10.1756 13.8244 12.75 17 12.75V11.25ZM17 2.75C19.3472 2.75 21.25 4.65279 21.25 7H22.75C22.75 3.82436 20.1756 1.25 17 1.25V2.75ZM12.75 7C12.75 6.7873 12.7656 6.57869 12.7955 6.37516L11.3115 6.15684C11.2709 6.43243 11.25 6.714 11.25 7H12.75ZM12.7955 6.37516C13.0972 4.32441 14.8654 2.75 17 2.75V1.25C14.1105 1.25 11.7199 3.38069 11.3115 6.15684L12.7955 6.37516ZM10 6.75C10.6445 6.75 11.2683 6.83392 11.8615 6.99101L12.2455 5.54099C11.5281 5.35101 10.7753 5.25 10 5.25V6.75ZM17.009 12.1385C17.1661 12.7317 17.25 13.3555 17.25 14H18.75C18.75 13.2247 18.649 12.4719 18.459 11.7545L17.009 12.1385ZM21.25 7C21.25 9.1346 19.6756 10.9028 17.6248 11.2045L17.8432 12.6885C20.6193 12.2801 22.75 9.88955 22.75 7H21.25ZM17.6248 11.2045C17.4213 11.2344 17.2127 11.25 17 11.25V12.75C17.286 12.75 17.5676 12.7291 17.8432 12.6885L17.6248 11.2045Z" fill="#28303F"/>
</svg>
