<svg width="24" height="24" viewBox="0 0 24 24" fill="none" xmlns="http://www.w3.org/2000/svg">
<path d="M18 11.9L17.8508 11.165L18 11.9ZM12.1 6L12.835 6.1492L12.1 6ZM17 11.25C14.6528 11.25 12.75 9.34721 12.75 7H11.25C11.25 10.1756 13.8244 12.75 17 12.75V11.25ZM17 2.75C19.3472 2.75 21.25 4.65279 21.25 7H22.75C22.75 3.82436 20.1756 1.25 17 1.25V2.75ZM14 21.25H6V22.75H14V21.25ZM2.75 18V10H1.25V18H2.75ZM6 21.25C4.20507 21.25 2.75 19.7949 2.75 18H1.25C1.25 20.6234 3.37665 22.75 6 22.75V21.25ZM17.25 18C17.25 19.7949 15.7949 21.25 14 21.25V22.75C16.6234 22.75 18.75 20.6234 18.75 18H17.25ZM6 5.25C3.37665 5.25 1.25 7.37665 1.25 10H2.75C2.75 8.20507 4.20507 6.75 6 6.75V5.25ZM17.25 11.9V18H18.75V11.9H17.25ZM21.25 7C21.25 9.05524 19.7904 10.7713 17.8508 11.165L18.1492 12.635C20.7741 12.1022 22.75 9.78267 22.75 7H21.25ZM17.8508 11.165C17.5765 11.2206 17.2921 11.25 17 11.25V12.75C17.3929 12.75 17.7773 12.7105 18.1492 12.635L17.8508 11.165ZM6 6.75H12.1V5.25H6V6.75ZM12.75 7C12.75 6.70793 12.7794 6.42348 12.835 6.1492L11.365 5.8508C11.2895 6.22274 11.25 6.60714 11.25 7H12.75ZM12.835 6.1492C13.2287 4.20961 14.9448 2.75 17 2.75V1.25C14.2173 1.25 11.8978 3.22591 11.365 5.8508L12.835 6.1492Z" fill="#28303F"/>
</svg>
