<svg width="24" height="24" viewBox="0 0 24 24" fill="none" xmlns="http://www.w3.org/2000/svg">
<path d="M3.57916 2.46967C3.28626 2.17678 2.81139 2.17678 2.5185 2.46967C2.2256 2.76256 2.2256 3.23744 2.5185 3.53033L3.57916 2.46967ZM20.5185 21.5303C20.8114 21.8232 21.2863 21.8232 21.5792 21.5303C21.8721 21.2374 21.8721 20.7626 21.5792 20.4697L20.5185 21.5303ZM17.7774 18.75C18.1916 18.75 18.5274 18.4142 18.5274 18C18.5274 17.5858 18.1916 17.25 17.7774 17.25V18.75ZM18.2397 8.97519L17.4945 9.05977L18.2397 8.97519ZM18.6869 12.9153L19.4321 12.8307V12.8307L18.6869 12.9153ZM5.31346 12.9153L4.56824 12.8307V12.8307L5.31346 12.9153ZM5.76065 8.97519L6.50586 9.05977L5.76065 8.97519ZM4.44797 14.8721L3.87686 14.386L4.44797 14.8721ZM19.5524 14.8721L20.1235 14.386V14.386L19.5524 14.8721ZM14.2701 4.37366H13.5201C13.5201 4.69424 13.7239 4.97938 14.0272 5.08322L14.2701 4.37366ZM9.73024 4.37366L9.97318 5.08322C10.2765 4.97938 10.4802 4.69424 10.4802 4.37366H9.73024ZM19.2489 15.9881C19.2705 16.4018 19.6233 16.7196 20.037 16.698C20.4506 16.6765 20.7685 16.3236 20.7469 15.91L19.2489 15.9881ZM8.46818 4.1003C8.10075 4.29153 7.95791 4.74441 8.14913 5.11184C8.34036 5.47927 8.79324 5.62212 9.16067 5.43089L8.46818 4.1003ZM7.23227 7.11886C7.46436 6.77577 7.37437 6.3095 7.03128 6.07742C6.68819 5.84533 6.22192 5.93532 5.98984 6.27841L7.23227 7.11886ZM15.7025 20.2632C15.8478 19.8753 15.6513 19.4431 15.2634 19.2977C14.8755 19.1523 14.4432 19.3489 14.2979 19.7368L15.7025 20.2632ZM9.70248 19.7368C9.55712 19.3489 9.12485 19.1523 8.73698 19.2977C8.34911 19.4431 8.15252 19.8753 8.29788 20.2632L9.70248 19.7368ZM2.5185 3.53033L20.5185 21.5303L21.5792 20.4697L3.57916 2.46967L2.5185 3.53033ZM17.7774 17.25H6.223V18.75H17.7774V17.25ZM17.4945 9.05977L17.9417 12.9998L19.4321 12.8307L18.9849 8.89061L17.4945 9.05977ZM6.05868 12.9998L6.50586 9.05977L5.01543 8.89061L4.56824 12.8307L6.05868 12.9998ZM5.01908 15.3583C5.59639 14.6801 5.96046 13.8652 6.05868 12.9998L4.56824 12.8307C4.50537 13.3846 4.27086 13.9231 3.87686 14.386L5.01908 15.3583ZM17.9417 12.9998C18.0399 13.8652 18.404 14.6801 18.9813 15.3583L20.1235 14.386C19.7295 13.9231 19.495 13.3846 19.4321 12.8307L17.9417 12.9998ZM6.223 17.25C5.56796 17.25 5.10461 16.926 4.89074 16.5492C4.68428 16.1854 4.68732 15.748 5.01908 15.3583L3.87686 14.386C3.11159 15.285 3.08796 16.4116 3.58617 17.2895C4.07698 18.1544 5.04966 18.75 6.223 18.75V17.25ZM15.0201 4.37366V4.26995H13.5201V4.37366H15.0201ZM18.9849 8.89061C18.7057 6.43026 16.8807 4.47476 14.5131 3.6641L14.0272 5.08322C15.9443 5.73962 17.2915 7.27101 17.4945 9.05977L18.9849 8.89061ZM10.4802 4.37366V4.26995H8.98024V4.37366H10.4802ZM12.0002 2.75C12.8396 2.75 13.5201 3.4305 13.5201 4.26995H15.0201C15.0201 2.60208 13.6681 1.25 12.0002 1.25V2.75ZM12.0002 1.25C10.3323 1.25 8.98024 2.60208 8.98024 4.26995H10.4802C10.4802 3.4305 11.1607 2.75 12.0002 2.75V1.25ZM20.7469 15.91C20.7188 15.3717 20.5123 14.8428 20.1235 14.386L18.9813 15.3583C19.164 15.5729 19.2386 15.7901 19.2489 15.9881L20.7469 15.91ZM9.16067 5.43089C9.41841 5.29676 9.69 5.18018 9.97318 5.08322L9.48729 3.6641C9.13363 3.78519 8.79295 3.93128 8.46818 4.1003L9.16067 5.43089ZM6.50586 9.05977C6.58557 8.35745 6.83895 7.70031 7.23227 7.11886L5.98984 6.27841C5.46883 7.04862 5.12399 7.93412 5.01543 8.89061L6.50586 9.05977ZM14.2979 19.7368C13.9752 20.5979 13.0848 21.25 12.0002 21.25V22.75C13.6857 22.75 15.1518 21.7325 15.7025 20.2632L14.2979 19.7368ZM12.0002 21.25C10.9156 21.25 10.0252 20.5979 9.70248 19.7368L8.29788 20.2632C8.84854 21.7325 10.3147 22.75 12.0002 22.75V21.25Z" fill="#28303F"/>
</svg>
