<svg width="24" height="24" viewBox="0 0 24 24" fill="none" xmlns="http://www.w3.org/2000/svg">
<path d="M12.8805 19.0636L12.3501 19.594L12.8805 19.0636ZM4.7103 10.8935L5.24063 10.3631L4.7103 10.8935ZM19.5889 13.0091L19.0022 12.5419L19.5889 13.0091ZM17.1191 16.1113L17.7058 16.5785L17.1191 16.1113ZM7.66261 6.65488L7.19547 6.06812L7.66261 6.65488ZM10.7649 4.18504L11.232 4.77179L10.7649 4.18504ZM5.66691 7.42659L5.60683 6.679L5.66691 7.42659ZM16.3474 18.107L15.5998 18.047L16.3474 18.107ZM20.0358 6.94838L19.5054 6.41805C19.2787 6.64474 19.2212 6.99044 19.3622 7.27833L20.0358 6.94838ZM20.1091 6.87504L19.5788 6.34471L19.5788 6.34471L20.1091 6.87504ZM16.8256 3.73819L16.4956 4.41171C16.7835 4.55275 17.1292 4.49521 17.3559 4.26852L16.8256 3.73819ZM16.8989 3.66485L17.4292 4.19518L17.4292 4.19518L16.8989 3.66485ZM11.9343 21.3181C12.3114 21.1467 12.478 20.702 12.3065 20.3249C12.135 19.9479 11.6904 19.7812 11.3133 19.9527L11.9343 21.3181ZM8.06388 16.7033C8.23536 16.3262 8.06871 15.8815 7.69166 15.7101C7.31461 15.5386 6.86994 15.7052 6.69846 16.0823L8.06388 16.7033ZM13.4108 18.5333L5.24063 10.3631L4.17997 11.4238L12.3501 19.594L13.4108 18.5333ZM19.0022 12.5419L16.5323 15.6442L17.7058 16.5785L20.1757 13.4762L19.0022 12.5419ZM8.12975 7.24163L11.232 4.77179L10.2977 3.59828L7.19547 6.06812L8.12975 7.24163ZM5.72699 8.17418C6.61478 8.10284 7.44844 7.78406 8.12975 7.24163L7.19547 6.06812C6.75932 6.41536 6.21271 6.63031 5.60683 6.679L5.72699 8.17418ZM16.5323 15.6442C15.9899 16.3255 15.6711 17.1592 15.5998 18.047L17.0949 18.1671C17.1436 17.5612 17.3586 17.0146 17.7058 16.5785L16.5323 15.6442ZM5.24063 10.3631C4.77745 9.89996 4.67888 9.34325 4.79414 8.92554C4.9054 8.52229 5.21681 8.21518 5.72699 8.17418L5.60683 6.679C4.43 6.77358 3.61667 7.55348 3.34817 8.52656C3.08366 9.48518 3.35029 10.5941 4.17997 11.4238L5.24063 10.3631ZM12.3501 19.594C13.1798 20.4237 14.2888 20.6903 15.2474 20.4258C16.2205 20.1573 17.0004 19.3439 17.0949 18.1671L15.5998 18.047C15.5588 18.5571 15.2517 18.8685 14.8484 18.9798C14.4307 19.0951 13.874 18.9965 13.4108 18.5333L12.3501 19.594ZM20.5661 7.47871L20.6394 7.40537L19.5788 6.34471L19.5054 6.41805L20.5661 7.47871ZM20.1757 13.4762C21.7179 11.539 21.8103 8.86585 20.7093 6.61843L19.3622 7.27833C20.2537 9.09808 20.1234 11.1335 19.0022 12.5419L20.1757 13.4762ZM17.3559 4.26852L17.4292 4.19518L16.3686 3.13452L16.2952 3.20786L17.3559 4.26852ZM11.232 4.77179C12.6404 3.6505 14.6759 3.52025 16.4956 4.41171L17.1555 3.06467C14.9081 1.9637 12.2349 2.05601 10.2977 3.59828L11.232 4.77179ZM19.5788 4.19518C20.1723 4.78876 20.1723 5.75113 19.5788 6.34471L20.6394 7.40537C21.8188 6.22601 21.8188 4.31388 20.6394 3.13452L19.5788 4.19518ZM20.6394 3.13452C19.4601 1.95516 17.5479 1.95516 16.3686 3.13452L17.4292 4.19518C18.0228 3.60161 18.9852 3.60161 19.5788 4.19518L20.6394 3.13452ZM11.3133 19.9527C10.4762 20.3334 9.38552 20.1649 8.61861 19.398L7.55795 20.4586C8.74976 21.6505 10.506 21.9677 11.9343 21.3181L11.3133 19.9527ZM8.61861 19.398C7.85169 18.6311 7.68319 17.5403 8.06388 16.7033L6.69846 16.0823C6.04888 17.5106 6.36614 19.2668 7.55795 20.4586L8.61861 19.398Z" fill="#28303F"/>
</svg>
