<svg width="24" height="24" viewBox="0 0 24 24" fill="none" xmlns="http://www.w3.org/2000/svg">
<path d="M3.53033 2.46967C3.23744 2.17678 2.76256 2.17678 2.46967 2.46967C2.17678 2.76256 2.17678 3.23744 2.46967 3.53033L3.53033 2.46967ZM20.4697 21.5303C20.7626 21.8232 21.2374 21.8232 21.5303 21.5303C21.8232 21.2374 21.8232 20.7626 21.5303 20.4697L20.4697 21.5303ZM18.3204 8.79403L17.5751 8.87846V8.87846L18.3204 8.79403ZM18.6652 11.8385L19.4105 11.7541L18.6652 11.8385ZM5.33476 11.8385L4.58953 11.7541L5.33476 11.8385ZM5.67964 8.79403L6.42487 8.87846L5.67964 8.79403ZM4.45549 13.88L5.02706 14.3657L4.45549 13.88ZM19.5445 13.88L20.1161 13.3944V13.3944L19.5445 13.88ZM19.1585 15.5664C19.0008 15.9494 19.1834 16.3878 19.5664 16.5455C19.9494 16.7032 20.3878 16.5206 20.5455 16.1376L19.1585 15.5664ZM7.80487 3.65511C7.47356 3.90371 7.40651 4.37383 7.65511 4.70514C7.90371 5.03646 8.37383 5.10351 8.70514 4.85491L7.80487 3.65511ZM7.03621 6.84157C7.22485 6.47281 7.07884 6.02094 6.71007 5.8323C6.34131 5.64365 5.88944 5.78967 5.7008 6.15843L7.03621 6.84157ZM17 17.75C17.4142 17.75 17.75 17.4142 17.75 17C17.75 16.5858 17.4142 16.25 17 16.25V17.75ZM15.7023 19.2632C15.8477 18.8753 15.6511 18.4431 15.2632 18.2977C14.8753 18.1523 14.4431 18.3489 14.2977 18.7368L15.7023 19.2632ZM9.7023 18.7368C9.55694 18.3489 9.12467 18.1523 8.7368 18.2977C8.34893 18.4431 8.15234 18.8753 8.2977 19.2632L9.7023 18.7368ZM2.46967 3.53033L20.4697 21.5303L21.5303 20.4697L3.53033 2.46967L2.46967 3.53033ZM17.5751 8.87846L17.92 11.9229L19.4105 11.7541L19.0656 8.70961L17.5751 8.87846ZM6.07999 11.9229L6.42487 8.87846L4.9344 8.70961L4.58953 11.7541L6.07999 11.9229ZM5.02706 14.3657C5.61173 13.6775 5.97775 12.8255 6.07999 11.9229L4.58953 11.7541C4.52038 12.3645 4.2732 12.9363 3.88393 13.3944L5.02706 14.3657ZM17.92 11.9229C18.0223 12.8255 18.3883 13.6775 18.9729 14.3657L20.1161 13.3944C19.7268 12.9363 19.4796 12.3645 19.4105 11.7541L17.92 11.9229ZM5.83014 16.25C4.94334 16.25 4.37926 15.1281 5.02706 14.3657L3.88393 13.3944C2.46491 15.0647 3.57828 17.75 5.83014 17.75V16.25ZM19.0656 8.70961C18.6504 5.04473 15.6279 2.25 12 2.25V3.75C14.8302 3.75 17.2419 5.93698 17.5751 8.87846L19.0656 8.70961ZM20.5455 16.1376C20.897 15.284 20.8201 14.2231 20.1161 13.3944L18.9729 14.3657C19.2782 14.725 19.3177 15.1799 19.1585 15.5664L20.5455 16.1376ZM8.70514 4.85491C9.63612 4.15634 10.7767 3.75 12 3.75V2.25C10.4383 2.25 8.98438 2.77007 7.80487 3.65511L8.70514 4.85491ZM6.42487 8.87846C6.50793 8.14519 6.72043 7.45885 7.03621 6.84157L5.7008 6.15843C5.30369 6.9347 5.038 7.79508 4.9344 8.70961L6.42487 8.87846ZM17 16.25H5.83014V17.75H17V16.25ZM14.2977 18.7368C13.975 19.5979 13.0846 20.25 12 20.25V21.75C13.6855 21.75 15.1516 20.7325 15.7023 19.2632L14.2977 18.7368ZM12 20.25C10.9154 20.25 10.025 19.5979 9.7023 18.7368L8.2977 19.2632C8.84835 20.7325 10.3145 21.75 12 21.75V20.25Z" fill="#28303F"/>
</svg>
