<svg width="24" height="24" viewBox="0 0 24 24" fill="none" xmlns="http://www.w3.org/2000/svg">
<path d="M5.33476 12.8385L4.58953 12.7541L5.33476 12.8385ZM5.67964 9.79403L6.42487 9.87845L5.67964 9.79403ZM4.45549 14.88L3.88393 14.3944L4.45549 14.88ZM18.6652 12.8385L19.4105 12.7541L18.6652 12.8385ZM19.5445 14.88L18.9729 15.3656L19.5445 14.88ZM11.1837 4.81108C11.5933 4.74925 11.8752 4.3671 11.8133 3.95753C11.7515 3.54796 11.3693 3.26606 10.9598 3.32789L11.1837 4.81108ZM19.1826 10.7423C19.136 10.3307 18.7645 10.0349 18.3529 10.0815C17.9413 10.1281 17.6455 10.4996 17.6921 10.9112L19.1826 10.7423ZM15.7023 20.2632C15.8477 19.8753 15.6511 19.4431 15.2632 19.2977C14.8753 19.1523 14.4431 19.3489 14.2977 19.7368L15.7023 20.2632ZM9.7023 19.7368C9.55694 19.3489 9.12467 19.1523 8.7368 19.2977C8.34893 19.4431 8.15234 19.8753 8.2977 20.2632L9.7023 19.7368ZM19.25 5C19.25 6.24264 18.2426 7.25 17 7.25V8.75C19.0711 8.75 20.75 7.07107 20.75 5H19.25ZM17 7.25C15.7574 7.25 14.75 6.24264 14.75 5H13.25C13.25 7.07107 14.9289 8.75 17 8.75V7.25ZM14.75 5C14.75 3.75736 15.7574 2.75 17 2.75V1.25C14.9289 1.25 13.25 2.92893 13.25 5H14.75ZM17 2.75C18.2426 2.75 19.25 3.75736 19.25 5H20.75C20.75 2.92893 19.0711 1.25 17 1.25V2.75ZM18.1699 17.25H5.83014V18.75H18.1699V17.25ZM6.07999 12.9229L6.42487 9.87845L4.9344 9.70961L4.58953 12.7541L6.07999 12.9229ZM5.02706 15.3656C5.61172 14.6775 5.97775 13.8255 6.07999 12.9229L4.58953 12.7541C4.52038 13.3645 4.2732 13.9363 3.88393 14.3944L5.02706 15.3656ZM17.92 12.9229C18.0223 13.8255 18.3883 14.6775 18.9729 15.3656L20.1161 14.3944C19.7268 13.9363 19.4796 13.3645 19.4105 12.7541L17.92 12.9229ZM5.83014 17.25C4.94334 17.25 4.37926 16.1281 5.02706 15.3656L3.88393 14.3944C2.46491 16.0646 3.57828 18.75 5.83014 18.75V17.25ZM18.1699 18.75C20.4217 18.75 21.5351 16.0646 20.1161 14.3944L18.9729 15.3656C19.6207 16.1281 19.0567 17.25 18.1699 17.25V18.75ZM6.42487 9.87845C6.72544 7.22517 8.71984 5.18306 11.1837 4.81108L10.9598 3.32789C7.80683 3.8039 5.30924 6.40071 4.9344 9.70961L6.42487 9.87845ZM17.6921 10.9112L17.92 12.9229L19.4105 12.7541L19.1826 10.7423L17.6921 10.9112ZM14.2977 19.7368C13.975 20.5979 13.0846 21.25 12 21.25V22.75C13.6855 22.75 15.1516 21.7325 15.7023 20.2632L14.2977 19.7368ZM12 21.25C10.9154 21.25 10.025 20.5979 9.7023 19.7368L8.2977 20.2632C8.84835 21.7325 10.3145 22.75 12 22.75V21.25Z" fill="#28303F"/>
</svg>
