<svg width="24" height="24" viewBox="0 0 24 24" fill="none" xmlns="http://www.w3.org/2000/svg">
<path d="M19.9853 14.9853L20.5275 14.4672C20.386 14.3191 20.1901 14.2353 19.9853 14.2353C19.7805 14.2353 19.5845 14.3191 19.443 14.4672L19.9853 14.9853ZM12.9565 3.64167L12.4289 4.17473L12.9565 3.64167ZM20 10.6127L20.3326 11.2849C20.5498 11.1774 20.7017 10.9717 20.7404 10.7325C20.7791 10.4933 20.6998 10.2501 20.5276 10.0797L20 10.6127ZM7.47826 18.3583L8.00584 17.8253L7.47826 18.3583ZM2.78261 13.711L2.25503 14.244H2.25503L2.78261 13.711ZM2.78261 10.6127L3.31019 11.1458L2.78261 10.6127ZM9.82609 3.64167L9.2985 3.1086L9.82609 3.64167ZM10.6087 18.3583L10.0811 17.8253L10.6087 18.3583ZM21.2353 18.7353C21.2353 19.408 21.0371 19.7546 20.8444 19.9372C20.6416 20.1294 20.3441 20.2353 19.9853 20.2353V21.7353C20.6265 21.7353 21.329 21.5446 21.8762 21.026C22.4335 20.4978 22.7353 19.7195 22.7353 18.7353H21.2353ZM19.9853 20.2353C19.6265 20.2353 19.329 20.1294 19.1262 19.9372C18.9335 19.7546 18.7353 19.408 18.7353 18.7353H17.2353C17.2353 19.7195 17.5371 20.4978 18.0944 21.026C18.6416 21.5446 19.3441 21.7353 19.9853 21.7353V20.2353ZM18.7353 18.7353C18.7353 18.1537 19.1118 17.3819 19.6042 16.6626C19.8363 16.3235 20.0699 16.0305 20.2459 15.822C20.3335 15.7182 20.406 15.6364 20.4556 15.5815C20.4804 15.5541 20.4995 15.5335 20.5118 15.5202C20.5179 15.5136 20.5224 15.5089 20.5251 15.506C20.5264 15.5046 20.5273 15.5037 20.5277 15.5032C20.5279 15.503 20.528 15.5029 20.528 15.503C20.528 15.503 20.5279 15.503 20.5279 15.5031C20.5278 15.5031 20.5277 15.5032 20.5277 15.5032C20.5276 15.5033 20.5275 15.5034 19.9853 14.9853C19.443 14.4672 19.4429 14.4673 19.4428 14.4674C19.4428 14.4675 19.4426 14.4676 19.4425 14.4677C19.4423 14.4679 19.4421 14.4681 19.4419 14.4684C19.4414 14.4689 19.4407 14.4696 19.44 14.4704C19.4385 14.472 19.4365 14.4741 19.434 14.4767C19.4291 14.4819 19.4224 14.4891 19.4139 14.4982C19.3969 14.5164 19.373 14.5424 19.3431 14.5754C19.2834 14.6415 19.1996 14.7361 19.0997 14.8545C18.9006 15.0902 18.6343 15.4241 18.3664 15.8153C17.8588 16.5568 17.2353 17.66 17.2353 18.7353H18.7353ZM19.9853 14.9853C19.443 15.5034 19.4429 15.5033 19.4429 15.5032C19.4428 15.5032 19.4428 15.5031 19.4427 15.5031C19.4426 15.503 19.4426 15.503 19.4426 15.503C19.4426 15.5029 19.4427 15.503 19.4429 15.5032C19.4433 15.5037 19.4442 15.5046 19.4455 15.506C19.4482 15.5089 19.4526 15.5136 19.4588 15.5202C19.4711 15.5335 19.4902 15.5541 19.515 15.5815C19.5646 15.6364 19.6371 15.7182 19.7247 15.822C19.9006 16.0305 20.1343 16.3235 20.3664 16.6626C20.8588 17.3819 21.2353 18.1537 21.2353 18.7353H22.7353C22.7353 17.66 22.1118 16.5568 21.6042 15.8153C21.3363 15.4241 21.0699 15.0902 20.8709 14.8545C20.771 14.7361 20.6872 14.6415 20.6275 14.5754C20.5976 14.5424 20.5737 14.5164 20.5567 14.4982C20.5482 14.4891 20.5415 14.4819 20.5366 14.4767C20.5341 14.4741 20.5321 14.472 20.5306 14.4704C20.5299 14.4696 20.5292 14.4689 20.5287 14.4684C20.5285 14.4681 20.5282 14.4679 20.528 14.4677C20.5279 14.4676 20.5278 14.4675 20.5278 14.4674C20.5277 14.4673 20.5275 14.4672 19.9853 14.9853ZM12.4289 4.17473L19.4724 11.1458L20.5276 10.0797L13.4841 3.1086L12.4289 4.17473ZM8.00584 17.8253L3.31019 13.1779L2.25503 14.244L6.95068 18.8914L8.00584 17.8253ZM3.31019 11.1458L10.3537 4.17473L9.2985 3.1086L2.25503 10.0797L3.31019 11.1458ZM19.6674 9.94052L16.5369 11.4896L17.2022 12.834L20.3326 11.2849L19.6674 9.94052ZM16.342 11.6288L10.0811 17.8253L11.1363 18.8914L17.3971 12.6949L16.342 11.6288ZM16.8696 11.4118L2.13427 11.4118L2.13427 12.9118L16.8696 12.9118V11.4118ZM2.13427 11.4118L1.99999 11.4118L2.00001 12.9118L2.13428 12.9118L2.13427 11.4118ZM3.31019 13.1779C3.0252 12.8958 2.88427 12.5293 2.88427 12.1618H1.38427C1.38427 12.9158 1.67557 13.6705 2.25503 14.244L3.31019 13.1779ZM2.88427 12.1618C2.88427 11.7944 3.0252 11.4278 3.31019 11.1458L2.25503 10.0797C1.67557 10.6532 1.38427 11.4079 1.38427 12.1618H2.88427ZM6.95068 18.8914C8.10738 20.0362 9.97958 20.0362 11.1363 18.8914L10.0811 17.8253C9.50892 18.3916 8.57803 18.3916 8.00584 17.8253L6.95068 18.8914ZM13.4841 3.1086C12.3274 1.9638 10.4552 1.9638 9.2985 3.1086L10.3537 4.17473C10.9259 3.60842 11.8567 3.60842 12.4289 4.17473L13.4841 3.1086Z" fill="#28303F"/>
</svg>
