<svg width="24" height="24" viewBox="0 0 24 24" fill="none" xmlns="http://www.w3.org/2000/svg">
<path d="M15.8288 15.3761L15.2985 14.8458L15.8288 15.3761ZM8.62383 8.17118L8.0935 7.64085L8.62383 8.17118ZM10.3121 6.48295L10.8424 7.01328L10.3121 6.48295ZM17.517 13.6879L18.0474 14.2182L17.517 13.6879ZM5.74183 12.2469L6.27216 11.7166H6.27216L5.74183 12.2469ZM11.7531 18.2581L11.2227 18.7885L11.7531 18.2581ZM20.399 9.61217L19.8687 10.1425L20.399 9.61217ZM14.3878 3.60096L14.9181 3.07063V3.07063L14.3878 3.60096ZM9.01554 16.0451C9.30843 15.7522 9.30843 15.2773 9.01554 14.9845C8.72264 14.6916 8.24777 14.6916 7.95488 14.9845L9.01554 16.0451ZM2.46967 20.4697C2.17678 20.7626 2.17678 21.2374 2.46967 21.5303C2.76256 21.8232 3.23744 21.8232 3.53033 21.5303L2.46967 20.4697ZM13.8575 4.1313L19.8687 10.1425L20.9294 9.08184L14.9181 3.07063L13.8575 4.1313ZM12.2834 17.7278L6.27216 11.7166L5.2115 12.7773L11.2227 18.7885L12.2834 17.7278ZM9.15416 8.70151L10.8424 7.01328L9.78173 5.95262L8.0935 7.64085L9.15416 8.70151ZM16.9867 13.1576L15.2985 14.8458L16.3591 15.9065L18.0474 14.2182L16.9867 13.1576ZM15.2985 14.8458C14.7756 15.3686 14.4819 16.0777 14.4819 16.8171H15.9819C15.9819 16.4756 16.1176 16.148 16.3591 15.9065L15.2985 14.8458ZM7.18283 9.51806C7.92222 9.51806 8.63133 9.22434 9.15416 8.70151L8.0935 7.64085C7.85197 7.88237 7.5244 8.01806 7.18283 8.01806V9.51806ZM10.1589 5.04196C10.1589 5.38352 10.0233 5.7111 9.78173 5.95262L10.8424 7.01328C11.3652 6.49045 11.6589 5.78135 11.6589 5.04196H10.1589ZM18.958 12.341C18.2186 12.341 17.5095 12.6348 16.9867 13.1576L18.0474 14.2182C18.2889 13.9767 18.6165 13.841 18.958 13.841V12.341ZM6.27216 11.7166C5.46085 10.9053 6.03545 9.51806 7.18283 9.51806V8.01806C4.6991 8.01806 3.45524 11.021 5.2115 12.7773L6.27216 11.7166ZM11.2227 18.7885C12.979 20.5447 15.9819 19.3009 15.9819 16.8171H14.4819C14.4819 17.9645 13.0947 18.5391 12.2834 17.7278L11.2227 18.7885ZM19.8687 10.1425C20.68 10.9538 20.1054 12.341 18.958 12.341V13.841C21.4418 13.841 22.6856 10.8381 20.9294 9.08184L19.8687 10.1425ZM14.9181 3.07063C13.1619 1.31438 10.1589 2.55822 10.1589 5.04196H11.6589C11.6589 3.89459 13.0462 3.31998 13.8575 4.1313L14.9181 3.07063ZM7.95488 14.9845L2.46967 20.4697L3.53033 21.5303L9.01554 16.0451L7.95488 14.9845Z" fill="#28303F"/>
</svg>
