<svg width="24" height="24" viewBox="0 0 24 24" fill="none" xmlns="http://www.w3.org/2000/svg">
<path d="M8 3.75H20V2.25H8V3.75ZM1.25 12C1.25 14.0711 2.92893 15.75 5 15.75V14.25C3.75736 14.25 2.75 13.2426 2.75 12H1.25ZM5 8.25C2.92893 8.25 1.25 9.92893 1.25 12H2.75C2.75 10.7574 3.75736 9.75 5 9.75V8.25ZM17.25 12C17.25 14.0711 18.9289 15.75 21 15.75V14.25C19.7574 14.25 18.75 13.2426 18.75 12H17.25ZM21 8.25C18.9289 8.25 17.25 9.92893 17.25 12H18.75C18.75 10.7574 19.7574 9.75 21 9.75V8.25ZM14 16.25C11.9289 16.25 10.25 17.9289 10.25 20H11.75C11.75 18.7574 12.7574 17.75 14 17.75V16.25ZM17.75 20C17.75 17.9289 16.0711 16.25 14 16.25V17.75C15.2426 17.75 16.25 18.7574 16.25 20H17.75ZM22.75 8V5H21.25V8H22.75ZM21.25 16V19H22.75V16H21.25ZM18 21.75H20V20.25H18V21.75ZM10 20.25H8V21.75H10V20.25ZM6.75 8V5H5.25V8H6.75ZM5.25 16V19H6.75V16H5.25ZM21 15.75C21.1381 15.75 21.25 15.8619 21.25 16H22.75C22.75 15.0335 21.9665 14.25 21 14.25V15.75ZM21 9.75C21.9665 9.75 22.75 8.9665 22.75 8H21.25C21.25 8.13807 21.1381 8.25 21 8.25V9.75ZM5 15.75C5.13807 15.75 5.25 15.8619 5.25 16H6.75C6.75 15.0335 5.9665 14.25 5 14.25V15.75ZM10.25 20C10.25 20.1381 10.1381 20.25 10 20.25V21.75C10.9665 21.75 11.75 20.9665 11.75 20H10.25ZM5 9.75C5.9665 9.75 6.75 8.9665 6.75 8H5.25C5.25 8.13807 5.13807 8.25 5 8.25V9.75ZM16.25 20C16.25 20.9665 17.0335 21.75 18 21.75V20.25C17.8619 20.25 17.75 20.1381 17.75 20H16.25ZM8 20.25C7.30964 20.25 6.75 19.6904 6.75 19H5.25C5.25 20.5188 6.48122 21.75 8 21.75V20.25ZM21.25 19C21.25 19.6904 20.6904 20.25 20 20.25V21.75C21.5188 21.75 22.75 20.5188 22.75 19H21.25ZM20 3.75C20.6904 3.75 21.25 4.30964 21.25 5H22.75C22.75 3.48122 21.5188 2.25 20 2.25V3.75ZM8 2.25C6.48122 2.25 5.25 3.48122 5.25 5H6.75C6.75 4.30964 7.30964 3.75 8 3.75V2.25Z" fill="#28303F"/>
</svg>
