<svg width="24" height="24" viewBox="0 0 24 24" fill="none" xmlns="http://www.w3.org/2000/svg">
<path d="M12.75 7C12.75 6.58579 12.4142 6.25 12 6.25C11.5858 6.25 11.25 6.58579 11.25 7H12.75ZM11.25 9C11.25 9.41421 11.5858 9.75 12 9.75C12.4142 9.75 12.75 9.41421 12.75 9H11.25ZM15.4504 7.39996C15.1192 7.15119 14.6491 7.21801 14.4003 7.5492C14.1516 7.88039 14.2184 8.35054 14.5496 8.59931L15.4504 7.39996ZM9.45043 8.59931C9.78162 8.35054 9.84844 7.88039 9.59967 7.5492C9.35091 7.21801 8.88076 7.15119 8.54957 7.39996L9.45043 8.59931ZM21.25 12C21.25 17.1086 17.1086 21.25 12 21.25V22.75C17.9371 22.75 22.75 17.9371 22.75 12H21.25ZM12 21.25C6.89137 21.25 2.75 17.1086 2.75 12H1.25C1.25 17.9371 6.06294 22.75 12 22.75V21.25ZM2.75 12C2.75 6.89137 6.89137 2.75 12 2.75V1.25C6.06294 1.25 1.25 6.06294 1.25 12H2.75ZM12 2.75C17.1086 2.75 21.25 6.89137 21.25 12H22.75C22.75 6.06294 17.9371 1.25 12 1.25V2.75ZM11.25 7V9H12.75V7H11.25ZM16.25 12C16.25 14.3472 14.3472 16.25 12 16.25V17.75C15.1756 17.75 17.75 15.1756 17.75 12H16.25ZM12 16.25C9.65279 16.25 7.75 14.3472 7.75 12H6.25C6.25 15.1756 8.82436 17.75 12 17.75V16.25ZM14.5496 8.59931C15.5835 9.37595 16.25 10.61 16.25 12H17.75C17.75 10.1183 16.8454 8.44773 15.4504 7.39996L14.5496 8.59931ZM7.75 12C7.75 10.61 8.41646 9.37595 9.45043 8.59931L8.54957 7.39996C7.15464 8.44773 6.25 10.1183 6.25 12H7.75Z" fill="#28303F"/>
</svg>
