<svg width="24" height="24" viewBox="0 0 24 24" fill="none" xmlns="http://www.w3.org/2000/svg">
<path d="M3 6V5.25C2.58579 5.25 2.25 5.58579 2.25 6H3ZM21 6H21.75C21.75 5.58579 21.4142 5.25 21 5.25V6ZM7.35688 13.6141C7.14377 13.9693 7.25894 14.43 7.61413 14.6431C7.96931 14.8562 8.43001 14.7411 8.64312 14.3859L7.35688 13.6141ZM9.08225 12.1963L8.43913 11.8104L9.08225 12.1963ZM14.9178 11.8037L14.2746 11.4179L14.9178 11.8037ZM16.6431 10.3859C16.8562 10.0307 16.7411 9.56999 16.3859 9.35688C16.0307 9.14377 15.57 9.25894 15.3569 9.61413L16.6431 10.3859ZM12.75 18C12.75 17.5858 12.4142 17.25 12 17.25C11.5858 17.25 11.25 17.5858 11.25 18H12.75ZM11.25 22C11.25 22.4142 11.5858 22.75 12 22.75C12.4142 22.75 12.75 22.4142 12.75 22H11.25ZM4 2.75H20V1.25H4V2.75ZM20 5.25H4V6.75H20V5.25ZM4 5.25C3.30964 5.25 2.75 4.69036 2.75 4H1.25C1.25 5.51878 2.48122 6.75 4 6.75V5.25ZM21.25 4C21.25 4.69036 20.6904 5.25 20 5.25V6.75C21.5188 6.75 22.75 5.51878 22.75 4H21.25ZM20 2.75C20.6904 2.75 21.25 3.30964 21.25 4H22.75C22.75 2.48122 21.5188 1.25 20 1.25V2.75ZM4 1.25C2.48122 1.25 1.25 2.48122 1.25 4H2.75C2.75 3.30964 3.30964 2.75 4 2.75V1.25ZM3 6.75H21V5.25H3V6.75ZM20.25 6V16H21.75V6H20.25ZM19 17.25H5V18.75H19V17.25ZM3.75 16V6H2.25V16H3.75ZM5 17.25C4.30964 17.25 3.75 16.6904 3.75 16H2.25C2.25 17.5188 3.48122 18.75 5 18.75V17.25ZM20.25 16C20.25 16.6904 19.6904 17.25 19 17.25V18.75C20.5188 18.75 21.75 17.5188 21.75 16H20.25ZM8.64312 14.3859L9.72537 12.5821L8.43913 11.8104L7.35688 13.6141L8.64312 14.3859ZM15.5609 12.1896L16.6431 10.3859L15.3569 9.61413L14.2746 11.4179L15.5609 12.1896ZM11.4143 12.4685C12.5161 13.8458 14.6534 13.702 15.5609 12.1896L14.2746 11.4179C13.905 12.0339 13.0344 12.0925 12.5857 11.5315L11.4143 12.4685ZM9.72537 12.5821C10.095 11.9661 10.9656 11.9075 11.4143 12.4685L12.5857 11.5315C11.4839 10.1542 9.34656 10.298 8.43913 11.8104L9.72537 12.5821ZM11.25 18V22H12.75V18H11.25Z" fill="#28303F"/>
</svg>
