<svg width="24" height="24" viewBox="0 0 24 24" fill="none" xmlns="http://www.w3.org/2000/svg">
<path d="M15.3588 9.7019C15.6517 9.40901 15.6517 8.93413 15.3588 8.64124C15.0659 8.34835 14.591 8.34835 14.2981 8.64124L15.3588 9.7019ZM8.64125 14.2981C8.34835 14.591 8.34835 15.0659 8.64125 15.3588C8.93414 15.6516 9.40901 15.6516 9.70191 15.3588L8.64125 14.2981ZM14.2981 15.3588C14.591 15.6517 15.0659 15.6517 15.3588 15.3588C15.6517 15.0659 15.6517 14.591 15.3588 14.2981L14.2981 15.3588ZM9.70191 8.64125C9.40901 8.34835 8.93414 8.34835 8.64125 8.64125C8.34835 8.93414 8.34835 9.40901 8.64125 9.70191L9.70191 8.64125ZM14.2981 8.64124L8.64125 14.2981L9.70191 15.3588L15.3588 9.7019L14.2981 8.64124ZM15.3588 14.2981L9.70191 8.64125L8.64125 9.70191L14.2981 15.3588L15.3588 14.2981ZM18 1.25H6V2.75H18V1.25ZM1.25 6V18H2.75V6H1.25ZM6 22.75H18V21.25H6V22.75ZM22.75 18V6H21.25V18H22.75ZM18 22.75C20.6234 22.75 22.75 20.6234 22.75 18H21.25C21.25 19.7949 19.7949 21.25 18 21.25V22.75ZM1.25 18C1.25 20.6234 3.37665 22.75 6 22.75V21.25C4.20507 21.25 2.75 19.7949 2.75 18H1.25ZM6 1.25C3.37665 1.25 1.25 3.37665 1.25 6H2.75C2.75 4.20507 4.20507 2.75 6 2.75V1.25ZM18 2.75C19.7949 2.75 21.25 4.20507 21.25 6H22.75C22.75 3.37665 20.6234 1.25 18 1.25V2.75Z" fill="#28303F"/>
</svg>
