<svg width="24" height="24" viewBox="0 0 24 24" fill="none" xmlns="http://www.w3.org/2000/svg">
<path d="M6.34311 14.8284L5.81278 14.2981L5.81278 14.2981L6.34311 14.8284ZM9.17154 17.6568L9.70187 18.1871L9.17154 17.6568ZM14.8284 6.34311L14.2981 5.81278V5.81278L14.8284 6.34311ZM9.17154 6.34311L9.70187 5.81278V5.81278L9.17154 6.34311ZM6.34311 9.17154L6.87344 8.64121L6.87344 8.64121L6.34311 9.17154ZM17.6568 14.8284L18.1871 14.2981V14.2981L17.6568 14.8284ZM14.8284 12L14.2981 11.4696C14.1574 11.6103 14.0784 11.8011 14.0784 12C14.0784 12.1989 14.1574 12.3896 14.2981 12.5303L14.8284 12ZM12 14.8284L12.5303 14.2981C12.3896 14.1574 12.1989 14.0784 12 14.0784C11.8011 14.0784 11.6103 14.1574 11.4696 14.2981L12 14.8284ZM9.17154 12L9.70187 12.5303C9.99476 12.2374 9.99476 11.7625 9.70187 11.4696L9.17154 12ZM12 9.17154L11.4696 9.70187C11.6103 9.84252 11.8011 9.92154 12 9.92154C12.1989 9.92154 12.3896 9.84252 12.5303 9.70187L12 9.17154ZM6.87344 17.1265C6.38529 16.6383 6.38529 15.8469 6.87344 15.3587L5.81278 14.2981C4.73884 15.372 4.73884 17.1132 5.81278 18.1871L6.87344 17.1265ZM8.64121 17.1265C8.15305 17.6146 7.3616 17.6146 6.87344 17.1265L5.81278 18.1871C6.88672 19.2611 8.62793 19.2611 9.70187 18.1871L8.64121 17.1265ZM17.1265 6.87344C17.6146 7.3616 17.6146 8.15305 17.1265 8.64121L18.1871 9.70187C19.2611 8.62793 19.2611 6.88672 18.1871 5.81278L17.1265 6.87344ZM18.1871 5.81278C17.1132 4.73884 15.372 4.73884 14.2981 5.81278L15.3587 6.87344C15.8469 6.38529 16.6383 6.38529 17.1265 6.87344L18.1871 5.81278ZM6.87344 6.87344C7.3616 6.38529 8.15305 6.38529 8.64121 6.87344L9.70187 5.81278C8.62793 4.73884 6.88672 4.73884 5.81278 5.81278L6.87344 6.87344ZM6.87344 8.64121C6.38529 8.15305 6.38529 7.3616 6.87344 6.87344L5.81278 5.81278C4.73884 6.88672 4.73884 8.62793 5.81278 9.70187L6.87344 8.64121ZM17.1265 17.1265C16.6383 17.6146 15.8469 17.6146 15.3587 17.1265L14.2981 18.1871C15.372 19.2611 17.1132 19.2611 18.1871 18.1871L17.1265 17.1265ZM18.1871 18.1871C19.2611 17.1132 19.2611 15.372 18.1871 14.2981L17.1265 15.3587C17.6146 15.8469 17.6146 16.6383 17.1265 17.1265L18.1871 18.1871ZM14.2981 12.5303L17.1265 15.3587L18.1871 14.2981L15.3587 11.4696L14.2981 12.5303ZM17.1265 8.64121L14.2981 11.4696L15.3587 12.5303L18.1871 9.70187L17.1265 8.64121ZM11.4696 14.2981L8.64121 17.1265L9.70187 18.1871L12.5303 15.3587L11.4696 14.2981ZM15.3587 17.1265L12.5303 14.2981L11.4696 15.3587L14.2981 18.1871L15.3587 17.1265ZM9.70187 11.4696L6.87344 8.64121L5.81278 9.70187L8.64121 12.5303L9.70187 11.4696ZM6.87344 15.3587L9.70187 12.5303L8.64121 11.4696L5.81278 14.2981L6.87344 15.3587ZM8.64121 6.87344L11.4696 9.70187L12.5303 8.64121L9.70187 5.81278L8.64121 6.87344ZM14.2981 5.81278L11.4696 8.64121L12.5303 9.70187L15.3587 6.87344L14.2981 5.81278Z" fill="#28303F"/>
</svg>
