<svg width="24" height="24" viewBox="0 0 24 24" fill="none" xmlns="http://www.w3.org/2000/svg">
<path d="M3.52405 15.4403L3.02348 15.9989L3.52405 15.4403ZM3.52406 8.55965L3.02348 8.00115H3.02348L3.52406 8.55965ZM7.34938 18.8689L7.84996 18.3104L7.34938 18.8689ZM7.34939 5.13108L7.84996 5.68958L7.34939 5.13108ZM17.5303 9.53033C17.8232 9.23744 17.8232 8.76256 17.5303 8.46967C17.2374 8.17678 16.7626 8.17678 16.4697 8.46967L17.5303 9.53033ZM10.4697 14.4697C10.1768 14.7626 10.1768 15.2374 10.4697 15.5303C10.7626 15.8232 11.2374 15.8232 11.5303 15.5303L10.4697 14.4697ZM11.5303 8.46967C11.2374 8.17678 10.7626 8.17678 10.4697 8.46967C10.1768 8.76256 10.1768 9.23744 10.4697 9.53033L11.5303 8.46967ZM16.4697 15.5303C16.7626 15.8232 17.2374 15.8232 17.5303 15.5303C17.8232 15.2374 17.8232 14.7626 17.5303 14.4697L16.4697 15.5303ZM10.2882 4.75H17.5371V3.25H10.2882V4.75ZM21.25 8.57143V15.4286H22.75V8.57143H21.25ZM17.5371 19.25H10.2882V20.75H17.5371V19.25ZM7.84996 18.3104L4.02463 14.8818L3.02348 15.9989L6.84881 19.4274L7.84996 18.3104ZM4.02463 9.11815L7.84996 5.68958L6.84881 4.57257L3.02348 8.00115L4.02463 9.11815ZM4.02463 14.8818C2.32512 13.3586 2.32512 10.6414 4.02463 9.11815L3.02348 8.00115C0.658842 10.1205 0.658839 13.8795 3.02348 15.9989L4.02463 14.8818ZM10.2882 19.25C9.3941 19.25 8.52754 18.9177 7.84996 18.3104L6.84881 19.4274C7.79832 20.2785 9.02029 20.75 10.2882 20.75V19.25ZM21.25 15.4286C21.25 17.5562 19.5708 19.25 17.5371 19.25V20.75C20.433 20.75 22.75 18.3504 22.75 15.4286H21.25ZM17.5371 4.75C19.5708 4.75 21.25 6.44382 21.25 8.57143H22.75C22.75 5.64958 20.433 3.25 17.5371 3.25V4.75ZM10.2882 3.25C9.02029 3.25 7.79832 3.72155 6.84881 4.57257L7.84996 5.68958C8.52754 5.08227 9.39411 4.75 10.2882 4.75V3.25ZM16.4697 8.46967L13.4697 11.4697L14.5303 12.5303L17.5303 9.53033L16.4697 8.46967ZM13.4697 11.4697L10.4697 14.4697L11.5303 15.5303L14.5303 12.5303L13.4697 11.4697ZM14.5303 11.4697L11.5303 8.46967L10.4697 9.53033L13.4697 12.5303L14.5303 11.4697ZM13.4697 12.5303L16.4697 15.5303L17.5303 14.4697L14.5303 11.4697L13.4697 12.5303Z" fill="#28303F"/>
</svg>
