<svg width="24" height="24" viewBox="0 0 24 24" fill="none" xmlns="http://www.w3.org/2000/svg">
<path d="M15.25 16C15.25 16.4142 15.5858 16.75 16 16.75C16.4142 16.75 16.75 16.4142 16.75 16H15.25ZM8 10L7.58397 9.37596C7.23933 9.60573 7.1462 10.0714 7.37596 10.416L8 10ZM9.37596 13.416C9.60573 13.7607 10.0714 13.8538 10.416 13.624C10.7607 13.3943 10.8538 12.9286 10.624 12.584L9.37596 13.416ZM11.416 8.62404C11.7607 8.39427 11.8538 7.92862 11.624 7.58397C11.3943 7.23933 10.9286 7.1462 10.584 7.37596L11.416 8.62404ZM16.75 16C16.75 13.7091 15.5889 11.9912 13.916 10.876C12.2654 9.77554 10.1113 9.25 8 9.25V10.75C9.88875 10.75 11.7346 11.2245 13.084 12.124C14.4111 13.0088 15.25 14.2909 15.25 16H16.75ZM7.37596 10.416L9.37596 13.416L10.624 12.584L8.62404 9.58397L7.37596 10.416ZM8.41603 10.624L11.416 8.62404L10.584 7.37596L7.58397 9.37596L8.41603 10.624ZM6 2.75H18V1.25H6V2.75ZM21.25 6V18H22.75V6H21.25ZM18 21.25H6V22.75H18V21.25ZM2.75 18V6H1.25V18H2.75ZM6 21.25C4.20507 21.25 2.75 19.7949 2.75 18H1.25C1.25 20.6234 3.37665 22.75 6 22.75V21.25ZM21.25 18C21.25 19.7949 19.7949 21.25 18 21.25V22.75C20.6234 22.75 22.75 20.6234 22.75 18H21.25ZM18 2.75C19.7949 2.75 21.25 4.20507 21.25 6H22.75C22.75 3.37665 20.6234 1.25 18 1.25V2.75ZM6 1.25C3.37665 1.25 1.25 3.37665 1.25 6H2.75C2.75 4.20507 4.20507 2.75 6 2.75V1.25Z" fill="#28303F"/>
</svg>
