<svg width="24" height="24" viewBox="0 0 24 24" fill="none" xmlns="http://www.w3.org/2000/svg">
<path d="M14.5017 16.5606C14.8113 16.8357 15.2854 16.8079 15.5606 16.4983C15.8357 16.1887 15.8079 15.7146 15.4983 15.4394L14.5017 16.5606ZM8.50173 15.4394C8.19214 15.7146 8.16425 16.1887 8.43944 16.4983C8.71463 16.8079 9.18869 16.8357 9.49827 16.5606L8.50173 15.4394ZM18 1.25H6V2.75H18V1.25ZM1.25 6V18H2.75V6H1.25ZM6 22.75H18V21.25H6V22.75ZM22.75 18V6H21.25V18H22.75ZM18 22.75C20.6234 22.75 22.75 20.6234 22.75 18H21.25C21.25 19.7949 19.7949 21.25 18 21.25V22.75ZM1.25 18C1.25 20.6234 3.37665 22.75 6 22.75V21.25C4.20507 21.25 2.75 19.7949 2.75 18H1.25ZM6 1.25C3.37665 1.25 1.25 3.37665 1.25 6H2.75C2.75 4.20507 4.20507 2.75 6 2.75V1.25ZM18 2.75C19.7949 2.75 21.25 4.20507 21.25 6H22.75C22.75 3.37665 20.6234 1.25 18 1.25V2.75ZM16.25 10C16.25 10.1381 16.1381 10.25 16 10.25V11.75C16.9665 11.75 17.75 10.9665 17.75 10H16.25ZM16 10.25C15.8619 10.25 15.75 10.1381 15.75 10H14.25C14.25 10.9665 15.0335 11.75 16 11.75V10.25ZM15.75 10C15.75 9.86193 15.8619 9.75 16 9.75V8.25C15.0335 8.25 14.25 9.0335 14.25 10H15.75ZM16 9.75C16.1381 9.75 16.25 9.86193 16.25 10H17.75C17.75 9.0335 16.9665 8.25 16 8.25V9.75ZM8.25 10C8.25 10.1381 8.13807 10.25 8 10.25V11.75C8.9665 11.75 9.75 10.9665 9.75 10H8.25ZM8 10.25C7.86193 10.25 7.75 10.1381 7.75 10H6.25C6.25 10.9665 7.0335 11.75 8 11.75V10.25ZM7.75 10C7.75 9.86193 7.86193 9.75 8 9.75V8.25C7.0335 8.25 6.25 9.0335 6.25 10H7.75ZM8 9.75C8.13807 9.75 8.25 9.86193 8.25 10H9.75C9.75 9.0335 8.9665 8.25 8 8.25V9.75ZM15 16C15.4983 15.4394 15.498 15.4392 15.4978 15.439C15.4977 15.439 15.4975 15.4387 15.4973 15.4386C15.497 15.4383 15.4966 15.438 15.4962 15.4376C15.4955 15.437 15.4947 15.4363 15.4938 15.4355C15.492 15.4339 15.4899 15.4321 15.4876 15.4301C15.4829 15.426 15.477 15.421 15.47 15.4151C15.456 15.4033 15.4375 15.388 15.4145 15.3698C15.3685 15.3332 15.3045 15.2846 15.2232 15.2281C15.0609 15.1151 14.828 14.9695 14.5303 14.8251C13.935 14.5365 13.0732 14.25 12 14.25V15.75C12.8018 15.75 13.44 15.9635 13.8759 16.1749C14.0939 16.2805 14.2594 16.3849 14.3666 16.4594C14.4201 16.4966 14.4586 16.5261 14.4815 16.5443C14.4929 16.5534 14.5004 16.5596 14.5038 16.5625C14.5055 16.5639 14.5062 16.5645 14.5059 16.5642C14.5057 16.564 14.5053 16.5637 14.5046 16.5631C14.5042 16.5628 14.5038 16.5624 14.5033 16.562C14.5031 16.5618 14.5029 16.5616 14.5026 16.5613C14.5024 16.5612 14.5022 16.561 14.5022 16.5609C14.5019 16.5608 14.5017 16.5606 15 16ZM12 14.25C10.9268 14.25 10.065 14.5365 9.46967 14.8251C9.17202 14.9695 8.93911 15.1151 8.77678 15.2281C8.69549 15.2846 8.6315 15.3332 8.58552 15.3698C8.56251 15.388 8.54397 15.4033 8.52999 15.4151C8.523 15.421 8.51714 15.426 8.51243 15.4301C8.51007 15.4321 8.508 15.4339 8.50622 15.4355C8.50532 15.4363 8.5045 15.437 8.50376 15.4376C8.50338 15.438 8.50303 15.4383 8.50269 15.4386C8.50252 15.4387 8.50228 15.439 8.50219 15.439C8.50196 15.4392 8.50173 15.4394 9 16C9.49827 16.5606 9.49805 16.5608 9.49783 16.5609C9.49777 16.561 9.49755 16.5612 9.49742 16.5613C9.49715 16.5616 9.49689 16.5618 9.49666 16.562C9.49618 16.5624 9.49577 16.5628 9.49543 16.5631C9.49474 16.5637 9.49431 16.564 9.49414 16.5642C9.4938 16.5645 9.49449 16.5639 9.49619 16.5625C9.49961 16.5596 9.50707 16.5534 9.51849 16.5443C9.54136 16.5261 9.5799 16.4966 9.63338 16.4594C9.74057 16.3849 9.9061 16.2805 10.1241 16.1749C10.56 15.9635 11.1982 15.75 12 15.75V14.25Z" fill="#28303F"/>
</svg>
