<svg width="24" height="24" viewBox="0 0 24 24" fill="none" xmlns="http://www.w3.org/2000/svg">
<path d="M13.7981 14.8588C14.091 15.1516 14.5659 15.1516 14.8588 14.8588C15.1516 14.5659 15.1516 14.091 14.8588 13.7981L13.7981 14.8588ZM9.2019 8.14124C8.90901 7.84835 8.43413 7.84835 8.14124 8.14124C7.84835 8.43413 7.84835 8.90901 8.14124 9.2019L9.2019 8.14124ZM8.14124 13.7981C7.84835 14.091 7.84835 14.5659 8.14124 14.8588C8.43413 15.1516 8.90901 15.1516 9.2019 14.8588L8.14124 13.7981ZM14.8588 9.2019C15.1516 8.90901 15.1516 8.43413 14.8588 8.14124C14.5659 7.84835 14.091 7.84835 13.7981 8.14124L14.8588 9.2019ZM21.4697 22.5303C21.7626 22.8232 22.2374 22.8232 22.5303 22.5303C22.8232 22.2374 22.8232 21.7626 22.5303 21.4697L21.4697 22.5303ZM19.0303 17.9697C18.7374 17.6768 18.2626 17.6768 17.9697 17.9697C17.6768 18.2626 17.6768 18.7374 17.9697 19.0303L19.0303 17.9697ZM20.25 11.5C20.25 16.3325 16.3325 20.25 11.5 20.25V21.75C17.1609 21.75 21.75 17.1609 21.75 11.5H20.25ZM11.5 20.25C6.66751 20.25 2.75 16.3325 2.75 11.5H1.25C1.25 17.1609 5.83908 21.75 11.5 21.75V20.25ZM2.75 11.5C2.75 6.66751 6.66751 2.75 11.5 2.75V1.25C5.83908 1.25 1.25 5.83908 1.25 11.5H2.75ZM11.5 2.75C16.3325 2.75 20.25 6.66751 20.25 11.5H21.75C21.75 5.83908 17.1609 1.25 11.5 1.25V2.75ZM14.8588 13.7981L12.0303 10.9697L10.9697 12.0303L13.7981 14.8588L14.8588 13.7981ZM12.0303 10.9697L9.2019 8.14124L8.14124 9.2019L10.9697 12.0303L12.0303 10.9697ZM9.2019 14.8588L12.0303 12.0303L10.9697 10.9697L8.14124 13.7981L9.2019 14.8588ZM12.0303 12.0303L14.8588 9.2019L13.7981 8.14124L10.9697 10.9697L12.0303 12.0303ZM22.5303 21.4697L19.0303 17.9697L17.9697 19.0303L21.4697 22.5303L22.5303 21.4697Z" fill="#28303F"/>
</svg>
