<svg width="24" height="24" viewBox="0 0 24 24" fill="none" xmlns="http://www.w3.org/2000/svg">
<path d="M21.4697 22.5303C21.7626 22.8232 22.2374 22.8232 22.5303 22.5303C22.8232 22.2374 22.8232 21.7625 22.5303 21.4696L21.4697 22.5303ZM20.5304 19.4697C20.2375 19.1768 19.7626 19.1768 19.4697 19.4697C19.1768 19.7626 19.1768 20.2374 19.4697 20.5303L20.5304 19.4697ZM2.75 11.5C2.75 6.66751 6.66751 2.75 11.5 2.75V1.25C5.83908 1.25 1.25 5.83908 1.25 11.5H2.75ZM11.5 2.75C16.3325 2.75 20.25 6.66751 20.25 11.5H21.75C21.75 5.83908 17.1609 1.25 11.5 1.25V2.75ZM20.25 11.5C20.25 16.3325 16.3325 20.25 11.5 20.25V21.75C17.1609 21.75 21.75 17.1609 21.75 11.5H20.25ZM11.5 20.25C6.66751 20.25 2.75 16.3325 2.75 11.5H1.25C1.25 17.1609 5.83908 21.75 11.5 21.75V20.25ZM22.5303 21.4696L20.5304 19.4697L19.4697 20.5303L21.4697 22.5303L22.5303 21.4696Z" fill="#28303F"/>
</svg>
