<svg width="24" height="24" viewBox="0 0 24 24" fill="none" xmlns="http://www.w3.org/2000/svg">
<path d="M21.25 5.5C21.25 7.01878 20.0188 8.25 18.5 8.25V9.75C20.8472 9.75 22.75 7.84721 22.75 5.5H21.25ZM15.75 5.5C15.75 3.98122 16.9812 2.75 18.5 2.75V1.25C16.1528 1.25 14.25 3.15279 14.25 5.5H15.75ZM18.5 2.75C20.0188 2.75 21.25 3.98122 21.25 5.5H22.75C22.75 3.15279 20.8472 1.25 18.5 1.25V2.75ZM21.25 18.5C21.25 20.0188 20.0188 21.25 18.5 21.25V22.75C20.8472 22.75 22.75 20.8472 22.75 18.5H21.25ZM18.5 21.25C16.9812 21.25 15.75 20.0188 15.75 18.5H14.25C14.25 20.8472 16.1528 22.75 18.5 22.75V21.25ZM18.5 15.75C20.0188 15.75 21.25 16.9812 21.25 18.5H22.75C22.75 16.1528 20.8472 14.25 18.5 14.25V15.75ZM5.5 14.75C3.98122 14.75 2.75 13.5188 2.75 12H1.25C1.25 14.3472 3.15279 16.25 5.5 16.25V14.75ZM2.75 12C2.75 10.4812 3.98122 9.25 5.5 9.25V7.75C3.15279 7.75 1.25 9.65279 1.25 12H2.75ZM5.5 9.25C6.57552 9.25 7.50822 9.86729 7.96062 10.7703L9.30174 10.0985C8.6049 8.70751 7.16495 7.75 5.5 7.75V9.25ZM7.96062 10.7703C8.14556 11.1395 8.25 11.5565 8.25 12H9.75C9.75 11.318 9.5888 10.6715 9.30174 10.0985L7.96062 10.7703ZM8.25 12C8.25 12.4435 8.14556 12.8605 7.96062 13.2297L9.30174 13.9015C9.5888 13.3285 9.75 12.682 9.75 12H8.25ZM7.96062 13.2297C7.50822 14.1327 6.57552 14.75 5.5 14.75V16.25C7.16495 16.25 8.6049 15.2925 9.30174 13.9015L7.96062 13.2297ZM8.96659 11.1052L15.7042 7.73641L15.0334 6.39477L8.29577 9.76359L8.96659 11.1052ZM18.5 8.25C17.4245 8.25 16.4918 7.63271 16.0394 6.72966L14.6983 7.40152C15.3951 8.79249 16.8351 9.75 18.5 9.75V8.25ZM16.0394 6.72966C15.8544 6.36049 15.75 5.94352 15.75 5.5H14.25C14.25 6.18201 14.4112 6.82852 14.6983 7.40152L16.0394 6.72966ZM15.7042 16.2636L8.96659 12.8948L8.29577 14.2364L15.0334 17.6052L15.7042 16.2636ZM15.75 18.5C15.75 18.0565 15.8544 17.6395 16.0394 17.2703L14.6983 16.5985C14.4112 17.1715 14.25 17.818 14.25 18.5H15.75ZM16.0394 17.2703C16.4918 16.3673 17.4245 15.75 18.5 15.75V14.25C16.8351 14.25 15.3951 15.2075 14.6983 16.5985L16.0394 17.2703Z" fill="#28303F"/>
</svg>
