<svg width="24" height="24" viewBox="0 0 24 24" fill="none" xmlns="http://www.w3.org/2000/svg">
<path d="M7.25 16C7.25 16.4142 7.58579 16.75 8 16.75C8.41421 16.75 8.75 16.4142 8.75 16H7.25ZM16 10L16.624 10.416C16.8538 10.0714 16.7607 9.60573 16.416 9.37596L16 10ZM13.376 12.584C13.1462 12.9286 13.2393 13.3943 13.584 13.624C13.9286 13.8538 14.3943 13.7607 14.624 13.416L13.376 12.584ZM13.416 7.37596C13.0714 7.1462 12.6057 7.23933 12.376 7.58397C12.1462 7.92862 12.2393 8.39427 12.584 8.62404L13.416 7.37596ZM8.75 16C8.75 14.2909 9.58888 13.0088 10.916 12.124C12.2654 11.2245 14.1113 10.75 16 10.75V9.25C13.8887 9.25 11.7346 9.77554 10.084 10.876C8.41112 11.9912 7.25 13.7091 7.25 16H8.75ZM15.376 9.58397L13.376 12.584L14.624 13.416L16.624 10.416L15.376 9.58397ZM16.416 9.37596L13.416 7.37596L12.584 8.62404L15.584 10.624L16.416 9.37596ZM6 2.75H18V1.25H6V2.75ZM21.25 6V18H22.75V6H21.25ZM18 21.25H6V22.75H18V21.25ZM2.75 18V6H1.25V18H2.75ZM6 21.25C4.20507 21.25 2.75 19.7949 2.75 18H1.25C1.25 20.6234 3.37665 22.75 6 22.75V21.25ZM21.25 18C21.25 19.7949 19.7949 21.25 18 21.25V22.75C20.6234 22.75 22.75 20.6234 22.75 18H21.25ZM18 2.75C19.7949 2.75 21.25 4.20507 21.25 6H22.75C22.75 3.37665 20.6234 1.25 18 1.25V2.75ZM6 1.25C3.37665 1.25 1.25 3.37665 1.25 6H2.75C2.75 4.20507 4.20507 2.75 6 2.75V1.25Z" fill="#28303F"/>
</svg>
