<svg width="24" height="24" viewBox="0 0 24 24" fill="none" xmlns="http://www.w3.org/2000/svg">
<circle cx="12" cy="17" r="1" transform="rotate(-180 12 17)" fill="#28303F"/>
<path d="M11.25 14C11.25 14.4142 11.5858 14.75 12 14.75C12.4142 14.75 12.75 14.4142 12.75 14H11.25ZM12.75 7C12.75 6.58579 12.4142 6.25 12 6.25C11.5858 6.25 11.25 6.58579 11.25 7H12.75ZM5.33248 4.71069L5.01584 4.03081L5.33248 4.71069ZM10.3708 2.36419L10.6874 3.04407L10.3708 2.36419ZM13.6462 2.36419L13.9629 1.68431V1.68431L13.6462 2.36419ZM18.6646 4.70139L18.3479 5.38127L18.6646 4.70139ZM3.00617 8.57773L2.25732 8.61935L3.00617 8.57773ZM9.92759 21.3315L10.3616 20.7198L9.92759 21.3315ZM14.0899 21.3322L14.5245 21.9435L14.0899 21.3322ZM20.9925 8.60032L20.2439 8.55448V8.55449L20.9925 8.60032ZM12.75 14L12.75 7H11.25L11.25 14H12.75ZM5.64912 5.39057L10.6874 3.04407L10.0542 1.68431L5.01584 4.03081L5.64912 5.39057ZM13.3296 3.04407L18.3479 5.38127L18.9812 4.02151L13.9629 1.68431L13.3296 3.04407ZM2.25732 8.61935C2.44188 11.9397 3.00178 14.4152 4.17228 16.5067C5.34299 18.5987 7.08401 20.2337 9.49363 21.9432L10.3616 20.7198C8.03498 19.0693 6.49656 17.5885 5.48125 15.7742C4.46571 13.9595 3.93299 11.7381 3.75501 8.5361L2.25732 8.61935ZM14.5245 21.9435C16.9445 20.2226 18.6718 18.5722 19.831 16.4783C20.9891 14.3862 21.5405 11.9231 21.7411 8.64616L20.2439 8.55449C20.0501 11.7191 19.5256 13.9329 18.5186 15.7518C17.5128 17.5688 15.986 19.0636 13.6552 20.721L14.5245 21.9435ZM9.49363 21.9432C11.0074 23.0171 13.0097 23.0206 14.5245 21.9435L13.6552 20.721C12.6625 21.427 11.3571 21.4261 10.3616 20.7198L9.49363 21.9432ZM10.6874 3.04407C11.5293 2.65198 12.4877 2.65198 13.3296 3.04407L13.9629 1.68431C12.7195 1.10523 11.2975 1.10523 10.0542 1.68431L10.6874 3.04407ZM18.3479 5.38127C19.5443 5.93848 20.3273 7.19193 20.2439 8.55448L21.7411 8.64616C21.8633 6.64997 20.7198 4.83121 18.9812 4.02151L18.3479 5.38127ZM5.01584 4.03081C3.2896 4.83477 2.14701 6.63481 2.25732 8.61935L3.75501 8.5361C3.67985 7.18397 4.4607 5.94406 5.64912 5.39057L5.01584 4.03081Z" fill="#28303F"/>
</svg>
