<svg width="24" height="24" viewBox="0 0 24 24" fill="none" xmlns="http://www.w3.org/2000/svg">
<path d="M5.3777 4.94327L5.0731 4.25791L5.3777 4.94327ZM10.3755 2.72201L10.6801 3.40737L10.3755 2.72201ZM13.6246 2.72201L13.9292 2.03665V2.03665L13.6246 2.72201ZM18.6026 4.93446L18.298 5.61982L18.6026 4.93446ZM3.07008 8.6039L2.32135 8.64751L3.07008 8.6039ZM9.93588 20.6769L10.3563 20.0559H10.3563L9.93588 20.6769ZM14.0647 20.6776L14.4859 21.2982H14.4859L14.0647 20.6776ZM20.9119 8.62529L20.1634 8.57726V8.57726L20.9119 8.62529ZM9.4686 11.4143C9.14515 11.1556 8.67319 11.208 8.41443 11.5315C8.15567 11.8549 8.20811 12.3269 8.53156 12.5856L9.4686 11.4143ZM10.7529 13.4022L11.2214 12.8166L10.7529 13.4022ZM12.1302 13.2799L11.5657 12.786H11.5657L12.1302 13.2799ZM15.5645 10.4939C15.8373 10.1821 15.8057 9.70832 15.494 9.43555C15.1822 9.16279 14.7084 9.19438 14.4356 9.50611L15.5645 10.4939ZM5.68231 5.62863L10.6801 3.40737L10.0709 2.03665L5.0731 4.25791L5.68231 5.62863ZM13.32 3.40737L18.298 5.61982L18.9072 4.2491L13.9292 2.03665L13.32 3.40737ZM2.32135 8.64751C2.50483 11.7975 3.06194 14.1521 4.22908 16.1424C5.39497 18.1305 7.12629 19.6805 9.51542 21.298L10.3563 20.0559C8.04735 18.4927 6.52559 17.0933 5.52301 15.3836C4.52169 13.6761 3.99496 11.5845 3.81881 8.56029L2.32135 8.64751ZM14.4859 21.2982C16.8853 19.6699 18.6031 18.1053 19.7575 16.1152C20.9123 14.1246 21.4609 11.7819 21.6603 8.67331L20.1634 8.57726C19.9716 11.5664 19.4529 13.651 18.46 15.3626C17.4669 17.0747 15.9567 18.4873 13.6436 20.057L14.4859 21.2982ZM9.51542 21.298C11.0132 22.312 12.9872 22.3153 14.4859 21.2982L13.6436 20.057C12.6549 20.7279 11.3478 20.7271 10.3563 20.0559L9.51542 21.298ZM10.6801 3.40737C11.5205 3.03389 12.4797 3.03389 13.32 3.40737L13.9292 2.03665C12.7011 1.49079 11.2991 1.49079 10.0709 2.03665L10.6801 3.40737ZM18.298 5.61982C19.4908 6.14996 20.2437 7.32617 20.1634 8.57726L21.6603 8.67331C21.7841 6.74494 20.6258 5.01292 18.9072 4.2491L18.298 5.61982ZM5.0731 4.25791C3.36675 5.01628 2.20968 6.73038 2.32135 8.64751L3.81881 8.56029C3.7465 7.31884 4.49741 6.15525 5.68231 5.62863L5.0731 4.25791ZM8.53156 12.5856L10.2844 13.9879L11.2214 12.8166L9.4686 11.4143L8.53156 12.5856ZM12.6946 13.7738L15.5645 10.4939L14.4356 9.50611L11.5657 12.786L12.6946 13.7738ZM10.2844 13.9879C11.0157 14.5729 12.0779 14.4785 12.6946 13.7738L11.5657 12.786C11.4776 12.8867 11.3259 12.9002 11.2214 12.8166L10.2844 13.9879Z" fill="#28303F"/>
</svg>
