<svg width="24" height="24" viewBox="0 0 24 24" fill="none" xmlns="http://www.w3.org/2000/svg">
<path d="M2.88809 17.2628L2.15093 17.1246L2.88809 17.2628ZM21.1117 17.2628L21.8488 17.1246L21.1117 17.2628ZM19.6117 9.26285L18.8745 9.40106L19.6117 9.26285ZM4.38809 9.26285L5.12524 9.40106L4.38809 9.26285ZM11.9999 2.75C13.7948 2.75 15.2499 4.20507 15.2499 6H16.7499C16.7499 3.37665 14.6232 1.25 11.9999 1.25V2.75ZM11.9999 1.25C9.37652 1.25 7.24987 3.37665 7.24987 6H8.74987C8.74987 4.20507 10.2049 2.75 11.9999 2.75V1.25ZM8.31958 6.75H15.6802V5.25H8.31958V6.75ZM18.8745 9.40106L20.3745 17.4011L21.8488 17.1246L20.3488 9.12463L18.8745 9.40106ZM17.1802 21.25H6.81958V22.75H17.1802V21.25ZM3.62524 17.4011L5.12524 9.40106L3.65093 9.12463L2.15093 17.1246L3.62524 17.4011ZM6.81958 21.25C4.78463 21.25 3.25022 19.4012 3.62524 17.4011L2.15093 17.1246C1.60283 20.0478 3.84542 22.75 6.81958 22.75V21.25ZM20.3745 17.4011C20.7495 19.4012 19.2151 21.25 17.1802 21.25V22.75C20.1543 22.75 22.3969 20.0478 21.8488 17.1246L20.3745 17.4011ZM15.6802 6.75C17.2441 6.75 18.5863 7.8639 18.8745 9.40106L20.3488 9.12463C19.9276 6.87801 17.9659 5.25 15.6802 5.25V6.75ZM8.31958 5.25C6.0338 5.25 4.07217 6.87801 3.65093 9.12463L5.12524 9.40106C5.41346 7.8639 6.75563 6.75 8.31958 6.75V5.25Z" fill="#28303F"/>
</svg>
