<svg width="24" height="24" viewBox="0 0 24 24" fill="none" xmlns="http://www.w3.org/2000/svg">
<path d="M9.49827 14.4394C9.18869 14.1643 8.71463 14.1921 8.43944 14.5017C8.16425 14.8113 8.19214 15.2854 8.50173 15.5606L9.49827 14.4394ZM15.4983 15.5606C15.8079 15.2854 15.8357 14.8113 15.5606 14.5017C15.2854 14.1921 14.8113 14.1643 14.5017 14.4394L15.4983 15.5606ZM16.25 10C16.25 10.1381 16.1381 10.25 16 10.25V11.75C16.9665 11.75 17.75 10.9665 17.75 10H16.25ZM16 10.25C15.8619 10.25 15.75 10.1381 15.75 10H14.25C14.25 10.9665 15.0335 11.75 16 11.75V10.25ZM15.75 10C15.75 9.86193 15.8619 9.75 16 9.75V8.25C15.0335 8.25 14.25 9.0335 14.25 10H15.75ZM16 9.75C16.1381 9.75 16.25 9.86193 16.25 10H17.75C17.75 9.0335 16.9665 8.25 16 8.25V9.75ZM21.25 12C21.25 17.1086 17.1086 21.25 12 21.25V22.75C17.9371 22.75 22.75 17.9371 22.75 12H21.25ZM12 21.25C6.89137 21.25 2.75 17.1086 2.75 12H1.25C1.25 17.9371 6.06294 22.75 12 22.75V21.25ZM2.75 12C2.75 6.89137 6.89137 2.75 12 2.75V1.25C6.06294 1.25 1.25 6.06294 1.25 12H2.75ZM12 2.75C17.1086 2.75 21.25 6.89137 21.25 12H22.75C22.75 6.06294 17.9371 1.25 12 1.25V2.75ZM8.25 10C8.25 10.1381 8.13807 10.25 8 10.25V11.75C8.9665 11.75 9.75 10.9665 9.75 10H8.25ZM8 10.25C7.86193 10.25 7.75 10.1381 7.75 10H6.25C6.25 10.9665 7.0335 11.75 8 11.75V10.25ZM7.75 10C7.75 9.86193 7.86193 9.75 8 9.75V8.25C7.0335 8.25 6.25 9.0335 6.25 10H7.75ZM8 9.75C8.13807 9.75 8.25 9.86193 8.25 10H9.75C9.75 9.0335 8.9665 8.25 8 8.25V9.75ZM9 15C8.50173 15.5606 8.50196 15.5608 8.50219 15.561C8.50228 15.561 8.50252 15.5613 8.50269 15.5614C8.50303 15.5617 8.50338 15.562 8.50376 15.5624C8.5045 15.563 8.50532 15.5637 8.50622 15.5645C8.508 15.5661 8.51007 15.5679 8.51243 15.5699C8.51714 15.574 8.523 15.579 8.52999 15.5849C8.54397 15.5967 8.56251 15.612 8.58552 15.6302C8.6315 15.6668 8.69549 15.7154 8.77678 15.7719C8.93911 15.8849 9.17202 16.0305 9.46967 16.1749C10.065 16.4635 10.9268 16.75 12 16.75V15.25C11.1982 15.25 10.56 15.0365 10.1241 14.8251C9.9061 14.7195 9.74057 14.6151 9.63338 14.5406C9.5799 14.5034 9.54136 14.4739 9.51849 14.4557C9.50707 14.4466 9.49961 14.4404 9.49619 14.4375C9.49449 14.4361 9.4938 14.4355 9.49414 14.4358C9.49431 14.436 9.49474 14.4363 9.49543 14.4369C9.49577 14.4372 9.49618 14.4376 9.49666 14.438C9.49689 14.4382 9.49715 14.4384 9.49742 14.4387C9.49755 14.4388 9.49777 14.439 9.49783 14.4391C9.49805 14.4392 9.49827 14.4394 9 15ZM12 16.75C13.0732 16.75 13.935 16.4635 14.5303 16.1749C14.828 16.0305 15.0609 15.8849 15.2232 15.7719C15.3045 15.7154 15.3685 15.6668 15.4145 15.6302C15.4375 15.612 15.456 15.5967 15.47 15.5849C15.477 15.579 15.4829 15.574 15.4876 15.5699C15.4899 15.5679 15.492 15.5661 15.4938 15.5645C15.4947 15.5637 15.4955 15.563 15.4962 15.5624C15.4966 15.562 15.497 15.5617 15.4973 15.5614C15.4975 15.5613 15.4977 15.561 15.4978 15.561C15.498 15.5608 15.4983 15.5606 15 15C14.5017 14.4394 14.5019 14.4392 14.5022 14.4391C14.5022 14.439 14.5024 14.4388 14.5026 14.4387C14.5029 14.4384 14.5031 14.4382 14.5033 14.438C14.5038 14.4376 14.5042 14.4372 14.5046 14.4369C14.5053 14.4363 14.5057 14.436 14.5059 14.4358C14.5062 14.4355 14.5055 14.4361 14.5038 14.4375C14.5004 14.4404 14.4929 14.4466 14.4815 14.4557C14.4586 14.4739 14.4201 14.5034 14.3666 14.5406C14.2594 14.6151 14.0939 14.7195 13.8759 14.8251C13.44 15.0365 12.8018 15.25 12 15.25V16.75Z" fill="#28303F"/>
</svg>
