<svg width="24" height="24" viewBox="0 0 24 24" fill="none" xmlns="http://www.w3.org/2000/svg">
<path d="M12 5.25C11.5858 5.25 11.25 5.58579 11.25 6C11.25 6.41421 11.5858 6.75 12 6.75V5.25ZM21 6.75C21.4142 6.75 21.75 6.41421 21.75 6C21.75 5.58579 21.4142 5.25 21 5.25V6.75ZM12 11.25C11.5858 11.25 11.25 11.5858 11.25 12C11.25 12.4142 11.5858 12.75 12 12.75V11.25ZM18 12.75C18.4142 12.75 18.75 12.4142 18.75 12C18.75 11.5858 18.4142 11.25 18 11.25V12.75ZM12 17.25C11.5858 17.25 11.25 17.5858 11.25 18C11.25 18.4142 11.5858 18.75 12 18.75V17.25ZM15 18.75C15.4142 18.75 15.75 18.4142 15.75 18C15.75 17.5858 15.4142 17.25 15 17.25V18.75ZM2.43944 7.87673C2.16425 8.18631 2.19214 8.66037 2.50173 8.93556C2.81131 9.21075 3.28537 9.18286 3.56056 8.87327L2.43944 7.87673ZM4.50518 6.68167L3.94462 6.1834L3.94462 6.1834L4.50518 6.68167ZM7.49482 6.68167L8.05538 6.1834V6.1834L7.49482 6.68167ZM8.43944 8.87327C8.71463 9.18286 9.18869 9.21075 9.49827 8.93556C9.80786 8.66037 9.83575 8.18631 9.56056 7.87673L8.43944 8.87327ZM6.75 6C6.75 5.58579 6.41421 5.25 6 5.25C5.58579 5.25 5.25 5.58579 5.25 6H6.75ZM5.25 18C5.25 18.4142 5.58579 18.75 6 18.75C6.41421 18.75 6.75 18.4142 6.75 18H5.25ZM12 6.75H21V5.25H12V6.75ZM12 12.75H18V11.25H12V12.75ZM12 18.75H15V17.25H12V18.75ZM3.56056 8.87327L5.06574 7.17994L3.94462 6.1834L2.43944 7.87673L3.56056 8.87327ZM6.93426 7.17994L8.43944 8.87327L9.56056 7.87673L8.05538 6.1834L6.93426 7.17994ZM5.06574 7.17994C5.56298 6.62055 6.43702 6.62055 6.93426 7.17994L8.05538 6.1834C6.96145 4.95273 5.03855 4.95273 3.94462 6.1834L5.06574 7.17994ZM5.25 6V18H6.75V6H5.25Z" fill="#28303F"/>
</svg>
