<svg width="24" height="24" viewBox="0 0 24 24" fill="none" xmlns="http://www.w3.org/2000/svg">
<path d="M12 16.25C11.5858 16.25 11.25 16.5858 11.25 17C11.25 17.4142 11.5858 17.75 12 17.75V16.25ZM21 17.75C21.4142 17.75 21.75 17.4142 21.75 17C21.75 16.5858 21.4142 16.25 21 16.25V17.75ZM12 10.25C11.5858 10.25 11.25 10.5858 11.25 11C11.25 11.4142 11.5858 11.75 12 11.75V10.25ZM18 11.75C18.4142 11.75 18.75 11.4142 18.75 11C18.75 10.5858 18.4142 10.25 18 10.25V11.75ZM12 4.25C11.5858 4.25 11.25 4.58579 11.25 5C11.25 5.41421 11.5858 5.75 12 5.75V4.25ZM15 5.75C15.4142 5.75 15.75 5.41421 15.75 5C15.75 4.58579 15.4142 4.25 15 4.25V5.75ZM3.56056 14.1267C3.28537 13.8171 2.81131 13.7893 2.50173 14.0644C2.19214 14.3396 2.16425 14.8137 2.43944 15.1233L3.56056 14.1267ZM4.50518 16.3183L3.94462 16.8166H3.94462L4.50518 16.3183ZM7.49482 16.3183L8.05538 16.8166L7.49482 16.3183ZM9.56056 15.1233C9.83575 14.8137 9.80786 14.3396 9.49827 14.0644C9.18869 13.7893 8.71463 13.8171 8.43944 14.1267L9.56056 15.1233ZM5.25 17C5.25 17.4142 5.58579 17.75 6 17.75C6.41421 17.75 6.75 17.4142 6.75 17H5.25ZM6.75 5C6.75 4.58579 6.41421 4.25 6 4.25C5.58579 4.25 5.25 4.58579 5.25 5H6.75ZM12 17.75H21V16.25H12V17.75ZM12 11.75H18V10.25H12V11.75ZM12 5.75H15V4.25H12V5.75ZM2.43944 15.1233L3.94462 16.8166L5.06574 15.8201L3.56056 14.1267L2.43944 15.1233ZM8.05538 16.8166L9.56056 15.1233L8.43944 14.1267L6.93426 15.8201L8.05538 16.8166ZM3.94462 16.8166C5.03855 18.0473 6.96145 18.0473 8.05538 16.8166L6.93426 15.8201C6.43702 16.3794 5.56298 16.3794 5.06574 15.8201L3.94462 16.8166ZM6.75 17V5H5.25V17H6.75Z" fill="#28303F"/>
</svg>
