<svg width="24" height="24" viewBox="0 0 24 24" fill="none" xmlns="http://www.w3.org/2000/svg">
<path d="M12 5.25C11.5858 5.25 11.25 5.58579 11.25 6C11.25 6.41421 11.5858 6.75 12 6.75V5.25ZM21 6.75C21.4142 6.75 21.75 6.41421 21.75 6C21.75 5.58579 21.4142 5.25 21 5.25V6.75ZM12 11.25C11.5858 11.25 11.25 11.5858 11.25 12C11.25 12.4142 11.5858 12.75 12 12.75V11.25ZM18 12.75C18.4142 12.75 18.75 12.4142 18.75 12C18.75 11.5858 18.4142 11.25 18 11.25V12.75ZM12 17.25C11.5858 17.25 11.25 17.5858 11.25 18C11.25 18.4142 11.5858 18.75 12 18.75V17.25ZM15 18.75C15.4142 18.75 15.75 18.4142 15.75 18C15.75 17.5858 15.4142 17.25 15 17.25V18.75ZM3.56056 15.1267C3.28537 14.8171 2.81131 14.7893 2.50173 15.0644C2.19214 15.3396 2.16425 15.8137 2.43944 16.1233L3.56056 15.1267ZM4.50518 17.3183L3.94462 17.8166H3.94462L4.50518 17.3183ZM7.49482 17.3183L8.05538 17.8166L7.49482 17.3183ZM9.56056 16.1233C9.83575 15.8137 9.80786 15.3396 9.49827 15.0644C9.18869 14.7893 8.71463 14.8171 8.43944 15.1267L9.56056 16.1233ZM5.25 18C5.25 18.4142 5.58579 18.75 6 18.75C6.41421 18.75 6.75 18.4142 6.75 18H5.25ZM6.75 6C6.75 5.58579 6.41421 5.25 6 5.25C5.58579 5.25 5.25 5.58579 5.25 6H6.75ZM12 6.75H21V5.25H12V6.75ZM12 12.75H18V11.25H12V12.75ZM12 18.75H15V17.25H12V18.75ZM2.43944 16.1233L3.94462 17.8166L5.06574 16.8201L3.56056 15.1267L2.43944 16.1233ZM8.05538 17.8166L9.56056 16.1233L8.43944 15.1267L6.93426 16.8201L8.05538 17.8166ZM3.94462 17.8166C5.03855 19.0473 6.96145 19.0473 8.05538 17.8166L6.93426 16.8201C6.43702 17.3794 5.56298 17.3794 5.06574 16.8201L3.94462 17.8166ZM6.75 18V6H5.25V18H6.75Z" fill="#28303F"/>
</svg>
