<svg width="24" height="24" viewBox="0 0 24 24" fill="none" xmlns="http://www.w3.org/2000/svg">
<path d="M6.99037 7.44888L7.10241 8.19047L6.99037 7.44888ZM8.64211 6.20118L7.96457 5.87956L8.64211 6.20118ZM2.66488 11.8091L3.19874 11.2823H3.19874L2.66488 11.8091ZM3.88066 7.91869L3.76862 7.17711H3.76862L3.88066 7.91869ZM5.54599 16.1084L6.28599 16.2305L5.54599 16.1084ZM4.91508 14.0896L4.38122 14.6164H4.38122L4.91508 14.0896ZM8.19776 21.7329L7.83804 21.0748L8.19776 21.7329ZM5.01479 19.3286L4.27479 19.2065L5.01479 19.3286ZM13.0208 20.2126L12.6611 20.8707L13.0208 20.2126ZM10.9792 20.2126L11.3389 20.8707L10.9792 20.2126ZM18.9852 19.3285L19.7252 19.2065L18.9852 19.3285ZM15.8022 21.7329L16.162 21.0748L15.8022 21.7329ZM19.0849 14.0896L18.5511 13.5628L19.0849 14.0896ZM18.454 16.1084L17.714 16.2305L18.454 16.1084ZM20.1193 7.91869L20.2314 7.17711L20.1193 7.91869ZM21.3351 11.8091L21.869 12.3359L21.3351 11.8091ZM15.3579 6.20118L16.0354 5.87956L15.3579 6.20118ZM17.0096 7.44888L16.8976 8.19047L17.0096 7.44888ZM13.9672 3.27141L13.2896 3.59303L13.9672 3.27141ZM10.0328 3.27141L10.7104 3.59303L10.0328 3.27141ZM13.2896 3.59303L14.6804 6.52279L16.0354 5.87956L14.6447 2.94979L13.2896 3.59303ZM16.8976 8.19047L20.0073 8.66028L20.2314 7.17711L17.1217 6.7073L16.8976 8.19047ZM20.8013 11.2823L18.5511 13.5628L19.6188 14.6164L21.869 12.3359L20.8013 11.2823ZM17.714 16.2305L18.2452 19.4506L19.7252 19.2065L19.194 15.9863L17.714 16.2305ZM16.162 21.0748L13.3806 19.5545L12.6611 20.8707L15.4425 22.391L16.162 21.0748ZM10.6194 19.5545L7.83804 21.0748L8.55749 22.391L11.3389 20.8707L10.6194 19.5545ZM5.75478 19.4506L6.28599 16.2305L4.80599 15.9864L4.27479 19.2065L5.75478 19.4506ZM5.44895 13.5628L3.19874 11.2823L2.13101 12.3359L4.38122 14.6164L5.44895 13.5628ZM3.9927 8.66028L7.10241 8.19047L6.87834 6.7073L3.76862 7.17711L3.9927 8.66028ZM9.31965 6.52279L10.7104 3.59303L9.35527 2.9498L7.96457 5.87956L9.31965 6.52279ZM7.10241 8.19047C8.07261 8.04389 8.89716 7.41285 9.31965 6.52279L7.96457 5.87956C7.74798 6.33585 7.33717 6.63798 6.87834 6.7073L7.10241 8.19047ZM3.19874 11.2823C2.29899 10.3704 2.83886 8.8346 3.9927 8.66028L3.76862 7.17711C1.32379 7.54647 0.426747 10.6086 2.13101 12.3359L3.19874 11.2823ZM6.28599 16.2305C6.44624 15.259 6.13825 14.2614 5.44895 13.5628L4.38122 14.6164C4.72598 14.9658 4.88984 15.478 4.80599 15.9864L6.28599 16.2305ZM7.83804 21.0748C6.83659 21.6222 5.53796 20.765 5.75478 19.4506L4.27479 19.2065C3.87688 21.6186 6.34019 23.603 8.55749 22.391L7.83804 21.0748ZM13.3806 19.5545C12.5173 19.0826 11.4827 19.0826 10.6194 19.5545L11.3389 20.8707C11.7538 20.6439 12.2462 20.6439 12.6611 20.8707L13.3806 19.5545ZM18.2452 19.4506C18.462 20.765 17.1634 21.6222 16.162 21.0748L15.4425 22.391C17.6598 23.603 20.1231 21.6186 19.7252 19.2065L18.2452 19.4506ZM18.5511 13.5628C17.8618 14.2614 17.5538 15.259 17.714 16.2305L19.194 15.9863C19.1102 15.478 19.274 14.9658 19.6188 14.6164L18.5511 13.5628ZM20.0073 8.66028C21.1611 8.8346 21.701 10.3704 20.8013 11.2823L21.869 12.3359C23.5733 10.6086 22.6762 7.54647 20.2314 7.17711L20.0073 8.66028ZM14.6804 6.52279C15.1028 7.41285 15.9274 8.04389 16.8976 8.19047L17.1217 6.7073C16.6628 6.63798 16.252 6.33585 16.0354 5.87956L14.6804 6.52279ZM14.6447 2.94979C13.5689 0.683398 10.4311 0.683406 9.35527 2.9498L10.7104 3.59303C11.2439 2.46899 12.7561 2.46899 13.2896 3.59303L14.6447 2.94979Z" fill="#28303F"/>
</svg>
