<svg width="24" height="24" viewBox="0 0 24 24" fill="none" xmlns="http://www.w3.org/2000/svg">
<circle cx="12" cy="12" r="1" fill="#28303F"/>
<path d="M16.25 12C16.25 14.3472 14.3472 16.25 12 16.25V17.75C15.1756 17.75 17.75 15.1756 17.75 12H16.25ZM12 16.25C9.65279 16.25 7.75 14.3472 7.75 12H6.25C6.25 15.1756 8.82436 17.75 12 17.75V16.25ZM7.75 12C7.75 9.65279 9.65279 7.75 12 7.75V6.25C8.82436 6.25 6.25 8.82436 6.25 12H7.75ZM12 7.75C14.3472 7.75 16.25 9.65279 16.25 12H17.75C17.75 8.82436 15.1756 6.25 12 6.25V7.75ZM21.25 12C21.25 17.1086 17.1086 21.25 12 21.25V22.75C17.9371 22.75 22.75 17.9371 22.75 12H21.25ZM12 21.25C6.89137 21.25 2.75 17.1086 2.75 12H1.25C1.25 17.9371 6.06294 22.75 12 22.75V21.25ZM2.75 12C2.75 6.89137 6.89137 2.75 12 2.75V1.25C6.06294 1.25 1.25 6.06294 1.25 12H2.75ZM12 2.75C17.1086 2.75 21.25 6.89137 21.25 12H22.75C22.75 6.06294 17.9371 1.25 12 1.25V2.75Z" fill="#28303F"/>
</svg>
