<svg width="24" height="24" viewBox="0 0 24 24" fill="none" xmlns="http://www.w3.org/2000/svg">
<path d="M2.46852 12.4143C2.14507 12.1556 1.67311 12.208 1.41435 12.5315C1.15559 12.8549 1.20803 13.3269 1.53148 13.5857L2.46852 12.4143ZM5.52642 15.8211L5.0579 16.4068H5.0579L5.52642 15.8211ZM8.2624 15.5973L7.70493 15.0956L8.2624 15.5973ZM16.5575 7.50172C16.8346 7.19384 16.8096 6.71962 16.5017 6.44253C16.1938 6.16544 15.7196 6.19039 15.4425 6.49828L16.5575 7.50172ZM8.46852 12.4143C8.14507 12.1556 7.67311 12.208 7.41435 12.5315C7.15559 12.8549 7.20803 13.3269 7.53148 13.5857L8.46852 12.4143ZM11.5264 15.8211L11.0579 16.4068L11.5264 15.8211ZM14.2624 15.5973L13.7049 15.0956L14.2624 15.5973ZM22.5575 7.50172C22.8346 7.19384 22.8096 6.71962 22.5017 6.44253C22.1938 6.16544 21.7196 6.19039 21.4425 6.49828L22.5575 7.50172ZM1.53148 13.5857L5.0579 16.4068L5.99494 15.2355L2.46852 12.4143L1.53148 13.5857ZM8.81987 16.0991L16.5575 7.50172L15.4425 6.49828L7.70493 15.0956L8.81987 16.0991ZM5.0579 16.4068C6.19546 17.3168 7.84534 17.1819 8.81987 16.0991L7.70493 15.0956C7.26196 15.5878 6.51202 15.6491 5.99494 15.2355L5.0579 16.4068ZM7.53148 13.5857L11.0579 16.4068L11.9949 15.2355L8.46852 12.4143L7.53148 13.5857ZM14.8199 16.0991L22.5575 7.50172L21.4425 6.49828L13.7049 15.0956L14.8199 16.0991ZM11.0579 16.4068C12.1955 17.3168 13.8453 17.1819 14.8199 16.0991L13.7049 15.0956C13.262 15.5878 12.512 15.6491 11.9949 15.2355L11.0579 16.4068Z" fill="#28303F"/>
</svg>
