<svg width="24" height="24" viewBox="0 0 24 24" fill="none" xmlns="http://www.w3.org/2000/svg">
<path d="M19.7478 9.05752C19.7796 8.64453 19.4705 8.28398 19.0575 8.25221C18.6445 8.22044 18.284 8.52948 18.2522 8.94248L19.7478 9.05752ZM18.2841 18.3068L19.0319 18.3643L18.2841 18.3068ZM5.71591 18.3068L4.96812 18.3643L5.71591 18.3068ZM5.74779 8.94248C5.71602 8.52948 5.35547 8.22044 4.94248 8.25221C4.52948 8.28398 4.22044 8.64453 4.25221 9.05752L5.74779 8.94248ZM20.6714 7.6742C21.0438 7.85566 21.4927 7.70091 21.6742 7.32855C21.8557 6.9562 21.7009 6.50725 21.3286 6.3258L20.6714 7.6742ZM2.67145 6.3258C2.29909 6.50725 2.14434 6.9562 2.3258 7.32855C2.50725 7.70091 2.9562 7.85566 3.32855 7.6742L2.67145 6.3258ZM9.25 5C9.25 5.41421 9.58579 5.75 10 5.75C10.4142 5.75 10.75 5.41421 10.75 5H9.25ZM13.25 5C13.25 5.41421 13.5858 5.75 14 5.75C14.4142 5.75 14.75 5.41421 14.75 5H13.25ZM10.75 11C10.75 10.5858 10.4142 10.25 10 10.25C9.58579 10.25 9.25 10.5858 9.25 11H10.75ZM9.25 17C9.25 17.4142 9.58579 17.75 10 17.75C10.4142 17.75 10.75 17.4142 10.75 17H9.25ZM14.75 11C14.75 10.5858 14.4142 10.25 14 10.25C13.5858 10.25 13.25 10.5858 13.25 11H14.75ZM13.25 17C13.25 17.4142 13.5858 17.75 14 17.75C14.4142 17.75 14.75 17.4142 14.75 17H13.25ZM18.2522 8.94248L17.5363 18.2493L19.0319 18.3643L19.7478 9.05752L18.2522 8.94248ZM14.2959 21.25H9.70412V22.75H14.2959V21.25ZM6.4637 18.2493L5.74779 8.94248L4.25221 9.05752L4.96812 18.3643L6.4637 18.2493ZM9.70412 21.25C8.00588 21.25 6.59395 19.9425 6.4637 18.2493L4.96812 18.3643C5.15848 20.839 7.22208 22.75 9.70412 22.75V21.25ZM17.5363 18.2493C17.4061 19.9425 15.9941 21.25 14.2959 21.25V22.75C16.7779 22.75 18.8415 20.839 19.0319 18.3643L17.5363 18.2493ZM12 5.75C15.2043 5.75 18.1798 6.45998 20.6714 7.6742L21.3286 6.3258C18.6244 5.00798 15.423 4.25 12 4.25V5.75ZM3.32855 7.6742C5.82019 6.45998 8.79574 5.75 12 5.75V4.25C8.57695 4.25 5.37564 5.00798 2.67145 6.3258L3.32855 7.6742ZM10.75 5V4H9.25V5H10.75ZM13.25 4V5H14.75V4H13.25ZM12 2.75C12.6904 2.75 13.25 3.30964 13.25 4H14.75C14.75 2.48122 13.5188 1.25 12 1.25V2.75ZM10.75 4C10.75 3.30964 11.3096 2.75 12 2.75V1.25C10.4812 1.25 9.25 2.48122 9.25 4H10.75ZM9.25 11V17H10.75V11H9.25ZM13.25 11V17H14.75V11H13.25Z" fill="#28303F"/>
</svg>
