<svg width="24" height="24" viewBox="0 0 24 24" fill="none" xmlns="http://www.w3.org/2000/svg">
<path d="M5.75 8C5.75 7.58579 5.41421 7.25 5 7.25C4.58579 7.25 4.25 7.58579 4.25 8H5.75ZM19.75 8C19.75 7.58579 19.4142 7.25 19 7.25C18.5858 7.25 18.25 7.58579 18.25 8H19.75ZM14.75 11C14.75 10.5858 14.4142 10.25 14 10.25C13.5858 10.25 13.25 10.5858 13.25 11H14.75ZM13.25 17C13.25 17.4142 13.5858 17.75 14 17.75C14.4142 17.75 14.75 17.4142 14.75 17H13.25ZM10.75 11C10.75 10.5858 10.4142 10.25 10 10.25C9.58579 10.25 9.25 10.5858 9.25 11H10.75ZM9.25 17C9.25 17.4142 9.58579 17.75 10 17.75C10.4142 17.75 10.75 17.4142 10.75 17H9.25ZM21 5.75C21.4142 5.75 21.75 5.41421 21.75 5C21.75 4.58579 21.4142 4.25 21 4.25V5.75ZM3 4.25C2.58579 4.25 2.25 4.58579 2.25 5C2.25 5.41421 2.58579 5.75 3 5.75V4.25ZM14.5937 2.8906L13.9697 3.30662L14.5937 2.8906ZM9.40627 2.8906L8.78223 2.47457L9.40627 2.8906ZM9 22.75H15V21.25H9V22.75ZM4.25 8V18H5.75V8H4.25ZM19.75 18V8H18.25V18H19.75ZM15 22.75C17.6234 22.75 19.75 20.6234 19.75 18H18.25C18.25 19.7949 16.7949 21.25 15 21.25V22.75ZM9 21.25C7.20507 21.25 5.75 19.7949 5.75 18H4.25C4.25 20.6234 6.37665 22.75 9 22.75V21.25ZM13.25 11V17H14.75V11H13.25ZM9.25 11L9.25 17H10.75L10.75 11H9.25ZM11.0704 2.75H12.9296V1.25H11.0704V2.75ZM13.9697 3.30662L15.376 5.41603L16.624 4.58397L15.2178 2.47457L13.9697 3.30662ZM16 4.25H8V5.75H16V4.25ZM8.62404 5.41603L10.0303 3.30662L8.78223 2.47457L7.37596 4.58397L8.62404 5.41603ZM16 5.75H21V4.25H16V5.75ZM8 4.25H3V5.75H8V4.25ZM12.9296 2.75C13.3476 2.75 13.7379 2.95888 13.9697 3.30662L15.2178 2.47457C14.7077 1.70953 13.8491 1.25 12.9296 1.25V2.75ZM11.0704 1.25C10.1509 1.25 9.29226 1.70953 8.78223 2.47457L10.0303 3.30662C10.2621 2.95888 10.6524 2.75 11.0704 2.75V1.25Z" fill="#28303F"/>
</svg>
