<svg width="24" height="24" viewBox="0 0 24 24" fill="none" xmlns="http://www.w3.org/2000/svg">
<path d="M11.25 16C11.25 16.4142 11.5858 16.75 12 16.75C12.4142 16.75 12.75 16.4142 12.75 16H11.25ZM12.75 14C12.75 13.5858 12.4142 13.25 12 13.25C11.5858 13.25 11.25 13.5858 11.25 14H12.75ZM16 6L16.75 6.00001V6H16ZM7.88595 3.62446C7.67854 3.983 7.80107 4.4418 8.15961 4.6492C8.51816 4.85661 8.97695 4.73409 9.18436 4.37554L7.88595 3.62446ZM12.75 16V14H11.25V16H12.75ZM8 8.75H16V7.25H8V8.75ZM19.25 12V18H20.75V12H19.25ZM16 21.25H8V22.75H16V21.25ZM4.75 18V12H3.25V18H4.75ZM8 21.25C6.20508 21.25 4.75 19.7949 4.75 18H3.25C3.25 20.6234 5.37665 22.75 8 22.75V21.25ZM19.25 18C19.25 19.7949 17.7949 21.25 16 21.25V22.75C18.6234 22.75 20.75 20.6234 20.75 18H19.25ZM16 8.75C17.7949 8.75 19.25 10.2051 19.25 12H20.75C20.75 9.37665 18.6234 7.25 16 7.25V8.75ZM8 7.25C5.37665 7.25 3.25 9.37665 3.25 12H4.75C4.75 10.2051 6.20507 8.75 8 8.75V7.25ZM15.25 5.99999L15.25 7.99999L16.75 8.00001L16.75 6.00001L15.25 5.99999ZM12 2.75C13.795 2.75 15.25 4.20507 15.25 6H16.75C16.75 3.37665 14.6234 1.25 12 1.25V2.75ZM9.18436 4.37554C9.74743 3.40216 10.798 2.75 12 2.75V1.25C10.2409 1.25 8.70612 2.20663 7.88595 3.62446L9.18436 4.37554Z" fill="#28303F"/>
</svg>
