<svg width="24" height="24" viewBox="0 0 24 24" fill="none" xmlns="http://www.w3.org/2000/svg">
<path d="M18.5588 19.5488L19.051 20.1148L18.5588 19.5488ZM14.25 9C14.25 10.2426 13.2426 11.25 12 11.25V12.75C14.0711 12.75 15.75 11.0711 15.75 9H14.25ZM12 11.25C10.7574 11.25 9.75 10.2426 9.75 9H8.25C8.25 11.0711 9.92893 12.75 12 12.75V11.25ZM9.75 9C9.75 7.75736 10.7574 6.75 12 6.75V5.25C9.92893 5.25 8.25 6.92893 8.25 9H9.75ZM12 6.75C13.2426 6.75 14.25 7.75736 14.25 9H15.75C15.75 6.92893 14.0711 5.25 12 5.25V6.75ZM2.75 12C2.75 6.89137 6.89137 2.75 12 2.75V1.25C6.06294 1.25 1.25 6.06294 1.25 12H2.75ZM12 2.75C17.1086 2.75 21.25 6.89137 21.25 12H22.75C22.75 6.06294 17.9371 1.25 12 1.25V2.75ZM12 15.75C14.6806 15.75 16.9689 17.4379 17.8563 19.8115L19.2613 19.2862C18.1619 16.3456 15.3266 14.25 12 14.25V15.75ZM21.25 12C21.25 14.7872 20.0182 17.2859 18.0667 18.9829L19.051 20.1148C21.3161 18.145 22.75 15.2395 22.75 12H21.25ZM18.0667 18.9829C16.4422 20.3955 14.3218 21.25 12 21.25V22.75C14.6971 22.75 17.1639 21.7557 19.051 20.1148L18.0667 18.9829ZM6.14367 19.8115C7.0311 17.4379 9.31937 15.75 12 15.75V14.25C8.67338 14.25 5.8381 16.3456 4.73866 19.2862L6.14367 19.8115ZM12 21.25C9.67818 21.25 7.55781 20.3955 5.93331 18.9829L4.94902 20.1148C6.83607 21.7557 9.30286 22.75 12 22.75V21.25ZM5.93331 18.9829C3.98182 17.2859 2.75 14.7872 2.75 12H1.25C1.25 15.2395 2.68387 18.145 4.94902 20.1148L5.93331 18.9829Z" fill="#28303F"/>
</svg>
