<svg width="24" height="24" viewBox="0 0 24 24" fill="none" xmlns="http://www.w3.org/2000/svg">
<path d="M21.4697 20.5303C21.7626 20.8232 22.2374 20.8232 22.5303 20.5303C22.8232 20.2374 22.8232 19.7626 22.5303 19.4697L21.4697 20.5303ZM21.0303 17.9697C20.7374 17.6768 20.2626 17.6768 19.9697 17.9697C19.6768 18.2626 19.6768 18.7374 19.9697 19.0303L21.0303 17.9697ZM7 14.75C7.41421 14.75 7.75 14.4142 7.75 14C7.75 13.5858 7.41421 13.25 7 13.25V14.75ZM2 13.25C1.58579 13.25 1.25 13.5858 1.25 14C1.25 14.4142 1.58579 14.75 2 14.75V13.25ZM7 9.75C7.41421 9.75 7.75 9.41421 7.75 9C7.75 8.58579 7.41421 8.25 7 8.25V9.75ZM2 8.25C1.58579 8.25 1.25 8.58579 1.25 9C1.25 9.41421 1.58579 9.75 2 9.75V8.25ZM15 4.75C15.4142 4.75 15.75 4.41421 15.75 4C15.75 3.58579 15.4142 3.25 15 3.25V4.75ZM2 3.25C1.58579 3.25 1.25 3.58579 1.25 4C1.25 4.41421 1.58579 4.75 2 4.75V3.25ZM22.5303 19.4697L21.0303 17.9697L19.9697 19.0303L21.4697 20.5303L22.5303 19.4697ZM21.25 14C21.25 16.8995 18.8995 19.25 16 19.25V20.75C19.7279 20.75 22.75 17.7279 22.75 14H21.25ZM16 19.25C13.1005 19.25 10.75 16.8995 10.75 14H9.25C9.25 17.7279 12.2721 20.75 16 20.75V19.25ZM10.75 14C10.75 11.1005 13.1005 8.75 16 8.75V7.25C12.2721 7.25 9.25 10.2721 9.25 14H10.75ZM16 8.75C18.8995 8.75 21.25 11.1005 21.25 14H22.75C22.75 10.2721 19.7279 7.25 16 7.25V8.75ZM7 13.25H2V14.75H7V13.25ZM7 8.25H2V9.75H7V8.25ZM15 3.25H2V4.75H15V3.25Z" fill="#28303F"/>
</svg>
