<svg width="24" height="24" viewBox="0 0 24 24" fill="none" xmlns="http://www.w3.org/2000/svg">
<path d="M20.4697 21.5303C20.7626 21.8232 21.2374 21.8232 21.5303 21.5303C21.8232 21.2374 21.8232 20.7626 21.5303 20.4697L20.4697 21.5303ZM20.0303 18.9697C19.7374 18.6768 19.2626 18.6768 18.9697 18.9697C18.6768 19.2626 18.6768 19.7374 18.9697 20.0303L20.0303 18.9697ZM17 15.75C17.4142 15.75 17.75 15.4142 17.75 15C17.75 14.5858 17.4142 14.25 17 14.25V15.75ZM13 14.25C12.5858 14.25 12.25 14.5858 12.25 15C12.25 15.4142 12.5858 15.75 13 15.75V14.25ZM8.625 21.75C9.03921 21.75 9.375 21.4142 9.375 21C9.375 20.5858 9.03921 20.25 8.625 20.25V21.75ZM20.25 8.625C20.25 9.03921 20.5858 9.375 21 9.375C21.4142 9.375 21.75 9.03921 21.75 8.625H20.25ZM21.5303 20.4697L20.0303 18.9697L18.9697 20.0303L20.4697 21.5303L21.5303 20.4697ZM17 14.25H13V15.75H17V14.25ZM20.25 15C20.25 17.8995 17.8995 20.25 15 20.25V21.75C18.7279 21.75 21.75 18.7279 21.75 15H20.25ZM15 20.25C12.1005 20.25 9.75 17.8995 9.75 15H8.25C8.25 18.7279 11.2721 21.75 15 21.75V20.25ZM9.75 15C9.75 12.1005 12.1005 9.75 15 9.75V8.25C11.2721 8.25 8.25 11.2721 8.25 15H9.75ZM15 9.75C17.8995 9.75 20.25 12.1005 20.25 15H21.75C21.75 11.2721 18.7279 8.25 15 8.25V9.75ZM7 3.75H17V2.25H7V3.75ZM8.625 20.25H7V21.75H8.625V20.25ZM3.75 17V7H2.25V17H3.75ZM20.25 7V8.625H21.75V7H20.25ZM7 20.25C5.20507 20.25 3.75 18.7949 3.75 17H2.25C2.25 19.6234 4.37665 21.75 7 21.75V20.25ZM17 3.75C18.7949 3.75 20.25 5.20507 20.25 7H21.75C21.75 4.37665 19.6234 2.25 17 2.25V3.75ZM7 2.25C4.37665 2.25 2.25 4.37665 2.25 7H3.75C3.75 5.20507 5.20507 3.75 7 3.75V2.25Z" fill="#28303F"/>
</svg>
