<svg width="24" height="24" viewBox="0 0 24 24" fill="none" xmlns="http://www.w3.org/2000/svg">
<path opacity="0.4" d="M4.562 9.50386C4.81221 7.50215 6.51381 6 8.53111 6H15.4688C17.4861 6 19.1877 7.50215 19.438 9.50386L20.438 17.5039C20.7364 19.8913 18.8748 22 16.4688 22H7.53111C5.12511 22 3.26357 19.8913 3.562 17.5039L4.562 9.50386Z" fill="#28303F"/>
<path fill-rule="evenodd" clip-rule="evenodd" d="M8.25 5C8.25 2.92893 9.92893 1.25 12 1.25C14.0711 1.25 15.75 2.92893 15.75 5V7C15.75 7.41421 15.4142 7.75 15 7.75C14.5858 7.75 14.25 7.41421 14.25 7V5C14.25 3.75736 13.2426 2.75 12 2.75C10.7574 2.75 9.75 3.75736 9.75 5V7C9.75 7.41421 9.41421 7.75 9 7.75C8.58579 7.75 8.25 7.41421 8.25 7V5Z" fill="#28303F"/>
<path fill-rule="evenodd" clip-rule="evenodd" d="M9.34833 11.3486C9.64123 11.0557 10.1161 11.0557 10.409 11.3486L12 12.9396L13.591 11.3486C13.8839 11.0557 14.3588 11.0557 14.6517 11.3486C14.9446 11.6415 14.9446 12.1163 14.6517 12.4092L13.0607 14.0002L14.6516 15.5912C14.9445 15.8841 14.9445 16.359 14.6516 16.6519C14.3587 16.9448 13.8839 16.9448 13.591 16.6519L12 15.0609L10.409 16.6519C10.1161 16.9448 9.64126 16.9448 9.34837 16.6519C9.05547 16.359 9.05547 15.8841 9.34837 15.5912L10.9393 14.0002L9.34833 12.4092C9.05544 12.1163 9.05544 11.6415 9.34833 11.3486Z" fill="#28303F"/>
</svg>
