<svg width="24" height="24" viewBox="0 0 24 24" fill="none" xmlns="http://www.w3.org/2000/svg">
<path opacity="0.4" d="M4.562 9.50386C4.81221 7.50215 6.51381 6 8.53111 6H15.4688C17.4861 6 19.1877 7.50215 19.438 9.50386L20.438 17.5039C20.7364 19.8913 18.8748 22 16.4688 22H7.53111C5.12511 22 3.26357 19.8913 3.562 17.5039L4.562 9.50386Z" fill="#28303F"/>
<path fill-rule="evenodd" clip-rule="evenodd" d="M8.25 5C8.25 2.92893 9.92893 1.25 12 1.25C14.0711 1.25 15.75 2.92893 15.75 5V7C15.75 7.41421 15.4142 7.75 15 7.75C14.5858 7.75 14.25 7.41421 14.25 7V5C14.25 3.75736 13.2426 2.75 12 2.75C10.7574 2.75 9.75 3.75736 9.75 5V7C9.75 7.41421 9.41421 7.75 9 7.75C8.58579 7.75 8.25 7.41421 8.25 7V5Z" fill="#28303F"/>
</svg>
