<svg width="24" height="24" viewBox="0 0 24 24" fill="none" xmlns="http://www.w3.org/2000/svg">
<path fill-rule="evenodd" clip-rule="evenodd" d="M12.4801 1.42383C12.202 1.19206 11.798 1.19206 11.5198 1.42383L6.02844 6H8.37152L12 2.97628L15.6284 6H17.9715L12.4801 1.42383Z" fill="#28303F"/>
<path opacity="0.4" d="M2 9C2 7.34315 3.34315 6 5 6H19C20.6569 6 22 7.34315 22 9V19C22 20.6569 20.6569 22 19 22H5C3.34315 22 2 20.6569 2 19V9Z" fill="#28303F"/>
<path fill-rule="evenodd" clip-rule="evenodd" d="M6.25 10C6.25 9.58579 6.58579 9.25 7 9.25H17C17.4142 9.25 17.75 9.58579 17.75 10C17.75 10.4142 17.4142 10.75 17 10.75H7C6.58579 10.75 6.25 10.4142 6.25 10Z" fill="#28303F"/>
<path fill-rule="evenodd" clip-rule="evenodd" d="M6.25 14C6.25 13.5858 6.58579 13.25 7 13.25H17C17.4142 13.25 17.75 13.5858 17.75 14C17.75 14.4142 17.4142 14.75 17 14.75H7C6.58579 14.75 6.25 14.4142 6.25 14Z" fill="#28303F"/>
<path fill-rule="evenodd" clip-rule="evenodd" d="M6.25 18C6.25 17.5858 6.58579 17.25 7 17.25H12C12.4142 17.25 12.75 17.5858 12.75 18C12.75 18.4142 12.4142 18.75 12 18.75H7C6.58579 18.75 6.25 18.4142 6.25 18Z" fill="#28303F"/>
</svg>
