<svg width="24" height="24" viewBox="0 0 24 24" fill="none" xmlns="http://www.w3.org/2000/svg">
<path opacity="0.4" d="M2 7C2 4.79086 3.79086 3 6 3H18C20.2091 3 22 4.79086 22 7V17C22 19.2091 20.2091 21 18 21H6C3.79086 21 2 19.2091 2 17V7Z" fill="#28303F"/>
<path d="M2 7H22V11H2V7Z" fill="#28303F"/>
<path fill-rule="evenodd" clip-rule="evenodd" d="M5.25 17C5.25 16.5858 5.58579 16.25 6 16.25H8C8.41421 16.25 8.75 16.5858 8.75 17C8.75 17.4142 8.41421 17.75 8 17.75H6C5.58579 17.75 5.25 17.4142 5.25 17Z" fill="#28303F"/>
</svg>
