<svg width="24" height="24" viewBox="0 0 24 24" fill="none" xmlns="http://www.w3.org/2000/svg">
<path fill-rule="evenodd" clip-rule="evenodd" d="M2.75 1.25C2.33579 1.25 2 1.58579 2 2C2 2.41421 2.33579 2.75 2.75 2.75H4.75C5.44036 2.75 6 3.30964 6 4H7.5C7.5 2.48122 6.26878 1.25 4.75 1.25H2.75Z" fill="#28303F"/>
<path opacity="0.4" d="M6 4H18C20.2091 4 22 5.79086 22 8V13C22 15.2091 20.2091 17 18 17H10C7.79086 17 6 15.2091 6 13V4Z" fill="#28303F"/>
<circle cx="9.5" cy="20.5" r="1.5" fill="#28303F"/>
<circle cx="18.5" cy="20.5" r="1.5" fill="#28303F"/>
<path fill-rule="evenodd" clip-rule="evenodd" d="M17.6532 11.6318C17.8566 11.9926 17.729 12.45 17.3682 12.6535C16.1531 13.3386 15.1064 13.748 14.0027 13.7501C12.8977 13.7523 11.849 13.346 10.629 12.652C10.269 12.4472 10.1432 11.9893 10.348 11.6293C10.5528 11.2692 11.0107 11.1434 11.3707 11.3482C12.5069 11.9946 13.282 12.2515 13.9998 12.2501C14.719 12.2487 15.4943 11.988 16.6315 11.3468C16.9924 11.1434 17.4498 11.271 17.6532 11.6318Z" fill="#28303F"/>
</svg>
