<svg width="24" height="24" viewBox="0 0 24 24" fill="none" xmlns="http://www.w3.org/2000/svg">
<path fill-rule="evenodd" clip-rule="evenodd" d="M2.75 1.25C2.33579 1.25 2 1.58579 2 2C2 2.41421 2.33579 2.75 2.75 2.75H4.75C5.44036 2.75 6 3.30964 6 4H7.5C7.5 2.48122 6.26878 1.25 4.75 1.25H2.75Z" fill="#28303F"/>
<path opacity="0.4" d="M6 4H18C20.2091 4 22 5.79086 22 8V13C22 15.2091 20.2091 17 18 17H10C7.79086 17 6 15.2091 6 13V4Z" fill="#28303F"/>
<circle cx="9.5" cy="20.5" r="1.5" fill="#28303F"/>
<circle cx="18.5" cy="20.5" r="1.5" fill="#28303F"/>
<path fill-rule="evenodd" clip-rule="evenodd" d="M13.25 12.1895L12.5303 11.4698C12.2374 11.1769 11.7626 11.1769 11.4697 11.4698C11.1768 11.7627 11.1768 12.2376 11.4697 12.5305L12.7626 13.8234C13.446 14.5068 14.554 14.5068 15.2374 13.8234L16.5303 12.5305C16.8232 12.2376 16.8232 11.7627 16.5303 11.4698C16.2374 11.1769 15.7626 11.1769 15.4697 11.4698L14.75 12.1895V8.00015C14.75 7.58594 14.4142 7.25015 14 7.25015C13.5858 7.25015 13.25 7.58594 13.25 8.00015V12.1895Z" fill="#28303F"/>
</svg>
