<svg width="24" height="24" viewBox="0 0 24 24" fill="none" xmlns="http://www.w3.org/2000/svg">
<path fill-rule="evenodd" clip-rule="evenodd" d="M2.75 1.25C2.33579 1.25 2 1.58579 2 2C2 2.41421 2.33579 2.75 2.75 2.75H4.75C5.44036 2.75 6 3.30964 6 4H7.5C7.5 2.48122 6.26878 1.25 4.75 1.25H2.75Z" fill="#28303F"/>
<path opacity="0.4" d="M6 4H18C20.2091 4 22 5.79086 22 8V13C22 15.2091 20.2091 17 18 17H10C7.79086 17 6 15.2091 6 13V4Z" fill="#28303F"/>
<circle cx="9.5" cy="20.5" r="1.5" fill="#28303F"/>
<circle cx="18.5" cy="20.5" r="1.5" fill="#28303F"/>
<path fill-rule="evenodd" clip-rule="evenodd" d="M11.7018 8.20209C11.9947 7.9092 12.4696 7.9092 12.7625 8.20209L13.9999 9.43953L15.2374 8.20209C15.5303 7.9092 16.0051 7.9092 16.298 8.20209C16.5909 8.49499 16.5909 8.96986 16.298 9.26275L15.0606 10.5002L16.298 11.7376C16.5909 12.0305 16.5909 12.5054 16.298 12.7983C16.0051 13.0912 15.5303 13.0912 15.2374 12.7983L13.9999 11.5608L12.7625 12.7983C12.4696 13.0912 11.9947 13.0912 11.7018 12.7983C11.409 12.5054 11.409 12.0305 11.7018 11.7376L12.9393 10.5002L11.7018 9.26275C11.409 8.96986 11.409 8.49498 11.7018 8.20209Z" fill="#28303F"/>
</svg>
