<svg width="24" height="24" viewBox="0 0 24 24" fill="none" xmlns="http://www.w3.org/2000/svg">
<path fill-rule="evenodd" clip-rule="evenodd" d="M2.75 1.25C2.33579 1.25 2 1.58579 2 2C2 2.41421 2.33579 2.75 2.75 2.75H4.75C5.44036 2.75 6 3.30964 6 4H7.5C7.5 2.48122 6.26878 1.25 4.75 1.25H2.75Z" fill="#28303F"/>
<path opacity="0.4" d="M6 4H18C20.2091 4 22 5.79086 22 8V13C22 15.2091 20.2091 17 18 17H10C7.79086 17 6 15.2091 6 13V4Z" fill="#28303F"/>
<circle cx="9.5" cy="20.5" r="1.5" fill="#28303F"/>
<circle cx="18.5" cy="20.5" r="1.5" fill="#28303F"/>
<path fill-rule="evenodd" clip-rule="evenodd" d="M17.4939 8.43558C17.8056 8.70834 17.8372 9.18216 17.5645 9.49389L14.6946 12.7738C14.0779 13.4786 13.0156 13.5729 12.2843 12.9879L10.5315 11.5857C10.2081 11.3269 10.1556 10.8549 10.4144 10.5315C10.6731 10.208 11.1451 10.1556 11.4685 10.4144L13.2214 11.8166C13.3258 11.9002 13.4776 11.8867 13.5657 11.786L16.4356 8.50613C16.7084 8.1944 17.1822 8.16282 17.4939 8.43558Z" fill="#28303F"/>
</svg>
