<svg width="24" height="24" viewBox="0 0 24 24" fill="none" xmlns="http://www.w3.org/2000/svg">
<path fill-rule="evenodd" clip-rule="evenodd" d="M2.75 1.25C2.33579 1.25 2 1.58579 2 2C2 2.41421 2.33579 2.75 2.75 2.75H4.75C5.44036 2.75 6 3.30964 6 4H7.5C7.5 2.48122 6.26878 1.25 4.75 1.25H2.75Z" fill="#28303F"/>
<path opacity="0.4" d="M6 4H18C20.2091 4 22 5.79086 22 8V13C22 15.2091 20.2091 17 18 17H10C7.79086 17 6 15.2091 6 13V4Z" fill="#28303F"/>
<circle cx="9.5" cy="20.5" r="1.5" fill="#28303F"/>
<circle cx="18.5" cy="20.5" r="1.5" fill="#28303F"/>
<path fill-rule="evenodd" clip-rule="evenodd" d="M13.25 9.39645L12.5303 10.1161C12.2374 10.409 11.7626 10.409 11.4697 10.1161C11.1768 9.82322 11.1768 9.34835 11.4697 9.05546L12.7626 7.76256C13.446 7.07915 14.554 7.07914 15.2374 7.76256L16.5303 9.05546C16.8232 9.34835 16.8232 9.82322 16.5303 10.1161C16.2374 10.409 15.7626 10.409 15.4697 10.1161L14.75 9.39645V13.5858C14.75 14 14.4142 14.3358 14 14.3358C13.5858 14.3358 13.25 14 13.25 13.5858V9.39645Z" fill="#28303F"/>
</svg>
