<svg width="24" height="24" viewBox="0 0 24 24" fill="none" xmlns="http://www.w3.org/2000/svg">
<path fill-rule="evenodd" clip-rule="evenodd" d="M12.75 13.9961V21.25H15C15.4142 21.25 15.75 21.5858 15.75 22C15.75 22.4142 15.4142 22.75 15 22.75H9C8.58579 22.75 8.25 22.4142 8.25 22C8.25 21.5858 8.58579 21.25 9 21.25H11.25V13.9961H12.75Z" fill="#28303F"/>
<path opacity="0.4" d="M11.2326 14L12.7674 14C17.1094 14 20.0137 9.53089 18.2503 5.56317L16.9306 2.59386C16.7701 2.23273 16.412 2 16.0168 2L7.98319 2C7.588 2 7.22988 2.23273 7.06938 2.59386L5.74969 5.56317C3.98626 9.53089 6.89061 14 11.2326 14Z" fill="#28303F"/>
<path fill-rule="evenodd" clip-rule="evenodd" d="M12.8354 4.32934C13.2059 4.51459 13.3561 4.96509 13.1708 5.33557L12.2135 7.25016H13C13.2599 7.25016 13.5013 7.38475 13.638 7.60587C13.7746 7.82698 13.7871 8.10308 13.6708 8.33557L12.1708 11.3356C11.9856 11.7061 11.5351 11.8562 11.1646 11.671C10.7941 11.4857 10.6439 11.0352 10.8292 10.6648L11.7865 8.75016H11C10.7401 8.75016 10.4987 8.61558 10.362 8.39446C10.2254 8.17335 10.2129 7.89725 10.3292 7.66475L11.8292 4.66475C12.0144 4.29427 12.4649 4.1441 12.8354 4.32934Z" fill="#28303F"/>
</svg>
