<svg width="24" height="24" viewBox="0 0 24 24" fill="none" xmlns="http://www.w3.org/2000/svg">
<path opacity="0.4" d="M3 6C3 3.79086 4.79086 2 7 2H17C19.2091 2 21 3.79086 21 6V18C21 20.2091 19.2091 22 17 22H7C4.79086 22 3 20.2091 3 18V6Z" fill="#28303F"/>
<path fill-rule="evenodd" clip-rule="evenodd" d="M17.75 7C17.75 7.41421 17.4142 7.75 17 7.75L7 7.75C6.58579 7.75 6.25 7.41421 6.25 7C6.25 6.58579 6.58579 6.25 7 6.25L17 6.25C17.4142 6.25 17.75 6.58579 17.75 7Z" fill="#28303F"/>
<path fill-rule="evenodd" clip-rule="evenodd" d="M17.75 12C17.75 12.4142 17.4142 12.75 17 12.75L7 12.75C6.58579 12.75 6.25 12.4142 6.25 12C6.25 11.5858 6.58579 11.25 7 11.25L17 11.25C17.4142 11.25 17.75 11.5858 17.75 12Z" fill="#28303F"/>
<path fill-rule="evenodd" clip-rule="evenodd" d="M12.75 17C12.75 17.4142 12.4142 17.75 12 17.75L7 17.75C6.58579 17.75 6.25 17.4142 6.25 17C6.25 16.5858 6.58579 16.25 7 16.25L12 16.25C12.4142 16.25 12.75 16.5858 12.75 17Z" fill="#28303F"/>
</svg>
