<svg width="24" height="24" viewBox="0 0 24 24" fill="none" xmlns="http://www.w3.org/2000/svg">
<path d="M14.0859 7L9.91411 7L8.51303 5.39296C7.13959 3.81763 8.74185 1.46298 10.7471 2.10985L11.6748 2.40914C11.8861 2.47728 12.1139 2.47728 12.3252 2.40914L13.2529 2.10985C15.2582 1.46298 16.8604 3.81763 15.487 5.39296L14.0859 7Z" fill="#28303F"/>
<path opacity="0.4" d="M5.68429 10.2103C6.46705 7.7055 8.78686 6 11.4112 6H12.5889C15.2132 6 17.533 7.7055 18.3158 10.2104L19.5658 14.2104C20.7731 18.0739 17.8867 22 13.8389 22H10.1612C6.11332 22 3.22692 18.0739 4.43429 14.2104L5.68429 10.2103Z" fill="#28303F"/>
<path fill-rule="evenodd" clip-rule="evenodd" d="M15.6559 17.6362C15.8569 17.9983 15.7263 18.4549 15.3641 18.6559C14.1111 19.3514 13.0397 19.7518 11.9342 19.7473C10.8249 19.7428 9.79383 19.3312 8.62229 18.648C8.26448 18.4393 8.14358 17.9801 8.35225 17.6223C8.56092 17.2645 9.02014 17.1436 9.37795 17.3523C10.4608 17.9838 11.2186 18.2444 11.9403 18.2473C12.6656 18.2503 13.467 17.9933 14.6361 17.3444C14.9983 17.1434 15.4549 17.274 15.6559 17.6362Z" fill="#28303F"/>
</svg>
