<svg width="24" height="25" viewBox="0 0 24 25" fill="none" xmlns="http://www.w3.org/2000/svg">
<path opacity="0.4" d="M22 18.5V7.46126C22 6.8537 21.7238 6.27907 21.2494 5.89953L18.0957 3.37654C17.3864 2.80914 16.5052 2.50001 15.5969 2.50001L8.40313 2.5C7.49484 2.5 6.6136 2.80912 5.90434 3.37653L2.75061 5.89953C2.27618 6.27907 2 6.85369 2 7.46126V18.5C2 20.7092 3.79086 22.5 6 22.5H18C20.2091 22.5 22 20.7092 22 18.5Z" fill="#28303F"/>
<path d="M9 6.5H15V12.5L12 10.5L9 12.5V6.5Z" fill="#28303F"/>
<path d="M15.5968 2.50001L8.40307 2.5C7.49478 2.5 6.61354 2.80912 5.90428 3.37653L2.75055 5.89953C2.54181 6.06652 2.37144 6.27128 2.24609 6.5H21.7538C21.6284 6.27128 21.4581 6.06652 21.2493 5.89953L18.0956 3.37654C17.3863 2.80914 16.5051 2.50001 15.5968 2.50001Z" fill="#28303F"/>
</svg>
