<svg width="24" height="24" viewBox="0 0 24 24" fill="none" xmlns="http://www.w3.org/2000/svg">
<path opacity="0.4" fill-rule="evenodd" clip-rule="evenodd" d="M8 2.75C7.30964 2.75 6.75 3.30964 6.75 4V7C6.75 7.41421 6.41421 7.75 6 7.75C5.58579 7.75 5.25 7.41421 5.25 7V4C5.25 2.48122 6.48122 1.25 8 1.25H16C17.5188 1.25 18.75 2.48122 18.75 4V7C18.75 7.41421 18.4142 7.75 18 7.75C17.5858 7.75 17.25 7.41421 17.25 7V4C17.25 3.30964 16.6904 2.75 16 2.75H8Z" fill="#28303F"/>
<path opacity="0.4" d="M20.282 18.808C19.9021 20.6666 18.2806 22 16.4002 22H7.59978C5.71942 22 4.09787 20.6666 3.71804 18.808L2.08312 10.808C1.57594 8.32624 3.45403 6 5.96486 6L18.0351 6C20.546 6 22.4241 8.32624 21.9169 10.808L20.282 18.808Z" fill="#28303F"/>
<path d="M18.0351 6H5.96486C3.72938 6 1.99546 7.84401 2.00001 10H22C22.0045 7.84401 20.2706 6 18.0351 6Z" fill="#28303F"/>
<path fill-rule="evenodd" clip-rule="evenodd" d="M9 13.25C9.41421 13.25 9.75 13.5858 9.75 14L9.75 18C9.75 18.4142 9.41421 18.75 9 18.75C8.58579 18.75 8.25 18.4142 8.25 18L8.25 14C8.25 13.5858 8.58579 13.25 9 13.25Z" fill="#28303F"/>
<path fill-rule="evenodd" clip-rule="evenodd" d="M15 13.25C15.4142 13.25 15.75 13.5858 15.75 14L15.75 18C15.75 18.4142 15.4142 18.75 15 18.75C14.5858 18.75 14.25 18.4142 14.25 18L14.25 14C14.25 13.5858 14.5858 13.25 15 13.25Z" fill="#28303F"/>
</svg>
