<svg width="24" height="24" viewBox="0 0 24 24" fill="none" xmlns="http://www.w3.org/2000/svg">
<path opacity="0.4" fill-rule="evenodd" clip-rule="evenodd" d="M9.38588 1.35687C9.74107 1.56998 9.85624 2.03068 9.64313 2.38586L6.64313 7.38586C6.43002 7.74105 5.96932 7.85622 5.61414 7.64311C5.25895 7.43 5.14378 6.9693 5.35689 6.61412L8.35689 1.61412C8.57 1.25893 9.0307 1.14376 9.38588 1.35687Z" fill="#28303F"/>
<path opacity="0.4" fill-rule="evenodd" clip-rule="evenodd" d="M18.3859 7.64311C18.0307 7.85622 17.57 7.74105 17.3569 7.38586L14.3569 2.38586C14.1438 2.03068 14.259 1.56998 14.6141 1.35687C14.9693 1.14376 15.43 1.25893 15.6431 1.61412L18.6431 6.61412C18.8562 6.96931 18.7411 7.43 18.3859 7.64311Z" fill="#28303F"/>
<path opacity="0.4" d="M20.282 18.808C19.9021 20.6666 18.2806 22 16.4002 22H7.59978C5.71942 22 4.09787 20.6666 3.71804 18.808L2.08312 10.808C1.57594 8.32624 3.45403 6 5.96486 6L18.0351 6C20.546 6 22.4241 8.32624 21.9169 10.808L20.282 18.808Z" fill="#28303F"/>
<path d="M18.0351 6H5.96486C3.72938 6 1.99546 7.84401 2.00001 10H22C22.0045 7.84401 20.2706 6 18.0351 6Z" fill="#28303F"/>
<path fill-rule="evenodd" clip-rule="evenodd" d="M14.6516 13.3483C14.9445 13.6412 14.9445 14.1161 14.6516 14.409L13.0606 16L14.6516 17.591C14.9445 17.8839 14.9445 18.3587 14.6516 18.6516C14.3587 18.9445 13.8839 18.9445 13.591 18.6516L12 17.0606L10.409 18.6516C10.1161 18.9445 9.64123 18.9445 9.34833 18.6516C9.05544 18.3587 9.05544 17.8839 9.34833 17.591L10.9393 16L9.34833 14.409C9.05544 14.1161 9.05544 13.6412 9.34833 13.3483C9.64123 13.0554 10.1161 13.0554 10.409 13.3483L12 14.9393L13.591 13.3483C13.8839 13.0554 14.3587 13.0554 14.6516 13.3483Z" fill="#28303F"/>
</svg>
