<svg width="24" height="24" viewBox="0 0 24 24" fill="none" xmlns="http://www.w3.org/2000/svg">
<path opacity="0.4" d="M15.6115 3H8.38848C6.43313 3 4.76436 4.41365 4.44291 6.3424L2.77624 16.3424C2.36988 18.7805 4.25006 21 6.72182 21H17.2781C19.7499 21 21.6301 18.7805 21.2237 16.3424L19.557 6.3424C19.2356 4.41365 17.5668 3 15.6115 3Z" fill="#28303F"/>
<path fill-rule="evenodd" clip-rule="evenodd" d="M15.75 7C15.75 9.07107 14.0711 10.75 12 10.75C9.92893 10.75 8.25 9.07107 8.25 7L8.25 6C8.25 5.58579 8.58579 5.25 9 5.25C9.41421 5.25 9.75 5.58579 9.75 6L9.75 7C9.75 8.24264 10.7574 9.25 12 9.25C13.2426 9.25 14.25 8.24264 14.25 7L14.25 6C14.25 5.58579 14.5858 5.25 15 5.25C15.4142 5.25 15.75 5.58579 15.75 6L15.75 7Z" fill="#28303F"/>
</svg>
