<svg width="24" height="24" viewBox="0 0 24 24" fill="none" xmlns="http://www.w3.org/2000/svg">
<path opacity="0.4" d="M15.6115 3H8.38848C6.43313 3 4.76436 4.41365 4.44291 6.3424L2.77624 16.3424C2.36988 18.7805 4.25006 21 6.72182 21H17.2781C19.7499 21 21.6301 18.7805 21.2237 16.3424L19.557 6.3424C19.2356 4.41365 17.5668 3 15.6115 3Z" fill="#28303F"/>
<path fill-rule="evenodd" clip-rule="evenodd" d="M15.75 7C15.75 9.07107 14.0711 10.75 12 10.75C9.92893 10.75 8.25 9.07107 8.25 7L8.25 6C8.25 5.58579 8.58579 5.25 9 5.25C9.41421 5.25 9.75 5.58579 9.75 6L9.75 7C9.75 8.24264 10.7574 9.25 12 9.25C13.2426 9.25 14.25 8.24264 14.25 7L14.25 6C14.25 5.58579 14.5858 5.25 15 5.25C15.4142 5.25 15.75 5.58579 15.75 6L15.75 7Z" fill="#28303F"/>
<path fill-rule="evenodd" clip-rule="evenodd" d="M21.6516 15.3486C21.9445 15.6415 21.9445 16.1163 21.6516 16.4092L20.0606 18.0002L21.6516 19.5912C21.9445 19.8841 21.9445 20.359 21.6516 20.6519C21.3587 20.9448 20.8839 20.9448 20.591 20.6519L19 19.0609L17.409 20.6519C17.1161 20.9448 16.6412 20.9448 16.3483 20.6519C16.0554 20.359 16.0554 19.8841 16.3483 19.5912L17.9393 18.0002L16.3483 16.4092C16.0554 16.1163 16.0554 15.6415 16.3483 15.3486C16.6412 15.0557 17.1161 15.0557 17.409 15.3486L19 16.9396L20.591 15.3486C20.8839 15.0557 21.3587 15.0557 21.6516 15.3486Z" fill="#28303F"/>
</svg>
