<svg width="24" height="24" viewBox="0 0 24 24" fill="none" xmlns="http://www.w3.org/2000/svg">
<path opacity="0.4" fill-rule="evenodd" clip-rule="evenodd" d="M17.5303 1.46967C17.8232 1.76256 17.8232 2.23744 17.5303 2.53033L12.5303 7.53033C12.2374 7.82322 11.7626 7.82322 11.4697 7.53033C11.1768 7.23744 11.1768 6.76256 11.4697 6.46967L16.4697 1.46967C16.7626 1.17678 17.2374 1.17678 17.5303 1.46967Z" fill="#28303F"/>
<path opacity="0.4" d="M20.282 18.808C19.9021 20.6666 18.2806 22 16.4002 22H7.59978C5.71942 22 4.09787 20.6666 3.71804 18.808L2.08312 10.808C1.57594 8.32624 3.45403 6 5.96486 6L18.0351 6C20.546 6 22.4241 8.32624 21.9169 10.808L20.282 18.808Z" fill="#28303F"/>
<path d="M18.0351 6H5.96486C3.72938 6 1.99546 7.84401 2.00001 10H22C22.0045 7.84401 20.2706 6 18.0351 6Z" fill="#28303F"/>
<path fill-rule="evenodd" clip-rule="evenodd" d="M9 13.25C9.41421 13.25 9.75 13.5858 9.75 14L9.75 18C9.75 18.4142 9.41421 18.75 9 18.75C8.58579 18.75 8.25 18.4142 8.25 18L8.25 14C8.25 13.5858 8.58579 13.25 9 13.25Z" fill="#28303F"/>
<path fill-rule="evenodd" clip-rule="evenodd" d="M15 13.25C15.4142 13.25 15.75 13.5858 15.75 14L15.75 18C15.75 18.4142 15.4142 18.75 15 18.75C14.5858 18.75 14.25 18.4142 14.25 18L14.25 14C14.25 13.5858 14.5858 13.25 15 13.25Z" fill="#28303F"/>
</svg>
