<svg width="24" height="24" viewBox="0 0 24 24" fill="none" xmlns="http://www.w3.org/2000/svg">
<path opacity="0.4" fill-rule="evenodd" clip-rule="evenodd" d="M9.38588 1.35687C9.74107 1.56998 9.85624 2.03068 9.64313 2.38586L6.64313 7.38586C6.43002 7.74105 5.96932 7.85622 5.61414 7.64311C5.25895 7.43 5.14378 6.9693 5.35689 6.61412L8.35689 1.61412C8.57 1.25893 9.0307 1.14376 9.38588 1.35687Z" fill="#28303F"/>
<path opacity="0.4" fill-rule="evenodd" clip-rule="evenodd" d="M18.3859 7.64311C18.0307 7.85622 17.57 7.74105 17.3569 7.38586L14.3569 2.38586C14.1438 2.03068 14.259 1.56998 14.6141 1.35687C14.9693 1.14376 15.43 1.25893 15.6431 1.61412L18.6431 6.61412C18.8562 6.96931 18.7411 7.43 18.3859 7.64311Z" fill="#28303F"/>
<path opacity="0.4" d="M20.282 18.808C19.9021 20.6666 18.2806 22 16.4002 22H7.59978C5.71942 22 4.09787 20.6666 3.71804 18.808L2.08312 10.808C1.57594 8.32624 3.45403 6 5.96486 6L18.0351 6C20.546 6 22.4241 8.32624 21.9169 10.808L20.282 18.808Z" fill="#28303F"/>
<path d="M18.0351 6H5.96486C3.72938 6 1.99546 7.84401 2.00001 10H22C22.0045 7.84401 20.2706 6 18.0351 6Z" fill="#28303F"/>
<path fill-rule="evenodd" clip-rule="evenodd" d="M11.25 17.1894L10.5303 16.4697C10.2374 16.1768 9.76256 16.1768 9.46967 16.4697C9.17678 16.7626 9.17678 17.2375 9.46967 17.5304L10.7626 18.8233C11.446 19.5067 12.554 19.5067 13.2374 18.8233L14.5303 17.5304C14.8232 17.2375 14.8232 16.7626 14.5303 16.4697C14.2374 16.1768 13.7626 16.1768 13.4697 16.4697L12.75 17.1894V13C12.75 12.5858 12.4142 12.25 12 12.25C11.5858 12.25 11.25 12.5858 11.25 13V17.1894Z" fill="#28303F"/>
</svg>
