<svg width="24" height="24" viewBox="0 0 24 24" fill="none" xmlns="http://www.w3.org/2000/svg">
<path opacity="0.4" d="M21 18V7H3V18C3 20.2091 4.79086 22 7 22H17C19.2091 22 21 20.2091 21 18Z" fill="#28303F"/>
<path d="M22 8.25V6C22 3.79086 20.2091 2 18 2H6C3.79086 2 2 3.79086 2 6V8.25C2 10.3211 3.49238 12 5.33333 12C7.17428 12 8.66667 10.3211 8.66667 8.25C8.66667 10.3211 10.1591 12 12 12C13.8409 12 15.3333 10.3211 15.3333 8.25C15.3333 10.3211 16.8257 12 18.6667 12C20.5076 12 22 10.3211 22 8.25Z" fill="#28303F"/>
<path fill-rule="evenodd" clip-rule="evenodd" d="M15.6532 17.6318C15.8566 17.9926 15.729 18.45 15.3682 18.6535C14.1531 19.3386 13.1064 19.748 12.0027 19.7501C10.8977 19.7523 9.84898 19.346 8.62904 18.652C8.269 18.4472 8.14317 17.9893 8.34799 17.6293C8.5528 17.2692 9.0107 17.1434 9.37073 17.3482C10.5069 17.9946 11.282 18.2515 11.9998 18.2501C12.719 18.2487 13.4943 17.988 14.6315 17.3468C14.9924 17.1434 15.4498 17.271 15.6532 17.6318Z" fill="#28303F"/>
</svg>
