<svg width="24" height="24" viewBox="0 0 24 24" fill="none" xmlns="http://www.w3.org/2000/svg">
<path opacity="0.4" d="M20 18V7H4V18C4 20.2091 5.79086 22 8 22H16C18.2091 22 20 20.2091 20 18Z" fill="#28303F"/>
<path d="M16.7687 2H7.23126C5.4139 2 3.77964 3.24476 3.10469 5.14305L2.34671 7.27487C2.11726 7.92019 1.95866 8.61074 2.12602 9.27488C2.52236 10.8478 3.80824 12 5.33333 12C7.17428 12 8.66667 10.3211 8.66667 8.25C8.66667 10.3211 10.1591 12 12 12C13.841 12 15.3333 10.3211 15.3333 8.25C15.3333 10.3211 16.8257 12 18.6667 12C20.1918 12 21.4776 10.8478 21.874 9.27488C22.0413 8.61074 21.8827 7.92019 21.6533 7.27487L20.8953 5.14305C20.2204 3.24475 18.5861 2 16.7687 2Z" fill="#28303F"/>
<path d="M9 19C9 17.3431 10.3431 16 12 16V16C13.6569 16 15 17.3431 15 19V22H9V19Z" fill="#28303F"/>
</svg>
