<svg width="24" height="24" viewBox="0 0 24 24" fill="none" xmlns="http://www.w3.org/2000/svg">
<path fill-rule="evenodd" clip-rule="evenodd" d="M5.85894 5.90489C5.48578 4.53424 4.06376 3.73811 2.69541 4.09897L1.80869 4.33281C1.40817 4.43843 1.16911 4.84874 1.27473 5.24927C1.38036 5.64979 1.79067 5.88885 2.19119 5.78322L3.0779 5.54938C3.66843 5.39365 4.2599 5.74164 4.41162 6.29892L7.18184 16.4742C7.4218 16.3006 7.69691 16.167 8.00002 16.0858C8.20286 16.0314 8.40657 16.0037 8.60743 16.0003L5.85894 5.90489ZM10.9927 19.3633C11.1653 18.8955 11.2 18.3715 11.0611 17.8531C11.0562 17.8347 11.051 17.8163 11.0457 17.7981L21.8087 14.9597C22.2092 14.8541 22.6195 15.0931 22.7251 15.4937C22.8308 15.8942 22.5917 16.3045 22.1912 16.4101L10.9927 19.3633Z" fill="#28303F"/>
<path opacity="0.4" d="M11.0612 17.8531C11.4185 19.1864 10.6272 20.5569 9.29386 20.9142C7.96052 21.2715 6.59002 20.4802 6.23276 19.1469C5.87549 17.8136 6.66675 16.4431 8.00009 16.0858C9.33342 15.7285 10.7039 16.5198 11.0612 17.8531Z" fill="#28303F"/>
<path opacity="0.4" d="M8.27054 7.14585C8.0081 6.18188 8.58934 5.19104 9.56878 4.93275L16.6625 3.06202C17.6419 2.80373 18.6487 3.37579 18.9111 4.33975L20.8119 11.3214C21.0743 12.2854 20.4931 13.2762 19.5136 13.5345L12.4199 15.4052C11.4405 15.6635 10.4337 15.0915 10.1713 14.1275L8.27054 7.14585Z" fill="#28303F"/>
<path fill-rule="evenodd" clip-rule="evenodd" d="M15.4405 6.19028C15.5461 6.5908 15.307 7.00111 14.9065 7.10674L13.1331 7.57442C12.7326 7.68004 12.3223 7.44098 12.2166 7.04046C12.111 6.63994 12.3501 6.22963 12.7506 6.12401L14.524 5.65633C14.9245 5.5507 15.3348 5.78976 15.4405 6.19028Z" fill="#28303F"/>
</svg>
