<svg width="24" height="24" viewBox="0 0 24 24" fill="none" xmlns="http://www.w3.org/2000/svg">
<path opacity="0.4" d="M8 7C8 5.89543 8.89543 5 10 5H18C19.1046 5 20 5.89543 20 7V15C20 16.1046 19.1046 17 18 17H10C8.89543 17 8 16.1046 8 15V7Z" fill="#28303F"/>
<path fill-rule="evenodd" clip-rule="evenodd" d="M12.25 8C12.25 7.58579 12.5858 7.25 13 7.25H15C15.4142 7.25 15.75 7.58579 15.75 8C15.75 8.41421 15.4142 8.75 15 8.75H13C12.5858 8.75 12.25 8.41421 12.25 8Z" fill="#28303F"/>
<path opacity="0.4" d="M8 19.5C8 20.8807 6.88071 22 5.5 22C4.11929 22 3 20.8807 3 19.5C3 18.1193 4.11929 17 5.5 17C6.88071 17 8 18.1193 8 19.5Z" fill="#28303F"/>
<path fill-rule="evenodd" clip-rule="evenodd" d="M2 1.25C1.58579 1.25 1.25 1.58579 1.25 2C1.25 2.41421 1.58579 2.75 2 2.75H3C3.69036 2.75 4.25 3.30964 4.25 4V17.3345C4.61772 17.1217 5.04464 17 5.5 17C5.58437 17 5.66777 17.0042 5.75 17.0123V4C5.75 2.48122 4.51878 1.25 3 1.25H2ZM7.66554 20.75C7.87826 20.3823 8 19.9554 8 19.5C8 19.4156 7.99582 19.3322 7.98766 19.25H22C22.4142 19.25 22.75 19.5858 22.75 20C22.75 20.4142 22.4142 20.75 22 20.75H7.66554Z" fill="#28303F"/>
</svg>
