<svg width="24" height="24" viewBox="0 0 24 24" fill="none" xmlns="http://www.w3.org/2000/svg">
<path opacity="0.4" d="M2 10C2 7.79086 3.79086 6 6 6H18C20.2091 6 22 7.79086 22 10V17C22 19.2091 20.2091 21 18 21H6C3.79086 21 2 19.2091 2 17V10Z" fill="#28303F"/>
<path d="M15 13.5C15 15.1569 13.6569 16.5 12 16.5C10.3431 16.5 9 15.1569 9 13.5C9 11.8431 10.3431 10.5 12 10.5C13.6569 10.5 15 11.8431 15 13.5Z" fill="#28303F"/>
<path d="M8.40627 3.8906L7 6H17L15.5937 3.8906C15.2228 3.3342 14.5983 3 13.9296 3H10.0704C9.40166 3 8.7772 3.3342 8.40627 3.8906Z" fill="#28303F"/>
</svg>
