<svg width="24" height="24" viewBox="0 0 24 24" fill="none" xmlns="http://www.w3.org/2000/svg">
<path opacity="0.4" d="M2 10C2 7.79086 3.79086 6 6 6H18C20.2091 6 22 7.79086 22 10V17C22 19.2091 20.2091 21 18 21H6C3.79086 21 2 19.2091 2 17V10Z" fill="#28303F"/>
<path d="M8.40627 3.8906L7 6H17L15.5937 3.8906C15.2228 3.3342 14.5983 3 13.9296 3H10.0704C9.40166 3 8.7772 3.3342 8.40627 3.8906Z" fill="#28303F"/>
<path d="M6 21H18C18.5706 21 19.1134 20.8805 19.6045 20.6652L21.4697 22.5303C21.7626 22.8232 22.2374 22.8232 22.5303 22.5303C22.8232 22.2374 22.8232 21.7626 22.5303 21.4697L2.53033 1.46967C2.23744 1.17678 1.76256 1.17678 1.46967 1.46967C1.17678 1.76256 1.17678 2.23744 1.46967 2.53033L5.05228 6.11294C3.30059 6.53854 2 8.11738 2 10V17C2 19.2091 3.79086 21 6 21Z" fill="#28303F"/>
<path d="M15 13.5C15 11.8431 13.6568 10.5 12 10.5C11.8604 10.5 11.7231 10.5095 11.5886 10.528L14.972 13.9114C14.9905 13.7769 15 13.6396 15 13.5Z" fill="#28303F"/>
</svg>
