<svg width="24" height="24" viewBox="0 0 24 24" fill="none" xmlns="http://www.w3.org/2000/svg">
<path opacity="0.4" d="M2 8C2 5.79086 3.79086 4 6 4H13C15.2091 4 17 5.79086 17 8V16C17 18.2091 15.2091 20 13 20H6C3.79086 20 2 18.2091 2 16V8Z" fill="#28303F"/>
<path fill-rule="evenodd" clip-rule="evenodd" d="M6.25 12C6.25 11.5858 6.58579 11.25 7 11.25H12C12.4142 11.25 12.75 11.5858 12.75 12C12.75 12.4142 12.4142 12.75 12 12.75H7C6.58579 12.75 6.25 12.4142 6.25 12Z" fill="#28303F"/>
<path d="M17 10.9152C17 9.89894 17.3868 8.9208 18.0819 8.17941L18.5409 7.68973C19.781 6.36703 22 7.24454 22 9.05762V14.9425C22 16.7556 19.781 17.6331 18.5409 16.3104L18.0819 15.8207C17.3868 15.0793 17 14.1012 17 13.0849V10.9152Z" fill="#28303F"/>
</svg>
