<svg width="24" height="24" viewBox="0 0 24 24" fill="none" xmlns="http://www.w3.org/2000/svg">
<path opacity="0.4" d="M2 8C2 5.79086 3.79086 4 6 4H13C15.2091 4 17 5.79086 17 8V16C17 18.2091 15.2091 20 13 20H6C3.79086 20 2 18.2091 2 16V8Z" fill="#28303F"/>
<path d="M17 10.9152C17 9.89894 17.3868 8.9208 18.0819 8.17941L18.5409 7.68973C19.781 6.36703 22 7.24454 22 9.05762V14.9425C22 16.7556 19.781 17.6331 18.5409 16.3104L18.0819 15.8207C17.3868 15.0793 17 14.1012 17 13.0849V10.9152Z" fill="#28303F"/>
<path d="M6 20H13C14.606 20 15.9909 19.0536 16.6274 17.6881L21.4697 22.5303C21.7626 22.8232 22.2374 22.8232 22.5303 22.5303C22.8232 22.2374 22.8232 21.7626 22.5303 21.4697L2.53033 1.46967C2.23744 1.17678 1.76256 1.17678 1.46967 1.46967C1.17678 1.76256 1.17678 2.23744 1.46967 2.53033L3.68028 4.74095C2.6632 5.46618 2 6.65564 2 8V16C2 18.2091 3.79086 20 6 20Z" fill="#28303F"/>
</svg>
