<svg width="24" height="24" viewBox="0 0 24 24" fill="none" xmlns="http://www.w3.org/2000/svg">
<path opacity="0.4" d="M13 19C13 20.6569 11.6569 22 10 22H7C5.34315 22 4 20.6569 4 19L4 5C4 3.34315 5.34315 2 7 2L10 2C11.6569 2 13 3.34315 13 5L13 19Z" fill="#28303F"/>
<path fill-rule="evenodd" clip-rule="evenodd" d="M20 12C20 15.3827 17.2577 18.125 13.875 18.125H13V14.25H13.75C14.9926 14.25 16 13.2426 16 12C16 10.7574 14.9926 9.75 13.75 9.75H13V5.875H13.875C17.2577 5.875 20 8.61726 20 12Z" fill="#28303F"/>
</svg>
