<svg width="24" height="24" viewBox="0 0 24 24" fill="none" xmlns="http://www.w3.org/2000/svg">
<path fill-rule="evenodd" clip-rule="evenodd" d="M5.50781 13.9883C5.92203 13.9883 6.25 13.793 6.25 13.793V15.7714C6.25 16.3513 6.7201 16.8214 7.3 16.8214H7.78571C9.42284 16.8214 10.75 18.1486 10.75 19.7857C10.75 21.4228 9.42284 22.75 7.78571 22.75H3C2.58579 22.75 2.25 22.4142 2.25 22C2.25 21.5858 2.58579 21.25 3 21.25H7.78571C8.59442 21.25 9.25 20.5944 9.25 19.7857C9.25 18.977 8.59442 18.3214 7.78571 18.3214H7.3C5.89167 18.3214 4.75 17.1798 4.75 15.7714V13.793C4.75 13.793 5.0936 13.9883 5.50781 13.9883Z" fill="#28303F"/>
<path fill-rule="evenodd" clip-rule="evenodd" d="M18.5273 14C18.1131 14 17.75 13.7891 17.75 13.7891V15.7714C17.75 16.3513 17.2799 16.8214 16.7 16.8214H16.2143C14.5772 16.8214 13.25 18.1486 13.25 19.7857C13.25 21.4228 14.5772 22.75 16.2143 22.75H21C21.4142 22.75 21.75 22.4142 21.75 22C21.75 21.5858 21.4142 21.25 21 21.25H16.2143C15.4056 21.25 14.75 20.5944 14.75 19.7857C14.75 18.977 15.4056 18.3214 16.2143 18.3214H16.7C18.1083 18.3214 19.25 17.1798 19.25 15.7714V13.7891C19.25 13.7891 18.9416 14 18.5273 14Z" fill="#28303F"/>
<g opacity="0.4">
<path d="M4 6C4 3.79086 5.79086 2 8 2C9.10457 2 10 2.89543 10 4V8C10 9.10457 9.10457 10 8 10C7.6547 10 7.31962 9.95625 7 9.87398V12.5C7 13.3284 6.32843 14 5.5 14C4.67157 14 4 13.3284 4 12.5V6Z" fill="#28303F"/>
<path d="M20 6C20 3.79086 18.2091 2 16 2C14.8954 2 14 2.89543 14 4V8C14 9.10457 14.8954 10 16 10C16.3453 10 16.6804 9.95625 17 9.87398V12.5C17 13.3284 17.6716 14 18.5 14C19.3284 14 20 13.3284 20 12.5V6Z" fill="#28303F"/>
</g>
</svg>
