<svg width="24" height="24" viewBox="0 0 24 24" fill="none" xmlns="http://www.w3.org/2000/svg">
<path fill-rule="evenodd" clip-rule="evenodd" d="M18 18.9851C18.4142 18.9851 18.75 18.9851 18.75 18.9851V22C18.75 22.4142 18.4142 22.75 18 22.75C17.5858 22.75 17.25 22.4142 17.25 22V18.9851C17.25 18.9851 17.5858 18.9851 18 18.9851Z" fill="#28303F"/>
<path fill-rule="evenodd" clip-rule="evenodd" d="M18 1.25C18.4142 1.25 18.75 1.58579 18.75 2V9C18.75 9.41421 18.4142 9.75 18 9.75C17.5858 9.75 17.25 9.41421 17.25 9V2C17.25 1.58579 17.5858 1.25 18 1.25Z" fill="#28303F"/>
<path fill-rule="evenodd" clip-rule="evenodd" d="M6 14.25C6.41421 14.25 6.75 14.5858 6.75 15V22C6.75 22.4142 6.41421 22.75 6 22.75C5.58579 22.75 5.25 22.4142 5.25 22V15C5.25 14.5858 5.58579 14.25 6 14.25Z" fill="#28303F"/>
<path fill-rule="evenodd" clip-rule="evenodd" d="M6 1.41547C6.41421 1.41547 6.75 1.75125 6.75 2.16547V4.99306C6.75 4.99306 6.42879 4.99306 6.01458 4.99306C5.60036 4.99306 5.25 4.99306 5.25 4.99306V2.16547C5.25 1.75125 5.58579 1.41547 6 1.41547Z" fill="#28303F"/>
<g opacity="0.4">
<path d="M22 17C22 18.1046 21.1046 19 20 19H16C14.8954 19 14 18.1046 14 17V13C14 11.8954 14.8954 11 16 11L20 11C21.1046 11 22 11.8954 22 13L22 17Z" fill="#28303F"/>
<path d="M10 11C10 12.1046 9.10457 13 8 13L4 13C2.89543 13 2 12.1046 2 11L2 7C2 5.89543 2.89543 5 4 5L8 5C9.10457 5 10 5.89543 10 7V11Z" fill="#28303F"/>
</g>
</svg>
