<svg width="24" height="24" viewBox="0 0 24 24" fill="none" xmlns="http://www.w3.org/2000/svg">
<g opacity="0.4">
<path d="M17 3C18.1046 3 19 3.89543 19 5L19 9C19 10.1046 18.1046 11 17 11H13C11.8954 11 11 10.1046 11 9V5C11 3.89543 11.8954 3 13 3L17 3Z" fill="#28303F"/>
<path d="M11 15C12.1046 15 13 15.8954 13 17V21C13 22.1046 12.1046 23 11 23H7C5.89543 23 5 22.1046 5 21L5 17C5 15.8954 5.89543 15 7 15H11Z" fill="#28303F"/>
</g>
<path fill-rule="evenodd" clip-rule="evenodd" d="M18.99 7C18.99 6.58579 18.99 6.25 18.99 6.25L22 6.25C22.4142 6.25 22.75 6.58579 22.75 7C22.75 7.41421 22.4142 7.75 22 7.75H18.99C18.99 7.75 18.99 7.41421 18.99 7Z" fill="#28303F"/>
<path fill-rule="evenodd" clip-rule="evenodd" d="M1.25 19C1.25 18.5858 1.58579 18.25 2 18.25H5.00457C5.00457 18.25 5.00457 18.5624 5.00457 18.9766C5.00457 19.3908 5.00457 19.75 5.00457 19.75H2C1.58579 19.75 1.25 19.4142 1.25 19Z" fill="#28303F"/>
<path fill-rule="evenodd" clip-rule="evenodd" d="M1.25 7C1.25 6.58579 1.58579 6.25 2 6.25L9 6.25C9.41421 6.25 9.75 6.58579 9.75 7C9.75 7.41421 9.41421 7.75 9 7.75L2 7.75C1.58579 7.75 1.25 7.41421 1.25 7Z" fill="#28303F"/>
<path fill-rule="evenodd" clip-rule="evenodd" d="M14.25 19C14.25 18.5858 14.5858 18.25 15 18.25H22C22.4142 18.25 22.75 18.5858 22.75 19C22.75 19.4142 22.4142 19.75 22 19.75H15C14.5858 19.75 14.25 19.4142 14.25 19Z" fill="#28303F"/>
</svg>
