<svg width="24" height="24" viewBox="0 0 24 24" fill="none" xmlns="http://www.w3.org/2000/svg">
<path opacity="0.4" d="M18 2C20.2091 2 22 3.79086 22 6V18C22 20.2091 20.2091 22 18 22H6C3.79086 22 2 20.2091 2 18L2 6C2 3.79086 3.79086 2 6 2L18 2Z" fill="#28303F"/>
<path fill-rule="evenodd" clip-rule="evenodd" d="M12.75 7L12.75 17L11.25 17L11.25 7L12.75 7Z" fill="#28303F"/>
<path d="M6 2C3.79086 2 2 3.79086 2 6V7L6.25 7L6.25 2H6Z" fill="#28303F"/>
<path d="M7.75 2L7.75 7H11.25L11.25 2H7.75Z" fill="#28303F"/>
<path d="M17.75 7H12.75L12.75 2H16.25L16.25 7L17.75 7Z" fill="#28303F"/>
<path d="M17.75 7L17.75 2H18C20.2091 2 22 3.79086 22 6V7H17.75Z" fill="#28303F"/>
<path d="M18 22C20.2091 22 22 20.2091 22 18V17H17.75L17.75 22L16.25 22L16.25 17H12.75L12.75 22H17.75H18Z" fill="#28303F"/>
<path d="M11.25 17L11.25 22H7.75L7.75 17H11.25Z" fill="#28303F"/>
<path d="M6.25 17H2V18C2 20.2091 3.79086 22 6 22L6.25 22L6.25 17Z" fill="#28303F"/>
</svg>
