<svg width="24" height="24" viewBox="0 0 24 24" fill="none" xmlns="http://www.w3.org/2000/svg">
<g opacity="0.4">
<path fill-rule="evenodd" clip-rule="evenodd" d="M12 3.75C7.44365 3.75 3.75 7.44365 3.75 12V16.75H2.25V12C2.25 6.61522 6.61522 2.25 12 2.25C17.3848 2.25 21.75 6.61522 21.75 12V16.75H20.25V12C20.25 7.44365 16.5563 3.75 12 3.75Z" fill="#28303F"/>
<path fill-rule="evenodd" clip-rule="evenodd" d="M14.25 16C14.25 13.9289 15.9289 12.25 18 12.25C20.0711 12.25 21.75 13.9289 21.75 16V18C21.75 20.0711 20.0711 21.75 18 21.75C15.9289 21.75 14.25 20.0711 14.25 18V16Z" fill="#28303F"/>
</g>
<path fill-rule="evenodd" clip-rule="evenodd" d="M2.25 16C2.25 13.9289 3.92893 12.25 6 12.25C8.07107 12.25 9.75 13.9289 9.75 16V18C9.75 20.0711 8.07107 21.75 6 21.75C3.92893 21.75 2.25 20.0711 2.25 18V16Z" fill="#28303F"/>
<path fill-rule="evenodd" clip-rule="evenodd" d="M1.46967 1.46967C1.17678 1.76256 1.17678 2.23744 1.46967 2.53033L21.4697 22.5303C21.7626 22.8232 22.2374 22.8232 22.5303 22.5303C22.8232 22.2374 22.8232 21.7626 22.5303 21.4697L2.53033 1.46967C2.23744 1.17678 1.76256 1.17678 1.46967 1.46967Z" fill="#28303F"/>
<path d="M18 21.7499C15.9289 21.7499 14.25 20.071 14.25 17.9999V15.9999C14.25 15.7833 14.2684 15.5709 14.3037 15.3643L20.068 21.1286C19.4752 21.5213 18.7643 21.7499 18 21.7499Z" fill="#28303F"/>
</svg>
