<svg width="24" height="24" viewBox="0 0 24 24" fill="none" xmlns="http://www.w3.org/2000/svg">
<g opacity="0.4">
<path fill-rule="evenodd" clip-rule="evenodd" d="M12 2.75C7.44365 2.75 3.75 6.44365 3.75 11V13.75H2.25V11C2.25 5.61522 6.61522 1.25 12 1.25C17.3848 1.25 21.75 5.61522 21.75 11V13.75H20.25V11C20.25 6.44365 16.5563 2.75 12 2.75Z" fill="#28303F"/>
<path fill-rule="evenodd" clip-rule="evenodd" d="M21 13.25C21.4142 13.25 21.75 13.5858 21.75 14V16C21.75 19.7279 18.7279 22.75 15 22.75H12C11.5858 22.75 11.25 22.4142 11.25 22C11.25 21.5858 11.5858 21.25 12 21.25H15C17.8995 21.25 20.25 18.8995 20.25 16V14C20.25 13.5858 20.5858 13.25 21 13.25Z" fill="#28303F"/>
</g>
<path fill-rule="evenodd" clip-rule="evenodd" d="M14.25 13C14.25 10.9289 15.9289 9.25 18 9.25C20.0711 9.25 21.75 10.9289 21.75 13V15C21.75 17.0711 20.0711 18.75 18 18.75C15.9289 18.75 14.25 17.0711 14.25 15V13Z" fill="#28303F"/>
<path fill-rule="evenodd" clip-rule="evenodd" d="M2.25 13C2.25 10.9289 3.92893 9.25 6 9.25C8.07107 9.25 9.75 10.9289 9.75 13V15C9.75 17.0711 8.07107 18.75 6 18.75C3.92893 18.75 2.25 17.0711 2.25 15V13Z" fill="#28303F"/>
</svg>
