<svg width="24" height="24" viewBox="0 0 24 24" fill="none" xmlns="http://www.w3.org/2000/svg">
<path opacity="0.4" d="M2 6C2 3.79086 3.79086 2 6 2H18C20.2091 2 22 3.79086 22 6V18C22 20.2091 20.2091 22 18 22H6C3.79086 22 2 20.2091 2 18V6Z" fill="#28303F"/>
<path d="M19.061 11.8839L22 14V18C22 20.2091 20.2091 22 18 22H6C3.79086 22 2 20.2091 2 18V14L4.93901 16.1161C6.4662 17.2156 8.55331 17.102 9.95209 15.8431L14.0479 12.1568C15.4467 10.898 17.5338 10.7843 19.061 11.8839Z" fill="#28303F"/>
<circle cx="8.5" cy="8.5" r="2.5" fill="#28303F"/>
<path d="M15.7081 5.86045L19.1292 2.43934C19.715 1.85355 20.6647 1.85355 21.2505 2.43934C21.8363 3.02513 21.8363 3.97487 21.2505 4.56066L17.8294 7.98177C17.7004 8.11072 17.5387 8.20196 17.3616 8.2456L15.6201 8.67486C15.255 8.76484 14.925 8.4348 15.015 8.06973L15.4442 6.32823C15.4879 6.15116 15.5791 5.9894 15.7081 5.86045Z" fill="#28303F"/>
</svg>
