<svg width="24" height="24" viewBox="0 0 24 24" fill="none" xmlns="http://www.w3.org/2000/svg">
<path opacity="0.4" d="M2 6C2 3.79086 3.79086 2 6 2H18C20.2091 2 22 3.79086 22 6V18C22 20.2091 20.2091 22 18 22H6C3.79086 22 2 20.2091 2 18V6Z" fill="#28303F"/>
<path d="M19.061 11.8839L22 14V18C22 20.2091 20.2091 22 18 22H6C3.79086 22 2 20.2091 2 18V14L4.93901 16.1161C6.4662 17.2156 8.55331 17.102 9.95209 15.8431L14.0479 12.1568C15.4467 10.898 17.5338 10.7843 19.061 11.8839Z" fill="#28303F"/>
<circle cx="8.5" cy="8.5" r="2.5" fill="#28303F"/>
<path fill-rule="evenodd" clip-rule="evenodd" d="M19 1.25C19.4142 1.25 19.75 1.58579 19.75 2V6.18934L20.4697 5.46967C20.7626 5.17678 21.2374 5.17678 21.5303 5.46967C21.8232 5.76256 21.8232 6.23744 21.5303 6.53033L20.2374 7.82322C19.554 8.50664 18.446 8.50664 17.7626 7.82322L16.4697 6.53033C16.1768 6.23744 16.1768 5.76256 16.4697 5.46967C16.7626 5.17678 17.2374 5.17678 17.5303 5.46967L18.25 6.18934V2C18.25 1.58579 18.5858 1.25 19 1.25Z" fill="#28303F"/>
</svg>
