<svg width="24" height="24" viewBox="0 0 24 24" fill="none" xmlns="http://www.w3.org/2000/svg">
<path opacity="0.4" d="M2 6C2 3.79086 3.79086 2 6 2H18C20.2091 2 22 3.79086 22 6V18C22 20.2091 20.2091 22 18 22H6C3.79086 22 2 20.2091 2 18V6Z" fill="#28303F"/>
<path d="M19.061 11.8839L22 14V18C22 20.2091 20.2091 22 18 22H6C3.79086 22 2 20.2091 2 18V14L4.93901 16.1161C6.4662 17.2156 8.55331 17.102 9.95209 15.8431L14.0479 12.1568C15.4467 10.898 17.5338 10.7843 19.061 11.8839Z" fill="#28303F"/>
<circle cx="8.5" cy="8.5" r="2.5" fill="#28303F"/>
<path fill-rule="evenodd" clip-rule="evenodd" d="M21.45 2.40004C21.7814 2.64857 21.8485 3.11867 21.6 3.45004L19.2918 6.52764C18.6528 7.37961 17.4074 7.46812 16.6544 6.71507L15.4697 5.53037C15.1768 5.23748 15.1768 4.76261 15.4697 4.46971C15.7626 4.17682 16.2374 4.17682 16.5303 4.46971L17.715 5.65441C17.8226 5.76199 18.0005 5.74935 18.0918 5.62764L20.4 2.55004C20.6485 2.21867 21.1186 2.15152 21.45 2.40004Z" fill="#28303F"/>
</svg>
