<svg width="24" height="24" viewBox="0 0 24 24" fill="none" xmlns="http://www.w3.org/2000/svg">
<path opacity="0.4" d="M2 6C2 3.79086 3.79086 2 6 2H18C20.2091 2 22 3.79086 22 6V18C22 20.2091 20.2091 22 18 22H6C3.79086 22 2 20.2091 2 18V6Z" fill="#28303F"/>
<path d="M19.061 11.8839L22 14V18C22 20.2091 20.2091 22 18 22H6C3.79086 22 2 20.2091 2 18V14L4.93901 16.1161C6.4662 17.2156 8.55331 17.102 9.95209 15.8431L14.0479 12.1568C15.4467 10.898 17.5338 10.7843 19.061 11.8839Z" fill="#28303F"/>
<circle cx="8.5" cy="8.5" r="2.5" fill="#28303F"/>
<path fill-rule="evenodd" clip-rule="evenodd" d="M19 1.25C19.4142 1.25 19.75 1.58579 19.75 2V4.25H22C22.4142 4.25 22.75 4.58579 22.75 5C22.75 5.41421 22.4142 5.75 22 5.75H19.75V8C19.75 8.41421 19.4142 8.75 19 8.75C18.5858 8.75 18.25 8.41421 18.25 8V5.75H16C15.5858 5.75 15.25 5.41421 15.25 5C15.25 4.58579 15.5858 4.25 16 4.25H18.25V2C18.25 1.58579 18.5858 1.25 19 1.25Z" fill="#28303F"/>
</svg>
