<svg width="24" height="24" viewBox="0 0 24 24" fill="none" xmlns="http://www.w3.org/2000/svg">
<path opacity="0.4" d="M2 6C2 3.79086 3.79086 2 6 2H18C20.2091 2 22 3.79086 22 6V18C22 20.2091 20.2091 22 18 22H6C3.79086 22 2 20.2091 2 18V6Z" fill="#28303F"/>
<path d="M19.061 11.8839L22 14V18C22 20.2091 20.2091 22 18 22H6C3.79086 22 2 20.2091 2 18V14L4.93901 16.1161C6.4662 17.2156 8.55331 17.102 9.95209 15.8431L14.0479 12.1568C15.4467 10.898 17.5338 10.7843 19.061 11.8839Z" fill="#28303F"/>
<circle cx="8.5" cy="8.5" r="2.5" fill="#28303F"/>
<path d="M18.7678 2.5995L18.5 2.88897L18.2322 2.5995C17.4928 1.80017 16.294 1.80017 15.5546 2.5995C14.8151 3.39884 14.8151 4.69481 15.5546 5.49415L17.4289 7.5204C18.0205 8.15987 18.9795 8.15987 19.5711 7.5204L21.4454 5.49415C22.1849 4.69481 22.1849 3.39884 21.4454 2.5995C20.706 1.80017 19.5072 1.80017 18.7678 2.5995Z" fill="#28303F"/>
</svg>
