<svg width="24" height="24" viewBox="0 0 24 24" fill="none" xmlns="http://www.w3.org/2000/svg">
<path opacity="0.4" d="M2 6C2 3.79086 3.79086 2 6 2H18C20.2091 2 22 3.79086 22 6V18C22 20.2091 20.2091 22 18 22H6C3.79086 22 2 20.2091 2 18V6Z" fill="#28303F"/>
<path d="M19.061 11.8839L22 14V18C22 20.2091 20.2091 22 18 22H6C3.79086 22 2 20.2091 2 18V14L4.93901 16.1161C6.4662 17.2156 8.55331 17.102 9.95209 15.8431L14.0479 12.1568C15.4467 10.898 17.5338 10.7843 19.061 11.8839Z" fill="#28303F"/>
<circle cx="8.5" cy="8.5" r="2.5" fill="#28303F"/>
<path fill-rule="evenodd" clip-rule="evenodd" d="M16.4697 2.46967C16.7626 2.17678 17.2374 2.17678 17.5303 2.46967L19 3.93934L20.4697 2.46967C20.7626 2.17678 21.2374 2.17678 21.5303 2.46967C21.8232 2.76256 21.8232 3.23744 21.5303 3.53033L20.0607 5L21.5303 6.46967C21.8232 6.76256 21.8232 7.23744 21.5303 7.53033C21.2374 7.82322 20.7626 7.82322 20.4697 7.53033L19 6.06066L17.5303 7.53033C17.2374 7.82322 16.7626 7.82322 16.4697 7.53033C16.1768 7.23744 16.1768 6.76256 16.4697 6.46967L17.9393 5L16.4697 3.53033C16.1768 3.23744 16.1768 2.76256 16.4697 2.46967Z" fill="#28303F"/>
</svg>
