<svg width="24" height="24" viewBox="0 0 24 24" fill="none" xmlns="http://www.w3.org/2000/svg">
<path opacity="0.4" d="M2 6C2 3.79086 3.79086 2 6 2H18C20.2091 2 22 3.79086 22 6V18C22 20.2091 20.2091 22 18 22H6C3.79086 22 2 20.2091 2 18V6Z" fill="#28303F"/>
<path d="M19.061 11.8839L22 14V18C22 20.2091 20.2091 22 18 22H6C3.79086 22 2 20.2091 2 18V14L4.93901 16.1161C6.4662 17.2156 8.55331 17.102 9.95209 15.8431L14.0479 12.1568C15.4467 10.898 17.5338 10.7843 19.061 11.8839Z" fill="#28303F"/>
<circle cx="8.5" cy="8.5" r="2.5" fill="#28303F"/>
<path fill-rule="evenodd" clip-rule="evenodd" d="M19 8.75C19.4142 8.75 19.75 8.41421 19.75 8V3.81066L20.4697 4.53033C20.7626 4.82322 21.2374 4.82322 21.5303 4.53033C21.8232 4.23744 21.8232 3.76256 21.5303 3.46967L20.2374 2.17678C19.554 1.49336 18.446 1.49336 17.7626 2.17678L16.4697 3.46967C16.1768 3.76256 16.1768 4.23744 16.4697 4.53033C16.7626 4.82322 17.2374 4.82322 17.5303 4.53033L18.25 3.81066V8C18.25 8.41421 18.5858 8.75 19 8.75Z" fill="#28303F"/>
</svg>
