<svg width="24" height="24" viewBox="0 0 24 24" fill="none" xmlns="http://www.w3.org/2000/svg">
<path opacity="0.4" fill-rule="evenodd" clip-rule="evenodd" d="M12.7734 8.02348C13.2578 8.07035 13.5 8.13637 13.5 8.13637V17.0001C13.5 17.4143 13.1642 17.7501 12.75 17.7501C12.3358 17.7501 12 17.4143 12 17.0001V8.00008C12 8.00008 12.332 7.98084 12.7734 8.02348Z" fill="#28303F"/>
<path d="M13.5 17C13.5 19.7614 11.2614 22 8.5 22C5.73858 22 3.5 19.7614 3.5 17C3.5 14.2386 5.73858 12 8.5 12C11.2614 12 13.5 14.2386 13.5 17Z" fill="#28303F"/>
<path opacity="0.4" d="M20 10.0002C20 6.2652 17.4405 3.12804 13.9798 2.24702C12.9093 1.97451 12 2.89559 12 4.00016V8.00016C14.9177 8.00016 17.4707 9.56216 18.8682 11.8956C19.0991 12.2811 19.6892 12.2614 19.7912 11.8238C19.9278 11.238 20 10.6275 20 10.0002Z" fill="#28303F"/>
</svg>
