<svg width="24" height="24" viewBox="0 0 24 24" fill="none" xmlns="http://www.w3.org/2000/svg">
<path opacity="0.4" fill-rule="evenodd" clip-rule="evenodd" d="M18.3228 3.68067C19.138 3.38422 20 3.98796 20 4.85541V12.5C20 12.9142 20.3358 13.25 20.75 13.25C21.1642 13.25 21.5 12.9142 21.5 12.5V4.85541C21.5 2.94701 19.6037 1.6188 17.8102 2.27098L12.1267 4.3377C10.2496 5.0203 9 6.80432 9 8.80172V18.5C9 18.9142 9.33579 19.25 9.75 19.25C10.1642 19.25 10.5 18.9142 10.5 18.5V8.80172C10.5 7.43508 11.355 6.21444 12.6393 5.74739L18.3228 3.68067Z" fill="#28303F"/>
<path d="M21.5 12.5C21.5 14.433 19.933 16 18 16C16.067 16 14.5 14.433 14.5 12.5C14.5 10.567 16.067 9 18 9C19.933 9 21.5 10.567 21.5 12.5Z" fill="#28303F"/>
<path d="M10.5 18.5C10.5 20.433 8.933 22 7 22C5.067 22 3.5 20.433 3.5 18.5C3.5 16.567 5.067 15 7 15C8.933 15 10.5 16.567 10.5 18.5Z" fill="#28303F"/>
</svg>
