<svg width="24" height="24" viewBox="0 0 24 24" fill="none" xmlns="http://www.w3.org/2000/svg">
<path opacity="0.4" fill-rule="evenodd" clip-rule="evenodd" d="M19 7.06226V16.2266C19 16.6408 19.3358 16.9766 19.75 16.9766C20.1642 16.9766 20.5 16.6408 20.5 16.2266C20.5 16.2266 20.664 10.3673 20.5 8.8477C20.3359 7.32812 19 7.06226 19 7.06226Z" fill="#28303F"/>
<path opacity="0.4" fill-rule="evenodd" clip-rule="evenodd" d="M10 9.97656C8.67188 11.0664 8.52344 12.4648 8.5 12.9023V18.2266C8.5 18.6408 8.83579 18.9766 9.25 18.9766C9.66421 18.9766 10 18.6408 10 18.2266V9.97656Z" fill="#28303F"/>
<path d="M20.5 16.2266C20.5 17.8834 19.1569 19.2266 17.5 19.2266C15.8431 19.2266 14.5 17.8834 14.5 16.2266C14.5 14.5697 15.8431 13.2266 17.5 13.2266C19.1569 13.2266 20.5 14.5697 20.5 16.2266Z" fill="#28303F"/>
<path d="M10 18.2266C10 19.8834 8.65685 21.2266 7 21.2266C5.34315 21.2266 4 19.8834 4 18.2266C4 16.5697 5.34315 15.2266 7 15.2266C8.65685 15.2266 10 16.5697 10 18.2266Z" fill="#28303F"/>
<path opacity="0.4" d="M11.2351 9.31499L17.8675 7.10417C19.1626 6.67248 20.5 7.63642 20.5 9.00153V4.00153C20.5 2.63642 19.1626 1.67248 17.8675 2.10417L11.2351 4.31499C9.60172 4.85944 8.5 6.388 8.5 8.10972V13.1097C8.5 11.388 9.60172 9.85944 11.2351 9.31499Z" fill="#28303F"/>
</svg>
