<svg width="24" height="24" viewBox="0 0 24 24" fill="none" xmlns="http://www.w3.org/2000/svg">
<path opacity="0.4" d="M2 6C2 3.79086 3.79086 2 6 2H18C20.2091 2 22 3.79086 22 6V18C22 20.2091 20.2091 22 18 22H6C3.79086 22 2 20.2091 2 18V6Z" fill="#28303F"/>
<path fill-rule="evenodd" clip-rule="evenodd" d="M13.6934 7.9631C12.8627 7.4093 11.75 8.00479 11.75 9.00316V12.2661C11.75 13.7849 10.5188 15.0161 9 15.0161C7.48122 15.0161 6.25 13.7849 6.25 12.2661C6.25 10.7473 7.48122 9.51613 9 9.51613C9.45011 9.51613 9.87497 9.62426 10.25 9.81598V9.00316C10.25 6.80675 12.6979 5.49667 14.5254 6.71502L16.5254 8.04835C17.2905 8.55839 17.75 9.41702 17.75 10.3365V15.2661C17.75 16.7849 16.5188 18.0161 15 18.0161C13.4812 18.0161 12.25 16.7849 12.25 15.2661C12.25 13.7473 13.4812 12.5161 15 12.5161C15.4501 12.5161 15.875 12.6243 16.25 12.816V10.3365C16.25 9.91855 16.0411 9.52826 15.6934 9.29643L13.6934 7.9631Z" fill="#28303F"/>
</svg>
