<svg width="24" height="24" viewBox="0 0 24 24" fill="none" xmlns="http://www.w3.org/2000/svg">
<path opacity="0.4" d="M2 6C2 3.79086 3.79086 2 6 2H18C20.2091 2 22 3.79086 22 6V18C22 20.2091 20.2091 22 18 22H6C3.79086 22 2 20.2091 2 18V6Z" fill="#28303F"/>
<path fill-rule="evenodd" clip-rule="evenodd" d="M11.25 8C11.25 7.58579 11.5858 7.25 12 7.25C14.6234 7.25 16.75 9.37665 16.75 12C16.75 12.4142 16.4142 12.75 16 12.75C15.5858 12.75 15.25 12.4142 15.25 12C15.25 10.4632 14.1834 9.17555 12.75 8.83697V14C12.75 15.5188 11.5188 16.75 10 16.75C8.48122 16.75 7.25 15.5188 7.25 14C7.25 12.4812 8.48122 11.25 10 11.25C10.4501 11.25 10.875 11.3581 11.25 11.5499V8Z" fill="#28303F"/>
</svg>
