<svg width="24" height="24" viewBox="0 0 24 24" fill="none" xmlns="http://www.w3.org/2000/svg">
<path opacity="0.4" fill-rule="evenodd" clip-rule="evenodd" d="M12 3.99976C12 2.55063 13.2391 1.09319 14.9148 1.51979C18.6998 2.48338 21.5 5.91362 21.5 9.99976C21.5 12.2183 20.6733 14.2457 19.3123 15.7877C19.0382 16.0983 18.5643 16.1278 18.2537 15.8537C17.9431 15.5796 17.9136 15.1057 18.1877 14.7951C19.3161 13.5166 20 11.839 20 9.99976C20 6.61597 17.6811 3.77189 14.5447 2.97343C14.0796 2.85501 13.5 3.23974 13.5 3.99976V16.9998C13.5 17.414 13.1642 17.7498 12.75 17.7498C12.3358 17.7498 12 17.414 12 16.9998V3.99976Z" fill="#28303F"/>
<path d="M13.5 17C13.5 19.7614 11.2614 22 8.5 22C5.73858 22 3.5 19.7614 3.5 17C3.5 14.2386 5.73858 12 8.5 12C11.2614 12 13.5 14.2386 13.5 17Z" fill="#28303F"/>
</svg>
