<svg width="24" height="24" viewBox="0 0 24 24" fill="none" xmlns="http://www.w3.org/2000/svg">
<path opacity="0.4" d="M12.0385 13.7275L6.00774 17.2454C4.67443 18.0232 3 17.0615 3 15.5179V8.48202C3 6.93844 4.67443 5.97669 6.00774 6.75446L12.0385 10.2724C13.3615 11.0441 13.3615 12.9557 12.0385 13.7275Z" fill="#28303F"/>
<path d="M20.0385 13.7275L14.0077 17.2454C12.6744 18.0232 11 17.0615 11 15.5179V8.48202C11 6.93844 12.6744 5.97669 14.0077 6.75446L20.0385 10.2724C21.3615 11.0441 21.3615 12.9557 20.0385 13.7275Z" fill="#28303F"/>
<path fill-rule="evenodd" clip-rule="evenodd" d="M21 6.75C21.4142 6.75 21.75 7.08579 21.75 7.5V16.5C21.75 16.9142 21.4142 17.25 21 17.25C20.5858 17.25 20.25 16.9142 20.25 16.5V7.5C20.25 7.08579 20.5858 6.75 21 6.75Z" fill="#28303F"/>
</svg>
