<svg width="24" height="24" viewBox="0 0 24 24" fill="none" xmlns="http://www.w3.org/2000/svg">
<path d="M21 14.1389V20C21 21.1046 20.1046 22 19 22H5.00001C4.37308 22 3.8549 21.683 3.52397 21.4089C3.2426 21.1759 3.10577 20.8243 3.06292 20.4615L3.00001 19.9286C3 19.9094 3 19.9048 3 19.9037C3 19.9034 3 19.9032 3 19.903C3.00018 19.5265 3.30316 18.1355 4.86327 18.0022H17.0002C20.9104 17.737 21 14.1389 21 14.1389Z" fill="#28303F"/>
<path opacity="0.4" d="M21 6V14C21 16.2091 19.2091 18 17 18H5C3.89543 18 3 18.8954 3 20V6C3 3.79086 4.79086 2 7 2H17C19.2091 2 21 3.79086 21 6Z" fill="#28303F"/>
<path d="M14.3167 11.3417L11.1708 12.9146C10.1735 13.4133 9 12.6881 9 11.573V8.42711C9 7.31203 10.1735 6.58679 11.1708 7.08547L14.3167 8.65841C15.4223 9.2112 15.4223 10.7889 14.3167 11.3417Z" fill="#28303F"/>
</svg>
