<svg width="24" height="24" viewBox="0 0 24 24" fill="none" xmlns="http://www.w3.org/2000/svg">
<path opacity="0.4" d="M11.9923 13.7275L18.023 17.2454C19.3563 18.0232 21.0307 17.0615 21.0307 15.5179V8.48202C21.0307 6.93844 19.3563 5.97669 18.023 6.75446L11.9923 10.2724C10.6692 11.0441 10.6692 12.9557 11.9923 13.7275Z" fill="#28303F"/>
<path d="M3.99229 13.7275L10.023 17.2454C11.3563 18.0232 13.0308 17.0615 13.0308 15.5179V8.48202C13.0308 6.93844 11.3563 5.97669 10.023 6.75446L3.99229 10.2724C2.66928 11.0441 2.66928 12.9557 3.99229 13.7275Z" fill="#28303F"/>
<path fill-rule="evenodd" clip-rule="evenodd" d="M3 6.25C3.41421 6.25 3.75 6.58579 3.75 7V17C3.75 17.4142 3.41421 17.75 3 17.75C2.58579 17.75 2.25 17.4142 2.25 17V7C2.25 6.58579 2.58579 6.25 3 6.25Z" fill="#28303F"/>
</svg>
