<svg width="24" height="24" viewBox="0 0 24 24" fill="none" xmlns="http://www.w3.org/2000/svg">
<path fill-rule="evenodd" clip-rule="evenodd" d="M5 17.8604L5.75 17.9936V19.2885C5.75 19.5434 5.41421 19.75 5 19.75C4.58579 19.75 4.25 19.5434 4.25 19.2885L4.25 17.5961L5 17.8604Z" fill="#28303F"/>
<path fill-rule="evenodd" clip-rule="evenodd" d="M19 19.75C18.5858 19.75 18.25 19.5434 18.25 19.2885V17.9876L19.0754 17.8455L19.75 17.5962V19.2885C19.75 19.5434 19.4142 19.75 19 19.75Z" fill="#28303F"/>
<path opacity="0.4" d="M18 4C20.2091 4 22 5.79086 22 8V14C22 16.2091 20.2091 18 18 18L6 18C3.79086 18 2 16.2091 2 14L2 8C2 5.79086 3.79086 4 6 4L18 4Z" fill="#28303F"/>
<path fill-rule="evenodd" clip-rule="evenodd" d="M15 15C17.2091 15 19 13.2091 19 11C19 8.79086 17.2091 7 15 7C12.7909 7 11 8.79086 11 11C11 13.2091 12.7909 15 15 15ZM15 9.5C15.8284 9.5 16.5 10.1716 16.5 11C16.5 11.8284 15.8284 12.5 15 12.5C14.1716 12.5 13.5 11.8284 13.5 11C13.5 10.1716 14.1716 9.5 15 9.5Z" fill="#28303F"/>
<path fill-rule="evenodd" clip-rule="evenodd" d="M5.25 8C5.25 7.58579 5.58579 7.25 6 7.25L9 7.25C9.41421 7.25 9.75 7.58579 9.75 8C9.75 8.41421 9.41421 8.75 9 8.75H6C5.58579 8.75 5.25 8.41421 5.25 8Z" fill="#28303F"/>
<path fill-rule="evenodd" clip-rule="evenodd" d="M5.25 14C5.25 13.5858 5.58579 13.25 6 13.25L9 13.25C9.41421 13.25 9.75 13.5858 9.75 14C9.75 14.4142 9.41421 14.75 9 14.75H6C5.58579 14.75 5.25 14.4142 5.25 14Z" fill="#28303F"/>
</svg>
