<svg width="24" height="24" viewBox="0 0 24 24" fill="none" xmlns="http://www.w3.org/2000/svg">
<path fill-rule="evenodd" clip-rule="evenodd" d="M13.25 6C13.25 5.58579 13.5858 5.25 14 5.25H21C21.4142 5.25 21.75 5.58579 21.75 6C21.75 6.41421 21.4142 6.75 21 6.75H14C13.5858 6.75 13.25 6.41421 13.25 6Z" fill="#28303F"/>
<path fill-rule="evenodd" clip-rule="evenodd" d="M2.25 16C2.25 15.5858 2.58579 15.25 3 15.25H21C21.4142 15.25 21.75 15.5858 21.75 16C21.75 16.4142 21.4142 16.75 21 16.75H3C2.58579 16.75 2.25 16.4142 2.25 16Z" fill="#28303F"/>
<g opacity="0.4">
<path d="M9.42229 9.78889L5.89443 11.5528C4.56462 12.2177 3 11.2507 3 9.76396V6.2361C3 4.74934 4.56463 3.78235 5.89443 4.44725L9.42229 6.21118C10.8964 6.94823 10.8964 9.05184 9.42229 9.78889Z" fill="#28303F"/>
<path fill-rule="evenodd" clip-rule="evenodd" d="M13.25 11C13.25 10.5858 13.5858 10.25 14 10.25H21C21.4142 10.25 21.75 10.5858 21.75 11C21.75 11.4142 21.4142 11.75 21 11.75H14C13.5858 11.75 13.25 11.4142 13.25 11Z" fill="#28303F"/>
<path fill-rule="evenodd" clip-rule="evenodd" d="M2.25 21C2.25 20.5858 2.58579 20.25 3 20.25H21C21.4142 20.25 21.75 20.5858 21.75 21C21.75 21.4142 21.4142 21.75 21 21.75H3C2.58579 21.75 2.25 21.4142 2.25 21Z" fill="#28303F"/>
</g>
</svg>
