<svg width="24" height="24" viewBox="0 0 24 24" fill="none" xmlns="http://www.w3.org/2000/svg">
<path opacity="0.4" fill-rule="evenodd" clip-rule="evenodd" d="M16.4697 4.46967C16.7626 4.17678 17.2374 4.17678 17.5303 4.46967L18.8232 5.76256C19.5066 6.44598 19.5066 7.55402 18.8232 8.23744L17.5303 9.53033C17.2374 9.82322 16.7626 9.82322 16.4697 9.53033C16.1768 9.23744 16.1768 8.76256 16.4697 8.46967L17.1893 7.75H10C8.20507 7.75 6.75 9.20507 6.75 11V12C6.75 12.4142 6.41421 12.75 6 12.75C5.58579 12.75 5.25 12.4142 5.25 12V11C5.25 8.37665 7.37665 6.25 10 6.25H17.1893L16.4697 5.53033C16.1768 5.23744 16.1768 4.76256 16.4697 4.46967Z" fill="#28303F"/>
<path fill-rule="evenodd" clip-rule="evenodd" d="M7.53033 19.5303C7.23744 19.8232 6.76256 19.8232 6.46967 19.5303L5.17678 18.2374C4.49336 17.554 4.49336 16.446 5.17678 15.7626L6.46967 14.4697C6.76256 14.1768 7.23744 14.1768 7.53033 14.4697C7.82322 14.7626 7.82322 15.2374 7.53033 15.5303L6.81066 16.25H14C15.7949 16.25 17.25 14.7949 17.25 13V12C17.25 11.5858 17.5858 11.25 18 11.25C18.4142 11.25 18.75 11.5858 18.75 12V13C18.75 15.6234 16.6234 17.75 14 17.75H6.81066L7.53033 18.4697C7.82322 18.7626 7.82322 19.2374 7.53033 19.5303Z" fill="#28303F"/>
</svg>
