<svg width="24" height="24" viewBox="0 0 24 24" fill="none" xmlns="http://www.w3.org/2000/svg">
<path fill-rule="evenodd" clip-rule="evenodd" d="M16.4697 5.46967C16.7626 5.17678 17.2374 5.17678 17.5303 5.46967L18.8232 6.76256C19.5066 7.44598 19.5066 8.55402 18.8232 9.23744L17.5303 10.5303C17.2374 10.8232 16.7626 10.8232 16.4697 10.5303C16.1768 10.2374 16.1768 9.76256 16.4697 9.46967L17.1893 8.75H13C12.5858 8.75 12.25 8.41421 12.25 8C12.25 7.58579 12.5858 7.25 13 7.25H17.1893L16.4697 6.53033C16.1768 6.23744 16.1768 5.76256 16.4697 5.46967ZM4.25 16C4.25 15.5858 4.58579 15.25 5 15.25H11C11.4142 15.25 11.75 15.5858 11.75 16C11.75 16.4142 11.4142 16.75 11 16.75H5C4.58579 16.75 4.25 16.4142 4.25 16Z" fill="#28303F"/>
<path opacity="0.4" fill-rule="evenodd" clip-rule="evenodd" d="M16.4697 18.5303C16.7626 18.8232 17.2374 18.8232 17.5303 18.5303L18.8232 17.2374C19.5066 16.554 19.5066 15.446 18.8232 14.7626L17.5303 13.4697C17.2374 13.1768 16.7626 13.1768 16.4697 13.4697C16.1768 13.7626 16.1768 14.2374 16.4697 14.5303L17.1893 15.25H16.4721C15.2411 15.25 14.1158 14.5545 13.5652 13.4534L11.7764 9.87574C10.9718 8.26651 9.32703 7.25 7.52786 7.25H5C4.58579 7.25 4.25 7.58579 4.25 8C4.25 8.41421 4.58579 8.75 5 8.75H7.52786C8.75887 8.75 9.88423 9.44551 10.4348 10.5466L12.2236 14.1243C13.0282 15.7335 14.673 16.75 16.4721 16.75H17.1893L16.4697 17.4697C16.1768 17.7626 16.1768 18.2374 16.4697 18.5303Z" fill="#28303F"/>
</svg>
