<svg width="24" height="24" viewBox="0 0 24 24" fill="none" xmlns="http://www.w3.org/2000/svg">
<path opacity="0.4" fill-rule="evenodd" clip-rule="evenodd" d="M9 4C9 3.58579 9.33579 3.25 9.75 3.25C12.9256 3.25 15.5 5.82436 15.5 9C15.5 10.2936 15.0719 11.4894 14.35 12.4504C14.1013 12.7816 13.6311 12.8484 13.2999 12.5997C12.9687 12.3509 12.9019 11.8808 13.1507 11.5496C13.6842 10.8393 14 9.95763 14 9C14 6.9087 12.4895 5.1702 10.5 4.81597V16C10.5 16.4142 10.1642 16.75 9.75 16.75C9.33579 16.75 9 16.4142 9 16V4Z" fill="#28303F"/>
<path d="M10.5 16C10.5 18.2091 8.70914 20 6.5 20C4.29086 20 2.5 18.2091 2.5 16C2.5 13.7909 4.29086 12 6.5 12C8.70914 12 10.5 13.7909 10.5 16Z" fill="#28303F"/>
<path fill-rule="evenodd" clip-rule="evenodd" d="M22.75 15.5C22.75 15.9142 22.4142 16.25 22 16.25H14C13.5858 16.25 13.25 15.9142 13.25 15.5C13.25 15.0858 13.5858 14.75 14 14.75L22 14.75C22.4142 14.75 22.75 15.0858 22.75 15.5Z" fill="#28303F"/>
<path opacity="0.4" fill-rule="evenodd" clip-rule="evenodd" d="M22.75 11C22.75 11.4142 22.4142 11.75 22 11.75H18C17.5858 11.75 17.25 11.4142 17.25 11C17.25 10.5858 17.5858 10.25 18 10.25H22C22.4142 10.25 22.75 10.5858 22.75 11Z" fill="#28303F"/>
<path opacity="0.4" fill-rule="evenodd" clip-rule="evenodd" d="M22.75 20C22.75 20.4142 22.4142 20.75 22 20.75H14C13.5858 20.75 13.25 20.4142 13.25 20C13.25 19.5858 13.5858 19.25 14 19.25H22C22.4142 19.25 22.75 19.5858 22.75 20Z" fill="#28303F"/>
</svg>
