<svg width="24" height="24" viewBox="0 0 24 24" fill="none" xmlns="http://www.w3.org/2000/svg">
<path opacity="0.4" fill-rule="evenodd" clip-rule="evenodd" d="M16 3.75C16 3.33579 16.3358 3 16.75 3C19.9256 3 22.5 5.57436 22.5 8.75C22.5 10.0436 22.0719 11.2394 21.35 12.2004C21.1013 12.5316 20.6311 12.5984 20.2999 12.3497C19.9687 12.1009 19.9019 11.6308 20.1507 11.2996C20.6842 10.5893 21 9.70763 21 8.75C21 6.6587 19.4895 4.9202 17.5 4.56597V15.75C17.5 16.1642 17.1642 16.5 16.75 16.5C16.3358 16.5 16 16.1642 16 15.75V3.75Z" fill="#28303F"/>
<path opacity="0.4" fill-rule="evenodd" clip-rule="evenodd" d="M1.25 4C1.25 3.58579 1.58579 3.25 2 3.25H13C13.4142 3.25 13.75 3.58579 13.75 4C13.75 4.41421 13.4142 4.75 13 4.75H2C1.58579 4.75 1.25 4.41421 1.25 4Z" fill="#28303F"/>
<path fill-rule="evenodd" clip-rule="evenodd" d="M1.25 8C1.25 7.58579 1.58579 7.25 2 7.25H13C13.4142 7.25 13.75 7.58579 13.75 8C13.75 8.41421 13.4142 8.75 13 8.75H2C1.58579 8.75 1.25 8.41421 1.25 8Z" fill="#28303F"/>
<path d="M17.5 16C17.5 18.2091 15.7091 20 13.5 20C11.2909 20 9.5 18.2091 9.5 16C9.5 13.7909 11.2909 12 13.5 12C15.7091 12 17.5 13.7909 17.5 16Z" fill="#28303F"/>
<path opacity="0.4" fill-rule="evenodd" clip-rule="evenodd" d="M1.25 12C1.25 11.5858 1.58579 11.25 2 11.25H6C6.41421 11.25 6.75 11.5858 6.75 12C6.75 12.4142 6.41421 12.75 6 12.75H2C1.58579 12.75 1.25 12.4142 1.25 12Z" fill="#28303F"/>
</svg>
