<svg width="24" height="24" viewBox="0 0 24 24" fill="none" xmlns="http://www.w3.org/2000/svg">
<path opacity="0.4" d="M11.8 4.40345L7.53323 7.60208C7.1871 7.86156 6.76617 8.00181 6.33358 8.00181H4C2.89543 8.00181 2 8.89684 2 10.0009V13.9991C2 15.1032 2.89543 15.9982 4 15.9982H6.33358C6.76617 15.9982 7.1871 16.1384 7.53323 16.3979L11.8 19.5966C13.1185 20.585 15 19.6446 15 17.9973V6.00272C15 4.35538 13.1185 3.41504 11.8 4.40345Z" fill="#28303F"/>
<path fill-rule="evenodd" clip-rule="evenodd" d="M20 9.25C20.4142 9.25 20.75 9.58579 20.75 10V11.25H22C22.4142 11.25 22.75 11.5858 22.75 12C22.75 12.4142 22.4142 12.75 22 12.75H20.75V14C20.75 14.4142 20.4142 14.75 20 14.75C19.5858 14.75 19.25 14.4142 19.25 14V12.75H18C17.5858 12.75 17.25 12.4142 17.25 12C17.25 11.5858 17.5858 11.25 18 11.25H19.25V10C19.25 9.58579 19.5858 9.25 20 9.25Z" fill="#28303F"/>
</svg>
