<svg width="24" height="24" viewBox="0 0 24 24" fill="none" xmlns="http://www.w3.org/2000/svg">
<path fill-rule="evenodd" clip-rule="evenodd" d="M17.3508 9.89216C17.5582 9.53361 18.017 9.41109 18.3755 9.6185C19.1956 10.0929 19.75 10.9813 19.75 12.0001C19.75 13.019 19.1956 13.9074 18.3755 14.3818C18.017 14.5892 17.5582 14.4667 17.3508 14.1081C17.1434 13.7496 17.2659 13.2908 17.6245 13.0834C18 12.8661 18.25 12.4619 18.25 12.0001C18.25 11.5384 18 11.1342 17.6245 10.9169C17.2659 10.7095 17.1434 10.2507 17.3508 9.89216Z" fill="#28303F"/>
<path fill-rule="evenodd" clip-rule="evenodd" d="M17.265 6.95105C17.3474 6.54511 17.7433 6.28283 18.1492 6.36523C20.7741 6.89806 22.75 9.21755 22.75 12.0002C22.75 14.7829 20.7741 17.1024 18.1492 17.6352C17.7433 17.7176 17.3474 17.4553 17.265 17.0494C17.1826 16.6435 17.4449 16.2476 17.8508 16.1652C19.7904 15.7715 21.25 14.0555 21.25 12.0002C21.25 9.94498 19.7904 8.22897 17.8508 7.83525C17.4449 7.75285 17.1826 7.35698 17.265 6.95105Z" fill="#28303F"/>
<path opacity="0.4" d="M11.8 4.40345L7.53323 7.60208C7.1871 7.86156 6.76617 8.00181 6.33358 8.00181H4C2.89543 8.00181 2 8.89684 2 10.0009V13.9991C2 15.1032 2.89543 15.9982 4 15.9982H6.33358C6.76617 15.9982 7.1871 16.1384 7.53323 16.3979L11.8 19.5966C13.1185 20.585 15 19.6446 15 17.9973V6.00272C15 4.35538 13.1185 3.41504 11.8 4.40345Z" fill="#28303F"/>
</svg>
