<svg width="24" height="24" viewBox="0 0 24 24" fill="none" xmlns="http://www.w3.org/2000/svg">
<path opacity="0.4" d="M13.8 4.40345L9.53323 7.60208C9.1871 7.86156 8.76617 8.00181 8.33358 8.00181H6C4.89543 8.00181 4 8.89684 4 10.0009V13.9991C4 15.1032 4.89543 15.9982 6 15.9982H8.33358C8.76617 15.9982 9.1871 16.1384 9.53323 16.3979L13.8 19.5966C15.1185 20.585 17 19.6446 17 17.9973V6.00272C17 4.35538 15.1185 3.41504 13.8 4.40345Z" fill="#28303F"/>
<path d="M9.53323 16.3979L13.8 19.5965C15.1017 20.5724 16.9523 19.6682 16.9991 18.0598L19.4697 20.5303C19.7626 20.8232 20.2374 20.8232 20.5303 20.5303C20.8232 20.2374 20.8232 19.7626 20.5303 19.4697L4.53033 3.46967C4.23744 3.17678 3.76256 3.17678 3.46967 3.46967C3.17678 3.76256 3.17678 4.23744 3.46967 4.53033L6.94115 8.00181H6C4.89543 8.00181 4 8.89684 4 10.0009V13.9991C4 15.1032 4.89543 15.9982 6 15.9982H8.33358C8.76617 15.9982 9.1871 16.1384 9.53323 16.3979Z" fill="#28303F"/>
</svg>
