<svg width="24" height="24" viewBox="0 0 24 24" fill="none" xmlns="http://www.w3.org/2000/svg">
<path opacity="0.4" d="M18 2H6C3.79086 2 2 3.79086 2 6V18C2 20.2091 3.79086 22 6 22H18C20.2091 22 22 20.2091 22 18V6C22 3.79086 20.2091 2 18 2Z" fill="#28303F"/>
<path d="M8.6626 2L5.66284 7.99951H7.33731L10.3371 2H16.6626L13.6628 7.99951H15.3373L18.3303 2.01345C20.3849 2.18141 22 3.90209 22 6V8H2V6C2 3.79086 3.79086 2 6 2H8.6626Z" fill="#28303F"/>
<path fill-rule="evenodd" clip-rule="evenodd" d="M12 11.25C12.4142 11.25 12.75 11.5858 12.75 12V14.25H15C15.4142 14.25 15.75 14.5858 15.75 15C15.75 15.4142 15.4142 15.75 15 15.75H12.75V18C12.75 18.4142 12.4142 18.75 12 18.75C11.5858 18.75 11.25 18.4142 11.25 18V15.75H9C8.58579 15.75 8.25 15.4142 8.25 15C8.25 14.5858 8.58579 14.25 9 14.25H11.25V12C11.25 11.5858 11.5858 11.25 12 11.25Z" fill="#28303F"/>
</svg>
