<svg width="24" height="24" viewBox="0 0 24 24" fill="none" xmlns="http://www.w3.org/2000/svg">
<path opacity="0.4" d="M18 2H6C3.79086 2 2 3.79086 2 6V18C2 20.2091 3.79086 22 6 22H18C20.2091 22 22 20.2091 22 18V6C22 3.79086 20.2091 2 18 2Z" fill="#28303F"/>
<path d="M8.6626 2L5.66284 7.99951H7.33731L10.3371 2H16.6626L13.6628 7.99951H15.3373L18.3303 2.01345C20.3849 2.18141 22 3.90209 22 6V8H2V6C2 3.79086 3.79086 2 6 2H8.6626Z" fill="#28303F"/>
<path fill-rule="evenodd" clip-rule="evenodd" d="M15.75 15C15.75 15.4142 15.4142 15.75 15 15.75L9 15.75C8.58579 15.75 8.25 15.4142 8.25 15C8.25 14.5858 8.58579 14.25 9 14.25L15 14.25C15.4142 14.25 15.75 14.5858 15.75 15Z" fill="#28303F"/>
</svg>
