<svg width="24" height="24" viewBox="0 0 24 24" fill="none" xmlns="http://www.w3.org/2000/svg">
<path opacity="0.4" d="M18 2H6C3.79086 2 2 3.79086 2 6V18C2 20.2091 3.79086 22 6 22H18C20.2091 22 22 20.2091 22 18V6C22 3.79086 20.2091 2 18 2Z" fill="#28303F"/>
<path d="M8.6626 2L5.66284 7.99951H7.33731L10.3371 2H16.6626L13.6628 7.99951H15.3373L18.3303 2.01345C20.3849 2.18141 22 3.90209 22 6V8H2V6C2 3.79086 3.79086 2 6 2H8.6626Z" fill="#28303F"/>
<path d="M12.2678 12.5995L12 12.889L11.7322 12.5995C10.9928 11.8002 9.79398 11.8002 9.05456 12.5995C8.31515 13.3988 8.31515 14.6948 9.05456 15.4941L10.9289 17.5204C11.5205 18.1599 12.4795 18.1599 13.0711 17.5204L14.9454 15.4941C15.6849 14.6948 15.6849 13.3988 14.9454 12.5995C14.206 11.8002 13.0072 11.8002 12.2678 12.5995Z" fill="#28303F"/>
</svg>
