<svg width="24" height="24" viewBox="0 0 24 24" fill="none" xmlns="http://www.w3.org/2000/svg">
<path opacity="0.4" d="M18 2H6C3.79086 2 2 3.79086 2 6V18C2 20.2091 3.79086 22 6 22H18C20.2091 22 22 20.2091 22 18V6C22 3.79086 20.2091 2 18 2Z" fill="#28303F"/>
<path d="M8.6626 2L5.66284 7.99951H7.33731L10.3371 2H16.6626L13.6628 7.99951H15.3373L18.3303 2.01345C20.3849 2.18141 22 3.90209 22 6V8H2V6C2 3.79086 3.79086 2 6 2H8.6626Z" fill="#28303F"/>
<path fill-rule="evenodd" clip-rule="evenodd" d="M15.4939 11.4356C15.8056 11.7083 15.8372 12.1822 15.5645 12.4939L12.6946 15.7738C12.0779 16.4786 11.0156 16.5729 10.2843 15.9879L8.53151 14.5857C8.20806 14.3269 8.15562 13.8549 8.41438 13.5315C8.67313 13.208 9.1451 13.1556 9.46855 13.4144L11.2214 14.8166C11.3258 14.9002 11.4776 14.8867 11.5657 14.786L14.4356 11.5061C14.7084 11.1944 15.1822 11.1628 15.4939 11.4356Z" fill="#28303F"/>
</svg>
