<svg width="24" height="24" viewBox="0 0 24 24" fill="none" xmlns="http://www.w3.org/2000/svg">
<path opacity="0.4" d="M18 2H6C3.79086 2 2 3.79086 2 6V18C2 20.2091 3.79086 22 6 22H18C20.2091 22 22 20.2091 22 18V6C22 3.79086 20.2091 2 18 2Z" fill="#28303F"/>
<path d="M8.6626 2L5.66284 7.99951H7.33731L10.3371 2H16.6626L13.6628 7.99951H15.3373L18.3303 2.01345C20.3849 2.18141 22 3.90209 22 6V8H2V6C2 3.79086 3.79086 2 6 2H8.6626Z" fill="#28303F"/>
<path fill-rule="evenodd" clip-rule="evenodd" d="M9.46967 12.4697C9.76256 12.1768 10.2374 12.1768 10.5303 12.4697L12 13.9393L13.4697 12.4697C13.7626 12.1768 14.2374 12.1768 14.5303 12.4697C14.8232 12.7626 14.8232 13.2374 14.5303 13.5303L13.0607 15L14.5303 16.4697C14.8232 16.7626 14.8232 17.2374 14.5303 17.5303C14.2374 17.8232 13.7626 17.8232 13.4697 17.5303L12 16.0607L10.5303 17.5303C10.2374 17.8232 9.76256 17.8232 9.46967 17.5303C9.17678 17.2374 9.17678 16.7626 9.46967 16.4697L10.9393 15L9.46967 13.5303C9.17678 13.2374 9.17678 12.7626 9.46967 12.4697Z" fill="#28303F"/>
</svg>
