<svg width="24" height="24" viewBox="0 0 24 24" fill="none" xmlns="http://www.w3.org/2000/svg">
<path opacity="0.4" d="M22 12C22 17.5228 17.5228 22 12 22C6.47715 22 2 17.5228 2 12C2 6.47715 6.47715 2 12 2C17.5228 2 22 6.47715 22 12Z" fill="#28303F"/>
<path fill-rule="evenodd" clip-rule="evenodd" d="M11.25 6C11.25 5.58579 11.5858 5.25 12 5.25C15.7279 5.25 18.75 8.27208 18.75 12C18.75 12.4142 18.4142 12.75 18 12.75C17.5858 12.75 17.25 12.4142 17.25 12C17.25 9.10051 14.8995 6.75 12 6.75C11.5858 6.75 11.25 6.41421 11.25 6Z" fill="#28303F"/>
<path d="M14 12C14 10.8954 13.1046 10 12 10C10.8954 10 10 10.8954 10 12C10 13.1046 10.8954 14 12 14C13.1046 14 14 13.1046 14 12Z" fill="#28303F"/>
</svg>
