<svg width="24" height="24" viewBox="0 0 24 24" fill="none" xmlns="http://www.w3.org/2000/svg">
<path opacity="0.4" d="M22 12C22 17.5228 17.5228 22 12 22C6.47715 22 2 17.5228 2 12C2 6.47715 6.47715 2 12 2C17.5228 2 22 6.47715 22 12Z" fill="#28303F"/>
<path d="M14 12C14 10.8954 13.1046 10 12 10C10.8954 10 10 10.8954 10 12C10 13.1046 10.8954 14 12 14C13.1046 14 14 13.1046 14 12Z" fill="#28303F"/>
<path fill-rule="evenodd" clip-rule="evenodd" d="M12 17.25C9.10051 17.25 6.75 14.8995 6.75 12C6.75 11.5858 6.41421 11.25 6 11.25C5.58579 11.25 5.25 11.5858 5.25 12C5.25 15.7279 8.27208 18.75 12 18.75C12.4142 18.75 12.75 18.4142 12.75 18C12.75 17.5858 12.4142 17.25 12 17.25Z" fill="#28303F"/>
<path fill-rule="evenodd" clip-rule="evenodd" d="M22 1.25C22.4142 1.25 22.75 1.58579 22.75 2V4.06325C22.75 4.87939 22.3875 5.65338 21.7605 6.17586L16.4802 10.5762C16.1619 10.8413 15.689 10.7983 15.4239 10.4801C15.1587 10.1619 15.2017 9.68901 15.5199 9.42383L20.8002 5.02353C21.0852 4.78603 21.25 4.43422 21.25 4.06325V2C21.25 1.58579 21.5858 1.25 22 1.25Z" fill="#28303F"/>
</svg>
