<svg width="24" height="24" viewBox="0 0 24 24" fill="none" xmlns="http://www.w3.org/2000/svg">
<path opacity="0.4" d="M2 6C2 3.79086 3.79086 2 6 2H18C20.2091 2 22 3.79086 22 6V18C22 20.2091 20.2091 22 18 22H6C3.79086 22 2 20.2091 2 18V6Z" fill="#28303F"/>
<path fill-rule="evenodd" clip-rule="evenodd" d="M12.75 9.5C12.75 8.25736 11.7426 7.25 10.5 7.25C9.25736 7.25 8.25 8.25736 8.25 9.5V10C8.25 10.6904 7.69036 11.25 7 11.25H6C5.58579 11.25 5.25 11.5858 5.25 12C5.25 12.4142 5.58579 12.75 6 12.75H7C8.51878 12.75 9.75 11.5188 9.75 10V9.5C9.75 9.08579 10.0858 8.75 10.5 8.75C10.9142 8.75 11.25 9.08579 11.25 9.5V14.5C11.25 15.7426 12.2574 16.75 13.5 16.75C14.7426 16.75 15.75 15.7426 15.75 14.5C15.75 14.0858 16.0858 13.75 16.5 13.75H18C18.4142 13.75 18.75 13.4142 18.75 13C18.75 12.5858 18.4142 12.25 18 12.25H16.5C15.2574 12.25 14.25 13.2574 14.25 14.5C14.25 14.9142 13.9142 15.25 13.5 15.25C13.0858 15.25 12.75 14.9142 12.75 14.5V9.5Z" fill="#28303F"/>
</svg>
