<svg width="24" height="24" viewBox="0 0 24 24" fill="none" xmlns="http://www.w3.org/2000/svg">
<path d="M8 2V5" stroke="#28303F" stroke-width="1.5" stroke-linecap="round" stroke-linejoin="round"/>
<path d="M16 2V5" stroke="#28303F" stroke-width="1.5" stroke-linecap="round" stroke-linejoin="round"/>
<path d="M3 7.5C3 5.29086 4.79086 3.5 7 3.5H17C19.2091 3.5 21 5.29086 21 7.5V18C21 20.2091 19.2091 22 17 22H7C4.79086 22 3 20.2091 3 18V7.5Z" stroke="#28303F" stroke-width="1.5"/>
<path d="M9.46852 14.4143C9.14507 14.1556 8.67311 14.208 8.41435 14.5315C8.15559 14.8549 8.20803 15.3269 8.53148 15.5857L9.46852 14.4143ZM15.5644 13.4939C15.8372 13.1822 15.8056 12.7083 15.4939 12.4356C15.1822 12.1628 14.7083 12.1944 14.4356 12.5061L15.5644 13.4939ZM10.7528 16.4023L10.2843 16.9879L10.7528 16.4023ZM8.53148 15.5857L10.2843 16.9879L11.2213 15.8166L9.46852 14.4143L8.53148 15.5857ZM12.6945 16.7738L15.5644 13.4939L14.4356 12.5061L11.5657 15.786L12.6945 16.7738ZM10.2843 16.9879C11.0156 17.5729 12.0778 17.4786 12.6945 16.7738L11.5657 15.786C11.4776 15.8867 11.3258 15.9002 11.2213 15.8166L10.2843 16.9879Z" fill="#28303F"/>
<path d="M3 9H21" stroke="#28303F" stroke-width="1.5" stroke-linecap="round"/>
</svg>
