<svg width="24" height="24" viewBox="0 0 24 24" fill="none" xmlns="http://www.w3.org/2000/svg">
<path d="M11.2191 14.9761C11.6195 14.4757 12.3805 14.4757 12.7809 14.9761L14.7002 17.3753C15.2241 18.0301 14.7579 19 13.9194 19H10.0806C9.24212 19 8.77595 18.0301 9.29976 17.3753L11.2191 14.9761Z" stroke="#28303F" stroke-width="1.5"/>
<path d="M5.6 6.8C4.11672 4.82229 5.52786 2 8 2H16C18.4721 2 19.8833 4.82229 18.4 6.8L15.85 10.2C15.05 11.2667 15.05 12.7333 15.85 13.8L18.4 17.2C19.8833 19.1777 18.4721 22 16 22H8C5.52786 22 4.11672 19.1777 5.6 17.2L8.15 13.8C8.95 12.7333 8.95 11.2667 8.15 10.2L5.6 6.8Z" stroke="#28303F" stroke-width="1.5"/>
</svg>
