<svg width="24" height="24" viewBox="0 0 24 24" fill="none" xmlns="http://www.w3.org/2000/svg">
<path d="M12.7809 9.02391C12.3805 9.52432 11.6195 9.52432 11.2191 9.02391L9.29976 6.62469C8.77595 5.96993 9.24212 5 10.0806 5L13.9194 5C14.7579 5 15.2241 5.96993 14.7002 6.62469L12.7809 9.02391Z" stroke="#28303F" stroke-width="1.5"/>
<path d="M18.4 17.2C19.8833 19.1777 18.4721 22 16 22L8 22C5.52786 22 4.11672 19.1777 5.6 17.2L8.15 13.8C8.95 12.7333 8.95 11.2667 8.15 10.2L5.6 6.8C4.11672 4.82229 5.52787 2 8 2L16 2C18.4721 2 19.8833 4.82229 18.4 6.8L15.85 10.2C15.05 11.2667 15.05 12.7333 15.85 13.8L18.4 17.2Z" stroke="#28303F" stroke-width="1.5"/>
</svg>
