<svg width="24" height="24" viewBox="0 0 24 24" fill="none" xmlns="http://www.w3.org/2000/svg">
<path d="M12 22.75C12.4142 22.75 12.75 22.4142 12.75 22C12.75 21.5858 12.4142 21.25 12 21.25V22.75ZM19.6297 14.8685C19.5571 15.2763 19.8288 15.6658 20.2366 15.7384C20.6444 15.811 21.0338 15.5393 21.1065 15.1315L19.6297 14.8685ZM12 21.25C7.71979 21.25 4.25 17.7802 4.25 13.5H2.75C2.75 18.6086 6.89137 22.75 12 22.75V21.25ZM4.25 13.5C4.25 9.21979 7.71979 5.75 12 5.75V4.25C6.89137 4.25 2.75 8.39137 2.75 13.5H4.25ZM12 5.75C16.2802 5.75 19.75 9.21979 19.75 13.5H21.25C21.25 8.39137 17.1086 4.25 12 4.25V5.75ZM19.75 13.5C19.75 13.9675 19.7087 14.4248 19.6297 14.8685L21.1065 15.1315C21.2008 14.6014 21.25 14.0561 21.25 13.5H19.75Z" fill="#28303F"/>
<path d="M14.7959 3.13575C15.1945 3.24849 15.609 3.01676 15.7217 2.61818C15.8344 2.21961 15.6027 1.80511 15.2041 1.69238L14.7959 3.13575ZM8.79588 1.69238C8.3973 1.80511 8.16558 2.21961 8.27831 2.61818C8.39104 3.01676 8.80554 3.24849 9.20412 3.13575L8.79588 1.69238ZM12 2.75C12.9703 2.75 13.908 2.88462 14.7959 3.13575L15.2041 1.69238C14.1847 1.40405 13.1097 1.25 12 1.25V2.75ZM9.20412 3.13575C10.092 2.88462 11.0297 2.75 12 2.75V1.25C10.8903 1.25 9.81531 1.40405 8.79588 1.69238L9.20412 3.13575Z" fill="#28303F"/>
<path d="M14.4685 19.4143C14.1451 19.1556 13.6731 19.208 13.4143 19.5315C13.1556 19.8549 13.208 20.3269 13.5315 20.5857L14.4685 19.4143ZM20.5644 18.4939C20.8372 18.1822 20.8056 17.7083 20.4939 17.4356C20.1822 17.1628 19.7083 17.1944 19.4356 17.5061L20.5644 18.4939ZM15.7528 21.4023L15.2843 21.9879L15.7528 21.4023ZM13.5315 20.5857L15.2843 21.9879L16.2213 20.8166L14.4685 19.4143L13.5315 20.5857ZM17.6945 21.7738L20.5644 18.4939L19.4356 17.5061L16.5657 20.786L17.6945 21.7738ZM15.2843 21.9879C16.0156 22.5729 17.0778 22.4786 17.6945 21.7738L16.5657 20.786C16.4776 20.8867 16.3258 20.9002 16.2213 20.8166L15.2843 21.9879Z" fill="#28303F"/>
<path d="M13.5 14C13.5 14.8284 12.8284 15.5 12 15.5C11.1716 15.5 10.5 14.8284 10.5 14C10.5 13.1716 11.1716 12.5 12 12.5C12.8284 12.5 13.5 13.1716 13.5 14Z" stroke="#28303F" stroke-width="1.5"/>
<path d="M12 12V9" stroke="#28303F" stroke-width="1.5" stroke-linecap="round" stroke-linejoin="round"/>
</svg>
