<svg width="24" height="24" viewBox="0 0 24 24" fill="none" xmlns="http://www.w3.org/2000/svg">
<path d="M19.75 13.5C19.75 13.9142 20.0858 14.25 20.5 14.25C20.9142 14.25 21.25 13.9142 21.25 13.5H19.75ZM20.5 22.75C20.9142 22.75 21.25 22.4142 21.25 22C21.25 21.5858 20.9142 21.25 20.5 21.25V22.75ZM12 21.25C7.71979 21.25 4.25 17.7802 4.25 13.5H2.75C2.75 18.6086 6.89137 22.75 12 22.75V21.25ZM4.25 13.5C4.25 9.21979 7.71979 5.75 12 5.75V4.25C6.89137 4.25 2.75 8.39137 2.75 13.5H4.25ZM12 5.75C16.2802 5.75 19.75 9.21979 19.75 13.5H21.25C21.25 8.39137 17.1086 4.25 12 4.25V5.75ZM12 22.75H20.5V21.25H12V22.75Z" fill="#28303F"/>
<path d="M14.7959 3.13575C15.1945 3.24849 15.609 3.01676 15.7217 2.61818C15.8344 2.21961 15.6027 1.80511 15.2041 1.69238L14.7959 3.13575ZM8.79588 1.69238C8.3973 1.80511 8.16558 2.21961 8.27831 2.61818C8.39104 3.01676 8.80554 3.24849 9.20412 3.13575L8.79588 1.69238ZM12 2.75C12.9703 2.75 13.908 2.88462 14.7959 3.13575L15.2041 1.69238C14.1847 1.40405 13.1097 1.25 12 1.25V2.75ZM9.20412 3.13575C10.092 2.88462 11.0297 2.75 12 2.75V1.25C10.8903 1.25 9.81531 1.40405 8.79588 1.69238L9.20412 3.13575Z" fill="#28303F"/>
<path d="M13.5 14C13.5 14.8284 12.8284 15.5 12 15.5C11.1716 15.5 10.5 14.8284 10.5 14C10.5 13.1716 11.1716 12.5 12 12.5C12.8284 12.5 13.5 13.1716 13.5 14Z" stroke="#28303F" stroke-width="1.5"/>
<path d="M12 12V9" stroke="#28303F" stroke-width="1.5" stroke-linecap="round" stroke-linejoin="round"/>
<path d="M16 19L20.5 19" stroke="#28303F" stroke-width="1.5" stroke-linecap="round" stroke-linejoin="round"/>
<path d="M18 16H20.5" stroke="#28303F" stroke-width="1.5" stroke-linecap="round" stroke-linejoin="round"/>
</svg>
