<svg width="24" height="24" viewBox="0 0 24 24" fill="none" xmlns="http://www.w3.org/2000/svg">
<path d="M19.6297 14.8685C19.5571 15.2763 19.8288 15.6658 20.2366 15.7384C20.6444 15.811 21.0338 15.5393 21.1065 15.1315L19.6297 14.8685ZM13.0873 22.6867C13.4987 22.6385 13.7931 22.2659 13.7449 21.8545C13.6967 21.4431 13.3241 21.1487 12.9127 21.1969L13.0873 22.6867ZM12 21.25C7.71979 21.25 4.25 17.7802 4.25 13.5H2.75C2.75 18.6086 6.89137 22.75 12 22.75V21.25ZM4.25 13.5C4.25 9.21979 7.71979 5.75 12 5.75V4.25C6.89137 4.25 2.75 8.39137 2.75 13.5H4.25ZM12 5.75C16.2802 5.75 19.75 9.21979 19.75 13.5H21.25C21.25 8.39137 17.1086 4.25 12 4.25V5.75ZM19.75 13.5C19.75 13.9675 19.7087 14.4248 19.6297 14.8685L21.1065 15.1315C21.2008 14.6014 21.25 14.0561 21.25 13.5H19.75ZM12.9127 21.1969C12.6136 21.2319 12.3091 21.25 12 21.25V22.75C12.3675 22.75 12.7304 22.7285 13.0873 22.6867L12.9127 21.1969Z" fill="#28303F"/>
<path d="M14.7959 3.13575C15.1945 3.24849 15.609 3.01676 15.7217 2.61818C15.8344 2.21961 15.6027 1.80511 15.2041 1.69238L14.7959 3.13575ZM8.79588 1.69238C8.3973 1.80511 8.16558 2.21961 8.27831 2.61818C8.39104 3.01676 8.80554 3.24849 9.20412 3.13575L8.79588 1.69238ZM12 2.75C12.9703 2.75 13.908 2.88462 14.7959 3.13575L15.2041 1.69238C14.1847 1.40405 13.1097 1.25 12 1.25V2.75ZM9.20412 3.13575C10.092 2.88462 11.0297 2.75 12 2.75V1.25C10.8903 1.25 9.81531 1.40405 8.79588 1.69238L9.20412 3.13575Z" fill="#28303F"/>
<path d="M20.5303 18.2877C20.8232 17.9948 20.8232 17.5199 20.5303 17.227C20.2374 16.9341 19.7625 16.9341 19.4696 17.227L20.5303 18.2877ZM15.227 21.4696C14.9341 21.7625 14.9341 22.2374 15.227 22.5303C15.5199 22.8232 15.9948 22.8232 16.2877 22.5303L15.227 21.4696ZM19.4696 22.5303C19.7625 22.8232 20.2374 22.8232 20.5303 22.5303C20.8232 22.2374 20.8232 21.7626 20.5303 21.4697L19.4696 22.5303ZM16.2877 17.227C15.9948 16.9341 15.5199 16.9341 15.227 17.227C14.9341 17.5199 14.9341 17.9948 15.227 18.2877L16.2877 17.227ZM19.4696 17.227L15.227 21.4696L16.2877 22.5303L20.5303 18.2877L19.4696 17.227ZM20.5303 21.4697L16.2877 17.227L15.227 18.2877L19.4696 22.5303L20.5303 21.4697Z" fill="#28303F"/>
<path d="M13.5 14C13.5 14.8284 12.8284 15.5 12 15.5C11.1716 15.5 10.5 14.8284 10.5 14C10.5 13.1716 11.1716 12.5 12 12.5C12.8284 12.5 13.5 13.1716 13.5 14Z" stroke="#28303F" stroke-width="1.5"/>
<path d="M12 12V9" stroke="#28303F" stroke-width="1.5" stroke-linecap="round" stroke-linejoin="round"/>
</svg>
