<svg width="24" height="24" viewBox="0 0 24 24" fill="none" xmlns="http://www.w3.org/2000/svg">
<rect x="18" y="16" width="4" height="6" rx="2" stroke="#28303F" stroke-width="1.5" stroke-linejoin="round"/>
<path d="M15.75 16C15.75 15.5858 15.4142 15.25 15 15.25C14.5858 15.25 14.25 15.5858 14.25 16H15.75ZM14.25 22C14.25 22.4142 14.5858 22.75 15 22.75C15.4142 22.75 15.75 22.4142 15.75 22H14.25ZM14.25 16V22H15.75V16H14.25Z" fill="#28303F"/>
<path d="M21.25 12C21.25 12.4142 21.5858 12.75 22 12.75C22.4142 12.75 22.75 12.4142 22.75 12H21.25ZM11.8889 22.75C12.3031 22.75 12.6389 22.4142 12.6389 22C12.6389 21.5858 12.3031 21.25 11.8889 21.25V22.75ZM6 2.75H18V1.25H6V2.75ZM2.75 18V6H1.25V18H2.75ZM21.25 6V12H22.75V6H21.25ZM11.8889 21.25H6V22.75H11.8889V21.25ZM1.25 18C1.25 20.6234 3.37665 22.75 6 22.75V21.25C4.20508 21.25 2.75 19.7949 2.75 18H1.25ZM18 2.75C19.7949 2.75 21.25 4.20507 21.25 6H22.75C22.75 3.37665 20.6234 1.25 18 1.25V2.75ZM6 1.25C3.37665 1.25 1.25 3.37665 1.25 6H2.75C2.75 4.20507 4.20507 2.75 6 2.75V1.25Z" fill="#28303F"/>
<path d="M12 7V12L9 13" stroke="#28303F" stroke-width="1.5" stroke-linecap="round" stroke-linejoin="round"/>
<path d="M22 12L20 10" stroke="#28303F" stroke-width="1.5" stroke-linecap="round" stroke-linejoin="round"/>
</svg>
