<svg width="24" height="24" viewBox="0 0 24 24" fill="none" xmlns="http://www.w3.org/2000/svg">
<path d="M12 21.25C11.5858 21.25 11.25 21.5858 11.25 22C11.25 22.4142 11.5858 22.75 12 22.75L12 21.25ZM1.25 12C1.25 12.4142 1.58579 12.75 2 12.75C2.41421 12.75 2.75 12.4142 2.75 12L1.25 12ZM12 2.75C17.1086 2.75 21.25 6.89136 21.25 12L22.75 12C22.75 6.06294 17.9371 1.25 12 1.25L12 2.75ZM21.25 12C21.25 17.1086 17.1086 21.25 12 21.25L12 22.75C17.9371 22.75 22.75 17.9371 22.75 12L21.25 12ZM2.75 12C2.75 6.89137 6.89137 2.75 12 2.75L12 1.25C6.06294 1.25 1.25 6.06294 1.25 12L2.75 12Z" fill="#28303F"/>
<path d="M12 22.75C12.4142 22.75 12.75 22.4142 12.75 22C12.75 21.5858 12.4142 21.25 12 21.25L12 22.75ZM2.75 12C2.75 11.5858 2.41421 11.25 2 11.25C1.58579 11.25 1.25 11.5858 1.25 12L2.75 12ZM11.7395 21.2464C11.3254 21.235 10.9805 21.5614 10.9691 21.9754C10.9576 22.3895 11.284 22.7344 11.6981 22.7458L11.7395 21.2464ZM8.16504 22.0456C8.55199 22.1934 8.98549 21.9995 9.13329 21.6126C9.28109 21.2256 9.08722 20.7921 8.70028 20.6443L8.16504 22.0456ZM8.22118 20.4456C7.84319 20.2762 7.39944 20.4453 7.23004 20.8233C7.06063 21.2013 7.22972 21.6451 7.60771 21.8145L8.22118 20.4456ZM4.61469 19.8115C4.91563 20.0962 5.39032 20.0829 5.67494 19.782C5.95955 19.481 5.94632 19.0063 5.64537 18.7217L4.61469 19.8115ZM5.27827 18.3546C4.99365 18.0537 4.51896 18.0404 4.21802 18.3251C3.91708 18.6097 3.90384 19.0844 4.18846 19.3853L5.27827 18.3546ZM2.18554 16.3923C2.35494 16.7703 2.79869 16.9394 3.17668 16.77C3.55467 16.6006 3.72376 16.1568 3.55436 15.7788L2.18554 16.3923ZM3.35568 15.2997C3.20788 14.9128 2.77438 14.7189 2.38743 14.8667C2.00049 15.0145 1.80662 15.448 1.95442 15.835L3.35568 15.2997ZM1.25416 12.3019C1.2656 12.716 1.61052 13.0424 2.02458 13.0309C2.43863 13.0195 2.76502 12.6746 2.75359 12.2605L1.25416 12.3019ZM12 21.25C11.9129 21.25 11.826 21.2488 11.7395 21.2464L11.6981 22.7458C11.7984 22.7486 11.899 22.75 12 22.75L12 21.25ZM8.70028 20.6443C8.53835 20.5825 8.3786 20.5162 8.22118 20.4456L7.60771 21.8145C7.79082 21.8965 7.97666 21.9736 8.16504 22.0456L8.70028 20.6443ZM5.64537 18.7217C5.51962 18.6028 5.3972 18.4804 5.27827 18.3546L4.18846 19.3853C4.32654 19.5313 4.46868 19.6735 4.61469 19.8115L5.64537 18.7217ZM3.55436 15.7788C3.4838 15.6214 3.41753 15.4616 3.35568 15.2997L1.95442 15.835C2.02638 16.0233 2.10347 16.2092 2.18554 16.3923L3.55436 15.7788ZM2.75359 12.2605C2.7512 12.174 2.75 12.0871 2.75 12L1.25 12C1.25 12.101 1.25139 12.2016 1.25416 12.3019L2.75359 12.2605Z" fill="#28303F"/>
<path d="M13.5 12C13.5 12.8284 12.8284 13.5 12 13.5C11.1716 13.5 10.5 12.8284 10.5 12C10.5 11.1716 11.1716 10.5 12 10.5C12.8284 10.5 13.5 11.1716 13.5 12Z" stroke="#28303F" stroke-width="1.5"/>
<path d="M12 13.5L12 16M6 12L10.5 12" stroke="#28303F" stroke-width="1.5" stroke-linecap="round" stroke-linejoin="round"/>
</svg>
