<svg width="24" height="24" viewBox="0 0 24 24" fill="none" xmlns="http://www.w3.org/2000/svg">
<path d="M12 21.25C11.5858 21.25 11.25 21.5858 11.25 22C11.25 22.4142 11.5858 22.75 12 22.75V21.25ZM12 1.25C11.5858 1.25 11.25 1.58579 11.25 2C11.25 2.41421 11.5858 2.75 12 2.75V1.25ZM21.25 12C21.25 17.1086 17.1086 21.25 12 21.25V22.75C17.9371 22.75 22.75 17.9371 22.75 12H21.25ZM12 2.75C17.1086 2.75 21.25 6.89137 21.25 12H22.75C22.75 6.06294 17.9371 1.25 12 1.25V2.75Z" fill="#28303F"/>
<path d="M12 22.75C12.4142 22.75 12.75 22.4142 12.75 22C12.75 21.5858 12.4142 21.25 12 21.25V22.75ZM12 2.75C12.4142 2.75 12.75 2.41421 12.75 2C12.75 1.58579 12.4142 1.25 12 1.25V2.75ZM11.6981 1.25416C11.284 1.2656 10.9576 1.61052 10.9691 2.02458C10.9805 2.43864 11.3254 2.76503 11.7395 2.75359L11.6981 1.25416ZM8.70028 3.35568C9.08722 3.20788 9.28109 2.77438 9.13329 2.38743C8.98549 2.00049 8.55199 1.80662 8.16504 1.95442L8.70028 3.35568ZM7.60771 2.18554C7.22972 2.35494 7.06063 2.79869 7.23004 3.17668C7.39944 3.55467 7.84319 3.72376 8.22118 3.55436L7.60771 2.18554ZM5.64537 5.27827C5.94632 4.99365 5.95955 4.51896 5.67494 4.21802C5.39032 3.91708 4.91563 3.90384 4.61469 4.18846L5.64537 5.27827ZM4.18846 4.61469C3.90384 4.91563 3.91708 5.39032 4.21802 5.67494C4.51896 5.95955 4.99365 5.94632 5.27827 5.64537L4.18846 4.61469ZM3.55436 8.22118C3.72376 7.84319 3.55467 7.39944 3.17668 7.23004C2.79869 7.06063 2.35494 7.22973 2.18554 7.60771L3.55436 8.22118ZM1.95442 8.16504C1.80662 8.55199 2.00049 8.98549 2.38743 9.13329C2.77438 9.28109 3.20788 9.08722 3.35568 8.70028L1.95442 8.16504ZM2.75359 11.7395C2.76503 11.3254 2.43864 10.9805 2.02458 10.9691C1.61052 10.9576 1.2656 11.284 1.25416 11.6981L2.75359 11.7395ZM1.25416 12.3019C1.2656 12.716 1.61052 13.0424 2.02458 13.0309C2.43864 13.0195 2.76503 12.6746 2.75359 12.2605L1.25416 12.3019ZM3.35568 15.2997C3.20788 14.9128 2.77438 14.7189 2.38743 14.8667C2.00049 15.0145 1.80662 15.448 1.95442 15.835L3.35568 15.2997ZM2.18554 16.3923C2.35494 16.7703 2.79869 16.9394 3.17668 16.77C3.55467 16.6006 3.72376 16.1568 3.55436 15.7788L2.18554 16.3923ZM5.27827 18.3546C4.99365 18.0537 4.51896 18.0404 4.21802 18.3251C3.91708 18.6097 3.90384 19.0844 4.18846 19.3853L5.27827 18.3546ZM4.61469 19.8115C4.91563 20.0962 5.39032 20.0829 5.67494 19.782C5.95955 19.481 5.94632 19.0063 5.64537 18.7217L4.61469 19.8115ZM8.22118 20.4456C7.84319 20.2762 7.39944 20.4453 7.23004 20.8233C7.06063 21.2013 7.22973 21.6451 7.60771 21.8145L8.22118 20.4456ZM8.16504 22.0456C8.55199 22.1934 8.98549 21.9995 9.13329 21.6126C9.28109 21.2256 9.08722 20.7921 8.70028 20.6443L8.16504 22.0456ZM11.7395 21.2464C11.3254 21.235 10.9805 21.5614 10.9691 21.9754C10.9576 22.3895 11.284 22.7344 11.6981 22.7458L11.7395 21.2464ZM12 1.25C11.899 1.25 11.7984 1.25139 11.6981 1.25416L11.7395 2.75359C11.826 2.7512 11.9129 2.75 12 2.75V1.25ZM8.16504 1.95442C7.97666 2.02638 7.79082 2.10348 7.60771 2.18554L8.22118 3.55436C8.3786 3.4838 8.53835 3.41753 8.70028 3.35568L8.16504 1.95442ZM4.61469 4.18846C4.46868 4.32654 4.32654 4.46868 4.18846 4.61469L5.27827 5.64537C5.3972 5.51962 5.51962 5.3972 5.64537 5.27827L4.61469 4.18846ZM2.18554 7.60771C2.10348 7.79082 2.02638 7.97666 1.95442 8.16504L3.35568 8.70028C3.41753 8.53835 3.4838 8.3786 3.55436 8.22118L2.18554 7.60771ZM1.25416 11.6981C1.25139 11.7984 1.25 11.899 1.25 12H2.75C2.75 11.9129 2.7512 11.826 2.75359 11.7395L1.25416 11.6981ZM1.25 12C1.25 12.101 1.25139 12.2016 1.25416 12.3019L2.75359 12.2605C2.7512 12.174 2.75 12.0871 2.75 12H1.25ZM1.95442 15.835C2.02638 16.0233 2.10348 16.2092 2.18554 16.3923L3.55436 15.7788C3.4838 15.6214 3.41753 15.4616 3.35568 15.2997L1.95442 15.835ZM4.18846 19.3853C4.32654 19.5313 4.46868 19.6735 4.61469 19.8115L5.64537 18.7217C5.51962 18.6028 5.3972 18.4804 5.27827 18.3546L4.18846 19.3853ZM7.60771 21.8145C7.79082 21.8965 7.97666 21.9736 8.16504 22.0456L8.70028 20.6443C8.53835 20.5825 8.3786 20.5162 8.22118 20.4456L7.60771 21.8145ZM11.6981 22.7458C11.7984 22.7486 11.899 22.75 12 22.75V21.25C11.9129 21.25 11.826 21.2488 11.7395 21.2464L11.6981 22.7458Z" fill="#28303F"/>
<path d="M13.5 12C13.5 12.8284 12.8284 13.5 12 13.5C11.1716 13.5 10.5 12.8284 10.5 12C10.5 11.1716 11.1716 10.5 12 10.5C12.8284 10.5 13.5 11.1716 13.5 12Z" stroke="#28303F" stroke-width="1.5"/>
<path d="M12 13.5L12 15.25V16" stroke="#28303F" stroke-width="1.5" stroke-linecap="round" stroke-linejoin="round"/>
<path d="M12 6V8.5L12 10.5" stroke="#28303F" stroke-width="1.5" stroke-linecap="round" stroke-linejoin="round"/>
</svg>
