<svg width="24" height="24" viewBox="0 0 24 24" fill="none" xmlns="http://www.w3.org/2000/svg">
<path d="M21.25 13C21.25 13.4142 21.5858 13.75 22 13.75C22.4142 13.75 22.75 13.4142 22.75 13H21.25ZM13 22.75C13.4142 22.75 13.75 22.4142 13.75 22C13.75 21.5858 13.4142 21.25 13 21.25V22.75ZM6 2.75H18V1.25H6V2.75ZM2.75 18V6H1.25V18H2.75ZM21.25 6V13H22.75V6H21.25ZM13 21.25H6V22.75H13V21.25ZM1.25 18C1.25 20.6234 3.37665 22.75 6 22.75V21.25C4.20507 21.25 2.75 19.7949 2.75 18H1.25ZM18 2.75C19.7949 2.75 21.25 4.20507 21.25 6H22.75C22.75 3.37665 20.6234 1.25 18 1.25V2.75ZM6 1.25C3.37665 1.25 1.25 3.37665 1.25 6H2.75C2.75 4.20507 4.20507 2.75 6 2.75V1.25Z" fill="#28303F"/>
<path d="M15.4685 18.4143C15.1451 18.1556 14.6731 18.208 14.4143 18.5315C14.1556 18.8549 14.208 19.3269 14.5315 19.5857L15.4685 18.4143ZM21.5644 17.4939C21.8372 17.1822 21.8056 16.7083 21.4939 16.4356C21.1822 16.1628 20.7083 16.1944 20.4356 16.5061L21.5644 17.4939ZM16.7528 20.4023L16.2843 20.9879L16.7528 20.4023ZM14.5315 19.5857L16.2843 20.9879L17.2213 19.8166L15.4685 18.4143L14.5315 19.5857ZM18.6945 20.7738L21.5644 17.4939L20.4356 16.5061L17.5657 19.786L18.6945 20.7738ZM16.2843 20.9879C17.0156 21.5729 18.0778 21.4786 18.6945 20.7738L17.5657 19.786C17.4776 19.8867 17.3258 19.9002 17.2213 19.8166L16.2843 20.9879Z" fill="#28303F"/>
<path d="M13.5 12C13.5 12.8284 12.8284 13.5 12 13.5C11.1716 13.5 10.5 12.8284 10.5 12C10.5 11.1716 11.1716 10.5 12 10.5C12.8284 10.5 13.5 11.1716 13.5 12Z" stroke="#28303F" stroke-width="1.5"/>
<path d="M12 6V10.5M10.5 13.5L9 15" stroke="#28303F" stroke-width="1.5" stroke-linecap="round" stroke-linejoin="round"/>
</svg>
