<svg width="24" height="24" viewBox="0 0 24 24" fill="none" xmlns="http://www.w3.org/2000/svg">
<circle cx="12" cy="12" r="7" stroke="#28303F" stroke-width="1.5"/>
<path d="M12 9V12L10 13" stroke="#28303F" stroke-width="1.5" stroke-linecap="round" stroke-linejoin="round"/>
<path d="M17.75 17C17.75 16.5858 17.4142 16.25 17 16.25C16.5858 16.25 16.25 16.5858 16.25 17L17.75 17ZM7.75 17C7.75 16.5858 7.41421 16.25 7 16.25C6.58579 16.25 6.25 16.5858 6.25 17L7.75 17ZM16.25 17L16.25 20L17.75 20L17.75 17L16.25 17ZM15 21.25L9 21.25L9 22.75L15 22.75L15 21.25ZM7.75 20L7.75 17L6.25 17L6.25 20L7.75 20ZM9 21.25C8.30964 21.25 7.75 20.6904 7.75 20L6.25 20C6.25 21.5188 7.48122 22.75 9 22.75L9 21.25ZM16.25 20C16.25 20.6904 15.6904 21.25 15 21.25L15 22.75C16.5188 22.75 17.75 21.5188 17.75 20L16.25 20Z" fill="#28303F"/>
<path d="M17.75 7C17.75 7.41421 17.4142 7.75 17 7.75C16.5858 7.75 16.25 7.41421 16.25 7L17.75 7ZM7.75 7C7.75 7.41421 7.41421 7.75 7 7.75C6.58579 7.75 6.25 7.41421 6.25 7L7.75 7ZM16.25 7L16.25 4L17.75 4L17.75 7L16.25 7ZM15 2.75L9 2.75L9 1.25L15 1.25L15 2.75ZM7.75 4L7.75 7L6.25 7L6.25 4L7.75 4ZM9 2.75C8.30964 2.75 7.75 3.30964 7.75 4L6.25 4C6.25 2.48122 7.48122 1.25 9 1.25L9 2.75ZM16.25 4C16.25 3.30964 15.6904 2.75 15 2.75L15 1.25C16.5188 1.25 17.75 2.48122 17.75 4L16.25 4Z" fill="#28303F"/>
</svg>
