<svg width="24" height="24" viewBox="0 0 24 24" fill="none" xmlns="http://www.w3.org/2000/svg">
<rect x="5" y="5" width="14" height="14" rx="4" stroke="#28303F" stroke-width="1.5"/>
<path d="M12 9V12L10 13" stroke="#28303F" stroke-width="1.5" stroke-linecap="round" stroke-linejoin="round"/>
<path d="M17.75 19L17.75 18.25L16.25 18.25L16.25 19L17.75 19ZM7.75 19L7.75 18.25L6.25 18.25L6.25 19L7.75 19ZM16.25 19L16.25 20L17.75 20L17.75 19L16.25 19ZM15 21.25L9 21.25L9 22.75L15 22.75L15 21.25ZM7.75 20L7.75 19L6.25 19L6.25 20L7.75 20ZM9 21.25C8.30964 21.25 7.75 20.6904 7.75 20L6.25 20C6.25 21.5188 7.48122 22.75 9 22.75L9 21.25ZM16.25 20C16.25 20.6904 15.6904 21.25 15 21.25L15 22.75C16.5188 22.75 17.75 21.5188 17.75 20L16.25 20Z" fill="#28303F"/>
<path d="M17.75 5L17.75 5.75L16.25 5.75L16.25 5L17.75 5ZM7.75 5L7.75 5.75L6.25 5.75L6.25 5L7.75 5ZM16.25 5L16.25 4L17.75 4L17.75 5L16.25 5ZM15 2.75L9 2.75L9 1.25L15 1.25L15 2.75ZM7.75 4L7.75 5L6.25 5L6.25 4L7.75 4ZM9 2.75C8.30964 2.75 7.75 3.30964 7.75 4L6.25 4C6.25 2.48122 7.48122 1.25 9 1.25L9 2.75ZM16.25 4C16.25 3.30964 15.6904 2.75 15 2.75L15 1.25C16.5188 1.25 17.75 2.48122 17.75 4L16.25 4Z" fill="#28303F"/>
</svg>
