<svg width="24" height="24" viewBox="0 0 24 24" fill="none" xmlns="http://www.w3.org/2000/svg">
<path fill-rule="evenodd" clip-rule="evenodd" d="M7 4.25C6.58579 4.25 6.25 4.58579 6.25 5V12V19C6.25 19.4142 6.58579 19.75 7 19.75H13.5C15.8472 19.75 17.75 17.8472 17.75 15.5C17.75 13.5369 16.419 11.8846 14.6102 11.3965C15.3173 10.6374 15.75 9.61925 15.75 8.5C15.75 6.15279 13.8472 4.25 11.5 4.25H7ZM11.5 11.25C13.0188 11.25 14.25 10.0188 14.25 8.5C14.25 6.98122 13.0188 5.75 11.5 5.75H7.75V11.25H11.5ZM7.75 12.75V18.25H13.5C15.0188 18.25 16.25 17.0188 16.25 15.5C16.25 13.9812 15.0188 12.75 13.5 12.75H11.5H7.75Z" fill="#28303F"/>
</svg>
