<svg width="24" height="24" viewBox="0 0 24 24" fill="none" xmlns="http://www.w3.org/2000/svg">
<path fill-rule="evenodd" clip-rule="evenodd" d="M12.25 3.10414V6C12.25 8.62335 14.3766 10.75 17 10.75H19.8959C19.9645 11.045 20 11.3491 20 11.6569V17C20 19.2091 18.2091 21 16 21H8C5.79086 21 4 19.2091 4 17V7C4 4.79086 5.79086 3 8 3H11.3431C11.6509 3 11.955 3.03547 12.25 3.10414ZM13.75 3.80513V6C13.75 7.79493 15.2051 9.25 17 9.25H19.1949C19.0833 9.10195 18.961 8.96101 18.8284 8.82843L14.1716 4.17157C14.039 4.03899 13.898 3.91667 13.75 3.80513ZM7.25 12C7.25 11.5858 7.58579 11.25 8 11.25H12C12.4142 11.25 12.75 11.5858 12.75 12C12.75 12.4142 12.4142 12.75 12 12.75H8C7.58579 12.75 7.25 12.4142 7.25 12ZM8 15.25C7.58579 15.25 7.25 15.5858 7.25 16C7.25 16.4142 7.58579 16.75 8 16.75H16C16.4142 16.75 16.75 16.4142 16.75 16C16.75 15.5858 16.4142 15.25 16 15.25H8Z" fill="#28303F"/>
</svg>
