<svg width="24" height="24" viewBox="0 0 24 24" fill="none" xmlns="http://www.w3.org/2000/svg">
<path fill-rule="evenodd" clip-rule="evenodd" d="M6 2C3.79086 2 2 3.79086 2 6V18C2 20.2091 3.79086 22 6 22H18C20.2091 22 22 20.2091 22 18V6C22 3.79086 20.2091 2 18 2H6ZM12 5.25C12.3028 5.25 12.5759 5.43205 12.6923 5.71154L17.6923 17.7115C17.8516 18.0939 17.6708 18.533 17.2885 18.6923C16.9061 18.8516 16.467 18.6708 16.3077 18.2885L14.8333 14.75H9.16668L7.69232 18.2885C7.53301 18.6708 7.0939 18.8516 6.71155 18.6923C6.3292 18.533 6.14839 18.0939 6.3077 17.7115L11.3077 5.71154C11.4242 5.43205 11.6972 5.25 12 5.25ZM12 7.95L14.2083 13.25H9.79168L12 7.95Z" fill="#28303F"/>
</svg>
