<svg width="24" height="24" viewBox="0 0 24 24" fill="none" xmlns="http://www.w3.org/2000/svg">
<path fill-rule="evenodd" clip-rule="evenodd" d="M12.6923 3.71154C12.5759 3.43205 12.3028 3.25 12 3.25C11.6972 3.25 11.4242 3.43205 11.3077 3.71154L6.3077 15.7115C6.14839 16.0939 6.3292 16.533 6.71155 16.6923C7.0939 16.8516 7.53301 16.6708 7.69232 16.2885L9.16668 12.75H14.8333L16.3077 16.2885C16.467 16.6708 16.9061 16.8516 17.2885 16.6923C17.6708 16.533 17.8516 16.0939 17.6923 15.7115L12.6923 3.71154ZM14.2083 11.25L12 5.95L9.79168 11.25H14.2083ZM4.25 20C4.25 19.5858 4.58579 19.25 5 19.25H19C19.4142 19.25 19.75 19.5858 19.75 20C19.75 20.4142 19.4142 20.75 19 20.75H5C4.58579 20.75 4.25 20.4142 4.25 20Z" fill="#28303F"/>
</svg>
