<svg width="24" height="24" viewBox="0 0 24 24" fill="none" xmlns="http://www.w3.org/2000/svg">
<path fill-rule="evenodd" clip-rule="evenodd" d="M6.99995 3.25C7.30273 3.25 7.57581 3.43205 7.69226 3.71154L12.6923 15.7115C12.8516 16.0939 12.6708 16.533 12.2884 16.6923C11.9061 16.8516 11.467 16.6708 11.3076 16.2885L9.83329 12.75H4.16662L2.69226 16.2885C2.53295 16.6708 2.09384 16.8516 1.71149 16.6923C1.32914 16.533 1.14833 16.0939 1.30764 15.7115L6.30764 3.71154C6.4241 3.43205 6.69718 3.25 6.99995 3.25ZM6.99995 5.95L9.20828 11.25H4.79162L6.99995 5.95ZM22.7499 12V16C22.7499 16.4142 22.4142 16.75 21.9999 16.75C21.5857 16.75 21.2499 16.4142 21.2499 16V15.4641C20.4003 16.2616 19.2572 16.75 17.9999 16.75C15.3766 16.75 13.2499 14.6234 13.2499 12C13.2499 9.37665 15.3766 7.25 17.9999 7.25C19.2572 7.25 20.4003 7.73843 21.2499 8.53588V8C21.2499 7.58579 21.5857 7.25 21.9999 7.25C22.4142 7.25 22.7499 7.58579 22.7499 8V12ZM21.2499 12C21.2499 13.7949 19.7949 15.25 17.9999 15.25C16.205 15.25 14.7499 13.7949 14.7499 12C14.7499 10.2051 16.205 8.75 17.9999 8.75C19.7949 8.75 21.2499 10.2051 21.2499 12Z" fill="#28303F"/>
</svg>
