<svg width="24" height="24" viewBox="0 0 24 24" fill="none" xmlns="http://www.w3.org/2000/svg">
<path fill-rule="evenodd" clip-rule="evenodd" d="M6.5 7H8.5C9.60457 7 10.5 7.89543 10.5 9V12.5279C10.5 12.8384 10.4277 13.1446 10.2889 13.4223L8.87082 16.2584C8.64356 16.7129 8.179 17 7.67082 17C6.67347 17 6.02479 15.9504 6.47082 15.0584L7.5 13H6.5C5.39543 13 4.5 12.1046 4.5 11V9C4.5 7.89543 5.39543 7 6.5 7ZM15.5 7H17.5C18.6046 7 19.5 7.89543 19.5 9V12.5279C19.5 12.8384 19.4277 13.1446 19.2889 13.4223L17.8708 16.2584C17.6436 16.7129 17.179 17 16.6708 17C15.6735 17 15.0248 15.9504 15.4708 15.0584L16.5 13H15.5C14.3954 13 13.5 12.1046 13.5 11V9C13.5 7.89543 14.3954 7 15.5 7Z" fill="#28303F"/>
</svg>
