<svg width="24" height="24" viewBox="0 0 24 24" fill="none" xmlns="http://www.w3.org/2000/svg">
<path fill-rule="evenodd" clip-rule="evenodd" d="M2 3V6C2 6.55228 2.44772 7 3 7H3.75V17H3C2.44772 17 2 17.4477 2 18V21C2 21.5523 2.44772 22 3 22H6C6.55228 22 7 21.5523 7 21V20.25H17V21C17 21.5523 17.4477 22 18 22H21C21.5523 22 22 21.5523 22 21V18C22 17.4477 21.5523 17 21 17H20.25V7H21C21.5523 7 22 6.55228 22 6V3C22 2.44772 21.5523 2 21 2H18C17.4477 2 17 2.44772 17 3V3.75H7V3C7 2.44772 6.55228 2 6 2H3C2.44772 2 2 2.44772 2 3ZM5.25 17V7H6C6.55228 7 7 6.55228 7 6V5.25H17V6C17 6.55228 17.4477 7 18 7H18.75V17H18C17.4477 17 17 17.4477 17 18V18.75H7V18C7 17.4477 6.55228 17 6 17H5.25ZM11.9999 7.25C12.3 7.25 12.5711 7.4288 12.6893 7.70456L15.6893 14.7046C15.8525 15.0853 15.6761 15.5262 15.2954 15.6894C14.9147 15.8525 14.4738 15.6762 14.3106 15.2954L13.6483 13.75H10.3516L9.68931 15.2954C9.52614 15.6762 9.08523 15.8525 8.70451 15.6894C8.32379 15.5262 8.14742 15.0853 8.31059 14.7046L11.3106 7.70456C11.4288 7.4288 11.6999 7.25 11.9999 7.25ZM11.9999 9.90394L13.0054 12.25H10.9945L11.9999 9.90394Z" fill="#28303F"/>
</svg>
