<svg width="24" height="24" viewBox="0 0 24 24" fill="none" xmlns="http://www.w3.org/2000/svg">
<path fill-rule="evenodd" clip-rule="evenodd" d="M8.53033 16.5303L6.53033 18.5303C6.23744 18.8232 5.76256 18.8232 5.46967 18.5303L3.46967 16.5303C3.17678 16.2374 3.17678 15.7626 3.46967 15.4697C3.76256 15.1768 4.23744 15.1768 4.53033 15.4697L5.25 16.1893V7.81066L4.53033 8.53033C4.23744 8.82322 3.76256 8.82322 3.46967 8.53033C3.17678 8.23744 3.17678 7.76256 3.46967 7.46967L5.46967 5.46967C5.61032 5.32902 5.80109 5.25 6 5.25C6.19891 5.25 6.38968 5.32902 6.53033 5.46967L8.53033 7.46967C8.82322 7.76256 8.82322 8.23744 8.53033 8.53033C8.23744 8.82322 7.76256 8.82322 7.46967 8.53033L6.75 7.81066V16.1893L7.46967 15.4697C7.76256 15.1768 8.23744 15.1768 8.53033 15.4697C8.82322 15.7626 8.82322 16.2374 8.53033 16.5303ZM12 6.25C11.5858 6.25 11.25 6.58579 11.25 7C11.25 7.41421 11.5858 7.75 12 7.75H20C20.4142 7.75 20.75 7.41421 20.75 7C20.75 6.58579 20.4142 6.25 20 6.25H12ZM11.25 12C11.25 11.5858 11.5858 11.25 12 11.25H20C20.4142 11.25 20.75 11.5858 20.75 12C20.75 12.4142 20.4142 12.75 20 12.75H12C11.5858 12.75 11.25 12.4142 11.25 12ZM12 16.25C11.5858 16.25 11.25 16.5858 11.25 17C11.25 17.4142 11.5858 17.75 12 17.75H20C20.4142 17.75 20.75 17.4142 20.75 17C20.75 16.5858 20.4142 16.25 20 16.25H12Z" fill="#28303F"/>
</svg>
