<svg width="24" height="24" viewBox="0 0 24 24" fill="none" xmlns="http://www.w3.org/2000/svg">
<path fill-rule="evenodd" clip-rule="evenodd" d="M18.4697 19.5306L11.6553 12.7162L10.7424 19.1062C10.6839 19.5162 10.304 19.8011 9.89391 19.7426C9.48386 19.684 9.19893 19.3041 9.25751 18.894L10.3295 11.3904L4.46967 5.53057C4.17678 5.23768 4.17678 4.76281 4.46967 4.46991C4.76256 4.17702 5.23744 4.17702 5.53033 4.46991L19.5303 18.4699C19.8232 18.7628 19.8232 19.2377 19.5303 19.5306C19.2374 19.8235 18.7626 19.8235 18.4697 19.5306ZM12.0182 4.25024H18C18.4142 4.25024 18.75 4.58603 18.75 5.00024C18.75 5.41446 18.4142 5.75024 18 5.75024H12.6504L12.1705 9.10993L10.8446 7.78411L11.1352 5.75024H8.81066L7.31066 4.25024H11.9799C11.9926 4.24992 12.0054 4.24992 12.0182 4.25024Z" fill="#28303F"/>
</svg>
