<svg width="24" height="24" viewBox="0 0 24 24" fill="none" xmlns="http://www.w3.org/2000/svg">
<path fill-rule="evenodd" clip-rule="evenodd" d="M16 4.25H14.0187C14.0059 4.24967 13.9932 4.24968 13.9806 4.25H12C11.5858 4.25 11.25 4.58579 11.25 5C11.25 5.41421 11.5858 5.75 12 5.75H13.0057L9.43425 18.25H8C7.58579 18.25 7.25 18.5858 7.25 19C7.25 19.4142 7.58579 19.75 8 19.75H9.98585C9.99555 19.7502 10.0052 19.7502 10.0149 19.75H12C12.4142 19.75 12.75 19.4142 12.75 19C12.75 18.5858 12.4142 18.25 12 18.25H10.9943L14.5657 5.75H16C16.4142 5.75 16.75 5.41421 16.75 5C16.75 4.58579 16.4142 4.25 16 4.25Z" fill="#28303F"/>
</svg>
