<svg width="24" height="24" viewBox="0 0 24 24" fill="none" xmlns="http://www.w3.org/2000/svg">
<path fill-rule="evenodd" clip-rule="evenodd" d="M2.9165 6.99986C2.9165 6.58564 3.25229 6.24986 3.6665 6.24986H6.24986L6.24986 3.6665C6.24986 3.25229 6.58564 2.9165 6.99986 2.9165C7.41407 2.9165 7.74986 3.25229 7.74986 3.6665V6.99986C7.74986 7.41407 7.41407 7.74986 6.99986 7.74986L3.6665 7.74986C3.25229 7.74986 2.9165 7.41407 2.9165 6.99986ZM16.9999 21.0832C17.4141 21.0832 17.7499 20.7475 17.7499 20.3332V17.7499H20.3332C20.7475 17.7499 21.0832 17.4141 21.0832 16.9999C21.0832 16.5857 20.7475 16.2499 20.3332 16.2499H16.9999C16.5857 16.2499 16.2499 16.5857 16.2499 16.9999V20.3332C16.2499 20.7475 16.5857 21.0832 16.9999 21.0832ZM15.0302 10.0303C15.3231 9.73741 15.3231 9.26253 15.0302 8.96964C14.7373 8.67675 14.2624 8.67675 13.9696 8.96964L8.96953 13.9697C8.67663 14.2626 8.67663 14.7374 8.96953 15.0303C9.26242 15.3232 9.73729 15.3232 10.0302 15.0303L15.0302 10.0303ZM18.1364 5.86365C16.5883 4.31559 14.0784 4.31559 12.5304 5.86366L10.8637 7.53033C10.5708 7.82323 10.0959 7.82323 9.80302 7.53033C9.51013 7.23744 9.51013 6.76256 9.80302 6.46967L11.4697 4.803C13.6036 2.66914 17.0632 2.66914 19.1971 4.80299C21.3309 6.93685 21.3309 10.3965 19.1971 12.5304L17.5304 14.197C17.2375 14.4899 16.7626 14.4899 16.4697 14.197C16.1768 13.9041 16.1768 13.4293 16.4697 13.1364L18.1364 11.4697C19.6845 9.92164 19.6845 7.41172 18.1364 5.86365ZM11.4694 18.1363C9.92135 19.6844 7.41143 19.6844 5.86337 18.1363C4.3153 16.5882 4.3153 14.0783 5.86337 12.5303L7.53004 10.8636C7.82294 10.5707 7.82294 10.0958 7.53004 9.80292C7.23715 9.51003 6.76228 9.51003 6.46938 9.80292L4.80271 11.4696C2.66885 13.6034 2.66885 17.0631 4.80271 19.197C6.93656 21.3308 10.3962 21.3308 12.5301 19.197L14.1968 17.5303C14.4896 17.2374 14.4896 16.7625 14.1968 16.4696C13.9039 16.1767 13.429 16.1767 13.1361 16.4696L11.4694 18.1363Z" fill="#28303F"/>
</svg>
