<svg width="24" height="24" viewBox="0 0 24 24" fill="none" xmlns="http://www.w3.org/2000/svg">
<path fill-rule="evenodd" clip-rule="evenodd" d="M18.1362 5.86369C16.5882 4.31562 14.0783 4.31562 12.5302 5.86369L10.8635 7.53036C10.5706 7.82326 10.0957 7.82326 9.80285 7.53036C9.50996 7.23747 9.50996 6.7626 9.80285 6.4697L11.4695 4.80303C13.6034 2.66917 17.063 2.66917 19.1969 4.80303C21.3308 6.93688 21.3308 10.3965 19.1969 12.5304L17.5302 14.1971C17.2373 14.49 16.7625 14.49 16.4696 14.1971C16.1767 13.9042 16.1767 13.4293 16.4696 13.1364L18.1362 11.4697C19.6843 9.92167 19.6843 7.41175 18.1362 5.86369ZM14.6516 9.34833C14.9445 9.64123 14.9445 10.1161 14.6516 10.409L10.409 14.6516C10.1161 14.9445 9.64122 14.9445 9.34833 14.6516C9.05544 14.3587 9.05544 13.8839 9.34833 13.591L13.591 9.34833C13.8839 9.05544 14.3587 9.05544 14.6516 9.34833ZM11.4695 18.1363C9.92142 19.6844 7.41151 19.6844 5.86344 18.1363C4.31538 16.5883 4.31538 14.0784 5.86344 12.5303L7.53012 10.8636C7.82301 10.5707 7.82301 10.0958 7.53012 9.80295C7.23723 9.51006 6.76235 9.51006 6.46946 9.80295L4.80278 11.4696C2.66893 13.6035 2.66893 17.0631 4.80278 19.197C6.93664 21.3309 10.3963 21.3308 12.5302 19.197L14.1968 17.5303C14.4897 17.2374 14.4897 16.7626 14.1968 16.4697C13.9039 16.1768 13.4291 16.1768 13.1362 16.4697L11.4695 18.1363Z" fill="#28303F"/>
</svg>
