<svg width="24" height="24" viewBox="0 0 24 24" fill="none" xmlns="http://www.w3.org/2000/svg">
<path fill-rule="evenodd" clip-rule="evenodd" d="M7 4.25C7.41421 4.25 7.75 4.58579 7.75 5V8C7.75 8.13807 7.86193 8.25 8 8.25H16C16.1381 8.25 16.25 8.13807 16.25 8V5C16.25 4.58579 16.5858 4.25 17 4.25C17.4142 4.25 17.75 4.58579 17.75 5V8C17.75 8.9665 16.9665 9.75 16 9.75H8C7.0335 9.75 6.25 8.9665 6.25 8V5C6.25 4.58579 6.58579 4.25 7 4.25ZM3.46967 13.4697C3.17678 13.7626 3.17678 14.2374 3.46967 14.5303C3.76256 14.8232 4.23744 14.8232 4.53033 14.5303L6.53033 12.5303C6.82322 12.2374 6.82322 11.7626 6.53033 11.4697L4.53033 9.46967C4.23744 9.17678 3.76256 9.17678 3.46967 9.46967C3.17678 9.76256 3.17678 10.2374 3.46967 10.5303L4.93934 12L3.46967 13.4697ZM20.5303 13.4697C20.8232 13.7626 20.8232 14.2374 20.5303 14.5303C20.2374 14.8232 19.7626 14.8232 19.4697 14.5303L17.4697 12.5303C17.1768 12.2374 17.1768 11.7626 17.4697 11.4697L19.4697 9.46967C19.7626 9.17678 20.2374 9.17678 20.5303 9.46967C20.8232 9.76256 20.8232 10.2374 20.5303 10.5303L19.0607 12L20.5303 13.4697ZM16.25 19C16.25 19.4142 16.5858 19.75 17 19.75C17.4142 19.75 17.75 19.4142 17.75 19V16C17.75 15.0335 16.9665 14.25 16 14.25H8C7.0335 14.25 6.25 15.0335 6.25 16V19C6.25 19.4142 6.58579 19.75 7 19.75C7.41421 19.75 7.75 19.4142 7.75 19V16C7.75 15.8619 7.86193 15.75 8 15.75H16C16.1381 15.75 16.25 15.8619 16.25 16V19Z" fill="#28303F"/>
</svg>
