<svg width="24" height="24" viewBox="0 0 24 24" fill="none" xmlns="http://www.w3.org/2000/svg">
<path fill-rule="evenodd" clip-rule="evenodd" d="M9 6.75C7.75736 6.75 6.75 7.75736 6.75 9C6.75 10.2426 7.75736 11.25 9 11.25H9.25V6.75H9ZM10.75 6.75V18C10.75 18.4142 10.4142 18.75 10 18.75C9.58579 18.75 9.25 18.4142 9.25 18V12.75H9C6.92893 12.75 5.25 11.0711 5.25 9C5.25 6.92893 6.92893 5.25 9 5.25H18C18.4142 5.25 18.75 5.58579 18.75 6C18.75 6.41421 18.4142 6.75 18 6.75H14.75V18C14.75 18.4142 14.4142 18.75 14 18.75C13.5858 18.75 13.25 18.4142 13.25 18V6.75H10.75Z" fill="#28303F"/>
</svg>
