<svg width="24" height="24" viewBox="0 0 24 24" fill="none" xmlns="http://www.w3.org/2000/svg">
<path fill-rule="evenodd" clip-rule="evenodd" d="M9.0002 3.25C9.30297 3.25 9.57605 3.43205 9.6925 3.71154L14.6925 15.7115C14.8518 16.0939 14.671 16.533 14.2887 16.6923C13.9063 16.8516 13.4672 16.6708 13.3079 16.2885L11.8335 12.75H6.16686L4.6925 16.2885C4.53319 16.6708 4.09409 16.8516 3.71173 16.6923C3.32938 16.533 3.14858 16.0939 3.30789 15.7115L8.30789 3.71154C8.42434 3.43205 8.69742 3.25 9.0002 3.25ZM9.0002 5.95L11.2085 11.25H6.79186L9.0002 5.95ZM20.5454 14.515C20.8299 14.2138 20.8163 13.7392 20.5152 13.4547C20.214 13.1703 19.7393 13.1839 19.4549 13.485L14.4586 18.7753C14.3654 18.874 14.2105 18.8802 14.1096 18.7894L11.5019 16.4425C11.194 16.1654 10.7198 16.1904 10.4427 16.4983C10.1656 16.8062 10.1906 17.2804 10.4985 17.5575L13.1061 19.9044C13.8124 20.54 14.8967 20.496 15.5491 19.8052L20.5454 14.515Z" fill="#28303F"/>
</svg>
