<svg width="24" height="24" viewBox="0 0 24 24" fill="none" xmlns="http://www.w3.org/2000/svg">
<path fill-rule="evenodd" clip-rule="evenodd" d="M6 21C3.79086 21 2 19.2091 2 17V7C2 4.79086 3.79086 3 6 3H18C20.2091 3 22 4.79086 22 7V12.3431C22 12.6509 21.9645 12.955 21.8959 13.25H19C16.3766 13.25 14.25 15.3766 14.25 18V20.8959C13.955 20.9645 13.6509 21 13.3431 21H6ZM15.75 20.1949C15.8981 20.0833 16.039 19.961 16.1716 19.8284L20.8284 15.1716C20.961 15.039 21.0833 14.898 21.1949 14.75H19C17.2051 14.75 15.75 16.2051 15.75 18V20.1949ZM6.25 9C6.25 8.58579 6.58579 8.25 7 8.25H17C17.4142 8.25 17.75 8.58579 17.75 9C17.75 9.41421 17.4142 9.75 17 9.75H7C6.58579 9.75 6.25 9.41421 6.25 9ZM7 13.25C6.58579 13.25 6.25 13.5858 6.25 14C6.25 14.4142 6.58579 14.75 7 14.75H12C12.4142 14.75 12.75 14.4142 12.75 14C12.75 13.5858 12.4142 13.25 12 13.25H7Z" fill="#28303F"/>
</svg>
