<svg width="24" height="24" viewBox="0 0 24 24" fill="none" xmlns="http://www.w3.org/2000/svg">
<path fill-rule="evenodd" clip-rule="evenodd" d="M5.25 5C5.25 4.58579 5.58579 4.25 6 4.25H12H18C18.4142 4.25 18.75 4.58579 18.75 5C18.75 5.41421 18.4142 5.75 18 5.75H12.75V10.25H11.25V5.75H6C5.58579 5.75 5.25 5.41421 5.25 5ZM3.25 12C3.25 11.5858 3.58579 11.25 4 11.25H20C20.4142 11.25 20.75 11.5858 20.75 12C20.75 12.4142 20.4142 12.75 20 12.75H12.75V19C12.75 19.4142 12.4142 19.75 12 19.75C11.5858 19.75 11.25 19.4142 11.25 19V12.75H4C3.58579 12.75 3.25 12.4142 3.25 12Z" fill="#28303F"/>
</svg>
