<svg width="24" height="24" viewBox="0 0 24 24" fill="none" xmlns="http://www.w3.org/2000/svg">
<path fill-rule="evenodd" clip-rule="evenodd" d="M12.75 5.5C10.8579 5.5 9.5 6.82216 9.5 8.25C9.5 8.89142 9.77402 9.51151 10.2474 10H8.41525C8.14959 9.47259 8 8.88236 8 8.25C8 5.81185 10.2239 4 12.75 4C15.2761 4 17.5 5.81185 17.5 8.25C17.5 8.66421 17.1642 9 16.75 9C16.3358 9 16 8.66421 16 8.25C16 6.82216 14.6421 5.5 12.75 5.5ZM12.75 12.5H3.75C3.33579 12.5 3 12.1642 3 11.75C3 11.3358 3.33579 11 3.75 11H12.75H19.75C20.1642 11 20.5 11.3358 20.5 11.75C20.5 12.1642 20.1642 12.5 19.75 12.5H16.3755C17.0709 13.2288 17.5 14.179 17.5 15.25C17.5 17.6882 15.2761 19.5 12.75 19.5C10.2239 19.5 8 17.6882 8 15.25C8 14.8358 8.33579 14.5 8.75 14.5C9.16421 14.5 9.5 14.8358 9.5 15.25C9.5 16.6778 10.8579 18 12.75 18C14.6421 18 16 16.6778 16 15.25C16 13.8222 14.6421 12.5 12.75 12.5Z" fill="#28303F"/>
</svg>
