<svg width="24" height="24" viewBox="0 0 24 24" fill="none" xmlns="http://www.w3.org/2000/svg">
<path fill-rule="evenodd" clip-rule="evenodd" d="M5 4.25C4.58579 4.25 4.25 4.58579 4.25 5C4.25 5.41421 4.58579 5.75 5 5.75H19C19.4142 5.75 19.75 5.41421 19.75 5C19.75 4.58579 19.4142 4.25 19 4.25H5ZM16 10.25C18.0711 10.25 19.75 11.9289 19.75 14C19.75 16.0711 18.0711 17.75 16 17.75L13.8107 17.75L14.5303 18.4697C14.8232 18.7626 14.8232 19.2374 14.5303 19.5303C14.2374 19.8232 13.7626 19.8232 13.4697 19.5303L11.4697 17.5303C11.1768 17.2374 11.1768 16.7626 11.4697 16.4697L13.4697 14.4697C13.7626 14.1768 14.2374 14.1768 14.5303 14.4697C14.8232 14.7626 14.8232 15.2374 14.5303 15.5303L13.8107 16.25L16 16.25C17.2426 16.25 18.25 15.2426 18.25 14C18.25 12.7574 17.2426 11.75 16 11.75H5C4.58579 11.75 4.25 11.4142 4.25 11C4.25 10.5858 4.58579 10.25 5 10.25H16ZM4.25 17C4.25 16.5858 4.58579 16.25 5 16.25H9C9.41421 16.25 9.75 16.5858 9.75 17C9.75 17.4142 9.41421 17.75 9 17.75H5C4.58579 17.75 4.25 17.4142 4.25 17Z" fill="#28303F"/>
</svg>
