<svg width="24" height="24" viewBox="0 0 24 24" fill="none" xmlns="http://www.w3.org/2000/svg">
<path fill-rule="evenodd" clip-rule="evenodd" d="M6.25 5C6.25 4.58579 6.58579 4.25 7 4.25H12H17C17.4142 4.25 17.75 4.58579 17.75 5C17.75 5.41421 17.4142 5.75 17 5.75H12.75V13C12.75 13.4142 12.4142 13.75 12 13.75C11.5858 13.75 11.25 13.4142 11.25 13V5.75H7C6.58579 5.75 6.25 5.41421 6.25 5ZM4.46967 17.5303C4.32902 17.3897 4.25 17.1989 4.25 17C4.25 16.8011 4.32902 16.6103 4.46967 16.4697L6.46967 14.4697C6.76256 14.1768 7.23744 14.1768 7.53033 14.4697C7.82322 14.7626 7.82322 15.2374 7.53033 15.5303L6.81066 16.25L17.1893 16.25L16.4697 15.5303C16.1768 15.2374 16.1768 14.7626 16.4697 14.4697C16.7626 14.1768 17.2374 14.1768 17.5303 14.4697L19.5303 16.4697C19.8232 16.7626 19.8232 17.2374 19.5303 17.5303L17.5303 19.5303C17.2374 19.8232 16.7626 19.8232 16.4697 19.5303C16.1768 19.2374 16.1768 18.7626 16.4697 18.4697L17.1893 17.75L6.81066 17.75L7.53033 18.4697C7.82322 18.7626 7.82322 19.2374 7.53033 19.5303C7.23744 19.8232 6.76256 19.8232 6.46967 19.5303L4.46967 17.5303Z" fill="#28303F"/>
</svg>
