<svg width="24" height="24" viewBox="0 0 24 24" fill="none" xmlns="http://www.w3.org/2000/svg">
<path fill-rule="evenodd" clip-rule="evenodd" d="M7.75 4C7.75 3.58579 7.41421 3.25 7 3.25C6.58579 3.25 6.25 3.58579 6.25 4V11C6.25 14.1756 8.82436 16.75 12 16.75C15.1756 16.75 17.75 14.1756 17.75 11V4C17.75 3.58579 17.4142 3.25 17 3.25C16.5858 3.25 16.25 3.58579 16.25 4V11C16.25 13.3472 14.3472 15.25 12 15.25C9.65279 15.25 7.75 13.3472 7.75 11V4ZM5 19.25C4.58579 19.25 4.25 19.5858 4.25 20C4.25 20.4142 4.58579 20.75 5 20.75H19C19.4142 20.75 19.75 20.4142 19.75 20C19.75 19.5858 19.4142 19.25 19 19.25H5Z" fill="#28303F"/>
</svg>
