<svg width="24" height="24" viewBox="0 0 24 24" fill="none" xmlns="http://www.w3.org/2000/svg">
<path opacity="0.4" fill-rule="evenodd" clip-rule="evenodd" d="M5.25 8C5.25 7.58579 5.58579 7.25 6 7.25H18C18.4142 7.25 18.75 7.58579 18.75 8C18.75 8.41421 18.4142 8.75 18 8.75H6C5.58579 8.75 5.25 8.41421 5.25 8Z" fill="#28303F"/>
<path opacity="0.4" fill-rule="evenodd" clip-rule="evenodd" d="M5.25 16C5.25 15.5858 5.58579 15.25 6 15.25H18C18.4142 15.25 18.75 15.5858 18.75 16C18.75 16.4142 18.4142 16.75 18 16.75H6C5.58579 16.75 5.25 16.4142 5.25 16Z" fill="#28303F"/>
<rect x="2" y="2" width="4" height="20" rx="2" fill="#28303F"/>
<rect x="18" y="2" width="4" height="20" rx="2" fill="#28303F"/>
<path fill-rule="evenodd" clip-rule="evenodd" d="M15 5.75C15.4142 5.75 15.75 6.08579 15.75 6.5V9.5C15.75 9.91421 15.4142 10.25 15 10.25C14.5858 10.25 14.25 9.91421 14.25 9.5V6.5C14.25 6.08579 14.5858 5.75 15 5.75Z" fill="#28303F"/>
<path fill-rule="evenodd" clip-rule="evenodd" d="M9 13.75C9.41421 13.75 9.75 14.0858 9.75 14.5V17.5C9.75 17.9142 9.41421 18.25 9 18.25C8.58579 18.25 8.25 17.9142 8.25 17.5V14.5C8.25 14.0858 8.58579 13.75 9 13.75Z" fill="#28303F"/>
<path fill-rule="evenodd" clip-rule="evenodd" d="M12 13.75C12.4142 13.75 12.75 14.0858 12.75 14.5V17.5C12.75 17.9142 12.4142 18.25 12 18.25C11.5858 18.25 11.25 17.9142 11.25 17.5V14.5C11.25 14.0858 11.5858 13.75 12 13.75Z" fill="#28303F"/>
<path fill-rule="evenodd" clip-rule="evenodd" d="M12 5.75C12.4142 5.75 12.75 6.08579 12.75 6.5V9.5C12.75 9.91421 12.4142 10.25 12 10.25C11.5858 10.25 11.25 9.91421 11.25 9.5V6.5C11.25 6.08579 11.5858 5.75 12 5.75Z" fill="#28303F"/>
</svg>
