<svg width="24" height="24" viewBox="0 0 24 24" fill="none" xmlns="http://www.w3.org/2000/svg">
<path fill-rule="evenodd" clip-rule="evenodd" d="M10.7187 16.5889L13.6905 21.2421C14.1205 21.9154 15.0042 22.1311 15.696 21.7316C16.4363 21.3042 16.6675 20.3438 16.2029 19.6263L13.7755 15.8779L10.7187 16.5889Z" fill="#28303F"/>
<path opacity="0.4" d="M12.5132 3.98368C13.4291 2.99791 15.0376 3.17971 15.7104 4.34505L20.0025 11.7792C20.6753 12.9445 20.0285 14.4283 18.7168 14.7287L7.79952 17.268L4.79952 12.0718L12.5132 3.98368Z" fill="#28303F"/>
<path d="M7.84814 16.7273L5.34814 12.3972C4.93393 11.6797 4.01655 11.4339 3.29911 11.8481C2.58167 12.2624 2.33585 13.1797 2.75007 13.8972L5.25007 18.2273C5.66428 18.9447 6.58167 19.1906 7.29911 18.7763C8.01655 18.3621 8.26236 17.4447 7.84814 16.7273Z" fill="#28303F"/>
<path fill-rule="evenodd" clip-rule="evenodd" d="M20.0146 2.73953C20.4147 2.84673 20.6521 3.25799 20.5449 3.65809L20.1789 5.02411C20.0717 5.42421 19.6604 5.66165 19.2603 5.55444C18.8602 5.44724 18.6228 5.03598 18.73 4.63588L19.096 3.26986C19.2032 2.86976 19.6145 2.63232 20.0146 2.73953Z" fill="#28303F"/>
<path fill-rule="evenodd" clip-rule="evenodd" d="M20.73 8.09994C20.8372 7.69984 21.2485 7.4624 21.6486 7.56961L23.0146 7.93563C23.4147 8.04284 23.6521 8.45409 23.5449 8.85419C23.4377 9.25429 23.0265 9.49173 22.6264 9.38452L21.2603 9.01849C20.8602 8.91129 20.6228 8.50004 20.73 8.09994Z" fill="#28303F"/>
</svg>
