<svg width="24" height="24" viewBox="0 0 24 24" fill="none" xmlns="http://www.w3.org/2000/svg">
<path opacity="0.4" d="M18 3H12C9.79086 3 8 4.79086 8 7V17C8 19.2091 9.79086 21 12 21H18C20.2091 21 22 19.2091 22 17V7C22 4.79086 20.2091 3 18 3Z" fill="#28303F"/>
<path opacity="0.4" d="M2 4.5C2 3.67157 2.67157 3 3.5 3V3C4.32843 3 5 3.67157 5 4.5V17.6667C5 18.5321 4.71929 19.3743 4.2 20.0667L3.5 21L2.8 20.0667C2.28071 19.3743 2 18.5321 2 17.6667V4.5Z" fill="#28303F"/>
<path d="M5 7H2V4.5C2 3.67157 2.67157 3 3.5 3C4.32843 3 5 3.67157 5 4.5V7Z" fill="#28303F"/>
<path fill-rule="evenodd" clip-rule="evenodd" d="M11.25 7C11.25 6.58579 11.5858 6.25 12 6.25H18C18.4142 6.25 18.75 6.58579 18.75 7C18.75 7.41421 18.4142 7.75 18 7.75H12C11.5858 7.75 11.25 7.41421 11.25 7Z" fill="#28303F"/>
<path fill-rule="evenodd" clip-rule="evenodd" d="M11.25 11C11.25 10.5858 11.5858 10.25 12 10.25H18C18.4142 10.25 18.75 10.5858 18.75 11C18.75 11.4142 18.4142 11.75 18 11.75H12C11.5858 11.75 11.25 11.4142 11.25 11Z" fill="#28303F"/>
<path fill-rule="evenodd" clip-rule="evenodd" d="M11.25 15C11.25 14.5858 11.5858 14.25 12 14.25H15C15.4142 14.25 15.75 14.5858 15.75 15C15.75 15.4142 15.4142 15.75 15 15.75H12C11.5858 15.75 11.25 15.4142 11.25 15Z" fill="#28303F"/>
<path fill-rule="evenodd" clip-rule="evenodd" d="M22.4939 16.4356C22.8056 16.7083 22.8372 17.1822 22.5645 17.4939L19.6946 20.7738C19.0779 21.4786 18.0156 21.5729 17.2843 20.9879L15.5315 19.5857C15.2081 19.3269 15.1556 18.8549 15.4144 18.5315C15.6731 18.208 16.1451 18.1556 16.4685 18.4144L18.2214 19.8166C18.3258 19.9002 18.4776 19.8867 18.5657 19.786L21.4356 16.5061C21.7084 16.1944 22.1822 16.1628 22.4939 16.4356Z" fill="#28303F"/>
</svg>
