<svg width="24" height="24" viewBox="0 0 24 24" fill="none" xmlns="http://www.w3.org/2000/svg">
<path opacity="0.4" d="M4 5C4 3.34315 5.34315 2 7 2H17C18.6569 2 20 3.34315 20 5V19C20 20.6569 18.6569 22 17 22H7C5.34315 22 4 20.6569 4 19V5Z" fill="#28303F"/>
<path d="M10 7.61799C10 6.87461 10.7823 6.39111 11.4472 6.72356L14.2111 8.10553C14.9482 8.47405 14.9482 9.52586 14.2111 9.89438L11.4472 11.2763C10.7823 11.6088 10 11.1253 10 10.3819V7.61799Z" fill="#28303F"/>
<path d="M4 19C4 17.3431 5.34315 16 7 16H20V19C20 20.6569 18.6569 22 17 22H7C5.34315 22 4 20.6569 4 19V19Z" fill="#28303F"/>
</svg>
