<svg width="24" height="24" viewBox="0 0 24 24" fill="none" xmlns="http://www.w3.org/2000/svg">
<path fill-rule="evenodd" clip-rule="evenodd" d="M11 1.25C9.48122 1.25 8.25 2.48122 8.25 4V5.66591C8.71753 5.42438 9.22089 5.24252 9.75 5.13039V4C9.75 3.30964 10.3096 2.75 11 2.75H13C13.6904 2.75 14.25 3.30964 14.25 4V5.13039C14.7791 5.24252 15.2825 5.42438 15.75 5.66591V4C15.75 2.48122 14.5188 1.25 13 1.25H11Z" fill="#28303F"/>
<path opacity="0.4" d="M5 11C5 7.68629 7.68629 5 11 5H13C16.3137 5 19 7.68629 19 11V12C20.6569 12 22 13.3431 22 15V18C22 19.1046 21.1046 20 20 20H18.4649C17.7733 21.1956 16.4806 22 15 22H9C7.51943 22 6.22675 21.1956 5.53513 20H4C2.89543 20 2 19.1046 2 18V15C2 13.3431 3.34315 12 5 12V11Z" fill="#28303F"/>
<path fill-rule="evenodd" clip-rule="evenodd" d="M10.25 10C10.25 9.58579 10.5858 9.25 11 9.25H13C13.4142 9.25 13.75 9.58579 13.75 10C13.75 10.4142 13.4142 10.75 13 10.75H11C10.5858 10.75 10.25 10.4142 10.25 10Z" fill="#28303F"/>
<path d="M9 22H15C17.2091 22 19 20.2091 19 18V16C13.4 13.3333 10.6 13.3333 5 16V18C5 20.2091 6.79086 22 9 22Z" fill="#28303F"/>
</svg>
