<svg width="24" height="24" viewBox="0 0 24 24" fill="none" xmlns="http://www.w3.org/2000/svg">
<path opacity="0.4" d="M22 12C22 14.6837 20.9428 17.1205 19.2222 18.9166C17.4019 20.8168 14.8391 22 12 22C9.16085 22 6.59805 20.8168 4.77778 18.9166C3.05717 17.1205 2 14.6837 2 12C2 9.3163 3.05717 6.87952 4.77778 5.08337C6.59805 3.18318 9.16085 2 12 2C14.8391 2 17.4019 3.18318 19.2222 5.08337C20.9428 6.87952 22 9.3163 22 12Z" fill="#28303F"/>
<path d="M12.75 11.25H16.1947C16.3406 8.72115 17.2198 6.39478 18.6166 4.50178C18.8265 4.68715 19.0286 4.8812 19.2222 5.08337C19.3801 5.24813 19.5323 5.41828 19.6787 5.59352C18.5515 7.19672 17.8355 9.13868 17.6975 11.25H21.9723C21.9907 11.4976 22 11.7477 22 12C22 12.2523 21.9907 12.5024 21.9723 12.75H17.6975C17.8355 14.8613 18.5515 16.8033 19.6787 18.4065C19.5323 18.5817 19.3801 18.7519 19.2222 18.9166C19.0286 19.1188 18.8265 19.3128 18.6166 19.4982C17.2198 17.6052 16.3406 15.2788 16.1947 12.75H12.75V21.9723C12.5024 21.9907 12.2523 22 12 22C11.7477 22 11.4976 21.9907 11.25 21.9723V12.75H7.80534C7.65937 15.2788 6.78016 17.6052 5.38342 19.4982C5.17351 19.3128 4.97144 19.1188 4.77778 18.9166C4.61994 18.7519 4.46769 18.5817 4.32133 18.4065C5.44855 16.8033 6.16454 14.8613 6.3025 12.75H2.0277C2.00934 12.5024 2 12.2523 2 12C2 11.7477 2.00934 11.4976 2.0277 11.25H6.3025C6.16454 9.13868 5.44855 7.19672 4.32133 5.59352C4.46769 5.41828 4.61995 5.24813 4.77778 5.08337C4.97144 4.8812 5.17351 4.68715 5.38342 4.50178C6.78016 6.39478 7.65937 8.72115 7.80534 11.25H11.25V2.0277C11.4976 2.00934 11.7477 2 12 2C12.2523 2 12.5024 2.00934 12.75 2.0277V11.25Z" fill="#28303F"/>
</svg>
