<svg width="24" height="24" viewBox="0 0 24 24" fill="none" xmlns="http://www.w3.org/2000/svg">
<circle opacity="0.4" r="8.5" transform="matrix(1 0 0 -1 10.5 10.5)" fill="#28303F"/>
<path fill-rule="evenodd" clip-rule="evenodd" d="M9.75 18.9669V22C9.75 22.4142 10.0858 22.75 10.5 22.75C17.1971 22.75 22.639 17.3758 22.7483 10.7048C22.7538 10.6373 22.7566 10.569 22.7566 10.5C22.7566 9.11929 21.6373 8 20.2566 8C18.8759 8 17.7566 9.11929 17.7566 10.5C17.7566 11.8807 18.8759 13 20.2566 13C20.5091 13 20.7529 12.9626 20.9827 12.8929C19.9485 17.4423 16.0288 20.8949 11.25 21.2242V18.9669C10.749 19.0113 10.2471 19.0109 9.75 18.9669Z" fill="#28303F"/>
<path d="M12.5 11C12.5 9.89543 11.6046 9 10.5 9C9.39543 9 8.5 9.89543 8.5 11C8.5 12.1046 9.39543 13 10.5 13C11.6046 13 12.5 12.1046 12.5 11Z" fill="#28303F"/>
</svg>
