<svg width="24" height="24" viewBox="0 0 24 24" fill="none" xmlns="http://www.w3.org/2000/svg">
<path opacity="0.4" d="M3 7C3 4.79086 4.79086 3 7 3H17C19.2091 3 21 4.79086 21 7V17H3V7Z" fill="#28303F"/>
<path fill-rule="evenodd" clip-rule="evenodd" d="M12 16.25C12.4142 16.25 12.75 16.5858 12.75 17V20.25H15C15.4142 20.25 15.75 20.5858 15.75 21C15.75 21.4142 15.4142 21.75 15 21.75H9C8.58579 21.75 8.25 21.4142 8.25 21C8.25 20.5858 8.58579 20.25 9 20.25H11.25V17C11.25 16.5858 11.5858 16.25 12 16.25Z" fill="#28303F"/>
<path fill-rule="evenodd" clip-rule="evenodd" d="M22.75 17C22.75 17.4142 22.4142 17.75 22 17.75L2 17.75C1.58579 17.75 1.25 17.4142 1.25 17C1.25 16.5858 1.58579 16.25 2 16.25L22 16.25C22.4142 16.25 22.75 16.5858 22.75 17Z" fill="#28303F"/>
<path fill-rule="evenodd" clip-rule="evenodd" d="M16.75 8C16.75 8.41421 16.4142 8.75 16 8.75L8 8.75C7.58579 8.75 7.25 8.41421 7.25 8C7.25 7.58579 7.58579 7.25 8 7.25L16 7.25C16.4142 7.25 16.75 7.58579 16.75 8Z" fill="#28303F"/>
<path fill-rule="evenodd" clip-rule="evenodd" d="M12.75 12C12.75 12.4142 12.4142 12.75 12 12.75L8 12.75C7.58579 12.75 7.25 12.4142 7.25 12C7.25 11.5858 7.58579 11.25 8 11.25L12 11.25C12.4142 11.25 12.75 11.5858 12.75 12Z" fill="#28303F"/>
</svg>
