<svg width="24" height="24" viewBox="0 0 24 24" fill="none" xmlns="http://www.w3.org/2000/svg">
<path fill-rule="evenodd" clip-rule="evenodd" d="M11.0397 3.32379C11.5394 2.7241 12.4605 2.7241 12.9602 3.32379L15.1904 6H17.143L14.1126 2.36352C13.0131 1.04419 10.9868 1.04419 9.88734 2.36352L6.85693 6H8.8095L11.0397 3.32379Z" fill="#28303F"/>
<path opacity="0.4" d="M2 10C2 7.79086 3.79086 6 6 6H18C20.2091 6 22 7.79086 22 10V18C22 20.2091 20.2091 22 18 22H6C3.79086 22 2 20.2091 2 18V10Z" fill="#28303F"/>
<path fill-rule="evenodd" clip-rule="evenodd" d="M6.25 10C6.25 9.58579 6.58579 9.25 7 9.25H17C17.4142 9.25 17.75 9.58579 17.75 10C17.75 10.4142 17.4142 10.75 17 10.75H7C6.58579 10.75 6.25 10.4142 6.25 10Z" fill="#28303F"/>
<path fill-rule="evenodd" clip-rule="evenodd" d="M6.25 14C6.25 13.5858 6.58579 13.25 7 13.25H17C17.4142 13.25 17.75 13.5858 17.75 14C17.75 14.4142 17.4142 14.75 17 14.75H7C6.58579 14.75 6.25 14.4142 6.25 14Z" fill="#28303F"/>
<path fill-rule="evenodd" clip-rule="evenodd" d="M6.25 18C6.25 17.5858 6.58579 17.25 7 17.25H12C12.4142 17.25 12.75 17.5858 12.75 18C12.75 18.4142 12.4142 18.75 12 18.75H7C6.58579 18.75 6.25 18.4142 6.25 18Z" fill="#28303F"/>
</svg>
