<svg width="24" height="24" viewBox="0 0 24 24" fill="none" xmlns="http://www.w3.org/2000/svg">
<path opacity="0.4" d="M17 2H7C5.34315 2 4 3.34315 4 5V16C4 17.6569 5.34315 19 7 19H12H17C18.6569 19 20 17.6569 20 16V5C20 3.34315 18.6569 2 17 2Z" fill="#28303F"/>
<path d="M20 13H7C5.34315 13 4 14.3431 4 16C4 17.6569 5.34315 19 7 19H12H17C18.6569 19 20 17.6569 20 16V13Z" fill="#28303F"/>
<path opacity="0.4" d="M12 16H16V22L14 20L12 22V16Z" fill="#28303F"/>
<path fill-rule="evenodd" clip-rule="evenodd" d="M7.25 6C7.25 5.58579 7.58579 5.25 8 5.25H16C16.4142 5.25 16.75 5.58579 16.75 6C16.75 6.41421 16.4142 6.75 16 6.75H8C7.58579 6.75 7.25 6.41421 7.25 6Z" fill="#28303F"/>
<path fill-rule="evenodd" clip-rule="evenodd" d="M7.24992 9.49988C7.24992 9.08567 7.58571 8.74988 7.99992 8.74988L11.9999 8.74988C12.4141 8.74988 12.7499 9.08567 12.7499 9.49988C12.7499 9.9141 12.4141 10.2499 11.9999 10.2499L7.99992 10.2499C7.58571 10.2499 7.24992 9.9141 7.24992 9.49988Z" fill="#28303F"/>
</svg>
