<svg width="24" height="24" viewBox="0 0 24 24" fill="none" xmlns="http://www.w3.org/2000/svg">
<path opacity="0.4" d="M17 2H7C5.34315 2 4 3.34315 4 5V19H20V5C20 3.34315 18.6569 2 17 2Z" fill="#28303F"/>
<path d="M20 16H7C5.34315 16 4 17.3431 4 19C4 20.6569 5.34315 22 7 22H17C18.6569 22 20 20.6569 20 19V16Z" fill="#28303F"/>
<path fill-rule="evenodd" clip-rule="evenodd" d="M12 8.25C12.4142 8.25 12.75 8.58579 12.75 9V12C12.75 12.4142 12.4142 12.75 12 12.75C11.5858 12.75 11.25 12.4142 11.25 12V9C11.25 8.58579 11.5858 8.25 12 8.25Z" fill="#28303F"/>
<path d="M13 6C13 6.55228 12.5523 7 12 7C11.4477 7 11 6.55228 11 6C11 5.44772 11.4477 5 12 5C12.5523 5 13 5.44772 13 6Z" fill="#28303F"/>
</svg>
