<svg width="24" height="24" viewBox="0 0 24 24" fill="none" xmlns="http://www.w3.org/2000/svg">
<path opacity="0.4" d="M22 17V11C22 9.34315 20.6569 8 19 8H5C3.34315 8 2 9.34315 2 11V17C2 18.6569 3.34315 20 5 20H19C20.6569 20 22 18.6569 22 17Z" fill="#28303F"/>
<path fill-rule="evenodd" clip-rule="evenodd" d="M11.25 5.44474C9.78855 4.57166 7.8564 4.16468 6.39603 4.00751C5.6275 3.92481 5 4.53602 5 5.29012V12.8C5 13.5541 5.6275 14.1655 6.39603 14.2482C7.94889 14.4153 10.0352 14.8649 11.5218 15.857C11.8075 16.0477 12.1925 16.0477 12.4782 15.857C13.9648 14.8649 16.0511 14.4153 17.604 14.2482C18.3725 14.1655 19 13.5541 19 12.8V5.29012C19 4.53602 18.3725 3.92481 17.604 4.00751C16.1436 4.16468 14.2114 4.57166 12.75 5.44474V15.6854C12.6574 15.7407 12.5668 15.7979 12.4782 15.857C12.1925 16.0476 11.8075 16.0476 11.5218 15.857C11.4332 15.7979 11.3426 15.7407 11.25 15.6854V5.44474Z" fill="#28303F"/>
</svg>
