<svg width="24" height="24" viewBox="0 0 24 24" fill="none" xmlns="http://www.w3.org/2000/svg">
<path opacity="0.4" d="M17 2H7C5.34315 2 4 3.34315 4 5V19H20V5C20 3.34315 18.6569 2 17 2Z" fill="#28303F"/>
<path d="M20 16H7C5.34315 16 4 17.3431 4 19C4 20.6569 5.34315 22 7 22H17C18.6569 22 20 20.6569 20 19V16Z" fill="#28303F"/>
<path d="M12.2209 7.43079L11.9999 7.65176L11.7789 7.43079C11.1687 6.8206 10.1794 6.8206 9.56921 7.43079C8.95902 8.04098 8.95902 9.0303 9.56921 9.6405L11.116 11.1873C11.6042 11.6755 12.3956 11.6755 12.8838 11.1873L14.4306 9.6405C15.0408 9.0303 15.0408 8.04098 14.4306 7.43079C13.8204 6.8206 12.8311 6.8206 12.2209 7.43079Z" fill="#28303F"/>
</svg>
