<svg width="24" height="24" viewBox="0 0 24 24" fill="none" xmlns="http://www.w3.org/2000/svg">
<path opacity="0.4" d="M17 2H7C5.34315 2 4 3.34315 4 5V19H20V5C20 3.34315 18.6569 2 17 2Z" fill="#28303F"/>
<path d="M20 16H7C5.34315 16 4 17.3431 4 19C4 20.6569 5.34315 22 7 22H17C18.6569 22 20 20.6569 20 19V16Z" fill="#28303F"/>
<path fill-rule="evenodd" clip-rule="evenodd" d="M15.4939 6.43558C15.8056 6.70834 15.8372 7.18216 15.5645 7.49389L12.6946 10.7738C12.0779 11.4786 11.0156 11.5729 10.2843 10.9879L8.53151 9.58566C8.20806 9.3269 8.15562 8.85494 8.41438 8.53149C8.67313 8.20804 9.1451 8.1556 9.46855 8.41436L11.2214 9.81662C11.3258 9.90019 11.4776 9.88671 11.5657 9.78603L14.4356 6.50613C14.7084 6.1944 15.1822 6.16282 15.4939 6.43558Z" fill="#28303F"/>
</svg>
