<svg width="24" height="24" viewBox="0 0 24 24" fill="none" xmlns="http://www.w3.org/2000/svg">
<path opacity="0.4" d="M17 2H7C5.34315 2 4 3.34315 4 5V19H20V5C20 3.34315 18.6569 2 17 2Z" fill="#28303F"/>
<path d="M20 16H7C5.34315 16 4 17.3431 4 19C4 20.6569 5.34315 22 7 22H17C18.6569 22 20 20.6569 20 19V16Z" fill="#28303F"/>
<path fill-rule="evenodd" clip-rule="evenodd" d="M15.75 9C15.75 9.41421 15.4142 9.75 15 9.75L9 9.75C8.58579 9.75 8.25 9.41421 8.25 9C8.25 8.58579 8.58579 8.25 9 8.25L15 8.25C15.4142 8.25 15.75 8.58579 15.75 9Z" fill="#28303F"/>
</svg>
