<svg width="24" height="24" viewBox="0 0 24 24" fill="none" xmlns="http://www.w3.org/2000/svg">
<path opacity="0.4" d="M17 2H7C5.34315 2 4 3.34315 4 5V19H20V5C20 3.34315 18.6569 2 17 2Z" fill="#28303F"/>
<path d="M20 16H7C5.34315 16 4 17.3431 4 19C4 20.6569 5.34315 22 7 22H17C18.6569 22 20 20.6569 20 19V16Z" fill="#28303F"/>
<path fill-rule="evenodd" clip-rule="evenodd" d="M12.75 7.39645L13.4697 8.11612C13.7626 8.40901 14.2374 8.40901 14.5303 8.11612C14.8232 7.82322 14.8232 7.34835 14.5303 7.05546L13.2374 5.76256C12.554 5.07915 11.446 5.07914 10.7626 5.76256L9.46967 7.05546C9.17678 7.34835 9.17678 7.82322 9.46967 8.11612C9.76256 8.40901 10.2374 8.40901 10.5303 8.11612L11.25 7.39645V11.5858C11.25 12 11.5858 12.3358 12 12.3358C12.4142 12.3358 12.75 12 12.75 11.5858V7.39645Z" fill="#28303F"/>
</svg>
