<svg width="24" height="24" viewBox="0 0 24 24" fill="none" xmlns="http://www.w3.org/2000/svg">
<path opacity="0.4" d="M4 3H15C16.6569 3 18 4.34315 18 6V6C18 7.65685 16.6569 9 15 9H4V3Z" fill="#28303F"/>
<path fill-rule="evenodd" clip-rule="evenodd" d="M1.25 3C1.25 2.58579 1.58579 2.25 2 2.25H15C17.0711 2.25 18.75 3.92893 18.75 6C18.75 8.07107 17.0711 9.75 15 9.75H2C1.58579 9.75 1.25 9.41421 1.25 9C1.25 8.58579 1.58579 8.25 2 8.25H15C16.2426 8.25 17.25 7.24264 17.25 6C17.25 4.75736 16.2426 3.75 15 3.75H2C1.58579 3.75 1.25 3.41421 1.25 3Z" fill="#28303F"/>
<path opacity="0.4" d="M4 15H15C16.6569 15 18 16.3431 18 18V18C18 19.6569 16.6569 21 15 21H4V15Z" fill="#28303F"/>
<path fill-rule="evenodd" clip-rule="evenodd" d="M1.25 15C1.25 14.5858 1.58579 14.25 2 14.25H15C17.0711 14.25 18.75 15.9289 18.75 18C18.75 20.0711 17.0711 21.75 15 21.75H2C1.58579 21.75 1.25 21.4142 1.25 21C1.25 20.5858 1.58579 20.25 2 20.25H15C16.2426 20.25 17.25 19.2426 17.25 18C17.25 16.7574 16.2426 15.75 15 15.75H2C1.58579 15.75 1.25 15.4142 1.25 15Z" fill="#28303F"/>
<path opacity="0.4" d="M20 9H9C7.34315 9 6 10.3431 6 12V12C6 13.6569 7.34315 15 9 15H20V9Z" fill="#28303F"/>
<path fill-rule="evenodd" clip-rule="evenodd" d="M22.75 9C22.75 8.58579 22.4142 8.25 22 8.25H9C6.92893 8.25 5.25 9.92893 5.25 12C5.25 14.0711 6.92893 15.75 9 15.75H22C22.4142 15.75 22.75 15.4142 22.75 15C22.75 14.5858 22.4142 14.25 22 14.25H9C7.75736 14.25 6.75 13.2426 6.75 12C6.75 10.7574 7.75736 9.75 9 9.75H22C22.4142 9.75 22.75 9.41421 22.75 9Z" fill="#28303F"/>
</svg>
