<svg width="24" height="24" viewBox="0 0 24 24" fill="none" xmlns="http://www.w3.org/2000/svg">
<path opacity="0.4" d="M17 2H7C5.34315 2 4 3.34315 4 5V19H20V5C20 3.34315 18.6569 2 17 2Z" fill="#28303F"/>
<path d="M20 16H7C5.34315 16 4 17.3431 4 19C4 20.6569 5.34315 22 7 22H17C18.6569 22 20 20.6569 20 19V16Z" fill="#28303F"/>
<path fill-rule="evenodd" clip-rule="evenodd" d="M12.75 10.1895L13.4697 9.46982C13.7626 9.17693 14.2374 9.17693 14.5303 9.46982C14.8232 9.76271 14.8232 10.2376 14.5303 10.5305L13.2374 11.8234C12.554 12.5068 11.446 12.5068 10.7626 11.8234L9.46967 10.5305C9.17678 10.2376 9.17678 9.76271 9.46967 9.46982C9.76256 9.17693 10.2374 9.17693 10.5303 9.46982L11.25 10.1895V6.00015C11.25 5.58594 11.5858 5.25015 12 5.25015C12.4142 5.25015 12.75 5.58594 12.75 6.00015V10.1895Z" fill="#28303F"/>
</svg>
