<svg width="24" height="24" viewBox="0 0 24 24" fill="none" xmlns="http://www.w3.org/2000/svg">
<path fill-rule="evenodd" clip-rule="evenodd" d="M11.3168 5.42445C9.19313 3.93632 6.21271 3.26195 3.99433 3.01127C2.89642 2.88721 2 3.80402 2 4.93518V16.2C2 17.3311 2.89642 18.2483 3.99433 18.3723C6.21271 18.623 9.19313 19.2974 11.3168 20.7855C11.5209 20.9285 11.7605 21 12 21V5.63895C11.7605 5.63895 11.5209 5.56745 11.3168 5.42445ZM4.25894 8.13996C4.32234 7.73063 4.70556 7.45019 5.11489 7.51358C6.41767 7.71534 7.88481 8.05257 9.27061 8.58846C9.65695 8.73786 9.84902 9.17215 9.69963 9.55849C9.55023 9.94482 9.11594 10.1369 8.7296 9.9875C7.47096 9.50078 6.1141 9.18621 4.88532 8.99591C4.47599 8.93252 4.19555 8.5493 4.25894 8.13996ZM5.11489 11.5136C4.70556 11.4502 4.32234 11.7306 4.25894 12.14C4.19555 12.5493 4.47599 12.9325 4.88532 12.9959C5.50457 13.0918 6.15824 13.2196 6.81663 13.3857C7.21826 13.487 7.62599 13.2436 7.72732 12.8419C7.82865 12.4403 7.58521 12.0326 7.18358 11.9313C6.47457 11.7524 5.77462 11.6158 5.11489 11.5136Z" fill="#28303F"/>
<path opacity="0.4" d="M12.6832 5.42445C14.8069 3.93632 17.7873 3.26195 20.0057 3.01127C21.1036 2.88721 22 3.80402 22 4.93518V16.2C22 17.3311 21.1036 18.2483 20.0057 18.3723C17.7873 18.623 14.8069 19.2974 12.6832 20.7855C12.4791 20.9285 12.2395 21 12 21V5.63895C12.2395 5.63895 12.4791 5.56745 12.6832 5.42445Z" fill="#28303F"/>
<path fill-rule="evenodd" clip-rule="evenodd" d="M18 16.25C18.4142 16.25 18.75 16.5858 18.75 17V21C18.75 21.4142 18.4142 21.75 18 21.75C17.5858 21.75 17.25 21.4142 17.25 21V17C17.25 16.5858 17.5858 16.25 18 16.25Z" fill="#28303F"/>
<path d="M19 14C19 14.5523 18.5523 15 18 15C17.4477 15 17 14.5523 17 14C17 13.4477 17.4477 13 18 13C18.5523 13 19 13.4477 19 14Z" fill="#28303F"/>
</svg>
