<svg width="24" height="24" viewBox="0 0 24 24" fill="none" xmlns="http://www.w3.org/2000/svg">
<path opacity="0.4" d="M2 6C2 3.79086 3.79086 2 6 2H18C20.2091 2 22 3.79086 22 6V18C22 20.2091 20.2091 22 18 22H6C3.79086 22 2 20.2091 2 18V6Z" fill="#28303F"/>
<path d="M6 12.618C6 11.8746 6.78231 11.3911 7.44721 11.7236L10.2111 13.1055C10.9482 13.4741 10.9482 14.5259 10.2111 14.8944L7.44721 16.2763C6.78231 16.6088 6 16.1253 6 15.3819V12.618Z" fill="#28303F"/>
<path d="M22 7H2V6C2 3.79086 3.79086 2 6 2H18C20.2091 2 22 3.79086 22 6V7Z" fill="#28303F"/>
<path fill-rule="evenodd" clip-rule="evenodd" d="M13.25 12C13.25 11.5858 13.5858 11.25 14 11.25L18 11.25C18.4142 11.25 18.75 11.5858 18.75 12C18.75 12.4142 18.4142 12.75 18 12.75L14 12.75C13.5858 12.75 13.25 12.4142 13.25 12Z" fill="#28303F"/>
<path fill-rule="evenodd" clip-rule="evenodd" d="M13.25 16C13.25 15.5858 13.5858 15.25 14 15.25L18 15.25C18.4142 15.25 18.75 15.5858 18.75 16C18.75 16.4142 18.4142 16.75 18 16.75H14C13.5858 16.75 13.25 16.4142 13.25 16Z" fill="#28303F"/>
</svg>
