<svg width="24" height="24" viewBox="0 0 24 24" fill="none" xmlns="http://www.w3.org/2000/svg">
<path opacity="0.4" d="M6 18C6 17.4477 6.44772 17 7 17H9C9.55228 17 10 17.4477 10 18V21C10 21.5523 9.55228 22 9 22H7C6.44772 22 6 21.5523 6 21V18Z" fill="#28303F"/>
<path opacity="0.4" d="M14 18C14 17.4477 14.4477 17 15 17H17C17.5523 17 18 17.4477 18 18V21C18 21.5523 17.5523 22 17 22H15C14.4477 22 14 21.5523 14 21V18Z" fill="#28303F"/>
<path d="M3 15C3 13.8954 3.89543 13 5 13H19C20.1046 13 21 13.8954 21 15V17C21 18.1046 20.1046 19 19 19H5C3.89543 19 3 18.1046 3 17V15Z" fill="#28303F"/>
<path fill-rule="evenodd" clip-rule="evenodd" d="M5.00972 4.75684C5.00328 4.83707 5 4.9182 5 5.0001V6.25684H4C3.30964 6.25684 2.75 6.81648 2.75 7.50684V8.50684C2.75 8.92105 2.41421 9.25684 2 9.25684C1.58579 9.25684 1.25 8.92105 1.25 8.50684V7.50684C1.25 5.98805 2.48122 4.75684 4 4.75684H5.00972ZM19 6.25684V5.0001C19 4.9182 18.9967 4.83707 18.9903 4.75684H20C21.5188 4.75684 22.75 5.98805 22.75 7.50684V8.50684C22.75 8.92105 22.4142 9.25684 22 9.25684C21.5858 9.25684 21.25 8.92105 21.25 8.50684V7.50684C21.25 6.81648 20.6904 6.25684 20 6.25684H19Z" fill="#28303F"/>
<path opacity="0.4" fill-rule="evenodd" clip-rule="evenodd" d="M5.00972 4.75674H18.9903C18.8665 3.21365 17.575 2 16 2H8C6.42504 2 5.13355 3.21365 5.00972 4.75674ZM19 6.25673H12.75V13H19V6.25673ZM11.25 13V6.25673H5V13H11.25Z" fill="#28303F"/>
</svg>
