<svg width="24" height="24" viewBox="0 0 24 24" fill="none" xmlns="http://www.w3.org/2000/svg">
<path d="M2 6C2 3.79086 3.79086 2 6 2H12V12L2 12V6Z" fill="#28303F"/>
<path opacity="0.4" d="M2 18C2 20.2091 3.79086 22 6 22H12V12L2 12V18Z" fill="#28303F"/>
<path opacity="0.4" d="M22 6C22 3.79086 20.2091 2 18 2H12V12L22 12V6Z" fill="#28303F"/>
<path fill-rule="evenodd" clip-rule="evenodd" d="M22 18C22 20.2091 20.2091 22 18 22H12V12H22V18ZM19.75 15.5C19.75 15.9142 19.4142 16.25 19 16.25L15 16.25C14.5858 16.25 14.25 15.9142 14.25 15.5C14.25 15.0858 14.5858 14.75 15 14.75L19 14.75C19.4142 14.75 19.75 15.0858 19.75 15.5ZM19 19.25C19.4142 19.25 19.75 18.9142 19.75 18.5C19.75 18.0858 19.4142 17.75 19 17.75L15 17.75C14.5858 17.75 14.25 18.0858 14.25 18.5C14.25 18.9142 14.5858 19.25 15 19.25L19 19.25Z" fill="#28303F"/>
</svg>
