<svg width="24" height="24" viewBox="0 0 24 24" fill="none" xmlns="http://www.w3.org/2000/svg">
<path opacity="0.4" d="M3 9.00488H21V17.9999C21 20.209 19.2091 21.9999 17 21.9999H7C4.79086 21.9999 3 20.209 3 17.9999L3 9.00488Z" fill="#28303F"/>
<path d="M21 9H3V7.5C3 5.29086 4.79086 3.5 7 3.5H17C19.2091 3.5 21 5.29086 21 7.5V9Z" fill="#28303F"/>
<path opacity="0.4" fill-rule="evenodd" clip-rule="evenodd" d="M8 1.25C8.41421 1.25 8.75 1.58579 8.75 2V5C8.75 5.41421 8.41421 5.75 8 5.75C7.58579 5.75 7.25 5.41421 7.25 5V2C7.25 1.58579 7.58579 1.25 8 1.25Z" fill="#28303F"/>
<path opacity="0.4" fill-rule="evenodd" clip-rule="evenodd" d="M16 1.25C16.4142 1.25 16.75 1.58579 16.75 2V5C16.75 5.41421 16.4142 5.75 16 5.75C15.5858 5.75 15.25 5.41421 15.25 5V2C15.25 1.58579 15.5858 1.25 16 1.25Z" fill="#28303F"/>
</svg>
