<svg width="24" height="24" viewBox="0 0 24 24" fill="none" xmlns="http://www.w3.org/2000/svg">
<path fill-rule="evenodd" clip-rule="evenodd" d="M6.79502 17.9932L5.3036 21.7217C5.14976 22.1063 5.33682 22.5428 5.72141 22.6966C6.106 22.8504 6.54248 22.6634 6.69631 22.2788L8.40781 18.0001H7C6.93111 18.0001 6.86275 17.9977 6.79502 17.9932ZM11.25 18.0001V21.0003C11.25 21.4145 11.5857 21.7503 12 21.7503C12.4142 21.7503 12.75 21.4145 12.75 21.0003V18.0001H11.25ZM15.5921 18.0001L17.3036 22.2788C17.4574 22.6634 17.8939 22.8504 18.2785 22.6966C18.6631 22.5428 18.8501 22.1063 18.6963 21.7217L17.2049 17.9932C17.1372 17.9977 17.0689 18.0001 17 18.0001H15.5921Z" fill="#28303F"/>
<path fill-rule="evenodd" clip-rule="evenodd" d="M12 1.25C12.4142 1.25 12.75 1.62239 12.75 2.08176V3.99776H11.25V2.08176C11.25 1.62239 11.5858 1.25 12 1.25Z" fill="#28303F"/>
<path opacity="0.4" d="M4 7C4 5.34315 5.34315 4 7 4H17C18.6569 4 20 5.34315 20 7V15C20 16.6569 18.6569 18 17 18H7C5.34315 18 4 16.6569 4 15V7Z" fill="#28303F"/>
</svg>
