<svg width="24" height="24" viewBox="0 0 24 24" fill="none" xmlns="http://www.w3.org/2000/svg">
<path d="M2 14C2 12.8954 2.89543 12 4 12H10C11.1046 12 12 12.8954 12 14V20C12 21.1046 11.1046 22 10 22H4C2.89543 22 2 21.1046 2 20V14Z" fill="#28303F"/>
<path opacity="0.4" d="M12 14C12 12.8954 12.8954 12 14 12H20C21.1046 12 22 12.8954 22 14V20C22 21.1046 21.1046 22 20 22H14C12.8954 22 12 21.1046 12 20V14Z" fill="#28303F"/>
<path opacity="0.4" d="M7 4C7 2.89543 7.89543 2 9 2H15C16.1046 2 17 2.89543 17 4V10C17 11.1046 16.1046 12 15 12H9C7.89543 12 7 11.1046 7 10V4Z" fill="#28303F"/>
<path fill-rule="evenodd" clip-rule="evenodd" d="M12.3942 4.36201C12.6153 4.49867 12.7499 4.74007 12.7499 5V8.25H12.9999C13.4141 8.25 13.7499 8.58579 13.7499 9C13.7499 9.41421 13.4141 9.75 12.9999 9.75H10.9999C10.5857 9.75 10.2499 9.41421 10.2499 9C10.2499 8.58579 10.5857 8.25 10.9999 8.25H11.2499V6.20719C10.8981 6.33205 10.5003 6.17783 10.3291 5.83541C10.1439 5.46493 10.294 5.01442 10.6645 4.82918L11.6645 4.32918C11.897 4.21293 12.1731 4.22536 12.3942 4.36201Z" fill="#28303F"/>
</svg>
