<svg width="24" height="24" viewBox="0 0 24 24" fill="none" xmlns="http://www.w3.org/2000/svg">
<path opacity="0.4" d="M2 6C2 3.79086 3.79086 2 6 2H18C20.2091 2 22 3.79086 22 6V18C22 20.2091 20.2091 22 18 22H6C3.79086 22 2 20.2091 2 18V6Z" fill="#28303F"/>
<path fill-rule="evenodd" clip-rule="evenodd" d="M12 6.25C12.4142 6.25 12.75 6.58579 12.75 7V17C12.75 17.4142 12.4142 17.75 12 17.75C11.5858 17.75 11.25 17.4142 11.25 17V7C11.25 6.58579 11.5858 6.25 12 6.25Z" fill="#28303F"/>
<path fill-rule="evenodd" clip-rule="evenodd" d="M17 8.25C17.4142 8.25 17.75 8.58579 17.75 9V15C17.75 15.4142 17.4142 15.75 17 15.75C16.5858 15.75 16.25 15.4142 16.25 15V9C16.25 8.58579 16.5858 8.25 17 8.25Z" fill="#28303F"/>
<path fill-rule="evenodd" clip-rule="evenodd" d="M7 8.25C7.41421 8.25 7.75 8.58579 7.75 9V15C7.75 15.4142 7.41421 15.75 7 15.75C6.58579 15.75 6.25 15.4142 6.25 15V9C6.25 8.58579 6.58579 8.25 7 8.25Z" fill="#28303F"/>
</svg>
