<svg width="24" height="24" viewBox="0 0 24 24" fill="none" xmlns="http://www.w3.org/2000/svg">
<path opacity="0.4" d="M3 8H21V17C21 18.1046 20.1046 19 19 19H5C3.89543 19 3 18.1046 3 17V8Z" fill="#28303F"/>
<path fill-rule="evenodd" clip-rule="evenodd" d="M19.25 18.9847V22.0002C19.25 22.4144 19.5858 22.7502 20 22.7502C20.4142 22.7502 20.75 22.4144 20.75 22.0002V18.0002C20.75 17.9901 20.7498 17.9801 20.7494 17.9702C20.4465 18.5154 19.8961 18.9041 19.25 18.9847Z" fill="#28303F"/>
<path fill-rule="evenodd" clip-rule="evenodd" d="M16.25 19V20C16.25 20.4142 16.5858 20.75 17 20.75C17.4142 20.75 17.75 20.4142 17.75 20V19H16.25Z" fill="#28303F"/>
<path fill-rule="evenodd" clip-rule="evenodd" d="M6.25 19V20C6.25 20.4142 6.58579 20.75 7 20.75C7.41421 20.75 7.75 20.4142 7.75 20V19H6.25Z" fill="#28303F"/>
<path fill-rule="evenodd" clip-rule="evenodd" d="M3.25059 17.9702C3.2502 17.9801 3.25 17.9901 3.25 18.0002V22.0002C3.25 22.4144 3.58579 22.7502 4 22.7502C4.41421 22.7502 4.75 22.4144 4.75 22.0002V18.9847C4.10391 18.9041 3.55353 18.5154 3.25059 17.9702Z" fill="#28303F"/>
<path opacity="0.4" d="M7 4C7 2.89543 7.89543 2 9 2H15C16.1046 2 17 2.89543 17 4V8H7V4Z" fill="#28303F"/>
<path fill-rule="evenodd" clip-rule="evenodd" d="M1.25 8C1.25 7.58579 1.58579 7.25 2 7.25H22C22.4142 7.25 22.75 7.58579 22.75 8C22.75 8.41421 22.4142 8.75 22 8.75H2C1.58579 8.75 1.25 8.41421 1.25 8Z" fill="#28303F"/>
</svg>
