<svg width="24" height="24" viewBox="0 0 24 24" fill="none" xmlns="http://www.w3.org/2000/svg">
<path opacity="0.4" d="M13 21V15.5H17V21L15 20L13 21Z" fill="#28303F"/>
<path opacity="0.4" d="M22 15L22 5C22 3.89543 21.1046 3 20 3L4 3C2.89543 3 2 3.89543 2 5L2 15C2 16.1046 2.89543 17 4 17L9.5 17L20 17C21.1046 17 22 16.1046 22 15Z" fill="#28303F"/>
<path d="M18 15C18 16.6569 16.6569 18 15 18C13.3431 18 12 16.6569 12 15C12 13.3431 13.3431 12 15 12C16.6569 12 18 13.3431 18 15Z" fill="#28303F"/>
<path fill-rule="evenodd" clip-rule="evenodd" d="M5.25 7C5.25 6.58579 5.58579 6.25 6 6.25H18C18.4142 6.25 18.75 6.58579 18.75 7C18.75 7.41421 18.4142 7.75 18 7.75H6C5.58579 7.75 5.25 7.41421 5.25 7Z" fill="#28303F"/>
<path fill-rule="evenodd" clip-rule="evenodd" d="M5.25 11C5.25 10.5858 5.58579 10.25 6 10.25H10C10.4142 10.25 10.75 10.5858 10.75 11C10.75 11.4142 10.4142 11.75 10 11.75H6C5.58579 11.75 5.25 11.4142 5.25 11Z" fill="#28303F"/>
</svg>
