<svg width="24" height="24" viewBox="0 0 24 24" fill="none" xmlns="http://www.w3.org/2000/svg">
<path opacity="0.4" d="M9.5 22V17.5H14.5V22L12 20.5L9.5 22Z" fill="#28303F"/>
<path opacity="0.4" d="M20 12V6C20 3.79086 18.2091 2 16 2H8C5.79086 2 4 3.79086 4 6V12C4 14.2091 5.79086 16 8 16L16 16C18.2091 16 20 14.2091 20 12Z" fill="#28303F"/>
<path d="M15 16C15 17.6569 13.6569 19 12 19C10.3431 19 9 17.6569 9 16C9 14.3431 10.3431 13 12 13C13.6569 13 15 14.3431 15 16Z" fill="#28303F"/>
<path fill-rule="evenodd" clip-rule="evenodd" d="M7.25 6C7.25 5.58579 7.58579 5.25 8 5.25H16C16.4142 5.25 16.75 5.58579 16.75 6C16.75 6.41421 16.4142 6.75 16 6.75H8C7.58579 6.75 7.25 6.41421 7.25 6Z" fill="#28303F"/>
<path fill-rule="evenodd" clip-rule="evenodd" d="M7.25 10C7.25 9.58579 7.58579 9.25 8 9.25H12C12.4142 9.25 12.75 9.58579 12.75 10C12.75 10.4142 12.4142 10.75 12 10.75H8C7.58579 10.75 7.25 10.4142 7.25 10Z" fill="#28303F"/>
</svg>
