<svg width="24" height="24" viewBox="0 0 24 24" fill="none" xmlns="http://www.w3.org/2000/svg">
<path opacity="0.4" d="M2 6C2 3.79086 3.79086 2 6 2H18C20.2091 2 22 3.79086 22 6V18C22 20.2091 20.2091 22 18 22H6C3.79086 22 2 20.2091 2 18V6Z" fill="#28303F"/>
<path d="M13.5 8C13.5 8.82843 12.8284 9.5 12 9.5C11.1716 9.5 10.5 8.82843 10.5 8C10.5 7.17157 11.1716 6.5 12 6.5C12.8284 6.5 13.5 7.17157 13.5 8Z" fill="#28303F"/>
<path d="M13.5 16C13.5 16.8284 12.8284 17.5 12 17.5C11.1716 17.5 10.5 16.8284 10.5 16C10.5 15.1716 11.1716 14.5 12 14.5C12.8284 14.5 13.5 15.1716 13.5 16Z" fill="#28303F"/>
<path fill-rule="evenodd" clip-rule="evenodd" d="M7.25 12C7.25 11.5858 7.58579 11.25 8 11.25H16C16.4142 11.25 16.75 11.5858 16.75 12C16.75 12.4142 16.4142 12.75 16 12.75H8C7.58579 12.75 7.25 12.4142 7.25 12Z" fill="#28303F"/>
</svg>
