<svg width="24" height="24" viewBox="0 0 24 24" fill="none" xmlns="http://www.w3.org/2000/svg">
<path fill-rule="evenodd" clip-rule="evenodd" d="M12.75 18.9883V21.25H15C15.4142 21.25 15.75 21.5858 15.75 22C15.75 22.4142 15.4142 22.75 15 22.75H9C8.58579 22.75 8.25 22.4142 8.25 22C8.25 21.5858 8.58579 21.25 9 21.25H11.25V18.9883H12.75Z" fill="#28303F"/>
<path opacity="0.4" d="M21 16V8C21 6.34315 19.6569 5 18 5H6C4.34315 5 3 6.34315 3 8V16C3 17.6569 4.34315 19 6 19H18C19.6569 19 21 17.6569 21 16Z" fill="#28303F"/>
<path d="M12 3C12.8495 2.42128 14.3149 2.10187 15.2023 2.00438C15.6414 1.95614 16 2.31268 16 2.75257V7.13331C16 7.57321 15.6414 7.92988 15.2023 7.97813C14.3149 8.07561 12.8495 8.42128 12 9V3Z" fill="#28303F"/>
<path d="M12 3C11.1505 2.42128 9.68508 2.10187 8.79773 2.00438C8.35857 1.95614 8 2.31268 8 2.75257V7.13331C8 7.57321 8.35857 7.92988 8.79773 7.97813C9.68508 8.07561 11.1505 8.42128 12 9V3Z" fill="#28303F"/>
</svg>
