<svg width="24" height="24" viewBox="0 0 24 24" fill="none" xmlns="http://www.w3.org/2000/svg">
<path fill-rule="evenodd" clip-rule="evenodd" d="M12 8H19C20.6569 8 22 9.34315 22 11V19C22 20.6569 20.6569 22 19 22H12V8ZM14.25 12C14.25 11.5858 14.5858 11.25 15 11.25H19C19.4142 11.25 19.75 11.5858 19.75 12C19.75 12.4142 19.4142 12.75 19 12.75H15C14.5858 12.75 14.25 12.4142 14.25 12ZM15 14.25C14.5858 14.25 14.25 14.5858 14.25 15C14.25 15.4142 14.5858 15.75 15 15.75H19C19.4142 15.75 19.75 15.4142 19.75 15C19.75 14.5858 19.4142 14.25 19 14.25H15Z" fill="#28303F"/>
<path opacity="0.4" d="M2 5C2 3.34315 3.34315 2 5 2H9C10.6569 2 12 3.34315 12 5V22H5C3.34315 22 2 20.6569 2 19V5Z" fill="#28303F"/>
<path fill-rule="evenodd" clip-rule="evenodd" d="M4.25 6C4.25 5.58579 4.58579 5.25 5 5.25H9C9.41421 5.25 9.75 5.58579 9.75 6C9.75 6.41421 9.41421 6.75 9 6.75H5C4.58579 6.75 4.25 6.41421 4.25 6Z" fill="#28303F"/>
<path fill-rule="evenodd" clip-rule="evenodd" d="M4.25 9C4.25 8.58579 4.58579 8.25 5 8.25H9C9.41421 8.25 9.75 8.58579 9.75 9C9.75 9.41421 9.41421 9.75 9 9.75H5C4.58579 9.75 4.25 9.41421 4.25 9Z" fill="#28303F"/>
</svg>
