<svg width="24" height="24" viewBox="0 0 24 24" fill="none" xmlns="http://www.w3.org/2000/svg">
<path opacity="0.4" d="M14 2H10L10 8.28988C7.10851 9.15043 5 11.829 5 15C5 18.866 8.13401 22 12 22C15.866 22 19 18.866 19 15C19 11.829 16.8915 9.15043 14 8.28988V2Z" fill="#28303F"/>
<path fill-rule="evenodd" clip-rule="evenodd" d="M8.25 2C8.25 1.58579 8.58579 1.25 9 1.25H15C15.4142 1.25 15.75 1.58579 15.75 2C15.75 2.41421 15.4142 2.75 15 2.75H9C8.58579 2.75 8.25 2.41421 8.25 2Z" fill="#28303F"/>
<path d="M12 22C15.866 22 19 18.866 19 15C19 14.305 18.8987 13.6337 18.7101 13H5.28988C5.10128 13.6337 5 14.305 5 15C5 18.866 8.13401 22 12 22Z" fill="#28303F"/>
</svg>
