<svg width="24" height="24" viewBox="0 0 24 24" fill="none" xmlns="http://www.w3.org/2000/svg">
<path d="M17 6H7C5.89543 6 5 5.10457 5 4C5 2.89543 5.89543 2 7 2H17C18.1046 2 19 2.89543 19 4C19 5.10457 18.1046 6 17 6Z" fill="#28303F"/>
<path opacity="0.4" d="M17.008 6H6.99197L5.27795 11.3282C4.78105 12.5829 4.95707 13.9811 5.75238 15.0968L11.0481 21.526C11.4986 22.158 12.5014 22.158 12.9519 21.526L18.2476 15.0968C19.0429 13.9811 19.2189 12.5829 18.7221 11.3282L17.008 6Z" fill="#28303F"/>
<path d="M12.75 13.8546C13.483 13.5579 14 12.8393 14 12C14 10.8954 13.1046 10 12 10C10.8954 10 10 10.8954 10 12C10 12.8393 10.517 13.5579 11.25 13.8546V21.7409C11.6756 22.0864 12.3244 22.0864 12.75 21.7409V13.8546Z" fill="#28303F"/>
</svg>
