<svg width="24" height="24" viewBox="0 0 24 24" fill="none" xmlns="http://www.w3.org/2000/svg">
<path opacity="0.4" fill-rule="evenodd" clip-rule="evenodd" d="M12 16.75C11.3096 16.75 10.75 17.3096 10.75 18H9.25C9.25 16.4812 10.4812 15.25 12 15.25C13.5188 15.25 14.75 16.4812 14.75 18H13.25C13.25 17.3096 12.6904 16.75 12 16.75Z" fill="#28303F"/>
<path opacity="0.4" fill-rule="evenodd" clip-rule="evenodd" d="M17.25 3C17.25 2.58579 17.5858 2.25 18 2.25C20.0711 2.25 21.75 3.92893 21.75 6V17.5C21.75 17.9142 21.4142 18.25 21 18.25C20.5858 18.25 20.25 17.9142 20.25 17.5V6C20.25 4.75736 19.2426 3.75 18 3.75C17.5858 3.75 17.25 3.41421 17.25 3Z" fill="#28303F"/>
<path opacity="0.4" fill-rule="evenodd" clip-rule="evenodd" d="M6.75 3C6.75 2.58579 6.41421 2.25 6 2.25C3.92893 2.25 2.25 3.92893 2.25 6V17.5C2.25 17.9142 2.58579 18.25 3 18.25C3.41421 18.25 3.75 17.9142 3.75 17.5V6C3.75 4.75736 4.75736 3.75 6 3.75C6.41421 3.75 6.75 3.41421 6.75 3Z" fill="#28303F"/>
<path d="M2.25 17.5C2.25 15.1528 4.15279 13.25 6.5 13.25C8.84721 13.25 10.75 15.1528 10.75 17.5C10.75 19.8472 8.84721 21.75 6.5 21.75C4.15279 21.75 2.25 19.8472 2.25 17.5Z" fill="#28303F"/>
<path d="M13.25 17.5C13.25 15.1528 15.1528 13.25 17.5 13.25C19.8472 13.25 21.75 15.1528 21.75 17.5C21.75 19.8472 19.8472 21.75 17.5 21.75C15.1528 21.75 13.25 19.8472 13.25 17.5Z" fill="#28303F"/>
</svg>
