<svg width="24" height="24" viewBox="0 0 24 24" fill="none" xmlns="http://www.w3.org/2000/svg">
<circle opacity="0.4" cx="12" cy="9" r="7" fill="#28303F"/>
<path fill-rule="evenodd" clip-rule="evenodd" d="M2 8.25C2.41421 8.25 2.75 8.58579 2.75 9C2.75 14.1086 6.89137 18.25 12 18.25C17.1086 18.25 21.25 14.1086 21.25 9C21.25 8.58579 21.5858 8.25 22 8.25C22.4142 8.25 22.75 8.58579 22.75 9C22.75 14.6849 18.3372 19.3392 12.75 19.7242V21.25H15C15.4142 21.25 15.75 21.5858 15.75 22C15.75 22.4142 15.4142 22.75 15 22.75H9C8.58579 22.75 8.25 22.4142 8.25 22C8.25 21.5858 8.58579 21.25 9 21.25H11.25V19.7242C5.66285 19.3392 1.25 14.6849 1.25 9C1.25 8.58579 1.58579 8.25 2 8.25Z" fill="#28303F"/>
</svg>
