<svg width="24" height="24" viewBox="0 0 24 24" fill="none" xmlns="http://www.w3.org/2000/svg">
<circle opacity="0.4" cx="12" cy="9" r="7" fill="#28303F"/>
<path fill-rule="evenodd" clip-rule="evenodd" d="M5.45902 1.39838C5.75191 1.69127 5.75191 2.16615 5.45902 2.45904C4.60008 3.31798 3.91873 4.3377 3.45387 5.45996C2.98901 6.58222 2.74976 7.78505 2.74976 8.99978C2.74976 10.2145 2.98901 11.4173 3.45387 12.5396C3.91873 13.6619 4.60008 14.6816 5.45902 15.5405C6.31796 16.3995 7.33767 17.0808 8.45993 17.5457C9.58219 18.0105 10.785 18.2498 11.9998 18.2498C13.2145 18.2498 14.4173 18.0105 15.5396 17.5457C16.6618 17.0808 17.6816 16.3995 18.5405 15.5405C18.8334 15.2476 19.3083 15.2476 19.6012 15.5405C19.894 15.8334 19.894 16.3083 19.6012 16.6012C18.6029 17.5994 17.4179 18.3912 16.1136 18.9315C15.0409 19.3758 13.9048 19.6428 12.7498 19.7236L12.7499 21.2498H14.9999C15.4141 21.2498 15.7499 21.5856 15.7499 21.9998C15.7499 22.414 15.4141 22.7498 14.9999 22.7498H8.9999C8.58569 22.7498 8.2499 22.414 8.2499 21.9998C8.2499 21.5856 8.58569 21.2498 8.9999 21.2498H11.2499L11.2498 19.7236C10.0948 19.6428 8.95866 19.3758 7.88591 18.9315C6.58166 18.3912 5.39659 17.5994 4.39836 16.6012C3.40013 15.6029 2.60829 14.4179 2.06805 13.1136C1.52781 11.8094 1.24976 10.4115 1.24976 8.99978C1.24976 7.58807 1.52781 6.19018 2.06805 4.88593C2.60829 3.58168 3.40013 2.39661 4.39836 1.39838C4.69125 1.10549 5.16613 1.10549 5.45902 1.39838Z" fill="#28303F"/>
</svg>
