<svg width="24" height="24" viewBox="0 0 24 24" fill="none" xmlns="http://www.w3.org/2000/svg">
<path fill-rule="evenodd" clip-rule="evenodd" d="M7.33936 12.0941V16.8263C7.33936 17.9309 8.23479 18.8263 9.33936 18.8263H14.6609C15.7655 18.8263 16.6609 17.9309 16.6609 16.8263V12.0941L13.4198 13.5346C12.5159 13.9363 11.4842 13.9363 10.5804 13.5346L7.33936 12.0941ZM19.5739 10.7994V15.9132C19.5739 16.3959 19.9651 16.7871 20.4477 16.7871C20.9304 16.7871 21.3216 16.3959 21.3216 15.9132V10.0215C21.311 10.027 21.3001 10.0322 21.289 10.0371L19.5739 10.7994Z" fill="#28303F"/>
<path opacity="0.4" d="M2.71122 8.97252L10.5804 5.47511C11.4842 5.0734 12.5159 5.0734 13.4198 5.47511L21.2889 8.97252C21.7503 9.17754 21.7503 9.83226 21.2889 10.0373L13.4198 13.5347C12.5159 13.9364 11.4842 13.9364 10.5804 13.5347L2.71122 10.0373C2.24991 9.83226 2.24991 9.17754 2.71122 8.97252Z" fill="#28303F"/>
</svg>
