<svg width="24" height="24" viewBox="0 0 24 24" fill="none" xmlns="http://www.w3.org/2000/svg">
<path d="M8 18H16V18C16 20.2091 14.2091 22 12 22V22C9.79086 22 8 20.2091 8 18V18Z" fill="#28303F"/>
<path opacity="0.4" d="M8 18H16V15.7887C16 15.1349 16.3334 14.5363 16.8085 14.0871C18.158 12.8111 19 11.0039 19 9C19 5.13401 15.866 2 12 2C8.13401 2 5 5.13401 5 9C5 11.0039 5.84201 12.8111 7.19153 14.0871C7.66659 14.5363 8 15.1349 8 15.7887V18Z" fill="#28303F"/>
<path fill-rule="evenodd" clip-rule="evenodd" d="M9.46967 8.46967C9.76256 8.17678 10.2374 8.17678 10.5303 8.46967L12 9.93934L13.4697 8.46967C13.7626 8.17678 14.2374 8.17678 14.5303 8.46967C14.8232 8.76256 14.8232 9.23744 14.5303 9.53033L12.75 11.3107V19C12.75 19.4142 12.4142 19.75 12 19.75C11.5858 19.75 11.25 19.4142 11.25 19V11.3107L9.46967 9.53033C9.17678 9.23744 9.17678 8.76256 9.46967 8.46967Z" fill="#28303F"/>
</svg>
