<svg width="24" height="24" viewBox="0 0 24 24" fill="none" xmlns="http://www.w3.org/2000/svg">
<path fill-rule="evenodd" clip-rule="evenodd" d="M18.25 19.0003H19C19.259 19.0003 19.5103 18.9675 19.75 18.9058V21.0003C19.75 21.4145 19.4142 21.7503 19 21.7503C18.5858 21.7503 18.25 21.4145 18.25 21.0003V19.0003Z" fill="#28303F"/>
<path opacity="0.4" fill-rule="evenodd" clip-rule="evenodd" d="M5 17.25C5.41421 17.25 5.75 17.5858 5.75 18V21C5.75 21.4142 5.41421 21.75 5 21.75C4.58579 21.75 4.25 21.4142 4.25 21V18C4.25 17.5858 4.58579 17.25 5 17.25Z" fill="#28303F"/>
<path opacity="0.4" d="M22 6C22 4.34315 20.6569 3 19 3H12V19H19C20.6569 19 22 17.6569 22 16V6Z" fill="#28303F"/>
<path opacity="0.4" d="M2 7L12 7L12 3L5 3C3.34315 3 2 4.34315 2 6L2 7Z" fill="#28303F"/>
<path d="M22 7L12 7L12 3L19 3C20.6569 3 22 4.34315 22 6L22 7Z" fill="#28303F"/>
<path fill-rule="evenodd" clip-rule="evenodd" d="M5 3C3.34315 3 2 4.34315 2 6V16C2 17.6569 3.34315 19 5 19H12V3H5ZM8.25 14C8.25 14.4142 8.58579 14.75 9 14.75C9.41421 14.75 9.75 14.4142 9.75 14L9.75 12C9.75 11.5858 9.41421 11.25 9 11.25C8.58579 11.25 8.25 11.5858 8.25 12L8.25 14Z" fill="#28303F"/>
<path fill-rule="evenodd" clip-rule="evenodd" d="M15 14.75C14.5858 14.75 14.25 14.4142 14.25 14L14.25 12C14.25 11.5858 14.5858 11.25 15 11.25C15.4142 11.25 15.75 11.5858 15.75 12L15.75 14C15.75 14.4142 15.4142 14.75 15 14.75Z" fill="#28303F"/>
</svg>
