<svg width="24" height="24" viewBox="0 0 24 24" fill="none" xmlns="http://www.w3.org/2000/svg">
<path opacity="0.4" d="M2 6C2 3.79086 3.79086 2 6 2H18C20.2091 2 22 3.79086 22 6V18C22 20.2091 20.2091 22 18 22H6C3.79086 22 2 20.2091 2 18V6Z" fill="#28303F"/>
<path d="M22 7H2V6C2 3.79086 3.79086 2 6 2H18C20.2091 2 22 3.79086 22 6V7Z" fill="#28303F"/>
<path fill-rule="evenodd" clip-rule="evenodd" d="M11.3293 10.6646C11.4563 10.4105 11.716 10.25 12.0001 10.25H17.0001C17.4143 10.25 17.7501 10.5858 17.7501 11C17.7501 11.4142 17.4143 11.75 17.0001 11.75H12.4636L9.6709 17.3354C9.55134 17.5745 9.31352 17.7319 9.04668 17.7486C8.77985 17.7652 8.52434 17.6385 8.37604 17.416L6.37604 14.416C6.14628 14.0714 6.23941 13.6057 6.58405 13.376C6.9287 13.1462 7.39435 13.2393 7.62412 13.584L8.90723 15.5086L11.3293 10.6646Z" fill="#28303F"/>
<path fill-rule="evenodd" clip-rule="evenodd" d="M13.4697 13.4697C13.7626 13.1768 14.2374 13.1768 14.5303 13.4697L15.5 14.4393L16.4697 13.4697C16.7626 13.1768 17.2374 13.1768 17.5303 13.4697C17.8232 13.7626 17.8232 14.2374 17.5303 14.5303L16.5607 15.5L17.5303 16.4697C17.8232 16.7626 17.8232 17.2374 17.5303 17.5303C17.2374 17.8232 16.7626 17.8232 16.4697 17.5303L15.5 16.5607L14.5303 17.5303C14.2374 17.8232 13.7626 17.8232 13.4697 17.5303C13.1768 17.2374 13.1768 16.7626 13.4697 16.4697L14.4393 15.5L13.4697 14.5303C13.1768 14.2374 13.1768 13.7626 13.4697 13.4697Z" fill="#28303F"/>
</svg>
