<svg width="24" height="24" viewBox="0 0 24 24" fill="none" xmlns="http://www.w3.org/2000/svg">
<path fill-rule="evenodd" clip-rule="evenodd" d="M17 10.101V4C17 2.89543 16.1046 2 15 2H9C7.89543 2 7 2.89543 7 4V10.101C8.27052 8.80447 10.0413 8 12 8C13.9587 8 15.7295 8.80447 17 10.101Z" fill="#28303F"/>
<circle opacity="0.4" cx="12" cy="15" r="7" fill="#28303F"/>
<path fill-rule="evenodd" clip-rule="evenodd" d="M22.5303 9.46967C22.8232 9.76256 22.8232 10.2374 22.5303 10.5303L21.5303 11.5303C21.2374 11.8232 20.7626 11.8232 20.4697 11.5303C20.1768 11.2374 20.1768 10.7626 20.4697 10.4697L21.4697 9.46967C21.7626 9.17678 22.2374 9.17678 22.5303 9.46967Z" fill="#28303F"/>
<path fill-rule="evenodd" clip-rule="evenodd" d="M20.4697 18.4697C20.7626 18.1768 21.2374 18.1768 21.5303 18.4697L22.5303 19.4697C22.8232 19.7626 22.8232 20.2374 22.5303 20.5303C22.2374 20.8232 21.7626 20.8232 21.4697 20.5303L20.4697 19.5303C20.1768 19.2374 20.1768 18.7626 20.4697 18.4697Z" fill="#28303F"/>
<path fill-rule="evenodd" clip-rule="evenodd" d="M1.46967 9.46967C1.17678 9.76256 1.17678 10.2374 1.46967 10.5303L2.46967 11.5303C2.76256 11.8232 3.23744 11.8232 3.53033 11.5303C3.82322 11.2374 3.82322 10.7626 3.53033 10.4697L2.53033 9.46967C2.23744 9.17678 1.76256 9.17678 1.46967 9.46967Z" fill="#28303F"/>
<path fill-rule="evenodd" clip-rule="evenodd" d="M3.53033 18.4697C3.23744 18.1768 2.76256 18.1768 2.46967 18.4697L1.46967 19.4697C1.17678 19.7626 1.17678 20.2374 1.46967 20.5303C1.76256 20.8232 2.23744 20.8232 2.53033 20.5303L3.53033 19.5303C3.82322 19.2374 3.82322 18.7626 3.53033 18.4697Z" fill="#28303F"/>
<path fill-rule="evenodd" clip-rule="evenodd" d="M12.3942 11.362C12.6153 11.4987 12.7499 11.7401 12.7499 12V17.25H12.9999C13.4141 17.25 13.7499 17.5858 13.7499 18C13.7499 18.4142 13.4141 18.75 12.9999 18.75H10.9999C10.5857 18.75 10.2499 18.4142 10.2499 18C10.2499 17.5858 10.5857 17.25 10.9999 17.25H11.2499V13.2072C10.8981 13.3321 10.5003 13.1778 10.3291 12.8354C10.1439 12.4649 10.294 12.0144 10.6645 11.8292L11.6645 11.3292C11.897 11.2129 12.1731 11.2254 12.3942 11.362Z" fill="#28303F"/>
</svg>
