<svg width="24" height="24" viewBox="0 0 24 24" fill="none" xmlns="http://www.w3.org/2000/svg">
<path fill-rule="evenodd" clip-rule="evenodd" d="M14.75 7.52679C16.2506 8.45134 17.25 10.1096 17.25 12C17.25 14.8995 14.8995 17.25 12 17.25H8C7.58579 17.25 7.25 17.5858 7.25 18C7.25 18.4142 7.58579 18.75 8 18.75H11.25V21.25H9C8.58579 21.25 8.25 21.5858 8.25 22C8.25 22.4142 8.58579 22.75 9 22.75H15C15.4142 22.75 15.75 22.4142 15.75 22C15.75 21.5858 15.4142 21.25 15 21.25H12.75V18.7088C16.125 18.3357 18.75 15.4744 18.75 12C18.75 9.25047 17.1064 6.8865 14.75 5.83398V7.52679Z" fill="#28303F"/>
<path fill-rule="evenodd" clip-rule="evenodd" d="M11.25 12.75V14C11.25 14.4142 11.5858 14.75 12 14.75C12.4142 14.75 12.75 14.4142 12.75 14V12.75H11.25Z" fill="#28303F"/>
<path fill-rule="evenodd" clip-rule="evenodd" d="M12 1.25C12.4142 1.25 12.75 1.58579 12.75 2V3.25H11.25V2C11.25 1.58579 11.5858 1.25 12 1.25Z" fill="#28303F"/>
<path opacity="0.4" d="M9.25 5C9.25 4.0335 10.0335 3.25 11 3.25H13C13.9665 3.25 14.75 4.0335 14.75 5V11C14.75 11.9665 13.9665 12.75 13 12.75H11C10.0335 12.75 9.25 11.9665 9.25 11V5Z" fill="#28303F"/>
</svg>
