<svg width="24" height="24" viewBox="0 0 24 24" fill="none" xmlns="http://www.w3.org/2000/svg">
<path opacity="0.4" d="M2 6C2 3.79086 3.79086 2 6 2H18C20.2091 2 22 3.79086 22 6V18C22 20.2091 20.2091 22 18 22H6C3.79086 22 2 20.2091 2 18V6Z" fill="#28303F"/>
<path fill-rule="evenodd" clip-rule="evenodd" d="M8.64142 8.64106C8.93431 8.34816 9.40918 8.34816 9.70208 8.64106L12.0001 10.9391L14.2982 8.64106C14.591 8.34816 15.0659 8.34816 15.3588 8.64106C15.6517 8.93395 15.6517 9.40882 15.3588 9.70172L13.0608 11.9998L15.3589 14.2979C15.6518 14.5908 15.6518 15.0657 15.3589 15.3586C15.066 15.6515 14.5912 15.6515 14.2983 15.3586L12.0001 13.0604L9.70196 15.3586C9.40907 15.6515 8.93419 15.6515 8.6413 15.3586C8.34841 15.0657 8.34841 14.5908 8.6413 14.2979L10.9395 11.9998L8.64142 9.70172C8.34852 9.40882 8.34852 8.93395 8.64142 8.64106Z" fill="#28303F"/>
</svg>
