<svg width="24" height="24" viewBox="0 0 24 24" fill="none" xmlns="http://www.w3.org/2000/svg">
<path opacity="0.4" d="M4 6C4 3.79086 5.79086 2 8 2H18C20.2091 2 22 3.79086 22 6V18C22 20.2091 20.2091 22 18 22H8C5.79086 22 4 20.2091 4 18V6Z" fill="#28303F"/>
<path fill-rule="evenodd" clip-rule="evenodd" d="M1.25 6C1.25 5.58579 1.58579 5.25 2 5.25H6C6.41421 5.25 6.75 5.58579 6.75 6C6.75 6.41421 6.41421 6.75 6 6.75H2C1.58579 6.75 1.25 6.41421 1.25 6Z" fill="#28303F"/>
<path fill-rule="evenodd" clip-rule="evenodd" d="M1.25 12C1.25 11.5858 1.58579 11.25 2 11.25H6C6.41421 11.25 6.75 11.5858 6.75 12C6.75 12.4142 6.41421 12.75 6 12.75H2C1.58579 12.75 1.25 12.4142 1.25 12Z" fill="#28303F"/>
<path fill-rule="evenodd" clip-rule="evenodd" d="M1.25 18C1.25 17.5858 1.58579 17.25 2 17.25H6C6.41421 17.25 6.75 17.5858 6.75 18C6.75 18.4142 6.41421 18.75 6 18.75H2C1.58579 18.75 1.25 18.4142 1.25 18Z" fill="#28303F"/>
<path fill-rule="evenodd" clip-rule="evenodd" d="M18.75 6C18.75 6.41421 18.4142 6.75 18 6.75L10 6.75C9.58579 6.75 9.25 6.41421 9.25 6C9.25 5.58579 9.58579 5.25 10 5.25L18 5.25C18.4142 5.25 18.75 5.58579 18.75 6Z" fill="#28303F"/>
<path fill-rule="evenodd" clip-rule="evenodd" d="M14.75 10C14.75 10.4142 14.4142 10.75 14 10.75L10 10.75C9.58579 10.75 9.25 10.4142 9.25 10C9.25 9.58579 9.58579 9.25 10 9.25L14 9.25C14.4142 9.25 14.75 9.58579 14.75 10Z" fill="#28303F"/>
</svg>
