<svg width="24" height="24" viewBox="0 0 24 24" fill="none" xmlns="http://www.w3.org/2000/svg">
<path d="M11.4535 9.88568C9.7545 8.72825 7.37016 8.20374 5.59546 8.00877C4.71714 7.91227 4 8.62535 4 9.50514V18.2666C4 19.1464 4.71714 19.8598 5.59546 19.9563C7.37016 20.1512 9.7545 20.6757 11.4535 21.8332C11.6167 21.9444 11.8084 22 12 22L12 10.0525C11.8084 10.0525 11.6167 9.99691 11.4535 9.88568Z" fill="#28303F"/>
<path opacity="0.4" d="M12.5465 9.88568C14.2455 8.72825 16.6298 8.20374 18.4045 8.00877C19.2829 7.91227 20 8.62535 20 9.50514V18.2666C20 19.1464 19.2829 19.8598 18.4045 19.9563C16.6298 20.1512 14.2455 20.6757 12.5465 21.8332C12.3833 21.9444 12.1916 22 12 22V10.0525C12.1916 10.0525 12.3833 9.99691 12.5465 9.88568Z" fill="#28303F"/>
<path fill-rule="evenodd" clip-rule="evenodd" d="M11.9999 5.75C11.4067 5.75 10.8527 5.90825 10.3754 6.18433C10.0169 6.39174 9.55808 6.26922 9.35068 5.91067C9.14327 5.55213 9.26579 5.09333 9.62434 4.88592C10.3238 4.48133 11.1359 4.25 11.9999 4.25C12.8638 4.25 13.676 4.48133 14.3754 4.88592C14.734 5.09333 14.8565 5.55213 14.6491 5.91067C14.4417 6.26922 13.9829 6.39174 13.6243 6.18433C13.1471 5.90825 12.5931 5.75 11.9999 5.75Z" fill="#28303F"/>
<path fill-rule="evenodd" clip-rule="evenodd" d="M12.0001 2.75C10.6712 2.75 9.44119 3.1639 8.42914 3.86983C8.08941 4.1068 7.6219 4.02349 7.38493 3.68376C7.14796 3.34403 7.23126 2.87652 7.57099 2.63955C8.82661 1.76373 10.3545 1.25 12.0001 1.25C13.6457 1.25 15.1735 1.76373 16.4291 2.63955C16.7689 2.87652 16.8522 3.34403 16.6152 3.68376C16.3782 4.02349 15.9107 4.1068 15.571 3.86983C14.5589 3.1639 13.329 2.75 12.0001 2.75Z" fill="#28303F"/>
</svg>
