<svg width="24" height="24" viewBox="0 0 24 24" fill="none" xmlns="http://www.w3.org/2000/svg">
<path opacity="0.4" d="M2 12C2 16.8424 5.44193 20.8809 10.0128 21.8025C11.0955 22.0209 12 21.1046 12 20V16.4444C12 15.2171 12.9949 14.2222 14.2222 14.2222C15.4495 14.2222 16.4444 15.2171 16.4444 16.4444V17.7333C16.4444 19.2179 18.0031 20.1343 19.0552 19.0869C20.8742 17.276 22 14.7695 22 12C22 6.47715 17.5228 2 12 2C6.47715 2 2 6.47715 2 12Z" fill="#28303F"/>
<path d="M11 7.5C11 6.67157 10.3284 6 9.5 6C8.67157 6 8 6.67157 8 7.5C8 8.32843 8.67157 9 9.5 9C10.3284 9 11 8.32843 11 7.5Z" fill="#28303F"/>
<path d="M18.5 10C18.5 9.17157 17.8284 8.5 17 8.5C16.1716 8.5 15.5 9.17157 15.5 10C15.5 10.8284 16.1716 11.5 17 11.5C17.8284 11.5 18.5 10.8284 18.5 10Z" fill="#28303F"/>
<path d="M9.5 15.5C9.5 14.6716 8.82843 14 8 14C7.17157 14 6.5 14.6716 6.5 15.5C6.5 16.3284 7.17157 17 8 17C8.82843 17 9.5 16.3284 9.5 15.5Z" fill="#28303F"/>
</svg>
