<svg width="24" height="24" viewBox="0 0 24 24" fill="none" xmlns="http://www.w3.org/2000/svg">
<path opacity="0.4" d="M19 3H11C9.34315 3 8 4.34315 8 6V18H22V6C22 4.34315 20.6569 3 19 3Z" fill="#28303F"/>
<path fill-rule="evenodd" clip-rule="evenodd" d="M11.25 7C11.25 6.58579 11.5858 6.25 12 6.25H18C18.4142 6.25 18.75 6.58579 18.75 7C18.75 7.41421 18.4142 7.75 18 7.75H12C11.5858 7.75 11.25 7.41421 11.25 7Z" fill="#28303F"/>
<path fill-rule="evenodd" clip-rule="evenodd" d="M11.25 11C11.25 10.5858 11.5858 10.25 12 10.25H15C15.4142 10.25 15.75 10.5858 15.75 11C15.75 11.4142 15.4142 11.75 15 11.75H12C11.5858 11.75 11.25 11.4142 11.25 11Z" fill="#28303F"/>
<path d="M8 18C8 16.3431 9.34315 15 11 15H22V18C22 19.6569 20.6569 21 19 21H11C9.34315 21 8 19.6569 8 18Z" fill="#28303F"/>
<path opacity="0.4" d="M2 4.5C2 3.67157 2.67157 3 3.5 3V3C4.32843 3 5 3.67157 5 4.5V17.6667C5 18.5321 4.71929 19.3743 4.2 20.0667L3.9 20.4667C3.7 20.7333 3.3 20.7333 3.1 20.4667L2.8 20.0667C2.28071 19.3743 2 18.5321 2 17.6667V4.5Z" fill="#28303F"/>
<path d="M5 7H2V4.5C2 3.67157 2.67157 3 3.5 3C4.32843 3 5 3.67157 5 4.5V7Z" fill="#28303F"/>
</svg>
