<svg width="24" height="24" viewBox="0 0 24 24" fill="none" xmlns="http://www.w3.org/2000/svg">
<path opacity="0.4" d="M16.2425 3.81627C17.3308 2.72791 19.0954 2.72791 20.1838 3.81626C21.2721 4.90462 21.2721 6.66918 20.1838 7.75754L8.72825 19.213C8.16771 19.7736 7.45154 20.1526 6.6728 20.3008L3.72217 20.8625C3.37558 20.9285 3.07151 20.6244 3.13749 20.2778L3.69918 17.3272C3.84742 16.5485 4.22643 15.8323 4.78698 15.2718L16.2425 3.81627Z" fill="#28303F"/>
<path d="M20.1837 7.75754C21.2721 6.66918 21.2721 4.90462 20.1837 3.81626C19.0954 2.72791 17.3308 2.72791 16.2425 3.81627L14.3865 5.83114L18.169 9.61364L20.1837 7.75754Z" fill="#28303F"/>
</svg>
