<svg width="24" height="24" viewBox="0 0 24 24" fill="none" xmlns="http://www.w3.org/2000/svg">
<path fill-rule="evenodd" clip-rule="evenodd" d="M15.8397 4.41923C13.8308 5.28016 11.4454 6.93196 9.18865 9.18867C6.93195 11.4454 5.28016 13.8309 4.41923 15.8397C3.98788 16.8462 3.77084 17.7216 3.75141 18.4177C3.73204 19.1117 3.90767 19.5551 4.17624 19.8237C4.44481 20.0923 4.88821 20.2679 5.58219 20.2485C6.27835 20.2291 7.1537 20.0121 8.16018 19.5807C10.169 18.7198 12.5545 17.068 14.8112 14.8113C17.0679 12.5546 18.7197 10.1691 19.5806 8.1602C20.012 7.15372 20.229 6.27837 20.2485 5.5822C20.2678 4.88822 20.0922 4.44481 19.8236 4.17624C19.5551 3.90767 19.1117 3.73204 18.4177 3.75141C17.7215 3.77084 16.8462 3.98788 15.8397 4.41923ZM18.3758 2.25199C19.3269 2.22545 20.2301 2.46139 20.8843 3.11558C21.5385 3.76977 21.7744 4.67298 21.7479 5.62404C21.7214 6.57293 21.4351 7.64106 20.9594 8.75108C20.0061 10.9752 18.229 13.5148 15.8719 15.8719C13.5148 18.229 10.9752 20.0062 8.75106 20.9594C7.64104 21.4352 6.57291 21.7215 5.62403 21.7479C4.67297 21.7745 3.76977 21.5386 3.11557 20.8844C2.46139 20.2302 2.22545 19.327 2.25199 18.3759C2.27847 17.427 2.56479 16.3589 3.04051 15.2489C3.99372 13.0247 5.77089 10.4851 8.12799 8.12802C10.4851 5.77091 13.0247 3.99372 15.2488 3.04051C16.3588 2.56479 17.4269 2.27847 18.3758 2.25199Z" fill="#28303F"/>
<path opacity="0.4" fill-rule="evenodd" clip-rule="evenodd" d="M5.58219 3.75141C4.88821 3.73204 4.44481 3.90767 4.17624 4.17624C3.90767 4.44481 3.73204 4.88822 3.75141 5.5822C3.77084 6.27837 3.98788 7.15372 4.41923 8.1602C5.28016 10.1691 6.93195 12.5546 9.18865 14.8113C11.4454 17.068 13.8308 18.7198 15.8397 19.5807C16.8462 20.0121 17.7215 20.2291 18.4177 20.2485C19.1117 20.2679 19.5551 20.0923 19.8236 19.8237C20.0922 19.5551 20.2678 19.1117 20.2485 18.4177C20.229 17.7216 20.012 16.8462 19.5806 15.8397C18.7197 13.8309 17.0679 11.4454 14.8112 9.18868C12.5545 6.93196 10.169 5.28016 8.16018 4.41923C7.1537 3.98788 6.27835 3.77084 5.58219 3.75141ZM8.75106 3.04051C10.9752 3.99372 13.5148 5.77091 15.8719 8.12802C18.229 10.4851 20.0061 13.0247 20.9594 15.2489C21.4351 16.3589 21.7214 17.427 21.7479 18.3759C21.7744 19.327 21.5385 20.2302 20.8843 20.8844C20.2301 21.5386 19.3269 21.7745 18.3758 21.7479C17.4269 21.7215 16.3588 21.4352 15.2488 20.9594C13.0247 20.0062 10.4851 18.229 8.12799 15.8719C5.77089 13.5148 3.99372 10.9752 3.04051 8.75108C2.56479 7.64106 2.27847 6.57293 2.25199 5.62404C2.22545 4.67298 2.46138 3.76977 3.11557 3.11558C3.76977 2.46139 4.67297 2.22545 5.62403 2.25199C6.57292 2.27847 7.64104 2.56479 8.75106 3.04051Z" fill="#28303F"/>
<circle opacity="0.4" cx="12" cy="12" r="2" fill="#28303F"/>
</svg>
