<svg width="24" height="24" viewBox="0 0 24 24" fill="none" xmlns="http://www.w3.org/2000/svg">
<path fill-rule="evenodd" clip-rule="evenodd" d="M18.25 19.9999H19C19.2652 19.9999 19.5184 19.9482 19.75 19.8545V21.9999C19.75 22.4141 19.4142 22.7499 19 22.7499C18.5858 22.7499 18.25 22.4141 18.25 21.9999V19.9999Z" fill="#28303F"/>
<path fill-rule="evenodd" clip-rule="evenodd" d="M4.25 19.8545C4.48161 19.9482 4.73477 19.9999 5 19.9999H5.75V21.9999C5.75 22.4141 5.41421 22.7499 5 22.7499C4.58579 22.7499 4.25 22.4141 4.25 21.9999V19.8545Z" fill="#28303F"/>
<path opacity="0.4" fill-rule="evenodd" clip-rule="evenodd" d="M12 14C13.1046 14 14 13.1046 14 12H19C20.1046 12 21 12.8954 21 14V18C21 19.1046 20.1046 20 19 20H5C3.89543 20 3 19.1046 3 18V14C3 12.8954 3.89543 12 5 12H10C10 13.1046 10.8954 14 12 14Z" fill="#28303F"/>
<path fill-rule="evenodd" clip-rule="evenodd" d="M12 17C14.7614 17 17 14.7614 17 12C17 9.23858 14.7614 7 12 7C9.23858 7 7 9.23858 7 12C7 14.7614 9.23858 17 12 17ZM12 14C13.1046 14 14 13.1046 14 12C14 10.8954 13.1046 10 12 10C10.8954 10 10 10.8954 10 12C10 13.1046 10.8954 14 12 14Z" fill="#28303F"/>
<path fill-rule="evenodd" clip-rule="evenodd" d="M12 1.25C12.4142 1.25 12.75 1.58579 12.75 2V4C12.75 4.41421 12.4142 4.75 12 4.75C11.5858 4.75 11.25 4.41421 11.25 4V2C11.25 1.58579 11.5858 1.25 12 1.25Z" fill="#28303F"/>
<path opacity="0.4" fill-rule="evenodd" clip-rule="evenodd" d="M19.5303 3.46967C19.8232 3.76256 19.8232 4.23744 19.5303 4.53033L18.0303 6.03033C17.7374 6.32322 17.2626 6.32322 16.9697 6.03033C16.6768 5.73744 16.6768 5.26256 16.9697 4.96967L18.4697 3.46967C18.7626 3.17678 19.2374 3.17678 19.5303 3.46967Z" fill="#28303F"/>
<path opacity="0.4" fill-rule="evenodd" clip-rule="evenodd" d="M4.46967 3.46967C4.76256 3.17678 5.23744 3.17678 5.53033 3.46967L7.03033 4.96967C7.32322 5.26256 7.32322 5.73744 7.03033 6.03033C6.73744 6.32322 6.26256 6.32322 5.96967 6.03033L4.46967 4.53033C4.17678 4.23744 4.17678 3.76256 4.46967 3.46967Z" fill="#28303F"/>
</svg>
