<svg width="24" height="24" viewBox="0 0 24 24" fill="none" xmlns="http://www.w3.org/2000/svg">
<path opacity="0.4" fill-rule="evenodd" clip-rule="evenodd" d="M7 2H9C10.1046 2 11 2.89543 11 4C15.4183 4 19 7.58172 19 12C19 16.4183 15.4183 20 11 20C11 21.1046 10.1046 22 9 22H7C5.89543 22 5 21.1046 5 20V4C5 2.89543 5.89543 2 7 2ZM14 12C14 13.6569 12.6569 15 11 15V9C12.6569 9 14 10.3431 14 12Z" fill="#28303F"/>
<path d="M5 5.25H7C7.41421 5.25 7.75 5.58579 7.75 6C7.75 6.41421 7.41421 6.75 7 6.75H5V5.25Z" fill="#28303F"/>
<path d="M5 9.25H7C7.41421 9.25 7.75 9.58579 7.75 10C7.75 10.4142 7.41421 10.75 7 10.75H5V9.25Z" fill="#28303F"/>
<path d="M5 13.25H7C7.41421 13.25 7.75 13.5858 7.75 14C7.75 14.4142 7.41421 14.75 7 14.75H5V13.25Z" fill="#28303F"/>
<path d="M5 17.25H7C7.41421 17.25 7.75 17.5858 7.75 18C7.75 18.4142 7.41421 18.75 7 18.75H5V17.25Z" fill="#28303F"/>
</svg>
