<svg width="24" height="24" viewBox="0 0 24 24" fill="none" xmlns="http://www.w3.org/2000/svg">
<path opacity="0.4" fill-rule="evenodd" clip-rule="evenodd" d="M12 22C17.5228 22 22 17.5228 22 12C22 6.47715 17.5228 2 12 2C6.47715 2 2 6.47715 2 12C2 17.5228 6.47715 22 12 22ZM11.9999 6C14.6123 6 16.8348 7.66962 17.6585 10L6.34131 10C7.16498 7.66961 9.38746 6 11.9999 6ZM11.9999 18C9.38746 18 7.16498 16.3304 6.34131 14H17.6585C16.8348 16.3304 14.6123 18 11.9999 18Z" fill="#28303F"/>
<path fill-rule="evenodd" clip-rule="evenodd" d="M12 1.25C12.4142 1.25 12.75 1.58579 12.75 2V3C12.75 3.41421 12.4142 3.75 12 3.75C11.5858 3.75 11.25 3.41421 11.25 3V2C11.25 1.58579 11.5858 1.25 12 1.25ZM19.6014 4.39859C19.8943 4.69149 19.8943 5.16636 19.6014 5.45926L18.8943 6.16636C18.6014 6.45925 18.1265 6.45925 17.8336 6.16636C17.5407 5.87347 17.5407 5.39859 17.8336 5.1057L18.5407 4.39859C18.8336 4.1057 19.3085 4.1057 19.6014 4.39859ZM4.39855 4.39861C4.69144 4.10572 5.16632 4.10572 5.45921 4.39861L6.16632 5.10572C6.45921 5.39861 6.45921 5.87348 6.16632 6.16638C5.87342 6.45927 5.39855 6.45927 5.10566 6.16638L4.39855 5.45927C4.10566 5.16638 4.10566 4.6915 4.39855 4.39861ZM1.25 12C1.25 11.5858 1.58579 11.25 2 11.25H3C3.41421 11.25 3.75 11.5858 3.75 12C3.75 12.4142 3.41421 12.75 3 12.75H2C1.58579 12.75 1.25 12.4142 1.25 12ZM20.25 12C20.25 11.5858 20.5858 11.25 21 11.25H22C22.4142 11.25 22.75 11.5858 22.75 12C22.75 12.4142 22.4142 12.75 22 12.75H21C20.5858 12.75 20.25 12.4142 20.25 12ZM6.16632 17.8336C6.45921 18.1265 6.45921 18.6014 6.16632 18.8943L5.45921 19.6014C5.16632 19.8943 4.69144 19.8943 4.39855 19.6014C4.10566 19.3085 4.10566 18.8336 4.39855 18.5407L5.10566 17.8336C5.39855 17.5407 5.87342 17.5407 6.16632 17.8336ZM17.8336 17.8337C18.1265 17.5408 18.6014 17.5408 18.8943 17.8337L19.6014 18.5408C19.8943 18.8337 19.8943 19.3085 19.6014 19.6014C19.3085 19.8943 18.8336 19.8943 18.5407 19.6014L17.8336 18.8943C17.5407 18.6014 17.5407 18.1266 17.8336 17.8337ZM12 20.25C12.4142 20.25 12.75 20.5858 12.75 21V22C12.75 22.4142 12.4142 22.75 12 22.75C11.5858 22.75 11.25 22.4142 11.25 22V21C11.25 20.5858 11.5858 20.25 12 20.25Z" fill="#28303F"/>
</svg>
