<svg width="24" height="24" viewBox="0 0 24 24" fill="none" xmlns="http://www.w3.org/2000/svg">
<path opacity="0.4" fill-rule="evenodd" clip-rule="evenodd" d="M6.82373 16.5001C7.73892 19.1218 10.2083 21.0001 13.111 21.0001H17.1761H19.7777C21.005 21.0001 21.9999 19.9927 21.9999 18.7501V15.3751C21.9999 12.1612 20.0985 9.39704 17.3725 8.17285C17.4921 8.67884 17.5555 9.20698 17.5555 9.75009C17.5555 13.478 14.5707 16.5001 10.8888 16.5001H6.82373Z" fill="#28303F"/>
<path fill-rule="evenodd" clip-rule="evenodd" d="M9.77778 3H10.8889C14.0344 3 16.6711 5.20566 17.3726 8.17276C17.4922 8.67875 17.5556 9.20688 17.5556 9.75C17.5556 13.4779 14.5708 16.5 10.8889 16.5H6.82379H4.22222C2.99492 16.5 2 15.4926 2 14.25V10.875C2 6.52576 5.48223 3 9.77778 3ZM10 6.75C9.30964 6.75 8.75 7.30964 8.75 8C8.75 8.41421 8.41421 8.75 8 8.75C7.58579 8.75 7.25 8.41421 7.25 8C7.25 6.48122 8.48122 5.25 10 5.25C11.5188 5.25 12.75 6.48122 12.75 8C12.75 9.51878 11.5188 10.75 10 10.75C9.58579 10.75 9.25 10.4142 9.25 10C9.25 9.58579 9.58579 9.25 10 9.25C10.6904 9.25 11.25 8.69036 11.25 8C11.25 7.30964 10.6904 6.75 10 6.75ZM11 13C11 13.5523 10.5523 14 10 14C9.44772 14 9 13.5523 9 13C9 12.4477 9.44772 12 10 12C10.5523 12 11 12.4477 11 13Z" fill="#28303F"/>
</svg>
