<svg width="24" height="24" viewBox="0 0 24 24" fill="none" xmlns="http://www.w3.org/2000/svg">
<path d="M9 9.5C9 8.67157 9.67157 8 10.5 8H13.5C14.3284 8 15 8.67157 15 9.5V20.5C15 21.3284 14.3284 22 13.5 22H10.5C9.67157 22 9 21.3284 9 20.5V9.5Z" fill="#28303F"/>
<path opacity="0.4" d="M15 15.5C15 14.6716 15.6716 14 16.5 14H19.5C20.3284 14 21 14.6716 21 15.5V20.5C21 21.3284 20.3284 22 19.5 22H16.5C15.6716 22 15 21.3284 15 20.5V15.5Z" fill="#28303F"/>
<path opacity="0.4" d="M3 13.5C3 12.6716 3.67157 12 4.5 12H7.5C8.32843 12 9 12.6716 9 13.5V20.5C9 21.3284 8.32843 22 7.5 22H4.5C3.67157 22 3 21.3284 3 20.5V13.5Z" fill="#28303F"/>
<path d="M11.5245 1.96366C11.6742 1.503 12.3259 1.503 12.4756 1.96366L12.6324 2.44643C12.6994 2.65245 12.8914 2.79193 13.108 2.79193H13.6156C14.1 2.79193 14.3013 3.41173 13.9095 3.69643L13.4988 3.99481C13.3236 4.12213 13.2502 4.34781 13.3172 4.55383L13.474 5.0366C13.6237 5.49726 13.0965 5.88032 12.7046 5.59562L12.2939 5.29725C12.1187 5.16993 11.8814 5.16993 11.7062 5.29725L11.2955 5.59562C10.9036 5.88032 10.3764 5.49726 10.5261 5.0366L10.6829 4.55383C10.7499 4.34781 10.6765 4.12213 10.5013 3.99481L10.0906 3.69643C9.69875 3.41173 9.90014 2.79193 10.3845 2.79193H10.8921C11.1087 2.79193 11.3007 2.65245 11.3677 2.44643L11.5245 1.96366Z" fill="#28303F"/>
</svg>
