<svg width="24" height="24" viewBox="0 0 24 24" fill="none" xmlns="http://www.w3.org/2000/svg">
<path opacity="0.4" d="M3 6C3 3.79086 4.79086 2 7 2H17C19.2091 2 21 3.79086 21 6V18C21 20.2091 19.2091 22 17 22H7C4.79086 22 3 20.2091 3 18V6Z" fill="#28303F"/>
<path fill-rule="evenodd" clip-rule="evenodd" d="M12 5.25C10.4812 5.25 9.25 6.48122 9.25 8V10V12C9.25 12.4142 9.58579 12.75 10 12.75C10.4142 12.75 10.75 12.4142 10.75 12V10.75H13.25V12C13.25 12.4142 13.5858 12.75 14 12.75C14.4142 12.75 14.75 12.4142 14.75 12V10V8C14.75 6.48122 13.5188 5.25 12 5.25ZM13.25 9.25V8C13.25 7.30964 12.6904 6.75 12 6.75C11.3096 6.75 10.75 7.30964 10.75 8V9.25H13.25Z" fill="#28303F"/>
<path fill-rule="evenodd" clip-rule="evenodd" d="M7.25 15C7.25 14.5858 7.58579 14.25 8 14.25L16 14.25C16.4142 14.25 16.75 14.5858 16.75 15C16.75 15.4142 16.4142 15.75 16 15.75L8 15.75C7.58579 15.75 7.25 15.4142 7.25 15Z" fill="#28303F"/>
<path fill-rule="evenodd" clip-rule="evenodd" d="M7.25 18C7.25 17.5858 7.58579 17.25 8 17.25H12C12.4142 17.25 12.75 17.5858 12.75 18C12.75 18.4142 12.4142 18.75 12 18.75H8C7.58579 18.75 7.25 18.4142 7.25 18Z" fill="#28303F"/>
</svg>
