<svg width="24" height="24" viewBox="0 0 24 24" fill="none" xmlns="http://www.w3.org/2000/svg">
<path opacity="0.4" d="M2.64577 18.2361C1.78474 17.3751 1.78474 15.9791 2.64577 15.1181L15.1181 2.64577C15.9791 1.78474 17.3751 1.78474 18.2361 2.64577L21.3542 5.76385C22.2153 6.62488 22.2153 8.02089 21.3542 8.88193L8.88193 21.3542C8.02089 22.2153 6.62488 22.2153 5.76385 21.3542L2.64577 18.2361Z" fill="#28303F"/>
<path fill-rule="evenodd" clip-rule="evenodd" d="M17.7059 8.35151C17.9988 8.05861 18.4737 8.05861 18.7666 8.35151L20.3256 9.91054L19.265 10.9712L17.7059 9.41217C17.413 9.11927 17.413 8.6444 17.7059 8.35151ZM14.5878 11.4696C14.8807 11.1767 15.3555 11.1767 15.6484 11.4696L17.2075 13.0286L16.1468 14.0893L14.5878 12.5302C14.2949 12.2374 14.2949 11.7625 14.5878 11.4696ZM11.4698 14.5877C11.7627 14.2948 12.2375 14.2948 12.5304 14.5877L14.0895 16.1467L13.0288 17.2074L11.4698 15.6483C11.1769 15.3554 11.1769 14.8806 11.4698 14.5877ZM8.35175 17.7057C8.64464 17.4128 9.11952 17.4128 9.41241 17.7057L10.9714 19.2648L9.91079 20.3254L8.35175 18.7664C8.05886 18.4735 8.05886 17.9986 8.35175 17.7057Z" fill="#28303F"/>
</svg>
