<svg width="24" height="24" viewBox="0 0 24 24" fill="none" xmlns="http://www.w3.org/2000/svg">
<path fill-rule="evenodd" clip-rule="evenodd" d="M11.744 7.75C11.6336 7.75 11.5363 7.82242 11.5046 7.92816L9.2876 15.3181C8.875 16.6934 7.07295 17.0139 6.21141 15.8652L4.7 13.85C4.65279 13.787 4.57869 13.75 4.5 13.75H3C2.58579 13.75 2.25 13.4142 2.25 13C2.25 12.5858 2.58579 12.25 3 12.25H4.5C5.05083 12.25 5.5695 12.5093 5.9 12.95L7.41141 14.9652C7.53448 15.1293 7.79192 15.0835 7.85086 14.887L10.0678 7.49714C10.2899 6.75692 10.9712 6.25 11.744 6.25H21C21.4142 6.25 21.75 6.58579 21.75 7C21.75 7.41421 21.4142 7.75 21 7.75H11.744Z" fill="#28303F"/>
<path opacity="0.4" fill-rule="evenodd" clip-rule="evenodd" d="M18.6516 11.227C18.9445 11.5199 18.9445 11.9948 18.6516 12.2877L17.0606 13.8786L18.6516 15.4696C18.9445 15.7625 18.9445 16.2374 18.6516 16.5303C18.3587 16.8232 17.8839 16.8232 17.591 16.5303L16 14.9393L14.409 16.5303C14.1161 16.8232 13.6412 16.8232 13.3483 16.5303C13.0554 16.2374 13.0554 15.7625 13.3483 15.4696L14.9393 13.8786L13.3483 12.2877C13.0554 11.9948 13.0554 11.5199 13.3483 11.227C13.6412 10.9341 14.1161 10.9341 14.409 11.227L16 12.818L17.591 11.227C17.8839 10.9341 18.3587 10.9341 18.6516 11.227Z" fill="#28303F"/>
</svg>
