<svg width="24" height="24" viewBox="0 0 24 24" fill="none" xmlns="http://www.w3.org/2000/svg">
<path opacity="0.4" d="M2 9C2 7.34315 3.34315 6 5 6H19C20.6569 6 22 7.34315 22 9V19C22 20.6569 20.6569 22 19 22H5C3.34315 22 2 20.6569 2 19V9Z" fill="#28303F"/>
<path d="M6 17C6 15.3431 7.34315 14 9 14V14C10.6569 14 12 15.3431 12 17V17C12 17.5523 11.5523 18 11 18H7C6.44772 18 6 17.5523 6 17V17Z" fill="#28303F"/>
<path d="M10 4C10 2.89543 10.8954 2 12 2V2C13.1046 2 14 2.89543 14 4V6H10V4Z" fill="#28303F"/>
<path fill-rule="evenodd" clip-rule="evenodd" d="M18.75 12C18.75 12.4142 18.4142 12.75 18 12.75L15 12.75C14.5858 12.75 14.25 12.4142 14.25 12C14.25 11.5858 14.5858 11.25 15 11.25L18 11.25C18.4142 11.25 18.75 11.5858 18.75 12Z" fill="#28303F"/>
<path fill-rule="evenodd" clip-rule="evenodd" d="M18.75 16C18.75 16.4142 18.4142 16.75 18 16.75L15 16.75C14.5858 16.75 14.25 16.4142 14.25 16C14.25 15.5858 14.5858 15.25 15 15.25L18 15.25C18.4142 15.25 18.75 15.5858 18.75 16Z" fill="#28303F"/>
<circle cx="9" cy="12" r="2" fill="#28303F"/>
</svg>
