<svg width="24" height="24" viewBox="0 0 24 24" fill="none" xmlns="http://www.w3.org/2000/svg">
<path fill-rule="evenodd" clip-rule="evenodd" d="M8 8.2226V10.0004C8 12.2095 9.79086 14.0004 12 14.0004C14.2091 14.0004 16 12.2095 16 10.0004V8.2226L13.2184 9.45886C12.4427 9.80361 11.5573 9.80361 10.7816 9.45886L8 8.2226ZM18.5 7.11149V11.5004C18.5 11.9146 18.8358 12.2504 19.25 12.2504C19.6642 12.2504 20 11.9146 20 11.5004V6.44385C19.9909 6.44855 19.9815 6.45303 19.972 6.45728L18.5 7.11149Z" fill="#28303F"/>
<path opacity="0.4" d="M4.02813 5.54334L10.7817 2.54177C11.5574 2.19701 12.4428 2.19701 13.2185 2.54177L19.9721 5.54334C20.368 5.7193 20.368 6.2812 19.9721 6.45716L13.2185 9.45873C12.4428 9.80349 11.5574 9.80349 10.7817 9.45873L4.02813 6.45716C3.63222 6.2812 3.63222 5.7193 4.02813 5.54334Z" fill="#28303F"/>
<path opacity="0.4" d="M14.2996 15.3999L12.711 17.0062C12.3196 17.4019 11.6804 17.4019 11.289 17.0062L9.70045 15.3999C9.45505 15.1517 9.09681 15.046 8.762 15.1444C5.95686 15.9693 4 17.8332 4 20.0003C4 21.1049 4.89543 22.0003 6 22.0003H18C19.1046 22.0003 20 21.1049 20 20.0003C20 17.8332 18.0431 15.9693 15.238 15.1444C14.9032 15.046 14.5449 15.1517 14.2996 15.3999Z" fill="#28303F"/>
</svg>
