<svg width="24" height="24" viewBox="0 0 24 24" fill="none" xmlns="http://www.w3.org/2000/svg">
<path fill-rule="evenodd" clip-rule="evenodd" d="M20.238 10.6164V11.6031C20.238 12.8293 19.244 13.8234 18.0177 13.8234C16.7914 13.8234 15.7973 12.8293 15.7973 11.6031V10.6164L17.3414 11.3026C17.7719 11.494 18.2634 11.494 18.694 11.3026L20.238 10.6164ZM14.4096 9.99959V12.4358C14.4096 12.6657 14.2232 12.8521 13.9933 12.8521C13.7634 12.8521 13.577 12.6657 13.577 12.4358V9.62899C13.582 9.6316 13.5872 9.63409 13.5926 9.63645L14.4096 9.99959Z" fill="#28303F"/>
<path opacity="0.4" d="M22.4428 9.129L18.694 7.46286C18.2635 7.27149 17.772 7.27149 17.3414 7.46286L13.5926 9.129C13.3728 9.22667 13.3728 9.53857 13.5926 9.63625L17.3414 11.3024C17.772 11.4938 18.2635 11.4938 18.694 11.3024L22.4428 9.63625C22.6626 9.53857 22.6626 9.22667 22.4428 9.129Z" fill="#28303F"/>
<path opacity="0.4" fill-rule="evenodd" clip-rule="evenodd" d="M16.317 18.2639H21.3483C21.9615 18.2639 22.4585 17.7668 22.4585 17.1537C22.4585 15.9507 21.3723 14.9162 19.8152 14.4583C19.6293 14.4036 19.4305 14.4623 19.2942 14.6001L18.4125 15.4917C18.1952 15.7114 17.8404 15.7114 17.6231 15.4917L16.7413 14.6001C16.6051 14.4623 16.4063 14.4036 16.2204 14.4583C15.6749 14.6187 15.1872 14.8499 14.7838 15.1343C15.745 16.0138 16.3131 17.0949 16.317 18.2639Z" fill="#28303F"/>
<path opacity="0.4" fill-rule="evenodd" clip-rule="evenodd" d="M11.782 8.30848V9.8139C11.782 11.6846 10.2655 13.2011 8.39477 13.2011C6.52405 13.2011 5.00754 11.6846 5.00754 9.8139V8.30848L7.363 9.35535C8.01987 9.64729 8.76966 9.64729 9.42652 9.35535L11.782 8.30848ZM2.89053 7.36758V11.0841C2.89053 11.4349 2.60619 11.7192 2.25543 11.7192C1.90467 11.7192 1.62032 11.4349 1.62032 11.0841V6.80222C1.62804 6.8062 1.63596 6.80999 1.64407 6.8136L2.89053 7.36758Z" fill="#28303F"/>
<path d="M15.1455 6.04L9.42659 3.49825C8.76973 3.20631 8.01994 3.20631 7.36307 3.49825L1.64414 6.04C1.30888 6.189 1.30888 6.66482 1.64414 6.81382L7.36307 9.35557C8.01994 9.64751 8.76973 9.64751 9.42659 9.35557L15.1455 6.81382C15.4808 6.66482 15.4808 6.189 15.1455 6.04Z" fill="#28303F"/>
<path d="M6.44747 14.3864L7.79265 15.7466C8.12409 16.0818 8.66541 16.0818 8.99685 15.7466L10.342 14.3864C10.5498 14.1763 10.8532 14.0867 11.1367 14.1701C13.5121 14.8686 15.1692 16.4469 15.1692 18.2821C15.1692 19.2174 14.4109 19.9757 13.4756 19.9757H3.31392C2.37856 19.9757 1.62031 19.2174 1.62031 18.2821C1.62031 16.4469 3.27739 14.8686 5.65279 14.1701C5.93631 14.0867 6.23967 14.1763 6.44747 14.3864Z" fill="#28303F"/>
</svg>
