<svg width="24" height="24" viewBox="0 0 24 24" fill="none" xmlns="http://www.w3.org/2000/svg">
<path opacity="0.4" d="M9.53027 5.46967C9.82317 5.76256 9.82317 6.23744 9.53027 6.53033L3.94448 12.1161C3.45633 12.6043 3.45633 13.3957 3.94449 13.8839L11.3106 21.25H9.18928L2.88383 14.9445C1.80989 13.8706 1.80988 12.1294 2.88382 11.0555L8.46961 5.46967C8.76251 5.17678 9.23738 5.17678 9.53027 5.46967Z" fill="#28303F"/>
<path fill-rule="evenodd" clip-rule="evenodd" d="M6.25 22C6.25 21.5858 6.58579 21.25 7 21.25H15C15.4142 21.25 15.75 21.5858 15.75 22C15.75 22.4142 15.4142 22.75 15 22.75H7C6.58579 22.75 6.25 22.4142 6.25 22Z" fill="#28303F"/>
<path d="M9.05725 2.58584C9.62817 2.01493 10.4864 1.84328 11.233 2.1507L15.2399 3.80062C16.5596 4.34401 16.9018 6.05504 15.8926 7.06419L13.0642 9.89261C12.055 10.9018 10.344 10.5596 9.80062 9.2399L8.1507 5.23296C7.84328 4.48638 8.01493 3.62817 8.58584 3.05725L9.05725 2.58584Z" fill="#28303F"/>
<path fill-rule="evenodd" clip-rule="evenodd" d="M16.9516 9.80523C17.2445 9.51234 17.7194 9.51234 18.0123 9.80523L19.4265 11.2194C19.7194 11.5123 19.7194 11.9872 19.4265 12.2801C19.1336 12.573 18.6587 12.573 18.3658 12.2801L16.9516 10.8659C16.6587 10.573 16.6587 10.0981 16.9516 9.80523Z" fill="#28303F"/>
<path opacity="0.4" fill-rule="evenodd" clip-rule="evenodd" d="M15.3606 11.7067C15.7748 11.7067 16.1106 12.0424 16.1106 12.4567L16.1106 13.8709C16.1106 14.2851 15.7748 14.6209 15.3606 14.6209C14.9464 14.6209 14.6106 14.2851 14.6106 13.8709L14.6106 12.4567C14.6106 12.0424 14.9464 11.7067 15.3606 11.7067Z" fill="#28303F"/>
<path opacity="0.4" fill-rule="evenodd" clip-rule="evenodd" d="M21.7674 8.21406C21.7674 8.62827 21.4316 8.96406 21.0174 8.96406H19.6032C19.189 8.96406 18.8532 8.62827 18.8532 8.21406C18.8532 7.79984 19.189 7.46406 19.6032 7.46406H21.0174C21.4316 7.46406 21.7674 7.79984 21.7674 8.21406Z" fill="#28303F"/>
</svg>
