<svg width="24" height="24" viewBox="0 0 24 24" fill="none" xmlns="http://www.w3.org/2000/svg">
<path opacity="0.4" d="M7 5V14C7 15.1046 7.89543 16 9 16H20C21.1046 16 22 15.1046 22 14V5C22 3.89543 21.1046 3 20 3H9C7.89543 3 7 3.89543 7 5Z" fill="#28303F"/>
<path d="M2 18C2 16.8954 2.89543 16 4 16H4.17157C4.70201 16 5.21071 16.2107 5.58579 16.5858V16.5858C6.36683 17.3668 7.63317 17.3668 8.41421 16.5858V16.5858C8.78929 16.2107 9.29799 16 9.82843 16H10C11.1046 16 12 16.8954 12 18V19C12 20.1046 11.1046 21 10 21H4C2.89543 21 2 20.1046 2 19V18Z" fill="#28303F"/>
<path d="M9.5 12.5C9.5 13.8807 8.38071 15 7 15C5.61929 15 4.5 13.8807 4.5 12.5C4.5 11.1193 5.61929 10 7 10C8.38071 10 9.5 11.1193 9.5 12.5Z" fill="#28303F"/>
<path fill-rule="evenodd" clip-rule="evenodd" d="M10.25 7.5C10.25 7.08579 10.5858 6.75 11 6.75L18 6.75C18.4142 6.75 18.75 7.08579 18.75 7.5C18.75 7.91421 18.4142 8.25 18 8.25L11 8.25C10.5858 8.25 10.25 7.91421 10.25 7.5Z" fill="#28303F"/>
<path fill-rule="evenodd" clip-rule="evenodd" d="M13.25 11.5C13.25 11.0858 13.5858 10.75 14 10.75L18 10.75C18.4142 10.75 18.75 11.0858 18.75 11.5C18.75 11.9142 18.4142 12.25 18 12.25L14 12.25C13.5858 12.25 13.25 11.9142 13.25 11.5Z" fill="#28303F"/>
</svg>
