<svg width="24" height="24" viewBox="0 0 24 24" fill="none" xmlns="http://www.w3.org/2000/svg">
<path opacity="0.4" d="M6.69234 12.0968C6.12652 11.0854 6.4623 9.79206 7.44232 9.20811L18.3148 2.92139L21.3883 8.41551L10.5158 14.7022C9.5358 15.2862 8.28265 14.9396 7.71684 13.9282L6.69234 12.0968Z" fill="#28303F"/>
<path fill-rule="evenodd" clip-rule="evenodd" d="M11.3733 14.2067L7.88756 21.6835C7.71254 22.0589 7.87499 22.5052 8.25041 22.6802C8.62582 22.8552 9.07205 22.6928 9.24707 22.3173L13.6392 12.8966L11.3733 14.2067ZM13.719 12.8504L18.1326 22.3173C18.3076 22.6928 18.7538 22.8552 19.1292 22.6802C19.5047 22.5052 19.6671 22.0589 19.4921 21.6835L15.0226 12.0967L13.719 12.8504Z" fill="#28303F"/>
<path fill-rule="evenodd" clip-rule="evenodd" d="M6.83839 12.3579C6.83242 12.3613 6.82649 12.3647 6.82058 12.3682L3.0465 14.617L2.65443 13.9162C2.45221 13.5547 1.99522 13.4256 1.63373 13.6278C1.27223 13.83 1.14312 14.287 1.34535 14.6485L2.11372 16.022L2.76827 15.6559L2.11372 16.022L2.8821 17.3955C3.08433 17.757 3.54131 17.8862 3.9028 17.6839C4.2643 17.4817 4.39341 17.0247 4.19118 16.6632L3.7791 15.9266L7.57085 13.6672L6.83839 12.3579Z" fill="#28303F"/>
<path d="M16.5707 4.37929C16.1464 3.62071 16.3982 2.65072 17.1332 2.21275C17.8682 1.77478 18.8081 2.03469 19.2325 2.79327L21.7937 7.37171C22.2181 8.13029 21.9662 9.10028 21.2312 9.53824C20.4962 9.97621 19.5563 9.7163 19.132 8.95772L16.5707 4.37929Z" fill="#28303F"/>
</svg>
