<svg width="24" height="24" viewBox="0 0 24 24" fill="none" xmlns="http://www.w3.org/2000/svg">
<path fill-rule="evenodd" clip-rule="evenodd" d="M1.25 6C1.25 3.37665 3.37665 1.25 6 1.25H8C8.41421 1.25 8.75 1.58579 8.75 2C8.75 2.41421 8.41421 2.75 8 2.75H6C4.20507 2.75 2.75 4.20507 2.75 6V8C2.75 8.41421 2.41421 8.75 2 8.75C1.58579 8.75 1.25 8.41421 1.25 8V6ZM15.25 2C15.25 1.58579 15.5858 1.25 16 1.25H18C20.6234 1.25 22.75 3.37665 22.75 6V8C22.75 8.41421 22.4142 8.75 22 8.75C21.5858 8.75 21.25 8.41421 21.25 8V6C21.25 4.20507 19.7949 2.75 18 2.75H16C15.5858 2.75 15.25 2.41421 15.25 2ZM2 15.25C2.41421 15.25 2.75 15.5858 2.75 16V18C2.75 19.7949 4.20507 21.25 6 21.25H8C8.41421 21.25 8.75 21.5858 8.75 22C8.75 22.4142 8.41421 22.75 8 22.75H6C3.37665 22.75 1.25 20.6234 1.25 18V16C1.25 15.5858 1.58579 15.25 2 15.25ZM22 15.25C22.4142 15.25 22.75 15.5858 22.75 16V18C22.75 20.6234 20.6234 22.75 18 22.75H16C15.5858 22.75 15.25 22.4142 15.25 22C15.25 21.5858 15.5858 21.25 16 21.25H18C19.7949 21.25 21.25 19.7949 21.25 18V16C21.25 15.5858 21.5858 15.25 22 15.25Z" fill="#28303F"/>
<circle opacity="0.4" cx="12" cy="12" r="5" fill="#28303F"/>
</svg>
