<svg width="24" height="24" viewBox="0 0 24 24" fill="none" xmlns="http://www.w3.org/2000/svg">
<path opacity="0.4" d="M20 9H8C4.68629 9 2 11.6863 2 15C2 18.3137 4.68629 21 8 21C11.3137 21 14 18.3137 14 15H17.7889C18.5786 15 19.3506 14.7662 20.0077 14.3282L21.1094 13.5937C21.6658 13.2228 22 12.5983 22 11.9296V11C22 9.89543 21.1046 9 20 9Z" fill="#28303F"/>
<circle cx="8" cy="15" r="2" fill="#28303F"/>
<path fill-rule="evenodd" clip-rule="evenodd" d="M13.25 11V9H14.75V11C14.75 11.4142 14.4142 11.75 14 11.75C13.5858 11.75 13.25 11.4142 13.25 11Z" fill="#28303F"/>
<path fill-rule="evenodd" clip-rule="evenodd" d="M14 2.25C14.4142 2.25 14.75 2.58579 14.75 3V4.5C14.75 4.91421 14.4142 5.25 14 5.25C13.5858 5.25 13.25 4.91421 13.25 4.5V3C13.25 2.58579 13.5858 2.25 14 2.25Z" fill="#28303F"/>
<path fill-rule="evenodd" clip-rule="evenodd" d="M8.46967 4.46967C8.76256 4.17678 9.23744 4.17678 9.53033 4.46967L10.5303 5.46967C10.8232 5.76256 10.8232 6.23744 10.5303 6.53033C10.2374 6.82322 9.76256 6.82322 9.46967 6.53033L8.46967 5.53033C8.17678 5.23744 8.17678 4.76256 8.46967 4.46967Z" fill="#28303F"/>
<path fill-rule="evenodd" clip-rule="evenodd" d="M19.5303 4.46967C19.8232 4.76256 19.8232 5.23744 19.5303 5.53033L18.5303 6.53033C18.2374 6.82322 17.7626 6.82322 17.4697 6.53033C17.1768 6.23744 17.1768 5.76256 17.4697 5.46967L18.4697 4.46967C18.7626 4.17678 19.2374 4.17678 19.5303 4.46967Z" fill="#28303F"/>
</svg>
