<svg width="24" height="24" viewBox="0 0 24 24" fill="none" xmlns="http://www.w3.org/2000/svg">
<path fill-rule="evenodd" clip-rule="evenodd" d="M10 8C10 9.65685 8.65685 11 7 11C5.34315 11 4 9.65685 4 8C4 6.34315 5.34315 5 7 5C8.65685 5 10 6.34315 10 8ZM13.25 7C13.25 6.58579 13.5858 6.25 14 6.25H22C22.4142 6.25 22.75 6.58579 22.75 7C22.75 7.41421 22.4142 7.75 22 7.75H14C13.5858 7.75 13.25 7.41421 13.25 7ZM13.25 12C13.25 11.5858 13.5858 11.25 14 11.25H22C22.4142 11.25 22.75 11.5858 22.75 12C22.75 12.4142 22.4142 12.75 22 12.75H14C13.5858 12.75 13.25 12.4142 13.25 12ZM16 16.25C15.5858 16.25 15.25 16.5858 15.25 17C15.25 17.4142 15.5858 17.75 16 17.75H22C22.4142 17.75 22.75 17.4142 22.75 17C22.75 16.5858 22.4142 16.25 22 16.25H16ZM7 19C9.76142 19 12 17.6569 12 16C12 14.3431 9.76142 13 7 13C4.23858 13 2 14.3431 2 16C2 17.6569 4.23858 19 7 19Z" fill="#28303F"/>
</svg>
