<svg width="24" height="24" viewBox="0 0 24 24" fill="none" xmlns="http://www.w3.org/2000/svg">
<path fill-rule="evenodd" clip-rule="evenodd" d="M12.0002 1.25C12.4144 1.25 12.7502 1.58579 12.7502 2V4C12.7502 4.41421 12.4144 4.75 12.0002 4.75C11.586 4.75 11.2502 4.41421 11.2502 4V2C11.2502 1.58579 11.586 1.25 12.0002 1.25ZM17.0002 12C17.0002 14.7614 14.7617 17 12.0002 17C9.2388 17 7.00023 14.7614 7.00023 12C7.00023 9.23858 9.2388 7 12.0002 7C14.7617 7 17.0002 9.23858 17.0002 12ZM12.7502 20C12.7502 19.5858 12.4144 19.25 12.0002 19.25C11.586 19.25 11.2502 19.5858 11.2502 20V22C11.2502 22.4142 11.586 22.75 12.0002 22.75C12.4144 22.75 12.7502 22.4142 12.7502 22V20ZM21.3098 6.6251C21.5169 6.98382 21.394 7.44252 21.0353 7.64962L19.3032 8.64962C18.9445 8.85673 18.4858 8.73382 18.2787 8.3751C18.0716 8.01639 18.1945 7.55769 18.5532 7.35059L20.2853 6.35059C20.644 6.14348 21.1027 6.26639 21.3098 6.6251ZM5.4469 16.6496C5.80562 16.4425 5.92852 15.9838 5.72142 15.6251C5.51431 15.2664 5.05562 15.1435 4.6969 15.3506L2.96485 16.3506C2.60613 16.5577 2.48322 17.0164 2.69033 17.3751C2.89743 17.7338 3.35613 17.8567 3.71485 17.6496L5.4469 16.6496ZM2.69041 6.62514C2.89752 6.26642 3.35621 6.14351 3.71493 6.35062L5.44698 7.35062C5.8057 7.55773 5.92861 8.01642 5.7215 8.37514C5.51439 8.73386 5.0557 8.85676 4.69698 8.64966L2.96493 7.64966C2.60621 7.44255 2.4833 6.98386 2.69041 6.62514ZM19.3033 15.3504C18.9446 15.1433 18.4859 15.2662 18.2788 15.6249C18.0717 15.9836 18.1946 16.4423 18.5533 16.6494L20.2854 17.6494C20.6441 17.8565 21.1028 17.7336 21.3099 17.3749C21.517 17.0162 21.3941 16.5575 21.0354 16.3504L19.3033 15.3504Z" fill="#28303F"/>
</svg>
