<svg width="24" height="24" viewBox="0 0 24 24" fill="none" xmlns="http://www.w3.org/2000/svg">
<path opacity="0.4" d="M13 3H11C6.02944 3 2 7.02944 2 12V17C2 19.2091 3.79086 21 6 21H13C17.9706 21 22 16.9706 22 12C22 7.02944 17.9706 3 13 3Z" fill="#28303F"/>
<path fill-rule="evenodd" clip-rule="evenodd" d="M9.40256 10.2853V9.51883C9.40256 8.0843 10.5655 6.92139 12 6.92139C13.4345 6.92139 14.5974 8.0843 14.5974 9.51883V10.2852C15.9039 10.6096 16.8721 11.7902 16.8721 13.197V13.815C16.8721 15.4718 15.529 16.815 13.8721 16.815H10.1279C8.47108 16.815 7.12793 15.4718 7.12793 13.815V13.197C7.12793 11.7902 8.09616 10.6096 9.40256 10.2853ZM10.7026 10.197V9.51883C10.7026 8.80227 11.2834 8.22139 12 8.22139C12.7166 8.22139 13.2974 8.80227 13.2974 9.51883V10.197H10.7026ZM10.1279 11.497H13.8721C14.811 11.497 15.5721 12.2581 15.5721 13.197V13.815C15.5721 14.7539 14.811 15.515 13.8721 15.515H10.1279C9.18905 15.515 8.42793 14.7539 8.42793 13.815V13.197C8.42793 12.2581 9.18904 11.497 10.1279 11.497Z" fill="#28303F"/>
</svg>
