<svg width="24" height="24" viewBox="0 0 24 24" fill="none" xmlns="http://www.w3.org/2000/svg">
<path d="M4 4V3.25L3.25 3.25V4L4 4ZM10 4L10.75 4V3.25L10 3.25V4ZM8 20V20.75V20ZM10 18H9.25H10ZM4 18H4.75H4ZM6 20V19.25V20ZM14 4V3.25L13.25 3.25V4H14ZM20 4H20.75V3.25L20 3.25V4ZM18 14V14.75V14ZM20 12H19.25H20ZM14 12H13.25H14ZM16 14V13.25V14ZM2 3.25C1.58579 3.25 1.25 3.58579 1.25 4C1.25 4.41421 1.58579 4.75 2 4.75L2 3.25ZM22 4.75C22.4142 4.75 22.75 4.41421 22.75 4C22.75 3.58579 22.4142 3.25 22 3.25V4.75ZM3.25 4L3.25 18H4.75L4.75 4L3.25 4ZM6 20.75H8V19.25H6V20.75ZM10.75 18V4L9.25 4L9.25 18H10.75ZM10 3.25L4 3.25V4.75L10 4.75V3.25ZM8 20.75C9.51878 20.75 10.75 19.5188 10.75 18H9.25C9.25 18.6904 8.69035 19.25 8 19.25V20.75ZM3.25 18C3.25 19.5188 4.48122 20.75 6 20.75V19.25C5.30964 19.25 4.75 18.6904 4.75 18H3.25ZM13.25 4V12H14.75V4H13.25ZM16 14.75H18V13.25H16V14.75ZM20.75 12V4H19.25V12H20.75ZM20 3.25L14 3.25V4.75L20 4.75V3.25ZM18 14.75C19.5188 14.75 20.75 13.5188 20.75 12H19.25C19.25 12.6904 18.6904 13.25 18 13.25V14.75ZM13.25 12C13.25 13.5188 14.4812 14.75 16 14.75V13.25C15.3096 13.25 14.75 12.6904 14.75 12H13.25ZM2 4.75L22 4.75V3.25L2 3.25L2 4.75Z" fill="#28303F"/>
</svg>
