<svg width="24" height="24" viewBox="0 0 24 24" fill="none" xmlns="http://www.w3.org/2000/svg">
<path d="M14 6H14.75H14ZM16 4V3.25V4ZM16 20V20.75V20ZM14 18H13.25H14ZM20 18H20.75H20ZM18 20V19.25V20ZM20 6H19.25H20ZM18 4V4.75V4ZM4 9H3.25H4ZM6 7V7.75V7ZM6 17V17.75V17ZM4 15H4.75H4ZM10 15H10.75H10ZM8 17V16.25V17ZM10 9H9.25H10ZM8 7V6.25V7ZM2 11.25C1.58579 11.25 1.25 11.5858 1.25 12C1.25 12.4142 1.58579 12.75 2 12.75V11.25ZM4 12.75C4.41421 12.75 4.75 12.4142 4.75 12C4.75 11.5858 4.41421 11.25 4 11.25V12.75ZM10 11.25C9.58579 11.25 9.25 11.5858 9.25 12C9.25 12.4142 9.58579 12.75 10 12.75V11.25ZM14 12.75C14.4142 12.75 14.75 12.4142 14.75 12C14.75 11.5858 14.4142 11.25 14 11.25V12.75ZM20 11.25C19.5858 11.25 19.25 11.5858 19.25 12C19.25 12.4142 19.5858 12.75 20 12.75V11.25ZM22 12.75C22.4142 12.75 22.75 12.4142 22.75 12C22.75 11.5858 22.4142 11.25 22 11.25V12.75ZM19.25 6V18H20.75V6H19.25ZM18 19.25H16V20.75H18V19.25ZM14.75 18L14.75 6H13.25L13.25 18H14.75ZM16 4.75L18 4.75V3.25L16 3.25V4.75ZM14.75 6C14.75 5.30964 15.3096 4.75 16 4.75V3.25C14.4812 3.25 13.25 4.48122 13.25 6H14.75ZM16 19.25C15.3096 19.25 14.75 18.6904 14.75 18H13.25C13.25 19.5188 14.4812 20.75 16 20.75V19.25ZM19.25 18C19.25 18.6904 18.6904 19.25 18 19.25V20.75C19.5188 20.75 20.75 19.5188 20.75 18H19.25ZM20.75 6C20.75 4.48122 19.5188 3.25 18 3.25V4.75C18.6904 4.75 19.25 5.30964 19.25 6H20.75ZM9.25 9V15H10.75V9H9.25ZM8 16.25H6V17.75H8V16.25ZM4.75 15L4.75 9H3.25L3.25 15H4.75ZM6 7.75H8V6.25H6V7.75ZM4.75 9C4.75 8.30964 5.30964 7.75 6 7.75V6.25C4.48122 6.25 3.25 7.48122 3.25 9H4.75ZM6 16.25C5.30964 16.25 4.75 15.6904 4.75 15H3.25C3.25 16.5188 4.48122 17.75 6 17.75V16.25ZM9.25 15C9.25 15.6904 8.69036 16.25 8 16.25V17.75C9.51878 17.75 10.75 16.5188 10.75 15H9.25ZM10.75 9C10.75 7.48122 9.51878 6.25 8 6.25V7.75C8.69036 7.75 9.25 8.30964 9.25 9H10.75ZM2 12.75H4V11.25H2V12.75ZM10 12.75H14V11.25H10V12.75ZM20 12.75H22V11.25H20V12.75Z" fill="#28303F"/>
</svg>
