<svg width="24" height="24" viewBox="0 0 24 24" fill="none" xmlns="http://www.w3.org/2000/svg">
<path d="M4 4V3.25H3.25L3.25 4H4ZM4 10H3.25V10.75H4V10ZM20 8H19.25H20ZM18 10V10.75V10ZM18 4V4.75V4ZM20 6H20.75H20ZM4 14V13.25H3.25V14H4ZM4 20H3.25V20.75H4V20ZM14 18H13.25H14ZM12 20V20.75V20ZM12 14V14.75V14ZM14 16H14.75H14ZM4.75 2C4.75 1.58579 4.41421 1.25 4 1.25C3.58579 1.25 3.25 1.58579 3.25 2H4.75ZM3.25 22C3.25 22.4142 3.58579 22.75 4 22.75C4.41421 22.75 4.75 22.4142 4.75 22H3.25ZM4 4.75H18V3.25H4V4.75ZM19.25 6V8H20.75V6H19.25ZM18 9.25H4V10.75H18V9.25ZM4.75 10L4.75 4H3.25L3.25 10H4.75ZM19.25 8C19.25 8.69035 18.6904 9.25 18 9.25V10.75C19.5188 10.75 20.75 9.51878 20.75 8H19.25ZM18 4.75C18.6904 4.75 19.25 5.30964 19.25 6H20.75C20.75 4.48122 19.5188 3.25 18 3.25V4.75ZM4 14.75H12V13.25H4V14.75ZM13.25 16V18H14.75V16H13.25ZM12 19.25H4V20.75H12V19.25ZM4.75 20V14H3.25V20H4.75ZM13.25 18C13.25 18.6904 12.6904 19.25 12 19.25V20.75C13.5188 20.75 14.75 19.5188 14.75 18H13.25ZM12 14.75C12.6904 14.75 13.25 15.3096 13.25 16H14.75C14.75 14.4812 13.5188 13.25 12 13.25V14.75ZM3.25 2V22H4.75V2H3.25Z" fill="#28303F"/>
</svg>
