<svg width="24" height="24" viewBox="0 0 24 24" fill="none" xmlns="http://www.w3.org/2000/svg">
<path d="M18 13.5V12.75V13.5ZM20 15.5H19.25H20ZM4 15.5H4.75H4ZM6 13.5V14.25V13.5ZM6 19L6 18.25L6 19ZM4 17H3.25H4ZM18 19V19.75V19ZM20 17H20.75H20ZM15 5V4.25V5ZM17 7H16.25H17ZM7 7H7.75H7ZM9 5V5.75V5ZM9 10.5V9.75V10.5ZM7 8.5H6.25H7ZM15 10.5V11.25V10.5ZM17 8.5H17.75H17ZM12.75 2C12.75 1.58579 12.4142 1.25 12 1.25C11.5858 1.25 11.25 1.58579 11.25 2H12.75ZM11.25 5C11.25 5.41421 11.5858 5.75 12 5.75C12.4142 5.75 12.75 5.41421 12.75 5H11.25ZM12.75 11C12.75 10.5858 12.4142 10.25 12 10.25C11.5858 10.25 11.25 10.5858 11.25 11H12.75ZM11.25 13C11.25 13.4142 11.5858 13.75 12 13.75C12.4142 13.75 12.75 13.4142 12.75 13H11.25ZM12.75 19C12.75 18.5858 12.4142 18.25 12 18.25C11.5858 18.25 11.25 18.5858 11.25 19H12.75ZM11.25 22C11.25 22.4142 11.5858 22.75 12 22.75C12.4142 22.75 12.75 22.4142 12.75 22H11.25ZM18 18.25L6 18.25L6 19.75L18 19.75V18.25ZM4.75 17L4.75 15.5H3.25L3.25 17H4.75ZM6 14.25L18 14.25V12.75L6 12.75V14.25ZM19.25 15.5V17H20.75V15.5H19.25ZM18 14.25C18.6904 14.25 19.25 14.8096 19.25 15.5H20.75C20.75 13.9812 19.5188 12.75 18 12.75V14.25ZM4.75 15.5C4.75 14.8096 5.30964 14.25 6 14.25V12.75C4.48122 12.75 3.25 13.9812 3.25 15.5H4.75ZM6 18.25C5.30964 18.25 4.75 17.6904 4.75 17H3.25C3.25 18.5188 4.48122 19.75 6 19.75L6 18.25ZM18 19.75C19.5188 19.75 20.75 18.5188 20.75 17H19.25C19.25 17.6904 18.6904 18.25 18 18.25V19.75ZM15 9.75L9 9.75V11.25L15 11.25V9.75ZM7.75 8.5L7.75 7H6.25L6.25 8.5H7.75ZM9 5.75L15 5.75V4.25L9 4.25V5.75ZM16.25 7V8.5H17.75V7H16.25ZM15 5.75C15.6904 5.75 16.25 6.30964 16.25 7H17.75C17.75 5.48122 16.5188 4.25 15 4.25V5.75ZM7.75 7C7.75 6.30964 8.30964 5.75 9 5.75V4.25C7.48122 4.25 6.25 5.48122 6.25 7H7.75ZM9 9.75C8.30964 9.75 7.75 9.19036 7.75 8.5H6.25C6.25 10.0188 7.48122 11.25 9 11.25V9.75ZM15 11.25C16.5188 11.25 17.75 10.0188 17.75 8.5H16.25C16.25 9.19036 15.6904 9.75 15 9.75V11.25ZM11.25 2V5H12.75V2H11.25ZM11.25 11V13H12.75V11H11.25ZM11.25 19V22H12.75V19H11.25Z" fill="#28303F"/>
</svg>
