<svg width="24" height="24" viewBox="0 0 24 24" fill="none" xmlns="http://www.w3.org/2000/svg">
<path d="M4 20H3.25V20.75H4V20ZM10 20V20.75H10.75V20H10ZM8 4V3.25V4ZM10 6H9.25H10ZM4 6H4.75H4ZM6 4V4.75V4ZM14 20H13.25V20.75H14V20ZM20 20V20.75H20.75V20H20ZM18 10V9.25V10ZM20 12H19.25H20ZM14 12H13.25H14ZM16 10V10.75V10ZM2 19.25C1.58579 19.25 1.25 19.5858 1.25 20C1.25 20.4142 1.58579 20.75 2 20.75L2 19.25ZM22 20.75C22.4142 20.75 22.75 20.4142 22.75 20C22.75 19.5858 22.4142 19.25 22 19.25V20.75ZM4.75 20L4.75 6H3.25L3.25 20H4.75ZM6 4.75L8 4.75V3.25L6 3.25V4.75ZM9.25 6L9.25 20H10.75V6H9.25ZM10 19.25H4V20.75H10V19.25ZM8 4.75C8.69035 4.75 9.25 5.30964 9.25 6H10.75C10.75 4.48122 9.51878 3.25 8 3.25V4.75ZM4.75 6C4.75 5.30964 5.30964 4.75 6 4.75V3.25C4.48122 3.25 3.25 4.48122 3.25 6H4.75ZM14.75 20V12H13.25V20H14.75ZM16 10.75H18V9.25H16V10.75ZM19.25 12V20H20.75V12H19.25ZM20 19.25H14V20.75H20V19.25ZM18 10.75C18.6904 10.75 19.25 11.3096 19.25 12H20.75C20.75 10.4812 19.5188 9.25 18 9.25V10.75ZM14.75 12C14.75 11.3096 15.3096 10.75 16 10.75V9.25C14.4812 9.25 13.25 10.4812 13.25 12H14.75ZM2 20.75H22V19.25L2 19.25L2 20.75Z" fill="#28303F"/>
</svg>
