<svg width="24" height="24" viewBox="0 0 24 24" fill="none" xmlns="http://www.w3.org/2000/svg">
<path d="M20 4H20.75V3.25H20V4ZM20 10V10.75H20.75V10H20ZM4 8H4.75H4ZM6 10V10.75V10ZM6 4V4.75V4ZM4 6H3.25H4ZM20 14H20.75V13.25H20V14ZM20 20V20.75H20.75V20H20ZM10 18H10.75H10ZM12 20V20.75V20ZM12 14V14.75V14ZM10 16H9.25H10ZM20.75 2C20.75 1.58579 20.4142 1.25 20 1.25C19.5858 1.25 19.25 1.58579 19.25 2H20.75ZM19.25 22C19.25 22.4142 19.5858 22.75 20 22.75C20.4142 22.75 20.75 22.4142 20.75 22H19.25ZM20 3.25H6V4.75H20V3.25ZM3.25 6V8H4.75V6H3.25ZM6 10.75H20V9.25H6V10.75ZM20.75 10V4H19.25V10H20.75ZM3.25 8C3.25 9.51878 4.48122 10.75 6 10.75V9.25C5.30964 9.25 4.75 8.69035 4.75 8H3.25ZM6 3.25C4.48122 3.25 3.25 4.48122 3.25 6H4.75C4.75 5.30964 5.30964 4.75 6 4.75V3.25ZM20 13.25H12V14.75H20V13.25ZM9.25 16V18H10.75V16H9.25ZM12 20.75H20V19.25H12V20.75ZM20.75 20V14H19.25V20H20.75ZM9.25 18C9.25 19.5188 10.4812 20.75 12 20.75V19.25C11.3096 19.25 10.75 18.6904 10.75 18H9.25ZM12 13.25C10.4812 13.25 9.25 14.4812 9.25 16H10.75C10.75 15.3096 11.3096 14.75 12 14.75V13.25ZM19.25 2V22H20.75V2H19.25Z" fill="#28303F"/>
</svg>
