<svg width="24" height="24" viewBox="0 0 24 24" fill="none" xmlns="http://www.w3.org/2000/svg">
<path d="M4 2.75H8V1.25H4V2.75ZM9.25 4V6H10.75V4H9.25ZM8 7.25H4V8.75H8V7.25ZM2.75 6V4H1.25V6H2.75ZM4 7.25C3.30964 7.25 2.75 6.69036 2.75 6H1.25C1.25 7.51878 2.48122 8.75 4 8.75V7.25ZM9.25 6C9.25 6.69036 8.69036 7.25 8 7.25V8.75C9.51878 8.75 10.75 7.51878 10.75 6H9.25ZM8 2.75C8.69036 2.75 9.25 3.30964 9.25 4H10.75C10.75 2.48122 9.51878 1.25 8 1.25V2.75ZM4 1.25C2.48122 1.25 1.25 2.48122 1.25 4H2.75C2.75 3.30964 3.30964 2.75 4 2.75V1.25ZM4 12.75H8V11.25H4V12.75ZM9.25 14V20H10.75V14H9.25ZM8 21.25H4V22.75H8V21.25ZM2.75 20V14H1.25V20H2.75ZM4 21.25C3.30964 21.25 2.75 20.6904 2.75 20H1.25C1.25 21.5188 2.48122 22.75 4 22.75V21.25ZM9.25 20C9.25 20.6904 8.69036 21.25 8 21.25V22.75C9.51878 22.75 10.75 21.5188 10.75 20H9.25ZM8 12.75C8.69036 12.75 9.25 13.3096 9.25 14H10.75C10.75 12.4812 9.51878 11.25 8 11.25V12.75ZM4 11.25C2.48122 11.25 1.25 12.4812 1.25 14H2.75C2.75 13.3096 3.30964 12.75 4 12.75V11.25ZM16 2.75H20V1.25H16V2.75ZM21.25 4V10H22.75V4H21.25ZM20 11.25H16V12.75H20V11.25ZM14.75 10V4H13.25V10H14.75ZM16 11.25C15.3096 11.25 14.75 10.6904 14.75 10H13.25C13.25 11.5188 14.4812 12.75 16 12.75V11.25ZM21.25 10C21.25 10.6904 20.6904 11.25 20 11.25V12.75C21.5188 12.75 22.75 11.5188 22.75 10H21.25ZM20 2.75C20.6904 2.75 21.25 3.30964 21.25 4H22.75C22.75 2.48122 21.5188 1.25 20 1.25V2.75ZM16 1.25C14.4812 1.25 13.25 2.48122 13.25 4H14.75C14.75 3.30964 15.3096 2.75 16 2.75V1.25ZM16 16.75H20V15.25H16V16.75ZM21.25 18V20H22.75V18H21.25ZM20 21.25H16V22.75H20V21.25ZM14.75 20V18H13.25V20H14.75ZM16 21.25C15.3096 21.25 14.75 20.6904 14.75 20H13.25C13.25 21.5188 14.4812 22.75 16 22.75V21.25ZM21.25 20C21.25 20.6904 20.6904 21.25 20 21.25V22.75C21.5188 22.75 22.75 21.5188 22.75 20H21.25ZM20 16.75C20.6904 16.75 21.25 17.3096 21.25 18H22.75C22.75 16.4812 21.5188 15.25 20 15.25V16.75ZM16 15.25C14.4812 15.25 13.25 16.4812 13.25 18H14.75C14.75 17.3096 15.3096 16.75 16 16.75V15.25Z" fill="#28303F"/>
</svg>
