<svg width="24" height="24" viewBox="0 0 24 24" fill="none" xmlns="http://www.w3.org/2000/svg">
<path d="M3 10H2.25H3ZM6 7V7.75V7ZM6 17V16.25V17ZM3 14H3.75H3ZM21 14H21.75H21ZM18 17V17.75V17ZM21 10H20.25H21ZM18 7V6.25V7ZM12.75 3C12.75 2.58579 12.4142 2.25 12 2.25C11.5858 2.25 11.25 2.58579 11.25 3H12.75ZM11.25 7C11.25 7.41421 11.5858 7.75 12 7.75C12.4142 7.75 12.75 7.41421 12.75 7H11.25ZM12.75 17C12.75 16.5858 12.4142 16.25 12 16.25C11.5858 16.25 11.25 16.5858 11.25 17H12.75ZM11.25 21C11.25 21.4142 11.5858 21.75 12 21.75C12.4142 21.75 12.75 21.4142 12.75 21H11.25ZM20.25 10V14H21.75V10H20.25ZM18 16.25L6 16.25V17.75L18 17.75V16.25ZM3.75 14L3.75 10H2.25L2.25 14H3.75ZM6 7.75L18 7.75V6.25L6 6.25V7.75ZM3.75 10C3.75 8.75736 4.75736 7.75 6 7.75V6.25C3.92893 6.25 2.25 7.92893 2.25 10H3.75ZM6 16.25C4.75736 16.25 3.75 15.2426 3.75 14H2.25C2.25 16.0711 3.92893 17.75 6 17.75V16.25ZM20.25 14C20.25 15.2426 19.2426 16.25 18 16.25V17.75C20.0711 17.75 21.75 16.0711 21.75 14H20.25ZM21.75 10C21.75 7.92893 20.0711 6.25 18 6.25V7.75C19.2426 7.75 20.25 8.75736 20.25 10H21.75ZM11.25 3V7H12.75V3H11.25ZM11.25 17V21H12.75V17H11.25Z" fill="#28303F"/>
</svg>
