<svg width="24" height="24" viewBox="0 0 24 24" fill="none" xmlns="http://www.w3.org/2000/svg">
<path d="M3 10H2.25H3ZM6 7V7.75V7ZM6 17V16.25V17ZM3 14H3.75H3ZM21 14H21.75H21ZM18 17V17.75V17ZM21 10H20.25H21ZM18 7V6.25V7ZM17 17H17.75C17.75 16.5858 17.4142 16.25 17 16.25V17ZM7 17V16.25C6.58579 16.25 6.25 16.5858 6.25 17H7ZM9 21V21.75V21ZM7 19H6.25H7ZM17 19H17.75H17ZM15 21V20.25V21ZM7 7H6.25C6.25 7.41421 6.58579 7.75 7 7.75V7ZM17 7V7.75C17.4142 7.75 17.75 7.41421 17.75 7L17 7ZM15 3V2.25V3ZM17 5L17.75 5V5H17ZM7 5L6.25 5V5H7ZM9 3V3.75V3ZM20.25 10V14H21.75V10H20.25ZM18 16.25L6 16.25V17.75L18 17.75V16.25ZM3.75 14L3.75 10H2.25L2.25 14H3.75ZM6 7.75L18 7.75V6.25L6 6.25V7.75ZM3.75 10C3.75 8.75736 4.75736 7.75 6 7.75V6.25C3.92893 6.25 2.25 7.92893 2.25 10H3.75ZM6 16.25C4.75736 16.25 3.75 15.2426 3.75 14H2.25C2.25 16.0711 3.92893 17.75 6 17.75V16.25ZM20.25 14C20.25 15.2426 19.2426 16.25 18 16.25V17.75C20.0711 17.75 21.75 16.0711 21.75 14H20.25ZM21.75 10C21.75 7.92893 20.0711 6.25 18 6.25V7.75C19.2426 7.75 20.25 8.75736 20.25 10H21.75ZM16.25 17V19H17.75V17H16.25ZM15 20.25H9V21.75H15V20.25ZM7.75 19L7.75 17H6.25L6.25 19H7.75ZM7 17.75L17 17.75V16.25L7 16.25V17.75ZM9 20.25C8.30964 20.25 7.75 19.6904 7.75 19H6.25C6.25 20.5188 7.48122 21.75 9 21.75V20.25ZM16.25 19C16.25 19.6904 15.6904 20.25 15 20.25V21.75C16.5188 21.75 17.75 20.5188 17.75 19H16.25ZM7.75 7V5H6.25V7H7.75ZM9 3.75L15 3.75V2.25L9 2.25V3.75ZM16.25 5L16.25 7L17.75 7L17.75 5L16.25 5ZM17 6.25L7 6.25V7.75L17 7.75V6.25ZM15 3.75C15.6904 3.75 16.25 4.30965 16.25 5H17.75C17.75 3.48122 16.5188 2.25 15 2.25V3.75ZM7.75 5C7.75 4.30964 8.30964 3.75 9 3.75V2.25C7.48122 2.25 6.25 3.48122 6.25 5L7.75 5Z" fill="#28303F"/>
</svg>
