<svg width="24" height="24" viewBox="0 0 24 24" fill="none" xmlns="http://www.w3.org/2000/svg">
<path d="M22 6H22.75H22ZM18 2V1.25V2ZM18 22V22.75V22ZM22 18H21.25H22ZM2 18H2.75H2ZM6 22V21.25V22ZM2 6H1.25H2ZM6 2V2.75V2ZM2 7.25C1.58579 7.25 1.25 7.58579 1.25 8C1.25 8.41421 1.58579 8.75 2 8.75L2 7.25ZM22 8.75C22.4142 8.75 22.75 8.41422 22.75 8C22.75 7.58579 22.4142 7.25 22 7.25V8.75ZM12.75 8C12.75 7.58579 12.4142 7.25 12 7.25C11.5858 7.25 11.25 7.58579 11.25 8H12.75ZM11.25 22C11.25 22.4142 11.5858 22.75 12 22.75C12.4142 22.75 12.75 22.4142 12.75 22H11.25ZM1.25 6L1.25 18H2.75L2.75 6H1.25ZM6 22.75H18V21.25H6V22.75ZM22.75 18V6H21.25V18H22.75ZM18 1.25L6 1.25V2.75L18 2.75V1.25ZM22.75 6C22.75 3.37665 20.6234 1.25 18 1.25V2.75C19.7949 2.75 21.25 4.20507 21.25 6H22.75ZM18 22.75C20.6234 22.75 22.75 20.6234 22.75 18H21.25C21.25 19.7949 19.7949 21.25 18 21.25V22.75ZM1.25 18C1.25 20.6234 3.37665 22.75 6 22.75V21.25C4.20508 21.25 2.75 19.7949 2.75 18H1.25ZM2.75 6C2.75 4.20508 4.20507 2.75 6 2.75V1.25C3.37665 1.25 1.25 3.37665 1.25 6H2.75ZM2 8.75L22 8.75V7.25L2 7.25L2 8.75ZM11.25 8V22H12.75V8H11.25Z" fill="#28303F"/>
</svg>
