<svg width="24" height="24" viewBox="0 0 24 24" fill="none" xmlns="http://www.w3.org/2000/svg">
<path d="M22 18H22.75H22ZM18 22V21.25V22ZM18 2V1.25V2ZM22 6H21.25H22ZM2 6H2.75H2ZM6 2V2.75V2ZM2 18H1.25H2ZM6 22V22.75V22ZM2 15.25C1.58579 15.25 1.25 15.5858 1.25 16C1.25 16.4142 1.58579 16.75 2 16.75L2 15.25ZM22 16.75C22.4142 16.75 22.75 16.4142 22.75 16C22.75 15.5858 22.4142 15.25 22 15.25V16.75ZM2.75 18L2.75 6H1.25L1.25 18H2.75ZM6 2.75L18 2.75V1.25L6 1.25V2.75ZM21.25 6V18H22.75V6H21.25ZM18 21.25H6V22.75H18V21.25ZM21.25 18C21.25 19.7949 19.7949 21.25 18 21.25V22.75C20.6234 22.75 22.75 20.6234 22.75 18H21.25ZM18 2.75C19.7949 2.75 21.25 4.20508 21.25 6H22.75C22.75 3.37665 20.6234 1.25 18 1.25V2.75ZM2.75 6C2.75 4.20507 4.20508 2.75 6 2.75V1.25C3.37665 1.25 1.25 3.37665 1.25 6H2.75ZM1.25 18C1.25 20.6234 3.37665 22.75 6 22.75V21.25C4.20507 21.25 2.75 19.7949 2.75 18H1.25ZM2 16.75L22 16.75V15.25L2 15.25L2 16.75Z" fill="#28303F"/>
</svg>
