<svg width="24" height="24" viewBox="0 0 24 24" fill="none" xmlns="http://www.w3.org/2000/svg">
<path d="M16.75 2C16.75 1.58579 16.4142 1.25 16 1.25C15.5858 1.25 15.25 1.58579 15.25 2H16.75ZM15.25 22C15.25 22.4142 15.5858 22.75 16 22.75C16.4142 22.75 16.75 22.4142 16.75 22H15.25ZM18 1.25H6V2.75H18V1.25ZM1.25 6V18H2.75V6H1.25ZM6 22.75H18V21.25H6V22.75ZM22.75 18V6H21.25V18H22.75ZM18 22.75C20.6234 22.75 22.75 20.6234 22.75 18H21.25C21.25 19.7949 19.7949 21.25 18 21.25V22.75ZM1.25 18C1.25 20.6234 3.37665 22.75 6 22.75V21.25C4.20507 21.25 2.75 19.7949 2.75 18H1.25ZM6 1.25C3.37665 1.25 1.25 3.37665 1.25 6H2.75C2.75 4.20507 4.20507 2.75 6 2.75V1.25ZM18 2.75C19.7949 2.75 21.25 4.20507 21.25 6H22.75C22.75 3.37665 20.6234 1.25 18 1.25V2.75ZM15.25 2V22H16.75V2H15.25Z" fill="#28303F"/>
</svg>
