<svg width="24" height="24" viewBox="0 0 24 24" fill="none" xmlns="http://www.w3.org/2000/svg">
<path d="M2 10H1.25H2ZM5 7V6.25V7ZM5 17V16.25V17ZM2 14H2.75H2ZM18 14H18.75H18ZM15 17V17.75V17ZM18 10H17.25H18ZM15 7V7.75V7ZM22.75 5C22.75 4.58579 22.4142 4.25 22 4.25C21.5858 4.25 21.25 4.58579 21.25 5H22.75ZM21.25 19C21.25 19.4142 21.5858 19.75 22 19.75C22.4142 19.75 22.75 19.4142 22.75 19H21.25ZM17.25 10V14H18.75V10H17.25ZM15 16.25L5 16.25V17.75L15 17.75V16.25ZM2.75 14L2.75 10H1.25L1.25 14H2.75ZM5 7.75L15 7.75V6.25L5 6.25V7.75ZM2.75 10C2.75 8.75736 3.75736 7.75 5 7.75V6.25C2.92893 6.25 1.25 7.92893 1.25 10H2.75ZM5 16.25C3.75736 16.25 2.75 15.2426 2.75 14H1.25C1.25 16.0711 2.92893 17.75 5 17.75V16.25ZM17.25 14C17.25 15.2426 16.2426 16.25 15 16.25V17.75C17.0711 17.75 18.75 16.0711 18.75 14H17.25ZM18.75 10C18.75 7.92893 17.0711 6.25 15 6.25V7.75C16.2426 7.75 17.25 8.75736 17.25 10H18.75ZM21.25 5V19H22.75V5H21.25Z" fill="#28303F"/>
</svg>
