<svg width="24" height="24" viewBox="0 0 24 24" fill="none" xmlns="http://www.w3.org/2000/svg">
<path d="M16.3114 2.97457L16.8413 3.50529L16.3114 2.97457ZM21.0254 7.68861L20.4947 7.15867L21.0254 7.68861ZM7.68861 2.97457L7.15867 3.50529L7.68861 2.97457ZM2.97457 7.68861L3.50529 7.15867L2.97457 7.68861ZM2.97457 16.3114L3.50529 16.8413L2.97457 16.3114ZM7.68861 21.0254L7.15867 20.4947L7.68861 21.0254ZM21.0254 16.3114L20.4947 16.8413L21.0254 16.3114ZM16.3114 21.0254L16.8413 20.4947L16.3114 21.0254ZM7.91667 5.33333C7.91667 6.76007 6.76007 7.91667 5.33333 7.91667V9.41667C7.5885 9.41667 9.41667 7.5885 9.41667 5.33333H7.91667ZM2.75 5.33333C2.75 3.9066 3.9066 2.75 5.33333 2.75V1.25C3.07817 1.25 1.25 3.07817 1.25 5.33333H2.75ZM18.6667 7.91667C17.2399 7.91667 16.0833 6.76007 16.0833 5.33333H14.5833C14.5833 7.5885 16.4115 9.41667 18.6667 9.41667V7.91667ZM18.6667 2.75C20.0934 2.75 21.25 3.9066 21.25 5.33333H22.75C22.75 3.07817 20.9218 1.25 18.6667 1.25V2.75ZM5.33333 21.25C3.9066 21.25 2.75 20.0934 2.75 18.6667H1.25C1.25 20.9218 3.07817 22.75 5.33333 22.75V21.25ZM5.33333 16.0833C6.76007 16.0833 7.91667 17.2399 7.91667 18.6667H9.41667C9.41667 16.4115 7.5885 14.5833 5.33333 14.5833V16.0833ZM21.25 18.6667C21.25 20.0934 20.0934 21.25 18.6667 21.25V22.75C20.9218 22.75 22.75 20.9218 22.75 18.6667H21.25ZM16.0833 18.6667C16.0833 17.2399 17.2399 16.0833 18.6667 16.0833V14.5833C16.4115 14.5833 14.5833 16.4115 14.5833 18.6667H16.0833ZM12 2.75C13.4294 2.75 14.7811 3.0737 15.9876 3.65109L16.6351 2.29805C15.2308 1.62598 13.6582 1.25 12 1.25V2.75ZM16.0833 5.33333C16.0833 4.61908 16.3722 3.97371 16.8413 3.50529L15.7814 2.44385C15.0421 3.18213 14.5833 4.20487 14.5833 5.33333H16.0833ZM16.8413 3.50529C17.3095 3.03777 17.9538 2.75 18.6667 2.75V1.25C17.5404 1.25 16.5194 1.70698 15.7814 2.44385L16.8413 3.50529ZM20.3489 8.01237C20.9263 9.2189 21.25 10.5706 21.25 12H22.75C22.75 10.3418 22.374 8.76923 21.702 7.36486L20.3489 8.01237ZM21.25 5.33333C21.25 6.04623 20.9622 6.69047 20.4947 7.15867L21.5562 8.21855C22.293 7.4806 22.75 6.45962 22.75 5.33333H21.25ZM20.4947 7.15867C20.0263 7.62778 19.3809 7.91667 18.6667 7.91667V9.41667C19.7951 9.41667 20.8179 8.95792 21.5562 8.21855L20.4947 7.15867ZM8.01237 3.65109C9.2189 3.0737 10.5706 2.75 12 2.75V1.25C10.3418 1.25 8.76923 1.62598 7.36486 2.29805L8.01237 3.65109ZM5.33333 2.75C6.04623 2.75 6.69047 3.03777 7.15867 3.50529L8.21855 2.44385C7.4806 1.70698 6.45962 1.25 5.33333 1.25V2.75ZM7.15867 3.50529C7.62778 3.97371 7.91667 4.61908 7.91667 5.33333H9.41667C9.41667 4.20487 8.95792 3.18213 8.21855 2.44385L7.15867 3.50529ZM2.75 12C2.75 10.5706 3.0737 9.2189 3.65109 8.01237L2.29805 7.36486C1.62598 8.76923 1.25 10.3418 1.25 12H2.75ZM5.33333 7.91667C4.61908 7.91667 3.97371 7.62778 3.50529 7.15867L2.44385 8.21855C3.18213 8.95792 4.20487 9.41667 5.33333 9.41667V7.91667ZM3.50529 7.15867C3.03777 6.69047 2.75 6.04623 2.75 5.33333H1.25C1.25 6.45962 1.70698 7.4806 2.44385 8.21855L3.50529 7.15867ZM2.75 18.6667C2.75 17.9538 3.03777 17.3095 3.50529 16.8413L2.44385 15.7814C1.70698 16.5194 1.25 17.5404 1.25 18.6667H2.75ZM3.50529 16.8413C3.97371 16.3722 4.61908 16.0833 5.33333 16.0833V14.5833C4.20487 14.5833 3.18213 15.0421 2.44385 15.7814L3.50529 16.8413ZM3.65109 15.9876C3.0737 14.7811 2.75 13.4294 2.75 12H1.25C1.25 13.6582 1.62598 15.2308 2.29805 16.6351L3.65109 15.9876ZM12 21.25C10.5706 21.25 9.2189 20.9263 8.01237 20.3489L7.36486 21.702C8.76923 22.374 10.3418 22.75 12 22.75V21.25ZM7.91667 18.6667C7.91667 19.3809 7.62778 20.0263 7.15867 20.4947L8.21855 21.5562C8.95792 20.8179 9.41667 19.7951 9.41667 18.6667H7.91667ZM7.15867 20.4947C6.69047 20.9622 6.04623 21.25 5.33333 21.25V22.75C6.45962 22.75 7.4806 22.293 8.21855 21.5562L7.15867 20.4947ZM18.6667 16.0833C19.3809 16.0833 20.0263 16.3722 20.4947 16.8413L21.5562 15.7814C20.8179 15.0421 19.7951 14.5833 18.6667 14.5833V16.0833ZM20.4947 16.8413C20.9622 17.3095 21.25 17.9538 21.25 18.6667H22.75C22.75 17.5404 22.293 16.5194 21.5562 15.7814L20.4947 16.8413ZM21.25 12C21.25 13.4294 20.9263 14.7811 20.3489 15.9876L21.702 16.6351C22.374 15.2308 22.75 13.6582 22.75 12H21.25ZM15.9876 20.3489C14.7811 20.9263 13.4294 21.25 12 21.25V22.75C13.6582 22.75 15.2308 22.374 16.6351 21.702L15.9876 20.3489ZM18.6667 21.25C17.9538 21.25 17.3095 20.9622 16.8413 20.4947L15.7814 21.5562C16.5194 22.293 17.5404 22.75 18.6667 22.75V21.25ZM16.8413 20.4947C16.3722 20.0263 16.0833 19.3809 16.0833 18.6667H14.5833C14.5833 19.7951 15.0421 20.8179 15.7814 21.5562L16.8413 20.4947Z" fill="#28303F"/>
</svg>
