<svg width="24" height="24" viewBox="0 0 24 24" fill="none" xmlns="http://www.w3.org/2000/svg">
<path d="M7 12.75C7.41421 12.75 7.75 12.4142 7.75 12C7.75 11.5858 7.41421 11.25 7 11.25V12.75ZM3 11.25C2.58579 11.25 2.25 11.5858 2.25 12C2.25 12.4142 2.58579 12.75 3 12.75V11.25ZM21 12.75C21.4142 12.75 21.75 12.4142 21.75 12C21.75 11.5858 21.4142 11.25 21 11.25V12.75ZM17 11.25C16.5858 11.25 16.25 11.5858 16.25 12C16.25 12.4142 16.5858 12.75 17 12.75V11.25ZM10 3.75H14V2.25H10V3.75ZM16.25 6V18H17.75V6H16.25ZM14 20.25H10V21.75H14V20.25ZM7.75 18V6H6.25V18H7.75ZM10 20.25C8.75736 20.25 7.75 19.2426 7.75 18H6.25C6.25 20.0711 7.92893 21.75 10 21.75V20.25ZM16.25 18C16.25 19.2426 15.2426 20.25 14 20.25V21.75C16.0711 21.75 17.75 20.0711 17.75 18H16.25ZM14 3.75C15.2426 3.75 16.25 4.75736 16.25 6H17.75C17.75 3.92893 16.0711 2.25 14 2.25V3.75ZM10 2.25C7.92893 2.25 6.25 3.92893 6.25 6H7.75C7.75 4.75736 8.75736 3.75 10 3.75V2.25ZM7 11.25H3V12.75H7V11.25ZM21 11.25H17V12.75H21V11.25Z" fill="#28303F"/>
</svg>
