<svg width="24" height="24" viewBox="0 0 24 24" fill="none" xmlns="http://www.w3.org/2000/svg">
<path d="M3.75 5C3.75 4.58579 3.41421 4.25 3 4.25C2.58579 4.25 2.25 4.58579 2.25 5H3.75ZM2.25 19C2.25 19.4142 2.58579 19.75 3 19.75C3.41421 19.75 3.75 19.4142 3.75 19H2.25ZM21.75 5C21.75 4.58579 21.4142 4.25 21 4.25C20.5858 4.25 20.25 4.58579 20.25 5H21.75ZM20.25 19C20.25 19.4142 20.5858 19.75 21 19.75C21.4142 19.75 21.75 19.4142 21.75 19H20.25ZM10 3.75H14V2.25H10V3.75ZM16.25 6V18H17.75V6H16.25ZM14 20.25H10V21.75H14V20.25ZM7.75 18V6H6.25V18H7.75ZM10 20.25C8.75736 20.25 7.75 19.2426 7.75 18H6.25C6.25 20.0711 7.92893 21.75 10 21.75V20.25ZM16.25 18C16.25 19.2426 15.2426 20.25 14 20.25V21.75C16.0711 21.75 17.75 20.0711 17.75 18H16.25ZM14 3.75C15.2426 3.75 16.25 4.75736 16.25 6H17.75C17.75 3.92893 16.0711 2.25 14 2.25V3.75ZM10 2.25C7.92893 2.25 6.25 3.92893 6.25 6H7.75C7.75 4.75736 8.75736 3.75 10 3.75V2.25ZM2.25 5V19H3.75V5H2.25ZM20.25 5V19H21.75V5H20.25Z" fill="#28303F"/>
</svg>
