<svg width="24" height="24" viewBox="0 0 24 24" fill="none" xmlns="http://www.w3.org/2000/svg">
<path d="M17 7V6.25C16.5858 6.25 16.25 6.58579 16.25 7H17ZM17 17H16.25C16.25 17.4142 16.5858 17.75 17 17.75V17ZM7 17V17.75C7.41421 17.75 7.75 17.4142 7.75 17H7ZM7 7H7.75C7.75 6.58579 7.41421 6.25 7 6.25V7ZM3 9H3.75H3ZM5 7V6.25V7ZM5 17L5 17.75H5V17ZM3 15H2.25H3ZM10 3.75H14V2.25H10V3.75ZM16.25 6V18H17.75V6H16.25ZM14 20.25H10V21.75H14V20.25ZM7.75 18V6H6.25V18H7.75ZM10 20.25C8.75736 20.25 7.75 19.2426 7.75 18H6.25C6.25 20.0711 7.92893 21.75 10 21.75V20.25ZM16.25 18C16.25 19.2426 15.2426 20.25 14 20.25V21.75C16.0711 21.75 17.75 20.0711 17.75 18H16.25ZM14 3.75C15.2426 3.75 16.25 4.75736 16.25 6H17.75C17.75 3.92893 16.0711 2.25 14 2.25V3.75ZM10 2.25C7.92893 2.25 6.25 3.92893 6.25 6H7.75C7.75 4.75736 8.75736 3.75 10 3.75V2.25ZM17 7.75H19V6.25H17V7.75ZM20.25 9V15H21.75V9H20.25ZM19 16.25H17V17.75H19V16.25ZM17.75 17V7H16.25V17H17.75ZM20.25 15C20.25 15.6904 19.6904 16.25 19 16.25V17.75C20.5188 17.75 21.75 16.5188 21.75 15H20.25ZM19 7.75C19.6904 7.75 20.25 8.30964 20.25 9H21.75C21.75 7.48122 20.5188 6.25 19 6.25V7.75ZM7 16.25H5V17.75H7V16.25ZM3.75 15L3.75 9H2.25L2.25 15H3.75ZM5 7.75L7 7.75V6.25L5 6.25V7.75ZM6.25 7L6.25 17H7.75L7.75 7H6.25ZM3.75 9C3.75 8.30964 4.30964 7.75 5 7.75V6.25C3.48122 6.25 2.25 7.48122 2.25 9H3.75ZM5 16.25C4.30964 16.25 3.75 15.6904 3.75 15H2.25C2.25 16.5188 3.48122 17.75 5 17.75L5 16.25Z" fill="#28303F"/>
</svg>
