<svg width="24" height="24" viewBox="0 0 24 24" fill="none" xmlns="http://www.w3.org/2000/svg">
<path d="M22 10H22.75H22ZM19 7V6.25V7ZM19 17V16.25V17ZM22 14H21.25H22ZM6 14H6.75H6ZM9 17V17.75V17ZM6 10H5.25H6ZM9 7V7.75V7ZM2.75 5C2.75 4.58579 2.41421 4.25 2 4.25C1.58579 4.25 1.25 4.58579 1.25 5H2.75ZM1.25 19C1.25 19.4142 1.58579 19.75 2 19.75C2.41421 19.75 2.75 19.4142 2.75 19H1.25ZM5.25 10L5.25 14H6.75L6.75 10H5.25ZM9 17.75L19 17.75V16.25L9 16.25V17.75ZM22.75 14V10H21.25V14H22.75ZM19 6.25L9 6.25V7.75L19 7.75V6.25ZM22.75 10C22.75 7.92893 21.0711 6.25 19 6.25V7.75C20.2426 7.75 21.25 8.75736 21.25 10H22.75ZM19 17.75C21.0711 17.75 22.75 16.0711 22.75 14H21.25C21.25 15.2426 20.2426 16.25 19 16.25V17.75ZM5.25 14C5.25 16.0711 6.92893 17.75 9 17.75V16.25C7.75736 16.25 6.75 15.2426 6.75 14H5.25ZM6.75 10C6.75 8.75736 7.75736 7.75 9 7.75V6.25C6.92893 6.25 5.25 7.92893 5.25 10H6.75ZM1.25 5V19H2.75V5H1.25Z" fill="#28303F"/>
</svg>
