<svg width="24" height="24" viewBox="0 0 24 24" fill="none" xmlns="http://www.w3.org/2000/svg">
<path opacity="0.4" fill-rule="evenodd" clip-rule="evenodd" d="M8 4.25C7.58579 4.25 7.25 4.58579 7.25 5L7.25 13.1893L6.53033 12.4697C6.23744 12.1768 5.76256 12.1768 5.46967 12.4697C5.17678 12.7626 5.17678 13.2374 5.46967 13.5303L7.46967 15.5303C7.76256 15.8232 8.23744 15.8232 8.53033 15.5303L10.5303 13.5303C10.8232 13.2374 10.8232 12.7626 10.5303 12.4697C10.2374 12.1768 9.76256 12.1768 9.46967 12.4697L8.75 13.1893L8.75 5C8.75 4.58579 8.41421 4.25 8 4.25Z" fill="#28303F"/>
<path opacity="0.4" fill-rule="evenodd" clip-rule="evenodd" d="M16 4.25C15.5858 4.25 15.25 4.58579 15.25 5L15.25 13.1893L14.5303 12.4697C14.2374 12.1768 13.7626 12.1768 13.4697 12.4697C13.1768 12.7626 13.1768 13.2374 13.4697 13.5303L15.4697 15.5303C15.7626 15.8232 16.2374 15.8232 16.5303 15.5303L18.5303 13.5303C18.8232 13.2374 18.8232 12.7626 18.5303 12.4697C18.2374 12.1768 17.7626 12.1768 17.4697 12.4697L16.75 13.1893L16.75 5C16.75 4.58579 16.4142 4.25 16 4.25Z" fill="#28303F"/>
<path fill-rule="evenodd" clip-rule="evenodd" d="M4.25 19C4.25 18.5858 4.58579 18.25 5 18.25H19C19.4142 18.25 19.75 18.5858 19.75 19C19.75 19.4142 19.4142 19.75 19 19.75H5C4.58579 19.75 4.25 19.4142 4.25 19Z" fill="#28303F"/>
</svg>
