<svg width="24" height="24" viewBox="0 0 24 24" fill="none" xmlns="http://www.w3.org/2000/svg">
<path fill-rule="evenodd" clip-rule="evenodd" d="M11.25 6C11.25 5.58579 11.5858 5.25 12 5.25H18C18.4142 5.25 18.75 5.58579 18.75 6C18.75 6.41421 18.4142 6.75 18 6.75H12C11.5858 6.75 11.25 6.41421 11.25 6Z" fill="#28303F"/>
<path opacity="0.4" fill-rule="evenodd" clip-rule="evenodd" d="M5.25 10C5.25 9.58579 5.58579 9.25 6 9.25H18C18.4142 9.25 18.75 9.58579 18.75 10C18.75 10.4142 18.4142 10.75 18 10.75H6C5.58579 10.75 5.25 10.4142 5.25 10Z" fill="#28303F"/>
<path fill-rule="evenodd" clip-rule="evenodd" d="M11.25 14C11.25 13.5858 11.5858 13.25 12 13.25H18C18.4142 13.25 18.75 13.5858 18.75 14C18.75 14.4142 18.4142 14.75 18 14.75H12C11.5858 14.75 11.25 14.4142 11.25 14Z" fill="#28303F"/>
<path opacity="0.4" fill-rule="evenodd" clip-rule="evenodd" d="M5.25 18C5.25 17.5858 5.58579 17.25 6 17.25H18C18.4142 17.25 18.75 17.5858 18.75 18C18.75 18.4142 18.4142 18.75 18 18.75H6C5.58579 18.75 5.25 18.4142 5.25 18Z" fill="#28303F"/>
</svg>
