<svg width="24" height="24" viewBox="0 0 24 24" fill="none" xmlns="http://www.w3.org/2000/svg">
<path opacity="0.4" fill-rule="evenodd" clip-rule="evenodd" d="M8 19.75C7.58579 19.75 7.25 19.4142 7.25 19L7.25 10.8107L6.53033 11.5303C6.23744 11.8232 5.76256 11.8232 5.46967 11.5303C5.17678 11.2374 5.17678 10.7626 5.46967 10.4697L7.46967 8.46967C7.76256 8.17678 8.23744 8.17678 8.53033 8.46967L10.5303 10.4697C10.8232 10.7626 10.8232 11.2374 10.5303 11.5303C10.2374 11.8232 9.76256 11.8232 9.46967 11.5303L8.75 10.8107L8.75 19C8.75 19.4142 8.41421 19.75 8 19.75Z" fill="#28303F"/>
<path opacity="0.4" fill-rule="evenodd" clip-rule="evenodd" d="M16 19.75C15.5858 19.75 15.25 19.4142 15.25 19L15.25 10.8107L14.5303 11.5303C14.2374 11.8232 13.7626 11.8232 13.4697 11.5303C13.1768 11.2374 13.1768 10.7626 13.4697 10.4697L15.4697 8.46967C15.7626 8.17678 16.2374 8.17678 16.5303 8.46967L18.5303 10.4697C18.8232 10.7626 18.8232 11.2374 18.5303 11.5303C18.2374 11.8232 17.7626 11.8232 17.4697 11.5303L16.75 10.8107L16.75 19C16.75 19.4142 16.4142 19.75 16 19.75Z" fill="#28303F"/>
<path fill-rule="evenodd" clip-rule="evenodd" d="M4.25 5C4.25 5.41421 4.58579 5.75 5 5.75H19C19.4142 5.75 19.75 5.41421 19.75 5C19.75 4.58579 19.4142 4.25 19 4.25H5C4.58579 4.25 4.25 4.58579 4.25 5Z" fill="#28303F"/>
</svg>
