<svg width="24" height="24" viewBox="0 0 24 24" fill="none" xmlns="http://www.w3.org/2000/svg">
<path opacity="0.4" fill-rule="evenodd" clip-rule="evenodd" d="M6.25 5C6.25 4.58579 6.58579 4.25 7 4.25H11.5C13.8472 4.25 15.75 6.15279 15.75 8.5C15.75 9.61925 15.3173 10.6374 14.6102 11.3965C16.419 11.8846 17.75 13.5369 17.75 15.5C17.75 17.8472 15.8472 19.75 13.5 19.75H7C6.58579 19.75 6.25 19.4142 6.25 19V5ZM7.75 12.75V18.25H13.5C15.0188 18.25 16.25 17.0188 16.25 15.5C16.25 13.9812 15.0188 12.75 13.5 12.75H7.75ZM7.75 11.25H11.5C13.0188 11.25 14.25 10.0188 14.25 8.5C14.25 6.98122 13.0188 5.75 11.5 5.75H7.75V11.25Z" fill="#28303F"/>
</svg>
