<svg width="24" height="24" viewBox="0 0 24 24" fill="none" xmlns="http://www.w3.org/2000/svg">
<path opacity="0.4" d="M3 6C3 3.79086 4.79086 2 7 2H14L21 9V18C21 20.2091 19.2091 22 17 22H7C4.79086 22 3 20.2091 3 18V6Z" fill="#28303F"/>
<path d="M21 9L14 2V5C14 7.20914 15.7909 9 18 9H21Z" fill="#28303F"/>
<path fill-rule="evenodd" clip-rule="evenodd" d="M7.25 11C7.25 10.5858 7.58579 10.25 8 10.25L12 10.25C12.4142 10.25 12.75 10.5858 12.75 11C12.75 11.4142 12.4142 11.75 12 11.75L8 11.75C7.58579 11.75 7.25 11.4142 7.25 11Z" fill="#28303F"/>
<path fill-rule="evenodd" clip-rule="evenodd" d="M7.25 16C7.25 15.5858 7.58579 15.25 8 15.25H16C16.4142 15.25 16.75 15.5858 16.75 16C16.75 16.4142 16.4142 16.75 16 16.75H8C7.58579 16.75 7.25 16.4142 7.25 16Z" fill="#28303F"/>
</svg>
