<svg width="24" height="24" viewBox="0 0 24 24" fill="none" xmlns="http://www.w3.org/2000/svg">
<path opacity="0.4" d="M2 6C2 3.79086 3.79086 2 6 2H18C20.2091 2 22 3.79086 22 6V18C22 20.2091 20.2091 22 18 22H6C3.79086 22 2 20.2091 2 18V6Z" fill="#28303F"/>
<path fill-rule="evenodd" clip-rule="evenodd" d="M12 5.25C12.3027 5.25 12.5758 5.43205 12.6923 5.71154L17.6923 17.7115C17.8516 18.0939 17.6708 18.533 17.2884 18.6923C16.9061 18.8516 16.467 18.6708 16.3076 18.2885L14.8333 14.75H9.16662L7.69226 18.2885C7.53295 18.6708 7.09384 18.8516 6.71149 18.6923C6.32914 18.533 6.14833 18.0939 6.30764 17.7115L11.3076 5.71154C11.4241 5.43205 11.6972 5.25 12 5.25ZM9.79162 13.25H14.2083L12 7.95L9.79162 13.25Z" fill="#28303F"/>
</svg>
