<svg width="24" height="24" viewBox="0 0 24 24" fill="none" xmlns="http://www.w3.org/2000/svg">
<path opacity="0.4" fill-rule="evenodd" clip-rule="evenodd" d="M6.99995 3.25C7.30273 3.25 7.57581 3.43205 7.69226 3.71154L12.6923 15.7115C12.8516 16.0939 12.6708 16.533 12.2884 16.6923C11.9061 16.8516 11.467 16.6708 11.3076 16.2885L9.83329 12.75H4.16662L2.69226 16.2885C2.53295 16.6708 2.09384 16.8516 1.71149 16.6923C1.32914 16.533 1.14833 16.0939 1.30764 15.7115L6.30764 3.71154C6.4241 3.43205 6.69718 3.25 6.99995 3.25ZM4.79162 11.25H9.20828L6.99995 5.95L4.79162 11.25Z" fill="#28303F"/>
<path fill-rule="evenodd" clip-rule="evenodd" d="M18 8.75C16.2051 8.75 14.75 10.2051 14.75 12C14.75 13.7949 16.2051 15.25 18 15.25C19.7949 15.25 21.25 13.7949 21.25 12C21.25 10.2051 19.7949 8.75 18 8.75ZM21.25 8.53588C20.4003 7.73843 19.2572 7.25 18 7.25C15.3766 7.25 13.25 9.37665 13.25 12C13.25 14.6234 15.3766 16.75 18 16.75C19.2572 16.75 20.4003 16.2616 21.25 15.4641V16C21.25 16.4142 21.5858 16.75 22 16.75C22.4142 16.75 22.75 16.4142 22.75 16V8C22.75 7.58579 22.4142 7.25 22 7.25C21.5858 7.25 21.25 7.58579 21.25 8V8.53588Z" fill="#28303F"/>
</svg>
