<svg width="24" height="24" viewBox="0 0 24 24" fill="none" xmlns="http://www.w3.org/2000/svg">
<path fill-rule="evenodd" clip-rule="evenodd" d="M5.46967 18.5303C5.76256 18.8232 6.23744 18.8232 6.53033 18.5303L8.53033 16.5303C8.82322 16.2374 8.82322 15.7626 8.53033 15.4697C8.23744 15.1768 7.76256 15.1768 7.46967 15.4697L6.75 16.1893L6.75 7.81066L7.46967 8.53033C7.76256 8.82322 8.23744 8.82322 8.53033 8.53033C8.82322 8.23744 8.82322 7.76256 8.53033 7.46967L6.53033 5.46967C6.38968 5.32902 6.19891 5.25 6 5.25C5.80109 5.25 5.61032 5.32902 5.46967 5.46967L3.46967 7.46967C3.17678 7.76256 3.17678 8.23744 3.46967 8.53033C3.76256 8.82322 4.23744 8.82322 4.53033 8.53033L5.25 7.81066L5.25 16.1893L4.53033 15.4697C4.23744 15.1768 3.76256 15.1768 3.46967 15.4697C3.17678 15.7626 3.17678 16.2374 3.46967 16.5303L5.46967 18.5303Z" fill="#28303F"/>
<path opacity="0.4" fill-rule="evenodd" clip-rule="evenodd" d="M11.25 7C11.25 6.58579 11.5858 6.25 12 6.25H20C20.4142 6.25 20.75 6.58579 20.75 7C20.75 7.41421 20.4142 7.75 20 7.75H12C11.5858 7.75 11.25 7.41421 11.25 7Z" fill="#28303F"/>
<path opacity="0.4" fill-rule="evenodd" clip-rule="evenodd" d="M11.25 12C11.25 11.5858 11.5858 11.25 12 11.25H20C20.4142 11.25 20.75 11.5858 20.75 12C20.75 12.4142 20.4142 12.75 20 12.75H12C11.5858 12.75 11.25 12.4142 11.25 12Z" fill="#28303F"/>
<path opacity="0.4" fill-rule="evenodd" clip-rule="evenodd" d="M11.25 17C11.25 16.5858 11.5858 16.25 12 16.25H20C20.4142 16.25 20.75 16.5858 20.75 17C20.75 17.4142 20.4142 17.75 20 17.75H12C11.5858 17.75 11.25 17.4142 11.25 17Z" fill="#28303F"/>
</svg>
