<svg width="24" height="24" viewBox="0 0 24 24" fill="none" xmlns="http://www.w3.org/2000/svg">
<path d="M8.5 7H6.5C5.39543 7 4.5 7.89543 4.5 9V11C4.5 12.1046 5.39543 13 6.5 13H7.5L6.47082 15.0584C6.02479 15.9504 6.67347 17 7.67082 17C8.179 17 8.64356 16.7129 8.87082 16.2584L10.2889 13.4223C10.4277 13.1446 10.5 12.8384 10.5 12.5279V9C10.5 7.89543 9.60457 7 8.5 7Z" fill="#28303F"/>
<path opacity="0.4" d="M17.5 7H15.5C14.3954 7 13.5 7.89543 13.5 9V11C13.5 12.1046 14.3954 13 15.5 13H16.5L15.4708 15.0584C15.0248 15.9504 15.6735 17 16.6708 17C17.179 17 17.6436 16.7129 17.8708 16.2584L19.2889 13.4223C19.4277 13.1446 19.5 12.8384 19.5 12.5279V9C19.5 7.89543 18.6046 7 17.5 7Z" fill="#28303F"/>
</svg>
