<svg width="24" height="24" viewBox="0 0 24 24" fill="none" xmlns="http://www.w3.org/2000/svg">
<path opacity="0.4" fill-rule="evenodd" clip-rule="evenodd" d="M11.9999 7.25C12.3 7.25 12.5711 7.4288 12.6893 7.70456L15.6893 14.7046C15.8525 15.0853 15.6761 15.5262 15.2954 15.6894C14.9147 15.8525 14.4738 15.6762 14.3106 15.2954L13.6483 13.75H10.3516L9.68931 15.2954C9.52614 15.6762 9.08523 15.8525 8.70451 15.6894C8.32379 15.5262 8.14742 15.0853 8.31059 14.7046L11.3106 7.70456C11.4288 7.4288 11.6999 7.25 11.9999 7.25ZM10.9945 12.25H13.0054L11.9999 9.90394L10.9945 12.25Z" fill="#28303F"/>
<path opacity="0.4" fill-rule="evenodd" clip-rule="evenodd" d="M6.25 4.5C6.25 4.08579 6.58579 3.75 7 3.75H17C17.4142 3.75 17.75 4.08579 17.75 4.5C17.75 4.91421 17.4142 5.25 17 5.25H7C6.58579 5.25 6.25 4.91421 6.25 4.5ZM4.5 6.25C4.91421 6.25 5.25 6.58579 5.25 7V17C5.25 17.4142 4.91421 17.75 4.5 17.75C4.08579 17.75 3.75 17.4142 3.75 17V7C3.75 6.58579 4.08579 6.25 4.5 6.25ZM19.5 6.25C19.9142 6.25 20.25 6.58579 20.25 7V17C20.25 17.4142 19.9142 17.75 19.5 17.75C19.0858 17.75 18.75 17.4142 18.75 17V7C18.75 6.58579 19.0858 6.25 19.5 6.25ZM6.25 19.5C6.25 19.0858 6.58579 18.75 7 18.75H17C17.4142 18.75 17.75 19.0858 17.75 19.5C17.75 19.9142 17.4142 20.25 17 20.25H7C6.58579 20.25 6.25 19.9142 6.25 19.5Z" fill="#28303F"/>
<path d="M2 6V3C2 2.44772 2.44772 2 3 2H6C6.55228 2 7 2.44772 7 3V6C7 6.55228 6.55228 7 6 7H3C2.44772 7 2 6.55228 2 6Z" fill="#28303F"/>
<path d="M17 6V3C17 2.44772 17.4477 2 18 2H21C21.5523 2 22 2.44772 22 3V6C22 6.55228 21.5523 7 21 7H18C17.4477 7 17 6.55228 17 6Z" fill="#28303F"/>
<path d="M17 21V18C17 17.4477 17.4477 17 18 17H21C21.5523 17 22 17.4477 22 18V21C22 21.5523 21.5523 22 21 22H18C17.4477 22 17 21.5523 17 21Z" fill="#28303F"/>
<path d="M2 21V18C2 17.4477 2.44772 17 3 17H6C6.55228 17 7 17.4477 7 18V21C7 21.5523 6.55228 22 6 22H3C2.44772 22 2 21.5523 2 21Z" fill="#28303F"/>
</svg>
