<svg width="24" height="24" viewBox="0 0 24 24" fill="none" xmlns="http://www.w3.org/2000/svg">
<path opacity="0.4" fill-rule="evenodd" clip-rule="evenodd" d="M12.6503 5.75L12.1704 9.10993L10.8445 7.78411L11.1351 5.75H8.81055L7.31055 4.25H11.9989H17.9999C18.4141 4.25 18.7499 4.58579 18.7499 5C18.7499 5.41421 18.4141 5.75 17.9999 5.75H12.6503Z" fill="#28303F"/>
<path fill-rule="evenodd" clip-rule="evenodd" d="M5.53033 4.46967C5.23744 4.17678 4.76256 4.17678 4.46967 4.46967C4.17678 4.76256 4.17678 5.23744 4.46967 5.53033L10.3295 11.3901L9.25751 18.8939C9.19893 19.304 9.48386 19.6839 9.89391 19.7424C10.304 19.801 10.6839 19.5161 10.7424 19.106L11.6553 12.716L18.4697 19.5303C18.7626 19.8232 19.2374 19.8232 19.5303 19.5303C19.8232 19.2374 19.8232 18.7626 19.5303 18.4697L5.53033 4.46967Z" fill="#28303F"/>
</svg>
