<svg width="24" height="24" viewBox="0 0 24 24" fill="none" xmlns="http://www.w3.org/2000/svg">
<path opacity="0.4" fill-rule="evenodd" clip-rule="evenodd" d="M13.9827 4.25019H12C11.5858 4.25019 11.25 4.58598 11.25 5.00019C11.25 5.41441 11.5858 5.75019 12 5.75019H13.0057L9.43427 18.2502H8C7.58579 18.2502 7.25 18.586 7.25 19.0002C7.25 19.4144 7.58579 19.7502 8 19.7502H9.98343C9.99475 19.7505 10.0061 19.7504 10.0173 19.7502H12C12.4142 19.7502 12.75 19.4144 12.75 19.0002C12.75 18.586 12.4142 18.2502 12 18.2502H10.9943L14.5657 5.75019H16C16.4142 5.75019 16.75 5.41441 16.75 5.00019C16.75 4.58598 16.4142 4.25019 16 4.25019H14.0166C14.0052 4.24993 13.9939 4.24994 13.9827 4.25019Z" fill="#28303F"/>
</svg>
