<svg width="24" height="24" viewBox="0 0 24 24" fill="none" xmlns="http://www.w3.org/2000/svg">
<path fill-rule="evenodd" clip-rule="evenodd" d="M17 21.0834C17.4142 21.0834 17.75 20.7476 17.75 20.3334L17.75 17.75L20.3334 17.75C20.7476 17.75 21.0834 17.4142 21.0834 17C21.0834 16.5858 20.7476 16.25 20.3334 16.25L17 16.25C16.5858 16.25 16.25 16.5858 16.25 17L16.25 20.3334C16.25 20.7476 16.5858 21.0834 17 21.0834Z" fill="#28303F"/>
<path fill-rule="evenodd" clip-rule="evenodd" d="M2.91662 7C2.91662 6.58579 3.2524 6.25 3.66662 6.25L6.24997 6.25L6.24997 3.66665C6.24997 3.25243 6.58576 2.91665 6.99997 2.91665C7.41418 2.91665 7.74997 3.25243 7.74997 3.66665L7.74997 7C7.74997 7.41421 7.41418 7.75 6.99997 7.75L3.66662 7.75C3.2524 7.75 2.91662 7.41421 2.91662 7Z" fill="#28303F"/>
<path fill-rule="evenodd" clip-rule="evenodd" d="M15.0303 8.96978C15.3232 9.26268 15.3232 9.73755 15.0303 10.0304L10.0303 15.0305C9.73741 15.3234 9.26253 15.3234 8.96964 15.0305C8.67675 14.7376 8.67675 14.2627 8.96964 13.9698L13.9697 8.96978C14.2626 8.67689 14.7374 8.67689 15.0303 8.96978Z" fill="#28303F"/>
<path opacity="0.4" fill-rule="evenodd" clip-rule="evenodd" d="M18.1365 5.8638C16.5885 4.31573 14.0785 4.31573 12.5305 5.8638L10.8638 7.53047C10.5709 7.82337 10.096 7.82337 9.80314 7.53047C9.51024 7.23758 9.51024 6.76271 9.80314 6.46981L11.4698 4.80314C13.6037 2.66929 17.0633 2.66928 19.1972 4.80314C21.331 6.93699 21.331 10.3967 19.1972 12.5305L17.5305 14.1972C17.2376 14.4901 16.7627 14.4901 16.4698 14.1972C16.1769 13.9043 16.1769 13.4294 16.4698 13.1365L18.1365 11.4698C19.6846 9.92178 19.6846 7.41186 18.1365 5.8638Z" fill="#28303F"/>
<path opacity="0.4" fill-rule="evenodd" clip-rule="evenodd" d="M5.86348 18.1362C7.41155 19.6843 9.92146 19.6843 11.4695 18.1362L13.1362 16.4695C13.4291 16.1766 13.904 16.1766 14.1969 16.4695C14.4898 16.7624 14.4898 17.2373 14.1969 17.5302L12.5302 19.1969C10.3963 21.3307 6.93667 21.3307 4.80282 19.1969C2.66897 17.063 2.66897 13.6033 4.80282 11.4695L6.4695 9.80282C6.76239 9.50993 7.23726 9.50993 7.53016 9.80282C7.82305 10.0957 7.82305 10.5706 7.53016 10.8635L5.86348 12.5302C4.31541 14.0782 4.31541 16.5881 5.86348 18.1362Z" fill="#28303F"/>
</svg>
