<svg width="24" height="24" viewBox="0 0 24 24" fill="none" xmlns="http://www.w3.org/2000/svg">
<path fill-rule="evenodd" clip-rule="evenodd" d="M14.6517 9.34869C14.9446 9.64158 14.9446 10.1165 14.6517 10.4093L10.409 14.652C10.1161 14.9449 9.64126 14.9449 9.34837 14.652C9.05547 14.3591 9.05547 13.8842 9.34837 13.5913L13.591 9.34869C13.8839 9.0558 14.3588 9.0558 14.6517 9.34869Z" fill="#28303F"/>
<path opacity="0.4" fill-rule="evenodd" clip-rule="evenodd" d="M18.1363 5.8638C16.5882 4.31573 14.0783 4.31573 12.5302 5.8638L10.8636 7.53047C10.5707 7.82337 10.0958 7.82337 9.80289 7.53047C9.51 7.23758 9.51 6.76271 9.80289 6.46981L11.4696 4.80314C13.6034 2.66928 17.0631 2.66928 19.1969 4.80314C21.3308 6.93699 21.3308 10.3967 19.1969 12.5305L17.5303 14.1972C17.2374 14.4901 16.7625 14.4901 16.4696 14.1972C16.1767 13.9043 16.1767 13.4294 16.4696 13.1365L18.1363 11.4698C19.6843 9.92178 19.6843 7.41186 18.1363 5.8638Z" fill="#28303F"/>
<path opacity="0.4" fill-rule="evenodd" clip-rule="evenodd" d="M5.86348 18.1362C7.41155 19.6843 9.92146 19.6843 11.4695 18.1362L13.1362 16.4695C13.4291 16.1766 13.904 16.1766 14.1969 16.4695C14.4898 16.7624 14.4898 17.2373 14.1969 17.5302L12.5302 19.1969C10.3963 21.3307 6.93667 21.3307 4.80282 19.1969C2.66897 17.063 2.66897 13.6033 4.80282 11.4695L6.4695 9.80282C6.76239 9.50993 7.23726 9.50993 7.53016 9.80282C7.82305 10.0957 7.82305 10.5706 7.53016 10.8635L5.86348 12.5302C4.31541 14.0782 4.31541 16.5881 5.86348 18.1362Z" fill="#28303F"/>
</svg>
