<svg width="24" height="24" viewBox="0 0 24 24" fill="none" xmlns="http://www.w3.org/2000/svg">
<path fill-rule="evenodd" clip-rule="evenodd" d="M20.5303 14.5303C20.8232 14.2374 20.8232 13.7626 20.5303 13.4697L19.0607 12L20.5303 10.5303C20.8232 10.2374 20.8232 9.76256 20.5303 9.46967C20.2374 9.17678 19.7626 9.17678 19.4697 9.46967L17.4697 11.4697C17.1768 11.7626 17.1768 12.2374 17.4697 12.5303L19.4697 14.5303C19.7626 14.8232 20.2374 14.8232 20.5303 14.5303Z" fill="#28303F"/>
<path fill-rule="evenodd" clip-rule="evenodd" d="M3.46967 14.5303C3.17678 14.2374 3.17678 13.7626 3.46967 13.4697L4.93934 12L3.46967 10.5303C3.17678 10.2374 3.17678 9.76256 3.46967 9.46967C3.76256 9.17678 4.23744 9.17678 4.53033 9.46967L6.53033 11.4697C6.82322 11.7626 6.82322 12.2374 6.53033 12.5303L4.53033 14.5303C4.23744 14.8232 3.76256 14.8232 3.46967 14.5303Z" fill="#28303F"/>
<path opacity="0.4" d="M7 9V5H17V9C17 9.55228 16.5523 10 16 10H8C7.44772 10 7 9.55228 7 9Z" fill="#28303F"/>
<path opacity="0.4" d="M17 15V19H7V15C7 14.4477 7.44772 14 8 14H16C16.5523 14 17 14.4477 17 15Z" fill="#28303F"/>
</svg>
