<svg width="24" height="24" viewBox="0 0 24 24" fill="none" xmlns="http://www.w3.org/2000/svg">
<path fill-rule="evenodd" clip-rule="evenodd" d="M8.99995 3.25C9.30273 3.25 9.57581 3.43205 9.69226 3.71154L14.6923 15.7115C14.8516 16.0939 14.6708 16.533 14.2884 16.6923C13.9061 16.8516 13.467 16.6708 13.3076 16.2885L11.8333 12.75H6.16662L4.69226 16.2885C4.53295 16.6708 4.09384 16.8516 3.71149 16.6923C3.32914 16.533 3.14833 16.0939 3.30764 15.7115L8.30764 3.71154C8.4241 3.43205 8.69718 3.25 8.99995 3.25ZM6.79162 11.25H11.2083L8.99995 5.95L6.79162 11.25Z" fill="#28303F"/>
<path opacity="0.4" fill-rule="evenodd" clip-rule="evenodd" d="M20.515 13.4547C20.8161 13.7392 20.8297 14.2138 20.5453 14.515L15.5489 19.8052C14.8965 20.496 13.8122 20.54 13.106 19.9044L10.4983 17.5575C10.1904 17.2804 10.1654 16.8062 10.4425 16.4983C10.7196 16.1904 11.1938 16.1654 11.5017 16.4425L14.1094 18.7894C14.2103 18.8802 14.3652 18.874 14.4584 18.7753L19.4547 13.485C19.7392 13.1839 20.2138 13.1703 20.515 13.4547Z" fill="#28303F"/>
</svg>
