<svg width="24" height="24" viewBox="0 0 24 24" fill="none" xmlns="http://www.w3.org/2000/svg">
<path opacity="0.4" d="M2 17C2 19.2091 3.79086 21 6 21H15L22 14V7C22 4.79086 20.2091 3 18 3H6C3.79086 3 2 4.79086 2 7V17Z" fill="#28303F"/>
<path d="M22 14L15 21V18C15 15.7909 16.7909 14 19 14H22Z" fill="#28303F"/>
<path fill-rule="evenodd" clip-rule="evenodd" d="M6.25 9C6.25 8.58579 6.58579 8.25 7 8.25H17C17.4142 8.25 17.75 8.58579 17.75 9C17.75 9.41421 17.4142 9.75 17 9.75H7C6.58579 9.75 6.25 9.41421 6.25 9Z" fill="#28303F"/>
<path fill-rule="evenodd" clip-rule="evenodd" d="M6.25 14C6.25 13.5858 6.58579 13.25 7 13.25L12 13.25C12.4142 13.25 12.75 13.5858 12.75 14C12.75 14.4142 12.4142 14.75 12 14.75L7 14.75C6.58579 14.75 6.25 14.4142 6.25 14Z" fill="#28303F"/>
</svg>
