<svg width="24" height="24" viewBox="0 0 24 24" fill="none" xmlns="http://www.w3.org/2000/svg">
<path fill-rule="evenodd" clip-rule="evenodd" d="M3.25 12C3.25 11.5858 3.58579 11.25 4 11.25H20C20.4142 11.25 20.75 11.5858 20.75 12C20.75 12.4142 20.4142 12.75 20 12.75H16.6255C17.3209 13.4788 17.75 14.429 17.75 15.5C17.75 17.9381 15.5261 19.75 13 19.75C10.4739 19.75 8.25 17.9381 8.25 15.5C8.25 15.0858 8.58579 14.75 9 14.75C9.41421 14.75 9.75 15.0858 9.75 15.5C9.75 16.9278 11.1079 18.25 13 18.25C14.8921 18.25 16.25 16.9278 16.25 15.5C16.25 14.0722 14.8921 12.75 13 12.75H4C3.58579 12.75 3.25 12.4142 3.25 12Z" fill="#28303F"/>
<path opacity="0.4" fill-rule="evenodd" clip-rule="evenodd" d="M9.75 8.5C9.75 7.07216 11.1079 5.75 13 5.75C14.8921 5.75 16.25 7.07216 16.25 8.5C16.25 8.91421 16.5858 9.25 17 9.25C17.4142 9.25 17.75 8.91421 17.75 8.5C17.75 6.06185 15.5261 4.25 13 4.25C10.4739 4.25 8.25 6.06185 8.25 8.5C8.25 9.13236 8.39959 9.72259 8.66525 10.25H10.4974C10.024 9.76151 9.75 9.14142 9.75 8.5Z" fill="#28303F"/>
</svg>
