<svg width="24" height="24" viewBox="0 0 24 24" fill="none" xmlns="http://www.w3.org/2000/svg">
<path opacity="0.4" fill-rule="evenodd" clip-rule="evenodd" d="M6 4.25C5.58579 4.25 5.25 4.58579 5.25 5C5.25 5.41421 5.58579 5.75 6 5.75H11.25V10.25H12.75V5.75H18C18.4142 5.75 18.75 5.41421 18.75 5C18.75 4.58579 18.4142 4.25 18 4.25H12H6Z" fill="#28303F"/>
<path fill-rule="evenodd" clip-rule="evenodd" d="M4 11.25C3.58579 11.25 3.25 11.5858 3.25 12C3.25 12.4142 3.58579 12.75 4 12.75H11.25V19C11.25 19.4142 11.5858 19.75 12 19.75C12.4142 19.75 12.75 19.4142 12.75 19V12.75H20C20.4142 12.75 20.75 12.4142 20.75 12C20.75 11.5858 20.4142 11.25 20 11.25H4Z" fill="#28303F"/>
</svg>
