<svg width="24" height="24" viewBox="0 0 24 24" fill="none" xmlns="http://www.w3.org/2000/svg">
<path d="M12 20.9998H7C4.79086 20.9998 3 19.2089 3 16.9998V15.1763H12V20.9998Z" fill="#28303F"/>
<path opacity="0.4" d="M12 15.1767V8.82373H3V15.1767H12Z" fill="#28303F"/>
<path d="M7 3H12V8.82353H3V7C3 4.79086 4.79086 3 7 3Z" fill="#28303F"/>
<path opacity="0.4" d="M12 20.9998H17C19.2091 20.9998 21 19.2089 21 16.9998V15.1763H12V20.9998Z" fill="#28303F"/>
<path d="M12 15.1767V8.82373H21V15.1767H12Z" fill="#28303F"/>
<path opacity="0.4" d="M17 3H12V8.82353H21V7C21 4.79086 19.2091 3 17 3Z" fill="#28303F"/>
</svg>
