<svg width="24" height="24" viewBox="0 0 24 24" fill="none" xmlns="http://www.w3.org/2000/svg">
<rect opacity="0.4" x="2" y="2" width="20" height="20" rx="4" fill="#28303F"/>
<path fill-rule="evenodd" clip-rule="evenodd" d="M19.5303 16.4697C19.8232 16.7626 19.8232 17.2374 19.5303 17.5303L17.5303 19.5303C17.2374 19.8232 16.7626 19.8232 16.4697 19.5303C16.1768 19.2374 16.1768 18.7626 16.4697 18.4697L18.4697 16.4697C18.7626 16.1768 19.2374 16.1768 19.5303 16.4697Z" fill="#28303F"/>
<path fill-rule="evenodd" clip-rule="evenodd" d="M19.5303 12.4697C19.8232 12.7626 19.8232 13.2374 19.5303 13.5303L13.5303 19.5303C13.2374 19.8232 12.7626 19.8232 12.4697 19.5303C12.1768 19.2374 12.1768 18.7626 12.4697 18.4697L18.4697 12.4697C18.7626 12.1768 19.2374 12.1768 19.5303 12.4697Z" fill="#28303F"/>
</svg>
