<svg width="24" height="24" viewBox="0 0 24 24" fill="none" xmlns="http://www.w3.org/2000/svg">
<path opacity="0.4" fill-rule="evenodd" clip-rule="evenodd" d="M5.46967 20.5303C5.76256 20.8232 6.23744 20.8232 6.53033 20.5303L8.53033 18.5303C8.82322 18.2374 8.82322 17.7626 8.53033 17.4697C8.23744 17.1768 7.76256 17.1768 7.46967 17.4697L6.75 18.1893L6.75 4C6.75 3.58579 6.41421 3.25 6 3.25C5.58579 3.25 5.25 3.58579 5.25 4L5.25 18.1893L4.53033 17.4697C4.23744 17.1768 3.76256 17.1768 3.46967 17.4697C3.17678 17.7626 3.17678 18.2374 3.46967 18.5303L5.46967 20.5303Z" fill="#28303F"/>
<path fill-rule="evenodd" clip-rule="evenodd" d="M15 4.25C15.3027 4.25 15.5758 4.43205 15.6923 4.71154L20.6923 16.7115C20.8516 17.0939 20.6708 17.533 20.2884 17.6923C19.9061 17.8516 19.467 17.6708 19.3076 17.2885L17.8333 13.75H12.1666L10.6923 17.2885C10.5329 17.6708 10.0938 17.8516 9.71149 17.6923C9.32914 17.533 9.14833 17.0939 9.30764 16.7115L14.3076 4.71154C14.4241 4.43205 14.6972 4.25 15 4.25ZM12.7916 12.25H17.2083L15 6.95L12.7916 12.25Z" fill="#28303F"/>
</svg>
