<svg width="24" height="24" viewBox="0 0 24 24" fill="none" xmlns="http://www.w3.org/2000/svg">
<path fill-rule="evenodd" clip-rule="evenodd" d="M12 2.25C12.3027 2.25 12.5758 2.43205 12.6923 2.71154L17.6923 14.7115C17.8516 15.0939 17.6708 15.533 17.2884 15.6923C16.9061 15.8516 16.467 15.6708 16.3076 15.2885L14.8333 11.75H9.16662L7.69226 15.2885C7.53295 15.6708 7.09384 15.8516 6.71149 15.6923C6.32914 15.533 6.14833 15.0939 6.30764 14.7115L11.3076 2.71154C11.4241 2.43205 11.6972 2.25 12 2.25ZM9.79162 10.25H14.2083L12 4.95L9.79162 10.25Z" fill="#28303F"/>
<path opacity="0.4" fill-rule="evenodd" clip-rule="evenodd" d="M20.5303 19.5303C20.8232 19.2374 20.8232 18.7626 20.5303 18.4697L18.5303 16.4697C18.2374 16.1768 17.7626 16.1768 17.4697 16.4697C17.1768 16.7626 17.1768 17.2374 17.4697 17.5303L18.1893 18.25L4 18.25C3.58579 18.25 3.25 18.5858 3.25 19C3.25 19.4142 3.58579 19.75 4 19.75L18.1893 19.75L17.4697 20.4697C17.1768 20.7626 17.1768 21.2374 17.4697 21.5303C17.7626 21.8232 18.2374 21.8232 18.5303 21.5303L20.5303 19.5303Z" fill="#28303F"/>
</svg>
