<svg width="24" height="24" viewBox="0 0 24 24" fill="none" xmlns="http://www.w3.org/2000/svg">
<path fill-rule="evenodd" clip-rule="evenodd" d="M6 2C3.79086 2 2 3.79086 2 6V18C2 20.2091 3.79086 22 6 22H18C20.2091 22 22 20.2091 22 18V6C22 3.79086 20.2091 2 18 2H6ZM10.6854 7.6954C10.5675 7.43019 10.3072 7.25678 10.017 7.25019C9.72688 7.2436 9.45897 7.405 9.32918 7.66459L7.53647 11.25H6C5.58579 11.25 5.25 11.5858 5.25 12C5.25 12.4142 5.58579 12.75 6 12.75H8C8.28408 12.75 8.54378 12.5895 8.67082 12.3354L9.96009 9.75687L13.3146 17.3046C13.4371 17.5801 13.7127 17.7556 14.0141 17.7499C14.3156 17.7442 14.5844 17.5585 14.6964 17.2785L16.5078 12.75H18C18.4142 12.75 18.75 12.4142 18.75 12C18.75 11.5858 18.4142 11.25 18 11.25H16C15.6933 11.25 15.4175 11.4367 15.3036 11.7215L13.9636 15.0715L10.6854 7.6954Z" fill="#28303F"/>
</svg>
