<svg width="24" height="24" viewBox="0 0 24 24" fill="none" xmlns="http://www.w3.org/2000/svg">
<path fill-rule="evenodd" clip-rule="evenodd" d="M6 3H9.5C11.7091 3 13.5 4.79086 13.5 7V19H10.5C10.5 17.067 8.933 15.5 7 15.5C5.34384 15.5 3.95711 16.6496 3.59319 18.1952C2.62551 17.4651 2 16.3056 2 15V7C2 4.79086 3.79086 3 6 3ZM6 7.25C6.41421 7.25 6.75 7.58579 6.75 8V9.25H9.25V8C9.25 7.58579 9.58579 7.25 10 7.25C10.4142 7.25 10.75 7.58579 10.75 8V10V12C10.75 12.4142 10.4142 12.75 10 12.75C9.58579 12.75 9.25 12.4142 9.25 12V10.75H6.75V12C6.75 12.4142 6.41421 12.75 6 12.75C5.58579 12.75 5.25 12.4142 5.25 12V10V8C5.25 7.58579 5.58579 7.25 6 7.25ZM15 17.1962C15.6124 16.1798 16.7268 15.5 18 15.5C19.7222 15.5 21.1538 16.7438 21.4456 18.3821C21.7891 18.023 22 17.5361 22 17V11.6165C22 11.0636 21.7712 10.5355 21.3679 10.1574L18.577 7.54093C18.2063 7.1934 17.7172 7 17.2091 7H15V17.1962ZM9 19C9 20.1046 8.10457 21 7 21C5.89543 21 5 20.1046 5 19C5 18.958 5.00129 18.9163 5.00384 18.875C5.06838 17.8286 5.93742 17 7 17C8.10457 17 9 17.8954 9 19ZM20 19C20 20.1046 19.1046 21 18 21C16.8954 21 16 20.1046 16 19C16 17.8954 16.8954 17 18 17C19.1046 17 20 17.8954 20 19Z" fill="#28303F"/>
</svg>
