<svg width="24" height="24" viewBox="0 0 24 24" fill="none" xmlns="http://www.w3.org/2000/svg">
<path fill-rule="evenodd" clip-rule="evenodd" d="M4 14.1113C4 9.46264 8.62926 4.87824 10.8449 2.95032C11.5154 2.36682 12.4846 2.36682 13.1551 2.95032C15.3707 4.87824 20 9.46264 20 14.1113C20 18.0002 16.9706 22.0002 12 22.0002C7.02944 22.0002 4 18.0002 4 14.1113ZM12 10.2502C12.4142 10.2502 12.75 10.586 12.75 11.0002V13.2502H15C15.4142 13.2502 15.75 13.586 15.75 14.0002C15.75 14.4144 15.4142 14.7502 15 14.7502H12.75V17.0002C12.75 17.4144 12.4142 17.7502 12 17.7502C11.5858 17.7502 11.25 17.4144 11.25 17.0002V14.7502H9C8.58579 14.7502 8.25 14.4144 8.25 14.0002C8.25 13.586 8.58579 13.2502 9 13.2502H11.25V11.0002C11.25 10.586 11.5858 10.2502 12 10.2502Z" fill="#28303F"/>
</svg>
