<svg width="24" height="24" viewBox="0 0 24 24" fill="none" xmlns="http://www.w3.org/2000/svg">
<path fill-rule="evenodd" clip-rule="evenodd" d="M10.8449 2.95032C8.62926 4.87824 4 9.46264 4 14.1113C4 18.0002 7.02944 22.0002 12 22.0002C16.9706 22.0002 20 18.0002 20 14.1113C20 9.46264 15.3707 4.87824 13.1551 2.95032C12.4846 2.36682 11.5154 2.36682 10.8449 2.95032ZM12.8568 18.1694C12.4503 18.2486 12.1849 18.6424 12.2641 19.049C12.3433 19.4556 12.7371 19.7209 13.1437 19.6417C15.5696 19.1692 17.1486 17.243 17.6083 15.162C17.6977 14.7575 17.4422 14.3572 17.0378 14.2679C16.6333 14.1785 16.233 14.434 16.1436 14.8384C15.791 16.4345 14.6036 17.8292 12.8568 18.1694Z" fill="#28303F"/>
</svg>
