<svg width="24" height="24" viewBox="0 0 24 24" fill="none" xmlns="http://www.w3.org/2000/svg">
<path fill-rule="evenodd" clip-rule="evenodd" d="M22 7C22 9.76142 19.7614 12 17 12C14.2386 12 12 9.76142 12 7C12 4.23858 14.2386 2 17 2C19.7614 2 22 4.23858 22 7ZM15 4.25C15.4142 4.25 15.75 4.58579 15.75 5V6.25H18.25V5C18.25 4.58579 18.5858 4.25 19 4.25C19.4142 4.25 19.75 4.58579 19.75 5V7V9C19.75 9.41421 19.4142 9.75 19 9.75C18.5858 9.75 18.25 9.41421 18.25 9V7.75H15.75V9C15.75 9.41421 15.4142 9.75 15 9.75C14.5858 9.75 14.25 9.41421 14.25 9V7V5C14.25 4.58579 14.5858 4.25 15 4.25ZM18 18.9096V20.2222C18 21.2041 17.2041 22 16.2222 22C8.36751 22 2 15.6325 2 7.77778C2 6.79594 2.79594 6 3.77778 6H5.09038C5.90819 6 6.6436 6.4979 6.94733 7.25722L7.53876 8.7358C7.92508 9.70158 7.5066 10.8023 6.57624 11.2674L6.44444 11.3333C6.44444 11.3333 6.88889 13.5556 8.66667 15.3333C10.4444 17.1111 12.6667 17.5556 12.6667 17.5556L12.7326 17.4238C13.1977 16.4934 14.2984 16.0749 15.2642 16.4612L16.7428 17.0527C17.5021 17.3564 18 18.0918 18 18.9096Z" fill="#28303F"/>
</svg>
