<svg width="24" height="24" viewBox="0 0 24 24" fill="none" xmlns="http://www.w3.org/2000/svg">
<path fill-rule="evenodd" clip-rule="evenodd" d="M16.849 15.8012L19.2085 13.4417C21.5972 11.053 21.5972 7.18019 19.2085 4.79151C16.8198 2.40283 12.947 2.40283 10.5583 4.79151L8.19885 7.15096C8.22991 7.17363 8.25962 7.19899 8.28765 7.22702L16.7729 15.7123C16.801 15.7404 16.8264 15.7701 16.849 15.8012ZM15.8011 16.8491C15.7701 16.8264 15.7403 16.801 15.7123 16.773L7.22699 8.28768C7.19896 8.25965 7.1736 8.22994 7.15093 8.19888L4.79151 10.5583C2.40283 12.947 2.40283 16.8198 4.79151 19.2085C7.18019 21.5972 11.053 21.5972 13.4417 19.2085L15.8011 16.8491ZM16.4194 6.5199C16.7123 6.22701 17.1871 6.22701 17.48 6.5199C18.9445 7.98437 18.9445 10.3587 17.48 11.8232C17.1871 12.1161 16.7123 12.1161 16.4194 11.8232C16.1265 11.5303 16.1265 11.0554 16.4194 10.7625C17.2981 9.88386 17.2981 8.45924 16.4194 7.58056C16.1265 7.28767 16.1265 6.8128 16.4194 6.5199Z" fill="#28303F"/>
</svg>
