<svg width="24" height="24" viewBox="0 0 24 24" fill="none" xmlns="http://www.w3.org/2000/svg">
<path fill-rule="evenodd" clip-rule="evenodd" d="M3.00026 8.24241C1.82869 7.07084 1.82869 5.17135 3.00026 3.99977C4.17183 2.8282 6.07133 2.8282 7.2429 3.99977L10.0713 6.8282L5.82869 11.0708L3.00026 8.24241ZM12 14.9998C12.8284 14.9998 13.5 14.6043 13.5 13.4998C13.5 12.3952 12 10.9998 12 10.9998C12 10.9998 10.5 12.3952 10.5 13.4998C10.5 14.6043 11.1716 14.9998 12 14.9998ZM9.5 19.4998C9.5 20.6043 8.82843 20.9998 8 20.9998C7.17157 20.9998 6.5 20.6043 6.5 19.4998C6.5 18.3952 8 16.9998 8 16.9998C8 16.9998 9.5 18.3952 9.5 19.4998ZM17.5 19.4998C17.5 20.6043 16.8284 20.9998 16 20.9998C15.1716 20.9998 14.5 20.6043 14.5 19.4998C14.5 18.3952 16 16.9998 16 16.9998C16 16.9998 17.5 18.3952 17.5 19.4998ZM20.9998 3.99977C22.1714 5.17135 22.1714 7.07084 20.9998 8.24241L18.1714 11.0708L13.9287 6.8282L16.7571 3.99977C17.9287 2.8282 19.8282 2.8282 20.9998 3.99977Z" fill="#28303F"/>
</svg>
