<svg width="24" height="24" viewBox="0 0 24 24" fill="none" xmlns="http://www.w3.org/2000/svg">
<path d="M13.2755 5.43641L13.9381 6.08318L8.58588 11.4352C7.83573 12.1854 7.41431 13.2028 7.41431 14.2636V15.4352H8.58588C9.64675 15.4352 10.6642 15.0138 11.4143 14.2636L16.8006 8.87751L17.4761 9.53688C17.7725 9.82622 18.2473 9.8205 18.5367 9.52409C18.826 9.22769 18.8203 8.75285 18.5239 8.46351L17.8614 7.81678L19.4353 6.24283C20.2164 5.46178 20.2164 4.19545 19.4353 3.4144C18.6543 2.63335 17.3879 2.63335 16.6069 3.4144L14.9988 5.02246L14.3233 4.36304C14.0269 4.0737 13.5521 4.07942 13.2627 4.37583C12.9734 4.67223 12.9791 5.14707 13.2755 5.43641Z" fill="#28303F"/>
<path d="M5.5 22.0002C6.32843 22.0002 7 21.6048 7 20.5002C7 19.3956 5.5 18.0002 5.5 18.0002C5.5 18.0002 4 19.3956 4 20.5002C4 21.6048 4.67157 22.0002 5.5 22.0002Z" fill="#28303F"/>
</svg>
