<svg width="24" height="24" viewBox="0 0 24 24" fill="none" xmlns="http://www.w3.org/2000/svg">
<path fill-rule="evenodd" clip-rule="evenodd" d="M16 5C16 3.34315 17.3431 2 19 2C20.6569 2 22 3.34315 22 5V7.25H16V5ZM16 11V8.75H22V11C22 12.6569 20.6569 14 19 14C17.3431 14 16 12.6569 16 11ZM2 10H4L10.2622 12.7397C11.2241 13.1605 11.6664 14.2784 11.2528 15.2434C11.19 15.3899 11.1111 15.5245 11.0191 15.646L13.7331 17.3666C14.5663 17.7831 15.4849 18 16.4164 18H18C19.1046 18 20 18.8954 20 20C20 21.1046 19.1046 22 18 22H9.88854C8.64658 22 7.42168 21.7108 6.31083 21.1554L2 19V10Z" fill="#28303F"/>
</svg>
