<svg width="24" height="24" viewBox="0 0 24 24" fill="none" xmlns="http://www.w3.org/2000/svg">
<path fill-rule="evenodd" clip-rule="evenodd" d="M16.8678 2.98132C15.6851 4.11264 14 6.07246 14 8.05567C14 10.0001 15.5147 12.0001 18 12.0001C20.4853 12.0001 22 10.0001 22 8.05567C22 6.07246 20.3149 4.11264 19.1322 2.98132C18.4898 2.3669 17.5102 2.3669 16.8678 2.98132ZM2 10.0001H4L10.2622 12.7399C11.2241 13.1607 11.6664 14.2786 11.2528 15.2435C11.19 15.39 11.1111 15.5246 11.0191 15.6461L13.7331 17.3667C14.5663 17.7832 15.4849 18.0001 16.4164 18.0001H18C19.1046 18.0001 20 18.8955 20 20.0001C20 21.1047 19.1046 22.0001 18 22.0001H9.88854C8.64658 22.0001 7.42168 21.711 6.31083 21.1555L2 19.0001V10.0001Z" fill="#28303F"/>
</svg>
