<svg width="24" height="24" viewBox="0 0 24 24" fill="none" xmlns="http://www.w3.org/2000/svg">
<path fill-rule="evenodd" clip-rule="evenodd" d="M16 3.40235L16.459 2.94572C17.7266 1.68476 19.7817 1.68476 21.0493 2.94572C22.3169 4.20667 22.3169 6.25108 21.0493 7.51203L16.9181 11.6217C16.411 12.1261 15.589 12.1261 15.0819 11.6217L10.9507 7.51203C9.68311 6.25108 9.68311 4.20667 10.9507 2.94571C12.2183 1.68476 14.2734 1.68476 15.541 2.94572L16 3.40235ZM2 10H4L10.2622 12.7397C11.2241 13.1605 11.6664 14.2784 11.2528 15.2434C11.19 15.3899 11.1111 15.5245 11.0191 15.646L13.7331 17.3666C14.5663 17.7831 15.4849 18 16.4164 18H18C19.1046 18 20 18.8954 20 20C20 21.1046 19.1046 22 18 22H9.88854C8.64658 22 7.42168 21.7108 6.31083 21.1554L2 19V10Z" fill="#28303F"/>
</svg>
