<svg width="24" height="24" viewBox="0 0 24 24" fill="none" xmlns="http://www.w3.org/2000/svg">
<path fill-rule="evenodd" clip-rule="evenodd" d="M6 2C3.79086 2 2 3.79086 2 6V18C2 20.2091 3.79086 22 6 22H18C20.2091 22 22 20.2091 22 18V6C22 3.79086 20.2091 2 18 2H6ZM8.75 8C8.75 7.58579 8.41421 7.25 8 7.25C7.58579 7.25 7.25 7.58579 7.25 8V12V16C7.25 16.4142 7.58579 16.75 8 16.75C8.41421 16.75 8.75 16.4142 8.75 16V12.75H15.25V16C15.25 16.4142 15.5858 16.75 16 16.75C16.4142 16.75 16.75 16.4142 16.75 16V12V8C16.75 7.58579 16.4142 7.25 16 7.25C15.5858 7.25 15.25 7.58579 15.25 8V11.25H8.75V8Z" fill="#28303F"/>
</svg>
