<svg width="24" height="24" viewBox="0 0 24 24" fill="none" xmlns="http://www.w3.org/2000/svg">
<path fill-rule="evenodd" clip-rule="evenodd" d="M18.9654 2.46967C18.6725 2.17678 18.1976 2.17678 17.9047 2.46967C17.6118 2.76256 17.6118 3.23744 17.9047 3.53033L18.7888 4.41438L16.4909 6.71231L16.4907 6.7125L16.3137 6.53552C15.5326 5.75448 14.2663 5.75448 13.4853 6.53552L9.76447 10.2563L17.1053 11.4008L17.7279 10.7782C18.509 9.99712 18.509 8.73079 17.7279 7.94974L17.5513 7.77316L17.5515 7.77297L19.8495 5.47504L20.7332 6.35876C21.0261 6.65165 21.5009 6.65165 21.7938 6.35876C22.0867 6.06586 22.0867 5.59099 21.7938 5.2981L20.3933 3.89754L20.3799 3.88388L20.3663 3.87057L18.9654 2.46967ZM8.45111 11.5697L8.29982 11.721C7.99382 12.027 7.79533 12.424 7.73413 12.8523L7.49843 14.5023C7.44544 14.8732 7.49669 15.2292 7.62707 15.5453L2.48208 20.4576C2.18249 20.7436 2.17151 21.2183 2.45755 21.5179C2.74358 21.8175 3.21833 21.8285 3.51792 21.5425L8.67549 16.6182C9.002 16.7619 9.37345 16.8204 9.76117 16.765L11.4111 16.5293C11.8395 16.4681 12.2365 16.2696 12.5425 15.9636L15.7919 12.7141L8.45111 11.5697Z" fill="#28303F"/>
</svg>
