<svg width="24" height="24" viewBox="0 0 24 24" fill="none" xmlns="http://www.w3.org/2000/svg">
<path fill-rule="evenodd" clip-rule="evenodd" d="M5.25 8C5.25 7.30964 4.69036 6.75 4 6.75C3.30964 6.75 2.75 7.30964 2.75 8V12C2.75 13.5368 3.81672 14.8245 5.25014 15.1631C5.25005 15.1509 5.25 15.1387 5.25 15.1265V11V10V8ZM6.75 8.78648V8C6.75 6.48122 5.51878 5.25 4 5.25C2.48122 5.25 1.25 6.48122 1.25 8V12C1.25 14.464 3.12607 16.4897 5.52769 16.7268C5.81022 17.5163 6.30008 18.2264 6.95912 18.7756L7.67876 19.3752C10.182 21.4613 13.818 21.4613 16.3212 19.3752L17.0409 18.7756C17.6999 18.2264 18.1898 17.5163 18.4723 16.7268C20.8739 16.4897 22.75 14.464 22.75 12V8C22.75 6.48122 21.5188 5.25 20 5.25C18.4812 5.25 17.25 6.48122 17.25 8V8.78648L14.1243 7.22361C12.787 6.55498 11.213 6.55498 9.87574 7.22361L6.75 8.78648ZM20 6.75C19.3096 6.75 18.75 7.30964 18.75 8V10V11V15.1265L18.7499 15.1631C20.1833 14.8245 21.25 13.5368 21.25 12V8C21.25 7.30964 20.6904 6.75 20 6.75Z" fill="#28303F"/>
</svg>
