<svg width="24" height="24" viewBox="0 0 24 24" fill="none" xmlns="http://www.w3.org/2000/svg">
<path fill-rule="evenodd" clip-rule="evenodd" d="M8.75 5C8.75 3.75736 9.75736 2.75 11 2.75H13C14.2426 2.75 15.25 3.75736 15.25 5V6H8.75V5ZM7.25 6V5C7.25 2.92893 8.92893 1.25 11 1.25H13C15.0711 1.25 16.75 2.92893 16.75 5V6H18C20.2091 6 22 7.79086 22 10V18C22 20.2091 20.2091 22 18 22H6C3.79086 22 2 20.2091 2 18V10C2 7.79086 3.79086 6 6 6H7.25ZM12 10.25C12.4142 10.25 12.75 10.5858 12.75 11V13.25H15C15.4142 13.25 15.75 13.5858 15.75 14C15.75 14.4142 15.4142 14.75 15 14.75H12.75V17C12.75 17.4142 12.4142 17.75 12 17.75C11.5858 17.75 11.25 17.4142 11.25 17V14.75H9C8.58579 14.75 8.25 14.4142 8.25 14C8.25 13.5858 8.58579 13.25 9 13.25H11.25V11C11.25 10.5858 11.5858 10.25 12 10.25Z" fill="#28303F"/>
</svg>
