<svg width="24" height="24" viewBox="0 0 24 24" fill="none" xmlns="http://www.w3.org/2000/svg">
<path fill-rule="evenodd" clip-rule="evenodd" d="M6.75 2C5.7835 2 5 2.7835 5 3.75C5 4.7165 5.7835 5.5 6.75 5.5H17.25C18.2165 5.5 19 4.7165 19 3.75C19 2.7835 18.2165 2 17.25 2H6.75ZM5 11C5 8.79086 6.79086 7 9 7H15C17.2091 7 19 8.79086 19 11V18C19 20.2091 17.2091 22 15 22H9C6.79086 22 5 20.2091 5 18V11ZM15 14C15 15.6569 13.6569 17 12 17C10.3431 17 9 15.6569 9 14C9 12.3431 10.3431 11 12 11C13.6569 11 15 12.3431 15 14Z" fill="#28303F"/>
</svg>
