<svg width="24" height="24" viewBox="0 0 24 24" fill="none" xmlns="http://www.w3.org/2000/svg">
<path fill-rule="evenodd" clip-rule="evenodd" d="M17.4999 15C17.4999 12.9228 16.7548 11.0197 15.5173 9.5432L20.4518 4.60877C22.6713 7.35768 22.5039 11.3953 19.9494 13.9497C19.2253 14.6739 18.382 15.2062 17.4826 15.5467C17.4941 15.3659 17.4999 15.1837 17.4999 15ZM8.9999 6.5C8.81614 6.5 8.63374 6.50583 8.45288 6.51732C8.79337 5.61787 9.32572 4.77446 10.0499 4.05025C12.6045 1.49571 16.6422 1.32832 19.3911 3.54809L14.4567 8.48255C12.9802 7.24507 11.0771 6.5 8.9999 6.5ZM9.00009 22C5.38746 22 2.41402 19.2633 2.03979 15.75H15.9604C15.5862 19.2633 12.6127 22 9.00009 22ZM2.03979 14.25H15.9604C15.5862 10.7367 12.6127 8 9.00009 8C5.38746 8 2.41402 10.7367 2.03979 14.25Z" fill="#28303F"/>
</svg>
