<svg width="24" height="24" viewBox="0 0 24 24" fill="none" xmlns="http://www.w3.org/2000/svg">
<path fill-rule="evenodd" clip-rule="evenodd" d="M19.8343 9.79391L9.79391 19.8344C8.23971 21.3886 5.71985 21.3885 4.16565 19.8343C2.61145 18.2801 2.61145 15.7603 4.16565 14.2061L14.2061 4.16565C15.7603 2.61145 18.2801 2.61145 19.8343 4.16565C21.3885 5.71985 21.3885 8.23971 19.8343 9.79391ZM13.2452 9.34035C12.8547 8.94982 12.2215 8.94982 11.831 9.34035L9.34009 11.8312C8.94956 12.2218 8.94956 12.8549 9.34009 13.2455L10.7543 14.6597C11.1448 15.0502 11.778 15.0502 12.1685 14.6597L14.6594 12.1688C15.0499 11.7782 15.0499 11.1451 14.6594 10.7546L13.2452 9.34035ZM15.7123 5.8128C16.0052 5.51991 16.4801 5.51991 16.773 5.8128L18.1872 7.22701C18.4801 7.51991 18.4801 7.99478 18.1872 8.28767C17.8943 8.58057 17.4195 8.58057 17.1266 8.28767L15.7123 6.87346C15.4195 6.58057 15.4195 6.10569 15.7123 5.8128ZM6.87359 15.7123C6.5807 15.4194 6.10582 15.4194 5.81293 15.7123C5.52004 16.0052 5.52004 16.4801 5.81293 16.773L7.22715 18.1872C7.52004 18.4801 7.99491 18.4801 8.28781 18.1872C8.5807 17.8943 8.5807 17.4194 8.28781 17.1265L6.87359 15.7123Z" fill="#28303F"/>
</svg>
