<svg width="24" height="24" viewBox="0 0 24 24" fill="none" xmlns="http://www.w3.org/2000/svg">
<path fill-rule="evenodd" clip-rule="evenodd" d="M10.75 2C10.75 1.58579 10.4142 1.25 10 1.25C9.58579 1.25 9.25 1.58579 9.25 2V4C9.25 4.41421 9.58579 4.75 10 4.75C10.4142 4.75 10.75 4.41421 10.75 4V3.99991C11.0536 4.22796 11.25 4.59105 11.25 5V8C11.25 10.3472 9.34721 12.25 7 12.25C4.65279 12.25 2.75 10.3472 2.75 8V5C2.75 4.59105 2.94639 4.22796 3.25 3.99991V4C3.25 4.41421 3.58579 4.75 4 4.75C4.41421 4.75 4.75 4.41421 4.75 4V2C4.75 1.58579 4.41421 1.25 4 1.25C3.58579 1.25 3.25 1.58579 3.25 2V2.35352C2.09575 2.67998 1.25 3.74122 1.25 5V8C1.25 10.9214 3.42873 13.334 6.25 13.7015V18.25C6.25 20.7353 8.26472 22.75 10.75 22.75C13.2353 22.75 15.25 20.7353 15.25 18.25V12.75C15.25 11.6454 16.1454 10.75 17.25 10.75C18.3546 10.75 19.25 11.6454 19.25 12.75V14C19.25 14.0479 19.2545 14.0947 19.2631 14.1401C18.5232 14.4336 18 15.1557 18 16C18 17.1046 18.8954 18 20 18C21.1046 18 22 17.1046 22 16C22 15.1557 21.4768 14.4336 20.7369 14.1401C20.7455 14.0947 20.75 14.0479 20.75 14V12.75C20.75 10.817 19.183 9.25 17.25 9.25C15.317 9.25 13.75 10.817 13.75 12.75V18.25C13.75 19.9069 12.4069 21.25 10.75 21.25C9.09315 21.25 7.75 19.9069 7.75 18.25V13.7015C10.5713 13.334 12.75 10.9214 12.75 8V5C12.75 3.74122 11.9043 2.67998 10.75 2.35352V2Z" fill="#28303F"/>
</svg>
