<svg width="24" height="24" viewBox="0 0 24 24" fill="none" xmlns="http://www.w3.org/2000/svg">
<path fill-rule="evenodd" clip-rule="evenodd" d="M16.0063 3.85678L9.68948 10.1736C9.39112 10.472 9.19757 10.8591 9.1379 11.2768L8.97702 12.403C8.91735 12.8207 8.7238 13.2078 8.42544 13.5061L6.49502 15.4365C6.50706 15.4471 6.51883 15.4582 6.53033 15.4697L8.53033 17.4697C8.54183 17.4812 8.55287 17.4929 8.56346 17.505L10.4939 15.5746C10.7922 15.2762 11.1793 15.0827 11.597 15.023L12.7232 14.8621C13.1409 14.8024 13.528 14.6089 13.8264 14.3105L20.1432 7.99366C21.2856 6.85129 21.2856 4.99915 20.1432 3.85678C19.0009 2.71441 17.1487 2.71441 16.0063 3.85678ZM7.50498 18.5635C7.49294 18.5529 7.48117 18.5418 7.46967 18.5303L5.46967 16.5303C5.45817 16.5188 5.44713 16.5071 5.43654 16.495L3.42839 18.5032C2.8572 19.0744 2.8572 20.0004 3.42839 20.5716C3.99957 21.1428 4.92565 21.1428 5.49683 20.5716L7.50498 18.5635Z" fill="#28303F"/>
</svg>
