<svg width="24" height="24" viewBox="0 0 24 24" fill="none" xmlns="http://www.w3.org/2000/svg">
<path fill-rule="evenodd" clip-rule="evenodd" d="M6.80975 3.06613C5.06035 4.75088 2 8.1971 2 11.6887C2 14.5261 3.8899 17.4374 7.05049 17.9277C6.68851 16.9489 6.5 15.9172 6.5 14.8998C6.5 12.4168 7.65572 10.0888 8.93543 8.24623C9.68779 7.16295 10.5241 6.18904 11.2967 5.37752C10.5585 4.44359 9.79598 3.64949 9.1905 3.06636C8.51673 2.41748 7.48352 2.41726 6.80975 3.06613ZM8 14.8998C8 10.8279 11.8368 6.81083 13.8292 4.99924C14.5018 4.3877 15.4982 4.3877 16.1708 4.99924C18.1632 6.81083 22 10.8279 22 14.8998C22 18.3998 19.3492 21.9998 15 21.9998C10.6508 21.9998 8 18.3998 8 14.8998ZM15.2636 19.1422C15.185 18.7355 15.451 18.342 15.8576 18.2634C17.1355 18.0164 18.0081 17.004 18.2679 15.8368C18.3579 15.4325 18.7587 15.1777 19.163 15.2677C19.5673 15.3577 19.8221 15.7584 19.7321 16.1628C19.3631 17.8202 18.0945 19.3588 16.1424 19.7362C15.7357 19.8148 15.3423 19.5488 15.2636 19.1422Z" fill="#28303F"/>
</svg>
