<svg width="24" height="24" viewBox="0 0 24 24" fill="none" xmlns="http://www.w3.org/2000/svg">
<path fill-rule="evenodd" clip-rule="evenodd" d="M3.25 3C3.25 2.58579 3.58579 2.25 4 2.25H5C6.51878 2.25 7.75 3.48122 7.75 5V5.25H17C18.5188 5.25 19.75 6.48122 19.75 8V15.5501C20.4644 15.9153 20.9982 16.5835 21.1812 17.3859C21.6777 17.7498 22 18.3373 22 19C22 20.1046 21.1046 21 20 21C18.8954 21 18 20.1046 18 19C18 18.1158 18.5737 17.3657 19.3692 17.1015C19.2163 16.9534 19.0257 16.8441 18.8131 16.7893C18.7138 16.7638 18.6091 16.75 18.5 16.75H13.4572C13.4855 16.5039 13.5 16.2537 13.5 16C13.5 12.4101 10.5899 9.5 7 9.5C6.74634 9.5 6.49608 9.51453 6.25 9.5428V5C6.25 4.30964 5.69036 3.75 5 3.75H4C3.58579 3.75 3.25 3.41421 3.25 3ZM12 16C12 18.7614 9.76142 21 7 21C4.23858 21 2 18.7614 2 16C2 13.2386 4.23858 11 7 11C9.76142 11 12 13.2386 12 16Z" fill="#28303F"/>
</svg>
