<svg width="24" height="24" viewBox="0 0 24 24" fill="none" xmlns="http://www.w3.org/2000/svg">
<path fill-rule="evenodd" clip-rule="evenodd" d="M12 6C13.1046 6 14 5.10457 14 4C14 2.89543 13.1046 2 12 2C10.8954 2 10 2.89543 10 4C10 5.10457 10.8954 6 12 6ZM12.75 8.75H15C15.4142 8.75 15.75 8.41421 15.75 8C15.75 7.58579 15.4142 7.25 15 7.25H12C7.71979 7.25 4.25 10.7198 4.25 15C4.25 19.2802 7.71979 22.75 12 22.75C14.0916 22.75 15.9901 21.9207 17.3837 20.5748L17.8522 21.3779C17.9866 21.6083 18.2332 21.75 18.5 21.75H20C20.4142 21.75 20.75 21.4142 20.75 21C20.75 20.5858 20.4142 20.25 20 20.25H18.9308L15.6478 14.6221C15.5134 14.3917 15.2668 14.25 15 14.25H12.75V8.75Z" fill="#28303F"/>
</svg>
