<svg width="24" height="24" viewBox="0 0 24 24" fill="none" xmlns="http://www.w3.org/2000/svg">
<path fill-rule="evenodd" clip-rule="evenodd" d="M20 6V11.6115C19.6784 11.5385 19.3437 11.5 19 11.5H18C16.8983 11.5 15.861 12.0187 15.2 12.9L14 14.5C13.5279 15.1295 12.7869 15.5 12 15.5C11.2131 15.5 10.4721 15.1295 10 14.5L8.8 12.9C8.13901 12.0187 7.10165 11.5 6 11.5H5C4.65631 11.5 4.32161 11.5385 4 11.6115V6C4 3.79086 5.79086 2 8 2H16C18.2091 2 20 3.79086 20 6ZM22 16V19C22 20.6569 20.6569 22 19 22H5C3.34315 22 2 20.6569 2 19V16C2 14.3431 3.34315 13 5 13H6C6.62951 13 7.22229 13.2964 7.6 13.8L8.8 15.4C9.55542 16.4072 10.741 17 12 17C13.259 17 14.4446 16.4072 15.2 15.4L16.4 13.8C16.7777 13.2964 17.3705 13 18 13H19C20.6569 13 22 14.3431 22 16Z" fill="#28303F"/>
</svg>
