<svg width="24" height="24" viewBox="0 0 24 24" fill="none" xmlns="http://www.w3.org/2000/svg">
<path fill-rule="evenodd" clip-rule="evenodd" d="M20 11.6115V6C20 3.79086 18.2091 2 16 2H8C5.79086 2 4 3.79086 4 6V11.6115C4.32161 11.5385 4.65631 11.5 5 11.5H6C7.10165 11.5 8.13901 12.0187 8.8 12.9L10 14.5C10.4721 15.1295 11.2131 15.5 12 15.5C12.7869 15.5 13.5279 15.1295 14 14.5L15.2 12.9C15.861 12.0187 16.8983 11.5 18 11.5H19C19.3437 11.5 19.6784 11.5385 20 11.6115ZM9.36501 8.70626L11.2191 11.0239C11.6195 11.5243 12.3805 11.5243 12.7809 11.0239L14.635 8.70626C14.8713 8.41091 15 8.04394 15 7.6657V7.59099C15 6.71231 14.2877 6 13.409 6C12.9871 6 12.5824 6.16762 12.284 6.46599L12 6.75L11.716 6.46599C11.4176 6.16762 11.0129 6 10.591 6C9.71231 6 9 6.71231 9 7.59099V7.6657C9 8.04394 9.12873 8.41091 9.36501 8.70626ZM22 16V19C22 20.6569 20.6569 22 19 22H5C3.34315 22 2 20.6569 2 19V16C2 14.3431 3.34315 13 5 13H6C6.62951 13 7.22229 13.2964 7.6 13.8L8.8 15.4C9.55542 16.4072 10.741 17 12 17C13.259 17 14.4446 16.4072 15.2 15.4L16.4 13.8C16.7777 13.2964 17.3705 13 18 13H19C20.6569 13 22 14.3431 22 16Z" fill="#28303F"/>
</svg>
