<svg width="24" height="24" viewBox="0 0 24 24" fill="none" xmlns="http://www.w3.org/2000/svg">
<path fill-rule="evenodd" clip-rule="evenodd" d="M20 11.6115V6C20 3.79086 18.2091 2 16 2H8C5.79086 2 4 3.79086 4 6V11.6115C4.32161 11.5385 4.65631 11.5 5 11.5H6C7.10165 11.5 8.13901 12.0187 8.8 12.9L10 14.5C10.4721 15.1295 11.2131 15.5 12 15.5C12.7869 15.5 13.5279 15.1295 14 14.5L15.2 12.9C15.861 12.0187 16.8983 11.5 18 11.5H19C19.3437 11.5 19.6784 11.5385 20 11.6115ZM11.25 6.82817C11.2033 6.86325 11.1586 6.90202 11.1161 6.94449L9.53033 8.53027C9.23744 8.82316 8.76256 8.82316 8.46967 8.53027C8.17678 8.23738 8.17678 7.76251 8.46967 7.46961L10.0555 5.88383C11.1294 4.80988 12.8706 4.80988 13.9445 5.88383L15.5303 7.46961C15.8232 7.76251 15.8232 8.23738 15.5303 8.53027C15.2374 8.82316 14.7626 8.82316 14.4697 8.53027L12.8839 6.94449C12.8414 6.90202 12.7967 6.86325 12.75 6.82817V10.9999C12.75 11.4142 12.4142 11.7499 12 11.7499C11.5858 11.7499 11.25 11.4142 11.25 10.9999V6.82817ZM22 16V19C22 20.6569 20.6569 22 19 22H5C3.34315 22 2 20.6569 2 19V16C2 14.3431 3.34315 13 5 13H6C6.62951 13 7.22229 13.2964 7.6 13.8L8.8 15.4C9.55542 16.4072 10.741 17 12 17C13.259 17 14.4446 16.4072 15.2 15.4L16.4 13.8C16.7777 13.2964 17.3705 13 18 13H19C20.6569 13 22 14.3431 22 16Z" fill="#28303F"/>
</svg>
