<svg width="24" height="24" viewBox="0 0 24 24" fill="none" xmlns="http://www.w3.org/2000/svg">
<path fill-rule="evenodd" clip-rule="evenodd" d="M20 11.6115V6C20 3.79086 18.2091 2 16 2H8C5.79086 2 4 3.79086 4 6V11.6115C4.32161 11.5385 4.65631 11.5 5 11.5H6C7.10165 11.5 8.13901 12.0187 8.8 12.9L10 14.5C10.4721 15.1295 11.2131 15.5 12 15.5C12.7869 15.5 13.5279 15.1295 14 14.5L15.2 12.9C15.861 12.0187 16.8983 11.5 18 11.5H19C19.3437 11.5 19.6784 11.5385 20 11.6115ZM14.6516 6.40899C14.9445 6.1161 14.9445 5.64123 14.6516 5.34833C14.3587 5.05544 13.8839 5.05544 13.591 5.34833L12 6.93934L10.409 5.34838C10.1161 5.05548 9.64123 5.05548 9.34834 5.34838C9.05545 5.64127 9.05545 6.11614 9.34834 6.40904L10.9393 8L9.34833 9.59097C9.05544 9.88387 9.05544 10.3587 9.34833 10.6516C9.64123 10.9445 10.1161 10.9445 10.409 10.6516L12 9.06066L13.591 10.6517C13.8839 10.9446 14.3587 10.9446 14.6516 10.6517C14.9445 10.3588 14.9445 9.88391 14.6516 9.59102L13.0606 8L14.6516 6.40899ZM22 16V19C22 20.6569 20.6569 22 19 22H5C3.34315 22 2 20.6569 2 19V16C2 14.3431 3.34315 13 5 13H6C6.62951 13 7.22229 13.2964 7.6 13.8L8.8 15.4C9.55542 16.4072 10.741 17 12 17C13.259 17 14.4446 16.4072 15.2 15.4L16.4 13.8C16.7777 13.2964 17.3705 13 18 13H19C20.6569 13 22 14.3431 22 16Z" fill="#28303F"/>
</svg>
