<svg width="24" height="24" viewBox="0 0 24 24" fill="none" xmlns="http://www.w3.org/2000/svg">
<path fill-rule="evenodd" clip-rule="evenodd" d="M9.75 5C9.75 3.75736 10.7574 2.75 12 2.75C13.2426 2.75 14.25 3.75736 14.25 5V6H9.75V5ZM8.25 6V5C8.25 2.92893 9.92893 1.25 12 1.25C14.0711 1.25 15.75 2.92893 15.75 5V6H14.25V8.5C14.25 8.91421 13.9142 9.25 13.5 9.25C13.0858 9.25 12.75 8.91421 12.75 8.5V8C12.75 7.58579 12.4142 7.25 12 7.25C11.5858 7.25 11.25 7.58579 11.25 8V8.5C11.25 9.74264 12.2574 10.75 13.5 10.75C14.7426 10.75 15.75 9.74264 15.75 8.5V6H16C18.2091 6 20 7.79086 20 10V12.325C20 12.6391 19.9631 12.9494 19.8916 13.25H16C13.3766 13.25 11.25 15.3766 11.25 18L11.25 21.8694C10.9218 21.9554 10.5813 22 10.2363 22H8C5.79086 22 4 20.2091 4 18V10C4 7.79086 5.79086 6 8 6H8.25ZM12.75 21.1115C12.8513 21.0296 12.9491 20.9425 13.0427 20.8503L18.8064 15.1752C18.942 15.0417 19.0671 14.8996 19.1811 14.75H16C14.2051 14.75 12.75 16.2051 12.75 18V21.1115Z" fill="#28303F"/>
</svg>
