<svg width="24" height="24" viewBox="0 0 24 24" fill="none" xmlns="http://www.w3.org/2000/svg">
<path fill-rule="evenodd" clip-rule="evenodd" d="M3 6V18C3 20.2091 4.79086 22 7 22H11.3431C11.6509 22 11.955 21.9645 12.25 21.8959V18C12.25 15.3766 14.3766 13.25 17 13.25H20.8959C20.9645 12.955 21 12.6509 21 12.3431V6C21 3.79086 19.2091 2 17 2H7C4.79086 2 3 3.79086 3 6ZM14.1716 20.8284C14.039 20.961 13.898 21.0833 13.75 21.1949V18C13.75 16.2051 15.2051 14.75 17 14.75H20.1949C20.0833 14.898 19.961 15.039 19.8284 15.1716L14.1716 20.8284ZM9 8.25C8.58579 8.25 8.25 8.58579 8.25 9C8.25 9.41421 8.58579 9.75 9 9.75H15C15.4142 9.75 15.75 9.41421 15.75 9C15.75 8.58579 15.4142 8.25 15 8.25H9Z" fill="#28303F"/>
</svg>
