<svg width="24" height="24" viewBox="0 0 24 24" fill="none" xmlns="http://www.w3.org/2000/svg">
<path fill-rule="evenodd" clip-rule="evenodd" d="M3 18V6C3 3.79086 4.79086 2 7 2H17C19.2091 2 21 3.79086 21 6V12.3431C21 12.6509 20.9645 12.955 20.8959 13.25H17C14.3766 13.25 12.25 15.3766 12.25 18V21.8959C11.955 21.9645 11.6509 22 11.3431 22H7C4.79086 22 3 20.2091 3 18ZM13.75 21.1949C13.898 21.0833 14.039 20.961 14.1716 20.8284L19.8284 15.1716C19.961 15.039 20.0833 14.898 20.1949 14.75H17C15.2051 14.75 13.75 16.2051 13.75 18V21.1949Z" fill="#28303F"/>
</svg>
