<svg width="24" height="24" viewBox="0 0 24 24" fill="none" xmlns="http://www.w3.org/2000/svg">
<path fill-rule="evenodd" clip-rule="evenodd" d="M22 10V17C22 19.2091 20.2091 21 18 21H6C3.79086 21 2 19.2091 2 17V7C2 4.79086 3.79086 3 6 3H8.66667C9.53215 3 10.3743 3.28071 11.0667 3.8L12.9333 5.2C13.6257 5.71929 14.4679 6 15.3333 6H18C20.2091 6 22 7.79086 22 10ZM15 13.75C15.4142 13.75 15.75 13.4142 15.75 13C15.75 12.5858 15.4142 12.25 15 12.25H9C8.58579 12.25 8.25 12.5858 8.25 13C8.25 13.4142 8.58579 13.75 9 13.75H15Z" fill="#28303F"/>
</svg>
