<svg width="24" height="24" viewBox="0 0 24 24" fill="none" xmlns="http://www.w3.org/2000/svg">
<path fill-rule="evenodd" clip-rule="evenodd" d="M22 10V17C22 19.2091 20.2091 21 18 21H6C3.79086 21 2 19.2091 2 17V7C2 4.79086 3.79086 3 6 3H8.66667C9.53215 3 10.3743 3.28071 11.0667 3.8L12.9333 5.2C13.6257 5.71929 14.4679 6 15.3333 6H18C20.2091 6 22 7.79086 22 10ZM11.2495 10.8781C12.0428 10.5984 12.9588 10.7768 13.591 11.409C14.2233 12.0413 14.4017 12.9572 14.1219 13.7506C13.9841 14.1412 14.1891 14.5696 14.5798 14.7073C14.9704 14.8451 15.3987 14.6401 15.5365 14.2495C16.0011 12.9322 15.7076 11.4043 14.6517 10.3484C13.5958 9.29246 12.0679 8.99896 10.7506 9.46354C10.36 9.6013 10.155 10.0297 10.2927 10.4203C10.4305 10.8109 10.8589 11.0159 11.2495 10.8781ZM13.2495 16.5365C13.6401 16.3987 13.8451 15.9704 13.7074 15.5797C13.5696 15.1891 13.1412 14.9841 12.7506 15.1219C11.9573 15.4017 11.0413 15.2233 10.4091 14.591C9.7768 13.9587 9.5984 13.0428 9.87818 12.2495C10.0159 11.8588 9.81095 11.4305 9.42032 11.2927C9.02969 11.155 8.60134 11.3599 8.46358 11.7506C7.999 13.0679 8.29251 14.5958 9.3484 15.6517C10.4043 16.7076 11.9322 17.0011 13.2495 16.5365Z" fill="#28303F"/>
</svg>
