<svg width="24" height="24" viewBox="0 0 24 24" fill="none" xmlns="http://www.w3.org/2000/svg">
<path fill-rule="evenodd" clip-rule="evenodd" d="M17 4C18.4865 4 19.7205 5.08114 19.9585 6.5H4V5C4 3.34315 5.34315 2 7 2H9.56917C10.2372 2 10.8862 2.22298 11.4131 2.6336L12.3535 3.3664C12.8805 3.77702 13.5294 4 14.1975 4H17ZM20.526 8H3.47391C2.20062 8 1.25151 9.17404 1.5183 10.4191L3.32239 18.8381C3.71759 20.6824 5.34745 22 7.2336 22H16.7663C18.6524 22 20.2823 20.6824 20.6775 18.8381L22.4816 10.4191C22.7484 9.17403 21.7992 8 20.526 8ZM15.7499 15C15.7499 15.4142 15.4142 15.75 14.9999 15.75H8.99994C8.58573 15.75 8.24994 15.4142 8.24994 15C8.24994 14.5858 8.58573 14.25 8.99994 14.25H14.9999C15.4142 14.25 15.7499 14.5858 15.7499 15Z" fill="#28303F"/>
</svg>
