<svg width="24" height="24" viewBox="0 0 24 24" fill="none" xmlns="http://www.w3.org/2000/svg">
<path fill-rule="evenodd" clip-rule="evenodd" d="M17 4C18.4865 4 19.7205 5.08114 19.9585 6.5H4V5C4 3.34315 5.34315 2 7 2H9.56917C10.2372 2 10.8862 2.22298 11.4131 2.6336L12.3535 3.3664C12.8805 3.77702 13.5294 4 14.1975 4H17ZM3.47391 8H20.526C21.7992 8 22.7484 9.17403 22.4816 10.4191L20.6775 18.8381C20.2823 20.6824 18.6524 22 16.7663 22H7.2336C5.34745 22 3.71759 20.6824 3.32239 18.8381L1.5183 10.4191C1.25151 9.17404 2.20062 8 3.47391 8Z" fill="#28303F"/>
</svg>
