<svg width="24" height="24" viewBox="0 0 24 24" fill="none" xmlns="http://www.w3.org/2000/svg">
<path fill-rule="evenodd" clip-rule="evenodd" d="M17 4C18.4865 4 19.7205 5.08114 19.9585 6.5H4V5C4 3.34315 5.34315 2 7 2H9.56917C10.2372 2 10.8862 2.22298 11.4131 2.6336L12.3535 3.3664C12.8805 3.77702 13.5294 4 14.1975 4H17ZM20.526 8H3.47391C2.20062 8 1.25151 9.17404 1.5183 10.4191L3.32239 18.8381C3.71759 20.6824 5.34745 22 7.2336 22H16.7663C18.6524 22 20.2823 20.6824 20.6775 18.8381L22.4816 10.4191C22.7484 9.17403 21.7992 8 20.526 8ZM11.25 13.8282C11.2033 13.8632 11.1586 13.902 11.1161 13.9445L9.53033 15.5303C9.23744 15.8232 8.76256 15.8232 8.46967 15.5303C8.17678 15.2374 8.17678 14.7625 8.46967 14.4696L10.0555 12.8838C11.1294 11.8099 12.8706 11.8099 13.9445 12.8838L15.5303 14.4696C15.8232 14.7625 15.8232 15.2374 15.5303 15.5303C15.2374 15.8232 14.7626 15.8232 14.4697 15.5303L12.8839 13.9445C12.8414 13.902 12.7967 13.8632 12.75 13.8282V17.9999C12.75 18.4142 12.4142 18.7499 12 18.7499C11.5858 18.7499 11.25 18.4142 11.25 17.9999V13.8282Z" fill="#28303F"/>
</svg>
