<svg width="24" height="24" viewBox="0 0 24 24" fill="none" xmlns="http://www.w3.org/2000/svg">
<path opacity="0.4" d="M2 12C2 16.4791 4.94479 20.2704 9.00393 21.5434C9.94983 21.8401 10.9562 22 12 22C14.968 22 17.6339 20.707 19.4653 18.6536C21.0419 16.886 22 14.5549 22 12C22 11.4872 21.9614 10.9835 21.887 10.4915C21.4202 7.40643 19.5439 4.78379 16.9352 3.30067C15.4791 2.47281 13.7948 2 12 2C9.53976 2 7.28704 2.88844 5.54515 4.36199C3.37676 6.19634 2 8.93739 2 12Z" fill="#28303F"/>
<path d="M11.1057 9.79859C10.8083 10.4157 10.5302 11.0446 10.2725 11.6845C9.06803 11.4094 7.81626 11.2643 6.53136 11.2643C4.9645 11.2643 3.4454 11.4803 2.00064 11.8854C2.00021 11.9236 2 11.9618 2 12.0001C2 12.4817 2.03405 12.9554 2.09988 13.4189C3.50563 12.9928 4.99243 12.7643 6.53136 12.7643C7.63046 12.7643 8.70385 12.881 9.74062 13.1034C8.85164 15.6623 8.28076 18.3789 8.07732 21.2014C8.37887 21.3301 8.68802 21.4444 9.00393 21.5435C9.18315 21.5997 9.36454 21.651 9.54795 21.6972C9.71812 18.8295 10.2858 16.0746 11.1941 13.4912C14.326 14.4951 17.0474 16.4847 19.0225 19.1194C19.175 18.969 19.3227 18.8136 19.4653 18.6537C19.6626 18.4325 19.8502 18.2025 20.0275 17.9643C17.9062 15.2378 15.0313 13.1633 11.728 12.087C11.9598 11.5209 12.2083 10.964 12.4728 10.417C14.4046 11.1893 16.504 11.6132 18.7001 11.6132C19.8193 11.6132 20.9143 11.5029 21.9753 11.2922C21.9565 11.0222 21.9269 10.7552 21.887 10.4916C21.852 10.2603 21.8091 10.0316 21.7585 9.80581C20.7694 10.0074 19.7469 10.1132 18.7001 10.1132C16.7539 10.1132 14.8882 9.74717 13.1637 9.07665C14.2849 7.03169 15.6366 5.1419 17.1817 3.44555C17.1003 3.39614 17.0181 3.34786 16.9352 3.30073C16.5688 3.09242 16.188 2.90659 15.7945 2.74512C14.2583 4.47883 12.912 6.39683 11.7896 8.46341C9.62368 7.36731 7.73173 5.77118 6.2525 3.81574C6.00847 3.98744 5.77246 4.16976 5.54515 4.36206C5.39027 4.49308 5.23943 4.62872 5.09284 4.76878C6.6994 6.87738 8.75257 8.60604 11.1057 9.79859Z" fill="#28303F"/>
</svg>
