<svg width="24" height="24" viewBox="0 0 24 24" fill="none" xmlns="http://www.w3.org/2000/svg">
<path d="M12 3H15C16.6569 3 18 4.34315 18 6V6C18 7.65685 16.6569 9 15 9H12V3Z" fill="#28303F"/>
<path opacity="0.4" d="M6 6C6 4.34315 7.34315 3 9 3L12 3V9H9C7.34315 9 6 7.65685 6 6V6Z" fill="#28303F"/>
<path d="M6 12C6 10.3431 7.34315 9 9 9H12V15H9C7.34315 15 6 13.6569 6 12V12Z" fill="#28303F"/>
<path opacity="0.4" d="M6 18C6 16.3431 7.34315 15 9 15H12V18C12 19.6569 10.6569 21 9 21V21C7.34315 21 6 19.6569 6 18V18Z" fill="#28303F"/>
<circle opacity="0.4" cx="15" cy="12" r="3" fill="#28303F"/>
</svg>
