<svg width="24" height="24" viewBox="0 0 24 24" fill="none" xmlns="http://www.w3.org/2000/svg">
<path fill-rule="evenodd" clip-rule="evenodd" d="M19.25 14C19.25 14.4142 19.5858 14.75 20 14.75C20.4142 14.75 20.75 14.4142 20.75 14V12.75H22C22.4142 12.75 22.75 12.4142 22.75 12C22.75 11.5858 22.4142 11.25 22 11.25H20.75V10C20.75 9.58579 20.4142 9.25 20 9.25C19.5858 9.25 19.25 9.58579 19.25 10L19.25 11.25H18C17.5858 11.25 17.25 11.5858 17.25 12C17.25 12.4142 17.5858 12.75 18 12.75H19.25L19.25 14Z" fill="#28303F"/>
<path opacity="0.4" d="M9 19C12.866 19 16 15.866 16 12L15.9999 11.9628C15.9969 11.3784 15.4895 10.95 14.9051 10.95L10.05 10.95C9.4701 10.95 9 11.4201 9 12C9 12.5799 9.4701 13.05 10.05 13.05H13.7872C13.3066 15.2516 11.3458 16.9 9 16.9C6.2938 16.9 4.1 14.7062 4.1 12C4.1 9.2938 6.2938 7.1 9 7.1C9.97598 7.1 10.8853 7.38534 11.6491 7.87714C12.1367 8.19108 12.7972 8.20276 13.2073 7.79271C13.6173 7.38266 13.6212 6.71033 13.1548 6.36579C11.9927 5.50743 10.5556 5 9 5C5.13401 5 2 8.13401 2 12C2 15.866 5.13401 19 9 19Z" fill="#28303F"/>
</svg>
