<svg width="24" height="24" viewBox="0 0 24 24" fill="none" xmlns="http://www.w3.org/2000/svg">
<path opacity="0.4" d="M12 22C16.9706 22 21 15.9706 21 11C21 6.02944 16.9706 2 12 2C7.02944 2 3 6.02944 3 11C3 15.9706 7.02944 20 12 20V22Z" fill="#28303F"/>
<path d="M13.5 10C13.5 9.44772 13.9477 9 14.5 9H15.5C16.0523 9 16.5 9.44772 16.5 10V12C16.5 12.5678 16.1845 13.062 15.7192 13.3166C15.3559 13.5155 15 13.1642 15 12.75V12.75C15 12.3358 14.6642 12 14.25 12C13.8358 12 13.5 11.6642 13.5 11.25V10Z" fill="#28303F"/>
<path d="M7.5 10C7.5 9.44772 7.94772 9 8.5 9H9.5C10.0523 9 10.5 9.44772 10.5 10V12C10.5 12.5678 10.1845 13.062 9.71923 13.3166C9.35589 13.5155 9 13.1642 9 12.75V12.75C9 12.3358 8.66421 12 8.25 12C7.83579 12 7.5 11.6642 7.5 11.25V10Z" fill="#28303F"/>
</svg>
