<svg width="24" height="24" viewBox="0 0 24 24" fill="none" xmlns="http://www.w3.org/2000/svg">
<path opacity="0.4" d="M12 4.39996C8.95541 4.39996 6.52632 6.69717 6.52632 9.4856C6.52632 9.67086 6.53693 9.8537 6.55763 10.0337C6.62187 10.5921 6.37986 11.174 5.86588 11.4015C5.10662 11.7377 4.20465 11.3679 4.07995 10.547C4.02726 10.2001 4 9.84575 4 9.4856C4 5.33112 7.60328 2 12 2C16.3967 2 20 5.33112 20 9.4856C20 13.6401 16.3967 16.9712 12 16.9712C11.5053 16.9712 11.0203 16.929 10.5492 16.8482L9.16595 21.1503C8.96216 21.7841 8.25608 22.1409 7.58889 21.9473C6.9217 21.7537 6.54604 21.083 6.74984 20.4492L10.7919 7.87792C10.9957 7.2441 11.7018 6.88723 12.369 7.08084C13.0362 7.27444 13.4119 7.9452 13.2081 8.57902L11.2948 14.5295C11.5253 14.557 11.7607 14.5712 12 14.5712C15.0446 14.5712 17.4737 12.274 17.4737 9.4856C17.4737 6.69717 15.0446 4.39996 12 4.39996Z" fill="#28303F"/>
<path d="M12 4.39996C8.95541 4.39996 6.52632 6.69717 6.52632 9.4856C6.52632 9.67086 6.53693 9.8537 6.55763 10.0337C6.62187 10.5921 6.37986 11.174 5.86588 11.4015C5.10662 11.7377 4.20465 11.3679 4.07995 10.547C4.02726 10.2001 4 9.84575 4 9.4856C4 5.33112 7.60328 2 12 2C16.3967 2 20 5.33112 20 9.4856C20 13.6401 16.3967 16.9712 12 16.9712C11.5053 16.9712 11.0203 16.929 10.5492 16.8482L11.2948 14.5295C11.5253 14.557 11.7607 14.5712 12 14.5712C15.0446 14.5712 17.4737 12.274 17.4737 9.4856C17.4737 6.69717 15.0446 4.39996 12 4.39996Z" fill="#28303F"/>
</svg>
