<svg width="24" height="24" viewBox="0 0 24 24" fill="none" xmlns="http://www.w3.org/2000/svg">
<circle opacity="0.4" cx="12" cy="12" r="10" fill="#28303F"/>
<path fill-rule="evenodd" clip-rule="evenodd" d="M12 7.75C9.65279 7.75 7.75 9.65279 7.75 12C7.75 12.7754 7.95695 13.5001 8.31812 14.1245C8.52552 14.483 8.403 14.9418 8.04446 15.1492C7.68591 15.3566 7.22711 15.2341 7.01971 14.8755C6.53003 14.029 6.25 13.0461 6.25 12C6.25 8.82436 8.82436 6.25 12 6.25C15.1756 6.25 17.75 8.82436 17.75 12C17.75 15.1756 15.1756 17.75 12 17.75C11.5434 17.75 11.0985 17.6966 10.6717 17.5956L9.59415 21.6908C9.48875 22.0914 9.07858 22.3307 8.678 22.2253C8.27742 22.1199 8.03813 21.7097 8.14353 21.3092L10.7747 11.3092C10.8801 10.9086 11.2903 10.6693 11.6908 10.7747C12.0914 10.8801 12.3307 11.2903 12.2253 11.6908L11.0535 16.1444C11.3574 16.2135 11.6741 16.25 12 16.25C14.3472 16.25 16.25 14.3472 16.25 12C16.25 9.65279 14.3472 7.75 12 7.75Z" fill="#28303F"/>
</svg>
