<svg width="24" height="24" viewBox="0 0 24 24" fill="none" xmlns="http://www.w3.org/2000/svg">
<path opacity="0.4" d="M4 12C4 16.4183 7.58172 20 12 20C12.3241 20 12.6437 19.9807 12.9576 19.9433C13.8669 21.1899 15.3389 22 17 22C19.7614 22 22 19.7614 22 17C22 15.3389 21.1899 13.8669 19.9433 12.9576C19.9807 12.6437 20 12.3241 20 12C20 7.58172 16.4183 4 12 4C11.6759 4 11.3563 4.01927 11.0424 4.05673C10.1331 2.81007 8.66115 2 7 2C4.23858 2 2 4.23858 2 7C2 8.66115 2.81007 10.1331 4.05673 11.0424C4.01927 11.3563 4 11.6759 4 12Z" fill="#28303F"/>
<path fill-rule="evenodd" clip-rule="evenodd" d="M8.75 10C8.75 8.48122 9.98122 7.25 11.5 7.25H12.5C14.0188 7.25 15.25 8.48122 15.25 10C15.25 10.4142 14.9142 10.75 14.5 10.75C14.0858 10.75 13.75 10.4142 13.75 10C13.75 9.30964 13.1904 8.75 12.5 8.75H11.5C10.8096 8.75 10.25 9.30964 10.25 10C10.25 10.6904 10.8096 11.25 11.5 11.25H12.5C14.0188 11.25 15.25 12.4812 15.25 14C15.25 15.5188 14.0188 16.75 12.5 16.75H11.5C9.98122 16.75 8.75 15.5188 8.75 14C8.75 13.5858 9.08579 13.25 9.5 13.25C9.91421 13.25 10.25 13.5858 10.25 14C10.25 14.6904 10.8096 15.25 11.5 15.25H12.5C13.1904 15.25 13.75 14.6904 13.75 14C13.75 13.3096 13.1904 12.75 12.5 12.75H11.5C9.98122 12.75 8.75 11.5188 8.75 10Z" fill="#28303F"/>
</svg>
