<svg width="24" height="24" viewBox="0 0 24 24" fill="none" xmlns="http://www.w3.org/2000/svg">
<path opacity="0.4" d="M12.6301 4.23633C12.6301 3.13176 13.5256 2.23633 14.6301 2.23633V2.23633C15.7347 2.23633 16.6301 3.13176 16.6301 4.23633V9.23633C16.6301 10.3409 15.7347 11.2363 14.6301 11.2363V11.2363C13.5256 11.2363 12.6301 10.3409 12.6301 9.23633V4.23633Z" fill="#28303F"/>
<path d="M21.8416 9.23633C21.8416 10.3409 20.9461 11.2363 19.8416 11.2363H17.8416V9.23633C17.8416 8.13176 18.737 7.23633 19.8416 7.23633C20.9461 7.23633 21.8416 8.13176 21.8416 9.23633Z" fill="#28303F"/>
<path d="M16.6301 19.8618C16.6301 18.7572 15.7347 17.8618 14.6301 17.8618H12.6301V19.8618C12.6301 20.9664 13.5256 21.8618 14.6301 21.8618C15.7347 21.8618 16.6301 20.9664 16.6301 19.8618Z" fill="#28303F"/>
<path d="M7.31885 4.13818C7.31885 5.24275 8.21428 6.13818 9.31885 6.13818H11.3188V4.13818C11.3188 3.03361 10.4234 2.13818 9.31885 2.13818C8.21428 2.13818 7.31885 3.03361 7.31885 4.13818Z" fill="#28303F"/>
<path d="M2.14893 14.6367C2.14893 13.5321 3.04436 12.6367 4.14893 12.6367H6.14893V14.6367C6.14893 15.7413 5.2535 16.6367 4.14893 16.6367C3.04436 16.6367 2.14893 15.7413 2.14893 14.6367Z" fill="#28303F"/>
<path opacity="0.4" d="M7.28906 14.6367C7.28906 13.5321 8.18449 12.6367 9.28906 12.6367V12.6367C10.3936 12.6367 11.2891 13.5321 11.2891 14.6367V19.862C11.2891 20.9666 10.3936 21.862 9.28906 21.862V21.862C8.18449 21.862 7.28906 20.9666 7.28906 19.862V14.6367Z" fill="#28303F"/>
<path opacity="0.4" d="M9.41919 7.23633C10.5238 7.23633 11.4192 8.13176 11.4192 9.23633V9.23633C11.4192 10.3409 10.5238 11.2363 9.41919 11.2363L4.14891 11.2363C3.04434 11.2363 2.14891 10.3409 2.14891 9.23633V9.23633C2.14891 8.13176 3.04434 7.23633 4.14891 7.23633L9.41919 7.23633Z" fill="#28303F"/>
<path opacity="0.4" d="M19.8416 12.6367C20.9461 12.6367 21.8416 13.5321 21.8416 14.6367V14.6367C21.8416 15.7413 20.9461 16.6367 19.8416 16.6367L14.6301 16.6367C13.5256 16.6367 12.6301 15.7413 12.6301 14.6367V14.6367C12.6301 13.5321 13.5256 12.6367 14.6301 12.6367L19.8416 12.6367Z" fill="#28303F"/>
</svg>
