<svg width="24" height="24" viewBox="0 0 24 24" fill="none" xmlns="http://www.w3.org/2000/svg">
<path opacity="0.4" d="M22 17C20.8979 17 20.1559 17 19.6353 17.5886C19.0274 18.2761 18.3562 19 17.4384 19H16.6667C16.2339 19 15.8129 19.1404 15.4667 19.4L14.4 20.2C12.9778 21.2667 11.0222 21.2667 9.60001 20.2L8.53333 19.4C8.18714 19.1404 7.76608 19 7.33334 19L6.56154 19C5.64381 19 4.97263 18.2761 4.36467 17.5886C3.84415 17 3.10208 17 2 17L4.39999 15.2C5.40722 14.4446 6 13.259 6 12V11.5L5.49999 11.5C4.67157 11.5 4 10.8284 4 10C4 9.17157 4.67158 8.49999 5.50001 8.49999H6V8C6 4.68629 8.6863 2 12 2C15.3137 2 18 4.68629 18 8V8.49999H18.5C19.3284 8.49999 20 9.17157 20 10C20 10.8284 19.3284 11.5 18.5 11.5L18 11.5V12C18 13.259 18.5928 14.4446 19.6 15.2L22 17Z" fill="#28303F"/>
<path d="M5.49999 11.5L6 11.5V8.5H5.50001C4.67158 8.5 4 9.17158 4 10C4 10.8284 4.67157 11.5 5.49999 11.5Z" fill="#28303F"/>
<path d="M18.5 8.5H18V11.5L18.5 11.5C19.3284 11.5 20 10.8284 20 10C20 9.17158 19.3284 8.5 18.5 8.5Z" fill="#28303F"/>
</svg>
