<svg width="24" height="24" viewBox="0 0 24 24" fill="none" xmlns="http://www.w3.org/2000/svg">
<circle opacity="0.4" cx="12" cy="12" r="10" fill="#28303F"/>
<path fill-rule="evenodd" clip-rule="evenodd" d="M11.5459 9.12393C9.36206 9.00192 7.38562 9.2537 6.27874 9.69644C5.89415 9.85027 5.45767 9.66321 5.30384 9.27862C5.15001 8.89403 5.33707 8.45756 5.72166 8.30372C7.11478 7.74648 9.33834 7.49826 11.6295 7.62626C13.9306 7.75482 16.4296 8.26957 18.3644 9.34448C18.7265 9.54564 18.857 10.0022 18.6558 10.3643C18.4547 10.7264 17.9981 10.8569 17.636 10.6557C15.9708 9.73063 13.7198 9.24538 11.5459 9.12393ZM11.0014 12.3122C9.09383 12.2516 7.45302 12.4973 6.71571 12.7185C6.31897 12.8375 5.90085 12.6123 5.78183 12.2156C5.66281 11.8189 5.88794 11.4007 6.28469 11.2817C7.21405 11.0029 9.02323 10.7486 11.049 10.813C13.0765 10.8774 15.4187 11.2635 17.3644 12.3445C17.7265 12.5457 17.857 13.0023 17.6558 13.3643C17.4547 13.7264 16.9981 13.8569 16.636 13.6557C14.9817 12.7367 12.9072 12.3728 11.0014 12.3122ZM15.636 16.6557C12.2748 14.7884 8.26905 15.2525 6.71571 15.7185C6.31897 15.8375 5.90085 15.6124 5.78183 15.2156C5.66281 14.8189 5.88794 14.4008 6.28469 14.2817C8.06468 13.7477 12.5256 13.2118 16.3644 15.3445C16.7265 15.5456 16.857 16.0022 16.6558 16.3643C16.4547 16.7264 15.9981 16.8569 15.636 16.6557Z" fill="#28303F"/>
</svg>
