<svg width="24" height="24" viewBox="0 0 24 24" fill="none" xmlns="http://www.w3.org/2000/svg">
<path opacity="0.4" d="M10 21C13.3137 21 16 18.3137 16 15V8.19731C16.8825 8.70782 17.9071 9 19 9H20V6H19C17.3431 6 16 4.65685 16 3H13V15C13 16.6569 11.6569 18 10 18C8.34315 18 7 16.6569 7 15C7 13.3431 8.34315 12 10 12V9C6.68629 9 4 11.6863 4 15C4 18.3137 6.68629 21 10 21Z" fill="#28303F"/>
<path d="M16 3C16 4.65685 17.3431 6 19 6H20V9H19C17.9071 9 16.8825 8.70782 16 8.19731V3Z" fill="#28303F"/>
</svg>
