<svg width="24" height="24" viewBox="0 0 24 24" fill="none" xmlns="http://www.w3.org/2000/svg">
<path opacity="0.4" d="M15.2861 4C13.1822 4 11.4767 5.79086 11.4767 8C11.4767 8.33382 11.5157 8.65809 11.589 8.96808C9.56611 8.96808 6.51914 8.55908 3.97444 6.00961C3.63605 5.67059 3.01208 5.89726 3.03556 6.37568C3.41268 14.0627 6.70477 16.3049 8.4001 16.4444C7.30535 17.5257 5.7151 18.3791 4.11489 18.7622C3.69256 18.8633 3.58824 19.3256 4.0012 19.4599C5.14623 19.8323 6.78516 19.9758 7.66735 20C13.9082 20 18.9806 14.7471 19.0935 8.22229C19.9129 7.68945 20.4377 6.5325 20.7326 5.71291C20.8044 5.5133 20.4773 5.28073 20.2815 5.36226C19.6694 5.61708 18.8923 5.67749 18.2304 5.46181C17.5318 4.56927 16.4722 4 15.2861 4Z" fill="#28303F"/>
</svg>
