<svg width="24" height="24" viewBox="0 0 24 24" fill="none" xmlns="http://www.w3.org/2000/svg">
<path opacity="0.4" d="M12 22C17.5228 22 22 17.5228 22 12C22 6.47715 17.5228 2 12 2C6.47715 2 2 6.47715 2 12C2 13.5114 2.33532 14.9446 2.93562 16.229L2.22299 20.6245C2.11347 21.3 2.69951 21.8834 3.3745 21.7709L7.72982 21.045C9.0248 21.6575 10.4724 22 12 22Z" fill="#28303F"/>
<path d="M16 15.1111V14.6749C16 14.1331 15.6701 13.6458 15.167 13.4446L14.7005 13.258C14.3008 13.0981 13.8582 13.1935 13.5602 13.473C13.3958 13.6272 13.1803 13.7456 12.9672 13.6719C12.5661 13.5332 11.9039 13.2373 11.3333 12.6667C10.7627 12.0961 10.4668 11.4339 10.3281 11.0328C10.2544 10.8197 10.3728 10.6042 10.527 10.4398C10.8065 10.1418 10.9019 9.69923 10.742 9.29949L10.5554 8.83296C10.3542 8.32988 9.86693 8 9.32509 8H8.88889C8.39797 8 8 8.39797 8 8.88889C8 12.8162 11.1838 16 15.1111 16C15.602 16 16 15.602 16 15.1111Z" fill="#28303F"/>
</svg>
