<svg width="24" height="24" viewBox="0 0 24 24" fill="none" xmlns="http://www.w3.org/2000/svg">
<path fill-rule="evenodd" clip-rule="evenodd" d="M17.0317 1.5C17.0317 1.08579 16.696 0.75 16.2817 0.75C15.8675 0.75 15.5317 1.08579 15.5317 1.5V3H9.03174V1.5C9.03174 1.08579 8.69595 0.75 8.28174 0.75C7.86752 0.75 7.53174 1.08579 7.53174 1.5V3H7.28174C5.0726 3 3.28174 4.79086 3.28174 7V17.5C3.28174 19.7091 5.0726 21.5 7.28174 21.5H17.2817C19.4909 21.5 21.2817 19.7091 21.2817 17.5V7C21.2817 4.79086 19.4909 3 17.2817 3H17.0317V1.5ZM12.2817 10.25C11.0391 10.25 10.0317 11.2574 10.0317 12.5C10.0317 13.7426 11.0391 14.75 12.2817 14.75C13.5244 14.75 14.5317 13.7426 14.5317 12.5C14.5317 11.2574 13.5244 10.25 12.2817 10.25ZM8.53174 12.5C8.53174 10.4289 10.2107 8.75 12.2817 8.75C14.3528 8.75 16.0317 10.4289 16.0317 12.5C16.0317 13.2643 15.8031 13.9752 15.4104 14.568L16.3121 15.4697C16.605 15.7626 16.605 16.2374 16.3121 16.5303C16.0192 16.8232 15.5443 16.8232 15.2514 16.5303L14.3498 15.6287C13.757 16.0213 13.0461 16.25 12.2817 16.25C10.2107 16.25 8.53174 14.5711 8.53174 12.5Z" fill="#28303F"/>
</svg>
