<svg width="24" height="24" viewBox="0 0 24 24" fill="none" xmlns="http://www.w3.org/2000/svg">
<path fill-rule="evenodd" clip-rule="evenodd" d="M17.0317 1.5C17.0317 1.08579 16.696 0.75 16.2817 0.75C15.8675 0.75 15.5317 1.08579 15.5317 1.5V3H9.03174V1.5C9.03174 1.08579 8.69595 0.75 8.28174 0.75C7.86752 0.75 7.53174 1.08579 7.53174 1.5V3H7.28174C5.0726 3 3.28174 4.79086 3.28174 7V17.5C3.28174 19.7091 5.0726 21.5 7.28174 21.5H17.2817C19.4909 21.5 21.2817 19.7091 21.2817 17.5V7C21.2817 4.79086 19.4909 3 17.2817 3H17.0317V1.5ZM7.28174 7.75C6.86752 7.75 6.53174 8.08579 6.53174 8.5C6.53174 8.91421 6.86752 9.25 7.28174 9.25H17.2817C17.696 9.25 18.0317 8.91421 18.0317 8.5C18.0317 8.08579 17.696 7.75 17.2817 7.75H7.28174ZM6.53174 12.5C6.53174 12.0858 6.86752 11.75 7.28174 11.75H17.2817C17.696 11.75 18.0317 12.0858 18.0317 12.5C18.0317 12.9142 17.696 13.25 17.2817 13.25H7.28174C6.86752 13.25 6.53174 12.9142 6.53174 12.5ZM7.28174 15.75C6.86752 15.75 6.53174 16.0858 6.53174 16.5C6.53174 16.9142 6.86752 17.25 7.28174 17.25H12.2817C12.696 17.25 13.0317 16.9142 13.0317 16.5C13.0317 16.0858 12.696 15.75 12.2817 15.75H7.28174Z" fill="#28303F"/>
</svg>
