<svg width="24" height="24" viewBox="0 0 24 24" fill="none" xmlns="http://www.w3.org/2000/svg">
<path fill-rule="evenodd" clip-rule="evenodd" d="M17.0317 1.5C17.0317 1.08579 16.696 0.75 16.2817 0.75C15.8675 0.75 15.5317 1.08579 15.5317 1.5V3H9.03174V1.5C9.03174 1.08579 8.69595 0.75 8.28174 0.75C7.86752 0.75 7.53174 1.08579 7.53174 1.5V3H7.28174C5.0726 3 3.28174 4.79086 3.28174 7V17.5C3.28174 19.7091 5.0726 21.5 7.28174 21.5H17.2817C19.4909 21.5 21.2817 19.7091 21.2817 17.5V7C21.2817 4.79086 19.4909 3 17.2817 3H17.0317V1.5ZM12.3064 10.6405L12.5359 10.3992C13.1697 9.73313 14.1973 9.73313 14.8311 10.3992C15.4648 11.0654 15.4648 12.1453 14.8311 12.8114L13.2245 14.5C12.7174 15.0329 11.8954 15.0329 11.3883 14.5L9.78174 12.8114C9.14795 12.1453 9.14795 11.0654 9.78174 10.3992C10.4155 9.73313 11.4431 9.73313 12.0769 10.3992L12.3064 10.6405Z" fill="#28303F"/>
</svg>
