<svg width="24" height="24" viewBox="0 0 24 24" fill="none" xmlns="http://www.w3.org/2000/svg">
<path fill-rule="evenodd" clip-rule="evenodd" d="M17.0317 1.5C17.0317 1.08579 16.696 0.75 16.2817 0.75C15.8675 0.75 15.5317 1.08579 15.5317 1.5V3H9.03174V1.5C9.03174 1.08579 8.69595 0.75 8.28174 0.75C7.86752 0.75 7.53174 1.08579 7.53174 1.5V3H7.28174C5.0726 3 3.28174 4.79086 3.28174 7V17.5C3.28174 19.7091 5.0726 21.5 7.28174 21.5H17.2817C19.4909 21.5 21.2817 19.7091 21.2817 17.5V7C21.2817 4.79086 19.4909 3 17.2817 3H17.0317V1.5ZM10.8121 12.9696L11.5317 13.6892V9.49991C11.5317 9.08569 11.8675 8.74991 12.2817 8.74991C12.696 8.74991 13.0317 9.08569 13.0317 9.49991V13.6892L13.7514 12.9696C14.0443 12.6767 14.5192 12.6767 14.8121 12.9696C15.105 13.2625 15.105 13.7373 14.8121 14.0302L13.5192 15.3231C12.8358 16.0065 11.7277 16.0065 11.0443 15.3231L9.75141 14.0302C9.45852 13.7373 9.45852 13.2625 9.75141 12.9696C10.0443 12.6767 10.5192 12.6767 10.8121 12.9696Z" fill="#28303F"/>
</svg>
