<svg width="24" height="24" viewBox="0 0 24 24" fill="none" xmlns="http://www.w3.org/2000/svg">
<path d="M18.4244 12.9902C19.0781 12.3366 20.1379 12.3366 20.7915 12.9902C21.4452 13.6439 21.4452 14.7037 20.7915 15.3573L15.7767 20.3721C15.656 20.4928 15.5066 20.5806 15.3425 20.6274L13.1461 21.2536C12.7691 21.3611 12.4207 21.0127 12.5281 20.6357L13.1543 18.4392C13.2011 18.2751 13.289 18.1257 13.4096 18.005L18.4244 12.9902Z" fill="#28303F"/>
<path fill-rule="evenodd" clip-rule="evenodd" d="M9.03174 1.5C9.03174 1.08579 8.69595 0.75 8.28174 0.75C7.86752 0.75 7.53174 1.08579 7.53174 1.5V3H7.28174C5.0726 3 3.28174 4.79086 3.28174 7V17.5C3.28174 19.7091 5.0726 21.5 7.28174 21.5H7.86752C8.13274 21.5 8.3871 21.3946 8.57463 21.2071L20.9888 8.79289C21.1764 8.60536 21.2817 8.351 21.2817 8.08579V7C21.2817 4.79086 19.4909 3 17.2817 3H17.0317V1.5C17.0317 1.08579 16.696 0.75 16.2817 0.75C15.8675 0.75 15.5317 1.08579 15.5317 1.5V3H9.03174V1.5ZM14.8738 9.96049C15.1281 9.63353 15.0692 9.16232 14.7422 8.90802C14.4152 8.65372 13.944 8.71262 13.6897 9.03958L12.0161 11.1914C11.927 11.306 11.7594 11.3209 11.6515 11.2238L10.7835 10.4426C10.4756 10.1655 10.0014 10.1904 9.72427 10.4983C9.44718 10.8062 9.47214 11.2804 9.78002 11.5575L10.648 12.3387C11.4032 13.0183 12.5764 12.9143 13.2001 12.1123L14.8738 9.96049Z" fill="#28303F"/>
</svg>
