<svg width="24" height="24" viewBox="0 0 24 24" fill="none" xmlns="http://www.w3.org/2000/svg">
<path d="M18.4244 12.9902C19.0781 12.3366 20.1379 12.3366 20.7915 12.9902C21.4452 13.6439 21.4452 14.7037 20.7915 15.3573L15.7767 20.3721C15.656 20.4928 15.5066 20.5806 15.3425 20.6274L13.1461 21.2536C12.7691 21.3611 12.4207 21.0127 12.5281 20.6357L13.1543 18.4392C13.2011 18.2751 13.289 18.1257 13.4096 18.005L18.4244 12.9902Z" fill="#28303F"/>
<path fill-rule="evenodd" clip-rule="evenodd" d="M9.03174 1.5C9.03174 1.08579 8.69595 0.75 8.28174 0.75C7.86752 0.75 7.53174 1.08579 7.53174 1.5V3H7.28174C5.0726 3 3.28174 4.79086 3.28174 7V17.5C3.28174 19.7091 5.0726 21.5 7.28174 21.5H7.86752C8.13274 21.5 8.3871 21.3946 8.57463 21.2071L20.9888 8.79289C21.1764 8.60536 21.2817 8.351 21.2817 8.08579V7C21.2817 4.79086 19.4909 3 17.2817 3H17.0317V1.5C17.0317 1.08579 16.696 0.75 16.2817 0.75C15.8675 0.75 15.5317 1.08579 15.5317 1.5V3H9.03174V1.5ZM12.2817 7.75C12.696 7.75 13.0317 8.08579 13.0317 8.5V9.75H14.2817C14.696 9.75 15.0317 10.0858 15.0317 10.5C15.0317 10.9142 14.696 11.25 14.2817 11.25H13.0317V12.5C13.0317 12.9142 12.696 13.25 12.2817 13.25C11.8675 13.25 11.5317 12.9142 11.5317 12.5V11.25H10.2817C9.86752 11.25 9.53174 10.9142 9.53174 10.5C9.53174 10.0858 9.86752 9.75 10.2817 9.75H11.5317V8.5C11.5317 8.08579 11.8675 7.75 12.2817 7.75Z" fill="#28303F"/>
</svg>
