<svg width="24" height="24" viewBox="0 0 24 24" fill="none" xmlns="http://www.w3.org/2000/svg">
<path fill-rule="evenodd" clip-rule="evenodd" d="M17.0317 1.5C17.0317 1.08579 16.696 0.75 16.2817 0.75C15.8675 0.75 15.5317 1.08579 15.5317 1.5V3H9.03174V1.5C9.03174 1.08579 8.69595 0.75 8.28174 0.75C7.86752 0.75 7.53174 1.08579 7.53174 1.5V3H7.28174C5.0726 3 3.28174 4.79086 3.28174 7V17.5C3.28174 19.7091 5.0726 21.5 7.28174 21.5H17.2817C19.4909 21.5 21.2817 19.7091 21.2817 17.5V7C21.2817 4.79086 19.4909 3 17.2817 3H17.0317V1.5ZM13.7514 12.0302L13.0317 11.3105V15.4998C13.0317 15.9141 12.696 16.2498 12.2817 16.2498C11.8675 16.2498 11.5317 15.9141 11.5317 15.4998V11.3105L10.8121 12.0302C10.5192 12.3231 10.0443 12.3231 9.75141 12.0302C9.45852 11.7373 9.45852 11.2624 9.75141 10.9695L11.0443 9.67663C11.7277 8.99321 12.8358 8.99321 13.5192 9.67663L14.8121 10.9695C15.105 11.2624 15.105 11.7373 14.8121 12.0302C14.5192 12.3231 14.0443 12.3231 13.7514 12.0302Z" fill="#28303F"/>
</svg>
