<svg width="24" height="24" viewBox="0 0 24 24" fill="none" xmlns="http://www.w3.org/2000/svg">
<path fill-rule="evenodd" clip-rule="evenodd" d="M17.0317 1.5C17.0317 1.08579 16.696 0.75 16.2817 0.75C15.8675 0.75 15.5317 1.08579 15.5317 1.5V3H9.03174V1.5C9.03174 1.08579 8.69595 0.75 8.28174 0.75C7.86752 0.75 7.53174 1.08579 7.53174 1.5V3H7.28174C5.0726 3 3.28174 4.79086 3.28174 7V17.5C3.28174 19.7091 5.0726 21.5 7.28174 21.5H17.2817C19.4909 21.5 21.2817 19.7091 21.2817 17.5V7C21.2817 4.79086 19.4909 3 17.2817 3H17.0317V1.5ZM15.8462 10.9939C16.119 10.6822 16.0874 10.2083 15.7756 9.93558C15.4639 9.66282 14.9901 9.6944 14.7173 10.0061L11.8474 13.286C11.7593 13.3867 11.6076 13.4002 11.5031 13.3166L9.75029 11.9144C9.42684 11.6556 8.95487 11.708 8.69611 12.0315C8.43736 12.3549 8.4898 12.8269 8.81324 13.0857L10.5661 14.4879C11.2974 15.0729 12.3596 14.9786 12.9763 14.2738L15.8462 10.9939Z" fill="#28303F"/>
</svg>
