<svg width="24" height="24" viewBox="0 0 24 24" fill="none" xmlns="http://www.w3.org/2000/svg">
<path d="M18.4244 12.9902C19.0781 12.3366 20.1379 12.3366 20.7915 12.9902C21.4452 13.6439 21.4452 14.7037 20.7915 15.3573L15.7767 20.3721C15.656 20.4928 15.5066 20.5806 15.3425 20.6274L13.1461 21.2536C12.7691 21.3611 12.4207 21.0127 12.5281 20.6357L13.1543 18.4392C13.2011 18.2751 13.289 18.1257 13.4096 18.005L18.4244 12.9902Z" fill="#28303F"/>
<path fill-rule="evenodd" clip-rule="evenodd" d="M9.03174 1.5C9.03174 1.08579 8.69595 0.75 8.28174 0.75C7.86752 0.75 7.53174 1.08579 7.53174 1.5V3H7.28174C5.0726 3 3.28174 4.79086 3.28174 7V17.5C3.28174 19.7091 5.0726 21.5 7.28174 21.5H7.86752C8.13274 21.5 8.3871 21.3946 8.57463 21.2071L20.9888 8.79289C21.1764 8.60536 21.2817 8.351 21.2817 8.08579V7C21.2817 4.79086 19.4909 3 17.2817 3H17.0317V1.5C17.0317 1.08579 16.696 0.75 16.2817 0.75C15.8675 0.75 15.5317 1.08579 15.5317 1.5V3H9.03174V1.5ZM14.2263 9.61602C14.5192 9.32313 14.5192 8.84826 14.2263 8.55536C13.9334 8.26247 13.4585 8.26247 13.1657 8.55536L12.2818 9.43925L11.3979 8.55536C11.105 8.26247 10.6301 8.26247 10.3372 8.55536C10.0443 8.84826 10.0443 9.32313 10.3372 9.61602L11.2211 10.4999L10.3372 11.3838C10.0443 11.6767 10.0443 12.1516 10.3372 12.4445C10.6301 12.7373 11.105 12.7373 11.3979 12.4445L12.2818 11.5606L13.1657 12.4445C13.4585 12.7373 13.9334 12.7373 14.2263 12.4445C14.5192 12.1516 14.5192 11.6767 14.2263 11.3838L13.3424 10.4999L14.2263 9.61602Z" fill="#28303F"/>
</svg>
