<svg width="24" height="24" viewBox="0 0 24 24" fill="none" xmlns="http://www.w3.org/2000/svg">
<path fill-rule="evenodd" clip-rule="evenodd" d="M17.0317 1.5C17.0317 1.08579 16.696 0.75 16.2817 0.75C15.8675 0.75 15.5317 1.08579 15.5317 1.5V3H9.03174V1.5C9.03174 1.08579 8.69595 0.75 8.28174 0.75C7.86752 0.75 7.53174 1.08579 7.53174 1.5V3H7.28174C5.0726 3 3.28174 4.79086 3.28174 7V17.5C3.28174 19.7091 5.0726 21.5 7.28174 21.5H17.2817C19.4909 21.5 21.2817 19.7091 21.2817 17.5V7C21.2817 4.79086 19.4909 3 17.2817 3H17.0317V1.5ZM14.9334 10.909C15.2263 10.6161 15.2263 10.1412 14.9334 9.84833C14.6405 9.55544 14.1656 9.55544 13.8727 9.84833L12.2817 11.4393L10.6907 9.84837C10.3978 9.55547 9.92296 9.55547 9.63007 9.84837C9.33718 10.1413 9.33718 10.6161 9.63007 10.909L11.221 12.5L9.63007 14.091C9.33718 14.3839 9.33718 14.8587 9.63007 15.1516C9.92296 15.4445 10.3978 15.4445 10.6907 15.1516L12.2817 13.5607L13.8727 15.1517C14.1656 15.4446 14.6405 15.4446 14.9334 15.1517C15.2263 14.8588 15.2263 14.3839 14.9334 14.091L13.3424 12.5L14.9334 10.909Z" fill="#28303F"/>
</svg>
