<svg width="24" height="24" viewBox="0 0 24 24" fill="none" xmlns="http://www.w3.org/2000/svg">
<path fill-rule="evenodd" clip-rule="evenodd" d="M17.0317 1.5C17.0317 1.08579 16.696 0.75 16.2817 0.75C15.8675 0.75 15.5317 1.08579 15.5317 1.5V3H9.03174V1.5C9.03174 1.08579 8.69595 0.75 8.28174 0.75C7.86752 0.75 7.53174 1.08579 7.53174 1.5V3H7.28174C5.0726 3 3.28174 4.79086 3.28174 7V17.5C3.28174 19.7091 5.0726 21.5 7.28174 21.5H17.2817C19.4909 21.5 21.2817 19.7091 21.2817 17.5V7C21.2817 4.79086 19.4909 3 17.2817 3H17.0317V1.5ZM13.0317 9.5C13.0317 9.08579 12.696 8.75 12.2817 8.75C11.8675 8.75 11.5317 9.08579 11.5317 9.5V11.75H9.28174C8.86752 11.75 8.53174 12.0858 8.53174 12.5C8.53174 12.9142 8.86752 13.25 9.28174 13.25H11.5317V15.5C11.5317 15.9142 11.8675 16.25 12.2817 16.25C12.696 16.25 13.0317 15.9142 13.0317 15.5V13.25H15.2817C15.696 13.25 16.0317 12.9142 16.0317 12.5C16.0317 12.0858 15.696 11.75 15.2817 11.75H13.0317V9.5Z" fill="#28303F"/>
</svg>
