<svg width="24" height="24" viewBox="0 0 24 24" fill="none" xmlns="http://www.w3.org/2000/svg">
<path fill-rule="evenodd" clip-rule="evenodd" d="M8.28174 0.75C8.69595 0.75 9.03174 1.08579 9.03174 1.5V3H15.5317V1.5C15.5317 1.08579 15.8675 0.75 16.2817 0.75C16.696 0.75 17.0317 1.08579 17.0317 1.5V3H17.2817C19.4909 3 21.2817 4.79086 21.2817 7V8.08579C21.2817 8.351 21.1764 8.60536 20.9888 8.79289L8.57463 21.2071C8.3871 21.3946 8.13274 21.5 7.86752 21.5H7.28174C5.0726 21.5 3.28174 19.7091 3.28174 17.5V7C3.28174 4.79086 5.0726 3 7.28174 3H7.53174V1.5C7.53174 1.08579 7.86752 0.75 8.28174 0.75ZM9.03174 10.5C9.03174 8.70507 10.4868 7.25 12.2817 7.25C14.0767 7.25 15.5317 8.70507 15.5317 10.5C15.5317 12.2949 14.0767 13.75 12.2817 13.75C11.656 13.75 11.0716 13.5732 10.5757 13.2667L9.81207 14.0303C9.51918 14.3232 9.0443 14.3232 8.75141 14.0303C8.45852 13.7374 8.45852 13.2626 8.75141 12.9697L9.51501 12.2061C9.20858 11.7102 9.03174 11.1257 9.03174 10.5ZM12.2817 8.75C11.3152 8.75 10.5317 9.5335 10.5317 10.5C10.5317 11.4665 11.3152 12.25 12.2817 12.25C13.2482 12.25 14.0317 11.4665 14.0317 10.5C14.0317 9.5335 13.2482 8.75 12.2817 8.75ZM20.7915 12.9902C20.1379 12.3366 19.0781 12.3366 18.4244 12.9902L13.4096 18.005C13.289 18.1257 13.2011 18.2751 13.1543 18.4392L12.5281 20.6357C12.4207 21.0127 12.7691 21.3611 13.1461 21.2536L15.3425 20.6274C15.5066 20.5806 15.656 20.4928 15.7767 20.3721L20.7915 15.3573C21.4452 14.7037 21.4452 13.6439 20.7915 12.9902Z" fill="#28303F"/>
</svg>
