<svg width="24" height="24" viewBox="0 0 24 24" fill="none" xmlns="http://www.w3.org/2000/svg">
<path fill-rule="evenodd" clip-rule="evenodd" d="M8.28174 0.75C8.69595 0.75 9.03174 1.08579 9.03174 1.5V3H15.5317V1.5C15.5317 1.08579 15.8675 0.75 16.2817 0.75C16.696 0.75 17.0317 1.08579 17.0317 1.5V3H17.2817C19.4909 3 21.2817 4.79086 21.2817 7V8.08579C21.2817 8.351 21.1764 8.60536 20.9888 8.79289L8.57463 21.2071C8.3871 21.3946 8.13274 21.5 7.86752 21.5H7.28174C5.0726 21.5 3.28174 19.7091 3.28174 17.5V7C3.28174 4.79086 5.0726 3 7.28174 3H7.53174V1.5C7.53174 1.08579 7.86752 0.75 8.28174 0.75ZM15.2817 9.25C15.696 9.25 16.0317 8.91421 16.0317 8.5C16.0317 8.08579 15.696 7.75 15.2817 7.75H8.28174C7.86752 7.75 7.53174 8.08579 7.53174 8.5C7.53174 8.91421 7.86752 9.25 8.28174 9.25H15.2817ZM12.2817 13.25C12.696 13.25 13.0317 12.9142 13.0317 12.5C13.0317 12.0858 12.696 11.75 12.2817 11.75H8.28174C7.86752 11.75 7.53174 12.0858 7.53174 12.5C7.53174 12.9142 7.86752 13.25 8.28174 13.25H12.2817ZM10.0317 16.5C10.0317 16.9142 9.69595 17.25 9.28174 17.25H8.28174C7.86752 17.25 7.53174 16.9142 7.53174 16.5C7.53174 16.0858 7.86752 15.75 8.28174 15.75H9.28174C9.69595 15.75 10.0317 16.0858 10.0317 16.5ZM20.7915 12.9902C20.1379 12.3366 19.0781 12.3366 18.4244 12.9902L13.4096 18.005C13.289 18.1257 13.2011 18.2751 13.1543 18.4392L12.5281 20.6357C12.4207 21.0127 12.7691 21.3611 13.1461 21.2536L15.3425 20.6274C15.5066 20.5806 15.656 20.4928 15.7767 20.3721L20.7915 15.3573C21.4452 14.7037 21.4452 13.6439 20.7915 12.9902Z" fill="#28303F"/>
</svg>
