<svg width="24" height="24" viewBox="0 0 24 24" fill="none" xmlns="http://www.w3.org/2000/svg">
<path fill-rule="evenodd" clip-rule="evenodd" d="M8.28174 3.5C8.28174 2.39543 9.17717 1.5 10.2817 1.5H14.2817C15.3863 1.5 16.2817 2.39543 16.2817 3.5C16.2817 4.60457 15.3863 5.5 14.2817 5.5H10.2817C9.17717 5.5 8.28174 4.60457 8.28174 3.5ZM6.78187 3.53101C4.80865 3.777 3.28174 5.46022 3.28174 7.50008V17.5001C3.28174 19.7092 5.0726 21.5001 7.28174 21.5001H17.2817C19.4909 21.5001 21.2817 19.7092 21.2817 17.5001V7.50008C21.2817 5.46022 19.7548 3.777 17.7816 3.53101C17.765 5.44976 16.2044 7.00008 14.2817 7.00008H10.2817C8.35906 7.00008 6.79848 5.44976 6.78187 3.53101ZM13.7514 13.9696L13.0317 14.6892V10.4999C13.0317 10.0857 12.696 9.74991 12.2817 9.74991C11.8675 9.74991 11.5317 10.0857 11.5317 10.4999V14.6892L10.8121 13.9696C10.5192 13.6767 10.0443 13.6767 9.75141 13.9696C9.45852 14.2625 9.45852 14.7373 9.75141 15.0302L11.0443 16.3231C11.7277 17.0065 12.8358 17.0065 13.5192 16.3231L14.8121 15.0302C15.105 14.7373 15.105 14.2625 14.8121 13.9696C14.5192 13.6767 14.0443 13.6767 13.7514 13.9696Z" fill="#28303F"/>
</svg>
