<svg width="24" height="24" viewBox="0 0 24 24" fill="none" xmlns="http://www.w3.org/2000/svg">
<path fill-rule="evenodd" clip-rule="evenodd" d="M8.28174 3.5C8.28174 2.39543 9.17717 1.5 10.2817 1.5H14.2817C15.3863 1.5 16.2817 2.39543 16.2817 3.5C16.2817 4.60457 15.3863 5.5 14.2817 5.5H10.2817C9.17717 5.5 8.28174 4.60457 8.28174 3.5ZM6.78187 3.53101C4.80865 3.777 3.28174 5.46022 3.28174 7.50008V17.5001C3.28174 19.7092 5.0726 21.5001 7.28174 21.5001H17.2817C19.4909 21.5001 21.2817 19.7092 21.2817 17.5001V7.50008C21.2817 5.46022 19.7548 3.777 17.7816 3.53101C17.765 5.44976 16.2044 7.00008 14.2817 7.00008H10.2817C8.35906 7.00008 6.79848 5.44976 6.78187 3.53101ZM8.28174 8.75C7.86752 8.75 7.53174 9.08579 7.53174 9.5C7.53174 9.91421 7.86752 10.25 8.28174 10.25H16.2817C16.696 10.25 17.0317 9.91421 17.0317 9.5C17.0317 9.08579 16.696 8.75 16.2817 8.75H8.28174ZM7.53174 13.5C7.53174 13.0858 7.86752 12.75 8.28174 12.75H16.2817C16.696 12.75 17.0317 13.0858 17.0317 13.5C17.0317 13.9142 16.696 14.25 16.2817 14.25H8.28174C7.86752 14.25 7.53174 13.9142 7.53174 13.5ZM8.28174 16.75C7.86752 16.75 7.53174 17.0858 7.53174 17.5C7.53174 17.9142 7.86752 18.25 8.28174 18.25H12.2817C12.696 18.25 13.0317 17.9142 13.0317 17.5C13.0317 17.0858 12.696 16.75 12.2817 16.75H8.28174Z" fill="#28303F"/>
</svg>
