<svg width="24" height="24" viewBox="0 0 24 24" fill="none" xmlns="http://www.w3.org/2000/svg">
<path fill-rule="evenodd" clip-rule="evenodd" d="M8.28174 3.5C8.28174 2.39543 9.17717 1.5 10.2817 1.5H14.2817C15.3863 1.5 16.2817 2.39543 16.2817 3.5C16.2817 4.60457 15.3863 5.5 14.2817 5.5H10.2817C9.17717 5.5 8.28174 4.60457 8.28174 3.5ZM6.78187 3.53101C4.80865 3.777 3.28174 5.46022 3.28174 7.50008V17.5001C3.28174 19.7092 5.0726 21.5001 7.28174 21.5001H17.2817C19.4909 21.5001 21.2817 19.7092 21.2817 17.5001V7.50008C21.2817 5.46022 19.7548 3.777 17.7816 3.53101C17.765 5.44976 16.2044 7.00008 14.2817 7.00008H10.2817C8.35906 7.00008 6.79848 5.44976 6.78187 3.53101ZM10.0317 12.5C10.0317 11.2574 11.0391 10.25 12.2817 10.25C13.5244 10.25 14.5317 11.2574 14.5317 12.5C14.5317 13.7426 13.5244 14.75 12.2817 14.75C11.0391 14.75 10.0317 13.7426 10.0317 12.5ZM12.2817 8.75C10.2107 8.75 8.53174 10.4289 8.53174 12.5C8.53174 14.5711 10.2107 16.25 12.2817 16.25C13.0461 16.25 13.757 16.0213 14.3498 15.6287L15.2514 16.5303C15.5443 16.8232 16.0192 16.8232 16.3121 16.5303C16.605 16.2374 16.605 15.7626 16.3121 15.4697L15.4104 14.568C15.8031 13.9752 16.0317 13.2643 16.0317 12.5C16.0317 10.4289 14.3528 8.75 12.2817 8.75Z" fill="#28303F"/>
</svg>
