<svg width="24" height="24" viewBox="0 0 24 24" fill="none" xmlns="http://www.w3.org/2000/svg">
<path fill-rule="evenodd" clip-rule="evenodd" d="M8.28174 3.5C8.28174 2.39543 9.17717 1.5 10.2817 1.5H14.2817C15.3863 1.5 16.2817 2.39543 16.2817 3.5C16.2817 4.60457 15.3863 5.5 14.2817 5.5H10.2817C9.17717 5.5 8.28174 4.60457 8.28174 3.5ZM6.78187 3.53101C4.80865 3.777 3.28174 5.46022 3.28174 7.50008V17.5001C3.28174 19.7092 5.0726 21.5001 7.28174 21.5001H17.2817C19.4909 21.5001 21.2817 19.7092 21.2817 17.5001V7.50008C21.2817 5.46022 19.7548 3.777 17.7816 3.53101C17.765 5.44976 16.2044 7.00008 14.2817 7.00008H10.2817C8.35906 7.00008 6.79848 5.44976 6.78187 3.53101ZM14.9334 11.909C15.2263 11.6161 15.2263 11.1412 14.9334 10.8483C14.6405 10.5554 14.1656 10.5554 13.8727 10.8483L12.2817 12.4393L10.6907 10.8484C10.3978 10.5555 9.92296 10.5555 9.63007 10.8484C9.33718 11.1413 9.33718 11.6161 9.63007 11.909L11.221 13.5L9.63007 15.091C9.33718 15.3839 9.33718 15.8587 9.63007 16.1516C9.92296 16.4445 10.3978 16.4445 10.6907 16.1516L12.2817 14.5607L13.8727 16.1517C14.1656 16.4446 14.6405 16.4446 14.9334 16.1517C15.2263 15.8588 15.2263 15.3839 14.9334 15.091L13.3424 13.5L14.9334 11.909Z" fill="#28303F"/>
</svg>
