<svg width="24" height="24" viewBox="0 0 24 24" fill="none" xmlns="http://www.w3.org/2000/svg">
<path fill-rule="evenodd" clip-rule="evenodd" d="M10.2817 1.5C9.17717 1.5 8.28174 2.39543 8.28174 3.5C8.28174 4.60457 9.17717 5.5 10.2817 5.5H14.2817C15.3863 5.5 16.2817 4.60457 16.2817 3.5C16.2817 2.39543 15.3863 1.5 14.2817 1.5H10.2817ZM3.28174 7.50008C3.28174 5.46022 4.80865 3.777 6.78187 3.53101C6.79848 5.44976 8.35906 7.00008 10.2817 7.00008H14.2817C16.2044 7.00008 17.765 5.44976 17.7816 3.53101C19.7548 3.777 21.2817 5.46022 21.2817 7.50008V17.5001C21.2817 19.7092 19.4909 21.5001 17.2817 21.5001H7.28174C5.0726 21.5001 3.28174 19.7092 3.28174 17.5001V7.50008ZM11.5317 9.5C11.5317 9.08579 11.8675 8.75 12.2817 8.75H16.2817C16.696 8.75 17.0317 9.08579 17.0317 9.5C17.0317 9.91421 16.696 10.25 16.2817 10.25H12.2817C11.8675 10.25 11.5317 9.91421 11.5317 9.5ZM12.2817 12.75C11.8675 12.75 11.5317 13.0858 11.5317 13.5C11.5317 13.9142 11.8675 14.25 12.2817 14.25H16.2817C16.696 14.25 17.0317 13.9142 17.0317 13.5C17.0317 13.0858 16.696 12.75 16.2817 12.75H12.2817ZM11.5317 17.5C11.5317 17.0858 11.8675 16.75 12.2817 16.75H16.2817C16.696 16.75 17.0317 17.0858 17.0317 17.5C17.0317 17.9142 16.696 18.25 16.2817 18.25H12.2817C11.8675 18.25 11.5317 17.9142 11.5317 17.5ZM9.78174 9.5C9.78174 10.0523 9.33402 10.5 8.78174 10.5C8.22945 10.5 7.78174 10.0523 7.78174 9.5C7.78174 8.94772 8.22945 8.5 8.78174 8.5C9.33402 8.5 9.78174 8.94772 9.78174 9.5ZM8.78174 14.5C9.33402 14.5 9.78174 14.0523 9.78174 13.5C9.78174 12.9477 9.33402 12.5 8.78174 12.5C8.22945 12.5 7.78174 12.9477 7.78174 13.5C7.78174 14.0523 8.22945 14.5 8.78174 14.5ZM9.78174 17.5C9.78174 18.0523 9.33402 18.5 8.78174 18.5C8.22945 18.5 7.78174 18.0523 7.78174 17.5C7.78174 16.9477 8.22945 16.5 8.78174 16.5C9.33402 16.5 9.78174 16.9477 9.78174 17.5Z" fill="#28303F"/>
</svg>
