<svg width="24" height="24" viewBox="0 0 24 24" fill="none" xmlns="http://www.w3.org/2000/svg">
<path fill-rule="evenodd" clip-rule="evenodd" d="M8.28174 3.5C8.28174 2.39543 9.17717 1.5 10.2817 1.5H14.2817C15.3863 1.5 16.2817 2.39543 16.2817 3.5C16.2817 4.60457 15.3863 5.5 14.2817 5.5H10.2817C9.17717 5.5 8.28174 4.60457 8.28174 3.5ZM6.78187 3.53101C4.80865 3.777 3.28174 5.46022 3.28174 7.50008V17.5001C3.28174 19.7092 5.0726 21.5001 7.28174 21.5001H17.2817C19.4909 21.5001 21.2817 19.7092 21.2817 17.5001V7.50008C21.2817 5.46022 19.7548 3.777 17.7816 3.53101C17.765 5.44976 16.2044 7.00008 14.2817 7.00008H10.2817C8.35906 7.00008 6.79848 5.44976 6.78187 3.53101ZM15.8462 11.9939C16.119 11.6822 16.0874 11.2083 15.7756 10.9356C15.4639 10.6628 14.9901 10.6944 14.7173 11.0061L11.8474 14.286C11.7593 14.3867 11.6076 14.4002 11.5031 14.3166L9.75029 12.9144C9.42684 12.6556 8.95487 12.708 8.69611 13.0315C8.43736 13.3549 8.4898 13.8269 8.81324 14.0857L10.5661 15.4879C11.2974 16.0729 12.3596 15.9786 12.9763 15.2738L15.8462 11.9939Z" fill="#28303F"/>
</svg>
