<svg width="24" height="24" viewBox="0 0 24 24" fill="none" xmlns="http://www.w3.org/2000/svg">
<path fill-rule="evenodd" clip-rule="evenodd" d="M8.28174 3.5C8.28174 2.39543 9.17717 1.5 10.2817 1.5H14.2817C15.3863 1.5 16.2817 2.39543 16.2817 3.5C16.2817 4.60457 15.3863 5.5 14.2817 5.5H10.2817C9.17717 5.5 8.28174 4.60457 8.28174 3.5ZM6.78187 3.53101C4.80865 3.777 3.28174 5.46022 3.28174 7.50008V17.5001C3.28174 19.7092 5.0726 21.5001 7.28174 21.5001H17.2817C19.4909 21.5001 21.2817 19.7092 21.2817 17.5001V7.50008C21.2817 5.46022 19.7548 3.777 17.7816 3.53101C17.765 5.44976 16.2044 7.00008 14.2817 7.00008H10.2817C8.35906 7.00008 6.79848 5.44976 6.78187 3.53101ZM13.7514 12.6161L13.0317 11.8964V16.0858C13.0317 16.5 12.696 16.8358 12.2817 16.8358C11.8675 16.8358 11.5317 16.5 11.5317 16.0858V11.8964L10.8121 12.6161C10.5192 12.909 10.0443 12.909 9.75141 12.6161C9.45852 12.3232 9.45852 11.8483 9.75141 11.5555L11.0443 10.2626C11.7277 9.57914 12.8358 9.57915 13.5192 10.2626L14.8121 11.5555C15.105 11.8483 15.105 12.3232 14.8121 12.6161C14.5192 12.909 14.0443 12.909 13.7514 12.6161Z" fill="#28303F"/>
</svg>
