<svg width="24" height="24" viewBox="0 0 24 24" fill="none" xmlns="http://www.w3.org/2000/svg">
<path opacity="0.4" d="M7 2H17C19.2091 2 21 3.79086 21 6V12H3V6C3 3.79086 4.79086 2 7 2Z" fill="#28303F"/>
<path fill-rule="evenodd" clip-rule="evenodd" d="M9.25 6C9.25 5.58579 9.58579 5.25 10 5.25H14C14.4142 5.25 14.75 5.58579 14.75 6C14.75 6.41421 14.4142 6.75 14 6.75H10C9.58579 6.75 9.25 6.41421 9.25 6Z" fill="#28303F"/>
<path fill-rule="evenodd" clip-rule="evenodd" d="M7 22H17C19.2091 22 21 20.2091 21 18V12H3V18C3 20.2091 4.79086 22 7 22ZM10 15.25C9.58579 15.25 9.25 15.5858 9.25 16C9.25 16.4142 9.58579 16.75 10 16.75H14C14.4142 16.75 14.75 16.4142 14.75 16C14.75 15.5858 14.4142 15.25 14 15.25H10Z" fill="#28303F"/>
</svg>
