<svg width="24" height="24" viewBox="0 0 24 24" fill="none" xmlns="http://www.w3.org/2000/svg">
<path fill-rule="evenodd" clip-rule="evenodd" d="M11 2.75C9.75736 2.75 8.75 3.75736 8.75 5V6C8.75 6.41421 8.41421 6.75 8 6.75C7.58579 6.75 7.25 6.41421 7.25 6V5C7.25 2.92893 8.92893 1.25 11 1.25H13C15.0711 1.25 16.75 2.92893 16.75 5V6C16.75 6.41421 16.4142 6.75 16 6.75C15.5858 6.75 15.25 6.41421 15.25 6V5C15.25 3.75736 14.2426 2.75 13 2.75H11Z" fill="#28303F"/>
<path opacity="0.4" d="M2 10C2 7.79086 3.79086 6 6 6H18C20.2091 6 22 7.79086 22 10V18C22 20.2091 20.2091 22 18 22H6C3.79086 22 2 20.2091 2 18V10Z" fill="#28303F"/>
<path d="M18 6H6C3.79086 6 2 7.79086 2 10C2 10 3.19637 11.0303 6.05405 11.7871C6.31865 11.8571 6.58156 11.6865 6.73085 11.4571C6.99837 11.046 7.46195 10.7741 7.98903 10.7741C8.81745 10.7741 9.48903 11.4457 9.48903 12.2741C9.48903 12.3486 9.54515 12.4111 9.61922 12.4186C10.351 12.4932 11.142 12.5442 11.995 12.5641C12.8269 12.5835 13.5999 12.5644 14.3167 12.5152C14.421 12.5081 14.5014 12.4211 14.5014 12.3166V12.2741C14.5014 11.4457 15.173 10.7741 16.0014 10.7741C16.5628 10.7741 17.0522 11.0825 17.3093 11.5392C17.4529 11.7941 17.7299 11.9933 18.0122 11.9167C20.8199 11.1549 22 10 22 10C22 7.79086 20.2091 6 18 6Z" fill="#28303F"/>
<rect x="7.23901" y="11.5728" width="1.5" height="2.79403" rx="0.75" fill="#28303F"/>
<rect x="15.2513" y="11.5728" width="1.5" height="2.79403" rx="0.75" fill="#28303F"/>
</svg>
