<svg width="24" height="24" viewBox="0 0 24 24" fill="none" xmlns="http://www.w3.org/2000/svg">
<path opacity="0.4" d="M2 10.1199L2 18.2477C2 20.4568 3.79086 22.2477 6 22.2477H18C20.2091 22.2477 22 20.4568 22 18.2477V10.1199L14.4029 12.5844C14.4029 12.5844 13.5013 15.0228 12 15.0228C10.4987 15.0228 9.39067 12.5844 9.39067 12.5844L2 10.1199Z" fill="#28303F"/>
<path fill-rule="evenodd" clip-rule="evenodd" d="M18 6.24756H6C3.79086 6.24756 2 8.03842 2 10.2476V10.595C2 10.595 4.91389 12.536 9.49817 13.1047V13.5617C9.49817 14.6663 10.3936 15.5617 11.4982 15.5617H12.5016C13.6062 15.5617 14.5016 14.6663 14.5016 13.5617V13.1047C19.086 12.5361 22 10.595 22 10.595V10.2476C22 8.03842 20.2091 6.24756 18 6.24756ZM11.0751 12.3419C10.9647 12.3419 10.8751 12.4315 10.8751 12.5419V13.5307C10.8751 13.9726 11.2333 14.3307 11.6751 14.3307H12.3248C12.7666 14.3307 13.1248 13.9726 13.1248 13.5307V12.5419C13.1248 12.4315 13.0352 12.3419 12.9248 12.3419H11.0751Z" fill="#28303F"/>
<path fill-rule="evenodd" clip-rule="evenodd" d="M10.9999 2.99756C9.75724 2.99756 8.74988 4.00492 8.74988 5.24756V6.24756C8.74988 6.66177 8.41409 6.99756 7.99988 6.99756C7.58566 6.99756 7.24988 6.66177 7.24988 6.24756V5.24756C7.24988 3.17649 8.92881 1.49756 10.9999 1.49756H12.9999C15.0709 1.49756 16.7499 3.17649 16.7499 5.24756V6.24756C16.7499 6.66177 16.4141 6.99756 15.9999 6.99756C15.5857 6.99756 15.2499 6.66177 15.2499 6.24756V5.24756C15.2499 4.00492 14.2425 2.99756 12.9999 2.99756H10.9999Z" fill="#28303F"/>
</svg>
