<svg width="24" height="24" viewBox="0 0 24 24" fill="none" xmlns="http://www.w3.org/2000/svg">
<path opacity="0.4" d="M6 21.9999H18C20.2091 21.9999 22 20.209 22 17.9999V9.87256H2V17.9999C2 20.209 3.79086 21.9999 6 21.9999Z" fill="#28303F"/>
<path fill-rule="evenodd" clip-rule="evenodd" d="M11 2.75C9.75736 2.75 8.75 3.75736 8.75 5V6C8.75 6.41421 8.41421 6.75 8 6.75C7.58579 6.75 7.25 6.41421 7.25 6V5C7.25 2.92893 8.92893 1.25 11 1.25H13C15.0711 1.25 16.75 2.92893 16.75 5V6C16.75 6.41421 16.4142 6.75 16 6.75C15.5858 6.75 15.25 6.41421 15.25 6V5C15.25 3.75736 14.2426 2.75 13 2.75H11Z" fill="#28303F"/>
<path d="M18 6H6C3.79086 6 2 7.79086 2 10V13H6.10529C6.26901 13 6.40173 12.8673 6.40173 12.7036V12.7036C6.40173 11.8751 7.07331 11.2036 7.90173 11.2036C8.73016 11.2036 9.40173 11.8751 9.40173 12.7036V12.7036C9.40173 12.8673 9.53446 13 9.69818 13H14.3078C14.4715 13 14.6042 12.8673 14.6042 12.7036V12.7036C14.6042 11.8751 15.2758 11.2036 16.1042 11.2036C16.9327 11.2036 17.6042 11.8751 17.6042 12.7036V12.7036C17.6042 12.8673 17.737 13 17.9007 13H22V10C22 7.79086 20.2091 6 18 6Z" fill="#28303F"/>
<rect x="15.3607" y="12" width="1.5" height="2.79403" rx="0.75" fill="#28303F"/>
<rect x="7.16052" y="12" width="1.5" height="2.79403" rx="0.75" fill="#28303F"/>
</svg>
