<svg width="24" height="24" viewBox="0 0 24 24" fill="none" xmlns="http://www.w3.org/2000/svg">
<path fill-rule="evenodd" clip-rule="evenodd" d="M11 2.75C9.75736 2.75 8.75 3.75736 8.75 5V6H7.25V5C7.25 2.92893 8.92893 1.25 11 1.25H13C15.0711 1.25 16.75 2.92893 16.75 5V6H15.25V5C15.25 3.75736 14.2426 2.75 13 2.75H11Z" fill="#28303F"/>
<path opacity="0.4" d="M2 10C2 7.79086 3.79086 6 6 6H18C20.2091 6 22 7.79086 22 10V18C22 20.2091 20.2091 22 18 22H6C3.79086 22 2 20.2091 2 18V10Z" fill="#28303F"/>
<path fill-rule="evenodd" clip-rule="evenodd" d="M5.25 10C5.25 9.58579 5.58579 9.25 6 9.25H18C18.4142 9.25 18.75 9.58579 18.75 10C18.75 10.4142 18.4142 10.75 18 10.75H6C5.58579 10.75 5.25 10.4142 5.25 10Z" fill="#28303F"/>
<path fill-rule="evenodd" clip-rule="evenodd" d="M5.25 14C5.25 13.5858 5.58579 13.25 6 13.25H18C18.4142 13.25 18.75 13.5858 18.75 14C18.75 14.4142 18.4142 14.75 18 14.75H6C5.58579 14.75 5.25 14.4142 5.25 14Z" fill="#28303F"/>
<path fill-rule="evenodd" clip-rule="evenodd" d="M5.25 18C5.25 17.5858 5.58579 17.25 6 17.25H18C18.4142 17.25 18.75 17.5858 18.75 18C18.75 18.4142 18.4142 18.75 18 18.75H6C5.58579 18.75 5.25 18.4142 5.25 18Z" fill="#28303F"/>
</svg>
