<svg width="24" height="24" viewBox="0 0 24 24" fill="none" xmlns="http://www.w3.org/2000/svg">
<path fill-rule="evenodd" clip-rule="evenodd" d="M11 2.75C9.75736 2.75 8.75 3.75736 8.75 5V6C8.75 6.41421 8.41421 6.75 8 6.75C7.58579 6.75 7.25 6.41421 7.25 6V5C7.25 2.92893 8.92893 1.25 11 1.25H13C15.0711 1.25 16.75 2.92893 16.75 5V6C16.75 6.41421 16.4142 6.75 16 6.75C15.5858 6.75 15.25 6.41421 15.25 6V5C15.25 3.75736 14.2426 2.75 13 2.75H11Z" fill="#28303F"/>
<path opacity="0.4" d="M2 10C2 7.79086 3.79086 6 6 6H18C20.2091 6 22 7.79086 22 10V18C22 20.2091 20.2091 22 18 22H6C3.79086 22 2 20.2091 2 18V10Z" fill="#28303F"/>
<path d="M6 6H18C20.2091 6 22 7.79086 22 10C22 10 19.7216 12.2296 13.9643 12.5367C13.7005 12.5508 13.4815 12.346 13.3762 12.1037C13.1452 11.5727 12.616 11.2015 12 11.2015C11.4053 11.2015 10.8914 11.5476 10.6488 12.0493C10.5342 12.2864 10.3084 12.4815 10.0461 12.4588C4.27549 11.9596 2 10 2 10C2 7.79086 3.79086 6 6 6Z" fill="#28303F"/>
<rect x="11.25" y="12" width="1.5" height="2.79403" rx="0.75" fill="#28303F"/>
</svg>
