<svg width="24" height="24" viewBox="0 0 24 24" fill="none" xmlns="http://www.w3.org/2000/svg">
<path opacity="0.4" d="M19.9999 8C21.1045 8 21.9999 8.89543 21.9999 10L21.9999 20C21.9999 21.1046 21.1045 22 19.9999 22C18.8954 22 17.9999 21.1046 17.9999 20L17.9999 10C17.9999 8.89543 18.8954 8 19.9999 8Z" fill="#28303F"/>
<path opacity="0.4" d="M4 16C5.10457 16 6 16.8954 6 18V20C6 21.1046 5.10457 22 4 22C2.89543 22 2 21.1046 2 20L2 18C2 16.8954 2.89543 16 4 16Z" fill="#28303F"/>
<path opacity="0.4" d="M12 12C13.1046 12 14 12.8954 14 14L14 20C14 21.1046 13.1046 22 12 22C10.8954 22 10 21.1046 10 20L10 14C10 12.8954 10.8954 12 12 12Z" fill="#28303F"/>
<path fill-rule="evenodd" clip-rule="evenodd" d="M18.25 2C18.25 1.58579 18.5857 1.25 19 1.25H21C21.9665 1.25 22.75 2.0335 22.75 3V5C22.75 5.41421 22.4142 5.75 22 5.75C21.5857 5.75 21.25 5.41421 21.25 5V3.76111C17.367 6.87162 14.3561 8.89233 11.4407 10.2445C8.4591 11.6274 5.61345 12.2944 2.09502 12.744C1.68415 12.7965 1.30851 12.5059 1.25601 12.0951C1.20351 11.6842 1.49402 11.3085 1.9049 11.256C5.32859 10.8186 8.01218 10.1812 10.8096 8.88373C13.5187 7.62721 16.368 5.73616 20.1125 2.75H19C18.5857 2.75 18.25 2.41421 18.25 2Z" fill="#28303F"/>
</svg>
