<svg width="24" height="24" viewBox="0 0 24 24" fill="none" xmlns="http://www.w3.org/2000/svg">
<path opacity="0.4" fill-rule="evenodd" clip-rule="evenodd" d="M11 7.75C10.3096 7.75 9.75 8.30964 9.75 9V10C9.75 11.5188 8.51878 12.75 7 12.75H6C5.58579 12.75 5.25 12.4142 5.25 12C5.25 11.5858 5.58579 11.25 6 11.25H7C7.69036 11.25 8.25 10.6904 8.25 10V9C8.25 7.48122 9.48122 6.25 11 6.25C12.5188 6.25 13.75 7.48122 13.75 9V15C13.75 15.6904 14.3096 16.25 15 16.25C15.6904 16.25 16.25 15.6904 16.25 15V14C16.25 12.4812 17.4812 11.25 19 11.25H20C20.4142 11.25 20.75 11.5858 20.75 12C20.75 12.4142 20.4142 12.75 20 12.75H19C18.3096 12.75 17.75 13.3096 17.75 14V15C17.75 16.5188 16.5188 17.75 15 17.75C13.4812 17.75 12.25 16.5188 12.25 15V9C12.25 8.30964 11.6904 7.75 11 7.75Z" fill="#28303F"/>
<path fill-rule="evenodd" clip-rule="evenodd" d="M2 1.25C2.41421 1.25 2.75 1.58579 2.75 2V17C2.75 18.7949 4.20507 20.25 6 20.25H22C22.4142 20.25 22.75 20.5858 22.75 21C22.75 21.4142 22.4142 21.75 22 21.75H6C3.37665 21.75 1.25 19.6234 1.25 17V2C1.25 1.58579 1.58579 1.25 2 1.25Z" fill="#28303F"/>
</svg>
