<svg width="24" height="24" viewBox="0 0 24 24" fill="none" xmlns="http://www.w3.org/2000/svg">
<path opacity="0.4" d="M12 2C13.6445 2 15.2636 2.40557 16.714 3.18079C18.1643 3.956 19.4011 5.07694 20.3147 6.4443C21.2283 7.81166 21.7907 9.38324 21.9518 11.0198C22.113 12.6564 21.8681 14.3075 21.2388 15.8268C20.6095 17.3462 19.6152 18.6868 18.3439 19.7301C17.0727 20.7734 15.5638 21.487 13.9509 21.8079C12.338 22.1287 10.6709 22.0468 9.09716 21.5694C7.52346 21.092 6.09178 20.2339 4.92893 19.0711L8.48966 15.5103C9.06694 16.0876 9.77768 16.5136 10.5589 16.7506C11.3402 16.9876 12.1678 17.0283 12.9685 16.869C13.7692 16.7097 14.5183 16.3554 15.1494 15.8375C15.7804 15.3196 16.2741 14.654 16.5865 13.8998C16.8989 13.1455 17.0205 12.3259 16.9405 11.5134C16.8604 10.7009 16.5813 9.92075 16.1277 9.24194C15.6742 8.56314 15.0602 8.00666 14.3402 7.62182C13.6202 7.23697 12.8164 7.03563 12 7.03563L12 2Z" fill="#28303F"/>
<path d="M4.92893 19.0711C3.53041 17.6725 2.578 15.8907 2.19215 13.9509C1.80629 12.0111 2.00433 10.0004 2.7612 8.17317C3.51808 6.3459 4.79981 4.78412 6.4443 3.6853C8.08879 2.58649 10.0222 2 12 2L12 7.03563C11.0181 7.03563 10.0583 7.32679 9.24194 7.87228C8.42556 8.41777 7.78926 9.1931 7.41352 10.1002C7.03778 11.0073 6.93947 12.0055 7.13102 12.9685C7.32257 13.9315 7.79538 14.8161 8.48966 15.5103L4.92893 19.0711Z" fill="#28303F"/>
<path d="M22 12C22 13.3132 21.7413 14.6136 21.2388 15.8268C20.7362 17.0401 19.9997 18.1425 19.0711 19.0711L15.5103 15.5103C15.9713 15.0494 16.337 14.5021 16.5865 13.8998C16.836 13.2975 16.9644 12.6519 16.9644 12H22Z" fill="#28303F"/>
</svg>
