<svg width="24" height="24" viewBox="0 0 24 24" fill="none" xmlns="http://www.w3.org/2000/svg">
<path opacity="0.4" d="M2 6C2 3.79086 3.79086 2 6 2H18C20.2091 2 22 3.79086 22 6V18C22 20.2091 20.2091 22 18 22H6C3.79086 22 2 20.2091 2 18V6Z" fill="#28303F"/>
<path fill-rule="evenodd" clip-rule="evenodd" d="M10 7.75C9.30964 7.75 8.75 8.30964 8.75 9V10C8.75 11.5188 7.51878 12.75 6 12.75H5C4.58579 12.75 4.25 12.4142 4.25 12C4.25 11.5858 4.58579 11.25 5 11.25H6C6.69036 11.25 7.25 10.6904 7.25 10V9C7.25 7.48122 8.48122 6.25 10 6.25C11.5188 6.25 12.75 7.48122 12.75 9V15C12.75 15.6904 13.3096 16.25 14 16.25C14.6904 16.25 15.25 15.6904 15.25 15V14C15.25 12.4812 16.4812 11.25 18 11.25H19C19.4142 11.25 19.75 11.5858 19.75 12C19.75 12.4142 19.4142 12.75 19 12.75H18C17.3096 12.75 16.75 13.3096 16.75 14V15C16.75 16.5188 15.5188 17.75 14 17.75C12.4812 17.75 11.25 16.5188 11.25 15V9C11.25 8.30964 10.6904 7.75 10 7.75Z" fill="#28303F"/>
</svg>
