<svg width="24" height="24" viewBox="0 0 24 24" fill="none" xmlns="http://www.w3.org/2000/svg">
<path fill-rule="evenodd" clip-rule="evenodd" d="M2 1.25C2.41421 1.25 2.75 1.58579 2.75 2V18C2.75 19.7949 4.20507 21.25 6 21.25H22C22.4142 21.25 22.75 21.5858 22.75 22C22.75 22.4142 22.4142 22.75 22 22.75H6C3.37665 22.75 1.25 20.6234 1.25 18V2C1.25 1.58579 1.58579 1.25 2 1.25Z" fill="#28303F"/>
<path opacity="0.4" fill-rule="evenodd" clip-rule="evenodd" d="M14.75 15C14.75 15.4142 15.0858 15.75 15.5 15.75L17.382 15.75C18.0448 15.75 18.6508 15.3755 18.9472 14.7826L19.6708 13.3354C19.8561 12.9649 19.7059 12.5144 19.3354 12.3292C18.9649 12.1439 18.5144 12.2941 18.3292 12.6646L17.8378 13.6473L15.3917 9.91596C14.6857 8.83911 13.0978 8.86767 12.431 9.96919L10.5229 13.1216C10.4229 13.2867 10.1816 13.2811 10.0894 13.1115L7.65891 8.64173C7.46105 8.27783 7.00565 8.14324 6.64175 8.34111C6.27785 8.53897 6.14326 8.99438 6.34113 9.35827L8.77157 13.8281C9.4169 15.0149 11.1065 15.054 11.8061 13.8983L13.7143 10.7459C13.8095 10.5886 14.0364 10.5845 14.1372 10.7383L16.4393 14.25H15.5C15.0858 14.25 14.75 14.5858 14.75 15Z" fill="#28303F"/>
</svg>
