<svg width="24" height="24" viewBox="0 0 24 24" fill="none" xmlns="http://www.w3.org/2000/svg">
<path opacity="0.4" d="M3.99994 8C2.89537 8 1.99994 8.89543 1.99994 10L1.99994 20C1.99994 21.1046 2.89537 22 3.99994 22C5.10451 22 5.99994 21.1046 5.99994 20L5.99994 10C5.99994 8.89543 5.10451 8 3.99994 8Z" fill="#28303F"/>
<rect opacity="0.4" width="6" height="4" rx="2" transform="matrix(4.37114e-08 1 1 -4.37114e-08 18 16)" fill="#28303F"/>
<path opacity="0.4" d="M11.9999 12C10.8954 12 9.99994 12.8954 9.99994 14L9.99994 20C9.99994 21.1046 10.8954 22 11.9999 22C13.1045 22 13.9999 21.1046 13.9999 20L13.9999 14C13.9999 12.8954 13.1045 12 11.9999 12Z" fill="#28303F"/>
<path fill-rule="evenodd" clip-rule="evenodd" d="M1.25601 1.90502C1.30851 1.49415 1.68415 1.20363 2.09502 1.25613C5.61345 1.70571 8.4591 2.37267 11.4407 3.75559C14.3561 5.10775 17.367 7.12847 21.25 10.239V9.00008C21.25 8.58587 21.5857 8.25008 22 8.25008C22.4142 8.25008 22.75 8.58587 22.75 9.00008V11.0001C22.75 11.9666 21.9665 12.7501 21 12.7501H19C18.5857 12.7501 18.25 12.4143 18.25 12.0001C18.25 11.5859 18.5857 11.2501 19 11.2501H20.1125C16.368 8.26392 13.5187 6.37287 10.8096 5.11635C8.01218 3.81887 5.32859 3.18151 1.9049 2.74403C1.49402 2.69153 1.20351 2.31589 1.25601 1.90502Z" fill="#28303F"/>
</svg>
