<svg width="24" height="24" viewBox="0 0 24 24" fill="none" xmlns="http://www.w3.org/2000/svg">
<path fill-rule="evenodd" clip-rule="evenodd" d="M2 1.25C2.41421 1.25 2.75 1.58579 2.75 2V18C2.75 19.7949 4.20507 21.25 6 21.25H22C22.4142 21.25 22.75 21.5858 22.75 22C22.75 22.4142 22.4142 22.75 22 22.75H6C3.37665 22.75 1.25 20.6234 1.25 18V2C1.25 1.58579 1.58579 1.25 2 1.25Z" fill="#28303F"/>
<path opacity="0.4" fill-rule="evenodd" clip-rule="evenodd" d="M21.4605 8.40802C21.7874 8.66232 21.8464 9.13353 21.592 9.46049L17.8364 14.2892C17.0691 15.2757 15.5977 15.2757 14.8303 14.2892L11.864 10.4754C11.7639 10.3467 11.5695 10.3467 11.4694 10.4754L7.59205 15.4605C7.33775 15.7875 6.86654 15.8464 6.53958 15.592C6.21262 15.3377 6.15372 14.8665 6.40802 14.5396L10.2853 9.55446C10.986 8.65366 12.3474 8.65365 13.0481 9.55446L16.0144 13.3683C16.1811 13.5827 16.4856 13.5827 16.6524 13.3683L20.408 8.53958C20.6623 8.21262 21.1335 8.15372 21.4605 8.40802Z" fill="#28303F"/>
</svg>
