<svg width="24" height="24" viewBox="0 0 24 24" fill="none" xmlns="http://www.w3.org/2000/svg">
<path opacity="0.4" d="M2 6C2 3.79086 3.79086 2 6 2H18C20.2091 2 22 3.79086 22 6V18C22 20.2091 20.2091 22 18 22H6C3.79086 22 2 20.2091 2 18V6Z" fill="#28303F"/>
<path fill-rule="evenodd" clip-rule="evenodd" d="M13.75 15C13.75 15.4142 14.0858 15.75 14.5 15.75L16.382 15.75C17.0448 15.75 17.6508 15.3755 17.9472 14.7826L18.6708 13.3354C18.8561 12.9649 18.7059 12.5144 18.3354 12.3292C17.9649 12.1439 17.5144 12.2941 17.3292 12.6646L16.8378 13.6473L14.3917 9.91596C13.6857 8.83911 12.0978 8.86767 11.431 9.96919L9.52286 13.1216C9.42292 13.2867 9.18155 13.2811 9.08936 13.1115L6.65891 8.64173C6.46105 8.27783 6.00565 8.14324 5.64175 8.34111C5.27785 8.53897 5.14326 8.99438 5.34113 9.35827L7.77157 13.8281C8.4169 15.0149 10.1065 15.054 10.8061 13.8983L12.7143 10.7459C12.8095 10.5886 13.0364 10.5845 13.1372 10.7383L15.4393 14.25H14.5C14.0858 14.25 13.75 14.5858 13.75 15Z" fill="#28303F"/>
</svg>
