<svg width="24" height="24" viewBox="0 0 24 24" fill="none" xmlns="http://www.w3.org/2000/svg">
<path opacity="0.4" d="M2 6C2 3.79086 3.79086 2 6 2H18C20.2091 2 22 3.79086 22 6V18C22 20.2091 20.2091 22 18 22H6C3.79086 22 2 20.2091 2 18V6Z" fill="#28303F"/>
<path d="M6 22H18C20.2091 22 22 20.2091 22 18V15L19.3877 13.0408C18.5914 12.4436 17.4772 12.5228 16.7735 13.2265L15.9621 14.0379C14.9968 15.0032 13.3695 14.7391 12.759 13.5181L11.241 10.4819C10.6305 9.26091 9.00317 8.99683 8.03788 9.96212L7.22654 10.7735C6.52276 11.4772 5.40857 11.5564 4.61233 10.9592L2 9V18C2 20.2091 3.79086 22 6 22Z" fill="#28303F"/>
</svg>
