<svg width="24" height="24" viewBox="0 0 24 24" fill="none" xmlns="http://www.w3.org/2000/svg">
<path opacity="0.4" d="M21 17.9668V10.1503C21 8.93937 20.4604 7.7925 19.5301 7.02652L14.5301 2.90935C13.0577 1.69688 10.9423 1.69689 9.46986 2.90935L4.46986 7.02652C3.53964 7.7925 3 8.93937 3 10.1503V17.9668C3 20.1943 4.79086 22 7 22H17C19.2091 22 21 20.1943 21 17.9668Z" fill="#28303F"/>
<path fill-rule="evenodd" clip-rule="evenodd" d="M10.5 12.75C10.0858 12.75 9.75 13.0858 9.75 13.5V14C9.75 14.9665 8.9665 15.75 8 15.75H7C6.58579 15.75 6.25 15.4142 6.25 15C6.25 14.5858 6.58579 14.25 7 14.25H8C8.13807 14.25 8.25 14.1381 8.25 14V13.5C8.25 12.2574 9.25736 11.25 10.5 11.25C11.7426 11.25 12.75 12.2574 12.75 13.5V16.5C12.75 16.9142 13.0858 17.25 13.5 17.25C13.9142 17.25 14.25 16.9142 14.25 16.5V16C14.25 15.0335 15.0335 14.25 16 14.25H17C17.4142 14.25 17.75 14.5858 17.75 15C17.75 15.4142 17.4142 15.75 17 15.75H16C15.8619 15.75 15.75 15.8619 15.75 16V16.5C15.75 17.7426 14.7426 18.75 13.5 18.75C12.2574 18.75 11.25 17.7426 11.25 16.5V13.5C11.25 13.0858 10.9142 12.75 10.5 12.75Z" fill="#28303F"/>
</svg>
