<svg width="24" height="24" viewBox="0 0 24 24" fill="none" xmlns="http://www.w3.org/2000/svg">
<path fill-rule="evenodd" clip-rule="evenodd" d="M12.75 18V21.25H14C14.4142 21.25 14.75 21.5858 14.75 22C14.75 22.4142 14.4142 22.75 14 22.75H12.0006L11.9994 22.75H10C9.58579 22.75 9.25 22.4142 9.25 22C9.25 21.5858 9.58579 21.25 10 21.25H11.25V18H12.75Z" fill="#28303F"/>
<path opacity="0.4" d="M2 6C2 3.79086 3.79086 2 6 2H18C20.2091 2 22 3.79086 22 6V14C22 16.2091 20.2091 18 18 18H6C3.79086 18 2 16.2091 2 14V6Z" fill="#28303F"/>
<path fill-rule="evenodd" clip-rule="evenodd" d="M10.5 6.75C10.0858 6.75 9.75 7.08579 9.75 7.5V8C9.75 9.51878 8.51878 10.75 7 10.75H6C5.58579 10.75 5.25 10.4142 5.25 10C5.25 9.58579 5.58579 9.25 6 9.25H7C7.69036 9.25 8.25 8.69036 8.25 8V7.5C8.25 6.25736 9.25736 5.25 10.5 5.25C11.7426 5.25 12.75 6.25736 12.75 7.5V12.5C12.75 12.9142 13.0858 13.25 13.5 13.25C13.9142 13.25 14.25 12.9142 14.25 12.5V12C14.25 10.4812 15.4812 9.25 17 9.25H18C18.4142 9.25 18.75 9.58579 18.75 10C18.75 10.4142 18.4142 10.75 18 10.75H17C16.3096 10.75 15.75 11.3096 15.75 12V12.5C15.75 13.7426 14.7426 14.75 13.5 14.75C12.2574 14.75 11.25 13.7426 11.25 12.5V7.5C11.25 7.08579 10.9142 6.75 10.5 6.75Z" fill="#28303F"/>
</svg>
