<svg width="24" height="24" viewBox="0 0 24 24" fill="none" xmlns="http://www.w3.org/2000/svg">
<path opacity="0.4" d="M18.1459 4.79337L15.8382 7.10105C14.6835 6.17734 13.2187 5.625 11.625 5.625C7.89708 5.625 4.875 8.64708 4.875 12.375C4.875 16.1029 7.89708 19.125 11.625 19.125C15.3529 19.125 18.375 16.1029 18.375 12.375C18.375 11.3006 18.124 10.2849 17.6774 9.38322L20.0597 7.00094C21.0507 8.55306 21.625 10.397 21.625 12.375C21.625 17.8978 17.1478 22.375 11.625 22.375C6.10215 22.375 1.625 17.8978 1.625 12.375C1.625 6.85215 6.10215 2.375 11.625 2.375C14.1165 2.375 16.3951 3.28613 18.1459 4.79337Z" fill="#28303F"/>
<path d="M14.7691 8.17019C13.8927 7.51379 12.8042 7.125 11.625 7.125C8.7255 7.125 6.375 9.4755 6.375 12.375C6.375 15.2745 8.7255 17.625 11.625 17.625C14.5245 17.625 16.875 15.2745 16.875 12.375C16.875 11.7227 16.756 11.0982 16.5386 10.522L14.3554 12.7053C14.1922 14.0683 13.032 15.125 11.625 15.125C10.1062 15.125 8.875 13.8938 8.875 12.375C8.875 10.8562 10.1062 9.625 11.625 9.625C12.1118 9.625 12.5692 9.75151 12.9658 9.97346L14.7691 8.17019Z" fill="#28303F"/>
<path d="M22.1553 2.90533L12.8625 12.1981C12.8707 12.2559 12.8749 12.3149 12.8749 12.375C12.8749 13.0654 12.3153 13.625 11.6249 13.625C10.9346 13.625 10.3749 13.0654 10.3749 12.375C10.3749 11.6846 10.9346 11.125 11.6249 11.125C11.685 11.125 11.7441 11.1292 11.8019 11.1374L21.0946 1.84467C21.3875 1.55178 21.8624 1.55178 22.1553 1.84467C22.4482 2.13756 22.4482 2.61244 22.1553 2.90533Z" fill="#28303F"/>
</svg>
