<svg width="24" height="24" viewBox="0 0 24 24" fill="none" xmlns="http://www.w3.org/2000/svg">
<path fill-rule="evenodd" clip-rule="evenodd" d="M16 1.25C16.4142 1.25 16.75 1.58579 16.75 2V5C16.75 5.41421 16.4142 5.75 16 5.75C15.5858 5.75 15.25 5.41421 15.25 5V2C15.25 1.58579 15.5858 1.25 16 1.25Z" fill="#28303F"/>
<path fill-rule="evenodd" clip-rule="evenodd" d="M8 1.25C8.41421 1.25 8.75 1.58579 8.75 2V5C8.75 5.41421 8.41421 5.75 8 5.75C7.58579 5.75 7.25 5.41421 7.25 5V2C7.25 1.58579 7.58579 1.25 8 1.25Z" fill="#28303F"/>
<path opacity="0.4" d="M3 7.5C3 5.29086 4.79086 3.5 7 3.5H17C19.2091 3.5 21 5.29086 21 7.5V18C21 20.2091 19.2091 22 17 22H7C4.79086 22 3 20.2091 3 18V7.5Z" fill="#28303F"/>
<path fill-rule="evenodd" clip-rule="evenodd" d="M11.25 14.1895L10.5303 13.4698C10.2374 13.1769 9.76256 13.1769 9.46967 13.4698C9.17678 13.7627 9.17678 14.2376 9.46967 14.5305L10.7626 15.8234C11.446 16.5068 12.554 16.5068 13.2374 15.8234L14.5303 14.5305C14.8232 14.2376 14.8232 13.7627 14.5303 13.4698C14.2374 13.1769 13.7626 13.1769 13.4697 13.4698L12.75 14.1895V10.0002C12.75 9.58594 12.4142 9.25015 12 9.25015C11.5858 9.25015 11.25 9.58594 11.25 10.0002V14.1895Z" fill="#28303F"/>
</svg>
