<svg width="24" height="24" viewBox="0 0 24 24" fill="none" xmlns="http://www.w3.org/2000/svg">
<path fill-rule="evenodd" clip-rule="evenodd" d="M8 1.25C8.41421 1.25 8.75 1.58579 8.75 2V5C8.75 5.41421 8.41421 5.75 8 5.75C7.58579 5.75 7.25 5.41421 7.25 5V2C7.25 1.58579 7.58579 1.25 8 1.25Z" fill="#28303F"/>
<path fill-rule="evenodd" clip-rule="evenodd" d="M16 1.25C16.4142 1.25 16.75 1.58579 16.75 2V5C16.75 5.41421 16.4142 5.75 16 5.75C15.5858 5.75 15.25 5.41421 15.25 5V2C15.25 1.58579 15.5858 1.25 16 1.25Z" fill="#28303F"/>
<path opacity="0.4" d="M3 7.5C3 5.29086 4.79086 3.5 7 3.5H17C19.2091 3.5 21 5.29086 21 7.5V18C21 20.2091 19.2091 22 17 22H7C4.79086 22 3 20.2091 3 18V7.5Z" fill="#28303F"/>
<path d="M19.1427 12.4902C19.7963 11.8366 20.8561 11.8366 21.5097 12.4902C22.1634 13.1439 22.1634 14.2037 21.5097 14.8573L16.4949 19.8721C16.3743 19.9928 16.2248 20.0806 16.0607 20.1274L13.8643 20.7536C13.4873 20.8611 13.1389 20.5127 13.2464 20.1357L13.8726 17.9392C13.9193 17.7751 14.0072 17.6257 14.1279 17.505L19.1427 12.4902Z" fill="#28303F"/>
<path fill-rule="evenodd" clip-rule="evenodd" d="M8.75 11C8.75 9.20507 10.2051 7.75 12 7.75C13.7949 7.75 15.25 9.20507 15.25 11C15.25 12.7949 13.7949 14.25 12 14.25C11.3743 14.25 10.7898 14.0732 10.2939 13.7667L9.53033 14.5303C9.23744 14.8232 8.76256 14.8232 8.46967 14.5303C8.17678 14.2374 8.17678 13.7626 8.46967 13.4697L9.23327 12.7061C8.92684 12.2102 8.75 11.6257 8.75 11ZM12 9.25C11.0335 9.25 10.25 10.0335 10.25 11C10.25 11.9665 11.0335 12.75 12 12.75C12.9665 12.75 13.75 11.9665 13.75 11C13.75 10.0335 12.9665 9.25 12 9.25Z" fill="#28303F"/>
</svg>
