<svg width="24" height="24" viewBox="0 0 24 24" fill="none" xmlns="http://www.w3.org/2000/svg">
<path fill-rule="evenodd" clip-rule="evenodd" d="M8 1.25C8.41421 1.25 8.75 1.58579 8.75 2V5C8.75 5.41421 8.41421 5.75 8 5.75C7.58579 5.75 7.25 5.41421 7.25 5V2C7.25 1.58579 7.58579 1.25 8 1.25Z" fill="#28303F"/>
<path fill-rule="evenodd" clip-rule="evenodd" d="M16 1.25C16.4142 1.25 16.75 1.58579 16.75 2V5C16.75 5.41421 16.4142 5.75 16 5.75C15.5858 5.75 15.25 5.41421 15.25 5V2C15.25 1.58579 15.5858 1.25 16 1.25Z" fill="#28303F"/>
<path opacity="0.4" d="M3 7.5C3 5.29086 4.79086 3.5 7 3.5H17C19.2091 3.5 21 5.29086 21 7.5V18C21 20.2091 19.2091 22 17 22H7C4.79086 22 3 20.2091 3 18V7.5Z" fill="#28303F"/>
<path d="M19.1427 12.4902C19.7963 11.8366 20.8561 11.8366 21.5097 12.4902C22.1634 13.1439 22.1634 14.2037 21.5097 14.8573L16.4949 19.8721C16.3743 19.9928 16.2248 20.0806 16.0607 20.1274L13.8643 20.7536C13.4873 20.8611 13.1389 20.5127 13.2464 20.1357L13.8726 17.9392C13.9193 17.7751 14.0072 17.6257 14.1279 17.505L19.1427 12.4902Z" fill="#28303F"/>
<path fill-rule="evenodd" clip-rule="evenodd" d="M14.6516 9.34858C14.9445 9.64147 14.9445 10.1163 14.6516 10.4092L13.0606 12.0002L14.6516 13.5913C14.9445 13.8841 14.9445 14.359 14.6516 14.6519C14.3587 14.9448 13.8839 14.9448 13.591 14.6519L12 13.0609L10.409 14.6519C10.1161 14.9448 9.64123 14.9448 9.34833 14.6519C9.05544 14.359 9.05544 13.8841 9.34833 13.5912L10.9393 12.0002L9.34833 10.4093C9.05544 10.1164 9.05544 9.6415 9.34833 9.34861C9.64123 9.05572 10.1161 9.05572 10.409 9.34861L12 10.9396L13.591 9.34858C13.8839 9.05568 14.3587 9.05568 14.6516 9.34858Z" fill="#28303F"/>
</svg>
