<svg width="24" height="24" viewBox="0 0 24 24" fill="none" xmlns="http://www.w3.org/2000/svg">
<path fill-rule="evenodd" clip-rule="evenodd" d="M16 1.25C16.4142 1.25 16.75 1.58579 16.75 2V5C16.75 5.41421 16.4142 5.75 16 5.75C15.5858 5.75 15.25 5.41421 15.25 5V2C15.25 1.58579 15.5858 1.25 16 1.25Z" fill="#28303F"/>
<path fill-rule="evenodd" clip-rule="evenodd" d="M8 1.25C8.41421 1.25 8.75 1.58579 8.75 2V5C8.75 5.41421 8.41421 5.75 8 5.75C7.58579 5.75 7.25 5.41421 7.25 5V2C7.25 1.58579 7.58579 1.25 8 1.25Z" fill="#28303F"/>
<path opacity="0.4" d="M3 7.5C3 5.29086 4.79086 3.5 7 3.5H17C19.2091 3.5 21 5.29086 21 7.5V18C21 20.2091 19.2091 22 17 22H7C4.79086 22 3 20.2091 3 18V7.5Z" fill="#28303F"/>
<path fill-rule="evenodd" clip-rule="evenodd" d="M17.75 13C17.75 13.4142 17.4142 13.75 17 13.75H11C10.5858 13.75 10.25 13.4142 10.25 13C10.25 12.5858 10.5858 12.25 11 12.25H17C17.4142 12.25 17.75 12.5858 17.75 13Z" fill="#28303F"/>
<path fill-rule="evenodd" clip-rule="evenodd" d="M17.75 9C17.75 9.41421 17.4142 9.75 17 9.75H11C10.5858 9.75 10.25 9.41421 10.25 9C10.25 8.58579 10.5858 8.25 11 8.25H17C17.4142 8.25 17.75 8.58579 17.75 9Z" fill="#28303F"/>
<path fill-rule="evenodd" clip-rule="evenodd" d="M17.75 17C17.75 17.4142 17.4142 17.75 17 17.75H11C10.5858 17.75 10.25 17.4142 10.25 17C10.25 16.5858 10.5858 16.25 11 16.25H17C17.4142 16.25 17.75 16.5858 17.75 17Z" fill="#28303F"/>
<path d="M8.5 9C8.5 9.55228 8.05228 10 7.5 10C6.94772 10 6.5 9.55228 6.5 9C6.5 8.44772 6.94772 8 7.5 8C8.05228 8 8.5 8.44772 8.5 9Z" fill="#28303F"/>
<path d="M8.5 13C8.5 13.5523 8.05228 14 7.5 14C6.94772 14 6.5 13.5523 6.5 13C6.5 12.4477 6.94772 12 7.5 12C8.05228 12 8.5 12.4477 8.5 13Z" fill="#28303F"/>
<path d="M8.5 17C8.5 17.5523 8.05228 18 7.5 18C6.94772 18 6.5 17.5523 6.5 17C6.5 16.4477 6.94772 16 7.5 16C8.05228 16 8.5 16.4477 8.5 17Z" fill="#28303F"/>
</svg>
