<svg width="24" height="24" viewBox="0 0 24 24" fill="none" xmlns="http://www.w3.org/2000/svg">
<path fill-rule="evenodd" clip-rule="evenodd" d="M16 1.25C16.4142 1.25 16.75 1.58579 16.75 2V5C16.75 5.41421 16.4142 5.75 16 5.75C15.5858 5.75 15.25 5.41421 15.25 5V2C15.25 1.58579 15.5858 1.25 16 1.25Z" fill="#28303F"/>
<path fill-rule="evenodd" clip-rule="evenodd" d="M8 1.25C8.41421 1.25 8.75 1.58579 8.75 2V5C8.75 5.41421 8.41421 5.75 8 5.75C7.58579 5.75 7.25 5.41421 7.25 5V2C7.25 1.58579 7.58579 1.25 8 1.25Z" fill="#28303F"/>
<path opacity="0.4" d="M3 7.5C3 5.29086 4.79086 3.5 7 3.5H17C19.2091 3.5 21 5.29086 21 7.5V18C21 20.2091 19.2091 22 17 22H7C4.79086 22 3 20.2091 3 18V7.5Z" fill="#28303F"/>
<path d="M12.2651 10.6742L11.9999 10.9393L11.7348 10.6742C11.0025 9.94194 9.81534 9.94194 9.08311 10.6742C8.35088 11.4064 8.35088 12.5936 9.08311 13.3258L10.9393 15.182C11.5251 15.7678 12.4748 15.7678 13.0606 15.182L14.9167 13.3258C15.649 12.5936 15.649 11.4064 14.9167 10.6742C14.1845 9.94194 12.9973 9.94194 12.2651 10.6742Z" fill="#28303F"/>
</svg>
