<svg width="24" height="24" viewBox="0 0 24 24" fill="none" xmlns="http://www.w3.org/2000/svg">
<path fill-rule="evenodd" clip-rule="evenodd" d="M16 1.25C16.4142 1.25 16.75 1.58579 16.75 2V5C16.75 5.41421 16.4142 5.75 16 5.75C15.5858 5.75 15.25 5.41421 15.25 5V2C15.25 1.58579 15.5858 1.25 16 1.25Z" fill="#28303F"/>
<path fill-rule="evenodd" clip-rule="evenodd" d="M8 1.25C8.41421 1.25 8.75 1.58579 8.75 2V5C8.75 5.41421 8.41421 5.75 8 5.75C7.58579 5.75 7.25 5.41421 7.25 5V2C7.25 1.58579 7.58579 1.25 8 1.25Z" fill="#28303F"/>
<path opacity="0.4" d="M3 7.5C3 5.29086 4.79086 3.5 7 3.5H17C19.2091 3.5 21 5.29086 21 7.5V18C21 20.2091 19.2091 22 17 22H7C4.79086 22 3 20.2091 3 18V7.5Z" fill="#28303F"/>
<path fill-rule="evenodd" clip-rule="evenodd" d="M14.6516 10.3486C14.9445 10.6415 14.9445 11.1163 14.6516 11.4092L13.0606 13.0002L14.6516 14.5913C14.9445 14.8841 14.9445 15.359 14.6516 15.6519C14.3587 15.9448 13.8839 15.9448 13.591 15.6519L12 14.0609L10.409 15.6519C10.1161 15.9448 9.64123 15.9448 9.34833 15.6519C9.05544 15.359 9.05544 14.8841 9.34833 14.5912L10.9393 13.0002L9.34833 11.4093C9.05544 11.1164 9.05544 10.6415 9.34833 10.3486C9.64123 10.0557 10.1161 10.0557 10.409 10.3486L12 11.9396L13.591 10.3486C13.8839 10.0557 14.3587 10.0557 14.6516 10.3486Z" fill="#28303F"/>
</svg>
