<svg width="24" height="24" viewBox="0 0 24 24" fill="none" xmlns="http://www.w3.org/2000/svg">
<path fill-rule="evenodd" clip-rule="evenodd" d="M16 1.25C16.4142 1.25 16.75 1.58579 16.75 2V5C16.75 5.41421 16.4142 5.75 16 5.75C15.5858 5.75 15.25 5.41421 15.25 5V2C15.25 1.58579 15.5858 1.25 16 1.25Z" fill="#28303F"/>
<path fill-rule="evenodd" clip-rule="evenodd" d="M8 1.25C8.41421 1.25 8.75 1.58579 8.75 2V5C8.75 5.41421 8.41421 5.75 8 5.75C7.58579 5.75 7.25 5.41421 7.25 5V2C7.25 1.58579 7.58579 1.25 8 1.25Z" fill="#28303F"/>
<path opacity="0.4" d="M3 7.5C3 5.29086 4.79086 3.5 7 3.5H17C19.2091 3.5 21 5.29086 21 7.5V18C21 20.2091 19.2091 22 17 22H7C4.79086 22 3 20.2091 3 18V7.5Z" fill="#28303F"/>
<path fill-rule="evenodd" clip-rule="evenodd" d="M12.75 11.8105L13.4697 12.5302C13.7626 12.8231 14.2374 12.8231 14.5303 12.5302C14.8232 12.2373 14.8232 11.7624 14.5303 11.4695L13.2374 10.1766C12.554 9.49321 11.446 9.49321 10.7626 10.1766L9.46967 11.4695C9.17678 11.7624 9.17678 12.2373 9.46967 12.5302C9.76256 12.8231 10.2374 12.8231 10.5303 12.5302L11.25 11.8105V15.9998C11.25 16.4141 11.5858 16.7498 12 16.7498C12.4142 16.7498 12.75 16.4141 12.75 15.9998V11.8105Z" fill="#28303F"/>
</svg>
