<svg width="24" height="24" viewBox="0 0 24 24" fill="none" xmlns="http://www.w3.org/2000/svg">
<path opacity="0.4" d="M21 18V8C21 5.79086 19.2091 4 17 4H7C4.79086 4 3 5.79086 3 8V18C3 20.2091 4.79086 22 7 22H17C19.2091 22 21 20.2091 21 18Z" fill="#28303F"/>
<rect x="8" y="2" width="8" height="4" rx="2" fill="#28303F"/>
<path fill-rule="evenodd" clip-rule="evenodd" d="M12.75 12.3964L13.4697 13.1161C13.7626 13.409 14.2374 13.409 14.5303 13.1161C14.8232 12.8232 14.8232 12.3483 14.5303 12.0555L13.2374 10.7626C12.554 10.0791 11.446 10.0791 10.7626 10.7626L9.46967 12.0555C9.17678 12.3483 9.17678 12.8232 9.46967 13.1161C9.76256 13.409 10.2374 13.409 10.5303 13.1161L11.25 12.3964V16.5858C11.25 17 11.5858 17.3358 12 17.3358C12.4142 17.3358 12.75 17 12.75 16.5858V12.3964Z" fill="#28303F"/>
</svg>
