<svg width="24" height="24" viewBox="0 0 24 24" fill="none" xmlns="http://www.w3.org/2000/svg">
<path opacity="0.4" d="M21 18V8C21 5.79086 19.2091 4 17 4H7C4.79086 4 3 5.79086 3 8V18C3 20.2091 4.79086 22 7 22H17C19.2091 22 21 20.2091 21 18Z" fill="#28303F"/>
<rect x="8" y="2" width="8" height="4" rx="2" fill="#28303F"/>
<path fill-rule="evenodd" clip-rule="evenodd" d="M15.4939 11.4356C15.8056 11.7083 15.8372 12.1822 15.5645 12.4939L12.6946 15.7738C12.0779 16.4786 11.0156 16.5729 10.2843 15.9879L8.53151 14.5857C8.20806 14.3269 8.15562 13.8549 8.41438 13.5315C8.67313 13.208 9.1451 13.1556 9.46855 13.4144L11.2214 14.8166C11.3258 14.9002 11.4776 14.8867 11.5657 14.786L14.4356 11.5061C14.7084 11.1944 15.1822 11.1628 15.4939 11.4356Z" fill="#28303F"/>
</svg>
