<svg width="24" height="24" viewBox="0 0 24 24" fill="none" xmlns="http://www.w3.org/2000/svg">
<path opacity="0.4" d="M21 18V8C21 5.79086 19.2091 4 17 4H7C4.79086 4 3 5.79086 3 8V18C3 20.2091 4.79086 22 7 22H17C19.2091 22 21 20.2091 21 18Z" fill="#28303F"/>
<rect x="8" y="2" width="8" height="4" rx="2" fill="#28303F"/>
<path fill-rule="evenodd" clip-rule="evenodd" d="M14.6516 11.3486C14.9445 11.6415 14.9445 12.1163 14.6516 12.4092L13.0606 14.0002L14.6516 15.5913C14.9445 15.8841 14.9445 16.359 14.6516 16.6519C14.3587 16.9448 13.8839 16.9448 13.591 16.6519L12 15.0609L10.409 16.6519C10.1161 16.9448 9.64123 16.9448 9.34833 16.6519C9.05544 16.359 9.05544 15.8841 9.34833 15.5912L10.9393 14.0002L9.34833 12.4093C9.05544 12.1164 9.05544 11.6415 9.34833 11.3486C9.64123 11.0557 10.1161 11.0557 10.409 11.3486L12 12.9396L13.591 11.3486C13.8839 11.0557 14.3587 11.0557 14.6516 11.3486Z" fill="#28303F"/>
</svg>
