<svg width="24" height="24" viewBox="0 0 24 24" fill="none" xmlns="http://www.w3.org/2000/svg">
<path opacity="0.4" d="M21 18V8C21 5.79086 19.2091 4 17 4H7C4.79086 4 3 5.79086 3 8V18C3 20.2091 4.79086 22 7 22H17C19.2091 22 21 20.2091 21 18Z" fill="#28303F"/>
<rect x="8" y="2" width="8" height="4" rx="2" fill="#28303F"/>
<path fill-rule="evenodd" clip-rule="evenodd" d="M15.75 14C15.75 14.4142 15.4142 14.75 15 14.75L9 14.75C8.58579 14.75 8.25 14.4142 8.25 14C8.25 13.5858 8.58579 13.25 9 13.25L15 13.25C15.4142 13.25 15.75 13.5858 15.75 14Z" fill="#28303F"/>
</svg>
