<svg width="24" height="24" viewBox="0 0 24 24" fill="none" xmlns="http://www.w3.org/2000/svg">
<path opacity="0.4" d="M21 18V8C21 5.79086 19.2091 4 17 4H7C4.79086 4 3 5.79086 3 8V18C3 20.2091 4.79086 22 7 22H17C19.2091 22 21 20.2091 21 18Z" fill="#28303F"/>
<rect x="8" y="2" width="8" height="4" rx="2" fill="#28303F"/>
<path fill-rule="evenodd" clip-rule="evenodd" d="M12.75 15.1895L13.4697 14.4698C13.7626 14.1769 14.2374 14.1769 14.5303 14.4698C14.8232 14.7627 14.8232 15.2376 14.5303 15.5305L13.2374 16.8234C12.554 17.5068 11.446 17.5068 10.7626 16.8234L9.46967 15.5305C9.17678 15.2376 9.17678 14.7627 9.46967 14.4698C9.76256 14.1769 10.2374 14.1769 10.5303 14.4698L11.25 15.1895V11.0002C11.25 10.5859 11.5858 10.2502 12 10.2502C12.4142 10.2502 12.75 10.5859 12.75 11.0002V15.1895Z" fill="#28303F"/>
</svg>
