<svg width="24" height="24" viewBox="0 0 24 24" fill="none" xmlns="http://www.w3.org/2000/svg">
<path opacity="0.4" d="M21 18V8C21 5.79086 19.2091 4 17 4H7C4.79086 4 3 5.79086 3 8V18C3 20.2091 4.79086 22 7 22H17C19.2091 22 21 20.2091 21 18Z" fill="#28303F"/>
<rect x="8" y="2" width="8" height="4" rx="2" fill="#28303F"/>
<path d="M12.2651 11.9169L11.9999 12.182L11.7348 11.9169C11.0025 11.1846 9.81534 11.1846 9.08311 11.9169C8.35088 12.6491 8.35088 13.8363 9.08311 14.5685L10.9393 16.4247C11.5251 17.0104 12.4748 17.0104 13.0606 16.4247L14.9167 14.5685C15.649 13.8363 15.649 12.6491 14.9167 11.9169C14.1845 11.1846 12.9973 11.1846 12.2651 11.9169Z" fill="#28303F"/>
</svg>
