<svg width="24" height="24" viewBox="0 0 24 24" fill="none" xmlns="http://www.w3.org/2000/svg">
<path fill-rule="evenodd" clip-rule="evenodd" d="M15.2246 8.60684C16.0541 7.56139 17 6.12304 17 5C17 3 15.6569 2 14 2C12.3431 2 11 3 11 5.20914C11 6.41359 11.8918 7.7288 12.7029 8.67596C13.3837 9.47089 14.574 9.4267 15.2246 8.60684ZM14 6C14.5523 6 15 5.55228 15 5C15 4.44772 14.5523 4 14 4C13.4477 4 13 4.44772 13 5C13 5.55228 13.4477 6 14 6ZM6 22C8 22 10 18.2091 10 16C10 13.7909 8.20914 12 6 12C3.79086 12 2 13.7909 2 16C2 18.2091 4 22 6 22ZM6 17.5C6.82843 17.5 7.5 16.8284 7.5 16C7.5 15.1716 6.82843 14.5 6 14.5C5.17157 14.5 4.5 15.1716 4.5 16C4.5 16.8284 5.17157 17.5 6 17.5ZM14.75 11C14.75 10.5858 14.4142 10.25 14 10.25C13.5858 10.25 13.25 10.5858 13.25 11V13C13.25 15.0711 14.9289 16.75 17 16.75H18C19.2426 16.75 20.25 17.7574 20.25 19C20.25 20.2426 19.2426 21.25 18 21.25H10C9.58579 21.25 9.25 21.5858 9.25 22C9.25 22.4142 9.58579 22.75 10 22.75H18C20.0711 22.75 21.75 21.0711 21.75 19C21.75 16.9289 20.0711 15.25 18 15.25H17C15.7574 15.25 14.75 14.2426 14.75 13V11Z" fill="#28303F"/>
</svg>
