<svg width="24" height="24" viewBox="0 0 24 24" fill="none" xmlns="http://www.w3.org/2000/svg">
<path fill-rule="evenodd" clip-rule="evenodd" d="M6.22455 8.60684C7.05408 7.56139 8 6.12304 8 5C8 3 6.65685 2 5 2C3.34315 2 2 3 2 5.20914C2 6.41359 2.89178 7.7288 3.70291 8.67596C4.38368 9.47089 5.57402 9.4267 6.22455 8.60684ZM5 6C5.55228 6 6 5.55228 6 5C6 4.44772 5.55228 4 5 4C4.44772 4 4 4.44772 4 5C4 5.55228 4.44772 6 5 6ZM5 22C7 22 9 18.2091 9 16C9 13.7909 7.20914 12 5 12C2.79086 12 1 13.7909 1 16C1 18.2091 3 22 5 22ZM5 17.5C5.82843 17.5 6.5 16.8284 6.5 16C6.5 15.1716 5.82843 14.5 5 14.5C4.17157 14.5 3.5 15.1716 3.5 16C3.5 16.8284 4.17157 17.5 5 17.5ZM22 5C22 6.12304 21.0541 7.56139 20.2246 8.60684C19.574 9.4267 18.3837 9.47089 17.7029 8.67596C16.8918 7.7288 16 6.41359 16 5.20914C16 3 17.3431 2 19 2C20.6569 2 22 3 22 5ZM20 5C20 5.55228 19.5523 6 19 6C18.4477 6 18 5.55228 18 5C18 4.44772 18.4477 4 19 4C19.5523 4 20 4.44772 20 5ZM18.0303 10.9697C18.3232 11.2626 18.3232 11.7374 18.0303 12.0303L17.8756 12.1851C17.5827 12.478 17.1078 12.478 16.8149 12.1851C16.522 11.8922 16.522 11.4173 16.8149 11.1244L16.9697 10.9697C17.2626 10.6768 17.7374 10.6768 18.0303 10.9697ZM16.0184 12.9816C16.3113 13.2745 16.3113 13.7493 16.0184 14.0422L15.7089 14.3518C15.416 14.6447 14.9411 14.6447 14.6482 14.3518C14.3553 14.0589 14.3553 13.584 14.6482 13.2911L14.9578 12.9816C15.2507 12.6887 15.7255 12.6887 16.0184 12.9816ZM13.8518 15.1482C14.1447 15.4411 14.1447 15.916 13.8518 16.2089L13.5422 16.5184C13.2493 16.8113 12.7745 16.8113 12.4816 16.5184C12.1887 16.2255 12.1887 15.7507 12.4816 15.4578L12.7911 15.1482C13.084 14.8553 13.5589 14.8553 13.8518 15.1482ZM11.6851 17.3149C11.978 17.6078 11.978 18.0827 11.6851 18.3756L11.5303 18.5303C11.2374 18.8232 10.7626 18.8232 10.4697 18.5303C10.1768 18.2374 10.1768 17.7626 10.4697 17.4697L10.6244 17.3149C10.9173 17.022 11.3922 17.022 11.6851 17.3149ZM9 8.75C8.58579 8.75 8.25 9.08579 8.25 9.5C8.25 9.91421 8.58579 10.25 9 10.25H9.21429C9.6285 10.25 9.96429 9.91421 9.96429 9.5C9.96429 9.08579 9.6285 8.75 9.21429 8.75H9ZM11.7857 8.75C11.3715 8.75 11.0357 9.08579 11.0357 9.5C11.0357 9.91421 11.3715 10.25 11.7857 10.25H12.2143C12.6285 10.25 12.9643 9.91421 12.9643 9.5C12.9643 9.08579 12.6285 8.75 12.2143 8.75H11.7857ZM14.7857 8.75C14.3715 8.75 14.0357 9.08579 14.0357 9.5C14.0357 9.91421 14.3715 10.25 14.7857 10.25H15C15.4142 10.25 15.75 9.91421 15.75 9.5C15.75 9.08579 15.4142 8.75 15 8.75H14.7857Z" fill="#28303F"/>
</svg>
