<svg width="24" height="24" viewBox="0 0 24 24" fill="none" xmlns="http://www.w3.org/2000/svg">
<path fill-rule="evenodd" clip-rule="evenodd" d="M21 7C21 9.20914 19 13 17 13C15 13 13 9.20914 13 7C13 4.79086 14.7909 3 17 3C19.2091 3 21 4.79086 21 7ZM18.5 7C18.5 7.82843 17.8284 8.5 17 8.5C16.1716 8.5 15.5 7.82843 15.5 7C15.5 6.17157 16.1716 5.5 17 5.5C17.8284 5.5 18.5 6.17157 18.5 7ZM10 12.25C8.48122 12.25 7.25 13.4812 7.25 15C7.25 16.5188 8.48122 17.75 10 17.75H19C19.6904 17.75 20.25 18.3096 20.25 19C20.25 19.6904 19.6904 20.25 19 20.25H3C2.58579 20.25 2.25 20.5858 2.25 21C2.25 21.4142 2.58579 21.75 3 21.75H19C20.5188 21.75 21.75 20.5188 21.75 19C21.75 17.4812 20.5188 16.25 19 16.25H10C9.30964 16.25 8.75 15.6904 8.75 15C8.75 14.3096 9.30964 13.75 10 13.75H13C13.4142 13.75 13.75 13.4142 13.75 13C13.75 12.5858 13.4142 12.25 13 12.25H10Z" fill="#28303F"/>
</svg>
