<svg width="24" height="24" viewBox="0 0 24 24" fill="none" xmlns="http://www.w3.org/2000/svg">
<path fill-rule="evenodd" clip-rule="evenodd" d="M20.2246 8.60684C21.0541 7.56139 22 6.12304 22 5C22 3 20.6569 2 19 2C17.3431 2 16 3 16 5.20914C16 6.41359 16.8918 7.7288 17.7029 8.67596C18.3837 9.47089 19.574 9.4267 20.2246 8.60684ZM19 6C19.5523 6 20 5.55228 20 5C20 4.44772 19.5523 4 19 4C18.4477 4 18 4.44772 18 5C18 5.55228 18.4477 6 19 6ZM6 22C8 22 10 18.2091 10 16C10 13.7909 8.20914 12 6 12C3.79086 12 2 13.7909 2 16C2 18.2091 4 22 6 22ZM6 17.5C6.82843 17.5 7.5 16.8284 7.5 16C7.5 15.1716 6.82843 14.5 6 14.5C5.17157 14.5 4.5 15.1716 4.5 16C4.5 16.8284 5.17157 17.5 6 17.5ZM17.5303 12.0303C17.8232 11.7374 17.8232 11.2626 17.5303 10.9697C17.2374 10.6768 16.7626 10.6768 16.4697 10.9697L16.309 11.1304C16.0161 11.4233 16.0161 11.8982 16.309 12.191C16.6018 12.4839 17.0767 12.4839 17.3696 12.191L17.5303 12.0303ZM15.441 14.1196C15.7339 13.8267 15.7339 13.3518 15.441 13.059C15.1482 12.7661 14.6733 12.7661 14.3804 13.059L14.059 13.3804C13.7661 13.6733 13.7661 14.1482 14.059 14.441C14.3518 14.7339 14.8267 14.7339 15.1196 14.441L15.441 14.1196ZM13.191 16.3696C13.4839 16.0767 13.4839 15.6018 13.191 15.309C12.8982 15.0161 12.4233 15.0161 12.1304 15.309L11.9697 15.4697C11.6768 15.7626 11.6768 16.2374 11.9697 16.5303C12.2626 16.8232 12.7374 16.8232 13.0303 16.5303L13.191 16.3696Z" fill="#28303F"/>
</svg>
