<svg width="24" height="24" viewBox="0 0 24 24" fill="none" xmlns="http://www.w3.org/2000/svg">
<path fill-rule="evenodd" clip-rule="evenodd" d="M19.9603 18.0534C18.1336 20.4519 15.2476 22 12 22C11.0479 22 10.1269 21.8669 9.25448 21.6184C10.5862 21.225 11.559 19.9946 11.559 18.5356C11.559 16.759 10.1163 15.3212 8.33979 15.3212C7.38893 15.3212 6.62059 14.5523 6.62059 13.6068C6.62059 11.8302 5.17793 10.3924 3.40139 10.3924H2.12854C2.89754 5.63384 7.0244 2 12 2C13.7259 2 15.3497 2.43723 16.7666 3.20697C16.4292 3.71514 16.232 4.3252 16.232 4.98135C16.232 5.92682 15.4637 6.69576 14.5128 6.69576C12.7362 6.69576 11.2936 8.13354 11.2936 9.91018C11.2936 11.6868 12.7362 13.1246 14.5128 13.1246C15.4637 13.1246 16.232 13.8935 16.232 14.839C16.232 16.6157 17.6747 18.0534 19.4512 18.0534H19.9603ZM20.9055 16.5534H19.4512C18.5003 16.5534 17.732 15.7845 17.732 14.839C17.732 13.0624 16.2893 11.6246 14.5128 11.6246C13.5619 11.6246 12.7936 10.8557 12.7936 9.91018C12.7936 8.96471 13.5619 8.19576 14.5128 8.19576C16.2893 8.19576 17.732 6.75799 17.732 4.98135C17.732 4.62532 17.8405 4.29446 18.0274 4.01992C20.4407 5.84556 22 8.74068 22 12C22 13.64 21.6052 15.1877 20.9055 16.5534ZM2.00057 11.8924C2.00019 11.9282 2 11.9641 2 12C2 15.1414 3.44852 17.9445 5.71407 19.7778C5.91857 19.9433 6.12973 20.1008 6.34707 20.25L8.33979 20.25C9.29065 20.25 10.059 19.4811 10.059 18.5356C10.059 17.5902 9.29065 16.8212 8.33979 16.8212C6.56325 16.8212 5.12059 15.3834 5.12059 13.6068C5.12059 12.6613 4.35225 11.8924 3.40139 11.8924H2.00057Z" fill="#28303F"/>
</svg>
