<svg width="24" height="24" viewBox="0 0 24 24" fill="none" xmlns="http://www.w3.org/2000/svg">
<path fill-rule="evenodd" clip-rule="evenodd" d="M9.87643 4.47813C9.18954 6.3671 8.75001 9.02637 8.75001 12C8.75001 12.3796 8.75718 12.754 8.7711 13.1224C9.79627 13.2054 10.8792 13.25 12 13.25C13.1208 13.25 14.2038 13.2054 15.2289 13.1224C15.2429 12.754 15.25 12.3796 15.25 12C15.25 9.02637 14.8105 6.3671 14.1236 4.47813C13.779 3.53057 13.3865 2.81652 12.9883 2.35338C12.8696 2.21534 12.7565 2.10612 12.6496 2.02076C12.4349 2.00699 12.2183 2 12 2C11.7818 2 11.5652 2.00699 11.3504 2.02076C11.2435 2.10612 11.1304 2.21534 11.0117 2.35338C10.6136 2.81652 10.221 3.53057 9.87643 4.47813ZM15.1315 14.6346C14.1291 14.71 13.0797 14.75 12 14.75C10.9203 14.75 9.87096 14.71 8.86854 14.6346C9.04293 16.5326 9.40024 18.2123 9.87643 19.5219C10.221 20.4694 10.6136 21.1835 11.0117 21.6466C11.1304 21.7847 11.2435 21.8939 11.3504 21.9792C11.5652 21.993 11.7818 22 12 22C12.2183 22 12.4349 21.993 12.6496 21.9792C12.7565 21.8939 12.8696 21.7847 12.9883 21.6466C13.3865 21.1835 13.779 20.4694 14.1236 19.5219C14.5998 18.2123 14.9571 16.5326 15.1315 14.6346ZM7.26493 12.968C7.25504 12.6486 7.25001 12.3257 7.25001 12C7.25001 8.8985 7.70592 6.05777 8.46674 3.96552C8.67341 3.39719 8.90681 2.87226 9.16688 2.407C5.12245 3.59958 2.14458 7.28026 2.00513 11.6772C2.88207 12.0753 4.09222 12.433 5.56698 12.7066C6.104 12.8062 6.67155 12.8938 7.26493 12.968ZM2.08791 13.3317C3.0045 13.6736 4.09274 13.9587 5.29339 14.1814C5.94235 14.3018 6.63038 14.4051 7.3503 14.4893C7.5238 16.6072 7.91514 18.5176 8.46674 20.0345C8.67341 20.6028 8.90681 21.1277 9.16688 21.593C5.43599 20.4929 2.6127 17.2755 2.08791 13.3317ZM16.6497 14.4893C17.3697 14.4051 18.0577 14.3018 18.7066 14.1814C19.9073 13.9587 20.9955 13.6736 21.9121 13.3317C21.3873 17.2755 18.564 20.4929 14.8332 21.593C15.0932 21.1277 15.3266 20.6028 15.5333 20.0345C16.0849 18.5176 16.4762 16.6072 16.6497 14.4893ZM21.9949 11.6772C21.118 12.0753 19.9078 12.433 18.4331 12.7066C17.896 12.8062 17.3285 12.8938 16.7351 12.968C16.745 12.6486 16.75 12.3257 16.75 12C16.75 8.8985 16.2941 6.05777 15.5333 3.96552C15.3266 3.39719 15.0932 2.87226 14.8332 2.407C18.8776 3.59958 21.8555 7.28026 21.9949 11.6772Z" fill="#28303F"/>
</svg>
