<svg width="24" height="24" viewBox="0 0 24 24" fill="none" xmlns="http://www.w3.org/2000/svg">
<path fill-rule="evenodd" clip-rule="evenodd" d="M12.75 2C12.75 1.58579 12.4142 1.25 12 1.25C11.5858 1.25 11.25 1.58579 11.25 2V4C11.25 4.0116 11.2503 4.02314 11.2508 4.03461C10.1082 4.14071 9.03539 4.48708 8.08325 5.0227L12.0612 9.00061C13.6693 9.03283 14.967 10.3305 14.9992 11.9387L18.9772 15.9166C19.5128 14.9645 19.8592 13.8917 19.9653 12.7492C19.9768 12.7497 19.9884 12.75 20 12.75H22C22.4142 12.75 22.75 12.4142 22.75 12C22.75 11.5858 22.4142 11.25 22 11.25H20C19.9884 11.25 19.9768 11.2503 19.9653 11.2508C19.6105 7.43051 16.5695 4.3895 12.7492 4.03463C12.7497 4.02315 12.75 4.01161 12.75 4V2ZM12.75 20C12.75 19.9884 12.7497 19.9769 12.7492 19.9654C14.3957 19.8125 15.8974 19.1606 17.1018 18.1624L20.4697 21.5303C20.7626 21.8232 21.2374 21.8232 21.5303 21.5303C21.8232 21.2374 21.8232 20.7626 21.5303 20.4697L3.53033 2.46967C3.23744 2.17678 2.76256 2.17678 2.46967 2.46967C2.17678 2.76256 2.17678 3.23744 2.46967 3.53033L5.83758 6.89824C4.83941 8.10257 4.18754 9.6043 4.03462 11.2508C4.02315 11.2503 4.0116 11.25 4 11.25H2C1.58579 11.25 1.25 11.5858 1.25 12C1.25 12.4142 1.58579 12.75 2 12.75H4C4.0116 12.75 4.02315 12.7497 4.03462 12.7492C4.38944 16.5695 7.43047 19.6106 11.2508 19.9654C11.2503 19.9769 11.25 19.9884 11.25 20V22C11.25 22.4142 11.5858 22.75 12 22.75C12.4142 22.75 12.75 22.4142 12.75 22V20ZM12 15C10.3431 15 9 13.6569 9 12C9 11.4437 9.15145 10.9227 9.41537 10.4761L13.524 14.5847C13.0773 14.8486 12.5564 15 12 15Z" fill="#28303F"/>
</svg>
