<svg width="24" height="24" viewBox="0 0 24 24" fill="none" xmlns="http://www.w3.org/2000/svg">
<path fill-rule="evenodd" clip-rule="evenodd" d="M12 1.25C12.4142 1.25 12.75 1.58579 12.75 2V4C12.75 4.0116 12.7497 4.02315 12.7492 4.03462C16.5695 4.38944 19.6106 7.43048 19.9654 11.2508C19.9769 11.2503 19.9884 11.25 20 11.25H22C22.4142 11.25 22.75 11.5858 22.75 12C22.75 12.4142 22.4142 12.75 22 12.75H20C19.9884 12.75 19.9769 12.7497 19.9654 12.7492C19.6106 16.5695 16.5695 19.6106 12.7492 19.9654C12.7497 19.9769 12.75 19.9884 12.75 20V22C12.75 22.4142 12.4142 22.75 12 22.75C11.5858 22.75 11.25 22.4142 11.25 22V20C11.25 19.9884 11.2503 19.9769 11.2508 19.9654C7.43048 19.6106 4.38944 16.5695 4.03462 12.7492C4.02315 12.7497 4.0116 12.75 4 12.75H2C1.58579 12.75 1.25 12.4142 1.25 12C1.25 11.5858 1.58579 11.25 2 11.25H4C4.0116 11.25 4.02315 11.2503 4.03462 11.2508C4.38944 7.43048 7.43047 4.38944 11.2508 4.03462C11.2503 4.02315 11.25 4.0116 11.25 4V2C11.25 1.58579 11.5858 1.25 12 1.25ZM9.24761 12.4159L10.7628 12.9209C10.9121 12.9707 11.0293 13.0879 11.0791 13.2372L11.5841 14.7524C11.7295 15.1886 12.3369 15.2138 12.518 14.7912L14.5076 10.1489C14.6854 9.73407 14.2659 9.3146 13.8511 9.4924L9.20877 11.482C8.78618 11.6631 8.81145 12.2705 9.24761 12.4159Z" fill="#28303F"/>
</svg>
