<svg width="24" height="24" viewBox="0 0 24 24" fill="none" xmlns="http://www.w3.org/2000/svg">
<path fill-rule="evenodd" clip-rule="evenodd" d="M21 9.91558V17.9865C21 20.2031 19.2091 22 17 22L12 22C14 22 17 17.7614 17 15C17 12.2386 14.7614 10 12 10C9.23858 10 7 12.2386 7 15C7 17.7614 10 22 12 22L7 22C4.79086 22 3 20.2031 3 17.9865V9.91558C3 8.67704 3.56989 7.50788 4.54424 6.74749L9.54424 2.84544C10.9887 1.71819 13.0113 1.71819 14.4558 2.84544L19.4558 6.74749C20.4301 7.50788 21 8.67704 21 9.91558ZM13.5 15C13.5 15.8284 12.8284 16.5 12 16.5C11.1716 16.5 10.5 15.8284 10.5 15C10.5 14.1716 11.1716 13.5 12 13.5C12.8284 13.5 13.5 14.1716 13.5 15Z" fill="#28303F"/>
</svg>
