<svg width="24" height="24" viewBox="0 0 24 24" fill="none" xmlns="http://www.w3.org/2000/svg">
<path fill-rule="evenodd" clip-rule="evenodd" d="M12 22H7.81965C5.5109 22 3.6393 20.214 3.6393 18.0108V13.133C3.6393 12.4248 3.34447 11.7456 2.81969 11.2448C1.60381 10.0845 1.76187 8.16205 3.15251 7.19692L9.54124 2.763C11.0071 1.74567 12.9929 1.74567 14.4588 2.763L20.8475 7.19691C22.2381 8.16205 22.3962 10.0845 21.1803 11.2448C20.6555 11.7456 20.3607 12.4248 20.3607 13.133V18.0108C20.3607 20.214 18.4891 22 16.1804 22H12ZM17 15C17 17.7614 14 22 12 22C10 22 7 17.7614 7 15C7 12.2386 9.23858 10 12 10C14.7614 10 17 12.2386 17 15ZM13.5 15C13.5 15.8284 12.8284 16.5 12 16.5C11.1716 16.5 10.5 15.8284 10.5 15C10.5 14.1716 11.1716 13.5 12 13.5C12.8284 13.5 13.5 14.1716 13.5 15Z" fill="#28303F"/>
</svg>
