<svg width="24" height="24" viewBox="0 0 24 24" fill="none" xmlns="http://www.w3.org/2000/svg">
<path fill-rule="evenodd" clip-rule="evenodd" d="M19 11C19 15.4183 14.5 20 12 20C9.5 20 5 15.4183 5 11C5 6.58172 8.13401 4 12 4C15.866 4 19 6.58172 19 11ZM14.5 11C14.5 12.3807 13.3807 13.5 12 13.5C10.6193 13.5 9.5 12.3807 9.5 11C9.5 9.61929 10.6193 8.5 12 8.5C13.3807 8.5 14.5 9.61929 14.5 11ZM3.71479 6.34102C3.90311 5.97209 3.7567 5.52035 3.38777 5.33203C3.01884 5.14371 2.5671 5.29013 2.37878 5.65905C1.65066 7.0855 1.25 8.75377 1.25 10.625C1.25 11.8543 1.49203 13.0773 1.90071 14.2473C2.03729 14.6384 2.46502 14.8447 2.85607 14.7081C3.24712 14.5715 3.4534 14.1438 3.31681 13.7527C2.95378 12.7134 2.75 11.6583 2.75 10.625C2.75 8.97116 3.10307 7.53942 3.71479 6.34102ZM21.6212 5.65905C21.4329 5.29013 20.9812 5.14371 20.6122 5.33203C20.2433 5.52035 20.0969 5.97209 20.2852 6.34102C20.8969 7.53942 21.25 8.97116 21.25 10.625C21.25 11.6583 21.0462 12.7134 20.6832 13.7527C20.5466 14.1438 20.7529 14.5715 21.1439 14.7081C21.535 14.8447 21.9627 14.6384 22.0993 14.2473C22.508 13.0773 22.75 11.8543 22.75 10.625C22.75 8.75377 22.3493 7.0855 21.6212 5.65905Z" fill="#28303F"/>
</svg>
