<svg width="24" height="24" viewBox="0 0 24 24" fill="none" xmlns="http://www.w3.org/2000/svg">
<path fill-rule="evenodd" clip-rule="evenodd" d="M21 10.8889C21 15.7981 15.375 22 12 22C8.625 22 3 15.7981 3 10.8889C3 5.97969 7.02944 2 12 2C16.9706 2 21 5.97969 21 10.8889ZM17 11C17 12.6967 16.1549 14.196 14.8626 15.1C14.0517 15.6672 13.0647 16 12 16C10.9353 16 9.94828 15.6672 9.13736 15.1C7.84511 14.196 7 12.6967 7 11C7 8.23858 9.23858 6 12 6C14.7614 6 17 8.23858 17 11ZM13.5 9C13.5 9.82843 12.8284 10.5 12 10.5C11.1716 10.5 10.5 9.82843 10.5 9C10.5 8.17157 11.1716 7.5 12 7.5C12.8284 7.5 13.5 8.17157 13.5 9ZM14.5 13.5C14.1177 12.2829 13.3434 11.5 12.0001 11.5C10.6568 11.5 9.88229 12.2829 9.5 13.5C10.3109 14.0673 10.9354 14.5 12.0001 14.5C13.0648 14.5 13.6891 14.0673 14.5 13.5Z" fill="#28303F"/>
</svg>
