<svg width="24" height="24" viewBox="0 0 24 24" fill="none" xmlns="http://www.w3.org/2000/svg">
<path fill-rule="evenodd" clip-rule="evenodd" d="M21 10.8889C21 15.7981 15.375 22 12 22C8.625 22 3 15.7981 3 10.8889C3 5.97969 7.02944 2 12 2C16.9706 2 21 5.97969 21 10.8889ZM17 11C17 13.7614 14.7614 16 12 16C9.23858 16 7 13.7614 7 11C7 8.23858 9.23858 6 12 6C14.7614 6 17 8.23858 17 11ZM11.116 9.05549C10.8231 8.76259 10.3483 8.76259 10.0554 9.05549C9.76247 9.34838 9.76247 9.82325 10.0554 10.1161L10.9393 11.0001L10.0555 11.8839C9.76266 12.1768 9.76266 12.6517 10.0555 12.9446C10.3484 13.2375 10.8233 13.2375 11.1162 12.9446L12 12.0608L12.8838 12.9446C13.1767 13.2375 13.6516 13.2375 13.9445 12.9446C14.2373 12.6517 14.2373 12.1768 13.9445 11.8839L13.0607 11.0001L13.9446 10.1161C14.2375 9.82325 14.2375 9.34838 13.9446 9.05549C13.6517 8.76259 13.1769 8.76259 12.884 9.05549L12 9.93946L11.116 9.05549Z" fill="#28303F"/>
</svg>
