<svg width="24" height="24" viewBox="0 0 24 24" fill="none" xmlns="http://www.w3.org/2000/svg">
<path fill-rule="evenodd" clip-rule="evenodd" d="M12 17C14 17 18 12.3137 18 9C18 5.68629 15.3137 3 12 3C8.68629 3 6 5.68629 6 9C6 12.3137 10 17 12 17ZM12 11C13.1046 11 14 10.1046 14 9C14 7.89543 13.1046 7 12 7C10.8954 7 10 7.89543 10 9C10 10.1046 10.8954 11 12 11Z" fill="#28303F"/>
<path fill-rule="evenodd" clip-rule="evenodd" d="M7.01158 15.094C6.15376 15.2833 5.37338 15.7521 4.80071 16.4393L3.73374 17.7197C2.64819 19.0223 3.5745 21 5.27018 21H18.73C20.4257 21 21.352 19.0223 20.2665 17.7197L19.1995 16.4393C18.6268 15.7521 17.8464 15.2833 16.9886 15.094C16.9685 15.1199 16.9483 15.1457 16.9281 15.1713C16.2403 16.0438 15.4619 16.8319 14.6801 17.417C13.9573 17.9579 13.0023 18.5 12.0001 18.5C10.9979 18.5 10.0429 17.9579 9.3201 17.417C8.53826 16.8319 7.75984 16.0438 7.07207 15.1713C7.05189 15.1456 7.03172 15.1199 7.01158 15.094Z" fill="#28303F"/>
</svg>
