<svg width="24" height="24" viewBox="0 0 24 24" fill="none" xmlns="http://www.w3.org/2000/svg">
<path d="M16.75 13.925V21.8421C18.4424 21.3861 20.2888 20.1186 21.2778 19.3708C21.7446 19.0179 22 18.4612 22 17.876V8.20656C22 7.35311 20.9721 6.85821 20.2637 7.33423C19.4493 7.8815 18.4384 8.4787 17.434 8.85871V12.5217C17.434 13.098 17.1647 13.6088 16.75 13.925Z" fill="#28303F"/>
<path d="M12 20.3931C11.014 19.6431 10.0281 18.893 8.75 18.7862V6.02588C10.0281 6.13266 11.014 6.88271 12 7.63275C12.6683 8.14114 13.3366 8.64952 14.0958 8.9576V12.5217C14.0958 13.2945 14.5802 13.9496 15.25 14.1755V22C13.9719 21.8932 12.9859 21.1432 12 20.3931Z" fill="#28303F"/>
<path d="M2.72215 8.65509C3.71116 7.90728 5.55765 6.63983 7.25 6.18384V18.9442C6.03308 19.2721 4.73646 20.0195 3.73627 20.6917C3.0279 21.1677 2 20.6728 2 19.8193V10.1499C2 9.56474 2.25538 9.00803 2.72215 8.65509Z" fill="#28303F"/>
<path fill-rule="evenodd" clip-rule="evenodd" d="M16.5149 5.85853C17.2479 5.56183 17.7649 4.84325 17.7649 4.00391C17.7649 2.89934 16.8695 2.00391 15.7649 2.00391C14.6603 2.00391 13.7649 2.89934 13.7649 4.00391C13.7649 4.84325 14.2819 5.56183 15.0149 5.85853V12.0039C15.0149 12.4181 15.3507 12.7539 15.7649 12.7539C16.1791 12.7539 16.5149 12.4181 16.5149 12.0039V5.85853Z" fill="#28303F"/>
</svg>
