<svg width="24" height="24" viewBox="0 0 24 24" fill="none" xmlns="http://www.w3.org/2000/svg">
<path d="M3.46828 4.10149C4.69466 3.2504 6.48142 2.19476 8 2.02478C9.65915 1.83906 10.8296 2.72944 12 3.61982C13.1704 4.5102 14.3408 5.40058 16 5.21487C17.4113 5.0569 19.0542 4.13397 20.2637 3.32119C20.9721 2.84517 22 3.34007 22 4.19353V12.9408C22 14.1111 21.4932 15.2312 20.5317 15.8985C20.2108 16.1212 19.8516 16.3579 19.4688 16.5891L20.3658 13.898C21.0381 11.881 19.1192 9.96208 17.1022 10.6344L9.26429 13.2471C8.9384 13.3557 8.64328 13.5226 8.39065 13.7394C8.04041 14.0399 7.79248 14.4228 7.64943 14.8388C6.32284 15.0933 4.84683 15.9325 3.73627 16.6788C3.0279 17.1548 2 16.6599 2 15.8065V7.05925C2 5.88887 2.50676 4.76877 3.46828 4.10149Z" fill="#28303F"/>
<path d="M12.6328 17.6841L9.73855 16.7193C8.89896 16.4394 8.77521 15.3856 9.3673 14.8776C9.46966 14.7898 9.59341 14.7183 9.73855 14.6699L17.5765 12.0573C18.4208 11.7758 19.2242 12.5792 18.9427 13.4235L17.5655 17.5551L16.3301 21.2614C16.0018 22.2462 14.6089 22.2462 14.2807 21.2614L13.3159 18.3672C13.2084 18.0447 12.9553 17.7916 12.6328 17.6841Z" fill="#28303F"/>
</svg>
