<svg width="24" height="24" viewBox="0 0 24 24" fill="none" xmlns="http://www.w3.org/2000/svg">
<path d="M16.75 11.1515V21.8914C18.4424 21.4354 20.2888 20.1679 21.2778 19.4201C21.7446 19.0672 22 18.5105 22 17.9253V8.25588C22 7.40243 20.9721 6.90752 20.2637 7.38354C19.576 7.8457 18.7481 8.34347 17.9024 8.71597C17.8843 8.77018 17.8658 8.82421 17.847 8.87804C17.5779 9.64449 17.2039 10.4297 16.75 11.1515Z" fill="#28303F"/>
<path d="M8.75 11.9751V18.8355C10.0281 18.9423 11.014 19.6924 12 20.4424C12.9859 21.1924 13.9719 21.9425 15.25 22.0493V12.9771C14.5035 13.6497 13.5564 14.1942 12.462 14.1942C11.4821 14.1942 10.6263 13.7526 9.95708 13.2181C9.51478 12.8649 9.11057 12.4378 8.75 11.9751Z" fill="#28303F"/>
<path d="M6.58941 6.44751C5.09544 7.00775 3.58355 8.05326 2.72215 8.70459C2.25538 9.05753 2 9.61424 2 10.1994V19.8688C2 20.7223 3.0279 21.2172 3.73627 20.7412C4.73646 20.069 6.03308 19.3216 7.25 18.9937V9.33709C6.8583 8.36316 6.6092 7.35043 6.58941 6.44751Z" fill="#28303F"/>
<path fill-rule="evenodd" clip-rule="evenodd" d="M16.5679 8.42959C16.8299 7.68317 16.9803 6.95086 16.9803 6.33274C16.9803 3.93714 14.9574 1.99512 12.462 1.99512C10.1471 1.99512 8.23881 3.66628 7.97479 5.82043C7.95419 5.98845 7.9436 6.15941 7.9436 6.33274C7.9436 8.72834 10.2028 12.8392 12.462 12.8392C14.1382 12.8392 15.8145 10.576 16.5679 8.42959ZM12.462 7.41709C13.2106 7.41709 13.8175 6.81021 13.8175 6.06158C13.8175 5.31295 13.2106 4.70607 12.462 4.70607C11.7133 4.70607 11.1064 5.31295 11.1064 6.06158C11.1064 6.81021 11.7133 7.41709 12.462 7.41709Z" fill="#28303F"/>
</svg>
