<svg width="24" height="24" viewBox="0 0 24 24" fill="none" xmlns="http://www.w3.org/2000/svg">
<path d="M10.6308 6.65903C9.86356 6.20605 9.02505 5.91004 8 6.02478C6.13272 6.23379 3.85997 7.78189 2.72215 8.64222C2.25538 8.99516 2 9.55187 2 10.1371V19.8065C2 20.6599 3.0279 21.1548 3.73627 20.6788C4.94575 19.866 6.58869 18.9431 8 18.7851C9.65915 18.5994 10.8296 19.4898 12 20.3802C13.1704 21.2706 14.3408 22.1609 16 21.9752C17.8673 21.7662 20.14 20.2181 21.2778 19.3578C21.7446 19.0048 22 18.4481 22 17.8629V8.19353C22 7.34007 20.9721 6.84517 20.2637 7.32119C20.1535 7.39524 20.0398 7.4702 19.9229 7.54542C19.9466 7.59293 19.9697 7.64083 19.992 7.6891C20.3185 8.39356 20.5 9.17765 20.5 10C20.5 11.2095 19.6411 12.2184 18.5 12.45V14C18.5 15.933 16.933 17.5 15 17.5C13.067 17.5 11.5 15.933 11.5 14V12.45C10.3589 12.2184 9.5 11.2095 9.5 10C9.5 9.00157 9.7674 8.06105 10.2355 7.25101C10.3547 7.04472 10.4869 6.84703 10.6308 6.65903Z" fill="#28303F"/>
<path fill-rule="evenodd" clip-rule="evenodd" d="M15 6C16.1046 6 17 5.10457 17 4C17 2.89543 16.1046 2 15 2C13.8954 2 13 2.89543 13 4C13 5.10457 13.8954 6 15 6ZM15 6C13.7292 6 12.5968 6.5926 11.8641 7.51654C11.7428 7.66952 11.6325 7.83157 11.5342 8.00153C11.1945 8.58953 11 9.27206 11 10C11 10.5523 11.4477 11 12 11C12.5523 11 13 11.4477 13 12V14C13 15.1046 13.8954 16 15 16C16.1046 16 17 15.1046 17 14V12C17 11.5644 17.2786 11.1938 17.6673 11.0567C17.7714 11.02 17.8834 11 18 11C18.5523 11 19 10.5523 19 10C19 9.39992 18.8679 8.83071 18.6311 8.31987C17.9962 6.95008 16.6091 6 15 6Z" fill="#28303F"/>
</svg>
