<svg width="24" height="24" viewBox="0 0 24 24" fill="none" xmlns="http://www.w3.org/2000/svg">
<path fill-rule="evenodd" clip-rule="evenodd" d="M17 22C19 22 22 17.7614 22 15C22 12.2386 19.7614 10 17 10C14.2386 10 12 12.2386 12 15C12 15.4902 12.0945 16.027 12.2613 16.5783C13.0336 19.1327 15.355 22 17 22ZM17 16C17.8284 16 18.5 15.3284 18.5 14.5C18.5 13.6716 17.8284 13 17 13C16.1716 13 15.5 13.6716 15.5 14.5C15.5 15.3284 16.1716 16 17 16Z" fill="#28303F"/>
<path d="M3.46828 4.10149C4.69466 3.2504 6.48142 2.19476 8 2.02478C9.65915 1.83906 10.8296 2.72944 12 3.61982C13.1704 4.5102 14.3408 5.40058 16 5.21487C17.4113 5.0569 19.0542 4.13397 20.2637 3.32119C20.9721 2.84517 22 3.34007 22 4.19353V10.8464C20.8077 9.41273 19.0104 8.5 17 8.5C13.4101 8.5 10.5 11.4101 10.5 15C10.5 15.1165 10.5038 15.2334 10.5112 15.3504C9.77637 14.9369 8.97206 14.6763 8 14.7851C6.58869 14.9431 4.94575 15.866 3.73627 16.6788C3.0279 17.1548 2 16.6599 2 15.8065V7.05925C2 5.88887 2.50676 4.76877 3.46828 4.10149Z" fill="#28303F"/>
</svg>
