<svg width="24" height="24" viewBox="0 0 24 24" fill="none" xmlns="http://www.w3.org/2000/svg">
<path fill-rule="evenodd" clip-rule="evenodd" d="M21.5591 9.10611C21.836 8.37202 22 7.64564 22 7C22 4.23858 19.7614 2 17 2C14.2386 2 12 4.23858 12 7C12 7.21174 12.0176 7.43217 12.0511 7.6587C12.4542 10.3865 15.1534 14 17 14C18.5324 14 20.6518 11.5117 21.5591 9.10611ZM17 8C17.8284 8 18.5 7.32843 18.5 6.5C18.5 5.67157 17.8284 5 17 5C16.1716 5 15.5 5.67157 15.5 6.5C15.5 7.32843 16.1716 8 17 8Z" fill="#28303F"/>
<path d="M10.5127 6.5909C10.5043 6.72619 10.5 6.8626 10.5 7C10.5 7.29424 10.5244 7.58844 10.5672 7.87797C10.8166 9.56565 11.7335 11.3848 12.7947 12.7661C13.3339 13.4679 13.9545 14.1153 14.6162 14.6015C15.2491 15.0666 16.0776 15.5 17 15.5C17.7737 15.5 18.4746 15.1944 19.0329 14.8414C19.6067 14.4786 20.1455 13.993 20.6263 13.4615C21.1223 12.9133 21.591 12.278 22 11.6011V16.9408C22 18.1111 21.4932 19.2312 20.5317 19.8985C19.3053 20.7496 17.5186 21.8052 16 21.9752C14.3408 22.1609 13.1704 21.2706 12 20.3802C10.8296 19.4898 9.65915 18.5994 8 18.7851C6.58869 18.9431 4.94575 19.866 3.73627 20.6788C3.0279 21.1548 2 20.6599 2 19.8065V11.0592C2 9.88887 2.50676 8.76877 3.46828 8.10149C4.69466 7.2504 6.48142 6.19476 8 6.02478C8.97271 5.9159 9.77744 6.17689 10.5127 6.5909Z" fill="#28303F"/>
</svg>
