<svg width="24" height="24" viewBox="0 0 24 24" fill="none" xmlns="http://www.w3.org/2000/svg">
<path d="M20.645 15.8817C20.8812 15.7156 21.0943 15.5589 21.2778 15.4201C21.7446 15.0672 22 14.5105 22 13.9253V4.25588C22 3.40243 20.9721 2.90752 20.2637 3.38354C19.2635 4.05567 17.9669 4.80314 16.75 5.13103V11.0008L18.0668 10.5619C20.0838 9.88957 22.0027 11.8085 21.3304 13.8255L20.645 15.8817Z" fill="#28303F"/>
<path d="M8.75 14.443C8.89585 14.1529 9.09794 13.8876 9.35525 13.6669C9.60788 13.4501 9.903 13.2832 10.2289 13.1745L15.25 11.5008V5.28894C13.9719 5.18216 12.986 4.43211 12 3.68207C11.014 2.93202 10.0281 2.18198 8.75 2.0752V14.443Z" fill="#28303F"/>
<path d="M2.72215 4.70441C3.71116 3.95659 5.55765 2.68915 7.25 2.23315V14.9935C6.03308 15.3214 4.73646 16.0689 3.73627 16.741C3.0279 17.217 2 16.7221 2 15.8687V6.19925C2 5.61406 2.25538 5.05734 2.72215 4.70441Z" fill="#28303F"/>
<path d="M13.5974 17.6115L10.7031 16.6468C9.86356 16.3669 9.73981 15.3131 10.3319 14.8051C10.4343 14.7173 10.558 14.6458 10.7031 14.5974L18.5411 11.9848C19.3854 11.7033 20.1888 12.5066 19.9073 13.351L18.5301 17.4826L17.2947 21.1889C16.9664 22.1737 15.5735 22.1737 15.2453 21.1889L14.2805 18.2947C14.173 17.9721 13.9199 17.7191 13.5974 17.6115Z" fill="#28303F"/>
</svg>
