<svg width="24" height="24" viewBox="0 0 24 24" fill="none" xmlns="http://www.w3.org/2000/svg">
<path fill-rule="evenodd" clip-rule="evenodd" d="M16.1942 17.949C16.6863 16.9404 17 15.893 17 15C17 12.2386 14.7614 10 12 10C9.23858 10 7 12.2386 7 15C7 17.7614 10 22 12 22C13.3533 22 15.1644 20.0594 16.1942 17.949ZM12 16C12.8284 16 13.5 15.3284 13.5 14.5C13.5 13.6716 12.8284 13 12 13C11.1716 13 10.5 13.6716 10.5 14.5C10.5 15.3284 11.1716 16 12 16Z" fill="#28303F"/>
<path d="M2.72215 4.64222C3.85997 3.78189 6.13272 2.23379 8 2.02478C9.65915 1.83906 10.8296 2.72944 12 3.61982C13.1704 4.5102 14.3408 5.40058 16 5.21487C17.4113 5.0569 19.0542 4.13397 20.2637 3.32119C20.9721 2.84517 22 3.34007 22 4.19353V13.8629C22 14.4481 21.7446 15.0048 21.2778 15.3578C20.5432 15.9132 19.3356 16.7554 18.0694 17.3387C18.3325 16.5696 18.5 15.7696 18.5 15C18.5 11.4101 15.5899 8.5 12 8.5C8.41015 8.5 5.5 11.4101 5.5 15C5.5 15.202 5.51156 15.4069 5.53361 15.6136C4.88818 15.94 4.27002 16.3201 3.73627 16.6788C3.0279 17.1548 2 16.6599 2 15.8065V6.13706C2 5.55187 2.25538 4.99516 2.72215 4.64222Z" fill="#28303F"/>
</svg>
