<svg width="24" height="24" viewBox="0 0 24 24" fill="none" xmlns="http://www.w3.org/2000/svg">
<path d="M16.75 17.1605V21.8076C18.4424 21.3516 20.2888 20.0842 21.2778 19.3364C21.7446 18.9835 22 18.4267 22 17.8416V8.17214C22 7.31868 20.9721 6.82378 20.2637 7.2998C20.2109 7.33534 20.1572 7.37108 20.1027 7.40696C20.1517 7.4986 20.1982 7.59179 20.242 7.68642C20.5685 8.39087 20.75 9.17496 20.75 9.99731C20.75 11.2068 19.8911 12.2157 18.75 12.4473V13.9973C18.75 15.3935 17.9325 16.5988 16.75 17.1605Z" fill="#28303F"/>
<path d="M10.812 6.74814C10.1884 6.35559 9.52257 6.056 8.75 5.99146V18.7518C10.0281 18.8586 11.014 19.6086 12 20.3587C12.9859 21.1087 13.9719 21.8588 15.25 21.9656V17.4973C13.317 17.4973 11.75 15.9303 11.75 13.9973V12.4473C10.6089 12.2157 9.75 11.2068 9.75 9.99731C9.75 8.99889 10.0174 8.05836 10.4855 7.24833C10.5855 7.07533 10.6945 6.90839 10.812 6.74814Z" fill="#28303F"/>
<path d="M7.25 6.14941C5.55765 6.60541 3.71116 7.87285 2.72215 8.62067C2.25538 8.9736 2 9.53032 2 10.1155V19.7849C2 20.6384 3.0279 21.1333 3.73627 20.6573C4.73646 19.9851 6.03308 19.2377 7.25 18.9098V6.14941Z" fill="#28303F"/>
<path fill-rule="evenodd" clip-rule="evenodd" d="M15.25 5.99731C16.3546 5.99731 17.25 5.10188 17.25 3.99731C17.25 2.89274 16.3546 1.99731 15.25 1.99731C14.1454 1.99731 13.25 2.89274 13.25 3.99731C13.25 5.10188 14.1454 5.99731 15.25 5.99731ZM15.25 5.99731C13.9792 5.99731 12.8468 6.58992 12.1141 7.51386C11.9928 7.66683 11.8825 7.82889 11.7842 7.99884C11.4445 8.58684 11.25 9.26937 11.25 9.99731C11.25 10.5496 11.6977 10.9973 12.25 10.9973C12.8023 10.9973 13.25 11.445 13.25 11.9973V13.9973C13.25 15.1019 14.1454 15.9973 15.25 15.9973C16.3546 15.9973 17.25 15.1019 17.25 13.9973V11.9973C17.25 11.5617 17.5286 11.1911 17.9173 11.054C18.0214 11.0173 18.1334 10.9973 18.25 10.9973C18.8023 10.9973 19.25 10.5496 19.25 9.99731C19.25 9.39724 19.1179 8.82803 18.8811 8.31719C18.2462 6.9474 16.8591 5.99731 15.25 5.99731Z" fill="#28303F"/>
</svg>
