<svg width="24" height="24" viewBox="0 0 24 24" fill="none" xmlns="http://www.w3.org/2000/svg">
<path d="M16.75 13.7573V21.8527C18.4424 21.3967 20.2888 20.1293 21.2778 19.3814C21.7446 19.0285 22 18.4718 22 17.8866V8.21719C22 7.69652 21.6174 7.3093 21.1582 7.19458C21.0766 7.72268 20.9333 8.26097 20.7512 8.77984C20.3321 9.97391 19.6546 11.214 18.8164 12.1814C18.2813 12.7989 17.5806 13.4173 16.75 13.7573Z" fill="#28303F"/>
<path d="M9.6457 6.22302C9.36195 6.12826 9.06484 6.06293 8.75 6.03662V18.797C10.0281 18.9038 11.014 19.6538 12 20.4038C12.9859 21.1539 13.9719 21.9039 15.25 22.0107V14.0182C14.3625 13.966 13.5853 13.5535 12.9686 13.0611C12.3006 12.5276 11.7206 11.8231 11.2483 11.0833C10.3246 9.63619 9.64551 7.78321 9.64551 6.26878C9.64551 6.25352 9.64557 6.23826 9.6457 6.22302Z" fill="#28303F"/>
<path d="M2.72215 8.66608C3.71116 7.91826 5.55765 6.65082 7.25 6.19482V18.9552C6.03308 19.2831 4.73646 20.0305 3.73627 20.7027C3.0279 21.1787 2 20.6838 2 19.8303V10.1609C2 9.57573 2.25538 9.01901 2.72215 8.66608Z" fill="#28303F"/>
<path fill-rule="evenodd" clip-rule="evenodd" d="M19.4896 8.33744C19.748 7.60117 19.8964 6.87882 19.8964 6.26911C19.8964 3.90609 17.9009 1.99048 15.4395 1.99048C13.1561 1.99048 11.2737 3.63891 11.0133 5.76377C10.993 5.9295 10.9825 6.09814 10.9825 6.26911C10.9825 8.63214 13.211 12.6871 15.4395 12.6871C17.0929 12.6871 18.7464 10.4547 19.4896 8.33744ZM15.4395 7.33871C16.1779 7.33871 16.7766 6.74008 16.7766 6.00164C16.7766 5.2632 16.1779 4.66457 15.4395 4.66457C14.701 4.66457 14.1024 5.2632 14.1024 6.00164C14.1024 6.74008 14.701 7.33871 15.4395 7.33871Z" fill="#28303F"/>
</svg>
