<svg width="24" height="24" viewBox="0 0 24 24" fill="none" xmlns="http://www.w3.org/2000/svg">
<path d="M13.75 8.78823C13.13 8.47946 12.565 8.04964 12 7.61982C10.8296 6.72944 9.65915 5.83906 8 6.02478C6.48142 6.19476 4.69466 7.2504 3.46828 8.10149C2.50676 8.76877 2 9.88887 2 11.0592V19.8065C2 20.6599 3.0279 21.1548 3.73627 20.6788C4.94575 19.866 6.58869 18.9431 8 18.7851C9.65915 18.5994 10.8296 19.4898 12 20.3802C13.1704 21.2706 14.3408 22.1609 16 21.9752C17.5186 21.8052 19.3053 20.7496 20.5317 19.8985C21.4932 19.2312 22 18.1111 22 16.9408V8.19353C22 7.34007 20.9721 6.84517 20.2637 7.32119C19.6706 7.71979 18.9732 8.14487 18.25 8.49324V12C18.25 13.2426 17.2426 14.25 16 14.25C14.7574 14.25 13.75 13.2426 13.75 12V8.78823Z" fill="#28303F"/>
<path fill-rule="evenodd" clip-rule="evenodd" d="M16.75 5.85462C17.483 5.55793 18 4.83934 18 4C18 2.89543 17.1046 2 16 2C14.8954 2 14 2.89543 14 4C14 4.83934 14.517 5.55793 15.25 5.85462V12C15.25 12.4142 15.5858 12.75 16 12.75C16.4142 12.75 16.75 12.4142 16.75 12V5.85462Z" fill="#28303F"/>
</svg>
