<svg width="24" height="24" viewBox="0 0 24 24" fill="none" xmlns="http://www.w3.org/2000/svg">
<path d="M17.5891 17.4755C17.7991 16.7718 17.93 16.0493 17.93 15.3752C17.93 14.0725 17.4885 12.8848 16.75 11.9316V4.99846C17.9669 4.67057 19.2635 3.92311 20.2637 3.25098C20.9721 2.77495 22 3.26986 22 4.12331V13.7927C22 14.3779 21.7446 14.9346 21.2778 15.2876C20.4507 15.913 19.0239 16.9018 17.5891 17.4755Z" fill="#28303F"/>
<path d="M15.25 10.5685C14.3106 9.97181 13.1904 9.62769 12 9.62769C10.8086 9.62769 9.68875 9.97132 8.75 10.5677V1.94263C10.0281 2.04941 11.014 2.79946 12 3.5495C12.986 4.29955 13.9719 5.04959 15.25 5.15638V10.5685Z" fill="#28303F"/>
<path d="M7.25 11.9322C6.64429 12.7153 6.23851 13.657 6.11171 14.6915C6.08765 14.8878 6.07385 15.0868 6.07074 15.2879C5.23434 15.659 4.41671 16.1512 3.73627 16.6084C3.0279 17.0844 2 16.5895 2 15.7361V6.06668C2 5.48149 2.25538 4.92478 2.72215 4.57184C3.71116 3.82403 5.55765 2.55658 7.25 2.10059V11.9322Z" fill="#28303F"/>
<path fill-rule="evenodd" clip-rule="evenodd" d="M16.1451 17.492C16.4096 16.7385 16.5615 15.9992 16.5615 15.3752C16.5615 12.9567 14.5192 10.9961 11.9999 10.9961C9.66296 10.9961 7.73645 12.6832 7.4699 14.858C7.44911 15.0276 7.43842 15.2002 7.43842 15.3752C7.43842 17.7936 9.71918 21.9438 11.9999 21.9438C13.6922 21.9438 15.3845 19.659 16.1451 17.492ZM11.9999 16.4699C12.7557 16.4699 13.3684 15.8573 13.3684 15.1015C13.3684 14.3457 12.7557 13.733 11.9999 13.733C11.2442 13.733 10.6315 14.3457 10.6315 15.1015C10.6315 15.8573 11.2442 16.4699 11.9999 16.4699Z" fill="#28303F"/>
</svg>
