<svg width="24" height="24" viewBox="0 0 24 24" fill="none" xmlns="http://www.w3.org/2000/svg">
<path d="M8 4.02478C6.13272 4.23379 3.85997 5.78189 2.72215 6.64222C2.25538 6.99516 2 7.55187 2 8.13706V17.8065C2 18.6599 3.0279 19.1548 3.73627 18.6788C4.94575 17.866 6.58869 16.9431 8 16.7851C11.3183 16.4137 12.6817 20.3466 16 19.9752C17.8673 19.7662 20.14 18.2181 21.2778 17.3578C21.7446 17.0048 22 16.4481 22 15.8629V6.19353C22 5.34007 20.9721 4.84517 20.2637 5.32119C19.0542 6.13397 17.4113 7.0569 16 7.21487C12.6817 7.5863 11.3183 3.65335 8 4.02478Z" fill="#28303F"/>
</svg>
