<svg width="24" height="24" viewBox="0 0 24 24" fill="none" xmlns="http://www.w3.org/2000/svg">
<path fill-rule="evenodd" clip-rule="evenodd" d="M7.00005 7.82843V10.1716C7.00005 10.702 6.78933 11.2107 6.41426 11.5858C5.15433 12.8457 6.04666 15 7.82847 15H11.25V21C11.25 21.4142 11.5858 21.75 12 21.75C12.4143 21.75 12.75 21.4142 12.75 21V15H16.1716C17.9534 15 18.8458 12.8457 17.5858 11.5858C17.2108 11.2107 17 10.702 17 10.1716V7.82843C17 7.29799 17.2108 6.78929 17.5858 6.41421C18.8458 5.15428 17.9534 3 16.1716 3H7.82847C6.04666 3 5.15433 5.15428 6.41426 6.41421C6.78933 6.78929 7.00005 7.29799 7.00005 7.82843Z" fill="#28303F"/>
</svg>
