<svg width="24" height="24" viewBox="0 0 24 24" fill="none" xmlns="http://www.w3.org/2000/svg">
<path fill-rule="evenodd" clip-rule="evenodd" d="M22 6C22 8.20914 20 12 18 12C16 12 14 8.20914 14 6C14 3.79086 15.7909 2 18 2C20.2091 2 22 3.79086 22 6ZM19.5 6C19.5 6.82843 18.8284 7.5 18 7.5C17.1716 7.5 16.5 6.82843 16.5 6C16.5 5.17157 17.1716 4.5 18 4.5C18.8284 4.5 19.5 5.17157 19.5 6ZM12.5 6C12.5 5.29442 12.6329 4.61986 12.8749 4H8.38609C7.5524 4 6.80616 4.51714 6.51343 5.29775L2.01343 17.2978C1.52312 18.6053 2.48968 20 3.88609 20H20.1141C21.5105 20 22.4771 18.6053 21.9867 17.2978L20.2505 12.6678C19.6535 13.1226 18.8882 13.5 18 13.5C17.0212 13.5 16.1915 13.0416 15.572 12.5264C14.9418 12.0021 14.4037 11.3183 13.971 10.6122C13.448 9.75861 13.0088 8.75497 12.7501 7.76716V8C12.7501 8.41421 12.4143 8.75 12.0001 8.75C11.5859 8.75 11.2501 8.41421 11.2501 8V7C11.2501 6.58579 11.5859 6.25 12.0001 6.25C12.2016 6.25 12.3845 6.32947 12.5193 6.45878C12.5066 6.30312 12.5 6.14994 12.5 6ZM12.7501 16C12.7501 15.5858 12.4143 15.25 12.0001 15.25C11.5859 15.25 11.2501 15.5858 11.2501 16V17C11.2501 17.4142 11.5859 17.75 12.0001 17.75C12.4143 17.75 12.7501 17.4142 12.7501 17V16ZM12.0001 10.75C12.4143 10.75 12.7501 11.0858 12.7501 11.5V12.5C12.7501 12.9142 12.4143 13.25 12.0001 13.25C11.5859 13.25 11.2501 12.9142 11.2501 12.5V11.5C11.2501 11.0858 11.5859 10.75 12.0001 10.75Z" fill="#28303F"/>
</svg>
