<svg width="24" height="24" viewBox="0 0 24 24" fill="none" xmlns="http://www.w3.org/2000/svg">
<path fill-rule="evenodd" clip-rule="evenodd" d="M21 5C21 6.39788 20.0439 7.57245 18.75 7.90549V12C18.75 12.4142 18.4142 12.75 18 12.75C17.5858 12.75 17.25 12.4142 17.25 12V7.90549C15.9561 7.57245 15 6.39788 15 5C15 3.34315 16.3431 2 18 2C19.6569 2 21 3.34315 21 5ZM15.75 8.8975C14.4054 8.11977 13.5 6.66681 13.5 5C13.5 4.65631 13.5385 4.32161 13.6115 4H8.38609C7.5524 4 6.80616 4.51714 6.51343 5.29775L2.01343 17.2978C1.52312 18.6053 2.48968 20 3.88609 20H20.1141C21.5105 20 22.4771 18.6053 21.9867 17.2978L20.1917 12.511C19.9603 13.5075 19.0669 14.25 18 14.25C16.7574 14.25 15.75 13.2426 15.75 12V8.8975ZM12.7501 16C12.7501 15.5858 12.4143 15.25 12.0001 15.25C11.5859 15.25 11.2501 15.5858 11.2501 16V17C11.2501 17.4142 11.5859 17.75 12.0001 17.75C12.4143 17.75 12.7501 17.4142 12.7501 17V16ZM12.0001 10.75C12.4143 10.75 12.7501 11.0858 12.7501 11.5V12.5C12.7501 12.9142 12.4143 13.25 12.0001 13.25C11.5859 13.25 11.2501 12.9142 11.2501 12.5V11.5C11.2501 11.0858 11.5859 10.75 12.0001 10.75ZM12.7501 7C12.7501 6.58579 12.4143 6.25 12.0001 6.25C11.5859 6.25 11.2501 6.58579 11.2501 7V8C11.2501 8.41421 11.5859 8.75 12.0001 8.75C12.4143 8.75 12.7501 8.41421 12.7501 8V7Z" fill="#28303F"/>
</svg>
