<svg width="24" height="24" viewBox="0 0 24 24" fill="none" xmlns="http://www.w3.org/2000/svg">
<path fill-rule="evenodd" clip-rule="evenodd" d="M14 4C14 4.83934 13.483 5.55793 12.75 5.85462V8H11.25V5.85462C10.517 5.55793 10 4.83934 10 4C10 2.89543 10.8954 2 12 2C13.1046 2 14 2.89543 14 4ZM11.25 8V11C11.25 11.4142 11.5858 11.75 12 11.75C12.4142 11.75 12.75 11.4142 12.75 11V8H18C20.2091 8 22 9.79086 22 12V18C22 20.2091 20.2091 22 18 22H6C3.79086 22 2 20.2091 2 18V12C2 9.79086 3.79086 8 6 8H11.25ZM13.25 15C13.25 14.5858 12.9142 14.25 12.5 14.25H11.5C11.0858 14.25 10.75 14.5858 10.75 15C10.75 15.4142 11.0858 15.75 11.5 15.75H12.5C12.9142 15.75 13.25 15.4142 13.25 15ZM17 14.25C17.4142 14.25 17.75 14.5858 17.75 15C17.75 15.4142 17.4142 15.75 17 15.75H16C15.5858 15.75 15.25 15.4142 15.25 15C15.25 14.5858 15.5858 14.25 16 14.25H17ZM8.75 15C8.75 14.5858 8.41421 14.25 8 14.25H7C6.58579 14.25 6.25 14.5858 6.25 15C6.25 15.4142 6.58579 15.75 7 15.75H8C8.41421 15.75 8.75 15.4142 8.75 15Z" fill="#28303F"/>
</svg>
