<svg width="24" height="24" viewBox="0 0 24 24" fill="none" xmlns="http://www.w3.org/2000/svg">
<path fill-rule="evenodd" clip-rule="evenodd" d="M16 6C16 7.15676 15.4516 8.74721 14.642 10C13.9055 11.1397 12.9527 12 12 12C11.0473 12 10.0945 11.1397 9.35797 10C8.54837 8.74721 8 7.15676 8 6C8 3.79086 9.79086 2 12 2C14.2091 2 16 3.79086 16 6ZM13.5 6C13.5 6.82843 12.8284 7.5 12 7.5C11.1716 7.5 10.5 6.82843 10.5 6C10.5 5.17157 11.1716 4.5 12 4.5C12.8284 4.5 13.5 5.17157 13.5 6ZM6 8H6.81429C7.09997 8.98673 7.55854 9.97916 8.09814 10.8141C8.52578 11.4759 9.05118 12.1136 9.66396 12.6012C10.2689 13.0825 11.0665 13.5 12 13.5C12.9335 13.5 13.7311 13.0825 14.336 12.6012C14.9488 12.1136 15.4742 11.4759 15.9019 10.8141C16.4415 9.97916 16.9 8.98673 17.1857 8H18C20.2091 8 22 9.79086 22 12V18C22 20.2091 20.2091 22 18 22H6C3.79086 22 2 20.2091 2 18V12C2 9.79086 3.79086 8 6 8ZM12.5 14.25C12.9142 14.25 13.25 14.5858 13.25 15C13.25 15.4142 12.9142 15.75 12.5 15.75H11.5C11.0858 15.75 10.75 15.4142 10.75 15C10.75 14.5858 11.0858 14.25 11.5 14.25H12.5ZM18.75 15C18.75 14.5858 18.4142 14.25 18 14.25H17C16.5858 14.25 16.25 14.5858 16.25 15C16.25 15.4142 16.5858 15.75 17 15.75H18C18.4142 15.75 18.75 15.4142 18.75 15ZM7 14.25C7.41421 14.25 7.75 14.5858 7.75 15C7.75 15.4142 7.41421 15.75 7 15.75H6C5.58579 15.75 5.25 15.4142 5.25 15C5.25 14.5858 5.58579 14.25 6 14.25H7Z" fill="#28303F"/>
</svg>
