<svg width="24" height="24" viewBox="0 0 24 24" fill="none" xmlns="http://www.w3.org/2000/svg">
<path fill-rule="evenodd" clip-rule="evenodd" d="M8.38609 4C7.5524 4 6.80616 4.51714 6.51343 5.29775L2.01343 17.2978C1.52312 18.6053 2.48968 20 3.88609 20H20.1141C21.5105 20 22.4771 18.6053 21.9867 17.2978L17.4867 5.29775C17.194 4.51715 16.4478 4 15.6141 4H8.38609ZM12.7501 16C12.7501 15.5858 12.4143 15.25 12.0001 15.25C11.5859 15.25 11.2501 15.5858 11.2501 16V17C11.2501 17.4142 11.5859 17.75 12.0001 17.75C12.4143 17.75 12.7501 17.4142 12.7501 17V16ZM12.0001 10.75C12.4143 10.75 12.7501 11.0858 12.7501 11.5V12.5C12.7501 12.9142 12.4143 13.25 12.0001 13.25C11.5859 13.25 11.2501 12.9142 11.2501 12.5V11.5C11.2501 11.0858 11.5859 10.75 12.0001 10.75ZM12.7501 7C12.7501 6.58579 12.4143 6.25 12.0001 6.25C11.5859 6.25 11.2501 6.58579 11.2501 7V8C11.2501 8.41421 11.5859 8.75 12.0001 8.75C12.4143 8.75 12.7501 8.41421 12.7501 8V7Z" fill="#28303F"/>
</svg>
