<svg width="24" height="24" viewBox="0 0 24 24" fill="none" xmlns="http://www.w3.org/2000/svg">
<path fill-rule="evenodd" clip-rule="evenodd" d="M6 5C3.79086 5 2 6.79086 2 9V15C2 17.2091 3.79086 19 6 19H18C20.2091 19 22 17.2091 22 15V9C22 6.79086 20.2091 5 18 5H6ZM12.5 11.25C12.9142 11.25 13.25 11.5858 13.25 12C13.25 12.4142 12.9142 12.75 12.5 12.75H11.5C11.0858 12.75 10.75 12.4142 10.75 12C10.75 11.5858 11.0858 11.25 11.5 11.25H12.5ZM18.75 12C18.75 11.5858 18.4142 11.25 18 11.25H17C16.5858 11.25 16.25 11.5858 16.25 12C16.25 12.4142 16.5858 12.75 17 12.75H18C18.4142 12.75 18.75 12.4142 18.75 12ZM7 11.25C7.41421 11.25 7.75 11.5858 7.75 12C7.75 12.4142 7.41421 12.75 7 12.75H6C5.58579 12.75 5.25 12.4142 5.25 12C5.25 11.5858 5.58579 11.25 6 11.25H7Z" fill="#28303F"/>
</svg>
