<svg width="24" height="24" viewBox="0 0 24 24" fill="none" xmlns="http://www.w3.org/2000/svg">
<path fill-rule="evenodd" clip-rule="evenodd" d="M12.5 3H11.5C10.9477 3 10.5 3.44772 10.5 4V4.5H13.5V4C13.5 3.44772 13.0523 3 12.5 3ZM11.5 23H12.5C13.0523 23 13.5 22.5523 13.5 22V21.5H10.5V22C10.5 22.5523 10.9477 23 11.5 23ZM13.5 12.5V13.5H10.5V12.5H13.5ZM17 11.5H5.41418C5.14897 11.5 4.89461 11.3946 4.70708 11.2071L2.70708 9.20711C2.31655 8.81658 2.31655 8.18342 2.70708 7.79289L4.70708 5.79289C4.89461 5.60536 5.14897 5.5 5.41418 5.5H17C17.5523 5.5 18 5.94772 18 6.5V10.5C18 11.0523 17.5523 11.5 17 11.5ZM6.99997 14.5H18.5858C18.851 14.5 19.1053 14.6054 19.2929 14.7929L21.2929 16.7929C21.6834 17.1834 21.6834 17.8166 21.2929 18.2071L19.2929 20.2071C19.1053 20.3946 18.851 20.5 18.5858 20.5H6.99997C6.44769 20.5 5.99997 20.0523 5.99997 19.5V15.5C5.99997 14.9477 6.44769 14.5 6.99997 14.5Z" fill="#28303F"/>
</svg>
