<svg width="24" height="24" viewBox="0 0 24 24" fill="none" xmlns="http://www.w3.org/2000/svg">
<path fill-rule="evenodd" clip-rule="evenodd" d="M12.4998 2H11.4998C10.9475 2 10.4998 2.44772 10.4998 3V4.31375L13.4998 3.5099V3C13.4998 2.44772 13.052 2 12.4998 2ZM11.4998 22H12.4998C13.052 22 13.4998 21.5523 13.4998 21V20H10.4998L10.4998 21C10.4998 21.5523 10.9475 22 11.4998 22ZM10.4998 11.4901L13.4998 10.6863V13H10.4998V11.4901ZM10.4997 5.31381L5.5571 6.63817C5.02364 6.78111 4.70705 7.32945 4.85 7.86291L5.62645 10.7607C5.7694 11.2942 6.31773 11.6107 6.8512 11.4678L10.4997 10.4902L13.4997 9.68634L17.0121 8.74518C17.3056 8.66656 17.5473 8.45881 17.6693 8.18056L18.4401 6.42109C18.6278 5.99269 18.4935 5.49142 18.1168 5.21427L16.5694 4.07596C16.3247 3.89595 16.0115 3.83693 15.718 3.91555L13.4997 4.50996L10.4997 5.31381ZM10.4997 14.0001H5.99968C5.4474 14.0001 4.99968 14.4478 4.99968 15.0001V18.0001C4.99968 18.5523 5.4474 19.0001 5.99968 19.0001H10.4997H13.4997H16.5191C16.8228 19.0001 17.1102 18.862 17.2999 18.6248L18.4999 17.1248C18.7921 16.7595 18.7921 16.2406 18.4999 15.8754L17.2999 14.3754C17.1102 14.1381 16.8228 14.0001 16.5191 14.0001H13.4997H10.4997Z" fill="#28303F"/>
</svg>
