<svg width="24" height="24" viewBox="0 0 24 24" fill="none" xmlns="http://www.w3.org/2000/svg">
<path fill-rule="evenodd" clip-rule="evenodd" d="M12.4998 2H11.4998C10.9475 2 10.4998 2.44772 10.4998 3V5.93788L13.4998 4.20583V3C13.4998 2.44772 13.052 2 12.4998 2ZM10.4998 21V16.3302L13.4998 14.5981V21C13.4998 21.5523 13.052 22 12.4998 22H11.4998C10.9475 22 10.4998 21.5523 10.4998 21ZM10.4998 7.66989L3.86589 11.5C3.3876 11.7761 3.22372 12.3877 3.49986 12.866L5.49986 16.3301C5.77601 16.8084 6.3876 16.9723 6.86589 16.6961L10.4998 14.5981L13.4998 12.866L18.6315 9.90325C18.8612 9.77064 19.0288 9.55222 19.0975 9.29604L19.8295 6.56399C19.9724 6.03053 19.6559 5.48219 19.1224 5.33925L16.3903 4.6072C16.1342 4.53855 15.8612 4.57449 15.6315 4.7071L13.4998 5.93784L10.4998 7.66989Z" fill="#28303F"/>
</svg>
