<svg width="24" height="24" viewBox="0 0 24 24" fill="none" xmlns="http://www.w3.org/2000/svg">
<path fill-rule="evenodd" clip-rule="evenodd" d="M11.5 2C10.9477 2 10.5 2.44772 10.5 3V21C10.5 21.5523 10.9477 22 11.5 22H12.5C13.0523 22 13.5 21.5523 13.5 21V3C13.5 2.44772 13.0523 2 12.5 2H11.5ZM9.49997 12H5.41418C5.14897 12 4.89461 11.8946 4.70708 11.7071L2.70708 9.70711C2.31655 9.31658 2.31655 8.68342 2.70708 8.29289L4.70708 6.29289C4.89461 6.10536 5.14897 6 5.41418 6H9.49997V12ZM14.5 12H19L22 15L19 18H14.5V12Z" fill="#28303F"/>
</svg>
