<svg width="24" height="24" viewBox="0 0 24 24" fill="none" xmlns="http://www.w3.org/2000/svg">
<path fill-rule="evenodd" clip-rule="evenodd" d="M15.0273 3.25394C13.3554 1.58202 10.6446 1.58202 8.97272 3.25394L3.25394 8.97272C1.58202 10.6446 1.58202 13.3554 3.25394 15.0273L8.97272 20.7461C10.6446 22.418 13.3554 22.418 15.0273 20.7461L20.7461 15.0273C22.418 13.3554 22.418 10.6446 20.7461 8.97272L15.0273 3.25394ZM12.8839 11.4697L13.6036 10.75H12C11.3096 10.75 10.75 11.3096 10.75 12V16C10.75 16.4142 10.4142 16.75 10 16.75C9.58579 16.75 9.25 16.4142 9.25 16V12C9.25 10.4812 10.4812 9.25 12 9.25H13.6036L12.8839 8.53033C12.591 8.23744 12.591 7.76256 12.8839 7.46967C13.1768 7.17678 13.6517 7.17678 13.9445 7.46967L15.2374 8.76256C15.9209 9.44598 15.9209 10.554 15.2374 11.2374L13.9445 12.5303C13.6517 12.8232 13.1768 12.8232 12.8839 12.5303C12.591 12.2374 12.591 11.7626 12.8839 11.4697Z" fill="#28303F"/>
</svg>
