<svg width="24" height="24" viewBox="0 0 24 24" fill="none" xmlns="http://www.w3.org/2000/svg">
<path fill-rule="evenodd" clip-rule="evenodd" d="M15.0273 3.25394C13.3554 1.58202 10.6446 1.58202 8.97272 3.25394L3.25394 8.97272C1.58202 10.6446 1.58202 13.3554 3.25394 15.0273L8.97272 20.7461C10.6446 22.418 13.3554 22.418 15.0273 20.7461L20.7461 15.0273C22.418 13.3554 22.418 10.6446 20.7461 8.97272L15.0273 3.25394ZM13.4697 8.11612L12.75 7.39645V12.5359C13.5997 11.7384 14.7428 11.25 16 11.25H16.6036L15.8839 10.5303C15.591 10.2374 15.591 9.76256 15.8839 9.46967C16.1768 9.17678 16.6517 9.17678 16.9445 9.46967L18.2374 10.7626C18.9209 11.446 18.9209 12.554 18.2374 13.2374L16.9445 14.5303C16.6516 14.8232 16.1768 14.8232 15.8839 14.5303C15.591 14.2374 15.591 13.7626 15.8839 13.4697L16.6036 12.75H16C14.2051 12.75 12.75 14.2051 12.75 16L12.75 17C12.75 17.4142 12.4142 17.75 12 17.75C11.5858 17.75 11.25 17.4142 11.25 17L11.25 16C11.25 14.2051 9.79493 12.75 8 12.75H7.39645L8.11612 13.4697C8.40901 13.7626 8.40901 14.2374 8.11612 14.5303C7.82322 14.8232 7.34835 14.8232 7.05546 14.5303L5.76256 13.2374C5.07915 12.554 5.07914 11.446 5.76256 10.7626L7.05546 9.46967C7.34835 9.17678 7.82322 9.17678 8.11612 9.46967C8.40901 9.76256 8.40901 10.2374 8.11612 10.5303L7.39645 11.25H8C9.25721 11.25 10.4003 11.7384 11.25 12.5359V7.39645L10.5303 8.11612C10.2374 8.40901 9.76256 8.40901 9.46967 8.11612C9.17678 7.82322 9.17678 7.34835 9.46967 7.05546L10.7626 5.76256C11.446 5.07914 12.554 5.07915 13.2374 5.76256L14.5303 7.05546C14.8232 7.34835 14.8232 7.82322 14.5303 8.11612C14.2374 8.40901 13.7626 8.40901 13.4697 8.11612Z" fill="#28303F"/>
</svg>
