<svg width="24" height="24" viewBox="0 0 24 24" fill="none" xmlns="http://www.w3.org/2000/svg">
<path fill-rule="evenodd" clip-rule="evenodd" d="M15.0273 3.25394C13.3554 1.58202 10.6446 1.58202 8.97272 3.25394L3.25394 8.97272C1.58202 10.6446 1.58202 13.3554 3.25394 15.0273L8.97272 20.7461C10.6446 22.418 13.3554 22.418 15.0273 20.7461L20.7461 15.0273C22.418 13.3554 22.418 10.6446 20.7461 8.97272L15.0273 3.25394ZM9.11612 9.53033C9.40901 9.23744 9.40901 8.76256 9.11612 8.46967C8.82322 8.17678 8.34835 8.17678 8.05546 8.46967L6.76256 9.76256C6.07914 10.446 6.07915 11.554 6.76256 12.2374L8.05546 13.5303C8.34835 13.8232 8.82322 13.8232 9.11612 13.5303C9.40901 13.2374 9.40901 12.7626 9.11612 12.4697L8.39645 11.75H10C10.6904 11.75 11.25 12.3096 11.25 13V16C11.25 16.4142 11.5858 16.75 12 16.75C12.4142 16.75 12.75 16.4142 12.75 16V13C12.75 12.3096 13.3096 11.75 14 11.75H15.6036L14.8839 12.4697C14.591 12.7626 14.591 13.2374 14.8839 13.5303C15.1768 13.8232 15.6517 13.8232 15.9445 13.5303L17.2374 12.2374C17.9209 11.554 17.9209 10.446 17.2374 9.76256L15.9445 8.46967C15.6517 8.17678 15.1768 8.17678 14.8839 8.46967C14.591 8.76256 14.591 9.23744 14.8839 9.53033L15.6036 10.25H14C13.212 10.25 12.5014 10.5814 12 11.1125C11.4986 10.5814 10.788 10.25 10 10.25H8.39645L9.11612 9.53033Z" fill="#28303F"/>
</svg>
