<svg width="24" height="24" viewBox="0 0 24 24" fill="none" xmlns="http://www.w3.org/2000/svg">
<path fill-rule="evenodd" clip-rule="evenodd" d="M15.0273 3.25394C13.3554 1.58202 10.6446 1.58202 8.97272 3.25394L3.25394 8.97272C1.58202 10.6446 1.58202 13.3554 3.25394 15.0273L8.97272 20.7461C10.6446 22.418 13.3554 22.418 15.0273 20.7461L20.7461 15.0273C22.418 13.3554 22.418 10.6446 20.7461 8.97272L15.0273 3.25394ZM11.1161 11.4697L10.3964 10.75H12C12.6904 10.75 13.25 11.3096 13.25 12V16C13.25 16.4142 13.5858 16.75 14 16.75C14.4142 16.75 14.75 16.4142 14.75 16V12C14.75 10.4812 13.5188 9.25 12 9.25H10.3964L11.1161 8.53033C11.409 8.23744 11.409 7.76256 11.1161 7.46967C10.8232 7.17678 10.3483 7.17678 10.0555 7.46967L8.76256 8.76256C8.07914 9.44598 8.07915 10.554 8.76256 11.2374L10.0555 12.5303C10.3483 12.8232 10.8232 12.8232 11.1161 12.5303C11.409 12.2374 11.409 11.7626 11.1161 11.4697Z" fill="#28303F"/>
</svg>
