<svg width="24" height="24" viewBox="0 0 24 24" fill="none" xmlns="http://www.w3.org/2000/svg">
<path fill-rule="evenodd" clip-rule="evenodd" d="M15.0273 3.25394C13.3554 1.58202 10.6446 1.58202 8.97272 3.25394L3.25394 8.97272C1.58202 10.6446 1.58202 13.3554 3.25394 15.0273L8.97272 20.7461C10.6446 22.418 13.3554 22.418 15.0273 20.7461L20.7461 15.0273C22.418 13.3554 22.418 10.6446 20.7461 8.97272L15.0273 3.25394ZM9.75 16C9.75 16.4142 9.41421 16.75 9 16.75C8.58579 16.75 8.25 16.4142 8.25 16V11C8.25 8.92893 9.92893 7.25 12 7.25C14.0711 7.25 15.75 8.92893 15.75 11V12.6036L16.4697 11.8839C16.7626 11.591 17.2374 11.591 17.5303 11.8839C17.8232 12.1768 17.8232 12.6516 17.5303 12.9445L16.2374 14.2374C15.554 14.9209 14.446 14.9209 13.7626 14.2374L12.4697 12.9445C12.1768 12.6516 12.1768 12.1768 12.4697 11.8839C12.7626 11.591 13.2374 11.591 13.5303 11.8839L14.25 12.6036V11C14.25 9.75736 13.2426 8.75 12 8.75C10.7574 8.75 9.75 9.75736 9.75 11V16Z" fill="#28303F"/>
</svg>
