<svg width="24" height="24" viewBox="0 0 24 24" fill="none" xmlns="http://www.w3.org/2000/svg">
<path fill-rule="evenodd" clip-rule="evenodd" d="M15.0273 3.25394C13.3554 1.58202 10.6446 1.58202 8.97272 3.25394L3.25394 8.97272C1.58202 10.6446 1.58202 13.3554 3.25394 15.0273L8.97272 20.7461C10.6446 22.418 13.3554 22.418 15.0273 20.7461L20.7461 15.0273C22.418 13.3554 22.418 10.6446 20.7461 8.97272L15.0273 3.25394ZM14.25 16C14.25 16.4142 14.5858 16.75 15 16.75C15.4142 16.75 15.75 16.4142 15.75 16V11C15.75 8.92893 14.0711 7.25 12 7.25C9.92893 7.25 8.25 8.92893 8.25 11V12.6036L7.53033 11.8839C7.23744 11.591 6.76256 11.591 6.46967 11.8839C6.17678 12.1768 6.17678 12.6516 6.46967 12.9445L7.76256 14.2374C8.44598 14.9209 9.55402 14.9209 10.2374 14.2374L11.5303 12.9445C11.8232 12.6516 11.8232 12.1768 11.5303 11.8839C11.2374 11.591 10.7626 11.591 10.4697 11.8839L9.75 12.6036V11C9.75 9.75736 10.7574 8.75 12 8.75C13.2426 8.75 14.25 9.75736 14.25 11V16Z" fill="#28303F"/>
</svg>
