<svg width="24" height="24" viewBox="0 0 24 24" fill="none" xmlns="http://www.w3.org/2000/svg">
<path opacity="0.4" d="M3.03293 10L20.9671 10C21.9872 10 22.3878 8.64858 21.539 8.07059L13.1438 2.35375C12.4512 1.88208 11.5488 1.88208 10.8562 2.35375L2.46102 8.07059C1.61224 8.64858 2.01282 10 3.03293 10Z" fill="#28303F"/>
<rect x="6" y="10" width="4" height="8" fill="#28303F"/>
<rect x="14" y="10" width="4" height="8" fill="#28303F"/>
<path opacity="0.4" d="M19.382 18C19.7608 18 20.107 18.214 20.2764 18.5528L21.2764 20.5528C21.6089 21.2177 21.1254 22 20.382 22L3.61808 22C2.8747 22 2.3912 21.2177 2.72365 20.5528L3.72365 18.5528C3.89304 18.214 4.23931 18 4.61808 18L19.382 18Z" fill="#28303F"/>
</svg>
