<svg width="24" height="24" viewBox="0 0 24 24" fill="none" xmlns="http://www.w3.org/2000/svg">
<path opacity="0.4" d="M19 2H5C3.89543 2 3 2.89543 3 4V19.1543C3 20.5396 4.37412 21.5053 5.67744 21.0361L7.2392 20.4739C7.72721 20.2982 8.26439 20.319 8.73737 20.5318L11.1793 21.6307C11.7012 21.8655 12.2988 21.8655 12.8207 21.6307L15.2626 20.5318C15.7356 20.319 16.2728 20.2982 16.7608 20.4739L18.3226 21.0361C19.6259 21.5053 21 20.5396 21 19.1543V4C21 2.89543 20.1046 2 19 2Z" fill="#28303F"/>
<path fill-rule="evenodd" clip-rule="evenodd" d="M17.75 7C17.75 7.41421 17.4142 7.75 17 7.75L7 7.75C6.58579 7.75 6.25 7.41421 6.25 7C6.25 6.58579 6.58579 6.25 7 6.25L17 6.25C17.4142 6.25 17.75 6.58579 17.75 7Z" fill="#28303F"/>
<path fill-rule="evenodd" clip-rule="evenodd" d="M17.75 11C17.75 11.4142 17.4142 11.75 17 11.75L7 11.75C6.58579 11.75 6.25 11.4142 6.25 11C6.25 10.5858 6.58579 10.25 7 10.25L17 10.25C17.4142 10.25 17.75 10.5858 17.75 11Z" fill="#28303F"/>
<path fill-rule="evenodd" clip-rule="evenodd" d="M12.75 15C12.75 15.4142 12.4142 15.75 12 15.75L7 15.75C6.58579 15.75 6.25 15.4142 6.25 15C6.25 14.5858 6.58579 14.25 7 14.25L12 14.25C12.4142 14.25 12.75 14.5858 12.75 15Z" fill="#28303F"/>
</svg>
