<svg width="24" height="24" viewBox="0 0 24 24" fill="none" xmlns="http://www.w3.org/2000/svg">
<path opacity="0.4" d="M2 10C2 7.79086 3.79086 6 6 6H18C20.2091 6 22 7.79086 22 10V18C22 20.2091 20.2091 22 18 22H6C3.79086 22 2 20.2091 2 18V10Z" fill="#28303F"/>
<path opacity="0.4" fill-rule="evenodd" clip-rule="evenodd" d="M11 2.75C9.75736 2.75 8.75 3.75736 8.75 5V7C8.75 7.41421 8.41421 7.75 8 7.75C7.58579 7.75 7.25 7.41421 7.25 7V5C7.25 2.92893 8.92893 1.25 11 1.25H13C15.0711 1.25 16.75 2.92893 16.75 5V7C16.75 7.41421 16.4142 7.75 16 7.75C15.5858 7.75 15.25 7.41421 15.25 7V5C15.25 3.75736 14.2426 2.75 13 2.75H11Z" fill="#28303F"/>
<path d="M18 6H6C3.79086 6 2 7.79086 2 10V13H22V10C22 7.79086 20.2091 6 18 6Z" fill="#28303F"/>
<path d="M14 13C14 14.1046 13.1046 15 12 15C10.8954 15 10 14.1046 10 13C10 11.8954 10.8954 11 12 11C13.1046 11 14 11.8954 14 13Z" fill="#28303F"/>
</svg>
