<svg width="24" height="24" viewBox="0 0 24 24" fill="none" xmlns="http://www.w3.org/2000/svg">
<path opacity="0.4" d="M18 3C20.2091 3 22 4.79086 22 7L22 17C22 19.2091 20.2091 21 18 21L6 21C3.79086 21 2 19.2091 2 17L2 7C2 4.79086 3.79086 3 6 3L18 3Z" fill="#28303F"/>
<circle cx="6" cy="17" r="1" fill="#28303F"/>
<path d="M2 7L22 7L22 11L2 11L2 7Z" fill="#28303F"/>
<path fill-rule="evenodd" clip-rule="evenodd" d="M19 14.25C19.4142 14.25 19.75 14.5858 19.75 15V17.25H22C22.4142 17.25 22.75 17.5858 22.75 18C22.75 18.4142 22.4142 18.75 22 18.75H19.75V21C19.75 21.4142 19.4142 21.75 19 21.75C18.5858 21.75 18.25 21.4142 18.25 21V18.75H16C15.5858 18.75 15.25 18.4142 15.25 18C15.25 17.5858 15.5858 17.25 16 17.25H18.25V15C18.25 14.5858 18.5858 14.25 19 14.25Z" fill="#28303F"/>
</svg>
