<svg width="24" height="24" viewBox="0 0 24 24" fill="none" xmlns="http://www.w3.org/2000/svg">
<path opacity="0.4" d="M18 3C20.2091 3 22 4.79086 22 7L22 17C22 19.2091 20.2091 21 18 21L6 21C3.79086 21 2 19.2091 2 17L2 7C2 4.79086 3.79086 3 6 3L18 3Z" fill="#28303F"/>
<circle cx="6" cy="17" r="1" fill="#28303F"/>
<path d="M2 7L22 7L22 11L2 11L2 7Z" fill="#28303F"/>
<path fill-rule="evenodd" clip-rule="evenodd" d="M19.25 17.3964L18.5303 18.1161C18.2374 18.409 17.7626 18.409 17.4697 18.1161C17.1768 17.8232 17.1768 17.3483 17.4697 17.0555L18.7626 15.7626C19.446 15.0791 20.554 15.0791 21.2374 15.7626L22.5303 17.0555C22.8232 17.3483 22.8232 17.8232 22.5303 18.1161C22.2374 18.409 21.7626 18.409 21.4697 18.1161L20.75 17.3964V21C20.75 21.4142 20.4142 21.75 20 21.75C19.5858 21.75 19.25 21.4142 19.25 21V17.3964Z" fill="#28303F"/>
</svg>
