<svg width="24" height="24" viewBox="0 0 24 24" fill="none" xmlns="http://www.w3.org/2000/svg">
<path opacity="0.4" d="M4 12C4 10.8954 4.89543 10 6 10H15C16.1046 10 17 10.8954 17 12V12C17 13.1046 16.1046 14 15 14H6C4.89543 14 4 13.1046 4 12V12Z" fill="#28303F"/>
<path d="M15 14H6.16667C4.97005 14 4 14.8954 4 16C4 17.1046 4.97005 18 6.16667 18H15C16.1046 18 17 17.1046 17 16C17 14.8954 16.1046 14 15 14Z" fill="#28303F"/>
<path opacity="0.4" d="M20 18C20 15.7909 18.2091 14 16 14C15.8007 14 15.6047 14.0146 15.4132 14.0427C13.4823 14.3266 12 15.9902 12 18C12 20.2091 13.7909 22 16 22C18.2091 22 20 20.2091 20 18Z" fill="#28303F"/>
<path fill-rule="evenodd" clip-rule="evenodd" d="M11.25 5.60355L10.5303 4.88388C10.2374 4.59099 9.76256 4.59099 9.46967 4.88388C9.17678 5.17678 9.17678 5.65165 9.46967 5.94454L10.7626 7.23744C11.446 7.92085 12.554 7.92086 13.2374 7.23744L14.5303 5.94454C14.8232 5.65165 14.8232 5.17678 14.5303 4.88388C14.2374 4.59099 13.7626 4.59099 13.4697 4.88388L12.75 5.60355L12.75 2C12.75 1.58579 12.4142 1.25 12 1.25C11.5858 1.25 11.25 1.58579 11.25 2L11.25 5.60355Z" fill="#28303F"/>
</svg>
