<svg width="24" height="24" viewBox="0 0 24 24" fill="none" xmlns="http://www.w3.org/2000/svg">
<path opacity="0.4" d="M18 3C20.2091 3 22 4.79086 22 7L22 17C22 19.2091 20.2091 21 18 21L6 21C3.79086 21 2 19.2091 2 17L2 7C2 4.79086 3.79086 3 6 3L18 3Z" fill="#28303F"/>
<circle cx="6" cy="17" r="1" fill="#28303F"/>
<path d="M2 7L22 7L22 11L2 11L2 7Z" fill="#28303F"/>
<path fill-rule="evenodd" clip-rule="evenodd" d="M22.4939 16.4356C22.8056 16.7083 22.8372 17.1822 22.5645 17.4939L19.6946 20.7738C19.0779 21.4786 18.0156 21.5729 17.2843 20.9879L15.5315 19.5857C15.2081 19.3269 15.1556 18.8549 15.4144 18.5315C15.6731 18.208 16.1451 18.1556 16.4685 18.4144L18.2214 19.8166C18.3258 19.9002 18.4776 19.8867 18.5657 19.786L21.4356 16.5061C21.7084 16.1944 22.1822 16.1628 22.4939 16.4356Z" fill="#28303F"/>
</svg>
