<svg width="24" height="24" viewBox="0 0 24 24" fill="none" xmlns="http://www.w3.org/2000/svg">
<path opacity="0.4" d="M18 3C20.2091 3 22 4.79086 22 7L22 17C22 19.2091 20.2091 21 18 21L6 21C3.79086 21 2 19.2091 2 17L2 7C2 4.79086 3.79086 3 6 3L18 3Z" fill="#28303F"/>
<circle cx="6" cy="17" r="1" fill="#28303F"/>
<path d="M2 7L22 7L22 11L2 11L2 7Z" fill="#28303F"/>
<path fill-rule="evenodd" clip-rule="evenodd" d="M21.6516 15.3486C21.9445 15.6415 21.9445 16.1163 21.6516 16.4092L20.0606 18.0002L21.6516 19.5913C21.9445 19.8841 21.9445 20.359 21.6516 20.6519C21.3587 20.9448 20.8839 20.9448 20.591 20.6519L19 19.0609L17.409 20.6519C17.1161 20.9448 16.6412 20.9448 16.3483 20.6519C16.0554 20.359 16.0554 19.8841 16.3483 19.5912L17.9393 18.0002L16.3483 16.4093C16.0554 16.1164 16.0554 15.6415 16.3483 15.3486C16.6412 15.0557 17.1161 15.0557 17.409 15.3486L19 16.9396L20.591 15.3486C20.8839 15.0557 21.3587 15.0557 21.6516 15.3486Z" fill="#28303F"/>
</svg>
