<svg width="24" height="24" viewBox="0 0 24 24" fill="none" xmlns="http://www.w3.org/2000/svg">
<path opacity="0.4" d="M18 3C20.2091 3 22 4.79086 22 7L22 17C22 19.2091 20.2091 21 18 21L6 21C3.79086 21 2 19.2091 2 17L2 7C2 4.79086 3.79086 3 6 3L18 3Z" fill="#28303F"/>
<circle cx="6" cy="17" r="1" fill="#28303F"/>
<path d="M2 7L22 7L22 11L2 11L2 7Z" fill="#28303F"/>
<path fill-rule="evenodd" clip-rule="evenodd" d="M17.3964 18.25L18.1161 17.5303C18.409 17.2374 18.409 16.7626 18.1161 16.4697C17.8232 16.1768 17.3483 16.1768 17.0555 16.4697L15.7626 17.7626C15.0791 18.446 15.0791 19.554 15.7626 20.2374L17.0555 21.5303C17.3483 21.8232 17.8232 21.8232 18.1161 21.5303C18.409 21.2374 18.409 20.7626 18.1161 20.4697L17.3964 19.75L22 19.75C22.4142 19.75 22.75 19.4142 22.75 19C22.75 18.5858 22.4142 18.25 22 18.25L17.3964 18.25Z" fill="#28303F"/>
</svg>
