<svg width="24" height="24" viewBox="0 0 24 24" fill="none" xmlns="http://www.w3.org/2000/svg">
<path opacity="0.4" d="M18 3C20.2091 3 22 4.79086 22 7L22 17C22 19.2091 20.2091 21 18 21L6 21C3.79086 21 2 19.2091 2 17L2 7C2 4.79086 3.79086 3 6 3L18 3Z" fill="#28303F"/>
<circle cx="6" cy="17" r="1" fill="#28303F"/>
<path d="M2 7L22 7L22 11L2 11L2 7Z" fill="#28303F"/>
<circle r="2" transform="matrix(1 0 0 -1 19 16)" fill="#28303F"/>
<path d="M19 18C20.2819 18 21.4012 18.8044 22 20C22 20.5523 21.5523 21 21 21H17C16.4477 21 16 20.5523 16 20C16.5988 18.8044 17.7181 18 19 18Z" fill="#28303F"/>
</svg>
