<svg width="24" height="24" viewBox="0 0 24 24" fill="none" xmlns="http://www.w3.org/2000/svg">
<path opacity="0.4" d="M18 3C20.2091 3 22 4.79086 22 7L22 17C22 19.2091 20.2091 21 18 21L6 21C3.79086 21 2 19.2091 2 17L2 7C2 4.79086 3.79086 3 6 3L18 3Z" fill="#28303F"/>
<circle cx="6" cy="17" r="1" fill="#28303F"/>
<path d="M2 7L22 7L22 11L2 11L2 7Z" fill="#28303F"/>
<path fill-rule="evenodd" clip-rule="evenodd" d="M19.25 19.6036L18.5303 18.8839C18.2374 18.591 17.7626 18.591 17.4697 18.8839C17.1768 19.1768 17.1768 19.6517 17.4697 19.9445L18.7626 21.2374C19.446 21.9209 20.554 21.9209 21.2374 21.2374L22.5303 19.9445C22.8232 19.6517 22.8232 19.1768 22.5303 18.8839C22.2374 18.591 21.7626 18.591 21.4697 18.8839L20.75 19.6036V16C20.75 15.5858 20.4142 15.25 20 15.25C19.5858 15.25 19.25 15.5858 19.25 16V19.6036Z" fill="#28303F"/>
</svg>
