<svg width="24" height="24" viewBox="0 0 24 24" fill="none" xmlns="http://www.w3.org/2000/svg">
<path opacity="0.4" fill-rule="evenodd" clip-rule="evenodd" d="M7 13.25C7.41421 13.25 7.75 13.5858 7.75 14V17C7.75 17.4142 7.41421 17.75 7 17.75C6.58579 17.75 6.25 17.4142 6.25 17V14C6.25 13.5858 6.58579 13.25 7 13.25Z" fill="#28303F"/>
<path opacity="0.4" fill-rule="evenodd" clip-rule="evenodd" d="M11 11.25C11.4142 11.25 11.75 11.5858 11.75 12V17C11.75 17.4142 11.4142 17.75 11 17.75C10.5858 17.75 10.25 17.4142 10.25 17V12C10.25 11.5858 10.5858 11.25 11 11.25Z" fill="#28303F"/>
<path opacity="0.4" fill-rule="evenodd" clip-rule="evenodd" d="M15 13.25C15.4142 13.25 15.75 13.5858 15.75 14V17C15.75 17.4142 15.4142 17.75 15 17.75C14.5858 17.75 14.25 17.4142 14.25 17V14C14.25 13.5858 14.5858 13.25 15 13.25Z" fill="#28303F"/>
<path opacity="0.4" fill-rule="evenodd" clip-rule="evenodd" d="M19 11.25C19.4142 11.25 19.75 11.5858 19.75 12V17C19.75 17.4142 19.4142 17.75 19 17.75C18.5858 17.75 18.25 17.4142 18.25 17V12C18.25 11.5858 18.5858 11.25 19 11.25Z" fill="#28303F"/>
<path fill-rule="evenodd" clip-rule="evenodd" d="M2 1.25C2.41421 1.25 2.75 1.58579 2.75 2V18C2.75 19.7949 4.20507 21.25 6 21.25H22C22.4142 21.25 22.75 21.5858 22.75 22C22.75 22.4142 22.4142 22.75 22 22.75H6C3.37665 22.75 1.25 20.6234 1.25 18V2C1.25 1.58579 1.58579 1.25 2 1.25Z" fill="#28303F"/>
<path fill-rule="evenodd" clip-rule="evenodd" d="M19.5303 5.46967C19.8232 5.76256 19.8232 6.23744 19.5303 6.53033L16.9445 9.11612C15.8706 10.1901 14.1294 10.1901 13.0555 9.11612L11.8839 7.94454C11.3957 7.45639 10.6043 7.45639 10.1161 7.94454L7.53033 10.5303C7.23744 10.8232 6.76256 10.8232 6.46967 10.5303C6.17678 10.2374 6.17678 9.76256 6.46967 9.46967L9.05546 6.88388C10.1294 5.80994 11.8706 5.80994 12.9445 6.88388L14.1161 8.05546C14.6043 8.54361 15.3957 8.54361 15.8839 8.05546L18.4697 5.46967C18.7626 5.17678 19.2374 5.17678 19.5303 5.46967Z" fill="#28303F"/>
</svg>
