<svg width="24" height="24" viewBox="0 0 24 24" fill="none" xmlns="http://www.w3.org/2000/svg">
<path fill-rule="evenodd" clip-rule="evenodd" d="M2 1.25C2.41421 1.25 2.75 1.58579 2.75 2V18C2.75 19.7949 4.20507 21.25 6 21.25H22C22.4142 21.25 22.75 21.5858 22.75 22C22.75 22.4142 22.4142 22.75 22 22.75H6C3.37665 22.75 1.25 20.6234 1.25 18V2C1.25 1.58579 1.58579 1.25 2 1.25Z" fill="#28303F"/>
<path opacity="0.4" fill-rule="evenodd" clip-rule="evenodd" d="M6.46967 9.46967C6.76256 9.17678 7.23744 9.17678 7.53033 9.46967L10.1161 12.0555C10.6043 12.5436 11.3957 12.5436 11.8839 12.0555L13.0555 10.8839C14.1294 9.80994 15.8706 9.80994 16.9445 10.8839L19.25 13.1893V12.5C19.25 12.0858 19.5858 11.75 20 11.75C20.4142 11.75 20.75 12.0858 20.75 12.5V14C20.75 14.9665 19.9665 15.75 19 15.75H17.5C17.0858 15.75 16.75 15.4142 16.75 15C16.75 14.5858 17.0858 14.25 17.5 14.25H18.1893L15.8839 11.9445C15.3957 11.4564 14.6043 11.4564 14.1161 11.9445L12.9445 13.1161C11.8706 14.1901 10.1294 14.1901 9.05546 13.1161L6.46967 10.5303C6.17678 10.2374 6.17678 9.76256 6.46967 9.46967Z" fill="#28303F"/>
</svg>
