<svg width="24" height="24" viewBox="0 0 24 24" fill="none" xmlns="http://www.w3.org/2000/svg">
<path opacity="0.4" d="M22 12C22 17.5228 17.5228 22 12 22C6.47715 22 2 17.5228 2 12C2 6.47715 6.47715 2 12 2C17.5228 2 22 6.47715 22 12Z" fill="#28303F"/>
<path fill-rule="evenodd" clip-rule="evenodd" d="M8.55004 6.40004C8.88142 6.15152 9.35152 6.21867 9.60004 6.55004L12 9.75004L14.4 6.55004C14.6486 6.21867 15.1187 6.15152 15.45 6.40004C15.7814 6.64857 15.8486 7.11867 15.6 7.45004L13.5 10.25H15C15.4143 10.25 15.75 10.5858 15.75 11C15.75 11.4143 15.4143 11.75 15 11.75H12.75V13.25H15C15.4143 13.25 15.75 13.5858 15.75 14C15.75 14.4143 15.4143 14.75 15 14.75H12.75V17C12.75 17.4143 12.4143 17.75 12 17.75C11.5858 17.75 11.25 17.4143 11.25 17V14.75H9.00004C8.58583 14.75 8.25004 14.4143 8.25004 14C8.25004 13.5858 8.58583 13.25 9.00004 13.25H11.25V11.75H9.00004C8.58583 11.75 8.25004 11.4143 8.25004 11C8.25004 10.5858 8.58583 10.25 9.00004 10.25H10.5L8.40004 7.45004C8.15152 7.11867 8.21867 6.64857 8.55004 6.40004Z" fill="#28303F"/>
</svg>
