<svg width="24" height="24" viewBox="0 0 24 24" fill="none" xmlns="http://www.w3.org/2000/svg">
<path opacity="0.4" d="M22 12C22 17.5228 17.5228 22 12 22C6.47715 22 2 17.5228 2 12C2 6.47715 6.47715 2 12 2C17.5228 2 22 6.47715 22 12Z" fill="#28303F"/>
<path fill-rule="evenodd" clip-rule="evenodd" d="M12 5.75C12.4142 5.75 12.75 6.08579 12.75 6.5V7.35352C13.9043 7.67998 14.75 8.74122 14.75 10C14.75 10.4142 14.4142 10.75 14 10.75C13.5858 10.75 13.25 10.4142 13.25 10C13.25 9.30964 12.6904 8.75 12 8.75C11.3096 8.75 10.75 9.30964 10.75 10C10.75 10.6904 11.3096 11.25 12 11.25C13.5188 11.25 14.75 12.4812 14.75 14C14.75 15.2588 13.9043 16.32 12.75 16.6465V17.5C12.75 17.9142 12.4142 18.25 12 18.25C11.5858 18.25 11.25 17.9142 11.25 17.5V16.6465C10.0957 16.32 9.25 15.2588 9.25 14C9.25 13.5858 9.58579 13.25 10 13.25C10.4142 13.25 10.75 13.5858 10.75 14C10.75 14.6904 11.3096 15.25 12 15.25C12.6904 15.25 13.25 14.6904 13.25 14C13.25 13.3096 12.6904 12.75 12 12.75C10.4812 12.75 9.25 11.5188 9.25 10C9.25 8.74122 10.0957 7.67998 11.25 7.35352V6.5C11.25 6.08579 11.5858 5.75 12 5.75Z" fill="#28303F"/>
</svg>
