<svg width="24" height="24" viewBox="0 0 24 24" fill="none" xmlns="http://www.w3.org/2000/svg">
<path opacity="0.4" d="M4 8H2V17L6.31083 19.1554C7.42168 19.7108 8.64658 20 9.88854 20H18C19.1046 20 20 19.1046 20 18C20 16.8954 19.1046 16 18 16H16.4164C15.4849 16 14.5663 15.7831 13.7331 15.3666L10.792 13.896C10.9843 13.7189 11.1432 13.4993 11.2528 13.2434C11.6664 12.2784 11.2241 11.1605 10.2622 10.7397L4 8Z" fill="#28303F"/>
<path d="M12.6083 8.51043L15.4383 12.0478C16.2389 13.0486 17.7611 13.0486 18.5617 12.0478L21.3917 8.51043C21.7855 8.01818 22 7.40656 22 6.77617V6.65165C22 5.18718 20.8128 4 19.3484 4H19.0509C18.5381 4 18.0463 4.20372 17.6836 4.56635C17.3061 4.94392 16.6939 4.94392 16.3164 4.56635C15.9537 4.20372 15.4619 4 14.9491 4H14.6517C13.1872 4 12 5.18718 12 6.65165V6.77617C12 7.40656 12.2145 8.01818 12.6083 8.51043Z" fill="#28303F"/>
</svg>
