<svg width="24" height="24" viewBox="0 0 24 24" fill="none" xmlns="http://www.w3.org/2000/svg">
<path opacity="0.4" d="M18 16C18 14.8954 17.1046 14 16 14C14.8954 14 14 14.8954 14 16C14 17.1046 14.8954 18 16 18C17.1046 18 18 17.1046 18 16Z" fill="#28303F"/>
<path opacity="0.4" d="M10 8C10 6.89543 9.10457 6 8 6C6.89543 6 6 6.89543 6 8C6 9.10457 6.89543 10 8 10C9.10457 10 10 9.10457 10 8Z" fill="#28303F"/>
<path fill-rule="evenodd" clip-rule="evenodd" d="M13.25 4C13.25 3.58579 13.5858 3.25 14 3.25H18C19.5188 3.25 20.75 4.48122 20.75 6V10C20.75 10.4142 20.4142 10.75 20 10.75C19.5858 10.75 19.25 10.4142 19.25 10V6C19.25 5.93994 19.2458 5.88088 19.2376 5.82308L4.53033 20.5303C4.23744 20.8232 3.76256 20.8232 3.46967 20.5303C3.17678 20.2374 3.17678 19.7626 3.46967 19.4697L18.1769 4.76242C18.1191 4.75424 18.0601 4.75 18 4.75H14C13.5858 4.75 13.25 4.41421 13.25 4Z" fill="#28303F"/>
</svg>
