<svg width="24" height="24" viewBox="0 0 24 24" fill="none" xmlns="http://www.w3.org/2000/svg">
<path fill-rule="evenodd" clip-rule="evenodd" d="M7.86004 10.75C7.78769 11.1563 7.75 11.574 7.75 12C7.75 12.426 7.78769 12.8437 7.86004 13.25H16C16.4142 13.25 16.75 13.5858 16.75 14C16.75 14.4142 16.4142 14.75 16 14.75H8.30272C9.40895 17.385 12.0576 19.25 15.1667 19.25C17.2472 19.25 19.124 18.4137 20.4698 17.0684C20.7627 16.7756 21.2376 16.7757 21.5304 17.0686C21.8233 17.3615 21.8232 17.8364 21.5302 18.1293C19.9114 19.7475 17.6564 20.75 15.1667 20.75C11.2308 20.75 7.87522 18.2419 6.6988 14.75H3C2.58579 14.75 2.25 14.4142 2.25 14C2.25 13.5858 2.58579 13.25 3 13.25H6.34014C6.28074 12.8419 6.25 12.4246 6.25 12C6.25 11.5754 6.28074 11.1581 6.34015 10.75H3C2.58579 10.75 2.25 10.4142 2.25 10C2.25 9.58579 2.58579 9.25 3 9.25H6.6988C7.87522 5.75809 11.2308 3.25 15.1667 3.25C17.6564 3.25 19.9114 4.25247 21.5302 5.87074C21.8232 6.16359 21.8233 6.63846 21.5304 6.9314C21.2376 7.22435 20.7627 7.22443 20.4698 6.93158C19.124 5.58631 17.2472 4.75 15.1667 4.75C12.0576 4.75 9.40895 6.61504 8.30272 9.25H16C16.4142 9.25 16.75 9.58579 16.75 10C16.75 10.4142 16.4142 10.75 16 10.75H7.86004Z" fill="#28303F"/>
</svg>
