<svg width="24" height="24" viewBox="0 0 24 24" fill="none" xmlns="http://www.w3.org/2000/svg">
<path d="M8.39225 8.15257C8.55313 7.47687 9.15686 7 9.85145 7H14.1485C14.8431 7 15.4469 7.47687 15.6078 8.15257L16.5601 12.1526C16.7846 13.0951 16.0698 14 15.1009 14H8.89907C7.93016 14 7.21544 13.0951 7.43986 12.1526L8.39225 8.15257Z" fill="#28303F"/>
<path opacity="0.4" d="M3.39229 15.1526C3.55317 14.4769 4.15691 14 4.8515 14H9.14859C9.84318 14 10.4469 14.4769 10.6078 15.1526L11.5602 19.1526C11.7846 20.0951 11.0699 21 10.101 21H3.89912C2.93021 21 2.21549 20.0951 2.43991 19.1526L3.39229 15.1526Z" fill="#28303F"/>
<path opacity="0.4" d="M13.3923 15.1526C13.5532 14.4769 14.1569 14 14.8515 14H19.1486C19.8432 14 20.4469 14.4769 20.6078 15.1526L21.5602 19.1526C21.7846 20.0951 21.0699 21 20.101 21H13.8991C12.9302 21 12.2155 20.0951 12.4399 19.1526L13.3923 15.1526Z" fill="#28303F"/>
<path opacity="0.4" fill-rule="evenodd" clip-rule="evenodd" d="M12 2.25C12.4142 2.25 12.75 2.58579 12.75 3V4C12.75 4.41421 12.4142 4.75 12 4.75C11.5858 4.75 11.25 4.41421 11.25 4V3C11.25 2.58579 11.5858 2.25 12 2.25Z" fill="#28303F"/>
<path opacity="0.4" fill-rule="evenodd" clip-rule="evenodd" d="M18.5303 3.46967C18.8232 3.76256 18.8232 4.23744 18.5303 4.53033L17.5303 5.53033C17.2374 5.82322 16.7626 5.82322 16.4697 5.53033C16.1768 5.23744 16.1768 4.76256 16.4697 4.46967L17.4697 3.46967C17.7626 3.17678 18.2374 3.17678 18.5303 3.46967Z" fill="#28303F"/>
<path opacity="0.4" fill-rule="evenodd" clip-rule="evenodd" d="M5.46967 3.46967C5.76256 3.17678 6.23744 3.17678 6.53033 3.46967L7.53033 4.46967C7.82322 4.76256 7.82322 5.23744 7.53033 5.53033C7.23744 5.82322 6.76256 5.82322 6.46967 5.53033L5.46967 4.53033C5.17678 4.23744 5.17678 3.76256 5.46967 3.46967Z" fill="#28303F"/>
</svg>
