<svg width="24" height="24" viewBox="0 0 24 24" fill="none" xmlns="http://www.w3.org/2000/svg">
<path opacity="0.4" fill-rule="evenodd" clip-rule="evenodd" d="M19.3066 7.0401C19.6512 7.26987 19.7443 7.73552 19.5146 8.08017L13.7336 16.7516C13.5038 17.0963 13.0382 17.1894 12.6935 16.9596C12.3489 16.7299 12.2558 16.2642 12.4855 15.9196L18.2665 7.24812C18.4963 6.90347 18.9619 6.81034 19.3066 7.0401ZM5.00014 12.7499C5.24867 12.4186 5.71877 12.3514 6.05014 12.5999L10.85 16.1998C11.1813 16.4483 11.2485 16.9184 11 17.2498C10.7514 17.5812 10.2813 17.6483 9.94995 17.3998L5.15014 13.7999C4.81877 13.5514 4.75161 13.0813 5.00014 12.7499Z" fill="#28303F"/>
<path d="M6 12C6 12.4503 5.8512 12.8658 5.60009 13.2001C5.23521 13.6858 4.6543 14 4 14C2.89543 14 2 13.1046 2 12C2 10.8954 2.89543 10 4 10C5.10457 10 6 10.8954 6 12Z" fill="#28303F"/>
<path d="M14 18C14 19.1046 13.1046 20 12 20C10.8954 20 10 19.1046 10 18C10 17.5497 10.1488 17.1342 10.3999 16.7999C10.7648 16.3142 11.3457 16 12 16C12.4105 16 12.792 16.1236 13.1095 16.3357C13.6464 16.6944 14 17.3059 14 18Z" fill="#28303F"/>
<path d="M22 6C22 7.10457 21.1046 8 20 8C19.5895 8 19.208 7.87635 18.8905 7.66428C18.3536 7.30564 18 6.69411 18 6C18 4.89543 18.8954 4 20 4C21.1046 4 22 4.89543 22 6Z" fill="#28303F"/>
</svg>
