<svg width="24" height="24" viewBox="0 0 24 24" fill="none" xmlns="http://www.w3.org/2000/svg">
<path opacity="0.4" fill-rule="evenodd" clip-rule="evenodd" d="M19.3066 16.9599C19.6512 16.7301 19.7443 16.2645 19.5146 15.9198L13.7336 7.24839C13.5038 6.90374 13.0382 6.81061 12.6935 7.04037C12.3489 7.27014 12.2558 7.73579 12.4855 8.08044L18.2665 16.7519C18.4963 17.0965 18.9619 17.1897 19.3066 16.9599ZM5.00014 11.2501C5.24867 11.5814 5.71877 11.6486 6.05014 11.4001L10.85 7.80021C11.1813 7.55168 11.2485 7.08158 11 6.75021C10.7514 6.41883 10.2813 6.35168 9.94995 6.6002L5.15014 10.2001C4.81877 10.4486 4.75161 10.9187 5.00014 11.2501Z" fill="#28303F"/>
<path d="M6 12C6 11.5497 5.8512 11.1342 5.60009 10.7999C5.23521 10.3142 4.6543 10 4 10C2.89543 10 2 10.8954 2 12C2 13.1046 2.89543 14 4 14C5.10457 14 6 13.1046 6 12Z" fill="#28303F"/>
<path d="M14 6C14 4.89543 13.1046 4 12 4C10.8954 4 10 4.89543 10 6C10 6.45027 10.1488 6.86579 10.3999 7.20007C10.7648 7.68581 11.3457 8 12 8C12.4105 8 12.792 7.87635 13.1095 7.66428C13.6464 7.30564 14 6.69411 14 6Z" fill="#28303F"/>
<path d="M22 18C22 16.8954 21.1046 16 20 16C19.5895 16 19.208 16.1236 18.8905 16.3357C18.3536 16.6944 18 17.3059 18 18C18 19.1046 18.8954 20 20 20C21.1046 20 22 19.1046 22 18Z" fill="#28303F"/>
</svg>
