<svg width="24" height="24" viewBox="0 0 24 24" fill="none" xmlns="http://www.w3.org/2000/svg">
<path opacity="0.4" fill-rule="evenodd" clip-rule="evenodd" d="M19 6.75024C19.2485 7.08161 19.1813 7.55171 18.85 7.80024L14.0501 11.4001C13.7188 11.6486 13.2487 11.5815 13.0001 11.2501C12.7516 10.9187 12.8188 10.4486 13.1501 10.2001L17.95 6.60024C18.2813 6.35171 18.7514 6.41887 19 6.75024ZM11 12.7502C11.2485 13.0816 11.1813 13.5517 10.85 13.8002L6.05014 17.4001C5.71877 17.6486 5.24867 17.5815 5.00014 17.2501C4.75161 16.9187 4.81877 16.4486 5.15014 16.2001L9.94995 12.6002C10.2813 12.3517 10.7514 12.4189 11 12.7502Z" fill="#28303F"/>
<path d="M22 6C22 7.10457 21.1046 8 20 8C19.3457 8 18.7648 7.68581 18.3999 7.20007C18.1488 6.86579 18 6.45027 18 6C18 4.89543 18.8954 4 20 4C21.1046 4 22 4.89543 22 6Z" fill="#28303F"/>
<path d="M14 12C14 13.1046 13.1046 14 12 14C11.3457 14 10.7648 13.6858 10.3999 13.2001C10.1488 12.8658 10 12.4503 10 12C10 10.8954 10.8954 10 12 10C12.6543 10 13.2352 10.3142 13.6001 10.7999C13.8512 11.1342 14 11.5497 14 12Z" fill="#28303F"/>
<path d="M6 18C6 19.1046 5.10457 20 4 20C2.89543 20 2 19.1046 2 18C2 16.8954 2.89543 16 4 16C4.6543 16 5.23521 16.3142 5.60009 16.7999C5.8512 17.1342 6 17.5497 6 18Z" fill="#28303F"/>
</svg>
