<svg width="24" height="24" viewBox="0 0 24 24" fill="none" xmlns="http://www.w3.org/2000/svg">
<path opacity="0.4" d="M16 2H8C6.89543 2 6 2.89543 6 4V20C6 21.1046 6.89543 22 8 22H16C17.1046 22 18 21.1046 18 20V4C18 2.89543 17.1046 2 16 2Z" fill="#28303F"/>
<path d="M12 7H18C19.1046 7 20 7.89543 20 9V13C20 14.1046 19.1046 15 18 15H12V7Z" fill="#28303F"/>
<path d="M13 19C13 19.5523 12.5523 20 12 20C11.4477 20 11 19.5523 11 19C11 18.4477 11.4477 18 12 18C12.5523 18 13 18.4477 13 19Z" fill="#28303F"/>
<path opacity="0.4" d="M12 10.5L20 10.5L20 9L12 9L12 10.5Z" fill="#28303F"/>
</svg>
