<svg width="24" height="24" viewBox="0 0 24 24" fill="none" xmlns="http://www.w3.org/2000/svg">
<path opacity="0.4" d="M3 11C3 9.34315 4.34315 8 6 8H18C19.6569 8 21 9.34315 21 11V19C21 20.6569 19.6569 22 18 22H6C4.34315 22 3 20.6569 3 19V11Z" fill="#28303F"/>
<circle r="1" transform="matrix(1 0 0 -1 18 19)" fill="#28303F"/>
<circle r="1" transform="matrix(1 0 0 -1 6 11)" fill="#28303F"/>
<circle r="2" transform="matrix(1 0 0 -1 12 15)" fill="#28303F"/>
<path fill-rule="evenodd" clip-rule="evenodd" d="M11.25 3.39645L10.5303 4.11612C10.2374 4.40901 9.76256 4.40901 9.46967 4.11612C9.17678 3.82322 9.17678 3.34835 9.46967 3.05546L10.7626 1.76256C11.446 1.07915 12.554 1.07914 13.2374 1.76256L14.5303 3.05546C14.8232 3.34835 14.8232 3.82322 14.5303 4.11612C14.2374 4.40901 13.7626 4.40901 13.4697 4.11612L12.75 3.39645V5.5C12.75 5.91421 12.4142 6.25 12 6.25C11.5858 6.25 11.25 5.91421 11.25 5.5V3.39645Z" fill="#28303F"/>
</svg>
