<svg width="24" height="24" viewBox="0 0 24 24" fill="none" xmlns="http://www.w3.org/2000/svg">
<path opacity="0.4" d="M3 5C3 3.34315 4.34315 2 6 2H18C19.6569 2 21 3.34315 21 5V13C21 14.6569 19.6569 16 18 16H6C4.34315 16 3 14.6569 3 13V5Z" fill="#28303F"/>
<circle r="1" transform="matrix(1 0 0 -1 18 13)" fill="#28303F"/>
<circle r="1" transform="matrix(1 0 0 -1 6 5)" fill="#28303F"/>
<circle r="2" transform="matrix(1 0 0 -1 12 9)" fill="#28303F"/>
<path fill-rule="evenodd" clip-rule="evenodd" d="M11.25 20.6036L10.5303 19.8839C10.2374 19.591 9.76256 19.591 9.46967 19.8839C9.17678 20.1768 9.17678 20.6517 9.46967 20.9445L10.7626 22.2374C11.446 22.9209 12.554 22.9209 13.2374 22.2374L14.5303 20.9445C14.8232 20.6517 14.8232 20.1768 14.5303 19.8839C14.2374 19.591 13.7626 19.591 13.4697 19.8839L12.75 20.6036V18.5C12.75 18.0858 12.4142 17.75 12 17.75C11.5858 17.75 11.25 18.0858 11.25 18.5V20.6036Z" fill="#28303F"/>
</svg>
