<svg width="24" height="24" viewBox="0 0 24 24" fill="none" xmlns="http://www.w3.org/2000/svg">
<path opacity="0.4" d="M14.0859 7L9.91411 7L8.51303 5.39296C7.13959 3.81763 8.74185 1.46298 10.7471 2.10985L11.6748 2.40914C11.8861 2.47728 12.1139 2.47728 12.3252 2.40914L13.2529 2.10985C15.2582 1.46298 16.8604 3.81763 15.487 5.39296L14.0859 7Z" fill="#28303F"/>
<path opacity="0.4" d="M5.68429 10.2103C6.46705 7.7055 8.78686 6 11.4112 6H12.5889C15.2132 6 17.533 7.7055 18.3158 10.2104L19.5658 14.2104C20.7731 18.0739 17.8867 22 13.8389 22H10.1612C6.11332 22 3.22692 18.0739 4.43429 14.2104L5.68429 10.2103Z" fill="#28303F"/>
<path d="M11.9998 20C11.9998 18.8954 12.8952 18 13.9998 18H19.9998C21.1043 18 21.9998 18.8954 21.9998 20C21.9998 21.1046 21.1043 22 19.9998 22H13.9998C12.8952 22 11.9998 21.1046 11.9998 20Z" fill="#28303F"/>
<path d="M11.9998 16C11.9998 14.8954 12.8952 14 13.9998 14H19.3331H19.9998C21.1043 14 21.9998 14.8954 21.9998 16C21.9998 17.1046 21.1043 18 19.9998 18H13.9998C12.8952 18 11.9998 17.1046 11.9998 16Z" fill="#28303F"/>
</svg>
