<svg width="24" height="24" viewBox="0 0 24 24" fill="none" xmlns="http://www.w3.org/2000/svg">
<path opacity="0.4" d="M2 8C2 5.79086 3.79086 4 6 4H18C20.2091 4 22 5.79086 22 8V16C22 18.2091 20.2091 20 18 20H6C3.79086 20 2 18.2091 2 16V8Z" fill="#28303F"/>
<circle r="1" transform="matrix(1 0 0 -1 6 8)" fill="#28303F"/>
<circle r="2" transform="matrix(1 0 0 -1 12 12)" fill="#28303F"/>
<path fill-rule="evenodd" clip-rule="evenodd" d="M22.0303 15.227C22.3232 15.5199 22.3232 15.9948 22.0303 16.2877L20.4393 17.8787L22.0303 19.4697C22.3232 19.7626 22.3232 20.2374 22.0303 20.5303C21.7374 20.8232 21.2625 20.8232 20.9696 20.5303L19.3786 18.9393L17.7877 20.5303C17.4948 20.8232 17.0199 20.8232 16.727 20.5303C16.4341 20.2374 16.4341 19.7625 16.727 19.4696L18.318 17.8787L16.727 16.2877C16.4341 15.9948 16.4341 15.5199 16.727 15.227C17.0199 14.9341 17.4948 14.9341 17.7877 15.227L19.3786 16.818L20.9696 15.227C21.2625 14.9341 21.7374 14.9341 22.0303 15.227Z" fill="#28303F"/>
</svg>
