<svg width="24" height="24" viewBox="0 0 24 24" fill="none" xmlns="http://www.w3.org/2000/svg">
<path opacity="0.4" d="M2 8C2 5.79086 3.79086 4 6 4H18C20.2091 4 22 5.79086 22 8V16C22 18.2091 20.2091 20 18 20H6C3.79086 20 2 18.2091 2 16V8Z" fill="#28303F"/>
<path fill-rule="evenodd" clip-rule="evenodd" d="M10.4808 9.38462C10.4808 8.2057 11.4365 7.25 12.6154 7.25C13.7943 7.25 14.75 8.2057 14.75 9.38461V9.88235C14.75 10.2966 14.4142 10.6324 14 10.6324C13.5858 10.6324 13.25 10.2966 13.25 9.88235V9.38461C13.25 9.03413 12.9659 8.75 12.6154 8.75C12.2649 8.75 11.9808 9.03413 11.9808 9.38462V9.95476C11.9808 10.3921 11.9393 10.8257 11.8583 11.25H13C13.4142 11.25 13.75 11.5858 13.75 12C13.75 12.4142 13.4142 12.75 13 12.75H11.3901C11.1189 13.363 10.758 13.9379 10.3147 14.4544C10.0466 14.7669 10.2686 15.25 10.6804 15.25H14C14.4142 15.25 14.75 15.5858 14.75 16C14.75 16.4142 14.4142 16.75 14 16.75H10.6804C8.98665 16.75 8.0734 14.7628 9.17644 13.4775C9.3728 13.2487 9.54854 13.0052 9.70258 12.75H9C8.58579 12.75 8.25 12.4142 8.25 12C8.25 11.5858 8.58579 11.25 9 11.25H10.3234C10.4272 10.8291 10.4808 10.3944 10.4808 9.95476V9.38462Z" fill="#28303F"/>
</svg>
