<svg width="24" height="24" viewBox="0 0 24 24" fill="none" xmlns="http://www.w3.org/2000/svg">
<path opacity="0.4" d="M3 5C3 3.34315 4.34315 2 6 2H18C19.6569 2 21 3.34315 21 5V13C21 14.6569 19.6569 16 18 16H6C4.34315 16 3 14.6569 3 13V5Z" fill="#28303F"/>
<circle r="1" transform="matrix(1 0 0 -1 18 13)" fill="#28303F"/>
<circle r="1" transform="matrix(1 0 0 -1 6 5)" fill="#28303F"/>
<circle r="2" transform="matrix(1 0 0 -1 12 9)" fill="#28303F"/>
<path fill-rule="evenodd" clip-rule="evenodd" d="M11.25 19.8964L10.5303 20.6161C10.2374 20.909 9.76256 20.909 9.46967 20.6161C9.17678 20.3232 9.17678 19.8483 9.46967 19.5555L10.7626 18.2626C11.446 17.5791 12.554 17.5791 13.2374 18.2626L14.5303 19.5555C14.8232 19.8483 14.8232 20.3232 14.5303 20.6161C14.2374 20.909 13.7626 20.909 13.4697 20.6161L12.75 19.8964V22C12.75 22.4142 12.4142 22.75 12 22.75C11.5858 22.75 11.25 22.4142 11.25 22V19.8964Z" fill="#28303F"/>
</svg>
