<svg width="24" height="24" viewBox="0 0 24 24" fill="none" xmlns="http://www.w3.org/2000/svg">
<path opacity="0.4" d="M2 8C2 5.79086 3.79086 4 6 4H18C20.2091 4 22 5.79086 22 8V16C22 18.2091 20.2091 20 18 20H6C3.79086 20 2 18.2091 2 16V8Z" fill="#28303F"/>
<circle r="1" transform="matrix(1 0 0 -1 6 8)" fill="#28303F"/>
<circle r="2" transform="matrix(1 0 0 -1 12 12)" fill="#28303F"/>
<path fill-rule="evenodd" clip-rule="evenodd" d="M17.3964 17.25L18.1161 16.5303C18.409 16.2374 18.409 15.7626 18.1161 15.4697C17.8232 15.1768 17.3483 15.1768 17.0555 15.4697L15.7626 16.7626C15.0791 17.446 15.0791 18.554 15.7626 19.2374L17.0555 20.5303C17.3483 20.8232 17.8232 20.8232 18.1161 20.5303C18.409 20.2374 18.409 19.7626 18.1161 19.4697L17.3964 18.75L22 18.75C22.4142 18.75 22.75 18.4142 22.75 18C22.75 17.5858 22.4142 17.25 22 17.25L17.3964 17.25Z" fill="#28303F"/>
</svg>
