<svg width="24" height="24" viewBox="0 0 24 24" fill="none" xmlns="http://www.w3.org/2000/svg">
<path opacity="0.4" d="M3 11C3 9.34315 4.34315 8 6 8H18C19.6569 8 21 9.34315 21 11V19C21 20.6569 19.6569 22 18 22H6C4.34315 22 3 20.6569 3 19V11Z" fill="#28303F"/>
<circle r="1" transform="matrix(1 0 0 -1 18 19)" fill="#28303F"/>
<circle r="1" transform="matrix(1 0 0 -1 6 11)" fill="#28303F"/>
<circle r="2" transform="matrix(1 0 0 -1 12 15)" fill="#28303F"/>
<path fill-rule="evenodd" clip-rule="evenodd" d="M11.25 4.10355L10.5303 3.38388C10.2374 3.09099 9.76256 3.09099 9.46967 3.38388C9.17678 3.67678 9.17678 4.15165 9.46967 4.44454L10.7626 5.73744C11.446 6.42085 12.554 6.42086 13.2374 5.73744L14.5303 4.44454C14.8232 4.15165 14.8232 3.67678 14.5303 3.38388C14.2374 3.09099 13.7626 3.09099 13.4697 3.38388L12.75 4.10355V2C12.75 1.58579 12.4142 1.25 12 1.25C11.5858 1.25 11.25 1.58579 11.25 2V4.10355Z" fill="#28303F"/>
</svg>
