<svg width="24" height="24" viewBox="0 0 24 24" fill="none" xmlns="http://www.w3.org/2000/svg">
<path opacity="0.4" d="M14.0859 7L9.91411 7L8.51303 5.39296C7.13959 3.81763 8.74185 1.46298 10.7471 2.10985L11.6748 2.40914C11.8861 2.47728 12.1139 2.47728 12.3252 2.40914L13.2529 2.10985C15.2582 1.46298 16.8604 3.81763 15.487 5.39296L14.0859 7Z" fill="#28303F"/>
<path opacity="0.4" d="M5.68429 10.2103C6.46705 7.7055 8.78686 6 11.4112 6H12.5889C15.2132 6 17.533 7.7055 18.3158 10.2104L19.5658 14.2104C20.7731 18.0739 17.8867 22 13.8389 22H10.1612C6.11332 22 3.22692 18.0739 4.43429 14.2104L5.68429 10.2103Z" fill="#28303F"/>
<path fill-rule="evenodd" clip-rule="evenodd" d="M10.4808 11.8846C10.4808 10.7057 11.4365 9.75 12.6154 9.75C13.7943 9.75 14.75 10.7057 14.75 11.8846V12.3824C14.75 12.7966 14.4142 13.1324 14 13.1324C13.5858 13.1324 13.25 12.7966 13.25 12.3824V11.8846C13.25 11.5341 12.9659 11.25 12.6154 11.25C12.2649 11.25 11.9808 11.5341 11.9808 11.8846V12.4548C11.9808 12.8921 11.9393 13.3257 11.8583 13.75H13C13.4142 13.75 13.75 14.0858 13.75 14.5C13.75 14.9142 13.4142 15.25 13 15.25H11.3901C11.1189 15.863 10.758 16.4379 10.3147 16.9544C10.0466 17.2669 10.2686 17.75 10.6804 17.75H14C14.4142 17.75 14.75 18.0858 14.75 18.5C14.75 18.9142 14.4142 19.25 14 19.25H10.6804C8.98665 19.25 8.0734 17.2628 9.17644 15.9775C9.3728 15.7487 9.54854 15.5052 9.70258 15.25H9C8.58579 15.25 8.25 14.9142 8.25 14.5C8.25 14.0858 8.58579 13.75 9 13.75H10.3234C10.4272 13.3291 10.4808 12.8944 10.4808 12.4548V11.8846Z" fill="#28303F"/>
</svg>
