<svg width="24" height="24" viewBox="0 0 24 24" fill="none" xmlns="http://www.w3.org/2000/svg">
<path opacity="0.4" d="M2 8C2 5.79086 3.79086 4 6 4H18C20.2091 4 22 5.79086 22 8V16C22 18.2091 20.2091 20 18 20H6C3.79086 20 2 18.2091 2 16V8Z" fill="#28303F"/>
<circle r="1" transform="matrix(1 0 0 -1 6 8)" fill="#28303F"/>
<circle r="2" transform="matrix(1 0 0 -1 12 12)" fill="#28303F"/>
<circle r="2" transform="matrix(1 0 0 -1 19 16)" fill="#28303F"/>
<path d="M19 18C20.2819 18 21.4012 18.8044 22 20C22 20.5523 21.5523 21 21 21H17C16.4477 21 16 20.5523 16 20C16.5988 18.8044 17.7181 18 19 18Z" fill="#28303F"/>
</svg>
