<svg width="24" height="24" viewBox="0 0 24 24" fill="none" xmlns="http://www.w3.org/2000/svg">
<path opacity="0.4" d="M2 8C2 5.79086 3.79086 4 6 4H18C20.2091 4 22 5.79086 22 8V16C22 18.2091 20.2091 20 18 20H6C3.79086 20 2 18.2091 2 16V8Z" fill="#28303F"/>
<circle r="1" transform="matrix(1 0 0 -1 6 8)" fill="#28303F"/>
<circle r="2" transform="matrix(1 0 0 -1 12 12)" fill="#28303F"/>
<path fill-rule="evenodd" clip-rule="evenodd" d="M19.25 18.6036L18.5303 17.8839C18.2374 17.591 17.7626 17.591 17.4697 17.8839C17.1768 18.1768 17.1768 18.6517 17.4697 18.9445L18.7626 20.2374C19.446 20.9209 20.554 20.9209 21.2374 20.2374L22.5303 18.9445C22.8232 18.6517 22.8232 18.1768 22.5303 17.8839C22.2374 17.591 21.7626 17.591 21.4697 17.8839L20.75 18.6036V14C20.75 13.5858 20.4142 13.25 20 13.25C19.5858 13.25 19.25 13.5858 19.25 14V18.6036Z" fill="#28303F"/>
</svg>
