<svg width="24" height="24" viewBox="0 0 24 24" fill="none" xmlns="http://www.w3.org/2000/svg">
<path opacity="0.4" d="M2 8C2 5.79086 3.79086 4 6 4H18C20.2091 4 22 5.79086 22 8V16C22 18.2091 20.2091 20 18 20H6C3.79086 20 2 18.2091 2 16V8Z" fill="#28303F"/>
<circle r="1" transform="matrix(1 0 0 -1 6 8)" fill="#28303F"/>
<circle r="2" transform="matrix(1 0 0 -1 12 12)" fill="#28303F"/>
<path d="M19.2211 15.7789L19.0001 15.9999L18.7792 15.7789C18.169 15.1687 17.1797 15.1687 16.5695 15.7789C15.9593 16.3891 15.9593 17.3784 16.5695 17.9886L18.1163 19.5354C18.6044 20.0236 19.3959 20.0236 19.884 19.5354L21.4308 17.9886C22.041 17.3784 22.041 16.3891 21.4308 15.7789C20.8206 15.1687 19.8313 15.1687 19.2211 15.7789Z" fill="#28303F"/>
</svg>
