<svg width="24" height="24" viewBox="0 0 24 24" fill="none" xmlns="http://www.w3.org/2000/svg">
<path opacity="0.4" d="M14.0859 7L9.91411 7L8.51303 5.39296C7.13959 3.81763 8.74185 1.46298 10.7471 2.10985L11.6748 2.40914C11.8861 2.47728 12.1139 2.47728 12.3252 2.40914L13.2529 2.10985C15.2582 1.46298 16.8604 3.81763 15.487 5.39296L14.0859 7Z" fill="#28303F"/>
<path opacity="0.4" d="M5.68429 10.2103C6.46705 7.7055 8.78686 6 11.4112 6H12.5889C15.2132 6 17.533 7.7055 18.3158 10.2104L19.5658 14.2104C20.7731 18.0739 17.8867 22 13.8389 22H10.1612C6.11332 22 3.22692 18.0739 4.43429 14.2104L5.68429 10.2103Z" fill="#28303F"/>
<path fill-rule="evenodd" clip-rule="evenodd" d="M12 8.75C12.4142 8.75 12.75 9.08579 12.75 9.5V10.3462C13.856 10.6338 14.75 11.5427 14.75 12.75C14.75 13.1642 14.4142 13.5 14 13.5C13.5858 13.5 13.25 13.1642 13.25 12.75C13.25 12.2887 12.7876 11.75 12 11.75C11.2124 11.75 10.75 12.2887 10.75 12.75C10.75 13.2113 11.2124 13.75 12 13.75C13.4216 13.75 14.75 14.7783 14.75 16.25C14.75 17.4573 13.856 18.3662 12.75 18.6538V19.5C12.75 19.9142 12.4142 20.25 12 20.25C11.5858 20.25 11.25 19.9142 11.25 19.5V18.6538C10.144 18.3662 9.25 17.4573 9.25 16.25C9.25 15.8358 9.58579 15.5 10 15.5C10.4142 15.5 10.75 15.8358 10.75 16.25C10.75 16.7113 11.2124 17.25 12 17.25C12.7876 17.25 13.25 16.7113 13.25 16.25C13.25 15.7887 12.7876 15.25 12 15.25C10.5784 15.25 9.25 14.2217 9.25 12.75C9.25 11.5427 10.144 10.6338 11.25 10.3462V9.5C11.25 9.08579 11.5858 8.75 12 8.75Z" fill="#28303F"/>
</svg>
