<svg width="24" height="24" viewBox="0 0 24 24" fill="none" xmlns="http://www.w3.org/2000/svg">
<path opacity="0.4" d="M14.0859 7L9.91411 7L8.51303 5.39296C7.13959 3.81763 8.74185 1.46298 10.7471 2.10985L11.6748 2.40914C11.8861 2.47728 12.1139 2.47728 12.3252 2.40914L13.2529 2.10985C15.2582 1.46298 16.8604 3.81763 15.487 5.39296L14.0859 7Z" fill="#28303F"/>
<path opacity="0.4" d="M5.68429 10.2103C6.46705 7.7055 8.78686 6 11.4112 6H12.5889C15.2132 6 17.533 7.7055 18.3158 10.2104L19.5658 14.2104C20.7731 18.0739 17.8867 22 13.8389 22H10.1612C6.11332 22 3.22692 18.0739 4.43429 14.2104L5.68429 10.2103Z" fill="#28303F"/>
<path fill-rule="evenodd" clip-rule="evenodd" d="M9.76121 14.25C9.75379 14.3323 9.75 14.4157 9.75 14.5C9.75 14.5843 9.75379 14.6677 9.76121 14.75H12C12.4142 14.75 12.75 15.0858 12.75 15.5C12.75 15.9142 12.4142 16.25 12 16.25H10.3786C10.883 16.8608 11.646 17.25 12.5 17.25C13.2696 17.25 13.9643 16.9348 14.4643 16.4246C14.7542 16.1287 15.2291 16.1239 15.5249 16.4138C15.8208 16.7037 15.8256 17.1786 15.5357 17.4744C14.7652 18.2607 13.689 18.75 12.5 18.75C10.7766 18.75 9.29286 17.7243 8.62587 16.25H8C7.58579 16.25 7.25 15.9142 7.25 15.5C7.25 15.0858 7.58579 14.75 8 14.75H8.25723C8.25243 14.6673 8.25 14.5839 8.25 14.5C8.25 14.4161 8.25243 14.3327 8.25723 14.25H8C7.58579 14.25 7.25 13.9142 7.25 13.5C7.25 13.0858 7.58579 12.75 8 12.75H8.62587C9.29286 11.2757 10.7766 10.25 12.5 10.25C13.689 10.25 14.7652 10.7393 15.5357 11.5256C15.8256 11.8214 15.8208 12.2963 15.5249 12.5862C15.2291 12.8761 14.7542 12.8713 14.4643 12.5754C13.9643 12.0652 13.2696 11.75 12.5 11.75C11.646 11.75 10.883 12.1392 10.3786 12.75H12C12.4142 12.75 12.75 13.0858 12.75 13.5C12.75 13.9142 12.4142 14.25 12 14.25H9.76121Z" fill="#28303F"/>
</svg>
