<svg width="24" height="24" viewBox="0 0 24 24" fill="none" xmlns="http://www.w3.org/2000/svg">
<path opacity="0.4" d="M2 8C2 5.79086 3.79086 4 6 4H18C20.2091 4 22 5.79086 22 8V16C22 18.2091 20.2091 20 18 20H6C3.79086 20 2 18.2091 2 16V8Z" fill="#28303F"/>
<circle r="1" transform="matrix(1 0 0 -1 6 8)" fill="#28303F"/>
<circle r="2" transform="matrix(1 0 0 -1 12 12)" fill="#28303F"/>
<path fill-rule="evenodd" clip-rule="evenodd" d="M20.6036 17.25L19.8839 16.5303C19.591 16.2374 19.591 15.7626 19.8839 15.4697C20.1768 15.1768 20.6517 15.1768 20.9445 15.4697L22.2374 16.7626C22.9209 17.446 22.9209 18.554 22.2374 19.2374L20.9445 20.5303C20.6517 20.8232 20.1768 20.8232 19.8839 20.5303C19.591 20.2374 19.591 19.7626 19.8839 19.4697L20.6036 18.75L16 18.75C15.5858 18.75 15.25 18.4142 15.25 18C15.25 17.5858 15.5858 17.25 16 17.25L20.6036 17.25Z" fill="#28303F"/>
</svg>
