<svg width="24" height="24" viewBox="0 0 24 24" fill="none" xmlns="http://www.w3.org/2000/svg">
<path opacity="0.4" d="M2 8C2 5.79086 3.79086 4 6 4H18C20.2091 4 22 5.79086 22 8V16C22 18.2091 20.2091 20 18 20H6C3.79086 20 2 18.2091 2 16V8Z" fill="#28303F"/>
<circle r="1" transform="matrix(1 0 0 -1 6 8)" fill="#28303F"/>
<circle r="2" transform="matrix(1 0 0 -1 12 12)" fill="#28303F"/>
<path fill-rule="evenodd" clip-rule="evenodd" d="M19.25 15.3964L18.5303 16.1161C18.2374 16.409 17.7626 16.409 17.4697 16.1161C17.1768 15.8232 17.1768 15.3483 17.4697 15.0555L18.7626 13.7626C19.446 13.0791 20.554 13.0791 21.2374 13.7626L22.5303 15.0555C22.8232 15.3483 22.8232 15.8232 22.5303 16.1161C22.2374 16.409 21.7626 16.409 21.4697 16.1161L20.75 15.3964V20C20.75 20.4142 20.4142 20.75 20 20.75C19.5858 20.75 19.25 20.4142 19.25 20V15.3964Z" fill="#28303F"/>
</svg>
