<svg width="24" height="24" viewBox="0 0 24 24" fill="none" xmlns="http://www.w3.org/2000/svg">
<path opacity="0.4" d="M2 8C2 5.79086 3.79086 4 6 4H18C20.2091 4 22 5.79086 22 8V16C22 18.2091 20.2091 20 18 20H6C3.79086 20 2 18.2091 2 16V8Z" fill="#28303F"/>
<circle r="1" transform="matrix(1 0 0 -1 6 8)" fill="#28303F"/>
<circle r="2" transform="matrix(1 0 0 -1 12 12)" fill="#28303F"/>
<path fill-rule="evenodd" clip-rule="evenodd" d="M22.4939 15.4356C22.8056 15.7083 22.8372 16.1822 22.5645 16.4939L19.6946 19.7738C19.0779 20.4786 18.0156 20.5729 17.2843 19.9879L15.5315 18.5857C15.2081 18.3269 15.1556 17.8549 15.4144 17.5315C15.6731 17.208 16.1451 17.1556 16.4685 17.4144L18.2214 18.8166C18.3258 18.9002 18.4776 18.8867 18.5657 18.786L21.4356 15.5061C21.7084 15.1944 22.1822 15.1628 22.4939 15.4356Z" fill="#28303F"/>
</svg>
