<svg width="24" height="24" viewBox="0 0 24 24" fill="none" xmlns="http://www.w3.org/2000/svg">
<path opacity="0.4" d="M4 12C4 10.8954 4.89543 10 6 10H15C16.1046 10 17 10.8954 17 12V12C17 13.1046 16.1046 14 15 14H6C4.89543 14 4 13.1046 4 12V12Z" fill="#28303F"/>
<path d="M15 14H6.16667C4.97005 14 4 14.8954 4 16C4 17.1046 4.97005 18 6.16667 18H15C16.1046 18 17 17.1046 17 16C17 14.8954 16.1046 14 15 14Z" fill="#28303F"/>
<path opacity="0.4" d="M20 18C20 15.7909 18.2091 14 16 14C15.8007 14 15.6047 14.0146 15.4132 14.0427C13.4823 14.3266 12 15.9902 12 18C12 20.2091 13.7909 22 16 22C18.2091 22 20 20.2091 20 18Z" fill="#28303F"/>
<path fill-rule="evenodd" clip-rule="evenodd" d="M11.25 3.39645L10.5303 4.11612C10.2374 4.40901 9.76256 4.40901 9.46967 4.11612C9.17678 3.82322 9.17678 3.34835 9.46967 3.05546L10.7626 1.76256C11.446 1.07915 12.554 1.07914 13.2374 1.76256L14.5303 3.05546C14.8232 3.34835 14.8232 3.82322 14.5303 4.11612C14.2374 4.40901 13.7626 4.40901 13.4697 4.11612L12.75 3.39645L12.75 7C12.75 7.41421 12.4142 7.75 12 7.75C11.5858 7.75 11.25 7.41421 11.25 7L11.25 3.39645Z" fill="#28303F"/>
</svg>
