<svg width="24" height="24" viewBox="0 0 24 24" fill="none" xmlns="http://www.w3.org/2000/svg">
<path opacity="0.4" fill-rule="evenodd" clip-rule="evenodd" d="M12 5.75C12.4142 5.75 12.75 6.08579 12.75 6.5V7.35352C13.9043 7.67998 14.75 8.74122 14.75 10C14.75 10.4142 14.4142 10.75 14 10.75C13.5858 10.75 13.25 10.4142 13.25 10C13.25 9.30964 12.6904 8.75 12 8.75C11.3096 8.75 10.75 9.30964 10.75 10C10.75 10.6904 11.3096 11.25 12 11.25C13.5188 11.25 14.75 12.4812 14.75 14C14.75 15.2588 13.9043 16.32 12.75 16.6465V17.5C12.75 17.9142 12.4142 18.25 12 18.25C11.5858 18.25 11.25 17.9142 11.25 17.5V16.6465C10.0957 16.32 9.25 15.2588 9.25 14C9.25 13.5858 9.58579 13.25 10 13.25C10.4142 13.25 10.75 13.5858 10.75 14C10.75 14.6904 11.3096 15.25 12 15.25C12.6904 15.25 13.25 14.6904 13.25 14C13.25 13.3096 12.6904 12.75 12 12.75C10.4812 12.75 9.25 11.5188 9.25 10C9.25 8.74122 10.0957 7.67998 11.25 7.35352V6.5C11.25 6.08579 11.5858 5.75 12 5.75Z" fill="#28303F"/>
<path fill-rule="evenodd" clip-rule="evenodd" d="M3.88623 8.71859C5.18371 5.51328 8.32661 3.25 11.9999 3.25C16.3508 3.25 19.9599 6.42553 20.6362 10.5853L21.5499 9.9C21.8813 9.65147 22.3514 9.71863 22.5999 10.05C22.8484 10.3814 22.7813 10.8515 22.4499 11.1L21.4388 11.8584C20.6055 12.4833 19.4906 12.5839 18.5589 12.118L17.6645 11.6708C17.294 11.4856 17.1439 11.0351 17.3291 10.6646C17.5143 10.2941 17.9648 10.1439 18.3353 10.3292L19.1393 10.7311C18.5393 7.33207 15.5711 4.75 11.9999 4.75C8.95848 4.75 6.35272 6.62306 5.27664 9.28141C5.12122 9.66536 4.68398 9.85062 4.30003 9.6952C3.91608 9.53978 3.73081 9.10254 3.88623 8.71859ZM3.32872 13.1794C3.29531 13.1926 3.26229 13.2073 3.22976 13.2236L2.33533 13.6708C1.96485 13.8561 1.51434 13.7059 1.3291 13.3354C1.14386 12.9649 1.29403 12.5144 1.66451 12.3292L2.55894 11.882C3.49059 11.4161 4.60548 11.5167 5.43877 12.1416L6.44992 12.9C6.78129 13.1485 6.84845 13.6186 6.59992 13.95C6.35139 14.2814 5.88129 14.3485 5.54992 14.1L4.93611 13.6396C5.67922 16.8539 8.55975 19.25 11.9999 19.25C15.0414 19.25 17.6471 17.3769 18.7232 14.7186C18.8786 14.3346 19.3159 14.1494 19.6998 14.3048C20.0838 14.4602 20.269 14.8975 20.1136 15.2814C18.8161 18.4867 15.6732 20.75 11.9999 20.75C7.56738 20.75 3.90465 17.4541 3.32872 13.1794Z" fill="#28303F"/>
</svg>
