<svg width="24" height="24" viewBox="0 0 24 24" fill="none" xmlns="http://www.w3.org/2000/svg">
<path opacity="0.4" d="M2 6C2 3.79086 3.79086 2 6 2H18C20.2091 2 22 3.79086 22 6V18C22 20.2091 20.2091 22 18 22H6C3.79086 22 2 20.2091 2 18V6Z" fill="#28303F"/>
<path fill-rule="evenodd" clip-rule="evenodd" d="M12 5.25C12.4142 5.25 12.75 5.58579 12.75 6V7.30888C13.8016 7.47568 14.7383 7.9876 15.4404 8.72495L16.9551 7.85048C17.3138 7.64337 17.7725 7.76628 17.9796 8.125C18.1867 8.48372 18.0638 8.94241 17.7051 9.14952L16.2931 9.96472C16.5861 10.5816 16.75 11.2717 16.75 12C16.75 12.7283 16.5861 13.4184 16.2931 14.0352L17.7051 14.8504C18.0638 15.0575 18.1867 15.5162 17.9796 15.8749C17.7725 16.2337 17.3138 16.3566 16.9551 16.1495L15.4405 15.275C14.7384 16.0124 13.8016 16.5243 12.75 16.6911V18C12.75 18.4142 12.4142 18.75 12 18.75C11.5858 18.75 11.25 18.4142 11.25 18V16.6911C10.1984 16.5243 9.26163 16.0124 8.55951 15.275L7.0448 16.1495C6.68608 16.3566 6.22739 16.2337 6.02028 15.875C5.81318 15.5163 5.93608 15.0576 6.2948 14.8505L7.70687 14.0352C7.41392 13.4184 7.25 12.7283 7.25 12C7.25 11.2717 7.41392 10.5816 7.70689 9.96473L6.2948 9.14946C5.93608 8.94235 5.81318 8.48366 6.02028 8.12494C6.22739 7.76622 6.68608 7.64331 7.0448 7.85042L8.55955 8.72496C9.26167 7.98761 10.1984 7.47568 11.25 7.30888V6C11.25 5.58579 11.5858 5.25 12 5.25ZM12 8.75C10.2051 8.75 8.75 10.2051 8.75 12C8.75 13.7949 10.2051 15.25 12 15.25C13.7949 15.25 15.25 13.7949 15.25 12C15.25 10.2051 13.7949 8.75 12 8.75Z" fill="#28303F"/>
</svg>
