<svg width="24" height="24" viewBox="0 0 24 24" fill="none" xmlns="http://www.w3.org/2000/svg">
<path opacity="0.4" d="M10.3754 2.7222L5.37758 4.94345C3.93196 5.58595 2.97797 7.02479 3.06996 8.60408C3.42959 14.7783 5.23764 17.4964 9.93576 20.6771C11.1804 21.5197 12.8209 21.5218 14.0646 20.6778C18.7772 17.4798 20.5205 14.7233 20.9117 8.62547C21.0137 7.03574 20.0582 5.58162 18.6025 4.93464L13.6245 2.72219C12.5903 2.26252 11.4097 2.26252 10.3754 2.7222Z" fill="#28303F"/>
<path fill-rule="evenodd" clip-rule="evenodd" d="M15.4939 9.43558C15.8056 9.70834 15.8372 10.1822 15.5645 10.4939L12.6946 13.7738C12.0779 14.4786 11.0156 14.5729 10.2843 13.9879L8.53151 12.5857C8.20806 12.3269 8.15562 11.8549 8.41438 11.5315C8.67313 11.208 9.1451 11.1556 9.46855 11.4144L11.2214 12.8166C11.3258 12.9002 11.4776 12.8867 11.5657 12.786L14.4356 9.50613C14.7084 9.1944 15.1822 9.16282 15.4939 9.43558Z" fill="#28303F"/>
</svg>
