<svg width="24" height="24" viewBox="0 0 24 24" fill="none" xmlns="http://www.w3.org/2000/svg">
<path opacity="0.4" d="M2 4C2 2.89543 2.89543 2 4 2H12C13.1046 2 14 2.89543 14 4V8C14 9.10457 13.1046 10 12 10H4C2.89543 10 2 9.10457 2 8V4Z" fill="#28303F"/>
<path opacity="0.4" d="M10 16C10 14.8954 10.8954 14 12 14H20C21.1046 14 22 14.8954 22 16V20C22 21.1046 21.1046 22 20 22H12C10.8954 22 10 21.1046 10 20V16Z" fill="#28303F"/>
<path fill-rule="evenodd" clip-rule="evenodd" d="M20.6036 6.75L19.8839 7.46967C19.591 7.76256 19.591 8.23744 19.8839 8.53033C20.1768 8.82322 20.6517 8.82322 20.9445 8.53033L22.2374 7.23744C22.9209 6.55402 22.9209 5.44598 22.2374 4.76256L20.9445 3.46967C20.6517 3.17678 20.1768 3.17678 19.8839 3.46967C19.591 3.76256 19.591 4.23744 19.8839 4.53033L20.6036 5.25L16 5.25C15.5858 5.25 15.25 5.58579 15.25 6C15.25 6.41421 15.5858 6.75 16 6.75L20.6036 6.75Z" fill="#28303F"/>
<path fill-rule="evenodd" clip-rule="evenodd" d="M3.39645 18.75L4.11612 19.4697C4.40901 19.7626 4.40901 20.2374 4.11612 20.5303C3.82322 20.8232 3.34835 20.8232 3.05546 20.5303L1.76256 19.2374C1.07915 18.554 1.07914 17.446 1.76256 16.7626L3.05546 15.4697C3.34835 15.1768 3.82322 15.1768 4.11612 15.4697C4.40901 15.7626 4.40901 16.2374 4.11612 16.5303L3.39645 17.25L8 17.25C8.41421 17.25 8.75 17.5858 8.75 18C8.75 18.4142 8.41421 18.75 8 18.75L3.39645 18.75Z" fill="#28303F"/>
</svg>
