<svg width="24" height="24" viewBox="0 0 24 24" fill="none" xmlns="http://www.w3.org/2000/svg">
<path opacity="0.4" fill-rule="evenodd" clip-rule="evenodd" d="M10 21.25C10.6904 21.25 11.25 20.6904 11.25 20V12C11.25 11.5858 11.5858 11.25 12 11.25C12.4142 11.25 12.75 11.5858 12.75 12V20C12.75 21.5188 11.5188 22.75 10 22.75C8.48122 22.75 7.25 21.5188 7.25 20C7.25 19.5858 7.58579 19.25 8 19.25C8.41421 19.25 8.75 19.5858 8.75 20C8.75 20.6904 9.30964 21.25 10 21.25Z" fill="#28303F"/>
<path opacity="0.4" d="M12 2C16.3081 2 20.6605 5.77825 21.744 10.0217C22.0173 11.0919 21.1045 12 20 12H3.99997C2.8954 12 1.98262 11.0919 2.2559 10.0217C3.33944 5.77825 7.69182 2 12 2Z" fill="#28303F"/>
<path d="M12 2C14.2091 2 16 6.47715 16 12H8C8 6.47715 9.79086 2 12 2Z" fill="#28303F"/>
</svg>
