<svg width="24" height="24" viewBox="0 0 24 24" fill="none" xmlns="http://www.w3.org/2000/svg">
<path opacity="0.4" d="M22 7C22 4.79086 20.2091 3 18 3H6C3.79086 3 2 4.79086 2 7V17C2 19.2091 3.79086 21 6 21H18C20.2091 21 22 19.2091 22 17V7Z" fill="#28303F"/>
<path d="M8 12C8 10.3431 6.65685 9 5 9H2V15H5C6.65685 15 8 13.6569 8 12V12Z" fill="#28303F"/>
<path fill-rule="evenodd" clip-rule="evenodd" d="M19.25 19.6036L18.5303 18.8839C18.2374 18.591 17.7626 18.591 17.4697 18.8839C17.1768 19.1768 17.1768 19.6517 17.4697 19.9445L18.7626 21.2374C19.446 21.9209 20.554 21.9209 21.2374 21.2374L22.5303 19.9445C22.8232 19.6517 22.8232 19.1768 22.5303 18.8839C22.2374 18.591 21.7626 18.591 21.4697 18.8839L20.75 19.6036V15C20.75 14.5858 20.4142 14.25 20 14.25C19.5858 14.25 19.25 14.5858 19.25 15V19.6036Z" fill="#28303F"/>
</svg>
