<svg width="24" height="24" viewBox="0 0 24 24" fill="none" xmlns="http://www.w3.org/2000/svg">
<path opacity="0.4" d="M22 7C22 4.79086 20.2091 3 18 3H6C3.79086 3 2 4.79086 2 7V17C2 19.2091 3.79086 21 6 21H18C20.2091 21 22 19.2091 22 17V7Z" fill="#28303F"/>
<path d="M8 12C8 10.3431 6.65685 9 5 9H2V15H5C6.65685 15 8 13.6569 8 12V12Z" fill="#28303F"/>
<path fill-rule="evenodd" clip-rule="evenodd" d="M21.75 18C21.75 18.4142 21.4142 18.75 21 18.75L15 18.75C14.5858 18.75 14.25 18.4142 14.25 18C14.25 17.5858 14.5858 17.25 15 17.25L21 17.25C21.4142 17.25 21.75 17.5858 21.75 18Z" fill="#28303F"/>
</svg>
