<svg width="24" height="24" viewBox="0 0 24 24" fill="none" xmlns="http://www.w3.org/2000/svg">
<path opacity="0.4" d="M22 6H6C3.79086 6 2 7.79086 2 10V18C2 20.2091 3.79086 22 6 22H18C20.2091 22 22 20.2091 22 18V6Z" fill="#28303F"/>
<path d="M22 6C22 3.79086 20.2091 2 18 2H12C9.79086 2 8 3.79086 8 6H22Z" fill="#28303F"/>
<path d="M2 12L2 16L6 16C7.10457 16 8 15.1046 8 14V14C8 12.8954 7.10457 12 6 12L2 12Z" fill="#28303F"/>
<path fill-rule="evenodd" clip-rule="evenodd" d="M22.75 18C22.75 18.4142 22.4142 18.75 22 18.75L16 18.75C15.5858 18.75 15.25 18.4142 15.25 18C15.25 17.5858 15.5858 17.25 16 17.25L22 17.25C22.4142 17.25 22.75 17.5858 22.75 18Z" fill="#28303F"/>
</svg>
