<svg width="24" height="24" viewBox="0 0 24 24" fill="none" xmlns="http://www.w3.org/2000/svg">
<path opacity="0.4" d="M22 7C22 4.79086 20.2091 3 18 3H6C3.79086 3 2 4.79086 2 7V17C2 19.2091 3.79086 21 6 21H18C20.2091 21 22 19.2091 22 17V7Z" fill="#28303F"/>
<path d="M8 12C8 10.3431 6.65685 9 5 9H2V15H5C6.65685 15 8 13.6569 8 12V12Z" fill="#28303F"/>
<path fill-rule="evenodd" clip-rule="evenodd" d="M22.0303 16.227C22.3232 16.5199 22.3232 16.9948 22.0303 17.2877L20.4393 18.8787L22.0303 20.4697C22.3232 20.7626 22.3232 21.2374 22.0303 21.5303C21.7374 21.8232 21.2625 21.8232 20.9696 21.5303L19.3786 19.9393L17.7877 21.5303C17.4948 21.8232 17.0199 21.8232 16.727 21.5303C16.4341 21.2374 16.4341 20.7625 16.727 20.4696L18.318 18.8787L16.727 17.2877C16.4341 16.9948 16.4341 16.5199 16.727 16.227C17.0199 15.9341 17.4948 15.9341 17.7877 16.227L19.3786 17.818L20.9696 16.227C21.2625 15.9341 21.7374 15.9341 22.0303 16.227Z" fill="#28303F"/>
</svg>
