<svg width="24" height="24" viewBox="0 0 24 24" fill="none" xmlns="http://www.w3.org/2000/svg">
<path opacity="0.4" d="M22 6H6C3.79086 6 2 7.79086 2 10V18C2 20.2091 3.79086 22 6 22H18C20.2091 22 22 20.2091 22 18V6Z" fill="#28303F"/>
<path d="M22 6C22 3.79086 20.2091 2 18 2H12C9.79086 2 8 3.79086 8 6H22Z" fill="#28303F"/>
<path d="M2 12L2 16L6 16C7.10457 16 8 15.1046 8 14V14C8 12.8954 7.10457 12 6 12L2 12Z" fill="#28303F"/>
<circle r="2" transform="matrix(1 0 0 -1 19 17)" fill="#28303F"/>
<path d="M19 19C20.2819 19 21.4012 19.8044 22 21C22 21.5523 21.5523 22 21 22H17C16.4477 22 16 21.5523 16 21C16.5988 19.8044 17.7181 19 19 19Z" fill="#28303F"/>
</svg>
