<svg width="24" height="24" viewBox="0 0 24 24" fill="none" xmlns="http://www.w3.org/2000/svg">
<path opacity="0.4" d="M22 6H6C3.79086 6 2 7.79086 2 10V18C2 20.2091 3.79086 22 6 22H18C20.2091 22 22 20.2091 22 18V6Z" fill="#28303F"/>
<path d="M22 6C22 3.79086 20.2091 2 18 2H12C9.79086 2 8 3.79086 8 6H22Z" fill="#28303F"/>
<path d="M2 12L2 16L6 16C7.10457 16 8 15.1046 8 14V14C8 12.8954 7.10457 12 6 12L2 12Z" fill="#28303F"/>
<path fill-rule="evenodd" clip-rule="evenodd" d="M20.6036 19.25L19.8839 18.5303C19.591 18.2374 19.591 17.7626 19.8839 17.4697C20.1768 17.1768 20.6517 17.1768 20.9445 17.4697L22.2374 18.7626C22.9209 19.446 22.9209 20.554 22.2374 21.2374L20.9445 22.5303C20.6517 22.8232 20.1768 22.8232 19.8839 22.5303C19.591 22.2374 19.591 21.7626 19.8839 21.4697L20.6036 20.75L16 20.75C15.5858 20.75 15.25 20.4142 15.25 20C15.25 19.5858 15.5858 19.25 16 19.25L20.6036 19.25Z" fill="#28303F"/>
</svg>
