<svg width="24" height="24" viewBox="0 0 24 24" fill="none" xmlns="http://www.w3.org/2000/svg">
<path opacity="0.4" d="M22 7C22 4.79086 20.2091 3 18 3H6C3.79086 3 2 4.79086 2 7V17C2 19.2091 3.79086 21 6 21H18C20.2091 21 22 19.2091 22 17V7Z" fill="#28303F"/>
<path d="M8 12C8 10.3431 6.65685 9 5 9H2V15H5C6.65685 15 8 13.6569 8 12V12Z" fill="#28303F"/>
<path fill-rule="evenodd" clip-rule="evenodd" d="M19.25 16.3964L18.5303 17.1161C18.2374 17.409 17.7626 17.409 17.4697 17.1161C17.1768 16.8232 17.1768 16.3483 17.4697 16.0555L18.7626 14.7626C19.446 14.0791 20.554 14.0791 21.2374 14.7626L22.5303 16.0555C22.8232 16.3483 22.8232 16.8232 22.5303 17.1161C22.2374 17.409 21.7626 17.409 21.4697 17.1161L20.75 16.3964V21C20.75 21.4142 20.4142 21.75 20 21.75C19.5858 21.75 19.25 21.4142 19.25 21V16.3964Z" fill="#28303F"/>
</svg>
