<svg width="24" height="24" viewBox="0 0 24 24" fill="none" xmlns="http://www.w3.org/2000/svg">
<path opacity="0.4" d="M22 6H6C3.79086 6 2 7.79086 2 10V18C2 20.2091 3.79086 22 6 22H18C20.2091 22 22 20.2091 22 18V6Z" fill="#28303F"/>
<path d="M22 6C22 3.79086 20.2091 2 18 2H12C9.79086 2 8 3.79086 8 6H22Z" fill="#28303F"/>
<path d="M2 12L2 16L6 16C7.10457 16 8 15.1046 8 14V14C8 12.8954 7.10457 12 6 12L2 12Z" fill="#28303F"/>
<path fill-rule="evenodd" clip-rule="evenodd" d="M17.3964 19.25L18.1161 18.5303C18.409 18.2374 18.409 17.7626 18.1161 17.4697C17.8232 17.1768 17.3483 17.1768 17.0555 17.4697L15.7626 18.7626C15.0791 19.446 15.0791 20.554 15.7626 21.2374L17.0555 22.5303C17.3483 22.8232 17.8232 22.8232 18.1161 22.5303C18.409 22.2374 18.409 21.7626 18.1161 21.4697L17.3964 20.75L22 20.75C22.4142 20.75 22.75 20.4142 22.75 20C22.75 19.5858 22.4142 19.25 22 19.25L17.3964 19.25Z" fill="#28303F"/>
</svg>
