<svg width="24" height="24" viewBox="0 0 24 24" fill="none" xmlns="http://www.w3.org/2000/svg">
<path opacity="0.4" d="M22 6H6C3.79086 6 2 7.79086 2 10V18C2 20.2091 3.79086 22 6 22H18C20.2091 22 22 20.2091 22 18V6Z" fill="#28303F"/>
<path d="M22 6C22 3.79086 20.2091 2 18 2H12C9.79086 2 8 3.79086 8 6H22Z" fill="#28303F"/>
<path d="M2 12L2 16L6 16C7.10457 16 8 15.1046 8 14V14C8 12.8954 7.10457 12 6 12L2 12Z" fill="#28303F"/>
<path fill-rule="evenodd" clip-rule="evenodd" d="M22.0303 17.227C22.3232 17.5199 22.3232 17.9948 22.0303 18.2877L20.4393 19.8787L22.0303 21.4697C22.3232 21.7626 22.3232 22.2374 22.0303 22.5303C21.7374 22.8232 21.2625 22.8232 20.9696 22.5303L19.3786 20.9393L17.7877 22.5303C17.4948 22.8232 17.0199 22.8232 16.727 22.5303C16.4341 22.2374 16.4341 21.7625 16.727 21.4696L18.318 19.8787L16.727 18.2877C16.4341 17.9948 16.4341 17.5199 16.727 17.227C17.0199 16.9341 17.4948 16.9341 17.7877 17.227L19.3786 18.818L20.9696 17.227C21.2625 16.9341 21.7374 16.9341 22.0303 17.227Z" fill="#28303F"/>
</svg>
