<svg width="24" height="24" viewBox="0 0 24 24" fill="none" xmlns="http://www.w3.org/2000/svg">
<path opacity="0.4" d="M22 7C22 4.79086 20.2091 3 18 3H6C3.79086 3 2 4.79086 2 7V17C2 19.2091 3.79086 21 6 21H18C20.2091 21 22 19.2091 22 17V7Z" fill="#28303F"/>
<path d="M8 12C8 10.3431 6.65685 9 5 9H2V15H5C6.65685 15 8 13.6569 8 12V12Z" fill="#28303F"/>
<circle r="2" transform="matrix(1 0 0 -1 19 16)" fill="#28303F"/>
<path d="M19 18C20.2819 18 21.4012 18.8044 22 20C22 20.5523 21.5523 21 21 21H17C16.4477 21 16 20.5523 16 20C16.5988 18.8044 17.7181 18 19 18Z" fill="#28303F"/>
</svg>
