<svg width="24" height="24" viewBox="0 0 24 24" fill="none" xmlns="http://www.w3.org/2000/svg">
<path opacity="0.4" d="M22 7C22 4.79086 20.2091 3 18 3H6C3.79086 3 2 4.79086 2 7V17C2 19.2091 3.79086 21 6 21H18C20.2091 21 22 19.2091 22 17V7Z" fill="#28303F"/>
<path d="M8 12C8 10.3431 6.65685 9 5 9H2V15H5C6.65685 15 8 13.6569 8 12V12Z" fill="#28303F"/>
<path fill-rule="evenodd" clip-rule="evenodd" d="M20.6036 18.25L19.8839 17.5303C19.591 17.2374 19.591 16.7626 19.8839 16.4697C20.1768 16.1768 20.6517 16.1768 20.9445 16.4697L22.2374 17.7626C22.9209 18.446 22.9209 19.554 22.2374 20.2374L20.9445 21.5303C20.6517 21.8232 20.1768 21.8232 19.8839 21.5303C19.591 21.2374 19.591 20.7626 19.8839 20.4697L20.6036 19.75L16 19.75C15.5858 19.75 15.25 19.4142 15.25 19C15.25 18.5858 15.5858 18.25 16 18.25L20.6036 18.25Z" fill="#28303F"/>
</svg>
