<svg width="24" height="24" viewBox="0 0 24 24" fill="none" xmlns="http://www.w3.org/2000/svg">
<path d="M18 3H6C3.79086 3 2 4.79086 2 7C2 9.20914 3.79086 11 6 11L18 11C20.2091 11 22 9.20914 22 7C22 4.79086 20.2091 3 18 3Z" fill="#28303F"/>
<path opacity="0.4" d="M18 19L18 7H6V19C6 20.1046 6.89543 21 8 21H16C17.1046 21 18 20.1046 18 19Z" fill="#28303F"/>
<path fill-rule="evenodd" clip-rule="evenodd" d="M11.25 15.1895L10.5303 14.4698C10.2374 14.1769 9.76256 14.1769 9.46967 14.4698C9.17678 14.7627 9.17678 15.2376 9.46967 15.5305L10.7626 16.8234C11.446 17.5068 12.554 17.5068 13.2374 16.8234L14.5303 15.5305C14.8232 15.2376 14.8232 14.7627 14.5303 14.4698C14.2374 14.1769 13.7626 14.1769 13.4697 14.4698L12.75 15.1895V11.0002C12.75 10.5859 12.4142 10.2502 12 10.2502C11.5858 10.2502 11.25 10.5859 11.25 11.0002V15.1895Z" fill="#28303F"/>
</svg>
