<svg width="24" height="24" viewBox="0 0 24 24" fill="none" xmlns="http://www.w3.org/2000/svg">
<path d="M12 8L16 12M16 12L12 16M16 12H2" stroke="#28303F" stroke-width="1.5" stroke-linecap="round" stroke-linejoin="round"/>
<path d="M8.5309 18.8306C8.20771 18.5715 8.15574 18.0995 8.41481 17.7763C8.67389 17.4531 9.14591 17.4011 9.4691 17.6602L8.5309 18.8306ZM9.4691 6.33981C9.14591 6.59889 8.67389 6.54692 8.41481 6.22373C8.15574 5.90054 8.20771 5.42852 8.5309 5.16944L9.4691 6.33981ZM14 19.25C18.0041 19.25 21.25 16.0041 21.25 12L22.75 12C22.75 16.8325 18.8325 20.75 14 20.75L14 19.25ZM21.25 12C21.25 7.99593 18.0041 4.75 14 4.75L14 3.25C18.8325 3.25 22.75 7.16751 22.75 12L21.25 12ZM9.4691 17.6602C10.7104 18.6553 12.2847 19.25 14 19.25L14 20.75C11.9315 20.75 10.0288 20.0313 8.5309 18.8306L9.4691 17.6602ZM14 4.75C12.2847 4.75 10.7104 5.34472 9.4691 6.33981L8.5309 5.16944C10.0288 3.96871 11.9315 3.25 14 3.25L14 4.75Z" fill="#28303F"/>
</svg>
