<svg width="24" height="24" viewBox="0 0 24 24" fill="none" xmlns="http://www.w3.org/2000/svg">
<path d="M5 8L4.55 8.6C4.36115 8.45836 4.25 8.23607 4.25 8C4.25 7.76393 4.36115 7.54164 4.55 7.4L5 8ZM5 16.75C4.58579 16.75 4.25 16.4142 4.25 16C4.25 15.5858 4.58579 15.25 5 15.25V16.75ZM8.55 4.4C8.88137 4.15147 9.35147 4.21863 9.6 4.55C9.84853 4.88137 9.78137 5.35147 9.45 5.6L8.55 4.4ZM9.45 10.4C9.78137 10.6485 9.84853 11.1186 9.6 11.45C9.35147 11.7814 8.88137 11.8485 8.55 11.6L9.45 10.4ZM5 7.25H15V8.75H5V7.25ZM15 16.75H5V15.25H15V16.75ZM4.55 7.4L8.55 4.4L9.45 5.6L5.45 8.6L4.55 7.4ZM5.45 7.4L9.45 10.4L8.55 11.6L4.55 8.6L5.45 7.4ZM19.75 12C19.75 14.6234 17.6234 16.75 15 16.75V15.25C16.7949 15.25 18.25 13.7949 18.25 12H19.75ZM15 7.25C17.6234 7.25 19.75 9.37665 19.75 12H18.25C18.25 10.2051 16.7949 8.75 15 8.75V7.25Z" fill="#28303F"/>
</svg>
