<svg width="24" height="24" viewBox="0 0 24 24" fill="none" xmlns="http://www.w3.org/2000/svg">
<path d="M19 8L19.45 8.6C19.6389 8.45836 19.75 8.23607 19.75 8C19.75 7.76393 19.6389 7.54164 19.45 7.4L19 8ZM19 16.75C19.4142 16.75 19.75 16.4142 19.75 16C19.75 15.5858 19.4142 15.25 19 15.25V16.75ZM15.45 4.4C15.1186 4.15147 14.6485 4.21863 14.4 4.55C14.1515 4.88137 14.2186 5.35147 14.55 5.6L15.45 4.4ZM14.55 10.4C14.2186 10.6485 14.1515 11.1186 14.4 11.45C14.6485 11.7814 15.1186 11.8485 15.45 11.6L14.55 10.4ZM19 7.25H9V8.75H19V7.25ZM9 16.75H19V15.25H9V16.75ZM19.45 7.4L15.45 4.4L14.55 5.6L18.55 8.6L19.45 7.4ZM18.55 7.4L14.55 10.4L15.45 11.6L19.45 8.6L18.55 7.4ZM4.25 12C4.25 14.6234 6.37665 16.75 9 16.75V15.25C7.20507 15.25 5.75 13.7949 5.75 12H4.25ZM9 7.25C6.37665 7.25 4.25 9.37665 4.25 12H5.75C5.75 10.2051 7.20507 8.75 9 8.75V7.25Z" fill="#28303F"/>
</svg>
