<svg width="24" height="24" viewBox="0 0 24 24" fill="none" xmlns="http://www.w3.org/2000/svg">
<circle cx="12" cy="12" r="10" stroke="#28303F" stroke-width="1.5"/>
<path d="M14.5303 7.46967C14.2374 7.17678 13.7626 7.17678 13.4697 7.46967C13.1768 7.76256 13.1768 8.23744 13.4697 8.53033L14.5303 7.46967ZM16 10L16 10.75C16.3033 10.75 16.5768 10.5673 16.6929 10.287C16.809 10.0068 16.7448 9.68417 16.5303 9.46967L16 10ZM8 9.25C7.58579 9.25 7.25 9.58579 7.25 10C7.25 10.4142 7.58579 10.75 8 10.75L8 9.25ZM13.4697 8.53033L15.4697 10.5303L16.5303 9.46967L14.5303 7.46967L13.4697 8.53033ZM16 9.25L8 9.25L8 10.75L16 10.75L16 9.25Z" fill="#28303F"/>
<path d="M9.46967 16.5303C9.76256 16.8232 10.2374 16.8232 10.5303 16.5303C10.8232 16.2374 10.8232 15.7626 10.5303 15.4697L9.46967 16.5303ZM8 14L8 13.25C7.69665 13.25 7.42318 13.4327 7.30709 13.713C7.191 13.9932 7.25517 14.3158 7.46967 14.5303L8 14ZM16 14.75C16.4142 14.75 16.75 14.4142 16.75 14C16.75 13.5858 16.4142 13.25 16 13.25L16 14.75ZM10.5303 15.4697L8.53033 13.4697L7.46967 14.5303L9.46967 16.5303L10.5303 15.4697ZM8 14.75L16 14.75L16 13.25L8 13.25L8 14.75Z" fill="#28303F"/>
</svg>
