<svg width="24" height="24" viewBox="0 0 24 24" fill="none" xmlns="http://www.w3.org/2000/svg">
<circle cx="12" cy="12" r="10" stroke="#28303F" stroke-width="1.5"/>
<path d="M9.46967 6.46967C9.76256 6.17678 10.2374 6.17678 10.5303 6.46967C10.8232 6.76256 10.8232 7.23744 10.5303 7.53033L9.46967 6.46967ZM8 9L7.46967 9.53033C7.17678 9.23744 7.17678 8.76256 7.46967 8.46967L8 9ZM10.5303 10.4697C10.8232 10.7626 10.8232 11.2374 10.5303 11.5303C10.2374 11.8232 9.76256 11.8232 9.46967 11.5303L10.5303 10.4697ZM8 15.75C7.58579 15.75 7.25 15.4142 7.25 15C7.25 14.5858 7.58579 14.25 8 14.25V15.75ZM10.5303 7.53033L8.53033 9.53033L7.46967 8.46967L9.46967 6.46967L10.5303 7.53033ZM8.53033 8.46967L10.5303 10.4697L9.46967 11.5303L7.46967 9.53033L8.53033 8.46967ZM8 8.25H13V9.75H8V8.25ZM13 15.75H8V14.25H13V15.75ZM16.75 12C16.75 14.0711 15.0711 15.75 13 15.75V14.25C14.2426 14.25 15.25 13.2426 15.25 12H16.75ZM13 8.25C15.0711 8.25 16.75 9.92893 16.75 12H15.25C15.25 10.7574 14.2426 9.75 13 9.75V8.25Z" fill="#28303F"/>
</svg>
