<svg width="24" height="24" viewBox="0 0 24 24" fill="none" xmlns="http://www.w3.org/2000/svg">
<path d="M6 2H18C20.2091 2 22 3.79086 22 6V18C22 20.2091 20.2091 22 18 22H6C3.79086 22 2 20.2091 2 18V6C2 3.79086 3.79086 2 6 2Z" stroke="#28303F" stroke-width="1.5" stroke-linecap="round" stroke-linejoin="round"/>
<path d="M14.5303 6.46967C14.2374 6.17678 13.7626 6.17678 13.4697 6.46967C13.1768 6.76256 13.1768 7.23744 13.4697 7.53033L14.5303 6.46967ZM16 9L16.5303 9.53033C16.8232 9.23744 16.8232 8.76256 16.5303 8.46967L16 9ZM13.4697 10.4697C13.1768 10.7626 13.1768 11.2374 13.4697 11.5303C13.7626 11.8232 14.2374 11.8232 14.5303 11.5303L13.4697 10.4697ZM16 15.75C16.4142 15.75 16.75 15.4142 16.75 15C16.75 14.5858 16.4142 14.25 16 14.25V15.75ZM13.4697 7.53033L15.4697 9.53033L16.5303 8.46967L14.5303 6.46967L13.4697 7.53033ZM15.4697 8.46967L13.4697 10.4697L14.5303 11.5303L16.5303 9.53033L15.4697 8.46967ZM16 8.25H11V9.75H16V8.25ZM11 15.75H16V14.25H11V15.75ZM7.25 12C7.25 14.0711 8.92893 15.75 11 15.75V14.25C9.75736 14.25 8.75 13.2426 8.75 12H7.25ZM11 8.25C8.92893 8.25 7.25 9.92893 7.25 12H8.75C8.75 10.7574 9.75736 9.75 11 9.75V8.25Z" fill="#28303F"/>
</svg>
