<svg width="24" height="24" viewBox="0 0 24 24" fill="none" xmlns="http://www.w3.org/2000/svg">
<path d="M8 11L12 15M12 15L16 11M12 15L12 1" stroke="#28303F" stroke-width="1.5" stroke-linecap="round" stroke-linejoin="round"/>
<path d="M18.8306 7.5309C18.5715 7.20771 18.0995 7.15574 17.7763 7.41481C17.4531 7.67389 17.4011 8.14591 17.6602 8.4691L18.8306 7.5309ZM6.33981 8.4691C6.59889 8.14591 6.54692 7.67389 6.22373 7.41481C5.90054 7.15574 5.42852 7.20771 5.16944 7.5309L6.33981 8.4691ZM19.25 13C19.25 17.0041 16.0041 20.25 12 20.25V21.75C16.8325 21.75 20.75 17.8325 20.75 13H19.25ZM12 20.25C7.99594 20.25 4.75 17.0041 4.75 13H3.25C3.25 17.8325 7.16751 21.75 12 21.75V20.25ZM17.6602 8.4691C18.6553 9.71044 19.25 11.2847 19.25 13H20.75C20.75 10.9315 20.0313 9.02875 18.8306 7.5309L17.6602 8.4691ZM4.75 13C4.75 11.2847 5.34472 9.71044 6.33981 8.4691L5.16944 7.5309C3.96871 9.02875 3.25 10.9315 3.25 13H4.75Z" fill="#28303F"/>
</svg>
