<svg width="24" height="24" viewBox="0 0 24 24" fill="none" xmlns="http://www.w3.org/2000/svg">
<path d="M3.25 13C3.25 13.4142 3.58579 13.75 4 13.75C4.41421 13.75 4.75 13.4142 4.75 13H3.25ZM20 7V7.75C20.3033 7.75 20.5768 7.56727 20.6929 7.28701C20.809 7.00676 20.7448 6.68417 20.5303 6.46967L20 7ZM17.5303 3.46967C17.2374 3.17678 16.7626 3.17678 16.4697 3.46967C16.1768 3.76256 16.1768 4.23744 16.4697 4.53033L17.5303 3.46967ZM4.75 13V12H3.25V13H4.75ZM9 7.75H20V6.25H9V7.75ZM20.5303 6.46967L17.5303 3.46967L16.4697 4.53033L19.4697 7.53033L20.5303 6.46967ZM4.75 12C4.75 9.65279 6.65279 7.75 9 7.75V6.25C5.82436 6.25 3.25 8.82436 3.25 12H4.75Z" fill="#28303F"/>
<path d="M20.75 11C20.75 10.5858 20.4142 10.25 20 10.25C19.5858 10.25 19.25 10.5858 19.25 11H20.75ZM4 17V16.25C3.69665 16.25 3.42318 16.4327 3.30709 16.713C3.191 16.9932 3.25517 17.3158 3.46967 17.5303L4 17ZM6.46967 20.5303C6.76256 20.8232 7.23744 20.8232 7.53033 20.5303C7.82322 20.2374 7.82322 19.7626 7.53033 19.4697L6.46967 20.5303ZM19.25 11V12H20.75V11H19.25ZM15 16.25H4V17.75H15V16.25ZM3.46967 17.5303L6.46967 20.5303L7.53033 19.4697L4.53033 16.4697L3.46967 17.5303ZM19.25 12C19.25 14.3472 17.3472 16.25 15 16.25V17.75C18.1756 17.75 20.75 15.1756 20.75 12H19.25Z" fill="#28303F"/>
</svg>
