<svg width="24" height="24" viewBox="0 0 24 24" fill="none" xmlns="http://www.w3.org/2000/svg">
<path d="M11 9V9.75C10.5858 9.75 10.25 9.41421 10.25 9H11ZM11 15H10.25C10.25 14.5858 10.5858 14.25 11 14.25V15ZM9.3415 17.5488L9.83537 16.9844L9.3415 17.5488ZM9.3415 6.45119L9.83538 7.01562L9.3415 6.45119ZM11 8.25H19V9.75H11V8.25ZM21.75 11V13H20.25V11H21.75ZM19 15.75H11V14.25H19V15.75ZM11.75 15V16.7962H10.25V15H11.75ZM8.84762 18.1132L4.2263 14.0696L5.21405 12.9407L9.83537 16.9844L8.84762 18.1132ZM4.2263 9.93041L8.84762 5.88676L9.83538 7.01562L5.21405 11.0593L4.2263 9.93041ZM11.75 7.20377V9H10.25V7.20377H11.75ZM4.2263 14.0696C2.97414 12.974 2.97415 11.026 4.2263 9.93041L5.21405 11.0593C4.64489 11.5573 4.64489 12.4427 5.21405 12.9407L4.2263 14.0696ZM11.75 16.7962C11.75 18.2998 9.97914 19.1033 8.84762 18.1132L9.83537 16.9844C9.99702 17.1258 10.25 17.011 10.25 16.7962H11.75ZM21.75 13C21.75 14.5188 20.5188 15.75 19 15.75V14.25C19.6904 14.25 20.25 13.6904 20.25 13H21.75ZM8.84762 5.88676C9.97914 4.89668 11.75 5.70024 11.75 7.20377H10.25C10.25 6.98898 9.99702 6.87418 9.83538 7.01562L8.84762 5.88676ZM19 8.25C20.5188 8.25 21.75 9.48122 21.75 11H20.25C20.25 10.3096 19.6904 9.75 19 9.75V8.25Z" fill="#28303F"/>
</svg>
