<svg width="24" height="24" viewBox="0 0 24 24" fill="none" xmlns="http://www.w3.org/2000/svg">
<path d="M20.25 8.99999C20.25 9.41421 20.5858 9.74999 21 9.74999C21.4142 9.74999 21.75 9.41421 21.75 8.99999L20.25 8.99999ZM21 3L21.75 3C21.75 2.58579 21.4142 2.25 21 2.25V3ZM15 2.25C14.5858 2.25 14.25 2.58579 14.25 3C14.25 3.41421 14.5858 3.75 15 3.75V2.25ZM9.46967 13.4697C9.17678 13.7626 9.17678 14.2374 9.46967 14.5303C9.76256 14.8232 10.2374 14.8232 10.5303 14.5303L9.46967 13.4697ZM21.75 8.99999L21.75 3L20.25 3L20.25 8.99999L21.75 8.99999ZM21 2.25L15 2.25V3.75L21 3.75V2.25ZM20.4697 2.46967L9.46967 13.4697L10.5303 14.5303L21.5303 3.53033L20.4697 2.46967Z" fill="#28303F"/>
<path d="M12 5H7C4.79086 5 3 6.79086 3 9V17C3 19.2091 4.79086 21 7 21H15C17.2091 21 19 19.2091 19 17V12" stroke="#28303F" stroke-width="1.5" stroke-linecap="round" stroke-linejoin="round"/>
</svg>
