<svg width="24" height="24" viewBox="0 0 24 24" fill="none" xmlns="http://www.w3.org/2000/svg">
<path d="M16 3H21M21 3V8M21 3L10 14" stroke="#28303F" stroke-width="1.5" stroke-linecap="round" stroke-linejoin="round"/>
<path d="M19.75 13C19.75 12.5858 19.4142 12.25 19 12.25C18.5858 12.25 18.25 12.5858 18.25 13H19.75ZM11 5.75C11.4142 5.75 11.75 5.41421 11.75 5C11.75 4.58579 11.4142 4.25 11 4.25V5.75ZM18.25 13C18.25 17.0041 15.0041 20.25 11 20.25V21.75C15.8325 21.75 19.75 17.8325 19.75 13H18.25ZM11 20.25C6.99594 20.25 3.75 17.0041 3.75 13H2.25C2.25 17.8325 6.16751 21.75 11 21.75V20.25ZM3.75 13C3.75 8.99594 6.99594 5.75 11 5.75V4.25C6.16751 4.25 2.25 8.16751 2.25 13H3.75Z" fill="#28303F"/>
</svg>
