<svg width="24" height="24" viewBox="0 0 24 24" fill="none" xmlns="http://www.w3.org/2000/svg">
<path d="M10.75 8C10.75 7.58579 10.4142 7.25 10 7.25C9.58579 7.25 9.25 7.58579 9.25 8L10.75 8ZM10 14L9.25001 14C9.25001 14.4142 9.58579 14.75 10 14.75V14ZM16 14.75C16.4142 14.75 16.75 14.4142 16.75 14C16.75 13.5858 16.4142 13.25 16 13.25V14.75ZM21.5303 3.53033C21.8232 3.23744 21.8232 2.76256 21.5303 2.46967C21.2374 2.17678 20.7626 2.17678 20.4697 2.46967L21.5303 3.53033ZM9.25 8L9.25001 14L10.75 14L10.75 8L9.25 8ZM10 14.75H16V13.25H10V14.75ZM10.5303 14.5303L21.5303 3.53033L20.4697 2.46967L9.46968 13.4697L10.5303 14.5303Z" fill="#28303F"/>
<path d="M12 5H7C4.79086 5 3 6.79086 3 9V17C3 19.2091 4.79086 21 7 21H15C17.2091 21 19 19.2091 19 17V12" stroke="#28303F" stroke-width="1.5" stroke-linecap="round" stroke-linejoin="round"/>
</svg>
