<svg width="24" height="24" viewBox="0 0 24 24" fill="none" xmlns="http://www.w3.org/2000/svg">
<path d="M6 6V5.25V6ZM18 1.25H16V2.75H18V1.25ZM11.25 6V8H12.75V6H11.25ZM16 12.75H18V11.25H16V12.75ZM22.75 8V6H21.25V8H22.75ZM18 12.75C20.6234 12.75 22.75 10.6234 22.75 8H21.25C21.25 9.79493 19.7949 11.25 18 11.25V12.75ZM11.25 8C11.25 10.6234 13.3766 12.75 16 12.75V11.25C14.2051 11.25 12.75 9.79493 12.75 8H11.25ZM16 1.25C13.3766 1.25 11.25 3.37665 11.25 6H12.75C12.75 4.20507 14.2051 2.75 16 2.75V1.25ZM18 2.75C19.7949 2.75 21.25 4.20507 21.25 6H22.75C22.75 3.37665 20.6234 1.25 18 1.25V2.75ZM1.25 10V18H2.75V10H1.25ZM6 22.75H14V21.25H6V22.75ZM14 22.75C16.6234 22.75 18.75 20.6234 18.75 18H17.25C17.25 19.7949 15.7949 21.25 14 21.25V22.75ZM1.25 18C1.25 20.6234 3.37665 22.75 6 22.75V21.25C4.20507 21.25 2.75 19.7949 2.75 18H1.25ZM6 5.25C3.37665 5.25 1.25 7.37665 1.25 10H2.75C2.75 8.20507 4.20507 6.75 6 6.75V5.25ZM6 6.75L12 6.75V5.25L6 5.25V6.75ZM18.75 18V12H17.25V18H18.75Z" fill="#28303F"/>
<path d="M12 17L7 17M7 17L7 12M7 17L13 11" stroke="#28303F" stroke-width="1.5" stroke-linecap="round" stroke-linejoin="round"/>
</svg>
