<svg width="24" height="24" viewBox="0 0 24 24" fill="none" xmlns="http://www.w3.org/2000/svg">
<path d="M14.0077 17.2454L13.6298 16.5976L14.0077 17.2454ZM20.0385 13.7275L19.6606 13.0797L20.0385 13.7275ZM20.0385 10.2724L20.4164 9.62455L20.0385 10.2724ZM14.0077 6.75446L13.6298 7.40229L14.0077 6.75446ZM6.00774 17.2454L5.62984 16.5976L6.00774 17.2454ZM6.00774 6.75446L5.62984 7.40229L6.00774 6.75446ZM14.3856 17.8933L20.4164 14.3753L19.6606 13.0797L13.6298 16.5976L14.3856 17.8933ZM20.4164 9.62455L14.3856 6.10662L13.6298 7.40229L19.6606 10.9202L20.4164 9.62455ZM20.4164 14.3753C22.2355 13.3142 22.2355 10.6857 20.4164 9.62455L19.6606 10.9202C20.4875 11.4026 20.4874 12.5973 19.6606 13.0797L20.4164 14.3753ZM10.25 15.5179C10.25 17.6403 12.5523 18.9627 14.3856 17.8933L13.6298 16.5976C12.7965 17.0837 11.75 16.4826 11.75 15.5179H10.25ZM11.75 8.48202C11.75 7.51728 12.7965 6.91619 13.6298 7.40229L14.3856 6.10662C12.5523 5.03719 10.25 6.35959 10.25 8.48202H11.75ZM2.25 8.48202V15.5179H3.75V8.48202H2.25ZM2.25 15.5179C2.25 17.6403 4.55234 18.9627 6.38565 17.8933L5.62984 16.5976C4.79652 17.0837 3.75 16.4826 3.75 15.5179H2.25ZM3.75 8.48202C3.75 7.51728 4.79652 6.91619 5.62984 7.40229L6.38564 6.10662C4.55233 5.03719 2.25 6.35959 2.25 8.48202H3.75ZM11.3779 9.01878L6.38564 6.10662L5.62984 7.40229L10.6221 10.3144L11.3779 9.01878ZM10.25 8.48202V9.66661H11.75V8.48202H10.25ZM10.25 9.66661V14.3333H11.75V9.66661H10.25ZM10.25 14.3333V15.5179H11.75V14.3333H10.25ZM6.38565 17.8933L11.3779 14.9811L10.6221 13.6854L5.62984 16.5976L6.38565 17.8933Z" fill="#28303F"/>
</svg>
