<svg width="24" height="24" viewBox="0 0 24 24" fill="none" xmlns="http://www.w3.org/2000/svg">
<path d="M18 8L22 12M22 12L18 16M22 12H8" stroke="#28303F" stroke-width="1.5" stroke-linecap="round" stroke-linejoin="round"/>
<path d="M15.4691 18.8306C15.7923 18.5715 15.8443 18.0995 15.5852 17.7763C15.3261 17.4531 14.8541 17.4011 14.5309 17.6602L15.4691 18.8306ZM14.5309 6.33981C14.8541 6.59889 15.3261 6.54692 15.5852 6.22373C15.8443 5.90054 15.7923 5.42852 15.4691 5.16944L14.5309 6.33981ZM10 19.25C5.99594 19.25 2.75001 16.0041 2.75001 12L1.25001 12C1.25001 16.8325 5.16751 20.75 10 20.75L10 19.25ZM2.75001 12C2.75001 7.99593 5.99594 4.75 10 4.75L10 3.25C5.16751 3.25 1.25001 7.16751 1.25001 12L2.75001 12ZM14.5309 17.6602C13.2896 18.6553 11.7153 19.25 10 19.25L10 20.75C12.0685 20.75 13.9712 20.0313 15.4691 18.8306L14.5309 17.6602ZM10 4.75C11.7153 4.75 13.2896 5.34472 14.5309 6.33981L15.4691 5.16944C13.9712 3.96871 12.0685 3.25 10 3.25L10 4.75Z" fill="#28303F"/>
</svg>
