<svg width="24" height="24" viewBox="0 0 24 24" fill="none" xmlns="http://www.w3.org/2000/svg">
<path d="M10.023 17.2454L10.4009 16.5976L10.023 17.2454ZM3.99229 13.7275L4.37019 13.0797L3.99229 13.7275ZM3.99229 10.2724L3.61439 9.62455L3.99229 10.2724ZM10.023 6.75446L10.4009 7.40229L10.023 6.75446ZM18.023 17.2454L18.4009 16.5976L18.023 17.2454ZM18.023 6.75446L18.4009 7.40229L18.023 6.75446ZM9.64512 17.8933L3.61438 14.3753L4.37019 13.0797L10.4009 16.5976L9.64512 17.8933ZM3.61439 9.62455L9.64512 6.10662L10.4009 7.40229L4.37019 10.9202L3.61439 9.62455ZM3.61438 14.3753C1.79524 13.3142 1.79525 10.6857 3.61439 9.62455L4.37019 10.9202C3.54331 11.4026 3.54331 12.5973 4.37019 13.0797L3.61438 14.3753ZM13.7808 15.5179C13.7808 17.6403 11.4784 18.9627 9.64512 17.8933L10.4009 16.5976C11.2342 17.0837 12.2808 16.4826 12.2808 15.5179H13.7808ZM12.2808 8.48202C12.2808 7.51728 11.2342 6.91619 10.4009 7.40229L9.64512 6.10662C11.4784 5.03719 13.7808 6.35959 13.7808 8.48202H12.2808ZM21.7808 8.48202V15.5179H20.2808V8.48202H21.7808ZM21.7808 15.5179C21.7808 17.6403 19.4784 18.9627 17.6451 17.8933L18.4009 16.5976C19.2342 17.0837 20.2808 16.4826 20.2808 15.5179H21.7808ZM20.2808 8.48202C20.2808 7.51728 19.2342 6.91619 18.4009 7.40229L17.6451 6.10662C19.4784 5.03719 21.7808 6.35959 21.7808 8.48202H20.2808ZM12.6529 9.01878L17.6451 6.10662L18.4009 7.40229L13.4087 10.3144L12.6529 9.01878ZM13.7808 8.48202V9.66661H12.2808V8.48202H13.7808ZM13.7808 9.66661V14.3333H12.2808V9.66661H13.7808ZM13.7808 14.3333V15.5179H12.2808V14.3333H13.7808ZM17.6451 17.8933L12.6529 14.9811L13.4087 13.6854L18.4009 16.5976L17.6451 17.8933Z" fill="#28303F"/>
</svg>
