<svg width="24" height="24" viewBox="0 0 24 24" fill="none" xmlns="http://www.w3.org/2000/svg">
<path d="M15.4649 10L15.6498 10.7268C15.9822 10.6423 16.2149 10.343 16.2149 10H15.4649ZM16.2149 7.5C16.2149 7.08579 15.8791 6.75 15.4649 6.75C15.0507 6.75 14.7149 7.08579 14.7149 7.5H16.2149ZM13.315 9.77316C12.9136 9.87531 12.671 10.2835 12.7732 10.685C12.8753 11.0864 13.2835 11.329 13.685 11.2268L13.315 9.77316ZM16.6003 13.1869C16.7036 12.7858 16.4621 12.3769 16.0609 12.2737C15.6598 12.1704 15.2509 12.4119 15.1477 12.8131L16.6003 13.1869ZM12 15.25C10.2051 15.25 8.75 13.7949 8.75 12H7.25C7.25 14.6234 9.37665 16.75 12 16.75V15.25ZM8.75 12C8.75 10.2051 10.2051 8.75 12 8.75V7.25C9.37665 7.25 7.25 9.37665 7.25 12H8.75ZM12 8.75C13.202 8.75 14.2526 9.40216 14.8157 10.3755L16.1141 9.62446C15.2939 8.20663 13.7591 7.25 12 7.25V8.75ZM16.2149 10V7.5H14.7149V10H16.2149ZM15.2799 9.27316L13.315 9.77316L13.685 11.2268L15.6498 10.7268L15.2799 9.27316ZM15.1477 12.8131C14.7868 14.215 13.5133 15.25 12 15.25V16.75C14.2143 16.75 16.0731 15.2355 16.6003 13.1869L15.1477 12.8131Z" fill="#28303F"/>
<path d="M3 12C3 16.9706 7.02944 21 12 21C16.9706 21 21 16.9706 21 12C21 7.02944 16.9706 3 12 3C7.02944 3 3 7.02944 3 12Z" stroke="#28303F" stroke-width="1.5" stroke-linecap="round" stroke-linejoin="round"/>
</svg>
