<svg width="24" height="24" viewBox="0 0 24 24" fill="none" xmlns="http://www.w3.org/2000/svg">
<path d="M8.40915 10L8.22419 10.7268C7.89181 10.6423 7.65915 10.343 7.65915 10H8.40915ZM7.65915 7.5C7.65915 7.08579 7.99494 6.75 8.40915 6.75C8.82337 6.75 9.15915 7.08579 9.15915 7.5H7.65915ZM10.559 9.77316C10.9604 9.87531 11.203 10.2835 11.1009 10.685C10.9987 11.0864 10.5905 11.329 10.1891 11.2268L10.559 9.77316ZM7.27371 13.1869C7.17047 12.7858 7.41196 12.3769 7.8131 12.2737C8.21424 12.1704 8.62312 12.4119 8.72637 12.8131L7.27371 13.1869ZM11.874 15.25C13.6689 15.25 15.124 13.7949 15.124 12H16.624C16.624 14.6234 14.4974 16.75 11.874 16.75V15.25ZM15.124 12C15.124 10.2051 13.6689 8.75 11.874 8.75V7.25C14.4974 7.25 16.624 9.37665 16.624 12H15.124ZM11.874 8.75C10.672 8.75 9.62143 9.40216 9.05836 10.3755L7.75995 9.62446C8.58011 8.20663 10.1149 7.25 11.874 7.25V8.75ZM7.65915 10V7.5H9.15915V10H7.65915ZM8.59411 9.27316L10.559 9.77316L10.1891 11.2268L8.22419 10.7268L8.59411 9.27316ZM8.72637 12.8131C9.08719 14.215 10.3607 15.25 11.874 15.25V16.75C9.65969 16.75 7.80097 15.2355 7.27371 13.1869L8.72637 12.8131Z" fill="#28303F"/>
<path d="M17 3H7C4.79086 3 3 4.79086 3 7V17C3 19.2091 4.79086 21 7 21H17C19.2091 21 21 19.2091 21 17V7C21 4.79086 19.2091 3 17 3Z" stroke="#28303F" stroke-width="1.5" stroke-linecap="round" stroke-linejoin="round"/>
</svg>
