<svg width="24" height="24" viewBox="0 0 24 24" fill="none" xmlns="http://www.w3.org/2000/svg">
<path d="M14.5807 8.00215L14.2125 8.65554C14.4894 8.81158 14.8345 8.77614 15.074 8.56709C15.3134 8.35804 15.395 8.02078 15.2777 7.72538L14.5807 8.00215ZM9.41931 15.9978L9.78752 15.3444C9.51062 15.1884 9.16543 15.2238 8.92602 15.4329C8.6866 15.6419 8.60496 15.9792 8.72225 16.2746L9.41931 15.9978ZM14.4828 5.72323C14.3299 5.33825 13.8939 5.15008 13.5089 5.30294C13.124 5.45579 12.9358 5.89179 13.0886 6.27677L14.4828 5.72323ZM9.51722 18.2768C9.67008 18.6618 10.1061 18.8499 10.4911 18.6971C10.876 18.5442 11.0642 18.1082 10.9113 17.7232L9.51722 18.2768ZM17.5546 10.5949C17.4413 10.1965 17.0265 9.96532 16.6281 10.0786C16.2296 10.1918 15.9985 10.6067 16.1117 11.0051L17.5546 10.5949ZM6.44544 13.4051C6.55871 13.8035 6.97351 14.0347 7.37194 13.9214C7.77037 13.8082 8.00154 13.3933 7.88827 12.9949L6.44544 13.4051ZM16.25 12C16.25 14.1152 14.3968 15.9167 12 15.9167V17.4167C15.1261 17.4167 17.75 15.0394 17.75 12H16.25ZM7.75 12C7.75 9.88478 9.60321 8.08333 12 8.08333V6.58333C8.87394 6.58333 6.25 8.96056 6.25 12H7.75ZM12 8.08333C12.814 8.08333 13.5704 8.29374 14.2125 8.65554L14.9489 7.34875C14.0842 6.86148 13.0744 6.58333 12 6.58333V8.08333ZM12 15.9167C11.186 15.9167 10.4296 15.7063 9.78752 15.3444L9.05111 16.6512C9.91581 17.1385 10.9256 17.4167 12 17.4167V15.9167ZM15.2777 7.72538L14.4828 5.72323L13.0886 6.27677L13.8836 8.27892L15.2777 7.72538ZM8.72225 16.2746L9.51722 18.2768L10.9113 17.7232L10.1164 15.7211L8.72225 16.2746ZM16.1117 11.0051C16.2019 11.3222 16.25 11.6554 16.25 12H17.75C17.75 11.5148 17.6821 11.0436 17.5546 10.5949L16.1117 11.0051ZM7.88827 12.9949C7.79812 12.6778 7.75 12.3446 7.75 12H6.25C6.25 12.4852 6.31789 12.9564 6.44544 13.4051L7.88827 12.9949Z" fill="#28303F"/>
<path d="M18 2H6C3.79086 2 2 3.79086 2 6V18C2 20.2091 3.79086 22 6 22H18C20.2091 22 22 20.2091 22 18V6C22 3.79086 20.2091 2 18 2Z" stroke="#28303F" stroke-width="1.5" stroke-linecap="round" stroke-linejoin="round"/>
</svg>
