<svg width="24" height="24" viewBox="0 0 24 24" fill="none" xmlns="http://www.w3.org/2000/svg">
<path d="M15.558 1.73287C15.4104 1.34582 14.9771 1.15165 14.59 1.29918C14.203 1.44671 14.0088 1.88008 14.1563 2.26713L15.558 1.73287ZM8.44204 22.2671C8.58958 22.6542 9.02294 22.8483 9.40999 22.7008C9.79704 22.5533 9.9912 22.1199 9.84367 21.7329L8.44204 22.2671ZM16.0352 5.09076L15.6564 5.73804C15.931 5.89877 16.2771 5.86872 16.52 5.66308C16.7628 5.45744 16.8494 5.12096 16.7361 4.82363L16.0352 5.09076ZM7.96473 18.9092L8.34358 18.2619C8.06897 18.1012 7.72282 18.1313 7.48001 18.3369C7.2372 18.5425 7.15058 18.879 7.26392 19.1764L7.96473 18.9092ZM4.42105 16.3755C4.62846 16.7341 5.08726 16.8566 5.4458 16.6492C5.80435 16.4418 5.92687 15.983 5.71946 15.6245L4.42105 16.3755ZM19.5789 7.62446C19.3715 7.26591 18.9127 7.14339 18.5542 7.3508C18.1957 7.5582 18.0731 8.017 18.2805 8.37554L19.5789 7.62446ZM19.25 12C19.25 16.0041 16.0041 19.25 12 19.25V20.75C16.8325 20.75 20.75 16.8325 20.75 12H19.25ZM4.75 12C4.75 7.99594 7.99594 4.75 12 4.75V3.25C7.16751 3.25 3.25 7.16751 3.25 12H4.75ZM12 4.75C13.335 4.75 14.5836 5.11012 15.6564 5.73804L16.4141 4.44348C15.1177 3.68469 13.6085 3.25 12 3.25V4.75ZM16.7361 4.82363L15.558 1.73287L14.1563 2.26713L15.3344 5.35789L16.7361 4.82363ZM12 19.25C10.665 19.25 9.41641 18.8899 8.34358 18.2619L7.58588 19.5565C8.88231 20.3153 10.3915 20.75 12 20.75V19.25ZM7.26392 19.1764L8.44204 22.2671L9.84367 21.7329L8.66554 18.6421L7.26392 19.1764ZM5.71946 15.6245C5.10304 14.5588 4.75 13.3218 4.75 12H3.25C3.25 13.5925 3.67612 15.0878 4.42105 16.3755L5.71946 15.6245ZM18.2805 8.37554C18.897 9.44116 19.25 10.6782 19.25 12H20.75C20.75 10.4075 20.3239 8.91223 19.5789 7.62446L18.2805 8.37554Z" fill="#28303F"/>
</svg>
