<svg width="24" height="24" viewBox="0 0 24 24" fill="none" xmlns="http://www.w3.org/2000/svg">
<path d="M13 9V9.75C13.4142 9.75 13.75 9.41421 13.75 9H13ZM13 15H13.75C13.75 14.5858 13.4142 14.25 13 14.25V15ZM14.6585 17.5488L14.1646 16.9844L14.6585 17.5488ZM14.6585 6.45119L14.1646 7.01562L14.6585 6.45119ZM13 8.25H5V9.75H13V8.25ZM2.25 11V13H3.75V11H2.25ZM5 15.75H13V14.25H5V15.75ZM12.25 15V16.7962H13.75V15H12.25ZM15.1524 18.1132L19.7737 14.0696L18.7859 12.9407L14.1646 16.9844L15.1524 18.1132ZM19.7737 9.93041L15.1524 5.88676L14.1646 7.01562L18.7859 11.0593L19.7737 9.93041ZM12.25 7.20377V9H13.75V7.20377H12.25ZM19.7737 14.0696C21.0259 12.974 21.0259 11.026 19.7737 9.93041L18.7859 11.0593C19.3551 11.5573 19.3551 12.4427 18.7859 12.9407L19.7737 14.0696ZM12.25 16.7962C12.25 18.2998 14.0209 19.1033 15.1524 18.1132L14.1646 16.9844C14.003 17.1258 13.75 17.011 13.75 16.7962H12.25ZM2.25 13C2.25 14.5188 3.48122 15.75 5 15.75V14.25C4.30964 14.25 3.75 13.6904 3.75 13H2.25ZM15.1524 5.88676C14.0209 4.89668 12.25 5.70024 12.25 7.20377H13.75C13.75 6.98898 14.003 6.87418 14.1646 7.01562L15.1524 5.88676ZM5 8.25C3.48122 8.25 2.25 9.48122 2.25 11H3.75C3.75 10.3096 4.30964 9.75 5 9.75V8.25Z" fill="#28303F"/>
</svg>
