<svg width="24" height="24" viewBox="0 0 24 24" fill="none" xmlns="http://www.w3.org/2000/svg">
<path d="M2.25 12C2.25 11.5858 2.58579 11.25 3 11.25C3.41421 11.25 3.75 11.5858 3.75 12H2.25ZM4.20404 7.5V8.25C3.78983 8.25 3.45404 7.91421 3.45404 7.5H4.20404ZM3.45404 3C3.45404 2.58579 3.78983 2.25 4.20404 2.25C4.61825 2.25 4.95404 2.58579 4.95404 3H3.45404ZM8.625 6.75C9.03921 6.75 9.375 7.08579 9.375 7.5C9.375 7.91421 9.03921 8.25 8.625 8.25V6.75ZM3.75 12C3.75 16.5563 7.44365 20.25 12 20.25V21.75C6.61522 21.75 2.25 17.3848 2.25 12H3.75ZM12 20.25C16.5563 20.25 20.25 16.5563 20.25 12H21.75C21.75 17.3848 17.3848 21.75 12 21.75V20.25ZM20.25 12C20.25 7.44365 16.5563 3.75 12 3.75V2.25C17.3848 2.25 21.75 6.61522 21.75 12H20.25ZM12 3.75C8.94728 3.75 6.28084 5.40766 4.85324 7.87554L3.55483 7.12446C5.23952 4.21213 8.39018 2.25 12 2.25V3.75ZM3.45404 7.5V3H4.95404V7.5H3.45404ZM4.20404 6.75H8.625V8.25H4.20404V6.75Z" fill="#28303F"/>
</svg>
