<svg width="24" height="24" viewBox="0 0 24 24" fill="none" xmlns="http://www.w3.org/2000/svg">
<path d="M9 11L9.75 11C9.75 10.5858 9.41421 10.25 9 10.25L9 11ZM15 11L15 10.25C14.5858 10.25 14.25 10.5858 14.25 11L15 11ZM17.5488 9.34149L16.9844 9.83537L17.5488 9.34149ZM6.45119 9.3415L7.01562 9.83538L6.45119 9.3415ZM8.25 11L8.25 19L9.75 19L9.75 11L8.25 11ZM11 21.75L13 21.75L13 20.25L11 20.25L11 21.75ZM15.75 19L15.75 11L14.25 11L14.25 19L15.75 19ZM15 11.75L16.7962 11.75L16.7962 10.25L15 10.25L15 11.75ZM18.1132 8.84762L14.0696 4.2263L12.9407 5.21405L16.9844 9.83537L18.1132 8.84762ZM9.93041 4.2263L5.88676 8.84762L7.01562 9.83538L11.0593 5.21405L9.93041 4.2263ZM7.20377 11.75L9 11.75L9 10.25L7.20377 10.25L7.20377 11.75ZM14.0696 4.2263C12.974 2.97414 11.026 2.97415 9.93041 4.2263L11.0593 5.21405C11.5573 4.64489 12.4427 4.64489 12.9407 5.21405L14.0696 4.2263ZM16.7962 11.75C18.2998 11.75 19.1033 9.97914 18.1132 8.84762L16.9844 9.83537C17.1258 9.99702 17.011 10.25 16.7962 10.25L16.7962 11.75ZM13 21.75C14.5188 21.75 15.75 20.5188 15.75 19L14.25 19C14.25 19.6904 13.6904 20.25 13 20.25L13 21.75ZM5.88676 8.84762C4.89667 9.97914 5.70024 11.75 7.20377 11.75L7.20377 10.25C6.98897 10.25 6.87418 9.99702 7.01562 9.83538L5.88676 8.84762ZM8.25 19C8.25 20.5188 9.48122 21.75 11 21.75L11 20.25C10.3096 20.25 9.75 19.6904 9.75 19L8.25 19Z" fill="#28303F"/>
</svg>
