<svg width="24" height="24" viewBox="0 0 24 24" fill="none" xmlns="http://www.w3.org/2000/svg">
<path d="M8 6L12 2M12 2L16 6M12 2L12 16" stroke="#28303F" stroke-width="1.5" stroke-linecap="round" stroke-linejoin="round"/>
<path d="M18.8306 8.5309C18.5715 8.20771 18.0995 8.15574 17.7763 8.41481C17.4531 8.67389 17.4011 9.14591 17.6602 9.4691L18.8306 8.5309ZM6.33981 9.4691C6.59889 9.14591 6.54692 8.67389 6.22373 8.41481C5.90054 8.15574 5.42852 8.20771 5.16944 8.5309L6.33981 9.4691ZM19.25 14C19.25 18.0041 16.0041 21.25 12 21.25V22.75C16.8325 22.75 20.75 18.8325 20.75 14H19.25ZM12 21.25C7.99594 21.25 4.75 18.0041 4.75 14H3.25C3.25 18.8325 7.16751 22.75 12 22.75V21.25ZM17.6602 9.4691C18.6553 10.7104 19.25 12.2847 19.25 14H20.75C20.75 11.9315 20.0313 10.0288 18.8306 8.5309L17.6602 9.4691ZM4.75 14C4.75 12.2847 5.34472 10.7104 6.33981 9.4691L5.16944 8.5309C3.96871 10.0288 3.25 11.9315 3.25 14H4.75Z" fill="#28303F"/>
</svg>
