<svg width="24" height="24" viewBox="0 0 24 24" fill="none" xmlns="http://www.w3.org/2000/svg">
<path d="M4 6C4 3.79086 5.79086 2 8 2H15.3431C16.404 2 17.4214 2.42143 18.1716 3.17157L20.8284 5.82843C21.5786 6.57857 22 7.59599 22 8.65685V18C22 20.2091 20.2091 22 18 22H8C5.79086 22 4 20.2091 4 18V6Z" stroke="#28303F" stroke-width="1.5" stroke-linejoin="round"/>
<path d="M9 6.25C8.58579 6.25 8.25 6.58579 8.25 7C8.25 7.41421 8.58579 7.75 9 7.75V6.25ZM17 7.75C17.4142 7.75 17.75 7.41421 17.75 7C17.75 6.58579 17.4142 6.25 17 6.25V7.75ZM9 7.75L17 7.75V6.25L9 6.25V7.75Z" fill="#28303F"/>
<path d="M9 11.25C8.58579 11.25 8.25 11.5858 8.25 12C8.25 12.4142 8.58579 12.75 9 12.75V11.25ZM17 12.75C17.4142 12.75 17.75 12.4142 17.75 12C17.75 11.5858 17.4142 11.25 17 11.25V12.75ZM9 12.75H17V11.25H9V12.75Z" fill="#28303F"/>
<path d="M9 16.25C8.58579 16.25 8.25 16.5858 8.25 17C8.25 17.4142 8.58579 17.75 9 17.75V16.25ZM13 17.75C13.4142 17.75 13.75 17.4142 13.75 17C13.75 16.5858 13.4142 16.25 13 16.25V17.75ZM9 17.75H13V16.25H9V17.75Z" fill="#28303F"/>
</svg>
