<svg width="24" height="24" viewBox="0 0 24 24" fill="none" xmlns="http://www.w3.org/2000/svg">
<path d="M18 8.75C19.7949 8.75 21.25 10.2051 21.25 12H22.75C22.75 9.37665 20.6234 7.25 18 7.25V8.75ZM14.75 12C14.75 10.2051 16.2051 8.75 18 8.75V7.25C15.3766 7.25 13.25 9.37665 13.25 12H14.75ZM18 15.25C16.2051 15.25 14.75 13.7949 14.75 12H13.25C13.25 14.6234 15.3766 16.75 18 16.75V15.25ZM18 16.75C20.6234 16.75 22.75 14.6234 22.75 12H21.25C21.25 13.7949 19.7949 15.25 18 15.25V16.75Z" fill="#28303F"/>
<path d="M4 11.25C3.58579 11.25 3.25 11.5858 3.25 12C3.25 12.4142 3.58579 12.75 4 12.75V11.25ZM10 12.75C10.4142 12.75 10.75 12.4142 10.75 12C10.75 11.5858 10.4142 11.25 10 11.25V12.75ZM4 12.75H10V11.25H4V12.75Z" fill="#28303F"/>
<path d="M7 4L7.69231 3.71154C7.57586 3.43205 7.30278 3.25 7 3.25C6.69722 3.25 6.42414 3.43205 6.30769 3.71154L7 4ZM1.30769 15.7115C1.14838 16.0939 1.32919 16.533 1.71154 16.6923C2.09389 16.8516 2.53299 16.6708 2.69231 16.2885L1.30769 15.7115ZM11.3077 16.2885C11.467 16.6708 11.9061 16.8516 12.2885 16.6923C12.6708 16.533 12.8516 16.0939 12.6923 15.7115L11.3077 16.2885ZM6.30769 3.71154L1.30769 15.7115L2.69231 16.2885L7.69231 4.28846L6.30769 3.71154ZM12.6923 15.7115L7.69231 3.71154L6.30769 4.28846L11.3077 16.2885L12.6923 15.7115Z" fill="#28303F"/>
<path d="M22 8V16" stroke="#28303F" stroke-width="1.5" stroke-linecap="round"/>
</svg>
