<svg width="24" height="24" viewBox="0 0 24 24" fill="none" xmlns="http://www.w3.org/2000/svg">
<path d="M4 4.25C3.58579 4.25 3.25 4.58579 3.25 5C3.25 5.41421 3.58579 5.75 4 5.75V4.25ZM16 5.75C16.4142 5.75 16.75 5.41421 16.75 5C16.75 4.58579 16.4142 4.25 16 4.25V5.75ZM4 5.75H16V4.25H4V5.75Z" fill="#28303F"/>
<path d="M14 11.25C13.5858 11.25 13.25 11.5858 13.25 12C13.25 12.4142 13.5858 12.75 14 12.75V11.25ZM20 12.75C20.4142 12.75 20.75 12.4142 20.75 12C20.75 11.5858 20.4142 11.25 20 11.25V12.75ZM14 12.75H20V11.25H14V12.75Z" fill="#28303F"/>
<path d="M10.75 5C10.75 4.58579 10.4142 4.25 10 4.25C9.58579 4.25 9.25 4.58579 9.25 5H10.75ZM9.25 19C9.25 19.4142 9.58579 19.75 10 19.75C10.4142 19.75 10.75 19.4142 10.75 19H9.25ZM9.25 5V19H10.75V5H9.25Z" fill="#28303F"/>
<path d="M17.75 12C17.75 11.5858 17.4142 11.25 17 11.25C16.5858 11.25 16.25 11.5858 16.25 12H17.75ZM16.25 19C16.25 19.4142 16.5858 19.75 17 19.75C17.4142 19.75 17.75 19.4142 17.75 19H16.25ZM16.25 12V19H17.75V12H16.25Z" fill="#28303F"/>
</svg>
