<svg width="24" height="24" viewBox="0 0 24 24" fill="none" xmlns="http://www.w3.org/2000/svg">
<path d="M7.5 13L8.17082 13.3354C8.28707 13.1029 8.27464 12.8268 8.13799 12.6057C8.00133 12.3846 7.75993 12.25 7.5 12.25V13ZM6.5 7.75H8.5V6.25H6.5V7.75ZM9.75 9V12.5279H11.25V9H9.75ZM9.61803 13.0869L8.2 15.9229L9.54164 16.5938L10.9597 13.7577L9.61803 13.0869ZM7.14164 15.3938L8.17082 13.3354L6.82918 12.6646L5.8 14.7229L7.14164 15.3938ZM7.5 12.25H6.5V13.75H7.5V12.25ZM5.25 11V9H3.75V11H5.25ZM6.5 12.25C5.80964 12.25 5.25 11.6904 5.25 11H3.75C3.75 12.5188 4.98122 13.75 6.5 13.75V12.25ZM7.67082 16.25C7.231 16.25 6.94495 15.7872 7.14164 15.3938L5.8 14.7229C5.10463 16.1137 6.11593 17.75 7.67082 17.75V16.25ZM8.2 15.9229C8.09978 16.1234 7.89492 16.25 7.67082 16.25V17.75C8.46308 17.75 9.18733 17.3024 9.54164 16.5938L8.2 15.9229ZM9.75 12.5279C9.75 12.7219 9.70482 12.9133 9.61803 13.0869L10.9597 13.7577C11.1506 13.3758 11.25 12.9548 11.25 12.5279H9.75ZM8.5 7.75C9.19036 7.75 9.75 8.30964 9.75 9H11.25C11.25 7.48122 10.0188 6.25 8.5 6.25V7.75ZM6.5 6.25C4.98122 6.25 3.75 7.48122 3.75 9H5.25C5.25 8.30964 5.80964 7.75 6.5 7.75V6.25Z" fill="#28303F"/>
<path d="M16.5 13L17.1708 13.3354C17.2871 13.1029 17.2746 12.8268 17.138 12.6057C17.0013 12.3846 16.7599 12.25 16.5 12.25V13ZM15.5 7.75H17.5V6.25H15.5V7.75ZM18.75 9V12.5279H20.25V9H18.75ZM18.618 13.0869L17.2 15.9229L18.5416 16.5938L19.9597 13.7577L18.618 13.0869ZM16.1416 15.3938L17.1708 13.3354L15.8292 12.6646L14.8 14.7229L16.1416 15.3938ZM16.5 12.25H15.5V13.75H16.5V12.25ZM14.25 11V9H12.75V11H14.25ZM15.5 12.25C14.8096 12.25 14.25 11.6904 14.25 11H12.75C12.75 12.5188 13.9812 13.75 15.5 13.75V12.25ZM16.6708 16.25C16.231 16.25 15.9449 15.7872 16.1416 15.3938L14.8 14.7229C14.1046 16.1137 15.1159 17.75 16.6708 17.75V16.25ZM17.2 15.9229C17.0998 16.1234 16.8949 16.25 16.6708 16.25V17.75C17.4631 17.75 18.1873 17.3024 18.5416 16.5938L17.2 15.9229ZM18.75 12.5279C18.75 12.7219 18.7048 12.9133 18.618 13.0869L19.9597 13.7577C20.1506 13.3758 20.25 12.9548 20.25 12.5279H18.75ZM17.5 7.75C18.1904 7.75 18.75 8.30964 18.75 9H20.25C20.25 7.48122 19.0188 6.25 17.5 6.25V7.75ZM15.5 6.25C13.9812 6.25 12.75 7.48122 12.75 9H14.25C14.25 8.30964 14.8096 7.75 15.5 7.75V6.25Z" fill="#28303F"/>
</svg>
