<svg width="24" height="24" viewBox="0 0 24 24" fill="none" xmlns="http://www.w3.org/2000/svg">
<path d="M2 6V3C2 2.44772 2.44772 2 3 2H6C6.55228 2 7 2.44772 7 3V6C7 6.55228 6.55228 7 6 7H3C2.44772 7 2 6.55228 2 6Z" stroke="#28303F" stroke-width="1.5" stroke-linecap="round" stroke-linejoin="round"/>
<path d="M17 6V3C17 2.44772 17.4477 2 18 2H21C21.5523 2 22 2.44772 22 3V6C22 6.55228 21.5523 7 21 7H18C17.4477 7 17 6.55228 17 6Z" stroke="#28303F" stroke-width="1.5" stroke-linecap="round" stroke-linejoin="round"/>
<path d="M17 21V18C17 17.4477 17.4477 17 18 17H21C21.5523 17 22 17.4477 22 18V21C22 21.5523 21.5523 22 21 22H18C17.4477 22 17 21.5523 17 21Z" stroke="#28303F" stroke-width="1.5" stroke-linecap="round" stroke-linejoin="round"/>
<path d="M2 21V18C2 17.4477 2.44772 17 3 17H6C6.55228 17 7 17.4477 7 18V21C7 21.5523 6.55228 22 6 22H3C2.44772 22 2 21.5523 2 21Z" stroke="#28303F" stroke-width="1.5" stroke-linecap="round" stroke-linejoin="round"/>
<path d="M10 12.25C9.58579 12.25 9.25 12.5858 9.25 13C9.25 13.4142 9.58579 13.75 10 13.75V12.25ZM14 13.75C14.4142 13.75 14.75 13.4142 14.75 13C14.75 12.5858 14.4142 12.25 14 12.25V13.75ZM10 13.75H14V12.25H10V13.75Z" fill="#28303F"/>
<path d="M12 8L12.6894 7.70456C12.5712 7.4288 12.3 7.25 12 7.25C11.7 7.25 11.4288 7.4288 11.3106 7.70456L12 8ZM8.31064 14.7046C8.14747 15.0853 8.32384 15.5262 8.70456 15.6894C9.08528 15.8525 9.52619 15.6762 9.68936 15.2954L8.31064 14.7046ZM14.3106 15.2954C14.4738 15.6762 14.9147 15.8525 15.2954 15.6894C15.6762 15.5262 15.8525 15.0853 15.6894 14.7046L14.3106 15.2954ZM11.3106 7.70456L8.31064 14.7046L9.68936 15.2954L12.6894 8.29544L11.3106 7.70456ZM15.6894 14.7046L12.6894 7.70456L11.3106 8.29544L14.3106 15.2954L15.6894 14.7046Z" fill="#28303F"/>
<path d="M7 4.5H17M19.5 7V17M17 19.5H7M4.5 17V7" stroke="#28303F" stroke-width="1.5" stroke-linecap="round" stroke-linejoin="round"/>
</svg>
