<svg width="24" height="24" viewBox="0 0 24 24" fill="none" xmlns="http://www.w3.org/2000/svg">
<path d="M6 11.25C5.58579 11.25 5.25 11.5858 5.25 12C5.25 12.4142 5.58579 12.75 6 12.75V11.25ZM18 12.75C18.4142 12.75 18.75 12.4142 18.75 12C18.75 11.5858 18.4142 11.25 18 11.25V12.75ZM6 12.75H18V11.25H6V12.75Z" fill="#28303F"/>
<path d="M6.75 5C6.75 4.58579 6.41421 4.25 6 4.25C5.58579 4.25 5.25 4.58579 5.25 5H6.75ZM5.25 19C5.25 19.4142 5.58579 19.75 6 19.75C6.41421 19.75 6.75 19.4142 6.75 19H5.25ZM5.25 5L5.25 19H6.75L6.75 5H5.25Z" fill="#28303F"/>
<path d="M18.75 5C18.75 4.58579 18.4142 4.25 18 4.25C17.5858 4.25 17.25 4.58579 17.25 5H18.75ZM17.25 19C17.25 19.4142 17.5858 19.75 18 19.75C18.4142 19.75 18.75 19.4142 18.75 19H17.25ZM17.25 5V19H18.75V5H17.25Z" fill="#28303F"/>
</svg>
