<svg width="24" height="24" viewBox="0 0 24 24" fill="none" xmlns="http://www.w3.org/2000/svg">
<path d="M12 4.25C11.5858 4.25 11.25 4.58579 11.25 5C11.25 5.41421 11.5858 5.75 12 5.75V4.25ZM16 5.75C16.4142 5.75 16.75 5.41421 16.75 5C16.75 4.58579 16.4142 4.25 16 4.25V5.75ZM12 5.75H16V4.25H12V5.75Z" fill="#28303F"/>
<path d="M14.7211 5.20604C14.8349 4.80776 14.6043 4.39265 14.206 4.27886C13.8078 4.16506 13.3927 4.39568 13.2789 4.79396L14.7211 5.20604ZM9.27886 18.794C9.16506 19.1922 9.39568 19.6073 9.79396 19.7211C10.1922 19.8349 10.6073 19.6043 10.7211 19.206L9.27886 18.794ZM13.2789 4.79396L9.27886 18.794L10.7211 19.206L14.7211 5.20604L13.2789 4.79396Z" fill="#28303F"/>
<path d="M8 18.25C7.58579 18.25 7.25 18.5858 7.25 19C7.25 19.4142 7.58579 19.75 8 19.75V18.25ZM12 19.75C12.4142 19.75 12.75 19.4142 12.75 19C12.75 18.5858 12.4142 18.25 12 18.25V19.75ZM8 19.75H12V18.25H8V19.75Z" fill="#28303F"/>
</svg>
