<svg width="24" height="24" viewBox="0 0 24 24" fill="none" xmlns="http://www.w3.org/2000/svg">
<path d="M14.1211 9.87866L9.87845 14.1213" stroke="#28303F" stroke-width="1.5" stroke-linecap="round"/>
<path d="M9.80314 6.4697C9.51024 6.76259 9.51024 7.23747 9.80314 7.53036C10.096 7.82325 10.5709 7.82325 10.8638 7.53036L9.80314 6.4697ZM16.4698 13.1364C16.1769 13.4293 16.177 13.9042 16.4698 14.1971C16.7627 14.49 17.2376 14.49 17.5305 14.1971L16.4698 13.1364ZM10.8638 7.53036L12.5305 5.86369L11.4698 4.80303L9.80314 6.4697L10.8638 7.53036ZM18.1365 11.4697L16.4698 13.1364L17.5305 14.1971L19.1972 12.5304L18.1365 11.4697ZM18.1365 5.86368C19.6846 7.41175 19.6846 9.92166 18.1365 11.4697L19.1972 12.5304C21.331 10.3965 21.331 6.93688 19.1972 4.80302L18.1365 5.86368ZM12.5305 5.86369C14.0785 4.31562 16.5885 4.31562 18.1365 5.86368L19.1972 4.80302C17.0633 2.66917 13.6037 2.66917 11.4698 4.80303L12.5305 5.86369Z" fill="#28303F"/>
<path d="M14.1969 17.5303C14.4898 17.2374 14.4898 16.7625 14.1969 16.4696C13.904 16.1767 13.4291 16.1767 13.1362 16.4696L14.1969 17.5303ZM7.53016 10.8636C7.82305 10.5707 7.82305 10.0958 7.53016 9.80293C7.23726 9.51004 6.76239 9.51004 6.4695 9.80293L7.53016 10.8636ZM13.1362 16.4696L11.4695 18.1363L12.5302 19.197L14.1969 17.5303L13.1362 16.4696ZM5.86348 12.5303L7.53016 10.8636L6.4695 9.80293L4.80282 11.4696L5.86348 12.5303ZM5.86348 18.1363C4.31541 16.5882 4.31541 14.0783 5.86348 12.5303L4.80282 11.4696C2.66897 13.6035 2.66897 17.0631 4.80282 19.197L5.86348 18.1363ZM11.4695 18.1363C9.92146 19.6844 7.41155 19.6844 5.86348 18.1363L4.80282 19.197C6.93667 21.3308 10.3963 21.3308 12.5302 19.197L11.4695 18.1363Z" fill="#28303F"/>
</svg>
