<svg width="24" height="24" viewBox="0 0 24 24" fill="none" xmlns="http://www.w3.org/2000/svg">
<path d="M9.25 18C9.25 18.4142 9.58579 18.75 10 18.75C10.4142 18.75 10.75 18.4142 10.75 18H9.25ZM18 6.75C18.4142 6.75 18.75 6.41421 18.75 6C18.75 5.58579 18.4142 5.25 18 5.25V6.75ZM13.25 18C13.25 18.4142 13.5858 18.75 14 18.75C14.4142 18.75 14.75 18.4142 14.75 18H13.25ZM9.25 6V12H10.75V6H9.25ZM9.25 12V18H10.75V12H9.25ZM10 11.25H9V12.75H10V11.25ZM9 6.75H10V5.25H9V6.75ZM10 6.75H14V5.25H10V6.75ZM14 6.75H18V5.25H14V6.75ZM13.25 6V18H14.75V6H13.25ZM6.75 9C6.75 7.75736 7.75736 6.75 9 6.75V5.25C6.92893 5.25 5.25 6.92893 5.25 9H6.75ZM9 11.25C7.75736 11.25 6.75 10.2426 6.75 9H5.25C5.25 11.0711 6.92893 12.75 9 12.75V11.25Z" fill="#28303F"/>
</svg>
