<svg width="24" height="24" viewBox="0 0 24 24" fill="none" xmlns="http://www.w3.org/2000/svg">
<path d="M21.75 9.36111C21.75 8.9469 21.4142 8.61111 21 8.61111C20.5858 8.61111 20.25 8.9469 20.25 9.36111H21.75ZM13.4464 2.75C13.8606 2.75 14.1964 2.41421 14.1964 2C14.1964 1.58579 13.8606 1.25 13.4464 1.25V2.75ZM20.25 9.36111V18H21.75V9.36111H20.25ZM17 21.25H7V22.75H17V21.25ZM3.75 18V6H2.25V18H3.75ZM7 2.75H13.4464V1.25H7V2.75ZM7 21.25C5.20507 21.25 3.75 19.7949 3.75 18H2.25C2.25 20.6234 4.37665 22.75 7 22.75V21.25ZM20.25 18C20.25 19.7949 18.7949 21.25 17 21.25V22.75C19.6234 22.75 21.75 20.6234 21.75 18H20.25ZM3.75 6C3.75 4.20507 5.20508 2.75 7 2.75V1.25C4.37665 1.25 2.25 3.37665 2.25 6H3.75Z" fill="#28303F"/>
<path d="M8 6.25C7.58579 6.25 7.25 6.58579 7.25 7C7.25 7.41421 7.58579 7.75 8 7.75V6.25ZM12 7.75C12.4142 7.75 12.75 7.41421 12.75 7C12.75 6.58579 12.4142 6.25 12 6.25V7.75ZM8 7.75H12V6.25H8V7.75Z" fill="#28303F"/>
<path d="M8 11.25C7.58579 11.25 7.25 11.5858 7.25 12C7.25 12.4142 7.58579 12.75 8 12.75V11.25ZM16 12.75C16.4142 12.75 16.75 12.4142 16.75 12C16.75 11.5858 16.4142 11.25 16 11.25V12.75ZM8 12.75H16V11.25H8V12.75Z" fill="#28303F"/>
<path d="M8 16.25C7.58579 16.25 7.25 16.5858 7.25 17C7.25 17.4142 7.58579 17.75 8 17.75V16.25ZM16 17.75C16.4142 17.75 16.75 17.4142 16.75 17C16.75 16.5858 16.4142 16.25 16 16.25V17.75ZM8 17.75H16V16.25H8V17.75Z" fill="#28303F"/>
<path d="M18 2V8" stroke="#28303F" stroke-width="1.5" stroke-linecap="round"/>
<path d="M21 5L15 5" stroke="#28303F" stroke-width="1.5" stroke-linecap="round"/>
</svg>
