<svg width="24" height="24" viewBox="0 0 24 24" fill="none" xmlns="http://www.w3.org/2000/svg">
<path d="M6 11.25C5.58579 11.25 5.25 11.5858 5.25 12C5.25 12.4142 5.58579 12.75 6 12.75V11.25ZM12 12.75C12.4142 12.75 12.75 12.4142 12.75 12C12.75 11.5858 12.4142 11.25 12 11.25V12.75ZM6 12.75H12V11.25H6V12.75Z" fill="#28303F"/>
<path d="M9 4L9.69231 3.71154C9.57586 3.43205 9.30278 3.25 9 3.25C8.69722 3.25 8.42414 3.43205 8.30769 3.71154L9 4ZM3.30769 15.7115C3.14838 16.0939 3.32919 16.533 3.71154 16.6923C4.09389 16.8516 4.53299 16.6708 4.69231 16.2885L3.30769 15.7115ZM13.3077 16.2885C13.467 16.6708 13.9061 16.8516 14.2885 16.6923C14.6708 16.533 14.8516 16.0939 14.6923 15.7115L13.3077 16.2885ZM8.30769 3.71154L3.30769 15.7115L4.69231 16.2885L9.69231 4.28846L8.30769 3.71154ZM14.6923 15.7115L9.69231 3.71154L8.30769 4.28846L13.3077 16.2885L14.6923 15.7115Z" fill="#28303F"/>
<path d="M11.5017 16.4425C11.1938 16.1654 10.7196 16.1904 10.4425 16.4983C10.1654 16.8062 10.1904 17.2804 10.4983 17.5575L11.5017 16.4425ZM20.5453 14.515C20.8297 14.2138 20.8161 13.7391 20.515 13.4547C20.2138 13.1703 19.7391 13.1839 19.4547 13.485L20.5453 14.515ZM13.6077 19.3469L13.106 19.9044L13.6077 19.3469ZM15.0037 19.2902L14.4584 18.7753L15.0037 19.2902ZM10.4983 17.5575L13.106 19.9044L14.1094 18.7894L11.5017 16.4425L10.4983 17.5575ZM15.5489 19.8052L20.5453 14.515L19.4547 13.485L14.4584 18.7753L15.5489 19.8052ZM13.106 19.9044C13.8122 20.54 14.8965 20.496 15.5489 19.8052L14.4584 18.7753C14.3652 18.874 14.2103 18.8802 14.1094 18.7894L13.106 19.9044Z" fill="#28303F"/>
</svg>
