<svg width="24" height="24" viewBox="0 0 24 24" fill="none" xmlns="http://www.w3.org/2000/svg">
<path d="M9.75 15.5C9.75 15.0858 9.41421 14.75 9 14.75C8.58579 14.75 8.25 15.0858 8.25 15.5H9.75ZM13 11.25C12.5858 11.25 12.25 11.5858 12.25 12C12.25 12.4142 12.5858 12.75 13 12.75V11.25ZM13 12.75C14.8921 12.75 16.25 14.0722 16.25 15.5H17.75C17.75 13.0619 15.5261 11.25 13 11.25V12.75ZM16.25 15.5C16.25 16.9278 14.8921 18.25 13 18.25V19.75C15.5261 19.75 17.75 17.9382 17.75 15.5H16.25ZM13 18.25C11.1079 18.25 9.75 16.9278 9.75 15.5H8.25C8.25 17.9382 10.4739 19.75 13 19.75V18.25Z" fill="#28303F"/>
<path d="M4 12H20" stroke="#28303F" stroke-width="1.5" stroke-linecap="round"/>
<path fill-rule="evenodd" clip-rule="evenodd" d="M9.75 8.5C9.75 7.07216 11.1079 5.75 13 5.75C14.8921 5.75 16.25 7.07216 16.25 8.5C16.25 8.91421 16.5858 9.25 17 9.25C17.4142 9.25 17.75 8.91421 17.75 8.5C17.75 6.06185 15.5261 4.25 13 4.25C10.4739 4.25 8.25 6.06185 8.25 8.5C8.25 9.13236 8.39959 9.72259 8.66525 10.25H10.4974C10.024 9.76151 9.75 9.14142 9.75 8.5ZM13.7073 11.75H9.93864C10.7793 12.3802 11.8588 12.75 13 12.75C13.4142 12.75 13.75 12.4142 13.75 12C13.75 11.9123 13.735 11.8282 13.7073 11.75Z" fill="#28303F"/>
</svg>
