<svg width="24" height="24" viewBox="0 0 24 24" fill="none" xmlns="http://www.w3.org/2000/svg">
<path d="M17 2.25H12V3.75H17V2.25ZM12 2.25H7V3.75H12V2.25ZM7 21.75H12V20.25H7V21.75ZM12 21.75H17V20.25H12V21.75ZM11.25 3V21H12.75V3H11.25ZM2.25 15.1765V17H3.75V15.1765H2.25ZM21.75 17V15.1765H20.25V17H21.75ZM3 15.9265H21V14.4265H3V15.9265ZM21.75 15.1765V11.4706H20.25V15.1765H21.75ZM2.25 11.4706V15.1765H3.75V11.4706H2.25ZM2.25 7V8.82353H3.75V7H2.25ZM2.25 8.82353V11.4706H3.75V8.82353H2.25ZM21.75 11.4706V8.82353H20.25V11.4706H21.75ZM21.75 8.82353V7H20.25V8.82353H21.75ZM3 9.57353H21V8.07353H3V9.57353ZM17 3.75C18.7949 3.75 20.25 5.20507 20.25 7H21.75C21.75 4.37665 19.6234 2.25 17 2.25V3.75ZM17 21.75C19.6234 21.75 21.75 19.6234 21.75 17H20.25C20.25 18.7949 18.7949 20.25 17 20.25V21.75ZM7 20.25C5.20507 20.25 3.75 18.7949 3.75 17H2.25C2.25 19.6234 4.37665 21.75 7 21.75V20.25ZM7 2.25C4.37665 2.25 2.25 4.37665 2.25 7H3.75C3.75 5.20507 5.20507 3.75 7 3.75V2.25Z" fill="#28303F"/>
</svg>
