<svg width="24" height="24" viewBox="0 0 24 24" fill="none" xmlns="http://www.w3.org/2000/svg">
<path d="M9 10.25C8.58579 10.25 8.25 10.5858 8.25 11C8.25 11.4142 8.58579 11.75 9 11.75V10.25ZM15 11.75C15.4142 11.75 15.75 11.4142 15.75 11C15.75 10.5858 15.4142 10.25 15 10.25V11.75ZM9 11.75H15V10.25H9V11.75Z" fill="#28303F"/>
<path d="M12 3L12.6923 2.71154C12.5759 2.43205 12.3028 2.25 12 2.25C11.6972 2.25 11.4241 2.43205 11.3077 2.71154L12 3ZM6.30769 14.7115C6.14838 15.0939 6.32919 15.533 6.71154 15.6923C7.09389 15.8516 7.53299 15.6708 7.69231 15.2885L6.30769 14.7115ZM16.3077 15.2885C16.467 15.6708 16.9061 15.8516 17.2885 15.6923C17.6708 15.533 17.8516 15.0939 17.6923 14.7115L16.3077 15.2885ZM11.3077 2.71154L6.30769 14.7115L7.69231 15.2885L12.6923 3.28846L11.3077 2.71154ZM17.6923 14.7115L12.6923 2.71154L11.3077 3.28846L16.3077 15.2885L17.6923 14.7115Z" fill="#28303F"/>
<path d="M18 21L20 19M20 19L18 17M20 19L4 19" stroke="#28303F" stroke-width="1.5" stroke-linecap="round" stroke-linejoin="round"/>
</svg>
