<svg width="24" height="24" viewBox="0 0 24 24" fill="none" xmlns="http://www.w3.org/2000/svg">
<path d="M12 12.25C11.5858 12.25 11.25 12.5858 11.25 13C11.25 13.4142 11.5858 13.75 12 13.75V12.25ZM18 13.75C18.4142 13.75 18.75 13.4142 18.75 13C18.75 12.5858 18.4142 12.25 18 12.25V13.75ZM12 13.75H18V12.25H12V13.75Z" fill="#28303F"/>
<path d="M4 18L6 20M6 20L8 18M6 20L6 4" stroke="#28303F" stroke-width="1.5" stroke-linecap="round" stroke-linejoin="round"/>
<path d="M15 5L15.6923 4.71154C15.5759 4.43205 15.3028 4.25 15 4.25C14.6972 4.25 14.4241 4.43205 14.3077 4.71154L15 5ZM9.30769 16.7115C9.14838 17.0939 9.32919 17.533 9.71154 17.6923C10.0939 17.8516 10.533 17.6708 10.6923 17.2885L9.30769 16.7115ZM19.3077 17.2885C19.467 17.6708 19.9061 17.8516 20.2885 17.6923C20.6708 17.533 20.8516 17.0939 20.6923 16.7115L19.3077 17.2885ZM14.3077 4.71154L9.30769 16.7115L10.6923 17.2885L15.6923 5.28846L14.3077 4.71154ZM20.6923 16.7115L15.6923 4.71154L14.3077 5.28846L19.3077 17.2885L20.6923 16.7115Z" fill="#28303F"/>
</svg>
