<svg width="24" height="24" viewBox="0 0 24 24" fill="none" xmlns="http://www.w3.org/2000/svg">
<path d="M6 4.25C5.58579 4.25 5.25 4.58579 5.25 5C5.25 5.41421 5.58579 5.75 6 5.75V4.25ZM18 5.75C18.4142 5.75 18.75 5.41421 18.75 5C18.75 4.58579 18.4142 4.25 18 4.25V5.75ZM6 5.75H18V4.25H6V5.75Z" fill="#28303F"/>
<path d="M12.75 5C12.75 4.58579 12.4142 4.25 12 4.25C11.5858 4.25 11.25 4.58579 11.25 5H12.75ZM11.25 19C11.25 19.4142 11.5858 19.75 12 19.75C12.4142 19.75 12.75 19.4142 12.75 19H11.25ZM11.25 5V19H12.75V5H11.25Z" fill="#28303F"/>
</svg>
