<svg width="24" height="24" viewBox="0 0 24 24" fill="none" xmlns="http://www.w3.org/2000/svg">
<path d="M12 17L11.4697 16.4697C11.1768 16.7626 11.1768 17.2374 11.4697 17.5303L12 17ZM14.5303 15.5303C14.8232 15.2374 14.8232 14.7626 14.5303 14.4697C14.2374 14.1768 13.7626 14.1768 13.4697 14.4697L14.5303 15.5303ZM13.4697 19.5303C13.7626 19.8232 14.2374 19.8232 14.5303 19.5303C14.8232 19.2374 14.8232 18.7626 14.5303 18.4697L13.4697 19.5303ZM5 10.25C4.58579 10.25 4.25 10.5858 4.25 11C4.25 11.4142 4.58579 11.75 5 11.75L5 10.25ZM16 16.25L12 16.25L12 17.75L16 17.75L16 16.25ZM12.5303 17.5303L14.5303 15.5303L13.4697 14.4697L11.4697 16.4697L12.5303 17.5303ZM11.4697 17.5303L13.4697 19.5303L14.5303 18.4697L12.5303 16.4697L11.4697 17.5303ZM16 10.25L5 10.25L5 11.75L16 11.75L16 10.25ZM19.75 14C19.75 11.9289 18.0711 10.25 16 10.25L16 11.75C17.2426 11.75 18.25 12.7574 18.25 14L19.75 14ZM16 17.75C18.0711 17.75 19.75 16.0711 19.75 14L18.25 14C18.25 15.2426 17.2426 16.25 16 16.25L16 17.75Z" fill="#28303F"/>
<path d="M5 17H9" stroke="#28303F" stroke-width="1.5" stroke-linecap="round"/>
<path d="M5 5H19" stroke="#28303F" stroke-width="1.5" stroke-linecap="round"/>
</svg>
