<svg width="24" height="24" viewBox="0 0 24 24" fill="none" xmlns="http://www.w3.org/2000/svg">
<path fill-rule="evenodd" clip-rule="evenodd" d="M6 2.75C4.20507 2.75 2.75 4.20507 2.75 6V8C2.75 8.41421 2.41421 8.75 2 8.75C1.58579 8.75 1.25 8.41421 1.25 8V6C1.25 3.37665 3.37665 1.25 6 1.25H8C8.41421 1.25 8.75 1.58579 8.75 2C8.75 2.41421 8.41421 2.75 8 2.75H6ZM15.25 2C15.25 1.58579 15.5858 1.25 16 1.25H18C20.6234 1.25 22.75 3.37665 22.75 6V8C22.75 8.41421 22.4142 8.75 22 8.75C21.5858 8.75 21.25 8.41421 21.25 8V6C21.25 4.20507 19.7949 2.75 18 2.75H16C15.5858 2.75 15.25 2.41421 15.25 2ZM2 15.1944C2.41421 15.1944 2.75 15.5302 2.75 15.9444V18C2.75 19.7949 4.20507 21.25 6 21.25H8C8.41421 21.25 8.75 21.5858 8.75 22C8.75 22.4142 8.41421 22.75 8 22.75H6C3.37665 22.75 1.25 20.6234 1.25 18V15.9444C1.25 15.5302 1.58579 15.1944 2 15.1944ZM22 15.1944C22.4142 15.1944 22.75 15.5302 22.75 15.9444V18C22.75 20.6234 20.6234 22.75 18 22.75H16C15.5858 22.75 15.25 22.4142 15.25 22C15.25 21.5858 15.5858 21.25 16 21.25H18C19.7949 21.25 21.25 19.7949 21.25 18V15.9444C21.25 15.5302 21.5858 15.1944 22 15.1944Z" fill="#28303F"/>
<path opacity="0.4" fill-rule="evenodd" clip-rule="evenodd" d="M6.25 12C6.25 11.5858 6.58579 11.25 7 11.25H17C17.4142 11.25 17.75 11.5858 17.75 12C17.75 12.4142 17.4142 12.75 17 12.75H7C6.58579 12.75 6.25 12.4142 6.25 12Z" fill="#28303F"/>
<path opacity="0.4" fill-rule="evenodd" clip-rule="evenodd" d="M16 6.75C16.4142 6.75 16.75 7.08579 16.75 7.5V9.5C16.75 9.91421 16.4142 10.25 16 10.25C15.5858 10.25 15.25 9.91421 15.25 9.5V7.5C15.25 7.08579 15.5858 6.75 16 6.75Z" fill="#28303F"/>
<path opacity="0.4" fill-rule="evenodd" clip-rule="evenodd" d="M12 6.75C12.4142 6.75 12.75 7.08579 12.75 7.5V9.5C12.75 9.91421 12.4142 10.25 12 10.25C11.5858 10.25 11.25 9.91421 11.25 9.5V7.5C11.25 7.08579 11.5858 6.75 12 6.75Z" fill="#28303F"/>
<path opacity="0.4" fill-rule="evenodd" clip-rule="evenodd" d="M8 6.75C8.41421 6.75 8.75 7.08579 8.75 7.5V9.5C8.75 9.91421 8.41421 10.25 8 10.25C7.58579 10.25 7.25 9.91421 7.25 9.5V7.5C7.25 7.08579 7.58579 6.75 8 6.75Z" fill="#28303F"/>
<path opacity="0.4" fill-rule="evenodd" clip-rule="evenodd" d="M12 13.75C12.4142 13.75 12.75 14.0858 12.75 14.5V16.5C12.75 16.9142 12.4142 17.25 12 17.25C11.5858 17.25 11.25 16.9142 11.25 16.5V14.5C11.25 14.0858 11.5858 13.75 12 13.75Z" fill="#28303F"/>
<path opacity="0.4" fill-rule="evenodd" clip-rule="evenodd" d="M16 13.75C16.4142 13.75 16.75 14.0858 16.75 14.5V16.5C16.75 16.9142 16.4142 17.25 16 17.25C15.5858 17.25 15.25 16.9142 15.25 16.5V14.5C15.25 14.0858 15.5858 13.75 16 13.75Z" fill="#28303F"/>
<path opacity="0.4" fill-rule="evenodd" clip-rule="evenodd" d="M8 13.75C8.41421 13.75 8.75 14.0858 8.75 14.5V16.5C8.75 16.9142 8.41421 17.25 8 17.25C7.58579 17.25 7.25 16.9142 7.25 16.5V14.5C7.25 14.0858 7.58579 13.75 8 13.75Z" fill="#28303F"/>
</svg>
