<svg width="24" height="24" viewBox="0 0 24 24" fill="none" xmlns="http://www.w3.org/2000/svg">
<path opacity="0.4" fill-rule="evenodd" clip-rule="evenodd" d="M12 17C15.0779 17 17.7498 14.5735 19.0877 13.1013C19.6638 12.4674 19.6638 11.5326 19.0877 10.8987C17.7498 9.42646 15.0779 7 12 7C8.92211 7 6.25018 9.42646 4.91228 10.8987C4.3362 11.5326 4.33621 12.4674 4.91228 13.1013C6.25018 14.5735 8.92211 17 12 17ZM12 14C13.1046 14 14 13.1046 14 12C14 10.8954 13.1046 10 12 10C10.8954 10 10 10.8954 10 12C10 13.1046 10.8954 14 12 14Z" fill="#28303F"/>
<path fill-rule="evenodd" clip-rule="evenodd" d="M6 2.75C4.20507 2.75 2.75 4.20507 2.75 6V8C2.75 8.41421 2.41421 8.75 2 8.75C1.58579 8.75 1.25 8.41421 1.25 8V6C1.25 3.37665 3.37665 1.25 6 1.25H8C8.41421 1.25 8.75 1.58579 8.75 2C8.75 2.41421 8.41421 2.75 8 2.75H6ZM15.25 2C15.25 1.58579 15.5858 1.25 16 1.25H18C20.6234 1.25 22.75 3.37665 22.75 6V8C22.75 8.41421 22.4142 8.75 22 8.75C21.5858 8.75 21.25 8.41421 21.25 8V6C21.25 4.20507 19.7949 2.75 18 2.75H16C15.5858 2.75 15.25 2.41421 15.25 2ZM22 15.25C22.4142 15.25 22.75 15.5858 22.75 16V18C22.75 20.6234 20.6234 22.75 18 22.75H16C15.5858 22.75 15.25 22.4142 15.25 22C15.25 21.5858 15.5858 21.25 16 21.25H18C19.7949 21.25 21.25 19.7949 21.25 18V16C21.25 15.5858 21.5858 15.25 22 15.25ZM2 15.8056C2.41421 15.8056 2.75 16.1413 2.75 16.5556V18C2.75 19.7949 4.20507 21.25 6 21.25H8C8.41421 21.25 8.75 21.5858 8.75 22C8.75 22.4142 8.41421 22.75 8 22.75H6C3.37665 22.75 1.25 20.6234 1.25 18V16.5556C1.25 16.1413 1.58579 15.8056 2 15.8056Z" fill="#28303F"/>
</svg>
