<svg width="24" height="24" viewBox="0 0 24 24" fill="none" xmlns="http://www.w3.org/2000/svg">
<path fill-rule="evenodd" clip-rule="evenodd" d="M12 5.50732C10.55 5.50732 9.23854 6.09413 8.28765 7.04501C7.99476 7.33791 7.51989 7.33791 7.22699 7.04501C6.9341 6.75212 6.9341 6.27725 7.22699 5.98435C8.44768 4.76366 10.1362 4.00732 12 4.00732C13.8637 4.00732 15.5522 4.76366 16.7729 5.98435C17.0658 6.27725 17.0658 6.75212 16.7729 7.04501C16.48 7.33791 16.0052 7.33791 15.7123 7.04501C14.7614 6.09413 13.4499 5.50732 12 5.50732ZM12 8.50732C11.3784 8.50732 10.817 8.75834 10.409 9.16633C10.1161 9.45923 9.64121 9.45923 9.34831 9.16633C9.05542 8.87344 9.05542 8.39857 9.34831 8.10567C10.0261 7.42788 10.9646 7.00732 12 7.00732C13.0353 7.00732 13.9738 7.42788 14.6516 8.10567C14.9445 8.39857 14.9445 8.87344 14.6516 9.16633C14.3587 9.45923 13.8838 9.45923 13.591 9.16633C13.183 8.75834 12.6215 8.50732 12 8.50732Z" fill="#28303F"/>
<path opacity="0.4" d="M17 12C18.1046 12 19 12.8954 19 14L19 16C19 17.1046 18.1046 18 17 18L7 18C5.89543 18 5 17.1046 5 16L5 14C5 12.8954 5.89543 12 7 12L17 12Z" fill="#28303F"/>
<path d="M17 12C18.1046 12 19 12.8954 19 14V16C19 17.1046 18.1046 18 17 18L14 18C12.8954 18 12 17.1046 12 16L12 14C12 12.8954 12.8954 12 14 12L17 12Z" fill="#28303F"/>
</svg>
