<svg width="24" height="24" viewBox="0 0 24 24" fill="none" xmlns="http://www.w3.org/2000/svg">
<path opacity="0.4" d="M21 17.9668V10.1503C21 8.93937 20.4604 7.7925 19.5301 7.02652L14.5301 2.90935C13.0577 1.69688 10.9423 1.69689 9.46986 2.90935L4.46986 7.02652C3.53964 7.7925 3 8.93937 3 10.1503V17.9668C3 20.1943 4.79086 22 7 22H17C19.2091 22 21 20.1943 21 17.9668Z" fill="#28303F"/>
<path fill-rule="evenodd" clip-rule="evenodd" d="M16.416 10.376C16.7607 10.6058 16.8538 11.0715 16.624 11.4161L13.9773 15.3862C13.0147 16.8302 10.9717 17.0324 9.74461 15.8053L8.46967 14.5304C8.17678 14.2375 8.17678 13.7626 8.46967 13.4697C8.76256 13.1769 9.23744 13.1769 9.53033 13.4697L10.8053 14.7447C11.363 15.3025 12.2917 15.2105 12.7292 14.5542L15.376 10.5841C15.6057 10.2394 16.0714 10.1463 16.416 10.376Z" fill="#28303F"/>
</svg>
