<svg width="24" height="24" viewBox="0 0 24 24" fill="none" xmlns="http://www.w3.org/2000/svg">
<path opacity="0.4" d="M21 17.9668V10.1503C21 8.93937 20.4604 7.7925 19.5301 7.02652L14.5301 2.90935C13.0577 1.69688 10.9423 1.69689 9.46986 2.90935L4.46986 7.02652C3.53964 7.7925 3 8.93937 3 10.1503V17.9668C3 20.1943 4.79086 22 7 22H17C19.2091 22 21 20.1943 21 17.9668Z" fill="#28303F"/>
<path fill-rule="evenodd" clip-rule="evenodd" d="M13.45 8.40004C13.7814 8.64857 13.8485 9.11867 13.6 9.45004L11.5 12.25H14C14.2841 12.25 14.5438 12.4105 14.6708 12.6646C14.7979 12.9187 14.7705 13.2228 14.6 13.45L11.6 17.45C11.3515 17.7814 10.8814 17.8486 10.55 17.6C10.2186 17.3515 10.1515 16.8814 10.4 16.55L12.5 13.75H10C9.71593 13.75 9.45623 13.5895 9.32918 13.3355C9.20214 13.0814 9.22956 12.7773 9.4 12.55L12.4 8.55004C12.6485 8.21867 13.1186 8.15152 13.45 8.40004Z" fill="#28303F"/>
</svg>
