<svg width="24" height="24" viewBox="0 0 24 24" fill="none" xmlns="http://www.w3.org/2000/svg">
<path opacity="0.4" d="M7.81965 22H16.1804C18.4891 22 20.3607 20.214 20.3607 18.0108V13.133C20.3607 12.4248 20.6555 11.7456 21.1803 11.2448C22.3962 10.0845 22.2381 8.16205 20.8475 7.19691L14.4588 2.763C12.9929 1.74567 11.0071 1.74567 9.54124 2.763L3.15251 7.19692C1.76187 8.16205 1.60381 10.0845 2.81969 11.2448C3.34448 11.7456 3.6393 12.4248 3.6393 13.133V18.0108C3.6393 20.214 5.5109 22 7.81965 22Z" fill="#28303F"/>
<path fill-rule="evenodd" clip-rule="evenodd" d="M12 9.25C12.4142 9.25 12.75 9.58579 12.75 10V12C12.75 12.4142 12.4142 12.75 12 12.75C11.5858 12.75 11.25 12.4142 11.25 12V10C11.25 9.58579 11.5858 9.25 12 9.25Z" fill="#28303F"/>
<path fill-rule="evenodd" clip-rule="evenodd" d="M9.4963 10.7917C9.80685 11.0658 9.8364 11.5398 9.5623 11.8503C9.05623 12.4237 8.75 13.1751 8.75 13.9998C8.75 15.7948 10.2051 17.2498 12 17.2498C13.7949 17.2498 15.25 15.7948 15.25 13.9998C15.25 13.1751 14.9438 12.4237 14.4377 11.8503C14.1636 11.5398 14.1931 11.0658 14.5037 10.7917C14.8143 10.5176 15.2882 10.5472 15.5623 10.8577C16.301 11.6946 16.75 12.7957 16.75 13.9998C16.75 16.6232 14.6234 18.7498 12 18.7498C9.37665 18.7498 7.25 16.6232 7.25 13.9998C7.25 12.7957 7.69904 11.6946 8.4377 10.8577C8.71179 10.5472 9.18575 10.5176 9.4963 10.7917Z" fill="#28303F"/>
</svg>
