<svg width="24" height="24" viewBox="0 0 24 24" fill="none" xmlns="http://www.w3.org/2000/svg">
<path opacity="0.4" d="M21 17.9668V10.1503C21 8.93937 20.4604 7.7925 19.5301 7.02652L14.5301 2.90935C13.0577 1.69688 10.9423 1.69689 9.46986 2.90935L4.46986 7.02652C3.53964 7.7925 3 8.93937 3 10.1503V17.9668C3 20.1943 4.79086 22 7 22H17C19.2091 22 21 20.1943 21 17.9668Z" fill="#28303F"/>
<path fill-rule="evenodd" clip-rule="evenodd" d="M14.6517 16.6514C14.3588 16.9443 13.8839 16.9443 13.591 16.6514L9.34838 12.4088C9.05548 12.1159 9.05548 11.641 9.34838 11.3481C9.64127 11.0552 10.1161 11.0552 10.409 11.3481L14.6517 15.5908C14.9446 15.8837 14.9446 16.3585 14.6517 16.6514Z" fill="#28303F"/>
<path fill-rule="evenodd" clip-rule="evenodd" d="M9.34833 16.6518C9.05544 16.3589 9.05544 15.884 9.34833 15.5911L13.591 11.3485C13.8839 11.0556 14.3587 11.0556 14.6516 11.3485C14.9445 11.6414 14.9445 12.1163 14.6516 12.4092L10.409 16.6518C10.1161 16.9447 9.64123 16.9447 9.34833 16.6518Z" fill="#28303F"/>
</svg>
