<svg width="24" height="24" viewBox="0 0 24 24" fill="none" xmlns="http://www.w3.org/2000/svg">
<path opacity="0.4" d="M7.81965 22H16.1804C18.4891 22 20.3607 20.214 20.3607 18.0108V13.133C20.3607 12.4248 20.6555 11.7456 21.1803 11.2448C22.3962 10.0845 22.2381 8.16205 20.8475 7.19691L14.4588 2.763C12.9929 1.74567 11.0071 1.74567 9.54124 2.763L3.15251 7.19692C1.76187 8.16205 1.60381 10.0845 2.81969 11.2448C3.34448 11.7456 3.6393 12.4248 3.6393 13.133V18.0108C3.6393 20.214 5.5109 22 7.81965 22Z" fill="#28303F"/>
<path d="M7 13.5C7 15.433 8.567 17 10.5 17H14.5C15.8807 17 17 15.8807 17 14.5C17 13.1193 15.8807 12 14.5 12C14.2274 12 13.9649 12.0436 13.7193 12.1243C13.1848 10.8752 11.9446 10 10.5 10C8.567 10 7 11.567 7 13.5Z" fill="#28303F"/>
</svg>
