<svg width="24" height="24" viewBox="0 0 24 24" fill="none" xmlns="http://www.w3.org/2000/svg">
<path opacity="0.4" d="M21 17.9668V10.1503C21 8.93937 20.4604 7.7925 19.5301 7.02652L14.5301 2.90935C13.0577 1.69688 10.9423 1.69689 9.46986 2.90935L4.46986 7.02652C3.53964 7.7925 3 8.93937 3 10.1503V17.9668C3 20.1943 4.79086 22 7 22H17C19.2091 22 21 20.1943 21 17.9668Z" fill="#28303F"/>
<path fill-rule="evenodd" clip-rule="evenodd" d="M13.25 11C13.25 10.5858 13.5858 10.25 14 10.25H16C16.2841 10.25 16.5438 10.4105 16.6709 10.6646L17.6709 12.6646C17.8561 13.0351 17.7059 13.4856 17.3355 13.6708C16.965 13.8561 16.5145 13.7059 16.3292 13.3354L16 12.6771L14.5653 15.5466C13.9204 16.8364 12.0797 16.8364 11.4348 15.5466L10.2236 13.1243C10.1315 12.94 9.86857 12.94 9.77644 13.1243L7.67086 17.3354C7.48562 17.7059 7.03512 17.8561 6.66463 17.6708C6.29415 17.4856 6.14398 17.0351 6.32922 16.6646L8.43479 12.4534C9.07971 11.1636 10.9204 11.1636 11.5653 12.4534L12.7764 14.8757C12.8686 15.06 13.1315 15.06 13.2236 14.8757L14.7865 11.75H14C13.5858 11.75 13.25 11.4142 13.25 11Z" fill="#28303F"/>
</svg>
