<svg width="24" height="24" viewBox="0 0 24 24" fill="none" xmlns="http://www.w3.org/2000/svg">
<path opacity="0.4" d="M21 17.9668V10.1503C21 8.93937 20.4604 7.7925 19.5301 7.02652L14.5301 2.90935C13.0577 1.69688 10.9423 1.69689 9.46986 2.90935L4.46986 7.02652C3.53964 7.7925 3 8.93937 3 10.1503V17.9668C3 20.1943 4.79086 22 7 22H17C19.2091 22 21 20.1943 21 17.9668Z" fill="#28303F"/>
<path fill-rule="evenodd" clip-rule="evenodd" d="M10 10C8.34315 10 7 11.3431 7 13V15C7 16.6569 8.34315 18 10 18H14C15.6569 18 17 16.6569 17 15V13C17 11.3431 15.6569 10 14 10H10ZM10.3354 12.3292C9.96493 12.1439 9.51442 12.2941 9.32918 12.6646C9.14394 13.0351 9.29411 13.4856 9.66459 13.6708L10.7702 14.2236C11.5444 14.6107 12.4556 14.6107 13.2298 14.2236L14.3354 13.6708C14.7059 13.4856 14.8561 13.0351 14.6708 12.6646C14.4856 12.2941 14.0351 12.1439 13.6646 12.3292L12.559 12.882C12.2071 13.0579 11.7929 13.0579 11.441 12.882L10.3354 12.3292Z" fill="#28303F"/>
</svg>
