<svg width="24" height="24" viewBox="0 0 24 24" fill="none" xmlns="http://www.w3.org/2000/svg">
<path opacity="0.4" d="M7.81965 22H16.1804C18.4891 22 20.3607 20.214 20.3607 18.0108V13.133C20.3607 12.4248 20.6555 11.7456 21.1803 11.2448C22.3962 10.0845 22.2381 8.16205 20.8475 7.19691L14.4588 2.763C12.9929 1.74567 11.0071 1.74567 9.54124 2.763L3.15251 7.19692C1.76187 8.16205 1.60381 10.0845 2.81969 11.2448C3.34448 11.7456 3.6393 12.4248 3.6393 13.133V18.0108C3.6393 20.214 5.5109 22 7.81965 22Z" fill="#28303F"/>
<path d="M11.1056 9.44699L9.10652 10.4465C8.42847 10.7855 7.99117 11.4801 8.02791 12.2373C8.17509 15.2709 8.93012 16.6487 10.887 18.187C11.5391 18.6996 12.4618 18.7008 13.113 18.187C15.0751 16.6391 15.8032 15.2441 15.9645 12.2468C16.0054 11.4849 15.5676 10.7835 14.8852 10.4423L12.8945 9.44699C12.3314 9.16546 11.6687 9.16546 11.1056 9.44699Z" fill="#28303F"/>
</svg>
