<svg width="24" height="24" viewBox="0 0 24 24" fill="none" xmlns="http://www.w3.org/2000/svg">
<path opacity="0.4" d="M7.81965 22H16.1804C18.4891 22 20.3607 20.214 20.3607 18.0108V13.133C20.3607 12.4248 20.6555 11.7456 21.1803 11.2448C22.3962 10.0845 22.2381 8.16205 20.8475 7.19691L14.4588 2.763C12.9929 1.74567 11.0071 1.74567 9.54124 2.763L3.15251 7.19692C1.76187 8.16205 1.60381 10.0845 2.81969 11.2448C3.34448 11.7456 3.6393 12.4248 3.6393 13.133V18.0108C3.6393 20.214 5.5109 22 7.81965 22Z" fill="#28303F"/>
<path fill-rule="evenodd" clip-rule="evenodd" d="M12.0094 12.25C10.7594 12.25 9.75 13.2596 9.75 14.5C9.75 15.7404 10.7594 16.75 12.0094 16.75C12.5836 16.75 13.1059 16.5377 13.5046 16.1869C13.8156 15.9133 14.2895 15.9436 14.5631 16.2546C14.8367 16.5656 14.8064 17.0395 14.4954 17.3131C13.8331 17.8959 12.9616 18.25 12.0094 18.25C9.93536 18.25 8.25 16.5733 8.25 14.5C8.25 12.4267 9.93536 10.75 12.0094 10.75C12.9616 10.75 13.8331 11.1041 14.4954 11.6869C14.8064 11.9605 14.8367 12.4344 14.5631 12.7454C14.2895 13.0564 13.8156 13.0867 13.5046 12.8131C13.1059 12.4623 12.5836 12.25 12.0094 12.25Z" fill="#28303F"/>
<path d="M16.5 10C16.5 10.5523 16.0523 11 15.5 11C14.9477 11 14.5 10.5523 14.5 10C14.5 9.44772 14.9477 9 15.5 9C16.0523 9 16.5 9.44772 16.5 10Z" fill="#28303F"/>
</svg>
