<svg width="24" height="24" viewBox="0 0 24 24" fill="none" xmlns="http://www.w3.org/2000/svg">
<path opacity="0.4" d="M21 17.9668V10.1503C21 8.93937 20.4604 7.7925 19.5301 7.02652L14.5301 2.90935C13.0577 1.69688 10.9423 1.69689 9.46986 2.90935L4.46986 7.02652C3.53964 7.7925 3 8.93937 3 10.1503V17.9668C3 20.1943 4.79086 22 7 22H17C19.2091 22 21 20.1943 21 17.9668Z" fill="#28303F"/>
<path d="M11.1056 9.44747L9.10652 10.447C8.42847 10.786 7.99117 11.4806 8.02791 12.2378C8.17509 15.2714 8.93012 16.6492 10.887 18.1874C11.5391 18.7001 12.4618 18.7013 13.113 18.1875C15.0751 16.6396 15.8032 15.2446 15.9645 12.2473C16.0054 11.4854 15.5676 10.784 14.8852 10.4428L12.8945 9.44747C12.3314 9.16595 11.6687 9.16595 11.1056 9.44747Z" fill="#28303F"/>
</svg>
