<svg width="24" height="24" viewBox="0 0 24 24" fill="none" xmlns="http://www.w3.org/2000/svg">
<path opacity="0.4" d="M21 17.9668V10.1503C21 8.93937 20.4604 7.7925 19.5301 7.02652L14.5301 2.90935C13.0577 1.69688 10.9423 1.69689 9.46986 2.90935L4.46986 7.02652C3.53964 7.7925 3 8.93937 3 10.1503V17.9668C3 20.1943 4.79086 22 7 22H17C19.2091 22 21 20.1943 21 17.9668Z" fill="#28303F"/>
<path fill-rule="evenodd" clip-rule="evenodd" d="M12.1768 8.93429C13.2507 7.86035 14.9919 7.86035 16.0659 8.93429C17.1398 10.0082 17.1398 11.7494 16.0659 12.8234L15.7123 13.1769C15.4194 13.4698 14.9446 13.4698 14.6517 13.1769C14.3588 12.884 14.3588 12.4092 14.6517 12.1163L15.0052 11.7627C15.4934 11.2746 15.4934 10.4831 15.0052 9.99495C14.5171 9.50679 13.7256 9.50679 13.2375 9.99495L11.8232 11.4092C11.3351 11.8973 11.3351 12.6888 11.8232 13.1769L10.7626 14.2376C9.68864 13.1636 9.68864 11.4224 10.7626 10.3485L12.1768 8.93429Z" fill="#28303F"/>
<path fill-rule="evenodd" clip-rule="evenodd" d="M11.8232 17.0657C10.7493 18.1397 9.00806 18.1397 7.93412 17.0657C6.86018 15.9918 6.86018 14.2506 7.93412 13.1766L8.28767 12.8231C8.58057 12.5302 9.05544 12.5302 9.34833 12.8231C9.64123 13.116 9.64123 13.5908 9.34833 13.8837L8.99478 14.2373C8.50662 14.7254 8.50662 15.5169 8.99478 16.0051C9.48293 16.4932 10.2744 16.4932 10.7625 16.0051L12.1768 14.5908C12.6649 14.1027 12.6649 13.3112 12.1768 12.8231L13.2374 11.7624C14.3114 12.8364 14.3114 14.5776 13.2374 15.6515L11.8232 17.0657Z" fill="#28303F"/>
</svg>
