<svg width="24" height="24" viewBox="0 0 24 24" fill="none" xmlns="http://www.w3.org/2000/svg">
<path opacity="0.4" d="M21 17.9668V10.1503C21 8.93937 20.4604 7.7925 19.5301 7.02652L14.5301 2.90935C13.0577 1.69688 10.9423 1.69689 9.46986 2.90935L4.46986 7.02652C3.53964 7.7925 3 8.93937 3 10.1503V17.9668C3 20.1943 4.79086 22 7 22H17C19.2091 22 21 20.1943 21 17.9668Z" fill="#28303F"/>
<path fill-rule="evenodd" clip-rule="evenodd" d="M15.9914 15.0974C16.6368 14.4916 16.6368 13.5084 15.9914 12.9026C15.0786 12.0459 13.6304 11 11.9999 11C10.3695 11 8.92127 12.0459 8.00853 12.9026C7.36304 13.5084 7.36304 14.4916 8.00853 15.0974C8.92127 15.9541 10.3695 17 11.9999 17C13.6304 17 15.0786 15.9541 15.9914 15.0974ZM11.9999 15C12.5522 15 12.9999 14.5523 12.9999 14C12.9999 13.4477 12.5522 13 11.9999 13C11.4477 13 10.9999 13.4477 10.9999 14C10.9999 14.5523 11.4477 15 11.9999 15Z" fill="#28303F"/>
</svg>
