<svg width="24" height="24" viewBox="0 0 24 24" fill="none" xmlns="http://www.w3.org/2000/svg">
<path opacity="0.4" d="M7.81965 22H16.1804C18.4891 22 20.3607 20.214 20.3607 18.0108V13.133C20.3607 12.4248 20.6555 11.7456 21.1803 11.2448C22.3962 10.0845 22.2381 8.16205 20.8475 7.19691L14.4588 2.763C12.9929 1.74567 11.0071 1.74567 9.54124 2.763L3.15251 7.19692C1.76187 8.16205 1.60381 10.0845 2.81969 11.2448C3.34448 11.7456 3.6393 12.4248 3.6393 13.133V18.0108C3.6393 20.214 5.5109 22 7.81965 22Z" fill="#28303F"/>
<path fill-rule="evenodd" clip-rule="evenodd" d="M12.1768 15.7627C12.0791 15.8603 11.9209 15.8603 11.8232 15.7627L10.5303 14.4698C10.2374 14.1769 9.76256 14.1769 9.46967 14.4698C9.17678 14.7627 9.17678 15.2376 9.46967 15.5305L10.7626 16.8234C11.446 17.5068 12.554 17.5068 13.2374 16.8234L14.5303 15.5305C14.8232 15.2376 14.8232 14.7627 14.5303 14.4698C14.2374 14.1769 13.7626 14.1769 13.4697 14.4698L12.1768 15.7627Z" fill="#28303F"/>
<path fill-rule="evenodd" clip-rule="evenodd" d="M12 16.75C12.4142 16.75 12.75 16.4142 12.75 16V9C12.75 8.58579 12.4142 8.25 12 8.25C11.5858 8.25 11.25 8.58579 11.25 9V16C11.25 16.4142 11.5858 16.75 12 16.75Z" fill="#28303F"/>
</svg>
