<svg width="24" height="24" viewBox="0 0 24 24" fill="none" xmlns="http://www.w3.org/2000/svg">
<path opacity="0.4" d="M7.81965 22H16.1804C18.4891 22 20.3607 20.214 20.3607 18.0108V13.133C20.3607 12.4248 20.6555 11.7456 21.1803 11.2448C22.3962 10.0845 22.2381 8.16205 20.8475 7.19691L14.4588 2.763C12.9929 1.74567 11.0071 1.74567 9.54124 2.763L3.15251 7.19692C1.76187 8.16205 1.60381 10.0845 2.81969 11.2448C3.34448 11.7456 3.6393 12.4248 3.6393 13.133V18.0108C3.6393 20.214 5.5109 22 7.81965 22Z" fill="#28303F"/>
<path fill-rule="evenodd" clip-rule="evenodd" d="M11.5758 10H12.4242C12.8928 10 13.2727 10.3582 13.2727 10.8C13.2727 11.3056 13.8137 11.6271 14.2578 11.3853L14.3029 11.3608C14.7087 11.1399 15.2276 11.271 15.4619 11.6536L15.8862 12.3464C16.1205 12.729 15.9814 13.2183 15.5756 13.4392C15.1313 13.6811 15.1313 14.3189 15.5756 14.5608C15.9814 14.7817 16.1205 15.271 15.8862 15.6536L15.4619 16.3464C15.2276 16.729 14.7087 16.8601 14.3029 16.6392L14.2578 16.6147C13.8137 16.3729 13.2727 16.6944 13.2727 17.2C13.2727 17.6418 12.8928 18 12.4242 18H11.5758C11.1071 18 10.7273 17.6418 10.7273 17.2C10.7273 16.6944 10.1863 16.3729 9.74222 16.6147L9.69713 16.6392C9.2913 16.8601 8.77237 16.729 8.53807 16.3464L8.11383 15.6536C7.87952 15.271 8.01857 14.7817 8.4244 14.5608C8.86868 14.3189 8.86867 13.6811 8.42439 13.4392C8.01856 13.2183 7.87951 12.729 8.11382 12.3464L8.53806 11.6536C8.77236 11.271 9.29129 11.1399 9.69712 11.3608L9.74222 11.3853C10.1863 11.6271 10.7273 11.3056 10.7273 10.8C10.7273 10.3582 11.1071 10 11.5758 10ZM12 15.5C12.8284 15.5 13.5 14.8284 13.5 14C13.5 13.1716 12.8284 12.5 12 12.5C11.1716 12.5 10.5 13.1716 10.5 14C10.5 14.8284 11.1716 15.5 12 15.5Z" fill="#28303F"/>
</svg>
