<svg width="24" height="24" viewBox="0 0 24 24" fill="none" xmlns="http://www.w3.org/2000/svg">
<path opacity="0.4" d="M7.81965 22H16.1804C18.4891 22 20.3607 20.214 20.3607 18.0108V13.133C20.3607 12.4248 20.6555 11.7456 21.1803 11.2448C22.3962 10.0845 22.2381 8.16205 20.8475 7.19691L14.4588 2.763C12.9929 1.74567 11.0071 1.74567 9.54124 2.763L3.15251 7.19692C1.76187 8.16205 1.60381 10.0845 2.81969 11.2448C3.34448 11.7456 3.6393 12.4248 3.6393 13.133V18.0108C3.6393 20.214 5.5109 22 7.81965 22Z" fill="#28303F"/>
<path fill-rule="evenodd" clip-rule="evenodd" d="M14.6517 16.6514C14.3588 16.9443 13.8839 16.9443 13.591 16.6514L9.34838 12.4088C9.05548 12.1159 9.05548 11.641 9.34838 11.3481C9.64127 11.0552 10.1161 11.0552 10.409 11.3481L14.6517 15.5908C14.9446 15.8837 14.9446 16.3585 14.6517 16.6514Z" fill="#28303F"/>
<path fill-rule="evenodd" clip-rule="evenodd" d="M9.34833 16.6518C9.05544 16.3589 9.05544 15.884 9.34833 15.5911L13.591 11.3485C13.8839 11.0556 14.3587 11.0556 14.6516 11.3485C14.9445 11.6414 14.9445 12.1163 14.6516 12.4092L10.409 16.6518C10.1161 16.9447 9.64123 16.9447 9.34833 16.6518Z" fill="#28303F"/>
</svg>
