<svg width="24" height="24" viewBox="0 0 24 24" fill="none" xmlns="http://www.w3.org/2000/svg">
<path opacity="0.4" d="M21 17.9668V10.1503C21 8.93937 20.4604 7.7925 19.5301 7.02652L14.5301 2.90935C13.0577 1.69688 10.9423 1.69689 9.46986 2.90935L4.46986 7.02652C3.53964 7.7925 3 8.93937 3 10.1503V17.9668C3 20.1943 4.79086 22 7 22H17C19.2091 22 21 20.1943 21 17.9668Z" fill="#28303F"/>
<path fill-rule="evenodd" clip-rule="evenodd" d="M12.1768 15.7627C12.0791 15.8603 11.9209 15.8603 11.8232 15.7627L10.5303 14.4698C10.2374 14.1769 9.76256 14.1769 9.46967 14.4698C9.17678 14.7627 9.17678 15.2376 9.46967 15.5305L10.7626 16.8234C11.446 17.5068 12.554 17.5068 13.2374 16.8234L14.5303 15.5305C14.8232 15.2376 14.8232 14.7627 14.5303 14.4698C14.2374 14.1769 13.7626 14.1769 13.4697 14.4698L12.1768 15.7627Z" fill="#28303F"/>
<path fill-rule="evenodd" clip-rule="evenodd" d="M12 16.75C12.4142 16.75 12.75 16.4142 12.75 16V9C12.75 8.58579 12.4142 8.25 12 8.25C11.5858 8.25 11.25 8.58579 11.25 9V16C11.25 16.4142 11.5858 16.75 12 16.75Z" fill="#28303F"/>
</svg>
