<svg width="24" height="24" viewBox="0 0 24 24" fill="none" xmlns="http://www.w3.org/2000/svg">
<path opacity="0.4" d="M21 17.9668V10.1503C21 8.93937 20.4604 7.7925 19.5301 7.02652L14.5301 2.90935C13.0577 1.69688 10.9423 1.69689 9.46986 2.90935L4.46986 7.02652C3.53964 7.7925 3 8.93937 3 10.1503V17.9668C3 20.1943 4.79086 22 7 22H17C19.2091 22 21 20.1943 21 17.9668Z" fill="#28303F"/>
<path d="M7 13.5C7 15.433 8.567 17 10.5 17H14.5C15.8807 17 17 15.8807 17 14.5C17 13.1193 15.8807 12 14.5 12C14.2274 12 13.9649 12.0436 13.7193 12.1243C13.1848 10.8752 11.9446 10 10.5 10C8.567 10 7 11.567 7 13.5Z" fill="#28303F"/>
</svg>
