<svg width="24" height="24" viewBox="0 0 24 24" fill="none" xmlns="http://www.w3.org/2000/svg">
<path opacity="0.4" d="M7.81965 22H16.1804C18.4891 22 20.3607 20.214 20.3607 18.0108V13.133C20.3607 12.4248 20.6555 11.7456 21.1803 11.2448C22.3962 10.0845 22.2381 8.16205 20.8475 7.19691L14.4588 2.763C12.9929 1.74567 11.0071 1.74567 9.54124 2.763L3.15251 7.19692C1.76187 8.16205 1.60381 10.0845 2.81969 11.2448C3.34448 11.7456 3.6393 12.4248 3.6393 13.133V18.0108C3.6393 20.214 5.5109 22 7.81965 22Z" fill="#28303F"/>
<path fill-rule="evenodd" clip-rule="evenodd" d="M12.1768 10.2373C12.0791 10.1397 11.9209 10.1397 11.8232 10.2373L10.5303 11.5302C10.2374 11.8231 9.76256 11.8231 9.46967 11.5302C9.17678 11.2373 9.17678 10.7624 9.46967 10.4695L10.7626 9.17663C11.446 8.49321 12.554 8.49321 13.2374 9.17663L14.5303 10.4695C14.8232 10.7624 14.8232 11.2373 14.5303 11.5302C14.2374 11.8231 13.7626 11.8231 13.4697 11.5302L12.1768 10.2373Z" fill="#28303F"/>
<path fill-rule="evenodd" clip-rule="evenodd" d="M12 9.25C12.4142 9.25 12.75 9.58579 12.75 10V17C12.75 17.4142 12.4142 17.75 12 17.75C11.5858 17.75 11.25 17.4142 11.25 17V10C11.25 9.58579 11.5858 9.25 12 9.25Z" fill="#28303F"/>
</svg>
