<svg width="24" height="24" viewBox="0 0 24 24" fill="none" xmlns="http://www.w3.org/2000/svg">
<path opacity="0.4" d="M7.81965 22H16.1804C18.4891 22 20.3607 20.214 20.3607 18.0108V13.133C20.3607 12.4248 20.6555 11.7456 21.1803 11.2448C22.3962 10.0845 22.2381 8.16205 20.8475 7.19691L14.4588 2.763C12.9929 1.74567 11.0071 1.74567 9.54124 2.763L3.15251 7.19692C1.76187 8.16205 1.60381 10.0845 2.81969 11.2448C3.34448 11.7456 3.6393 12.4248 3.6393 13.133V18.0108C3.6393 20.214 5.5109 22 7.81965 22Z" fill="#28303F"/>
<path fill-rule="evenodd" clip-rule="evenodd" d="M15.9914 15.0974C16.6368 14.4916 16.6368 13.5084 15.9914 12.9026C15.0786 12.0459 13.6304 11 11.9999 11C10.3695 11 8.92127 12.0459 8.00853 12.9026C7.36304 13.5084 7.36304 14.4916 8.00853 15.0974C8.92127 15.9541 10.3695 17 11.9999 17C13.6304 17 15.0786 15.9541 15.9914 15.0974ZM11.9999 15C12.5522 15 12.9999 14.5523 12.9999 14C12.9999 13.4477 12.5522 13 11.9999 13C11.4477 13 10.9999 13.4477 10.9999 14C10.9999 14.5523 11.4477 15 11.9999 15Z" fill="#28303F"/>
</svg>
