<svg width="24" height="24" viewBox="0 0 24 24" fill="none" xmlns="http://www.w3.org/2000/svg">
<path opacity="0.4" d="M21 17.9668V10.1503C21 8.93937 20.4604 7.7925 19.5301 7.02652L14.5301 2.90935C13.0577 1.69688 10.9423 1.69689 9.46986 2.90935L4.46986 7.02652C3.53964 7.7925 3 8.93937 3 10.1503V17.9668C3 20.1943 4.79086 22 7 22H17C19.2091 22 21 20.1943 21 17.9668Z" fill="#28303F"/>
<path fill-rule="evenodd" clip-rule="evenodd" d="M15 8.75C14.5858 8.75 14.25 9.08579 14.25 9.5C14.25 9.62194 14.2785 9.73506 14.3286 9.83503C14.4527 10.0827 14.7075 10.25 15 10.25C15.4142 10.25 15.75 9.91421 15.75 9.5C15.75 9.08579 15.4142 8.75 15 8.75ZM12.75 9.5C12.75 8.25736 13.7574 7.25 15 7.25C16.2426 7.25 17.25 8.25736 17.25 9.5C17.25 10.7426 16.2426 11.75 15 11.75C14.3928 11.75 13.8424 11.5094 13.4382 11.1194L10.2329 12.7221C10.2442 12.8133 10.25 12.906 10.25 13C10.25 13.094 10.2442 13.1867 10.2329 13.2779L13.4382 14.8806C13.8424 14.4906 14.3928 14.25 15 14.25C16.2426 14.25 17.25 15.2574 17.25 16.5C17.25 17.7426 16.2426 18.75 15 18.75C13.7574 18.75 12.75 17.7426 12.75 16.5C12.75 16.406 12.7558 16.3133 12.7671 16.2221L9.56185 14.6194C9.15761 15.0094 8.60722 15.25 8 15.25C6.75736 15.25 5.75 14.2426 5.75 13C5.75 11.7574 6.75736 10.75 8 10.75C8.60722 10.75 9.15761 10.9906 9.56185 11.3806L12.7671 9.77794C12.7558 9.68675 12.75 9.59398 12.75 9.5ZM8 12.25C7.58579 12.25 7.25 12.5858 7.25 13C7.25 13.4142 7.58579 13.75 8 13.75C8.29253 13.75 8.54733 13.5827 8.67138 13.335C8.72146 13.2351 8.75 13.1219 8.75 13C8.75 12.8781 8.72146 12.7649 8.67138 12.665C8.54733 12.4173 8.29253 12.25 8 12.25ZM15 15.75C14.7075 15.75 14.4527 15.9173 14.3286 16.165C14.2785 16.2649 14.25 16.3781 14.25 16.5C14.25 16.9142 14.5858 17.25 15 17.25C15.4142 17.25 15.75 16.9142 15.75 16.5C15.75 16.0858 15.4142 15.75 15 15.75Z" fill="#28303F"/>
</svg>
