<svg width="24" height="24" viewBox="0 0 24 24" fill="none" xmlns="http://www.w3.org/2000/svg">
<path opacity="0.4" d="M7.81965 22H16.1804C18.4891 22 20.3607 20.214 20.3607 18.0108V13.133C20.3607 12.4248 20.6555 11.7456 21.1803 11.2448C22.3962 10.0845 22.2381 8.16205 20.8475 7.19691L14.4588 2.763C12.9929 1.74567 11.0071 1.74567 9.54124 2.763L3.15251 7.19692C1.76187 8.16205 1.60381 10.0845 2.81969 11.2448C3.34448 11.7456 3.6393 12.4248 3.6393 13.133V18.0108C3.6393 20.214 5.5109 22 7.81965 22Z" fill="#28303F"/>
<path fill-rule="evenodd" clip-rule="evenodd" d="M12 19C12 19 15.5 16.0853 15.5 13.6C15.5 11.1147 13.6569 10 12 10C10.3431 10 8.5 11.1147 8.5 13.6C8.5 16.0853 12 19 12 19ZM12 15C12.8284 15 13.5 14.3284 13.5 13.5C13.5 12.6716 12.8284 12 12 12C11.1716 12 10.5 12.6716 10.5 13.5C10.5 14.3284 11.1716 15 12 15Z" fill="#28303F"/>
</svg>
