<svg width="24" height="24" viewBox="0 0 24 24" fill="none" xmlns="http://www.w3.org/2000/svg">
<path opacity="0.4" d="M21 17.9668V10.1503C21 8.93937 20.4604 7.7925 19.5301 7.02652L14.5301 2.90935C13.0577 1.69688 10.9423 1.69689 9.46986 2.90935L4.46986 7.02652C3.53964 7.7925 3 8.93937 3 10.1503V17.9668C3 20.1943 4.79086 22 7 22H17C19.2091 22 21 20.1943 21 17.9668Z" fill="#28303F"/>
<path fill-rule="evenodd" clip-rule="evenodd" d="M12 9.25C12.4142 9.25 12.75 9.58579 12.75 10V12C12.75 12.4142 12.4142 12.75 12 12.75C11.5858 12.75 11.25 12.4142 11.25 12V10C11.25 9.58579 11.5858 9.25 12 9.25Z" fill="#28303F"/>
<path fill-rule="evenodd" clip-rule="evenodd" d="M9.4963 10.7917C9.80685 11.0658 9.8364 11.5398 9.5623 11.8503C9.05623 12.4237 8.75 13.1751 8.75 13.9998C8.75 15.7948 10.2051 17.2498 12 17.2498C13.7949 17.2498 15.25 15.7948 15.25 13.9998C15.25 13.1751 14.9438 12.4237 14.4377 11.8503C14.1636 11.5398 14.1931 11.0658 14.5037 10.7917C14.8143 10.5176 15.2882 10.5472 15.5623 10.8577C16.301 11.6946 16.75 12.7957 16.75 13.9998C16.75 16.6232 14.6234 18.7498 12 18.7498C9.37665 18.7498 7.25 16.6232 7.25 13.9998C7.25 12.7957 7.69904 11.6946 8.4377 10.8577C8.71179 10.5472 9.18575 10.5176 9.4963 10.7917Z" fill="#28303F"/>
</svg>
