<svg width="24" height="24" viewBox="0 0 24 24" fill="none" xmlns="http://www.w3.org/2000/svg">
<path opacity="0.4" d="M21 17.9668V10.1503C21 8.93937 20.4604 7.7925 19.5301 7.02652L14.5301 2.90935C13.0577 1.69688 10.9423 1.69689 9.46986 2.90935L4.46986 7.02652C3.53964 7.7925 3 8.93937 3 10.1503V17.9668C3 20.1943 4.79086 22 7 22H17C19.2091 22 21 20.1943 21 17.9668Z" fill="#28303F"/>
<path fill-rule="evenodd" clip-rule="evenodd" d="M8 10.25C8.41421 10.25 8.75 10.5858 8.75 11V15C8.75 15.4142 8.41421 15.75 8 15.75C7.58579 15.75 7.25 15.4142 7.25 15V11C7.25 10.5858 7.58579 10.25 8 10.25Z" fill="#28303F"/>
<path fill-rule="evenodd" clip-rule="evenodd" d="M16 10.25C16.4142 10.25 16.75 10.5858 16.75 11V15C16.75 15.4142 16.4142 15.75 16 15.75C15.5858 15.75 15.25 15.4142 15.25 15V11C15.25 10.5858 15.5858 10.25 16 10.25Z" fill="#28303F"/>
<path fill-rule="evenodd" clip-rule="evenodd" d="M12 8.25C12.4142 8.25 12.75 8.58579 12.75 9V17C12.75 17.4142 12.4142 17.75 12 17.75C11.5858 17.75 11.25 17.4142 11.25 17V9C11.25 8.58579 11.5858 8.25 12 8.25Z" fill="#28303F"/>
</svg>
