<svg width="24" height="24" viewBox="0 0 24 24" fill="none" xmlns="http://www.w3.org/2000/svg">
<path opacity="0.4" d="M21 17.9668V10.1503C21 8.93937 20.4604 7.7925 19.5301 7.02652L14.5301 2.90935C13.0577 1.69688 10.9423 1.69689 9.46986 2.90935L4.46986 7.02652C3.53964 7.7925 3 8.93937 3 10.1503V17.9668C3 20.1943 4.79086 22 7 22H17C19.2091 22 21 20.1943 21 17.9668Z" fill="#28303F"/>
<path d="M12.75 17C12.75 17.4142 12.4142 17.75 12 17.75C11.5858 17.75 11.25 17.4142 11.25 17C11.25 16.5858 11.5858 16.25 12 16.25C12.4142 16.25 12.75 16.5858 12.75 17Z" fill="#28303F"/>
<path fill-rule="evenodd" clip-rule="evenodd" d="M12 11.75C10.55 11.75 9.23854 12.3368 8.28765 13.2877C7.99476 13.5806 7.51989 13.5806 7.22699 13.2877C6.9341 12.9948 6.9341 12.5199 7.22699 12.227C8.44768 11.0063 10.1362 10.25 12 10.25C13.8637 10.25 15.5522 11.0063 16.7729 12.227C17.0658 12.5199 17.0658 12.9948 16.7729 13.2877C16.48 13.5806 16.0052 13.5806 15.7123 13.2877C14.7614 12.3368 13.4499 11.75 12 11.75ZM12 14.75C11.3784 14.75 10.817 15.001 10.409 15.409C10.1161 15.7019 9.64121 15.7019 9.34831 15.409C9.05542 15.1161 9.05542 14.6412 9.34831 14.3483C10.0261 13.6706 10.9646 13.25 12 13.25C13.0353 13.25 13.9738 13.6706 14.6516 14.3483C14.9445 14.6412 14.9445 15.1161 14.6516 15.409C14.3587 15.7019 13.8838 15.7019 13.591 15.409C13.183 15.001 12.6215 14.75 12 14.75Z" fill="#28303F"/>
</svg>
