<svg width="24" height="24" viewBox="0 0 24 24" fill="none" xmlns="http://www.w3.org/2000/svg">
<path opacity="0.4" d="M21 17.9668V10.1503C21 8.93937 20.4604 7.7925 19.5301 7.02652L14.5301 2.90935C13.0577 1.69688 10.9423 1.69689 9.46986 2.90935L4.46986 7.02652C3.53964 7.7925 3 8.93937 3 10.1503V17.9668C3 20.1943 4.79086 22 7 22H17C19.2091 22 21 20.1943 21 17.9668Z" fill="#28303F"/>
<path fill-rule="evenodd" clip-rule="evenodd" d="M12.1768 10.2373C12.0791 10.1397 11.9209 10.1397 11.8232 10.2373L10.5303 11.5302C10.2374 11.8231 9.76256 11.8231 9.46967 11.5302C9.17678 11.2373 9.17678 10.7624 9.46967 10.4695L10.7626 9.17663C11.446 8.49321 12.554 8.49321 13.2374 9.17663L14.5303 10.4695C14.8232 10.7624 14.8232 11.2373 14.5303 11.5302C14.2374 11.8231 13.7626 11.8231 13.4697 11.5302L12.1768 10.2373Z" fill="#28303F"/>
<path fill-rule="evenodd" clip-rule="evenodd" d="M12 9.25C12.4142 9.25 12.75 9.58579 12.75 10V17C12.75 17.4142 12.4142 17.75 12 17.75C11.5858 17.75 11.25 17.4142 11.25 17V10C11.25 9.58579 11.5858 9.25 12 9.25Z" fill="#28303F"/>
</svg>
