<svg width="24" height="24" viewBox="0 0 24 24" fill="none" xmlns="http://www.w3.org/2000/svg">
<path opacity="0.4" d="M7.81965 22H16.1804C18.4891 22 20.3607 20.214 20.3607 18.0108V13.133C20.3607 12.4248 20.6555 11.7456 21.1803 11.2448C22.3962 10.0845 22.2381 8.16205 20.8475 7.19691L14.4588 2.763C12.9929 1.74567 11.0071 1.74567 9.54124 2.763L3.15251 7.19692C1.76187 8.16205 1.60381 10.0845 2.81969 11.2448C3.34448 11.7456 3.6393 12.4248 3.6393 13.133V18.0108C3.6393 20.214 5.5109 22 7.81965 22Z" fill="#28303F"/>
<path fill-rule="evenodd" clip-rule="evenodd" d="M13.25 11C13.25 10.5858 13.5858 10.25 14 10.25H16C16.2841 10.25 16.5438 10.4105 16.6709 10.6646L17.6709 12.6646C17.8561 13.0351 17.7059 13.4856 17.3355 13.6708C16.965 13.8561 16.5145 13.7059 16.3292 13.3354L16 12.6771L14.5653 15.5466C13.9204 16.8364 12.0797 16.8364 11.4348 15.5466L10.2236 13.1243C10.1315 12.94 9.86857 12.94 9.77644 13.1243L7.67086 17.3354C7.48562 17.7059 7.03512 17.8561 6.66463 17.6708C6.29415 17.4856 6.14398 17.0351 6.32922 16.6646L8.43479 12.4534C9.07971 11.1636 10.9204 11.1636 11.5653 12.4534L12.7764 14.8757C12.8686 15.06 13.1315 15.06 13.2236 14.8757L14.7865 11.75H14C13.5858 11.75 13.25 11.4142 13.25 11Z" fill="#28303F"/>
</svg>
