<svg width="24" height="24" viewBox="0 0 24 24" fill="none" xmlns="http://www.w3.org/2000/svg">
<path opacity="0.4" d="M7.81965 22H16.1804C18.4891 22 20.3607 20.214 20.3607 18.0108V13.133C20.3607 12.4248 20.6555 11.7456 21.1803 11.2448C22.3962 10.0845 22.2381 8.16205 20.8475 7.19691L14.4588 2.763C12.9929 1.74567 11.0071 1.74567 9.54124 2.763L3.15251 7.19692C1.76187 8.16205 1.60381 10.0845 2.81969 11.2448C3.34448 11.7456 3.6393 12.4248 3.6393 13.133V18.0108C3.6393 20.214 5.5109 22 7.81965 22Z" fill="#28303F"/>
<path fill-rule="evenodd" clip-rule="evenodd" d="M10 10C8.34315 10 7 11.3431 7 13V15C7 16.6569 8.34315 18 10 18H14C15.6569 18 17 16.6569 17 15V13C17 11.3431 15.6569 10 14 10H10ZM10.3354 12.3292C9.96493 12.1439 9.51442 12.2941 9.32918 12.6646C9.14394 13.0351 9.29411 13.4856 9.66459 13.6708L10.7702 14.2236C11.5444 14.6107 12.4556 14.6107 13.2298 14.2236L14.3354 13.6708C14.7059 13.4856 14.8561 13.0351 14.6708 12.6646C14.4856 12.2941 14.0351 12.1439 13.6646 12.3292L12.559 12.882C12.2071 13.0579 11.7929 13.0579 11.441 12.882L10.3354 12.3292Z" fill="#28303F"/>
</svg>
