<svg width="24" height="24" viewBox="0 0 24 24" fill="none" xmlns="http://www.w3.org/2000/svg">
<path opacity="0.4" d="M7.81965 22H16.1804C18.4891 22 20.3607 20.214 20.3607 18.0108V13.133C20.3607 12.4248 20.6555 11.7456 21.1803 11.2448C22.3962 10.0845 22.2381 8.16205 20.8475 7.19691L14.4588 2.763C12.9929 1.74567 11.0071 1.74567 9.54124 2.763L3.15251 7.19692C1.76187 8.16205 1.60381 10.0845 2.81969 11.2448C3.34448 11.7456 3.6393 12.4248 3.6393 13.133V18.0108C3.6393 20.214 5.5109 22 7.81965 22Z" fill="#28303F"/>
<path fill-rule="evenodd" clip-rule="evenodd" d="M12.1768 8.93429C13.2507 7.86035 14.9919 7.86035 16.0659 8.93429C17.1398 10.0082 17.1398 11.7494 16.0659 12.8234L15.7123 13.1769C15.4194 13.4698 14.9446 13.4698 14.6517 13.1769C14.3588 12.884 14.3588 12.4092 14.6517 12.1163L15.0052 11.7627C15.4934 11.2746 15.4934 10.4831 15.0052 9.99495C14.5171 9.50679 13.7256 9.50679 13.2375 9.99495L11.8232 11.4092C11.3351 11.8973 11.3351 12.6888 11.8232 13.1769L10.7626 14.2376C9.68864 13.1636 9.68864 11.4224 10.7626 10.3485L12.1768 8.93429Z" fill="#28303F"/>
<path fill-rule="evenodd" clip-rule="evenodd" d="M11.8232 17.0657C10.7493 18.1397 9.00806 18.1397 7.93412 17.0657C6.86018 15.9918 6.86018 14.2506 7.93412 13.1766L8.28767 12.8231C8.58057 12.5302 9.05544 12.5302 9.34833 12.8231C9.64123 13.116 9.64123 13.5908 9.34833 13.8837L8.99478 14.2373C8.50662 14.7254 8.50662 15.5169 8.99478 16.0051C9.48293 16.4932 10.2744 16.4932 10.7625 16.0051L12.1768 14.5908C12.6649 14.1027 12.6649 13.3112 12.1768 12.8231L13.2374 11.7624C14.3114 12.8364 14.3114 14.5776 13.2374 15.6515L11.8232 17.0657Z" fill="#28303F"/>
</svg>
