<svg width="24" height="24" viewBox="0 0 24 24" fill="none" xmlns="http://www.w3.org/2000/svg">
<path opacity="0.4" d="M21 17.9668V10.1503C21 8.93937 20.4604 7.7925 19.5301 7.02652L14.5301 2.90935C13.0577 1.69688 10.9423 1.69689 9.46986 2.90935L4.46986 7.02652C3.53964 7.7925 3 8.93937 3 10.1503V17.9668C3 20.1943 4.79086 22 7 22H17C19.2091 22 21 20.1943 21 17.9668Z" fill="#28303F"/>
<path fill-rule="evenodd" clip-rule="evenodd" d="M13.25 17C13.25 17.4142 13.5858 17.75 14 17.75H16C16.2841 17.75 16.5438 17.5895 16.6709 17.3354L17.6709 15.3354C17.8561 14.9649 17.7059 14.5144 17.3355 14.3292C16.965 14.1439 16.5145 14.2941 16.3292 14.6646L16 15.3229L14.5653 12.4534C13.9204 11.1636 12.0797 11.1636 11.4348 12.4534L10.2236 14.8757C10.1315 15.06 9.86857 15.06 9.77644 14.8757L7.67086 10.6646C7.48562 10.2941 7.03512 10.1439 6.66463 10.3292C6.29415 10.5144 6.14398 10.9649 6.32922 11.3354L8.43479 15.5466C9.07971 16.8364 10.9204 16.8364 11.5653 15.5466L12.7764 13.1243C12.8686 12.94 13.1315 12.94 13.2236 13.1243L14.7865 16.25H14C13.5858 16.25 13.25 16.5858 13.25 17Z" fill="#28303F"/>
</svg>
