<svg width="24" height="24" viewBox="0 0 24 24" fill="none" xmlns="http://www.w3.org/2000/svg">
<path opacity="0.4" d="M7.81965 22H16.1804C18.4891 22 20.3607 20.214 20.3607 18.0108V13.133C20.3607 12.4248 20.6555 11.7456 21.1803 11.2448C22.3962 10.0845 22.2381 8.16205 20.8475 7.19691L14.4588 2.763C12.9929 1.74567 11.0071 1.74567 9.54124 2.763L3.15251 7.19692C1.76187 8.16205 1.60381 10.0845 2.81969 11.2448C3.34448 11.7456 3.6393 12.4248 3.6393 13.133V18.0108C3.6393 20.214 5.5109 22 7.81965 22Z" fill="#28303F"/>
<path fill-rule="evenodd" clip-rule="evenodd" d="M8 11.25C8.41421 11.25 8.75 11.5858 8.75 12V16C8.75 16.4142 8.41421 16.75 8 16.75C7.58579 16.75 7.25 16.4142 7.25 16V12C7.25 11.5858 7.58579 11.25 8 11.25Z" fill="#28303F"/>
<path fill-rule="evenodd" clip-rule="evenodd" d="M16 11.25C16.4142 11.25 16.75 11.5858 16.75 12V16C16.75 16.4142 16.4142 16.75 16 16.75C15.5858 16.75 15.25 16.4142 15.25 16V12C15.25 11.5858 15.5858 11.25 16 11.25Z" fill="#28303F"/>
<path fill-rule="evenodd" clip-rule="evenodd" d="M12 9.25C12.4142 9.25 12.75 9.58579 12.75 10V18C12.75 18.4142 12.4142 18.75 12 18.75C11.5858 18.75 11.25 18.4142 11.25 18V10C11.25 9.58579 11.5858 9.25 12 9.25Z" fill="#28303F"/>
</svg>
