<svg width="24" height="24" viewBox="0 0 24 24" fill="none" xmlns="http://www.w3.org/2000/svg">
<path opacity="0.4" d="M7.81965 22H16.1804C18.4891 22 20.3607 20.214 20.3607 18.0108V13.133C20.3607 12.4248 20.6555 11.7456 21.1803 11.2448C22.3962 10.0845 22.2381 8.16205 20.8475 7.19691L14.4588 2.763C12.9929 1.74567 11.0071 1.74567 9.54124 2.763L3.15251 7.19692C1.76187 8.16205 1.60381 10.0845 2.81969 11.2448C3.34448 11.7456 3.6393 12.4248 3.6393 13.133V18.0108C3.6393 20.214 5.5109 22 7.81965 22Z" fill="#28303F"/>
<path fill-rule="evenodd" clip-rule="evenodd" d="M15 9.75C14.5858 9.75 14.25 10.0858 14.25 10.5C14.25 10.6219 14.2785 10.7351 14.3286 10.835C14.4527 11.0827 14.7075 11.25 15 11.25C15.4142 11.25 15.75 10.9142 15.75 10.5C15.75 10.0858 15.4142 9.75 15 9.75ZM12.75 10.5C12.75 9.25736 13.7574 8.25 15 8.25C16.2426 8.25 17.25 9.25736 17.25 10.5C17.25 11.7426 16.2426 12.75 15 12.75C14.4206 12.75 13.893 12.531 13.4947 12.1721L11.2229 13.6505C11.2408 13.7646 11.25 13.8813 11.25 14C11.25 14.1187 11.2408 14.2354 11.2229 14.3495L13.4947 15.8279C13.893 15.469 14.4206 15.25 15 15.25C16.2426 15.25 17.25 16.2574 17.25 17.5C17.25 18.7426 16.2426 19.75 15 19.75C13.7574 19.75 12.75 18.7426 12.75 17.5C12.75 17.3813 12.7592 17.2646 12.7771 17.1505L10.5053 15.6721C10.107 16.031 9.57938 16.25 9 16.25C7.75736 16.25 6.75 15.2426 6.75 14C6.75 12.7574 7.75736 11.75 9 11.75C9.57938 11.75 10.107 11.969 10.5053 12.3279L12.7771 10.8495C12.7592 10.7354 12.75 10.6187 12.75 10.5ZM9 13.25C8.58579 13.25 8.25 13.5858 8.25 14C8.25 14.4142 8.58579 14.75 9 14.75C9.29253 14.75 9.54733 14.5827 9.67138 14.335C9.72146 14.2351 9.75 14.1219 9.75 14C9.75 13.8781 9.72146 13.7649 9.67138 13.665C9.54733 13.4173 9.29253 13.25 9 13.25ZM15 16.75C14.7075 16.75 14.4527 16.9173 14.3286 17.165C14.2785 17.2649 14.25 17.3781 14.25 17.5C14.25 17.9142 14.5858 18.25 15 18.25C15.4142 18.25 15.75 17.9142 15.75 17.5C15.75 17.0858 15.4142 16.75 15 16.75Z" fill="#28303F"/>
</svg>
