<svg width="24" height="24" viewBox="0 0 24 24" fill="none" xmlns="http://www.w3.org/2000/svg">
<path opacity="0.4" d="M7.81965 22H16.1804C18.4891 22 20.3607 20.214 20.3607 18.0108V13.133C20.3607 12.4248 20.6555 11.7456 21.1803 11.2448C22.3962 10.0845 22.2381 8.16205 20.8475 7.19691L14.4588 2.763C12.9929 1.74567 11.0071 1.74567 9.54124 2.763L3.15251 7.19692C1.76187 8.16205 1.60381 10.0845 2.81969 11.2448C3.34448 11.7456 3.6393 12.4248 3.6393 13.133V18.0108C3.6393 20.214 5.5109 22 7.81965 22Z" fill="#28303F"/>
<path fill-rule="evenodd" clip-rule="evenodd" d="M13.45 8.40004C13.7814 8.64857 13.8485 9.11867 13.6 9.45004L11.5 12.25H14C14.2841 12.25 14.5438 12.4105 14.6708 12.6646C14.7979 12.9187 14.7705 13.2228 14.6 13.45L11.6 17.45C11.3515 17.7814 10.8814 17.8486 10.55 17.6C10.2186 17.3515 10.1515 16.8814 10.4 16.55L12.5 13.75H10C9.71593 13.75 9.45623 13.5895 9.32918 13.3355C9.20214 13.0814 9.22956 12.7773 9.4 12.55L12.4 8.55004C12.6485 8.21867 13.1186 8.15152 13.45 8.40004Z" fill="#28303F"/>
</svg>
