<svg width="24" height="24" viewBox="0 0 24 24" fill="none" xmlns="http://www.w3.org/2000/svg">
<path opacity="0.4" d="M7.81965 22H16.1804C18.4891 22 20.3607 20.214 20.3607 18.0108V13.133C20.3607 12.4248 20.6555 11.7456 21.1803 11.2448C22.3962 10.0845 22.2381 8.16205 20.8475 7.19691L14.4588 2.763C12.9929 1.74567 11.0071 1.74567 9.54124 2.763L3.15251 7.19692C1.76187 8.16205 1.60381 10.0845 2.81969 11.2448C3.34448 11.7456 3.6393 12.4248 3.6393 13.133V18.0108C3.6393 20.214 5.5109 22 7.81965 22Z" fill="#28303F"/>
<path fill-rule="evenodd" clip-rule="evenodd" d="M10.5 11.75C10.0858 11.75 9.75 12.0858 9.75 12.5V13.5C9.75 14.7426 8.74264 15.75 7.5 15.75H7C6.58579 15.75 6.25 15.4142 6.25 15C6.25 14.5858 6.58579 14.25 7 14.25H7.5C7.91421 14.25 8.25 13.9142 8.25 13.5V12.5C8.25 11.2574 9.25736 10.25 10.5 10.25C11.7426 10.25 12.75 11.2574 12.75 12.5V15.5C12.75 15.9142 13.0858 16.25 13.5 16.25C13.9142 16.25 14.25 15.9142 14.25 15.5C14.25 14.2574 15.2574 13.25 16.5 13.25H17C17.4142 13.25 17.75 13.5858 17.75 14C17.75 14.4142 17.4142 14.75 17 14.75H16.5C16.0858 14.75 15.75 15.0858 15.75 15.5C15.75 16.7426 14.7426 17.75 13.5 17.75C12.2574 17.75 11.25 16.7426 11.25 15.5V12.5C11.25 12.0858 10.9142 11.75 10.5 11.75Z" fill="#28303F"/>
</svg>
