<svg width="24" height="24" viewBox="0 0 24 24" fill="none" xmlns="http://www.w3.org/2000/svg">
<path opacity="0.4" d="M21 17.9668V10.1503C21 8.93937 20.4604 7.7925 19.5301 7.02652L14.5301 2.90935C13.0577 1.69688 10.9423 1.69689 9.46986 2.90935L4.46986 7.02652C3.53964 7.7925 3 8.93937 3 10.1503V17.9668C3 20.1943 4.79086 22 7 22H17C19.2091 22 21 20.1943 21 17.9668Z" fill="#28303F"/>
<path fill-rule="evenodd" clip-rule="evenodd" d="M15.75 14C15.75 14.4142 15.4142 14.75 15 14.75L9 14.75C8.58579 14.75 8.25 14.4142 8.25 14C8.25 13.5858 8.58579 13.25 9 13.25L15 13.25C15.4142 13.25 15.75 13.5858 15.75 14Z" fill="#28303F"/>
</svg>
