<svg width="24" height="24" viewBox="0 0 24 24" fill="none" xmlns="http://www.w3.org/2000/svg">
<path opacity="0.4" d="M21 17.9668V10.1503C21 8.93937 20.4604 7.7925 19.5301 7.02652L14.5301 2.90935C13.0577 1.69688 10.9423 1.69689 9.46986 2.90935L4.46986 7.02652C3.53964 7.7925 3 8.93937 3 10.1503V17.9668C3 20.1943 4.79086 22 7 22H17C19.2091 22 21 20.1943 21 17.9668Z" fill="#28303F"/>
<path fill-rule="evenodd" clip-rule="evenodd" d="M7.25 11C7.25 10.5858 7.58579 10.25 8 10.25H10C10.4142 10.25 10.75 10.5858 10.75 11C10.75 11.4142 10.4142 11.75 10 11.75H8C7.58579 11.75 7.25 11.4142 7.25 11Z" fill="#28303F"/>
<path fill-rule="evenodd" clip-rule="evenodd" d="M11.25 11C11.25 10.5858 11.5858 10.25 12 10.25L16 10.25C16.4142 10.25 16.75 10.5858 16.75 11C16.75 11.4142 16.4142 11.75 16 11.75L12 11.75C11.5858 11.75 11.25 11.4142 11.25 11Z" fill="#28303F"/>
<path fill-rule="evenodd" clip-rule="evenodd" d="M13.25 16C13.25 15.5858 13.5858 15.25 14 15.25H16C16.4142 15.25 16.75 15.5858 16.75 16C16.75 16.4142 16.4142 16.75 16 16.75H14C13.5858 16.75 13.25 16.4142 13.25 16Z" fill="#28303F"/>
<path fill-rule="evenodd" clip-rule="evenodd" d="M7.25 16C7.25 15.5858 7.58579 15.25 8 15.25L12 15.25C12.4142 15.25 12.75 15.5858 12.75 16C12.75 16.4142 12.4142 16.75 12 16.75H8C7.58579 16.75 7.25 16.4142 7.25 16Z" fill="#28303F"/>
<path fill-rule="evenodd" clip-rule="evenodd" d="M10 9.25C10.4142 9.25 10.75 9.58579 10.75 10V12C10.75 12.4142 10.4142 12.75 10 12.75C9.58579 12.75 9.25 12.4142 9.25 12V10C9.25 9.58579 9.58579 9.25 10 9.25Z" fill="#28303F"/>
<path fill-rule="evenodd" clip-rule="evenodd" d="M14 14.25C14.4142 14.25 14.75 14.5858 14.75 15V17C14.75 17.4142 14.4142 17.75 14 17.75C13.5858 17.75 13.25 17.4142 13.25 17V15C13.25 14.5858 13.5858 14.25 14 14.25Z" fill="#28303F"/>
</svg>
