<svg width="24" height="24" viewBox="0 0 24 24" fill="none" xmlns="http://www.w3.org/2000/svg">
<path opacity="0.4" d="M21 17.9668V10.1503C21 8.93937 20.4604 7.7925 19.5301 7.02652L14.5301 2.90935C13.0577 1.69688 10.9423 1.69689 9.46986 2.90935L4.46986 7.02652C3.53964 7.7925 3 8.93937 3 10.1503V17.9668C3 20.1943 4.79086 22 7 22H17C19.2091 22 21 20.1943 21 17.9668Z" fill="#28303F"/>
<path d="M12.3094 11.6905L12 11.9999L11.6906 11.6905C10.8364 10.8362 9.45132 10.8362 8.59705 11.6905C7.74278 12.5448 7.74278 13.9298 8.59705 14.7841L10.7626 16.9496C11.446 17.633 12.554 17.633 13.2374 16.9496L15.403 14.7841C16.2572 13.9298 16.2572 12.5448 15.403 11.6905C14.5487 10.8362 13.1636 10.8362 12.3094 11.6905Z" fill="#28303F"/>
</svg>
