<svg width="24" height="24" viewBox="0 0 24 24" fill="none" xmlns="http://www.w3.org/2000/svg">
<path opacity="0.4" d="M7.81965 22H16.1804C18.4891 22 20.3607 20.214 20.3607 18.0108V13.133C20.3607 12.4248 20.6555 11.7456 21.1803 11.2448C22.3962 10.0845 22.2381 8.16205 20.8475 7.19691L14.4588 2.763C12.9929 1.74567 11.0071 1.74567 9.54124 2.763L3.15251 7.19692C1.76187 8.16205 1.60381 10.0845 2.81969 11.2448C3.34448 11.7456 3.6393 12.4248 3.6393 13.133V18.0108C3.6393 20.214 5.5109 22 7.81965 22Z" fill="#28303F"/>
<path fill-rule="evenodd" clip-rule="evenodd" d="M16.416 11.376C16.7607 11.6058 16.8538 12.0715 16.624 12.4161L13.9773 16.3862C13.0147 17.8302 10.9717 18.0324 9.74461 16.8053L8.46967 15.5304C8.17678 15.2375 8.17678 14.7626 8.46967 14.4697C8.76256 14.1769 9.23744 14.1769 9.53033 14.4697L10.8053 15.7447C11.363 16.3025 12.2917 16.2105 12.7292 15.5542L15.376 11.5841C15.6057 11.2394 16.0714 11.1463 16.416 11.376Z" fill="#28303F"/>
</svg>
