<svg width="24" height="24" viewBox="0 0 24 24" fill="none" xmlns="http://www.w3.org/2000/svg">
<path opacity="0.4" d="M7.81965 22H16.1804C18.4891 22 20.3607 20.214 20.3607 18.0108V13.133C20.3607 12.4248 20.6555 11.7456 21.1803 11.2448C22.3962 10.0845 22.2381 8.16205 20.8475 7.19691L14.4588 2.763C12.9929 1.74567 11.0071 1.74567 9.54124 2.763L3.15251 7.19692C1.76187 8.16205 1.60381 10.0845 2.81969 11.2448C3.34448 11.7456 3.6393 12.4248 3.6393 13.133V18.0108C3.6393 20.214 5.5109 22 7.81965 22Z" fill="#28303F"/>
<path fill-rule="evenodd" clip-rule="evenodd" d="M13.25 17C13.25 17.4142 13.5858 17.75 14 17.75H16C16.2841 17.75 16.5438 17.5895 16.6709 17.3354L17.6709 15.3354C17.8561 14.9649 17.7059 14.5144 17.3355 14.3292C16.965 14.1439 16.5145 14.2941 16.3292 14.6646L16 15.3229L14.5653 12.4534C13.9204 11.1636 12.0797 11.1636 11.4348 12.4534L10.2236 14.8757C10.1315 15.06 9.86857 15.06 9.77644 14.8757L7.67086 10.6646C7.48562 10.2941 7.03512 10.1439 6.66463 10.3292C6.29415 10.5144 6.14398 10.9649 6.32922 11.3354L8.43479 15.5466C9.07971 16.8364 10.9204 16.8364 11.5653 15.5466L12.7764 13.1243C12.8686 12.94 13.1315 12.94 13.2236 13.1243L14.7865 16.25H14C13.5858 16.25 13.25 16.5858 13.25 17Z" fill="#28303F"/>
</svg>
