<svg width="24" height="24" viewBox="0 0 24 24" fill="none" xmlns="http://www.w3.org/2000/svg">
<path opacity="0.4" d="M20 14C20 9.83661 15.4537 5.1309 13.2155 3.06653C12.5215 2.42637 11.4785 2.42637 10.7845 3.06653C8.5463 5.1309 4 9.83661 4 14C4 19.5228 8.2129 22 12 22C15.7871 22 20 19.5228 20 14Z" fill="#28303F"/>
<path d="M12.75 18C12.75 18.4142 12.4142 18.75 12 18.75C11.5858 18.75 11.25 18.4142 11.25 18C11.25 17.5858 11.5858 17.25 12 17.25C12.4142 17.25 12.75 17.5858 12.75 18Z" fill="#28303F"/>
<path fill-rule="evenodd" clip-rule="evenodd" d="M12 12.75C10.55 12.75 9.23854 13.3368 8.28765 14.2877C7.99476 14.5806 7.51989 14.5806 7.22699 14.2877C6.9341 13.9948 6.9341 13.5199 7.22699 13.227C8.44768 12.0063 10.1362 11.25 12 11.25C13.8637 11.25 15.5522 12.0063 16.7729 13.227C17.0658 13.5199 17.0658 13.9948 16.7729 14.2877C16.48 14.5806 16.0052 14.5806 15.7123 14.2877C14.7614 13.3368 13.4499 12.75 12 12.75ZM12 15.75C11.3784 15.75 10.817 16.001 10.409 16.409C10.1161 16.7019 9.64121 16.7019 9.34831 16.409C9.05542 16.1161 9.05542 15.6412 9.34831 15.3483C10.0261 14.6706 10.9646 14.25 12 14.25C13.0353 14.25 13.9738 14.6706 14.6516 15.3483C14.9445 15.6412 14.9445 16.1161 14.6516 16.409C14.3587 16.7019 13.8838 16.7019 13.591 16.409C13.183 16.001 12.6215 15.75 12 15.75Z" fill="#28303F"/>
</svg>
