<svg width="24" height="24" viewBox="0 0 24 24" fill="none" xmlns="http://www.w3.org/2000/svg">
<path fill-rule="evenodd" clip-rule="evenodd" d="M18.25 9.25C18.6642 9.25 19 9.58579 19 10V18C19 18.4142 18.6642 18.75 18.25 18.75C17.8358 18.75 17.5 18.4142 17.5 18V10C17.5 9.58579 17.8358 9.25 18.25 9.25Z" fill="#28303F"/>
<path fill-rule="evenodd" clip-rule="evenodd" d="M9.75 11.25C10.1642 11.25 10.5 11.5858 10.5 12V20C10.5 20.4142 10.1642 20.75 9.75 20.75C9.33579 20.75 9 20.4142 9 20V12C9 11.5858 9.33579 11.25 9.75 11.25Z" fill="#28303F"/>
<path opacity="0.4" d="M19 18C19 19.1046 18.1046 20 17 20C15.8954 20 15 19.1046 15 18C15 16.8954 15.8954 16 17 16C18.1046 16 19 16.8954 19 18Z" fill="#28303F"/>
<path opacity="0.4" d="M10.5 20C10.5 21.1046 9.60457 22 8.5 22C7.39543 22 6.5 21.1046 6.5 20C6.5 18.8954 7.39543 18 8.5 18C9.60457 18 10.5 18.8954 10.5 20Z" fill="#28303F"/>
<path fill-rule="evenodd" clip-rule="evenodd" d="M14 2.75C12.55 2.75 11.2385 3.3368 10.2877 4.28769C9.99476 4.58058 9.51989 4.58058 9.22699 4.28769C8.9341 3.9948 8.9341 3.51992 9.22699 3.22703C10.4477 2.00634 12.1362 1.25 14 1.25C15.8637 1.25 17.5522 2.00634 18.7729 3.22703C19.0658 3.51992 19.0658 3.9948 18.7729 4.28769C18.48 4.58058 18.0052 4.58058 17.7123 4.28769C16.7614 3.3368 15.4499 2.75 14 2.75ZM14 5.75C13.3784 5.75 12.817 6.00102 12.409 6.40901C12.1161 6.7019 11.6412 6.7019 11.3483 6.40901C11.0554 6.11612 11.0554 5.64124 11.3483 5.34835C12.0261 4.67055 12.9646 4.25 14 4.25C15.0353 4.25 15.9738 4.67055 16.6516 5.34835C16.9445 5.64124 16.9445 6.11612 16.6516 6.40901C16.3587 6.7019 15.8838 6.7019 15.591 6.40901C15.183 6.00102 14.6215 5.75 14 5.75Z" fill="#28303F"/>
<path opacity="0.4" d="M17.8039 8.239C18.4227 8.11524 19 8.58853 19 9.21958L19 11.18C19 11.6567 18.6635 12.0671 18.1961 12.1606L10.1961 13.7606C9.57733 13.8843 9 13.411 9 12.78L9 10.8196C9 10.3429 9.33646 9.93248 9.80388 9.839L17.8039 8.239Z" fill="#28303F"/>
</svg>
