<svg width="24" height="24" viewBox="0 0 24 24" fill="none" xmlns="http://www.w3.org/2000/svg">
<path opacity="0.4" d="M19 15C19 18.866 15.866 22 12 22C8.13401 22 5 18.866 5 15C5 11.134 8.13401 8 12 8C15.866 8 19 11.134 19 15Z" fill="#28303F"/>
<path fill-rule="evenodd" clip-rule="evenodd" d="M12.0001 2.75C10.5501 2.75 9.23866 3.3368 8.28778 4.28769C7.99488 4.58058 7.52001 4.58058 7.22712 4.28769C6.93422 3.9948 6.93422 3.51992 7.22712 3.22703C8.4478 2.00634 10.1363 1.25 12.0001 1.25C13.8638 1.25 15.5524 2.00634 16.7731 3.22703C17.066 3.51992 17.066 3.9948 16.7731 4.28769C16.4802 4.58058 16.0053 4.58058 15.7124 4.28769C14.7615 3.3368 13.45 2.75 12.0001 2.75ZM12.0001 5.75C11.3786 5.75 10.8171 6.00102 10.4091 6.40901C10.1162 6.7019 9.64133 6.7019 9.34844 6.40901C9.05554 6.11612 9.05554 5.64124 9.34844 5.34835C10.0262 4.67055 10.9648 4.25 12.0001 4.25C13.0354 4.25 13.9739 4.67055 14.6517 5.34835C14.9446 5.64124 14.9446 6.11612 14.6517 6.40901C14.3588 6.7019 13.884 6.7019 13.5911 6.40901C13.1831 6.00102 12.6216 5.75 12.0001 5.75Z" fill="#28303F"/>
<path fill-rule="evenodd" clip-rule="evenodd" d="M12 7.25C12.4142 7.25 12.75 7.58579 12.75 8V10C12.75 10.4142 12.4142 10.75 12 10.75C11.5858 10.75 11.25 10.4142 11.25 10V8C11.25 7.58579 11.5858 7.25 12 7.25Z" fill="#28303F"/>
</svg>
