<svg width="24" height="24" viewBox="0 0 24 24" fill="none" xmlns="http://www.w3.org/2000/svg">
<path opacity="0.4" d="M10 7V13L8.58579 11.5858C8.21072 11.2107 7.70201 11 7.17158 11H7.10601C5.65144 11 4.68337 12.5034 5.28528 13.8276L7.93419 19.6552C8.58327 21.0832 10.0071 22 11.5757 22H15.6787C17.1141 22 18.4395 21.2309 19.1517 19.9846L19.473 19.4223C19.8183 18.8179 20 18.1339 20 17.4377V17C20 14.7909 18.2091 13 16 13H14V7C14 5.89543 13.1046 5 12 5C10.8954 5 10 5.89543 10 7Z" fill="#28303F"/>
<path fill-rule="evenodd" clip-rule="evenodd" d="M12 2.75C9.10051 2.75 6.75 5.10051 6.75 8C6.75 8.41421 6.41421 8.75 6 8.75C5.58579 8.75 5.25 8.41421 5.25 8C5.25 4.27208 8.27208 1.25 12 1.25C15.7279 1.25 18.75 4.27208 18.75 8C18.75 8.41421 18.4142 8.75 18 8.75C17.5858 8.75 17.25 8.41421 17.25 8C17.25 5.10051 14.8995 2.75 12 2.75Z" fill="#28303F"/>
</svg>
