<svg width="24" height="24" viewBox="0 0 24 24" fill="none" xmlns="http://www.w3.org/2000/svg">
<circle cx="12" cy="12" r="2" fill="#28303F"/>
<path opacity="0.4" fill-rule="evenodd" clip-rule="evenodd" d="M5.45926 4.39838C5.75216 4.69127 5.75216 5.16615 5.45926 5.45904C3.78452 7.13378 2.75 9.44525 2.75 11.9998C2.75 14.5543 3.78452 16.8658 5.45926 18.5405C5.75216 18.8334 5.75216 19.3083 5.45926 19.6012C5.16637 19.8941 4.6915 19.8941 4.3986 19.6012C2.45406 17.6566 1.25 14.9681 1.25 11.9998C1.25 9.03146 2.45406 6.34293 4.3986 4.39838C4.6915 4.10549 5.16637 4.10549 5.45926 4.39838ZM18.5407 4.39838C18.8336 4.10549 19.3085 4.10549 19.6014 4.39838C21.5459 6.34293 22.75 9.03146 22.75 11.9998C22.75 14.9681 21.5459 17.6566 19.6014 19.6012C19.3085 19.8941 18.8336 19.8941 18.5407 19.6012C18.2478 19.3083 18.2478 18.8334 18.5407 18.5405C20.2155 16.8658 21.25 14.5543 21.25 11.9998C21.25 9.44525 20.2155 7.13378 18.5407 5.45904C18.2478 5.16615 18.2478 4.69127 18.5407 4.39838ZM8.28769 7.22681C8.58058 7.5197 8.58058 7.99458 8.28769 8.28747C7.33681 9.23835 6.75 10.5498 6.75 11.9998C6.75 13.4497 7.33681 14.7612 8.28769 15.7121C8.58058 16.005 8.58058 16.4799 8.28769 16.7727C7.9948 17.0656 7.51992 17.0656 7.22703 16.7727C6.00634 15.5521 5.25 13.8635 5.25 11.9998C5.25 10.136 6.00634 8.4475 7.22703 7.22681C7.51992 6.93391 7.9948 6.93391 8.28769 7.22681ZM15.7123 7.22681C16.0052 6.93391 16.4801 6.93391 16.773 7.22681C17.9937 8.4475 18.75 10.136 18.75 11.9998C18.75 13.8635 17.9937 15.5521 16.773 16.7727C16.4801 17.0656 16.0052 17.0656 15.7123 16.7727C15.4194 16.4799 15.4194 16.005 15.7123 15.7121C16.6632 14.7612 17.25 13.4497 17.25 11.9998C17.25 10.5498 16.6632 9.23835 15.7123 8.28747C15.4194 7.99458 15.4194 7.5197 15.7123 7.22681Z" fill="#28303F"/>
</svg>
