<svg width="24" height="24" viewBox="0 0 24 24" fill="none" xmlns="http://www.w3.org/2000/svg">
<path fill-rule="evenodd" clip-rule="evenodd" d="M12 15.25C12.4142 15.25 12.75 15.5858 12.75 16V19.2819C14.1109 19.3834 15.5284 19.7252 17.2348 20.2877C17.6282 20.4174 17.8419 20.8414 17.7123 21.2348C17.5826 21.6282 17.1585 21.842 16.7651 21.7123C14.7646 21.0528 13.2931 20.748 11.8873 20.75C10.4849 20.752 9.09206 21.0594 7.24874 21.7075C6.85797 21.8449 6.42982 21.6395 6.29242 21.2488C6.15503 20.858 6.36042 20.4299 6.75119 20.2925C8.42565 19.7037 9.83333 19.352 11.25 19.2691V16C11.25 15.5858 11.5857 15.25 12 15.25Z" fill="#28303F"/>
<path opacity="0.4" d="M18 3C20.2091 3 22 4.79086 22 7L22 13C22 15.2091 20.2091 17 18 17L6 17C3.79086 17 2 15.2091 2 13L2 7C2 4.79086 3.79086 3 6 3L18 3Z" fill="#28303F"/>
<path d="M12.75 13C12.75 13.4142 12.4142 13.75 12 13.75C11.5858 13.75 11.25 13.4142 11.25 13C11.25 12.5858 11.5858 12.25 12 12.25C12.4142 12.25 12.75 12.5858 12.75 13Z" fill="#28303F"/>
<path fill-rule="evenodd" clip-rule="evenodd" d="M12 7.75C10.55 7.75 9.23854 8.3368 8.28765 9.28769C7.99476 9.58058 7.51989 9.58058 7.22699 9.28769C6.9341 8.9948 6.9341 8.51992 7.22699 8.22703C8.44768 7.00634 10.1362 6.25 12 6.25C13.8637 6.25 15.5522 7.00634 16.7729 8.22703C17.0658 8.51992 17.0658 8.9948 16.7729 9.28769C16.48 9.58058 16.0052 9.58058 15.7123 9.28769C14.7614 8.3368 13.4499 7.75 12 7.75ZM12 10.75C11.3784 10.75 10.817 11.001 10.409 11.409C10.1161 11.7019 9.64121 11.7019 9.34831 11.409C9.05542 11.1161 9.05542 10.6412 9.34831 10.3483C10.0261 9.67055 10.9646 9.25 12 9.25C13.0353 9.25 13.9738 9.67055 14.6516 10.3483C14.9445 10.6412 14.9445 11.1161 14.6516 11.409C14.3587 11.7019 13.8838 11.7019 13.591 11.409C13.183 11.001 12.6215 10.75 12 10.75Z" fill="#28303F"/>
</svg>
