<svg width="24" height="24" viewBox="0 0 24 24" fill="none" xmlns="http://www.w3.org/2000/svg">
<path fill-rule="evenodd" clip-rule="evenodd" d="M12 2.75C10.55 2.75 9.23854 3.3368 8.28765 4.28769C7.99476 4.58058 7.51989 4.58058 7.22699 4.28769C6.9341 3.9948 6.9341 3.51992 7.22699 3.22703C8.44768 2.00634 10.1362 1.25 12 1.25C13.8637 1.25 15.5522 2.00634 16.7729 3.22703C17.0658 3.51992 17.0658 3.9948 16.7729 4.28769C16.48 4.58058 16.0052 4.58058 15.7123 4.28769C14.7614 3.3368 13.4499 2.75 12 2.75ZM12 5.75C11.3784 5.75 10.817 6.00102 10.409 6.40901C10.1161 6.7019 9.64121 6.7019 9.34831 6.40901C9.05542 6.11612 9.05542 5.64124 9.34831 5.34835C10.0261 4.67055 10.9646 4.25 12 4.25C13.0353 4.25 13.9738 4.67055 14.6516 5.34835C14.9445 5.64124 14.9445 6.11612 14.6516 6.40901C14.3587 6.7019 13.8838 6.7019 13.591 6.40901C13.183 6.00102 12.6215 5.75 12 5.75Z" fill="#28303F"/>
<path fill-rule="evenodd" clip-rule="evenodd" d="M12 15.25C12.4142 15.25 12.75 15.5858 12.75 16V21.25H15C15.4142 21.25 15.75 21.5858 15.75 22C15.75 22.4142 15.4142 22.75 15 22.75H9C8.58579 22.75 8.25 22.4142 8.25 22C8.25 21.5858 8.58579 21.25 9 21.25H11.25V16C11.25 15.5858 11.5858 15.25 12 15.25Z" fill="#28303F"/>
<path opacity="0.4" d="M7.87303 9.02871C8.22576 8.39378 8.89501 8 9.62134 8H14.3788C15.1052 8 15.7744 8.39378 16.1272 9.02871L18.3494 13.0287C19.09 14.3618 18.126 16 16.6011 16H7.39912C5.87415 16 4.91021 14.3618 5.6508 13.0287L7.87303 9.02871Z" fill="#28303F"/>
</svg>
