<svg width="24" height="24" viewBox="0 0 24 24" fill="none" xmlns="http://www.w3.org/2000/svg">
<path fill-rule="evenodd" clip-rule="evenodd" d="M12 2.75C10.2051 2.75 8.75 4.20507 8.75 6V9C8.75 9.41421 8.41421 9.75 8 9.75C7.58579 9.75 7.25 9.41421 7.25 9V6C7.25 3.37665 9.37665 1.25 12 1.25C14.6234 1.25 16.75 3.37665 16.75 6V9C16.75 9.41421 16.4142 9.75 16 9.75C15.5858 9.75 15.25 9.41421 15.25 9V6C15.25 4.20507 13.7949 2.75 12 2.75Z" fill="#28303F"/>
<path opacity="0.4" d="M4 12C4 9.79086 5.79086 8 8 8H16C18.2091 8 20 9.79086 20 12V18C20 20.2091 18.2091 22 16 22H8C5.79086 22 4 20.2091 4 18V12Z" fill="#28303F"/>
<path d="M12.75 18C12.75 18.4142 12.4142 18.75 12 18.75C11.5858 18.75 11.25 18.4142 11.25 18C11.25 17.5858 11.5858 17.25 12 17.25C12.4142 17.25 12.75 17.5858 12.75 18Z" fill="#28303F"/>
<path fill-rule="evenodd" clip-rule="evenodd" d="M12 12.75C10.55 12.75 9.23854 13.3368 8.28765 14.2877C7.99476 14.5806 7.51989 14.5806 7.22699 14.2877C6.9341 13.9948 6.9341 13.5199 7.22699 13.227C8.44768 12.0063 10.1362 11.25 12 11.25C13.8637 11.25 15.5522 12.0063 16.7729 13.227C17.0658 13.5199 17.0658 13.9948 16.7729 14.2877C16.48 14.5806 16.0052 14.5806 15.7123 14.2877C14.7614 13.3368 13.4499 12.75 12 12.75ZM12 15.75C11.3784 15.75 10.817 16.001 10.409 16.409C10.1161 16.7019 9.64121 16.7019 9.34831 16.409C9.05542 16.1161 9.05542 15.6412 9.34831 15.3483C10.0261 14.6706 10.9646 14.25 12 14.25C13.0353 14.25 13.9738 14.6706 14.6516 15.3483C14.9445 15.6412 14.9445 16.1161 14.6516 16.409C14.3587 16.7019 13.8838 16.7019 13.591 16.409C13.183 16.001 12.6215 15.75 12 15.75Z" fill="#28303F"/>
</svg>
