<svg width="24" height="24" viewBox="0 0 24 24" fill="none" xmlns="http://www.w3.org/2000/svg">
<path opacity="0.4" d="M14 2H10C7.79086 2 6 3.79086 6 6V18C6 20.2091 7.79086 22 10 22H14C16.2091 22 18 20.2091 18 18V6C18 3.79086 16.2091 2 14 2Z" fill="#28303F"/>
<path d="M12.75 11.75C12.75 12.1642 12.4142 12.5 12 12.5C11.5858 12.5 11.25 12.1642 11.25 11.75C11.25 11.3358 11.5858 11 12 11C12.4142 11 12.75 11.3358 12.75 11.75Z" fill="#28303F"/>
<path fill-rule="evenodd" clip-rule="evenodd" d="M12 6.75C11.0585 6.75 10.193 7.1659 9.55355 7.8653C9.27406 8.17101 8.79966 8.19227 8.49395 7.91279C8.18824 7.6333 8.16698 7.1589 8.44646 6.85319C9.34259 5.87297 10.5983 5.25 12 5.25C13.4017 5.25 14.6574 5.87297 15.5535 6.85319C15.833 7.1589 15.8118 7.6333 15.5061 7.91279C15.2003 8.19227 14.7259 8.17101 14.4465 7.8653C13.8071 7.1659 12.9415 6.75 12 6.75ZM12 9.75C11.6443 9.75 11.309 9.90618 11.0535 10.1857C10.774 10.4914 10.2996 10.5127 9.99392 10.2332C9.68821 9.95368 9.66695 9.47928 9.94644 9.17357C10.4587 8.61325 11.1841 8.25 12 8.25C12.8159 8.25 13.5413 8.61325 14.0535 9.17357C14.333 9.47928 14.3117 9.95368 14.006 10.2332C13.7003 10.5127 13.2259 10.4914 12.9464 10.1857C12.6909 9.90618 12.3557 9.75 12 9.75Z" fill="#28303F"/>
<path d="M20.5 19H13.5C12.6716 19 12 18.3284 12 17.5C12 16.6716 12.6716 16 13.5 16H20.5C21.3284 16 22 16.6716 22 17.5C22 18.3284 21.3284 19 20.5 19Z" fill="#28303F"/>
</svg>
