<svg width="24" height="24" viewBox="0 0 24 24" fill="none" xmlns="http://www.w3.org/2000/svg">
<path opacity="0.4" d="M5 6C5 3.79086 6.79086 2 9 2H15C17.2091 2 19 3.79086 19 6V18C19 20.2091 17.2091 22 15 22H9C6.79086 22 5 20.2091 5 18V6Z" fill="#28303F"/>
<path fill-rule="evenodd" clip-rule="evenodd" d="M12 5.75C10.55 5.75 9.23854 6.3368 8.28765 7.28769C7.99476 7.58058 7.51989 7.58058 7.22699 7.28769C6.9341 6.9948 6.9341 6.51992 7.22699 6.22703C8.44768 5.00634 10.1362 4.25 12 4.25C13.8637 4.25 15.5522 5.00634 16.7729 6.22703C17.0658 6.51992 17.0658 6.9948 16.7729 7.28769C16.48 7.58058 16.0052 7.58058 15.7123 7.28769C14.7614 6.3368 13.4499 5.75 12 5.75ZM12 8.75C11.3784 8.75 10.817 9.00102 10.409 9.40901C10.1161 9.7019 9.64121 9.7019 9.34831 9.40901C9.05542 9.11612 9.05542 8.64124 9.34831 8.34835C10.0261 7.67055 10.9646 7.25 12 7.25C13.0353 7.25 13.9738 7.67055 14.6516 8.34835C14.9445 8.64124 14.9445 9.11612 14.6516 9.40901C14.3587 9.7019 13.8838 9.7019 13.591 9.40901C13.183 9.00102 12.6215 8.75 12 8.75Z" fill="#28303F"/>
<path fill-rule="evenodd" clip-rule="evenodd" d="M12 19C14.2091 19 16 17.2091 16 15C16 12.7909 14.2091 11 12 11C9.79086 11 8 12.7909 8 15C8 17.2091 9.79086 19 12 19ZM12 17C13.1046 17 14 16.1046 14 15C14 13.8954 13.1046 13 12 13C10.8954 13 10 13.8954 10 15C10 16.1046 10.8954 17 12 17Z" fill="#28303F"/>
</svg>
