<svg width="24" height="24" viewBox="0 0 24 24" fill="none" xmlns="http://www.w3.org/2000/svg">
<path d="M13.5 3.5C13.5 4.32843 12.8284 5 12 5C11.1716 5 10.5 4.32843 10.5 3.5C10.5 2.67157 11.1716 2 12 2C12.8284 2 13.5 2.67157 13.5 3.5Z" fill="#28303F"/>
<path d="M13 21C13 21.5523 12.5523 22 12 22C11.4477 22 11 21.5523 11 21C11 20.4477 11.4477 20 12 20C12.5523 20 13 20.4477 13 21Z" fill="#28303F"/>
<path d="M9 21C9 21.5523 8.55228 22 8 22C7.44772 22 7 21.5523 7 21C7 20.4477 7.44772 20 8 20C8.55228 20 9 20.4477 9 21Z" fill="#28303F"/>
<path d="M17 21C17 21.5523 16.5523 22 16 22C15.4477 22 15 21.5523 15 21C15 20.4477 15.4477 20 16 20C16.5523 20 17 20.4477 17 21Z" fill="#28303F"/>
<path opacity="0.4" fill-rule="evenodd" clip-rule="evenodd" d="M5.17948 5.27198C4.77731 5.17282 4.3709 5.41846 4.27174 5.82063C4.17258 6.2228 4.41821 6.62921 4.82038 6.72837C6.76358 7.20749 8.41679 7.52112 10 7.6629V11.9521L9.25563 17.9071C9.20425 18.3181 9.49579 18.6929 9.90681 18.7443C10.3178 18.7957 10.6927 18.5041 10.744 18.0931L11.5057 12H12.494L13.2556 18.0931C13.307 18.5041 13.6818 18.7957 14.0929 18.7443C14.5039 18.6929 14.7954 18.3181 14.744 17.9071L14 11.9547V7.65019C15.5643 7.50271 17.221 7.1933 19.1732 6.7299C19.5762 6.63423 19.8253 6.22997 19.7297 5.82695C19.634 5.42394 19.2297 5.17479 18.8267 5.27045C16.0536 5.92874 13.973 6.24923 11.9333 6.25017C9.89512 6.25112 7.86026 5.93297 5.17948 5.27198Z" fill="#28303F"/>
</svg>
