<svg width="24" height="24" viewBox="0 0 24 24" fill="none" xmlns="http://www.w3.org/2000/svg">
<path opacity="0.4" d="M16.6841 20.3065L14.7975 17.7418C14.5352 17.3853 14.3952 16.9663 14.3952 16.5377V13.9389C14.3952 13.3395 14.9314 12.8536 15.5928 12.8536H19.8003C21.0035 12.8536 21.4553 11.4258 20.435 10.8478L15.521 8.06443C14.8207 7.66776 14.3952 6.97211 14.3952 6.22367V4.39522C14.3952 3.07237 13.3228 2 12 2C10.6772 2 9.60478 3.07237 9.60478 4.39522V6.22367C9.60478 6.97211 9.17935 7.66776 8.47903 8.06443L3.565 10.8478C2.54467 11.4258 2.99651 12.8536 4.19974 12.8536H8.40718C9.0686 12.8536 9.60478 13.3395 9.60478 13.9389V16.5377C9.60478 16.9663 9.46481 17.3853 9.20251 17.7418L7.31587 20.3065C6.63464 21.2326 7.74947 22.3771 8.84792 21.8794L10.9288 20.9364C11.6031 20.6309 12.3969 20.6309 13.0712 20.9364L15.1521 21.8794C16.2505 22.3771 17.3654 21.2326 16.6841 20.3065Z" fill="#28303F"/>
</svg>
