<svg width="24" height="24" viewBox="0 0 24 24" fill="none" xmlns="http://www.w3.org/2000/svg">
<path opacity="0.4" fill-rule="evenodd" clip-rule="evenodd" d="M11.4694 2.98432C11.7623 2.69143 12.2372 2.69143 12.5301 2.98432L19.6012 10.0554C20.6751 11.1293 20.6751 12.8705 19.6012 13.9445L16.6388 16.9068H17.6566C18.0708 16.9068 18.4066 17.2426 18.4066 17.6568C18.4066 18.071 18.0708 18.4068 17.6566 18.4068H15.8281C14.8616 18.4068 14.0781 17.6233 14.0781 16.6568V14.8284C14.0781 14.4142 14.4139 14.0784 14.8281 14.0784C15.2423 14.0784 15.5781 14.4142 15.5781 14.8284V15.8462L18.5405 12.8838C19.0286 12.3957 19.0286 11.6042 18.5405 11.116L11.4694 4.04498C11.1765 3.75209 11.1765 3.27721 11.4694 2.98432Z" fill="#28303F"/>
<path fill-rule="evenodd" clip-rule="evenodd" d="M5.59307 6.34326C5.59307 5.92905 5.92886 5.59326 6.34307 5.59326L8.1715 5.59326C9.138 5.59326 9.9215 6.37676 9.9215 7.34326L9.9215 9.17169C9.9215 9.5859 9.58571 9.92169 9.1715 9.92169C8.75729 9.92169 8.4215 9.5859 8.4215 9.17169L8.4215 8.15388L5.45913 11.1162C4.97098 11.6044 4.97098 12.3959 5.45913 12.884L12.5302 19.9551C12.8231 20.248 12.8231 20.7228 12.5302 21.0157C12.2373 21.3086 11.7624 21.3086 11.4695 21.0157L4.39847 13.9447C3.32453 12.8707 3.32453 11.1295 4.39847 10.0556L7.3608 7.09326L6.34307 7.09326C5.92886 7.09326 5.59307 6.75748 5.59307 6.34326Z" fill="#28303F"/>
</svg>
