<svg width="24" height="24" viewBox="0 0 24 24" fill="none" xmlns="http://www.w3.org/2000/svg">
<path opacity="0.4" d="M22 12C22 17.5228 17.5228 22 12 22C6.47715 22 2 17.5228 2 12C2 6.47715 6.47715 2 12 2C17.5228 2 22 6.47715 22 12Z" fill="#28303F"/>
<path fill-rule="evenodd" clip-rule="evenodd" d="M11.9999 7.25C12.284 7.25 12.5437 7.4105 12.6707 7.66459L16.6707 15.6646C16.856 16.0351 16.7058 16.4856 16.3353 16.6708C15.9648 16.8561 15.5143 16.7059 15.3291 16.3354L14.036 13.7491C14.024 13.7497 14.012 13.75 13.9999 13.75H9.99992C9.98783 13.75 9.97582 13.7497 9.96387 13.7491L8.67074 16.3354C8.4855 16.7059 8.03499 16.8561 7.66451 16.6708C7.29403 16.4856 7.14386 16.0351 7.3291 15.6646L11.3291 7.66459C11.4561 7.4105 11.7158 7.25 11.9999 7.25ZM10.7134 12.25H13.2864L11.9999 9.67705L10.7134 12.25Z" fill="#28303F"/>
</svg>
