<svg width="24" height="24" viewBox="0 0 24 24" fill="none" xmlns="http://www.w3.org/2000/svg">
<path opacity="0.4" d="M19 6C20.1046 6 21 6.89543 21 8L21 16C21 17.1046 20.1046 18 19 18L5 18C3.89543 18 3 17.1046 3 16L3 8C3 6.89543 3.89543 6 5 6L19 6Z" fill="#28303F"/>
<path fill-rule="evenodd" clip-rule="evenodd" d="M23 9.25C23.4142 9.25 23.75 9.58579 23.75 10L23.75 14C23.75 14.4142 23.4142 14.75 23 14.75C22.5858 14.75 22.25 14.4142 22.25 14L22.25 10C22.25 9.58579 22.5858 9.25 23 9.25Z" fill="#28303F"/>
</svg>
