<svg width="24" height="24" viewBox="0 0 24 24" fill="none" xmlns="http://www.w3.org/2000/svg">
<path opacity="0.4" d="M18 6C19.1046 6 20 6.89543 20 8L20 16C20 17.1046 19.1046 18 18 18L4 18C2.89543 18 2 17.1046 2 16L2 8C2 6.89543 2.89543 6 4 6L18 6Z" fill="#28303F"/>
<path fill-rule="evenodd" clip-rule="evenodd" d="M22 9.25C22.4142 9.25 22.75 9.58579 22.75 10L22.75 14C22.75 14.4142 22.4142 14.75 22 14.75C21.5858 14.75 21.25 14.4142 21.25 14L21.25 10C21.25 9.58579 21.5858 9.25 22 9.25Z" fill="#28303F"/>
<path fill-rule="evenodd" clip-rule="evenodd" d="M11 8.25C11.4142 8.25 11.75 8.58579 11.75 9V11.25H14C14.4142 11.25 14.75 11.5858 14.75 12C14.75 12.4142 14.4142 12.75 14 12.75H11.75V15C11.75 15.4142 11.4142 15.75 11 15.75C10.5858 15.75 10.25 15.4142 10.25 15V12.75H8C7.58579 12.75 7.25 12.4142 7.25 12C7.25 11.5858 7.58579 11.25 8 11.25H10.25V9C10.25 8.58579 10.5858 8.25 11 8.25Z" fill="#28303F"/>
</svg>
