<svg width="24" height="24" viewBox="0 0 24 24" fill="none" xmlns="http://www.w3.org/2000/svg">
<path opacity="0.4" d="M6 6C6 4.89543 6.89543 4 8 4H16C17.1046 4 18 4.89543 18 6V20C18 21.1046 17.1046 22 16 22H8C6.89543 22 6 21.1046 6 20V6Z" fill="#28303F"/>
<path fill-rule="evenodd" clip-rule="evenodd" d="M15.4939 10.4356C15.8056 10.7083 15.8372 11.1822 15.5645 11.4939L12.6946 14.7738C12.0779 15.4786 11.0156 15.5729 10.2843 14.9879L8.53151 13.5857C8.20806 13.3269 8.15562 12.8549 8.41438 12.5315C8.67313 12.208 9.1451 12.1556 9.46855 12.4144L11.2214 13.8166C11.3258 13.9002 11.4776 13.8867 11.5657 13.786L14.4356 10.5061C14.7084 10.1944 15.1822 10.1628 15.4939 10.4356Z" fill="#28303F"/>
<path fill-rule="evenodd" clip-rule="evenodd" d="M9.25 2C9.25 1.58579 9.58579 1.25 10 1.25H14C14.4142 1.25 14.75 1.58579 14.75 2C14.75 2.41421 14.4142 2.75 14 2.75H10C9.58579 2.75 9.25 2.41421 9.25 2Z" fill="#28303F"/>
</svg>
