<svg width="24" height="24" viewBox="0 0 24 24" fill="none" xmlns="http://www.w3.org/2000/svg">
<path fill-rule="evenodd" clip-rule="evenodd" d="M22 9.25C22.4142 9.25 22.75 9.58579 22.75 10L22.75 14C22.75 14.4142 22.4142 14.75 22 14.75C21.5858 14.75 21.25 14.4142 21.25 14L21.25 10C21.25 9.58579 21.5858 9.25 22 9.25Z" fill="#28303F"/>
<path fill-rule="evenodd" clip-rule="evenodd" d="M2.46967 2.46967C2.76256 2.17678 3.23744 2.17678 3.53033 2.46967L21.5303 20.4697C21.8232 20.7626 21.8232 21.2374 21.5303 21.5303C21.2374 21.8232 20.7626 21.8232 20.4697 21.5303L2.46967 3.53033C2.17678 3.23744 2.17678 2.76256 2.46967 2.46967Z" fill="#28303F"/>
<path opacity="0.4" d="M19.9999 16V8C19.9999 6.89543 19.1045 6 17.9999 6H7.06055L18.8645 17.804C19.5362 17.4815 19.9999 16.7949 19.9999 16Z" fill="#28303F"/>
<path d="M4.92526 6L16.9393 18L4.00002 18C2.89545 18 2.00002 17.1046 2.00002 16L2.00002 8.00001C2.00002 6.89544 2.89545 6.00001 4.00002 6.00001L4.92526 6Z" fill="#28303F"/>
</svg>
