<svg width="24" height="24" viewBox="0 0 24 24" fill="none" xmlns="http://www.w3.org/2000/svg">
<path opacity="0.4" d="M18 6C19.1046 6 20 6.89543 20 8L20 16C20 17.1046 19.1046 18 18 18L4 18C2.89543 18 2 17.1046 2 16L2 8C2 6.89543 2.89543 6 4 6L18 6Z" fill="#28303F"/>
<path fill-rule="evenodd" clip-rule="evenodd" d="M14.4939 9.43558C14.8056 9.70834 14.8372 10.1822 14.5645 10.4939L11.6946 13.7738C11.0779 14.4786 10.0156 14.5729 9.28433 13.9879L7.53151 12.5857C7.20806 12.3269 7.15562 11.8549 7.41438 11.5315C7.67313 11.208 8.1451 11.1556 8.46855 11.4144L10.2214 12.8166C10.3258 12.9002 10.4776 12.8867 10.5657 12.786L13.4356 9.50613C13.7084 9.1944 14.1822 9.16282 14.4939 9.43558Z" fill="#28303F"/>
<path fill-rule="evenodd" clip-rule="evenodd" d="M22 9.25C22.4142 9.25 22.75 9.58579 22.75 10L22.75 14C22.75 14.4142 22.4142 14.75 22 14.75C21.5858 14.75 21.25 14.4142 21.25 14L21.25 10C21.25 9.58579 21.5858 9.25 22 9.25Z" fill="#28303F"/>
</svg>
