<svg width="24" height="24" viewBox="0 0 24 24" fill="none" xmlns="http://www.w3.org/2000/svg">
<path opacity="0.4" d="M6 6C6 4.89543 6.89543 4 8 4H16C17.1046 4 18 4.89543 18 6V20C18 21.1046 17.1046 22 16 22H8C6.89543 22 6 21.1046 6 20V6Z" fill="#28303F"/>
<path fill-rule="evenodd" clip-rule="evenodd" d="M9.25 2C9.25 1.58579 9.58579 1.25 10 1.25H14C14.4142 1.25 14.75 1.58579 14.75 2C14.75 2.41421 14.4142 2.75 14 2.75H10C9.58579 2.75 9.25 2.41421 9.25 2Z" fill="#28303F"/>
<path fill-rule="evenodd" clip-rule="evenodd" d="M12 9.25C12.4142 9.25 12.75 9.58579 12.75 10V12.25H15C15.4142 12.25 15.75 12.5858 15.75 13C15.75 13.4142 15.4142 13.75 15 13.75H12.75V16C12.75 16.4142 12.4142 16.75 12 16.75C11.5858 16.75 11.25 16.4142 11.25 16V13.75H9C8.58579 13.75 8.25 13.4142 8.25 13C8.25 12.5858 8.58579 12.25 9 12.25H11.25V10C11.25 9.58579 11.5858 9.25 12 9.25Z" fill="#28303F"/>
</svg>
