<svg width="24" height="24" viewBox="0 0 24 24" fill="none" xmlns="http://www.w3.org/2000/svg">
<path opacity="0.4" fill-rule="evenodd" clip-rule="evenodd" d="M13.1599 4.94313C12.997 4.80743 12.7498 4.92322 12.7498 5.13518V10.5988L16.4695 8.11899C16.6085 8.0263 16.6192 7.82591 16.4908 7.71893L13.1599 4.94313ZM11.2498 10.5988V5.13518C11.2498 3.65146 12.9803 2.84094 14.1202 3.79079L17.4511 6.56659C18.3498 7.31547 18.2748 8.71819 17.3015 9.36707L13.3519 12.0001L17.3015 14.6332C18.2748 15.2821 18.3498 16.6848 17.4511 17.4337L14.1202 20.2095C12.9803 21.1593 11.2498 20.3488 11.2498 18.8651V13.4015L6.41586 16.6242C6.07121 16.8539 5.60556 16.7608 5.3758 16.4162C5.14603 16.0715 5.23916 15.6059 5.58381 15.3761L10.6478 12.0001L5.58381 8.62418C5.23916 8.39441 5.14603 7.92876 5.3758 7.58411C5.60556 7.23947 6.07121 7.14634 6.41586 7.3761L11.2498 10.5988ZM12.7498 13.4015V18.8651C12.7498 19.0771 12.9971 19.1928 13.1599 19.0572L16.4908 16.2814C16.6192 16.1744 16.6085 15.974 16.4695 15.8813L12.7498 13.4015Z" fill="#28303F"/>
<path d="M18.4142 10.5859L19.8284 12.0002L18.4142 13.4144L17 12.0002L18.4142 10.5859Z" fill="#28303F"/>
<path d="M5.58582 10.5859L7.00003 12.0002L5.58582 13.4144L4.1716 12.0002L5.58582 10.5859Z" fill="#28303F"/>
</svg>
