<svg width="24" height="24" viewBox="0 0 24 24" fill="none" xmlns="http://www.w3.org/2000/svg">
<path fill-rule="evenodd" clip-rule="evenodd" d="M3.46967 3.46967C3.76256 3.17678 4.23744 3.17678 4.53033 3.46967L20.5303 19.4697C20.8232 19.7626 20.8232 20.2374 20.5303 20.5303C20.2374 20.8232 19.7626 20.8232 19.4697 20.5303L3.46967 4.53033C3.17678 4.23744 3.17678 3.76256 3.46967 3.46967Z" fill="#28303F"/>
<path fill-rule="evenodd" clip-rule="evenodd" d="M11.2501 10.3105V11.5985L5.58405 15.3758C5.23941 15.6056 5.14628 16.0713 5.37604 16.4159C5.60581 16.7606 6.07146 16.8537 6.4161 16.6239L11.2501 13.4013V18.8648C11.2501 20.3486 12.9806 21.1591 14.1204 20.2092L17.9541 17.0145L16.889 15.9495L13.1601 19.0569C12.9973 19.1926 12.7501 19.0768 12.7501 18.8648V12.4013L13.1045 12.165L11.2501 10.3105ZM18.5238 15.463L18.5358 15.4749C18.5318 15.4709 18.5278 15.4669 18.5238 15.463Z" fill="#28303F"/>
<path opacity="0.4" fill-rule="evenodd" clip-rule="evenodd" d="M14.3772 11.3167L13.2956 10.235L16.4696 8.11899C16.6087 8.0263 16.6194 7.82591 16.491 7.71893L13.16 4.94313C12.9972 4.80743 12.75 4.92322 12.75 5.13518V9.68948L11.25 8.18948V5.13518C11.25 3.65146 12.9805 2.84094 14.1203 3.79079L17.4513 6.56659C18.3499 7.31547 18.275 8.71819 17.3017 9.36707L14.3772 11.3167Z" fill="#28303F"/>
</svg>
