<svg width="24" height="24" viewBox="0 0 24 24" fill="none" xmlns="http://www.w3.org/2000/svg">
<path opacity="0.4" fill-rule="evenodd" clip-rule="evenodd" d="M8.12602 6.5H8C5.23858 6.5 3 8.73858 3 11.5V15.5C3 18.2614 5.23858 20.5 8 20.5H16C18.7614 20.5 21 18.2614 21 15.5L8.12602 6.5ZM12 16.5001C10.3431 16.5001 9 15.1569 9 13.5001C9 12.3024 9.70186 11.2686 10.7167 10.7876L14.7067 14.7954C14.2232 15.8038 13.1929 16.5001 12 16.5001Z" fill="#28303F"/>
<path fill-rule="evenodd" clip-rule="evenodd" d="M3.53033 2.46967C3.23744 2.17678 2.76256 2.17678 2.46967 2.46967C2.17678 2.76256 2.17678 3.23744 2.46967 3.53033L20.4697 21.5303C20.7626 21.8232 21.2374 21.8232 21.5303 21.5303C21.8232 21.2374 21.8232 20.7626 21.5303 20.4697L19.8048 18.7442C20.5501 17.871 21.0001 16.738 21.0001 15.5V11.5C21.0001 8.73858 18.7615 6.5 16.0001 6.5H15.8741C15.43 4.77477 13.8639 3.5 12.0001 3.5C10.1362 3.5 8.57014 4.77477 8.12609 6.5H8.00008C7.85799 6.5 7.71729 6.50593 7.57821 6.51755L3.53033 2.46967ZM13 7C13 7.55228 12.5523 8 12 8C11.4477 8 11 7.55228 11 7C11 6.44772 11.4477 6 12 6C12.5523 6 13 6.44772 13 7Z" fill="#28303F"/>
</svg>
