<svg width="24" height="24" viewBox="0 0 24 24" fill="none" xmlns="http://www.w3.org/2000/svg">
<path d="M14.5 5.5C14.5 6.88071 13.3807 8 12 8C10.6193 8 9.5 6.88071 9.5 5.5C9.5 4.11929 10.6193 3 12 3C13.3807 3 14.5 4.11929 14.5 5.5Z" fill="#28303F"/>
<path opacity="0.4" d="M5.85168 15.2465L9.57063 19.845C10.8161 21.385 13.1839 21.385 14.4294 19.845L18.1483 15.2465C18.6996 14.5647 19 13.7177 19 12.8447V12.6723C19 10.6441 17.3379 9 15.2877 9C14.3031 9 13.3589 9.3869 12.6627 10.0756L12 10.7311L11.3373 10.0756C10.6411 9.3869 9.69688 9 8.71231 9C6.66206 9 5 10.6441 5 12.6723V12.8447C5 13.7177 5.30036 14.5647 5.85168 15.2465Z" fill="#28303F"/>
</svg>
