<svg width="24" height="24" viewBox="0 0 24 24" fill="none" xmlns="http://www.w3.org/2000/svg">
<path fill-rule="evenodd" clip-rule="evenodd" d="M2.25 8C2.25 7.58579 2.58579 7.25 3 7.25H7C7.41421 7.25 7.75 7.58579 7.75 8C7.75 8.41421 7.41421 8.75 7 8.75H3C2.58579 8.75 2.25 8.41421 2.25 8Z" fill="#28303F"/>
<path fill-rule="evenodd" clip-rule="evenodd" d="M2.25 16C2.25 15.5858 2.58579 15.25 3 15.25H10C10.4142 15.25 10.75 15.5858 10.75 16C10.75 16.4142 10.4142 16.75 10 16.75H3C2.58579 16.75 2.25 16.4142 2.25 16Z" fill="#28303F"/>
<path fill-rule="evenodd" clip-rule="evenodd" d="M16.25 16C16.25 15.5858 16.5858 15.25 17 15.25L21 15.25C21.4142 15.25 21.75 15.5858 21.75 16C21.75 16.4142 21.4142 16.75 21 16.75H17C16.5858 16.75 16.25 16.4142 16.25 16Z" fill="#28303F"/>
<path fill-rule="evenodd" clip-rule="evenodd" d="M13.25 8C13.25 7.58579 13.5858 7.25 14 7.25L21 7.25C21.4142 7.25 21.75 7.58579 21.75 8C21.75 8.41421 21.4142 8.75 21 8.75L14 8.75C13.5858 8.75 13.25 8.41421 13.25 8Z" fill="#28303F"/>
<path opacity="0.4" d="M18 16C18 17.6569 16.6569 19 15 19C13.3431 19 12 17.6569 12 16C12 14.3431 13.3431 13 15 13C16.6569 13 18 14.3431 18 16Z" fill="#28303F"/>
<path opacity="0.4" d="M12 8C12 9.65685 10.6569 11 9 11C7.34315 11 6 9.65685 6 8C6 6.34315 7.34315 5 9 5C10.6569 5 12 6.34315 12 8Z" fill="#28303F"/>
</svg>
