<svg width="24" height="24" viewBox="0 0 24 24" fill="none" xmlns="http://www.w3.org/2000/svg">
<path opacity="0.4" d="M17.1429 2H6.85714C6.38376 2 6 2.38376 6 2.85714C6 4.93271 7.22955 6.7211 9 7.53368V19C9 20.6569 10.3431 22 12 22C13.6569 22 15 20.6569 15 19V7.53368C16.7705 6.7211 18 4.93271 18 2.85714C18 2.38376 17.6162 2 17.1429 2Z" fill="#28303F"/>
<path fill-rule="evenodd" clip-rule="evenodd" d="M12 8.25C12.4142 8.25 12.75 8.58579 12.75 9V11C12.75 11.4142 12.4142 11.75 12 11.75C11.5858 11.75 11.25 11.4142 11.25 11V9C11.25 8.58579 11.5858 8.25 12 8.25Z" fill="#28303F"/>
</svg>
