<svg width="24" height="24" viewBox="0 0 24 24" fill="none" xmlns="http://www.w3.org/2000/svg">
<path fill-rule="evenodd" clip-rule="evenodd" d="M6.59923 5.54909C6.84802 5.88027 6.78122 6.35042 6.45005 6.59921C4.20185 8.28808 2.75 10.9744 2.75 14C2.75 16.5545 3.78452 18.866 5.45926 20.5407C5.75216 20.8336 5.75216 21.3085 5.45926 21.6014C5.16637 21.8943 4.6915 21.8943 4.3986 21.6014C2.45406 19.6568 1.25 16.9683 1.25 14C1.25 10.4827 2.94 7.3599 5.54912 5.3999C5.8803 5.15112 6.35045 5.21791 6.59923 5.54909ZM9.51627 8.48522C9.73222 8.83868 9.62075 9.30029 9.26728 9.51624C7.756 10.4396 6.75 12.1026 6.75 14C6.75 15.4499 7.33681 16.7614 8.28769 17.7123C8.58058 18.0052 8.58058 18.4801 8.28769 18.7729C7.9948 19.0658 7.51992 19.0658 7.22703 18.7729C6.00634 17.5523 5.25 15.8637 5.25 14C5.25 11.5586 6.54664 9.42066 8.48525 8.23624C8.83871 8.02028 9.30032 8.13176 9.51627 8.48522ZM12 12.75C11.3096 12.75 10.75 13.3096 10.75 14C10.75 14.6903 11.3096 15.25 12 15.25C12.6904 15.25 13.25 14.6903 13.25 14C13.25 13.5858 13.5858 13.25 14 13.25C14.4142 13.25 14.75 13.5858 14.75 14C14.75 15.5188 13.5188 16.75 12 16.75C10.4812 16.75 9.25 15.5188 9.25 14C9.25 12.4812 10.4812 11.25 12 11.25C12.4142 11.25 12.75 11.5858 12.75 12C12.75 12.4142 12.4142 12.75 12 12.75Z" fill="#28303F"/>
<path fill-rule="evenodd" clip-rule="evenodd" d="M1.46967 1.46967C1.76256 1.17678 2.23744 1.17678 2.53033 1.46967L22.5303 21.4697C22.8232 21.7626 22.8232 22.2374 22.5303 22.5303C22.2374 22.8232 21.7626 22.8232 21.4697 22.5303L1.46967 2.53033C1.17678 2.23744 1.17678 1.76256 1.46967 1.46967Z" fill="#28303F"/>
<path opacity="0.4" fill-rule="evenodd" clip-rule="evenodd" d="M11.9999 4.75C10.8926 4.75 9.83222 4.94426 8.85006 5.29994C8.46059 5.44097 8.03054 5.23958 7.8895 4.85012C7.74846 4.46066 7.94985 4.0306 8.33932 3.88956C9.48286 3.47545 10.7159 3.25 11.9999 3.25C17.937 3.25 22.7499 8.06294 22.7499 14C22.7499 15.284 22.5245 16.5171 22.1104 17.6606C21.9693 18.0501 21.5393 18.2515 21.1498 18.1104C20.7604 17.9694 20.559 17.5393 20.7 17.1499C21.0557 16.1677 21.2499 15.1074 21.2499 14C21.2499 8.89137 17.1086 4.75 11.9999 4.75ZM11.2499 8C11.2499 7.58579 11.5857 7.25 11.9999 7.25C15.7279 7.25 18.7499 10.2721 18.7499 14C18.7499 14.4142 18.4142 14.75 17.9999 14.75C17.5857 14.75 17.2499 14.4142 17.2499 14C17.2499 11.1005 14.8994 8.75 11.9999 8.75C11.5857 8.75 11.2499 8.41421 11.2499 8Z" fill="#28303F"/>
</svg>
