<svg width="24" height="24" viewBox="0 0 24 24" fill="none" xmlns="http://www.w3.org/2000/svg">
<path opacity="0.4" d="M14 14C14 15.1046 13.1046 16 12 16C10.8954 16 10 15.1046 10 14C10 12.8954 10.8954 12 12 12C13.1046 12 14 12.8954 14 14Z" fill="#28303F"/>
<path fill-rule="evenodd" clip-rule="evenodd" d="M12 8.75C9.10051 8.75 6.75 11.1005 6.75 14C6.75 15.45 7.33681 16.7614 8.28769 17.7123C8.58058 18.0052 8.58058 18.4801 8.28769 18.773C7.9948 19.0659 7.51992 19.0659 7.22703 18.773C6.00634 17.5523 5.25 15.8638 5.25 14C5.25 10.2721 8.27208 7.25 12 7.25C15.7279 7.25 18.75 10.2721 18.75 14C18.75 15.8638 17.9937 17.5523 16.773 18.773C16.4801 19.0659 16.0052 19.0659 15.7123 18.773C15.4194 18.4801 15.4194 18.0052 15.7123 17.7123C16.6632 16.7614 17.25 15.45 17.25 14C17.25 11.1005 14.8995 8.75 12 8.75Z" fill="#28303F"/>
<path opacity="0.4" fill-rule="evenodd" clip-rule="evenodd" d="M12 4.75C6.89137 4.75 2.75 8.89137 2.75 14C2.75 16.5545 3.78452 18.866 5.45926 20.5407C5.75216 20.8336 5.75216 21.3085 5.45926 21.6014C5.16637 21.8943 4.6915 21.8943 4.3986 21.6014C2.45406 19.6569 1.25 16.9683 1.25 14C1.25 8.06294 6.06294 3.25 12 3.25C17.9371 3.25 22.75 8.06294 22.75 14C22.75 16.9683 21.5459 19.6569 19.6014 21.6014C19.3085 21.8943 18.8336 21.8943 18.5407 21.6014C18.2478 21.3085 18.2478 20.8336 18.5407 20.5407C20.2155 18.866 21.25 16.5545 21.25 14C21.25 8.89137 17.1086 4.75 12 4.75Z" fill="#28303F"/>
</svg>
