<svg width="24" height="24" viewBox="0 0 24 24" fill="none" xmlns="http://www.w3.org/2000/svg">
<path opacity="0.4" d="M17.0002 12C17.0002 14.7614 14.7617 17 12.0002 17C9.23882 17 7.00024 14.7614 7.00024 12C7.00024 9.23858 9.23882 7 12.0002 7C14.7617 7 17.0002 9.23858 17.0002 12Z" fill="#28303F"/>
<path fill-rule="evenodd" clip-rule="evenodd" d="M12.0002 1.25C12.4145 1.25 12.7502 1.58579 12.7502 2V4C12.7502 4.41421 12.4145 4.75 12.0002 4.75C11.586 4.75 11.2502 4.41421 11.2502 4V2C11.2502 1.58579 11.586 1.25 12.0002 1.25Z" fill="#28303F"/>
<path fill-rule="evenodd" clip-rule="evenodd" d="M12.0002 19.25C12.4145 19.25 12.7502 19.5858 12.7502 20V22C12.7502 22.4142 12.4145 22.75 12.0002 22.75C11.586 22.75 11.2502 22.4142 11.2502 22V20C11.2502 19.5858 11.586 19.25 12.0002 19.25Z" fill="#28303F"/>
<path fill-rule="evenodd" clip-rule="evenodd" d="M21.3098 6.62511C21.5169 6.98382 21.394 7.44252 21.0353 7.64962L19.3032 8.64962C18.9445 8.85673 18.4858 8.73382 18.2787 8.3751C18.0716 8.01639 18.1945 7.55769 18.5532 7.35059L20.2853 6.35059C20.644 6.14348 21.1027 6.26639 21.3098 6.62511Z" fill="#28303F"/>
<path fill-rule="evenodd" clip-rule="evenodd" d="M5.72144 15.6251C5.92854 15.9838 5.80564 16.4425 5.44692 16.6496L3.71487 17.6496C3.35615 17.8567 2.89745 17.7338 2.69035 17.3751C2.48324 17.0164 2.60615 16.5577 2.96487 16.3506L4.69692 15.3506C5.05564 15.1435 5.51433 15.2664 5.72144 15.6251Z" fill="#28303F"/>
<path fill-rule="evenodd" clip-rule="evenodd" d="M2.69043 6.62489C2.89754 6.26618 3.35623 6.14327 3.71495 6.35038L5.447 7.35038C5.80572 7.55748 5.92863 8.01618 5.72152 8.37489C5.51441 8.73361 5.05572 8.85652 4.697 8.64941L2.96495 7.64941C2.60623 7.44231 2.48332 6.98361 2.69043 6.62489Z" fill="#28303F"/>
<path fill-rule="evenodd" clip-rule="evenodd" d="M18.2788 15.6249C18.4859 15.2662 18.9446 15.1433 19.3033 15.3504L21.0354 16.3504C21.3941 16.5575 21.517 17.0162 21.3099 17.3749C21.1028 17.7336 20.6441 17.8565 20.2854 17.6494L18.5533 16.6494C18.1946 16.4423 18.0717 15.9836 18.2788 15.6249Z" fill="#28303F"/>
</svg>
