<svg width="24" height="24" viewBox="0 0 24 24" fill="none" xmlns="http://www.w3.org/2000/svg">
<path fill-rule="evenodd" clip-rule="evenodd" d="M8.75 18.1721C8.79666 18.137 8.84142 18.0982 8.88388 18.0558L10.4697 16.47C10.7626 16.1771 11.2374 16.1771 11.5303 16.47C11.8232 16.7629 11.8232 17.2377 11.5303 17.5306L9.94454 19.1164C8.8706 20.1904 7.1294 20.1904 6.05546 19.1164L4.46967 17.5306C4.17678 17.2377 4.17678 16.7629 4.46967 16.47C4.76256 16.1771 5.23744 16.1771 5.53033 16.47L7.11612 18.0558C7.15858 18.0982 7.20334 18.137 7.25 18.1721L7.25 10.0003C7.25 9.58609 7.58579 9.2503 8 9.2503C8.41421 9.2503 8.75 9.58609 8.75 10.0003L8.75 18.1721Z" fill="#28303F"/>
<path opacity="0.4" fill-rule="evenodd" clip-rule="evenodd" d="M15.25 5.82842C15.2033 5.86349 15.1586 5.90226 15.1161 5.94473L13.5303 7.53052C13.2374 7.82341 12.7626 7.82341 12.4697 7.53052C12.1768 7.23762 12.1768 6.76275 12.4697 6.46986L14.0555 4.88407C15.1294 3.81013 16.8706 3.81013 17.9445 4.88407L19.5303 6.46986C19.8232 6.76275 19.8232 7.23762 19.5303 7.53052C19.2374 7.82341 18.7626 7.82341 18.4697 7.53052L16.8839 5.94473C16.8414 5.90226 16.7967 5.86349 16.75 5.82841L16.75 14.0002C16.75 14.4144 16.4142 14.7502 16 14.7502C15.5858 14.7502 15.25 14.4144 15.25 14.0002L15.25 5.82842Z" fill="#28303F"/>
</svg>
