<svg width="24" height="24" viewBox="0 0 24 24" fill="none" xmlns="http://www.w3.org/2000/svg">
<path fill-rule="evenodd" clip-rule="evenodd" d="M8.75 18.1716C8.79666 18.1365 8.84142 18.0977 8.88388 18.0553L10.4697 16.4695C10.7626 16.1766 11.2374 16.1766 11.5303 16.4695C11.8232 16.7624 11.8232 17.2373 11.5303 17.5301L9.94454 19.1159C8.8706 20.1899 7.1294 20.1899 6.05546 19.1159L4.46967 17.5301C4.17678 17.2373 4.17678 16.7624 4.46967 16.4695C4.76256 16.1766 5.23744 16.1766 5.53033 16.4695L7.11612 18.0553C7.15858 18.0977 7.20334 18.1365 7.25 18.1716L7.25 7.99981C7.25 7.5856 7.58579 7.24981 8 7.24981C8.41421 7.24981 8.75 7.5856 8.75 7.99981L8.75 18.1716Z" fill="#28303F"/>
<path fill-rule="evenodd" clip-rule="evenodd" d="M3.46967 3.46967C3.76256 3.17678 4.23744 3.17678 4.53033 3.46967L20.5303 19.4697C20.8232 19.7626 20.8232 20.2374 20.5303 20.5303C20.2374 20.8232 19.7626 20.8232 19.4697 20.5303L3.46967 4.53033C3.17678 4.23744 3.17678 3.76256 3.46967 3.46967Z" fill="#28303F"/>
<path opacity="0.4" fill-rule="evenodd" clip-rule="evenodd" d="M16.75 13.6895L16.75 5.82841C16.7967 5.86349 16.8414 5.90226 16.8839 5.94473L18.4697 7.53052C18.7626 7.82341 19.2374 7.82341 19.5303 7.53052C19.8232 7.23762 19.8232 6.76275 19.5303 6.46986L17.9445 4.88407C16.8706 3.81013 15.1294 3.81013 14.0555 4.88407L12.4697 6.46986C12.1768 6.76275 12.1768 7.23762 12.4697 7.53052C12.7626 7.82341 13.2374 7.82341 13.5303 7.53052L15.1161 5.94473C15.1586 5.90226 15.2033 5.86349 15.25 5.82842L15.25 12.1895L16.75 13.6895Z" fill="#28303F"/>
</svg>
