<svg width="24" height="24" viewBox="0 0 24 24" fill="none" xmlns="http://www.w3.org/2000/svg">
<path fill-rule="evenodd" clip-rule="evenodd" d="M8.75 9.29785C8.33579 9.29785 8 9.63364 8 10.0479V18.0479C8 18.4621 8.33579 18.7979 8.75 18.7979C9.16421 18.7979 9.5 18.4621 9.5 18.0479V10.0479C9.5 9.63364 9.16421 9.29785 8.75 9.29785Z" fill="#28303F"/>
<path fill-rule="evenodd" clip-rule="evenodd" d="M17.25 6.29785C16.8358 6.29785 16.5 6.63364 16.5 7.04785V16.0479C16.5 16.4621 16.8358 16.7979 17.25 16.7979C17.6642 16.7979 18 16.4621 18 16.0479V7.04785C18 6.63364 17.6642 6.29785 17.25 6.29785Z" fill="#28303F"/>
<path d="M10.5144 10.0421L15.2572 8.14496C16.5709 7.61947 18 8.58699 18 10.0019V5.00197C18 3.58704 16.5709 2.61953 15.2572 3.14502L10.5144 5.04213C8.9958 5.64958 8 7.12042 8 8.75604V13.756C8 12.1204 8.9958 10.6495 10.5144 10.0421Z" fill="#28303F"/>
<path d="M18 16.0479C18 17.7047 16.6569 19.0479 15 19.0479C13.3431 19.0479 12 17.7047 12 16.0479C12 14.391 13.3431 13.0479 15 13.0479C16.6569 13.0479 18 14.391 18 16.0479Z" fill="#28303F"/>
<path d="M9.5 18C9.5 19.6569 8.15685 21 6.5 21C4.84315 21 3.5 19.6569 3.5 18C3.5 16.3431 4.84315 15 6.5 15C8.15685 15 9.5 16.3431 9.5 18Z" fill="#28303F"/>
<path fill-rule="evenodd" clip-rule="evenodd" d="M2.46967 2.46967C2.76256 2.17678 3.23744 2.17678 3.53033 2.46967L21.5303 20.4697C21.8232 20.7626 21.8232 21.2374 21.5303 21.5303C21.2374 21.8232 20.7626 21.8232 20.4697 21.5303L2.46967 3.53033C2.17678 3.23744 2.17678 2.76256 2.46967 2.46967Z" fill="#28303F"/>
<path opacity="0.4" d="M15.2573 8.14496C16.571 7.61947 18.0001 8.58699 18.0001 10.0019V5.00197C18.0001 3.58704 16.571 2.61953 15.2573 3.14502L10.5145 5.04213C9.48917 5.45227 8.70216 6.25601 8.29907 7.23832L10.9347 9.87399L15.2573 8.14496Z" fill="#28303F"/>
<path opacity="0.4" d="M18 16.0479C18 14.391 16.6569 13.0479 15 13.0479C14.7277 13.0479 14.4637 13.0842 14.2129 13.1522L17.8957 16.835C17.9637 16.5842 18 16.3202 18 16.0479Z" fill="#28303F"/>
</svg>
