<svg width="24" height="24" viewBox="0 0 24 24" fill="none" xmlns="http://www.w3.org/2000/svg">
<path fill-rule="evenodd" clip-rule="evenodd" d="M9.75 9.29785C9.33579 9.29785 9 9.63364 9 10.0479V18.0479C9 18.4621 9.33579 18.7979 9.75 18.7979C10.1642 18.7979 10.5 18.4621 10.5 18.0479V10.0479C10.5 9.63364 10.1642 9.29785 9.75 9.29785Z" fill="#28303F"/>
<path fill-rule="evenodd" clip-rule="evenodd" d="M18.25 6.29785C17.8358 6.29785 17.5 6.63364 17.5 7.04785V16.0479C17.5 16.4621 17.8358 16.7979 18.25 16.7979C18.6642 16.7979 19 16.4621 19 16.0479V7.04785C19 6.63364 18.6642 6.29785 18.25 6.29785Z" fill="#28303F"/>
<path opacity="0.4" d="M11.5144 10.0421L16.2572 8.14496C17.5709 7.61947 19 8.58699 19 10.0019V5.00197C19 3.58704 17.5709 2.61953 16.2572 3.14502L11.5144 5.04213C9.9958 5.64958 9 7.12042 9 8.75604V13.756C9 12.1204 9.9958 10.6495 11.5144 10.0421Z" fill="#28303F"/>
<path opacity="0.4" d="M19 16.0479C19 17.7047 17.6569 19.0479 16 19.0479C14.3431 19.0479 13 17.7047 13 16.0479C13 14.391 14.3431 13.0479 16 13.0479C17.6569 13.0479 19 14.391 19 16.0479Z" fill="#28303F"/>
<path opacity="0.4" d="M10.5 18C10.5 19.6569 9.15685 21 7.5 21C5.84315 21 4.5 19.6569 4.5 18C4.5 16.3431 5.84315 15 7.5 15C9.15685 15 10.5 16.3431 10.5 18Z" fill="#28303F"/>
</svg>
