<svg width="24" height="24" viewBox="0 0 24 24" fill="none" xmlns="http://www.w3.org/2000/svg">
<path opacity="0.4" d="M5.67964 8.79403C6.05382 5.49085 8.77095 3 12 3C15.2291 3 17.9462 5.49085 18.3204 8.79403L18.6652 11.8385C18.7509 12.595 19.0575 13.3069 19.5445 13.88C20.5779 15.0964 19.7392 17 18.1699 17H5.83014C4.26081 17 3.42209 15.0964 4.45549 13.88C4.94246 13.3069 5.24906 12.595 5.33476 11.8385L5.67964 8.79403Z" fill="#28303F"/>
<path d="M12 21C13.385 21 14.5633 20.1652 15 19C15 18.7239 14.7761 18.5 14.5 18.5H9.5C9.22386 18.5 9 18.7239 9 19C9.43668 20.1652 10.615 21 12 21Z" fill="#28303F"/>
</svg>
