<svg width="24" height="24" viewBox="0 0 24 24" fill="none" xmlns="http://www.w3.org/2000/svg">
<path opacity="0.4" d="M5.67964 9.79403C6.05382 6.49085 8.77095 4 12 4C15.2291 4 17.9462 6.49085 18.3204 9.79403L18.6652 12.8385C18.7509 13.595 19.0575 14.3069 19.5445 14.88C20.5779 16.0964 19.7392 18 18.1699 18H5.83014C4.26081 18 3.42209 16.0964 4.45549 14.88C4.94246 14.3069 5.24906 13.595 5.33476 12.8385L5.67964 9.79403Z" fill="#28303F"/>
<path d="M12 22C13.385 22 14.5633 21.1652 15 20C15 19.7239 14.7761 19.5 14.5 19.5H9.5C9.22386 19.5 9 19.7239 9 20C9.43668 21.1652 10.615 22 12 22Z" fill="#28303F"/>
<path d="M20 5C20 6.65685 18.6569 8 17 8C15.3431 8 14 6.65685 14 5C14 3.34315 15.3431 2 17 2C18.6569 2 20 3.34315 20 5Z" fill="#28303F"/>
</svg>
