<svg width="24" height="24" viewBox="0 0 24 24" fill="none" xmlns="http://www.w3.org/2000/svg">
<path opacity="0.4" d="M4.8468 9.19363C5.238 5.74031 8.07863 3.13623 11.4545 3.13623C14.8303 3.13623 17.6709 5.74031 18.0621 9.19363L18.4227 12.3765C18.5123 13.1674 18.8328 13.9116 19.3419 14.5108C20.4223 15.7825 19.5454 17.7726 17.9048 17.7726H5.00414C3.36349 17.7726 2.48664 15.7825 3.56702 14.5108C4.07612 13.9116 4.39666 13.1673 4.48625 12.3765L4.8468 9.19363Z" fill="#28303F"/>
<path d="M11.4545 21.9545C12.9025 21.9545 14.1343 21.0817 14.5908 19.8635C14.5908 19.5749 14.3568 19.3408 14.0681 19.3408H8.84084C8.55215 19.3408 8.31812 19.5749 8.31812 19.8635C8.77465 21.0817 10.0065 21.9545 11.4545 21.9545Z" fill="#28303F"/>
<path d="M18.4228 12.3765L18.0623 9.19363C17.6711 5.74031 14.8304 3.13623 11.4546 3.13623C9.02203 3.13623 7.07135 4.27638 6.13538 5.85597L18.0299 17.7505C19.4981 17.7505 20.4224 15.7825 19.3421 14.5108C18.833 13.9116 18.5124 13.1673 18.4228 12.3765Z" fill="#28303F"/>
<path fill-rule="evenodd" clip-rule="evenodd" d="M1.49101 2.32048C1.1848 2.62668 1.1848 3.12314 1.49101 3.42935L20.3092 22.2475C20.6154 22.5537 21.1119 22.5537 21.4181 22.2475C21.7243 21.9413 21.7243 21.4449 21.4181 21.1387L2.59988 2.32048C2.29367 2.01427 1.79721 2.01427 1.49101 2.32048Z" fill="#28303F"/>
</svg>
