<svg width="24" height="24" viewBox="0 0 24 24" fill="none" xmlns="http://www.w3.org/2000/svg">
<path opacity="0.4" d="M15 2H7C5.34315 2 4 3.34315 4 5V19C4 20.6569 5.34315 22 7 22H15C16.6569 22 18 20.6569 18 19V5C18 3.34315 16.6569 2 15 2Z" fill="#28303F"/>
<path fill-rule="evenodd" clip-rule="evenodd" d="M16 13.75C15.3096 13.75 14.75 14.3096 14.75 15V17C14.75 17.4142 14.4142 17.75 14 17.75C13.5858 17.75 13.25 17.4142 13.25 17V15C13.25 13.4812 14.4812 12.25 16 12.25C17.5188 12.25 18.75 13.4812 18.75 15V17C18.75 17.4142 18.4142 17.75 18 17.75C17.5858 17.75 17.25 17.4142 17.25 17V15C17.25 14.3096 16.6904 13.75 16 13.75Z" fill="#28303F"/>
<path d="M18 16H14C12.8954 16 12 16.8954 12 18V20C12 21.1046 12.8954 22 14 22H18C19.1046 22 20 21.1046 20 20V18C20 16.8954 19.1046 16 18 16Z" fill="#28303F"/>
</svg>
