<svg width="24" height="24" viewBox="0 0 24 24" fill="none" xmlns="http://www.w3.org/2000/svg">
<path fill-rule="evenodd" clip-rule="evenodd" d="M10.75 9C10.75 8.30964 11.3096 7.75 12 7.75C12.6904 7.75 13.25 8.30964 13.25 9V10H14C14.2652 10 14.5184 10.0516 14.75 10.1454V9C14.75 7.48122 13.5188 6.25 12 6.25C10.4812 6.25 9.25 7.48122 9.25 9V10.1454C9.48161 10.0516 9.73477 10 10 10H10.75V9Z" fill="#28303F"/>
<path opacity="0.4" d="M14 10H10C8.89543 10 8 10.8954 8 12V14C8 15.1046 8.89543 16 10 16H14C15.1046 16 16 15.1046 16 14V12C16 10.8954 15.1046 10 14 10Z" fill="#28303F"/>
<path fill-rule="evenodd" clip-rule="evenodd" d="M12 2.75C6.89137 2.75 2.75 6.89137 2.75 12C2.75 17.1086 6.89137 21.25 12 21.25C15.6308 21.25 18.7744 19.1582 20.2889 16.1107C20.4732 15.7397 20.9234 15.5885 21.2943 15.7728C21.6652 15.9571 21.8165 16.4073 21.6322 16.7782C19.874 20.3161 16.2219 22.75 12 22.75C6.06294 22.75 1.25 17.9371 1.25 12C1.25 6.06294 6.06294 1.25 12 1.25C17.9371 1.25 22.75 6.06294 22.75 12C22.75 12.2411 22.6341 12.4675 22.4385 12.6084C22.243 12.7494 21.9915 12.7877 21.7628 12.7115L18.7628 11.7115C18.3699 11.5805 18.1575 11.1558 18.2885 10.7628C18.4195 10.3699 18.8442 10.1575 19.2372 10.2885L21.1899 10.9394C20.6637 6.33026 16.75 2.75 12 2.75Z" fill="#28303F"/>
</svg>
