<svg width="24" height="24" viewBox="0 0 24 24" fill="none" xmlns="http://www.w3.org/2000/svg">
<path opacity="0.4" d="M6 8C6 6.89543 6.89543 6 8 6H16C17.1046 6 18 6.89543 18 8V16C18 17.1046 17.1046 18 16 18H8C6.89543 18 6 17.1046 6 16V8Z" fill="#28303F"/>
<path fill-rule="evenodd" clip-rule="evenodd" d="M2.25 5C2.25 3.48122 3.48122 2.25 5 2.25H9C9.41421 2.25 9.75 2.58579 9.75 3C9.75 3.41421 9.41421 3.75 9 3.75H5C4.30964 3.75 3.75 4.30964 3.75 5V9C3.75 9.41421 3.41421 9.75 3 9.75C2.58579 9.75 2.25 9.41421 2.25 9V5Z" fill="#28303F"/>
<path fill-rule="evenodd" clip-rule="evenodd" d="M21.75 19C21.75 20.5188 20.5188 21.75 19 21.75L15 21.75C14.5858 21.75 14.25 21.4142 14.25 21C14.25 20.5858 14.5858 20.25 15 20.25L19 20.25C19.6904 20.25 20.25 19.6904 20.25 19L20.25 15C20.25 14.5858 20.5858 14.25 21 14.25C21.4142 14.25 21.75 14.5858 21.75 15L21.75 19Z" fill="#28303F"/>
</svg>
