<svg width="24" height="24" viewBox="0 0 24 24" fill="none" xmlns="http://www.w3.org/2000/svg">
<path opacity="0.4" d="M5.45914 11.4694C4.67809 10.6883 4.67809 9.42201 5.45914 8.64096L8.64137 5.45873C9.42242 4.67768 10.6887 4.67768 11.4698 5.45873L18.5409 12.5298C19.3219 13.3108 19.3219 14.5772 18.5409 15.3582L15.3586 18.5405C14.5776 19.3215 13.3113 19.3215 12.5302 18.5405L5.45914 11.4694Z" fill="#28303F"/>
<path fill-rule="evenodd" clip-rule="evenodd" d="M13.2688 3.05686C13.3605 2.65291 13.7623 2.39975 14.1662 2.49141C17.2536 3.19198 19.7834 5.35592 20.9887 8.21627L21.3604 7.60853C21.5765 7.25515 22.0381 7.14386 22.3915 7.35995C22.7449 7.57604 22.8562 8.03769 22.6401 8.39107L21.4171 10.3911C21.2579 10.6514 20.9568 10.7894 20.6556 10.7399C20.3545 10.6904 20.1133 10.4634 20.0458 10.1658C19.3462 7.08263 16.9174 4.65383 13.8343 3.95423C13.4303 3.86257 13.1772 3.4608 13.2688 3.05686ZM3.34487 13.2597C3.646 13.3092 3.88713 13.5362 3.95466 13.8338C4.65426 16.917 7.08307 19.3458 10.1662 20.0454C10.5701 20.137 10.8233 20.5388 10.7316 20.9428C10.64 21.3467 10.2382 21.5999 9.83427 21.5082C6.74685 20.8076 4.21699 18.6436 3.01169 15.7832L2.63994 16.3911C2.42383 16.7445 1.96217 16.8557 1.60881 16.6396C1.25544 16.4235 1.14417 15.9619 1.36028 15.6085L2.58342 13.6085C2.74264 13.3481 3.04373 13.2102 3.34487 13.2597Z" fill="#28303F"/>
</svg>
