<svg width="24" height="24" viewBox="0 0 24 24" fill="none" xmlns="http://www.w3.org/2000/svg">
<path opacity="0.4" d="M20 18L20 6C20 3.79086 18.2091 2 16 2L10.6569 2C9.59599 2 8.57858 2.42143 7.82843 3.17157L5.17157 5.82843C4.42143 6.57857 4 7.59599 4 8.65685L4 18C4 20.2091 5.79086 22 8 22L16 22C18.2091 22 20 20.2091 20 18Z" fill="#28303F"/>
<path fill-rule="evenodd" clip-rule="evenodd" d="M17 4.25C17.4142 4.25 17.75 4.58579 17.75 5L17.75 7C17.75 7.41421 17.4142 7.75 17 7.75C16.5858 7.75 16.25 7.41421 16.25 7L16.25 5C16.25 4.58579 16.5858 4.25 17 4.25Z" fill="#28303F"/>
<path fill-rule="evenodd" clip-rule="evenodd" d="M14 4.25C14.4142 4.25 14.75 4.58579 14.75 5L14.75 7C14.75 7.41421 14.4142 7.75 14 7.75C13.5858 7.75 13.25 7.41421 13.25 7L13.25 5C13.25 4.58579 13.5858 4.25 14 4.25Z" fill="#28303F"/>
<path fill-rule="evenodd" clip-rule="evenodd" d="M11 4.25C11.4142 4.25 11.75 4.58579 11.75 5L11.75 7C11.75 7.41421 11.4142 7.75 11 7.75C10.5858 7.75 10.25 7.41421 10.25 7L10.25 5C10.25 4.58579 10.5858 4.25 11 4.25Z" fill="#28303F"/>
</svg>
