<svg width="24" height="24" viewBox="0 0 24 24" fill="none" xmlns="http://www.w3.org/2000/svg">
<path opacity="0.4" d="M12.8485 4H11.1515C10.2143 4 9.45454 4.71634 9.45454 5.6C9.45454 6.61121 8.37259 7.25411 7.48444 6.77064L7.39424 6.72153C6.58258 6.27971 5.54473 6.54191 5.07612 7.30717L4.22764 8.69281C3.75903 9.45808 4.03712 10.4366 4.84877 10.8785C5.73734 11.3622 5.73734 12.6378 4.84877 13.1215C4.03712 13.5634 3.75903 14.5419 4.22763 15.3072L5.07612 16.6928C5.54473 17.4581 6.58258 17.7203 7.39424 17.2785L7.48444 17.2294C8.37259 16.7459 9.45454 17.3888 9.45454 18.4C9.45454 19.2837 10.2143 20 11.1515 20H12.8485C13.7857 20 14.5455 19.2837 14.5455 18.4C14.5455 17.3888 15.6274 16.7459 16.5156 17.2294L16.6058 17.2785C17.4174 17.7203 18.4553 17.4581 18.9239 16.6928L19.7724 15.3072C20.241 14.5419 19.9629 13.5634 19.1512 13.1215C18.2627 12.6378 18.2627 11.3622 19.1512 10.8785C19.9629 10.4366 20.241 9.45809 19.7724 8.69283L18.9239 7.30719C18.4553 6.54192 17.4174 6.27972 16.6058 6.72154L16.5156 6.77065C15.6274 7.25412 14.5455 6.61122 14.5455 5.6C14.5455 4.71634 13.7857 4 12.8485 4Z" fill="#28303F"/>
<path d="M15 12C15 13.6569 13.6569 15 12 15C10.3431 15 9 13.6569 9 12C9 10.3431 10.3431 9 12 9C13.6569 9 15 10.3431 15 12Z" fill="#28303F"/>
</svg>
