<svg width="24" height="24" viewBox="0 0 24 24" fill="none" xmlns="http://www.w3.org/2000/svg">
<path opacity="0.4" d="M17.8561 20H4.14817C2.18336 20 1.25357 17.6687 2.71401 16.404L16.422 4.53357C17.8016 3.33888 20 4.28093 20 6.06681V17.9372C20 19.0765 19.0402 20 17.8561 20Z" fill="#28303F"/>
<path fill-rule="evenodd" clip-rule="evenodd" d="M17.4697 15.4697C17.7626 15.1768 18.2374 15.1768 18.5303 15.4697L20 16.9394L21.4697 15.4697C21.7626 15.1768 22.2374 15.1768 22.5303 15.4697C22.8232 15.7626 22.8232 16.2374 22.5303 16.5303L21.0607 18L22.5303 19.4697C22.8232 19.7626 22.8232 20.2374 22.5303 20.5303C22.2374 20.8232 21.7625 20.8232 21.4696 20.5303L20 19.0607L18.5304 20.5303C18.2375 20.8232 17.7626 20.8232 17.4697 20.5303C17.1768 20.2374 17.1768 19.7626 17.4697 19.4697L18.9393 18L17.4697 16.5303C17.1768 16.2374 17.1768 15.7626 17.4697 15.4697Z" fill="#28303F"/>
</svg>
