<svg width="24" height="24" viewBox="0 0 24 24" fill="none" xmlns="http://www.w3.org/2000/svg">
<path opacity="0.4" fill-rule="evenodd" clip-rule="evenodd" d="M20 3.25C20.4142 3.25 20.75 3.58579 20.75 4V13C20.75 13.4142 20.4142 13.75 20 13.75C19.5858 13.75 19.25 13.4142 19.25 13V4C19.25 3.58579 19.5858 3.25 20 3.25Z" fill="#28303F"/>
<path fill-rule="evenodd" clip-rule="evenodd" d="M14 7.25C14.4142 7.25 14.75 7.58579 14.75 8V20C14.75 20.4142 14.4142 20.75 14 20.75C13.5858 20.75 13.25 20.4142 13.25 20V8C13.25 7.58579 13.5858 7.25 14 7.25Z" fill="#28303F"/>
<path opacity="0.4" fill-rule="evenodd" clip-rule="evenodd" d="M8 11.25C8.41421 11.25 8.75 11.5858 8.75 12V20C8.75 20.4142 8.41421 20.75 8 20.75C7.58579 20.75 7.25 20.4142 7.25 20V12C7.25 11.5858 7.58579 11.25 8 11.25Z" fill="#28303F"/>
<path fill-rule="evenodd" clip-rule="evenodd" d="M2 15.25C2.41421 15.25 2.75 15.5858 2.75 16V20C2.75 20.4142 2.41421 20.75 2 20.75C1.58579 20.75 1.25 20.4142 1.25 20V16C1.25 15.5858 1.58579 15.25 2 15.25Z" fill="#28303F"/>
<path fill-rule="evenodd" clip-rule="evenodd" d="M22.5303 15.4697C22.8232 15.7626 22.8232 16.2374 22.5303 16.5303L21.0607 18L22.5303 19.4697C22.8232 19.7626 22.8232 20.2374 22.5303 20.5303C22.2374 20.8232 21.7626 20.8232 21.4697 20.5303L20 19.0607L18.5303 20.5303C18.2374 20.8232 17.7626 20.8232 17.4697 20.5303C17.1768 20.2374 17.1768 19.7626 17.4697 19.4697L18.9393 18L17.4697 16.5303C17.1768 16.2374 17.1768 15.7626 17.4697 15.4697C17.7626 15.1768 18.2374 15.1768 18.5303 15.4697L20 16.9393L21.4697 15.4697C21.7626 15.1768 22.2374 15.1768 22.5303 15.4697Z" fill="#28303F"/>
</svg>
