<svg width="24" height="24" viewBox="0 0 24 24" fill="none" xmlns="http://www.w3.org/2000/svg">
<path fill-rule="evenodd" clip-rule="evenodd" d="M9.85056 4.5623C10.4239 4.05623 11.1753 3.75 12.0001 3.75C13.795 3.75 15.2501 5.20507 15.2501 7H16C16.2564 7 16.5071 7.02412 16.7501 7.07021V7C16.7501 4.37665 14.6234 2.25 12.0001 2.25C10.7959 2.25 9.69485 2.69904 8.85796 3.4377C8.5474 3.71179 8.51785 4.18575 8.79195 4.4963C9.06605 4.80685 9.54001 4.8364 9.85056 4.5623Z" fill="#28303F"/>
<path opacity="0.4" d="M4 11C4 8.79086 5.79086 7 8 7H16C18.2091 7 20 8.79086 20 11V17C20 19.2091 18.2091 21 16 21H8C5.79086 21 4 19.2091 4 17V11Z" fill="#28303F"/>
<path d="M14 14C14 15.1046 13.1046 16 12 16C10.8954 16 10 15.1046 10 14C10 12.8954 10.8954 12 12 12C13.1046 12 14 12.8954 14 14Z" fill="#28303F"/>
</svg>
