<svg width="24" height="24" viewBox="0 0 24 24" fill="none" xmlns="http://www.w3.org/2000/svg">
<path opacity="0.4" fill-rule="evenodd" clip-rule="evenodd" d="M12 3.25C12.4142 3.25 12.75 3.58579 12.75 4V10.9594L17.0791 9.51641C17.1811 9.48238 17.25 9.38685 17.25 9.27924V6C17.25 5.58579 17.5858 5.25 18 5.25C18.4142 5.25 18.75 5.58579 18.75 6V9.27924C18.75 10.0325 18.268 10.7012 17.5534 10.9394L12.75 12.5406V13.9825C12.7503 13.9941 12.7503 14.0057 12.75 14.0173V19C12.75 19.4142 12.4142 19.75 12 19.75C11.5858 19.75 11.25 19.4142 11.25 19V14.5406L6.4466 12.9394C5.732 12.7012 5.25 12.0325 5.25 11.2792V8C5.25 7.58579 5.58579 7.25 6 7.25C6.41421 7.25 6.75 7.58579 6.75 8V11.2792C6.75 11.3868 6.81886 11.4824 6.92094 11.5164L11.25 12.9594V12.0173C11.2497 12.0057 11.2497 11.9941 11.25 11.9825V4C11.25 3.58579 11.5858 3.25 12 3.25Z" fill="#28303F"/>
<path d="M10.2 3.39984L11.2 2.0665C11.6 1.53317 12.4 1.53317 12.8 2.0665L13.8 3.39984C14.2944 4.05907 13.824 4.99984 13 4.99984H11C10.1759 4.99984 9.70556 4.05907 10.2 3.39984Z" fill="#28303F"/>
<path d="M19.5 6C19.5 6.82843 18.8284 7.5 18 7.5C17.1716 7.5 16.5 6.82843 16.5 6C16.5 5.17157 17.1716 4.5 18 4.5C18.8284 4.5 19.5 5.17157 19.5 6Z" fill="#28303F"/>
<path d="M14 20C14 21.1046 13.1046 22 12 22C10.8954 22 10 21.1046 10 20C10 18.8954 10.8954 18 12 18C13.1046 18 14 18.8954 14 20Z" fill="#28303F"/>
<path d="M4.5 7.5C4.5 6.94772 4.94772 6.5 5.5 6.5H6.5C7.05228 6.5 7.5 6.94772 7.5 7.5V8.5C7.5 9.05228 7.05228 9.5 6.5 9.5H5.5C4.94772 9.5 4.5 9.05228 4.5 8.5V7.5Z" fill="#28303F"/>
</svg>
