<svg width="24" height="24" viewBox="0 0 24 24" fill="none" xmlns="http://www.w3.org/2000/svg">
<path opacity="0.4" d="M18 2H6C3.79086 2 2 3.79086 2 6V18C2 20.2091 3.79086 22 6 22H18C20.2091 22 22 20.2091 22 18V6C22 3.79086 20.2091 2 18 2Z" fill="#28303F"/>
<path d="M16.3097 15.3955C14.998 14.2411 13.5383 13 12 13C10.4617 13 9.00195 14.2411 7.69034 15.3955C7.253 15.7804 7 16.3351 7 16.9177V17C7 18.1046 7.89543 19 9 19H15C16.1046 19 17 18.1046 17 17V16.9177C17 16.3351 16.747 15.7804 16.3097 15.3955Z" fill="#28303F"/>
<path d="M15 8C15 6.34315 13.6569 5 12 5C10.3431 5 9 6.34315 9 8C9 9.65685 10.3431 11 12 11C13.6569 11 15 9.65685 15 8Z" fill="#28303F"/>
</svg>
