<svg width="24" height="24" viewBox="0 0 24 24" fill="none" xmlns="http://www.w3.org/2000/svg">
<path opacity="0.4" d="M7 7C7 5.89543 7.89543 5 9 5H15C16.1046 5 17 5.89543 17 7V17C17 18.1046 16.1046 19 15 19H9C7.89543 19 7 18.1046 7 17V7Z" fill="#28303F"/>
<path fill-rule="evenodd" clip-rule="evenodd" d="M19 9.25C19.4142 9.25 19.75 9.58579 19.75 10V14C19.75 14.4142 19.4142 14.75 19 14.75C18.5858 14.75 18.25 14.4142 18.25 14V10C18.25 9.58579 18.5858 9.25 19 9.25Z" fill="#28303F"/>
<path fill-rule="evenodd" clip-rule="evenodd" d="M22 8.25C22.4142 8.25 22.75 8.58579 22.75 9V15C22.75 15.4142 22.4142 15.75 22 15.75C21.5858 15.75 21.25 15.4142 21.25 15V9C21.25 8.58579 21.5858 8.25 22 8.25Z" fill="#28303F"/>
<path fill-rule="evenodd" clip-rule="evenodd" d="M5 14.75C4.58579 14.75 4.25 14.4142 4.25 14L4.25 10C4.25 9.58579 4.58579 9.25 5 9.25C5.41421 9.25 5.75 9.58579 5.75 10L5.75 14C5.75 14.4142 5.41421 14.75 5 14.75Z" fill="#28303F"/>
<path fill-rule="evenodd" clip-rule="evenodd" d="M2 15.75C1.58579 15.75 1.25 15.4142 1.25 15L1.25 9C1.25 8.58579 1.58579 8.25 2 8.25C2.41421 8.25 2.75 8.58579 2.75 9L2.75 15C2.75 15.4142 2.41421 15.75 2 15.75Z" fill="#28303F"/>
</svg>
