<svg width="24" height="24" viewBox="0 0 24 24" fill="none" xmlns="http://www.w3.org/2000/svg">
<path opacity="0.4" d="M2 9C2 6.79086 3.79086 5 6 5H13C15.2091 5 17 6.79086 17 9V15C17 17.2091 15.2091 19 13 19H6C3.79086 19 2 17.2091 2 15V9Z" fill="#28303F"/>
<path d="M17 9.33351L18.5409 7.68985C19.781 6.36715 22 7.24466 22 9.05774V14.9426C22 16.7557 19.781 17.6332 18.5409 16.3105L17 14.6668V9.33351Z" fill="#28303F"/>
<path d="M14 10C14 11.1046 13.1046 12 12 12C10.8954 12 10 11.1046 10 10C10 8.89543 10.8954 8 12 8C13.1046 8 14 8.89543 14 10Z" fill="#28303F"/>
</svg>
