<svg width="24" height="24" viewBox="0 0 24 24" fill="none" xmlns="http://www.w3.org/2000/svg">
<path opacity="0.4" d="M21.1303 8.8531C22.2899 10.0732 22.2899 11.9268 21.1303 13.1469C19.1745 15.2047 15.8155 18 12 18C8.18448 18 4.82549 15.2047 2.86971 13.1469C1.7101 11.9268 1.7101 10.0732 2.86971 8.8531C4.82549 6.79533 8.18448 4 12 4C15.8155 4 19.1745 6.79533 21.1303 8.8531Z" fill="#28303F"/>
<path d="M15 11C15 12.6569 13.6569 14 12 14C10.3431 14 9 12.6569 9 11C9 9.34315 10.3431 8 12 8C13.6569 8 15 9.34315 15 11Z" fill="#28303F"/>
<path fill-rule="evenodd" clip-rule="evenodd" d="M18.5 13.75C18.0858 13.75 17.75 14.0858 17.75 14.5V16C17.75 16.4142 17.4142 16.75 17 16.75C16.5858 16.75 16.25 16.4142 16.25 16V14.5C16.25 13.2574 17.2574 12.25 18.5 12.25C19.7426 12.25 20.75 13.2574 20.75 14.5V16C20.75 16.4142 20.4142 16.75 20 16.75C19.5858 16.75 19.25 16.4142 19.25 16V14.5C19.25 14.0858 18.9142 13.75 18.5 13.75Z" fill="#28303F"/>
<path d="M20 15H17C15.8954 15 15 15.8954 15 17V18C15 19.1046 15.8954 20 17 20H20C21.1046 20 22 19.1046 22 18V17C22 15.8954 21.1046 15 20 15Z" fill="#28303F"/>
</svg>
