<svg width="24" height="24" viewBox="0 0 24 24" fill="none" xmlns="http://www.w3.org/2000/svg">
<path opacity="0.4" d="M2 16C2 14.8954 2.89543 14 4 14H8C9.10457 14 10 14.8954 10 16V20C10 21.1046 9.10457 22 8 22H4C2.89543 22 2 21.1046 2 20V16Z" fill="#28303F"/>
<path opacity="0.4" d="M2 4C2 2.89543 2.89543 2 4 2H8C9.10457 2 10 2.89543 10 4V8C10 9.10457 9.10457 10 8 10H4C2.89543 10 2 9.10457 2 8V4Z" fill="#28303F"/>
<path opacity="0.4" d="M14 16C14 14.8954 14.8954 14 16 14H20C21.1046 14 22 14.8954 22 16V20C22 21.1046 21.1046 22 20 22H16C14.8954 22 14 21.1046 14 20V16Z" fill="#28303F"/>
<path d="M13.1004 8.07125C12.3194 7.29021 12.3194 6.02387 13.1004 5.24283L15.9289 2.4144C16.7099 1.63335 17.9762 1.63335 18.7573 2.4144L21.5857 5.24283C22.3668 6.02388 22.3668 7.29021 21.5857 8.07125L18.7573 10.8997C17.9762 11.6807 16.7099 11.6807 15.9289 10.8997L13.1004 8.07125Z" fill="#28303F"/>
</svg>
