<svg width="24" height="24" viewBox="0 0 24 24" fill="none" xmlns="http://www.w3.org/2000/svg">
<path d="M13 19C13 19.5523 12.5523 20 12 20C11.4477 20 11 19.5523 11 19C11 18.4477 11.4477 18 12 18C12.5523 18 13 18.4477 13 19Z" fill="#28303F"/>
<path opacity="0.4" fill-rule="evenodd" clip-rule="evenodd" d="M12 4.75C8.55473 4.75 5.41808 6.06396 3.06107 8.21939C2.7554 8.49892 2.281 8.47773 2.00147 8.17206C1.72194 7.86638 1.74313 7.39198 2.0488 7.11245C4.67144 4.7141 8.16561 3.25 12 3.25C15.8344 3.25 19.3286 4.7141 21.9512 7.11245C22.2569 7.39198 22.2781 7.86638 21.9985 8.17206C21.719 8.47773 21.2446 8.49892 20.9389 8.21939C18.5819 6.06396 15.4453 4.75 12 4.75ZM12 9.75C9.77929 9.75 7.76484 10.6264 6.2811 12.0538C5.98259 12.341 5.50781 12.3318 5.22064 12.0333C4.93346 11.7348 4.94265 11.26 5.24116 10.9729C6.99311 9.28742 9.37619 8.25 12 8.25C14.6238 8.25 17.0069 9.28742 18.7588 10.9729C19.0574 11.26 19.0665 11.7348 18.7794 12.0333C18.4922 12.3318 18.0174 12.341 17.7189 12.0538C16.2352 10.6264 14.2207 9.75 12 9.75ZM12 14.75C11.0208 14.75 10.1434 15.1821 9.54638 15.8686C9.27458 16.1812 8.80086 16.2143 8.4883 15.9425C8.17573 15.6707 8.14268 15.1969 8.41448 14.8844C9.28422 13.8842 10.5685 13.25 12 13.25C13.4315 13.25 14.7158 13.8842 15.5855 14.8844C15.8573 15.1969 15.8243 15.6707 15.5117 15.9425C15.1991 16.2143 14.7254 16.1812 14.4536 15.8687C13.8566 15.1821 12.9792 14.75 12 14.75Z" fill="#28303F"/>
</svg>
