<svg width="24" height="24" viewBox="0 0 24 24" fill="none" xmlns="http://www.w3.org/2000/svg">
<path d="M13.4451 19C13.4451 19.5523 12.9974 20 12.4451 20C11.8928 20 11.4451 19.5523 11.4451 19C11.4451 18.4477 11.8928 18 12.4451 18C12.9974 18 13.4451 18.4477 13.4451 19Z" fill="#28303F"/>
<path opacity="0.4" fill-rule="evenodd" clip-rule="evenodd" d="M12.5 4.75C9.05473 4.75 5.91808 6.06396 3.56107 8.21939C3.2554 8.49892 2.781 8.47773 2.50147 8.17206C2.22194 7.86638 2.24313 7.39198 2.5488 7.11245C5.17144 4.7141 8.66561 3.25 12.5 3.25C16.3344 3.25 19.8286 4.7141 22.4512 7.11245C22.7569 7.39198 22.7781 7.86638 22.4985 8.17206C22.219 8.47773 21.7446 8.49892 21.4389 8.21939C19.0819 6.06396 15.9453 4.75 12.5 4.75ZM12.5 9.75C10.2793 9.75 8.26484 10.6264 6.7811 12.0538C6.48259 12.341 6.00781 12.3318 5.72064 12.0333C5.43346 11.7348 5.44265 11.26 5.74116 10.9729C7.49311 9.28742 9.87619 8.25 12.5 8.25C15.1238 8.25 17.5069 9.28742 19.2588 10.9729C19.5574 11.26 19.5665 11.7348 19.2794 12.0333C18.9922 12.3318 18.5174 12.341 18.2189 12.0538C16.7352 10.6264 14.7207 9.75 12.5 9.75ZM12.5 14.75C11.5208 14.75 10.6434 15.1821 10.0464 15.8686C9.77458 16.1812 9.30086 16.2143 8.9883 15.9425C8.67573 15.6707 8.64268 15.1969 8.91448 14.8844C9.78422 13.8842 11.0685 13.25 12.5 13.25C13.9315 13.25 15.2158 13.8842 16.0855 14.8844C16.3573 15.1969 16.3243 15.6707 16.0117 15.9425C15.6991 16.2143 15.2254 16.1812 14.9536 15.8687C14.3566 15.1821 13.4792 14.75 12.5 14.75Z" fill="#28303F"/>
<path fill-rule="evenodd" clip-rule="evenodd" d="M2.46967 2.46967C2.76256 2.17678 3.23744 2.17678 3.53033 2.46967L21.5303 20.4697C21.8232 20.7626 21.8232 21.2374 21.5303 21.5303C21.2374 21.8232 20.7626 21.8232 20.4697 21.5303L2.46967 3.53033C2.17678 3.23744 2.17678 2.76256 2.46967 2.46967Z" fill="#28303F"/>
<path d="M3.56107 8.2194C3.2554 8.49894 2.781 8.47774 2.50147 8.17207C2.22194 7.8664 2.24313 7.392 2.5488 7.11247C3.54283 6.20345 4.66205 5.42864 5.87754 4.81689L7.0016 5.94095C5.73529 6.5193 4.57591 7.29135 3.56107 8.2194Z" fill="#28303F"/>
<path d="M6.7811 12.0539C6.48259 12.341 6.00781 12.3318 5.72064 12.0333C5.43347 11.7348 5.44265 11.26 5.74116 10.9729C6.84692 9.90909 8.20409 9.10346 9.71453 8.65388L10.955 9.89434C9.35116 10.198 7.91198 10.9659 6.7811 12.0539Z" fill="#28303F"/>
<path d="M12.5 14.75C11.5208 14.75 10.6434 15.1821 10.0464 15.8687C9.77458 16.1812 9.30086 16.2143 8.9883 15.9425C8.67573 15.6707 8.64268 15.197 8.91448 14.8844C9.78422 13.8842 11.0685 13.25 12.5 13.25C13.4415 13.25 14.3192 13.5243 15.0573 13.9966L16.2446 15.184C16.3155 15.4517 16.2348 15.7485 16.0117 15.9425C15.6991 16.2143 15.2254 16.1812 14.9536 15.8687C14.3566 15.1821 13.4792 14.75 12.5 14.75Z" fill="#28303F"/>
</svg>
