<svg width="24" height="24" viewBox="0 0 24 24" fill="none" xmlns="http://www.w3.org/2000/svg">
<path opacity="0.4" d="M10.3929 20.8304L3.03589 10.8984C2.442 10.0966 2.52307 8.96823 3.29584 8.3371C8.74386 3.88763 15.2562 3.88763 20.7043 8.3371C21.477 8.96823 21.5581 10.0966 20.9642 10.8984L13.6072 20.8304C12.8076 21.9098 11.1925 21.9098 10.3929 20.8304Z" fill="#28303F"/>
<path fill-rule="evenodd" clip-rule="evenodd" d="M2.46967 2.46967C2.76256 2.17678 3.23744 2.17678 3.53033 2.46967L21.5303 20.4697C21.8232 20.7626 21.8232 21.2374 21.5303 21.5303C21.2374 21.8232 20.7626 21.8232 20.4697 21.5303L2.46967 3.53033C2.17678 3.23744 2.17678 2.76256 2.46967 2.46967Z" fill="#28303F"/>
<path d="M10.3928 20.8304L3.03577 10.8984C2.44188 10.0966 2.52295 8.96823 3.29572 8.3371C4.51264 7.34323 5.78266 6.57136 7.08207 6.02148L17.1321 16.0715L13.607 20.8304C12.8075 21.9098 11.1924 21.9098 10.3928 20.8304Z" fill="#28303F"/>
</svg>
