<svg width="24" height="24" viewBox="0 0 24 24" fill="none" xmlns="http://www.w3.org/2000/svg">
<path opacity="0.4" fill-rule="evenodd" clip-rule="evenodd" d="M13.45 7.39956C13.7814 7.64808 13.8485 8.11819 13.6 8.44956L11.5 11.2496H14C14.2841 11.2496 14.5438 11.4101 14.6708 11.6641C14.7979 11.9182 14.7705 12.2223 14.6 12.4496L11.6 16.4496C11.3515 16.7809 10.8814 16.8481 10.55 16.5996C10.2186 16.351 10.1515 15.8809 10.4 15.5496L12.5 12.7496H10C9.71593 12.7496 9.45623 12.5891 9.32918 12.335C9.20214 12.0809 9.22956 11.7768 9.4 11.5496L12.4 7.54956C12.6485 7.21819 13.1186 7.15103 13.45 7.39956Z" fill="#28303F"/>
<path fill-rule="evenodd" clip-rule="evenodd" d="M8.28769 7.22699C8.58058 7.51989 8.58058 7.99476 8.28769 8.28765C7.33681 9.23854 6.75 10.55 6.75 12C6.75 13.4499 7.33681 14.7614 8.28769 15.7123C8.58058 16.0052 8.58058 16.48 8.28769 16.7729C7.9948 17.0658 7.51992 17.0658 7.22703 16.7729C6.00634 15.5522 5.25 13.8637 5.25 12C5.25 10.1362 6.00634 8.44768 7.22703 7.22699C7.51992 6.9341 7.9948 6.9341 8.28769 7.22699ZM15.7123 7.22699C16.0052 6.9341 16.4801 6.9341 16.773 7.22699C17.9937 8.44768 18.75 10.1362 18.75 12C18.75 13.8637 17.9937 15.5522 16.773 16.7729C16.4801 17.0658 16.0052 17.0658 15.7123 16.7729C15.4194 16.48 15.4194 16.0052 15.7123 15.7123C16.6632 14.7614 17.25 13.4499 17.25 12C17.25 10.55 16.6632 9.23854 15.7123 8.28765C15.4194 7.99476 15.4194 7.51989 15.7123 7.22699Z" fill="#28303F"/>
<path opacity="0.4" fill-rule="evenodd" clip-rule="evenodd" d="M5.45926 4.39838C5.75216 4.69127 5.75216 5.16615 5.45926 5.45904C3.78452 7.13378 2.75 9.44525 2.75 11.9998C2.75 14.5543 3.78452 16.8658 5.45926 18.5405C5.75216 18.8334 5.75216 19.3083 5.45926 19.6012C5.16637 19.8941 4.6915 19.8941 4.3986 19.6012C2.45406 17.6566 1.25 14.9681 1.25 11.9998C1.25 9.03146 2.45406 6.34293 4.3986 4.39838C4.6915 4.10549 5.16637 4.10549 5.45926 4.39838ZM18.5407 4.39838C18.8336 4.10549 19.3085 4.10549 19.6014 4.39838C21.5459 6.34293 22.75 9.03146 22.75 11.9998C22.75 14.9681 21.5459 17.6566 19.6014 19.6012C19.3085 19.8941 18.8336 19.8941 18.5407 19.6012C18.2478 19.3083 18.2478 18.8334 18.5407 18.5405C20.2155 16.8658 21.25 14.5543 21.25 11.9998C21.25 9.44525 20.2155 7.13378 18.5407 5.45904C18.2478 5.16615 18.2478 4.69127 18.5407 4.39838Z" fill="#28303F"/>
</svg>
