<svg width="24" height="24" viewBox="0 0 24 24" fill="none" xmlns="http://www.w3.org/2000/svg">
<path d="M3.03293 8.75L20.9671 8.75C21.9872 8.75 22.3878 7.39858 21.539 6.82059L13.1438 1.10375C12.4512 0.632083 11.5488 0.632083 10.8562 1.10375L2.46102 6.82059C1.61224 7.39858 2.01282 8.75 3.03293 8.75Z" fill="#28303F"/>
<path d="M5.5 10.25H8.5V15.25H5.5V10.25Z" fill="#28303F"/>
<path d="M18.5 10.25H15.5V15.25H18.5V10.25Z" fill="#28303F"/>
<path d="M10.5 10.25H13.5V15.25H10.5V10.25Z" fill="#28303F"/>
<path d="M20.2764 17.3028C20.107 16.964 19.7607 16.75 19.382 16.75L4.61803 16.75C4.23926 16.75 3.893 16.964 3.72361 17.3028L2.72361 19.3028C2.39116 19.9677 2.87465 20.75 3.61803 20.75H20.382C21.1253 20.75 21.6088 19.9677 21.2764 19.3028L20.2764 17.3028Z" fill="#28303F"/>
</svg>
