<svg width="24" height="24" viewBox="0 0 24 24" fill="none" xmlns="http://www.w3.org/2000/svg">
<path fill-rule="evenodd" clip-rule="evenodd" d="M10 5C10 3.89543 10.8954 3 12 3C13.1046 3 14 3.89543 14 5V19C14 20.1046 13.1046 21 12 21C10.8954 21 10 20.1046 10 19V5ZM2 10C2 8.89543 2.89543 8 4 8C5.10457 8 6 8.89543 6 10V19C6 20.1046 5.10457 21 4 21C2.89543 21 2 20.1046 2 19V10ZM20 8C18.8954 8 18 8.89543 18 10V19C18 20.1046 18.8954 21 20 21C21.1046 21 22 20.1046 22 19V10C22 8.89543 21.1046 8 20 8Z" fill="#28303F"/>
</svg>
