<svg width="24" height="24" viewBox="0 0 24 24" fill="none" xmlns="http://www.w3.org/2000/svg">
<path fill-rule="evenodd" clip-rule="evenodd" d="M5 2H19C20.1046 2 21 2.89543 21 4V19.1543C21 20.5396 19.6259 21.5053 18.3226 21.0361L16.7608 20.4739C16.2728 20.2982 15.7356 20.319 15.2626 20.5318L12.8207 21.6307C12.2988 21.8655 11.7012 21.8655 11.1793 21.6307L8.73737 20.5318C8.26439 20.319 7.72721 20.2982 7.2392 20.4739L5.67744 21.0361C4.37412 21.5053 3 20.5396 3 19.1543V4C3 2.89543 3.89543 2 5 2ZM17 7.75C17.4142 7.75 17.75 7.41421 17.75 7C17.75 6.58579 17.4142 6.25 17 6.25L7 6.25C6.58579 6.25 6.25 6.58579 6.25 7C6.25 7.41421 6.58579 7.75 7 7.75L17 7.75ZM17.75 11C17.75 11.4142 17.4142 11.75 17 11.75L7 11.75C6.58579 11.75 6.25 11.4142 6.25 11C6.25 10.5858 6.58579 10.25 7 10.25L17 10.25C17.4142 10.25 17.75 10.5858 17.75 11ZM12 15.75C12.4142 15.75 12.75 15.4142 12.75 15C12.75 14.5858 12.4142 14.25 12 14.25H7C6.58579 14.25 6.25 14.5858 6.25 15C6.25 15.4142 6.58579 15.75 7 15.75H12Z" fill="#28303F"/>
</svg>
