<svg width="24" height="24" viewBox="0 0 24 24" fill="none" xmlns="http://www.w3.org/2000/svg">
<path fill-rule="evenodd" clip-rule="evenodd" d="M8.75 3.75C8.75 2.50736 9.75736 1.5 11 1.5H13C14.2426 1.5 15.25 2.50736 15.25 3.75V4.75H8.75V3.75ZM7.25 4.75V3.75C7.25 1.67893 8.92893 0 11 0H13C15.0711 0 16.75 1.67893 16.75 3.75V4.75H18C20.2091 4.75 22 6.54086 22 8.75V11H13.8546C13.5579 10.267 12.8393 9.75 12 9.75C11.1607 9.75 10.4421 10.267 10.1454 11H2V8.75C2 6.54086 3.79086 4.75 6 4.75H7.25ZM13.8546 12.5H22V16.75C22 18.9591 20.2091 20.75 18 20.75H6C3.79086 20.75 2 18.9591 2 16.75V12.5H10.1454C10.4421 13.233 11.1607 13.75 12 13.75C12.8393 13.75 13.5579 13.233 13.8546 12.5Z" fill="#28303F"/>
</svg>
