<svg width="24" height="24" viewBox="0 0 24 24" fill="none" xmlns="http://www.w3.org/2000/svg">
<path fill-rule="evenodd" clip-rule="evenodd" d="M8.75 3.75C8.75 2.50736 9.75736 1.5 11 1.5H13C14.2426 1.5 15.25 2.50736 15.25 3.75V4.75H8.75V3.75ZM7.25 4.75V3.75C7.25 1.67893 8.92893 0 11 0H13C15.0711 0 16.75 1.67893 16.75 3.75V4.75H18C20.2091 4.75 22 6.54086 22 8.75V9.92289C21.3061 10.2571 20.4354 10.6572 19.4703 11.057C17.6735 11.8012 15.6138 12.5166 13.7772 12.8318C13.4445 12.1892 12.7736 11.75 12 11.75C11.2264 11.75 10.5554 12.1892 10.2228 12.8318C8.38623 12.5166 6.32646 11.8012 4.52963 11.057C3.56459 10.6572 2.69385 10.2572 2 9.92291V8.75C2 6.54086 3.79086 4.75 6 4.75H7.25ZM20.0444 12.4428C20.7572 12.1475 21.4193 11.8525 22 11.5824V16.75C22 18.9591 20.2091 20.75 18 20.75H6C3.79086 20.75 2 18.9591 2 16.75V11.5824C2.58068 11.8525 3.2428 12.1475 3.95561 12.4428C5.78817 13.2019 8.02159 13.9907 10.0851 14.3291C10.3334 15.1513 11.0968 15.75 12 15.75C12.9032 15.75 13.6666 15.1513 13.9149 14.3291C15.9784 13.9907 18.2118 13.2019 20.0444 12.4428Z" fill="#28303F"/>
</svg>
