<svg width="24" height="24" viewBox="0 0 24 24" fill="none" xmlns="http://www.w3.org/2000/svg">
<path d="M18 3C19.9528 3 21.5787 4.39935 21.9298 6.25L2.0702 6.25C2.42125 4.39935 4.04721 3 6 3H18Z" fill="#28303F"/>
<path d="M22 10.25V7.75L2 7.75V10.25H22Z" fill="#28303F"/>
<path fill-rule="evenodd" clip-rule="evenodd" d="M22 11.75L2 11.75V17C2 19.2091 3.79086 21 6 21H13C13.5523 21 14 20.5523 14 20V19C14 16.7909 15.7909 15 18 15H21C21.5523 15 22 14.5523 22 14V11.75ZM6 18C6.55228 18 7 17.5523 7 17C7 16.4477 6.55228 16 6 16C5.44772 16 5 16.4477 5 17C5 17.5523 5.44772 18 6 18Z" fill="#28303F"/>
<path fill-rule="evenodd" clip-rule="evenodd" d="M20.0554 16.8027C20.3483 17.0956 20.3483 17.5705 20.0554 17.8634L19.1716 18.7472L20.0554 19.6311C20.3483 19.924 20.3483 20.3989 20.0554 20.6918C19.7626 20.9847 19.2877 20.9847 18.9948 20.6918L18.1109 19.8079L17.227 20.6918C16.9341 20.9847 16.4593 20.9847 16.1664 20.6918C15.8735 20.3989 15.8735 19.924 16.1664 19.6311L17.0502 18.7472L16.1664 17.8634C15.8735 17.5705 15.8735 17.0956 16.1664 16.8027C16.4593 16.5098 16.9341 16.5098 17.227 16.8027L18.1109 17.6866L18.9948 16.8027C19.2877 16.5098 19.7626 16.5098 20.0554 16.8027Z" fill="#28303F"/>
</svg>
