<svg width="25" height="24" viewBox="0 0 25 24" fill="none" xmlns="http://www.w3.org/2000/svg">
<path fill-rule="evenodd" clip-rule="evenodd" d="M18.375 2C20.3278 2 21.9537 3.39935 22.3048 5.25L2.4452 5.25C2.79625 3.39935 4.42221 2 6.375 2H18.375ZM22.375 9.25V6.75L2.375 6.75V9.25H22.375ZM22.375 10.75L2.375 10.75V16C2.375 18.2091 4.16586 20 6.375 20H13.375C13.9273 20 14.375 19.5523 14.375 19V18C14.375 15.7909 16.1659 14 18.375 14H21.375C21.9273 14 22.375 13.5523 22.375 13V10.75ZM6.375 17C6.92728 17 7.375 16.5523 7.375 16C7.375 15.4477 6.92728 15 6.375 15C5.82272 15 5.375 15.4477 5.375 16C5.375 16.5523 5.82272 17 6.375 17ZM21.375 17C21.375 15.8954 20.4796 15 19.375 15C18.2704 15 17.375 15.8954 17.375 17C17.375 18.1046 18.2704 19 19.375 19C18.1288 19 16.9978 19.6414 16.1671 20.6841C15.716 21.2503 16.1909 22 16.9148 22H21.8352C22.5591 22 23.034 21.2503 22.5829 20.6841C21.7522 19.6414 20.6212 19 19.375 19C20.4796 19 21.375 18.1046 21.375 17Z" fill="#28303F"/>
</svg>
