<svg width="25" height="24" viewBox="0 0 25 24" fill="none" xmlns="http://www.w3.org/2000/svg">
<path fill-rule="evenodd" clip-rule="evenodd" d="M22.3048 6.25C21.9537 4.39935 20.3278 3 18.375 3H6.375C4.42221 3 2.79625 4.39935 2.4452 6.25L22.3048 6.25ZM22.375 7.75V10.25H2.375V7.75L22.375 7.75ZM2.375 11.75L22.375 11.75V14C22.375 14.5523 21.9273 15 21.375 15H18.375C16.1659 15 14.375 16.7909 14.375 19V20C14.375 20.5523 13.9273 21 13.375 21H6.375C4.16586 21 2.375 19.2091 2.375 17V11.75ZM7.375 17C7.375 17.5523 6.92728 18 6.375 18C5.82272 18 5.375 17.5523 5.375 17C5.375 16.4477 5.82272 16 6.375 16C6.92728 16 7.375 16.4477 7.375 17ZM19.4911 17.5303L18.7714 18.25H22.375C22.7892 18.25 23.125 18.5858 23.125 19C23.125 19.4142 22.7892 19.75 22.375 19.75H18.7714L19.4911 20.4697C19.784 20.7626 19.784 21.2374 19.4911 21.5303C19.1982 21.8232 18.7234 21.8232 18.4305 21.5303L17.1376 20.2374C16.4541 19.554 16.4541 18.446 17.1376 17.7626L18.4305 16.4697C18.7234 16.1768 19.1982 16.1768 19.4911 16.4697C19.784 16.7626 19.784 17.2374 19.4911 17.5303Z" fill="#28303F"/>
</svg>
