<svg width="24" height="24" viewBox="0 0 24 24" fill="none" xmlns="http://www.w3.org/2000/svg">
<path fill-rule="evenodd" clip-rule="evenodd" d="M21.9298 6.25C21.5787 4.39935 19.9528 3 18 3H6C4.04721 3 2.42125 4.39935 2.0702 6.25L21.9298 6.25ZM22 7.75V10.25H2V7.75L22 7.75ZM2 11.75L22 11.75V14C22 14.5523 21.5523 15 21 15H18C15.7909 15 14 16.7909 14 19V20C14 20.5523 13.5523 21 13 21H6C3.79086 21 2 19.2091 2 17V11.75ZM7 17C7 17.5523 6.55228 18 6 18C5.44772 18 5 17.5523 5 17C5 16.4477 5.44772 16 6 16C6.55228 16 7 16.4477 7 17ZM22.5644 17.4939C22.8372 17.1822 22.8056 16.7083 22.4939 16.4356C22.1822 16.1628 21.7083 16.1944 21.4356 16.5061L18.5657 19.786C18.4776 19.8867 18.3258 19.9002 18.2213 19.8166L16.4685 18.4143C16.1451 18.1556 15.6731 18.208 15.4143 18.5315C15.1556 18.8549 15.208 19.3269 15.5315 19.5857L17.2843 20.9879C18.0156 21.5729 19.0778 21.4786 19.6945 20.7738L22.5644 17.4939Z" fill="#28303F"/>
</svg>
