<svg width="24" height="24" viewBox="0 0 24 24" fill="none" xmlns="http://www.w3.org/2000/svg">
<path fill-rule="evenodd" clip-rule="evenodd" d="M21.9298 6.25C21.5787 4.39935 19.9528 3 18 3H6C4.04721 3 2.42125 4.39935 2.0702 6.25L21.9298 6.25ZM22 7.75V10.25H2V7.75L22 7.75ZM2 11.75L22 11.75V14C22 14.5523 21.5523 15 21 15H18C15.7909 15 14 16.7909 14 19V20C14 20.5523 13.5523 21 13 21H6C3.79086 21 2 19.2091 2 17V11.75ZM7 17C7 17.5523 6.55228 18 6 18C5.44772 18 5 17.5523 5 17C5 16.4477 5.44772 16 6 16C6.55228 16 7 16.4477 7 17ZM21 18.75C21.4142 18.75 21.75 18.4142 21.75 18C21.75 17.5858 21.4142 17.25 21 17.25H17C16.5858 17.25 16.25 17.5858 16.25 18C16.25 18.4142 16.5858 18.75 17 18.75H21Z" fill="#28303F"/>
</svg>
