<svg width="25" height="24" viewBox="0 0 25 24" fill="none" xmlns="http://www.w3.org/2000/svg">
<path fill-rule="evenodd" clip-rule="evenodd" d="M22.3048 6.25C21.9537 4.39935 20.3278 3 18.375 3H6.375C4.42221 3 2.79625 4.39935 2.4452 6.25L22.3048 6.25ZM22.375 7.75V10.25H2.375V7.75L22.375 7.75ZM2.375 11.75L22.375 11.75V14C22.375 14.5523 21.9273 15 21.375 15H18.375C16.1659 15 14.375 16.7909 14.375 19V20C14.375 20.5523 13.9273 21 13.375 21H6.375C4.16586 21 2.375 19.2091 2.375 17V11.75ZM7.375 17C7.375 17.5523 6.92728 18 6.375 18C5.82272 18 5.375 17.5523 5.375 17C5.375 16.4477 5.82272 16 6.375 16C6.92728 16 7.375 16.4477 7.375 17ZM20.2589 17.5303L20.9786 18.25H17.375C16.9608 18.25 16.625 18.5858 16.625 19C16.625 19.4142 16.9608 19.75 17.375 19.75H20.9786L20.2589 20.4697C19.966 20.7626 19.966 21.2374 20.2589 21.5303C20.5518 21.8232 21.0266 21.8232 21.3195 21.5303L22.6124 20.2374C23.2959 19.554 23.2959 18.446 22.6124 17.7626L21.3195 16.4697C21.0266 16.1768 20.5518 16.1768 20.2589 16.4697C19.966 16.7626 19.966 17.2374 20.2589 17.5303Z" fill="#28303F"/>
</svg>
