<svg width="24" height="24" viewBox="0 0 24 24" fill="none" xmlns="http://www.w3.org/2000/svg">
<path fill-rule="evenodd" clip-rule="evenodd" d="M10.5303 5.63388L11.25 6.35355L11.25 2.75C11.25 2.33579 11.5858 2 12 2C12.4142 2 12.75 2.33579 12.75 2.75L12.75 6.35355L13.4697 5.63388C13.7626 5.34099 14.2374 5.34099 14.5303 5.63388C14.8232 5.92678 14.8232 6.40165 14.5303 6.69454L13.2374 7.98744C12.554 8.67086 11.446 8.67085 10.7626 7.98744L9.46967 6.69454C9.17678 6.40165 9.17678 5.92678 9.46967 5.63388C9.76256 5.34099 10.2374 5.34099 10.5303 5.63388ZM6 10.75C4.89543 10.75 4 11.6454 4 12.75C4 13.8546 4.89543 14.75 6 14.75C4.89543 14.75 4 15.6454 4 16.75C4 17.8546 4.89543 18.75 6 18.75H10.5C10.5 15.9852 12.5386 13.6992 15.195 13.3087C15.4586 13.2699 15.7274 13.25 16 13.25C16.312 13.25 16.618 13.276 16.9158 13.3259C16.9706 13.1435 17 12.9502 17 12.75C17 11.6454 16.1046 10.75 15 10.75H6ZM20 18.75C20 16.5409 18.2091 14.75 16 14.75C15.8007 14.75 15.6047 14.7646 15.4132 14.7927C13.4823 15.0766 12 16.7402 12 18.75C12 20.9591 13.7909 22.75 16 22.75C18.2091 22.75 20 20.9591 20 18.75Z" fill="#28303F"/>
</svg>
