<svg width="25" height="24" viewBox="0 0 25 24" fill="none" xmlns="http://www.w3.org/2000/svg">
<path fill-rule="evenodd" clip-rule="evenodd" d="M22.3048 6.25C21.9537 4.39935 20.3278 3 18.375 3H6.375C4.42221 3 2.79625 4.39935 2.4452 6.25L22.3048 6.25ZM22.375 7.75V10.25H2.375V7.75L22.375 7.75ZM2.375 11.75L22.375 11.75V14C22.375 14.5523 21.9273 15 21.375 15H18.375C16.1659 15 14.375 16.7909 14.375 19V20C14.375 20.5523 13.9273 21 13.375 21H6.375C4.16586 21 2.375 19.2091 2.375 17V11.75ZM7.375 17C7.375 17.5523 6.92728 18 6.375 18C5.82272 18 5.375 17.5523 5.375 17C5.375 16.4477 5.82272 16 6.375 16C6.92728 16 7.375 16.4477 7.375 17ZM17.9053 18.8839L18.625 19.6036V17C18.625 16.5858 18.9608 16.25 19.375 16.25C19.7892 16.25 20.125 16.5858 20.125 17V19.6036L20.8447 18.8839C21.1376 18.591 21.6124 18.591 21.9053 18.8839C22.1982 19.1768 22.1982 19.6516 21.9053 19.9445L20.6124 21.2374C19.929 21.9209 18.821 21.9209 18.1376 21.2374L16.8447 19.9445C16.5518 19.6516 16.5518 19.1768 16.8447 18.8839C17.1376 18.591 17.6124 18.591 17.9053 18.8839Z" fill="#28303F"/>
</svg>
