<svg width="24" height="24" viewBox="0 0 24 24" fill="none" xmlns="http://www.w3.org/2000/svg">
<path fill-rule="evenodd" clip-rule="evenodd" d="M2.5 1.75C2.5 1.33579 2.16421 1 1.75 1C1.33579 1 1 1.33579 1 1.75V17.75C1 20.3734 3.12665 22.5 5.75 22.5H21.75C22.1642 22.5 22.5 22.1642 22.5 21.75C22.5 21.3358 22.1642 21 21.75 21H5.75C3.95507 21 2.5 19.5449 2.5 17.75V1.75ZM16.5 8.75C16.5 8.33579 16.8358 8 17.25 8H18.75C19.7165 8 20.5 8.7835 20.5 9.75V11.25C20.5 11.6642 20.1642 12 19.75 12C19.3358 12 19 11.6642 19 11.25V10.5607L16.6945 12.8661C15.6206 13.9401 13.8794 13.9401 12.8055 12.8661L11.6339 11.6945C11.1457 11.2064 10.3543 11.2064 9.86612 11.6945L7.28033 14.2803C6.98744 14.5732 6.51256 14.5732 6.21967 14.2803C5.92678 13.9874 5.92678 13.5126 6.21967 13.2197L8.80546 10.6339C9.8794 9.55994 11.6206 9.55994 12.6945 10.6339L13.8661 11.8055C14.3543 12.2936 15.1457 12.2936 15.6339 11.8055L17.9393 9.5H17.25C16.8358 9.5 16.5 9.16421 16.5 8.75Z" fill="#28303F"/>
</svg>
