<svg width="24" height="24" viewBox="0 0 24 24" fill="none" xmlns="http://www.w3.org/2000/svg">
<path fill-rule="evenodd" clip-rule="evenodd" d="M1.75 1C2.16421 1 2.5 1.33579 2.5 1.75V17.75C2.5 19.5449 3.95507 21 5.75 21H21.75C22.1642 21 22.5 21.3358 22.5 21.75C22.5 22.1642 22.1642 22.5 21.75 22.5H5.75C3.12665 22.5 1 20.3734 1 17.75V1.75C1 1.33579 1.33579 1 1.75 1ZM11.5 11.75C11.5 11.3358 11.1642 11 10.75 11C10.3358 11 10 11.3358 10 11.75V16.75C10 17.1642 10.3358 17.5 10.75 17.5C11.1642 17.5 11.5 17.1642 11.5 16.75V11.75ZM7.5 13.75C7.5 13.3358 7.16421 13 6.75 13C6.33579 13 6 13.3358 6 13.75V16.75C6 17.1642 6.33579 17.5 6.75 17.5C7.16421 17.5 7.5 17.1642 7.5 16.75V13.75ZM14.75 13C15.1642 13 15.5 13.3358 15.5 13.75V16.75C15.5 17.1642 15.1642 17.5 14.75 17.5C14.3358 17.5 14 17.1642 14 16.75V13.75C14 13.3358 14.3358 13 14.75 13ZM19.5 16.75V11.75C19.5 11.3358 19.1642 11 18.75 11C18.3358 11 18 11.3358 18 11.75V16.75C18 17.1642 18.3358 17.5 18.75 17.5C19.1642 17.5 19.5 17.1642 19.5 16.75ZM19.2803 6.28033C19.5732 5.98744 19.5732 5.51256 19.2803 5.21967C18.9874 4.92678 18.5126 4.92678 18.2197 5.21967L15.6339 7.80546C15.1457 8.29361 14.3543 8.29361 13.8661 7.80546L12.6945 6.63388C11.6206 5.55994 9.8794 5.55994 8.80546 6.63388L6.21967 9.21967C5.92678 9.51256 5.92678 9.98744 6.21967 10.2803C6.51256 10.5732 6.98744 10.5732 7.28033 10.2803L9.86612 7.69454C10.3543 7.20639 11.1457 7.20639 11.6339 7.69454L12.8055 8.86612C13.8794 9.94006 15.6206 9.94006 16.6945 8.86612L19.2803 6.28033Z" fill="#28303F"/>
</svg>
