<svg width="24" height="24" viewBox="0 0 24 24" fill="none" xmlns="http://www.w3.org/2000/svg">
<path fill-rule="evenodd" clip-rule="evenodd" d="M2.5 1.75C2.5 1.33579 2.16421 1 1.75 1C1.33579 1 1 1.33579 1 1.75V17.75C1 20.3734 3.12665 22.5 5.75 22.5H21.75C22.1642 22.5 22.5 22.1642 22.5 21.75C22.5 21.3358 22.1642 21 21.75 21H5.75C3.95507 21 2.5 19.5449 2.5 17.75V1.75ZM16.6945 10.6339L19 12.9393V12.25C19 11.8358 19.3358 11.5 19.75 11.5C20.1642 11.5 20.5 11.8358 20.5 12.25V13.75C20.5 14.7165 19.7165 15.5 18.75 15.5H17.25C16.8358 15.5 16.5 15.1642 16.5 14.75C16.5 14.3358 16.8358 14 17.25 14H17.9393L15.6339 11.6945C15.1457 11.2064 14.3543 11.2064 13.8661 11.6945L12.6945 12.8661C11.6206 13.9401 9.8794 13.9401 8.80546 12.8661L6.21967 10.2803C5.92678 9.98744 5.92678 9.51256 6.21967 9.21967C6.51256 8.92678 6.98744 8.92678 7.28033 9.21967L9.86612 11.8055C10.3543 12.2936 11.1457 12.2936 11.6339 11.8055L12.8055 10.6339C13.8794 9.55994 15.6206 9.55994 16.6945 10.6339Z" fill="#28303F"/>
</svg>
