<svg width="24" height="24" viewBox="0 0 24 24" fill="none" xmlns="http://www.w3.org/2000/svg">
<path fill-rule="evenodd" clip-rule="evenodd" d="M12 22C17.5228 22 22 17.5228 22 12C22 6.47715 17.5228 2 12 2C6.47715 2 2 6.47715 2 12C2 17.5228 6.47715 22 12 22ZM10.3581 9.75C10.9359 9.13199 11.748 8.75 12.6394 8.75C13.5184 8.75 14.3154 9.11814 14.8916 9.71947C15.1782 10.0185 15.653 10.0287 15.9521 9.74211C16.2511 9.45553 16.2613 8.98077 15.9747 8.68169C15.1311 7.80125 13.9492 7.25 12.6394 7.25C10.8558 7.25 9.31831 8.26593 8.5337 9.75H7.77017C7.35595 9.75 7.02017 10.0858 7.02017 10.5C7.02017 10.9142 7.35595 11.25 7.77017 11.25H8.03598C7.99782 11.4945 7.97802 11.745 7.97802 12C7.97802 12.255 7.99782 12.5055 8.03598 12.75H7.77017C7.35595 12.75 7.02017 13.0858 7.02017 13.5C7.02017 13.9142 7.35595 14.25 7.77017 14.25H8.5337C9.31831 15.7341 10.8558 16.75 12.6394 16.75C13.9492 16.75 15.1311 16.1987 15.9747 15.3183C16.2613 15.0192 16.2511 14.5445 15.9521 14.2579C15.653 13.9713 15.1782 13.9815 14.8916 14.2805C14.3154 14.8819 13.5184 15.25 12.6394 15.25C11.748 15.25 10.9359 14.868 10.3581 14.25H12.5596C12.9738 14.25 13.3096 13.9142 13.3096 13.5C13.3096 13.0858 12.9738 12.75 12.5596 12.75H9.56229C9.50721 12.5097 9.47802 12.2586 9.47802 12C9.47802 11.7414 9.50721 11.4903 9.56229 11.25H12.5596C12.9738 11.25 13.3096 10.9142 13.3096 10.5C13.3096 10.0858 12.9738 9.75 12.5596 9.75H10.3581Z" fill="#28303F"/>
</svg>
