<svg width="24" height="24" viewBox="0 0 24 24" fill="none" xmlns="http://www.w3.org/2000/svg">
<path fill-rule="evenodd" clip-rule="evenodd" d="M20 6C20 4.89543 19.1046 4 18 4H10C8.89543 4 8 4.89543 8 6C8 7.10424 8.8949 7.99947 9.99901 8H6C4.89543 8 4 8.89543 4 10C4 11.1046 4.89543 12 6 12H9.99758C8.89412 12.0013 8 12.8962 8 14C8 15.1046 8.89543 16 10 16H7C5.89543 16 5 16.8954 5 18C5 19.1046 5.89543 20 7 20H15C16.1046 20 17 19.1046 17 18C17 16.8954 16.1046 16 15 16H18C19.1046 16 20 15.1046 20 14C20 12.8954 19.1046 12 18 12H14.0022C15.1058 11.9988 16 11.1038 16 10C16 8.89576 15.1051 8.00053 14.001 8H18C19.1046 8 20 7.10457 20 6Z" fill="#28303F"/>
</svg>
