<svg width="24" height="24" viewBox="0 0 24 24" fill="none" xmlns="http://www.w3.org/2000/svg">
<path fill-rule="evenodd" clip-rule="evenodd" d="M13.6246 1.47195L18.6246 3.69417C19.0318 3.87517 19.3982 4.11901 19.7145 4.41128L12 7.92566L4.28551 4.41128C4.60176 4.11901 4.96819 3.87517 5.37545 3.69417L10.3754 1.47195C11.4097 1.01228 12.5903 1.01228 13.6246 1.47195ZM3.38021 5.64718C3.13437 6.16972 3 6.74887 3 7.34942V14.1504C3 15.7312 3.93094 17.1637 5.37545 17.8057L10.3754 20.0279C10.658 20.1535 10.9515 20.2448 11.25 20.3017V9.23231L3.38021 5.64718ZM12.75 20.3017C13.0485 20.2448 13.342 20.1535 13.6246 20.0279L18.6246 17.8057C20.0691 17.1637 21 15.7312 21 14.1504V7.34942C21 6.74887 20.8656 6.16972 20.6198 5.64718L12.75 9.23231V20.3017Z" fill="#28303F"/>
</svg>
