<svg width="24" height="24" viewBox="0 0 24 24" fill="none" xmlns="http://www.w3.org/2000/svg">
<path fill-rule="evenodd" clip-rule="evenodd" d="M12 1C12.4142 1 12.75 1.33579 12.75 1.75V3.06597C14.7395 3.4202 16.25 5.1587 16.25 7.25C16.25 7.66421 15.9142 8 15.5 8C15.0858 8 14.75 7.66421 14.75 7.25C14.75 5.99122 13.9043 4.92998 12.75 4.60352V10.066C14.7395 10.4202 16.25 12.1587 16.25 14.25C16.25 16.3413 14.7395 18.0798 12.75 18.434V19.75C12.75 20.1642 12.4142 20.5 12 20.5C11.5858 20.5 11.25 20.1642 11.25 19.75V18.434C9.26049 18.0798 7.75 16.3413 7.75 14.25C7.75 13.8358 8.08579 13.5 8.5 13.5C8.91421 13.5 9.25 13.8358 9.25 14.25C9.25 15.5088 10.0957 16.57 11.25 16.8965V11.434C9.26049 11.0798 7.75 9.3413 7.75 7.25C7.75 5.1587 9.26049 3.4202 11.25 3.06597V1.75C11.25 1.33579 11.5858 1 12 1ZM11.25 4.60352C10.0957 4.92998 9.25 5.99122 9.25 7.25C9.25 8.50878 10.0957 9.57002 11.25 9.89648V4.60352ZM12.75 11.6035V16.8965C13.9043 16.57 14.75 15.5088 14.75 14.25C14.75 12.9912 13.9043 11.93 12.75 11.6035Z" fill="#28303F"/>
</svg>
