<svg width="24" height="24" viewBox="0 0 24 24" fill="none" xmlns="http://www.w3.org/2000/svg">
<path fill-rule="evenodd" clip-rule="evenodd" d="M15.4383 12.0478L12.6083 8.51043C12.2145 8.01818 12 7.40656 12 6.77617V6.65165C12 5.18718 13.1872 4 14.6517 4H14.9491C15.4619 4 15.9537 4.20372 16.3164 4.56635C16.6939 4.94392 17.3061 4.94392 17.6836 4.56635C18.0463 4.20372 18.5381 4 19.0509 4H19.3484C20.8128 4 22 5.18718 22 6.65165V6.77617C22 7.40656 21.7855 8.01818 21.3917 8.51043L18.5617 12.0478C17.7611 13.0486 16.2389 13.0486 15.4383 12.0478ZM2 8H3.58164C3.85756 8 4.1305 8.05709 4.38328 8.16769L10.2622 10.7397C11.2241 11.1605 11.6664 12.2784 11.2528 13.2434C11.19 13.3899 11.1111 13.5245 11.0191 13.646L13.7331 15.3666C14.5663 15.7831 15.4849 16 16.4164 16H18C19.1046 16 20 16.8954 20 18C20 19.1046 19.1046 20 18 20H9.88854C8.64658 20 7.42168 19.7108 6.31083 19.1554L2 17V8Z" fill="#28303F"/>
</svg>
