<svg width="24" height="24" viewBox="0 0 24 24" fill="none" xmlns="http://www.w3.org/2000/svg">
<path fill-rule="evenodd" clip-rule="evenodd" d="M13 3.75C13 3.33579 13.3358 3 13.75 3H17.75C19.2688 3 20.5 4.23122 20.5 5.75V9.75C20.5 10.1642 20.1642 10.5 19.75 10.5C19.3358 10.5 19 10.1642 19 9.75V5.75C19 5.68994 18.9958 5.63088 18.9876 5.57308L4.28033 20.2803C3.98744 20.5732 3.51256 20.5732 3.21967 20.2803C2.92678 19.9874 2.92678 19.5126 3.21967 19.2197L17.9269 4.51242C17.8691 4.50424 17.8101 4.5 17.75 4.5H13.75C13.3358 4.5 13 4.16421 13 3.75ZM9.75 7.75C9.75 8.85457 8.85457 9.75 7.75 9.75C6.64543 9.75 5.75 8.85457 5.75 7.75C5.75 6.64543 6.64543 5.75 7.75 5.75C8.85457 5.75 9.75 6.64543 9.75 7.75ZM17.75 15.75C17.75 16.8546 16.8546 17.75 15.75 17.75C14.6454 17.75 13.75 16.8546 13.75 15.75C13.75 14.6454 14.6454 13.75 15.75 13.75C16.8546 13.75 17.75 14.6454 17.75 15.75Z" fill="#28303F"/>
</svg>
