<svg width="24" height="24" viewBox="0 0 24 24" fill="none" xmlns="http://www.w3.org/2000/svg">
<path fill-rule="evenodd" clip-rule="evenodd" d="M12.75 1.75C12.75 1.33579 12.4143 1 12 1C11.5858 1 11.25 1.33579 11.25 1.75V2.75C11.25 3.16421 11.5858 3.5 12 3.5C12.4143 3.5 12.75 3.16421 12.75 2.75V1.75ZM9.8515 5.75C9.15691 5.75 8.55317 6.22687 8.39229 6.90257L7.43991 10.9026C7.21549 11.8451 7.93021 12.75 8.89912 12.75H4.8515C4.15691 12.75 3.55317 13.2269 3.39229 13.9026L2.43991 17.9026C2.21549 18.8451 2.93021 19.75 3.89912 19.75H10.101C11.0699 19.75 11.7846 18.8451 11.5602 17.9026L10.6078 13.9026C10.4469 13.2269 9.84318 12.75 9.14859 12.75H14.8515C14.1569 12.75 13.5532 13.2269 13.3923 13.9026L12.4399 17.9026C12.2155 18.8451 12.9302 19.75 13.8991 19.75H20.101C21.0699 19.75 21.7846 18.8451 21.5602 17.9026L20.6078 13.9026C20.4469 13.2269 19.8432 12.75 19.1486 12.75H15.101C16.0699 12.75 16.7846 11.8451 16.5602 10.9026L15.6078 6.90257C15.4469 6.22687 14.8432 5.75 14.1486 5.75H9.8515ZM18.5304 3.28033L17.5304 4.28033C17.2375 4.57322 16.7626 4.57322 16.4697 4.28033C16.1768 3.98744 16.1768 3.51256 16.4697 3.21967L17.4697 2.21967C17.7626 1.92678 18.2375 1.92678 18.5304 2.21967C18.8233 2.51256 18.8233 2.98744 18.5304 3.28033ZM6.53038 2.21967C6.23748 1.92678 5.76261 1.92678 5.46972 2.21967C5.17682 2.51256 5.17682 2.98744 5.46972 3.28033L6.46972 4.28033C6.76261 4.57322 7.23748 4.57322 7.53038 4.28033C7.82327 3.98744 7.82327 3.51256 7.53038 3.21967L6.53038 2.21967Z" fill="#28303F"/>
</svg>
