<svg width="24" height="24" viewBox="0 0 24 24" fill="none" xmlns="http://www.w3.org/2000/svg">
<path fill-rule="evenodd" clip-rule="evenodd" d="M14 6C14 4.89543 13.1046 4 12 4C10.8954 4 10 4.89543 10 6C10 6.17723 10.0231 6.34908 10.0663 6.51271L5.03346 10.2874C4.73185 10.105 4.37819 10 4 10C2.89543 10 2 10.8954 2 12C2 13.1046 2.89543 14 4 14C5.10457 14 6 13.1046 6 12C6 11.8227 5.97694 11.6509 5.93365 11.4872L10.9665 7.7126C11.2681 7.89502 11.6218 8 12 8C12.1387 8 12.274 7.98589 12.4047 7.95903L18.3475 16.8731C18.1282 17.194 18 17.582 18 18C18 19.1046 18.8954 20 20 20C21.1046 20 22 19.1046 22 18C22 16.8954 21.1046 16 20 16C19.8614 16 19.7261 16.0141 19.5954 16.0409L13.6526 7.12674C13.8718 6.80587 14 6.41791 14 6Z" fill="#28303F"/>
</svg>
