<svg width="24" height="24" viewBox="0 0 24 24" fill="none" xmlns="http://www.w3.org/2000/svg">
<path fill-rule="evenodd" clip-rule="evenodd" d="M20 8C21.1046 8 22 7.10457 22 6C22 4.89543 21.1046 4 20 4C18.8954 4 18 4.89543 18 6C18 6.5019 18.1849 6.96063 18.4902 7.31178L12.1512 16.0056C12.1013 16.0019 12.0509 16 12 16C11.5685 16 11.1689 16.1367 10.8421 16.3691L5.9685 12.3555C5.9892 12.2401 6 12.1213 6 12C6 10.8954 5.10457 10 4 10C2.89543 10 2 10.8954 2 12C2 13.1046 2.89543 14 4 14C4.43148 14 4.83104 13.8634 5.15779 13.631L10.0315 17.6446C10.0108 17.76 10 17.8787 10 18C10 19.1046 10.8954 20 12 20C13.1046 20 14 19.1046 14 18C14 17.4981 13.8152 17.0395 13.5098 16.6883L19.8489 7.99438C19.8988 7.9981 19.9492 8 20 8Z" fill="#28303F"/>
</svg>
