<svg width="24" height="24" viewBox="0 0 24 24" fill="none" xmlns="http://www.w3.org/2000/svg">
<path fill-rule="evenodd" clip-rule="evenodd" d="M22 7C22 4.79086 20.2091 3 18 3H6C3.79086 3 2 4.79086 2 7V17C2 19.2091 3.79086 21 6 21H18C20.2091 21 22 19.2091 22 17V7ZM7.75 12C7.75 10.7574 8.75736 9.75 10 9.75C10.3107 9.75 10.6063 9.8127 10.8752 9.92634C10.4805 10.5201 10.25 11.2334 10.25 12C10.25 12.7666 10.4805 13.4799 10.8752 14.0737C10.6063 14.1873 10.3107 14.25 10 14.25C8.75736 14.25 7.75 13.2426 7.75 12ZM10 8.25C10.7348 8.25 11.4211 8.46191 12 8.82742C12.5789 8.46191 13.2652 8.25 14 8.25C16.0711 8.25 17.75 9.92893 17.75 12C17.75 14.0711 16.0711 15.75 14 15.75C13.2652 15.75 12.5789 15.5381 12 15.1726C11.4211 15.5381 10.7348 15.75 10 15.75C7.92893 15.75 6.25 14.0711 6.25 12C6.25 9.92893 7.92893 8.25 10 8.25ZM12.5002 10.3227C12.8988 9.96602 13.4233 9.75 14 9.75C15.2426 9.75 16.25 10.7574 16.25 12C16.25 13.2426 15.2426 14.25 14 14.25C13.4233 14.25 12.8988 14.034 12.5002 13.6773C12.0387 13.2642 11.75 12.6663 11.75 12C11.75 11.3337 12.0387 10.7358 12.5002 10.3227Z" fill="#28303F"/>
</svg>
