<svg width="24" height="24" viewBox="0 0 24 24" fill="none" xmlns="http://www.w3.org/2000/svg">
<path fill-rule="evenodd" clip-rule="evenodd" d="M7 2H15C16.1046 2 17 2.89543 17 4V5.5H12.5C11.6716 5.5 11 6.17157 11 7V15C11 15.8284 11.6716 16.5 12.5 16.5H17V20C17 21.1046 16.1046 22 15 22H7C5.89543 22 5 21.1046 5 20V4C5 2.89543 5.89543 2 7 2ZM11 20C11.5523 20 12 19.5523 12 19C12 18.4477 11.5523 18 11 18C10.4477 18 10 18.4477 10 19C10 19.5523 10.4477 20 11 20ZM12.5 7H17C18.1046 7 19 7.89543 19 9V9.25H12.5V7ZM12.5 10.75H19V13C19 14.1046 18.1046 15 17 15H12.5V10.75Z" fill="#28303F"/>
</svg>
