<svg width="24" height="24" viewBox="0 0 24 24" fill="none" xmlns="http://www.w3.org/2000/svg">
<path fill-rule="evenodd" clip-rule="evenodd" d="M3 5C3 3.34315 4.34315 2 6 2H18C19.6569 2 21 3.34315 21 5V13C21 14.6569 19.6569 16 18 16H6C4.34315 16 3 14.6569 3 13V5ZM19 13C19 12.4477 18.5523 12 18 12C17.4477 12 17 12.4477 17 13C17 13.5523 17.4477 14 18 14C18.5523 14 19 13.5523 19 13ZM6 4C6.55228 4 7 4.44772 7 5C7 5.55228 6.55228 6 6 6C5.44772 6 5 5.55228 5 5C5 4.44772 5.44772 4 6 4ZM14 9C14 7.89543 13.1046 7 12 7C10.8954 7 10 7.89543 10 9C10 10.1046 10.8954 11 12 11C13.1046 11 14 10.1046 14 9ZM10.5303 19.8839L11.25 20.6036V18.5C11.25 18.0858 11.5858 17.75 12 17.75C12.4142 17.75 12.75 18.0858 12.75 18.5V20.6036L13.4697 19.8839C13.7626 19.591 14.2374 19.591 14.5303 19.8839C14.8232 20.1768 14.8232 20.6516 14.5303 20.9445L13.2374 22.2374C12.554 22.9209 11.446 22.9209 10.7626 22.2374L9.46967 20.9445C9.17678 20.6516 9.17678 20.1768 9.46967 19.8839C9.76256 19.591 10.2374 19.591 10.5303 19.8839Z" fill="#28303F"/>
</svg>
