<svg width="24" height="24" viewBox="0 0 24 24" fill="none" xmlns="http://www.w3.org/2000/svg">
<path fill-rule="evenodd" clip-rule="evenodd" d="M15.602 5.25H8.39801C7.23556 3.67982 8.80169 1.48227 10.7471 2.10985L11.6749 2.40914C11.8861 2.47728 12.1139 2.47728 12.3252 2.40914L13.253 2.10985C15.1984 1.48227 16.7645 3.67982 15.602 5.25ZM8.50618 6.75H15.4939C16.8131 7.48048 17.8438 8.70013 18.3158 10.2104L19.5658 14.2104C20.7731 18.0739 17.8867 22 13.8389 22H10.1612C6.11332 22 3.22692 18.0739 4.43429 14.2104L5.68429 10.2103C6.15623 8.70013 7.18691 7.48048 8.50618 6.75ZM10.624 10.584C10.3943 10.2393 9.92862 10.1462 9.58397 10.376C9.23933 10.6057 9.1462 11.0714 9.37596 11.416L10.9319 13.75H10C9.58579 13.75 9.25 14.0858 9.25 14.5C9.25 14.9142 9.58579 15.25 10 15.25H11.25V15.75H10C9.58579 15.75 9.25 16.0858 9.25 16.5C9.25 16.9142 9.58579 17.25 10 17.25H11.25V19C11.25 19.4142 11.5858 19.75 12 19.75C12.4142 19.75 12.75 19.4142 12.75 19V17.25H14C14.4142 17.25 14.75 16.9142 14.75 16.5C14.75 16.0858 14.4142 15.75 14 15.75H12.75V15.25H14C14.4142 15.25 14.75 14.9142 14.75 14.5C14.75 14.0858 14.4142 13.75 14 13.75H13.0681L14.624 11.416C14.8538 11.0714 14.7607 10.6057 14.416 10.376C14.0714 10.1462 13.6057 10.2393 13.376 10.584L12 12.6479L10.624 10.584Z" fill="#28303F"/>
</svg>
