<svg width="24" height="24" viewBox="0 0 24 24" fill="none" xmlns="http://www.w3.org/2000/svg">
<path fill-rule="evenodd" clip-rule="evenodd" d="M18 2.75H4C2.89543 2.75 2 3.64543 2 4.75V14.75C2 15.8546 2.89543 16.75 4 16.75H10.5C10.5 16.0064 10.7319 15.3169 11.1273 14.75C10.7319 14.1831 10.5 13.4936 10.5 12.75C10.5 10.817 12.067 9.25 14 9.25H20V4.75C20 3.64543 19.1046 2.75 18 2.75ZM12 12.75C12 11.6454 12.8954 10.75 14 10.75H20C21.1046 10.75 22 11.6454 22 12.75C22 13.8546 21.1046 14.75 20 14.75C21.1046 14.75 22 15.6454 22 16.75C22 17.8546 21.1046 18.75 20 18.75H14C12.8954 18.75 12 17.8546 12 16.75C12 15.6454 12.8954 14.75 14 14.75C12.8954 14.75 12 13.8546 12 12.75Z" fill="#28303F"/>
</svg>
