<svg width="24" height="24" viewBox="0 0 24 24" fill="none" xmlns="http://www.w3.org/2000/svg">
<path fill-rule="evenodd" clip-rule="evenodd" d="M6 4H18C20.2091 4 22 5.79086 22 8V13C22 13.5523 21.5523 14 21 14H18C15.7909 14 14 15.7909 14 18V19C14 19.5523 13.5523 20 13 20H6C3.79086 20 2 18.2091 2 16V8C2 5.79086 3.79086 4 6 4ZM6 7C6.55228 7 7 7.44772 7 8C7 8.55228 6.55228 9 6 9C5.44772 9 5 8.55228 5 8C5 7.44772 5.44772 7 6 7ZM14 12C14 10.8954 13.1046 10 12 10C10.8954 10 10 10.8954 10 12C10 13.1046 10.8954 14 12 14C13.1046 14 14 13.1046 14 12ZM17.5303 18.1161L18.25 17.3964V20C18.25 20.4142 18.5858 20.75 19 20.75C19.4142 20.75 19.75 20.4142 19.75 20V17.3964L20.4697 18.1161C20.7626 18.409 21.2374 18.409 21.5303 18.1161C21.8232 17.8232 21.8232 17.3483 21.5303 17.0555L20.2374 15.7626C19.554 15.0791 18.446 15.0791 17.7626 15.7626L16.4697 17.0555C16.1768 17.3483 16.1768 17.8232 16.4697 18.1161C16.7626 18.409 17.2374 18.409 17.5303 18.1161Z" fill="#28303F"/>
</svg>
