<svg width="24" height="24" viewBox="0 0 24 24" fill="none" xmlns="http://www.w3.org/2000/svg">
<path fill-rule="evenodd" clip-rule="evenodd" d="M6 2C3.79086 2 2 3.79086 2 6V18C2 20.2091 3.79086 22 6 22H18C20.2091 22 22 20.2091 22 18V6C22 3.79086 20.2091 2 18 2H6ZM10.6781 9.75C11.2824 9.13516 12.1334 8.75 13.0833 8.75C14.0213 8.75 14.8652 9.12661 15.4698 9.731C15.7627 10.0238 16.2376 10.0238 16.5304 9.73082C16.8233 9.43788 16.8232 8.96301 16.5302 8.67016C15.6526 7.79278 14.4305 7.25 13.0833 7.25C11.2498 7.25 9.64335 8.25756 8.82497 9.75H8C7.58579 9.75 7.25 10.0858 7.25 10.5C7.25 10.9142 7.58579 11.25 8 11.25H8.30973C8.27042 11.4941 8.25 11.7446 8.25 12C8.25 12.2554 8.27042 12.5059 8.30973 12.75H8C7.58579 12.75 7.25 13.0858 7.25 13.5C7.25 13.9142 7.58579 14.25 8 14.25H8.82497C9.64335 15.7424 11.2498 16.75 13.0833 16.75C14.4305 16.75 15.6526 16.2072 16.5302 15.3298C16.8232 15.037 16.8233 14.5621 16.5304 14.2692C16.2376 13.9762 15.7627 13.9762 15.4698 14.269C14.8652 14.8734 14.0213 15.25 13.0833 15.25C12.1334 15.25 11.2824 14.8648 10.6781 14.25H13C13.4142 14.25 13.75 13.9142 13.75 13.5C13.75 13.0858 13.4142 12.75 13 12.75H9.83953C9.78095 12.5089 9.75 12.2577 9.75 12C9.75 11.7423 9.78095 11.4911 9.83953 11.25H13C13.4142 11.25 13.75 10.9142 13.75 10.5C13.75 10.0858 13.4142 9.75 13 9.75H10.6781Z" fill="#28303F"/>
</svg>
