<svg width="24" height="24" viewBox="0 0 24 24" fill="none" xmlns="http://www.w3.org/2000/svg">
<path fill-rule="evenodd" clip-rule="evenodd" d="M15.602 5.25H8.39801C7.23556 3.67982 8.80169 1.48227 10.7471 2.10985L11.6749 2.40914C11.8861 2.47728 12.1139 2.47728 12.3252 2.40914L13.253 2.10985C15.1984 1.48227 16.7645 3.67982 15.602 5.25ZM8.50618 6.75H15.4939C16.8131 7.48048 17.8438 8.70013 18.3158 10.2104L19.5658 14.2104C20.7731 18.0739 17.8867 22 13.8389 22H10.1612C6.11332 22 3.22692 18.0739 4.43429 14.2104L5.68429 10.2103C6.15623 8.70013 7.18691 7.48048 8.50618 6.75ZM12.75 9.5C12.75 9.08579 12.4142 8.75 12 8.75C11.5858 8.75 11.25 9.08579 11.25 9.5V10.3462C10.144 10.6338 9.25 11.5427 9.25 12.75C9.25 14.2217 10.5784 15.25 12 15.25C12.7876 15.25 13.25 15.7887 13.25 16.25C13.25 16.7113 12.7876 17.25 12 17.25C11.2124 17.25 10.75 16.7113 10.75 16.25C10.75 15.8358 10.4142 15.5 10 15.5C9.58579 15.5 9.25 15.8358 9.25 16.25C9.25 17.4573 10.144 18.3662 11.25 18.6538V19.5C11.25 19.9142 11.5858 20.25 12 20.25C12.4142 20.25 12.75 19.9142 12.75 19.5V18.6538C13.856 18.3662 14.75 17.4573 14.75 16.25C14.75 14.7783 13.4216 13.75 12 13.75C11.2124 13.75 10.75 13.2113 10.75 12.75C10.75 12.2887 11.2124 11.75 12 11.75C12.7876 11.75 13.25 12.2887 13.25 12.75C13.25 13.1642 13.5858 13.5 14 13.5C14.4142 13.5 14.75 13.1642 14.75 12.75C14.75 11.5427 13.856 10.6338 12.75 10.3462V9.5Z" fill="#28303F"/>
</svg>
