<svg width="24" height="24" viewBox="0 0 24 24" fill="none" xmlns="http://www.w3.org/2000/svg">
<path fill-rule="evenodd" clip-rule="evenodd" d="M6 4H18C20.2091 4 22 5.79086 22 8V13C22 13.5523 21.5523 14 21 14H18C15.7909 14 14 15.7909 14 18V19C14 19.5523 13.5523 20 13 20H6C3.79086 20 2 18.2091 2 16V8C2 5.79086 3.79086 4 6 4ZM6 7C6.55228 7 7 7.44772 7 8C7 8.55228 6.55228 9 6 9C5.44772 9 5 8.55228 5 8C5 7.44772 5.44772 7 6 7ZM14 12C14 10.8954 13.1046 10 12 10C10.8954 10 10 10.8954 10 12C10 13.1046 10.8954 14 12 14C13.1046 14 14 13.1046 14 12ZM19.75 16C19.75 15.5858 19.4142 15.25 19 15.25C18.5858 15.25 18.25 15.5858 18.25 16V17.25H17C16.5858 17.25 16.25 17.5858 16.25 18C16.25 18.4142 16.5858 18.75 17 18.75H18.25V20C18.25 20.4142 18.5858 20.75 19 20.75C19.4142 20.75 19.75 20.4142 19.75 20V18.75H21C21.4142 18.75 21.75 18.4142 21.75 18C21.75 17.5858 21.4142 17.25 21 17.25H19.75V16Z" fill="#28303F"/>
</svg>
