<svg width="24" height="24" viewBox="0 0 24 24" fill="none" xmlns="http://www.w3.org/2000/svg">
<path fill-rule="evenodd" clip-rule="evenodd" d="M10.5303 4.13388L11.25 4.85355V2.75C11.25 2.33579 11.5858 2 12 2C12.4142 2 12.75 2.33579 12.75 2.75V4.85355L13.4697 4.13388C13.7626 3.84099 14.2374 3.84099 14.5303 4.13388C14.8232 4.42678 14.8232 4.90165 14.5303 5.19454L13.2374 6.48744C12.554 7.17086 11.446 7.17085 10.7626 6.48744L9.46967 5.19454C9.17678 4.90165 9.17678 4.42678 9.46967 4.13388C9.76256 3.84099 10.2374 3.84099 10.5303 4.13388ZM3 11.75C3 10.0931 4.34315 8.75 6 8.75H18C19.6569 8.75 21 10.0931 21 11.75V19.75C21 21.4069 19.6569 22.75 18 22.75H6C4.34315 22.75 3 21.4069 3 19.75V11.75ZM19 19.75C19 19.1977 18.5523 18.75 18 18.75C17.4477 18.75 17 19.1977 17 19.75C17 20.3023 17.4477 20.75 18 20.75C18.5523 20.75 19 20.3023 19 19.75ZM6 10.75C6.55228 10.75 7 11.1977 7 11.75C7 12.3023 6.55228 12.75 6 12.75C5.44772 12.75 5 12.3023 5 11.75C5 11.1977 5.44772 10.75 6 10.75ZM14 15.75C14 14.6454 13.1046 13.75 12 13.75C10.8954 13.75 10 14.6454 10 15.75C10 16.8546 10.8954 17.75 12 17.75C13.1046 17.75 14 16.8546 14 15.75Z" fill="#28303F"/>
</svg>
