<svg width="24" height="24" viewBox="0 0 24 24" fill="none" xmlns="http://www.w3.org/2000/svg">
<path fill-rule="evenodd" clip-rule="evenodd" d="M15.602 5.25H8.39801C7.23556 3.67982 8.80169 1.48227 10.7471 2.10985L11.6749 2.40914C11.8861 2.47728 12.1139 2.47728 12.3252 2.40914L13.253 2.10985C15.1984 1.48227 16.7645 3.67982 15.602 5.25ZM8.50618 6.75H15.4939C16.8131 7.48048 17.8438 8.70013 18.3158 10.2104L19.5658 14.2104C20.7731 18.0739 17.8867 22 13.8389 22H10.1612C6.11332 22 3.22692 18.0739 4.43429 14.2104L5.68429 10.2103C6.15623 8.70013 7.18691 7.48048 8.50618 6.75ZM9.75 14.5C9.75 14.4157 9.75379 14.3323 9.76121 14.25H12C12.4142 14.25 12.75 13.9142 12.75 13.5C12.75 13.0858 12.4142 12.75 12 12.75H10.3786C10.883 12.1392 11.646 11.75 12.5 11.75C13.2696 11.75 13.9643 12.0652 14.4643 12.5754C14.7542 12.8713 15.2291 12.8761 15.5249 12.5862C15.8208 12.2963 15.8256 11.8214 15.5357 11.5256C14.7652 10.7393 13.689 10.25 12.5 10.25C10.7766 10.25 9.29286 11.2757 8.62587 12.75H8C7.58579 12.75 7.25 13.0858 7.25 13.5C7.25 13.9142 7.58579 14.25 8 14.25H8.25723C8.25243 14.3327 8.25 14.4161 8.25 14.5C8.25 14.5839 8.25243 14.6673 8.25723 14.75H8C7.58579 14.75 7.25 15.0858 7.25 15.5C7.25 15.9142 7.58579 16.25 8 16.25H8.62587C9.29286 17.7243 10.7766 18.75 12.5 18.75C13.689 18.75 14.7652 18.2607 15.5357 17.4744C15.8256 17.1786 15.8208 16.7037 15.5249 16.4138C15.2291 16.1239 14.7542 16.1287 14.4643 16.4246C13.9643 16.9348 13.2696 17.25 12.5 17.25C11.646 17.25 10.883 16.8608 10.3786 16.25H12C12.4142 16.25 12.75 15.9142 12.75 15.5C12.75 15.0858 12.4142 14.75 12 14.75H9.76121C9.75379 14.6677 9.75 14.5843 9.75 14.5Z" fill="#28303F"/>
</svg>
