<svg width="24" height="24" viewBox="0 0 24 24" fill="none" xmlns="http://www.w3.org/2000/svg">
<path fill-rule="evenodd" clip-rule="evenodd" d="M8.39801 5.25H15.602C16.7645 3.67982 15.1984 1.48227 13.253 2.10985L12.3252 2.40914C12.1139 2.47728 11.8861 2.47728 11.6749 2.40914L10.7471 2.10985C8.80169 1.48227 7.23556 3.67982 8.39801 5.25ZM15.4939 6.75H8.50618C7.18691 7.48048 6.15623 8.70013 5.68429 10.2103L4.43429 14.2104C3.22692 18.0739 6.11332 22 10.1612 22H11.1271C10.7317 21.4331 10.4998 20.7436 10.4998 20C10.4998 19.2564 10.7317 18.5669 11.1271 18C10.7317 17.4331 10.4998 16.7436 10.4998 16C10.4998 14.067 12.0668 12.5 13.9998 12.5H19.0313L18.3158 10.2104C17.8438 8.70013 16.8131 7.48048 15.4939 6.75ZM13.9998 14C12.8952 14 11.9998 14.8954 11.9998 16C11.9998 17.1046 12.8952 18 13.9998 18C12.8952 18 11.9998 18.8954 11.9998 20C11.9998 21.1046 12.8952 22 13.9998 22H19.9998C21.1043 22 21.9998 21.1046 21.9998 20C21.9998 18.8954 21.1043 18 19.9998 18C21.1043 18 21.9998 17.1046 21.9998 16C21.9998 14.8954 21.1043 14 19.9998 14H19.3331H13.9998Z" fill="#28303F"/>
</svg>
