<svg width="24" height="24" viewBox="0 0 24 24" fill="none" xmlns="http://www.w3.org/2000/svg">
<path fill-rule="evenodd" clip-rule="evenodd" d="M15.602 5.25H8.39801C7.23556 3.67982 8.80169 1.48227 10.7471 2.10985L11.6749 2.40914C11.8861 2.47728 12.1139 2.47728 12.3252 2.40914L13.253 2.10985C15.1984 1.48227 16.7645 3.67982 15.602 5.25ZM8.50618 6.75H15.4939C16.8131 7.48048 17.8438 8.70013 18.3158 10.2104L19.5658 14.2104C20.7731 18.0739 17.8867 22 13.8389 22H10.1612C6.11332 22 3.22692 18.0739 4.43429 14.2104L5.68429 10.2103C6.15623 8.70013 7.18691 7.48048 8.50618 6.75ZM12.6154 9.75C11.4365 9.75 10.4808 10.7057 10.4808 11.8846V12.4548C10.4808 12.8944 10.4272 13.3291 10.3234 13.75H9C8.58579 13.75 8.25 14.0858 8.25 14.5C8.25 14.9142 8.58579 15.25 9 15.25H9.70258C9.54854 15.5052 9.3728 15.7487 9.17644 15.9775C8.0734 17.2628 8.98665 19.25 10.6804 19.25H14C14.4142 19.25 14.75 18.9142 14.75 18.5C14.75 18.0858 14.4142 17.75 14 17.75H10.6804C10.2686 17.75 10.0466 17.2669 10.3147 16.9544C10.758 16.4379 11.1189 15.863 11.3901 15.25H13C13.4142 15.25 13.75 14.9142 13.75 14.5C13.75 14.0858 13.4142 13.75 13 13.75H11.8583C11.9393 13.3257 11.9808 12.8921 11.9808 12.4548V11.8846C11.9808 11.5341 12.2649 11.25 12.6154 11.25C12.9659 11.25 13.25 11.5341 13.25 11.8846V12.3824C13.25 12.7966 13.5858 13.1324 14 13.1324C14.4142 13.1324 14.75 12.7966 14.75 12.3824V11.8846C14.75 10.7057 13.7943 9.75 12.6154 9.75Z" fill="#28303F"/>
</svg>
