<svg width="24" height="24" viewBox="0 0 24 24" fill="none" xmlns="http://www.w3.org/2000/svg">
<path fill-rule="evenodd" clip-rule="evenodd" d="M6 4H18C20.2091 4 22 5.79086 22 8V13C22 13.5523 21.5523 14 21 14H18C15.7909 14 14 15.7909 14 18V19C14 19.5523 13.5523 20 13 20H6C3.79086 20 2 18.2091 2 16V8C2 5.79086 3.79086 4 6 4ZM6 7C6.55228 7 7 7.44772 7 8C7 8.55228 6.55228 9 6 9C5.44772 9 5 8.55228 5 8C5 7.44772 5.44772 7 6 7ZM14 12C14 10.8954 13.1046 10 12 10C10.8954 10 10 10.8954 10 12C10 13.1046 10.8954 14 12 14C13.1046 14 14 13.1046 14 12ZM18.1161 16.5303L17.3964 17.25H21C21.4142 17.25 21.75 17.5858 21.75 18C21.75 18.4142 21.4142 18.75 21 18.75H17.3964L18.1161 19.4697C18.409 19.7626 18.409 20.2374 18.1161 20.5303C17.8232 20.8232 17.3483 20.8232 17.0555 20.5303L15.7626 19.2374C15.0791 18.554 15.0791 17.446 15.7626 16.7626L17.0555 15.4697C17.3483 15.1768 17.8232 15.1768 18.1161 15.4697C18.409 15.7626 18.409 16.2374 18.1161 16.5303Z" fill="#28303F"/>
</svg>
