<svg width="24" height="24" viewBox="0 0 24 24" fill="none" xmlns="http://www.w3.org/2000/svg">
<path fill-rule="evenodd" clip-rule="evenodd" d="M6 4H18C20.2091 4 22 5.79086 22 8V13C22 13.5523 21.5523 14 21 14H18C15.7909 14 14 15.7909 14 18V19C14 19.5523 13.5523 20 13 20H6C3.79086 20 2 18.2091 2 16V8C2 5.79086 3.79086 4 6 4ZM6 7C6.55228 7 7 7.44772 7 8C7 8.55228 6.55228 9 6 9C5.44772 9 5 8.55228 5 8C5 7.44772 5.44772 7 6 7ZM14 12C14 10.8954 13.1046 10 12 10C10.8954 10 10 10.8954 10 12C10 13.1046 10.8954 14 12 14C13.1046 14 14 13.1046 14 12ZM18.8839 16.5303L19.6036 17.25H16C15.5858 17.25 15.25 17.5858 15.25 18C15.25 18.4142 15.5858 18.75 16 18.75H19.6036L18.8839 19.4697C18.591 19.7626 18.591 20.2374 18.8839 20.5303C19.1768 20.8232 19.6516 20.8232 19.9445 20.5303L21.2374 19.2374C21.9209 18.554 21.9209 17.446 21.2374 16.7626L19.9445 15.4697C19.6516 15.1768 19.1768 15.1768 18.8839 15.4697C18.591 15.7626 18.591 16.2374 18.8839 16.5303Z" fill="#28303F"/>
</svg>
