<svg width="24" height="24" viewBox="0 0 24 24" fill="none" xmlns="http://www.w3.org/2000/svg">
<path fill-rule="evenodd" clip-rule="evenodd" d="M6 4H18C20.2091 4 22 5.79086 22 8V13C22 13.5523 21.5523 14 21 14H18C15.7909 14 14 15.7909 14 18V19C14 19.5523 13.5523 20 13 20H6C3.79086 20 2 18.2091 2 16V8C2 5.79086 3.79086 4 6 4ZM6 7C6.55228 7 7 7.44772 7 8C7 8.55228 6.55228 9 6 9C5.44772 9 5 8.55228 5 8C5 7.44772 5.44772 7 6 7ZM14 12C14 10.8954 13.1046 10 12 10C10.8954 10 10 10.8954 10 12C10 13.1046 10.8954 14 12 14C13.1046 14 14 13.1046 14 12ZM20.9445 17.1161C21.2374 16.8232 21.2374 16.3483 20.9445 16.0555C20.6516 15.7626 20.1768 15.7626 19.8839 16.0555L19 16.9393L18.1161 16.0555C17.8232 15.7626 17.3483 15.7626 17.0555 16.0555C16.7626 16.3483 16.7626 16.8232 17.0555 17.1161L17.9393 18L17.0555 18.8839C16.7626 19.1768 16.7626 19.6516 17.0555 19.9445C17.3483 20.2374 17.8232 20.2374 18.1161 19.9445L19 19.0607L19.8839 19.9445C20.1768 20.2374 20.6516 20.2374 20.9445 19.9445C21.2374 19.6516 21.2374 19.1768 20.9445 18.8839L20.0607 18L20.9445 17.1161Z" fill="#28303F"/>
</svg>
