<svg width="24" height="24" viewBox="0 0 24 24" fill="none" xmlns="http://www.w3.org/2000/svg">
<path fill-rule="evenodd" clip-rule="evenodd" d="M6 4H18C20.2091 4 22 5.79086 22 8V13C22 13.5523 21.5523 14 21 14H18C15.7909 14 14 15.7909 14 18V19C14 19.5523 13.5523 20 13 20H6C3.79086 20 2 18.2091 2 16V8C2 5.79086 3.79086 4 6 4ZM6 7C6.55228 7 7 7.44772 7 8C7 8.55228 6.55228 9 6 9C5.44772 9 5 8.55228 5 8C5 7.44772 5.44772 7 6 7ZM14 12C14 10.8954 13.1046 10 12 10C10.8954 10 10 10.8954 10 12C10 13.1046 10.8954 14 12 14C13.1046 14 14 13.1046 14 12ZM22.5645 16.4939C22.8372 16.1822 22.8056 15.7083 22.4939 15.4356C22.1822 15.1628 21.7084 15.1944 21.4356 15.5061L18.5657 18.786C18.4776 18.8867 18.3258 18.9002 18.2214 18.8166L16.4685 17.4144C16.1451 17.1556 15.6731 17.208 15.4144 17.5315C15.1556 17.8549 15.2081 18.3269 15.5315 18.5857L17.2843 19.9879C18.0156 20.5729 19.0779 20.4786 19.6946 19.7738L22.5645 16.4939Z" fill="#28303F"/>
</svg>
