<svg width="24" height="24" viewBox="0 0 24 24" fill="none" xmlns="http://www.w3.org/2000/svg">
<path fill-rule="evenodd" clip-rule="evenodd" d="M3 5C3 3.34315 4.34315 2 6 2H18C19.6569 2 21 3.34315 21 5V13C21 14.6569 19.6569 16 18 16H6C4.34315 16 3 14.6569 3 13V5ZM19 13C19 12.4477 18.5523 12 18 12C17.4477 12 17 12.4477 17 13C17 13.5523 17.4477 14 18 14C18.5523 14 19 13.5523 19 13ZM6 4C6.55228 4 7 4.44772 7 5C7 5.55228 6.55228 6 6 6C5.44772 6 5 5.55228 5 5C5 4.44772 5.44772 4 6 4ZM14 9C14 7.89543 13.1046 7 12 7C10.8954 7 10 7.89543 10 9C10 10.1046 10.8954 11 12 11C13.1046 11 14 10.1046 14 9ZM10.5303 20.6161L11.25 19.8964V22C11.25 22.4142 11.5858 22.75 12 22.75C12.4142 22.75 12.75 22.4142 12.75 22V19.8964L13.4697 20.6161C13.7626 20.909 14.2374 20.909 14.5303 20.6161C14.8232 20.3232 14.8232 19.8484 14.5303 19.5555L13.2374 18.2626C12.554 17.5791 11.446 17.5791 10.7626 18.2626L9.46967 19.5555C9.17678 19.8484 9.17678 20.3232 9.46967 20.6161C9.76256 20.909 10.2374 20.909 10.5303 20.6161Z" fill="#28303F"/>
</svg>
