<svg width="24" height="24" viewBox="0 0 24 24" fill="none" xmlns="http://www.w3.org/2000/svg">
<path fill-rule="evenodd" clip-rule="evenodd" d="M2 6C2 3.79086 3.79086 2 6 2H18C20.2091 2 22 3.79086 22 6V18C22 20.2091 20.2091 22 18 22H6C3.79086 22 2 20.2091 2 18V6ZM8.25 11C8.25 10.5858 8.58579 10.25 9 10.25H10.5L8.4 7.45C8.15147 7.11863 8.21863 6.64853 8.55 6.4C8.88137 6.15147 9.35147 6.21863 9.6 6.55L12 9.75L14.4 6.55C14.6485 6.21863 15.1186 6.15147 15.45 6.4C15.7814 6.64853 15.8485 7.11863 15.6 7.45L13.5 10.25H15C15.4142 10.25 15.75 10.5858 15.75 11C15.75 11.4142 15.4142 11.75 15 11.75H12.75V13.25H15C15.4142 13.25 15.75 13.5858 15.75 14C15.75 14.4142 15.4142 14.75 15 14.75H12.75V17C12.75 17.4142 12.4142 17.75 12 17.75C11.5858 17.75 11.25 17.4142 11.25 17V14.75H9C8.58579 14.75 8.25 14.4142 8.25 14C8.25 13.5858 8.58579 13.25 9 13.25H11.25V11.75H9C8.58579 11.75 8.25 11.4142 8.25 11Z" fill="#28303F"/>
</svg>
