<svg width="24" height="24" viewBox="0 0 24 24" fill="none" xmlns="http://www.w3.org/2000/svg">
<path fill-rule="evenodd" clip-rule="evenodd" d="M6 4C3.79086 4 2 5.79086 2 8V16C2 18.2091 3.79086 20 6 20H18C20.2091 20 22 18.2091 22 16V8C22 5.79086 20.2091 4 18 4H6ZM12 10C13.1046 10 14 10.8954 14 12C14 13.1046 13.1046 14 12 14C10.8954 14 10 13.1046 10 12C10 10.8954 10.8954 10 12 10ZM19 12C19 11.4477 18.5523 11 18 11C17.4477 11 17 11.4477 17 12C17 12.5523 17.4477 13 18 13C18.5523 13 19 12.5523 19 12ZM6 11C6.55228 11 7 11.4477 7 12C7 12.5523 6.55228 13 6 13C5.44772 13 5 12.5523 5 12C5 11.4477 5.44772 11 6 11Z" fill="#28303F"/>
</svg>
