<svg width="24" height="24" viewBox="0 0 24 24" fill="none" xmlns="http://www.w3.org/2000/svg">
<path fill-rule="evenodd" clip-rule="evenodd" d="M18 2.75H6C3.79086 2.75 2 4.54086 2 6.75V14.75C2 16.9591 3.79086 18.75 6 18.75H13C13.5523 18.75 14 18.3023 14 17.75V16.75C14 14.5409 15.7909 12.75 18 12.75H21C21.5523 12.75 22 12.3023 22 11.75V6.75C22 4.54086 20.2091 2.75 18 2.75ZM7 6.75C7 6.19772 6.55228 5.75 6 5.75C5.44772 5.75 5 6.19772 5 6.75C5 7.30228 5.44772 7.75 6 7.75C6.55228 7.75 7 7.30228 7 6.75ZM12 8.75C13.1046 8.75 14 9.64543 14 10.75C14 11.8546 13.1046 12.75 12 12.75C10.8954 12.75 10 11.8546 10 10.75C10 9.64543 10.8954 8.75 12 8.75ZM21 15.75C21 14.6454 20.1046 13.75 19 13.75C17.8954 13.75 17 14.6454 17 15.75C17 16.8546 17.8954 17.75 19 17.75C17.7538 17.75 16.6228 18.3914 15.7921 19.4341C15.341 20.0003 15.8159 20.75 16.5398 20.75H21.4602C22.1841 20.75 22.659 20.0003 22.2079 19.4341C21.3772 18.3914 20.2462 17.75 19 17.75C20.1046 17.75 21 16.8546 21 15.75Z" fill="#28303F"/>
</svg>
