<svg width="24" height="24" viewBox="0 0 24 24" fill="none" xmlns="http://www.w3.org/2000/svg">
<path fill-rule="evenodd" clip-rule="evenodd" d="M15.602 5.25H8.39801C7.23556 3.67982 8.80169 1.48227 10.7471 2.10985L11.6749 2.40914C11.8861 2.47728 12.1139 2.47728 12.3252 2.40914L13.253 2.10985C15.1984 1.48227 16.7645 3.67982 15.602 5.25ZM8.50618 6.75H15.4939C16.8131 7.48048 17.8438 8.70013 18.3158 10.2104L19.5658 14.2104C20.7731 18.0739 17.8867 22 13.8389 22H10.1612C6.11332 22 3.22692 18.0739 4.43429 14.2104L5.68429 10.2103C6.15623 8.70013 7.18691 7.48048 8.50618 6.75ZM12 12C13.3807 12 14.5 13.1193 14.5 14.5C14.5 15.8807 13.3807 17 12 17C10.6193 17 9.5 15.8807 9.5 14.5C9.5 13.1193 10.6193 12 12 12Z" fill="#28303F"/>
</svg>
