<svg width="24" height="24" viewBox="0 0 24 24" fill="none" xmlns="http://www.w3.org/2000/svg">
<path fill-rule="evenodd" clip-rule="evenodd" d="M11.25 6.5C11.25 4.15279 13.1528 2.25 15.5 2.25C17.8472 2.25 19.75 4.15279 19.75 6.5V8C19.75 8.41421 19.4142 8.75 19 8.75C18.5858 8.75 18.25 8.41421 18.25 8V6.5C18.25 4.98122 17.0188 3.75 15.5 3.75C13.9812 3.75 12.75 4.98122 12.75 6.5V8.56892C12.75 9.47926 12.6344 10.3797 12.4103 11.25H17C17.4142 11.25 17.75 11.5858 17.75 12C17.75 12.4142 17.4142 12.75 17 12.75H11.9036C11.5409 13.6092 11.0656 14.423 10.4855 15.1688L8.10259 18.2326C7.46398 19.0536 8.04909 20.25 9.08928 20.25H19C19.4142 20.25 19.75 20.5858 19.75 21C19.75 21.4142 19.4142 21.75 19 21.75H9.08928C6.80087 21.75 5.51361 19.118 6.91856 17.3117L9.30151 14.2479C9.66738 13.7775 9.9848 13.2756 10.2511 12.75H7C6.58579 12.75 6.25 12.4142 6.25 12C6.25 11.5858 6.58579 11.25 7 11.25H10.8529C11.1145 10.3864 11.25 9.48347 11.25 8.56892V6.5Z" fill="#28303F"/>
</svg>
