<svg width="24" height="24" viewBox="0 0 24 24" fill="none" xmlns="http://www.w3.org/2000/svg">
<path fill-rule="evenodd" clip-rule="evenodd" d="M18 3H6C3.79086 3 2 4.79086 2 7C2 8.67869 3.03408 10.1159 4.5 10.7092V7C4.5 6.60218 4.65804 6.22064 4.93934 5.93934C5.22064 5.65804 5.60218 5.5 6 5.5H18C18.3978 5.5 18.7794 5.65804 19.0607 5.93934C19.342 6.22064 19.5 6.60218 19.5 7V10.7092C20.9659 10.1159 22 8.67869 22 7C22 4.79086 20.2091 3 18 3ZM18 19L18 7H6V19C6 20.1046 6.89543 21 8 21H16C17.1046 21 18 20.1046 18 19ZM11.25 12.3964L10.5303 13.1161C10.2374 13.409 9.76256 13.409 9.46967 13.1161C9.17678 12.8232 9.17678 12.3483 9.46967 12.0555L10.7626 10.7626C11.446 10.0791 12.554 10.0791 13.2374 10.7626L14.5303 12.0555C14.8232 12.3483 14.8232 12.8232 14.5303 13.1161C14.2374 13.409 13.7626 13.409 13.4697 13.1161L12.75 12.3964V16.5858C12.75 17 12.4142 17.3358 12 17.3358C11.5858 17.3358 11.25 17 11.25 16.5858V12.3964Z" fill="#28303F"/>
</svg>
