<svg width="24" height="24" viewBox="0 0 24 24" fill="none" xmlns="http://www.w3.org/2000/svg">
<path fill-rule="evenodd" clip-rule="evenodd" d="M11.9999 3C8.32661 3 5.18371 5.26328 3.88623 8.46859C3.73081 8.85254 3.91608 9.28978 4.30003 9.4452C4.68398 9.60062 5.12122 9.41536 5.27664 9.03141C6.35272 6.37306 8.95848 4.5 11.9999 4.5C15.5711 4.5 18.5395 7.08231 19.1393 10.4812L18.3353 10.0792C17.9648 9.89394 17.5143 10.0441 17.3291 10.4146C17.1439 10.7851 17.294 11.2356 17.6645 11.4208L18.5589 11.868C19.035 12.1061 19.5591 12.1962 20.0686 12.1441C20.5563 12.0942 21.0313 11.9139 21.4388 11.6084L22.4499 10.85C22.7813 10.6015 22.8484 10.1314 22.5999 9.8C22.3514 9.46863 21.8813 9.40147 21.5499 9.65L20.6361 10.3354C19.9597 6.17532 16.3508 3 11.9999 3ZM3.22976 12.9736C3.26229 12.9573 3.29531 12.9426 3.32872 12.9294C3.90465 17.2041 7.56738 20.5 11.9999 20.5C15.6732 20.5 18.8161 18.2367 20.1136 15.0314C20.269 14.6475 20.0838 14.2102 19.6998 14.0548C19.3159 13.8994 18.8786 14.0846 18.7232 14.4686C17.6471 17.1269 15.0414 19 11.9999 19C8.55975 19 5.67922 16.6039 4.93611 13.3896L5.54992 13.85C5.88129 14.0985 6.35139 14.0314 6.59992 13.7C6.84845 13.3686 6.78129 12.8985 6.44992 12.65L5.43877 11.8916C4.60548 11.2667 3.49059 11.1661 2.55894 11.632L1.66451 12.0792C1.29403 12.2644 1.14386 12.7149 1.3291 13.0854C1.51434 13.4559 1.96485 13.6061 2.33533 13.4208L3.22976 12.9736ZM12.75 6.25C12.75 5.83579 12.4142 5.5 12 5.5C11.5858 5.5 11.25 5.83579 11.25 6.25V7.10352C10.0957 7.42998 9.25 8.49122 9.25 9.75C9.25 11.2688 10.4812 12.5 12 12.5C12.6904 12.5 13.25 13.0596 13.25 13.75C13.25 14.4404 12.6904 15 12 15C11.3096 15 10.75 14.4404 10.75 13.75C10.75 13.3358 10.4142 13 10 13C9.58579 13 9.25 13.3358 9.25 13.75C9.25 15.0088 10.0957 16.07 11.25 16.3965V17.25C11.25 17.6642 11.5858 18 12 18C12.4142 18 12.75 17.6642 12.75 17.25V16.3965C13.9043 16.07 14.75 15.0088 14.75 13.75C14.75 12.2312 13.5188 11 12 11C11.3096 11 10.75 10.4404 10.75 9.75C10.75 9.05964 11.3096 8.5 12 8.5C12.6904 8.5 13.25 9.05964 13.25 9.75C13.25 10.1642 13.5858 10.5 14 10.5C14.4142 10.5 14.75 10.1642 14.75 9.75C14.75 8.49122 13.9043 7.42998 12.75 7.10352V6.25Z" fill="#28303F"/>
</svg>
