<svg width="24" height="24" viewBox="0 0 24 24" fill="none" xmlns="http://www.w3.org/2000/svg">
<path fill-rule="evenodd" clip-rule="evenodd" d="M6 2C3.79086 2 2 3.79086 2 6V18C2 20.2091 3.79086 22 6 22H18C20.2091 22 22 20.2091 22 18V6C22 3.79086 20.2091 2 18 2H6ZM12.7501 6C12.7501 5.58579 12.4143 5.25 12.0001 5.25C11.5859 5.25 11.2501 5.58579 11.2501 6V7.30888C10.1985 7.47568 9.26179 7.98761 8.55967 8.72496L7.04492 7.85042C6.6862 7.64331 6.22751 7.76622 6.0204 8.12494C5.8133 8.48366 5.9362 8.94235 6.29492 9.14946L7.70701 9.96473C7.41404 10.5816 7.25012 11.2717 7.25012 12C7.25012 12.7283 7.41403 13.4184 7.70699 14.0352L6.29492 14.8505C5.9362 15.0576 5.8133 15.5163 6.0204 15.875C6.22751 16.2337 6.6862 16.3566 7.04492 16.1495L8.55963 15.275C9.26175 16.0124 10.1985 16.5243 11.2501 16.6911V18C11.2501 18.4142 11.5859 18.75 12.0001 18.75C12.4143 18.75 12.7501 18.4142 12.7501 18V16.6911C13.8018 16.5243 14.7385 16.0124 15.4406 15.275L16.9552 16.1495C17.3139 16.3566 17.7726 16.2337 17.9797 15.8749C18.1868 15.5162 18.0639 15.0575 17.7052 14.8504L16.2932 14.0352C16.5862 13.4184 16.7501 12.7283 16.7501 12C16.7501 11.2717 16.5862 10.5816 16.2932 9.96472L17.7052 9.14952C18.0639 8.94241 18.1868 8.48372 17.9797 8.125C17.7726 7.76628 17.3139 7.64337 16.9552 7.85048L15.4406 8.72495C14.7384 7.9876 13.8017 7.47568 12.7501 7.30888V6ZM8.75012 12C8.75012 10.2051 10.2052 8.75 12.0001 8.75C13.795 8.75 15.2501 10.2051 15.2501 12C15.2501 13.7949 13.795 15.25 12.0001 15.25C10.2052 15.25 8.75012 13.7949 8.75012 12Z" fill="#28303F"/>
</svg>
