<svg width="24" height="24" viewBox="0 0 24 24" fill="none" xmlns="http://www.w3.org/2000/svg">
<path fill-rule="evenodd" clip-rule="evenodd" d="M6 2C3.79086 2 2 3.79086 2 6V18C2 20.2091 3.79086 22 6 22H18C20.2091 22 22 20.2091 22 18V6C22 3.79086 20.2091 2 18 2H6ZM8 5.25C6.48122 5.25 5.25 6.48122 5.25 8V16C5.25 17.5188 6.48122 18.75 8 18.75H16C17.5188 18.75 18.75 17.5188 18.75 16V15C18.75 14.5858 18.4142 14.25 18 14.25C17.5858 14.25 17.25 14.5858 17.25 15V16C17.25 16.6904 16.6904 17.25 16 17.25H8C7.30964 17.25 6.75 16.6904 6.75 16V8C6.75 7.30964 7.30964 6.75 8 6.75H16C16.6904 6.75 17.25 7.30964 17.25 8V9C17.25 9.41421 17.5858 9.75 18 9.75C18.4142 9.75 18.75 9.41421 18.75 9V8C18.75 6.48122 17.5188 5.25 16 5.25H8ZM13.2993 11.25C13.04 10.8016 12.5552 10.5 12 10.5C11.1716 10.5 10.5 11.1716 10.5 12C10.5 12.8284 11.1716 13.5 12 13.5C12.5552 13.5 13.04 13.1984 13.2993 12.75H18C18.4142 12.75 18.75 12.4142 18.75 12C18.75 11.5858 18.4142 11.25 18 11.25H13.2993Z" fill="#28303F"/>
</svg>
