<svg width="24" height="24" viewBox="0 0 24 24" fill="none" xmlns="http://www.w3.org/2000/svg">
<path fill-rule="evenodd" clip-rule="evenodd" d="M5.31374 5.56601L10.3116 3.34475C11.3458 2.88508 12.5264 2.88508 13.5607 3.34475L18.5387 5.5572C19.9944 6.20418 20.9499 7.6583 20.8479 9.24803C20.4567 15.3458 18.7133 18.1024 14.0008 21.3004C12.7571 22.1443 11.1165 22.1423 9.87192 21.2997C5.17379 18.119 3.36575 15.4009 3.00612 9.22664C2.91413 7.64735 3.86812 6.20851 5.31374 5.56601ZM15.5005 11.1166C15.7733 10.8049 15.7417 10.3311 15.43 10.0583C15.1183 9.78554 14.6444 9.81712 14.3717 10.1289L11.5018 13.4087C11.4137 13.5094 11.2619 13.5229 11.1575 13.4393L9.40464 12.0371C9.08119 11.7783 8.60922 11.8308 8.35046 12.1542C8.09171 12.4777 8.14415 12.9496 8.46759 13.2084L10.2204 14.6106C10.9517 15.1957 12.0139 15.1013 12.6306 14.3965L15.5005 11.1166Z" fill="#28303F"/>
</svg>
