<svg width="24" height="24" viewBox="0 0 24 24" fill="none" xmlns="http://www.w3.org/2000/svg">
<path fill-rule="evenodd" clip-rule="evenodd" d="M3.99997 10.75H7.26339C7.34365 7.77097 7.77982 5.06818 8.46003 3.02755C8.67654 2.37803 8.92226 1.78186 9.19709 1.25914C5.94175 2.42772 3.10207 5.45786 2.2559 8.77168C1.98262 9.84191 2.8954 10.75 3.99997 10.75ZM12 0.75C11.7974 0.75 11.5948 0.758353 11.3923 0.774713C11.2805 0.869837 11.1601 0.994828 11.0321 1.15725C10.6275 1.67055 10.2304 2.45978 9.88306 3.50189C9.26261 5.36323 8.844 7.89945 8.76395 10.75H11.25V18.75C11.25 19.4404 10.6904 20 10 20C9.30964 20 8.75 19.4404 8.75 18.75C8.75 18.3358 8.41421 18 8 18C7.58579 18 7.25 18.3358 7.25 18.75C7.25 20.2688 8.48122 21.5 10 21.5C11.5188 21.5 12.75 20.2688 12.75 18.75V10.75H15.236C15.1559 7.89945 14.7373 5.36323 14.1169 3.50189C13.7695 2.45978 13.3724 1.67055 12.9679 1.15725C12.8399 0.994828 12.7195 0.869837 12.6076 0.774713C12.4052 0.758353 12.2025 0.75 12 0.75ZM15.5399 3.02755C16.2201 5.06818 16.6563 7.77097 16.7366 10.75H20C21.1045 10.75 22.0173 9.84191 21.744 8.77168C20.8979 5.45785 18.0582 2.42772 14.8029 1.25914C15.0777 1.78186 15.3234 2.37803 15.5399 3.02755Z" fill="#28303F"/>
</svg>
