<svg width="24" height="24" viewBox="0 0 24 24" fill="none" xmlns="http://www.w3.org/2000/svg">
<path fill-rule="evenodd" clip-rule="evenodd" d="M18 2H12C10.3213 2 8.88413 3.03408 8.29074 4.5H21.7092C21.1158 3.03408 19.6787 2 18 2ZM2 16V12H6C7.10457 12 8 12.8954 8 14C8 15.1046 7.10457 16 6 16H2ZM6 6H22V14C22 14.5523 21.5523 15 21 15H18C15.7909 15 14 16.7909 14 19V21C14 21.5523 13.5523 22 13 22H6C3.79086 22 2 20.2091 2 18V17.5H6C7.933 17.5 9.5 15.933 9.5 14C9.5 12.067 7.933 10.5 6 10.5H2V10C2 7.79086 3.79086 6 6 6ZM22.5644 18.4939C22.8372 18.1822 22.8056 17.7083 22.4939 17.4356C22.1822 17.1628 21.7083 17.1944 21.4356 17.5061L18.5657 20.786C18.4776 20.8867 18.3258 20.9002 18.2213 20.8166L16.4685 19.4143C16.1451 19.1556 15.6731 19.208 15.4143 19.5315C15.1556 19.8549 15.208 20.3269 15.5315 20.5857L17.2843 21.9879C18.0156 22.5729 19.0778 22.4786 19.6945 21.7738L22.5644 18.4939Z" fill="#28303F"/>
</svg>
