<svg width="24" height="24" viewBox="0 0 24 24" fill="none" xmlns="http://www.w3.org/2000/svg">
<path fill-rule="evenodd" clip-rule="evenodd" d="M22 7C22 4.79086 20.2091 3 18 3H6C3.79086 3 2 4.79086 2 7V8.5H6C7.933 8.5 9.5 10.067 9.5 12C9.5 13.933 7.933 15.5 6 15.5H2V17C2 19.2091 3.79086 21 6 21H13C13.5523 21 14 20.5523 14 20V19C14 16.7909 15.7909 15 18 15H21C21.5523 15 22 14.5523 22 14V7ZM8 12C8 10.8954 7.10457 10 6 10H2V14H6C7.10457 14 8 13.1046 8 12ZM22.4939 16.4356C22.8056 16.7083 22.8372 17.1822 22.5644 17.4939L19.6945 20.7738C19.0778 21.4786 18.0156 21.5729 17.2843 20.9879L15.5315 19.5857C15.208 19.3269 15.1556 18.8549 15.4143 18.5315C15.6731 18.208 16.1451 18.1556 16.4685 18.4143L18.2213 19.8166C18.3258 19.9002 18.4776 19.8867 18.5657 19.786L21.4356 16.5061C21.7083 16.1944 22.1822 16.1628 22.4939 16.4356Z" fill="#28303F"/>
</svg>
