<svg width="24" height="24" viewBox="0 0 24 24" fill="none" xmlns="http://www.w3.org/2000/svg">
<path fill-rule="evenodd" clip-rule="evenodd" d="M18 3C20.2091 3 22 4.79086 22 7V14C22 14.5523 21.5523 15 21 15H18C15.7909 15 14 16.7909 14 19V20C14 20.5523 13.5523 21 13 21H6C3.79086 21 2 19.2091 2 17V15.5H6C7.933 15.5 9.5 13.933 9.5 12C9.5 10.067 7.933 8.5 6 8.5H2V7C2 4.79086 3.79086 3 6 3H18ZM8 12C8 10.8954 7.10457 10 6 10H2V14H6C7.10457 14 8 13.1046 8 12ZM21 18.75C21.4142 18.75 21.75 18.4142 21.75 18C21.75 17.5858 21.4142 17.25 21 17.25H17C16.5858 17.25 16.25 17.5858 16.25 18C16.25 18.4142 16.5858 18.75 17 18.75H21Z" fill="#28303F"/>
</svg>
