<svg width="24" height="24" viewBox="0 0 24 24" fill="none" xmlns="http://www.w3.org/2000/svg">
<path fill-rule="evenodd" clip-rule="evenodd" d="M18 3C20.2091 3 22 4.79086 22 7V14C22 14.5523 21.5523 15 21 15H18C15.7909 15 14 16.7909 14 19V20C14 20.5523 13.5523 21 13 21H6C3.79086 21 2 19.2091 2 17V15.5H6C7.933 15.5 9.5 13.933 9.5 12C9.5 10.067 7.933 8.5 6 8.5H2V7C2 4.79086 3.79086 3 6 3H18ZM8 12C8 10.8954 7.10457 10 6 10H2V14H6C7.10457 14 8 13.1046 8 12ZM20.9445 18.116C21.2374 17.8232 21.2374 17.3483 20.9445 17.0554C20.6516 16.7625 20.1768 16.7625 19.8839 17.0554L19 17.9393L18.1161 17.0554C17.8232 16.7625 17.3483 16.7625 17.0555 17.0554C16.7626 17.3483 16.7626 17.8232 17.0555 18.116L17.9393 18.9999L17.0555 19.8838C16.7626 20.1767 16.7626 20.6516 17.0555 20.9445C17.3483 21.2374 17.8232 21.2374 18.1161 20.9445L19 20.0606L19.8839 20.9445C20.1768 21.2374 20.6516 21.2374 20.9445 20.9445C21.2374 20.6516 21.2374 20.1767 20.9445 19.8838L20.0607 18.9999L20.9445 18.116Z" fill="#28303F"/>
</svg>
