<svg width="24" height="24" viewBox="0 0 24 24" fill="none" xmlns="http://www.w3.org/2000/svg">
<path fill-rule="evenodd" clip-rule="evenodd" d="M18 2C20.2091 2 22 3.79086 22 6V13C22 13.5523 21.5523 14 21 14H18C15.7909 14 14 15.7909 14 18V19C14 19.5523 13.5523 20 13 20H6C3.79086 20 2 18.2091 2 16V14.5H6C7.933 14.5 9.5 12.933 9.5 11C9.5 9.067 7.933 7.5 6 7.5H2V6C2 3.79086 3.79086 2 6 2H18ZM8 11C8 9.89543 7.10457 9 6 9H2V13H6C7.10457 13 8 12.1046 8 11ZM17.5303 18.8839L18.25 19.6036V16C18.25 15.5858 18.5858 15.25 19 15.25C19.4142 15.25 19.75 15.5858 19.75 16V19.6036L20.4697 18.8839C20.7626 18.591 21.2374 18.591 21.5303 18.8839C21.8232 19.1768 21.8232 19.6516 21.5303 19.9445L20.2374 21.2374C19.554 21.9209 18.446 21.9209 17.7626 21.2374L16.4697 19.9445C16.1768 19.6516 16.1768 19.1768 16.4697 18.8839C16.7626 18.591 17.2374 18.591 17.5303 18.8839Z" fill="#28303F"/>
</svg>
