<svg width="24" height="24" viewBox="0 0 24 24" fill="none" xmlns="http://www.w3.org/2000/svg">
<path fill-rule="evenodd" clip-rule="evenodd" d="M18 2H12C10.3213 2 8.88413 3.03408 8.29074 4.5H21.7092C21.1158 3.03408 19.6787 2 18 2ZM2 16V12H6C7.10457 12 8 12.8954 8 14C8 15.1046 7.10457 16 6 16H2ZM6 6H22V14C22 14.5523 21.5523 15 21 15H18C15.7909 15 14 16.7909 14 19V21C14 21.5523 13.5523 22 13 22H6C3.79086 22 2 20.2091 2 18V17.5H6C7.933 17.5 9.5 15.933 9.5 14C9.5 12.067 7.933 10.5 6 10.5H2V10C2 7.79086 3.79086 6 6 6ZM18.116 18.0554C17.8231 17.7625 17.3483 17.7625 17.0554 18.0554C16.7625 18.3483 16.7625 18.8231 17.0554 19.116L17.9392 19.9999L17.0554 20.8838C16.7625 21.1767 16.7625 21.6516 17.0554 21.9445C17.3483 22.2373 17.8231 22.2373 18.116 21.9445L18.9999 21.0606L19.8838 21.9445C20.1767 22.2373 20.6516 22.2373 20.9445 21.9445C21.2373 21.6516 21.2373 21.1767 20.9445 20.8838L20.0606 19.9999L20.9445 19.116C21.2373 18.8231 21.2373 18.3483 20.9445 18.0554C20.6516 17.7625 20.1767 17.7625 19.8838 18.0554L18.9999 18.9392L18.116 18.0554Z" fill="#28303F"/>
</svg>
