<svg width="24" height="24" viewBox="0 0 24 24" fill="none" xmlns="http://www.w3.org/2000/svg">
<path fill-rule="evenodd" clip-rule="evenodd" d="M22 6C22 3.79086 20.2091 2 18 2H6C3.79086 2 2 3.79086 2 6V7.5H6C7.933 7.5 9.5 9.067 9.5 11C9.5 12.933 7.933 14.5 6 14.5H2V16C2 18.2091 3.79086 20 6 20H13C13.5523 20 14 19.5523 14 19V18C14 15.7909 15.7909 14 18 14H21C21.5523 14 22 13.5523 22 13V6ZM6 9C7.10457 9 8 9.89543 8 11C8 12.1046 7.10457 13 6 13H2V9H6ZM21 17C21 15.8954 20.1046 15 19 15C17.8954 15 17 15.8954 17 17C17 18.1046 17.8954 19 19 19C17.7538 19 16.6228 19.6414 15.7921 20.6841C15.341 21.2503 15.8159 22 16.5398 22H21.4602C22.1841 22 22.659 21.2503 22.2079 20.6841C21.3772 19.6414 20.2462 19 19 19C20.1046 19 21 18.1046 21 17Z" fill="#28303F"/>
</svg>
