<svg width="24" height="24" viewBox="0 0 24 24" fill="none" xmlns="http://www.w3.org/2000/svg">
<path fill-rule="evenodd" clip-rule="evenodd" d="M12 2H18C19.6787 2 21.1158 3.03408 21.7092 4.5H8.29074C8.88413 3.03408 10.3213 2 12 2ZM2 12V16H6C7.10457 16 8 15.1046 8 14C8 12.8954 7.10457 12 6 12H2ZM22 6H6C3.79086 6 2 7.79086 2 10V10.5H6C7.933 10.5 9.5 12.067 9.5 14C9.5 15.933 7.933 17.5 6 17.5H2V18C2 20.2091 3.79086 22 6 22H13C13.5523 22 14 21.5523 14 21V18C14 15.7909 15.7909 14 18 14H21C21.5523 14 22 13.5523 22 13V6ZM21 17C21 15.8954 20.1046 15 19 15C17.8954 15 17 15.8954 17 17C17 18.1046 17.8954 19 19 19C17.7538 19 16.6228 19.6414 15.7921 20.6841C15.341 21.2503 15.8159 22 16.5398 22H21.4602C22.1841 22 22.659 21.2503 22.2079 20.6841C21.3772 19.6414 20.2462 19 19 19C20.1046 19 21 18.1046 21 17Z" fill="#28303F"/>
</svg>
