<svg width="24" height="24" viewBox="0 0 24 24" fill="none" xmlns="http://www.w3.org/2000/svg">
<path fill-rule="evenodd" clip-rule="evenodd" d="M18 2H12C10.3213 2 8.88413 3.03408 8.29074 4.5H21.7092C21.1158 3.03408 19.6787 2 18 2ZM2 16V12H6C7.10457 12 8 12.8954 8 14C8 15.1046 7.10457 16 6 16H2ZM6 6H22V14C22 14.5523 21.5523 15 21 15H18C15.7909 15 14 16.7909 14 19V21C14 21.5523 13.5523 22 13 22H6C3.79086 22 2 20.2091 2 18V17.5H6C7.933 17.5 9.5 15.933 9.5 14C9.5 12.067 7.933 10.5 6 10.5H2V10C2 7.79086 3.79086 6 6 6ZM19.8839 18.5303L20.6036 19.25H17C16.5858 19.25 16.25 19.5858 16.25 20C16.25 20.4142 16.5858 20.75 17 20.75H20.6036L19.8839 21.4697C19.591 21.7626 19.591 22.2374 19.8839 22.5303C20.1768 22.8232 20.6516 22.8232 20.9445 22.5303L22.2374 21.2374C22.9209 20.554 22.9209 19.446 22.2374 18.7626L20.9445 17.4697C20.6516 17.1768 20.1768 17.1768 19.8839 17.4697C19.591 17.7626 19.591 18.2374 19.8839 18.5303Z" fill="#28303F"/>
</svg>
