<svg width="24" height="24" viewBox="0 0 24 24" fill="none" xmlns="http://www.w3.org/2000/svg">
<path fill-rule="evenodd" clip-rule="evenodd" d="M18 2H12C10.3213 2 8.88413 3.03408 8.29074 4.5H21.7092C21.1158 3.03408 19.6787 2 18 2ZM2 16V12H6C7.10457 12 8 12.8954 8 14C8 15.1046 7.10457 16 6 16H2ZM6 6H22V14C22 14.5523 21.5523 15 21 15H18C15.7909 15 14 16.7909 14 19V21C14 21.5523 13.5523 22 13 22H6C3.79086 22 2 20.2091 2 18V17.5H6C7.933 17.5 9.5 15.933 9.5 14C9.5 12.067 7.933 10.5 6 10.5H2V10C2 7.79086 3.79086 6 6 6ZM21 19.75C21.4142 19.75 21.75 19.4142 21.75 19C21.75 18.5858 21.4142 18.25 21 18.25H17C16.5858 18.25 16.25 18.5858 16.25 19C16.25 19.4142 16.5858 19.75 17 19.75H21Z" fill="#28303F"/>
</svg>
