<svg width="24" height="24" viewBox="0 0 24 24" fill="none" xmlns="http://www.w3.org/2000/svg">
<path fill-rule="evenodd" clip-rule="evenodd" d="M18 3C20.2091 3 22 4.79086 22 7V14C22 14.5523 21.5523 15 21 15H18C15.7909 15 14 16.7909 14 19V20C14 20.5523 13.5523 21 13 21H6C3.79086 21 2 19.2091 2 17V15.5H6C7.933 15.5 9.5 13.933 9.5 12C9.5 10.067 7.933 8.5 6 8.5H2V7C2 4.79086 3.79086 3 6 3H18ZM8 12C8 10.8954 7.10457 10 6 10H2V14H6C7.10457 14 8 13.1046 8 12ZM19.1161 17.5303L18.3964 18.25H22C22.4142 18.25 22.75 18.5858 22.75 19C22.75 19.4142 22.4142 19.75 22 19.75H18.3964L19.1161 20.4697C19.409 20.7626 19.409 21.2374 19.1161 21.5303C18.8232 21.8232 18.3484 21.8232 18.0555 21.5303L16.7626 20.2374C16.0791 19.554 16.0791 18.446 16.7626 17.7626L18.0555 16.4697C18.3484 16.1768 18.8232 16.1768 19.1161 16.4697C19.409 16.7626 19.409 17.2374 19.1161 17.5303Z" fill="#28303F"/>
</svg>
