<svg width="24" height="24" viewBox="0 0 24 24" fill="none" xmlns="http://www.w3.org/2000/svg">
<path fill-rule="evenodd" clip-rule="evenodd" d="M18 2H12C10.3213 2 8.88413 3.03408 8.29074 4.5H21.7092C21.1158 3.03408 19.6787 2 18 2ZM2 16V12H6C7.10457 12 8 12.8954 8 14C8 15.1046 7.10457 16 6 16H2ZM6 6H22V14C22 14.5523 21.5523 15 21 15H18C15.7909 15 14 16.7909 14 19V21C14 21.5523 13.5523 22 13 22H6C3.79086 22 2 20.2091 2 18V17.5H6C7.933 17.5 9.5 15.933 9.5 14C9.5 12.067 7.933 10.5 6 10.5H2V10C2 7.79086 3.79086 6 6 6ZM17.5303 19.8839L18.25 20.6036V17C18.25 16.5858 18.5858 16.25 19 16.25C19.4142 16.25 19.75 16.5858 19.75 17V20.6036L20.4697 19.8839C20.7626 19.591 21.2374 19.591 21.5303 19.8839C21.8232 20.1768 21.8232 20.6516 21.5303 20.9445L20.2374 22.2374C19.554 22.9209 18.446 22.9209 17.7626 22.2374L16.4697 20.9445C16.1768 20.6516 16.1768 20.1768 16.4697 19.8839C16.7626 19.591 17.2374 19.591 17.5303 19.8839Z" fill="#28303F"/>
</svg>
