<svg width="24" height="24" viewBox="0 0 24 24" fill="none" xmlns="http://www.w3.org/2000/svg">
<path fill-rule="evenodd" clip-rule="evenodd" d="M18 2H12C10.3213 2 8.88413 3.03408 8.29074 4.5H21.7092C21.1158 3.03408 19.6787 2 18 2ZM2 16V12H6C7.10457 12 8 12.8954 8 14C8 15.1046 7.10457 16 6 16H2ZM6 6H22V14C22 14.5523 21.5523 15 21 15H18C15.7909 15 14 16.7909 14 19V21C14 21.5523 13.5523 22 13 22H6C3.79086 22 2 20.2091 2 18V17.5H6C7.933 17.5 9.5 15.933 9.5 14C9.5 12.067 7.933 10.5 6 10.5H2V10C2 7.79086 3.79086 6 6 6ZM17.5303 19.1161L18.25 18.3964V22C18.25 22.4142 18.5858 22.75 19 22.75C19.4142 22.75 19.75 22.4142 19.75 22V18.3964L20.4697 19.1161C20.7626 19.409 21.2374 19.409 21.5303 19.1161C21.8232 18.8232 21.8232 18.3484 21.5303 18.0555L20.2374 16.7626C19.554 16.0791 18.446 16.0791 17.7626 16.7626L16.4697 18.0555C16.1768 18.3484 16.1768 18.8232 16.4697 19.1161C16.7626 19.409 17.2374 19.409 17.5303 19.1161Z" fill="#28303F"/>
</svg>
