<svg width="24" height="24" viewBox="0 0 24 24" fill="none" xmlns="http://www.w3.org/2000/svg">
<path fill-rule="evenodd" clip-rule="evenodd" d="M5.55004 2.40004C5.88142 2.15152 6.35152 2.21867 6.60004 2.55004L12 9.75004L17.4 2.55004C17.6486 2.21867 18.1187 2.15152 18.45 2.40004C18.7814 2.64857 18.8486 3.11867 18.6 3.45004L13.5 10.25H18C18.4143 10.25 18.75 10.5858 18.75 11C18.75 11.4143 18.4143 11.75 18 11.75H12.75V14.25H18C18.4143 14.25 18.75 14.5858 18.75 15C18.75 15.4143 18.4143 15.75 18 15.75H12.75V21C12.75 21.4143 12.4143 21.75 12 21.75C11.5858 21.75 11.25 21.4143 11.25 21V15.75H6.00004C5.58583 15.75 5.25004 15.4143 5.25004 15C5.25004 14.5858 5.58583 14.25 6.00004 14.25H11.25V11.75H6.00004C5.58583 11.75 5.25004 11.4143 5.25004 11C5.25004 10.5858 5.58583 10.25 6.00004 10.25H10.5L5.40004 3.45004C5.15152 3.11867 5.21867 2.64857 5.55004 2.40004Z" fill="#28303F"/>
</svg>
