<svg width="24" height="24" viewBox="0 0 24 24" fill="none" xmlns="http://www.w3.org/2000/svg">
<path fill-rule="evenodd" clip-rule="evenodd" d="M5.5408 3.40705C5.8683 3.15344 6.33938 3.21334 6.59299 3.54084C6.8466 3.86834 6.7867 4.33942 6.4592 4.59303C5.3148 5.47922 4.38922 6.60117 3.74832 7.87636C3.10746 9.15146 2.76694 10.5485 2.75062 11.966C2.73429 13.3836 3.04254 14.7876 3.65379 16.0762C4.26509 17.3649 5.16447 18.5066 6.28801 19.4174C6.60977 19.6783 6.65916 20.1506 6.39831 20.4723C6.13746 20.7941 5.66517 20.8435 5.3434 20.5826C4.0477 19.5322 3.00706 18.2127 2.29854 16.7191C1.58997 15.2253 1.23175 13.5957 1.25072 11.9488C1.26969 10.3019 1.66535 8.68052 2.40807 7.20275C3.15075 5.72507 4.22139 4.42877 5.5408 3.40705ZM17.4071 3.54084C17.6607 3.21334 18.1318 3.15344 18.4593 3.40705C19.7787 4.42877 20.8493 5.72507 21.592 7.20275C22.3347 8.68052 22.7304 10.3019 22.7494 11.9488C22.7683 13.5957 22.4101 15.2253 21.7015 16.7191C20.993 18.2127 19.9524 19.5322 18.6567 20.5826C18.3349 20.8435 17.8626 20.7941 17.6018 20.4723C17.3409 20.1506 17.3903 19.6783 17.7121 19.4174C18.8356 18.5066 19.735 17.3649 20.3463 16.0762C20.9575 14.7876 21.2658 13.3836 21.2495 11.966C21.2331 10.5485 20.8926 9.15146 20.2518 7.87636C19.6109 6.60117 18.6853 5.47922 17.5409 4.59303C17.2134 4.33942 17.1535 3.86834 17.4071 3.54084ZM15.4092 7.53814C15.6643 7.2118 16.1356 7.15404 16.462 7.40914C17.1651 7.95876 17.7361 8.65165 18.1323 9.44032C18.5286 10.2291 18.7399 11.0934 18.7497 11.9716C18.7595 12.8499 18.5676 13.7184 18.1889 14.5154C17.8102 15.3122 17.2547 16.0169 16.5638 16.581C16.2429 16.843 15.7704 16.7952 15.5085 16.4744C15.2465 16.1535 15.2943 15.681 15.6151 15.4191C16.1372 14.9929 16.5525 14.4641 16.8341 13.8716C17.1156 13.2792 17.257 12.6365 17.2498 11.9884C17.2426 11.3403 17.0868 10.7004 16.792 10.1137C16.4971 9.52692 16.0699 9.00654 15.5382 8.59093C15.2118 8.33583 15.1541 7.86448 15.4092 7.53814ZM8.5909 7.53814C8.3358 7.2118 7.86445 7.15404 7.53811 7.40914C6.83498 7.95876 6.26401 8.65165 5.86775 9.44032C5.47143 10.2291 5.26017 11.0934 5.25036 11.9716C5.24055 12.8499 5.43245 13.7184 5.81117 14.5154C6.18983 15.3122 6.74538 16.0169 7.43631 16.581C7.75717 16.843 8.22964 16.7952 8.4916 16.4744C8.75356 16.1535 8.70581 15.681 8.38495 15.4191C7.86292 14.9929 7.44754 14.4641 7.16599 13.8716C6.8845 13.2792 6.74303 12.6365 6.75027 11.9884C6.75751 11.3403 6.91331 10.7004 7.20808 10.1137C7.50293 9.52692 7.93021 9.00654 8.4619 8.59093C8.78824 8.33583 8.84599 7.86448 8.5909 7.53814ZM14 12C14 10.8954 13.1046 10 12 10C10.8955 10 10 10.8954 10 12C10 12.8393 10.5171 13.5579 11.25 13.8546V20C11.25 20.4142 11.5858 20.75 12 20.75C12.4142 20.75 12.75 20.4142 12.75 20V13.8546C13.483 13.5579 14 12.8393 14 12Z" fill="#28303F"/>
</svg>
