<svg width="24" height="24" viewBox="0 0 24 24" fill="none" xmlns="http://www.w3.org/2000/svg">
<path fill-rule="evenodd" clip-rule="evenodd" d="M21 17.3541V19C21 20.1046 20.1046 21 19 21C10.1634 21 3 13.8366 3 5C3 3.89543 3.89543 3 5 3H6.64593C7.46374 3 8.19916 3.4979 8.50289 4.25722L9.31654 6.29136C9.70285 7.25714 9.28438 8.35781 8.35402 8.82299L8 9C8 9 8.5 11.5 10.5 13.5C12.5 15.5 15 16 15 16L15.177 15.646C15.6422 14.7156 16.7429 14.2971 17.7086 14.6835L19.7428 15.4971C20.5021 15.8008 21 16.5363 21 17.3541ZM15.9383 8.04783L14.4258 6.1573C14.1502 5.81273 14 5.38459 14 4.94332V4.85616C14 3.83103 14.831 3 15.8562 3C16.3484 3 16.8206 3.19556 17.1687 3.54366L17.5 3.875L17.8313 3.54366C18.1794 3.19556 18.6516 3 19.1438 3C20.169 3 21 3.83103 21 4.85616V4.94332C21 5.38459 20.8498 5.81273 20.5742 6.1573L19.0617 8.04783C18.2611 9.04864 16.7389 9.04864 15.9383 8.04783Z" fill="#28303F"/>
</svg>
