<svg width="24" height="24" viewBox="0 0 24 24" fill="none" xmlns="http://www.w3.org/2000/svg">
<path fill-rule="evenodd" clip-rule="evenodd" d="M15.5303 7.53033C15.2374 7.82322 14.7626 7.82322 14.4697 7.53033L13.1768 6.23744C12.4934 5.55402 12.4934 4.44598 13.1768 3.76256L14.4697 2.46967C14.7626 2.17678 15.2374 2.17678 15.5303 2.46967C15.8232 2.76256 15.8232 3.23744 15.5303 3.53033L14.2374 4.82322C14.1398 4.92085 14.1398 5.07915 14.2374 5.17678L15.5303 6.46967C15.8232 6.76256 15.8232 7.23744 15.5303 7.53033ZM21 19V17.3541C21 16.5363 20.5021 15.8008 19.7428 15.4971L17.7086 14.6835C16.7429 14.2971 15.6422 14.7156 15.177 15.646L15 16C15 16 12.5 15.5 10.5 13.5C8.5 11.5 8 9 8 9L8.35402 8.82299C9.28438 8.35781 9.70285 7.25714 9.31654 6.29136L8.50289 4.25722C8.19916 3.4979 7.46374 3 6.64593 3H5C3.89543 3 3 3.89543 3 5C3 13.8366 10.1634 21 19 21C20.1046 21 21 20.1046 21 19ZM17.1768 6.23744L18.4697 7.53033C18.7626 7.82322 19.2374 7.82322 19.5303 7.53033C19.8232 7.23744 19.8232 6.76256 19.5303 6.46967L18.8107 5.75H21C21.4142 5.75 21.75 5.41421 21.75 5C21.75 4.58579 21.4142 4.25 21 4.25H18.8107L19.5303 3.53033C19.8232 3.23744 19.8232 2.76256 19.5303 2.46967C19.2374 2.17678 18.7626 2.17678 18.4697 2.46967L17.1768 3.76256C16.4934 4.44598 16.4934 5.55402 17.1768 6.23744Z" fill="#28303F"/>
</svg>
