<svg width="24" height="24" viewBox="0 0 24 24" fill="none" xmlns="http://www.w3.org/2000/svg">
<path fill-rule="evenodd" clip-rule="evenodd" d="M21 17.3541V19C21 20.1046 20.1046 21 19 21C10.1634 21 3 13.8366 3 5C3 3.89543 3.89543 3 5 3H6.64593C7.46374 3 8.19916 3.4979 8.50289 4.25722L9.31654 6.29136C9.70285 7.25714 9.28438 8.35781 8.35402 8.82299L8 9C8 9 8.5 11.5 10.5 13.5C12.5 15.5 15 16 15 16L15.177 15.646C15.6422 14.7156 16.7429 14.2971 17.7086 14.6835L19.7428 15.4971C20.5021 15.8008 21 16.5363 21 17.3541ZM15 6C15 5.44364 15.1514 4.92266 15.4154 4.47602L19.524 8.58464C19.0773 8.84855 18.5564 9 18 9C16.3431 9 15 7.65685 15 6ZM21 6C21 6.55636 20.8486 7.07734 20.5846 7.52398L16.476 3.41536C16.9227 3.15145 17.4436 3 18 3C19.6569 3 21 4.34315 21 6Z" fill="#28303F"/>
</svg>
