<svg width="24" height="24" viewBox="0 0 24 24" fill="none" xmlns="http://www.w3.org/2000/svg">
<path fill-rule="evenodd" clip-rule="evenodd" d="M12.75 4.5C12.75 4.08579 13.0858 3.75 13.5 3.75C13.9142 3.75 14.25 4.08579 14.25 4.5C14.25 4.91421 13.9142 5.25 13.5 5.25C13.0858 5.25 12.75 4.91421 12.75 4.5ZM15.75 4.5C15.75 4.76298 15.7049 5.01542 15.622 5.25H17.378C17.2951 5.01542 17.25 4.76298 17.25 4.5C17.25 3.25736 18.2574 2.25 19.5 2.25C20.7426 2.25 21.75 3.25736 21.75 4.5C21.75 5.74264 20.7426 6.75 19.5 6.75H13.5C12.2574 6.75 11.25 5.74264 11.25 4.5C11.25 3.25736 12.2574 2.25 13.5 2.25C14.7426 2.25 15.75 3.25736 15.75 4.5ZM20.25 4.5C20.25 4.91421 19.9142 5.25 19.5 5.25C19.0858 5.25 18.75 4.91421 18.75 4.5C18.75 4.08579 19.0858 3.75 19.5 3.75C19.9142 3.75 20.25 4.08579 20.25 4.5ZM21 17.3541V19C21 20.1046 20.1046 21 19 21C10.1634 21 3 13.8366 3 5C3 3.89543 3.89543 3 5 3H6.64593C7.46374 3 8.19916 3.4979 8.50289 4.25722L9.31654 6.29136C9.70285 7.25714 9.28438 8.35781 8.35402 8.82299L8 9C8 9 8.5 11.5 10.5 13.5C12.5 15.5 15 16 15 16L15.177 15.646C15.6422 14.7156 16.7429 14.2971 17.7086 14.6835L19.7428 15.4971C20.5021 15.8008 21 16.5363 21 17.3541Z" fill="#28303F"/>
</svg>
