<svg width="24" height="24" viewBox="0 0 24 24" fill="none" xmlns="http://www.w3.org/2000/svg">
<path fill-rule="evenodd" clip-rule="evenodd" d="M19.5303 7.53033L20.8232 6.23744C21.5066 5.55402 21.5066 4.44598 20.8232 3.76256L19.5303 2.46967C19.2374 2.17678 18.7626 2.17678 18.4697 2.46967C18.1768 2.76256 18.1768 3.23744 18.4697 3.53033L19.7626 4.82322C19.8602 4.92085 19.8602 5.07915 19.7626 5.17678L18.4697 6.46967C18.1768 6.76256 18.1768 7.23744 18.4697 7.53033C18.7626 7.82322 19.2374 7.82322 19.5303 7.53033ZM21 19V17.3541C21 16.5363 20.5021 15.8008 19.7428 15.4971L17.7086 14.6835C16.7429 14.2971 15.6422 14.7156 15.177 15.646L15 16C15 16 12.5 15.5 10.5 13.5C8.5 11.5 8 9 8 9L8.35402 8.82299C9.28438 8.35781 9.70285 7.25714 9.31654 6.29136L8.50289 4.25722C8.19916 3.4979 7.46374 3 6.64593 3H5C3.89543 3 3 3.89543 3 5C3 13.8366 10.1634 21 19 21C20.1046 21 21 20.1046 21 19ZM15.5303 7.53033C15.2374 7.82322 14.7626 7.82322 14.4697 7.53033C14.1768 7.23744 14.1768 6.76256 14.4697 6.46967L15.1893 5.75H13C12.5858 5.75 12.25 5.41421 12.25 5C12.25 4.58579 12.5858 4.25 13 4.25H15.1893L14.4697 3.53033C14.1768 3.23744 14.1768 2.76256 14.4697 2.46967C14.7626 2.17678 15.2374 2.17678 15.5303 2.46967L16.8232 3.76256C17.5066 4.44598 17.5066 5.55402 16.8232 6.23744L15.5303 7.53033Z" fill="#28303F"/>
</svg>
