<svg width="24" height="24" viewBox="0 0 24 24" fill="none" xmlns="http://www.w3.org/2000/svg">
<path fill-rule="evenodd" clip-rule="evenodd" d="M21 17.3541V19C21 20.1046 20.1046 21 19 21C10.1634 21 3 13.8366 3 5C3 3.89543 3.89543 3 5 3H6.64593C7.46374 3 8.19916 3.4979 8.50289 4.25722L9.31654 6.29136C9.70285 7.25714 9.28438 8.35781 8.35402 8.82299L8 9C8 9 8.5 11.5 10.5 13.5C12.5 15.5 15 16 15 16L15.177 15.646C15.6422 14.7156 16.7429 14.2971 17.7086 14.6835L19.7428 15.4971C20.5021 15.8008 21 16.5363 21 17.3541ZM19.5 5C19.5 6.10457 18.6046 7 17.5 7C16.3954 7 15.5 6.10457 15.5 5C15.5 3.89543 16.3954 3 17.5 3C18.6046 3 19.5 3.89543 19.5 5ZM19.2 8C20.1941 8 21 8.80589 21 9.8C21 10.4627 20.4627 11 19.8 11H15.2C14.5373 11 14 10.4627 14 9.8C14 8.80589 14.8059 8 15.8 8H19.2Z" fill="#28303F"/>
</svg>
