<svg width="24" height="24" viewBox="0 0 24 24" fill="none" xmlns="http://www.w3.org/2000/svg">
<path fill-rule="evenodd" clip-rule="evenodd" d="M11 3H13C17.9706 3 22 7.02944 22 12C22 16.9706 17.9706 21 13 21H6C3.79086 21 2 19.2091 2 17V12C2 7.02944 6.02944 3 11 3ZM9 12C9 11.4436 9.15145 10.9227 9.41536 10.476L13.524 14.5846C13.0773 14.8486 12.5564 15 12 15C10.3431 15 9 13.6569 9 12ZM15 12C15 12.5564 14.8486 13.0773 14.5846 13.524L10.476 9.41536C10.9227 9.15145 11.4436 9 12 9C13.6569 9 15 10.3431 15 12Z" fill="#28303F"/>
</svg>
