<svg width="24" height="24" viewBox="0 0 24 24" fill="none" xmlns="http://www.w3.org/2000/svg">
<path fill-rule="evenodd" clip-rule="evenodd" d="M11 3H13C17.9706 3 22 7.02944 22 12C22 16.9706 17.9706 21 13 21H6C3.79086 21 2 19.2091 2 17V12C2 7.02944 6.02944 3 11 3ZM10.5303 12.4697L11.25 13.1894V9.00003C11.25 8.58581 11.5858 8.25003 12 8.25003C12.4142 8.25003 12.75 8.58581 12.75 9.00003V13.1894L13.4697 12.4697C13.7626 12.1768 14.2374 12.1768 14.5303 12.4697C14.8232 12.7626 14.8232 13.2375 14.5303 13.5304L13.2374 14.8233C12.554 15.5067 11.446 15.5067 10.7626 14.8233L9.46967 13.5304C9.17678 13.2375 9.17678 12.7626 9.46967 12.4697C9.76256 12.1768 10.2374 12.1768 10.5303 12.4697Z" fill="#28303F"/>
</svg>
