<svg width="24" height="24" viewBox="0 0 24 24" fill="none" xmlns="http://www.w3.org/2000/svg">
<path fill-rule="evenodd" clip-rule="evenodd" d="M11 3H13C17.9706 3 22 7.02944 22 12C22 16.9706 17.9706 21 13 21H6C3.79086 21 2 19.2091 2 17V12C2 7.02944 6.02944 3 11 3ZM13.4697 11.5303L12.75 10.8106V15C12.75 15.4142 12.4142 15.75 12 15.75C11.5858 15.75 11.25 15.4142 11.25 15V10.8106L10.5303 11.5303C10.2374 11.8232 9.76256 11.8232 9.46967 11.5303C9.17678 11.2374 9.17678 10.7625 9.46967 10.4696L10.7626 9.17675C11.446 8.49333 12.554 8.49333 13.2374 9.17675L14.5303 10.4696C14.8232 10.7625 14.8232 11.2374 14.5303 11.5303C14.2374 11.8232 13.7626 11.8232 13.4697 11.5303Z" fill="#28303F"/>
</svg>
