<svg width="24" height="24" viewBox="0 0 24 24" fill="none" xmlns="http://www.w3.org/2000/svg">
<path fill-rule="evenodd" clip-rule="evenodd" d="M13 3C13.8257 3 14.6255 3.1112 15.3851 3.31945C14.829 4.06819 14.5 4.99567 14.5 6C14.5 8.48528 16.5147 10.5 19 10.5C20.0043 10.5 20.9318 10.171 21.6805 9.61486C21.8888 10.3745 22 11.1743 22 12C22 16.9706 17.9706 21 13 21H6C3.79086 21 2 19.2091 2 17V12C2 7.02944 6.02944 3 11 3H13ZM19 9C20.6569 9 22 7.65685 22 6C22 4.34315 20.6569 3 19 3C17.3431 3 16 4.34315 16 6C16 7.65685 17.3431 9 19 9Z" fill="#28303F"/>
</svg>
