<svg width="24" height="24" viewBox="0 0 24 24" fill="none" xmlns="http://www.w3.org/2000/svg">
<path fill-rule="evenodd" clip-rule="evenodd" d="M11 3H13C17.9706 3 22 7.02944 22 12C22 16.9706 17.9706 21 13 21H6C3.79086 21 2 19.2091 2 17V12C2 7.02944 6.02944 3 11 3ZM8.54716 13.487C8.26386 13.1849 7.78923 13.1696 7.48705 13.4528C7.18486 13.7361 7.16955 14.2108 7.45285 14.513C8.8038 15.954 10.3647 16.75 12 16.75C13.6353 16.75 15.1962 15.954 16.5472 14.513C16.8305 14.2108 16.8151 13.7361 16.513 13.4528C16.2108 13.1696 15.7361 13.1849 15.4528 13.487C14.3038 14.7127 13.1147 15.25 12 15.25C10.8853 15.25 9.6962 14.7127 8.54716 13.487Z" fill="#28303F"/>
</svg>
