<svg width="24" height="24" viewBox="0 0 24 24" fill="none" xmlns="http://www.w3.org/2000/svg">
<path fill-rule="evenodd" clip-rule="evenodd" d="M3.53033 2.46967C3.23744 2.17678 2.76256 2.17678 2.46967 2.46967C2.17678 2.76256 2.17678 3.23744 2.46967 3.53033L4.6058 5.66647C2.9949 7.29269 2 9.53018 2 12V17C2 19.2092 3.79086 21 6 21H13C14.9594 21 16.7725 20.3739 18.2502 19.3108L20.4697 21.5303C20.7626 21.8232 21.2374 21.8232 21.5303 21.5303C21.8232 21.2374 21.8232 20.7626 21.5303 20.4697L15.8107 14.75H7C6.58579 14.75 6.25 14.4142 6.25 14C6.25 13.5858 6.58579 13.25 7 13.25H14.3107L11.8107 10.75H7C6.58579 10.75 6.25 10.4142 6.25 10C6.25 9.58579 6.58579 9.25 7 9.25H10.3107L3.53033 2.46967ZM10.9999 3H12.9999C17.9705 3 21.9999 7.02944 21.9999 12C21.9999 13.7165 21.5194 15.3208 20.6855 16.6856L7.64575 3.64581C8.68233 3.22924 9.81437 3 10.9999 3Z" fill="#28303F"/>
</svg>
