<svg width="24" height="24" viewBox="0 0 24 24" fill="none" xmlns="http://www.w3.org/2000/svg">
<path fill-rule="evenodd" clip-rule="evenodd" d="M13 3H11C6.02944 3 2 7.02944 2 12V17C2 19.2091 3.79086 21 6 21H13C17.9706 21 22 16.9706 22 12C22 7.02944 17.9706 3 13 3ZM16 12C16 14.2091 14.2091 16 12 16C9.79086 16 8 14.2091 8 12C8 9.79086 9.79086 8 12 8C14.2091 8 16 9.79086 16 12ZM12.75 10.5C12.75 10.0858 12.4142 9.75 12 9.75C11.5858 9.75 11.25 10.0858 11.25 10.5V12C11.25 12.4142 11.5858 12.75 12 12.75H13.5C13.9142 12.75 14.25 12.4142 14.25 12C14.25 11.5858 13.9142 11.25 13.5 11.25H12.75V10.5Z" fill="#28303F"/>
</svg>
