<svg width="24" height="24" viewBox="0 0 24 24" fill="none" xmlns="http://www.w3.org/2000/svg">
<path fill-rule="evenodd" clip-rule="evenodd" d="M13 3H11C6.02944 3 2 7.02944 2 12V17C2 19.2091 3.79086 21 6 21H13C17.9706 21 22 16.9706 22 12C22 7.02944 17.9706 3 13 3ZM14 10C14 11.1046 13.1046 12 12 12C10.8954 12 10 11.1046 10 10C10 8.89543 10.8954 8 12 8C13.1046 8 14 8.89543 14 10ZM8.142 15.0135C8.60661 13.5499 10.1579 13 12 13C13.8421 13 15.3934 13.5499 15.858 15.0135C16.0251 15.5399 15.5523 16 15 16H9C8.44772 16 7.9749 15.5399 8.142 15.0135Z" fill="#28303F"/>
</svg>
