<svg width="24" height="24" viewBox="0 0 24 24" fill="none" xmlns="http://www.w3.org/2000/svg">
<path fill-rule="evenodd" clip-rule="evenodd" d="M11 3H13C17.9706 3 22 7.02944 22 12C22 16.9706 17.9706 21 13 21H6C3.79086 21 2 19.2091 2 17V12C2 7.02944 6.02944 3 11 3ZM15.5644 10.4939C15.8372 10.1822 15.8056 9.70834 15.4939 9.43558C15.1821 9.16282 14.7083 9.1944 14.4356 9.50613L11.5657 12.786C11.4776 12.8867 11.3258 12.9002 11.2213 12.8166L9.46852 11.4144C9.14507 11.1556 8.6731 11.208 8.41435 11.5315C8.15559 11.8549 8.20803 12.3269 8.53148 12.5857L10.2843 13.9879C11.0156 14.5729 12.0778 14.4786 12.6945 13.7738L15.5644 10.4939Z" fill="#28303F"/>
</svg>
