<svg width="24" height="24" viewBox="0 0 24 24" fill="none" xmlns="http://www.w3.org/2000/svg">
<path fill-rule="evenodd" clip-rule="evenodd" d="M11 3H13C17.9706 3 22 7.02944 22 12C22 16.9706 17.9706 21 13 21H6C3.79086 21 2 19.2091 2 17V12C2 7.02944 6.02944 3 11 3ZM12 8.75C11.3096 8.75 10.75 9.30964 10.75 10V11H13.25V10C13.25 9.30964 12.6904 8.75 12 8.75ZM9.25 11C9.25 11.0479 9.25449 11.0947 9.26307 11.1401C8.5232 11.4335 8 12.1557 8 13V14C8 15.1046 8.89543 16 10 16H14C15.1046 16 16 15.1046 16 14V13C16 12.1557 15.4768 11.4335 14.7369 11.1401C14.7455 11.0947 14.75 11.0479 14.75 11V10C14.75 8.48122 13.5188 7.25 12 7.25C10.4812 7.25 9.25 8.48122 9.25 10V11Z" fill="#28303F"/>
</svg>
