<svg width="24" height="24" viewBox="0 0 24 24" fill="none" xmlns="http://www.w3.org/2000/svg">
<path fill-rule="evenodd" clip-rule="evenodd" d="M11 3H13C17.9706 3 22 7.02944 22 12C22 16.9706 17.9706 21 13 21H6C3.79086 21 2 19.2091 2 17V12C2 7.02944 6.02944 3 11 3ZM12.7918 8.59851C12.6804 8.24163 12.3607 8 12 8C11.6393 8 11.3196 8.24163 11.2082 8.59851L10.6474 10.394H8.83265C8.47195 10.394 8.15227 10.6357 8.04081 10.9925C7.92934 11.3494 8.05145 11.7404 8.34326 11.9609L9.81141 13.0706L9.25063 14.8662C9.13917 15.2231 9.26127 15.614 9.55308 15.8346C9.8449 16.0551 10.24 16.0551 10.5319 15.8346L12 14.7249L13.4681 15.8346C13.76 16.0551 14.1551 16.0551 14.4469 15.8346C14.7387 15.614 14.8608 15.2231 14.7494 14.8662L14.1886 13.0706L15.6567 11.9609C15.9485 11.7404 16.0707 11.3494 15.9592 10.9925C15.8477 10.6357 15.5281 10.394 15.1674 10.394H13.3526L12.7918 8.59851Z" fill="#28303F"/>
</svg>
