<svg width="24" height="24" viewBox="0 0 24 24" fill="none" xmlns="http://www.w3.org/2000/svg">
<path fill-rule="evenodd" clip-rule="evenodd" d="M10 3H11.1429C14.3782 3 17.0902 5.28735 17.8118 8.36434C17.9348 8.88907 18 9.43677 18 10C18 13.866 14.93 17 11.1429 17H6.96161H4.28571C3.02335 17 2 15.9553 2 14.6667V11.1667C2 6.65634 5.58172 3 10 3ZM11.4286 19H8.05814C9.29491 20.2372 10.9888 21 12.8571 21H17.0384H19.7143C20.9766 21 22 19.9553 22 18.6667V15.1667C22 13.0939 21.2435 11.2014 19.997 9.76135C19.999 9.84065 20 9.9202 20 9.99999C20 14.9706 16.1624 19 11.4286 19Z" fill="#28303F"/>
</svg>
