<svg width="24" height="24" viewBox="0 0 24 24" fill="none" xmlns="http://www.w3.org/2000/svg">
<path fill-rule="evenodd" clip-rule="evenodd" d="M11 3H13C17.9706 3 22 7.02944 22 12C22 16.9706 17.9706 21 13 21H6C3.79086 21 2 19.2091 2 17V12C2 7.02944 6.02944 3 11 3ZM15.4528 16.513C15.7361 16.8151 16.2108 16.8304 16.513 16.5472C16.8151 16.2639 16.8304 15.7892 16.5472 15.487C15.1962 14.046 13.6353 13.25 12 13.25C10.3647 13.25 8.8038 14.046 7.45284 15.487C7.16955 15.7892 7.18486 16.2639 7.48704 16.5472C7.78923 16.8304 8.26385 16.8151 8.54715 16.513C9.6962 15.2873 10.8853 14.75 12 14.75C13.1147 14.75 14.3038 15.2873 15.4528 16.513Z" fill="#28303F"/>
</svg>
