<svg width="24" height="24" viewBox="0 0 24 24" fill="none" xmlns="http://www.w3.org/2000/svg">
<path fill-rule="evenodd" clip-rule="evenodd" d="M2 7C2 4.79086 3.79086 3 6 3H18C20.2091 3 22 4.79086 22 7V17C22 19.2091 20.2091 21 18 21H6C3.79086 21 2 19.2091 2 17V7ZM14.25 14C14.25 13.5858 14.5858 13.25 15 13.25H18C18.4142 13.25 18.75 13.5858 18.75 14C18.75 14.4142 18.4142 14.75 18 14.75H15C14.5858 14.75 14.25 14.4142 14.25 14ZM14.25 17C14.25 16.5858 14.5858 16.25 15 16.25H18C18.4142 16.25 18.75 16.5858 18.75 17C18.75 17.4142 18.4142 17.75 18 17.75H15C14.5858 17.75 14.25 17.4142 14.25 17ZM8 7H10C11.1046 7 12 7.89543 12 9C12 10.1046 11.1046 11 10 11H8C6.89543 11 6 10.1046 6 9C6 7.89543 6.89543 7 8 7Z" fill="#28303F"/>
</svg>
