<svg width="24" height="24" viewBox="0 0 24 24" fill="none" xmlns="http://www.w3.org/2000/svg">
<path fill-rule="evenodd" clip-rule="evenodd" d="M6 3H18C20.2091 3 22 4.79086 22 7V17C22 19.2091 20.2091 21 18 21H10.5C9.94772 21 9.5 20.5523 9.5 20V16.5C9.5 14.2909 7.70914 12.5 5.5 12.5H3C2.44772 12.5 2 12.0523 2 11.5V7C2 4.79086 3.79086 3 6 3ZM6.41603 7.37592C6.07138 7.14616 5.60573 7.23929 5.37597 7.58393C5.1462 7.92858 5.23933 8.39423 5.58398 8.624L9.36518 11.1448C10.9607 12.2085 13.0393 12.2085 14.6348 11.1448L18.416 8.624C18.7607 8.39423 18.8538 7.92858 18.624 7.58393C18.3943 7.23929 17.9286 7.14616 17.584 7.37592L13.8028 9.89672C12.7111 10.6245 11.2889 10.6245 10.1972 9.89672L6.41603 7.37592ZM1.25 15C1.25 14.5858 1.58579 14.25 2 14.25H7C7.41421 14.25 7.75 14.5858 7.75 15C7.75 15.4142 7.41421 15.75 7 15.75H2C1.58579 15.75 1.25 15.4142 1.25 15ZM2 17.25C1.58579 17.25 1.25 17.5858 1.25 18C1.25 18.4142 1.58579 18.75 2 18.75H7C7.41421 18.75 7.75 18.4142 7.75 18C7.75 17.5858 7.41421 17.25 7 17.25H2Z" fill="#28303F"/>
</svg>
