<svg width="24" height="24" viewBox="0 0 24 24" fill="none" xmlns="http://www.w3.org/2000/svg">
<path fill-rule="evenodd" clip-rule="evenodd" d="M18.5303 5.46967L19.25 6.18934V2C19.25 1.58579 19.5858 1.25 20 1.25C20.4142 1.25 20.75 1.58579 20.75 2V6.18934L21.4697 5.46967C21.7626 5.17678 22.2374 5.17678 22.5303 5.46967C22.8232 5.76256 22.8232 6.23744 22.5303 6.53033L21.2374 7.82322C20.554 8.50664 19.446 8.50664 18.7626 7.82322L17.4697 6.53033C17.1768 6.23744 17.1768 5.76256 17.4697 5.46967C17.7626 5.17678 18.2374 5.17678 18.5303 5.46967ZM2 11C2 9.34312 3.34315 7.99997 5 7.99997H15C16.6569 7.99997 18 9.34312 18 11V19C18 20.6568 16.6569 22 15 22H5C3.34315 22 2 20.6568 2 19V11ZM5.40001 12.55C5.64854 12.2186 6.11864 12.1515 6.45001 12.4L8.65001 14.05C9.45001 14.65 10.55 14.65 11.35 14.05L13.55 12.4C13.8814 12.1515 14.3515 12.2186 14.6 12.55C14.8485 12.8814 14.7814 13.3515 14.45 13.6L12.25 15.25C10.9167 16.25 9.08335 16.25 7.75001 15.25L5.55001 13.6C5.21864 13.3515 5.15149 12.8814 5.40001 12.55Z" fill="#28303F"/>
</svg>
