<svg width="24" height="24" viewBox="0 0 24 24" fill="none" xmlns="http://www.w3.org/2000/svg">
<path fill-rule="evenodd" clip-rule="evenodd" d="M20 2.25C20.4142 2.25 20.75 2.58579 20.75 3V4.25L22 4.25C22.4142 4.25 22.75 4.58579 22.75 5C22.75 5.41421 22.4142 5.75 22 5.75H20.75V7C20.75 7.41421 20.4142 7.75 20 7.75C19.5858 7.75 19.25 7.41421 19.25 7V5.75H18C17.5858 5.75 17.25 5.41421 17.25 5C17.25 4.58579 17.5858 4.25 18 4.25L19.25 4.25V3C19.25 2.58579 19.5858 2.25 20 2.25ZM2 10C2 8.34315 3.34315 7 5 7H15C16.6569 7 18 8.34315 18 10V18C18 19.6569 16.6569 21 15 21H5C3.34315 21 2 19.6569 2 18V10ZM5.4 11.55C5.64853 11.2187 6.11863 11.1515 6.45 11.4L9.25 13.5C9.69444 13.8334 10.3056 13.8334 10.75 13.5L13.55 11.4C13.8814 11.1515 14.3515 11.2187 14.6 11.55C14.8485 11.8814 14.7814 12.3515 14.45 12.6L11.65 14.7C10.6722 15.4334 9.32778 15.4334 8.35 14.7L5.55 12.6C5.21863 12.3515 5.15147 11.8814 5.4 11.55Z" fill="#28303F"/>
</svg>
