<svg width="24" height="24" viewBox="0 0 24 24" fill="none" xmlns="http://www.w3.org/2000/svg">
<path fill-rule="evenodd" clip-rule="evenodd" d="M1.46967 1.46967C1.76256 1.17678 2.23744 1.17678 2.53033 1.46967L22.5303 21.4697C22.8232 21.7626 22.8232 22.2374 22.5303 22.5303C22.2374 22.8232 21.7626 22.8232 21.4697 22.5303L19.6045 20.6652C19.1133 20.8805 18.5706 21 18 21H6C3.79086 21 2 19.2091 2 17V6.99996C2 5.91082 2.43529 4.92336 3.14138 4.20204L1.46967 2.53033C1.17678 2.23744 1.17678 1.76256 1.46967 1.46967ZM22 17V7C22 4.79086 20.2091 3 18 3H7L13.8591 9.85914L17.584 7.37592C17.9286 7.14616 18.3943 7.23929 18.624 7.58393C18.8538 7.92858 18.7607 8.39423 18.416 8.624L14.9408 10.9408L21.8987 17.8987C21.965 17.6098 22 17.309 22 17Z" fill="#28303F"/>
</svg>
