<svg width="24" height="24" viewBox="0 0 24 24" fill="none" xmlns="http://www.w3.org/2000/svg">
<path fill-rule="evenodd" clip-rule="evenodd" d="M18.5303 2.53033L17.8106 3.25L22 3.25C22.4142 3.25 22.75 3.58579 22.75 4C22.75 4.41421 22.4142 4.75 22 4.75L17.8106 4.75L18.5303 5.46967C18.8232 5.76256 18.8232 6.23744 18.5303 6.53033C18.2374 6.82322 17.7625 6.82322 17.4696 6.53033L16.1767 5.23744C15.4933 4.55402 15.4933 3.44598 16.1767 2.76256L17.4696 1.46967C17.7625 1.17678 18.2374 1.17678 18.5303 1.46967C18.8232 1.76256 18.8232 2.23744 18.5303 2.53033ZM2 11C2 9.34315 3.34315 8 5 8H15C16.6569 8 18 9.34315 18 11V19C18 20.6569 16.6569 22 15 22H5C3.34315 22 2 20.6569 2 19V11ZM5.4 12.55C5.64853 12.2187 6.11863 12.1515 6.45 12.4L8.65 14.05C9.45 14.65 10.55 14.65 11.35 14.05L13.55 12.4C13.8814 12.1515 14.3515 12.2187 14.6 12.55C14.8485 12.8814 14.7814 13.3515 14.45 13.6L12.25 15.25C10.9167 16.25 9.08333 16.25 7.75 15.25L5.55 13.6C5.21863 13.3515 5.15147 12.8814 5.4 12.55Z" fill="#28303F"/>
</svg>
