<svg width="24" height="24" viewBox="0 0 24 24" fill="none" xmlns="http://www.w3.org/2000/svg">
<path fill-rule="evenodd" clip-rule="evenodd" d="M21.2374 2.17663C20.554 1.49321 19.446 1.49321 18.7626 2.17663L17.4697 3.46952C17.1768 3.76241 17.1768 4.23729 17.4697 4.53018C17.7626 4.82307 18.2374 4.82307 18.5303 4.53018L19.25 3.81051V7.99985C19.25 8.41406 19.5858 8.74985 20 8.74985C20.4142 8.74985 20.75 8.41406 20.75 7.99985V3.81051L21.4697 4.53018C21.7626 4.82307 22.2374 4.82307 22.5303 4.53018C22.8232 4.23729 22.8232 3.76241 22.5303 3.46952L21.2374 2.17663ZM2 10.9999C2 9.34302 3.34315 7.99988 5 7.99988H15C16.6569 7.99988 18 9.34302 18 10.9999V18.9999C18 20.6567 16.6569 21.9999 15 21.9999H5C3.34315 21.9999 2 20.6567 2 18.9999V10.9999ZM5.40001 12.5498C5.64854 12.2184 6.11864 12.1513 6.45001 12.3998L8.65001 14.0498C9.45001 14.6498 10.55 14.6498 11.35 14.0498L13.55 12.3998C13.8814 12.1513 14.3515 12.2184 14.6 12.5498C14.8485 12.8812 14.7814 13.3513 14.45 13.5998L12.25 15.2498C10.9167 16.2498 9.08335 16.2498 7.75001 15.2498L5.55001 13.5998C5.21864 13.3513 5.15149 12.8812 5.40001 12.5498Z" fill="#28303F"/>
</svg>
