<svg width="24" height="24" viewBox="0 0 24 24" fill="none" xmlns="http://www.w3.org/2000/svg">
<path fill-rule="evenodd" clip-rule="evenodd" d="M15.6458 4H6C3.79086 4 2 5.79086 2 8V18C2 20.2091 3.79086 22 6 22H18C20.2091 22 22 20.2091 22 18V10.3542C21.2039 11.0667 20.1525 11.5 19 11.5C16.5147 11.5 14.5 9.48528 14.5 7C14.5 5.84747 14.9333 4.79613 15.6458 4ZM5.37597 8.58393C5.60573 8.23929 6.07138 8.14616 6.41603 8.37592L10.1972 10.8967C11.2889 11.6245 12.7111 11.6245 13.8028 10.8967L14.2931 10.5698C14.6378 10.34 15.1034 10.4332 15.3332 10.7778C15.563 11.1225 15.4698 11.5881 15.1252 11.8179L14.6348 12.1448C13.0393 13.2085 10.9607 13.2085 9.36518 12.1448L5.58398 9.624C5.23933 9.39423 5.1462 8.92858 5.37597 8.58393ZM19 10C20.6569 10 22 8.65685 22 7C22 5.34315 20.6569 4 19 4C17.3431 4 16 5.34315 16 7C16 8.65685 17.3431 10 19 10Z" fill="#28303F"/>
</svg>
