<svg width="24" height="24" viewBox="0 0 24 24" fill="none" xmlns="http://www.w3.org/2000/svg">
<path fill-rule="evenodd" clip-rule="evenodd" d="M22 6C22 6.83354 21.745 7.60754 21.3089 8.24825L15.7517 2.69115C16.3925 2.25496 17.1665 2 18 2C20.2091 2 22 3.79086 22 6ZM18 10C18.8335 10 19.6075 9.74506 20.2482 9.3089L14.6911 3.75182C14.2549 4.39252 14 5.16649 14 6C14 8.20914 15.7909 10 18 10ZM18 11.5V19C18 20.6569 16.6569 22 15 22H5C3.34315 22 2 20.6569 2 19V11C2 9.34315 3.34315 8 5 8H12.8749C13.675 10.0487 15.668 11.5 18 11.5ZM5.15001 12.55C5.39854 12.2187 5.86864 12.1515 6.20001 12.4L8.40001 14.05C9.20001 14.65 10.3 14.65 11.1 14.05L13.3 12.4C13.6314 12.1515 14.1015 12.2187 14.35 12.55C14.5985 12.8814 14.5314 13.3515 14.2 13.6L12 15.25C10.6667 16.25 8.83335 16.25 7.50001 15.25L5.30001 13.6C4.96864 13.3515 4.90149 12.8814 5.15001 12.55Z" fill="#28303F"/>
</svg>
