<svg width="24" height="24" viewBox="0 0 24 24" fill="none" xmlns="http://www.w3.org/2000/svg">
<path fill-rule="evenodd" clip-rule="evenodd" d="M18.0001 3.75C17.3097 3.75 16.7501 4.30964 16.7501 5V6.05588C19.1557 6.41774 21.0001 8.49348 21.0001 11V16C21.0001 17.5816 20.0822 18.9487 18.7501 19.5979V21C18.7501 21.4142 18.4143 21.75 18.0001 21.75C17.5859 21.75 17.2501 21.4142 17.2501 21V19.9923C17.1674 19.9974 17.084 20 17.0001 20H15.7501V21C15.7501 21.4142 15.4143 21.75 15.0001 21.75C14.5859 21.75 14.2501 21.4142 14.2501 21V20H13.2581C14.1513 19.1278 14.7001 17.9452 14.7001 16.6429V10.5714C14.7001 8.74833 13.8398 7.11291 12.4778 6H15.2501V5C15.2501 3.48122 16.4813 2.25 18.0001 2.25H19.0001C19.4143 2.25 19.7501 2.58579 19.7501 3C19.7501 3.41421 19.4143 3.75 19.0001 3.75H18.0001ZM13 11V16C13 18.2091 11.2091 20 9 20H7C4.79086 20 3 18.2091 3 16V11C3 8.23858 5.23858 6 8 6C10.7614 6 13 8.23858 13 11Z" fill="#28303F"/>
</svg>
