<svg width="24" height="24" viewBox="0 0 24 24" fill="none" xmlns="http://www.w3.org/2000/svg">
<path fill-rule="evenodd" clip-rule="evenodd" d="M19.5303 2.46967C19.2374 2.17678 18.7626 2.17678 18.4697 2.46967C18.1768 2.76256 18.1768 3.23744 18.4697 3.53033L19.4393 4.5L18.4697 5.46967C18.1768 5.76257 18.1768 6.23744 18.4697 6.53033C18.7626 6.82323 19.2374 6.82323 19.5303 6.53033L20.5 5.56066L21.4697 6.53033C21.7626 6.82322 22.2374 6.82322 22.5303 6.53033C22.8232 6.23743 22.8232 5.76256 22.5303 5.46967L21.5607 4.5L22.5303 3.53034C22.8232 3.23744 22.8232 2.76257 22.5303 2.46968C22.2374 2.17678 21.7626 2.17678 21.4697 2.46968L20.5 3.43934L19.5303 2.46967ZM2 10C2 8.34315 3.34315 7 5 7H15C16.6569 7 18 8.34315 18 10V18C18 19.6569 16.6569 21 15 21H5C3.34315 21 2 19.6569 2 18V10ZM5.4 11.55C5.64853 11.2187 6.11863 11.1515 6.45 11.4L8.65 13.05C9.45 13.65 10.55 13.65 11.35 13.05L13.55 11.4C13.8814 11.1515 14.3515 11.2187 14.6 11.55C14.8485 11.8814 14.7814 12.3515 14.45 12.6L12.25 14.25C10.9167 15.25 9.08333 15.25 7.75 14.25L5.55 12.6C5.21863 12.3515 5.15147 11.8814 5.4 11.55Z" fill="#28303F"/>
</svg>
