<svg width="24" height="24" viewBox="0 0 24 24" fill="none" xmlns="http://www.w3.org/2000/svg">
<path fill-rule="evenodd" clip-rule="evenodd" d="M18.2191 7.02391L16.365 4.70626C16.1287 4.41091 16 4.04394 16 3.6657V3.59099C16 2.71231 16.7123 2 17.591 2C18.0129 2 18.4176 2.16762 18.716 2.46599L19 2.75L19.284 2.46599C19.5824 2.16762 19.9871 2 20.409 2C21.2877 2 22 2.71231 22 3.59099V3.6657C22 4.04394 21.8713 4.41091 21.635 4.70626L19.7809 7.02391C19.3805 7.52432 18.6195 7.52432 18.2191 7.02391ZM2 11C2 9.34315 3.34315 8 5 8H15C16.6569 8 18 9.34315 18 11V19C18 20.6569 16.6569 22 15 22H5C3.34315 22 2 20.6569 2 19V11ZM5.4 12.55C5.64853 12.2187 6.11863 12.1515 6.45 12.4L8.65 14.05C9.45 14.65 10.55 14.65 11.35 14.05L13.55 12.4C13.8814 12.1515 14.3515 12.2187 14.6 12.55C14.8485 12.8814 14.7814 13.3515 14.45 13.6L12.25 15.25C10.9167 16.25 9.08333 16.25 7.75 15.25L5.55 13.6C5.21863 13.3515 5.15147 12.8814 5.4 12.55Z" fill="#28303F"/>
</svg>
