<svg width="24" height="24" viewBox="0 0 24 24" fill="none" xmlns="http://www.w3.org/2000/svg">
<path fill-rule="evenodd" clip-rule="evenodd" d="M22 4.75C22.4142 4.75 22.75 4.41421 22.75 4C22.75 3.58579 22.4142 3.25 22 3.25H18C17.5858 3.25 17.25 3.58579 17.25 4C17.25 4.41421 17.5858 4.75 18 4.75L22 4.75ZM2 9C2 7.34315 3.34315 6 5 6H15C16.6569 6 18 7.34315 18 9V17C18 18.6569 16.6569 20 15 20H5C3.34315 20 2 18.6569 2 17V9ZM5.4 10.55C5.64853 10.2187 6.11863 10.1515 6.45 10.4L8.65 12.05C9.45 12.65 10.55 12.65 11.35 12.05L13.55 10.4C13.8814 10.1515 14.3515 10.2187 14.6 10.55C14.8485 10.8814 14.7814 11.3515 14.45 11.6L12.25 13.25C10.9167 14.25 9.08333 14.25 7.75 13.25L5.55 11.6C5.21863 11.3515 5.15147 10.8814 5.4 10.55Z" fill="#28303F"/>
</svg>
