<svg width="24" height="24" viewBox="0 0 24 24" fill="none" xmlns="http://www.w3.org/2000/svg">
<path fill-rule="evenodd" clip-rule="evenodd" d="M9.45352 4.26033L20.6842 9.87225C22.4386 10.7489 22.4386 13.2511 20.6842 14.1278L9.45352 19.7397C7.45607 20.7378 5.30682 18.6853 6.21382 16.6458L7.85018 12.9662C7.88175 12.8952 7.90967 12.823 7.93396 12.75L12 12.75C12.4142 12.75 12.75 12.4142 12.75 12C12.75 11.5858 12.4142 11.25 12 11.25L7.93396 11.25C7.90967 11.177 7.88175 11.1048 7.85018 11.0338L6.21382 7.35425C5.30682 5.31474 7.45607 3.26221 9.45352 4.26033ZM1.25 10C1.25 9.58579 1.58579 9.25 2 9.25H4C4.41421 9.25 4.75 9.58579 4.75 10C4.75 10.4142 4.41421 10.75 4 10.75H2C1.58579 10.75 1.25 10.4142 1.25 10ZM2 13.25C1.58579 13.25 1.25 13.5858 1.25 14C1.25 14.4142 1.58579 14.75 2 14.75H4C4.41421 14.75 4.75 14.4142 4.75 14C4.75 13.5858 4.41421 13.25 4 13.25H2Z" fill="#28303F"/>
</svg>
