<svg width="24" height="24" viewBox="0 0 24 24" fill="none" xmlns="http://www.w3.org/2000/svg">
<path fill-rule="evenodd" clip-rule="evenodd" d="M20.6775 3.25C21.0917 3.25 21.4275 3.58579 21.4275 4V20C21.4275 20.4142 21.0917 20.75 20.6775 20.75C20.2633 20.75 19.9275 20.4142 19.9275 20V4C19.9275 3.58579 20.2633 3.25 20.6775 3.25ZM16.6775 6.25C17.0917 6.25 17.4275 6.58579 17.4275 7V20C17.4275 20.4142 17.0917 20.75 16.6775 20.75C16.2633 20.75 15.9275 20.4142 15.9275 20V7C15.9275 6.58579 16.2633 6.25 16.6775 6.25ZM13.4275 10C13.4275 9.58579 13.0917 9.25 12.6775 9.25C12.2633 9.25 11.9275 9.58579 11.9275 10V20C11.9275 20.4142 12.2633 20.75 12.6775 20.75C13.0917 20.75 13.4275 20.4142 13.4275 20V10ZM8.67749 12.25C9.0917 12.25 9.42749 12.5858 9.42749 13V20C9.42749 20.4142 9.0917 20.75 8.67749 20.75C8.26328 20.75 7.92749 20.4142 7.92749 20V13C7.92749 12.5858 8.26328 12.25 8.67749 12.25ZM2.59065 11.592L3.92752 13.2631V20C3.92752 20.4142 4.2633 20.75 4.67752 20.75C5.09173 20.75 5.42752 20.4142 5.42752 20V13.2631L6.76439 11.592C8.16427 9.84214 6.91842 7.25 4.67752 7.25C2.43661 7.25 1.19076 9.84214 2.59065 11.592Z" fill="#28303F"/>
</svg>
