<svg width="24" height="24" viewBox="0 0 24 24" fill="none" xmlns="http://www.w3.org/2000/svg">
<path fill-rule="evenodd" clip-rule="evenodd" d="M17 2.75C14.6528 2.75 12.75 4.65279 12.75 7C12.75 9.34721 14.6528 11.25 17 11.25C17.9495 11.25 18.8262 10.9386 19.5338 10.4125C19.5447 10.4038 19.5557 10.3955 19.567 10.3875C20.5896 9.61135 21.25 8.3828 21.25 7C21.25 4.65279 19.3472 2.75 17 2.75ZM20.4924 11.5683C21.8649 10.5174 22.75 8.86209 22.75 7C22.75 3.82436 20.1756 1.25 17 1.25C13.8244 1.25 11.25 3.82436 11.25 7C11.25 10.1756 13.8244 12.75 17 12.75C17.0644 12.75 17.1286 12.7489 17.1925 12.7468L12.7468 17.1925C12.7489 17.1286 12.75 17.0644 12.75 17C12.75 13.8244 10.1756 11.25 7 11.25C3.82436 11.25 1.25 13.8244 1.25 17C1.25 20.1756 3.82436 22.75 7 22.75C8.86208 22.75 10.5174 21.8649 11.5683 20.4924L20.4924 11.5683ZM10.4124 19.5338C10.4038 19.5447 10.3955 19.5557 10.3875 19.567C9.61137 20.5896 8.38281 21.25 7 21.25C4.65279 21.25 2.75 19.3472 2.75 17C2.75 14.6528 4.65279 12.75 7 12.75C9.34721 12.75 11.25 14.6528 11.25 17C11.25 17.9495 10.9386 18.8263 10.4124 19.5338Z" fill="#28303F"/>
</svg>
