<svg width="24" height="24" viewBox="0 0 24 24" fill="none" xmlns="http://www.w3.org/2000/svg">
<path fill-rule="evenodd" clip-rule="evenodd" d="M3 2.25C2.58579 2.25 2.25 2.58579 2.25 3C2.25 3.41421 2.58579 3.75 3 3.75H4C12.9746 3.75 20.25 11.0254 20.25 20V21C20.25 21.4142 20.5858 21.75 21 21.75C21.4142 21.75 21.75 21.4142 21.75 21V20C21.75 10.1969 13.8031 2.25 4 2.25H3ZM2.25 7C2.25 6.58579 2.58579 6.25 3 6.25H4C11.5939 6.25 17.75 12.4061 17.75 20V21C17.75 21.4142 17.4142 21.75 17 21.75C16.5858 21.75 16.25 21.4142 16.25 21V20C16.25 13.2345 10.7655 7.75 4 7.75H3C2.58579 7.75 2.25 7.41421 2.25 7ZM3 10.25C2.58579 10.25 2.25 10.5858 2.25 11C2.25 11.4142 2.58579 11.75 3 11.75H4C8.55635 11.75 12.25 15.4437 12.25 20V21C12.25 21.4142 12.5858 21.75 13 21.75C13.4142 21.75 13.75 21.4142 13.75 21V20C13.75 14.6152 9.38478 10.25 4 10.25H3ZM5.5 21C6.88071 21 8 19.8807 8 18.5C8 17.1193 6.88071 16 5.5 16C4.11929 16 3 17.1193 3 18.5C3 19.8807 4.11929 21 5.5 21Z" fill="#28303F"/>
</svg>
