<svg width="24" height="24" viewBox="0 0 24 24" fill="none" xmlns="http://www.w3.org/2000/svg">
<path opacity="0.4" d="M20 19V9C20 8.44772 19.5523 8 19 8H5C4.44772 8 4 8.44772 4 9V19C4 20.6569 5.34315 22 7 22H17C18.6569 22 20 20.6569 20 19Z" fill="#28303F"/>
<path d="M12 8H19.5C19.8148 8 20.1111 8.14819 20.3 8.4L21.8 10.4C22.2944 11.0592 21.824 12 21 12H15.5C15.1852 12 14.8889 11.8518 14.7 11.6L12 8Z" fill="#28303F"/>
<path d="M12 8H4.5C4.18524 8 3.88885 8.14819 3.7 8.4L2.2 10.4C1.70557 11.0592 2.17595 12 3 12H8.5C8.81476 12 9.11115 11.8518 9.3 11.6L12 8Z" fill="#28303F"/>
<path fill-rule="evenodd" clip-rule="evenodd" d="M11.25 4.18925L10.5303 3.46958C10.2374 3.17668 9.76256 3.17668 9.46967 3.46958C9.17678 3.76247 9.17678 4.23734 9.46967 4.53024L10.7626 5.82313C11.446 6.50655 12.554 6.50655 13.2374 5.82313L14.5303 4.53024C14.8232 4.23734 14.8232 3.76247 14.5303 3.46958C14.2374 3.17668 13.7626 3.17668 13.4697 3.46958L12.75 4.18925V1.99991C12.75 1.58569 12.4142 1.24991 12 1.24991C11.5858 1.24991 11.25 1.58569 11.25 1.99991V4.18925Z" fill="#28303F"/>
</svg>
