<svg width="24" height="24" viewBox="0 0 24 24" fill="none" xmlns="http://www.w3.org/2000/svg">
<path d="M16.6842 20.3065L14.7975 17.7418C14.5352 17.3853 14.3953 16.9663 14.3953 16.5377V4.39522C14.3953 3.07237 13.3229 2 12 2C10.6772 2 9.60483 3.07237 9.60483 4.39522V16.5377C9.60483 16.9663 9.46485 17.3853 9.20255 17.7418L7.31591 20.3065C6.63468 21.2326 7.74952 22.3771 8.84796 21.8794L10.9289 20.9364C11.6032 20.6309 12.3969 20.6309 13.0712 20.9364L15.1521 21.8794C16.2506 22.3771 17.3654 21.2326 16.6842 20.3065Z" fill="#28303F"/>
<g opacity="0.4">
<path d="M8.47903 8.06439L3.565 10.8478C2.54467 11.4257 2.99651 12.8535 4.19974 12.8535H8.40718C9.0686 12.8535 9.60478 13.3395 9.60478 13.9389V6.22363C9.60478 6.97207 9.17935 7.66772 8.47903 8.06439Z" fill="#28303F"/>
<path d="M20.435 10.8478L15.521 8.06439C14.8207 7.66772 14.3952 6.97207 14.3952 6.22363V13.9389C14.3952 13.3395 14.9314 12.8535 15.5928 12.8535H19.8003C21.0035 12.8535 21.4553 11.4257 20.435 10.8478Z" fill="#28303F"/>
</g>
</svg>
