<svg width="24" height="24" viewBox="0 0 24 24" fill="none" xmlns="http://www.w3.org/2000/svg">
<path opacity="0.4" d="M2 6C2 3.79086 3.79086 2 6 2H18C20.2091 2 22 3.79086 22 6V18C22 20.2091 20.2091 22 18 22H6C3.79086 22 2 20.2091 2 18V6Z" fill="#28303F"/>
<path d="M8 2H16V9.58579C16 10.4767 14.9229 10.9229 14.2929 10.2929L12.7071 8.70711C12.3166 8.31658 11.6834 8.31658 11.2929 8.70711L9.70711 10.2929C9.07714 10.9229 8 10.4767 8 9.58579V2Z" fill="#28303F"/>
<path fill-rule="evenodd" clip-rule="evenodd" d="M18 22C20.2091 22 22 20.2091 22 18C22 15.7909 20.2091 14 18 14C15.7909 14 14 15.7909 14 18C14 20.2091 15.7909 22 18 22ZM18.75 16.5C18.75 16.0858 18.4142 15.75 18 15.75C17.5858 15.75 17.25 16.0858 17.25 16.5V18C17.25 18.4142 17.5858 18.75 18 18.75H19C19.4142 18.75 19.75 18.4142 19.75 18C19.75 17.5858 19.4142 17.25 19 17.25H18.75V16.5Z" fill="#28303F"/>
</svg>
