<svg width="24" height="24" viewBox="0 0 24 24" fill="none" xmlns="http://www.w3.org/2000/svg">
<path opacity="0.4" d="M2 6C2 3.79086 3.79086 2 6 2H18C20.2091 2 22 3.79086 22 6V18C22 20.2091 20.2091 22 18 22H6C3.79086 22 2 20.2091 2 18V6Z" fill="#28303F"/>
<path d="M8 2H16V9.58579C16 10.4767 14.9229 10.9229 14.2929 10.2929L12.7071 8.70711C12.3166 8.31658 11.6834 8.31658 11.2929 8.70711L9.70711 10.2929C9.07714 10.9229 8 10.4767 8 9.58579V2Z" fill="#28303F"/>
<path fill-rule="evenodd" clip-rule="evenodd" d="M19.25 17.3964L18.5303 18.1161C18.2374 18.409 17.7626 18.409 17.4697 18.1161C17.1768 17.8232 17.1768 17.3483 17.4697 17.0555L18.7626 15.7626C19.446 15.0791 20.554 15.0791 21.2374 15.7626L22.5303 17.0555C22.8232 17.3483 22.8232 17.8232 22.5303 18.1161C22.2374 18.409 21.7626 18.409 21.4697 18.1161L20.75 17.3964V22C20.75 22.4142 20.4142 22.75 20 22.75C19.5858 22.75 19.25 22.4142 19.25 22V17.3964Z" fill="#28303F"/>
</svg>
