<svg width="24" height="24" viewBox="0 0 24 24" fill="none" xmlns="http://www.w3.org/2000/svg">
<path opacity="0.4" d="M2 6C2 3.79086 3.79086 2 6 2H18C20.2091 2 22 3.79086 22 6V18C22 20.2091 20.2091 22 18 22H6C3.79086 22 2 20.2091 2 18V6Z" fill="#28303F"/>
<path d="M8 2H16V9.58579C16 10.4767 14.9229 10.9229 14.2929 10.2929L12.7071 8.70711C12.3166 8.31658 11.6834 8.31658 11.2929 8.70711L9.70711 10.2929C9.07714 10.9229 8 10.4767 8 9.58579V2Z" fill="#28303F"/>
<path fill-rule="evenodd" clip-rule="evenodd" d="M16.3484 16.3483C16.6413 16.0554 17.1161 16.0554 17.409 16.3483L19 17.9393L20.591 16.3483C20.8839 16.0554 21.3587 16.0554 21.6516 16.3483C21.9445 16.6412 21.9445 17.1161 21.6516 17.409L20.0607 19L21.6517 20.591C21.9446 20.8839 21.9446 21.3587 21.6517 21.6516C21.3588 21.9445 20.8839 21.9445 20.591 21.6516L19 20.0606L17.409 21.6516C17.1161 21.9445 16.6412 21.9445 16.3483 21.6516C16.0554 21.3587 16.0554 20.8839 16.3483 20.591L17.9393 19L16.3484 17.409C16.0555 17.1161 16.0555 16.6412 16.3484 16.3483Z" fill="#28303F"/>
</svg>
