<svg width="24" height="24" viewBox="0 0 24 24" fill="none" xmlns="http://www.w3.org/2000/svg">
<path opacity="0.4" d="M2 6C2 3.79086 3.79086 2 6 2H18C20.2091 2 22 3.79086 22 6V18C22 20.2091 20.2091 22 18 22H6C3.79086 22 2 20.2091 2 18V6Z" fill="#28303F"/>
<path d="M8 2H16V9.58579C16 10.4767 14.9229 10.9229 14.2929 10.2929L12.7071 8.70711C12.3166 8.31658 11.6834 8.31658 11.2929 8.70711L9.70711 10.2929C9.07714 10.9229 8 10.4767 8 9.58579V2Z" fill="#28303F"/>
<path fill-rule="evenodd" clip-rule="evenodd" d="M19.25 20.6036L18.5303 19.8839C18.2374 19.591 17.7626 19.591 17.4697 19.8839C17.1768 20.1768 17.1768 20.6517 17.4697 20.9445L18.7626 22.2374C19.446 22.9209 20.554 22.9209 21.2374 22.2374L22.5303 20.9445C22.8232 20.6517 22.8232 20.1768 22.5303 19.8839C22.2374 19.591 21.7626 19.591 21.4697 19.8839L20.75 20.6036V16C20.75 15.5858 20.4142 15.25 20 15.25C19.5858 15.25 19.25 15.5858 19.25 16V20.6036Z" fill="#28303F"/>
</svg>
