<svg width="24" height="24" viewBox="0 0 24 24" fill="none" xmlns="http://www.w3.org/2000/svg">
<path opacity="0.4" d="M2 6C2 3.79086 3.79086 2 6 2H18C20.2091 2 22 3.79086 22 6V18C22 20.2091 20.2091 22 18 22H6C3.79086 22 2 20.2091 2 18V6Z" fill="#28303F"/>
<path d="M8 2H16V9.58579C16 10.4767 14.9229 10.9229 14.2929 10.2929L12.7071 8.70711C12.3166 8.31658 11.6834 8.31658 11.2929 8.70711L9.70711 10.2929C9.07714 10.9229 8 10.4767 8 9.58579V2Z" fill="#28303F"/>
<path fill-rule="evenodd" clip-rule="evenodd" d="M22.75 19C22.75 19.4142 22.4142 19.75 22 19.75L16 19.75C15.5858 19.75 15.25 19.4142 15.25 19C15.25 18.5858 15.5858 18.25 16 18.25L22 18.25C22.4142 18.25 22.75 18.5858 22.75 19Z" fill="#28303F"/>
</svg>
