<svg width="24" height="24" viewBox="0 0 24 24" fill="none" xmlns="http://www.w3.org/2000/svg">
<path opacity="0.4" d="M2 6C2 3.79086 3.79086 2 6 2H18C20.2091 2 22 3.79086 22 6V18C22 20.2091 20.2091 22 18 22H6C3.79086 22 2 20.2091 2 18V6Z" fill="#28303F"/>
<path d="M8 2H16V9.58579C16 10.4767 14.9229 10.9229 14.2929 10.2929L12.7071 8.70711C12.3166 8.31658 11.6834 8.31658 11.2929 8.70711L9.70711 10.2929C9.07714 10.9229 8 10.4767 8 9.58579V2Z" fill="#28303F"/>
<path d="M18.2651 16.7348L17.9999 17L17.7348 16.7348C17.0025 16.0026 15.8153 16.0026 15.0831 16.7348C14.3509 17.4671 14.3509 18.6543 15.0831 19.3865L16.9393 21.2426C17.5251 21.8284 18.4748 21.8284 19.0606 21.2426L20.9167 19.3865C21.649 18.6543 21.649 17.4671 20.9167 16.7348C20.1845 16.0026 18.9973 16.0026 18.2651 16.7348Z" fill="#28303F"/>
</svg>
