<svg width="24" height="24" viewBox="0 0 24 24" fill="none" xmlns="http://www.w3.org/2000/svg">
<path opacity="0.4" d="M2 6C2 3.79086 3.79086 2 6 2H18C20.2091 2 22 3.79086 22 6V18C22 20.2091 20.2091 22 18 22H6C3.79086 22 2 20.2091 2 18V6Z" fill="#28303F"/>
<path d="M8 2H16V9.58579C16 10.4767 14.9229 10.9229 14.2929 10.2929L12.7071 8.70711C12.3166 8.31658 11.6834 8.31658 11.2929 8.70711L9.70711 10.2929C9.07714 10.9229 8 10.4767 8 9.58579V2Z" fill="#28303F"/>
<path fill-rule="evenodd" clip-rule="evenodd" d="M21.4939 17.4356C21.8056 17.7083 21.8372 18.1822 21.5645 18.4939L18.6946 21.7738C18.0779 22.4786 17.0156 22.5729 16.2843 21.9879L14.5315 20.5857C14.2081 20.3269 14.1556 19.8549 14.4144 19.5315C14.6731 19.208 15.1451 19.1556 15.4685 19.4144L17.2214 20.8166C17.3258 20.9002 17.4776 20.8867 17.5657 20.786L20.4356 17.5061C20.7084 17.1944 21.1822 17.1628 21.4939 17.4356Z" fill="#28303F"/>
</svg>
