<svg width="24" height="24" viewBox="0 0 24 24" fill="none" xmlns="http://www.w3.org/2000/svg">
<path fill-rule="evenodd" clip-rule="evenodd" d="M12 1.25C12.4142 1.25 12.75 1.58579 12.75 2V3.64872L18.4802 8.42383C18.7984 8.68901 18.8414 9.16193 18.5762 9.48014C18.311 9.79835 17.8381 9.84134 17.5199 9.57617L12 4.97628L6.48016 9.57617C6.16195 9.84134 5.68903 9.79835 5.42385 9.48014C5.15868 9.16193 5.20167 8.68901 5.51988 8.42383L11.25 3.64872V2C11.25 1.58579 11.5858 1.25 12 1.25Z" fill="#28303F"/>
<path opacity="0.4" d="M2 12C2 9.79086 3.79086 8 6 8H18C20.2091 8 22 9.79086 22 12V18C22 20.2091 20.2091 22 18 22H6C3.79086 22 2 20.2091 2 18V12Z" fill="#28303F"/>
<path fill-rule="evenodd" clip-rule="evenodd" d="M12 11.25C12.4142 11.25 12.75 11.5858 12.75 12L12.75 18C12.75 18.4142 12.4142 18.75 12 18.75C11.5858 18.75 11.25 18.4142 11.25 18L11.25 12C11.25 11.5858 11.5858 11.25 12 11.25Z" fill="#28303F"/>
<path fill-rule="evenodd" clip-rule="evenodd" d="M7 11.25C7.41421 11.25 7.75 11.5858 7.75 12L7.75 18C7.75 18.4142 7.41421 18.75 7 18.75C6.58579 18.75 6.25 18.4142 6.25 18L6.25 12C6.25 11.5858 6.58579 11.25 7 11.25Z" fill="#28303F"/>
<path fill-rule="evenodd" clip-rule="evenodd" d="M17 11.25C17.4142 11.25 17.75 11.5858 17.75 12L17.75 18C17.75 18.4142 17.4142 18.75 17 18.75C16.5858 18.75 16.25 18.4142 16.25 18L16.25 12C16.25 11.5858 16.5858 11.25 17 11.25Z" fill="#28303F"/>
</svg>
