<svg width="24" height="24" viewBox="0 0 24 24" fill="none" xmlns="http://www.w3.org/2000/svg">
<path fill-rule="evenodd" clip-rule="evenodd" d="M8 2H16C17.1046 2 18 2.89543 18 4V13H6V4C6 2.89543 6.89543 2 8 2ZM13 5.75C13.4142 5.75 13.75 5.41421 13.75 5C13.75 4.58579 13.4142 4.25 13 4.25H11C10.5858 4.25 10.25 4.58579 10.25 5C10.25 5.41421 10.5858 5.75 11 5.75H13Z" fill="#28303F"/>
<path opacity="0.4" d="M11.2352 9.15621L3.22438 12.5649C2.09197 13.0468 1.65272 14.4506 2.3017 15.5138L5.2581 20.6432C5.99218 20.4344 6.79726 20.5581 7.44494 21.0115C8.29985 21.6099 9.43098 21.6348 10.3114 21.0745L10.4966 20.9567C11.4105 20.3751 12.59 20.3933 13.4912 20.9942C14.3996 21.5997 15.5916 21.6055 16.5 21C16.9605 20.6929 17.4918 20.5416 18.0221 20.5459L21.6983 15.5138C22.3473 14.4506 21.908 13.0468 20.7756 12.5649L12.7648 9.15621C12.2753 8.94793 11.7247 8.94793 11.2352 9.15621Z" fill="#28303F"/>
<path fill-rule="evenodd" clip-rule="evenodd" d="M2.37604 22.4159C2.60581 22.7606 3.07146 22.8537 3.41611 22.624L4.94856 21.6023C5.57642 21.1837 6.39673 21.1931 7.01491 21.6258C8.1182 22.3981 9.57794 22.4302 10.7141 21.7072L10.8994 21.5893C11.5599 21.169 12.4184 21.1802 13.0753 21.6181C14.2328 22.3898 15.7531 22.3993 16.9161 21.6239C17.5725 21.1863 18.4276 21.1863 19.084 21.6239L20.584 22.6239C20.9287 22.8537 21.3943 22.7606 21.6241 22.4159C21.8538 22.0713 21.7607 21.6056 21.4161 21.3759L19.9161 20.3759C18.7558 19.6024 17.2443 19.6024 16.084 20.3759C15.4304 20.8116 14.5665 20.8095 13.9073 20.37C12.7617 19.6063 11.2612 19.5811 10.0941 20.3238L9.90882 20.4417C9.28418 20.8392 8.48166 20.8215 7.87512 20.397C6.75066 19.6098 5.25856 19.5929 4.11651 20.3542L2.58405 21.3759C2.23941 21.6056 2.14628 22.0713 2.37604 22.4159Z" fill="#28303F"/>
</svg>
