<svg width="24" height="24" viewBox="0 0 24 24" fill="none" xmlns="http://www.w3.org/2000/svg">
<path opacity="0.4" d="M10 3H6C3.79086 3 2 4.79086 2 7V15C2 16.8652 3.27667 18.4323 5.00384 18.875C5.06838 17.8286 5.93742 17 7 17C8.10457 17 9 17.8954 9 19H14V7C14 4.79086 12.2091 3 10 3Z" fill="#28303F"/>
<path d="M14 19V7H17.2091C17.7172 7 18.2063 7.1934 18.577 7.54093L21.3679 10.1574C21.7712 10.5355 22 11.0636 22 11.6165V17C22 18.1046 21.1046 19 20 19H14Z" fill="#28303F"/>
<path d="M9.5 19C9.5 20.3807 8.38071 21.5 7 21.5C5.61929 21.5 4.5 20.3807 4.5 19C4.5 18.9475 4.50162 18.8954 4.50481 18.8437C4.58548 17.5358 5.67178 16.5 7 16.5C8.38071 16.5 9.5 17.6193 9.5 19Z" fill="#28303F"/>
<path opacity="0.4" d="M20.4952 19C20.4952 20.3807 19.3759 21.5 17.9952 21.5C16.6145 21.5 15.4952 20.3807 15.4952 19C15.4952 18.9475 15.4968 18.8954 15.5 18.8437C15.5807 17.5358 16.667 16.5 17.9952 16.5C19.3759 16.5 20.4952 17.6193 20.4952 19Z" fill="#28303F"/>
<path fill-rule="evenodd" clip-rule="evenodd" d="M9.94469 8.05536C10.2376 8.34826 10.2376 8.82313 9.94469 9.11602L9.06081 9.99991L9.94469 10.8838C10.2376 11.1767 10.2376 11.6516 9.94469 11.9445C9.6518 12.2373 9.17693 12.2373 8.88403 11.9445L8.00015 11.0606L7.11627 11.9445C6.82337 12.2373 6.3485 12.2373 6.05561 11.9445C5.76271 11.6516 5.76271 11.1767 6.05561 10.8838L6.93949 9.99991L6.05561 9.11603C5.76271 8.82313 5.76271 8.34826 6.05561 8.05537C6.3485 7.76247 6.82337 7.76247 7.11627 8.05537L8.00015 8.93925L8.88403 8.05536C9.17693 7.76247 9.6518 7.76247 9.94469 8.05536Z" fill="#28303F"/>
</svg>
