<svg width="24" height="24" viewBox="0 0 24 24" fill="none" xmlns="http://www.w3.org/2000/svg">
<path opacity="0.4" d="M6 4C6 2.89543 6.89543 2 8 2H16C17.1046 2 18 2.89543 18 4V12C18 13.1046 17.1046 14 16 14H8C6.89543 14 6 13.1046 6 12V4Z" fill="#28303F"/>
<path fill-rule="evenodd" clip-rule="evenodd" d="M13.75 5C13.75 5.41421 13.4142 5.75 13 5.75L11 5.75C10.5858 5.75 10.25 5.41421 10.25 5C10.25 4.58579 10.5858 4.25 11 4.25L13 4.25C13.4142 4.25 13.75 4.58579 13.75 5Z" fill="#28303F"/>
<path d="M5.43409 15.8284L3.88418 14.3154C3.6773 14.1135 3.39671 14 3.10414 14C2.33392 14 1.80079 14.751 2.07124 15.455L3.58841 19.4045C4.18814 20.9657 5.71702 22 7.42506 22H20.5513C21.3514 22 22 21.3668 22 20.5858C22 20.2107 21.8474 19.851 21.5757 19.5858L20.127 18.1716C19.3585 17.4214 18.3163 17 17.2296 17H8.33149C7.24475 17 6.20252 16.5786 5.43409 15.8284Z" fill="#28303F"/>
</svg>
