<svg width="24" height="24" viewBox="0 0 24 24" fill="none" xmlns="http://www.w3.org/2000/svg">
<path opacity="0.4" fill-rule="evenodd" clip-rule="evenodd" d="M12.0001 5.25C12.4143 5.25 12.7501 5.58579 12.7501 6V12.4458C12.7501 12.86 12.4143 13.1958 12.0001 13.1958C11.5859 13.1958 11.2501 12.86 11.2501 12.4458V6C11.2501 5.58579 11.5859 5.25 12.0001 5.25ZM4.58405 6.37596C4.9287 6.1462 5.39435 6.23933 5.62412 6.58397L9.62412 12.584C9.85388 12.9286 9.76075 13.3943 9.4161 13.624C9.07146 13.8538 8.60581 13.7607 8.37604 13.416L4.37604 7.41603C4.14628 7.07138 4.23941 6.60573 4.58405 6.37596ZM19.4161 6.37596C19.7608 6.60573 19.8539 7.07138 19.6241 7.41603L15.6241 13.416C15.3944 13.7607 14.9287 13.8538 14.5841 13.624C14.2394 13.3943 14.1463 12.9286 14.376 12.584L18.376 6.58397C18.6058 6.23933 19.0715 6.1462 19.4161 6.37596Z" fill="#28303F"/>
<path d="M12 2C7.58172 2 4 4.68629 4 8C4 6.89543 5.79086 6 8 6C10.2091 6 12 6.89543 12 8C12 6.89543 13.7909 6 16 6C18.2091 6 19.883 6.97171 20 8C20 4.68629 16.4183 2 12 2Z" fill="#28303F"/>
<path fill-rule="evenodd" clip-rule="evenodd" d="M9 12C7.89543 12 7 12.8954 7 14V20C7 21.1046 7.89543 22 9 22H15C16.1046 22 17 21.1046 17 20V14C17 12.8954 16.1046 12 15 12H9ZM13 14.75C13.4142 14.75 13.75 14.4142 13.75 14C13.75 13.5858 13.4142 13.25 13 13.25L11 13.25C10.5858 13.25 10.25 13.5858 10.25 14C10.25 14.4142 10.5858 14.75 11 14.75L13 14.75Z" fill="#28303F"/>
</svg>
