<svg width="24" height="24" viewBox="0 0 24 24" fill="none" xmlns="http://www.w3.org/2000/svg">
<path opacity="0.4" d="M6 5C6 3.89543 6.89543 3 8 3H16C17.1046 3 18 3.89543 18 5V13C18 14.1046 17.1046 15 16 15H8C6.89543 15 6 14.1046 6 13V5Z" fill="#28303F"/>
<path fill-rule="evenodd" clip-rule="evenodd" d="M5 15C3.34315 15 2 16.3431 2 18C2 19.6569 3.34315 21 5 21H19C20.6569 21 22 19.6569 22 18C22 16.3431 20.6569 15 19 15H5ZM17 19C17.5523 19 18 18.5523 18 18C18 17.4477 17.5523 17 17 17C16.4477 17 16 17.4477 16 18C16 18.5523 16.4477 19 17 19ZM13 18C13 18.5523 12.5523 19 12 19C11.4477 19 11 18.5523 11 18C11 17.4477 11.4477 17 12 17C12.5523 17 13 17.4477 13 18ZM7 19C7.55228 19 8 18.5523 8 18C8 17.4477 7.55228 17 7 17C6.44772 17 6 17.4477 6 18C6 18.5523 6.44772 19 7 19Z" fill="#28303F"/>
<path fill-rule="evenodd" clip-rule="evenodd" d="M13.75 6C13.75 6.41421 13.4142 6.75 13 6.75L11 6.75C10.5858 6.75 10.25 6.41421 10.25 6C10.25 5.58579 10.5858 5.25 11 5.25L13 5.25C13.4142 5.25 13.75 5.58579 13.75 6Z" fill="#28303F"/>
</svg>
