<svg width="24" height="24" viewBox="0 0 24 24" fill="none" xmlns="http://www.w3.org/2000/svg">
<path opacity="0.4" d="M4 9H2V18L6.31083 20.1554C7.42168 20.7108 8.64658 21 9.88854 21H18C19.1046 21 20 20.1046 20 19C20 17.8954 19.1046 17 18 17H16.4164C15.4849 17 14.5663 16.7831 13.7331 16.3666L10.792 14.896C10.9843 14.7189 11.1432 14.4993 11.2528 14.2434C11.6664 13.2784 11.2241 12.1605 10.2622 11.7397L4 9Z" fill="#28303F"/>
<path fill-rule="evenodd" clip-rule="evenodd" d="M15 3C13.8954 3 13 3.89543 13 5V10C13 11.1046 13.8954 12 15 12H20C21.1046 12 22 11.1046 22 10V5C22 3.89543 21.1046 3 20 3H15ZM18.5 6.75C18.9142 6.75 19.25 6.41421 19.25 6C19.25 5.58579 18.9142 5.25 18.5 5.25L16.5 5.25C16.0858 5.25 15.75 5.58579 15.75 6C15.75 6.41421 16.0858 6.75 16.5 6.75L18.5 6.75Z" fill="#28303F"/>
</svg>
