<svg width="24" height="24" viewBox="0 0 24 24" fill="none" xmlns="http://www.w3.org/2000/svg">
<path opacity="0.4" d="M20 16.7639V8L12 10L4 8V16.7639C4 17.5215 4.428 18.214 5.10557 18.5528L11.1056 21.5528C11.6686 21.8343 12.3314 21.8343 12.8944 21.5528L18.8944 18.5528C19.572 18.214 20 17.5215 20 16.7639Z" fill="#28303F"/>
<path opacity="0.4" d="M20 6.00002L12.8944 2.44723C12.3314 2.1657 11.6686 2.1657 11.1056 2.44723L4 6.00002L12 10L20 6.00002Z" fill="#28303F"/>
<path d="M20 6L12 10L14 13L22 9L20 6Z" fill="#28303F"/>
<path d="M4 6L12 10L10 13L2 9L4 6Z" fill="#28303F"/>
<path fill-rule="evenodd" clip-rule="evenodd" d="M14.75 5C14.75 5.41421 14.4142 5.75 14 5.75L10 5.75C9.58579 5.75 9.25 5.41421 9.25 5C9.25 4.58579 9.58579 4.25 10 4.25L14 4.25C14.4142 4.25 14.75 4.58579 14.75 5Z" fill="#28303F"/>
</svg>
