<svg width="24" height="24" viewBox="0 0 24 24" fill="none" xmlns="http://www.w3.org/2000/svg">
<path opacity="0.4" d="M20 16.7639V8L12 10L4 8V16.7639C4 17.5215 4.428 18.214 5.10557 18.5528L11.1056 21.5528C11.6686 21.8343 12.3314 21.8343 12.8944 21.5528L18.8944 18.5528C19.572 18.214 20 17.5215 20 16.7639Z" fill="#28303F"/>
<path opacity="0.4" d="M20 6.00002L12.8944 2.44723C12.3314 2.1657 11.6686 2.1657 11.1056 2.44723L4 6.00002L12 10L20 6.00002Z" fill="#28303F"/>
<path d="M20 6L12 10L14 13L22 9L20 6Z" fill="#28303F"/>
<path d="M4 6L12 10L10 13L2 9L4 6Z" fill="#28303F"/>
<path fill-rule="evenodd" clip-rule="evenodd" d="M11.25 5.60355L10.5303 4.88388C10.2374 4.59099 9.76256 4.59099 9.46967 4.88388C9.17678 5.17678 9.17678 5.65165 9.46967 5.94454L10.7626 7.23744C11.446 7.92085 12.554 7.92086 13.2374 7.23744L14.5303 5.94454C14.8232 5.65165 14.8232 5.17678 14.5303 4.88388C14.2374 4.59099 13.7626 4.59099 13.4697 4.88388L12.75 5.60355V2C12.75 1.58579 12.4142 1.25 12 1.25C11.5858 1.25 11.25 1.58579 11.25 2V5.60355Z" fill="#28303F"/>
</svg>
