<svg width="24" height="24" viewBox="0 0 24 24" fill="none" xmlns="http://www.w3.org/2000/svg">
<path opacity="0.4" d="M20 16.7639V8L12 10L4 8V16.7639C4 17.5215 4.428 18.214 5.10557 18.5528L11.1056 21.5528C11.6686 21.8343 12.3314 21.8343 12.8944 21.5528L18.8944 18.5528C19.572 18.214 20 17.5215 20 16.7639Z" fill="#28303F"/>
<path opacity="0.4" d="M20 6.00002L12.8944 2.44723C12.3314 2.1657 11.6686 2.1657 11.1056 2.44723L4 6.00002L12 10L20 6.00002Z" fill="#28303F"/>
<path d="M20 6L12 10L14 13L22 9L20 6Z" fill="#28303F"/>
<path d="M4 6L12 10L10 13L2 9L4 6Z" fill="#28303F"/>
<path fill-rule="evenodd" clip-rule="evenodd" d="M11.25 3.39645L10.5303 4.11612C10.2374 4.40901 9.76256 4.40901 9.46967 4.11612C9.17678 3.82322 9.17678 3.34835 9.46967 3.05546L10.7626 1.76256C11.446 1.07915 12.554 1.07914 13.2374 1.76256L14.5303 3.05546C14.8232 3.34835 14.8232 3.82322 14.5303 4.11612C14.2374 4.40901 13.7626 4.40901 13.4697 4.11612L12.75 3.39645V7C12.75 7.41421 12.4142 7.75 12 7.75C11.5858 7.75 11.25 7.41421 11.25 7V3.39645Z" fill="#28303F"/>
</svg>
