<svg width="24" height="24" viewBox="0 0 24 24" fill="none" xmlns="http://www.w3.org/2000/svg">
<path opacity="0.4" d="M20 16.7642V8.00024L12 10.0002L4 8.00024V16.7642C4 17.5217 4.428 18.2142 5.10557 18.553L11.1056 21.553C11.6686 21.8346 12.3314 21.8346 12.8944 21.553L18.8944 18.553C19.572 18.2142 20 17.5217 20 16.7642Z" fill="#28303F"/>
<path opacity="0.4" d="M20 6.00026L12.8944 2.44747C12.3314 2.16595 11.6686 2.16595 11.1056 2.44747L4 6.00026L12 10.0003L20 6.00026Z" fill="#28303F"/>
<path d="M20 6.00024L12 10.0002L14 13.0002L22 9.00024L20 6.00024Z" fill="#28303F"/>
<path d="M4 6.00024L12 10.0002L10 13.0002L2 9.00024L4 6.00024Z" fill="#28303F"/>
<path fill-rule="evenodd" clip-rule="evenodd" d="M13.9447 2.05561C14.2376 2.3485 14.2376 2.82337 13.9447 3.11627L13.0608 4.00015L13.9447 4.88404C14.2376 5.17693 14.2376 5.6518 13.9447 5.9447C13.6518 6.23759 13.1769 6.23759 12.884 5.9447L12.0001 5.06081L11.1163 5.94469C10.8234 6.23759 10.3485 6.23759 10.0556 5.94469C9.76271 5.6518 9.76271 5.17693 10.0556 4.88403L10.9395 4.00015L10.0556 3.11627C9.76271 2.82338 9.76271 2.3485 10.0556 2.05561C10.3485 1.76272 10.8234 1.76272 11.1163 2.05561L12.0001 2.93949L12.884 2.05561C13.1769 1.76271 13.6518 1.76271 13.9447 2.05561Z" fill="#28303F"/>
</svg>
