<svg width="24" height="24" viewBox="0 0 24 24" fill="none" xmlns="http://www.w3.org/2000/svg">
<path opacity="0.4" d="M20 16.7639V8L12 10L4 8V16.7639C4 17.5215 4.428 18.214 5.10557 18.5528L11.1056 21.5528C11.6686 21.8343 12.3314 21.8343 12.8944 21.5528L18.8944 18.5528C19.572 18.214 20 17.5215 20 16.7639Z" fill="#28303F"/>
<path opacity="0.4" d="M20 6.00002L12.8944 2.44723C12.3314 2.1657 11.6686 2.1657 11.1056 2.44723L4 6.00002L12 10L20 6.00002Z" fill="#28303F"/>
<path d="M20 6L12 10L14 13L22 9L20 6Z" fill="#28303F"/>
<path d="M4 6L12 10L10 13L2 9L4 6Z" fill="#28303F"/>
<path fill-rule="evenodd" clip-rule="evenodd" d="M11 2.75C10.3096 2.75 9.75 3.30964 9.75 4C9.75 4.69036 10.3096 5.25 11 5.25C11.6904 5.25 12.25 4.69036 12.25 4C12.25 3.30964 11.6904 2.75 11 2.75ZM8.25 4C8.25 2.48122 9.48122 1.25 11 1.25C12.5188 1.25 13.75 2.48122 13.75 4C13.75 4.48687 13.6235 4.94418 13.4015 5.34086L14.0303 5.96967C14.3232 6.26256 14.3232 6.73744 14.0303 7.03033C13.7374 7.32322 13.2626 7.32322 12.9697 7.03033L12.3409 6.40152C11.9442 6.62348 11.4869 6.75 11 6.75C9.48122 6.75 8.25 5.51878 8.25 4Z" fill="#28303F"/>
</svg>
