<svg width="24" height="24" viewBox="0 0 24 24" fill="none" xmlns="http://www.w3.org/2000/svg">
<path opacity="0.4" d="M20 17V8L15 4H9L4 8V17C4 18.6569 5.34315 20 7 20H17C18.6569 20 20 18.6569 20 17Z" fill="#28303F"/>
<path d="M12 4H19.2629C19.6061 4 19.9241 4.1843 20.1007 4.4855L21.8593 7.4855C22.25 8.15203 21.7809 9 21.0215 9H16.0374C15.351 9 14.7149 8.6314 14.3618 8.02899L12 4Z" fill="#28303F"/>
<path d="M12 4H4.73712C4.39394 4 4.07592 4.1843 3.89935 4.4855L2.14074 7.4855C1.75002 8.15203 2.21909 9 2.97851 9H7.96264C8.64901 9 9.28506 8.6314 9.63819 8.02899L12 4Z" fill="#28303F"/>
</svg>
