<svg width="24" height="24" viewBox="0 0 24 24" fill="none" xmlns="http://www.w3.org/2000/svg">
<path opacity="0.4" d="M13 16C13 14.8954 13.8954 14 15 14H16.0016C16.6045 12.6793 17 11.3127 17 10C17 4.47715 13.866 2 10 2C6.13401 2 3 4.47715 3 10C3 13.2811 5.47059 16.8989 7.47627 19.2954C8.81698 20.8973 11.183 20.8973 12.5237 19.2954C12.6801 19.1085 12.8393 18.9142 13 18.7133V16Z" fill="#28303F"/>
<circle cx="10" cy="9" r="3" fill="#28303F"/>
<path fill-rule="evenodd" clip-rule="evenodd" d="M15 14C13.8954 14 13 14.8954 13 16V18.7133V20C13 21.1046 13.8954 22 15 22H19C20.1046 22 21 21.1046 21 20V16C21 14.8954 20.1046 14 19 14H16.0016H15ZM18 16.75C18.4142 16.75 18.75 16.4142 18.75 16C18.75 15.5858 18.4142 15.25 18 15.25L16 15.25C15.5858 15.25 15.25 15.5858 15.25 16C15.25 16.4142 15.5858 16.75 16 16.75L18 16.75Z" fill="#28303F"/>
</svg>
