<svg width="24" height="24" viewBox="0 0 24 24" fill="none" xmlns="http://www.w3.org/2000/svg">
<path opacity="0.4" d="M6 9C6 7.34315 7.34315 6 9 6H15C16.6569 6 18 7.34315 18 9V15C18 16.6569 16.6569 18 15 18H9C7.34315 18 6 16.6569 6 15V9Z" fill="#28303F"/>
<path fill-rule="evenodd" clip-rule="evenodd" d="M12 1.25C12.4142 1.25 12.75 1.58579 12.75 2V3C12.75 3.41421 12.4142 3.75 12 3.75C11.5858 3.75 11.25 3.41421 11.25 3V2C11.25 1.58579 11.5858 1.25 12 1.25Z" fill="#28303F"/>
<path fill-rule="evenodd" clip-rule="evenodd" d="M12 20.25C12.4142 20.25 12.75 20.5858 12.75 21V22C12.75 22.4142 12.4142 22.75 12 22.75C11.5858 22.75 11.25 22.4142 11.25 22V21C11.25 20.5858 11.5858 20.25 12 20.25Z" fill="#28303F"/>
<path fill-rule="evenodd" clip-rule="evenodd" d="M20.6014 3.39849C20.8943 3.69139 20.8943 4.16626 20.6014 4.45915L19.8943 5.16626C19.6014 5.45915 19.1265 5.45915 18.8336 5.16626C18.5407 4.87337 18.5407 4.39849 18.8336 4.1056L19.5407 3.39849C19.8336 3.1056 20.3085 3.1056 20.6014 3.39849Z" fill="#28303F"/>
<path fill-rule="evenodd" clip-rule="evenodd" d="M5.16632 18.8336C5.45921 19.1264 5.45921 19.6013 5.16632 19.8942L4.45921 20.6013C4.16632 20.8942 3.69144 20.8942 3.39855 20.6013C3.10566 20.3084 3.10566 19.8336 3.39855 19.5407L4.10566 18.8336C4.39855 18.5407 4.87342 18.5407 5.16632 18.8336Z" fill="#28303F"/>
<path fill-rule="evenodd" clip-rule="evenodd" d="M22.75 12C22.75 12.4142 22.4142 12.75 22 12.75L21 12.75C20.5858 12.75 20.25 12.4142 20.25 12C20.25 11.5858 20.5858 11.25 21 11.25L22 11.25C22.4142 11.25 22.75 11.5858 22.75 12Z" fill="#28303F"/>
<path fill-rule="evenodd" clip-rule="evenodd" d="M13.75 9C13.75 9.41421 13.4142 9.75 13 9.75L11 9.75C10.5858 9.75 10.25 9.41421 10.25 9C10.25 8.58579 10.5858 8.25 11 8.25L13 8.25C13.4142 8.25 13.75 8.58579 13.75 9Z" fill="#28303F"/>
<path fill-rule="evenodd" clip-rule="evenodd" d="M3.75 12C3.75 12.4142 3.41421 12.75 3 12.75L2 12.75C1.58579 12.75 1.25 12.4142 1.25 12C1.25 11.5858 1.58579 11.25 2 11.25L3 11.25C3.41421 11.25 3.75 11.5858 3.75 12Z" fill="#28303F"/>
<path fill-rule="evenodd" clip-rule="evenodd" d="M20.6013 20.6014C20.3084 20.8943 19.8335 20.8943 19.5406 20.6014L18.8335 19.8943C18.5406 19.6014 18.5406 19.1265 18.8335 18.8336C19.1264 18.5407 19.6013 18.5407 19.8942 18.8336L20.6013 19.5407C20.8942 19.8336 20.8942 20.3085 20.6013 20.6014Z" fill="#28303F"/>
<path fill-rule="evenodd" clip-rule="evenodd" d="M5.1662 5.16632C4.87331 5.45921 4.39844 5.45921 4.10554 5.16632L3.39844 4.45921C3.10554 4.16632 3.10554 3.69144 3.39844 3.39855C3.69133 3.10566 4.1662 3.10566 4.4591 3.39855L5.1662 4.10566C5.4591 4.39855 5.4591 4.87342 5.1662 5.16632Z" fill="#28303F"/>
</svg>
