<svg width="24" height="24" viewBox="0 0 24 24" fill="none" xmlns="http://www.w3.org/2000/svg">
<path opacity="0.4" d="M22 18V7.65685C22 6.59599 21.5786 5.57857 20.8284 4.82843L19.1716 3.17157C18.4214 2.42143 17.404 2 16.3431 2H7.65685C6.59599 2 5.57857 2.42143 4.82843 3.17157L3.17157 4.82843C2.42143 5.57857 2 6.59599 2 7.65685V18C2 20.2091 3.79086 22 6 22H18C20.2091 22 22 20.2091 22 18Z" fill="#28303F"/>
<path d="M16.3431 2H7.65677C6.5959 2 5.57849 2.42143 4.82834 3.17157L3.17149 4.82843C2.57799 5.42193 2.19025 6.18274 2.0542 7H21.9456C21.8096 6.18274 21.4218 5.42193 20.8283 4.82843L19.1715 3.17157C18.4213 2.42143 17.4039 2 16.3431 2Z" fill="#28303F"/>
<path fill-rule="evenodd" clip-rule="evenodd" d="M12 11.75C10.7574 11.75 9.75 12.7574 9.75 14C9.75 15.2426 10.7574 16.25 12 16.25C13.2426 16.25 14.25 15.2426 14.25 14C14.25 12.7574 13.2426 11.75 12 11.75ZM8.25 14C8.25 11.9289 9.92893 10.25 12 10.25C14.0711 10.25 15.75 11.9289 15.75 14C15.75 14.7643 15.5213 15.4752 15.1287 16.068L16.0303 16.9697C16.3232 17.2626 16.3232 17.7374 16.0303 18.0303C15.7374 18.3232 15.2626 18.3232 14.9697 18.0303L14.068 17.1287C13.4752 17.5213 12.7643 17.75 12 17.75C9.92893 17.75 8.25 16.0711 8.25 14Z" fill="#28303F"/>
</svg>
