<svg width="24" height="24" viewBox="0 0 24 24" fill="none" xmlns="http://www.w3.org/2000/svg">
<path opacity="0.4" d="M22 18V7.65685C22 6.59599 21.5786 5.57857 20.8284 4.82843L19.1716 3.17157C18.4214 2.42143 17.404 2 16.3431 2H7.65685C6.59599 2 5.57857 2.42143 4.82843 3.17157L3.17157 4.82843C2.42143 5.57857 2 6.59599 2 7.65685V18C2 20.2091 3.79086 22 6 22H18C20.2091 22 22 20.2091 22 18Z" fill="#28303F"/>
<path d="M16.3431 2H7.65677C6.5959 2 5.57849 2.42143 4.82834 3.17157L3.17149 4.82843C2.57799 5.42193 2.19025 6.18274 2.0542 7H21.9456C21.8096 6.18274 21.4218 5.42193 20.8283 4.82843L19.1715 3.17157C18.4213 2.42143 17.4039 2 16.3431 2Z" fill="#28303F"/>
<path fill-rule="evenodd" clip-rule="evenodd" d="M12.6493 17.3361C13.5314 16.376 15 14.5456 15 13C15 10.7909 13.6569 10 12 10C10.3431 10 9 10.7909 9 13C9 14.5456 10.4686 16.376 11.3507 17.3361C11.7054 17.7222 12.2946 17.7222 12.6493 17.3361ZM12 14C12.5523 14 13 13.5523 13 13C13 12.4477 12.5523 12 12 12C11.4477 12 11 12.4477 11 13C11 13.5523 11.4477 14 12 14Z" fill="#28303F"/>
</svg>
