<svg width="24" height="24" viewBox="0 0 24 24" fill="none" xmlns="http://www.w3.org/2000/svg">
<path opacity="0.4" d="M22 18V7.65685C22 6.59599 21.5786 5.57857 20.8284 4.82843L19.1716 3.17157C18.4214 2.42143 17.404 2 16.3431 2H7.65685C6.59599 2 5.57857 2.42143 4.82843 3.17157L3.17157 4.82843C2.42143 5.57857 2 6.59599 2 7.65685V18C2 20.2091 3.79086 22 6 22H18C20.2091 22 22 20.2091 22 18Z" fill="#28303F"/>
<path d="M16.3431 2H7.65677C6.5959 2 5.57849 2.42143 4.82834 3.17157L3.17149 4.82843C2.57799 5.42193 2.19025 6.18274 2.0542 7H21.9456C21.8096 6.18274 21.4218 5.42193 20.8283 4.82843L19.1715 3.17157C18.4213 2.42143 17.4039 2 16.3431 2Z" fill="#28303F"/>
<path d="M12.2651 11.9169L12 12.182L11.7348 11.9169C11.0026 11.1846 9.81538 11.1846 9.08315 11.9169C8.35092 12.6491 8.35092 13.8363 9.08315 14.5685L10.9393 16.4247C11.5251 17.0104 12.4748 17.0104 13.0606 16.4247L14.9168 14.5685C15.649 13.8363 15.649 12.6491 14.9168 11.9169C14.1845 11.1846 12.9974 11.1846 12.2651 11.9169Z" fill="#28303F"/>
</svg>
