<svg width="24" height="24" viewBox="0 0 24 24" fill="none" xmlns="http://www.w3.org/2000/svg">
<path opacity="0.4" d="M22 18V7.65685C22 6.59599 21.5786 5.57857 20.8284 4.82843L19.1716 3.17157C18.4214 2.42143 17.404 2 16.3431 2H7.65685C6.59599 2 5.57857 2.42143 4.82843 3.17157L3.17157 4.82843C2.42143 5.57857 2 6.59599 2 7.65685V18C2 20.2091 3.79086 22 6 22H18C20.2091 22 22 20.2091 22 18Z" fill="#28303F"/>
<path d="M16.3431 2H7.65677C6.5959 2 5.57849 2.42143 4.82834 3.17157L3.17149 4.82843C2.57799 5.42193 2.19025 6.18274 2.0542 7H21.9456C21.8096 6.18274 21.4218 5.42193 20.8283 4.82843L19.1715 3.17157C18.4213 2.42143 17.4039 2 16.3431 2Z" fill="#28303F"/>
<path fill-rule="evenodd" clip-rule="evenodd" d="M9.34833 11.3483C9.64123 11.0554 10.1161 11.0554 10.409 11.3483L12 12.9393L13.591 11.3484C13.8839 11.0555 14.3587 11.0555 14.6516 11.3484C14.9445 11.6412 14.9445 12.1161 14.6516 12.409L13.0607 14L14.6516 15.591C14.9445 15.8839 14.9445 16.3587 14.6516 16.6516C14.3587 16.9445 13.8839 16.9445 13.591 16.6516L12 15.0607L10.409 16.6517C10.1161 16.9445 9.64123 16.9445 9.34833 16.6517C9.05544 16.3588 9.05544 15.8839 9.34833 15.591L10.9393 14L9.34833 12.409C9.05544 12.1161 9.05544 11.6412 9.34833 11.3483Z" fill="#28303F"/>
</svg>
