<svg width="24" height="24" viewBox="0 0 24 24" fill="none" xmlns="http://www.w3.org/2000/svg">
<path opacity="0.4" d="M20 19V9C20 8.44772 19.5523 8 19 8H5C4.44772 8 4 8.44772 4 9V19C4 20.6569 5.34315 22 7 22H17C18.6569 22 20 20.6569 20 19Z" fill="#28303F"/>
<path d="M12 8H19.5C19.8148 8 20.1111 8.14819 20.3 8.4L21.8 10.4C22.2944 11.0592 21.824 12 21 12H15.5C15.1852 12 14.8889 11.8518 14.7 11.6L12 8Z" fill="#28303F"/>
<path d="M12 8H4.5C4.18524 8 3.88885 8.14819 3.7 8.4L2.2 10.4C1.70557 11.0592 2.17595 12 3 12H8.5C8.81476 12 9.11115 11.8518 9.3 11.6L12 8Z" fill="#28303F"/>
<path fill-rule="evenodd" clip-rule="evenodd" d="M12.75 3.39645L13.4697 4.11612C13.7626 4.40901 14.2374 4.40901 14.5303 4.11612C14.8232 3.82322 14.8232 3.34835 14.5303 3.05546L13.2374 1.76256C12.554 1.07915 11.446 1.07914 10.7626 1.76256L9.46967 3.05546C9.17678 3.34835 9.17678 3.82322 9.46967 4.11612C9.76256 4.40901 10.2374 4.40901 10.5303 4.11612L11.25 3.39645V5.5C11.25 5.91421 11.5858 6.25 12 6.25C12.4142 6.25 12.75 5.91421 12.75 5.5V3.39645Z" fill="#28303F"/>
</svg>
