<svg width="24" height="24" viewBox="0 0 24 24" fill="none" xmlns="http://www.w3.org/2000/svg">
<path opacity="0.4" d="M18.6246 4.94429L13.6246 2.72207C12.5903 2.2624 11.4097 2.2624 10.3754 2.72207L5.37545 4.94429C3.93093 5.5863 3 7.01879 3 8.59954V15.4006C3 16.9813 3.93094 18.4138 5.37545 19.0558L10.3754 21.278C11.4097 21.7377 12.5903 21.7377 13.6246 21.278L18.6246 19.0558C20.0691 18.4138 21 16.9813 21 15.4006V8.59954C21 7.01879 20.0691 5.5863 18.6246 4.94429Z" fill="#28303F"/>
<path d="M18.6246 4.94442L13.6246 2.72219C12.5904 2.26252 11.4098 2.26252 10.3755 2.7222L5.37551 4.94442C4.7194 5.23602 4.16925 5.6907 3.76416 6.24827L12.0001 10.0002L20.236 6.24827C19.8309 5.6907 19.2807 5.23602 18.6246 4.94442Z" fill="#28303F"/>
<path d="M12 7.25C12.4142 7.25 12.75 7.58579 12.75 8L12.75 21.5518C12.2546 21.6464 11.7455 21.6464 11.25 21.5518V8C11.25 7.58579 11.5858 7.25 12 7.25Z" fill="#28303F"/>
</svg>
