<svg width="24" height="24" viewBox="0 0 24 24" fill="none" xmlns="http://www.w3.org/2000/svg">
<path opacity="0.4" d="M22 18V7.65685C22 6.59599 21.5786 5.57857 20.8284 4.82843L19.1716 3.17157C18.4214 2.42143 17.404 2 16.3431 2H7.65685C6.59599 2 5.57857 2.42143 4.82843 3.17157L3.17157 4.82843C2.42143 5.57857 2 6.59599 2 7.65685V18C2 20.2091 3.79086 22 6 22H18C20.2091 22 22 20.2091 22 18Z" fill="#28303F"/>
<path d="M16.3431 2H7.65677C6.5959 2 5.57849 2.42143 4.82834 3.17157L3.17149 4.82843C2.57799 5.42193 2.19025 6.18274 2.0542 7H21.9456C21.8096 6.18274 21.4218 5.42193 20.8283 4.82843L19.1715 3.17157C18.4213 2.42143 17.4039 2 16.3431 2Z" fill="#28303F"/>
<path fill-rule="evenodd" clip-rule="evenodd" d="M8.25 13.3964L7.53033 14.1161C7.23744 14.409 6.76256 14.409 6.46967 14.1161C6.17678 13.8232 6.17678 13.3483 6.46967 13.0555L7.76256 11.7626C8.44598 11.0791 9.55402 11.0791 10.2374 11.7626L11.5303 13.0555C11.8232 13.3483 11.8232 13.8232 11.5303 14.1161C11.2374 14.409 10.7626 14.409 10.4697 14.1161L9.75 13.3964V17C9.75 17.4142 9.41421 17.75 9 17.75C8.58579 17.75 8.25 17.4142 8.25 17V13.3964Z" fill="#28303F"/>
<path fill-rule="evenodd" clip-rule="evenodd" d="M14.25 15.6036L13.5303 14.8839C13.2374 14.591 12.7626 14.591 12.4697 14.8839C12.1768 15.1768 12.1768 15.6517 12.4697 15.9445L13.7626 17.2374C14.446 17.9209 15.554 17.9209 16.2374 17.2374L17.5303 15.9445C17.8232 15.6517 17.8232 15.1768 17.5303 14.8839C17.2374 14.591 16.7626 14.591 16.4697 14.8839L15.75 15.6036V12C15.75 11.5858 15.4142 11.25 15 11.25C14.5858 11.25 14.25 11.5858 14.25 12V15.6036Z" fill="#28303F"/>
</svg>
