<svg width="24" height="24" viewBox="0 0 24 24" fill="none" xmlns="http://www.w3.org/2000/svg">
<path opacity="0.4" d="M20 19V9C20 8.44772 19.5523 8 19 8H5C4.44772 8 4 8.44772 4 9V19C4 20.6569 5.34315 22 7 22H17C18.6569 22 20 20.6569 20 19Z" fill="#28303F"/>
<path d="M12 8H19.5C19.8148 8 20.1111 8.14819 20.3 8.4L21.8 10.4C22.2944 11.0592 21.824 12 21 12H15.5C15.1852 12 14.8889 11.8518 14.7 11.6L12 8Z" fill="#28303F"/>
<path d="M12 8H4.5C4.18524 8 3.88885 8.14819 3.7 8.4L2.2 10.4C1.70557 11.0592 2.17595 12 3 12H8.5C8.81476 12 9.11115 11.8518 9.3 11.6L12 8Z" fill="#28303F"/>
<path fill-rule="evenodd" clip-rule="evenodd" d="M7.32473 1.67365C7.44993 1.4146 7.71229 1.25 8.00001 1.25L14.5001 1.25C15.7427 1.25 16.7501 2.25736 16.7501 3.5C16.7501 4.74264 15.7427 5.75 14.5001 5.75L13.0001 5.75C12.5859 5.75 12.2501 5.41421 12.2501 5C12.2501 4.58579 12.5859 4.25 13.0001 4.25L14.5001 4.25C14.9143 4.25 15.2501 3.91421 15.2501 3.5C15.2501 3.08579 14.9143 2.75 14.5001 2.75L9.55187 2.75L10.1735 3.53402C10.4309 3.85858 10.3764 4.33032 10.0519 4.58767C9.72729 4.84503 9.25555 4.79055 8.9982 4.46598L7.41233 2.46598C7.23357 2.24054 7.19954 1.9327 7.32473 1.67365Z" fill="#28303F"/>
</svg>
