<svg width="24" height="24" viewBox="0 0 24 24" fill="none" xmlns="http://www.w3.org/2000/svg">
<path fill-rule="evenodd" clip-rule="evenodd" d="M19.6493 9.33611C20.5314 8.37604 22 6.54564 22 5C22 2.79086 20.6569 2 19 2C17.3431 2 16 2.79086 16 5C16 6.54564 17.4686 8.37604 18.3507 9.33611C18.7054 9.72218 19.2946 9.72218 19.6493 9.33611ZM19 6C19.5523 6 20 5.55228 20 5C20 4.44772 19.5523 4 19 4C18.4477 4 18 4.44772 18 5C18 5.55228 18.4477 6 19 6Z" fill="#28303F"/>
<path opacity="0.4" d="M7 14C7 12.8954 7.89543 12 9 12H15C16.1046 12 17 12.8954 17 14V20C17 21.1046 16.1046 22 15 22H9C7.89543 22 7 21.1046 7 20V14Z" fill="#28303F"/>
<path fill-rule="evenodd" clip-rule="evenodd" d="M10.25 14C10.25 13.5858 10.5858 13.25 11 13.25H13C13.4142 13.25 13.75 13.5858 13.75 14C13.75 14.4142 13.4142 14.75 13 14.75H11C10.5858 14.75 10.25 14.4142 10.25 14Z" fill="#28303F"/>
<path fill-rule="evenodd" clip-rule="evenodd" d="M4 7.75C3.30964 7.75 2.75 8.30964 2.75 9V15C2.75 15.6904 3.30964 16.25 4 16.25H4.84615C5.26037 16.25 5.59615 16.5858 5.59615 17C5.59615 17.4142 5.26037 17.75 4.84615 17.75H4C2.48122 17.75 1.25 16.5188 1.25 15V9C1.25 7.48122 2.48122 6.25 4 6.25H14C14.4142 6.25 14.75 6.58579 14.75 7C14.75 7.41421 14.4142 7.75 14 7.75H4Z" fill="#28303F"/>
</svg>
