<svg width="24" height="24" viewBox="0 0 24 24" fill="none" xmlns="http://www.w3.org/2000/svg">
<path fill-rule="evenodd" clip-rule="evenodd" d="M1.25 2C1.25 1.58579 1.58579 1.25 2 1.25H3C4.51878 1.25 5.75 2.48122 5.75 4V19C5.75 19.4142 5.41421 19.75 5 19.75C4.58579 19.75 4.25 19.4142 4.25 19V4C4.25 3.30964 3.69036 2.75 3 2.75H2C1.58579 2.75 1.25 2.41421 1.25 2Z" fill="#28303F"/>
<path fill-rule="evenodd" clip-rule="evenodd" d="M5.25 20C5.25 19.5858 5.58579 19.25 6 19.25L22 19.25C22.4142 19.25 22.75 19.5858 22.75 20C22.75 20.4142 22.4142 20.75 22 20.75L6 20.75C5.58579 20.75 5.25 20.4142 5.25 20Z" fill="#28303F"/>
<path opacity="0.4" d="M8 7C8 5.89543 8.89543 5 10 5H18C19.1046 5 20 5.89543 20 7V15C20 16.1046 19.1046 17 18 17H10C8.89543 17 8 16.1046 8 15V7Z" fill="#28303F"/>
<circle cx="5" cy="20" r="2" fill="#28303F"/>
<path fill-rule="evenodd" clip-rule="evenodd" d="M12.25 8C12.25 7.58579 12.5858 7.25 13 7.25H15C15.4142 7.25 15.75 7.58579 15.75 8C15.75 8.41421 15.4142 8.75 15 8.75H13C12.5858 8.75 12.25 8.41421 12.25 8Z" fill="#28303F"/>
</svg>
