<svg width="24" height="24" viewBox="0 0 24 24" fill="none" xmlns="http://www.w3.org/2000/svg">
<path opacity="0.4" d="M2 10.0826C2 8.77731 2.63684 7.55415 3.70615 6.80564L9.70615 2.60564C11.0834 1.64155 12.9166 1.64154 14.2938 2.60564L20.2938 6.80564C21.3632 7.55415 22 8.77731 22 10.0826V19.9999C22 21.1045 21.1046 21.9999 20 21.9999H4C2.89543 21.9999 2 21.1045 2 19.9999V10.0826Z" fill="#28303F"/>
<path d="M16 10H8C6.89543 10 6 10.8954 6 12V14H18V12C18 10.8954 17.1046 10 16 10Z" fill="#28303F"/>
<path d="M18 18H6V22H18V18Z" fill="#28303F"/>
</svg>
