<svg width="24" height="24" viewBox="0 0 24 24" fill="none" xmlns="http://www.w3.org/2000/svg">
<path fill-rule="evenodd" clip-rule="evenodd" d="M8.40619 3.8906L7.33325 5.5H16.6666L15.5937 3.8906C15.2227 3.3342 14.5983 3 13.9296 3H10.0703C9.40158 3 8.77712 3.3342 8.40619 3.8906ZM2 11C2 8.79086 3.79086 7 6 7H18C20.2091 7 22 8.79086 22 11V17C22 19.2091 20.2091 21 18 21H6C3.79086 21 2 19.2091 2 17V11ZM15 14C15 15.6569 13.6569 17 12 17C10.3431 17 9 15.6569 9 14C9 12.3431 10.3431 11 12 11C13.6569 11 15 12.3431 15 14Z" fill="#28303F"/>
</svg>
