<svg width="24" height="24" viewBox="0 0 24 24" fill="none" xmlns="http://www.w3.org/2000/svg">
<path fill-rule="evenodd" clip-rule="evenodd" d="M1.46967 1.46967C1.17678 1.76256 1.17678 2.23744 1.46967 2.53033L5.93978 7.00044C3.75841 7.03263 2 8.81097 2 11V17C2 19.2091 3.79086 21 6 21H18C18.5706 21 19.1134 20.8805 19.6045 20.6652L21.4697 22.5303C21.7626 22.8232 22.2374 22.8232 22.5303 22.5303C22.8232 22.2374 22.8232 21.7626 22.5303 21.4697L2.53033 1.46967C2.23744 1.17678 1.76256 1.17678 1.46967 1.46967ZM9 14C9 12.9311 9.55905 11.9927 10.4007 11.4614L14.5386 15.5993C14.0073 16.441 13.0689 17 12 17C10.3431 17 9 15.6569 9 14ZM21.6652 18.6045L10.0607 7H18C20.2091 7 22 8.79086 22 11V17C22 17.5706 21.8805 18.1134 21.6652 18.6045ZM7.82422 4.76359L8.56063 5.5H16.6666L15.5937 3.8906C15.2227 3.3342 14.5983 3 13.9296 3H10.0703C9.40161 3 8.77714 3.3342 8.40621 3.8906L7.82422 4.76359Z" fill="#28303F"/>
</svg>
