<svg width="24" height="24" viewBox="0 0 24 24" fill="none" xmlns="http://www.w3.org/2000/svg">
<path fill-rule="evenodd" clip-rule="evenodd" d="M8.40627 3.8906L7 6H6C3.79086 6 2 7.79086 2 10V17C2 19.2091 3.79086 21 6 21H18C20.2091 21 22 19.2091 22 17V10C22 7.79086 20.2091 6 18 6H17L15.5937 3.8906C15.2228 3.3342 14.5983 3 13.9296 3H10.0704C9.40166 3 8.7772 3.3342 8.40627 3.8906ZM15 13.5C15 15.1569 13.6569 16.5 12 16.5C10.3431 16.5 9 15.1569 9 13.5C9 11.8431 10.3431 10.5 12 10.5C13.6569 10.5 15 11.8431 15 13.5ZM12 7C12.5523 7 13 6.55228 13 6C13 5.44772 12.5523 5 12 5C11.4477 5 11 5.44772 11 6C11 6.55228 11.4477 7 12 7Z" fill="#28303F"/>
</svg>
