<svg width="24" height="24" viewBox="0 0 24 24" fill="none" xmlns="http://www.w3.org/2000/svg">
<path fill-rule="evenodd" clip-rule="evenodd" d="M2 8C2 5.79086 3.79086 4 6 4H12C14.2091 4 16 5.79086 16 8V16C16 18.2091 14.2091 20 12 20H6C3.79086 20 2 18.2091 2 16V8ZM6.25 12C6.25 11.5858 6.58579 11.25 7 11.25H11C11.4142 11.25 11.75 11.5858 11.75 12C11.75 12.4142 11.4142 12.75 11 12.75H7C6.58579 12.75 6.25 12.4142 6.25 12ZM18.5409 16.3103L17.5 15.1999V8.79993L18.5409 7.68961C19.781 6.3669 22 7.24442 22 9.05749V14.9424C22 16.7554 19.781 17.633 18.5409 16.3103Z" fill="#28303F"/>
</svg>
