<svg width="24" height="24" viewBox="0 0 24 24" fill="none" xmlns="http://www.w3.org/2000/svg">
<path fill-rule="evenodd" clip-rule="evenodd" d="M9 22C10.6569 22 12 20.6569 12 19L12 5C12 3.34315 10.6569 2 9 2H6C4.34315 2 3 3.34314 3 5V19C3 20.6569 4.34315 22 6 22H9ZM14 19H13.5V15.75H14C16.0711 15.75 17.75 14.0711 17.75 12C17.75 9.92893 16.0711 8.25 14 8.25H13.5V5H14C17.866 5 21 8.13401 21 12C21 15.866 17.866 19 14 19ZM14 14.25H13.5V9.75H14C15.2426 9.75 16.25 10.7574 16.25 12C16.25 13.2426 15.2426 14.25 14 14.25Z" fill="#28303F"/>
</svg>
