<svg width="24" height="24" viewBox="0 0 24 24" fill="none" xmlns="http://www.w3.org/2000/svg">
<path fill-rule="evenodd" clip-rule="evenodd" d="M18.75 2C18.75 1.58579 18.4142 1.25 18 1.25C17.5858 1.25 17.25 1.58579 17.25 2V8C17.25 8.41421 17.5858 8.75 18 8.75C18.4142 8.75 18.75 8.41421 18.75 8V2ZM8 13C9.10457 13 10 12.1046 10 11L10 7C10 5.89543 9.10457 5 8 5L6.75 5V2C6.75 1.58579 6.41421 1.25 6 1.25C5.58579 1.25 5.25 1.58579 5.25 2V5H4C2.89543 5 2 5.89543 2 7V11C2 12.1046 2.89543 13 4 13L8 13ZM20 19C21.1046 19 22 18.1046 22 17V13C22 11.8954 21.1046 11 20 11H16C14.8954 11 14 11.8954 14 13L14 17C14 18.1046 14.8954 19 16 19H17.25V22C17.25 22.4142 17.5858 22.75 18 22.75C18.4142 22.75 18.75 22.4142 18.75 22V19H20ZM6 15.25C6.41421 15.25 6.75 15.5858 6.75 16V22C6.75 22.4142 6.41421 22.75 6 22.75C5.58579 22.75 5.25 22.4142 5.25 22V16C5.25 15.5858 5.58579 15.25 6 15.25Z" fill="#28303F"/>
</svg>
