<svg width="24" height="24" viewBox="0 0 24 24" fill="none" xmlns="http://www.w3.org/2000/svg">
<path fill-rule="evenodd" clip-rule="evenodd" d="M19 4C19 2.89543 18.1046 2 17 2H13C11.8954 2 11 2.89543 11 4V8C11 9.10457 11.8954 10 13 10H17C18.1046 10 19 9.10457 19 8V6.75L22 6.75C22.4142 6.75 22.75 6.41421 22.75 6C22.75 5.58579 22.4142 5.25 22 5.25L19 5.25V4ZM13 16C13 14.8954 12.1046 14 11 14H7C5.89543 14 5 14.8954 5 16V17.25H2C1.58579 17.25 1.25 17.5858 1.25 18C1.25 18.4142 1.58579 18.75 2 18.75H5L5 20C5 21.1046 5.89543 22 7 22H11C12.1046 22 13 21.1046 13 20V16ZM1.25 6C1.25 5.58579 1.58579 5.25 2 5.25L8 5.25C8.41421 5.25 8.75 5.58579 8.75 6C8.75 6.41421 8.41421 6.75 8 6.75L2 6.75C1.58579 6.75 1.25 6.41421 1.25 6ZM15.25 18C15.25 17.5858 15.5858 17.25 16 17.25L22 17.25C22.4142 17.25 22.75 17.5858 22.75 18C22.75 18.4142 22.4142 18.75 22 18.75H16C15.5858 18.75 15.25 18.4142 15.25 18Z" fill="#28303F"/>
</svg>
