<svg width="24" height="24" viewBox="0 0 24 24" fill="none" xmlns="http://www.w3.org/2000/svg">
<path fill-rule="evenodd" clip-rule="evenodd" d="M18.75 2.0702V7.25V8.75V15.25V16.75V21.9298C20.6006 21.5787 22 19.9528 22 18V6C22 4.04721 20.6006 2.42125 18.75 2.0702ZM17.25 2V7.25L6.75 7.25V2H17.25ZM5.25 2.0702V7.25V8.75V15.25V16.75V21.9298C3.39935 21.5787 2 19.9528 2 18V6C2 4.04721 3.39935 2.42125 5.25 2.0702ZM6.75 22H17.25V16.75H6.75V22ZM17.25 15.25L6.75 15.25V8.75L17.25 8.75V15.25Z" fill="#28303F"/>
</svg>
