<svg width="24" height="24" viewBox="0 0 24 24" fill="none" xmlns="http://www.w3.org/2000/svg">
<path fill-rule="evenodd" clip-rule="evenodd" d="M6.25 2H6C3.79086 2 2 3.79086 2 6V6.25L6.25 6.25V2ZM2 7.75V11.25H6.25V7.75L2 7.75ZM2 12.75V16.25L6.25 16.25V12.75H2ZM2 17.75V18C2 20.2091 3.79086 22 6 22H6.25V17.75L2 17.75ZM7.75 22L16.25 22V12.75L7.75 12.75L7.75 22ZM17.75 22H18C20.2091 22 22 20.2091 22 18V17.75L17.75 17.75V22ZM22 16.25V12.75H17.75V16.25H22ZM22 11.25V7.75L17.75 7.75V11.25H22ZM22 6.25V6C22 3.79086 20.2091 2 18 2H17.75V6.25L22 6.25ZM16.25 2H7.75L7.75 11.25L16.25 11.25V2Z" fill="#28303F"/>
</svg>
