<svg width="24" height="24" viewBox="0 0 24 24" fill="none" xmlns="http://www.w3.org/2000/svg">
<path fill-rule="evenodd" clip-rule="evenodd" d="M6.25001 2H6C3.79086 2 2 3.79086 2 6V6.25H6.25L6.25001 2ZM2 7.75V16.25H11.25V7.75H2ZM2 17.75V18C2 20.2091 3.79086 22 6 22H6.25001L6.25001 17.75H2ZM7.75001 22H11.25L11.25 17.75H7.75001L7.75001 22ZM12.75 22H16.25L16.25 17.75H12.75L12.75 22ZM17.75 22H18C20.2091 22 22 20.2091 22 18V17.75H17.75L17.75 22ZM22 16.25V7.75H12.75V16.25H22ZM22 6.25V6C22 3.79086 20.2091 2 18 2H17.75L17.75 6.25H22ZM16.25 2H12.75L12.75 6.25H16.25L16.25 2ZM11.25 2H7.75001L7.75 6.25H11.25L11.25 2Z" fill="#28303F"/>
</svg>
