<svg width="24" height="24" viewBox="0 0 24 24" fill="none" xmlns="http://www.w3.org/2000/svg">
<path fill-rule="evenodd" clip-rule="evenodd" d="M1.46967 2.53033C1.17678 2.23744 1.17678 1.76256 1.46967 1.46967C1.76256 1.17678 2.23744 1.17678 2.53033 1.46967L22.5303 21.4697C22.8232 21.7626 22.8232 22.2374 22.5303 22.5303C22.2374 22.8232 21.7626 22.8232 21.4697 22.5303L20.068 21.1287C19.4752 21.5213 18.7643 21.75 18 21.75C15.9289 21.75 14.25 20.0711 14.25 18V16C14.25 15.7833 14.2684 15.5709 14.3037 15.3643L5.66005 6.72071C4.46747 8.15133 3.75 9.99188 3.75 12V12.9997C4.37675 12.529 5.1558 12.25 6 12.25C8.07107 12.25 9.75 13.9289 9.75 16V18C9.75 20.0711 8.07107 21.75 6 21.75C3.92893 21.75 2.25 20.0711 2.25 18V16.75V16V12C2.25 9.57758 3.13343 7.36149 4.59568 5.65634L1.46967 2.53033ZM6.80711 3.74644L7.89997 4.83931C9.10778 4.14626 10.5076 3.75 12 3.75C16.5563 3.75 20.25 7.44365 20.25 12V12.9997C19.6233 12.529 18.8442 12.25 18 12.25C17.2357 12.25 16.5248 12.4787 15.932 12.8713L21.6963 18.6357C21.7316 18.4291 21.75 18.2167 21.75 18V16.75V16V12C21.75 6.61522 17.3848 2.25 12 2.25C10.0913 2.25 8.31062 2.79849 6.80711 3.74644Z" fill="#28303F"/>
</svg>
