<svg width="24" height="24" viewBox="0 0 24 24" fill="none" xmlns="http://www.w3.org/2000/svg">
<path fill-rule="evenodd" clip-rule="evenodd" d="M12 2.75C7.52436 2.75 3.88113 6.31395 3.75346 10.7587C4.25789 10.4366 4.85715 10.25 5.5 10.25C7.29493 10.25 8.75 11.7051 8.75 13.5V15.5C8.75 17.2949 7.29493 18.75 5.5 18.75C3.70507 18.75 2.25 17.2949 2.25 15.5V13.75V13.5V11C2.25 5.61522 6.61522 1.25 12 1.25C17.3848 1.25 21.75 5.61522 21.75 11V13.5V13.75V14V15.5V16C21.75 19.7279 18.7279 22.75 15 22.75H12C11.5858 22.75 11.25 22.4142 11.25 22C11.25 21.5858 11.5858 21.25 12 21.25H15C16.9676 21.25 18.6824 20.1676 19.5814 18.5658C19.2431 18.6851 18.8791 18.75 18.5 18.75C16.7051 18.75 15.25 17.2949 15.25 15.5V13.5C15.25 11.7051 16.7051 10.25 18.5 10.25C19.1428 10.25 19.7421 10.4366 20.2465 10.7587C20.1189 6.31395 16.4756 2.75 12 2.75Z" fill="#28303F"/>
</svg>
