<svg width="24" height="24" viewBox="0 0 24 24" fill="none" xmlns="http://www.w3.org/2000/svg">
<path fill-rule="evenodd" clip-rule="evenodd" d="M2.75 6C2.75 4.20507 4.20507 2.75 6 2.75H15C15.4142 2.75 15.75 2.41421 15.75 2C15.75 1.58579 15.4142 1.25 15 1.25H6C3.37665 1.25 1.25 3.37665 1.25 6V18C1.25 20.6234 3.37665 22.75 6 22.75H18C20.6234 22.75 22.75 20.6234 22.75 18V9C22.75 8.58579 22.4142 8.25 22 8.25C21.5858 8.25 21.25 8.58579 21.25 9V13.5091C21.2049 13.473 21.158 13.4387 21.1094 13.4063L18.7285 11.819C17.142 10.7613 15.0295 10.9705 13.6812 12.3188L10.3188 15.6812C8.9705 17.0295 6.85802 17.2387 5.27153 16.181L2.75 14.5V6ZM11 8.5C11 9.88071 9.88071 11 8.5 11C7.11929 11 6 9.88071 6 8.5C6 7.11929 7.11929 6 8.5 6C9.88071 6 11 7.11929 11 8.5ZM19.1292 2.43934L15.7081 5.86045C15.5791 5.9894 15.4879 6.15116 15.4442 6.32823L15.015 8.06973C14.925 8.4348 15.255 8.76484 15.6201 8.67486L17.3616 8.2456C17.5387 8.20196 17.7004 8.11072 17.8294 7.98177L21.2505 4.56066C21.8363 3.97487 21.8363 3.02513 21.2505 2.43934C20.6647 1.85355 19.715 1.85355 19.1292 2.43934Z" fill="#28303F"/>
</svg>
