<svg width="24" height="24" viewBox="0 0 24 24" fill="none" xmlns="http://www.w3.org/2000/svg">
<path fill-rule="evenodd" clip-rule="evenodd" d="M2.75 6C2.75 4.20507 4.20507 2.75 6 2.75H14C14.4142 2.75 14.75 2.41421 14.75 2C14.75 1.58579 14.4142 1.25 14 1.25H6C3.37665 1.25 1.25 3.37665 1.25 6V18C1.25 20.6234 3.37665 22.75 6 22.75H18C20.6234 22.75 22.75 20.6234 22.75 18V10C22.75 9.58579 22.4142 9.25 22 9.25C21.5858 9.25 21.25 9.58579 21.25 10V13.5091C21.2049 13.473 21.158 13.4387 21.1094 13.4063L18.7285 11.819C17.142 10.7613 15.0295 10.9705 13.6812 12.3188L10.3188 15.6812C8.9705 17.0295 6.85802 17.2387 5.27153 16.181L2.75 14.5V6ZM16.4697 2.46967C16.7626 2.17678 17.2374 2.17678 17.5303 2.46967L19 3.93934L20.4697 2.46967C20.7626 2.17678 21.2374 2.17678 21.5303 2.46967C21.8232 2.76256 21.8232 3.23744 21.5303 3.53033L20.0607 5L21.5303 6.46967C21.8232 6.76256 21.8232 7.23744 21.5303 7.53033C21.2374 7.82322 20.7626 7.82322 20.4697 7.53033L19 6.06066L17.5303 7.53033C17.2374 7.82322 16.7626 7.82322 16.4697 7.53033C16.1768 7.23744 16.1768 6.76256 16.4697 6.46967L17.9393 5L16.4697 3.53033C16.1768 3.23744 16.1768 2.76256 16.4697 2.46967ZM8.5 11C9.88071 11 11 9.88071 11 8.5C11 7.11929 9.88071 6 8.5 6C7.11929 6 6 7.11929 6 8.5C6 9.88071 7.11929 11 8.5 11Z" fill="#28303F"/>
</svg>
