<svg width="24" height="24" viewBox="0 0 24 24" fill="none" xmlns="http://www.w3.org/2000/svg">
<path fill-rule="evenodd" clip-rule="evenodd" d="M2.75 6C2.75 4.20507 4.20507 2.75 6 2.75H14C14.4142 2.75 14.75 2.41421 14.75 2C14.75 1.58579 14.4142 1.25 14 1.25H6C3.37665 1.25 1.25 3.37665 1.25 6V18C1.25 20.6234 3.37665 22.75 6 22.75H18C20.6234 22.75 22.75 20.6234 22.75 18V9C22.75 8.58579 22.4142 8.25 22 8.25C21.5858 8.25 21.25 8.58579 21.25 9V13.5091C21.2049 13.473 21.158 13.4387 21.1094 13.4063L18.7285 11.819C17.142 10.7613 15.0295 10.9705 13.6812 12.3188L10.3188 15.6812C8.9705 17.0295 6.85802 17.2387 5.27153 16.181L2.75 14.5V6ZM11 8.5C11 9.88071 9.88071 11 8.5 11C7.11929 11 6 9.88071 6 8.5C6 7.11929 7.11929 6 8.5 6C9.88071 6 11 7.11929 11 8.5ZM21.6 3.45004C21.8485 3.11867 21.7814 2.64857 21.45 2.40004C21.1186 2.15152 20.6485 2.21867 20.4 2.55004L18.0918 5.62764C18.0005 5.74935 17.8226 5.76199 17.715 5.65441L16.5303 4.46971C16.2374 4.17682 15.7626 4.17682 15.4697 4.46971C15.1768 4.76261 15.1768 5.23748 15.4697 5.53037L16.6544 6.71507C17.4074 7.46812 18.6528 7.37961 19.2918 6.52764L21.6 3.45004Z" fill="#28303F"/>
</svg>
