<svg width="24" height="24" viewBox="0 0 24 24" fill="none" xmlns="http://www.w3.org/2000/svg">
<path fill-rule="evenodd" clip-rule="evenodd" d="M7.5 9C8.88071 9 10 7.88071 10 6.5C10 5.11929 8.88071 4 7.5 4C6.11929 4 5 5.11929 5 6.5C5 7.88071 6.11929 9 7.5 9ZM21.1094 11.4063L18.7285 9.81898C17.142 8.76132 15.0295 8.9705 13.6812 10.3188L10.3188 13.6812C8.9705 15.0295 6.85802 15.2387 5.27153 14.181L3.5547 13.0365C2.89014 12.5934 2 13.0698 2 13.8685V16C2 18.2091 3.79086 20 6 20H18C20.2091 20 22 18.2091 22 16V13.0704C22 12.4017 21.6658 11.7772 21.1094 11.4063Z" fill="#28303F"/>
</svg>
