<svg width="24" height="24" viewBox="0 0 24 24" fill="none" xmlns="http://www.w3.org/2000/svg">
<path fill-rule="evenodd" clip-rule="evenodd" d="M1.25 6C1.25 3.37665 3.37665 1.25 6 1.25H18C20.6234 1.25 22.75 3.37665 22.75 6V18C22.75 20.6234 20.6234 22.75 18 22.75H6C3.37665 22.75 1.25 20.6234 1.25 18V6ZM6 2.75C4.20507 2.75 2.75 4.20507 2.75 6V14.5L5.27153 16.181C6.85802 17.2387 8.9705 17.0295 10.3188 15.6812L13.6812 12.3188C15.0295 10.9705 17.142 10.7613 18.7285 11.819L21.1094 13.4063C21.158 13.4387 21.2049 13.473 21.25 13.5091V6C21.25 4.20507 19.7949 2.75 18 2.75H6ZM8.5 11C9.88071 11 11 9.88071 11 8.5C11 7.11929 9.88071 6 8.5 6C7.11929 6 6 7.11929 6 8.5C6 9.88071 7.11929 11 8.5 11Z" fill="#28303F"/>
</svg>
