<svg width="24" height="24" viewBox="0 0 24 24" fill="none" xmlns="http://www.w3.org/2000/svg">
<path fill-rule="evenodd" clip-rule="evenodd" d="M2.75 6C2.75 4.20507 4.20507 2.75 6 2.75H15C15.4142 2.75 15.75 2.41421 15.75 2C15.75 1.58579 15.4142 1.25 15 1.25H6C3.37665 1.25 1.25 3.37665 1.25 6V18C1.25 20.6234 3.37665 22.75 6 22.75H18C20.6234 22.75 22.75 20.6234 22.75 18V10C22.75 9.58579 22.4142 9.25 22 9.25C21.5858 9.25 21.25 9.58579 21.25 10V13.5091C21.2049 13.473 21.158 13.4387 21.1094 13.4063L18.7285 11.819C17.142 10.7613 15.0295 10.9705 13.6812 12.3188L10.3188 15.6812C8.9705 17.0295 6.85802 17.2387 5.27153 16.181L2.75 14.5V6ZM19 1.25C19.4142 1.25 19.75 1.58579 19.75 2V6.18934L20.4697 5.46967C20.7626 5.17678 21.2374 5.17678 21.5303 5.46967C21.8232 5.76256 21.8232 6.23744 21.5303 6.53033L20.2374 7.82322C19.554 8.50664 18.446 8.50664 17.7626 7.82322L16.4697 6.53033C16.1768 6.23744 16.1768 5.76256 16.4697 5.46967C16.7626 5.17678 17.2374 5.17678 17.5303 5.46967L18.25 6.18934V2C18.25 1.58579 18.5858 1.25 19 1.25ZM8.5 11C9.88071 11 11 9.88071 11 8.5C11 7.11929 9.88071 6 8.5 6C7.11929 6 6 7.11929 6 8.5C6 9.88071 7.11929 11 8.5 11Z" fill="#28303F"/>
</svg>
