<svg width="24" height="24" viewBox="0 0 24 24" fill="none" xmlns="http://www.w3.org/2000/svg">
<path fill-rule="evenodd" clip-rule="evenodd" d="M2.75 6C2.75 4.20507 4.20507 2.75 6 2.75H14C14.4142 2.75 14.75 2.41421 14.75 2C14.75 1.58579 14.4142 1.25 14 1.25H6C3.37665 1.25 1.25 3.37665 1.25 6V18C1.25 20.6234 3.37665 22.75 6 22.75H18C20.6234 22.75 22.75 20.6234 22.75 18V8.5C22.75 8.08579 22.4142 7.75 22 7.75C21.5858 7.75 21.25 8.08579 21.25 8.5V13.5091C21.2049 13.473 21.158 13.4387 21.1094 13.4063L18.7285 11.819C17.142 10.7613 15.0295 10.9705 13.6812 12.3188L10.3188 15.6812C8.9705 17.0295 6.85802 17.2387 5.27153 16.181L2.75 14.5V6ZM22.75 5C22.75 5.41421 22.4142 5.75 22 5.75H16C15.5858 5.75 15.25 5.41421 15.25 5C15.25 4.58579 15.5858 4.25 16 4.25L22 4.25C22.4142 4.25 22.75 4.58579 22.75 5ZM8.5 11C9.88071 11 11 9.88071 11 8.5C11 7.11929 9.88071 6 8.5 6C7.11929 6 6 7.11929 6 8.5C6 9.88071 7.11929 11 8.5 11Z" fill="#28303F"/>
</svg>
