<svg width="24" height="24" viewBox="0 0 24 24" fill="none" xmlns="http://www.w3.org/2000/svg">
<path fill-rule="evenodd" clip-rule="evenodd" d="M18.0602 2.27098C19.8537 1.6188 21.75 2.94701 21.75 4.85541V12.5C21.75 14.8472 19.8472 16.75 17.5 16.75C15.1528 16.75 13.25 14.8472 13.25 12.5C13.25 10.1528 15.1528 8.25001 17.5 8.25001C18.5488 8.25001 19.5088 8.62988 20.25 9.25953V4.85541C20.25 3.98796 19.3881 3.38422 18.5728 3.68067L12.8893 5.74739C11.605 6.21443 10.75 7.43508 10.75 8.80172V18.5C10.75 20.8472 8.84721 22.75 6.5 22.75C4.15279 22.75 2.25 20.8472 2.25 18.5C2.25 16.1528 4.15279 14.25 6.5 14.25C7.54875 14.25 8.50878 14.6299 9.25 15.2595V8.80172C9.25 6.80432 10.4996 5.0203 12.3767 4.3377L18.0602 2.27098Z" fill="#28303F"/>
</svg>
