<svg width="24" height="24" viewBox="0 0 24 24" fill="none" xmlns="http://www.w3.org/2000/svg">
<path fill-rule="evenodd" clip-rule="evenodd" d="M12.25 4C12.25 2.55087 13.4891 1.09343 15.1648 1.52004C18.9498 2.48363 21.75 5.91386 21.75 10C21.75 12.2186 20.9233 14.2459 19.5623 15.7879C19.2882 16.0985 18.8143 16.1281 18.5037 15.854C18.1931 15.5799 18.1636 15.1059 18.4377 14.7953C19.5661 13.5168 20.25 11.8392 20.25 10C20.25 6.61621 17.9311 3.77214 14.7947 2.97367C14.3296 2.85526 13.75 3.23999 13.75 4V17C13.75 20.1756 11.1756 22.75 8 22.75C4.82436 22.75 2.25 20.1756 2.25 17C2.25 13.8244 4.82436 11.25 8 11.25C9.68372 11.25 11.1984 11.9737 12.25 13.127V4Z" fill="#28303F"/>
</svg>
