<svg width="24" height="24" viewBox="0 0 24 24" fill="none" xmlns="http://www.w3.org/2000/svg">
<path fill-rule="evenodd" clip-rule="evenodd" d="M18.1304 2.16593C19.9111 1.57236 21.75 2.89778 21.75 4.77481V17C21.75 19.071 20.0711 20.75 18 20.75C15.9289 20.75 14.25 19.071 14.25 17C14.25 14.9289 15.9289 13.25 18 13.25C18.8442 13.25 19.6233 13.5289 20.25 13.9997V9.77481C20.25 8.92162 19.4141 8.31915 18.6047 8.58896L11.9723 10.7998C10.6451 11.2421 9.75 12.4841 9.75 13.883V19C9.75 21.071 8.07107 22.75 6 22.75C3.92893 22.75 2.25 21.071 2.25 19C2.25 16.9289 3.92893 15.25 6 15.25C6.8442 15.25 7.62325 15.5289 8.25 15.9997V8.883C8.25 6.83845 9.55829 5.02329 11.4979 4.37675L18.1304 2.16593Z" fill="#28303F"/>
</svg>
