<svg width="24" height="24" viewBox="0 0 24 24" fill="none" xmlns="http://www.w3.org/2000/svg">
<path fill-rule="evenodd" clip-rule="evenodd" d="M6 2C3.79086 2 2 3.79086 2 6V18C2 20.2091 3.79086 22 6 22H18C20.2091 22 22 20.2091 22 18V6C22 3.79086 20.2091 2 18 2H6ZM11.75 9.0034C11.75 8.00503 12.8627 7.40954 13.6934 7.96334L15.6934 9.29667C16.0411 9.52851 16.25 9.9188 16.25 10.3367V12.8162C15.875 12.6245 15.4501 12.5164 15 12.5164C13.4812 12.5164 12.25 13.7476 12.25 15.2664C12.25 16.7852 13.4812 18.0164 15 18.0164C16.5188 18.0164 17.75 16.7852 17.75 15.2664V10.3367C17.75 9.41727 17.2905 8.55863 16.5254 8.0486L14.5254 6.71526C12.6979 5.49691 10.25 6.80699 10.25 9.0034V9.81622C9.87497 9.62451 9.45011 9.51637 9 9.51637C7.48122 9.51637 6.25 10.7476 6.25 12.2664C6.25 13.7852 7.48122 15.0164 9 15.0164C10.5188 15.0164 11.75 13.7852 11.75 12.2664V9.0034Z" fill="#28303F"/>
</svg>
