<svg width="24" height="24" viewBox="0 0 24 24" fill="none" xmlns="http://www.w3.org/2000/svg">
<path fill-rule="evenodd" clip-rule="evenodd" d="M12.25 4C12.25 2.55087 13.4891 1.09343 15.1648 1.52004C18.9498 2.48363 21.75 5.91386 21.75 10C21.75 11.159 21.5243 12.2671 21.1137 13.2814C20.999 13.5646 20.724 13.75 20.4185 13.75C20.1129 13.75 19.8379 13.5646 19.7233 13.2814C19.1709 11.9168 18.2213 10.5152 17.0274 9.46331C16.0413 8.59456 14.9228 7.99253 13.75 7.80891V17C13.75 20.1756 11.1756 22.75 8 22.75C4.82436 22.75 2.25 20.1756 2.25 17C2.25 13.8244 4.82436 11.25 8 11.25C9.68372 11.25 11.1984 11.9737 12.25 13.127V4Z" fill="#28303F"/>
</svg>
