<svg width="24" height="24" viewBox="0 0 24 24" fill="none" xmlns="http://www.w3.org/2000/svg">
<path fill-rule="evenodd" clip-rule="evenodd" d="M17.75 7C17.75 6.58579 17.4142 6.25 17 6.25C16.5858 6.25 16.25 6.58579 16.25 7V10.4137C16.1837 10.3633 16.1132 10.316 16.0385 10.2724L10.0077 6.75451C8.67443 5.97675 7 6.93849 7 8.48207V12V15.5179C7 17.0615 8.67443 18.0232 10.0077 17.2455L16.0385 13.7276C16.1132 13.684 16.1837 13.6367 16.25 13.5863V17C16.25 17.4142 16.5858 17.75 17 17.75C17.4142 17.75 17.75 17.4142 17.75 17V7Z" fill="#28303F"/>
</svg>
