<svg width="24" height="24" viewBox="0 0 24 24" fill="none" xmlns="http://www.w3.org/2000/svg">
<path fill-rule="evenodd" clip-rule="evenodd" d="M14.0077 17.2454L20.0385 13.7275C20.1132 13.6839 20.1837 13.6367 20.25 13.5862V16.5C20.25 16.9142 20.5858 17.25 21 17.25C21.4142 17.25 21.75 16.9142 21.75 16.5V7.5C21.75 7.08579 21.4142 6.75 21 6.75C20.5858 6.75 20.25 7.08579 20.25 7.5V10.4137C20.1837 10.3632 20.1132 10.316 20.0385 10.2724L14.0077 6.75446C12.6744 5.97669 11 6.93844 11 8.48202V9.66661L6.00774 6.75446C4.67443 5.97669 3 6.93844 3 8.48202V15.5179C3 17.0615 4.67443 18.0232 6.00774 17.2454L11 14.3333V15.5179C11 17.0615 12.6744 18.0232 14.0077 17.2454Z" fill="#28303F"/>
</svg>
