<svg width="24" height="24" viewBox="0 0 24 24" fill="none" xmlns="http://www.w3.org/2000/svg">
<path fill-rule="evenodd" clip-rule="evenodd" d="M7.75 2C5.12665 2 3 4.12665 3 6.75V19.25C3 20.7688 4.23122 22 5.75 22H20.25C20.6642 22 21 21.6642 21 21.25C21 20.8358 20.6642 20.5 20.25 20.5H5.75C5.05964 20.5 4.5 19.9404 4.5 19.25C4.5 18.5596 5.05964 18 5.75 18H16.25C18.8734 18 21 15.8734 21 13.25V6.75C21 4.12665 18.8734 2 16.25 2H7.75ZM11.1708 12.9146L14.3167 11.3416C15.4223 10.7889 15.4223 9.21115 14.3167 8.65836L11.1708 7.08541C10.1735 6.58673 9 7.31198 9 8.42705V10V11.5729C9 12.688 10.1735 13.4133 11.1708 12.9146Z" fill="#28303F"/>
</svg>
