<svg width="24" height="24" viewBox="0 0 24 24" fill="none" xmlns="http://www.w3.org/2000/svg">
<path fill-rule="evenodd" clip-rule="evenodd" d="M21.25 12C21.25 6.89137 17.1086 2.75 12 2.75C6.89137 2.75 2.75 6.89137 2.75 12C2.75 17.1086 6.89136 21.25 12 21.25C12.4723 21.25 12.936 21.2147 13.3884 21.1466C13.798 21.085 14.18 21.3671 14.2417 21.7767C14.3033 22.1863 14.0212 22.5683 13.6116 22.6299C13.0855 22.709 12.5473 22.75 12 22.75C6.06294 22.75 1.25 17.9371 1.25 12C1.25 6.06294 6.06294 1.25 12 1.25C17.9371 1.25 22.75 6.06294 22.75 12C22.75 12.4032 22.7278 12.8014 22.6844 13.1935C22.6389 13.6052 22.2683 13.9021 21.8566 13.8566C21.4449 13.8111 21.148 13.4404 21.1935 13.0287C21.2308 12.6912 21.25 12.348 21.25 12ZM18.7678 16.5995L18.5 16.889L18.2322 16.5995C17.4928 15.8002 16.294 15.8002 15.5546 16.5995C14.8151 17.3988 14.8151 18.6948 15.5546 19.4941L17.4289 21.5204C18.0205 22.1599 18.9795 22.1599 19.5711 21.5204L21.4454 19.4941C22.1849 18.6948 22.1849 17.3988 21.4454 16.5995C20.706 15.8002 19.5072 15.8002 18.7678 16.5995ZM14.3167 10.6584L11.1708 9.08541C10.1735 8.58673 9 9.31198 9 10.4271V13.5729C9 14.688 10.1735 15.4133 11.1708 14.9146L14.3167 13.3416C15.4223 12.7889 15.4223 11.2111 14.3167 10.6584Z" fill="#28303F"/>
</svg>
