<svg width="24" height="24" viewBox="0 0 24 24" fill="none" xmlns="http://www.w3.org/2000/svg">
<path fill-rule="evenodd" clip-rule="evenodd" d="M2.75 12C2.75 6.89137 6.89137 2.75 12 2.75C17.1086 2.75 21.25 6.89137 21.25 12C21.25 12.7075 21.1707 13.3957 21.0208 14.0563C20.9291 14.4602 21.1823 14.862 21.5862 14.9536C21.9902 15.0453 22.392 14.7921 22.4836 14.3882C22.6581 13.6194 22.75 12.82 22.75 12C22.75 6.06294 17.9371 1.25 12 1.25C6.06294 1.25 1.25 6.06294 1.25 12C1.25 17.9371 6.06294 22.75 12 22.75C12.82 22.75 13.6194 22.6581 14.3882 22.4836C14.7921 22.392 15.0453 21.9902 14.9536 21.5862C14.862 21.1823 14.4602 20.9291 14.0563 21.0208C13.3957 21.1707 12.7075 21.25 12 21.25C6.89137 21.25 2.75 17.1086 2.75 12ZM14.3167 10.6584L11.1708 9.08541C10.1735 8.58673 9 9.31198 9 10.4271V13.5729C9 14.688 10.1735 15.4133 11.1708 14.9146L14.3167 13.3416C15.4223 12.7889 15.4223 11.2111 14.3167 10.6584ZM19 15.25C19.4142 15.25 19.75 15.5858 19.75 16V18.25H22C22.4142 18.25 22.75 18.5858 22.75 19C22.75 19.4142 22.4142 19.75 22 19.75H19.75V22C19.75 22.4142 19.4142 22.75 19 22.75C18.5858 22.75 18.25 22.4142 18.25 22V19.75H16C15.5858 19.75 15.25 19.4142 15.25 19C15.25 18.5858 15.5858 18.25 16 18.25H18.25V16C18.25 15.5858 18.5858 15.25 19 15.25Z" fill="#28303F"/>
</svg>
