<svg width="24" height="24" viewBox="0 0 24 24" fill="none" xmlns="http://www.w3.org/2000/svg">
<path fill-rule="evenodd" clip-rule="evenodd" d="M2 6C2 3.79086 3.79086 2 6 2H14C16.2091 2 18 3.79086 18 6V14C18 16.2091 16.2091 18 14 18H6C3.79086 18 2 16.2091 2 14V6ZM9.25 5.25C8.83579 5.25 8.5 5.58579 8.5 6V10.208C8.19377 10.0742 7.85555 10 7.5 10C6.11929 10 5 11.1193 5 12.5C5 13.8807 6.11929 15 7.5 15C8.88071 15 10 13.8807 10 12.5V6.81597C11.9895 7.1702 13.5 8.9087 13.5 11C13.5 11.4142 13.8358 11.75 14.25 11.75C14.6642 11.75 15 11.4142 15 11C15 7.82436 12.4256 5.25 9.25 5.25ZM10 22C8.32132 22 6.88416 20.9659 6.29077 19.5H14C17.0376 19.5 19.5 17.0376 19.5 14V6.29077C20.9659 6.88416 22 8.32132 22 10V18C22 20.2092 20.2092 22 18 22H10Z" fill="#28303F"/>
</svg>
