<svg width="24" height="24" viewBox="0 0 24 24" fill="none" xmlns="http://www.w3.org/2000/svg">
<path fill-rule="evenodd" clip-rule="evenodd" d="M12 2.75C6.89137 2.75 2.75 6.89137 2.75 12C2.75 17.1086 6.89137 21.25 12 21.25C12.7075 21.25 13.3957 21.1707 14.0563 21.0208C14.4602 20.9291 14.862 21.1823 14.9536 21.5862C15.0453 21.9902 14.7921 22.392 14.3882 22.4836C13.6194 22.6581 12.82 22.75 12 22.75C6.06294 22.75 1.25 17.9371 1.25 12C1.25 6.06294 6.06294 1.25 12 1.25C17.9371 1.25 22.75 6.06294 22.75 12C22.75 12.82 22.6581 13.6194 22.4836 14.3882C22.392 14.7921 21.9902 15.0453 21.5862 14.9536C21.1823 14.862 20.9291 14.4602 21.0208 14.0563C21.1707 13.3957 21.25 12.7075 21.25 12C21.25 6.89137 17.1086 2.75 12 2.75ZM11.1708 9.08541L14.3167 10.6584C15.4223 11.2111 15.4223 12.7889 14.3167 13.3416L11.1708 14.9146C10.1735 15.4133 9 14.688 9 13.5729V10.4271C9 9.31198 10.1735 8.58673 11.1708 9.08541ZM18.5303 17.4697C18.2374 17.1768 17.7626 17.1768 17.4697 17.4697C17.1768 17.7626 17.1768 18.2374 17.4697 18.5303L18.9393 20L17.4697 21.4697C17.1768 21.7626 17.1768 22.2374 17.4697 22.5303C17.7626 22.8232 18.2374 22.8232 18.5303 22.5303L20 21.0607L21.4697 22.5303C21.7626 22.8232 22.2374 22.8232 22.5303 22.5303C22.8232 22.2374 22.8232 21.7626 22.5303 21.4697L21.0607 20L22.5303 18.5303C22.8232 18.2374 22.8232 17.7626 22.5303 17.4697C22.2374 17.1768 21.7626 17.1768 21.4697 17.4697L20 18.9393L18.5303 17.4697Z" fill="#28303F"/>
</svg>
