<svg width="24" height="24" viewBox="0 0 24 24" fill="none" xmlns="http://www.w3.org/2000/svg">
<path fill-rule="evenodd" clip-rule="evenodd" d="M3.75 7C3.75 6.58579 3.41421 6.25 3 6.25C2.58579 6.25 2.25 6.58579 2.25 7V17C2.25 17.4142 2.58579 17.75 3 17.75C3.41421 17.75 3.75 17.4142 3.75 17V13.5623C3.82512 13.6218 3.90588 13.6771 3.99229 13.7275L10.023 17.2454C11.3563 18.0232 13.0308 17.0615 13.0308 15.5179V14.3333L18.023 17.2454C19.3563 18.0232 21.0308 17.0615 21.0308 15.5179V8.48202C21.0308 6.93844 19.3563 5.97669 18.023 6.75446L13.0308 9.66661V8.48202C13.0308 6.93844 11.3563 5.97669 10.023 6.75446L3.99229 10.2724C3.90588 10.3228 3.82512 10.3781 3.75 10.4375V7Z" fill="#28303F"/>
</svg>
