<svg width="24" height="24" viewBox="0 0 24 24" fill="none" xmlns="http://www.w3.org/2000/svg">
<path fill-rule="evenodd" clip-rule="evenodd" d="M7.75 7C7.75 6.58579 7.41421 6.25 7 6.25C6.58579 6.25 6.25 6.58579 6.25 7V17C6.25 17.4142 6.58579 17.75 7 17.75C7.41421 17.75 7.75 17.4142 7.75 17V13.5863C7.81629 13.6367 7.8868 13.684 7.96152 13.7276L13.9923 17.2455C15.3256 18.0232 17 17.0615 17 15.5179V12V8.48207C17 6.93849 15.3256 5.97675 13.9923 6.75451L7.96153 10.2724C7.8868 10.316 7.81629 10.3633 7.75 10.4137V7Z" fill="#28303F"/>
</svg>
