<svg width="24" height="24" viewBox="0 0 24 24" fill="none" xmlns="http://www.w3.org/2000/svg">
<path fill-rule="evenodd" clip-rule="evenodd" d="M18 4C20.2091 4 22 5.79086 22 8V14C22 15.5816 21.0821 16.9487 19.75 17.5979V19C19.75 19.4142 19.4142 19.75 19 19.75C18.5858 19.75 18.25 19.4142 18.25 19V17.9923C18.1673 17.9974 18.084 18 18 18L6 18C5.91604 18 5.83268 17.9974 5.75 17.9923V19C5.75 19.4142 5.41421 19.75 5 19.75C4.58579 19.75 4.25 19.4142 4.25 19V17.5979C2.91788 16.9487 2 15.5816 2 14V8C2 5.79086 3.79086 4 6 4H18ZM18 11C18 12.6569 16.6569 14 15 14C13.3431 14 12 12.6569 12 11C12 9.34315 13.3431 8 15 8C16.6569 8 18 9.34315 18 11ZM6 8.25C5.58579 8.25 5.25 8.58579 5.25 9C5.25 9.41421 5.58579 9.75 6 9.75H9C9.41421 9.75 9.75 9.41421 9.75 9C9.75 8.58579 9.41421 8.25 9 8.25H6ZM5.25 13C5.25 12.5858 5.58579 12.25 6 12.25H9C9.41421 12.25 9.75 12.5858 9.75 13C9.75 13.4142 9.41421 13.75 9 13.75H6C5.58579 13.75 5.25 13.4142 5.25 13ZM15 10C15.5523 10 16 10.4477 16 11C16 11.5523 15.5523 12 15 12C14.4477 12 14 11.5523 14 11C14 10.4477 14.4477 10 15 10Z" fill="#28303F"/>
</svg>
