<svg width="24" height="24" viewBox="0 0 24 24" fill="none" xmlns="http://www.w3.org/2000/svg">
<path fill-rule="evenodd" clip-rule="evenodd" d="M9.42229 9.78889L5.89443 11.5528C4.56462 12.2177 3 11.2507 3 9.76396V8.00003V6.2361C3 4.74934 4.56463 3.78235 5.89443 4.44725L9.42229 6.21118C10.8964 6.94823 10.8964 9.05184 9.42229 9.78889ZM13.25 6.00003C13.25 5.58582 13.5858 5.25003 14 5.25003H21C21.4142 5.25003 21.75 5.58582 21.75 6.00003C21.75 6.41425 21.4142 6.75003 21 6.75003H14C13.5858 6.75003 13.25 6.41425 13.25 6.00003ZM14 10.25C13.5858 10.25 13.25 10.5858 13.25 11C13.25 11.4142 13.5858 11.75 14 11.75H21C21.4142 11.75 21.75 11.4142 21.75 11C21.75 10.5858 21.4142 10.25 21 10.25H14ZM2.25 16C2.25 15.5858 2.58579 15.25 3 15.25H21C21.4142 15.25 21.75 15.5858 21.75 16C21.75 16.4142 21.4142 16.75 21 16.75H3C2.58579 16.75 2.25 16.4142 2.25 16ZM3 20.25C2.58579 20.25 2.25 20.5858 2.25 21C2.25 21.4142 2.58579 21.75 3 21.75H21C21.4142 21.75 21.75 21.4142 21.75 21C21.75 20.5858 21.4142 20.25 21 20.25H3Z" fill="#28303F"/>
</svg>
