<svg width="24" height="24" viewBox="0 0 24 24" fill="none" xmlns="http://www.w3.org/2000/svg">
<path fill-rule="evenodd" clip-rule="evenodd" d="M17.5303 4.46967C17.2374 4.17678 16.7625 4.17678 16.4696 4.46967C16.1767 4.76256 16.1767 5.23744 16.4696 5.53033L17.1893 6.25H9.99997C7.37662 6.25 5.24997 8.37665 5.24997 11V12C5.24997 12.4142 5.58576 12.75 5.99997 12.75C6.41418 12.75 6.74997 12.4142 6.74997 12V11C6.74997 9.20507 8.20505 7.75 9.99997 7.75H17.1893L16.4696 8.46967C16.1767 8.76256 16.1767 9.23744 16.4696 9.53033C16.7625 9.82322 17.2374 9.82322 17.5303 9.53033L18.8232 8.23744C19.5066 7.55402 19.5066 6.44598 18.8232 5.76256L17.5303 4.46967ZM6.46964 19.5303C6.76253 19.8232 7.23741 19.8232 7.5303 19.5303C7.82319 19.2374 7.82319 18.7626 7.5303 18.4697L6.81063 17.75H14C16.6233 17.75 18.75 15.6234 18.75 13V12C18.75 11.5858 18.4142 11.25 18 11.25C17.5858 11.25 17.25 11.5858 17.25 12V13C17.25 14.7949 15.7949 16.25 14 16.25H6.81063L7.5303 15.5303C7.82319 15.2374 7.82319 14.7626 7.5303 14.4697C7.23741 14.1768 6.76253 14.1768 6.46964 14.4697L5.17675 15.7626C4.49333 16.446 4.49333 17.554 5.17675 18.2374L6.46964 19.5303Z" fill="#28303F"/>
</svg>
