<svg width="24" height="24" viewBox="0 0 24 24" fill="none" xmlns="http://www.w3.org/2000/svg">
<path fill-rule="evenodd" clip-rule="evenodd" d="M2.75 12C2.75 6.89137 6.89137 2.75 12 2.75C15.0254 2.75 17.7115 4.20163 19.4004 6.44953C19.5679 6.67245 19.8452 6.78406 20.1204 6.7393C20.3956 6.69453 20.6233 6.50078 20.7115 6.23627L21.7115 3.23724C21.8425 2.8443 21.6302 2.41953 21.2372 2.28851C20.8443 2.15749 20.4195 2.36982 20.2885 2.76276L19.7072 4.50599C17.7548 2.49849 15.0231 1.25 12 1.25C6.06294 1.25 1.25 6.06294 1.25 12C1.25 17.9371 6.06294 22.75 12 22.75C17.9371 22.75 22.75 17.9371 22.75 12C22.75 11.5858 22.4142 11.25 22 11.25C21.5858 11.25 21.25 11.5858 21.25 12C21.25 17.1086 17.1086 21.25 12 21.25C6.89137 21.25 2.75 17.1086 2.75 12ZM14.3167 10.6584L11.1708 9.08541C10.1735 8.58673 9 9.31198 9 10.4271V13.5729C9 14.688 10.1735 15.4133 11.1708 14.9146L14.3167 13.3416C15.4223 12.7889 15.4223 11.2111 14.3167 10.6584Z" fill="#28303F"/>
</svg>
