<svg width="24" height="24" viewBox="0 0 24 24" fill="none" xmlns="http://www.w3.org/2000/svg">
<path fill-rule="evenodd" clip-rule="evenodd" d="M17.5303 5.46967C17.2374 5.17678 16.7626 5.17678 16.4697 5.46967C16.1768 5.76256 16.1768 6.23744 16.4697 6.53033L17.1893 7.25H13C12.5858 7.25 12.25 7.58579 12.25 8C12.25 8.41421 12.5858 8.75 13 8.75H17.1893L16.4697 9.46967C16.1768 9.76256 16.1768 10.2374 16.4697 10.5303C16.7626 10.8232 17.2374 10.8232 17.5303 10.5303L18.8232 9.23744C19.5066 8.55402 19.5066 7.44598 18.8232 6.76256L17.5303 5.46967ZM5 15.25C4.58579 15.25 4.25 15.5858 4.25 16C4.25 16.4142 4.58579 16.75 5 16.75H11C11.4142 16.75 11.75 16.4142 11.75 16C11.75 15.5858 11.4142 15.25 11 15.25H5ZM17.5303 18.5303C17.2374 18.8232 16.7626 18.8232 16.4697 18.5303C16.1768 18.2374 16.1768 17.7626 16.4697 17.4697L17.1893 16.75H16.4721C14.673 16.75 13.0282 15.7335 12.2236 14.1243L10.4348 10.5466C9.88423 9.44551 8.75887 8.75 7.52786 8.75H5C4.58579 8.75 4.25 8.41421 4.25 8C4.25 7.58579 4.58579 7.25 5 7.25H7.52786C9.32703 7.25 10.9718 8.26651 11.7764 9.87574L13.5652 13.4534C14.1158 14.5545 15.2411 15.25 16.4721 15.25H17.1893L16.4697 14.5303C16.1768 14.2374 16.1768 13.7626 16.4697 13.4697C16.7626 13.1768 17.2374 13.1768 17.5303 13.4697L18.8232 14.7626C19.5066 15.446 19.5066 16.554 18.8232 17.2374L17.5303 18.5303Z" fill="#28303F"/>
</svg>
