<svg width="24" height="24" viewBox="0 0 24 24" fill="none" xmlns="http://www.w3.org/2000/svg">
<path fill-rule="evenodd" clip-rule="evenodd" d="M2 3.25C1.58579 3.25 1.25 3.58579 1.25 4C1.25 4.41421 1.58579 4.75 2 4.75H13C13.4142 4.75 13.75 4.41421 13.75 4C13.75 3.58579 13.4142 3.25 13 3.25H2ZM2 7.25C1.58579 7.25 1.25 7.58579 1.25 8C1.25 8.41421 1.58579 8.75 2 8.75H13C13.4142 8.75 13.75 8.41421 13.75 8C13.75 7.58579 13.4142 7.25 13 7.25H2ZM17 3.25C16.5858 3.25 16.25 3.58579 16.25 4V12.5359C15.4003 11.7384 14.2572 11.25 13 11.25C10.3766 11.25 8.25 13.3766 8.25 16C8.25 18.6234 10.3766 20.75 13 20.75C15.6234 20.75 17.75 18.6234 17.75 16V4.81597C19.7395 5.1702 21.25 6.9087 21.25 9C21.25 9.95763 20.9342 10.8393 20.4007 11.5496C20.1519 11.8808 20.2187 12.3509 20.5499 12.5997C20.8811 12.8484 21.3513 12.7816 21.6 12.4504C22.3219 11.4894 22.75 10.2936 22.75 9C22.75 5.82436 20.1756 3.25 17 3.25ZM2 11.25C1.58579 11.25 1.25 11.5858 1.25 12C1.25 12.4142 1.58579 12.75 2 12.75H6C6.41421 12.75 6.75 12.4142 6.75 12C6.75 11.5858 6.41421 11.25 6 11.25H2Z" fill="#28303F"/>
</svg>
