<svg width="24" height="24" viewBox="0 0 24 24" fill="none" xmlns="http://www.w3.org/2000/svg">
<path fill-rule="evenodd" clip-rule="evenodd" d="M9.25 4C9.25 3.58579 9.58579 3.25 10 3.25C13.1756 3.25 15.75 5.82436 15.75 9C15.75 10.2936 15.3219 11.4894 14.6 12.4504C14.3513 12.7816 13.8811 12.8484 13.5499 12.5997C13.2187 12.3509 13.1519 11.8808 13.4007 11.5496C13.9342 10.8393 14.25 9.95763 14.25 9C14.25 6.9087 12.7395 5.1702 10.75 4.81597V16C10.75 18.6234 8.62335 20.75 6 20.75C3.37665 20.75 1.25 18.6234 1.25 16C1.25 13.3766 3.37665 11.25 6 11.25C7.25721 11.25 8.40035 11.7384 9.25 12.5359V4ZM22 16.25C22.4142 16.25 22.75 15.9142 22.75 15.5C22.75 15.0858 22.4142 14.75 22 14.75H14C13.5858 14.75 13.25 15.0858 13.25 15.5C13.25 15.9142 13.5858 16.25 14 16.25H22ZM22.75 11C22.75 11.4142 22.4142 11.75 22 11.75H18C17.5858 11.75 17.25 11.4142 17.25 11C17.25 10.5858 17.5858 10.25 18 10.25H22C22.4142 10.25 22.75 10.5858 22.75 11ZM22 20.75C22.4142 20.75 22.75 20.4142 22.75 20C22.75 19.5858 22.4142 19.25 22 19.25H14C13.5858 19.25 13.25 19.5858 13.25 20C13.25 20.4142 13.5858 20.75 14 20.75H22Z" fill="#28303F"/>
</svg>
