<svg width="24" height="24" viewBox="0 0 24 24" fill="none" xmlns="http://www.w3.org/2000/svg">
<path fill-rule="evenodd" clip-rule="evenodd" d="M7.53323 7.60208L11.8 4.40345C13.1185 3.41504 15 4.35538 15 6.00272V17.9973C15 19.6446 13.1185 20.585 11.8 19.5966L7.53323 16.3979C7.1871 16.1384 6.76617 15.9982 6.33358 15.9982H4C2.89543 15.9982 2 15.1032 2 13.9991V10.0009C2 8.89684 2.89543 8.00181 4 8.00181H6.33358C6.76617 8.00181 7.1871 7.86156 7.53323 7.60208ZM17.3992 6.36499C16.9933 6.28259 16.5974 6.54487 16.515 6.9508C16.4326 7.35674 16.6949 7.75261 17.1008 7.83501C19.0404 8.22873 20.5 9.94474 20.5 12C20.5 14.0552 19.0404 15.7712 17.1008 16.165C16.6949 16.2474 16.4326 16.6432 16.515 17.0492C16.5974 17.4551 16.9933 17.7174 17.3992 17.635C20.0241 17.1021 22 14.7827 22 12C22 9.21731 20.0241 6.89782 17.3992 6.36499ZM17.6256 9.61834C17.267 9.41093 16.8082 9.53346 16.6008 9.892C16.3934 10.2505 16.5159 10.7093 16.8745 10.9168C17.2501 11.134 17.5 11.5382 17.5 12C17.5 12.4617 17.2501 12.866 16.8745 13.0832C16.5159 13.2906 16.3934 13.7494 16.6008 14.108C16.8082 14.4665 17.267 14.589 17.6256 14.3816C18.4456 13.9073 19 13.0188 19 12C19 10.9811 18.4456 10.0927 17.6256 9.61834Z" fill="#28303F"/>
</svg>
