<svg width="24" height="24" viewBox="0 0 24 24" fill="none" xmlns="http://www.w3.org/2000/svg">
<path fill-rule="evenodd" clip-rule="evenodd" d="M7.53323 7.60208L11.8 4.40345C13.1185 3.41504 15 4.35538 15 6.00272V17.9973C15 19.6446 13.1185 20.585 11.8 19.5966L7.53323 16.3979C7.1871 16.1384 6.76617 15.9982 6.33358 15.9982H4C2.89543 15.9982 2 15.1032 2 13.9991V10.0009C2 8.89684 2.89543 8.00181 4 8.00181H6.33358C6.76617 8.00181 7.1871 7.86156 7.53323 7.60208ZM19.25 14.75C18.8358 14.75 18.5 14.4142 18.5 14V12.75H17.25C16.8358 12.75 16.5 12.4142 16.5 12C16.5 11.5858 16.8358 11.25 17.25 11.25H18.5V10C18.5 9.58579 18.8358 9.25 19.25 9.25C19.6642 9.25 20 9.58579 20 10V11.25H21.25C21.6642 11.25 22 11.5858 22 12C22 12.4142 21.6642 12.75 21.25 12.75H20V14C20 14.4142 19.6642 14.75 19.25 14.75Z" fill="#28303F"/>
</svg>
