<svg width="24" height="24" viewBox="0 0 24 24" fill="none" xmlns="http://www.w3.org/2000/svg">
<path fill-rule="evenodd" clip-rule="evenodd" d="M7.53323 7.60208L11.8 4.40345C13.1185 3.41504 15 4.35538 15 6.00272V17.9973C15 19.6446 13.1185 20.585 11.8 19.5966L7.53323 16.3979C7.1871 16.1384 6.76617 15.9982 6.33358 15.9982H4C2.89543 15.9982 2 15.1032 2 13.9991V10.0009C2 8.89684 2.89543 8.00181 4 8.00181H6.33358C6.76617 8.00181 7.1871 7.86156 7.53323 7.60208ZM17.5606 9.4394C17.2677 9.1465 16.7928 9.1465 16.4999 9.4394C16.2071 9.73229 16.2071 10.2072 16.4999 10.5001L17.9696 11.9697L16.4999 13.4394C16.2071 13.7323 16.2071 14.2072 16.4999 14.5001C16.7928 14.7929 17.2677 14.7929 17.5606 14.5001L19.0303 13.0304L20.4999 14.5001C20.7928 14.7929 21.2677 14.7929 21.5606 14.5001C21.8535 14.2072 21.8535 13.7323 21.5606 13.4394L20.0909 11.9697L21.5606 10.5001C21.8535 10.2072 21.8535 9.73229 21.5606 9.4394C21.2677 9.1465 20.7928 9.1465 20.4999 9.4394L19.0303 10.9091L17.5606 9.4394Z" fill="#28303F"/>
</svg>
