<svg width="24" height="24" viewBox="0 0 24 24" fill="none" xmlns="http://www.w3.org/2000/svg">
<path fill-rule="evenodd" clip-rule="evenodd" d="M22 7.25H15.4573L19.0982 2.15265C20.7734 2.62992 22 4.17171 22 6V7.25ZM2 8.75H22V18C22 20.2091 20.2091 22 18 22H6C3.79086 22 2 20.2091 2 18V8.75ZM5.61397 7.25H2V6C2 3.79086 3.79086 2 6 2H9.36397L5.61397 7.25ZM7.45733 7.25L11.2073 2H17.3639L13.6139 7.25H7.45733ZM15.5645 13.4939C15.8372 13.1822 15.8056 12.7083 15.4939 12.4356C15.1822 12.1628 14.7084 12.1944 14.4356 12.5061L11.5657 15.786C11.4776 15.8867 11.3258 15.9002 11.2214 15.8166L9.46855 14.4144C9.1451 14.1556 8.67313 14.208 8.41438 14.5315C8.15562 14.8549 8.20806 15.3269 8.53151 15.5857L10.2843 16.9879C11.0156 17.5729 12.0779 17.4786 12.6946 16.7738L15.5645 13.4939Z" fill="#28303F"/>
</svg>
