<svg width="24" height="24" viewBox="0 0 24 24" fill="none" xmlns="http://www.w3.org/2000/svg">
<path fill-rule="evenodd" clip-rule="evenodd" d="M22 7.25H15.4573L19.0982 2.15265C20.7734 2.62992 22 4.17171 22 6V7.25ZM2 8.75H22V18C22 20.2091 20.2091 22 18 22H6C3.79086 22 2 20.2091 2 18V8.75ZM5.61397 7.25H2V6C2 3.79086 3.79086 2 6 2H9.36397L5.61397 7.25ZM7.45733 7.25L11.2073 2H17.3639L13.6139 7.25H7.45733ZM10.5303 12.4697C10.2374 12.1768 9.76256 12.1768 9.46967 12.4697C9.17678 12.7626 9.17678 13.2374 9.46967 13.5303L10.9393 15L9.46967 16.4697C9.17678 16.7626 9.17678 17.2374 9.46967 17.5303C9.76256 17.8232 10.2374 17.8232 10.5303 17.5303L12 16.0607L13.4697 17.5303C13.7626 17.8232 14.2374 17.8232 14.5303 17.5303C14.8232 17.2374 14.8232 16.7626 14.5303 16.4697L13.0607 15L14.5303 13.5303C14.8232 13.2374 14.8232 12.7626 14.5303 12.4697C14.2374 12.1768 13.7626 12.1768 13.4697 12.4697L12 13.9393L10.5303 12.4697Z" fill="#28303F"/>
</svg>
