<svg width="24" height="24" viewBox="0 0 24 24" fill="none" xmlns="http://www.w3.org/2000/svg">
<path fill-rule="evenodd" clip-rule="evenodd" d="M22 7.25H15.4573L19.0982 2.15265C20.7734 2.62992 22 4.17171 22 6V7.25ZM2 8.75H22V18C22 20.2091 20.2091 22 18 22H6C3.79086 22 2 20.2091 2 18V8.75ZM5.61397 7.25H2V6C2 3.79086 3.79086 2 6 2H9.36397L5.61397 7.25ZM7.45733 7.25L11.2073 2H17.3639L13.6139 7.25H7.45733ZM15 15.75C15.4142 15.75 15.75 15.4142 15.75 15C15.75 14.5858 15.4142 14.25 15 14.25H9C8.58579 14.25 8.25 14.5858 8.25 15C8.25 15.4142 8.58579 15.75 9 15.75H15Z" fill="#28303F"/>
</svg>
