<svg width="24" height="24" viewBox="0 0 24 24" fill="none" xmlns="http://www.w3.org/2000/svg">
<path fill-rule="evenodd" clip-rule="evenodd" d="M22.75 2C22.75 1.58579 22.4142 1.25 22 1.25C21.5858 1.25 21.25 1.58579 21.25 2V4.06325C21.25 4.43422 21.0852 4.78603 20.8002 5.02353L19.8552 5.81103C18.024 3.48993 15.186 2 12 2C6.47715 2 2 6.47715 2 12C2 17.5228 6.47715 22 12 22C17.5228 22 22 17.5228 22 12C22 10.204 21.5265 8.51851 20.6976 7.06167L21.7605 6.17586C22.3875 5.65338 22.75 4.87939 22.75 4.06325V2ZM20.6975 7.06167C20.4479 6.62298 20.1661 6.20503 19.8552 5.81103L15.5199 9.42383C15.2017 9.68901 15.1587 10.1619 15.4239 10.4801C15.689 10.7983 16.1619 10.8413 16.4802 10.5762L20.6975 7.06167ZM12 17.25C9.1005 17.25 6.75 14.8995 6.75 12C6.75 11.5858 6.41421 11.25 6 11.25C5.58579 11.25 5.25 11.5858 5.25 12C5.25 15.7279 8.27208 18.75 12 18.75C12.4142 18.75 12.75 18.4142 12.75 18C12.75 17.5858 12.4142 17.25 12 17.25ZM12 10C13.1046 10 14 10.8954 14 12C14 13.1046 13.1046 14 12 14C10.8954 14 10 13.1046 10 12C10 10.8954 10.8954 10 12 10Z" fill="#28303F"/>
</svg>
