<svg width="24" height="24" viewBox="0 0 24 24" fill="none" xmlns="http://www.w3.org/2000/svg">
<path fill-rule="evenodd" clip-rule="evenodd" d="M6 2C3.79086 2 2 3.79086 2 6V18C2 20.2091 3.79086 22 6 22H18C20.2091 22 22 20.2091 22 18V6C22 3.79086 20.2091 2 18 2H6ZM10.5 7.25C11.7426 7.25 12.75 8.25736 12.75 9.5V14.5C12.75 14.9142 13.0858 15.25 13.5 15.25C13.9142 15.25 14.25 14.9142 14.25 14.5C14.25 13.2574 15.2574 12.25 16.5 12.25H18C18.4142 12.25 18.75 12.5858 18.75 13C18.75 13.4142 18.4142 13.75 18 13.75H16.5C16.0858 13.75 15.75 14.0858 15.75 14.5C15.75 15.7426 14.7426 16.75 13.5 16.75C12.2574 16.75 11.25 15.7426 11.25 14.5V9.5C11.25 9.08579 10.9142 8.75 10.5 8.75C10.0858 8.75 9.75 9.08579 9.75 9.5V10C9.75 11.5188 8.51878 12.75 7 12.75H6C5.58579 12.75 5.25 12.4142 5.25 12C5.25 11.5858 5.58579 11.25 6 11.25H7C7.69036 11.25 8.25 10.6904 8.25 10V9.5C8.25 8.25736 9.25736 7.25 10.5 7.25Z" fill="#28303F"/>
</svg>
