<svg width="24" height="24" viewBox="0 0 24 24" fill="none" xmlns="http://www.w3.org/2000/svg">
<circle cx="6" cy="4" r="2" fill="#28303F"/>
<ellipse opacity="0.4" cx="6" cy="8" rx="3" ry="2" fill="#28303F"/>
<circle cx="18" cy="16" r="2" fill="#28303F"/>
<path fill-rule="evenodd" clip-rule="evenodd" d="M11.25 2C11.25 1.58579 11.5858 1.25 12 1.25C17.9371 1.25 22.75 6.06294 22.75 12C22.75 12.4142 22.4142 12.75 22 12.75C21.5858 12.75 21.25 12.4142 21.25 12C21.25 6.89137 17.1086 2.75 12 2.75C11.5858 2.75 11.25 2.41421 11.25 2ZM2 11.25C2.41421 11.25 2.75 11.5858 2.75 12C2.75 17.1086 6.89137 21.25 12 21.25C12.4142 21.25 12.75 21.5858 12.75 22C12.75 22.4142 12.4142 22.75 12 22.75C6.06294 22.75 1.25 17.9371 1.25 12C1.25 11.5858 1.58579 11.25 2 11.25Z" fill="#28303F"/>
<ellipse opacity="0.4" cx="18" cy="20" rx="3" ry="2" fill="#28303F"/>
</svg>
