<svg width="24" height="24" viewBox="0 0 24 24" fill="none" xmlns="http://www.w3.org/2000/svg">
<path opacity="0.4" d="M20 11C20 6.02944 15.9706 2 11 2C6.02944 2 2 6.02944 2 11C2 15.9706 6.02944 20 11 20C15.9706 20 20 15.9706 20 11Z" fill="#28303F"/>
<path fill-rule="evenodd" clip-rule="evenodd" d="M10.8691 13.75C9.7977 13.753 8.73255 14.0456 7.30659 14.6844C6.92858 14.8538 6.48485 14.6847 6.31549 14.3066C6.14614 13.9286 6.31529 13.4849 6.69329 13.3156C8.21316 12.6346 9.49789 12.2538 10.865 12.25C12.226 12.2463 13.5949 12.6166 15.2833 13.3056C15.6668 13.4621 15.8509 13.8999 15.6943 14.2834C15.5378 14.6669 15.1001 14.8509 14.7166 14.6944C13.1048 14.0366 11.9465 13.747 10.8691 13.75Z" fill="#28303F"/>
<circle r="3" transform="matrix(1 0 0 -1 11 8)" fill="#28303F"/>
<path fill-rule="evenodd" clip-rule="evenodd" d="M18.75 16C18.75 15.5858 18.4142 15.25 18 15.25C17.5858 15.25 17.25 15.5858 17.25 16V17.25H16C15.5858 17.25 15.25 17.5858 15.25 18C15.25 18.4142 15.5858 18.75 16 18.75H17.25V20C17.25 20.4142 17.5858 20.75 18 20.75C18.4142 20.75 18.75 20.4142 18.75 20V18.75H20C20.4142 18.75 20.75 18.4142 20.75 18C20.75 17.5858 20.4142 17.25 20 17.25H18.75V16Z" fill="#28303F"/>
</svg>
