<svg width="24" height="24" viewBox="0 0 24 24" fill="none" xmlns="http://www.w3.org/2000/svg">
<ellipse opacity="0.4" cx="10" cy="17" rx="7" ry="4" fill="#28303F"/>
<circle cx="10" cy="7" r="4" fill="#28303F"/>
<path fill-rule="evenodd" clip-rule="evenodd" d="M16.5748 8.57481C16.8555 8.29408 17.3107 8.29408 17.5914 8.57481L19.0001 9.98345L20.4087 8.57481C20.6894 8.29408 21.1446 8.29408 21.4253 8.57481C21.7061 8.85554 21.7061 9.31069 21.4253 9.59142L20.0167 11.0001L21.4253 12.4087C21.7061 12.6894 21.7061 13.1446 21.4253 13.4253C21.1446 13.7061 20.6894 13.7061 20.4087 13.4253L19.0001 12.0167L17.5914 13.4253C17.3107 13.7061 16.8555 13.7061 16.5748 13.4253C16.2941 13.1446 16.2941 12.6894 16.5748 12.4087L17.9834 11.0001L16.5748 9.59142C16.2941 9.31069 16.2941 8.85554 16.5748 8.57481Z" fill="#28303F"/>
</svg>
