<svg width="24" height="24" viewBox="0 0 24 24" fill="none" xmlns="http://www.w3.org/2000/svg">
<circle opacity="0.4" r="9" transform="matrix(1 0 0 -1 11 11)" fill="#28303F"/>
<path fill-rule="evenodd" clip-rule="evenodd" d="M10.8691 13.75C9.7977 13.753 8.73255 14.0456 7.30659 14.6844C6.92858 14.8538 6.48485 14.6847 6.31549 14.3066C6.14614 13.9286 6.31529 13.4849 6.69329 13.3156C8.21316 12.6346 9.49789 12.2538 10.865 12.25C12.226 12.2463 13.5949 12.6166 15.2833 13.3056C15.6668 13.4621 15.8509 13.8999 15.6943 14.2834C15.5378 14.6669 15.1001 14.8509 14.7166 14.6944C13.1048 14.0366 11.9465 13.747 10.8691 13.75Z" fill="#28303F"/>
<circle r="3" transform="matrix(1 0 0 -1 11 8)" fill="#28303F"/>
<path fill-rule="evenodd" clip-rule="evenodd" d="M18 21C19.6568 21 21 19.6568 21 18C21 17.3749 20.8088 16.7944 20.4817 16.3139L16.3139 20.4816C16.0014 20.2689 15.7312 19.9987 15.5184 19.6861L19.6862 15.5184C19.2057 15.1912 18.6252 15 18 15C16.3431 15 15 16.3431 15 18C15 19.6568 16.3431 21 18 21Z" fill="#28303F"/>
</svg>
