<svg width="24" height="24" viewBox="0 0 24 24" fill="none" xmlns="http://www.w3.org/2000/svg">
<circle opacity="0.4" r="9" transform="matrix(1 0 0 -1 11 11)" fill="#28303F"/>
<path fill-rule="evenodd" clip-rule="evenodd" d="M10.8691 13.75C9.7977 13.753 8.73255 14.0456 7.30659 14.6844C6.92858 14.8538 6.48485 14.6847 6.31549 14.3066C6.14614 13.9286 6.31529 13.4849 6.69329 13.3156C8.21316 12.6346 9.49789 12.2538 10.865 12.25C12.226 12.2463 13.5949 12.6166 15.2833 13.3056C15.6668 13.4621 15.8509 13.8999 15.6943 14.2834C15.5378 14.6669 15.1001 14.8509 14.7166 14.6944C13.1048 14.0366 11.9465 13.747 10.8691 13.75Z" fill="#28303F"/>
<circle r="3" transform="matrix(1 0 0 -1 11 8)" fill="#28303F"/>
<path fill-rule="evenodd" clip-rule="evenodd" d="M20.5017 18C20.5017 18.4142 20.1659 18.75 19.7517 18.75L15.7517 18.75C15.3375 18.75 15.0017 18.4142 15.0017 18C15.0017 17.5858 15.3375 17.25 15.7517 17.25L19.7517 17.25C20.1659 17.25 20.5017 17.5858 20.5017 18Z" fill="#28303F"/>
</svg>
