<svg width="24" height="25" viewBox="0 0 24 25" fill="none" xmlns="http://www.w3.org/2000/svg">
<circle opacity="0.4" r="9" transform="matrix(1 0 0 -1 11 11.7566)" fill="#28303F"/>
<path fill-rule="evenodd" clip-rule="evenodd" d="M10.8691 14.5066C9.7977 14.5096 8.73255 14.8022 7.30659 15.441C6.92858 15.6104 6.48485 15.4412 6.31549 15.0632C6.14614 14.6852 6.31529 14.2415 6.69329 14.0721C8.21316 13.3912 9.49789 13.0104 10.865 13.0066C12.226 13.0029 13.5949 13.3731 15.2833 14.0622C15.6668 14.2187 15.8509 14.6565 15.6943 15.04C15.5378 15.4235 15.1001 15.6075 14.7166 15.451C13.1048 14.7932 11.9465 14.5036 10.8691 14.5066Z" fill="#28303F"/>
<circle r="3" transform="matrix(1 0 0 -1 11 8.75659)" fill="#28303F"/>
<path fill-rule="evenodd" clip-rule="evenodd" d="M18.8838 20.7008C19.1767 20.9937 19.6516 20.9937 19.9445 20.7008C20.2374 20.4079 20.2374 19.933 19.9445 19.6401L19.0608 18.7565L19.9445 17.8728C20.2373 17.5799 20.2373 17.105 19.9445 16.8121C19.6516 16.5192 19.1767 16.5192 18.8838 16.8121L18.0001 17.6958L17.116 16.8117C16.8231 16.5188 16.3483 16.5188 16.0554 16.8117C15.7625 17.1046 15.7625 17.5795 16.0554 17.8724L16.9395 18.7565L16.0554 19.6406C15.7625 19.9334 15.7625 20.4083 16.0554 20.7012C16.3483 20.9941 16.8231 20.9941 17.116 20.7012L18.0001 19.8171L18.8838 20.7008Z" fill="#28303F"/>
</svg>
