<svg width="24" height="24" viewBox="0 0 24 24" fill="none" xmlns="http://www.w3.org/2000/svg">
<path opacity="0.4" d="M9.92154 2.57125C11.2077 1.80958 12.7923 1.80958 14.0785 2.57125L18.9215 5.43932C20.2077 6.20099 21 7.6086 21 9.13192V14.8681C21 16.3914 20.2077 17.799 18.9215 18.5607L14.0785 21.4288C12.7923 22.1904 11.2077 22.1904 9.92154 21.4288L5.07846 18.5607C3.7923 17.799 3 16.3914 3 14.8681V9.13192C3 7.6086 3.7923 6.20099 5.07846 5.43932L9.92154 2.57125Z" fill="#28303F"/>
<path d="M9.92155 21.4286C11.2077 22.1903 12.7923 22.1903 14.0785 21.4286L18.301 18.928C17.0431 16.698 14.6924 15.1978 12 15.1978C9.30764 15.1978 6.95688 16.698 5.69897 18.928L9.92155 21.4286Z" fill="#28303F"/>
<circle r="3" transform="matrix(1 0 0 -1 12 10)" fill="#28303F"/>
</svg>
