<svg width="24" height="24" viewBox="0 0 24 24" fill="none" xmlns="http://www.w3.org/2000/svg">
<path fill-rule="evenodd" clip-rule="evenodd" d="M2.09728 13.4006C2.58781 16.9004 4.88987 19.8193 8.0251 21.1789C8.16232 18.3582 8.74475 15.6481 9.70684 13.1093C8.68127 12.9134 7.61927 12.8105 6.53111 12.8105C4.9909 12.8105 3.50328 13.0167 2.09728 13.4006ZM9.50595 21.6865C10.3032 21.8912 11.1389 22 12 22C14.8702 22 17.4581 20.7907 19.2818 18.8539C17.2912 16.3254 14.4642 14.4055 11.1787 13.4606C10.1789 16.0394 9.59616 18.8055 9.50595 21.6865ZM20.2457 17.6591C21.3523 16.0499 22 14.1006 22 12C22 11.824 21.9954 11.6491 21.9864 11.4754C20.9218 11.6682 19.823 11.769 18.6999 11.769C16.5009 11.769 14.3956 11.3824 12.4573 10.6763C12.213 11.1334 11.9826 11.598 11.7664 12.0698C15.1615 13.0832 18.1086 15.0569 20.2457 17.6591ZM21.7969 9.9851C21.2771 7.44441 19.7938 5.25466 17.7455 3.81428C15.9869 5.45943 14.4605 7.32153 13.215 9.35377C14.9229 9.94544 16.7703 10.269 18.6999 10.269C19.7604 10.269 20.7959 10.1713 21.7969 9.9851ZM16.4041 3.01957C15.0753 2.36666 13.5805 2 12 2C9.68442 2 7.55269 2.78702 5.85767 4.10815C7.388 6.09222 9.42932 7.71043 11.803 8.78971C13.0698 6.67863 14.6201 4.7399 16.4041 3.01957ZM4.74365 5.11913C3.06983 6.8837 2.03283 9.25829 2.00073 11.8748C3.44578 11.5067 4.96475 11.3105 6.53111 11.3105C7.82099 11.3105 9.07862 11.4435 10.2892 11.696C10.5303 11.1555 10.7889 10.6236 11.0644 10.1011C8.55876 8.93971 6.39141 7.22366 4.74365 5.11913Z" fill="#28303F"/>
</svg>
