<svg width="24" height="24" viewBox="0 0 24 24" fill="none" xmlns="http://www.w3.org/2000/svg">
<path fill-rule="evenodd" clip-rule="evenodd" d="M9 3C7.34315 3 6 4.34315 6 6C6 7.65685 7.34315 9 9 9C7.34315 9 6 10.3431 6 12C6 13.6569 7.34315 15 9 15C7.34315 15 6 16.3431 6 18C6 19.6569 7.34315 21 9 21C10.6569 21 12 19.6569 12 18V15V12C12 13.6569 13.3431 15 15 15C16.6569 15 18 13.6569 18 12C18 10.3431 16.6569 9 15 9C16.6569 9 18 7.65685 18 6C18 4.34315 16.6569 3 15 3H9ZM15 9C13.3431 9 12 10.3431 12 12V9H15Z" fill="#28303F"/>
</svg>
