<svg width="24" height="24" viewBox="0 0 24 24" fill="none" xmlns="http://www.w3.org/2000/svg">
<path fill-rule="evenodd" clip-rule="evenodd" d="M2.75 12C2.75 8.82436 5.32436 6.25 8.5 6.25C10.088 6.25 11.5245 6.89277 12.5659 7.93414C12.8588 8.22703 13.3336 8.22703 13.6265 7.93414C13.9194 7.64124 13.9194 7.16637 13.6265 6.87348C12.3154 5.5623 10.5018 4.75 8.5 4.75C4.49594 4.75 1.25 7.99594 1.25 12C1.25 16.0041 4.49594 19.25 8.5 19.25C12.5041 19.25 15.75 16.0041 15.75 12C15.75 11.5858 15.4142 11.25 15 11.25H8.5C8.08579 11.25 7.75 11.5858 7.75 12C7.75 12.4142 8.08579 12.75 8.5 12.75H14.2015C13.834 15.5713 11.4214 17.75 8.5 17.75C5.32436 17.75 2.75 15.1756 2.75 12ZM20.75 10C20.75 9.58579 20.4142 9.25 20 9.25C19.5858 9.25 19.25 9.58579 19.25 10V11.25H18C17.5858 11.25 17.25 11.5858 17.25 12C17.25 12.4142 17.5858 12.75 18 12.75H19.25V14C19.25 14.4142 19.5858 14.75 20 14.75C20.4142 14.75 20.75 14.4142 20.75 14V12.75H22C22.4142 12.75 22.75 12.4142 22.75 12C22.75 11.5858 22.4142 11.25 22 11.25H20.75V10Z" fill="#28303F"/>
</svg>
