<svg width="24" height="24" viewBox="0 0 24 24" fill="none" xmlns="http://www.w3.org/2000/svg">
<path fill-rule="evenodd" clip-rule="evenodd" d="M22 12C22 17.5228 17.5228 22 12 22C11.1689 22 10.3614 21.8986 9.58937 21.7075L9.59397 21.6908L10.6715 17.5956C11.0984 17.6966 11.5433 17.75 12 17.75C15.1756 17.75 17.75 15.1756 17.75 12C17.75 8.82436 15.1756 6.25 12 6.25C8.82436 6.25 6.25 8.82436 6.25 12C6.25 13.0461 6.53003 14.029 7.01971 14.8755C7.22711 15.2341 7.68591 15.3566 8.04446 15.1492C8.403 14.9418 8.52552 14.483 8.31812 14.1245C7.95695 13.5001 7.75 12.7754 7.75 12C7.75 9.65279 9.65279 7.75 12 7.75C14.3472 7.75 16.25 9.65279 16.25 12C16.25 14.3472 14.3472 16.25 12 16.25C11.6741 16.25 11.3573 16.2134 11.0533 16.1444L12.2251 11.6908C12.3305 11.2903 12.0912 10.8801 11.6907 10.7747C11.2901 10.6693 10.8799 10.9086 10.7745 11.3092L8.1623 21.2371C4.54403 19.7321 2 16.1632 2 12C2 6.47715 6.47715 2 12 2C17.5228 2 22 6.47715 22 12Z" fill="#28303F"/>
</svg>
