<svg width="24" height="24" viewBox="0 0 24 24" fill="none" xmlns="http://www.w3.org/2000/svg">
<path fill-rule="evenodd" clip-rule="evenodd" d="M12 20C7.58172 20 4 16.4183 4 12C4 11.6759 4.01927 11.3563 4.05673 11.0424C2.81007 10.1331 2 8.66115 2 7C2 4.23858 4.23858 2 7 2C8.66115 2 10.1331 2.81007 11.0424 4.05673C11.3563 4.01927 11.6759 4 12 4C16.4183 4 20 7.58172 20 12C20 12.3241 19.9807 12.6437 19.9433 12.9576C21.1899 13.8669 22 15.3389 22 17C22 19.7614 19.7614 22 17 22C15.3389 22 13.8669 21.1899 12.9576 19.9433C12.6437 19.9807 12.3241 20 12 20ZM11.5 7.25C9.98122 7.25 8.75 8.48122 8.75 10C8.75 11.5188 9.98122 12.75 11.5 12.75H12.5C13.1904 12.75 13.75 13.3096 13.75 14C13.75 14.6904 13.1904 15.25 12.5 15.25H11.5C10.8096 15.25 10.25 14.6904 10.25 14C10.25 13.5858 9.91421 13.25 9.5 13.25C9.08579 13.25 8.75 13.5858 8.75 14C8.75 15.5188 9.98122 16.75 11.5 16.75H12.5C14.0188 16.75 15.25 15.5188 15.25 14C15.25 12.4812 14.0188 11.25 12.5 11.25H11.5C10.8096 11.25 10.25 10.6904 10.25 10C10.25 9.30964 10.8096 8.75 11.5 8.75H12.5C13.1904 8.75 13.75 9.30964 13.75 10C13.75 10.4142 14.0858 10.75 14.5 10.75C14.9142 10.75 15.25 10.4142 15.25 10C15.25 8.48122 14.0188 7.25 12.5 7.25H11.5Z" fill="#28303F"/>
</svg>
