<svg width="24" height="24" viewBox="0 0 24 24" fill="none" xmlns="http://www.w3.org/2000/svg">
<path fill-rule="evenodd" clip-rule="evenodd" d="M9.31885 6.13818C8.21428 6.13818 7.31885 5.24275 7.31885 4.13818C7.31885 3.03361 8.21428 2.13818 9.31885 2.13818C10.4234 2.13818 11.3188 3.03361 11.3188 4.13818V6.13818H9.31885ZM14.6301 2.23633C13.5256 2.23633 12.6301 3.13176 12.6301 4.23633V9.23633C12.6301 10.3409 13.5256 11.2363 14.6301 11.2363C15.7347 11.2363 16.6301 10.3409 16.6301 9.23633V4.23633C16.6301 3.13176 15.7347 2.23633 14.6301 2.23633ZM19.8416 11.2363C20.9461 11.2363 21.8416 10.3409 21.8416 9.23633C21.8416 8.13176 20.9461 7.23633 19.8416 7.23633C18.737 7.23633 17.8416 8.13176 17.8416 9.23633V11.2363H19.8416ZM16.6301 19.8619C16.6301 18.7573 15.7347 17.8619 14.6301 17.8619H12.6301V19.8619C12.6301 20.9664 13.5256 21.8619 14.6301 21.8619C15.7347 21.8619 16.6301 20.9664 16.6301 19.8619ZM2.14893 14.6367C2.14893 13.5321 3.04436 12.6367 4.14893 12.6367H6.14893V14.6367C6.14893 15.7413 5.2535 16.6367 4.14893 16.6367C3.04436 16.6367 2.14893 15.7413 2.14893 14.6367ZM9.28906 12.6367C8.18449 12.6367 7.28906 13.5321 7.28906 14.6367V19.862C7.28906 20.9666 8.18449 21.862 9.28906 21.862C10.3936 21.862 11.2891 20.9666 11.2891 19.862V14.6367C11.2891 13.5321 10.3936 12.6367 9.28906 12.6367ZM9.41919 7.23633C10.5238 7.23633 11.4192 8.13176 11.4192 9.23633C11.4192 10.3409 10.5238 11.2363 9.41919 11.2363H4.14891C3.04434 11.2363 2.14891 10.3409 2.14891 9.23633C2.14891 8.13176 3.04434 7.23633 4.14891 7.23633L9.41919 7.23633ZM21.8416 14.6367C21.8416 13.5321 20.9461 12.6367 19.8416 12.6367H14.6301C13.5256 12.6367 12.6301 13.5321 12.6301 14.6367C12.6301 15.7413 13.5256 16.6367 14.6301 16.6367H19.8416C20.9461 16.6367 21.8416 15.7413 21.8416 14.6367Z" fill="#28303F"/>
</svg>
