<svg width="24" height="24" viewBox="0 0 24 24" fill="none" xmlns="http://www.w3.org/2000/svg">
<path fill-rule="evenodd" clip-rule="evenodd" d="M12 22C17.5228 22 22 17.5228 22 12C22 6.47715 17.5228 2 12 2C6.47715 2 2 6.47715 2 12C2 17.5228 6.47715 22 12 22ZM6.27854 9.69646C7.38542 9.25372 9.36186 9.00195 11.5457 9.12395C13.7196 9.2454 15.9706 9.73066 17.6358 10.6557C17.9979 10.8569 18.4545 10.7264 18.6556 10.3644C18.8568 10.0023 18.7263 9.54566 18.3642 9.3445C16.4294 8.26959 13.9304 7.75484 11.6293 7.62629C9.33814 7.49828 7.11458 7.7465 5.72146 8.30374C5.33687 8.45758 5.14981 8.89405 5.30364 9.27864C5.45747 9.66323 5.89395 9.8503 6.27854 9.69646ZM6.71551 12.7185C7.45282 12.4973 9.09363 12.2516 11.0012 12.3122C12.907 12.3728 14.9815 12.7367 16.6358 13.6558C16.9979 13.8569 17.4545 13.7265 17.6556 13.3644C17.8568 13.0023 17.7263 12.5457 17.3642 12.3445C15.4185 11.2636 13.0763 10.8774 11.0488 10.813C9.02304 10.7486 7.21385 11.0029 6.28449 11.2817C5.88774 11.4008 5.66261 11.8189 5.78163 12.2156C5.90065 12.6124 6.31877 12.8375 6.71551 12.7185ZM6.71551 15.7185C8.26885 15.2525 12.2746 14.7884 15.6358 16.6557C15.9979 16.8569 16.4545 16.7264 16.6556 16.3644C16.8568 16.0023 16.7263 15.5457 16.3642 15.3445C12.5254 13.2118 8.06448 13.7478 6.28449 14.2818C5.88774 14.4008 5.66261 14.8189 5.78163 15.2156C5.90065 15.6124 6.31877 15.8375 6.71551 15.7185Z" fill="#28303F"/>
</svg>
