<svg width="24" height="24" viewBox="0 0 24 24" fill="none" xmlns="http://www.w3.org/2000/svg">
<path d="M15.2859 4C13.1821 4 11.4766 5.79086 11.4766 8C11.4766 8.33382 11.5155 8.65809 11.5889 8.96808C9.56599 8.96808 6.51902 8.55908 3.97432 6.00961C3.63593 5.67059 3.01196 5.89726 3.03543 6.37567C3.41256 14.0627 6.70465 16.3049 8.39998 16.4444C7.30523 17.5257 5.71498 18.3791 4.11477 18.7622C3.69244 18.8633 3.58811 19.3256 4.00108 19.4599C5.14611 19.8323 6.78504 19.9758 7.66723 20C13.9081 20 18.9805 14.7471 19.0934 8.22229C19.9127 7.68945 20.4376 6.5325 20.7325 5.71291C20.8043 5.5133 20.4772 5.28073 20.2813 5.36226C19.6693 5.61708 18.8922 5.67749 18.2303 5.46181C17.5316 4.56927 16.4721 4 15.2859 4Z" fill="#28303F"/>
</svg>
