<svg width="24" height="24" viewBox="0 0 24 24" fill="none" xmlns="http://www.w3.org/2000/svg">
<path fill-rule="evenodd" clip-rule="evenodd" d="M22 12C22 17.5228 17.5229 22 12 22C10.4724 22 9.02483 21.6575 7.72984 21.045L3.37452 21.7709C2.69954 21.8834 2.1135 21.3 2.22301 20.6245L2.93565 16.229C2.33535 14.9446 2.00003 13.5114 2.00003 12C2.00003 6.47715 6.47718 2 12 2C17.5229 2 22 6.47715 22 12ZM16 14.6749V15.1111C16 15.602 15.602 16 15.1111 16C11.1838 16 8 12.8162 8 8.88889C8 8.39797 8.39797 8 8.88889 8H9.32509C9.86693 8 10.3542 8.32988 10.5554 8.83296L10.742 9.29949C10.9506 9.82105 10.7247 10.4155 10.2222 10.6667C10.2222 10.6667 10.4444 11.7778 11.3333 12.6667C12.2222 13.5556 13.3333 13.7778 13.3333 13.7778C13.5845 13.2753 14.1789 13.0494 14.7005 13.258L15.167 13.4446C15.6701 13.6458 16 14.1331 16 14.6749Z" fill="#28303F"/>
</svg>
