<svg width="24" height="24" viewBox="0 0 24 24" fill="none" xmlns="http://www.w3.org/2000/svg">
<path d="M13.5 3.5C13.5 4.32843 12.8284 5 12 5C11.1716 5 10.5 4.32843 10.5 3.5C10.5 2.67157 11.1716 2 12 2C12.8284 2 13.5 2.67157 13.5 3.5Z" fill="#28303F"/>
<path d="M13 21C13 21.5523 12.5523 22 12 22C11.4477 22 11 21.5523 11 21C11 20.4477 11.4477 20 12 20C12.5523 20 13 20.4477 13 21Z" fill="#28303F"/>
<path d="M9 21C9 21.5523 8.55228 22 8 22C7.44772 22 7 21.5523 7 21C7 20.4477 7.44772 20 8 20C8.55228 20 9 20.4477 9 21Z" fill="#28303F"/>
<path d="M17 21C17 21.5523 16.5523 22 16 22C15.4477 22 15 21.5523 15 21C15 20.4477 15.4477 20 16 20C16.5523 20 17 20.4477 17 21Z" fill="#28303F"/>
<path d="M5 6C10.4235 7.33725 13.3997 7.32941 19 6" stroke="#28303F" stroke-width="1.5" stroke-linecap="round" stroke-linejoin="round"/>
<path d="M10 12V7H14V12H10Z" fill="#28303F"/>
<path d="M11 10L10 18" stroke="#28303F" stroke-width="1.5" stroke-linecap="round" stroke-linejoin="round"/>
<path d="M13 10L14 18" stroke="#28303F" stroke-width="1.5" stroke-linecap="round" stroke-linejoin="round"/>
</svg>
