<svg width="24" height="24" viewBox="0 0 24 24" fill="none" xmlns="http://www.w3.org/2000/svg">
<path d="M21 21L3 3" stroke="#28303F" stroke-width="1.5" stroke-linecap="round"/>
<path d="M14.7975 17.7418L15.4016 17.2974V17.2974L14.7975 17.7418ZM16.6841 20.3065L17.2883 19.8621L16.6841 20.3065ZM7.31587 20.3065L6.71172 19.8621L7.31587 20.3065ZM9.20251 17.7418L8.59836 17.2974L8.59836 17.2974L9.20251 17.7418ZM15.1521 21.8794L15.4616 21.1962H15.4616L15.1521 21.8794ZM13.0712 20.9364L13.3807 20.2533L13.0712 20.9364ZM10.9288 20.9364L10.6193 20.2533L10.9288 20.9364ZM8.84792 21.8794L8.53837 21.1962H8.53837L8.84792 21.8794ZM3.565 10.8478L3.93464 11.5004H3.93464L3.565 10.8478ZM15.521 8.06443L15.8906 7.41185L15.521 8.06443ZM20.435 10.8478L20.8046 10.1952L20.435 10.8478ZM15.1452 14.3952C15.1452 13.981 14.8094 13.6452 14.3952 13.6452C13.981 13.6452 13.6452 13.981 13.6452 14.3952H15.1452ZM8.58399 8.86694C8.9444 8.66279 9.07108 8.20513 8.86694 7.84471C8.66279 7.4843 8.20513 7.35762 7.84471 7.56176L8.58399 8.86694ZM8.85478 5.60478C8.85478 6.019 9.19057 6.35478 9.60478 6.35478C10.019 6.35478 10.3548 6.019 10.3548 5.60478H8.85478ZM16.8536 12.1036C16.4393 12.1036 16.1036 12.4393 16.1036 12.8536C16.1036 13.2678 16.4393 13.6036 16.8536 13.6036V12.1036ZM14.1933 18.1863L16.08 20.751L17.2883 19.8621L15.4016 17.2974L14.1933 18.1863ZM7.92001 20.751L9.80665 18.1863L8.59836 17.2974L6.71172 19.8621L7.92001 20.751ZM15.4616 21.1962L13.3807 20.2533L12.7616 21.6196L14.8425 22.5625L15.4616 21.1962ZM10.6193 20.2533L8.53837 21.1962L9.15748 22.5625L11.2384 21.6196L10.6193 20.2533ZM13.6452 4.39522V6.22367H15.1452V4.39522H13.6452ZM15.1513 8.71702L20.0654 11.5004L20.8046 10.1952L15.8906 7.41185L15.1513 8.71702ZM10.3548 16.5377V13.9389H8.85478V16.5377H10.3548ZM8.40718 12.1036H4.19974V13.6036H8.40718V12.1036ZM10.3548 13.9389C10.3548 12.8575 9.41165 12.1036 8.40718 12.1036V13.6036C8.72554 13.6036 8.85478 13.8215 8.85478 13.9389H10.3548ZM13.6452 6.22367C13.6452 7.26632 14.2377 8.19949 15.1513 8.71702L15.8906 7.41185C15.4037 7.13603 15.1452 6.6779 15.1452 6.22367H13.6452ZM20.0654 11.5004C20.1789 11.5647 20.219 11.6311 20.235 11.6731C20.253 11.7202 20.2564 11.7781 20.2364 11.8411C20.1997 11.957 20.0764 12.1036 19.8003 12.1036V13.6036C20.7273 13.6036 21.4315 13.0362 21.6665 12.2937C21.9057 11.5378 21.6331 10.6645 20.8046 10.1952L20.0654 11.5004ZM3.19537 10.1952C2.36692 10.6645 2.09429 11.5378 2.33349 12.2937C2.56847 13.0362 3.27269 13.6036 4.19974 13.6036V12.1036C3.92355 12.1036 3.80025 11.957 3.76359 11.8411C3.74364 11.7781 3.74696 11.7202 3.76499 11.6731C3.78105 11.6311 3.82112 11.5647 3.93464 11.5004L3.19537 10.1952ZM13.3807 20.2533C12.5097 19.8586 11.4903 19.8586 10.6193 20.2533L11.2384 21.6196C11.716 21.4032 12.284 21.4032 12.7616 21.6196L13.3807 20.2533ZM9.80665 18.1863C10.1604 17.7054 10.3548 17.1317 10.3548 16.5377H8.85478C8.85478 16.8008 8.76926 17.0651 8.59836 17.2974L9.80665 18.1863ZM15.4016 17.2974C15.2307 17.0651 15.1452 16.8008 15.1452 16.5377H13.6452C13.6452 17.1317 13.8396 17.7054 14.1933 18.1863L15.4016 17.2974ZM6.71172 19.8621C6.12105 20.6651 6.33089 21.5893 6.87727 22.1502C7.41216 22.6993 8.29965 22.9512 9.15748 22.5625L8.53837 21.1962C8.29774 21.3053 8.07859 21.2338 7.95176 21.1036C7.88864 21.0388 7.8638 20.9745 7.85867 20.929C7.85467 20.8935 7.8576 20.8358 7.92001 20.751L6.71172 19.8621ZM16.08 20.751C16.1424 20.8358 16.1453 20.8935 16.1413 20.929C16.1362 20.9745 16.1114 21.0388 16.0482 21.1036C15.9214 21.2338 15.7023 21.3053 15.4616 21.1962L14.8425 22.5625C15.7003 22.9512 16.5878 22.6993 17.1227 22.1502C17.6691 21.5893 17.879 20.6651 17.2883 19.8621L16.08 20.751ZM10.3548 4.39522C10.3548 3.48659 11.0914 2.75 12 2.75V1.25C10.2629 1.25 8.85478 2.65816 8.85478 4.39522H10.3548ZM15.1452 4.39522C15.1452 2.65816 13.7371 1.25 12 1.25V2.75C12.9086 2.75 13.6452 3.48659 13.6452 4.39522H15.1452ZM13.6452 14.3952V16.5377H15.1452V14.3952H13.6452ZM3.93464 11.5004L8.58399 8.86694L7.84471 7.56176L3.19537 10.1952L3.93464 11.5004ZM10.3548 5.60478V4.39522H8.85478V5.60478H10.3548ZM19.8003 12.1036H16.8536V13.6036H19.8003V12.1036Z" fill="#28303F"/>
</svg>
