<svg width="24" height="24" viewBox="0 0 24 24" fill="none" xmlns="http://www.w3.org/2000/svg">
<path d="M12.5303 2.98432C12.2374 2.69143 11.7626 2.69143 11.4697 2.98432C11.1768 3.27721 11.1768 3.75209 11.4697 4.04498L12.5303 2.98432ZM15.0052 16.4193C14.7123 16.7122 14.7123 17.1871 15.0052 17.48C15.2981 17.7729 15.773 17.7729 16.0659 17.48L15.0052 16.4193ZM11.4697 4.04498L18.5407 11.116L19.6014 10.0554L12.5303 2.98432L11.4697 4.04498ZM18.5407 12.8838L15.0052 16.4193L16.0659 17.48L19.6014 13.9445L18.5407 12.8838ZM18.5407 11.116C19.0289 11.6042 19.0289 12.3957 18.5407 12.8838L19.6014 13.9445C20.6753 12.8705 20.6753 11.1293 19.6014 10.0554L18.5407 11.116Z" fill="#28303F"/>
<path d="M11.4697 21.0157C11.7626 21.3086 12.2374 21.3086 12.5303 21.0157C12.8232 20.7228 12.8232 20.2479 12.5303 19.955L11.4697 21.0157ZM8.9948 7.58065C9.28769 7.28776 9.28769 6.81289 8.9948 6.51999C8.7019 6.2271 8.22703 6.2271 7.93414 6.51999L8.9948 7.58065ZM12.5303 19.955L5.45926 12.884L4.3986 13.9446L11.4697 21.0157L12.5303 19.955ZM5.45926 11.1162L8.9948 7.58065L7.93414 6.51999L4.3986 10.0555L5.45926 11.1162ZM5.45926 12.884C4.97111 12.3958 4.97111 11.6043 5.45926 11.1162L4.3986 10.0555C3.32466 11.1295 3.32466 12.8707 4.3986 13.9446L5.45926 12.884Z" fill="#28303F"/>
<path d="M15.5784 14.8286C15.5784 14.4144 15.2426 14.0786 14.8284 14.0786C14.4142 14.0786 14.0784 14.4144 14.0784 14.8286H15.5784ZM17.6568 18.407C18.071 18.407 18.4068 18.0713 18.4068 17.657C18.4068 17.2428 18.071 16.907 17.6568 16.907L17.6568 18.407ZM14.0784 14.8286V16.657H15.5784V14.8286H14.0784ZM15.8284 18.407H17.6568L17.6568 16.907L15.8284 16.907L15.8284 18.407ZM14.0784 16.657C14.0784 17.6235 14.8619 18.407 15.8284 18.407L15.8284 16.907C15.6903 16.907 15.5784 16.7951 15.5784 16.657H14.0784Z" fill="#28303F"/>
<path d="M8.42163 9.17139C8.42163 9.5856 8.75742 9.92139 9.17163 9.92139C9.58584 9.92139 9.92163 9.5856 9.92163 9.17139L8.42163 9.17139ZM6.3432 5.59296C5.92899 5.59296 5.5932 5.92875 5.5932 6.34296C5.5932 6.75717 5.92899 7.09296 6.3432 7.09296L6.3432 5.59296ZM9.92163 9.17139L9.92163 7.34296L8.42163 7.34296L8.42163 9.17139L9.92163 9.17139ZM8.17163 5.59296L6.3432 5.59296L6.3432 7.09296L8.17163 7.09296L8.17163 5.59296ZM9.92163 7.34296C9.92163 6.37646 9.13813 5.59296 8.17163 5.59296L8.17163 7.09296C8.3097 7.09296 8.42163 7.20489 8.42163 7.34296L9.92163 7.34296Z" fill="#28303F"/>
</svg>
