<svg width="24" height="24" viewBox="0 0 24 24" fill="none" xmlns="http://www.w3.org/2000/svg">
<circle cx="12" cy="12" r="10" stroke="#28303F" stroke-width="1.5"/>
<path d="M10 12.25C9.58579 12.25 9.25 12.5858 9.25 13C9.25 13.4142 9.58579 13.75 10 13.75V12.25ZM14 13.75C14.4142 13.75 14.75 13.4142 14.75 13C14.75 12.5858 14.4142 12.25 14 12.25V13.75ZM10 13.75H14V12.25H10V13.75Z" fill="#28303F"/>
<path d="M12 8L12.6708 7.66459C12.5438 7.4105 12.2841 7.25 12 7.25C11.7159 7.25 11.4562 7.4105 11.3292 7.66459L12 8ZM7.32918 15.6646C7.14394 16.0351 7.29411 16.4856 7.66459 16.6708C8.03507 16.8561 8.48558 16.7059 8.67082 16.3354L7.32918 15.6646ZM15.3292 16.3354C15.5144 16.7059 15.9649 16.8561 16.3354 16.6708C16.7059 16.4856 16.8561 16.0351 16.6708 15.6646L15.3292 16.3354ZM11.3292 7.66459L7.32918 15.6646L8.67082 16.3354L12.6708 8.33541L11.3292 7.66459ZM16.6708 15.6646L12.6708 7.66459L11.3292 8.33541L15.3292 16.3354L16.6708 15.6646Z" fill="#28303F"/>
</svg>
