<svg width="24" height="24" viewBox="0 0 24 24" fill="none" xmlns="http://www.w3.org/2000/svg">
<path d="M10 1.25C9.58579 1.25 9.25 1.58579 9.25 2C9.25 2.41421 9.58579 2.75 10 2.75V1.25ZM14 2.75C14.4142 2.75 14.75 2.41421 14.75 2C14.75 1.58579 14.4142 1.25 14 1.25V2.75ZM10 2.75H14V1.25H10V2.75Z" fill="#28303F"/>
<path d="M3 3L21 21" stroke="#28303F" stroke-width="1.5" stroke-linecap="round"/>
<path fill-rule="evenodd" clip-rule="evenodd" d="M5.59848 4.65914C5.37652 5.05582 5.25 5.51313 5.25 6V20C5.25 21.5188 6.48122 22.75 8 22.75H16C17.5188 22.75 18.75 21.5188 18.75 20V17.8107L17.25 16.3107V20C17.25 20.6904 16.6904 21.25 16 21.25H8C7.30964 21.25 6.75 20.6904 6.75 20V6C6.75 5.93994 6.75424 5.88088 6.76242 5.82308L5.59848 4.65914ZM17.25 14.1893V6C17.25 5.30964 16.6904 4.75 16 4.75H8C7.93994 4.75 7.88088 4.75424 7.82308 4.76242L6.65914 3.59848C7.05582 3.37652 7.51313 3.25 8 3.25H16C17.5188 3.25 18.75 4.48122 18.75 6V15.6893L17.25 14.1893Z" fill="#28303F"/>
</svg>
