<svg width="24" height="24" viewBox="0 0 24 24" fill="none" xmlns="http://www.w3.org/2000/svg">
<path d="M9.46852 12.4143C9.14507 12.1556 8.67311 12.208 8.41435 12.5315C8.15559 12.8549 8.20803 13.3269 8.53148 13.5857L9.46852 12.4143ZM15.5644 11.4939C15.8372 11.1822 15.8056 10.7083 15.4939 10.4356C15.1822 10.1628 14.7083 10.1944 14.4356 10.5061L15.5644 11.4939ZM10.7528 14.4023L10.2843 14.9879L10.7528 14.4023ZM8.53148 13.5857L10.2843 14.9879L11.2213 13.8166L9.46852 12.4143L8.53148 13.5857ZM12.6945 14.7738L15.5644 11.4939L14.4356 10.5061L11.5657 13.786L12.6945 14.7738ZM10.2843 14.9879C11.0156 15.5729 12.0778 15.4786 12.6945 14.7738L11.5657 13.786C11.4776 13.8867 11.3258 13.9002 11.2213 13.8166L10.2843 14.9879Z" fill="#28303F"/>
<rect x="6" y="4" width="12" height="18" rx="2" stroke="#28303F" stroke-width="1.5"/>
<path d="M10 1.25C9.58579 1.25 9.25 1.58579 9.25 2C9.25 2.41421 9.58579 2.75 10 2.75V1.25ZM14 2.75C14.4142 2.75 14.75 2.41421 14.75 2C14.75 1.58579 14.4142 1.25 14 1.25V2.75ZM10 2.75H14V1.25H10V2.75Z" fill="#28303F"/>
</svg>
