<svg width="24" height="24" viewBox="0 0 24 24" fill="none" xmlns="http://www.w3.org/2000/svg">
<path d="M22.75 10C22.75 9.58579 22.4142 9.25 22 9.25C21.5858 9.25 21.25 9.58579 21.25 10L22.75 10ZM21.25 14C21.25 14.4142 21.5858 14.75 22 14.75C22.4142 14.75 22.75 14.4142 22.75 14L21.25 14ZM21.25 10L21.25 14L22.75 14L22.75 10L21.25 10Z" fill="#28303F"/>
<path d="M3 3L21 21" stroke="#28303F" stroke-width="1.5" stroke-linecap="round"/>
<path fill-rule="evenodd" clip-rule="evenodd" d="M6.18934 5.25H4C2.48122 5.25 1.25 6.48122 1.25 8V16C1.25 17.5188 2.48122 18.75 4 18.75L18 18.75C18.4869 18.75 18.9442 18.6235 19.3409 18.4015L18.1769 17.2376C18.1191 17.2458 18.0601 17.25 18 17.25L4 17.25C3.30964 17.25 2.75 16.6904 2.75 16L2.75 8C2.75 7.30964 3.30964 6.75 4 6.75L7.68934 6.75L6.18934 5.25ZM19.2376 16.1769C19.2458 16.1191 19.25 16.0601 19.25 16V8C19.25 7.30964 18.6904 6.75 18 6.75L9.81066 6.75L8.31066 5.25H18C19.5188 5.25 20.75 6.48122 20.75 8V16C20.75 16.4869 20.6235 16.9442 20.4015 17.3409L19.2376 16.1769Z" fill="#28303F"/>
</svg>
