<svg width="24" height="24" viewBox="0 0 24 24" fill="none" xmlns="http://www.w3.org/2000/svg">
<path d="M8.46852 11.4143C8.14507 11.1556 7.67311 11.208 7.41435 11.5315C7.15559 11.8549 7.20803 12.3269 7.53148 12.5857L8.46852 11.4143ZM14.5644 10.4939C14.8372 10.1822 14.8056 9.70833 14.4939 9.43557C14.1822 9.16281 13.7083 9.19439 13.4356 9.50612L14.5644 10.4939ZM9.75282 13.4023L9.2843 13.9879L9.75282 13.4023ZM7.53148 12.5857L9.2843 13.9879L10.2213 12.8166L8.46852 11.4143L7.53148 12.5857ZM11.6945 13.7738L14.5644 10.4939L13.4356 9.50612L10.5657 12.786L11.6945 13.7738ZM9.2843 13.9879C10.0156 14.5729 11.0778 14.4786 11.6945 13.7738L10.5657 12.786C10.4776 12.8867 10.3258 12.9002 10.2213 12.8166L9.2843 13.9879Z" fill="#28303F"/>
<rect x="20" y="6" width="12" height="18" rx="2" transform="rotate(90 20 6)" stroke="#28303F" stroke-width="1.5"/>
<rect x="20" y="6" width="12" height="18" rx="2" transform="rotate(90 20 6)" stroke="#28303F" stroke-width="1.5"/>
<path d="M22.75 10C22.75 9.58579 22.4142 9.25 22 9.25C21.5858 9.25 21.25 9.58579 21.25 10L22.75 10ZM21.25 14C21.25 14.4142 21.5858 14.75 22 14.75C22.4142 14.75 22.75 14.4142 22.75 14L21.25 14ZM21.25 10L21.25 14L22.75 14L22.75 10L21.25 10Z" fill="#28303F"/>
</svg>
