<svg width="24" height="24" viewBox="0 0 24 24" fill="none" xmlns="http://www.w3.org/2000/svg">
<circle cx="16" cy="12" r="1" fill="#28303F"/>
<path d="M4 8L14.8857 15.2571C15.4418 15.6279 15.4847 16.4295 14.9711 16.8574L11.6402 19.6332C10.9889 20.176 10 19.7128 10 18.865V5.13504C10 4.2872 10.9889 3.82405 11.6402 4.36682L14.9711 7.14262C15.4847 7.57055 15.4418 8.37211 14.8857 8.74289L4 16" stroke="#28303F" stroke-width="1.5" stroke-linecap="round"/>
<path d="M19.3406 8.2286C19.0688 7.91602 18.5951 7.88294 18.2825 8.15472C17.97 8.4265 17.9369 8.90022 18.2087 9.21281L19.3406 8.2286ZM18.1682 14.8328C17.8919 15.1414 17.9182 15.6156 18.2269 15.8918C18.5356 16.168 19.0097 16.1417 19.2859 15.8331L18.1682 14.8328ZM18.2087 9.21281C18.8578 9.95938 19.25 10.9329 19.25 11.9998H20.75C20.75 10.5576 20.218 9.23772 19.3406 8.2286L18.2087 9.21281ZM19.25 11.9998C19.25 13.0887 18.8415 14.0804 18.1682 14.8328L19.2859 15.8331C20.1958 14.8163 20.75 13.4719 20.75 11.9998H19.25Z" fill="#28303F"/>
</svg>
