<svg width="24" height="24" viewBox="0 0 24 24" fill="none" xmlns="http://www.w3.org/2000/svg">
<path d="M20 20L4 4" stroke="#28303F" stroke-width="1.5" stroke-linecap="round"/>
<path fill-rule="evenodd" clip-rule="evenodd" d="M11.2501 10.3108V11.5988L5.58406 15.3761C5.23941 15.6059 5.14628 16.0715 5.37604 16.4162C5.60581 16.7608 6.07146 16.8539 6.41611 16.6242L11.2501 13.4015V18.8651C11.2501 20.3488 12.9806 21.1593 14.1204 20.2095L17.9541 17.0148L16.889 15.9497L13.1601 19.0572C12.9973 19.1928 12.7501 19.0771 12.7501 18.8651V12.4015L13.1045 12.1652L11.2501 10.3108ZM18.5238 15.4632L18.5358 15.4752C18.5318 15.4711 18.5278 15.4672 18.5238 15.4632ZM14.3773 11.3167L13.2956 10.235L16.4697 8.119C16.6088 8.0263 16.6195 7.82591 16.4911 7.71893L13.1601 4.94313C12.9973 4.80744 12.7501 4.92323 12.7501 5.13519V9.68948L11.2501 8.18948V5.13519C11.2501 3.65147 12.9806 2.84095 14.1204 3.7908L17.4514 6.5666C18.35 7.31547 18.2751 8.7182 17.3018 9.36707L14.3773 11.3167Z" fill="#28303F"/>
</svg>
