<svg width="24" height="24" viewBox="0 0 24 24" fill="none" xmlns="http://www.w3.org/2000/svg">
<path d="M10.7167 10.7876C9.70186 11.2686 9 12.3024 9 13.5001C9 15.1569 10.3431 16.5001 12 16.5001C13.1929 16.5001 14.2232 15.8038 14.7067 14.7954" stroke="#28303F" stroke-width="1.5"/>
<circle cx="12" cy="7" r="1" fill="#28303F"/>
<path d="M21 21L3 3" stroke="#28303F" stroke-width="1.5" stroke-linecap="round" stroke-linejoin="round"/>
<path fill-rule="evenodd" clip-rule="evenodd" d="M6.81217 5.87283C4.20646 6.42011 2.25 8.73158 2.25 11.5V15.5C2.25 18.6756 4.82436 21.25 8 21.25H16C17.6996 21.25 19.227 20.5126 20.2796 19.3403L19.2169 18.2775C18.4376 19.1793 17.2854 19.75 16 19.75H8C5.65279 19.75 3.75 17.8472 3.75 15.5V11.5C3.75 9.15279 5.65279 7.25 8 7.25H8.12602C8.14647 7.25 8.16677 7.24917 8.18688 7.24755L6.81217 5.87283ZM20.0001 16.9394C20.1618 16.4899 20.25 16.0052 20.25 15.5V11.5C20.25 9.15279 18.3472 7.25 16 7.25H15.874C15.5318 7.25 15.233 7.01836 15.1477 6.68694C14.7868 5.28504 13.5133 4.25 12 4.25C10.7322 4.25 9.63267 4.97645 9.09714 6.03648L7.9993 4.93864C8.84358 3.62244 10.3194 2.75 12 2.75C14.0119 2.75 15.7302 4.00024 16.4231 5.76533C19.4012 5.98189 21.75 8.46665 21.75 11.5V15.5C21.75 16.4276 21.5304 17.3038 21.1403 18.0796L20.0001 16.9394Z" fill="#28303F"/>
</svg>
