<svg width="24" height="24" viewBox="0 0 24 24" fill="none" xmlns="http://www.w3.org/2000/svg">
<path d="M3.25 21C3.25 21.4142 3.58579 21.75 4 21.75C4.41421 21.75 4.75 21.4142 4.75 21H3.25ZM2 18.25C1.58579 18.25 1.25 18.5858 1.25 19C1.25 19.4142 1.58579 19.75 2 19.75V18.25ZM2 19.75C2.69036 19.75 3.25 20.3096 3.25 21H4.75C4.75 19.4812 3.51878 18.25 2 18.25V19.75Z" fill="#28303F"/>
<path d="M7.25 21C7.25 21.4142 7.58579 21.75 8 21.75C8.41421 21.75 8.75 21.4142 8.75 21H7.25ZM2 14.25C1.58579 14.25 1.25 14.5858 1.25 15C1.25 15.4142 1.58579 15.75 2 15.75V14.25ZM2 15.75C4.89949 15.75 7.25 18.1005 7.25 21H8.75C8.75 17.2721 5.72792 14.25 2 14.25V15.75Z" fill="#28303F"/>
<path d="M11.25 21C11.25 21.4142 11.5858 21.75 12 21.75C12.4142 21.75 12.75 21.4142 12.75 21H11.25ZM2 10.25C1.58579 10.25 1.25 10.5858 1.25 11C1.25 11.4142 1.58579 11.75 2 11.75V10.25ZM2 11.75C7.10863 11.75 11.25 15.8914 11.25 21H12.75C12.75 15.0629 7.93706 10.25 2 10.25V11.75Z" fill="#28303F"/>
<path d="M2 7.42857V7C2 4.79086 3.79086 3 6 3H18C20.2091 3 22 4.79086 22 7V16C22 18.2091 20.2091 20 18 20H15.4" stroke="#28303F" stroke-width="1.5" stroke-linecap="round" stroke-linejoin="round"/>
</svg>
