<svg width="24" height="24" viewBox="0 0 24 24" fill="none" xmlns="http://www.w3.org/2000/svg">
<path d="M3.75 13.1111C3.75 10.9072 5.03493 8.29674 6.80731 6.19859C7.68353 5.16133 8.65039 4.28433 9.58168 3.67262C10.5283 3.05085 11.3661 2.75 12 2.75L12 1.25C10.9464 1.25 9.81548 1.72439 8.75817 2.41889C7.68554 3.12345 6.61334 4.10375 5.66144 5.23062C3.77757 7.46073 2.25 10.4059 2.25 13.1111L3.75 13.1111ZM12 2.75C12.6339 2.75 13.4717 3.05085 14.4183 3.67262C15.3496 4.28433 16.3165 5.16133 17.1927 6.19859C18.9651 8.29674 20.25 10.9072 20.25 13.1111L21.75 13.1111C21.75 10.4059 20.2224 7.46073 18.3386 5.23062C17.3867 4.10376 16.3145 3.12345 15.2418 2.41889C14.1845 1.72439 13.0536 1.25 12 1.25L12 2.75ZM20.25 13.1111C20.25 17.5973 16.5652 21.25 12 21.25L12 22.75C17.376 22.75 21.75 18.4433 21.75 13.1111L20.25 13.1111ZM12 21.25C7.43484 21.25 3.75 17.5973 3.75 13.1111L2.25 13.1111C2.25 18.4433 6.62403 22.75 12 22.75L12 21.25Z" fill="#28303F"/>
<path d="M12 2V22" stroke="#28303F" stroke-width="1.5" stroke-linecap="round" stroke-linejoin="round"/>
</svg>
