<svg width="24" height="24" viewBox="0 0 24 24" fill="none" xmlns="http://www.w3.org/2000/svg">
<rect x="2" y="2" width="20" height="16" rx="3" stroke="#28303F" stroke-width="1.5"/>
<path d="M9 21.25C8.58579 21.25 8.25 21.5858 8.25 22C8.25 22.4142 8.58579 22.75 9 22.75V21.25ZM15 22.75C15.4142 22.75 15.75 22.4142 15.75 22C15.75 21.5858 15.4142 21.25 15 21.25V22.75ZM12.75 18C12.75 17.5858 12.4142 17.25 12 17.25C11.5858 17.25 11.25 17.5858 11.25 18H12.75ZM9 22.75H12V21.25H9V22.75ZM12 22.75H15V21.25H12V22.75ZM12.75 22V18H11.25V22H12.75Z" fill="#28303F"/>
<path d="M11 14.25C10.5858 14.25 10.25 14.5858 10.25 15C10.25 15.4142 10.5858 15.75 11 15.75V14.25ZM13 15.75C13.4142 15.75 13.75 15.4142 13.75 15C13.75 14.5858 13.4142 14.25 13 14.25V15.75ZM11 15.75H13V14.25H11V15.75Z" fill="#28303F"/>
</svg>
