<svg width="24" height="24" viewBox="0 0 24 24" fill="none" xmlns="http://www.w3.org/2000/svg">
<rect x="14" y="7" width="8" height="13" rx="2" stroke="#28303F" stroke-width="1.5"/>
<path d="M20 4.75C20.4142 4.75 20.75 4.41421 20.75 4C20.75 3.58579 20.4142 3.25 20 3.25V4.75ZM11 17.75C11.4142 17.75 11.75 17.4142 11.75 17C11.75 16.5858 11.4142 16.25 11 16.25V17.75ZM4 17H3.25V17.75H4V17ZM6 4.75H20V3.25H6V4.75ZM11 16.25H4V17.75H11V16.25ZM4.75 17V6H3.25V17H4.75ZM6 3.25C4.48122 3.25 3.25 4.48122 3.25 6H4.75C4.75 5.30964 5.30964 4.75 6 4.75V3.25Z" fill="#28303F"/>
<path d="M11 17.75C11.4142 17.75 11.75 17.4142 11.75 17C11.75 16.5858 11.4142 16.25 11 16.25V17.75ZM11 20.75C11.4142 20.75 11.75 20.4142 11.75 20C11.75 19.5858 11.4142 19.25 11 19.25V20.75ZM3.5 17.75H11V16.25H3.5V17.75ZM11 19.25H3.5V20.75H11V19.25ZM3.5 19.25C3.08579 19.25 2.75 18.9142 2.75 18.5H1.25C1.25 19.7426 2.25736 20.75 3.5 20.75V19.25ZM3.5 16.25C2.25736 16.25 1.25 17.2574 1.25 18.5H2.75C2.75 18.0858 3.08579 17.75 3.5 17.75V16.25Z" fill="#28303F"/>
</svg>
