<svg width="24" height="24" viewBox="0 0 24 24" fill="none" xmlns="http://www.w3.org/2000/svg">
<path d="M14 5C14 6.10457 13.1046 7 12 7C10.8954 7 10 6.10457 10 5C10 3.89543 10.8954 3 12 3C13.1046 3 14 3.89543 14 5Z" stroke="#28303F" stroke-width="1.5"/>
<path d="M9.57063 19.845L10.1538 19.3734L9.57063 19.845ZM5.85168 15.2465L5.26852 15.7181L5.26852 15.7181L5.85168 15.2465ZM11.3373 10.0756L11.8648 9.54238L11.8648 9.54238L11.3373 10.0756ZM12 10.7311L11.4726 11.2643C11.7648 11.5534 12.2352 11.5534 12.5274 11.2643L12 10.7311ZM12.6627 10.0756L12.1352 9.54238L12.6627 10.0756ZM18.1483 15.2465L18.7315 15.7181L18.7315 15.7181L18.1483 15.2465ZM14.4294 19.845L15.0125 20.3166L14.4294 19.845ZM10.1538 19.3734L6.43484 14.7748L5.26852 15.7181L8.98747 20.3166L10.1538 19.3734ZM5.75 12.8447V12.6723H4.25V12.8447H5.75ZM10.8099 10.6088L11.4726 11.2643L12.5274 10.1979L11.8648 9.54238L10.8099 10.6088ZM12.5274 11.2643L13.1901 10.6088L12.1352 9.54238L11.4726 10.1979L12.5274 11.2643ZM18.25 12.6723V12.8447H19.75V12.6723H18.25ZM17.5652 14.7748L13.8462 19.3734L15.0125 20.3166L18.7315 15.7181L17.5652 14.7748ZM18.25 12.8447C18.25 13.5453 18.009 14.226 17.5652 14.7748L18.7315 15.7181C19.3902 14.9035 19.75 13.8902 19.75 12.8447H18.25ZM15.2877 9.75C16.9314 9.75 18.25 11.066 18.25 12.6723H19.75C19.75 10.2223 17.7445 8.25 15.2877 8.25V9.75ZM8.71231 9.75C9.50057 9.75 10.2549 10.0598 10.8099 10.6088L11.8648 9.54238C11.0273 8.71396 9.89318 8.25 8.71231 8.25V9.75ZM5.75 12.6723C5.75 11.066 7.06858 9.75 8.71231 9.75V8.25C6.25554 8.25 4.25 10.2223 4.25 12.6723H5.75ZM6.43484 14.7748C5.99097 14.226 5.75 13.5453 5.75 12.8447H4.25C4.25 13.8902 4.60976 14.9035 5.26852 15.7181L6.43484 14.7748ZM13.1901 10.6088C13.7451 10.0598 14.4994 9.75 15.2877 9.75V8.25C14.1068 8.25 12.9727 8.71396 12.1352 9.54238L13.1901 10.6088ZM8.98747 20.3166C10.5331 22.2278 13.4669 22.2278 15.0125 20.3166L13.8462 19.3734C12.9009 20.5422 11.0991 20.5422 10.1538 19.3734L8.98747 20.3166Z" fill="#28303F"/>
</svg>
