<svg width="24" height="24" viewBox="0 0 24 24" fill="none" xmlns="http://www.w3.org/2000/svg">
<path d="M12 10V14" stroke="#28303F" stroke-width="1.5" stroke-linecap="round" stroke-linejoin="round"/>
<path d="M5.96967 20.4697C5.67678 20.7626 5.67678 21.2374 5.96967 21.5303C6.26256 21.8232 6.73744 21.8232 7.03033 21.5303L5.96967 20.4697ZM12.9697 20.4697C12.6768 20.7626 12.6768 21.2374 12.9697 21.5303C13.2626 21.8232 13.7374 21.8232 14.0303 21.5303L12.9697 20.4697ZM13.7426 20.7574L13.2123 20.227L13.7426 20.7574ZM6.74264 20.7574L6.21231 20.227L6.74264 20.7574ZM7.03033 21.5303L7.27297 21.2877L6.21231 20.227L5.96967 20.4697L7.03033 21.5303ZM9.25 16.5147V10H7.75V16.5147H9.25ZM14.75 10V16.5147H16.25V10H14.75ZM13.2123 20.227L12.9697 20.4697L14.0303 21.5303L14.273 21.2877L13.2123 20.227ZM14.75 16.5147C14.75 17.9071 14.1969 19.2425 13.2123 20.227L14.273 21.2877C15.5388 20.0218 16.25 18.3049 16.25 16.5147H14.75ZM12 7.25C13.5188 7.25 14.75 8.48122 14.75 10H16.25C16.25 7.65279 14.3472 5.75 12 5.75V7.25ZM9.25 10C9.25 8.48122 10.4812 7.25 12 7.25V5.75C9.65279 5.75 7.75 7.65279 7.75 10H9.25ZM7.27297 21.2877C8.53884 20.0218 9.25 18.3049 9.25 16.5147H7.75C7.75 17.9071 7.19688 19.2425 6.21231 20.227L7.27297 21.2877Z" fill="#28303F"/>
<path d="M4.25 17C4.25 17.4142 4.58579 17.75 5 17.75C5.41421 17.75 5.75 17.4142 5.75 17H4.25ZM18.25 17C18.25 17.4142 18.5858 17.75 19 17.75C19.4142 17.75 19.75 17.4142 19.75 17H18.25ZM5.75 17V10H4.25V17H5.75ZM18.25 10V17H19.75V10H18.25ZM12 3.75C15.4518 3.75 18.25 6.54822 18.25 10H19.75C19.75 5.71979 16.2802 2.25 12 2.25V3.75ZM5.75 10C5.75 6.54822 8.54822 3.75 12 3.75V2.25C7.71979 2.25 4.25 5.71979 4.25 10H5.75Z" fill="#28303F"/>
</svg>
