<svg width="24" height="24" viewBox="0 0 24 24" fill="none" xmlns="http://www.w3.org/2000/svg">
<path d="M15 7.53368L14.6872 6.85204C14.4208 6.97431 14.25 7.24056 14.25 7.53368H15ZM9 7.53368H9.75C9.75 7.24056 9.57924 6.97431 9.31285 6.85204L9 7.53368ZM6.85714 2.75H17.1429V1.25H6.85714V2.75ZM17.1429 2.75C17.202 2.75 17.25 2.79797 17.25 2.85714H18.75C18.75 1.96954 18.0305 1.25 17.1429 1.25V2.75ZM6.85714 1.25C5.96954 1.25 5.25 1.96954 5.25 2.85714H6.75C6.75 2.79797 6.79797 2.75 6.85714 2.75V1.25ZM15.75 19V7.53368H14.25V19H15.75ZM17.25 2.85714C17.25 4.62888 16.2011 6.1572 14.6872 6.85204L15.3128 8.21531C17.3398 7.285 18.75 5.23654 18.75 2.85714H17.25ZM8.25 7.53368V19H9.75V7.53368H8.25ZM9.31285 6.85204C7.79891 6.1572 6.75 4.62888 6.75 2.85714H5.25C5.25 5.23654 6.66018 7.285 8.68715 8.21531L9.31285 6.85204ZM12 22.75C14.0711 22.75 15.75 21.0711 15.75 19H14.25C14.25 20.2426 13.2426 21.25 12 21.25V22.75ZM12 21.25C10.7574 21.25 9.75 20.2426 9.75 19H8.25C8.25 21.0711 9.92893 22.75 12 22.75V21.25Z" fill="#28303F"/>
<path d="M12 9V11" stroke="#28303F" stroke-width="1.5" stroke-linecap="round" stroke-linejoin="round"/>
</svg>
