<svg width="24" height="24" viewBox="0 0 24 24" fill="none" xmlns="http://www.w3.org/2000/svg">
<path d="M3 13.5L12 2V10.5H17L8 22V13.5H3Z" stroke="#28303F" stroke-width="1.5" stroke-linejoin="round"/>
<path d="M15.3077 7.71154C15.1484 8.09389 15.3292 8.53299 15.7115 8.69231C16.0939 8.85162 16.533 8.67081 16.6923 8.28846L15.3077 7.71154ZM18.5 2L19.1923 1.71154C19.0759 1.43205 18.8028 1.25 18.5 1.25C18.1972 1.25 17.9241 1.43205 17.8077 1.71154L18.5 2ZM20.3077 8.28846C20.467 8.67081 20.9061 8.85162 21.2885 8.69231C21.6708 8.53299 21.8516 8.09389 21.6923 7.71154L20.3077 8.28846ZM16.6923 8.28846L19.1923 2.28846L17.8077 1.71154L15.3077 7.71154L16.6923 8.28846ZM17.8077 2.28846L20.3077 8.28846L21.6923 7.71154L19.1923 1.71154L17.8077 2.28846Z" fill="#28303F"/>
<path d="M17 6H20" stroke="#28303F" stroke-width="1.5" stroke-linecap="round" stroke-linejoin="round"/>
</svg>
