<svg width="24" height="24" viewBox="0 0 24 24" fill="none" xmlns="http://www.w3.org/2000/svg">
<path d="M12 5V3" stroke="#28303F" stroke-width="1.5" stroke-linecap="round"/>
<path d="M12 21V19" stroke="#28303F" stroke-width="1.5" stroke-linecap="round"/>
<path d="M19 12L21 12" stroke="#28303F" stroke-width="1.5" stroke-linecap="round"/>
<path d="M3 12L5 12" stroke="#28303F" stroke-width="1.5" stroke-linecap="round"/>
<path d="M3 3L21 21" stroke="#28303F" stroke-width="1.5" stroke-linecap="round"/>
<path d="M9.47085 5.47085C10.2553 5.16678 11.1082 5 12 5C15.866 5 19 8.13401 19 12C19 12.8918 18.8332 13.7447 18.5291 14.5291M7.05025 7.05025C5.7835 8.317 5 10.067 5 12C5 15.866 8.13401 19 12 19C13.933 19 15.683 18.2165 16.9497 16.9497" stroke="#28303F" stroke-width="1.5" stroke-linecap="round"/>
<path d="M12 14.2502C10.7574 14.2502 9.75 13.2429 9.75 12.0002H8.25C8.25 14.0713 9.92893 15.7502 12 15.7502V14.2502ZM13.591 13.5912C13.183 13.9992 12.6215 14.2502 12 14.2502V15.7502C13.0353 15.7502 13.9739 15.3297 14.6517 14.6519L13.591 13.5912ZM9.75 12.0002C9.75 11.3787 10.001 10.8172 10.409 10.4092L9.34835 9.34858C8.67055 10.0264 8.25 10.9649 8.25 12.0002H9.75Z" fill="#28303F"/>
</svg>
