<svg width="24" height="24" viewBox="0 0 24 24" fill="none" xmlns="http://www.w3.org/2000/svg">
<path d="M22 22L2 2" stroke="#28303F" stroke-width="1.5" stroke-linecap="round"/>
<path d="M14.75 14C14.75 13.5858 14.4142 13.25 14 13.25C13.5858 13.25 13.25 13.5858 13.25 14H14.75ZM12 12.75C12.4142 12.75 12.75 12.4142 12.75 12C12.75 11.5858 12.4142 11.25 12 11.25V12.75ZM12 7.25C11.5858 7.25 11.25 7.58579 11.25 8C11.25 8.41421 11.5858 8.75 12 8.75V7.25ZM17.25 14C17.25 14.4142 17.5858 14.75 18 14.75C18.4142 14.75 18.75 14.4142 18.75 14H17.25ZM7.22703 18.773C7.51992 19.0659 7.9948 19.0659 8.28769 18.773C8.58058 18.4801 8.58058 18.0052 8.28769 17.7123L7.22703 18.773ZM4.3986 21.6014C4.6915 21.8943 5.16637 21.8943 5.45926 21.6014C5.75216 21.3085 5.75216 20.8336 5.45926 20.5407L4.3986 21.6014ZM20.7001 17.1499C20.559 17.5393 20.7604 17.9694 21.1499 18.1104C21.5393 18.2515 21.9694 18.0501 22.1104 17.6606L20.7001 17.1499ZM9.26728 9.51627C9.62075 9.30031 9.73222 8.83871 9.51627 8.48525C9.30032 8.13178 8.83871 8.02031 8.48525 8.23626L9.26728 9.51627ZM6.45005 6.59923C6.78122 6.35045 6.84802 5.8803 6.59923 5.54912C6.35045 5.21794 5.8803 5.15115 5.54912 5.39993L6.45005 6.59923ZM8.33938 3.88956C7.94992 4.0306 7.74853 4.46066 7.88956 4.85012C8.0306 5.23958 8.46066 5.44097 8.85012 5.29994L8.33938 3.88956ZM13.25 14C13.25 14.6904 12.6904 15.25 12 15.25V16.75C13.5188 16.75 14.75 15.5188 14.75 14H13.25ZM12 15.25C11.3096 15.25 10.75 14.6904 10.75 14H9.25C9.25 15.5188 10.4812 16.75 12 16.75V15.25ZM10.75 14C10.75 13.3096 11.3096 12.75 12 12.75V11.25C10.4812 11.25 9.25 12.4812 9.25 14H10.75ZM12 4.75C17.1086 4.75 21.25 8.89137 21.25 14H22.75C22.75 8.06294 17.9371 3.25 12 3.25V4.75ZM12 8.75C14.8995 8.75 17.25 11.1005 17.25 14H18.75C18.75 10.2721 15.7279 7.25 12 7.25V8.75ZM8.28769 17.7123C7.33681 16.7614 6.75 15.45 6.75 14H5.25C5.25 15.8638 6.00634 17.5523 7.22703 18.773L8.28769 17.7123ZM5.45926 20.5407C3.78452 18.866 2.75 16.5545 2.75 14H1.25C1.25 16.9683 2.45406 19.6569 4.3986 21.6014L5.45926 20.5407ZM21.25 14C21.25 15.1074 21.0557 16.1677 20.7001 17.1499L22.1104 17.6606C22.5245 16.5171 22.75 15.284 22.75 14H21.25ZM6.75 14C6.75 12.1027 7.756 10.4396 9.26728 9.51627L8.48525 8.23626C6.54664 9.42068 5.25 11.5586 5.25 14H6.75ZM2.75 14C2.75 10.9744 4.20185 8.2881 6.45005 6.59923L5.54912 5.39993C2.94 7.35992 1.25 10.4827 1.25 14H2.75ZM8.85012 5.29994C9.83228 4.94426 10.8926 4.75 12 4.75V3.25C10.716 3.25 9.48293 3.47545 8.33938 3.88956L8.85012 5.29994Z" fill="#28303F"/>
</svg>
