<svg width="24" height="24" viewBox="0 0 24 24" fill="none" xmlns="http://www.w3.org/2000/svg">
<path d="M20 16V16.75H20.75V16H20ZM4 16H3.25V16.75H4V16ZM6 4.75H18V3.25H6V4.75ZM19.25 6V16H20.75V6H19.25ZM20 15.25H4V16.75H20V15.25ZM4.75 16V6H3.25V16H4.75ZM18 4.75C18.6904 4.75 19.25 5.30964 19.25 6H20.75C20.75 4.48122 19.5188 3.25 18 3.25V4.75ZM6 3.25C4.48122 3.25 3.25 4.48122 3.25 6H4.75C4.75 5.30964 5.30964 4.75 6 4.75V3.25Z" fill="#28303F"/>
<path d="M3 16.75H21V15.25H3V16.75ZM19 19.25H5V20.75H19V19.25ZM5 19.25C3.75736 19.25 2.75 18.2426 2.75 17H1.25C1.25 19.0711 2.92893 20.75 5 20.75V19.25ZM21.25 17C21.25 18.2426 20.2426 19.25 19 19.25V20.75C21.0711 20.75 22.75 19.0711 22.75 17H21.25ZM21 16.75C21.1381 16.75 21.25 16.8619 21.25 17H22.75C22.75 16.0335 21.9665 15.25 21 15.25V16.75ZM3 15.25C2.0335 15.25 1.25 16.0335 1.25 17H2.75C2.75 16.8619 2.86193 16.75 3 16.75V15.25Z" fill="#28303F"/>
</svg>
