<svg width="24" height="24" viewBox="0 0 24 24" fill="none" xmlns="http://www.w3.org/2000/svg">
<circle cx="12" cy="12" r="5" stroke="#28303F" stroke-width="1.5"/>
<path d="M12.75 2C12.75 1.58579 12.4142 1.25 12 1.25C11.5858 1.25 11.25 1.58579 11.25 2H12.75ZM11.25 4C11.25 4.41421 11.5858 4.75 12 4.75C12.4142 4.75 12.75 4.41421 12.75 4H11.25ZM11.25 2V4H12.75V2H11.25Z" fill="#28303F"/>
<path d="M12.75 20C12.75 19.5858 12.4142 19.25 12 19.25C11.5858 19.25 11.25 19.5858 11.25 20H12.75ZM11.25 22C11.25 22.4142 11.5858 22.75 12 22.75C12.4142 22.75 12.75 22.4142 12.75 22H11.25ZM11.25 20V22H12.75V20H11.25Z" fill="#28303F"/>
<path d="M21.0352 7.64952C21.3939 7.44241 21.5168 6.98372 21.3097 6.625C21.1026 6.26628 20.6439 6.14337 20.2852 6.35048L21.0352 7.64952ZM18.5531 7.35048C18.1944 7.55759 18.0715 8.01628 18.2786 8.375C18.4857 8.73372 18.9444 8.85663 19.3031 8.64952L18.5531 7.35048ZM20.2852 6.35048L18.5531 7.35048L19.3031 8.64952L21.0352 7.64952L20.2852 6.35048Z" fill="#28303F"/>
<path d="M5.44678 16.6495C5.8055 16.4424 5.9284 15.9837 5.7213 15.625C5.51419 15.2663 5.0555 15.1434 4.69678 15.3505L5.44678 16.6495ZM2.96473 16.3505C2.60601 16.5576 2.4831 17.0163 2.69021 17.375C2.89731 17.7337 3.35601 17.8566 3.71473 17.6495L2.96473 16.3505ZM4.69678 15.3505L2.96473 16.3505L3.71473 17.6495L5.44678 16.6495L4.69678 15.3505Z" fill="#28303F"/>
<path d="M3.71484 6.35048C3.35612 6.14337 2.89743 6.26628 2.69032 6.625C2.48322 6.98372 2.60612 7.44241 2.96484 7.64952L3.71484 6.35048ZM4.69689 8.64952C5.05561 8.85663 5.51431 8.73372 5.72141 8.375C5.92852 8.01628 5.80561 7.55759 5.44689 7.35048L4.69689 8.64952ZM2.96484 7.64952L4.69689 8.64952L5.44689 7.35048L3.71484 6.35048L2.96484 7.64952Z" fill="#28303F"/>
<path d="M19.3032 15.3505C18.9445 15.1434 18.4858 15.2663 18.2787 15.625C18.0716 15.9837 18.1945 16.4424 18.5532 16.6495L19.3032 15.3505ZM20.2853 17.6495C20.644 17.8566 21.1027 17.7337 21.3098 17.375C21.5169 17.0163 21.394 16.5576 21.0353 16.3505L20.2853 17.6495ZM18.5532 16.6495L20.2853 17.6495L21.0353 16.3505L19.3032 15.3505L18.5532 16.6495Z" fill="#28303F"/>
</svg>
