<svg width="24" height="24" viewBox="0 0 24 24" fill="none" xmlns="http://www.w3.org/2000/svg">
<path d="M11 17L9.41421 18.5858C8.63317 19.3668 7.36684 19.3668 6.58579 18.5858L5 17M8 8L8 18.5" stroke="#28303F" stroke-width="1.5" stroke-linecap="round" stroke-linejoin="round"/>
<path d="M4 4L20 20" stroke="#28303F" stroke-width="1.5" stroke-linecap="round"/>
<path fill-rule="evenodd" clip-rule="evenodd" d="M16.75 13.6895L16.75 5.82842C16.7967 5.8635 16.8414 5.90227 16.8839 5.94473L18.4697 7.53052C18.7626 7.82341 19.2374 7.82341 19.5303 7.53052C19.8232 7.23763 19.8232 6.76275 19.5303 6.46986L17.9445 4.88407C16.8706 3.81013 15.1294 3.81013 14.0555 4.88408L12.4697 6.46986C12.1768 6.76275 12.1768 7.23763 12.4697 7.53052C12.7626 7.82341 13.2374 7.82341 13.5303 7.53052L15.1161 5.94474C15.1586 5.90227 15.2033 5.8635 15.25 5.82842L15.25 12.1895L16.75 13.6895Z" fill="#28303F"/>
</svg>
