<svg width="24" height="24" viewBox="0 0 24 24" fill="none" xmlns="http://www.w3.org/2000/svg">
<circle cx="17" cy="16.0479" r="3" stroke="#28303F" stroke-width="1.5"/>
<circle cx="7" cy="18" r="3" stroke="#28303F" stroke-width="1.5"/>
<path d="M20.75 16.0479C20.75 16.4621 20.4142 16.7979 20 16.7979C19.5858 16.7979 19.25 16.4621 19.25 16.0479H20.75ZM10.75 18.0479C10.75 18.4621 10.4142 18.7979 10 18.7979C9.58579 18.7979 9.25 18.4621 9.25 18.0479H10.75ZM12.5144 10.0421L12.793 10.7384L12.5144 10.0421ZM19.25 16.0479V10.0019H20.75V16.0479H19.25ZM17.5358 8.84132L12.793 10.7384L12.2359 9.34572L16.9787 7.44861L17.5358 8.84132ZM10.75 13.756V18.0479H9.25V13.756H10.75ZM12.793 10.7384C11.5591 11.232 10.75 12.427 10.75 13.756H9.25C9.25 11.8137 10.4325 10.0671 12.2359 9.34572L12.793 10.7384ZM19.25 10.0019C19.25 9.11759 18.3568 8.51289 17.5358 8.84132L16.9787 7.44861C18.7851 6.72606 20.75 8.05639 20.75 10.0019H19.25Z" fill="#28303F"/>
<path d="M20.75 12.0479C20.75 12.4621 20.4142 12.7979 20 12.7979C19.5858 12.7979 19.25 12.4621 19.25 12.0479H20.75ZM17.2572 3.14502L17.5358 3.84138L17.2572 3.14502ZM12.5144 5.04213L12.793 5.73849L12.5144 5.04213ZM10.75 16.0479C10.75 16.4621 10.4142 16.7979 10 16.7979C9.58579 16.7979 9.25 16.4621 9.25 16.0479H10.75ZM19.25 12.0479V5.00197H20.75V12.0479H19.25ZM17.5358 3.84138L12.793 5.73849L12.2359 4.34577L16.9787 2.44866L17.5358 3.84138ZM10.75 8.75604V16.0479H9.25V8.75604H10.75ZM12.793 5.73849C11.5591 6.23204 10.75 7.4271 10.75 8.75604H9.25C9.25 6.81374 10.4325 5.06712 12.2359 4.34577L12.793 5.73849ZM19.25 5.00197C19.25 4.11764 18.3568 3.51294 17.5358 3.84138L16.9787 2.44866C18.7851 1.72611 20.75 3.05645 20.75 5.00197H19.25Z" fill="#28303F"/>
</svg>
