<svg width="24" height="24" viewBox="0 0 24 24" fill="none" xmlns="http://www.w3.org/2000/svg">
<circle cx="6" cy="18" r="3" stroke="#28303F" stroke-width="1.5"/>
<path d="M3 3L21 21" stroke="#28303F" stroke-width="1.5" stroke-linecap="round" stroke-linejoin="round"/>
<path d="M19 10.002H18.25V10.002L19 10.002ZM16.2572 8.14502L15.9786 7.44866V7.44867L16.2572 8.14502ZM18.25 12.0479C18.25 12.4621 18.5858 12.7979 19 12.7979C19.4142 12.7979 19.75 12.4621 19.75 12.0479H18.25ZM16.2572 3.14502L15.9787 2.44866L16.2572 3.14502ZM11.5144 5.04213L11.793 5.73849L11.5144 5.04213ZM8.25 18.0479C8.25 18.4621 8.58579 18.7979 9 18.7979C9.41421 18.7979 9.75 18.4621 9.75 18.0479H8.25ZM18.25 15C18.25 15.4142 18.5858 15.75 19 15.75C19.4142 15.75 19.75 15.4142 19.75 15L18.25 15ZM18.6814 18.6695C18.971 18.3733 18.9656 17.8985 18.6695 17.6089C18.3733 17.3193 17.8985 17.3246 17.6089 17.6208L18.6814 18.6695ZM14.4271 14.439C14.7233 14.1494 14.7286 13.6746 14.439 13.3784C14.1494 13.0823 13.6746 13.0769 13.3784 13.3665L14.4271 14.439ZM13.0414 8.62357C12.6568 8.7774 12.4697 9.21388 12.6236 9.59847C12.7774 9.98305 13.2139 10.1701 13.5985 10.0163L13.0414 8.62357ZM9.49935 5.54533C9.21943 5.85064 9.24001 6.32507 9.54533 6.60499C9.85064 6.88491 10.3251 6.86432 10.605 6.55901L9.49935 5.54533ZM9.75 9C9.75 8.58578 9.41421 8.25 9 8.25C8.58579 8.25 8.25 8.58578 8.25 9H9.75ZM16 18.2979C14.7574 18.2979 13.75 17.2905 13.75 16.0479H12.25C12.25 18.119 13.9289 19.7979 16 19.7979V18.2979ZM19.75 10.002C19.75 8.05645 17.785 6.72611 15.9786 7.44866L16.5357 8.84138C17.3568 8.51295 18.25 9.11765 18.25 10.002H19.75ZM19.75 12.0479V5.00197H18.25V12.0479H19.75ZM15.9787 2.44866L11.2359 4.34577L11.793 5.73849L16.5358 3.84138L15.9787 2.44866ZM19.75 5.00197C19.75 3.05645 17.7851 1.72611 15.9787 2.44866L16.5358 3.84138C17.3568 3.51294 18.25 4.11764 18.25 5.00197H19.75ZM19.75 15L19.75 10.002L18.25 10.002L18.25 15L19.75 15ZM17.6089 17.6208C17.1995 18.0395 16.6306 18.2979 16 18.2979V19.7979C17.0506 19.7979 18.0014 19.3649 18.6814 18.6695L17.6089 17.6208ZM13.75 16.0479C13.75 15.4173 14.0084 14.8484 14.4271 14.439L13.3784 13.3665C12.683 14.0465 12.25 14.9973 12.25 16.0479H13.75ZM15.9786 7.44867L13.0414 8.62357L13.5985 10.0163L16.5357 8.84138L15.9786 7.44867ZM11.2359 4.34577C10.5603 4.61603 9.97132 5.03054 9.49935 5.54533L10.605 6.55901C10.9278 6.20693 11.3303 5.92356 11.793 5.73849L11.2359 4.34577ZM8.25 9V18.0479H9.75V9H8.25Z" fill="#28303F"/>
</svg>
