<svg width="24" height="24" viewBox="0 0 24 24" fill="none" xmlns="http://www.w3.org/2000/svg">
<path d="M3 2.75L21 20.75" stroke="#28303F" stroke-width="1.5" stroke-linecap="round"/>
<path d="M4.45549 13.88L3.88393 13.3944H3.88393L4.45549 13.88ZM5.33476 11.8385L6.07999 11.9229L5.33476 11.8385ZM18.6652 11.8385L19.4105 11.7541L18.6652 11.8385ZM19.5445 13.88L20.1161 13.3944L19.5445 13.88ZM18.3204 8.79403L17.5751 8.87846V8.87846L18.3204 8.79403ZM5.67964 8.79403L4.9344 8.70961L5.67964 8.79403ZM19.1991 15.4521C19.0801 15.8488 19.3053 16.2669 19.7021 16.3859C20.0988 16.5049 20.5169 16.2797 20.6359 15.8829L19.1991 15.4521ZM7.96647 3.53735C7.62832 3.77658 7.54813 4.24463 7.78735 4.58278C8.02658 4.92093 8.49463 5.00112 8.83278 4.7619L7.96647 3.53735ZM7.15458 6.62188C7.35881 6.26152 7.23225 5.80382 6.87188 5.59959C6.51152 5.39536 6.05382 5.52192 5.84959 5.88229L7.15458 6.62188ZM17.25 17.75C17.6642 17.75 18 17.4142 18 17C18 16.5858 17.6642 16.25 17.25 16.25V17.75ZM17.5751 8.87846L17.92 11.9229L19.4105 11.7541L19.0656 8.70961L17.5751 8.87846ZM6.07999 11.9229L6.42487 8.87846L4.9344 8.70961L4.58953 11.7541L6.07999 11.9229ZM5.02706 14.3657C5.61172 13.6775 5.97775 12.8255 6.07999 11.9229L4.58953 11.7541C4.52038 12.3645 4.2732 12.9363 3.88393 13.3944L5.02706 14.3657ZM17.92 11.9229C18.0223 12.8255 18.3883 13.6775 18.9729 14.3657L20.1161 13.3944C19.7268 12.9363 19.4796 12.3645 19.4105 11.7541L17.92 11.9229ZM5.83014 16.25C4.94334 16.25 4.37926 15.1281 5.02706 14.3657L3.88393 13.3944C2.46491 15.0647 3.57828 17.75 5.83014 17.75V16.25ZM19.0656 8.70961C18.6504 5.04473 15.6279 2.25 12 2.25V3.75C14.8302 3.75 17.2419 5.93698 17.5751 8.87846L19.0656 8.70961ZM20.6359 15.8829C20.8767 15.0798 20.7504 14.141 20.1161 13.3944L18.9729 14.3657C19.2498 14.6915 19.3069 15.0924 19.1991 15.4521L20.6359 15.8829ZM8.83278 4.7619C9.73943 4.12048 10.8319 3.75 12 3.75V2.25C10.5091 2.25 9.1161 2.72404 7.96647 3.53735L8.83278 4.7619ZM6.42487 8.87846C6.51791 8.05714 6.77336 7.29454 7.15458 6.62188L5.84959 5.88229C5.36994 6.72861 5.05047 7.68505 4.9344 8.70961L6.42487 8.87846ZM17.25 16.25H5.83014V17.75H17.25V16.25Z" fill="#28303F"/>
<path d="M15.7023 19.2632C15.8477 18.8753 15.6511 18.4431 15.2632 18.2977C14.8753 18.1523 14.4431 18.3489 14.2977 18.7368L15.7023 19.2632ZM9.7023 18.7368C9.55694 18.3489 9.12467 18.1523 8.7368 18.2977C8.34893 18.4431 8.15234 18.8753 8.2977 19.2632L9.7023 18.7368ZM14.2977 18.7368C13.975 19.5979 13.0846 20.25 12 20.25V21.75C13.6855 21.75 15.1516 20.7325 15.7023 19.2632L14.2977 18.7368ZM12 20.25C10.9154 20.25 10.025 19.5979 9.7023 18.7368L8.2977 19.2632C8.84835 20.7325 10.3145 21.75 12 21.75V20.25Z" fill="#28303F"/>
</svg>
