<svg width="24" height="24" viewBox="0 0 24 24" fill="none" xmlns="http://www.w3.org/2000/svg">
<circle cx="17" cy="5" r="3" stroke="#28303F" stroke-width="1.5"/>
<path d="M4.45549 14.8799L3.88393 14.3943H3.88393L4.45549 14.8799ZM5.33476 12.8383L4.58953 12.7539L5.33476 12.8383ZM18.6652 12.8383L19.4105 12.7539L18.6652 12.8383ZM19.5445 14.8799L20.1161 14.3943L19.5445 14.8799ZM5.67964 9.79388L6.42487 9.8783L5.67964 9.79388ZM11.1837 4.81093C11.5933 4.7491 11.8752 4.36695 11.8133 3.95737C11.7515 3.5478 11.3693 3.26591 10.9598 3.32774L11.1837 4.81093ZM19.1826 10.7422C19.136 10.3306 18.7645 10.0347 18.3529 10.0813C17.9413 10.128 17.6455 10.4994 17.6921 10.911L19.1826 10.7422ZM18.1699 17.2498H5.83014V18.7498H18.1699V17.2498ZM6.07999 12.9228L6.42487 9.8783L4.9344 9.70946L4.58953 12.7539L6.07999 12.9228ZM5.02706 15.3655C5.61172 14.6773 5.97775 13.8253 6.07999 12.9228L4.58953 12.7539C4.52038 13.3643 4.2732 13.9361 3.88393 14.3943L5.02706 15.3655ZM17.92 12.9228C18.0223 13.8253 18.3883 14.6773 18.9729 15.3655L20.1161 14.3943C19.7268 13.9361 19.4796 13.3643 19.4105 12.7539L17.92 12.9228ZM5.83014 17.2498C4.94334 17.2498 4.37926 16.128 5.02706 15.3655L3.88393 14.3943C2.46491 16.0645 3.57828 18.7498 5.83014 18.7498V17.2498ZM18.1699 18.7498C20.4217 18.7498 21.5351 16.0645 20.1161 14.3943L18.9729 15.3655C19.6207 16.128 19.0567 17.2498 18.1699 17.2498V18.7498ZM6.42487 9.8783C6.72543 7.22501 8.71984 5.18291 11.1837 4.81093L10.9598 3.32774C7.80683 3.80375 5.30924 6.40056 4.9344 9.70946L6.42487 9.8783ZM17.6921 10.911L17.92 12.9228L19.4105 12.7539L19.1826 10.7422L17.6921 10.911Z" fill="#28303F"/>
<path d="M15.7023 20.2632C15.8477 19.8753 15.6511 19.4431 15.2632 19.2977C14.8753 19.1523 14.4431 19.3489 14.2977 19.7368L15.7023 20.2632ZM9.7023 19.7368C9.55694 19.3489 9.12467 19.1523 8.7368 19.2977C8.34893 19.4431 8.15234 19.8753 8.2977 20.2632L9.7023 19.7368ZM14.2977 19.7368C13.975 20.5979 13.0846 21.25 12 21.25V22.75C13.6855 22.75 15.1516 21.7325 15.7023 20.2632L14.2977 19.7368ZM12 21.25C10.9154 21.25 10.025 20.5979 9.7023 19.7368L8.2977 20.2632C8.84835 21.7325 10.3145 22.75 12 22.75V21.25Z" fill="#28303F"/>
</svg>
