<svg width="24" height="24" viewBox="0 0 24 24" fill="none" xmlns="http://www.w3.org/2000/svg">
<path d="M13.25 16C13.25 16.4142 13.5858 16.75 14 16.75C14.4142 16.75 14.75 16.4142 14.75 16H13.25ZM17.25 16C17.25 16.4142 17.5858 16.75 18 16.75C18.4142 16.75 18.75 16.4142 18.75 16H17.25ZM14.75 16V15H13.25V16H14.75ZM17.25 15V16H18.75V15H17.25ZM16 13.75C16.6904 13.75 17.25 14.3096 17.25 15H18.75C18.75 13.4812 17.5188 12.25 16 12.25V13.75ZM14.75 15C14.75 14.3096 15.3096 13.75 16 13.75V12.25C14.4812 12.25 13.25 13.4812 13.25 15H14.75Z" fill="#28303F"/>
<path d="M14 16.75H18V15.25H14V16.75ZM19.25 18V20H20.75V18H19.25ZM18 21.25H14V22.75H18V21.25ZM12.75 20V18H11.25V20H12.75ZM14 21.25C13.3096 21.25 12.75 20.6904 12.75 20H11.25C11.25 21.5188 12.4812 22.75 14 22.75V21.25ZM19.25 20C19.25 20.6904 18.6904 21.25 18 21.25V22.75C19.5188 22.75 20.75 21.5188 20.75 20H19.25ZM18 16.75C18.6904 16.75 19.25 17.3096 19.25 18H20.75C20.75 16.4812 19.5188 15.25 18 15.25V16.75ZM14 15.25C12.4812 15.25 11.25 16.4812 11.25 18H12.75C12.75 17.3096 13.3096 16.75 14 16.75V15.25Z" fill="#28303F"/>
<path d="M9 22.75C9.41421 22.75 9.75 22.4142 9.75 22C9.75 21.5858 9.41421 21.25 9 21.25V22.75ZM17.25 10C17.25 10.4142 17.5858 10.75 18 10.75C18.4142 10.75 18.75 10.4142 18.75 10H17.25ZM7 2.75H15V1.25H7V2.75ZM9 21.25H7V22.75H9V21.25ZM4.75 19V5H3.25V19H4.75ZM17.25 5V10H18.75V5H17.25ZM7 21.25C5.75736 21.25 4.75 20.2426 4.75 19H3.25C3.25 21.0711 4.92893 22.75 7 22.75V21.25ZM15 2.75C16.2426 2.75 17.25 3.75736 17.25 5H18.75C18.75 2.92893 17.0711 1.25 15 1.25V2.75ZM7 1.25C4.92893 1.25 3.25 2.92893 3.25 5H4.75C4.75 3.75736 5.75736 2.75 7 2.75V1.25Z" fill="#28303F"/>
</svg>
