<svg width="24" height="24" viewBox="0 0 24 24" fill="none" xmlns="http://www.w3.org/2000/svg">
<path d="M21.25 12C21.25 12.4142 21.5858 12.75 22 12.75C22.4142 12.75 22.75 12.4142 22.75 12H21.25ZM21.6322 16.7782C21.8165 16.4073 21.6652 15.9571 21.2943 15.7728C20.9234 15.5885 20.4732 15.7397 20.2889 16.1107L21.6322 16.7782ZM12 21.25C6.89137 21.25 2.75 17.1086 2.75 12H1.25C1.25 17.9371 6.06294 22.75 12 22.75V21.25ZM2.75 12C2.75 6.89137 6.89137 2.75 12 2.75V1.25C6.06294 1.25 1.25 6.06294 1.25 12H2.75ZM12 2.75C17.1086 2.75 21.25 6.89137 21.25 12H22.75C22.75 6.06294 17.9371 1.25 12 1.25V2.75ZM20.2889 16.1107C18.7744 19.1582 15.6308 21.25 12 21.25V22.75C16.2219 22.75 19.874 20.3161 21.6322 16.7782L20.2889 16.1107Z" fill="#28303F"/>
<path d="M22 12L19 11" stroke="#28303F" stroke-width="1.5" stroke-linecap="round" stroke-linejoin="round"/>
</svg>
