<svg width="24" height="24" viewBox="0 0 24 24" fill="none" xmlns="http://www.w3.org/2000/svg">
<path d="M9.25 10C9.25 10.4142 9.58579 10.75 10 10.75C10.4142 10.75 10.75 10.4142 10.75 10H9.25ZM13.25 10C13.25 10.4142 13.5858 10.75 14 10.75C14.4142 10.75 14.75 10.4142 14.75 10H13.25ZM10.75 10V9H9.25V10H10.75ZM13.25 9V10H14.75V9H13.25ZM12 7.75C12.6904 7.75 13.25 8.30964 13.25 9H14.75C14.75 7.48122 13.5188 6.25 12 6.25V7.75ZM10.75 9C10.75 8.30964 11.3096 7.75 12 7.75V6.25C10.4812 6.25 9.25 7.48122 9.25 9H10.75Z" fill="#28303F"/>
<path d="M10 10.75H14V9.25H10V10.75ZM15.25 12V14H16.75V12H15.25ZM14 15.25H10V16.75H14V15.25ZM8.75 14V12H7.25V14H8.75ZM10 15.25C9.30964 15.25 8.75 14.6904 8.75 14H7.25C7.25 15.5188 8.48122 16.75 10 16.75V15.25ZM15.25 14C15.25 14.6904 14.6904 15.25 14 15.25V16.75C15.5188 16.75 16.75 15.5188 16.75 14H15.25ZM14 10.75C14.6904 10.75 15.25 11.3096 15.25 12H16.75C16.75 10.4812 15.5188 9.25 14 9.25V10.75ZM10 9.25C8.48122 9.25 7.25 10.4812 7.25 12H8.75C8.75 11.3096 9.30964 10.75 10 10.75V9.25Z" fill="#28303F"/>
<path d="M21.25 12C21.25 12.4142 21.5858 12.75 22 12.75C22.4142 12.75 22.75 12.4142 22.75 12H21.25ZM21.6322 16.7782C21.8165 16.4073 21.6652 15.9571 21.2943 15.7728C20.9234 15.5885 20.4732 15.7397 20.2889 16.1107L21.6322 16.7782ZM12 21.25C6.89137 21.25 2.75 17.1086 2.75 12H1.25C1.25 17.9371 6.06294 22.75 12 22.75V21.25ZM2.75 12C2.75 6.89137 6.89137 2.75 12 2.75V1.25C6.06294 1.25 1.25 6.06294 1.25 12H2.75ZM12 2.75C17.1086 2.75 21.25 6.89137 21.25 12H22.75C22.75 6.06294 17.9371 1.25 12 1.25V2.75ZM20.2889 16.1107C18.7744 19.1582 15.6308 21.25 12 21.25V22.75C16.2219 22.75 19.874 20.3161 21.6322 16.7782L20.2889 16.1107Z" fill="#28303F"/>
<path d="M22 12L19 11" stroke="#28303F" stroke-width="1.5" stroke-linecap="round" stroke-linejoin="round"/>
</svg>
