<svg width="24" height="24" viewBox="0 0 24 24" fill="none" xmlns="http://www.w3.org/2000/svg">
<rect x="7" y="7" width="10" height="10" rx="2" stroke="#28303F" stroke-width="1.5"/>
<path d="M9 3.75C9.41421 3.75 9.75 3.41421 9.75 3C9.75 2.58579 9.41421 2.25 9 2.25V3.75ZM2.25 9C2.25 9.41421 2.58579 9.75 3 9.75C3.41421 9.75 3.75 9.41421 3.75 9H2.25ZM5 3.75H9V2.25H5V3.75ZM3.75 9V5H2.25V9H3.75ZM5 2.25C3.48122 2.25 2.25 3.48122 2.25 5H3.75C3.75 4.30964 4.30964 3.75 5 3.75V2.25Z" fill="#28303F"/>
<path d="M15 20.25C14.5858 20.25 14.25 20.5858 14.25 21C14.25 21.4142 14.5858 21.75 15 21.75L15 20.25ZM21.75 15C21.75 14.5858 21.4142 14.25 21 14.25C20.5858 14.25 20.25 14.5858 20.25 15L21.75 15ZM19 21L19 20.25L19 21ZM19 20.25L15 20.25L15 21.75L19 21.75L19 20.25ZM20.25 15L20.25 19L21.75 19L21.75 15L20.25 15ZM19 21.75C20.5188 21.75 21.75 20.5188 21.75 19L20.25 19C20.25 19.6904 19.6904 20.25 19 20.25L19 21.75Z" fill="#28303F"/>
</svg>
