<svg width="24" height="24" viewBox="0 0 24 24" fill="none" xmlns="http://www.w3.org/2000/svg">
<path d="M10.3754 2.72202L5.37762 4.94328C3.932 5.58578 2.97801 7.02462 3.07 8.60391C3.42963 14.7781 5.23768 17.4963 9.9358 20.677C11.1804 21.5196 12.821 21.5216 14.0646 20.6777C18.7772 17.4797 20.5206 14.7231 20.9118 8.6253C21.0138 7.03557 20.0583 5.58145 18.6026 4.93447L13.6246 2.72202C12.5903 2.26235 11.4097 2.26235 10.3754 2.72202Z" stroke="#28303F" stroke-width="1.5" stroke-linejoin="round"/>
<path d="M9.46852 11.4143C9.14507 11.1556 8.67311 11.208 8.41435 11.5315C8.15559 11.8549 8.20803 12.3269 8.53148 12.5857L9.46852 11.4143ZM15.5644 10.4939C15.8372 10.1822 15.8056 9.70833 15.4939 9.43557C15.1822 9.16281 14.7083 9.19439 14.4356 9.50612L15.5644 10.4939ZM10.7528 13.4023L10.2843 13.9879L10.7528 13.4023ZM8.53148 12.5857L10.2843 13.9879L11.2213 12.8166L9.46852 11.4143L8.53148 12.5857ZM12.6945 13.7738L15.5644 10.4939L14.4356 9.50612L11.5657 12.786L12.6945 13.7738ZM10.2843 13.9879C11.0156 14.5729 12.0778 14.4786 12.6945 13.7738L11.5657 12.786C11.4776 12.8867 11.3258 12.9002 11.2213 12.8166L10.2843 13.9879Z" fill="#28303F"/>
</svg>
