<svg width="24" height="24" viewBox="0 0 24 24" fill="none" xmlns="http://www.w3.org/2000/svg">
<path d="M5.07612 7.30717L5.71573 7.69884L5.71573 7.69884L5.07612 7.30717ZM7.39423 6.72153L7.75281 6.06281L7.39423 6.72153ZM4.22763 8.69281L3.58802 8.30115H3.58802L4.22763 8.69281ZM18.9239 16.6928L19.5635 17.0845L18.9239 16.6928ZM16.6058 17.2785L16.9643 16.6197L16.6058 17.2785ZM19.7724 15.3072L19.1327 14.9155L19.7724 15.3072ZM19.7724 8.69283L20.412 8.30117L19.7724 8.69283ZM16.6058 6.72154L16.2472 6.06282L16.6058 6.72154ZM18.9239 7.30719L18.2843 7.69885L18.9239 7.30719ZM4.22763 15.3072L3.58802 15.6988L4.22763 15.3072ZM5.07612 16.6928L5.71573 16.3012L5.07612 16.6928ZM7.39423 17.2785L7.03565 16.6197H7.03565L7.39423 17.2785ZM7.48444 17.2294L7.12585 16.5706L7.48444 17.2294ZM16.5156 17.2294L16.8741 16.5706L16.5156 17.2294ZM7.48444 6.77064L7.84302 6.11191L7.48444 6.77064ZM16.5156 6.77065L16.157 6.11192L16.5156 6.77065ZM11.1515 4.75H12.8485V3.25H11.1515V4.75ZM12.8485 19.25H11.1515V20.75H12.8485V19.25ZM11.1515 19.25C10.5863 19.25 10.2045 18.8285 10.2045 18.4H8.70453C8.70453 19.7388 9.84227 20.75 11.1515 20.75V19.25ZM13.7955 18.4C13.7955 18.8285 13.4137 19.25 12.8485 19.25V20.75C14.1577 20.75 15.2955 19.7388 15.2955 18.4H13.7955ZM12.8485 4.75C13.4137 4.75 13.7955 5.17153 13.7955 5.6H15.2955C15.2955 4.26116 14.1577 3.25 12.8485 3.25V4.75ZM11.1515 3.25C9.84227 3.25 8.70453 4.26116 8.70453 5.6H10.2045C10.2045 5.17153 10.5863 4.75 11.1515 4.75V3.25ZM19.1327 14.9155L18.2843 16.3012L19.5635 17.0845L20.412 15.6988L19.1327 14.9155ZM4.86724 9.08448L5.71573 7.69884L4.43651 6.91551L3.58802 8.30115L4.86724 9.08448ZM5.71573 7.69884C5.96579 7.29046 6.55772 7.12009 7.03565 7.38026L7.75281 6.06281C6.60744 5.43932 5.12366 5.79335 4.43651 6.91551L5.71573 7.69884ZM5.20735 10.2197C4.75281 9.9723 4.63441 9.4647 4.86724 9.08448L3.58802 8.30115C2.88363 9.45147 3.32141 10.901 4.49018 11.5372L5.20735 10.2197ZM18.2843 16.3012C18.0342 16.7095 17.4423 16.8799 16.9643 16.6197L16.2472 17.9372C17.3925 18.5607 18.8763 18.2066 19.5635 17.0845L18.2843 16.3012ZM20.412 15.6988C21.1164 14.5485 20.6786 13.099 19.5098 12.4628L18.7926 13.7803C19.2472 14.0277 19.3656 14.5353 19.1327 14.9155L20.412 15.6988ZM5.71573 16.3012L4.86724 14.9155L3.58802 15.6988L4.43651 17.0845L5.71573 16.3012ZM18.2843 7.69885L19.1327 9.08449L20.412 8.30117L19.5635 6.91552L18.2843 7.69885ZM19.1327 9.08449C19.3656 9.46471 19.2472 9.97231 18.7926 10.2197L19.5098 11.5372C20.6786 10.901 21.1164 9.45148 20.412 8.30117L19.1327 9.08449ZM16.9643 7.38027C17.4423 7.12011 18.0342 7.29048 18.2843 7.69885L19.5635 6.91552C18.8763 5.79336 17.3925 5.43933 16.2472 6.06282L16.9643 7.38027ZM4.86724 14.9155C4.63441 14.5353 4.75281 14.0277 5.20735 13.7803L4.49018 12.4628C3.32141 13.099 2.88363 14.5485 3.58802 15.6988L4.86724 14.9155ZM4.43651 17.0845C5.12366 18.2067 6.60744 18.5607 7.75281 17.9372L7.03565 16.6197C6.55772 16.8799 5.96579 16.7095 5.71573 16.3012L4.43651 17.0845ZM16.8741 7.42937L16.9643 7.38027L16.2472 6.06282L16.157 6.11192L16.8741 7.42937ZM7.03565 7.38026L7.12586 7.42936L7.84302 6.11191L7.75281 6.06281L7.03565 7.38026ZM16.9643 16.6197L16.8741 16.5706L16.157 17.8881L16.2472 17.9372L16.9643 16.6197ZM7.12585 16.5706L7.03565 16.6197L7.75281 17.9372L7.84302 17.8881L7.12585 16.5706ZM4.49018 11.5372C4.85686 11.7368 4.85686 12.2632 4.49018 12.4628L5.20735 13.7803C6.61781 13.0125 6.61781 10.9875 5.20735 10.2197L4.49018 11.5372ZM7.84302 17.8881C8.2314 17.6767 8.70453 17.9578 8.70453 18.4H10.2045C10.2045 16.8198 8.51377 15.8151 7.12585 16.5706L7.84302 17.8881ZM15.2955 18.4C15.2955 17.9578 15.7686 17.6767 16.157 17.8881L16.8741 16.5706C15.4862 15.8151 13.7955 16.8198 13.7955 18.4H15.2955ZM19.5098 12.4628C19.1431 12.2632 19.1431 11.7368 19.5098 11.5372L18.7926 10.2197C17.3822 10.9875 17.3822 13.0125 18.7926 13.7803L19.5098 12.4628ZM7.12586 7.42936C8.51377 8.18488 10.2045 7.18023 10.2045 5.6H8.70453C8.70453 6.0422 8.2314 6.32333 7.84302 6.11191L7.12586 7.42936ZM16.157 6.11192C15.7686 6.32334 15.2955 6.0422 15.2955 5.6H13.7955C13.7955 7.18023 15.4862 8.18489 16.8741 7.42937L16.157 6.11192Z" fill="#28303F"/>
<circle cx="12" cy="12" r="3" stroke="#28303F" stroke-width="1.5"/>
</svg>
