<svg width="24" height="24" viewBox="0 0 24 24" fill="none" xmlns="http://www.w3.org/2000/svg">
<path d="M16.3003 2.14477C15.9207 1.97893 15.4786 2.15219 15.3127 2.53175C15.1469 2.91132 15.3202 3.35346 15.6997 3.5193L16.3003 2.14477ZM8.30028 3.5193C8.67984 3.35346 8.8531 2.91132 8.68726 2.53175C8.52143 2.15219 8.07929 1.97893 7.69972 2.14477L8.30028 3.5193ZM21.25 11.9999C21.25 17.1086 17.1086 21.2499 12 21.2499V22.7499C17.9371 22.7499 22.75 17.937 22.75 11.9999H21.25ZM12 21.2499C6.89137 21.2499 2.75 17.1086 2.75 11.9999H1.25C1.25 17.937 6.06294 22.7499 12 22.7499V21.2499ZM15.6997 3.5193C18.9682 4.94736 21.25 8.20802 21.25 11.9999H22.75C22.75 7.59059 20.0954 3.80293 16.3003 2.14477L15.6997 3.5193ZM2.75 11.9999C2.75 8.20802 5.03179 4.94736 8.30028 3.5193L7.69972 2.14477C3.90459 3.80293 1.25 7.59059 1.25 11.9999H2.75Z" fill="#28303F"/>
<path d="M12 2V6" stroke="#28303F" stroke-width="1.5" stroke-linecap="round" stroke-linejoin="round"/>
</svg>
