<svg width="24" height="24" viewBox="0 0 24 24" fill="none" xmlns="http://www.w3.org/2000/svg">
<path d="M3 3L21 21" stroke="#28303F" stroke-width="1.5" stroke-linecap="round"/>
<path d="M20.25 16.9372C20.25 17.3515 20.5858 17.6872 21 17.6872C21.4142 17.6872 21.75 17.3515 21.75 16.9372H20.25ZM17.422 3.53357L17.9129 4.10054L17.422 3.53357ZM3.71401 15.404L4.20497 15.971H4.20497L3.71401 15.404ZM19.042 19.7443C19.4554 19.7187 19.7698 19.3628 19.7443 18.9494C19.7187 18.536 19.3628 18.2216 18.9494 18.2471L19.042 19.7443ZM10.4699 10.5459C10.783 10.2747 10.817 9.80106 10.5459 9.48794C10.2747 9.17481 9.80106 9.14078 9.48794 9.41194L10.4699 10.5459ZM11.6316 7.55561C11.3185 7.82677 11.2845 8.30042 11.5556 8.61355C11.8268 8.92668 12.3004 8.9607 12.6135 8.68955L11.6316 7.55561ZM5.14817 19.75H18.8561V18.25H5.14817V19.75ZM21.75 16.9372V5.06681H20.25V16.9372H21.75ZM21.75 5.06681C21.75 2.58163 18.753 1.38884 16.931 2.9666L17.9129 4.10054C18.8502 3.28892 20.25 3.98023 20.25 5.06681H21.75ZM5.14817 18.25C3.81268 18.25 3.3183 16.7388 4.20497 15.971L3.22304 14.837C1.18884 16.5986 2.55404 19.75 5.14817 19.75V18.25ZM18.8561 19.75C18.9185 19.75 18.9804 19.7481 19.042 19.7443L18.9494 18.2471C18.9187 18.249 18.8876 18.25 18.8561 18.25V19.75ZM9.48794 9.41194L3.22304 14.837L4.20497 15.971L10.4699 10.5459L9.48794 9.41194ZM16.931 2.9666L11.6316 7.55561L12.6135 8.68955L17.9129 4.10054L16.931 2.9666Z" fill="#28303F"/>
</svg>
