<svg width="24" height="24" viewBox="0 0 24 24" fill="none" xmlns="http://www.w3.org/2000/svg">
<path d="M22.5303 16.5303C22.8232 16.2374 22.8232 15.7626 22.5303 15.4697C22.2374 15.1768 21.7626 15.1768 21.4697 15.4697L22.5303 16.5303ZM17.4697 19.4697C17.1768 19.7626 17.1768 20.2374 17.4697 20.5303C17.7626 20.8232 18.2375 20.8232 18.5304 20.5303L17.4697 19.4697ZM18.5303 15.4697C18.2374 15.1768 17.7626 15.1768 17.4697 15.4697C17.1768 15.7626 17.1768 16.2374 17.4697 16.5303L18.5303 15.4697ZM21.4696 20.5303C21.7625 20.8232 22.2374 20.8232 22.5303 20.5303C22.8232 20.2374 22.8232 19.7626 22.5303 19.4697L21.4696 20.5303ZM21.4697 15.4697L17.4697 19.4697L18.5304 20.5303L22.5303 16.5303L21.4697 15.4697ZM17.4697 16.5303L21.4696 20.5303L22.5303 19.4697L18.5303 15.4697L17.4697 16.5303Z" fill="#28303F"/>
<path d="M14.8561 20.75C15.2703 20.75 15.6061 20.4142 15.6061 20C15.6061 19.5858 15.2703 19.25 14.8561 19.25V20.75ZM19.25 12.9372C19.25 13.3515 19.5858 13.6872 20 13.6872C20.4142 13.6872 20.75 13.3515 20.75 12.9372H19.25ZM16.422 4.53357L16.9129 5.10054L16.422 4.53357ZM2.71401 16.404L3.20497 16.971H3.20497L2.71401 16.404ZM4.14817 20.75H14.8561V19.25H4.14817V20.75ZM20.75 12.9372V6.06681H19.25V12.9372H20.75ZM15.931 3.9666L2.22304 15.837L3.20497 16.971L16.9129 5.10054L15.931 3.9666ZM20.75 6.06681C20.75 3.58163 17.753 2.38884 15.931 3.9666L16.9129 5.10054C17.8502 4.28892 19.25 4.98023 19.25 6.06681H20.75ZM4.14817 19.25C2.81268 19.25 2.3183 17.7388 3.20497 16.971L2.22304 15.837C0.188839 17.5986 1.55404 20.75 4.14817 20.75V19.25Z" fill="#28303F"/>
</svg>
