<svg width="24" height="24" viewBox="0 0 24 24" fill="none" xmlns="http://www.w3.org/2000/svg">
<path d="M17.422 4.53357L17.9129 5.10054V5.10054L17.422 4.53357ZM3.71401 16.404L4.20497 16.971H4.20497L3.71401 16.404ZM5.14817 20.75H18.8561V19.25H5.14817V20.75ZM21.75 17.9372V6.06681H20.25V17.9372H21.75ZM16.931 3.9666L3.22304 15.837L4.20497 16.971L17.9129 5.10054L16.931 3.9666ZM21.75 6.06681C21.75 3.58163 18.753 2.38884 16.931 3.9666L17.9129 5.10054C18.8502 4.28892 20.25 4.98023 20.25 6.06681H21.75ZM18.8561 20.75C20.4268 20.75 21.75 19.5177 21.75 17.9372H20.25C20.25 18.6353 19.6535 19.25 18.8561 19.25V20.75ZM5.14817 19.25C3.81268 19.25 3.3183 17.7388 4.20497 16.971L3.22304 15.837C1.18884 17.5986 2.55404 20.75 5.14817 20.75V19.25Z" fill="#28303F"/>
</svg>
