<svg width="24" height="24" viewBox="0 0 24 24" fill="none" xmlns="http://www.w3.org/2000/svg">
<path d="M3 18L3 6C3 3.79086 4.79086 2 7 2L12.3431 2C13.404 2 14.4214 2.42143 15.1716 3.17157L19.8284 7.82843C20.5786 8.57857 21 9.59599 21 10.6569L21 18C21 20.2091 19.2091 22 17 22L7 22C4.79086 22 3 20.2091 3 18Z" stroke="#28303F" stroke-width="1.5" stroke-linejoin="round"/>
<path d="M14 2L14 5C14 7.20914 15.7909 9 18 9L21 9" stroke="#28303F" stroke-width="1.5" stroke-linejoin="round"/>
<path d="M9.46852 13.4143C9.14507 13.1556 8.67311 13.208 8.41435 13.5315C8.15559 13.8549 8.20803 14.3269 8.53148 14.5857L9.46852 13.4143ZM15.5644 12.4939C15.8372 12.1822 15.8056 11.7083 15.4939 11.4356C15.1822 11.1628 14.7083 11.1944 14.4356 11.5061L15.5644 12.4939ZM10.7528 15.4023L10.2843 15.9879L10.7528 15.4023ZM8.53148 14.5857L10.2843 15.9879L11.2213 14.8166L9.46852 13.4143L8.53148 14.5857ZM12.6945 15.7738L15.5644 12.4939L14.4356 11.5061L11.5657 14.786L12.6945 15.7738ZM10.2843 15.9879C11.0156 16.5729 12.0778 16.4786 12.6945 15.7738L11.5657 14.786C11.4776 14.8867 11.3258 14.9002 11.2213 14.8166L10.2843 15.9879Z" fill="#28303F"/>
</svg>
