<svg width="24" height="24" viewBox="0 0 24 24" fill="none" xmlns="http://www.w3.org/2000/svg">
<path d="M16 17.25L8 17.25L8 18.75L16 18.75L16 17.25ZM8 6.75L16 6.75L16 5.25L8 5.25L8 6.75ZM2.75 12C2.75 9.1005 5.10051 6.75 8 6.75L8 5.25C4.27208 5.25 1.25 8.27208 1.25 12L2.75 12ZM8 17.25C5.10051 17.25 2.75 14.8995 2.75 12L1.25 12C1.25 15.7279 4.27208 18.75 8 18.75L8 17.25ZM21.25 12C21.25 14.8995 18.8995 17.25 16 17.25L16 18.75C19.7279 18.75 22.75 15.7279 22.75 12L21.25 12ZM22.75 12C22.75 8.27208 19.7279 5.25 16 5.25L16 6.75C18.8995 6.75 21.25 9.10051 21.25 12L22.75 12Z" fill="#28303F"/>
<circle cx="16" cy="12" r="6" stroke="#28303F" stroke-width="1.5"/>
</svg>
