<svg width="24" height="24" viewBox="0 0 24 24" fill="none" xmlns="http://www.w3.org/2000/svg">
<rect x="4" y="7" width="16" height="14" rx="4" stroke="#28303F" stroke-width="1.5"/>
<circle cx="12" cy="14" r="2" stroke="#28303F" stroke-width="1.5"/>
<path d="M15.2501 7C15.2501 7.41421 15.5859 7.75 16.0001 7.75C16.4143 7.75 16.7501 7.41421 16.7501 7H15.2501ZM8.85795 3.4377C8.5474 3.71179 8.51784 4.18575 8.79194 4.4963C9.06604 4.80685 9.54 4.8364 9.85055 4.5623L8.85795 3.4377ZM12.0001 3.75C13.795 3.75 15.2501 5.20507 15.2501 7H16.7501C16.7501 4.37665 14.6234 2.25 12.0001 2.25V3.75ZM9.85055 4.5623C10.4239 4.05623 11.1753 3.75 12.0001 3.75V2.25C10.7959 2.25 9.69484 2.69904 8.85795 3.4377L9.85055 4.5623Z" fill="#28303F"/>
</svg>
