<svg width="24" height="24" viewBox="0 0 24 24" fill="none" xmlns="http://www.w3.org/2000/svg">
<circle cx="12" cy="12" r="10" stroke="#28303F" stroke-width="1.5" stroke-linejoin="round"/>
<path d="M16.5109 17.5686C16.8249 17.8387 17.2984 17.8031 17.5686 17.4891C17.8387 17.1751 17.8031 16.7016 17.4891 16.4314L16.5109 17.5686ZM6.51089 16.4314C6.19688 16.7016 6.1613 17.1751 6.43143 17.4891C6.70156 17.8031 7.1751 17.8387 7.48911 17.5686L6.51089 16.4314ZM12 15.75C13.6028 15.75 15.1395 16.3889 16.5109 17.5686L17.4891 16.4314C15.8977 15.0624 14.025 14.25 12 14.25V15.75ZM7.48911 17.5686C8.86046 16.3889 10.3972 15.75 12 15.75V14.25C9.97498 14.25 8.10232 15.0624 6.51089 16.4314L7.48911 17.5686Z" fill="#28303F"/>
<circle r="3" transform="matrix(1 0 0 -1 12 9)" stroke="#28303F" stroke-width="1.5" stroke-linejoin="round"/>
</svg>
