<svg width="24" height="24" viewBox="0 0 24 24" fill="none" xmlns="http://www.w3.org/2000/svg">
<path d="M1.75 2L21.75 22" stroke="#28303F" stroke-width="1.5" stroke-linecap="round"/>
<path d="M2.28033 1.46967C1.98744 1.17678 1.51256 1.17678 1.21967 1.46967C0.926777 1.76256 0.926777 2.23744 1.21967 2.53033L2.28033 1.46967ZM15.75 9.33333L15.2517 8.77277L15 8.99653V9.33333H15.75ZM18.4213 6.95886L17.923 6.39831L18.4213 6.95886ZM15 12C15 12.4142 15.3358 12.75 15.75 12.75C16.1642 12.75 16.5 12.4142 16.5 12H15ZM15 10C15 10.4142 15.3358 10.75 15.75 10.75C16.1642 10.75 16.5 10.4142 16.5 10H15ZM20.4846 16.5591C20.1473 16.7995 20.0687 17.2678 20.3091 17.6051C20.5495 17.9424 21.0178 18.021 21.3551 17.7807L20.4846 16.5591ZM8.75 4.25C8.33579 4.25 8 4.58579 8 5C8 5.41421 8.33579 5.75 8.75 5.75V4.25ZM15.6487 15.8987L16.3796 16.0665L16.4725 15.6619L16.179 15.3683L15.6487 15.8987ZM16.2483 9.89388L18.9195 7.51942L17.923 6.39831L15.2517 8.77277L16.2483 9.89388ZM21 8.45368V15.5463H22.5V8.45368H21ZM18.9195 7.51942C19.7257 6.80286 21 7.37512 21 8.45368H22.5C22.5 6.08084 19.6965 4.82188 17.923 6.39831L18.9195 7.51942ZM11.75 18.25H5.75V19.75H11.75V18.25ZM2.5 15V9H1V15H2.5ZM15 9V10H16.5V9H15ZM5.75 18.25C3.95507 18.25 2.5 16.7949 2.5 15H1C1 17.6234 3.12665 19.75 5.75 19.75V18.25ZM11.75 5.75C13.5449 5.75 15 7.20507 15 9H16.5C16.5 6.37665 14.3734 4.25 11.75 4.25V5.75ZM21 15.5463C21 15.9926 20.7905 16.3411 20.4846 16.5591L21.3551 17.7807C22.0295 17.3001 22.5 16.5093 22.5 15.5463H21ZM16.5 12V9.33333H15V12H16.5ZM8.75 5.75H11.75V4.25H8.75V5.75ZM4.68354 4.37036C2.57395 4.85464 1 6.74261 1 9H2.5C2.5 7.45708 3.57591 6.16365 5.01915 5.83233L4.68354 4.37036ZM1.21967 2.53033L4.32102 5.63168L5.38168 4.57102L2.28033 1.46967L1.21967 2.53033ZM4.32102 5.63168L15.1183 16.429L16.179 15.3683L5.38168 4.57102L4.32102 5.63168ZM11.75 19.75C14.0074 19.75 15.8954 18.176 16.3796 16.0665L14.9177 15.7308C14.5863 17.1741 13.2929 18.25 11.75 18.25V19.75Z" fill="#28303F"/>
</svg>
