<svg width="24" height="24" viewBox="0 0 24 24" fill="none" xmlns="http://www.w3.org/2000/svg">
<rect x="2" y="5" width="14" height="14" rx="4" stroke="#28303F" stroke-width="1.5"/>
<path d="M16 9.33333L15.5017 8.77278L15.25 8.99653V9.33333H16ZM16 14.6667H15.25V15.0035L15.5017 15.2272L16 14.6667ZM18.6713 17.0411L19.1695 16.4806L18.6713 17.0411ZM16.4983 9.89389L19.1695 7.51943L18.173 6.39831L15.5017 8.77278L16.4983 9.89389ZM21.25 8.45369V15.5463H22.75V8.45369H21.25ZM19.1695 16.4806L16.4983 14.1061L15.5017 15.2272L18.173 17.6017L19.1695 16.4806ZM16.75 14.6667V9.33333H15.25V14.6667H16.75ZM21.25 15.5463C21.25 16.6249 19.9757 17.1971 19.1695 16.4806L18.173 17.6017C19.9465 19.1781 22.75 17.9191 22.75 15.5463H21.25ZM19.1695 7.51943C19.9757 6.80287 21.25 7.37513 21.25 8.45369H22.75C22.75 6.08085 19.9465 4.82189 18.173 6.39831L19.1695 7.51943Z" fill="#28303F"/>
<circle cx="11" cy="10" r="2" stroke="#28303F" stroke-width="1.5"/>
</svg>
