<svg width="24" height="24" viewBox="0 0 24 24" fill="none" xmlns="http://www.w3.org/2000/svg">
<circle cx="12" cy="11" r="3" stroke="#28303F" stroke-width="1.5"/>
<path d="M16.25 15C16.25 15.4142 16.5858 15.75 17 15.75C17.4142 15.75 17.75 15.4142 17.75 15H16.25ZM19.25 15C19.25 15.4142 19.5858 15.75 20 15.75C20.4142 15.75 20.75 15.4142 20.75 15H19.25ZM17.75 15V13.5H16.25V15H17.75ZM19.25 13.5V15H20.75V13.5H19.25ZM18.5 12.75C18.9142 12.75 19.25 13.0858 19.25 13.5H20.75C20.75 12.2574 19.7426 11.25 18.5 11.25V12.75ZM17.75 13.5C17.75 13.0858 18.0858 12.75 18.5 12.75V11.25C17.2574 11.25 16.25 12.2574 16.25 13.5H17.75Z" fill="#28303F"/>
<path d="M17 15.75H20V14.25H17V15.75ZM21.25 17V18H22.75V17H21.25ZM20 19.25H17V20.75H20V19.25ZM15.75 18V17H14.25V18H15.75ZM17 19.25C16.3096 19.25 15.75 18.6904 15.75 18H14.25C14.25 19.5188 15.4812 20.75 17 20.75V19.25ZM21.25 18C21.25 18.6904 20.6904 19.25 20 19.25V20.75C21.5188 20.75 22.75 19.5188 22.75 18H21.25ZM20 15.75C20.6904 15.75 21.25 16.3096 21.25 17H22.75C22.75 15.4812 21.5188 14.25 20 14.25V15.75ZM17 14.25C15.4812 14.25 14.25 15.4812 14.25 17H15.75C15.75 16.3096 16.3096 15.75 17 15.75V14.25Z" fill="#28303F"/>
<path d="M12 18.75C12.4142 18.75 12.75 18.4142 12.75 18C12.75 17.5858 12.4142 17.25 12 17.25V18.75ZM2.86971 13.1469L2.32608 13.6636L2.86971 13.1469ZM2.86971 8.8531L2.32608 8.33641L2.86971 8.8531ZM21.1303 8.8531L21.6739 8.33641L21.1303 8.8531ZM21.25 10.9986C21.2502 11.4128 21.5862 11.7484 22.0004 11.7482C22.4147 11.7479 22.7502 11.412 22.75 10.9977L21.25 10.9986ZM12 17.25C8.51999 17.25 5.35328 14.6713 3.41334 12.6302L2.32608 13.6636C4.2977 15.738 7.84898 18.75 12 18.75V17.25ZM3.41334 9.36979C5.35328 7.32869 8.51999 4.75 12 4.75V3.25C7.84898 3.25 4.2977 6.26198 2.32608 8.33641L3.41334 9.36979ZM12 4.75C15.48 4.75 18.6467 7.32869 20.5867 9.36979L21.6739 8.33641C19.7023 6.26198 16.151 3.25 12 3.25V4.75ZM3.41334 12.6302C2.52889 11.6996 2.52889 10.3004 3.41334 9.36979L2.32608 8.33641C0.891308 9.84599 0.891308 12.154 2.32608 13.6636L3.41334 12.6302ZM22.75 10.9977C22.7494 10.0393 22.3867 9.08636 21.6739 8.33641L20.5867 9.36979C21.0326 9.83895 21.2497 10.4214 21.25 10.9986L22.75 10.9977Z" fill="#28303F"/>
</svg>
