<svg width="24" height="24" viewBox="0 0 24 24" fill="none" xmlns="http://www.w3.org/2000/svg">
<path d="M3 3L21 21" stroke="#28303F" stroke-width="1.5" stroke-linecap="round"/>
<path d="M3.03601 10.8984L3.63868 10.452L3.03601 10.8984ZM10.3931 20.8304L9.79039 21.2768L10.3931 20.8304ZM13.6073 20.8304L14.21 21.2768L13.6073 20.8304ZM20.9643 10.8984L20.3617 10.452L20.9643 10.8984ZM3.29596 8.3371L2.82155 7.75621H2.82155L3.29596 8.3371ZM20.7044 8.3371L21.1788 7.75621V7.75621L20.7044 8.3371ZM9.138 4.57171C8.73398 4.66306 8.48052 5.06463 8.57188 5.46865C8.66323 5.87266 9.0648 6.12612 9.46882 6.03477L9.138 4.57171ZM17.7805 13.9366C17.5339 14.2694 17.6039 14.7391 17.9367 14.9857C18.2696 15.2322 18.7393 15.1622 18.9858 14.8294L17.7805 13.9366ZM6.68542 7.02732C7.05712 6.84454 7.21027 6.39504 7.02749 6.02333C6.84471 5.65163 6.39521 5.49848 6.0235 5.68126L6.68542 7.02732ZM17.2837 17.1273C17.5302 16.7944 17.4603 16.3247 17.1274 16.0782C16.7946 15.8316 16.3249 15.9016 16.0784 16.2344L17.2837 17.1273ZM2.43334 11.3448L9.79039 21.2768L10.9957 20.384L3.63868 10.452L2.43334 11.3448ZM21.567 11.3448C22.3724 10.2575 22.2954 8.66816 21.1788 7.75621L20.23 8.91798C20.6589 9.26829 20.744 9.93582 20.3617 10.452L21.567 11.3448ZM9.79039 21.2768C10.8898 22.761 13.1106 22.761 14.21 21.2768L13.0046 20.384C12.5049 21.0586 11.4954 21.0586 10.9957 20.384L9.79039 21.2768ZM3.63868 10.452C3.25635 9.93582 3.34145 9.26829 3.77038 8.91798L2.82155 7.75621C1.70493 8.66816 1.6279 10.2575 2.43334 11.3448L3.63868 10.452ZM9.46882 6.03477C13.0766 5.21901 16.8408 6.15005 20.23 8.91798L21.1788 7.75621C17.4776 4.73341 13.2502 3.64188 9.138 4.57171L9.46882 6.03477ZM18.9858 14.8294L21.567 11.3448L20.3617 10.452L17.7805 13.9366L18.9858 14.8294ZM3.77038 8.91798C4.71789 8.14414 5.69386 7.51491 6.68542 7.02732L6.0235 5.68126C4.92292 6.22247 3.85141 6.91511 2.82155 7.75621L3.77038 8.91798ZM14.21 21.2768L17.2837 17.1273L16.0784 16.2344L13.0046 20.384L14.21 21.2768Z" fill="#28303F"/>
</svg>
