<svg width="24" height="24" viewBox="0 0 24 24" fill="none" xmlns="http://www.w3.org/2000/svg">
<path d="M20.9642 8.89839L21.5668 9.34481L20.9642 8.89839ZM13.6071 18.8304L13.0044 18.384L13.6071 18.8304ZM2.43317 9.34481L9.79022 19.2768L10.9956 18.384L3.63851 8.45197L2.43317 9.34481ZM14.2098 19.2768L21.5668 9.34481L20.3615 8.45197L13.0044 18.384L14.2098 19.2768ZM3.77021 6.91798C6.3782 4.788 9.20459 3.75 12 3.75C14.7954 3.75 17.6218 4.788 20.2298 6.91798L21.1786 5.75621C18.3386 3.43673 15.1848 2.25 12 2.25C8.81522 2.25 5.66141 3.43673 2.82138 5.75621L3.77021 6.91798ZM21.5668 9.34481C22.3723 8.25746 22.2952 6.66816 21.1786 5.75621L20.2298 6.91798C20.6587 7.26829 20.7438 7.93582 20.3615 8.45197L21.5668 9.34481ZM9.79022 19.2768C10.8896 20.761 13.1104 20.761 14.2098 19.2768L13.0044 18.384C12.5047 19.0586 11.4953 19.0586 10.9956 18.384L9.79022 19.2768ZM3.63851 8.45197C3.25618 7.93582 3.34128 7.26829 3.77021 6.91798L2.82138 5.75621C1.70476 6.66816 1.62773 8.25746 2.43317 9.34481L3.63851 8.45197Z" fill="#28303F"/>
</svg>
