<svg width="24" height="24" viewBox="0 0 24 24" fill="none" xmlns="http://www.w3.org/2000/svg">
<path d="M18.8973 10.4286C18.6508 10.7614 18.7207 11.2311 19.0536 11.4777C19.3864 11.7242 19.8561 11.6543 20.1027 11.3214L18.8973 10.4286ZM14.8249 18.4464C15.0714 18.1136 15.0015 17.6439 14.6686 17.3973C14.3358 17.1508 13.8661 17.2207 13.6196 17.5536L14.8249 18.4464ZM10.3929 18.8304L9.79022 19.2768L10.3929 18.8304ZM2.43317 9.34481L9.79022 19.2768L10.9956 18.384L3.63851 8.45197L2.43317 9.34481ZM3.77021 6.91798C6.3782 4.788 9.20459 3.75 12 3.75C14.7954 3.75 17.6218 4.788 20.2298 6.91798L21.1786 5.75621C18.3386 3.43673 15.1848 2.25 12 2.25C8.81522 2.25 5.66141 3.43673 2.82138 5.75621L3.77021 6.91798ZM20.1027 11.3214L21.5668 9.34481L20.3615 8.45197L18.8973 10.4286L20.1027 11.3214ZM14.2098 19.2768L14.8249 18.4464L13.6196 17.5536L13.0044 18.384L14.2098 19.2768ZM20.2298 6.91798C20.6587 7.26829 20.7438 7.93582 20.3615 8.45197L21.5668 9.34481C22.3723 8.25746 22.2952 6.66816 21.1786 5.75621L20.2298 6.91798ZM9.79022 19.2768C10.8896 20.761 13.1104 20.761 14.2098 19.2768L13.0044 18.384C12.5047 19.0586 11.4953 19.0586 10.9956 18.384L9.79022 19.2768ZM3.63851 8.45197C3.25618 7.93582 3.34128 7.26829 3.77021 6.91798L2.82138 5.75621C1.70476 6.66816 1.62773 8.25746 2.43317 9.34481L3.63851 8.45197Z" fill="#28303F"/>
<path d="M17 10V14" stroke="#28303F" stroke-width="1.5" stroke-linecap="round"/>
<path d="M17 17V18" stroke="#28303F" stroke-width="1.5" stroke-linecap="round"/>
</svg>
