<svg width="24" height="24" viewBox="0 0 24 24" fill="none" xmlns="http://www.w3.org/2000/svg">
<path d="M13 8L10 12H14L11 16" stroke="#28303F" stroke-width="1.5" stroke-linecap="round" stroke-linejoin="round"/>
<path d="M5.45926 5.45904C5.75216 5.16615 5.75216 4.69127 5.45926 4.39838C5.16637 4.10549 4.6915 4.10549 4.3986 4.39838L5.45926 5.45904ZM8.28769 8.28747C8.58058 7.99458 8.58058 7.5197 8.28769 7.22681C7.9948 6.93391 7.51992 6.93391 7.22703 7.22681L8.28769 8.28747ZM7.22703 16.7727C7.51992 17.0656 7.9948 17.0656 8.28769 16.7727C8.58058 16.4799 8.58058 16.005 8.28769 15.7121L7.22703 16.7727ZM4.3986 19.6012C4.6915 19.8941 5.16637 19.8941 5.45926 19.6012C5.75216 19.3083 5.75216 18.8334 5.45926 18.5405L4.3986 19.6012ZM18.5407 18.5405C18.2478 18.8334 18.2478 19.3083 18.5407 19.6012C18.8336 19.8941 19.3085 19.8941 19.6014 19.6012L18.5407 18.5405ZM15.7123 15.7121C15.4194 16.005 15.4194 16.4799 15.7123 16.7727C16.0052 17.0656 16.4801 17.0656 16.773 16.7727L15.7123 15.7121ZM19.6014 4.39838C19.3085 4.10549 18.8336 4.10549 18.5407 4.39838C18.2478 4.69127 18.2478 5.16615 18.5407 5.45904L19.6014 4.39838ZM16.773 7.22681C16.4801 6.93391 16.0052 6.93391 15.7123 7.22681C15.4194 7.5197 15.4194 7.99458 15.7123 8.28747L16.773 7.22681ZM2.75 11.9998C2.75 9.44525 3.78452 7.13378 5.45926 5.45904L4.3986 4.39838C2.45406 6.34293 1.25 9.03146 1.25 11.9998H2.75ZM6.75 11.9998C6.75 10.5498 7.33681 9.23835 8.28769 8.28747L7.22703 7.22681C6.00634 8.4475 5.25 10.136 5.25 11.9998H6.75ZM8.28769 15.7121C7.33681 14.7612 6.75 13.4497 6.75 11.9998H5.25C5.25 13.8635 6.00634 15.5521 7.22703 16.7727L8.28769 15.7121ZM5.45926 18.5405C3.78452 16.8658 2.75 14.5543 2.75 11.9998H1.25C1.25 14.9681 2.45406 17.6566 4.3986 19.6012L5.45926 18.5405ZM21.25 11.9998C21.25 14.5543 20.2155 16.8658 18.5407 18.5405L19.6014 19.6012C21.5459 17.6566 22.75 14.9681 22.75 11.9998H21.25ZM17.25 11.9998C17.25 13.4497 16.6632 14.7612 15.7123 15.7121L16.773 16.7727C17.9937 15.5521 18.75 13.8635 18.75 11.9998H17.25ZM18.5407 5.45904C20.2155 7.13378 21.25 9.44525 21.25 11.9998H22.75C22.75 9.03146 21.5459 6.34293 19.6014 4.39838L18.5407 5.45904ZM15.7123 8.28747C16.6632 9.23835 17.25 10.5498 17.25 11.9998H18.75C18.75 10.136 17.9937 8.4475 16.773 7.22681L15.7123 8.28747Z" fill="#28303F"/>
</svg>
