<svg width="24" height="24" viewBox="0 0 24 24" fill="none" xmlns="http://www.w3.org/2000/svg">
<path d="M15.25 6C15.25 6.41421 15.5858 6.75 16 6.75C16.4142 6.75 16.75 6.41421 16.75 6H15.25ZM7.25 6C7.25 6.41421 7.58579 6.75 8 6.75C8.41421 6.75 8.75 6.41421 8.75 6H7.25ZM12 2.75C13.7949 2.75 15.25 4.20507 15.25 6H16.75C16.75 3.37665 14.6234 1.25 12 1.25V2.75ZM12 1.25C9.37665 1.25 7.25 3.37665 7.25 6H8.75C8.75 4.20507 10.2051 2.75 12 2.75V1.25Z" fill="#28303F"/>
<path d="M3.56203 17.5039L4.30623 17.5969L3.56203 17.5039ZM20.438 17.5039L19.6938 17.5969L20.438 17.5039ZM19.438 9.50386L20.1822 9.41084V9.41084L19.438 9.50386ZM4.56203 9.50386L3.81782 9.41083L4.56203 9.50386ZM8.53114 6.75H15.4689V5.25H8.53114V6.75ZM18.6938 9.59689L19.6938 17.5969L21.1822 17.4108L20.1822 9.41084L18.6938 9.59689ZM16.4689 21.25H7.53114V22.75H16.4689V21.25ZM4.30623 17.5969L5.30623 9.59689L3.81782 9.41083L2.81782 17.4108L4.30623 17.5969ZM7.53114 21.25C5.57627 21.25 4.06376 19.5367 4.30623 17.5969L2.81782 17.4108C2.46344 20.2459 4.67402 22.75 7.53114 22.75V21.25ZM19.6938 17.5969C19.9363 19.5367 18.4237 21.25 16.4689 21.25V22.75C19.326 22.75 21.5366 20.2459 21.1822 17.4108L19.6938 17.5969ZM15.4689 6.75C17.1079 6.75 18.4905 7.97049 18.6938 9.59689L20.1822 9.41084C19.8851 7.0338 17.8644 5.25 15.4689 5.25V6.75ZM8.53114 5.25C6.1356 5.25 4.11495 7.0338 3.81782 9.41083L5.30623 9.59689C5.50953 7.97049 6.89209 6.75 8.53114 6.75V5.25Z" fill="#28303F"/>
<path d="M9 13.25C8.58579 13.25 8.25 13.5858 8.25 14C8.25 14.4142 8.58579 14.75 9 14.75V13.25ZM15 14.75C15.4142 14.75 15.75 14.4142 15.75 14C15.75 13.5858 15.4142 13.25 15 13.25V14.75ZM9 14.75H15V13.25H9V14.75Z" fill="#28303F"/>
</svg>
