<svg width="24" height="24" viewBox="0 0 24 24" fill="none" xmlns="http://www.w3.org/2000/svg">
<path d="M15.25 6C15.25 6.41421 15.5858 6.75 16 6.75C16.4142 6.75 16.75 6.41421 16.75 6H15.25ZM7.25 6C7.25 6.41421 7.58579 6.75 8 6.75C8.41421 6.75 8.75 6.41421 8.75 6H7.25ZM12 2.75C13.7949 2.75 15.25 4.20507 15.25 6H16.75C16.75 3.37665 14.6234 1.25 12 1.25V2.75ZM12 1.25C9.37665 1.25 7.25 3.37665 7.25 6H8.75C8.75 4.20507 10.2051 2.75 12 2.75V1.25Z" fill="#28303F"/>
<path d="M3.562 17.5039L4.3062 17.5969L3.562 17.5039ZM20.438 17.5039L19.6938 17.5969L20.438 17.5039ZM19.438 9.50386L20.1822 9.41084V9.41084L19.438 9.50386ZM4.562 9.50386L3.81779 9.41083L4.562 9.50386ZM8.53111 6.75H15.4688V5.25H8.53111V6.75ZM18.6938 9.59689L19.6938 17.5969L21.1822 17.4108L20.1822 9.41084L18.6938 9.59689ZM16.4688 21.25H7.53111V22.75H16.4688V21.25ZM4.3062 17.5969L5.3062 9.59689L3.81779 9.41083L2.81779 17.4108L4.3062 17.5969ZM7.53111 21.25C5.57624 21.25 4.06373 19.5367 4.3062 17.5969L2.81779 17.4108C2.46341 20.2459 4.67399 22.75 7.53111 22.75V21.25ZM19.6938 17.5969C19.9362 19.5367 18.4237 21.25 16.4688 21.25V22.75C19.326 22.75 21.5366 20.2459 21.1822 17.4108L19.6938 17.5969ZM15.4688 6.75C17.1079 6.75 18.4905 7.97049 18.6938 9.59689L20.1822 9.41084C19.885 7.0338 17.8644 5.25 15.4688 5.25V6.75ZM8.53111 5.25C6.13557 5.25 4.11492 7.0338 3.81779 9.41083L5.3062 9.59689C5.5095 7.97049 6.89206 6.75 8.53111 6.75V5.25Z" fill="#28303F"/>
<path d="M12 12L11.4697 12.5303C11.6103 12.671 11.8011 12.75 12 12.75C12.1989 12.75 12.3897 12.671 12.5303 12.5303L12 12ZM12.2652 11.7348L11.7348 11.2045L11.7348 11.2045L12.2652 11.7348ZM11.7348 11.7348L11.2045 12.2652L11.2045 12.2652L11.7348 11.7348ZM9.08317 14.3865L9.6135 13.8562L9.08317 14.3865ZM10.9393 16.2426L10.409 16.773L10.9393 16.2426ZM13.0606 16.2426L13.591 16.773L13.0606 16.2426ZM14.9168 14.3865L14.3865 13.8562V13.8562L14.9168 14.3865ZM9.08317 11.7348L9.6135 12.2652L9.08317 11.7348ZM12.5303 12.5303L12.7955 12.2652L11.7348 11.2045L11.4697 11.4697L12.5303 12.5303ZM11.2045 12.2652L11.4697 12.5303L12.5303 11.4697L12.2652 11.2045L11.2045 12.2652ZM8.55284 14.9168L10.409 16.773L11.4697 15.7123L9.6135 13.8562L8.55284 14.9168ZM13.591 16.773L15.4471 14.9168L14.3865 13.8562L12.5303 15.7123L13.591 16.773ZM14.3865 12.2652C14.8258 12.7045 14.8258 13.4168 14.3865 13.8562L15.4471 14.9168C16.4723 13.8917 16.4723 12.2296 15.4471 11.2045L14.3865 12.2652ZM15.4471 11.2045C14.422 10.1794 12.7599 10.1794 11.7348 11.2045L12.7955 12.2652C13.2348 11.8258 13.9471 11.8258 14.3865 12.2652L15.4471 11.2045ZM9.6135 12.2652C10.0528 11.8258 10.7652 11.8258 11.2045 12.2652L12.2652 11.2045C11.24 10.1794 9.57797 10.1794 8.55284 11.2045L9.6135 12.2652ZM10.409 16.773C11.2877 17.6517 12.7123 17.6517 13.591 16.773L12.5303 15.7123C12.2374 16.0052 11.7625 16.0052 11.4697 15.7123L10.409 16.773ZM8.55284 11.2045C7.52772 12.2296 7.52771 13.8917 8.55284 14.9168L9.6135 13.8562C9.17416 13.4168 9.17416 12.7045 9.6135 12.2652L8.55284 11.2045Z" fill="#28303F"/>
</svg>
