<svg width="24" height="24" viewBox="0 0 24 24" fill="none" xmlns="http://www.w3.org/2000/svg">
<path d="M15.25 6C15.25 6.41421 15.5858 6.75 16 6.75C16.4142 6.75 16.75 6.41421 16.75 6H15.25ZM7.25 6C7.25 6.41421 7.58579 6.75 8 6.75C8.41421 6.75 8.75 6.41421 8.75 6H7.25ZM12 2.75C13.7949 2.75 15.25 4.20507 15.25 6H16.75C16.75 3.37665 14.6234 1.25 12 1.25V2.75ZM12 1.25C9.37665 1.25 7.25 3.37665 7.25 6H8.75C8.75 4.20507 10.2051 2.75 12 2.75V1.25Z" fill="#28303F"/>
<path d="M3.56203 17.5039L4.30623 17.5969L3.56203 17.5039ZM20.438 17.5039L19.6938 17.5969L20.438 17.5039ZM19.438 9.50386L20.1822 9.41084V9.41084L19.438 9.50386ZM4.56203 9.50386L3.81782 9.41083L4.56203 9.50386ZM8.53114 6.75H15.4689V5.25H8.53114V6.75ZM18.6938 9.59689L19.6938 17.5969L21.1822 17.4108L20.1822 9.41084L18.6938 9.59689ZM16.4689 21.25H7.53114V22.75H16.4689V21.25ZM4.30623 17.5969L5.30623 9.59689L3.81782 9.41083L2.81782 17.4108L4.30623 17.5969ZM7.53114 21.25C5.57627 21.25 4.06376 19.5367 4.30623 17.5969L2.81782 17.4108C2.46344 20.2459 4.67402 22.75 7.53114 22.75V21.25ZM19.6938 17.5969C19.9363 19.5367 18.4237 21.25 16.4689 21.25V22.75C19.326 22.75 21.5366 20.2459 21.1822 17.4108L19.6938 17.5969ZM15.4689 6.75C17.1079 6.75 18.4905 7.97049 18.6938 9.59689L20.1822 9.41084C19.8851 7.0338 17.8644 5.25 15.4689 5.25V6.75ZM8.53114 5.25C6.1356 5.25 4.11495 7.0338 3.81782 9.41083L5.30623 9.59689C5.50953 7.97049 6.89209 6.75 8.53114 6.75V5.25Z" fill="#28303F"/>
<path d="M10.409 11.3483C10.1161 11.0554 9.64123 11.0554 9.34833 11.3483C9.05544 11.6412 9.05544 12.1161 9.34833 12.409L10.409 11.3483ZM13.591 16.6516C13.8839 16.9445 14.3587 16.9445 14.6516 16.6516C14.9445 16.3587 14.9445 15.8839 14.6516 15.591L13.591 16.6516ZM9.34833 12.409L13.591 16.6516L14.6516 15.591L10.409 11.3483L9.34833 12.409Z" fill="#28303F"/>
<path d="M14.6517 12.409C14.9446 12.1161 14.9446 11.6412 14.6517 11.3483C14.3588 11.0554 13.8839 11.0554 13.591 11.3483L14.6517 12.409ZM9.34836 15.591C9.05547 15.8839 9.05547 16.3587 9.34836 16.6516C9.64126 16.9445 10.1161 16.9445 10.409 16.6516L9.34836 15.591ZM13.591 11.3483L9.34836 15.591L10.409 16.6516L14.6517 12.409L13.591 11.3483Z" fill="#28303F"/>
</svg>
