<svg width="24" height="24" viewBox="0 0 24 24" fill="none" xmlns="http://www.w3.org/2000/svg">
<path d="M15.25 6C15.25 6.41421 15.5858 6.75 16 6.75C16.4142 6.75 16.75 6.41421 16.75 6H15.25ZM7.25 6C7.25 6.41421 7.58579 6.75 8 6.75C8.41421 6.75 8.75 6.41421 8.75 6H7.25ZM12 2.75C13.7949 2.75 15.25 4.20507 15.25 6H16.75C16.75 3.37665 14.6234 1.25 12 1.25V2.75ZM12 1.25C9.37665 1.25 7.25 3.37665 7.25 6H8.75C8.75 4.20507 10.2051 2.75 12 2.75V1.25Z" fill="#28303F"/>
<path d="M3.562 17.5039L4.3062 17.5969L3.562 17.5039ZM20.438 17.5039L19.6938 17.5969L20.438 17.5039ZM19.438 9.50386L20.1822 9.41084V9.41084L19.438 9.50386ZM4.562 9.50386L3.81779 9.41083L4.562 9.50386ZM8.53111 6.75H15.4688V5.25H8.53111V6.75ZM18.6938 9.59689L19.6938 17.5969L21.1822 17.4108L20.1822 9.41084L18.6938 9.59689ZM16.4688 21.25H7.53111V22.75H16.4688V21.25ZM4.3062 17.5969L5.3062 9.59689L3.81779 9.41083L2.81779 17.4108L4.3062 17.5969ZM7.53111 21.25C5.57624 21.25 4.06373 19.5367 4.3062 17.5969L2.81779 17.4108C2.46341 20.2459 4.67399 22.75 7.53111 22.75V21.25ZM19.6938 17.5969C19.9362 19.5367 18.4237 21.25 16.4688 21.25V22.75C19.326 22.75 21.5366 20.2459 21.1822 17.4108L19.6938 17.5969ZM15.4688 6.75C17.1079 6.75 18.4905 7.97049 18.6938 9.59689L20.1822 9.41084C19.885 7.0338 17.8644 5.25 15.4688 5.25V6.75ZM8.53111 5.25C6.13557 5.25 4.11492 7.0338 3.81779 9.41083L5.3062 9.59689C5.5095 7.97049 6.89206 6.75 8.53111 6.75V5.25Z" fill="#28303F"/>
<path d="M9.46852 13.4143C9.14507 13.1556 8.67311 13.208 8.41435 13.5315C8.15559 13.8549 8.20803 14.3269 8.53148 14.5857L9.46852 13.4143ZM10.7528 15.4023L11.2213 14.8166L10.7528 15.4023ZM12.1301 15.2799L11.5657 14.786L12.1301 15.2799ZM15.5644 12.4939C15.8372 12.1822 15.8056 11.7083 15.4939 11.4356C15.1822 11.1628 14.7083 11.1944 14.4356 11.5061L15.5644 12.4939ZM8.53148 14.5857L10.2843 15.9879L11.2213 14.8166L9.46852 13.4143L8.53148 14.5857ZM12.6945 15.7738L15.5644 12.4939L14.4356 11.5061L11.5657 14.786L12.6945 15.7738ZM10.2843 15.9879C11.0156 16.5729 12.0778 16.4786 12.6945 15.7738L11.5657 14.786C11.4776 14.8867 11.3258 14.9002 11.2213 14.8166L10.2843 15.9879Z" fill="#28303F"/>
</svg>
