<svg width="24" height="24" viewBox="0 0 24 24" fill="none" xmlns="http://www.w3.org/2000/svg">
<path d="M15.25 6C15.25 6.41421 15.5858 6.75 16 6.75C16.4142 6.75 16.75 6.41421 16.75 6H15.25ZM7.25 6C7.25 6.41421 7.58579 6.75 8 6.75C8.41421 6.75 8.75 6.41421 8.75 6H7.25ZM12 2.75C13.7949 2.75 15.25 4.20507 15.25 6H16.75C16.75 3.37665 14.6234 1.25 12 1.25V2.75ZM12 1.25C9.37665 1.25 7.25 3.37665 7.25 6H8.75C8.75 4.20507 10.2051 2.75 12 2.75V1.25Z" fill="#28303F"/>
<path d="M3.56201 17.5039L4.30622 17.5969L3.56201 17.5039ZM20.438 17.5039L19.6938 17.5969L20.438 17.5039ZM19.438 9.50386L20.1822 9.41084V9.41084L19.438 9.50386ZM4.56201 9.50386L3.8178 9.41083L4.56201 9.50386ZM8.53112 6.75H15.4689V5.25H8.53112V6.75ZM18.6938 9.59689L19.6938 17.5969L21.1822 17.4108L20.1822 9.41084L18.6938 9.59689ZM16.4689 21.25H7.53112V22.75H16.4689V21.25ZM4.30622 17.5969L5.30622 9.59689L3.8178 9.41083L2.8178 17.4108L4.30622 17.5969ZM7.53112 21.25C5.57625 21.25 4.06375 19.5367 4.30622 17.5969L2.8178 17.4108C2.46342 20.2459 4.67401 22.75 7.53112 22.75V21.25ZM19.6938 17.5969C19.9362 19.5367 18.4237 21.25 16.4689 21.25V22.75C19.326 22.75 21.5366 20.2459 21.1822 17.4108L19.6938 17.5969ZM15.4689 6.75C17.1079 6.75 18.4905 7.97049 18.6938 9.59689L20.1822 9.41084C19.8851 7.0338 17.8644 5.25 15.4689 5.25V6.75ZM8.53112 5.25C6.13559 5.25 4.11493 7.0338 3.8178 9.41083L5.30622 9.59689C5.50952 7.97049 6.89207 6.75 8.53112 6.75V5.25Z" fill="#28303F"/>
</svg>
