<svg width="24" height="24" viewBox="0 0 24 24" fill="none" xmlns="http://www.w3.org/2000/svg">
<path d="M5 6.75H19V5.25H5V6.75ZM21.25 9V19H22.75V9H21.25ZM19 21.25H5V22.75H19V21.25ZM2.75 19V9H1.25V19H2.75ZM5 21.25C3.75736 21.25 2.75 20.2426 2.75 19H1.25C1.25 21.0711 2.92893 22.75 5 22.75V21.25ZM21.25 19C21.25 20.2426 20.2426 21.25 19 21.25V22.75C21.0711 22.75 22.75 21.0711 22.75 19H21.25ZM19 6.75C20.2426 6.75 21.25 7.75736 21.25 9H22.75C22.75 6.92893 21.0711 5.25 19 5.25V6.75ZM5 5.25C2.92893 5.25 1.25 6.92893 1.25 9H2.75C2.75 7.75736 3.75736 6.75 5 6.75V5.25Z" fill="#28303F"/>
<path d="M7 9.25C6.58579 9.25 6.25 9.58579 6.25 10C6.25 10.4142 6.58579 10.75 7 10.75V9.25ZM17 10.75C17.4142 10.75 17.75 10.4142 17.75 10C17.75 9.58579 17.4142 9.25 17 9.25V10.75ZM7 10.75H17V9.25H7V10.75Z" fill="#28303F"/>
<path d="M7 13.25C6.58579 13.25 6.25 13.5858 6.25 14C6.25 14.4142 6.58579 14.75 7 14.75V13.25ZM17 14.75C17.4142 14.75 17.75 14.4142 17.75 14C17.75 13.5858 17.4142 13.25 17 13.25V14.75ZM7 14.75H17V13.25H7V14.75Z" fill="#28303F"/>
<path d="M7 17.25C6.58579 17.25 6.25 17.5858 6.25 18C6.25 18.4142 6.58579 18.75 7 18.75V17.25ZM12 18.75C12.4142 18.75 12.75 18.4142 12.75 18C12.75 17.5858 12.4142 17.25 12 17.25V18.75ZM7 18.75H12V17.25H7V18.75Z" fill="#28303F"/>
<path d="M5.58397 5.37596C5.23933 5.60573 5.1462 6.07138 5.37596 6.41603C5.60573 6.76067 6.07138 6.8538 6.41603 6.62404L5.58397 5.37596ZM12 2L12.416 1.37596C12.1641 1.20801 11.8359 1.20801 11.584 1.37596L12 2ZM17.584 6.62404C17.9286 6.8538 18.3943 6.76067 18.624 6.41603C18.8538 6.07138 18.7607 5.60573 18.416 5.37596L17.584 6.62404ZM6.41603 6.62404L12.416 2.62404L11.584 1.37596L5.58397 5.37596L6.41603 6.62404ZM11.584 2.62404L17.584 6.62404L18.416 5.37596L12.416 1.37596L11.584 2.62404Z" fill="#28303F"/>
</svg>
