<svg width="24" height="24" viewBox="0 0 24 24" fill="none" xmlns="http://www.w3.org/2000/svg">
<path d="M7.2 20.6L7.65 21.2H7.65L7.2 20.6ZM10.8 17.9L10.35 17.3H10.35L10.8 17.9ZM13.2 17.9L13.65 17.3L13.2 17.9ZM16.8 20.6L16.35 21.2L16.8 20.6ZM3.25 5V19H4.75V5H3.25ZM7.65 21.2L11.25 18.5L10.35 17.3L6.75 20L7.65 21.2ZM12.75 18.5L16.35 21.2L17.25 20L13.65 17.3L12.75 18.5ZM20.75 19V5H19.25V19H20.75ZM18 2.25H6V3.75H18V2.25ZM20.75 5C20.75 3.48122 19.5188 2.25 18 2.25V3.75C18.6904 3.75 19.25 4.30964 19.25 5H20.75ZM16.35 21.2C18.1629 22.5597 20.75 21.2661 20.75 19H19.25C19.25 20.0301 18.074 20.618 17.25 20L16.35 21.2ZM11.25 18.5C11.6944 18.1667 12.3056 18.1667 12.75 18.5L13.65 17.3C12.6722 16.5667 11.3278 16.5667 10.35 17.3L11.25 18.5ZM3.25 19C3.25 21.2661 5.8371 22.5597 7.65 21.2L6.75 20C5.92595 20.618 4.75 20.0301 4.75 19H3.25ZM4.75 5C4.75 4.30964 5.30964 3.75 6 3.75V2.25C4.48122 2.25 3.25 3.48122 3.25 5H4.75Z" fill="#28303F"/>
<path d="M4 7.25C3.58579 7.25 3.25 7.58579 3.25 8C3.25 8.41421 3.58579 8.75 4 8.75V7.25ZM20 8.75C20.4142 8.75 20.75 8.41421 20.75 8C20.75 7.58579 20.4142 7.25 20 7.25V8.75ZM4 8.75H20V7.25H4V8.75Z" fill="#28303F"/>
</svg>
