<svg width="24" height="24" viewBox="0 0 24 24" fill="none" xmlns="http://www.w3.org/2000/svg">
<path d="M6 3.75H18V2.25H6V3.75ZM21.25 7V17H22.75V7H21.25ZM18 20.25H6V21.75H18V20.25ZM2.75 17V7H1.25V17H2.75ZM6 20.25C4.20507 20.25 2.75 18.7949 2.75 17H1.25C1.25 19.6234 3.37665 21.75 6 21.75V20.25ZM21.25 17C21.25 18.7949 19.7949 20.25 18 20.25V21.75C20.6234 21.75 22.75 19.6234 22.75 17H21.25ZM18 3.75C19.7949 3.75 21.25 5.20507 21.25 7H22.75C22.75 4.37665 20.6234 2.25 18 2.25V3.75ZM6 2.25C3.37665 2.25 1.25 4.37665 1.25 7H2.75C2.75 5.20507 4.20507 3.75 6 3.75V2.25Z" fill="#28303F"/>
<path d="M2 7V6.25C1.58579 6.25 1.25 6.58579 1.25 7H2ZM22 7H22.75C22.75 6.58579 22.4142 6.25 22 6.25V7ZM22 11V11.75C22.4142 11.75 22.75 11.4142 22.75 11H22ZM2 11H1.25C1.25 11.4142 1.58579 11.75 2 11.75V11ZM2 7.75H22V6.25H2V7.75ZM21.25 7V11H22.75V7H21.25ZM22 10.25H2V11.75H22V10.25ZM2.75 11V7H1.25V11H2.75Z" fill="#28303F"/>
<path d="M8 17.75C8.41421 17.75 8.75 17.4142 8.75 17C8.75 16.5858 8.41421 16.25 8 16.25V17.75ZM6 16.25C5.58579 16.25 5.25 16.5858 5.25 17C5.25 17.4142 5.58579 17.75 6 17.75V16.25ZM8 16.25H6V17.75H8V16.25Z" fill="#28303F"/>
</svg>
