<svg width="24" height="24" viewBox="0 0 24 24" fill="none" xmlns="http://www.w3.org/2000/svg">
<path d="M2 1.25C1.58579 1.25 1.25 1.58579 1.25 2C1.25 2.41421 1.58579 2.75 2 2.75V1.25ZM6 4.75H18V3.25H6V4.75ZM21.25 8V13H22.75V8H21.25ZM18 16.25H10V17.75H18V16.25ZM6.75 13V4H5.25V13H6.75ZM4 1.25H2V2.75H4V1.25ZM6.75 4C6.75 2.48122 5.51878 1.25 4 1.25V2.75C4.69036 2.75 5.25 3.30964 5.25 4H6.75ZM10 16.25C8.20507 16.25 6.75 14.7949 6.75 13H5.25C5.25 15.6234 7.37665 17.75 10 17.75V16.25ZM21.25 13C21.25 14.7949 19.7949 16.25 18 16.25V17.75C20.6234 17.75 22.75 15.6234 22.75 13H21.25ZM18 4.75C19.7949 4.75 21.25 6.20507 21.25 8H22.75C22.75 5.37665 20.6234 3.25 18 3.25V4.75Z" fill="#28303F"/>
<path d="M5.2602 5.1233C5.3283 5.53188 5.71472 5.80789 6.1233 5.7398C6.53188 5.6717 6.80789 5.28528 6.7398 4.8767L5.2602 5.1233ZM5.63927 2.8356L4.89947 2.9589V2.9589L5.63927 2.8356ZM2 1.25C1.58579 1.25 1.25 1.58579 1.25 2C1.25 2.41421 1.58579 2.75 2 2.75V1.25ZM6.7398 4.8767L6.37906 2.7123L4.89947 2.9589L5.2602 5.1233L6.7398 4.8767ZM4.65287 1.25H2V2.75H4.65287V1.25ZM6.37906 2.7123C6.23842 1.86847 5.50834 1.25 4.65287 1.25V2.75C4.77508 2.75 4.87938 2.83835 4.89947 2.9589L6.37906 2.7123Z" fill="#28303F"/>
<path d="M10.25 20.5C10.25 20.9142 9.91421 21.25 9.5 21.25V22.75C10.7426 22.75 11.75 21.7426 11.75 20.5H10.25ZM9.5 21.25C9.08579 21.25 8.75 20.9142 8.75 20.5H7.25C7.25 21.7426 8.25736 22.75 9.5 22.75V21.25ZM8.75 20.5C8.75 20.0858 9.08579 19.75 9.5 19.75V18.25C8.25736 18.25 7.25 19.2574 7.25 20.5H8.75ZM9.5 19.75C9.91421 19.75 10.25 20.0858 10.25 20.5H11.75C11.75 19.2574 10.7426 18.25 9.5 18.25V19.75Z" fill="#28303F"/>
<path d="M19.25 20.5C19.25 20.9142 18.9142 21.25 18.5 21.25V22.75C19.7426 22.75 20.75 21.7426 20.75 20.5H19.25ZM18.5 21.25C18.0858 21.25 17.75 20.9142 17.75 20.5H16.25C16.25 21.7426 17.2574 22.75 18.5 22.75V21.25ZM17.75 20.5C17.75 20.0858 18.0858 19.75 18.5 19.75V18.25C17.2574 18.25 16.25 19.2574 16.25 20.5H17.75ZM18.5 19.75C18.9142 19.75 19.25 20.0858 19.25 20.5H20.75C20.75 19.2574 19.7426 18.25 18.5 18.25V19.75Z" fill="#28303F"/>
<path d="M16.5303 12.5303C16.8232 12.2374 16.8232 11.7626 16.5303 11.4697C16.2374 11.1768 15.7626 11.1768 15.4697 11.4697L16.5303 12.5303ZM13.2929 13.2929L13.8232 12.7626L13.2929 13.2929ZM12.5303 11.4697C12.2374 11.1768 11.7626 11.1768 11.4697 11.4697C11.1768 11.7626 11.1768 12.2374 11.4697 12.5303L12.5303 11.4697ZM14.75 8C14.75 7.58579 14.4142 7.25 14 7.25C13.5858 7.25 13.25 7.58579 13.25 8H14.75ZM13.25 13C13.25 13.4142 13.5858 13.75 14 13.75C14.4142 13.75 14.75 13.4142 14.75 13H13.25ZM15.4697 11.4697L14.1768 12.7626L15.2374 13.8232L16.5303 12.5303L15.4697 11.4697ZM13.8232 12.7626L12.5303 11.4697L11.4697 12.5303L12.7626 13.8232L13.8232 12.7626ZM14.1768 12.7626C14.0791 12.8602 13.9209 12.8602 13.8232 12.7626L12.7626 13.8232C13.446 14.5066 14.554 14.5066 15.2374 13.8232L14.1768 12.7626ZM13.25 8V13H14.75V8H13.25Z" fill="#28303F"/>
</svg>
