<svg width="24" height="24" viewBox="0 0 24 24" fill="none" xmlns="http://www.w3.org/2000/svg">
<path d="M10.25 20.5C10.25 20.9142 9.91421 21.25 9.5 21.25V22.75C10.7426 22.75 11.75 21.7426 11.75 20.5H10.25ZM9.5 21.25C9.08579 21.25 8.75 20.9142 8.75 20.5H7.25C7.25 21.7426 8.25736 22.75 9.5 22.75V21.25ZM8.75 20.5C8.75 20.0858 9.08579 19.75 9.5 19.75V18.25C8.25736 18.25 7.25 19.2574 7.25 20.5H8.75ZM9.5 19.75C9.91421 19.75 10.25 20.0858 10.25 20.5H11.75C11.75 19.2574 10.7426 18.25 9.5 18.25V19.75Z" fill="#28303F"/>
<path d="M19.25 20.5C19.25 20.9142 18.9142 21.25 18.5 21.25V22.75C19.7426 22.75 20.75 21.7426 20.75 20.5H19.25ZM18.5 21.25C18.0858 21.25 17.75 20.9142 17.75 20.5H16.25C16.25 21.7426 17.2574 22.75 18.5 22.75V21.25ZM17.75 20.5C17.75 20.0858 18.0858 19.75 18.5 19.75V18.25C17.2574 18.25 16.25 19.2574 16.25 20.5H17.75ZM18.5 19.75C18.9142 19.75 19.25 20.0858 19.25 20.5H20.75C20.75 19.2574 19.7426 18.25 18.5 18.25V19.75Z" fill="#28303F"/>
<path d="M11.4685 10.4143C11.1451 10.1556 10.6731 10.208 10.4143 10.5315C10.1556 10.8549 10.208 11.3269 10.5315 11.5857L11.4685 10.4143ZM12.7528 12.4023L13.2213 11.8166L12.7528 12.4023ZM14.1301 12.2799L13.5657 11.786L14.1301 12.2799ZM17.5644 9.49388C17.8372 9.18215 17.8056 8.70833 17.4939 8.43557C17.1822 8.16281 16.7083 8.19439 16.4356 8.50612L17.5644 9.49388ZM10.5315 11.5857L12.2843 12.9879L13.2213 11.8166L11.4685 10.4143L10.5315 11.5857ZM14.6945 12.7738L17.5644 9.49388L16.4356 8.50612L13.5657 11.786L14.6945 12.7738ZM12.2843 12.9879C13.0156 13.5729 14.0778 13.4786 14.6945 12.7738L13.5657 11.786C13.4776 11.8867 13.3258 11.9002 13.2213 11.8166L12.2843 12.9879Z" fill="#28303F"/>
<path d="M2 1.25C1.58579 1.25 1.25 1.58579 1.25 2C1.25 2.41421 1.58579 2.75 2 2.75V1.25ZM6 4.75H18V3.25H6V4.75ZM21.25 8V13H22.75V8H21.25ZM18 16.25H10V17.75H18V16.25ZM6.75 13V4H5.25V13H6.75ZM4 1.25H2V2.75H4V1.25ZM6.75 4C6.75 2.48122 5.51878 1.25 4 1.25V2.75C4.69036 2.75 5.25 3.30964 5.25 4H6.75ZM10 16.25C8.20507 16.25 6.75 14.7949 6.75 13H5.25C5.25 15.6234 7.37665 17.75 10 17.75V16.25ZM21.25 13C21.25 14.7949 19.7949 16.25 18 16.25V17.75C20.6234 17.75 22.75 15.6234 22.75 13H21.25ZM18 4.75C19.7949 4.75 21.25 6.20507 21.25 8H22.75C22.75 5.37665 20.6234 3.25 18 3.25V4.75Z" fill="#28303F"/>
</svg>
