<svg width="24" height="24" viewBox="0 0 24 24" fill="none" xmlns="http://www.w3.org/2000/svg">
<path d="M12.7674 14V13.25V14ZM11.2326 14V14.75V14ZM7.98321 2V1.25V2ZM16.0168 2V2.75V2ZM18.2503 5.56317L17.5649 5.86777L18.2503 5.56317ZM16.9306 2.59386L16.2452 2.89847V2.89847L16.9306 2.59386ZM7.0694 2.59386L7.75475 2.89847L7.75475 2.89846L7.0694 2.59386ZM5.7497 5.56317L5.06434 5.25856L5.06434 5.25856L5.7497 5.56317ZM12.7674 13.25H11.2326V14.75H12.7674V13.25ZM7.98321 2.75L16.0168 2.75V1.25L7.98321 1.25V2.75ZM18.9357 5.25856L17.616 2.28926L16.2452 2.89847L17.5649 5.86777L18.9357 5.25856ZM6.38404 2.28926L5.06434 5.25856L6.43506 5.86777L7.75475 2.89847L6.38404 2.28926ZM16.0168 2.75C16.1156 2.75 16.2051 2.80818 16.2452 2.89847L17.616 2.28926C17.3351 1.65729 16.7084 1.25 16.0168 1.25V2.75ZM7.98321 1.25C7.29163 1.25 6.66491 1.65728 6.38404 2.28926L7.75475 2.89846C7.79488 2.80818 7.88441 2.75 7.98321 2.75V1.25ZM11.2326 13.25C7.43337 13.25 4.89206 9.33953 6.43506 5.86777L5.06434 5.25856C3.08048 9.72225 6.34788 14.75 11.2326 14.75V13.25ZM12.7674 14.75C17.6521 14.75 20.9195 9.72225 18.9357 5.25856L17.5649 5.86777C19.1079 9.33953 16.5666 13.25 12.7674 13.25V14.75Z" fill="#28303F"/>
<path d="M12.75 14C12.75 13.5858 12.4142 13.25 12 13.25C11.5858 13.25 11.25 13.5858 11.25 14H12.75ZM15 22.75C15.4142 22.75 15.75 22.4142 15.75 22C15.75 21.5858 15.4142 21.25 15 21.25V22.75ZM9 21.25C8.58579 21.25 8.25 21.5858 8.25 22C8.25 22.4142 8.58579 22.75 9 22.75V21.25ZM12.75 22V14H11.25V22H12.75ZM12 22.75H15V21.25H12V22.75ZM12 21.25H9V22.75H12V21.25Z" fill="#28303F"/>
<path d="M13.1708 5.33541C13.3561 4.96493 13.2059 4.51442 12.8354 4.32918C12.4649 4.14394 12.0144 4.29411 11.8292 4.66459L13.1708 5.33541ZM11 8L10.3292 7.66459C10.2129 7.89708 10.2254 8.17319 10.362 8.3943C10.4987 8.61541 10.7401 8.75 11 8.75V8ZM13 8L13.6708 8.33541C13.7871 8.10292 13.7746 7.82681 13.638 7.6057C13.5013 7.38459 13.2599 7.25 13 7.25V8ZM10.8292 10.6646C10.6439 11.0351 10.7941 11.4856 11.1646 11.6708C11.5351 11.8561 11.9856 11.7059 12.1708 11.3354L10.8292 10.6646ZM11.8292 4.66459L10.3292 7.66459L11.6708 8.33541L13.1708 5.33541L11.8292 4.66459ZM11 8.75H13V7.25H11V8.75ZM12.3292 7.66459L10.8292 10.6646L12.1708 11.3354L13.6708 8.33541L12.3292 7.66459Z" fill="#28303F"/>
</svg>
