<svg width="24" height="24" viewBox="0 0 24 24" fill="none" xmlns="http://www.w3.org/2000/svg">
<path d="M13.724 7.08079L14.3502 7.49353V7.49353L13.724 7.08079ZM9.20142 6C9.20142 6.41421 9.53721 6.75 9.95142 6.75C10.3656 6.75 10.7014 6.41421 10.7014 6H9.20142ZM21.1382 16.3725L21.5672 15.7573L21.1382 16.3725ZM2.86177 16.3725L2.43276 15.7573H2.43276L2.86177 16.3725ZM13.2986 6C13.2986 6.24597 13.2255 6.47426 13.0978 6.66805L14.3502 7.49353C14.6333 7.06399 14.7986 6.55033 14.7986 6H13.2986ZM10.7014 6C10.7014 5.32651 11.2657 4.75 12 4.75V3.25C10.4715 3.25 9.20142 4.46435 9.20142 6H10.7014ZM12 4.75C12.7343 4.75 13.2986 5.32651 13.2986 6H14.7986C14.7986 4.46435 13.5285 3.25 12 3.25V4.75ZM11.571 10.6152L20.7092 16.9877L21.5672 15.7573L12.429 9.38481L11.571 10.6152ZM19.9475 19.25H4.05248V20.75H19.9475V19.25ZM3.29077 16.9877L12.429 10.6152L11.571 9.38481L2.43276 15.7573L3.29077 16.9877ZM20.7092 16.9877C21.6942 17.6746 21.2489 19.25 19.9475 19.25V20.75C22.632 20.75 23.8257 17.3323 21.5672 15.7573L20.7092 16.9877ZM4.05248 19.25C2.75108 19.25 2.30575 17.6746 3.29077 16.9877L2.43276 15.7573C0.174341 17.3323 1.368 20.75 4.05248 20.75V19.25ZM13.0978 6.66805C12.9688 6.86372 12.8073 7.06624 12.6176 7.29645C12.4359 7.51689 12.2225 7.76948 12.0311 8.02633C11.6545 8.53152 11.25 9.19501 11.25 10H12.75C12.75 9.70042 12.9013 9.36874 13.2338 8.92269C13.3968 8.70392 13.5761 8.49188 13.7751 8.25046C13.966 8.01884 14.1731 7.7623 14.3502 7.49353L13.0978 6.66805Z" fill="#28303F"/>
</svg>
