<svg width="24" height="24" viewBox="0 0 24 24" fill="none" xmlns="http://www.w3.org/2000/svg">
<path d="M10 9C10 9.55228 9.55228 10 9 10C8.44772 10 8 9.55228 8 9C8 8.44772 8.44772 8 9 8C9.55228 8 10 8.44772 10 9Z" fill="#28303F"/>
<path d="M16 15C16 15.5523 15.5523 16 15 16C14.4477 16 14 15.5523 14 15C14 14.4477 14.4477 14 15 14C15.5523 14 16 14.4477 16 15Z" fill="#28303F"/>
<path d="M18.3226 21.0361L18.0685 21.7418L18.3226 21.0361ZM16.7608 20.4739L17.0148 19.7682H17.0148L16.7608 20.4739ZM15.2626 20.5318L14.9549 19.8479H14.9549L15.2626 20.5318ZM12.8207 21.6307L12.513 20.9467H12.513L12.8207 21.6307ZM11.1793 21.6307L11.487 20.9467H11.487L11.1793 21.6307ZM8.73737 20.5318L9.04515 19.8479H9.04515L8.73737 20.5318ZM7.2392 20.4739L6.98517 19.7682H6.98516L7.2392 20.4739ZM5.67744 21.0361L5.93148 21.7418H5.93148L5.67744 21.0361ZM5 2.75H19V1.25H5V2.75ZM20.25 4V19.1543H21.75V4H20.25ZM18.5766 20.3305L17.0148 19.7682L16.5068 21.1796L18.0685 21.7418L18.5766 20.3305ZM14.9549 19.8479L12.513 20.9467L13.1285 22.3146L15.5704 21.2158L14.9549 19.8479ZM11.487 20.9467L9.04515 19.8479L8.4296 21.2158L10.8715 22.3146L11.487 20.9467ZM6.98516 19.7682L5.4234 20.3305L5.93148 21.7418L7.49324 21.1796L6.98516 19.7682ZM3.75 19.1543V4H2.25V19.1543H3.75ZM5.4234 20.3305C4.60882 20.6237 3.75 20.0201 3.75 19.1543H2.25C2.25 21.059 4.13941 22.3869 5.93148 21.7418L5.4234 20.3305ZM9.04515 19.8479C8.39479 19.5552 7.65618 19.5267 6.98517 19.7682L7.49324 21.1796C7.79825 21.0697 8.13399 21.0827 8.4296 21.2158L9.04515 19.8479ZM12.513 20.9467C12.1867 21.0935 11.8133 21.0935 11.487 20.9467L10.8715 22.3146C11.5892 22.6376 12.4108 22.6376 13.1285 22.3146L12.513 20.9467ZM17.0148 19.7682C16.3438 19.5267 15.6052 19.5552 14.9549 19.8479L15.5704 21.2158C15.866 21.0827 16.2017 21.0697 16.5068 21.1796L17.0148 19.7682ZM20.25 19.1543C20.25 20.0201 19.3912 20.6237 18.5766 20.3305L18.0685 21.7418C19.8606 22.3869 21.75 21.059 21.75 19.1543H20.25ZM19 2.75C19.6904 2.75 20.25 3.30964 20.25 4H21.75C21.75 2.48122 20.5188 1.25 19 1.25V2.75ZM5 1.25C3.48122 1.25 2.25 2.48122 2.25 4H3.75C3.75 3.30964 4.30964 2.75 5 2.75V1.25Z" fill="#28303F"/>
<path d="M8.46967 14.4697C8.17678 14.7626 8.17678 15.2374 8.46967 15.5303C8.76256 15.8232 9.23744 15.8232 9.53033 15.5303L8.46967 14.4697ZM15.5303 9.53033C15.8232 9.23744 15.8232 8.76256 15.5303 8.46967C15.2374 8.17678 14.7626 8.17678 14.4697 8.46967L15.5303 9.53033ZM9.53033 15.5303L15.5303 9.53033L14.4697 8.46967L8.46967 14.4697L9.53033 15.5303Z" fill="#28303F"/>
</svg>
