<svg width="24" height="24" viewBox="0 0 24 24" fill="none" xmlns="http://www.w3.org/2000/svg">
<path d="M7 2.75H17V1.25H7V2.75ZM20.25 6V18H21.75V6H20.25ZM17 21.25H7V22.75H17V21.25ZM3.75 18V6H2.25V18H3.75ZM7 21.25C5.20507 21.25 3.75 19.7949 3.75 18H2.25C2.25 20.6234 4.37665 22.75 7 22.75V21.25ZM20.25 18C20.25 19.7949 18.7949 21.25 17 21.25V22.75C19.6234 22.75 21.75 20.6234 21.75 18H20.25ZM17 2.75C18.7949 2.75 20.25 4.20507 20.25 6H21.75C21.75 3.37665 19.6234 1.25 17 1.25V2.75ZM7 1.25C4.37665 1.25 2.25 3.37665 2.25 6H3.75C3.75 4.20507 5.20507 2.75 7 2.75V1.25Z" fill="#28303F"/>
<path d="M17 7.75C17.4142 7.75 17.75 7.41421 17.75 7C17.75 6.58579 17.4142 6.25 17 6.25V7.75ZM7 6.25C6.58579 6.25 6.25 6.58579 6.25 7C6.25 7.41421 6.58579 7.75 7 7.75L7 6.25ZM17 6.25L7 6.25L7 7.75L17 7.75V6.25Z" fill="#28303F"/>
<path d="M17 12.75C17.4142 12.75 17.75 12.4142 17.75 12C17.75 11.5858 17.4142 11.25 17 11.25V12.75ZM7 11.25C6.58579 11.25 6.25 11.5858 6.25 12C6.25 12.4142 6.58579 12.75 7 12.75L7 11.25ZM17 11.25L7 11.25L7 12.75L17 12.75V11.25Z" fill="#28303F"/>
<path d="M12 17.75C12.4142 17.75 12.75 17.4142 12.75 17C12.75 16.5858 12.4142 16.25 12 16.25V17.75ZM7 16.25C6.58579 16.25 6.25 16.5858 6.25 17C6.25 17.4142 6.58579 17.75 7 17.75L7 16.25ZM12 16.25L7 16.25L7 17.75L12 17.75V16.25Z" fill="#28303F"/>
</svg>
