<svg width="24" height="24" viewBox="0 0 24 24" fill="none" xmlns="http://www.w3.org/2000/svg">
<path d="M6 4.75H18V3.25H6V4.75ZM21.25 8V16H22.75V8H21.25ZM18 19.25H6V20.75H18V19.25ZM2.75 16V8H1.25V16H2.75ZM6 19.25C4.20507 19.25 2.75 17.7949 2.75 16H1.25C1.25 18.6234 3.37665 20.75 6 20.75V19.25ZM21.25 16C21.25 17.7949 19.7949 19.25 18 19.25V20.75C20.6234 20.75 22.75 18.6234 22.75 16H21.25ZM18 4.75C19.7949 4.75 21.25 6.20507 21.25 8H22.75C22.75 5.37665 20.6234 3.25 18 3.25V4.75ZM6 3.25C3.37665 3.25 1.25 5.37665 1.25 8H2.75C2.75 6.20507 4.20507 4.75 6 4.75V3.25Z" fill="#28303F"/>
<path d="M13.25 12C13.25 12.6904 12.6904 13.25 12 13.25V14.75C13.5188 14.75 14.75 13.5188 14.75 12H13.25ZM12 13.25C11.3096 13.25 10.75 12.6904 10.75 12H9.25C9.25 13.5188 10.4812 14.75 12 14.75V13.25ZM10.75 12C10.75 11.3096 11.3096 10.75 12 10.75V9.25C10.4812 9.25 9.25 10.4812 9.25 12H10.75ZM12 10.75C12.6904 10.75 13.25 11.3096 13.25 12H14.75C14.75 10.4812 13.5188 9.25 12 9.25V10.75Z" fill="#28303F"/>
<path d="M6.5 7.5C6.5 8.05228 6.05228 8.5 5.5 8.5C4.94772 8.5 4.5 8.05228 4.5 7.5C4.5 6.94772 4.94772 6.5 5.5 6.5C6.05228 6.5 6.5 6.94772 6.5 7.5Z" fill="#28303F"/>
<path d="M19.5 7.5C19.5 8.05228 19.0523 8.5 18.5 8.5C17.9477 8.5 17.5 8.05228 17.5 7.5C17.5 6.94772 17.9477 6.5 18.5 6.5C19.0523 6.5 19.5 6.94772 19.5 7.5Z" fill="#28303F"/>
<path d="M6.5 16.5C6.5 17.0523 6.05228 17.5 5.5 17.5C4.94772 17.5 4.5 17.0523 4.5 16.5C4.5 15.9477 4.94772 15.5 5.5 15.5C6.05228 15.5 6.5 15.9477 6.5 16.5Z" fill="#28303F"/>
<path d="M19.5 16.5C19.5 17.0523 19.0523 17.5 18.5 17.5C17.9477 17.5 17.5 17.0523 17.5 16.5C17.5 15.9477 17.9477 15.5 18.5 15.5C19.0523 15.5 19.5 15.9477 19.5 16.5Z" fill="#28303F"/>
</svg>
