<svg width="24" height="24" viewBox="0 0 24 24" fill="none" xmlns="http://www.w3.org/2000/svg">
<path d="M4.63246 14.1026L5.34397 14.3398L4.63246 14.1026ZM19.3676 14.1026L18.656 14.3398L19.3676 14.1026ZM5.63246 11.1026L4.92095 10.8655L5.63246 11.1026ZM11.3246 7.75H12.6755V6.25H11.3246V7.75ZM17.656 11.3398L18.656 14.3398L20.0791 13.8655L19.0791 10.8655L17.656 11.3398ZM13.6755 21.25H10.3246V22.75H13.6755V21.25ZM5.34397 14.3398L6.34397 11.3398L4.92095 10.8655L3.92095 13.8655L5.34397 14.3398ZM10.3246 21.25C6.74113 21.25 4.21079 17.7393 5.34397 14.3398L3.92095 13.8655C2.464 18.2363 5.7173 22.75 10.3246 22.75V21.25ZM18.656 14.3398C19.7892 17.7393 17.2589 21.25 13.6755 21.25V22.75C18.2827 22.75 21.536 18.2363 20.0791 13.8655L18.656 14.3398ZM12.6755 7.75C14.9352 7.75 16.9414 9.19601 17.656 11.3398L19.0791 10.8655C18.1603 8.10915 15.5809 6.25 12.6755 6.25V7.75ZM11.3246 6.25C8.41916 6.25 5.83972 8.10915 4.92095 10.8655L6.34397 11.3398C7.05857 9.19601 9.0648 7.75 11.3246 7.75V6.25Z" fill="#28303F"/>
<path d="M9.37783 17.3521C9.02002 17.1435 8.56079 17.2644 8.35212 17.6222C8.14345 17.98 8.26436 18.4392 8.62217 18.6479L9.37783 17.3521ZM15.364 18.6558C15.7261 18.4547 15.8568 17.9982 15.6558 17.636C15.4547 17.2739 14.9982 17.1432 14.636 17.3442L15.364 18.6558ZM8.62217 18.6479C9.79371 19.3311 10.8248 19.7427 11.934 19.7472C13.0395 19.7517 14.1109 19.3513 15.364 18.6558L14.636 17.3442C13.4669 17.9932 12.6655 18.2501 11.9401 18.2472C11.2185 18.2443 10.4607 17.9836 9.37783 17.3521L8.62217 18.6479Z" fill="#28303F"/>
<path d="M14.0859 7V7.75C14.3026 7.75 14.5088 7.65624 14.6512 7.49287L14.0859 7ZM9.91411 7L9.34879 7.49287C9.49123 7.65623 9.69737 7.75 9.91411 7.75L9.91411 7ZM11.6748 2.40914L11.9051 1.69536L11.6748 2.40914ZM12.3252 2.40914L12.0949 1.69536L12.3252 2.40914ZM15.487 5.39296L14.9217 4.90009H14.9217L15.487 5.39296ZM13.2529 2.10985L13.0227 1.39607L13.2529 2.10985ZM8.51303 5.39296L7.94771 5.88582H7.94771L8.51303 5.39296ZM10.7471 2.10985L10.5168 2.82363V2.82363L10.7471 2.10985ZM14.0859 6.25L9.91411 6.25L9.91411 7.75L14.0859 7.75V6.25ZM10.4794 6.50713L9.07834 4.90009L7.94771 5.88582L9.34879 7.49287L10.4794 6.50713ZM14.9217 4.90009L13.5206 6.50713L14.6512 7.49287L16.0523 5.88582L14.9217 4.90009ZM10.5168 2.82363L11.4446 3.12292L11.9051 1.69536L10.9773 1.39607L10.5168 2.82363ZM12.5554 3.12292L13.4832 2.82363L13.0227 1.39607L12.0949 1.69536L12.5554 3.12292ZM11.4446 3.12292C11.8055 3.23936 12.1945 3.23936 12.5554 3.12292L12.0949 1.69536C12.0334 1.71521 11.9666 1.71521 11.9051 1.69536L11.4446 3.12292ZM16.0523 5.88582C17.961 3.69651 15.6993 0.532591 13.0227 1.39607L13.4832 2.82363C14.817 2.39336 15.7598 3.93875 14.9217 4.90009L16.0523 5.88582ZM9.07834 4.90009C8.24021 3.93875 9.18304 2.39336 10.5168 2.82363L10.9773 1.39607C8.30066 0.532591 6.03897 3.6965 7.94771 5.88582L9.07834 4.90009Z" fill="#28303F"/>
</svg>
