<svg width="24" height="24" viewBox="0 0 24 24" fill="none" xmlns="http://www.w3.org/2000/svg">
<path d="M8.40313 2L8.40313 1.25H8.40313V2ZM15.5969 2.00001L15.5969 2.75001L15.5969 2.00001ZM18.0957 2.87654L17.6271 3.46219L18.0957 2.87654ZM21.2494 5.39953L21.7179 4.81387V4.81387L21.2494 5.39953ZM2.75061 5.39953L2.28209 4.81387L2.28209 4.81387L2.75061 5.39953ZM5.90434 2.87653L6.37286 3.46218L5.90434 2.87653ZM21.25 6.96126V18H22.75V6.96126H21.25ZM18 21.25H6V22.75H18V21.25ZM2.75 18V6.96126H1.25V18H2.75ZM8.40313 2.75L15.5969 2.75001L15.5969 1.25001L8.40313 1.25L8.40313 2.75ZM17.6271 3.46219L20.7809 5.98518L21.7179 4.81387L18.5642 2.29088L17.6271 3.46219ZM3.21913 5.98518L6.37286 3.46218L5.43582 2.29088L2.28209 4.81387L3.21913 5.98518ZM15.5969 2.75001C16.3349 2.75001 17.0509 3.00117 17.6271 3.46219L18.5642 2.29088C17.7219 1.6171 16.6755 1.25001 15.5969 1.25001L15.5969 2.75001ZM8.40313 1.25C7.32454 1.25 6.27806 1.61709 5.43582 2.29088L6.37286 3.46218C6.94913 3.00116 7.66514 2.75 8.40313 2.75V1.25ZM6 21.25C4.20507 21.25 2.75 19.7949 2.75 18H1.25C1.25 20.6234 3.37665 22.75 6 22.75V21.25ZM21.25 18C21.25 19.7949 19.7949 21.25 18 21.25V22.75C20.6234 22.75 22.75 20.6234 22.75 18H21.25ZM22.75 6.96126C22.75 6.12586 22.3703 5.33575 21.7179 4.81387L20.7809 5.98518C21.0774 6.22239 21.25 6.58153 21.25 6.96126H22.75ZM2.75 6.96126C2.75 6.58153 2.92261 6.22239 3.21913 5.98518L2.28209 4.81387C1.62975 5.33575 1.25 6.12586 1.25 6.96126H2.75Z" fill="#28303F"/>
<path d="M9 6V5.25C8.58579 5.25 8.25 5.58579 8.25 6H9ZM15 6H15.75C15.75 5.58579 15.4142 5.25 15 5.25V6ZM9 6.75H15V5.25H9V6.75ZM14.25 6V9H15.75V6H14.25ZM9.75 9V6H8.25V9H9.75ZM12 11.25C10.7574 11.25 9.75 10.2426 9.75 9H8.25C8.25 11.0711 9.92893 12.75 12 12.75V11.25ZM14.25 9C14.25 10.2426 13.2426 11.25 12 11.25V12.75C14.0711 12.75 15.75 11.0711 15.75 9H14.25Z" fill="#28303F"/>
<path d="M2.5 5.25C2.08579 5.25 1.75 5.58579 1.75 6C1.75 6.41421 2.08579 6.75 2.5 6.75V5.25ZM21.5 6.75C21.9142 6.75 22.25 6.41421 22.25 6C22.25 5.58579 21.9142 5.25 21.5 5.25V6.75ZM2.5 6.75H21.5V5.25H2.5V6.75Z" fill="#28303F"/>
</svg>
