<svg width="24" height="24" viewBox="0 0 24 24" fill="none" xmlns="http://www.w3.org/2000/svg">
<path d="M5.37764 4.94327L5.07304 4.25791L5.37764 4.94327ZM10.3755 2.72201L10.6801 3.40737L10.3755 2.72201ZM13.6246 2.72201L13.9292 2.03665V2.03665L13.6246 2.72201ZM18.6026 4.93446L18.298 5.61982L18.6026 4.93446ZM3.07002 8.6039L2.32129 8.64751L3.07002 8.6039ZM9.93582 20.6769L10.3563 20.0559H10.3563L9.93582 20.6769ZM14.0647 20.6776L14.4858 21.2982H14.4858L14.0647 20.6776ZM20.9118 8.62529L20.1633 8.57726V8.57726L20.9118 8.62529ZM5.68225 5.62863L10.6801 3.40737L10.0709 2.03665L5.07304 4.25791L5.68225 5.62863ZM13.32 3.40737L18.298 5.61982L18.9072 4.2491L13.9292 2.03665L13.32 3.40737ZM2.32129 8.64751C2.50477 11.7975 3.06188 14.1521 4.22902 16.1424C5.39491 18.1305 7.12623 19.6805 9.51536 21.298L10.3563 20.0559C8.04729 18.4927 6.52553 17.0933 5.52295 15.3836C4.52163 13.6761 3.9949 11.5845 3.81875 8.56029L2.32129 8.64751ZM14.4858 21.2982C16.8853 19.6699 18.6031 18.1053 19.7575 16.1152C20.9122 14.1246 21.4608 11.7819 21.6603 8.67331L20.1633 8.57726C19.9716 11.5664 19.4529 13.651 18.46 15.3626C17.4668 17.0747 15.9566 18.4873 13.6435 20.057L14.4858 21.2982ZM9.51536 21.298C11.0131 22.312 12.9871 22.3153 14.4858 21.2982L13.6435 20.057C12.6549 20.7279 11.3477 20.7271 10.3563 20.0559L9.51536 21.298ZM10.6801 3.40737C11.5204 3.03389 12.4796 3.03389 13.32 3.40737L13.9292 2.03665C12.701 1.49079 11.299 1.49079 10.0709 2.03665L10.6801 3.40737ZM18.298 5.61982C19.4908 6.14996 20.2436 7.32617 20.1633 8.57726L21.6603 8.67331C21.784 6.74494 20.6258 5.01292 18.9072 4.2491L18.298 5.61982ZM5.07304 4.25791C3.36669 5.01628 2.20962 6.73038 2.32129 8.64751L3.81875 8.56029C3.74644 7.31884 4.49735 6.15525 5.68225 5.62863L5.07304 4.25791Z" fill="#28303F"/>
<path d="M9.46852 10.4143C9.14507 10.1556 8.67311 10.208 8.41435 10.5315C8.15559 10.8549 8.20803 11.3269 8.53148 11.5857L9.46852 10.4143ZM10.7528 12.4023L11.2213 11.8166L10.7528 12.4023ZM12.1301 12.2799L11.5657 11.786L12.1301 12.2799ZM15.5644 9.49388C15.8372 9.18215 15.8056 8.70833 15.4939 8.43557C15.1822 8.16281 14.7083 8.19439 14.4356 8.50612L15.5644 9.49388ZM8.53148 11.5857L10.2843 12.9879L11.2213 11.8166L9.46852 10.4143L8.53148 11.5857ZM12.6945 12.7738L15.5644 9.49388L14.4356 8.50612L11.5657 11.786L12.6945 12.7738ZM10.2843 12.9879C11.0156 13.5729 12.0778 13.4786 12.6945 12.7738L11.5657 11.786C11.4776 11.8867 11.3258 11.9002 11.2213 11.8166L10.2843 12.9879Z" fill="#28303F"/>
</svg>
