<svg width="24" height="24" viewBox="0 0 24 24" fill="none" xmlns="http://www.w3.org/2000/svg">
<path d="M9 7L8.25 7L9 7ZM9.75 6C9.75 5.58579 9.41421 5.25 9 5.25C8.58579 5.25 8.25 5.58579 8.25 6L9.75 6ZM15.75 6C15.75 5.58579 15.4142 5.25 15 5.25C14.5858 5.25 14.25 5.58579 14.25 6H15.75ZM15 7L15.75 7V7H15ZM9.75 7L9.75 6L8.25 6L8.25 7L9.75 7ZM14.25 6V7H15.75V6H14.25ZM12 9.25C10.7574 9.25 9.75 8.24264 9.75 7L8.25 7C8.25 9.07107 9.92893 10.75 12 10.75V9.25ZM12 10.75C14.0711 10.75 15.75 9.07107 15.75 7L14.25 7C14.25 8.24264 13.2426 9.25 12 9.25V10.75Z" fill="#28303F"/>
<path d="M4.44294 6.3424L3.70314 6.2191V6.2191L4.44294 6.3424ZM2.77627 16.3424L3.51607 16.4657L2.77627 16.3424ZM19.5571 6.3424L20.2969 6.21911V6.2191L19.5571 6.3424ZM19.9269 13.1233C19.995 13.5319 20.3814 13.8079 20.79 13.7398C21.1985 13.6717 21.4746 13.2853 21.4065 12.8767L19.9269 13.1233ZM13 21.75C13.4142 21.75 13.75 21.4142 13.75 21C13.75 20.5858 13.4142 20.25 13 20.25V21.75ZM8.38851 3.75H15.6115V2.25H8.38851V3.75ZM3.70314 6.2191L2.03647 16.2191L3.51607 16.4657L5.18273 6.4657L3.70314 6.2191ZM18.8173 6.4657L19.9269 13.1233L21.4065 12.8767L20.2969 6.21911L18.8173 6.4657ZM13 20.25H6.72185V21.75H13V20.25ZM8.38851 2.25C6.06653 2.25 4.08487 3.92871 3.70314 6.2191L5.18273 6.4657C5.44392 4.89859 6.79979 3.75 8.38851 3.75V2.25ZM15.6115 3.75C17.2002 3.75 18.5561 4.89859 18.8173 6.4657L20.2969 6.2191C19.9151 3.92871 17.9335 2.25 15.6115 2.25V3.75ZM2.03647 16.2191C1.55393 19.1144 3.78663 21.75 6.72185 21.75V20.25C4.71354 20.25 3.1859 18.4467 3.51607 16.4657L2.03647 16.2191Z" fill="#28303F"/>
<path d="M21.6517 16.409C21.9446 16.1161 21.9446 15.6412 21.6517 15.3483C21.3588 15.0554 20.8839 15.0554 20.591 15.3483L21.6517 16.409ZM16.3484 19.591C16.0555 19.8839 16.0555 20.3587 16.3484 20.6516C16.6413 20.9445 17.1161 20.9445 17.409 20.6516L16.3484 19.591ZM20.591 15.3483L16.3484 19.591L17.409 20.6516L21.6517 16.409L20.591 15.3483Z" fill="#28303F"/>
<path d="M20.591 20.6517C20.8839 20.9446 21.3588 20.9446 21.6517 20.6517C21.9446 20.3588 21.9446 19.8839 21.6517 19.591L20.591 20.6517ZM17.409 15.3484C17.1161 15.0555 16.6413 15.0555 16.3484 15.3484C16.0555 15.6413 16.0555 16.1162 16.3484 16.4091L17.409 15.3484ZM21.6517 19.591L17.409 15.3484L16.3484 16.4091L20.591 20.6517L21.6517 19.591Z" fill="#28303F"/>
</svg>
