<svg width="24" height="24" viewBox="0 0 24 24" fill="none" xmlns="http://www.w3.org/2000/svg">
<path d="M2.58683 9.25C2.17261 9.25 1.83683 9.58579 1.83683 10C1.83683 10.4142 2.17261 10.75 2.58683 10.75V9.25ZM21.4132 10.75C21.8274 10.75 22.1632 10.4142 22.1632 10C22.1632 9.58579 21.8274 9.25 21.4132 9.25V10.75ZM18.0351 6V5.25V6ZM21.9169 10.808L22.6517 10.9582L21.9169 10.808ZM2.08312 10.808L2.81793 10.6578L2.08312 10.808ZM5.96486 6V6.75V6ZM7.59978 22V21.25V22ZM3.71804 18.808L2.98323 18.9582L3.71804 18.808ZM16.4002 22V22.75V22ZM20.282 18.808L21.0168 18.9582L20.282 18.808ZM16.4002 21.25H7.59978V22.75H16.4002V21.25ZM4.45285 18.6578L2.81793 10.6578L1.34831 10.9582L2.98323 18.9582L4.45285 18.6578ZM5.96486 6.75L18.0351 6.75V5.25L5.96486 5.25V6.75ZM21.1821 10.6578L19.5472 18.6578L21.0168 18.9582L22.6517 10.9582L21.1821 10.6578ZM2.58683 10.75H21.4132V9.25H2.58683V10.75ZM18.0351 6.75C20.0629 6.75 21.5959 8.63265 21.1821 10.6578L22.6517 10.9582C23.2522 8.01983 21.0291 5.25 18.0351 5.25V6.75ZM2.81793 10.6578C2.40406 8.63265 3.93712 6.75 5.96486 6.75V5.25C2.97095 5.25 0.747818 8.01983 1.34831 10.9582L2.81793 10.6578ZM7.59978 21.25C6.08038 21.25 4.76227 20.1719 4.45285 18.6578L2.98323 18.9582C3.43347 21.1613 5.35846 22.75 7.59978 22.75V21.25ZM16.4002 22.75C18.6416 22.75 20.5665 21.1613 21.0168 18.9582L19.5472 18.6578C19.2377 20.1719 17.9196 21.25 16.4002 21.25V22.75Z" fill="#28303F"/>
<path d="M9.6 2.45C9.84853 2.11863 9.78137 1.64853 9.45 1.4C9.11863 1.15147 8.64853 1.21863 8.4 1.55L9.6 2.45ZM5.4 5.55C5.15147 5.88137 5.21863 6.35147 5.55 6.6C5.88137 6.84853 6.35147 6.78137 6.6 6.45L5.4 5.55ZM8.4 1.55L5.4 5.55L6.6 6.45L9.6 2.45L8.4 1.55Z" fill="#28303F"/>
<path d="M15.6 1.55C15.3515 1.21863 14.8814 1.15147 14.55 1.4C14.2186 1.64853 14.1515 2.11863 14.4 2.45L15.6 1.55ZM17.4 6.45C17.6485 6.78137 18.1186 6.84853 18.45 6.6C18.7814 6.35147 18.8485 5.88137 18.6 5.55L17.4 6.45ZM14.4 2.45L17.4 6.45L18.6 5.55L15.6 1.55L14.4 2.45Z" fill="#28303F"/>
<path d="M9.75 14C9.75 13.5858 9.41421 13.25 9 13.25C8.58579 13.25 8.25 13.5858 8.25 14L9.75 14ZM8.25 18C8.25 18.4142 8.58579 18.75 9 18.75C9.41421 18.75 9.75 18.4142 9.75 18H8.25ZM8.25 14L8.25 18H9.75L9.75 14L8.25 14Z" fill="#28303F"/>
<path d="M15.75 14C15.75 13.5858 15.4142 13.25 15 13.25C14.5858 13.25 14.25 13.5858 14.25 14L15.75 14ZM14.25 18C14.25 18.4142 14.5858 18.75 15 18.75C15.4142 18.75 15.75 18.4142 15.75 18H14.25ZM14.25 14L14.25 18H15.75L15.75 14L14.25 14Z" fill="#28303F"/>
</svg>
