<svg width="24" height="24" viewBox="0 0 24 24" fill="none" xmlns="http://www.w3.org/2000/svg">
<path d="M9 7L8.25 7L9 7ZM9.75 6C9.75 5.58579 9.41421 5.25 9 5.25C8.58579 5.25 8.25 5.58579 8.25 6L9.75 6ZM15.75 6C15.75 5.58579 15.4142 5.25 15 5.25C14.5858 5.25 14.25 5.58579 14.25 6H15.75ZM15 7L15.75 7V7H15ZM9.75 7L9.75 6L8.25 6L8.25 7L9.75 7ZM14.25 6V7H15.75V6H14.25ZM12 9.25C10.7574 9.25 9.75 8.24264 9.75 7L8.25 7C8.25 9.07107 9.92893 10.75 12 10.75V9.25ZM12 10.75C14.0711 10.75 15.75 9.07107 15.75 7L14.25 7C14.25 8.24264 13.2426 9.25 12 9.25V10.75Z" fill="#28303F"/>
<path d="M4.44294 6.3424L3.70314 6.2191V6.2191L4.44294 6.3424ZM2.77627 16.3424L3.51607 16.4657L2.77627 16.3424ZM19.5571 6.3424L20.2969 6.21911V6.2191L19.5571 6.3424ZM19.9269 13.1233C19.995 13.5319 20.3814 13.8079 20.79 13.7398C21.1985 13.6717 21.4746 13.2853 21.4065 12.8767L19.9269 13.1233ZM13 21.75C13.4142 21.75 13.75 21.4142 13.75 21C13.75 20.5858 13.4142 20.25 13 20.25V21.75ZM8.38851 3.75H15.6115V2.25H8.38851V3.75ZM3.70314 6.2191L2.03647 16.2191L3.51607 16.4657L5.18273 6.4657L3.70314 6.2191ZM18.8173 6.4657L19.9269 13.1233L21.4065 12.8767L20.2969 6.21911L18.8173 6.4657ZM13 20.25H6.72185V21.75H13V20.25ZM8.38851 2.25C6.06653 2.25 4.08487 3.92871 3.70314 6.2191L5.18273 6.4657C5.44392 4.89859 6.79979 3.75 8.38851 3.75V2.25ZM15.6115 3.75C17.2002 3.75 18.5561 4.89859 18.8173 6.4657L20.2969 6.2191C19.9151 3.92871 17.9335 2.25 15.6115 2.25V3.75ZM2.03647 16.2191C1.55393 19.1144 3.78663 21.75 6.72185 21.75V20.25C4.71354 20.25 3.1859 18.4467 3.51607 16.4657L2.03647 16.2191Z" fill="#28303F"/>
<path d="M19.75 15C19.75 14.5858 19.4142 14.25 19 14.25C18.5858 14.25 18.25 14.5858 18.25 15L19.75 15ZM18.25 21C18.25 21.4142 18.5858 21.75 19 21.75C19.4142 21.75 19.75 21.4142 19.75 21H18.25ZM18.25 15L18.25 21H19.75L19.75 15L18.25 15Z" fill="#28303F"/>
<path d="M22 18.75C22.4142 18.75 22.75 18.4142 22.75 18C22.75 17.5858 22.4142 17.25 22 17.25V18.75ZM16 17.25C15.5858 17.25 15.25 17.5858 15.25 18C15.25 18.4142 15.5858 18.75 16 18.75L16 17.25ZM22 17.25L16 17.25L16 18.75L22 18.75V17.25Z" fill="#28303F"/>
</svg>
