<svg width="24" height="24" viewBox="0 0 24 24" fill="none" xmlns="http://www.w3.org/2000/svg">
<path d="M9 7L8.25 7L9 7ZM9.75 6C9.75 5.58579 9.41421 5.25 9 5.25C8.58579 5.25 8.25 5.58579 8.25 6L9.75 6ZM15.75 6C15.75 5.58579 15.4142 5.25 15 5.25C14.5858 5.25 14.25 5.58579 14.25 6H15.75ZM15 7L15.75 7V7H15ZM9.75 7L9.75 6L8.25 6L8.25 7L9.75 7ZM14.25 6V7H15.75V6H14.25ZM12 9.25C10.7574 9.25 9.75 8.24264 9.75 7L8.25 7C8.25 9.07107 9.92893 10.75 12 10.75V9.25ZM12 10.75C14.0711 10.75 15.75 9.07107 15.75 7L14.25 7C14.25 8.24264 13.2426 9.25 12 9.25V10.75Z" fill="#28303F"/>
<path d="M4.44294 6.3424L3.70314 6.2191V6.2191L4.44294 6.3424ZM2.77627 16.3424L3.51607 16.4657L2.77627 16.3424ZM19.5571 6.3424L20.2969 6.21911V6.2191L19.5571 6.3424ZM19.9269 13.1233C19.995 13.5319 20.3814 13.8079 20.79 13.7398C21.1985 13.6717 21.4746 13.2853 21.4065 12.8767L19.9269 13.1233ZM13 21.75C13.4142 21.75 13.75 21.4142 13.75 21C13.75 20.5858 13.4142 20.25 13 20.25V21.75ZM8.38851 3.75H15.6115V2.25H8.38851V3.75ZM3.70314 6.2191L2.03647 16.2191L3.51607 16.4657L5.18273 6.4657L3.70314 6.2191ZM18.8173 6.4657L19.9269 13.1233L21.4065 12.8767L20.2969 6.21911L18.8173 6.4657ZM13 20.25H6.72185V21.75H13V20.25ZM8.38851 2.25C6.06653 2.25 4.08487 3.92871 3.70314 6.2191L5.18273 6.4657C5.44392 4.89859 6.79979 3.75 8.38851 3.75V2.25ZM15.6115 3.75C17.2002 3.75 18.5561 4.89859 18.8173 6.4657L20.2969 6.2191C19.9151 3.92871 17.9335 2.25 15.6115 2.25V3.75ZM2.03647 16.2191C1.55393 19.1144 3.78663 21.75 6.72185 21.75V20.25C4.71354 20.25 3.1859 18.4467 3.51607 16.4657L2.03647 16.2191Z" fill="#28303F"/>
<path d="M18.2574 16.182L17.727 16.7123C17.8677 16.8529 18.0585 16.932 18.2574 16.932C18.4563 16.932 18.6471 16.8529 18.7877 16.7123L18.2574 16.182ZM18.5225 15.9168L17.9922 15.3865L18.5225 15.9168ZM17.9922 15.9168L17.4619 16.4471L17.4619 16.4471L17.9922 15.9168ZM15.3406 18.5684L15.8709 18.0381L15.3406 18.5684ZM17.1967 20.4246L16.6664 20.9549L17.1967 20.4246ZM19.318 20.4246L19.8484 20.9549L19.318 20.4246ZM21.1742 18.5684L20.6439 18.0381V18.0381L21.1742 18.5684ZM15.3406 15.9168L15.8709 16.4471L15.3406 15.9168ZM18.7877 16.7123L19.0529 16.4471L17.9922 15.3865L17.727 15.6516L18.7877 16.7123ZM17.4619 16.4471L17.727 16.7123L18.7877 15.6516L18.5225 15.3865L17.4619 16.4471ZM14.8102 19.0988L16.6664 20.9549L17.727 19.8943L15.8709 18.0381L14.8102 19.0988ZM19.8484 20.9549L21.7045 19.0988L20.6439 18.0381L18.7877 19.8943L19.8484 20.9549ZM20.6439 16.4471C21.0832 16.8865 21.0832 17.5988 20.6439 18.0381L21.7045 19.0988C22.7296 18.0736 22.7296 16.4116 21.7045 15.3865L20.6439 16.4471ZM21.7045 15.3865C20.6794 14.3613 19.0173 14.3613 17.9922 15.3865L19.0529 16.4471C19.4922 16.0078 20.2045 16.0078 20.6439 16.4471L21.7045 15.3865ZM15.8709 16.4471C16.3102 16.0078 17.0225 16.0078 17.4619 16.4471L18.5225 15.3865C17.4974 14.3613 15.8354 14.3613 14.8102 15.3865L15.8709 16.4471ZM16.6664 20.9549C17.5451 21.8336 18.9697 21.8336 19.8484 20.9549L18.7877 19.8943C18.4948 20.1872 18.0199 20.1872 17.727 19.8943L16.6664 20.9549ZM14.8102 15.3865C13.7851 16.4116 13.7851 18.0736 14.8102 19.0988L15.8709 18.0381C15.4315 17.5988 15.4315 16.8865 15.8709 16.4471L14.8102 15.3865Z" fill="#28303F"/>
</svg>
