<svg width="24" height="24" viewBox="0 0 24 24" fill="none" xmlns="http://www.w3.org/2000/svg">
<path d="M19.8156 18.9548L20.5439 19.1338L19.8156 18.9548ZM21.782 10.9548L21.0537 10.7758L21.782 10.9548ZM4.18449 18.9548L3.45617 19.1339L4.18449 18.9548ZM2.21796 10.9548L2.94627 10.7758L2.21796 10.9548ZM15.9312 21.25H8.06885V22.75H15.9312V21.25ZM6.10232 6.75H17.8977V5.25H6.10232V6.75ZM20.5439 19.1338L22.5104 11.1338L21.0537 10.7758L19.0872 18.7758L20.5439 19.1338ZM4.9128 18.7758L2.94627 10.7758L1.48964 11.1339L3.45617 19.1339L4.9128 18.7758ZM15.9312 22.75C18.1178 22.75 20.0219 21.2572 20.5439 19.1338L19.0872 18.7758C18.7301 20.2286 17.4273 21.25 15.9312 21.25V22.75ZM8.06885 21.25C6.57275 21.25 5.26994 20.2287 4.9128 18.7758L3.45617 19.1339C3.97813 21.2573 5.88224 22.75 8.06885 22.75V21.25ZM6.10232 5.25C3.01983 5.25 0.753817 8.1405 1.48964 11.1339L2.94627 10.7758C2.44282 8.72771 3.99325 6.75 6.10232 6.75V5.25ZM17.8977 6.75C20.0067 6.75 21.5572 8.72769 21.0537 10.7758L22.5104 11.1338C23.2462 8.14047 20.9801 5.25 17.8977 5.25V6.75Z" fill="#28303F"/>
<path d="M3 9.25C2.58579 9.25 2.25 9.58579 2.25 10C2.25 10.4142 2.58579 10.75 3 10.75V9.25ZM21 10.75C21.4142 10.75 21.75 10.4142 21.75 10C21.75 9.58579 21.4142 9.25 21 9.25V10.75ZM3 10.75H21V9.25H3V10.75Z" fill="#28303F"/>
<path d="M9.59976 2.45C9.84828 2.11863 9.78113 1.64853 9.44976 1.4C9.11839 1.15147 8.64828 1.21863 8.39976 1.55L9.59976 2.45ZM5.39976 5.55C5.15123 5.88137 5.21838 6.35147 5.54976 6.6C5.88113 6.84853 6.35123 6.78137 6.59976 6.45L5.39976 5.55ZM8.39976 1.55L5.39976 5.55L6.59976 6.45L9.59976 2.45L8.39976 1.55Z" fill="#28303F"/>
<path d="M15.5998 1.55C15.3512 1.21863 14.8811 1.15147 14.5498 1.4C14.2184 1.64853 14.1512 2.11863 14.3998 2.45L15.5998 1.55ZM17.3998 6.45C17.6483 6.78137 18.1184 6.84853 18.4498 6.6C18.7811 6.35147 18.8483 5.88137 18.5998 5.55L17.3998 6.45ZM14.3998 2.45L17.3998 6.45L18.5998 5.55L15.5998 1.55L14.3998 2.45Z" fill="#28303F"/>
</svg>
