<svg width="24" height="24" viewBox="0 0 24 24" fill="none" xmlns="http://www.w3.org/2000/svg">
<path d="M9 7L9.75 7L9 7ZM9.75 6C9.75 5.58579 9.41421 5.25 9 5.25C8.58579 5.25 8.25 5.58579 8.25 6L9.75 6ZM15.75 6C15.75 5.58579 15.4142 5.25 15 5.25C14.5858 5.25 14.25 5.58579 14.25 6H15.75ZM15 7L15.75 7V7H15ZM12 10V10.75V10ZM9.75 7L9.75 6L8.25 6L8.25 7L9.75 7ZM14.25 6V7H15.75V6H14.25ZM12 9.25C10.7574 9.25 9.75 8.24264 9.75 7L8.25 7C8.25 9.07107 9.92893 10.75 12 10.75V9.25ZM12 10.75C14.0711 10.75 15.75 9.07107 15.75 7L14.25 7C14.25 8.24264 13.2426 9.25 12 9.25V10.75Z" fill="#28303F"/>
<path d="M19.5571 6.3424L20.2969 6.2191V6.2191L19.5571 6.3424ZM21.2237 16.3424L20.4839 16.4657L21.2237 16.3424ZM4.44293 6.3424L3.70314 6.2191V6.2191L4.44293 6.3424ZM2.77627 16.3424L3.51606 16.4657L2.77627 16.3424ZM8.38851 3.75H15.6115V2.25H8.38851V3.75ZM18.8173 6.4657L20.4839 16.4657L21.9635 16.2191L20.2969 6.2191L18.8173 6.4657ZM17.2782 20.25H6.72184V21.75H17.2782V20.25ZM3.70314 6.2191L2.03647 16.2191L3.51606 16.4657L5.18273 6.4657L3.70314 6.2191ZM8.38851 2.25C6.06652 2.25 4.08487 3.92871 3.70314 6.2191L5.18273 6.4657C5.44391 4.89859 6.79978 3.75 8.38851 3.75V2.25ZM15.6115 3.75C17.2002 3.75 18.5561 4.89859 18.8173 6.4657L20.2969 6.2191C19.9151 3.92871 17.9335 2.25 15.6115 2.25V3.75ZM20.4839 16.4657C20.8141 18.4467 19.2865 20.25 17.2782 20.25V21.75C20.2134 21.75 22.4461 19.1144 21.9635 16.2191L20.4839 16.4657ZM6.72184 20.25C4.71354 20.25 3.1859 18.4467 3.51606 16.4657L2.03647 16.2191C1.55392 19.1144 3.78663 21.75 6.72184 21.75V20.25Z" fill="#28303F"/>
</svg>
