<svg width="24" height="24" viewBox="0 0 24 24" fill="none" xmlns="http://www.w3.org/2000/svg">
<path d="M19.25 12V18H20.75V12H19.25ZM16 21.25H8V22.75H16V21.25ZM4.75 18V12H3.25V18H4.75ZM8 21.25C6.20507 21.25 4.75 19.7949 4.75 18H3.25C3.25 20.6234 5.37665 22.75 8 22.75V21.25ZM19.25 18C19.25 19.7949 17.7949 21.25 16 21.25V22.75C18.6234 22.75 20.75 20.6234 20.75 18H19.25Z" fill="#28303F"/>
<path d="M20.8953 5.14305L21.602 4.89179V4.89179L20.8953 5.14305ZM21.6533 7.27487L22.36 7.02362V7.02362L21.6533 7.27487ZM2.34671 7.27487L3.05337 7.52613L2.34671 7.27487ZM3.10469 5.14305L3.81136 5.39431V5.3943L3.10469 5.14305ZM16.0833 8.25C16.0833 7.83579 15.7475 7.5 15.3333 7.5C14.9191 7.5 14.5833 7.83579 14.5833 8.25H16.0833ZM21.874 9.27488L21.1467 9.09161L21.1467 9.09161L21.874 9.27488ZM9.41667 8.25C9.41667 7.83579 9.08088 7.5 8.66667 7.5C8.25245 7.5 7.91667 7.83579 7.91667 8.25H9.41667ZM2.12602 9.27488L1.39875 9.45814L2.12602 9.27488ZM7.23126 2.75H16.7687V1.25H7.23126V2.75ZM20.1886 5.3943L20.9466 7.52613L22.36 7.02362L21.602 4.89179L20.1886 5.3943ZM3.05337 7.52613L3.81136 5.39431L2.39803 4.89179L1.64005 7.02362L3.05337 7.52613ZM16.7687 2.75C18.2254 2.75 19.6047 3.75205 20.1886 5.3943L21.602 4.89179C20.836 2.73746 18.9468 1.25 16.7687 1.25V2.75ZM7.23126 1.25C5.05324 1.25 3.16402 2.73746 2.39803 4.89179L3.81136 5.3943C4.39527 3.75205 5.77457 2.75 7.23126 2.75V1.25ZM18.6667 11.25C17.3205 11.25 16.0833 9.99234 16.0833 8.25H14.5833C14.5833 10.6498 16.3309 12.75 18.6667 12.75V11.25ZM21.1467 9.09161C20.8184 10.3947 19.7868 11.25 18.6667 11.25V12.75C20.5967 12.75 22.1369 11.3008 22.6013 9.45814L21.1467 9.09161ZM12 11.25C10.6539 11.25 9.41667 9.99234 9.41667 8.25H7.91667C7.91667 10.6498 9.66423 12.75 12 12.75V11.25ZM14.5833 8.25C14.5833 9.99234 13.3461 11.25 12 11.25V12.75C14.3358 12.75 16.0833 10.6498 16.0833 8.25H14.5833ZM5.33333 11.25C4.21318 11.25 3.18164 10.3947 2.85328 9.09162L1.39875 9.45814C1.86308 11.3008 3.4033 12.75 5.33333 12.75V11.25ZM7.91667 8.25C7.91667 9.99234 6.67946 11.25 5.33333 11.25V12.75C7.6691 12.75 9.41667 10.6498 9.41667 8.25H7.91667ZM1.64005 7.02362C1.39831 7.70352 1.17518 8.57089 1.39875 9.45814L2.85328 9.09162C2.74215 8.65059 2.83622 8.13687 3.05337 7.52613L1.64005 7.02362ZM20.9466 7.52613C21.1638 8.13687 21.2579 8.65059 21.1467 9.09161L22.6012 9.45814C22.8248 8.57089 22.6017 7.70352 22.36 7.02362L20.9466 7.52613Z" fill="#28303F"/>
<path d="M15 22V22.75C15.4142 22.75 15.75 22.4142 15.75 22H15ZM9 22H8.25C8.25 22.4142 8.58579 22.75 9 22.75V22ZM14.25 19V22H15.75V19H14.25ZM15 21.25H9V22.75H15V21.25ZM9.75 22V19H8.25V22H9.75ZM12 16.75C13.2426 16.75 14.25 17.7574 14.25 19H15.75C15.75 16.9289 14.0711 15.25 12 15.25V16.75ZM12 15.25C9.92893 15.25 8.25 16.9289 8.25 19H9.75C9.75 17.7574 10.7574 16.75 12 16.75V15.25Z" fill="#28303F"/>
</svg>
