<svg width="24" height="24" viewBox="0 0 24 24" fill="none" xmlns="http://www.w3.org/2000/svg">
<path d="M15.7123 10.0555C15.2241 10.5437 14.4326 10.5437 13.9445 10.0555L12.8838 11.1162C13.9578 12.1901 15.699 12.1901 16.7729 11.1162L15.7123 10.0555ZM13.9445 10.0555C13.4563 9.56736 13.4563 8.7759 13.9445 8.28775L12.8838 7.22709C11.8099 8.30103 11.8099 10.0422 12.8838 11.1162L13.9445 10.0555ZM13.9445 8.28775C14.4326 7.79959 15.2241 7.79959 15.7123 8.28775L16.7729 7.22709C15.699 6.15315 13.9578 6.15315 12.8838 7.22709L13.9445 8.28775ZM15.7123 8.28775C16.2004 8.7759 16.2004 9.56736 15.7123 10.0555L16.7729 11.1162C17.8469 10.0422 17.8469 8.30103 16.7729 7.22709L15.7123 8.28775Z" fill="#28303F"/>
<path d="M16.5402 3.77844L16.4876 4.52659L16.5402 3.77844ZM20.2216 7.45987L20.9698 7.40734H20.9698L20.2216 7.45987ZM2.80762 16.9498L2.27729 17.4801L2.80762 16.9498ZM2.84608 11.2545L3.37641 11.7848L2.84608 11.2545ZM7.05026 21.1924L7.58059 20.6621L7.05026 21.1924ZM20.4999 11.4242L19.7518 11.4767H19.7518L20.4999 11.4242ZM9.41144 4.68911L8.88111 4.15878L9.41144 4.68911ZM12.5759 3.50011L12.6284 2.75196L12.5759 3.50011ZM18.7806 14.0583L12.2152 20.6236L13.2759 21.6843L19.8413 15.1189L18.7806 14.0583ZM7.58059 20.6621L3.33795 16.4195L2.27729 17.4801L6.51993 21.7228L7.58059 20.6621ZM3.37641 11.7848L9.94177 5.21944L8.88111 4.15878L2.31575 10.7241L3.37641 11.7848ZM12.5233 4.24827L16.4876 4.52659L16.5927 3.03028L12.6284 2.75196L12.5233 4.24827ZM19.4734 7.51239L19.7518 11.4767L21.2481 11.3717L20.9698 7.40734L19.4734 7.51239ZM16.4876 4.52659C18.0943 4.63939 19.3606 5.90574 19.4734 7.51239L20.9698 7.40734C20.8046 5.05507 18.945 3.19542 16.5927 3.03028L16.4876 4.52659ZM3.33795 16.4195C2.07547 15.157 2.07919 13.082 3.37641 11.7848L2.31575 10.7241C0.446293 12.5936 0.415566 15.6184 2.27729 17.4801L3.33795 16.4195ZM12.2152 20.6236C10.918 21.9209 8.84306 21.9246 7.58059 20.6621L6.51993 21.7228C8.38165 23.5845 11.4064 23.5537 13.2759 21.6843L12.2152 20.6236ZM19.8413 15.1189C20.8304 14.1298 21.3457 12.7618 21.2481 11.3717L19.7518 11.4767C19.8187 12.4297 19.4653 13.3736 18.7806 14.0583L19.8413 15.1189ZM9.94177 5.21944C10.6265 4.53473 11.5704 4.18137 12.5233 4.24827L12.6284 2.75196C11.2382 2.65436 9.87023 3.16966 8.88111 4.15878L9.94177 5.21944Z" fill="#28303F"/>
</svg>
