<svg width="24" height="24" viewBox="0 0 24 24" fill="none" xmlns="http://www.w3.org/2000/svg">
<path d="M9.39683 2.97607L9.88872 3.54224L9.39683 2.97607ZM14.6032 2.97607L14.1113 3.54224L14.6032 2.97607ZM17.6032 5.58246L18.0951 5.01629L17.6032 5.58246ZM6.39683 5.58246L5.90495 5.01629L6.39683 5.58246ZM18.25 8.66079V17.9456H19.75V8.66079H18.25ZM15 21.25H9V22.75H15V21.25ZM5.75 17.9456V8.66079H4.25V17.9456H5.75ZM6.88872 6.14863L9.88872 3.54224L8.90495 2.4099L5.90495 5.01629L6.88872 6.14863ZM14.1113 3.54224L17.1113 6.14863L18.0951 5.01629L15.0951 2.4099L14.1113 3.54224ZM9.88872 3.54224C11.1046 2.48592 12.8954 2.48592 14.1113 3.54224L15.0951 2.4099C13.315 0.863367 10.685 0.863367 8.90495 2.4099L9.88872 3.54224ZM9 21.25C7.21459 21.25 5.75 19.7802 5.75 17.9456H4.25C4.25 20.5894 6.36713 22.75 9 22.75V21.25ZM18.25 17.9456C18.25 19.7802 16.7854 21.25 15 21.25V22.75C17.6329 22.75 19.75 20.5894 19.75 17.9456H18.25ZM19.75 8.66079C19.75 7.26196 19.1471 5.93027 18.0951 5.01629L17.1113 6.14863C17.8324 6.77518 18.25 7.69246 18.25 8.66079H19.75ZM5.75 8.66079C5.75 7.69246 6.16756 6.77518 6.88872 6.14863L5.90495 5.01629C4.85294 5.93027 4.25 7.26196 4.25 8.66079H5.75Z" fill="#28303F"/>
<path d="M13.25 8C13.25 8.69036 12.6904 9.25 12 9.25V10.75C13.5188 10.75 14.75 9.51878 14.75 8H13.25ZM12 9.25C11.3096 9.25 10.75 8.69036 10.75 8H9.25C9.25 9.51878 10.4812 10.75 12 10.75V9.25ZM10.75 8C10.75 7.30964 11.3096 6.75 12 6.75V5.25C10.4812 5.25 9.25 6.48122 9.25 8H10.75ZM12 6.75C12.6904 6.75 13.25 7.30964 13.25 8H14.75C14.75 6.48122 13.5188 5.25 12 5.25V6.75Z" fill="#28303F"/>
</svg>
