<svg width="24" height="24" viewBox="0 0 24 24" fill="none" xmlns="http://www.w3.org/2000/svg">
<path d="M10 5.75H18V4.25H10V5.75ZM19.25 7V15H20.75V7H19.25ZM18 16.25H10V17.75H18V16.25ZM8.75 15V7H7.25V15H8.75ZM10 16.25C9.30964 16.25 8.75 15.6904 8.75 15H7.25C7.25 16.5188 8.48122 17.75 10 17.75V16.25ZM19.25 15C19.25 15.6904 18.6904 16.25 18 16.25V17.75C19.5188 17.75 20.75 16.5188 20.75 15H19.25ZM18 5.75C18.6904 5.75 19.25 6.30964 19.25 7H20.75C20.75 5.48122 19.5188 4.25 18 4.25V5.75ZM10 4.25C8.48122 4.25 7.25 5.48122 7.25 7H8.75C8.75 6.30964 9.30964 5.75 10 5.75V4.25Z" fill="#28303F"/>
<path d="M6.25 20C6.25 20.6904 5.69036 21.25 5 21.25V22.75C6.51878 22.75 7.75 21.5188 7.75 20H6.25ZM5 21.25C4.30964 21.25 3.75 20.6904 3.75 20H2.25C2.25 21.5188 3.48122 22.75 5 22.75V21.25ZM3.75 20C3.75 19.3096 4.30964 18.75 5 18.75V17.25C3.48122 17.25 2.25 18.4812 2.25 20H3.75ZM5 18.75C5.69036 18.75 6.25 19.3096 6.25 20H7.75C7.75 18.4812 6.51878 17.25 5 17.25V18.75Z" fill="#28303F"/>
<path d="M4.25 18C4.25 18.4142 4.58579 18.75 5 18.75C5.41421 18.75 5.75 18.4142 5.75 18H4.25ZM2 1.25C1.58579 1.25 1.25 1.58579 1.25 2C1.25 2.41421 1.58579 2.75 2 2.75V1.25ZM5.75 18V4H4.25V18H5.75ZM3 1.25H2V2.75H3V1.25ZM5.75 4C5.75 2.48122 4.51878 1.25 3 1.25V2.75C3.69036 2.75 4.25 3.30964 4.25 4H5.75Z" fill="#28303F"/>
<path d="M7 19.25C6.58579 19.25 6.25 19.5858 6.25 20C6.25 20.4142 6.58579 20.75 7 20.75V19.25ZM22 20.75C22.4142 20.75 22.75 20.4142 22.75 20C22.75 19.5858 22.4142 19.25 22 19.25V20.75ZM7 20.75H22V19.25H7V20.75Z" fill="#28303F"/>
<path d="M13 7.25C12.5858 7.25 12.25 7.58579 12.25 8C12.25 8.41421 12.5858 8.75 13 8.75V7.25ZM15 8.75C15.4142 8.75 15.75 8.41421 15.75 8C15.75 7.58579 15.4142 7.25 15 7.25V8.75ZM13 8.75H15V7.25H13V8.75Z" fill="#28303F"/>
</svg>
