<svg width="24" height="24" viewBox="0 0 24 24" fill="none" xmlns="http://www.w3.org/2000/svg">
<path d="M12.4201 15.4052L12.2288 14.68L12.4201 15.4052ZM10.1714 14.1275L9.44777 14.3245L10.1714 14.1275ZM20.812 11.3214L20.0884 11.5184L20.812 11.3214ZM19.5138 13.5345L19.705 14.2597L19.5138 13.5345ZM16.6626 3.06202L16.8539 3.78723L16.6626 3.06202ZM18.9113 4.33975L19.6349 4.14274V4.14274L18.9113 4.33975ZM9.56892 4.93275L9.37767 4.20754L9.56892 4.93275ZM8.27068 7.14585L8.99434 6.94883L8.27068 7.14585ZM5.13534 6.10196L5.859 5.90494L5.13534 6.10196ZM2.88672 4.82422L3.07796 5.54943L2.88672 4.82422ZM1.80875 4.33286C1.40823 4.43848 1.16917 4.84879 1.27479 5.24931C1.38042 5.64983 1.79073 5.88889 2.19125 5.78327L1.80875 4.33286ZM22.1912 16.4102C22.5918 16.3045 22.8308 15.8942 22.7252 15.4937C22.6196 15.0932 22.2093 14.8541 21.8088 14.9597L22.1912 16.4102ZM12.7506 6.12414C12.3501 6.22977 12.111 6.64008 12.2166 7.0406C12.3223 7.44112 12.7326 7.68018 13.1331 7.57455L12.7506 6.12414ZM14.9065 7.10687C15.3071 7.00125 15.5461 6.59094 15.4405 6.19042C15.3349 5.7899 14.9246 5.55084 14.524 5.65646L14.9065 7.10687ZM9.76017 5.65796L16.8539 3.78723L16.4714 2.33681L9.37767 4.20754L9.76017 5.65796ZM18.1876 4.53677L20.0884 11.5184L21.5357 11.1244L19.6349 4.14274L18.1876 4.53677ZM19.3225 12.8093L12.2288 14.68L12.6113 16.1304L19.705 14.2597L19.3225 12.8093ZM10.8951 13.9305L8.99434 6.94883L7.54701 7.34286L9.44777 14.3245L10.8951 13.9305ZM12.2288 14.68C11.6383 14.8358 11.0468 14.4878 10.8951 13.9305L9.44777 14.3245C9.82093 15.6952 11.2429 16.4913 12.6113 16.1304L12.2288 14.68ZM20.0884 11.5184C20.2388 12.071 19.9088 12.6547 19.3225 12.8093L19.705 14.2597C21.0777 13.8977 21.9101 12.4998 21.5357 11.1244L20.0884 11.5184ZM16.8539 3.78723C17.4444 3.6315 18.0359 3.97949 18.1876 4.53677L19.6349 4.14274C19.2618 2.77209 17.8398 1.97596 16.4714 2.33681L16.8539 3.78723ZM9.37767 4.20754C8.00503 4.56953 7.17257 5.96749 7.54701 7.34286L8.99434 6.94883C8.8439 6.39627 9.17393 5.81256 9.76017 5.65796L9.37767 4.20754ZM9.74903 18.9219C9.89947 19.4745 9.56944 20.0582 8.9832 20.2128L9.3657 21.6632C10.7383 21.3012 11.5708 19.9032 11.1964 18.5279L9.74903 18.9219ZM8.9832 20.2128C8.39268 20.3685 7.80121 20.0205 7.64949 19.4632L6.20217 19.8573C6.57533 21.2279 7.99734 22.024 9.3657 21.6632L8.9832 20.2128ZM7.64949 19.4632C7.49905 18.9107 7.82908 18.327 8.41532 18.1724L8.03282 16.7219C6.66018 17.0839 5.82772 18.4819 6.20217 19.8573L7.64949 19.4632ZM8.41532 18.1724C9.00584 18.0166 9.59731 18.3646 9.74903 18.9219L11.1964 18.5279C10.8232 17.1572 9.40118 16.3611 8.03282 16.7219L8.41532 18.1724ZM8.94773 17.2501L5.859 5.90494L4.41168 6.29897L7.50041 17.6442L8.94773 17.2501ZM2.69547 4.09902L1.80875 4.33286L2.19125 5.78327L3.07796 5.54943L2.69547 4.09902ZM5.859 5.90494C5.48584 4.53429 4.06382 3.73816 2.69547 4.09902L3.07796 5.54943C3.66849 5.3937 4.25996 5.74169 4.41168 6.29897L5.859 5.90494ZM10.6639 19.4501L22.1912 16.4102L21.8088 14.9597L10.2814 17.9997L10.6639 19.4501ZM13.1331 7.57455L14.9065 7.10687L14.524 5.65646L12.7506 6.12414L13.1331 7.57455Z" fill="#28303F"/>
</svg>
