<svg width="24" height="24" viewBox="0 0 24 24" fill="none" xmlns="http://www.w3.org/2000/svg">
<path d="M6 3.75H18V2.25H6V3.75ZM21.25 7V17H22.75V7H21.25ZM18 20.25H6V21.75H18V20.25ZM2.75 17V7H1.25V17H2.75ZM6 20.25C4.20507 20.25 2.75 18.7949 2.75 17H1.25C1.25 19.6234 3.37665 21.75 6 21.75V20.25ZM21.25 17C21.25 18.7949 19.7949 20.25 18 20.25V21.75C20.6234 21.75 22.75 19.6234 22.75 17H21.25ZM18 3.75C19.7949 3.75 21.25 5.20507 21.25 7H22.75C22.75 4.37665 20.6234 2.25 18 2.25V3.75ZM6 2.25C3.37665 2.25 1.25 4.37665 1.25 7H2.75C2.75 5.20507 4.20507 3.75 6 3.75V2.25Z" fill="#28303F"/>
<path d="M22 9L22.75 9C22.75 8.80109 22.671 8.61032 22.5303 8.46967C22.3897 8.32902 22.1989 8.25 22 8.25V9ZM22 15V15.75C22.4142 15.75 22.75 15.4142 22.75 15H22ZM18 9V9.75V9ZM18 15V15.75V15ZM21.25 9L21.25 15H22.75L22.75 9L21.25 9ZM22 14.25H18V15.75H22V14.25ZM18 9.75L22 9.75V8.25L18 8.25V9.75ZM15.75 12C15.75 10.7574 16.7574 9.75 18 9.75V8.25C15.9289 8.25 14.25 9.92893 14.25 12H15.75ZM18 14.25C16.7574 14.25 15.75 13.2426 15.75 12H14.25C14.25 14.0711 15.9289 15.75 18 15.75V14.25Z" fill="#28303F"/>
</svg>
