<svg width="24" height="24" viewBox="0 0 24 24" fill="none" xmlns="http://www.w3.org/2000/svg">
<path d="M2 6V5.25C1.58579 5.25 1.25 5.58579 1.25 6H2ZM2 6.75H18V5.25H2V6.75ZM21.25 10V18H22.75V10H21.25ZM18 21.25H6V22.75H18V21.25ZM2.75 18V6H1.25V18H2.75ZM6 21.25C4.20507 21.25 2.75 19.7949 2.75 18H1.25C1.25 20.6234 3.37665 22.75 6 22.75V21.25ZM21.25 18C21.25 19.7949 19.7949 21.25 18 21.25V22.75C20.6234 22.75 22.75 20.6234 22.75 18H21.25ZM18 6.75C19.7949 6.75 21.25 8.20507 21.25 10H22.75C22.75 7.37665 20.6234 5.25 18 5.25V6.75Z" fill="#28303F"/>
<path d="M16 6V6.75C16.4142 6.75 16.75 6.41421 16.75 6H16ZM2 6H1.25C1.25 6.41421 1.58579 6.75 2 6.75V6ZM6 2.75H12V1.25H6V2.75ZM16 5.25H2V6.75H16V5.25ZM12 2.75C13.7949 2.75 15.25 4.20507 15.25 6H16.75C16.75 3.37665 14.6234 1.25 12 1.25V2.75ZM6 1.25C3.37665 1.25 1.25 3.37665 1.25 6H2.75C2.75 4.20507 4.20507 2.75 6 2.75V1.25Z" fill="#28303F"/>
<path d="M22 12L22.75 12C22.75 11.8011 22.671 11.6103 22.5303 11.4697C22.3897 11.329 22.1989 11.25 22 11.25V12ZM22 16V16.75C22.4142 16.75 22.75 16.4142 22.75 16H22ZM18 12V12.75V12ZM18 16V16.75V16ZM21.25 12L21.25 16H22.75L22.75 12L21.25 12ZM22 15.25H18V16.75H22V15.25ZM18 12.75L22 12.75V11.25L18 11.25V12.75ZM16.75 14C16.75 13.3096 17.3096 12.75 18 12.75V11.25C16.4812 11.25 15.25 12.4812 15.25 14H16.75ZM18 15.25C17.3096 15.25 16.75 14.6904 16.75 14H15.25C15.25 15.5188 16.4812 16.75 18 16.75V15.25Z" fill="#28303F"/>
</svg>
