<svg width="24" height="24" viewBox="0 0 24 24" fill="none" xmlns="http://www.w3.org/2000/svg">
<path d="M18 7H18.75C18.75 6.80109 18.671 6.61032 18.5303 6.46967C18.3897 6.32902 18.1989 6.25 18 6.25V7ZM18 11H17.25H18ZM6 7V6.25C5.80109 6.25 5.61032 6.32902 5.46967 6.46967C5.32902 6.61032 5.25 6.80109 5.25 7H6ZM17.25 7L17.25 11H18.75L18.75 7H17.25ZM17.25 11V19H18.75V11H17.25ZM16 20.25H8V21.75H16V20.25ZM6.75 19V7H5.25V19H6.75ZM6 7.75L18 7.75V6.25L6 6.25V7.75ZM6 3.75H18V2.25H6V3.75ZM2.75 7C2.75 5.20508 4.20507 3.75 6 3.75V2.25C3.37665 2.25 1.25 4.37665 1.25 7H2.75ZM6 10.25C4.20507 10.25 2.75 8.79493 2.75 7H1.25C1.25 9.62335 3.37665 11.75 6 11.75V10.25ZM21.25 7C21.25 8.79493 19.7949 10.25 18 10.25V11.75C20.6234 11.75 22.75 9.62335 22.75 7H21.25ZM22.75 7C22.75 4.37665 20.6234 2.25 18 2.25V3.75C19.7949 3.75 21.25 5.20508 21.25 7H22.75ZM17.25 19C17.25 19.6904 16.6904 20.25 16 20.25V21.75C17.5188 21.75 18.75 20.5188 18.75 19H17.25ZM8 20.25C7.30964 20.25 6.75 19.6904 6.75 19H5.25C5.25 20.5188 6.48122 21.75 8 21.75V20.25Z" fill="#28303F"/>
<path d="M14.5303 15.5303C14.8232 15.2374 14.8232 14.7626 14.5303 14.4697C14.2374 14.1768 13.7626 14.1768 13.4697 14.4697L14.5303 15.5303ZM11.2929 16.2929L11.8232 15.7626L11.2929 16.2929ZM10.5303 14.4697C10.2374 14.1768 9.76256 14.1768 9.46967 14.4697C9.17678 14.7626 9.17678 15.2374 9.46967 15.5303L10.5303 14.4697ZM12.75 11C12.75 10.5858 12.4142 10.25 12 10.25C11.5858 10.25 11.25 10.5858 11.25 11H12.75ZM11.25 16C11.25 16.4142 11.5858 16.75 12 16.75C12.4142 16.75 12.75 16.4142 12.75 16H11.25ZM13.4697 14.4697L12.1768 15.7626L13.2374 16.8232L14.5303 15.5303L13.4697 14.4697ZM11.8232 15.7626L10.5303 14.4697L9.46967 15.5303L10.7626 16.8232L11.8232 15.7626ZM12.1768 15.7626C12.0791 15.8602 11.9209 15.8602 11.8232 15.7626L10.7626 16.8232C11.446 17.5066 12.554 17.5066 13.2374 16.8232L12.1768 15.7626ZM11.25 11V16H12.75V11H11.25Z" fill="#28303F"/>
</svg>
