<svg width="24" height="24" viewBox="0 0 24 24" fill="none" xmlns="http://www.w3.org/2000/svg">
<path d="M12.975 11.8937C12.6792 12.1837 12.6745 12.6585 12.9644 12.9543C13.2544 13.2501 13.7292 13.2548 14.025 12.9649L12.975 11.8937ZM15.4386 11.2486L15.6726 11.9612L15.4386 11.2486ZM16.1064 3L16.8364 3.17191C16.8944 2.92588 16.8245 2.66722 16.6505 2.48384C16.4766 2.30047 16.222 2.21704 15.9732 2.26192L16.1064 3ZM21.9733 7.40055L22.7193 7.32349C22.6933 7.07154 22.5419 6.84975 22.3167 6.73378C22.0915 6.61781 21.823 6.62334 21.6028 6.74848L21.9733 7.40055ZM12.0058 7.67641L11.6834 8.35356L12.0058 7.67641ZM19.9468 11.9602L19.5043 12.5658L19.9468 11.9602ZM9 20.25C5.54822 20.25 2.75 17.4518 2.75 14H1.25C1.25 18.2802 4.71979 21.75 9 21.75V20.25ZM2.75 14C2.75 10.5482 5.54822 7.75 9 7.75V6.25C4.71979 6.25 1.25 9.71979 1.25 14H2.75ZM21.25 16C21.25 18.3472 19.3472 20.25 17 20.25V21.75C20.1756 21.75 22.75 19.1756 22.75 16H21.25ZM14.025 12.9649C14.4856 12.5134 15.0475 12.1665 15.6726 11.9612L15.2045 10.5361C14.3565 10.8146 13.5965 11.2844 12.975 11.8937L14.025 12.9649ZM15.6726 11.9612C16.0893 11.8243 16.5352 11.75 17 11.75V10.25C16.3743 10.25 15.7704 10.3502 15.2045 10.5361L15.6726 11.9612ZM17 20.25H9V21.75H17V20.25ZM20 7.17038C18.2051 7.17038 16.75 5.7153 16.75 3.92038H15.25C15.25 6.54373 17.3766 8.67038 20 8.67038V7.17038ZM16.75 3.92038C16.75 3.66194 16.78 3.41147 16.8364 3.17191L15.3764 2.82809C15.2936 3.17952 15.25 3.54534 15.25 3.92038H16.75ZM21.6028 6.74848C21.1305 7.01685 20.5843 7.17038 20 7.17038V8.67038C20.8509 8.67038 21.6516 8.44599 22.3438 8.05263L21.6028 6.74848ZM21.2273 7.47761C21.2423 7.62293 21.25 7.77063 21.25 7.92038H22.75C22.75 7.71906 22.7396 7.51992 22.7193 7.32349L21.2273 7.47761ZM12.755 7.7124C12.8507 5.71917 14.3216 4.08413 16.2396 3.73808L15.9732 2.26192C13.3767 2.73039 11.3864 4.94029 11.2567 7.64042L12.755 7.7124ZM9 7.75C9.96199 7.75 10.8712 7.96682 11.6834 8.35356L12.3283 6.99926C11.319 6.51863 10.1898 6.25 9 6.25V7.75ZM11.6834 8.35356C13.0541 9.00625 14.1502 10.144 14.749 11.5437L16.1281 10.9536C15.3852 9.2174 14.0276 7.80844 12.3283 6.99926L11.6834 8.35356ZM21.25 7.92038C21.25 9.33049 20.564 10.5803 19.5043 11.3546L20.3892 12.5658C21.8189 11.5212 22.75 9.82946 22.75 7.92038H21.25ZM17 11.75C17.9375 11.75 18.802 12.0526 19.5043 12.5658L20.3892 11.3546C19.4388 10.6601 18.2662 10.25 17 10.25V11.75ZM19.5043 12.5658C20.564 13.3401 21.25 14.5899 21.25 16H22.75C22.75 14.0909 21.8189 12.3992 20.3892 11.3546L19.5043 12.5658Z" fill="#28303F"/>
</svg>
