<svg width="24" height="24" viewBox="0 0 24 24" fill="none" xmlns="http://www.w3.org/2000/svg">
<path d="M15.4386 8.24864L15.6726 8.96119L15.4386 8.24864ZM12.4559 4.91117L12.0851 5.56309L12.4559 4.91117ZM21.0004 10L20.4007 10.4504L21.0004 10ZM21.0556 14.2753C20.9314 14.6704 21.1512 15.0914 21.5464 15.2155C21.9415 15.3397 22.3625 15.1199 22.4866 14.7247L21.0556 14.2753ZM2.28727 14.8755C2.49468 15.2341 2.95347 15.3566 3.31202 15.1492C3.67057 14.9418 3.79309 14.483 3.58568 14.1245L2.28727 14.8755ZM12 18L12.5108 17.4509C12.2229 17.183 11.7771 17.183 11.4892 17.4509L12 18ZM17 15L17.5108 14.4509C17.2229 14.183 16.7771 14.183 16.4892 14.4509L17 15ZM7 15L7.51084 14.4509C7.22294 14.183 6.77706 14.183 6.48916 14.4509L7 15ZM2.75 11C2.75 7.54822 5.54822 4.75 9 4.75V3.25C4.71979 3.25 1.25 6.71979 1.25 11H2.75ZM14.025 9.96486C14.4856 9.51339 15.0475 9.16647 15.6726 8.96119L15.2045 7.53608C14.3565 7.8146 13.5965 8.28445 12.975 8.89371L14.025 9.96486ZM15.6726 8.96119C16.0893 8.82433 16.5352 8.75 17 8.75V7.25C16.3743 7.25 15.7704 7.35023 15.2045 7.53608L15.6726 8.96119ZM17 2.75C19.3472 2.75 21.25 4.65279 21.25 7H22.75C22.75 3.82436 20.1756 1.25 17 1.25V2.75ZM13.1371 5.22485C13.8104 3.76259 15.2877 2.75 17 2.75V1.25C14.6807 1.25 12.6837 2.62311 11.7746 4.5975L13.1371 5.22485ZM9 4.75C10.1234 4.75 11.1755 5.04574 12.0851 5.56309L12.8267 4.25926C11.6971 3.61673 10.3902 3.25 9 3.25V4.75ZM12.0851 5.56309C13.268 6.23595 14.21 7.28387 14.749 8.54367L16.1281 7.9536C15.4593 6.39046 14.2922 5.09286 12.8267 4.25926L12.0851 5.56309ZM21.25 7C21.25 7.95763 20.9342 8.83933 20.4007 9.54957L21.6 10.4504C22.3219 9.48935 22.75 8.29358 22.75 7H21.25ZM17 8.75C18.39 8.75 19.624 9.41646 20.4007 10.4504L21.6 9.54957C20.5523 8.15464 18.8817 7.25 17 7.25V8.75ZM20.4007 10.4504C20.9342 11.1607 21.25 12.0424 21.25 13H22.75C22.75 11.7064 22.3219 10.5106 21.6 9.54957L20.4007 10.4504ZM21.25 13C21.25 13.4455 21.1817 13.8736 21.0556 14.2753L22.4866 14.7247C22.6579 14.1793 22.75 13.5997 22.75 13H21.25ZM3.58568 14.1245C3.05434 13.2059 2.75 12.1396 2.75 11H1.25C1.25 12.4104 1.62742 13.7349 2.28727 14.8755L3.58568 14.1245ZM12.75 20.5C12.75 20.8946 12.636 21.0393 12.5675 21.0992C12.4803 21.1753 12.308 21.25 12 21.25V22.75C12.5204 22.75 13.0982 22.627 13.5538 22.2293C14.0282 21.8152 14.25 21.2099 14.25 20.5H12.75ZM12 21.25C11.692 21.25 11.5197 21.1753 11.4325 21.0992C11.364 21.0393 11.25 20.8946 11.25 20.5H9.75C9.75 21.2099 9.97183 21.8152 10.4462 22.2293C10.9018 22.627 11.4796 22.75 12 22.75V21.25ZM11.25 20.5C11.25 20.3838 11.2927 20.2077 11.4075 19.9742C11.5187 19.7478 11.675 19.5132 11.8442 19.2934C12.0118 19.0758 12.1812 18.8868 12.3095 18.7518C12.3732 18.6847 12.4257 18.632 12.4613 18.597C12.4791 18.5795 12.4926 18.5665 12.5011 18.5584C12.5053 18.5543 12.5083 18.5515 12.51 18.5499C12.5108 18.5491 12.5113 18.5487 12.5115 18.5485C12.5115 18.5485 12.5115 18.5485 12.5114 18.5486C12.5114 18.5486 12.5113 18.5487 12.5112 18.5488C12.5112 18.5488 12.5111 18.5489 12.511 18.5489C12.5109 18.549 12.5108 18.5491 12 18C11.4892 17.4509 11.489 17.451 11.4889 17.4511C11.4889 17.4511 11.4888 17.4512 11.4887 17.4513C11.4885 17.4515 11.4883 17.4517 11.488 17.4519C11.4876 17.4524 11.487 17.4529 11.4864 17.4535C11.4851 17.4547 11.4834 17.4563 11.4814 17.4582C11.4774 17.4619 11.4719 17.4671 11.4652 17.4735C11.4518 17.4864 11.433 17.5044 11.4098 17.5272C11.3634 17.5728 11.2987 17.6378 11.2218 17.7188C11.0688 17.88 10.8632 18.1088 10.6558 18.3782C10.45 18.6453 10.2313 18.9667 10.0613 19.3126C9.89476 19.6514 9.75 20.0639 9.75 20.5H11.25ZM12 18C11.4892 18.5491 11.4891 18.549 11.489 18.5489C11.4889 18.5489 11.4888 18.5488 11.4888 18.5488C11.4887 18.5487 11.4886 18.5486 11.4886 18.5486C11.4885 18.5485 11.4885 18.5485 11.4885 18.5485C11.4887 18.5487 11.4892 18.5491 11.49 18.5499C11.4917 18.5515 11.4947 18.5543 11.4989 18.5584C11.5074 18.5665 11.5209 18.5795 11.5387 18.597C11.5743 18.632 11.6268 18.6847 11.6905 18.7518C11.8188 18.8868 11.9882 19.0758 12.1558 19.2934C12.325 19.5132 12.4813 19.7478 12.5925 19.9742C12.7073 20.2077 12.75 20.3838 12.75 20.5H14.25C14.25 20.0639 14.1052 19.6514 13.9387 19.3126C13.7687 18.9667 13.55 18.6453 13.3442 18.3782C13.1368 18.1088 12.9312 17.88 12.7782 17.7188C12.7013 17.6378 12.6366 17.5728 12.5902 17.5272C12.567 17.5044 12.5482 17.4864 12.5348 17.4735C12.5281 17.4671 12.5226 17.4619 12.5186 17.4582C12.5166 17.4563 12.5149 17.4547 12.5136 17.4535C12.513 17.4529 12.5124 17.4524 12.512 17.4519C12.5117 17.4517 12.5115 17.4515 12.5113 17.4513C12.5112 17.4512 12.5111 17.4511 12.5111 17.4511C12.511 17.451 12.5108 17.4509 12 18ZM17.75 17.5C17.75 17.8946 17.636 18.0393 17.5675 18.0992C17.4803 18.1753 17.308 18.25 17 18.25V19.75C17.5204 19.75 18.0982 19.627 18.5538 19.2293C19.0282 18.8152 19.25 18.2099 19.25 17.5H17.75ZM17 18.25C16.692 18.25 16.5197 18.1753 16.4325 18.0992C16.364 18.0393 16.25 17.8946 16.25 17.5H14.75C14.75 18.2099 14.9718 18.8152 15.4462 19.2293C15.9018 19.627 16.4796 19.75 17 19.75V18.25ZM16.25 17.5C16.25 17.3838 16.2927 17.2077 16.4075 16.9742C16.5187 16.7478 16.675 16.5132 16.8442 16.2934C17.0118 16.0758 17.1812 15.8868 17.3095 15.7518C17.3732 15.6847 17.4257 15.632 17.4613 15.597C17.4791 15.5795 17.4926 15.5665 17.5011 15.5584C17.5053 15.5543 17.5083 15.5515 17.51 15.5499C17.5108 15.5491 17.5113 15.5487 17.5115 15.5485C17.5115 15.5485 17.5115 15.5485 17.5114 15.5486C17.5114 15.5486 17.5113 15.5487 17.5112 15.5488C17.5112 15.5488 17.5111 15.5489 17.511 15.5489C17.5109 15.549 17.5108 15.5491 17 15C16.4892 14.4509 16.489 14.451 16.4889 14.4511C16.4889 14.4511 16.4888 14.4512 16.4887 14.4513C16.4885 14.4515 16.4883 14.4517 16.488 14.4519C16.4876 14.4524 16.487 14.4529 16.4864 14.4535C16.4851 14.4547 16.4834 14.4563 16.4814 14.4582C16.4774 14.4619 16.4719 14.4671 16.4652 14.4735C16.4518 14.4864 16.433 14.5044 16.4098 14.5272C16.3634 14.5728 16.2987 14.6378 16.2218 14.7188C16.0688 14.88 15.8632 15.1088 15.6558 15.3782C15.45 15.6453 15.2313 15.9667 15.0613 16.3126C14.8948 16.6514 14.75 17.0639 14.75 17.5H16.25ZM17 15C16.4892 15.5491 16.4891 15.549 16.489 15.5489C16.4889 15.5489 16.4888 15.5488 16.4888 15.5488C16.4887 15.5487 16.4886 15.5486 16.4886 15.5486C16.4885 15.5485 16.4885 15.5485 16.4885 15.5485C16.4887 15.5487 16.4892 15.5491 16.49 15.5499C16.4917 15.5515 16.4947 15.5543 16.4989 15.5584C16.5074 15.5665 16.5209 15.5795 16.5387 15.597C16.5743 15.632 16.6268 15.6847 16.6905 15.7518C16.8188 15.8868 16.9882 16.0758 17.1558 16.2934C17.325 16.5132 17.4813 16.7478 17.5925 16.9742C17.7073 17.2077 17.75 17.3838 17.75 17.5H19.25C19.25 17.0639 19.1052 16.6514 18.9387 16.3126C18.7687 15.9667 18.55 15.6453 18.3442 15.3782C18.1368 15.1088 17.9312 14.88 17.7782 14.7188C17.7013 14.6378 17.6366 14.5728 17.5902 14.5272C17.567 14.5044 17.5482 14.4864 17.5348 14.4735C17.5281 14.4671 17.5226 14.4619 17.5186 14.4582C17.5166 14.4563 17.5149 14.4547 17.5136 14.4535C17.513 14.4529 17.5124 14.4524 17.512 14.4519C17.5117 14.4517 17.5115 14.4515 17.5113 14.4513C17.5112 14.4512 17.5111 14.4511 17.5111 14.4511C17.511 14.451 17.5108 14.4509 17 15ZM7.75 17.5C7.75 17.8946 7.63605 18.0393 7.56747 18.0992C7.48027 18.1753 7.30803 18.25 7 18.25V19.75C7.5204 19.75 8.09816 19.627 8.55385 19.2293C9.02817 18.8152 9.25 18.2099 9.25 17.5H7.75ZM7 18.25C6.69197 18.25 6.51973 18.1753 6.43253 18.0992C6.36395 18.0393 6.25 17.8946 6.25 17.5H4.75C4.75 18.2099 4.97183 18.8152 5.44615 19.2293C5.90184 19.627 6.4796 19.75 7 19.75V18.25ZM6.25 17.5C6.25 17.3838 6.29274 17.2077 6.40749 16.9742C6.51875 16.7478 6.67496 16.5132 6.84421 16.2934C7.0118 16.0758 7.18124 15.8868 7.30947 15.7518C7.37317 15.6847 7.42565 15.632 7.46128 15.597C7.47907 15.5795 7.49258 15.5665 7.50109 15.5584C7.50535 15.5543 7.50835 15.5515 7.51001 15.5499C7.51083 15.5491 7.51133 15.5487 7.51147 15.5485C7.51154 15.5485 7.51153 15.5485 7.51142 15.5486C7.51137 15.5486 7.5113 15.5487 7.5112 15.5488C7.51115 15.5488 7.51106 15.5489 7.51104 15.5489C7.51094 15.549 7.51084 15.5491 7 15C6.48916 14.4509 6.48904 14.451 6.48893 14.4511C6.48888 14.4511 6.48876 14.4512 6.48866 14.4513C6.48848 14.4515 6.48827 14.4517 6.48803 14.4519C6.48756 14.4524 6.48701 14.4529 6.48636 14.4535C6.48506 14.4547 6.4834 14.4563 6.48139 14.4582C6.47737 14.4619 6.47195 14.4671 6.46522 14.4735C6.45176 14.4864 6.43304 14.5044 6.40981 14.5272C6.36341 14.5728 6.29871 14.6378 6.22178 14.7188C6.06876 14.88 5.8632 15.1088 5.65579 15.3782C5.45004 15.6453 5.23125 15.9667 5.06126 16.3126C4.89476 16.6514 4.75 17.0639 4.75 17.5H6.25ZM7 15C6.48916 15.5491 6.48906 15.549 6.48896 15.5489C6.48894 15.5489 6.48885 15.5488 6.4888 15.5488C6.4887 15.5487 6.48863 15.5486 6.48858 15.5486C6.48847 15.5485 6.48846 15.5485 6.48853 15.5485C6.48867 15.5487 6.48917 15.5491 6.48999 15.5499C6.49165 15.5515 6.49465 15.5543 6.49891 15.5584C6.50742 15.5665 6.52093 15.5795 6.53872 15.597C6.57435 15.632 6.62683 15.6847 6.69053 15.7518C6.81876 15.8868 6.9882 16.0758 7.15579 16.2934C7.32504 16.5132 7.48125 16.7478 7.59251 16.9742C7.70726 17.2077 7.75 17.3838 7.75 17.5H9.25C9.25 17.0639 9.10524 16.6514 8.93874 16.3126C8.76875 15.9667 8.54996 15.6453 8.34421 15.3782C8.1368 15.1088 7.93124 14.88 7.77822 14.7188C7.70129 14.6378 7.63659 14.5728 7.59019 14.5272C7.56696 14.5044 7.54824 14.4864 7.53478 14.4735C7.52805 14.4671 7.52263 14.4619 7.51861 14.4582C7.5166 14.4563 7.51494 14.4547 7.51364 14.4535C7.51299 14.4529 7.51244 14.4524 7.51197 14.4519C7.51173 14.4517 7.51152 14.4515 7.51134 14.4513C7.51124 14.4512 7.51112 14.4511 7.51107 14.4511C7.51096 14.451 7.51084 14.4509 7 15Z" fill="#28303F"/>
</svg>
