<svg width="24" height="24" viewBox="0 0 24 24" fill="none" xmlns="http://www.w3.org/2000/svg">
<path d="M10.6798 13.7256C10.3814 14.0129 10.3724 14.4877 10.6597 14.7861C10.947 15.0844 11.4218 15.0934 11.7202 14.8061L10.6798 13.7256ZM12.2798 7.80615C12.5782 8.09344 13.053 8.08444 13.3403 7.78605C13.6276 7.48767 13.6186 7.01288 13.3202 6.72558L12.2798 7.80615ZM16.4933 13.9993L16.0306 14.5895L16.4933 13.9993ZM7.6 20.25C4.90862 20.25 2.75 18.1107 2.75 15.5H1.25C1.25 18.9645 4.10579 21.75 7.6 21.75V20.25ZM17.25 17.0714C17.25 18.8142 15.8077 20.25 14 20.25V21.75C16.6106 21.75 18.75 19.668 18.75 17.0714H17.25ZM11.7202 14.8061C12.0719 14.4675 12.5019 14.2066 12.9811 14.052L12.5206 12.6244C11.8214 12.85 11.1937 13.2308 10.6798 13.7256L11.7202 14.8061ZM12.9811 14.052C13.3005 13.949 13.6428 13.8929 14 13.8929V12.3929C13.4848 12.3929 12.9872 12.4739 12.5206 12.6244L12.9811 14.052ZM7.6 10.75C9.60843 10.75 11.3255 11.9442 12.0633 13.6378L13.4384 13.0387C12.4659 10.8064 10.2143 9.25 7.6 9.25V10.75ZM14 20.25H7.6V21.75H14V20.25ZM22.75 8.5C22.75 5.03554 19.8942 2.25 16.4 2.25V3.75C19.0914 3.75 21.25 5.88933 21.25 8.5H22.75ZM10 5.39286C7.38945 5.39286 5.25 7.47484 5.25 10.0714H6.75C6.75 8.32863 8.19228 6.89286 10 6.89286V5.39286ZM13.3202 6.72558C12.8063 6.23076 12.1786 5.84997 11.4794 5.62443L11.0189 7.052C11.4981 7.20659 11.9281 7.46755 12.2798 7.80615L13.3202 6.72558ZM11.4794 5.62443C11.0128 5.47391 10.5152 5.39286 10 5.39286V6.89286C10.3572 6.89286 10.6995 6.94896 11.0189 7.052L11.4794 5.62443ZM16.4 2.25C13.7857 2.25 11.5341 3.80643 10.5616 6.03866L11.9367 6.63777C12.6745 4.94423 14.3916 3.75 16.4 3.75V2.25ZM16.5053 14.7492C19.9514 14.6939 22.75 11.9295 22.75 8.5H21.25C21.25 11.0844 19.1347 13.2068 16.4813 13.2493L16.5053 14.7492ZM14 13.8929C14.7704 13.8929 15.4751 14.1541 16.0306 14.5895L16.956 13.409C16.144 12.7724 15.1153 12.3929 14 12.3929V13.8929ZM16.0306 14.5895C16.7778 15.1752 17.25 16.0709 17.25 17.0714H18.75C18.75 15.5846 18.0454 14.263 16.956 13.409L16.0306 14.5895ZM5.25 10.0714C5.25 10.1334 5.25123 10.1951 5.25366 10.2566L6.75249 10.1972C6.75083 10.1555 6.75 10.1136 6.75 10.0714H5.25ZM2.75 15.5C2.75 13.3575 4.20193 11.5335 6.21308 10.9469L5.79306 9.50687C3.17468 10.2706 1.25 12.6573 1.25 15.5H2.75ZM6.21308 10.9469C6.65154 10.819 7.11686 10.75 7.6 10.75V9.25C6.97343 9.25 6.36673 9.33954 5.79306 9.50687L6.21308 10.9469Z" fill="#28303F"/>
</svg>
