<svg width="24" height="24" viewBox="0 0 24 24" fill="none" xmlns="http://www.w3.org/2000/svg">
<path d="M16 18L16.5108 17.4509C16.2229 17.183 15.7771 17.183 15.4892 17.4509L16 18ZM9 12H9.75C9.75 11.6842 9.55222 11.4023 9.25532 11.2948C8.95841 11.1873 8.62598 11.2773 8.42383 11.5199L9 12ZM4 18L3.42383 17.5199C3.23753 17.7434 3.19737 18.0546 3.32081 18.3181C3.44424 18.5817 3.70899 18.75 4 18.75V18ZM7 18H7.75C7.75 17.5858 7.41421 17.25 7 17.25V18ZM7 22H6.25C6.25 22.3158 6.44778 22.5977 6.74468 22.7052C7.04159 22.8127 7.37402 22.7227 7.57617 22.4801L7 22ZM12 16L12.5762 16.4801C12.7625 16.2566 12.8026 15.9454 12.6792 15.6819C12.5558 15.4183 12.291 15.25 12 15.25V16ZM9 16H8.25C8.25 16.4142 8.58579 16.75 9 16.75V16ZM12.975 8.89371C12.6792 9.18368 12.6745 9.65853 12.9644 9.95432C13.2544 10.2501 13.7292 10.2548 14.025 9.96486L12.975 8.89371ZM15.4386 8.24864L15.6726 8.96119L15.4386 8.24864ZM12.4559 4.91117L12.0851 5.56309L12.4559 4.91117ZM21.0004 10L20.4007 10.4504L21.0004 10ZM19.5496 16.4007C19.2184 16.6495 19.1516 17.1196 19.4003 17.4508C19.6491 17.782 20.1192 17.8488 20.4504 17.6L19.5496 16.4007ZM1.99619 14.3218C2.17392 14.696 2.62131 14.8552 2.99545 14.6774C3.36959 14.4997 3.52881 14.0523 3.35108 13.6782L1.99619 14.3218ZM16.75 20.5C16.75 20.8946 16.636 21.0393 16.5675 21.0992C16.4803 21.1753 16.308 21.25 16 21.25V22.75C16.5204 22.75 17.0982 22.627 17.5538 22.2293C18.0282 21.8152 18.25 21.2099 18.25 20.5H16.75ZM16 21.25C15.692 21.25 15.5197 21.1753 15.4325 21.0992C15.364 21.0393 15.25 20.8946 15.25 20.5H13.75C13.75 21.2099 13.9718 21.8152 14.4462 22.2293C14.9018 22.627 15.4796 22.75 16 22.75V21.25ZM15.25 20.5C15.25 20.3838 15.2927 20.2077 15.4075 19.9742C15.5187 19.7478 15.675 19.5132 15.8442 19.2934C16.0118 19.0758 16.1812 18.8868 16.3095 18.7518C16.3732 18.6847 16.4257 18.632 16.4613 18.597C16.4791 18.5795 16.4926 18.5665 16.5011 18.5584C16.5053 18.5543 16.5083 18.5515 16.51 18.5499C16.5108 18.5491 16.5113 18.5487 16.5115 18.5485C16.5115 18.5485 16.5115 18.5485 16.5114 18.5486C16.5114 18.5486 16.5113 18.5487 16.5112 18.5488C16.5112 18.5488 16.5111 18.5489 16.511 18.5489C16.5109 18.549 16.5108 18.5491 16 18C15.4892 17.4509 15.489 17.451 15.4889 17.4511C15.4889 17.4511 15.4888 17.4512 15.4887 17.4513C15.4885 17.4515 15.4883 17.4517 15.488 17.4519C15.4876 17.4524 15.487 17.4529 15.4864 17.4535C15.4851 17.4547 15.4834 17.4563 15.4814 17.4582C15.4774 17.4619 15.4719 17.4671 15.4652 17.4735C15.4518 17.4864 15.433 17.5044 15.4098 17.5272C15.3634 17.5728 15.2987 17.6378 15.2218 17.7188C15.0688 17.88 14.8632 18.1088 14.6558 18.3782C14.45 18.6453 14.2313 18.9667 14.0613 19.3126C13.8948 19.6514 13.75 20.0639 13.75 20.5H15.25ZM16 18C15.4892 18.5491 15.4891 18.549 15.489 18.5489C15.4889 18.5489 15.4888 18.5488 15.4888 18.5488C15.4887 18.5487 15.4886 18.5486 15.4886 18.5486C15.4885 18.5485 15.4885 18.5485 15.4885 18.5485C15.4887 18.5487 15.4892 18.5491 15.49 18.5499C15.4917 18.5515 15.4947 18.5543 15.4989 18.5584C15.5074 18.5665 15.5209 18.5795 15.5387 18.597C15.5743 18.632 15.6268 18.6847 15.6905 18.7518C15.8188 18.8868 15.9882 19.0758 16.1558 19.2934C16.325 19.5132 16.4813 19.7478 16.5925 19.9742C16.7073 20.2077 16.75 20.3838 16.75 20.5H18.25C18.25 20.0639 18.1052 19.6514 17.9387 19.3126C17.7687 18.9667 17.55 18.6453 17.3442 18.3782C17.1368 18.1088 16.9312 17.88 16.7782 17.7188C16.7013 17.6378 16.6366 17.5728 16.5902 17.5272C16.567 17.5044 16.5482 17.4864 16.5348 17.4735C16.5281 17.4671 16.5226 17.4619 16.5186 17.4582C16.5166 17.4563 16.5149 17.4547 16.5136 17.4535C16.513 17.4529 16.5124 17.4524 16.512 17.4519C16.5117 17.4517 16.5115 17.4515 16.5113 17.4513C16.5112 17.4512 16.5111 17.4511 16.5111 17.4511C16.511 17.451 16.5108 17.4509 16 18ZM8.42383 11.5199L3.42383 17.5199L4.57617 18.4801L9.57617 12.4801L8.42383 11.5199ZM4 18.75H7V17.25H4V18.75ZM6.25 18V22H7.75V18H6.25ZM7.57617 22.4801L12.5762 16.4801L11.4238 15.5199L6.42383 21.5199L7.57617 22.4801ZM12 15.25H9V16.75H12V15.25ZM9.75 16V12H8.25V16H9.75ZM2.75 11C2.75 7.54822 5.54822 4.75 9 4.75V3.25C4.71979 3.25 1.25 6.71979 1.25 11H2.75ZM14.025 9.96486C14.4856 9.51339 15.0475 9.16647 15.6726 8.96119L15.2045 7.53608C14.3565 7.8146 13.5965 8.28445 12.975 8.89371L14.025 9.96486ZM15.6726 8.96119C16.0893 8.82433 16.5352 8.75 17 8.75V7.25C16.3743 7.25 15.7704 7.35023 15.2045 7.53608L15.6726 8.96119ZM17 2.75C19.3472 2.75 21.25 4.65279 21.25 7H22.75C22.75 3.82436 20.1756 1.25 17 1.25V2.75ZM13.1371 5.22485C13.8104 3.76259 15.2877 2.75 17 2.75V1.25C14.6807 1.25 12.6837 2.62311 11.7746 4.5975L13.1371 5.22485ZM9 4.75C10.1234 4.75 11.1755 5.04574 12.0851 5.56309L12.8267 4.25926C11.6971 3.61673 10.3902 3.25 9 3.25V4.75ZM12.0851 5.56309C13.268 6.23595 14.21 7.28387 14.749 8.54367L16.1281 7.9536C15.4593 6.39046 14.2922 5.09286 12.8267 4.25926L12.0851 5.56309ZM21.25 7C21.25 7.95763 20.9342 8.83933 20.4007 9.54957L21.6 10.4504C22.3219 9.48935 22.75 8.29358 22.75 7H21.25ZM17 8.75C18.39 8.75 19.624 9.41646 20.4007 10.4504L21.6 9.54957C20.5523 8.15464 18.8817 7.25 17 7.25V8.75ZM20.4007 10.4504C20.9342 11.1607 21.25 12.0424 21.25 13H22.75C22.75 11.7064 22.3219 10.5106 21.6 9.54957L20.4007 10.4504ZM21.25 13C21.25 14.39 20.5835 15.624 19.5496 16.4007L20.4504 17.6C21.8454 16.5523 22.75 14.8817 22.75 13H21.25ZM3.35108 13.6782C2.9659 12.8674 2.75 11.9599 2.75 11H1.25C1.25 12.1873 1.51749 13.3141 1.99619 14.3218L3.35108 13.6782Z" fill="#28303F"/>
</svg>
