<svg width="24" height="24" viewBox="0 0 24 24" fill="none" xmlns="http://www.w3.org/2000/svg">
<path d="M12 18L12.5108 17.4509C12.2229 17.183 11.7771 17.183 11.4892 17.4509L12 18ZM15.4386 10.2486L15.6726 10.9612L15.4386 10.2486ZM15.75 2C15.75 1.58579 15.4142 1.25 15 1.25C14.5858 1.25 14.25 1.58579 14.25 2H15.75ZM14.25 3C14.25 3.41421 14.5858 3.75 15 3.75C15.4142 3.75 15.75 3.41421 15.75 3H14.25ZM20.4801 4.58058C20.773 4.28768 20.773 3.81281 20.4801 3.51992C20.1872 3.22702 19.7123 3.22702 19.4194 3.51992L20.4801 4.58058ZM18.7123 4.22702C18.4194 4.51992 18.4194 4.99479 18.7123 5.28768C19.0052 5.58058 19.4801 5.58058 19.773 5.28768L18.7123 4.22702ZM22 9.75C22.4142 9.75 22.75 9.41421 22.75 9C22.75 8.58579 22.4142 8.25 22 8.25V9.75ZM21 8.25C20.5858 8.25 20.25 8.58579 20.25 9C20.25 9.41421 20.5858 9.75 21 9.75V8.25ZM21.165 15.8508C21.0826 16.2567 21.3448 16.6526 21.7508 16.735C22.1567 16.8174 22.5526 16.5551 22.635 16.1492L21.165 15.8508ZM1.99619 16.3218C2.17392 16.696 2.62131 16.8552 2.99545 16.6774C3.36959 16.4997 3.52881 16.0523 3.35108 15.6782L1.99619 16.3218ZM17.5 16L18.0108 15.4509C17.7229 15.183 17.2771 15.183 16.9892 15.4509L17.5 16ZM6.5 16L7.01084 15.4509C6.72294 15.183 6.27706 15.183 5.98916 15.4509L6.5 16ZM12.75 20.5C12.75 20.8946 12.636 21.0393 12.5675 21.0992C12.4803 21.1753 12.308 21.25 12 21.25V22.75C12.5204 22.75 13.0982 22.627 13.5538 22.2293C14.0282 21.8152 14.25 21.2099 14.25 20.5H12.75ZM12 21.25C11.692 21.25 11.5197 21.1753 11.4325 21.0992C11.364 21.0393 11.25 20.8946 11.25 20.5H9.75C9.75 21.2099 9.97183 21.8152 10.4462 22.2293C10.9018 22.627 11.4796 22.75 12 22.75V21.25ZM11.25 20.5C11.25 20.3838 11.2927 20.2077 11.4075 19.9742C11.5187 19.7478 11.675 19.5132 11.8442 19.2934C12.0118 19.0758 12.1812 18.8868 12.3095 18.7518C12.3732 18.6847 12.4257 18.632 12.4613 18.597C12.4791 18.5795 12.4926 18.5665 12.5011 18.5584C12.5053 18.5543 12.5083 18.5515 12.51 18.5499C12.5108 18.5491 12.5113 18.5487 12.5115 18.5485C12.5115 18.5485 12.5115 18.5485 12.5114 18.5486C12.5114 18.5486 12.5113 18.5487 12.5112 18.5488C12.5112 18.5488 12.5111 18.5489 12.511 18.5489C12.5109 18.549 12.5108 18.5491 12 18C11.4892 17.4509 11.489 17.451 11.4889 17.4511C11.4889 17.4511 11.4888 17.4512 11.4887 17.4513C11.4885 17.4515 11.4883 17.4517 11.488 17.4519C11.4876 17.4524 11.487 17.4529 11.4864 17.4535C11.4851 17.4547 11.4834 17.4563 11.4814 17.4582C11.4774 17.4619 11.4719 17.4671 11.4652 17.4735C11.4518 17.4864 11.433 17.5044 11.4098 17.5272C11.3634 17.5728 11.2987 17.6378 11.2218 17.7188C11.0688 17.88 10.8632 18.1088 10.6558 18.3782C10.45 18.6453 10.2313 18.9667 10.0613 19.3126C9.89476 19.6514 9.75 20.0639 9.75 20.5H11.25ZM12 18C11.4892 18.5491 11.4891 18.549 11.489 18.5489C11.4889 18.5489 11.4888 18.5488 11.4888 18.5488C11.4887 18.5487 11.4886 18.5486 11.4886 18.5486C11.4885 18.5485 11.4885 18.5485 11.4885 18.5485C11.4887 18.5487 11.4892 18.5491 11.49 18.5499C11.4917 18.5515 11.4947 18.5543 11.4989 18.5584C11.5074 18.5665 11.5209 18.5795 11.5387 18.597C11.5743 18.632 11.6268 18.6847 11.6905 18.7518C11.8188 18.8868 11.9882 19.0758 12.1558 19.2934C12.325 19.5132 12.4813 19.7478 12.5925 19.9742C12.7073 20.2077 12.75 20.3838 12.75 20.5H14.25C14.25 20.0639 14.1052 19.6514 13.9387 19.3126C13.7687 18.9667 13.55 18.6453 13.3442 18.3782C13.1368 18.1088 12.9312 17.88 12.7782 17.7188C12.7013 17.6378 12.6366 17.5728 12.5902 17.5272C12.567 17.5044 12.5482 17.4864 12.5348 17.4735C12.5281 17.4671 12.5226 17.4619 12.5186 17.4582C12.5166 17.4563 12.5149 17.4547 12.5136 17.4535C12.513 17.4529 12.5124 17.4524 12.512 17.4519C12.5117 17.4517 12.5115 17.4515 12.5113 17.4513C12.5112 17.4512 12.5111 17.4511 12.5111 17.4511C12.511 17.451 12.5108 17.4509 12 18ZM2.75 13C2.75 9.54822 5.54822 6.75 9 6.75V5.25C4.71979 5.25 1.25 8.71979 1.25 13H2.75ZM14.025 11.9649C14.4856 11.5134 15.0475 11.1665 15.6726 10.9612L15.2045 9.53608C14.3565 9.8146 13.5965 10.2845 12.975 10.8937L14.025 11.9649ZM15.6726 10.9612C16.0893 10.8243 16.5352 10.75 17 10.75V9.25C16.3743 9.25 15.7704 9.35023 15.2045 9.53608L15.6726 10.9612ZM15 5.75C16.7949 5.75 18.25 7.20507 18.25 9H19.75C19.75 6.37665 17.6234 4.25 15 4.25V5.75ZM18.25 9C18.25 9.37849 18.1856 9.74033 18.0678 10.0762L19.4833 10.5727C19.6563 10.0795 19.75 9.54988 19.75 9H18.25ZM17 10.75C17.5329 10.75 18.0412 10.8477 18.5091 11.0255L19.0419 9.62333C18.4064 9.38185 17.7177 9.25 17 9.25V10.75ZM18.5091 11.0255C20.1125 11.6347 21.25 13.1855 21.25 15H22.75C22.75 12.5423 21.2084 10.4465 19.0419 9.62333L18.5091 11.0255ZM12.4075 7.03963C13.0022 6.25471 13.942 5.75 15 5.75V4.25C13.4526 4.25 12.078 4.99073 11.2119 6.13381L12.4075 7.03963ZM9 6.75C9.89363 6.75 10.7416 6.93709 11.5084 7.27353L12.1111 5.89991C11.1579 5.48171 10.105 5.25 9 5.25V6.75ZM11.5084 7.27353C12.9605 7.91062 14.1248 9.0848 14.749 10.5437L16.1281 9.9536C15.3539 8.14418 13.9119 6.69 12.1111 5.89991L11.5084 7.27353ZM14.25 2V3H15.75V2H14.25ZM19.4194 3.51992L18.7123 4.22702L19.773 5.28768L20.4801 4.58058L19.4194 3.51992ZM22 8.25H21V9.75H22V8.25ZM21.25 15C21.25 15.2921 21.2206 15.5765 21.165 15.8508L22.635 16.1492C22.7105 15.7773 22.75 15.3929 22.75 15H21.25ZM3.35108 15.6782C2.9659 14.8674 2.75 13.9599 2.75 13H1.25C1.25 14.1873 1.51749 15.3141 1.99619 16.3218L3.35108 15.6782ZM18.25 18.5C18.25 18.8946 18.136 19.0393 18.0675 19.0992C17.9803 19.1753 17.808 19.25 17.5 19.25V20.75C18.0204 20.75 18.5982 20.627 19.0538 20.2293C19.5282 19.8152 19.75 19.2099 19.75 18.5H18.25ZM17.5 19.25C17.192 19.25 17.0197 19.1753 16.9325 19.0992C16.864 19.0393 16.75 18.8946 16.75 18.5H15.25C15.25 19.2099 15.4718 19.8152 15.9462 20.2293C16.4018 20.627 16.9796 20.75 17.5 20.75V19.25ZM16.75 18.5C16.75 18.3838 16.7927 18.2077 16.9075 17.9742C17.0187 17.7478 17.175 17.5132 17.3442 17.2934C17.5118 17.0758 17.6812 16.8868 17.8095 16.7518C17.8732 16.6847 17.9257 16.632 17.9613 16.597C17.9791 16.5795 17.9926 16.5665 18.0011 16.5584C18.0053 16.5543 18.0083 16.5515 18.01 16.5499C18.0108 16.5491 18.0113 16.5487 18.0115 16.5485C18.0115 16.5485 18.0115 16.5485 18.0114 16.5486C18.0114 16.5486 18.0113 16.5487 18.0112 16.5488C18.0112 16.5488 18.0111 16.5489 18.011 16.5489C18.0109 16.549 18.0108 16.5491 17.5 16C16.9892 15.4509 16.989 15.451 16.9889 15.4511C16.9889 15.4511 16.9888 15.4512 16.9887 15.4513C16.9885 15.4515 16.9883 15.4517 16.988 15.4519C16.9876 15.4524 16.987 15.4529 16.9864 15.4535C16.9851 15.4547 16.9834 15.4563 16.9814 15.4582C16.9774 15.4619 16.9719 15.4671 16.9652 15.4735C16.9518 15.4864 16.933 15.5044 16.9098 15.5272C16.8634 15.5728 16.7987 15.6378 16.7218 15.7188C16.5688 15.88 16.3632 16.1088 16.1558 16.3782C15.95 16.6453 15.7313 16.9667 15.5613 17.3126C15.3948 17.6514 15.25 18.0639 15.25 18.5H16.75ZM17.5 16C16.9892 16.5491 16.9891 16.549 16.989 16.5489C16.9889 16.5489 16.9888 16.5488 16.9888 16.5488C16.9887 16.5487 16.9886 16.5486 16.9886 16.5486C16.9885 16.5485 16.9885 16.5485 16.9885 16.5485C16.9887 16.5487 16.9892 16.5491 16.99 16.5499C16.9917 16.5515 16.9947 16.5543 16.9989 16.5584C17.0074 16.5665 17.0209 16.5795 17.0387 16.597C17.0743 16.632 17.1268 16.6847 17.1905 16.7518C17.3188 16.8868 17.4882 17.0758 17.6558 17.2934C17.825 17.5132 17.9813 17.7478 18.0925 17.9742C18.2073 18.2077 18.25 18.3838 18.25 18.5H19.75C19.75 18.0639 19.6052 17.6514 19.4387 17.3126C19.2687 16.9667 19.05 16.6453 18.8442 16.3782C18.6368 16.1088 18.4312 15.88 18.2782 15.7188C18.2013 15.6378 18.1366 15.5728 18.0902 15.5272C18.067 15.5044 18.0482 15.4864 18.0348 15.4735C18.0281 15.4671 18.0226 15.4619 18.0186 15.4582C18.0166 15.4563 18.0149 15.4547 18.0136 15.4535C18.013 15.4529 18.0124 15.4524 18.012 15.4519C18.0117 15.4517 18.0115 15.4515 18.0113 15.4513C18.0112 15.4512 18.0111 15.4511 18.0111 15.4511C18.011 15.451 18.0108 15.4509 17.5 16ZM7.25 18.5C7.25 18.8946 7.13605 19.0393 7.06747 19.0992C6.98027 19.1753 6.80803 19.25 6.5 19.25V20.75C7.0204 20.75 7.59816 20.627 8.05385 20.2293C8.52817 19.8152 8.75 19.2099 8.75 18.5H7.25ZM6.5 19.25C6.19197 19.25 6.01973 19.1753 5.93253 19.0992C5.86395 19.0393 5.75 18.8946 5.75 18.5H4.25C4.25 19.2099 4.47183 19.8152 4.94615 20.2293C5.40184 20.627 5.9796 20.75 6.5 20.75V19.25ZM5.75 18.5C5.75 18.3838 5.79274 18.2077 5.90749 17.9742C6.01875 17.7478 6.17496 17.5132 6.34421 17.2934C6.5118 17.0758 6.68124 16.8868 6.80947 16.7518C6.87317 16.6847 6.92565 16.632 6.96128 16.597C6.97907 16.5795 6.99258 16.5665 7.00109 16.5584C7.00535 16.5543 7.00835 16.5515 7.01001 16.5499C7.01083 16.5491 7.01133 16.5487 7.01147 16.5485C7.01154 16.5485 7.01153 16.5485 7.01142 16.5486C7.01137 16.5486 7.0113 16.5487 7.0112 16.5488C7.01115 16.5488 7.01106 16.5489 7.01104 16.5489C7.01094 16.549 7.01084 16.5491 6.5 16C5.98916 15.4509 5.98904 15.451 5.98893 15.4511C5.98888 15.4511 5.98876 15.4512 5.98866 15.4513C5.98848 15.4515 5.98826 15.4517 5.98803 15.4519C5.98756 15.4524 5.98701 15.4529 5.98636 15.4535C5.98506 15.4547 5.9834 15.4563 5.98139 15.4582C5.97737 15.4619 5.97195 15.4671 5.96522 15.4735C5.95176 15.4864 5.93304 15.5044 5.90981 15.5272C5.86341 15.5728 5.79871 15.6378 5.72178 15.7188C5.56876 15.88 5.3632 16.1088 5.15579 16.3782C4.95004 16.6453 4.73125 16.9667 4.56126 17.3126C4.39476 17.6514 4.25 18.0639 4.25 18.5H5.75ZM6.5 16C5.98916 16.5491 5.98906 16.549 5.98896 16.5489C5.98894 16.5489 5.98885 16.5488 5.9888 16.5488C5.9887 16.5487 5.98863 16.5486 5.98858 16.5486C5.98847 16.5485 5.98846 16.5485 5.98853 16.5485C5.98867 16.5487 5.98917 16.5491 5.98999 16.5499C5.99165 16.5515 5.99465 16.5543 5.99891 16.5584C6.00742 16.5665 6.02093 16.5795 6.03872 16.597C6.07435 16.632 6.12683 16.6847 6.19053 16.7518C6.31876 16.8868 6.4882 17.0758 6.65579 17.2934C6.82504 17.5132 6.98125 17.7478 7.09251 17.9742C7.20726 18.2077 7.25 18.3838 7.25 18.5H8.75C8.75 18.0639 8.60524 17.6514 8.43874 17.3126C8.26875 16.9667 8.04996 16.6453 7.84421 16.3782C7.6368 16.1088 7.43124 15.88 7.27822 15.7188C7.20129 15.6378 7.13659 15.5728 7.09019 15.5272C7.06696 15.5044 7.04824 15.4864 7.03478 15.4735C7.02805 15.4671 7.02263 15.4619 7.01861 15.4582C7.0166 15.4563 7.01494 15.4547 7.01364 15.4535C7.01299 15.4529 7.01244 15.4524 7.01197 15.4519C7.01173 15.4517 7.01152 15.4515 7.01134 15.4513C7.01124 15.4512 7.01112 15.4511 7.01107 15.4511C7.01096 15.451 7.01084 15.4509 6.5 16Z" fill="#28303F"/>
</svg>
