<svg width="24" height="24" viewBox="0 0 24 24" fill="none" xmlns="http://www.w3.org/2000/svg">
<path d="M16 17L16.5108 16.4509C16.2229 16.183 15.7771 16.183 15.4892 16.4509L16 17ZM12.975 7.89371C12.6792 8.18368 12.6745 8.65853 12.9644 8.95432C13.2544 9.25011 13.7292 9.25483 14.025 8.96486L12.975 7.89371ZM15.4386 7.24864L15.6726 7.96119L15.4386 7.24864ZM19.1245 15.6819C18.7659 15.8893 18.6434 16.3481 18.8508 16.7066C19.0582 17.0652 19.517 17.1877 19.8755 16.9803L19.1245 15.6819ZM1.99619 13.3218C2.17392 13.696 2.62131 13.8552 2.99545 13.6774C3.36959 13.4997 3.52881 13.0523 3.35108 12.6782L1.99619 13.3218ZM9 11H9.75C9.75 10.6842 9.55222 10.4023 9.25532 10.2948C8.95841 10.1873 8.62598 10.2773 8.42383 10.5199L9 11ZM4 17L3.42383 16.5199C3.23753 16.7434 3.19737 17.0546 3.32081 17.3181C3.44424 17.5817 3.70899 17.75 4 17.75V17ZM7 17H7.75C7.75 16.5858 7.41421 16.25 7 16.25V17ZM7 21H6.25C6.25 21.3158 6.44778 21.5977 6.74468 21.7052C7.04159 21.8127 7.37402 21.7227 7.57617 21.4801L7 21ZM12 15L12.5762 15.4801C12.7625 15.2566 12.8026 14.9454 12.6792 14.6819C12.5558 14.4183 12.291 14.25 12 14.25V15ZM9 15H8.25C8.25 15.4142 8.58579 15.75 9 15.75V15ZM16.75 19.5C16.75 19.8946 16.636 20.0393 16.5675 20.0992C16.4803 20.1753 16.308 20.25 16 20.25V21.75C16.5204 21.75 17.0982 21.627 17.5538 21.2293C18.0282 20.8152 18.25 20.2099 18.25 19.5H16.75ZM16 20.25C15.692 20.25 15.5197 20.1753 15.4325 20.0992C15.364 20.0393 15.25 19.8946 15.25 19.5H13.75C13.75 20.2099 13.9718 20.8152 14.4462 21.2293C14.9018 21.627 15.4796 21.75 16 21.75V20.25ZM15.25 19.5C15.25 19.3838 15.2927 19.2077 15.4075 18.9742C15.5187 18.7478 15.675 18.5132 15.8442 18.2934C16.0118 18.0758 16.1812 17.8868 16.3095 17.7518C16.3732 17.6847 16.4257 17.632 16.4613 17.597C16.4791 17.5795 16.4926 17.5665 16.5011 17.5584C16.5053 17.5543 16.5083 17.5515 16.51 17.5499C16.5108 17.5491 16.5113 17.5487 16.5115 17.5485C16.5115 17.5485 16.5115 17.5485 16.5114 17.5486C16.5114 17.5486 16.5113 17.5487 16.5112 17.5488C16.5112 17.5488 16.5111 17.5489 16.511 17.5489C16.5109 17.549 16.5108 17.5491 16 17C15.4892 16.4509 15.489 16.451 15.4889 16.4511C15.4889 16.4511 15.4888 16.4512 15.4887 16.4513C15.4885 16.4515 15.4883 16.4517 15.488 16.4519C15.4876 16.4524 15.487 16.4529 15.4864 16.4535C15.4851 16.4547 15.4834 16.4563 15.4814 16.4582C15.4774 16.4619 15.4719 16.4671 15.4652 16.4735C15.4518 16.4864 15.433 16.5044 15.4098 16.5272C15.3634 16.5728 15.2987 16.6378 15.2218 16.7188C15.0688 16.88 14.8632 17.1088 14.6558 17.3782C14.45 17.6453 14.2313 17.9667 14.0613 18.3126C13.8948 18.6514 13.75 19.0639 13.75 19.5H15.25ZM16 17C15.4892 17.5491 15.4891 17.549 15.489 17.5489C15.4889 17.5489 15.4888 17.5488 15.4888 17.5488C15.4887 17.5487 15.4886 17.5486 15.4886 17.5486C15.4885 17.5485 15.4885 17.5485 15.4885 17.5485C15.4887 17.5487 15.4892 17.5491 15.49 17.5499C15.4917 17.5515 15.4947 17.5543 15.4989 17.5584C15.5074 17.5665 15.5209 17.5795 15.5387 17.597C15.5743 17.632 15.6268 17.6847 15.6905 17.7518C15.8188 17.8868 15.9882 18.0758 16.1558 18.2934C16.325 18.5132 16.4813 18.7478 16.5925 18.9742C16.7073 19.2077 16.75 19.3838 16.75 19.5H18.25C18.25 19.0639 18.1052 18.6514 17.9387 18.3126C17.7687 17.9667 17.55 17.6453 17.3442 17.3782C17.1368 17.1088 16.9312 16.88 16.7782 16.7188C16.7013 16.6378 16.6366 16.5728 16.5902 16.5272C16.567 16.5044 16.5482 16.4864 16.5348 16.4735C16.5281 16.4671 16.5226 16.4619 16.5186 16.4582C16.5166 16.4563 16.5149 16.4547 16.5136 16.4535C16.513 16.4529 16.5124 16.4524 16.512 16.4519C16.5117 16.4517 16.5115 16.4515 16.5113 16.4513C16.5112 16.4512 16.5111 16.4511 16.5111 16.4511C16.511 16.451 16.5108 16.4509 16 17ZM2.75 10C2.75 6.54822 5.54822 3.75 9 3.75V2.25C4.71979 2.25 1.25 5.71979 1.25 10H2.75ZM17 7.75C19.3472 7.75 21.25 9.65279 21.25 12H22.75C22.75 8.82436 20.1756 6.25 17 6.25V7.75ZM14.025 8.96486C14.4856 8.51339 15.0475 8.16647 15.6726 7.96119L15.2045 6.53608C14.3565 6.8146 13.5965 7.28445 12.975 7.89371L14.025 8.96486ZM15.6726 7.96119C16.0893 7.82433 16.5352 7.75 17 7.75V6.25C16.3743 6.25 15.7704 6.35023 15.2045 6.53608L15.6726 7.96119ZM9 3.75C11.5785 3.75 13.794 5.3116 14.749 7.54367L16.1281 6.9536C14.9453 4.18924 12.2 2.25 9 2.25V3.75ZM21.25 12C21.25 13.5722 20.3967 14.9459 19.1245 15.6819L19.8755 16.9803C21.5923 15.9872 22.75 14.1293 22.75 12H21.25ZM3.35108 12.6782C2.9659 11.8674 2.75 10.9599 2.75 10H1.25C1.25 11.1873 1.51749 12.3141 1.99619 13.3218L3.35108 12.6782ZM8.42383 10.5199L3.42383 16.5199L4.57617 17.4801L9.57617 11.4801L8.42383 10.5199ZM4 17.75H7V16.25H4V17.75ZM6.25 17V21H7.75V17H6.25ZM7.57617 21.4801L12.5762 15.4801L11.4238 14.5199L6.42383 20.5199L7.57617 21.4801ZM12 14.25H9V15.75H12V14.25ZM9.75 15V11H8.25V15H9.75Z" fill="#28303F"/>
</svg>
