<svg width="24" height="24" viewBox="0 0 24 24" fill="none" xmlns="http://www.w3.org/2000/svg">
<path d="M15.5 18L16.0108 17.4509C15.7229 17.183 15.2771 17.183 14.9892 17.4509L15.5 18ZM8.5 18L9.01084 17.4509C8.72294 17.183 8.27706 17.183 7.98916 17.4509L8.5 18ZM12.975 10.8937C12.6792 11.1837 12.6745 11.6585 12.9644 11.9543C13.2544 12.2501 13.7292 12.2548 14.025 11.9649L12.975 10.8937ZM15.4386 10.2486L15.6726 10.9612L15.4386 10.2486ZM15.75 2C15.75 1.58579 15.4142 1.25 15 1.25C14.5858 1.25 14.25 1.58579 14.25 2H15.75ZM14.25 3C14.25 3.41421 14.5858 3.75 15 3.75C15.4142 3.75 15.75 3.41421 15.75 3H14.25ZM20.4801 4.58058C20.773 4.28768 20.773 3.81281 20.4801 3.51992C20.1872 3.22702 19.7123 3.22702 19.4194 3.51992L20.4801 4.58058ZM18.7123 4.22702C18.4194 4.51992 18.4194 4.99479 18.7123 5.28768C19.0052 5.58058 19.4801 5.58058 19.773 5.28768L18.7123 4.22702ZM22 9.75C22.4142 9.75 22.75 9.41421 22.75 9C22.75 8.58579 22.4142 8.25 22 8.25V9.75ZM21 8.25C20.5858 8.25 20.25 8.58579 20.25 9C20.25 9.41421 20.5858 9.75 21 9.75V8.25ZM19.55 18.4004C19.2188 18.6492 19.1521 19.1193 19.4009 19.4505C19.6497 19.7817 20.1198 19.8484 20.451 19.5996L19.55 18.4004ZM4.10532 19.009C4.42633 19.2708 4.89877 19.2227 5.16054 18.9017C5.42231 18.5807 5.37428 18.1083 5.05327 17.8465L4.10532 19.009ZM16.25 20.5C16.25 20.8946 16.136 21.0393 16.0675 21.0992C15.9803 21.1753 15.808 21.25 15.5 21.25V22.75C16.0204 22.75 16.5982 22.627 17.0538 22.2293C17.5282 21.8152 17.75 21.2099 17.75 20.5H16.25ZM15.5 21.25C15.192 21.25 15.0197 21.1753 14.9325 21.0992C14.864 21.0393 14.75 20.8946 14.75 20.5H13.25C13.25 21.2099 13.4718 21.8152 13.9462 22.2293C14.4018 22.627 14.9796 22.75 15.5 22.75V21.25ZM14.75 20.5C14.75 20.3838 14.7927 20.2077 14.9075 19.9742C15.0187 19.7478 15.175 19.5132 15.3442 19.2934C15.5118 19.0758 15.6812 18.8868 15.8095 18.7518C15.8732 18.6847 15.9257 18.632 15.9613 18.597C15.9791 18.5795 15.9926 18.5665 16.0011 18.5584C16.0053 18.5543 16.0083 18.5515 16.01 18.5499C16.0108 18.5491 16.0113 18.5487 16.0115 18.5485C16.0115 18.5485 16.0115 18.5485 16.0114 18.5486C16.0114 18.5486 16.0113 18.5487 16.0112 18.5488C16.0112 18.5488 16.0111 18.5489 16.011 18.5489C16.0109 18.549 16.0108 18.5491 15.5 18C14.9892 17.4509 14.989 17.451 14.9889 17.4511C14.9889 17.4511 14.9888 17.4512 14.9887 17.4513C14.9885 17.4515 14.9883 17.4517 14.988 17.4519C14.9876 17.4524 14.987 17.4529 14.9864 17.4535C14.9851 17.4547 14.9834 17.4563 14.9814 17.4582C14.9774 17.4619 14.9719 17.4671 14.9652 17.4735C14.9518 17.4864 14.933 17.5044 14.9098 17.5272C14.8634 17.5728 14.7987 17.6378 14.7218 17.7188C14.5688 17.88 14.3632 18.1088 14.1558 18.3782C13.95 18.6453 13.7313 18.9667 13.5613 19.3126C13.3948 19.6514 13.25 20.0639 13.25 20.5H14.75ZM15.5 18C14.9892 18.5491 14.9891 18.549 14.989 18.5489C14.9889 18.5489 14.9888 18.5488 14.9888 18.5488C14.9887 18.5487 14.9886 18.5486 14.9886 18.5486C14.9885 18.5485 14.9885 18.5485 14.9885 18.5485C14.9887 18.5487 14.9892 18.5491 14.99 18.5499C14.9917 18.5515 14.9947 18.5543 14.9989 18.5584C15.0074 18.5665 15.0209 18.5795 15.0387 18.597C15.0743 18.632 15.1268 18.6847 15.1905 18.7518C15.3188 18.8868 15.4882 19.0758 15.6558 19.2934C15.825 19.5132 15.9813 19.7478 16.0925 19.9742C16.2073 20.2077 16.25 20.3838 16.25 20.5H17.75C17.75 20.0639 17.6052 19.6514 17.4387 19.3126C17.2687 18.9667 17.05 18.6453 16.8442 18.3782C16.6368 18.1088 16.4312 17.88 16.2782 17.7188C16.2013 17.6378 16.1366 17.5728 16.0902 17.5272C16.067 17.5044 16.0482 17.4864 16.0348 17.4735C16.0281 17.4671 16.0226 17.4619 16.0186 17.4582C16.0166 17.4563 16.0149 17.4547 16.0136 17.4535C16.013 17.4529 16.0124 17.4524 16.012 17.4519C16.0117 17.4517 16.0115 17.4515 16.0113 17.4513C16.0112 17.4512 16.0111 17.4511 16.0111 17.4511C16.011 17.451 16.0108 17.4509 15.5 18ZM9.25 20.5C9.25 20.8946 9.13605 21.0393 9.06747 21.0992C8.98027 21.1753 8.80803 21.25 8.5 21.25V22.75C9.0204 22.75 9.59816 22.627 10.0538 22.2293C10.5282 21.8152 10.75 21.2099 10.75 20.5H9.25ZM8.5 21.25C8.19197 21.25 8.01973 21.1753 7.93253 21.0992C7.86395 21.0393 7.75 20.8946 7.75 20.5H6.25C6.25 21.2099 6.47183 21.8152 6.94615 22.2293C7.40184 22.627 7.9796 22.75 8.5 22.75V21.25ZM7.75 20.5C7.75 20.3838 7.79274 20.2077 7.90749 19.9742C8.01875 19.7478 8.17496 19.5132 8.34421 19.2934C8.5118 19.0758 8.68124 18.8868 8.80947 18.7518C8.87317 18.6847 8.92565 18.632 8.96128 18.597C8.97907 18.5795 8.99258 18.5665 9.00109 18.5584C9.00535 18.5543 9.00835 18.5515 9.01001 18.5499C9.01083 18.5491 9.01133 18.5487 9.01147 18.5485C9.01154 18.5485 9.01153 18.5485 9.01142 18.5486C9.01137 18.5486 9.0113 18.5487 9.0112 18.5488C9.01115 18.5488 9.01106 18.5489 9.01104 18.5489C9.01094 18.549 9.01084 18.5491 8.5 18C7.98916 17.4509 7.98904 17.451 7.98893 17.4511C7.98888 17.4511 7.98876 17.4512 7.98866 17.4513C7.98848 17.4515 7.98827 17.4517 7.98803 17.4519C7.98756 17.4524 7.98701 17.4529 7.98636 17.4535C7.98506 17.4547 7.9834 17.4563 7.98139 17.4582C7.97737 17.4619 7.97195 17.4671 7.96522 17.4735C7.95176 17.4864 7.93304 17.5044 7.90981 17.5272C7.86341 17.5728 7.79871 17.6378 7.72178 17.7188C7.56876 17.88 7.3632 18.1088 7.15579 18.3782C6.95004 18.6453 6.73125 18.9667 6.56126 19.3126C6.39476 19.6514 6.25 20.0639 6.25 20.5H7.75ZM8.5 18C7.98916 18.5491 7.98906 18.549 7.98896 18.5489C7.98894 18.5489 7.98885 18.5488 7.9888 18.5488C7.9887 18.5487 7.98863 18.5486 7.98858 18.5486C7.98847 18.5485 7.98846 18.5485 7.98853 18.5485C7.98867 18.5487 7.98917 18.5491 7.98999 18.5499C7.99165 18.5515 7.99465 18.5543 7.99891 18.5584C8.00742 18.5665 8.02093 18.5795 8.03872 18.597C8.07435 18.632 8.12683 18.6847 8.19053 18.7518C8.31876 18.8868 8.4882 19.0758 8.65579 19.2934C8.82504 19.5132 8.98125 19.7478 9.09251 19.9742C9.20726 20.2077 9.25 20.3838 9.25 20.5H10.75C10.75 20.0639 10.6052 19.6514 10.4387 19.3126C10.2687 18.9667 10.05 18.6453 9.84421 18.3782C9.6368 18.1088 9.43124 17.88 9.27822 17.7188C9.20129 17.6378 9.13659 17.5728 9.09019 17.5272C9.06696 17.5044 9.04824 17.4864 9.03478 17.4735C9.02805 17.4671 9.02263 17.4619 9.01861 17.4582C9.0166 17.4563 9.01494 17.4547 9.01364 17.4535C9.01299 17.4529 9.01244 17.4524 9.01197 17.4519C9.01173 17.4517 9.01152 17.4515 9.01134 17.4513C9.01124 17.4512 9.01112 17.4511 9.01107 17.4511C9.01096 17.451 9.01084 17.4509 8.5 18ZM2.75 13C2.75 9.54822 5.54822 6.75 9 6.75V5.25C4.71979 5.25 1.25 8.71979 1.25 13H2.75ZM14.025 11.9649C14.4856 11.5134 15.0475 11.1665 15.6726 10.9612L15.2045 9.53608C14.3565 9.8146 13.5965 10.2845 12.975 10.8937L14.025 11.9649ZM15.6726 10.9612C16.0893 10.8243 16.5352 10.75 17 10.75V9.25C16.3743 9.25 15.7704 9.35023 15.2045 9.53608L15.6726 10.9612ZM15 5.75C16.7949 5.75 18.25 7.20507 18.25 9H19.75C19.75 6.37665 17.6234 4.25 15 4.25V5.75ZM18.25 9C18.25 9.37849 18.1856 9.74033 18.0678 10.0762L19.4833 10.5727C19.6563 10.0795 19.75 9.54988 19.75 9H18.25ZM17 10.75C17.5329 10.75 18.0412 10.8477 18.5091 11.0255L19.0419 9.62333C18.4064 9.38185 17.7177 9.25 17 9.25V10.75ZM18.5091 11.0255C20.1125 11.6347 21.25 13.1855 21.25 15H22.75C22.75 12.5423 21.2084 10.4465 19.0419 9.62333L18.5091 11.0255ZM12.4075 7.03963C13.0022 6.25471 13.942 5.75 15 5.75V4.25C13.4526 4.25 12.078 4.99073 11.2119 6.13381L12.4075 7.03963ZM9 6.75C9.89363 6.75 10.7416 6.93709 11.5084 7.27353L12.1111 5.89991C11.1579 5.48171 10.105 5.25 9 5.25V6.75ZM11.5084 7.27353C12.9605 7.91062 14.1248 9.0848 14.749 10.5437L16.1281 9.9536C15.3539 8.14418 13.9119 6.69 12.1111 5.89991L11.5084 7.27353ZM14.25 2V3H15.75V2H14.25ZM19.4194 3.51992L18.7123 4.22702L19.773 5.28768L20.4801 4.58058L19.4194 3.51992ZM22 8.25H21V9.75H22V8.25ZM21.25 15C21.25 16.3898 20.5837 17.6237 19.55 18.4004L20.451 19.5996C21.8456 18.5518 22.75 16.8814 22.75 15H21.25ZM5.05327 17.8465C3.64635 16.6992 2.75 14.9546 2.75 13H1.25C1.25 15.4244 2.36406 17.5891 4.10532 19.009L5.05327 17.8465Z" fill="#28303F"/>
</svg>
