<svg width="24" height="24" viewBox="0 0 24 24" fill="none" xmlns="http://www.w3.org/2000/svg">
<path d="M17 19.25C16.5858 19.25 16.25 19.5858 16.25 20C16.25 20.4142 16.5858 20.75 17 20.75V19.25ZM15.4386 10.2486L14.749 10.5437C14.902 10.9013 15.3031 11.0826 15.6726 10.9612L15.4386 10.2486ZM5.67818 20.0038C6.05232 20.1816 6.49971 20.0223 6.67745 19.6482C6.85518 19.274 6.69596 18.8267 6.32182 18.6489L5.67818 20.0038ZM13 12H13.75C13.75 11.6842 13.5522 11.4023 13.2553 11.2948C12.9584 11.1873 12.626 11.2773 12.4238 11.5199L13 12ZM8 18L7.42383 17.5199C7.23753 17.7434 7.19737 18.0546 7.32081 18.3181C7.44424 18.5817 7.70899 18.75 8 18.75V18ZM11 18H11.75C11.75 17.5858 11.4142 17.25 11 17.25V18ZM11 22H10.25C10.25 22.3158 10.4478 22.5977 10.7447 22.7052C11.0416 22.8127 11.374 22.7227 11.5762 22.4801L11 22ZM16 16L16.5762 16.4801C16.7625 16.2566 16.8026 15.9454 16.6792 15.6819C16.5558 15.4183 16.291 15.25 16 15.25V16ZM13 16H12.25C12.25 16.4142 12.5858 16.75 13 16.75V16ZM15.75 2C15.75 1.58579 15.4142 1.25 15 1.25C14.5858 1.25 14.25 1.58579 14.25 2H15.75ZM14.25 3C14.25 3.41421 14.5858 3.75 15 3.75C15.4142 3.75 15.75 3.41421 15.75 3H14.25ZM20.4801 4.58056C20.773 4.28767 20.773 3.8128 20.4801 3.5199C20.1872 3.22701 19.7123 3.22701 19.4194 3.5199L20.4801 4.58056ZM18.7123 4.22701C18.4194 4.5199 18.4194 4.99478 18.7123 5.28767C19.0052 5.58056 19.4801 5.58056 19.773 5.28767L18.7123 4.22701ZM22 9.75C22.4142 9.75 22.75 9.41421 22.75 9C22.75 8.58579 22.4142 8.25 22 8.25V9.75ZM21 8.25C20.5858 8.25 20.25 8.58579 20.25 9C20.25 9.41421 20.5858 9.75 21 9.75V8.25ZM2.75 13C2.75 9.54822 5.54822 6.75 9 6.75V5.25C4.71979 5.25 1.25 8.71979 1.25 13H2.75ZM21.25 15C21.25 17.3472 19.3472 19.25 17 19.25V20.75C20.1756 20.75 22.75 18.1756 22.75 15H21.25ZM15.6726 10.9612C16.0893 10.8243 16.5352 10.75 17 10.75V9.25C16.3743 9.25 15.7704 9.35023 15.2045 9.53608L15.6726 10.9612ZM15 5.75C16.7949 5.75 18.25 7.20507 18.25 9H19.75C19.75 6.37665 17.6234 4.25 15 4.25V5.75ZM18.25 9C18.25 9.37849 18.1856 9.74033 18.0678 10.0762L19.4833 10.5727C19.6563 10.0795 19.75 9.54988 19.75 9H18.25ZM17 10.75C17.5329 10.75 18.0412 10.8477 18.5091 11.0255L19.0419 9.62333C18.4064 9.38185 17.7177 9.25 17 9.25V10.75ZM18.5091 11.0255C20.1125 11.6347 21.25 13.1855 21.25 15H22.75C22.75 12.5423 21.2084 10.4465 19.0419 9.62333L18.5091 11.0255ZM12.4075 7.03963C13.0022 6.25471 13.942 5.75 15 5.75V4.25C13.4526 4.25 12.078 4.99073 11.2119 6.13381L12.4075 7.03963ZM9 6.75C9.89363 6.75 10.7416 6.93709 11.5084 7.27353L12.1111 5.89991C11.1579 5.48171 10.105 5.25 9 5.25V6.75ZM11.5084 7.27353C12.9605 7.91062 14.1248 9.0848 14.749 10.5437L16.1281 9.9536C15.3539 8.14418 13.9119 6.69 12.1111 5.89991L11.5084 7.27353ZM6.32182 18.6489C4.20852 17.645 2.75 15.4921 2.75 13H1.25C1.25 16.0927 3.06159 18.7608 5.67818 20.0038L6.32182 18.6489ZM12.4238 11.5199L7.42383 17.5199L8.57617 18.4801L13.5762 12.4801L12.4238 11.5199ZM8 18.75H11V17.25H8V18.75ZM10.25 18V22H11.75V18H10.25ZM11.5762 22.4801L16.5762 16.4801L15.4238 15.5199L10.4238 21.5199L11.5762 22.4801ZM16 15.25H13V16.75H16V15.25ZM13.75 16V12H12.25V16H13.75ZM14.25 2V3H15.75V2H14.25ZM19.4194 3.5199L18.7123 4.22701L19.773 5.28767L20.4801 4.58056L19.4194 3.5199ZM22 8.25H21V9.75H22V8.25Z" fill="#28303F"/>
</svg>
