<svg width="24" height="24" viewBox="0 0 24 24" fill="none" xmlns="http://www.w3.org/2000/svg">
<path d="M12.975 7.89371C12.6792 8.18368 12.6745 8.65853 12.9644 8.95432C13.2544 9.25011 13.7292 9.25483 14.025 8.96486L12.975 7.89371ZM15.4386 7.24864L15.6726 7.96119L15.4386 7.24864ZM19.1245 15.6819C18.7659 15.8893 18.6434 16.3481 18.8508 16.7066C19.0582 17.0652 19.517 17.1877 19.8755 16.9803L19.1245 15.6819ZM4.57093 16.3604C4.91066 16.5974 5.37817 16.5141 5.61514 16.1744C5.85211 15.8347 5.76881 15.3671 5.42907 15.1302L4.57093 16.3604ZM8.5 17L9.01084 16.4509C8.72294 16.183 8.27706 16.183 7.98916 16.4509L8.5 17ZM15.5 17L16.0108 16.4509C15.7229 16.183 15.2771 16.183 14.9892 16.4509L15.5 17ZM2.75 10C2.75 6.54822 5.54822 3.75 9 3.75V2.25C4.71979 2.25 1.25 5.71979 1.25 10H2.75ZM17 7.75C19.3472 7.75 21.25 9.65279 21.25 12H22.75C22.75 8.82436 20.1756 6.25 17 6.25V7.75ZM14.025 8.96486C14.4856 8.51339 15.0475 8.16647 15.6726 7.96119L15.2045 6.53608C14.3565 6.8146 13.5965 7.28445 12.975 7.89371L14.025 8.96486ZM15.6726 7.96119C16.0893 7.82433 16.5352 7.75 17 7.75V6.25C16.3743 6.25 15.7704 6.35023 15.2045 6.53608L15.6726 7.96119ZM9 3.75C11.5785 3.75 13.794 5.3116 14.749 7.54367L16.1281 6.9536C14.9453 4.18924 12.2 2.25 9 2.25V3.75ZM21.25 12C21.25 13.5722 20.3967 14.9459 19.1245 15.6819L19.8755 16.9803C21.5923 15.9872 22.75 14.1293 22.75 12H21.25ZM5.42907 15.1302C3.80806 13.9995 2.75 12.1232 2.75 10H1.25C1.25 12.6342 2.56497 14.9613 4.57093 16.3604L5.42907 15.1302ZM9.25 19.5C9.25 19.8946 9.13605 20.0393 9.06747 20.0992C8.98027 20.1753 8.80803 20.25 8.5 20.25V21.75C9.0204 21.75 9.59816 21.627 10.0538 21.2293C10.5282 20.8152 10.75 20.2099 10.75 19.5H9.25ZM8.5 20.25C8.19197 20.25 8.01973 20.1753 7.93253 20.0992C7.86395 20.0393 7.75 19.8946 7.75 19.5H6.25C6.25 20.2099 6.47183 20.8152 6.94615 21.2293C7.40184 21.627 7.9796 21.75 8.5 21.75V20.25ZM7.75 19.5C7.75 19.3838 7.79274 19.2077 7.90749 18.9742C8.01875 18.7478 8.17496 18.5132 8.34421 18.2934C8.5118 18.0758 8.68124 17.8868 8.80947 17.7518C8.87317 17.6847 8.92565 17.632 8.96128 17.597C8.97907 17.5795 8.99258 17.5665 9.00109 17.5584C9.00535 17.5543 9.00835 17.5515 9.01001 17.5499C9.01083 17.5491 9.01133 17.5487 9.01147 17.5485C9.01154 17.5485 9.01153 17.5485 9.01142 17.5486C9.01137 17.5486 9.0113 17.5487 9.0112 17.5488C9.01115 17.5488 9.01106 17.5489 9.01104 17.5489C9.01094 17.549 9.01084 17.5491 8.5 17C7.98916 16.4509 7.98904 16.451 7.98893 16.4511C7.98888 16.4511 7.98876 16.4512 7.98866 16.4513C7.98848 16.4515 7.98827 16.4517 7.98803 16.4519C7.98756 16.4524 7.98701 16.4529 7.98636 16.4535C7.98506 16.4547 7.9834 16.4563 7.98139 16.4582C7.97737 16.4619 7.97195 16.4671 7.96522 16.4735C7.95176 16.4864 7.93304 16.5044 7.90981 16.5272C7.86341 16.5728 7.79871 16.6378 7.72178 16.7188C7.56876 16.88 7.3632 17.1088 7.15579 17.3782C6.95004 17.6453 6.73125 17.9667 6.56126 18.3126C6.39476 18.6514 6.25 19.0639 6.25 19.5H7.75ZM8.5 17C7.98916 17.5491 7.98906 17.549 7.98896 17.5489C7.98894 17.5489 7.98885 17.5488 7.9888 17.5488C7.9887 17.5487 7.98863 17.5486 7.98858 17.5486C7.98847 17.5485 7.98846 17.5485 7.98853 17.5485C7.98867 17.5487 7.98917 17.5491 7.98999 17.5499C7.99165 17.5515 7.99465 17.5543 7.99891 17.5584C8.00742 17.5665 8.02093 17.5795 8.03872 17.597C8.07435 17.632 8.12683 17.6847 8.19053 17.7518C8.31876 17.8868 8.4882 18.0758 8.65579 18.2934C8.82504 18.5132 8.98125 18.7478 9.09251 18.9742C9.20726 19.2077 9.25 19.3838 9.25 19.5H10.75C10.75 19.0639 10.6052 18.6514 10.4387 18.3126C10.2687 17.9667 10.05 17.6453 9.84421 17.3782C9.6368 17.1088 9.43124 16.88 9.27822 16.7188C9.20129 16.6378 9.13659 16.5728 9.09019 16.5272C9.06696 16.5044 9.04824 16.4864 9.03478 16.4735C9.02805 16.4671 9.02263 16.4619 9.01861 16.4582C9.0166 16.4563 9.01494 16.4547 9.01364 16.4535C9.01299 16.4529 9.01244 16.4524 9.01197 16.4519C9.01173 16.4517 9.01152 16.4515 9.01134 16.4513C9.01124 16.4512 9.01112 16.4511 9.01107 16.4511C9.01096 16.451 9.01084 16.4509 8.5 17ZM16.25 19.5C16.25 19.8946 16.136 20.0393 16.0675 20.0992C15.9803 20.1753 15.808 20.25 15.5 20.25V21.75C16.0204 21.75 16.5982 21.627 17.0538 21.2293C17.5282 20.8152 17.75 20.2099 17.75 19.5H16.25ZM15.5 20.25C15.192 20.25 15.0197 20.1753 14.9325 20.0992C14.864 20.0393 14.75 19.8946 14.75 19.5H13.25C13.25 20.2099 13.4718 20.8152 13.9462 21.2293C14.4018 21.627 14.9796 21.75 15.5 21.75V20.25ZM14.75 19.5C14.75 19.3838 14.7927 19.2077 14.9075 18.9742C15.0187 18.7478 15.175 18.5132 15.3442 18.2934C15.5118 18.0758 15.6812 17.8868 15.8095 17.7518C15.8732 17.6847 15.9257 17.632 15.9613 17.597C15.9791 17.5795 15.9926 17.5665 16.0011 17.5584C16.0053 17.5543 16.0083 17.5515 16.01 17.5499C16.0108 17.5491 16.0113 17.5487 16.0115 17.5485C16.0115 17.5485 16.0115 17.5485 16.0114 17.5486C16.0114 17.5486 16.0113 17.5487 16.0112 17.5488C16.0112 17.5488 16.0111 17.5489 16.011 17.5489C16.0109 17.549 16.0108 17.5491 15.5 17C14.9892 16.4509 14.989 16.451 14.9889 16.4511C14.9889 16.4511 14.9888 16.4512 14.9887 16.4513C14.9885 16.4515 14.9883 16.4517 14.988 16.4519C14.9876 16.4524 14.987 16.4529 14.9864 16.4535C14.9851 16.4547 14.9834 16.4563 14.9814 16.4582C14.9774 16.4619 14.9719 16.4671 14.9652 16.4735C14.9518 16.4864 14.933 16.5044 14.9098 16.5272C14.8634 16.5728 14.7987 16.6378 14.7218 16.7188C14.5688 16.88 14.3632 17.1088 14.1558 17.3782C13.95 17.6453 13.7313 17.9667 13.5613 18.3126C13.3948 18.6514 13.25 19.0639 13.25 19.5H14.75ZM15.5 17C14.9892 17.5491 14.9891 17.549 14.989 17.5489C14.9889 17.5489 14.9888 17.5488 14.9888 17.5488C14.9887 17.5487 14.9886 17.5486 14.9886 17.5486C14.9885 17.5485 14.9885 17.5485 14.9885 17.5485C14.9887 17.5487 14.9892 17.5491 14.99 17.5499C14.9917 17.5515 14.9947 17.5543 14.9989 17.5584C15.0074 17.5665 15.0209 17.5795 15.0387 17.597C15.0743 17.632 15.1268 17.6847 15.1905 17.7518C15.3188 17.8868 15.4882 18.0758 15.6558 18.2934C15.825 18.5132 15.9813 18.7478 16.0925 18.9742C16.2073 19.2077 16.25 19.3838 16.25 19.5H17.75C17.75 19.0639 17.6052 18.6514 17.4387 18.3126C17.2687 17.9667 17.05 17.6453 16.8442 17.3782C16.6368 17.1088 16.4312 16.88 16.2782 16.7188C16.2013 16.6378 16.1366 16.5728 16.0902 16.5272C16.067 16.5044 16.0482 16.4864 16.0348 16.4735C16.0281 16.4671 16.0226 16.4619 16.0186 16.4582C16.0166 16.4563 16.0149 16.4547 16.0136 16.4535C16.013 16.4529 16.0124 16.4524 16.012 16.4519C16.0117 16.4517 16.0115 16.4515 16.0113 16.4513C16.0112 16.4512 16.0111 16.4511 16.0111 16.4511C16.011 16.451 16.0108 16.4509 15.5 17Z" fill="#28303F"/>
</svg>
