<svg width="24" height="24" viewBox="0 0 24 24" fill="none" xmlns="http://www.w3.org/2000/svg">
<path d="M12.975 8.89371C12.6792 9.18368 12.6745 9.65853 12.9644 9.95432C13.2544 10.2501 13.7292 10.2548 14.025 9.96486L12.975 8.89371ZM15.4386 8.24864L15.6726 8.96119L15.4386 8.24864ZM12.4559 4.91117L12.0851 5.56309L12.4559 4.91117ZM21.0004 10L20.4007 10.4504L21.0004 10ZM4.57093 17.3604C4.91066 17.5974 5.37817 17.5141 5.61514 17.1744C5.85211 16.8347 5.76881 16.3671 5.42907 16.1302L4.57093 17.3604ZM18.6997 16.8967C18.3202 17.0625 18.1469 17.5047 18.3127 17.8842C18.4786 18.2638 18.9207 18.4371 19.3003 18.2712L18.6997 16.8967ZM8.67082 17.3354C8.85606 16.9649 8.70589 16.5144 8.33541 16.3292C7.96493 16.1439 7.51442 16.2941 7.32918 16.6646L8.67082 17.3354ZM6.32918 18.6646C6.14394 19.0351 6.29411 19.4856 6.66459 19.6708C7.03507 19.8561 7.48558 19.7059 7.67082 19.3354L6.32918 18.6646ZM16.6708 17.3354C16.8561 16.9649 16.7059 16.5144 16.3354 16.3292C15.9649 16.1439 15.5144 16.2941 15.3292 16.6646L16.6708 17.3354ZM14.3292 18.6646C14.1439 19.0351 14.2941 19.4856 14.6646 19.6708C15.0351 19.8561 15.4856 19.7059 15.6708 19.3354L14.3292 18.6646ZM12.6964 17.2785C12.8502 16.894 12.6631 16.4575 12.2785 16.3036C11.894 16.1498 11.4575 16.3369 11.3036 16.7215L12.6964 17.2785ZM9.30364 21.7215C9.14981 22.106 9.33687 22.5425 9.72146 22.6964C10.106 22.8502 10.5425 22.6631 10.6964 22.2785L9.30364 21.7215ZM2.75 11C2.75 7.54822 5.54822 4.75 9 4.75V3.25C4.71979 3.25 1.25 6.71979 1.25 11H2.75ZM14.025 9.96486C14.4856 9.51339 15.0475 9.16647 15.6726 8.96119L15.2045 7.53608C14.3565 7.8146 13.5965 8.28445 12.975 8.89371L14.025 9.96486ZM15.6726 8.96119C16.0893 8.82433 16.5352 8.75 17 8.75V7.25C16.3743 7.25 15.7704 7.35023 15.2045 7.53608L15.6726 8.96119ZM17 2.75C19.3472 2.75 21.25 4.65279 21.25 7H22.75C22.75 3.82436 20.1756 1.25 17 1.25V2.75ZM13.1371 5.22485C13.8104 3.76259 15.2877 2.75 17 2.75V1.25C14.6807 1.25 12.6837 2.62311 11.7746 4.5975L13.1371 5.22485ZM9 4.75C10.1234 4.75 11.1755 5.04574 12.0851 5.56309L12.8267 4.25926C11.6971 3.61673 10.3902 3.25 9 3.25V4.75ZM12.0851 5.56309C13.268 6.23595 14.21 7.28387 14.749 8.54367L16.1281 7.9536C15.4593 6.39046 14.2922 5.09286 12.8267 4.25926L12.0851 5.56309ZM21.25 7C21.25 7.95763 20.9342 8.83933 20.4007 9.54957L21.6 10.4504C22.3219 9.48935 22.75 8.29358 22.75 7H21.25ZM17 8.75C18.39 8.75 19.624 9.41646 20.4007 10.4504L21.6 9.54957C20.5523 8.15464 18.8817 7.25 17 7.25V8.75ZM20.4007 10.4504C20.9342 11.1607 21.25 12.0424 21.25 13H22.75C22.75 11.7064 22.3219 10.5106 21.6 9.54957L20.4007 10.4504ZM5.42907 16.1302C3.80806 14.9995 2.75 13.1232 2.75 11H1.25C1.25 13.6342 2.56497 15.9613 4.57093 17.3604L5.42907 16.1302ZM21.25 13C21.25 14.7416 20.2023 16.2402 18.6997 16.8967L19.3003 18.2712C21.3295 17.3846 22.75 15.359 22.75 13H21.25ZM7.32918 16.6646L6.32918 18.6646L7.67082 19.3354L8.67082 17.3354L7.32918 16.6646ZM15.3292 16.6646L14.3292 18.6646L15.6708 19.3354L16.6708 17.3354L15.3292 16.6646ZM11.3036 16.7215L9.30364 21.7215L10.6964 22.2785L12.6964 17.2785L11.3036 16.7215Z" fill="#28303F"/>
</svg>
