<svg width="24" height="24" viewBox="0 0 24 24" fill="none" xmlns="http://www.w3.org/2000/svg">
<path d="M12.975 10.8937C12.6792 11.1837 12.6745 11.6585 12.9644 11.9543C13.2544 12.2501 13.7292 12.2548 14.025 11.9649L12.975 10.8937ZM15.4386 10.2486L15.6726 10.9612L15.4386 10.2486ZM18.2753 19.0556C17.8801 19.1797 17.6603 19.6007 17.7845 19.9958C17.9086 20.391 18.3296 20.6108 18.7247 20.4866L18.2753 19.0556ZM5.12446 19.7127C5.483 19.9201 5.9418 19.7976 6.1492 19.4391C6.35661 19.0805 6.23409 18.6217 5.87554 18.4143L5.12446 19.7127ZM15.75 2C15.75 1.58579 15.4142 1.25 15 1.25C14.5858 1.25 14.25 1.58579 14.25 2H15.75ZM14.25 3C14.25 3.41421 14.5858 3.75 15 3.75C15.4142 3.75 15.75 3.41421 15.75 3H14.25ZM20.4801 4.58056C20.773 4.28767 20.773 3.8128 20.4801 3.5199C20.1872 3.22701 19.7123 3.22701 19.4194 3.5199L20.4801 4.58056ZM18.7123 4.22701C18.4194 4.5199 18.4194 4.99478 18.7123 5.28767C19.0052 5.58056 19.4801 5.58056 19.773 5.28767L18.7123 4.22701ZM22 9.75C22.4142 9.75 22.75 9.41421 22.75 9C22.75 8.58579 22.4142 8.25 22 8.25V9.75ZM21 8.25C20.5858 8.25 20.25 8.58579 20.25 9C20.25 9.41421 20.5858 9.75 21 9.75V8.25ZM2.75 13C2.75 9.54822 5.54822 6.75 9 6.75V5.25C4.71979 5.25 1.25 8.71979 1.25 13H2.75ZM14.025 11.9649C14.4856 11.5134 15.0475 11.1665 15.6726 10.9612L15.2045 9.53608C14.3565 9.8146 13.5965 10.2845 12.975 10.8937L14.025 11.9649ZM15.6726 10.9612C16.0893 10.8243 16.5352 10.75 17 10.75V9.25C16.3743 9.25 15.7704 9.35023 15.2045 9.53608L15.6726 10.9612ZM15 5.75C16.7949 5.75 18.25 7.20507 18.25 9H19.75C19.75 6.37665 17.6234 4.25 15 4.25V5.75ZM18.25 9C18.25 9.37849 18.1856 9.74033 18.0678 10.0762L19.4833 10.5727C19.6563 10.0795 19.75 9.54988 19.75 9H18.25ZM17 10.75C17.5329 10.75 18.0412 10.8477 18.5091 11.0255L19.0419 9.62333C18.4064 9.38185 17.7177 9.25 17 9.25V10.75ZM18.5091 11.0255C20.1125 11.6347 21.25 13.1855 21.25 15H22.75C22.75 12.5423 21.2084 10.4465 19.0419 9.62333L18.5091 11.0255ZM12.4075 7.03963C13.0022 6.25471 13.942 5.75 15 5.75V4.25C13.4526 4.25 12.078 4.99073 11.2119 6.13381L12.4075 7.03963ZM9 6.75C9.89363 6.75 10.7416 6.93709 11.5084 7.27353L12.1111 5.89991C11.1579 5.48171 10.105 5.25 9 5.25V6.75ZM11.5084 7.27353C12.9605 7.91062 14.1248 9.0848 14.749 10.5437L16.1281 9.9536C15.3539 8.14418 13.9119 6.69 12.1111 5.89991L11.5084 7.27353ZM21.25 15C21.25 16.9019 20.0002 18.5138 18.2753 19.0556L18.7247 20.4866C21.0569 19.7541 22.75 17.5758 22.75 15H21.25ZM5.87554 18.4143C4.00546 17.3325 2.75 15.3124 2.75 13H1.25C1.25 15.8695 2.80993 18.3738 5.12446 19.7127L5.87554 18.4143ZM14.25 2V3H15.75V2H14.25ZM19.4194 3.5199L18.7123 4.22701L19.773 5.28767L20.4801 4.58056L19.4194 3.5199ZM22 8.25H21V9.75H22V8.25Z" fill="#28303F"/>
</svg>
