<svg width="24" height="24" viewBox="0 0 24 24" fill="none" xmlns="http://www.w3.org/2000/svg">
<path d="M15.4386 10.2486L15.6726 10.9612L15.4386 10.2486ZM16 19.25C15.5858 19.25 15.25 19.5858 15.25 20C15.25 20.4142 15.5858 20.75 16 20.75V19.25ZM7.8938 20.6716C8.30384 20.7302 8.68379 20.4454 8.74244 20.0353C8.8011 19.6253 8.51624 19.2453 8.1062 19.1867L7.8938 20.6716ZM15.75 2C15.75 1.58579 15.4142 1.25 15 1.25C14.5858 1.25 14.25 1.58579 14.25 2H15.75ZM14.25 3C14.25 3.41421 14.5858 3.75 15 3.75C15.4142 3.75 15.75 3.41421 15.75 3H14.25ZM20.4801 4.58058C20.773 4.28768 20.773 3.81281 20.4801 3.51992C20.1872 3.22702 19.7123 3.22702 19.4194 3.51992L20.4801 4.58058ZM18.7123 4.22702C18.4194 4.51992 18.4194 4.99479 18.7123 5.28768C19.0052 5.58058 19.4801 5.58058 19.773 5.28768L18.7123 4.22702ZM22 9.75C22.4142 9.75 22.75 9.41421 22.75 9C22.75 8.58579 22.4142 8.25 22 8.25V9.75ZM21 8.25C20.5858 8.25 20.25 8.58579 20.25 9C20.25 9.41421 20.5858 9.75 21 9.75V8.25ZM12 18L12.5108 17.4509C12.2229 17.183 11.7771 17.183 11.4892 17.4509L12 18ZM2.75 13C2.75 9.54822 5.54822 6.75 9 6.75V5.25C4.71979 5.25 1.25 8.71979 1.25 13H2.75ZM21.25 15C21.25 17.3472 19.3472 19.25 17 19.25V20.75C20.1756 20.75 22.75 18.1756 22.75 15H21.25ZM14.025 11.9649C14.4856 11.5134 15.0475 11.1665 15.6726 10.9612L15.2045 9.53608C14.3565 9.8146 13.5965 10.2845 12.975 10.8937L14.025 11.9649ZM15.6726 10.9612C16.0893 10.8243 16.5352 10.75 17 10.75V9.25C16.3743 9.25 15.7704 9.35023 15.2045 9.53608L15.6726 10.9612ZM15 5.75C16.7949 5.75 18.25 7.20507 18.25 9H19.75C19.75 6.37665 17.6234 4.25 15 4.25V5.75ZM18.25 9C18.25 9.37849 18.1856 9.74033 18.0678 10.0762L19.4833 10.5727C19.6563 10.0795 19.75 9.54988 19.75 9H18.25ZM17 10.75C17.5329 10.75 18.0412 10.8477 18.5091 11.0255L19.0419 9.62333C18.4064 9.38185 17.7177 9.25 17 9.25V10.75ZM18.5091 11.0255C20.1125 11.6347 21.25 13.1855 21.25 15H22.75C22.75 12.5423 21.2084 10.4465 19.0419 9.62333L18.5091 11.0255ZM12.4075 7.03963C13.0022 6.25471 13.942 5.75 15 5.75V4.25C13.4526 4.25 12.078 4.99073 11.2119 6.13381L12.4075 7.03963ZM9 6.75C9.89363 6.75 10.7416 6.93709 11.5084 7.27353L12.1111 5.89991C11.1579 5.48171 10.105 5.25 9 5.25V6.75ZM11.5084 7.27353C12.9605 7.91062 14.1248 9.0848 14.749 10.5437L16.1281 9.9536C15.3539 8.14418 13.9119 6.69 12.1111 5.89991L11.5084 7.27353ZM17 19.25H16V20.75H17V19.25ZM8.1062 19.1867C5.07807 18.7535 2.75 16.148 2.75 13H1.25C1.25 16.905 4.13735 20.1342 7.8938 20.6716L8.1062 19.1867ZM14.25 2V3H15.75V2H14.25ZM19.4194 3.51992L18.7123 4.22702L19.773 5.28768L20.4801 4.58058L19.4194 3.51992ZM22 8.25H21V9.75H22V8.25ZM12.75 20.5C12.75 20.8946 12.636 21.0393 12.5675 21.0992C12.4803 21.1753 12.308 21.25 12 21.25V22.75C12.5204 22.75 13.0982 22.627 13.5538 22.2293C14.0282 21.8152 14.25 21.2099 14.25 20.5H12.75ZM12 21.25C11.692 21.25 11.5197 21.1753 11.4325 21.0992C11.364 21.0393 11.25 20.8946 11.25 20.5H9.75C9.75 21.2099 9.97183 21.8152 10.4462 22.2293C10.9018 22.627 11.4796 22.75 12 22.75V21.25ZM11.25 20.5C11.25 20.3838 11.2927 20.2077 11.4075 19.9742C11.5187 19.7478 11.675 19.5132 11.8442 19.2934C12.0118 19.0758 12.1812 18.8868 12.3095 18.7518C12.3732 18.6847 12.4257 18.632 12.4613 18.597C12.4791 18.5795 12.4926 18.5665 12.5011 18.5584C12.5053 18.5543 12.5083 18.5515 12.51 18.5499C12.5108 18.5491 12.5113 18.5487 12.5115 18.5485C12.5115 18.5485 12.5115 18.5485 12.5114 18.5486C12.5114 18.5486 12.5113 18.5487 12.5112 18.5488C12.5112 18.5488 12.5111 18.5489 12.511 18.5489C12.5109 18.549 12.5108 18.5491 12 18C11.4892 17.4509 11.489 17.451 11.4889 17.4511C11.4889 17.4511 11.4888 17.4512 11.4887 17.4513C11.4885 17.4515 11.4883 17.4517 11.488 17.4519C11.4876 17.4524 11.487 17.4529 11.4864 17.4535C11.4851 17.4547 11.4834 17.4563 11.4814 17.4582C11.4774 17.4619 11.4719 17.4671 11.4652 17.4735C11.4518 17.4864 11.433 17.5044 11.4098 17.5272C11.3634 17.5728 11.2987 17.6378 11.2218 17.7188C11.0688 17.88 10.8632 18.1088 10.6558 18.3782C10.45 18.6453 10.2313 18.9667 10.0613 19.3126C9.89476 19.6514 9.75 20.0639 9.75 20.5H11.25ZM12 18C11.4892 18.5491 11.4891 18.549 11.489 18.5489C11.4889 18.5489 11.4888 18.5488 11.4888 18.5488C11.4887 18.5487 11.4886 18.5486 11.4886 18.5486C11.4885 18.5485 11.4885 18.5485 11.4885 18.5485C11.4887 18.5487 11.4892 18.5491 11.49 18.5499C11.4917 18.5515 11.4947 18.5543 11.4989 18.5584C11.5074 18.5665 11.5209 18.5795 11.5387 18.597C11.5743 18.632 11.6268 18.6847 11.6905 18.7518C11.8188 18.8868 11.9882 19.0758 12.1558 19.2934C12.325 19.5132 12.4813 19.7478 12.5925 19.9742C12.7073 20.2077 12.75 20.3838 12.75 20.5H14.25C14.25 20.0639 14.1052 19.6514 13.9387 19.3126C13.7687 18.9667 13.55 18.6453 13.3442 18.3782C13.1368 18.1088 12.9312 17.88 12.7782 17.7188C12.7013 17.6378 12.6366 17.5728 12.5902 17.5272C12.567 17.5044 12.5482 17.4864 12.5348 17.4735C12.5281 17.4671 12.5226 17.4619 12.5186 17.4582C12.5166 17.4563 12.5149 17.4547 12.5136 17.4535C12.513 17.4529 12.5124 17.4524 12.512 17.4519C12.5117 17.4517 12.5115 17.4515 12.5113 17.4513C12.5112 17.4512 12.5111 17.4511 12.5111 17.4511C12.511 17.451 12.5108 17.4509 12 18Z" fill="#28303F"/>
</svg>
