<svg width="24" height="24" viewBox="0 0 24 24" fill="none" xmlns="http://www.w3.org/2000/svg">
<path d="M12.975 11.8937C12.6792 12.1837 12.6745 12.6585 12.9644 12.9543C13.2544 13.2501 13.7292 13.2548 14.025 12.9649L12.975 11.8937ZM15.4386 11.2486L15.6726 11.9612L15.4386 11.2486ZM11.8097 7.58672L11.5084 8.27353L11.8097 7.58672ZM15.75 3C15.75 2.58579 15.4142 2.25 15 2.25C14.5858 2.25 14.25 2.58579 14.25 3H15.75ZM14.25 4C14.25 4.41421 14.5858 4.75 15 4.75C15.4142 4.75 15.75 4.41421 15.75 4H14.25ZM20.4801 5.58058C20.773 5.28768 20.773 4.81281 20.4801 4.51992C20.1872 4.22702 19.7123 4.22702 19.4194 4.51992L20.4801 5.58058ZM18.7123 5.22702C18.4194 5.51992 18.4194 5.99479 18.7123 6.28768C19.0052 6.58058 19.4801 6.58058 19.773 6.28768L18.7123 5.22702ZM22 10.75C22.4142 10.75 22.75 10.4142 22.75 10C22.75 9.58579 22.4142 9.25 22 9.25V10.75ZM21 9.25C20.5858 9.25 20.25 9.58579 20.25 10C20.25 10.4142 20.5858 10.75 21 10.75V9.25ZM9 20.25C5.54822 20.25 2.75 17.4518 2.75 14H1.25C1.25 18.2802 4.71979 21.75 9 21.75V20.25ZM2.75 14C2.75 10.5482 5.54822 7.75 9 7.75V6.25C4.71979 6.25 1.25 9.71979 1.25 14H2.75ZM21.25 16C21.25 18.3472 19.3472 20.25 17 20.25V21.75C20.1756 21.75 22.75 19.1756 22.75 16H21.25ZM14.025 12.9649C14.4856 12.5134 15.0475 12.1665 15.6726 11.9612L15.2045 10.5361C14.3565 10.8146 13.5965 11.2845 12.975 11.8937L14.025 12.9649ZM15.6726 11.9612C16.0893 11.8243 16.5352 11.75 17 11.75V10.25C16.3743 10.25 15.7704 10.3502 15.2045 10.5361L15.6726 11.9612ZM17 20.25H9V21.75H17V20.25ZM15 6.75C16.7949 6.75 18.25 8.20507 18.25 10H19.75C19.75 7.37665 17.6234 5.25 15 5.25V6.75ZM18.25 10C18.25 10.3785 18.1856 10.7403 18.0678 11.0762L19.4833 11.5727C19.6563 11.0795 19.75 10.5499 19.75 10H18.25ZM17 11.75C17.5329 11.75 18.0412 11.8477 18.5091 12.0255L19.0419 10.6233C18.4064 10.3819 17.7177 10.25 17 10.25V11.75ZM18.5091 12.0255C20.1125 12.6347 21.25 14.1855 21.25 16H22.75C22.75 13.5423 21.2084 11.4465 19.0419 10.6233L18.5091 12.0255ZM12.4075 8.03963C13.0022 7.25471 13.942 6.75 15 6.75V5.25C13.4526 5.25 12.078 5.99073 11.2119 7.13381L12.4075 8.03963ZM9 7.75C9.89363 7.75 10.7416 7.93709 11.5084 8.27353L12.1111 6.89991C11.1579 6.48171 10.105 6.25 9 6.25V7.75ZM11.5084 8.27353C12.9605 8.91062 14.1248 10.0848 14.749 11.5437L16.1281 10.9536C15.3539 9.14418 13.9119 7.69 12.1111 6.89991L11.5084 8.27353ZM14.25 3V4H15.75V3H14.25ZM19.4194 4.51992L18.7123 5.22702L19.773 6.28768L20.4801 5.58058L19.4194 4.51992ZM22 9.25H21V10.75H22V9.25Z" fill="#28303F"/>
</svg>
