<svg width="24" height="24" viewBox="0 0 24 24" fill="none" xmlns="http://www.w3.org/2000/svg">
<path d="M8.67082 17.3354C8.85606 16.9649 8.70589 16.5144 8.33541 16.3292C7.96493 16.1439 7.51442 16.2941 7.32918 16.6646L8.67082 17.3354ZM6.32918 18.6646C6.14394 19.0351 6.29411 19.4856 6.66459 19.6708C7.03507 19.8561 7.48558 19.7059 7.67082 19.3354L6.32918 18.6646ZM16.6708 17.3354C16.8561 16.9649 16.7059 16.5144 16.3354 16.3292C15.9649 16.1439 15.5144 16.2941 15.3292 16.6646L16.6708 17.3354ZM14.3292 18.6646C14.1439 19.0351 14.2941 19.4856 14.6646 19.6708C15.0351 19.8561 15.4856 19.7059 15.6708 19.3354L14.3292 18.6646ZM12.6964 17.2785C12.8502 16.894 12.6631 16.4575 12.2785 16.3036C11.894 16.1498 11.4575 16.3369 11.3036 16.7215L12.6964 17.2785ZM9.30364 21.7215C9.14981 22.106 9.33687 22.5425 9.72146 22.6964C10.106 22.8502 10.5425 22.6631 10.6964 22.2785L9.30364 21.7215ZM12.975 10.8937C12.6792 11.1837 12.6745 11.6585 12.9644 11.9543C13.2544 12.2501 13.7292 12.2548 14.025 11.9649L12.975 10.8937ZM15.4386 10.2486L15.6726 10.9612L15.4386 10.2486ZM16.1064 2L16.8364 2.17191C16.8944 1.92588 16.8245 1.66722 16.6505 1.48385C16.4766 1.30047 16.222 1.21704 15.9732 1.26192L16.1064 2ZM21.9733 6.40055L22.7193 6.32349C22.6933 6.07154 22.5419 5.84974 22.3167 5.73378C22.0915 5.61781 21.823 5.62334 21.6028 5.74847L21.9733 6.40055ZM12.0058 6.67641L11.6834 7.35356L12.0058 6.67641ZM19.9468 10.9602L19.5043 11.5658L19.9468 10.9602ZM17.8508 19.165C17.4449 19.2474 17.1826 19.6432 17.265 20.0492C17.3474 20.4551 17.7433 20.7174 18.1492 20.635L17.8508 19.165ZM4.01757 18.9364C4.33472 19.2028 4.80781 19.1617 5.07425 18.8445C5.34069 18.5274 5.29958 18.0543 4.98243 17.7879L4.01757 18.9364ZM7.32918 16.6646L6.32918 18.6646L7.67082 19.3354L8.67082 17.3354L7.32918 16.6646ZM15.3292 16.6646L14.3292 18.6646L15.6708 19.3354L16.6708 17.3354L15.3292 16.6646ZM11.3036 16.7215L9.30364 21.7215L10.6964 22.2785L12.6964 17.2785L11.3036 16.7215ZM2.75 13C2.75 9.54822 5.54822 6.75 9 6.75V5.25C4.71979 5.25 1.25 8.71979 1.25 13H2.75ZM14.025 11.9649C14.4856 11.5134 15.0475 11.1665 15.6726 10.9612L15.2045 9.53608C14.3565 9.8146 13.5965 10.2845 12.975 10.8937L14.025 11.9649ZM15.6726 10.9612C16.0893 10.8243 16.5352 10.75 17 10.75V9.25C16.3743 9.25 15.7704 9.35023 15.2045 9.53608L15.6726 10.9612ZM20 6.17038C18.2051 6.17038 16.75 4.7153 16.75 2.92038H15.25C15.25 5.54373 17.3766 7.67038 20 7.67038V6.17038ZM16.75 2.92038C16.75 2.66194 16.78 2.41147 16.8364 2.17191L15.3764 1.82809C15.2936 2.17952 15.25 2.54534 15.25 2.92038H16.75ZM21.6028 5.74847C21.1305 6.01685 20.5843 6.17038 20 6.17038V7.67038C20.8509 7.67038 21.6516 7.44599 22.3438 7.05263L21.6028 5.74847ZM21.2273 6.47762C21.2423 6.62292 21.25 6.77062 21.25 6.92038H22.75C22.75 6.71906 22.7396 6.51992 22.7193 6.32349L21.2273 6.47762ZM12.755 6.7124C12.8507 4.71917 14.3216 3.08413 16.2396 2.73808L15.9732 1.26192C13.3767 1.73039 11.3864 3.94029 11.2567 6.64042L12.755 6.7124ZM9 6.75C9.96199 6.75 10.8712 6.96682 11.6834 7.35356L12.3283 5.99926C11.319 5.51863 10.1898 5.25 9 5.25V6.75ZM11.6834 7.35356C13.0541 8.00625 14.1502 9.14402 14.749 10.5437L16.1281 9.9536C15.3852 8.2174 14.0276 6.80844 12.3283 5.99926L11.6834 7.35356ZM21.25 6.92038C21.25 8.33049 20.564 9.5803 19.5043 10.3546L20.3892 11.5658C21.8189 10.5212 22.75 8.82946 22.75 6.92038H21.25ZM17 10.75C17.9375 10.75 18.802 11.0526 19.5043 11.5658L20.3892 10.3546C19.4388 9.66013 18.2662 9.25 17 9.25V10.75ZM19.5043 11.5658C20.564 12.3401 21.25 13.5899 21.25 15H22.75C22.75 13.0909 21.8189 11.3992 20.3892 10.3546L19.5043 11.5658ZM21.25 15C21.25 17.0552 19.7904 18.7713 17.8508 19.165L18.1492 20.635C20.7741 20.1022 22.75 17.7827 22.75 15H21.25ZM4.98243 17.7879C3.61632 16.6402 2.75 14.9216 2.75 13H1.25C1.25 15.3833 2.32673 17.5159 4.01757 18.9364L4.98243 17.7879Z" fill="#28303F"/>
</svg>
