<svg width="24" height="24" viewBox="0 0 24 24" fill="none" xmlns="http://www.w3.org/2000/svg">
<path d="M12.975 8.89371C12.6792 9.18368 12.6745 9.65853 12.9644 9.95432C13.2544 10.2501 13.7292 10.2548 14.025 9.96486L12.975 8.89371ZM15.4386 8.24864L15.6726 8.96119L15.4386 8.24864ZM12.4559 4.91117L12.0851 5.56309L12.4559 4.91117ZM21.0004 10L20.4007 10.4504L21.0004 10ZM18.6997 16.8967C18.3202 17.0625 18.1469 17.5047 18.3127 17.8842C18.4786 18.2638 18.9207 18.4371 19.3003 18.2712L18.6997 16.8967ZM4.57093 17.3604C4.91066 17.5974 5.37817 17.5141 5.61514 17.1744C5.85211 16.8347 5.76881 16.3671 5.42907 16.1302L4.57093 17.3604ZM13 12H13.75C13.75 11.6842 13.5522 11.4023 13.2553 11.2948C12.9584 11.1873 12.626 11.2773 12.4238 11.5199L13 12ZM8 18L7.42383 17.5199C7.23753 17.7434 7.19737 18.0546 7.32081 18.3181C7.44424 18.5817 7.70899 18.75 8 18.75V18ZM11 18H11.75C11.75 17.5858 11.4142 17.25 11 17.25V18ZM11 22H10.25C10.25 22.3158 10.4478 22.5977 10.7447 22.7052C11.0416 22.8127 11.374 22.7227 11.5762 22.4801L11 22ZM16 16L16.5762 16.4801C16.7625 16.2566 16.8026 15.9454 16.6792 15.6819C16.5558 15.4183 16.291 15.25 16 15.25V16ZM13 16H12.25C12.25 16.4142 12.5858 16.75 13 16.75V16ZM2.75 11C2.75 7.54822 5.54822 4.75 9 4.75V3.25C4.71979 3.25 1.25 6.71979 1.25 11H2.75ZM14.025 9.96486C14.4856 9.51339 15.0475 9.16647 15.6726 8.96119L15.2045 7.53608C14.3565 7.8146 13.5965 8.28445 12.975 8.89371L14.025 9.96486ZM15.6726 8.96119C16.0893 8.82433 16.5352 8.75 17 8.75V7.25C16.3743 7.25 15.7704 7.35023 15.2045 7.53608L15.6726 8.96119ZM17 2.75C19.3472 2.75 21.25 4.65279 21.25 7H22.75C22.75 3.82436 20.1756 1.25 17 1.25V2.75ZM13.1371 5.22485C13.8104 3.76259 15.2877 2.75 17 2.75V1.25C14.6807 1.25 12.6837 2.62311 11.7746 4.5975L13.1371 5.22485ZM9 4.75C10.1234 4.75 11.1755 5.04574 12.0851 5.56309L12.8267 4.25926C11.6971 3.61673 10.3902 3.25 9 3.25V4.75ZM12.0851 5.56309C13.268 6.23595 14.21 7.28387 14.749 8.54367L16.1281 7.9536C15.4593 6.39046 14.2922 5.09286 12.8267 4.25926L12.0851 5.56309ZM21.25 7C21.25 7.95763 20.9342 8.83933 20.4007 9.54957L21.6 10.4504C22.3219 9.48935 22.75 8.29358 22.75 7H21.25ZM17 8.75C18.39 8.75 19.624 9.41646 20.4007 10.4504L21.6 9.54957C20.5523 8.15464 18.8817 7.25 17 7.25V8.75ZM20.4007 10.4504C20.9342 11.1607 21.25 12.0424 21.25 13H22.75C22.75 11.7064 22.3219 10.5106 21.6 9.54957L20.4007 10.4504ZM21.25 13C21.25 14.7416 20.2023 16.2402 18.6997 16.8967L19.3003 18.2712C21.3295 17.3846 22.75 15.359 22.75 13H21.25ZM5.42907 16.1302C3.80806 14.9995 2.75 13.1232 2.75 11H1.25C1.25 13.6342 2.56497 15.9613 4.57093 17.3604L5.42907 16.1302ZM12.4238 11.5199L7.42383 17.5199L8.57617 18.4801L13.5762 12.4801L12.4238 11.5199ZM8 18.75H11V17.25H8V18.75ZM10.25 18V22H11.75V18H10.25ZM11.5762 22.4801L16.5762 16.4801L15.4238 15.5199L10.4238 21.5199L11.5762 22.4801ZM16 15.25H13V16.75H16V15.25ZM13.75 16V12H12.25V16H13.75Z" fill="#28303F"/>
</svg>
