<svg width="24" height="24" viewBox="0 0 24 24" fill="none" xmlns="http://www.w3.org/2000/svg">
<path d="M12.975 8.89371C12.6792 9.18368 12.6745 9.65853 12.9644 9.95432C13.2544 10.2501 13.7292 10.2548 14.025 9.96486L12.975 8.89371ZM15.4386 8.24864L15.6726 8.96119L15.4386 8.24864ZM5.12446 17.7127C5.483 17.9201 5.9418 17.7976 6.1492 17.4391C6.35661 17.0805 6.23409 16.6217 5.87554 16.4143L5.12446 17.7127ZM18.2753 17.0556C17.8801 17.1797 17.6603 17.6007 17.7845 17.9958C17.9086 18.391 18.3296 18.6108 18.7247 18.4866L18.2753 17.0556ZM2.75 11C2.75 7.54822 5.54822 4.75 9 4.75V3.25C4.71979 3.25 1.25 6.71979 1.25 11H2.75ZM17 8.75C19.3472 8.75 21.25 10.6528 21.25 13H22.75C22.75 9.82436 20.1756 7.25 17 7.25V8.75ZM14.025 9.96486C14.4856 9.51339 15.0475 9.16647 15.6726 8.96119L15.2045 7.53608C14.3565 7.8146 13.5965 8.28445 12.975 8.89371L14.025 9.96486ZM15.6726 8.96119C16.0893 8.82433 16.5352 8.75 17 8.75V7.25C16.3743 7.25 15.7704 7.35023 15.2045 7.53608L15.6726 8.96119ZM9 4.75C11.5785 4.75 13.794 6.3116 14.749 8.54367L16.1281 7.9536C14.9453 5.18924 12.2 3.25 9 3.25V4.75ZM5.87554 16.4143C4.00546 15.3325 2.75 13.3124 2.75 11H1.25C1.25 13.8695 2.80993 16.3738 5.12446 17.7127L5.87554 16.4143ZM21.25 13C21.25 14.9019 20.0002 16.5138 18.2753 17.0556L18.7247 18.4866C21.0569 17.7541 22.75 15.5758 22.75 13H21.25Z" fill="#28303F"/>
<path d="M12.75 20C12.75 20.4142 12.4142 20.75 12 20.75C11.5858 20.75 11.25 20.4142 11.25 20C11.25 19.5858 11.5858 19.25 12 19.25C12.4142 19.25 12.75 19.5858 12.75 20Z" fill="#28303F"/>
<path d="M12.75 17C12.75 17.4142 12.4142 17.75 12 17.75C11.5858 17.75 11.25 17.4142 11.25 17C11.25 16.5858 11.5858 16.25 12 16.25C12.4142 16.25 12.75 16.5858 12.75 17Z" fill="#28303F"/>
<path d="M9.5 18C9.5 18.4142 9.16421 18.75 8.75 18.75C8.33579 18.75 8 18.4142 8 18C8 17.5858 8.33579 17.25 8.75 17.25C9.16421 17.25 9.5 17.5858 9.5 18Z" fill="#28303F"/>
<path d="M16 18C16 18.4142 15.6642 18.75 15.25 18.75C14.8358 18.75 14.5 18.4142 14.5 18C14.5 17.5858 14.8358 17.25 15.25 17.25C15.6642 17.25 16 17.5858 16 18Z" fill="#28303F"/>
<path d="M9.5 15C9.5 15.4142 9.16421 15.75 8.75 15.75C8.33579 15.75 8 15.4142 8 15C8 14.5858 8.33579 14.25 8.75 14.25C9.16421 14.25 9.5 14.5858 9.5 15Z" fill="#28303F"/>
<path d="M16 15C16 15.4142 15.6642 15.75 15.25 15.75C14.8358 15.75 14.5 15.4142 14.5 15C14.5 14.5858 14.8358 14.25 15.25 14.25C15.6642 14.25 16 14.5858 16 15Z" fill="#28303F"/>
</svg>
