<svg width="24" height="24" viewBox="0 0 24 24" fill="none" xmlns="http://www.w3.org/2000/svg">
<path d="M16 18L16.5108 17.4509C16.2229 17.183 15.7771 17.183 15.4892 17.4509L16 18ZM12.975 10.8937C12.6792 11.1837 12.6745 11.6585 12.9644 11.9543C13.2544 12.2501 13.7292 12.2548 14.025 11.9649L12.975 10.8937ZM15.4386 10.2486L15.6726 10.9612L15.4386 10.2486ZM1.57104 15.2139C1.68919 15.6109 2.10681 15.837 2.50382 15.7188C2.90082 15.6007 3.12687 15.1831 3.00872 14.7861L1.57104 15.2139ZM19.5495 18.4003C19.2184 18.6491 19.1516 19.1193 19.4003 19.4505C19.6491 19.7816 20.1193 19.8484 20.4505 19.5997L19.5495 18.4003ZM9 12H9.75C9.75 11.6842 9.55222 11.4023 9.25532 11.2948C8.95841 11.1873 8.62598 11.2773 8.42383 11.5199L9 12ZM4 18L3.42383 17.5199C3.23753 17.7434 3.19737 18.0546 3.32081 18.3181C3.44424 18.5817 3.70899 18.75 4 18.75V18ZM7 18H7.75C7.75 17.5858 7.41421 17.25 7 17.25V18ZM7 22H6.25C6.25 22.3158 6.44778 22.5977 6.74468 22.7052C7.04159 22.8127 7.37402 22.7227 7.57617 22.4801L7 22ZM12 16L12.5762 16.4801C12.7625 16.2566 12.8026 15.9454 12.6792 15.6819C12.5558 15.4183 12.291 15.25 12 15.25V16ZM9 16H8.25C8.25 16.4142 8.58579 16.75 9 16.75V16ZM15.75 2C15.75 1.58579 15.4142 1.25 15 1.25C14.5858 1.25 14.25 1.58579 14.25 2H15.75ZM14.25 3C14.25 3.41421 14.5858 3.75 15 3.75C15.4142 3.75 15.75 3.41421 15.75 3H14.25ZM20.4801 4.58056C20.773 4.28767 20.773 3.8128 20.4801 3.5199C20.1872 3.22701 19.7123 3.22701 19.4194 3.5199L20.4801 4.58056ZM18.7123 4.22701C18.4194 4.5199 18.4194 4.99478 18.7123 5.28767C19.0052 5.58056 19.4801 5.58056 19.773 5.28767L18.7123 4.22701ZM22 9.75C22.4142 9.75 22.75 9.41421 22.75 9C22.75 8.58579 22.4142 8.25 22 8.25V9.75ZM21 8.25C20.5858 8.25 20.25 8.58579 20.25 9C20.25 9.41421 20.5858 9.75 21 9.75V8.25ZM16.75 20.5C16.75 20.8946 16.636 21.0393 16.5675 21.0992C16.4803 21.1753 16.308 21.25 16 21.25V22.75C16.5204 22.75 17.0982 22.627 17.5538 22.2293C18.0282 21.8152 18.25 21.2099 18.25 20.5H16.75ZM16 21.25C15.692 21.25 15.5197 21.1753 15.4325 21.0992C15.364 21.0393 15.25 20.8946 15.25 20.5H13.75C13.75 21.2099 13.9718 21.8152 14.4462 22.2293C14.9018 22.627 15.4796 22.75 16 22.75V21.25ZM15.25 20.5C15.25 20.3838 15.2927 20.2077 15.4075 19.9742C15.5187 19.7478 15.675 19.5132 15.8442 19.2934C16.0118 19.0758 16.1812 18.8868 16.3095 18.7518C16.3732 18.6847 16.4257 18.632 16.4613 18.597C16.4791 18.5795 16.4926 18.5665 16.5011 18.5584C16.5053 18.5543 16.5083 18.5515 16.51 18.5499C16.5108 18.5491 16.5113 18.5487 16.5115 18.5485C16.5115 18.5485 16.5115 18.5485 16.5114 18.5486C16.5114 18.5486 16.5113 18.5487 16.5112 18.5488C16.5112 18.5488 16.5111 18.5489 16.511 18.5489C16.5109 18.549 16.5108 18.5491 16 18C15.4892 17.4509 15.489 17.451 15.4889 17.4511C15.4889 17.4511 15.4888 17.4512 15.4887 17.4513C15.4885 17.4515 15.4883 17.4517 15.488 17.4519C15.4876 17.4524 15.487 17.4529 15.4864 17.4535C15.4851 17.4547 15.4834 17.4563 15.4814 17.4582C15.4774 17.4619 15.4719 17.4671 15.4652 17.4735C15.4518 17.4864 15.433 17.5044 15.4098 17.5272C15.3634 17.5728 15.2987 17.6378 15.2218 17.7188C15.0688 17.88 14.8632 18.1088 14.6558 18.3782C14.45 18.6453 14.2313 18.9667 14.0613 19.3126C13.8948 19.6514 13.75 20.0639 13.75 20.5H15.25ZM16 18C15.4892 18.5491 15.4891 18.549 15.489 18.5489C15.4889 18.5489 15.4888 18.5488 15.4888 18.5488C15.4887 18.5487 15.4886 18.5486 15.4886 18.5486C15.4885 18.5485 15.4885 18.5485 15.4885 18.5485C15.4887 18.5487 15.4892 18.5491 15.49 18.5499C15.4917 18.5515 15.4947 18.5543 15.4989 18.5584C15.5074 18.5665 15.5209 18.5795 15.5387 18.597C15.5743 18.632 15.6268 18.6847 15.6905 18.7518C15.8188 18.8868 15.9882 19.0758 16.1558 19.2934C16.325 19.5132 16.4813 19.7478 16.5925 19.9742C16.7073 20.2077 16.75 20.3838 16.75 20.5H18.25C18.25 20.0639 18.1052 19.6514 17.9387 19.3126C17.7687 18.9667 17.55 18.6453 17.3442 18.3782C17.1368 18.1088 16.9312 17.88 16.7782 17.7188C16.7013 17.6378 16.6366 17.5728 16.5902 17.5272C16.567 17.5044 16.5482 17.4864 16.5348 17.4735C16.5281 17.4671 16.5226 17.4619 16.5186 17.4582C16.5166 17.4563 16.5149 17.4547 16.5136 17.4535C16.513 17.4529 16.5124 17.4524 16.512 17.4519C16.5117 17.4517 16.5115 17.4515 16.5113 17.4513C16.5112 17.4512 16.5111 17.4511 16.5111 17.4511C16.511 17.451 16.5108 17.4509 16 18ZM2.75 13C2.75 9.54822 5.54822 6.75 9 6.75V5.25C4.71979 5.25 1.25 8.71979 1.25 13H2.75ZM14.025 11.9649C14.4856 11.5134 15.0475 11.1665 15.6726 10.9612L15.2045 9.53608C14.3565 9.8146 13.5965 10.2845 12.975 10.8937L14.025 11.9649ZM15.6726 10.9612C16.0893 10.8243 16.5352 10.75 17 10.75V9.25C16.3743 9.25 15.7704 9.35023 15.2045 9.53608L15.6726 10.9612ZM15 5.75C16.7949 5.75 18.25 7.20507 18.25 9H19.75C19.75 6.37665 17.6234 4.25 15 4.25V5.75ZM18.25 9C18.25 9.37849 18.1856 9.74033 18.0678 10.0762L19.4833 10.5727C19.6563 10.0795 19.75 9.54988 19.75 9H18.25ZM17 10.75C17.5329 10.75 18.0412 10.8477 18.5091 11.0255L19.0419 9.62333C18.4064 9.38185 17.7177 9.25 17 9.25V10.75ZM18.5091 11.0255C20.1125 11.6347 21.25 13.1855 21.25 15H22.75C22.75 12.5423 21.2084 10.4465 19.0419 9.62333L18.5091 11.0255ZM12.4075 7.03963C13.0022 6.25471 13.942 5.75 15 5.75V4.25C13.4526 4.25 12.078 4.99073 11.2119 6.13381L12.4075 7.03963ZM9 6.75C9.89363 6.75 10.7416 6.93709 11.5084 7.27353L12.1111 5.89991C11.1579 5.48171 10.105 5.25 9 5.25V6.75ZM11.5084 7.27353C12.9605 7.91062 14.1248 9.0848 14.749 10.5437L16.1281 9.9536C15.3539 8.14418 13.9119 6.69 12.1111 5.89991L11.5084 7.27353ZM3.00872 14.7861C2.84056 14.221 2.75 13.6218 2.75 13H1.25C1.25 13.7682 1.36199 14.5115 1.57104 15.2139L3.00872 14.7861ZM21.25 15C21.25 16.3898 20.5835 17.6236 19.5495 18.4003L20.4505 19.5997C21.8452 18.5519 22.75 16.8817 22.75 15H21.25ZM8.42383 11.5199L3.42383 17.5199L4.57617 18.4801L9.57617 12.4801L8.42383 11.5199ZM4 18.75H7V17.25H4V18.75ZM6.25 18V22H7.75V18H6.25ZM7.57617 22.4801L12.5762 16.4801L11.4238 15.5199L6.42383 21.5199L7.57617 22.4801ZM12 15.25H9V16.75H12V15.25ZM9.75 16V12H8.25V16H9.75ZM14.25 2V3H15.75V2H14.25ZM19.4194 3.5199L18.7123 4.22701L19.773 5.28767L20.4801 4.58056L19.4194 3.5199ZM22 8.25H21V9.75H22V8.25Z" fill="#28303F"/>
</svg>
