<svg width="24" height="24" viewBox="0 0 24 24" fill="none" xmlns="http://www.w3.org/2000/svg">
<path d="M17 15.25C16.5858 15.25 16.25 15.5858 16.25 16C16.25 16.4142 16.5858 16.75 17 16.75V15.25ZM12.975 6.89371C12.6792 7.18368 12.6745 7.65853 12.9644 7.95432C13.2544 8.25011 13.7292 8.25483 14.025 7.96486L12.975 6.89371ZM15.4386 6.24864L15.6726 6.96119L15.4386 6.24864ZM11 12.25C10.5858 12.25 10.25 12.5858 10.25 13C10.25 13.4142 10.5858 13.75 11 13.75V12.25ZM12 18.25C11.5858 18.25 11.25 18.5858 11.25 19C11.25 19.4142 11.5858 19.75 12 19.75V18.25ZM18 21.25C17.5858 21.25 17.25 21.5858 17.25 22C17.25 22.4142 17.5858 22.75 18 22.75V21.25ZM9 19.75C9.41421 19.75 9.75 19.4142 9.75 19C9.75 18.5858 9.41421 18.25 9 18.25V19.75ZM7 18.25C6.58579 18.25 6.25 18.5858 6.25 19C6.25 19.4142 6.58579 19.75 7 19.75V18.25ZM9 15.25C5.54822 15.25 2.75 12.4518 2.75 9H1.25C1.25 13.2802 4.71979 16.75 9 16.75V15.25ZM2.75 9C2.75 5.54822 5.54822 2.75 9 2.75V1.25C4.71979 1.25 1.25 4.71979 1.25 9H2.75ZM21.25 11C21.25 13.3472 19.3472 15.25 17 15.25V16.75C20.1756 16.75 22.75 14.1756 22.75 11H21.25ZM17 6.75C19.3472 6.75 21.25 8.65279 21.25 11H22.75C22.75 7.82436 20.1756 5.25 17 5.25V6.75ZM14.025 7.96486C14.4856 7.51339 15.0475 7.16647 15.6726 6.96119L15.2045 5.53608C14.3565 5.8146 13.5965 6.28445 12.975 6.89371L14.025 7.96486ZM15.6726 6.96119C16.0893 6.82433 16.5352 6.75 17 6.75V5.25C16.3743 5.25 15.7704 5.35023 15.2045 5.53608L15.6726 6.96119ZM9 2.75C11.5785 2.75 13.794 4.3116 14.749 6.54367L16.1281 5.9536C14.9453 3.18924 12.2 1.25 9 1.25V2.75ZM9 16.75H11.5V15.25H9V16.75ZM11.5 12.25H11V13.75H11.5V12.25ZM13.75 14.5C13.75 13.2574 12.7426 12.25 11.5 12.25V13.75C11.9142 13.75 12.25 14.0858 12.25 14.5H13.75ZM11.5 16.75C12.7426 16.75 13.75 15.7426 13.75 14.5H12.25C12.25 14.9142 11.9142 15.25 11.5 15.25V16.75ZM12 19.75H18.5V18.25H12V19.75ZM18.5 21.25H18V22.75H18.5V21.25ZM19.25 20.5C19.25 20.9142 18.9142 21.25 18.5 21.25V22.75C19.7426 22.75 20.75 21.7426 20.75 20.5H19.25ZM18.5 19.75C18.9142 19.75 19.25 20.0858 19.25 20.5H20.75C20.75 19.2574 19.7426 18.25 18.5 18.25V19.75ZM9 18.25H7V19.75H9V18.25Z" fill="#28303F"/>
</svg>
