<svg width="24" height="24" viewBox="0 0 24 24" fill="none" xmlns="http://www.w3.org/2000/svg">
<path d="M12.975 7.89371C12.6792 8.18368 12.6745 8.65853 12.9644 8.95432C13.2544 9.25011 13.7292 9.25483 14.025 8.96486L12.975 7.89371ZM15.4386 7.24864L15.6726 7.96119L15.4386 7.24864ZM19.1245 15.6819C18.7659 15.8893 18.6434 16.3481 18.8508 16.7066C19.0582 17.0652 19.517 17.1877 19.8755 16.9803L19.1245 15.6819ZM5.12446 16.7127C5.483 16.9201 5.9418 16.7976 6.1492 16.4391C6.35661 16.0805 6.23409 15.6217 5.87554 15.4143L5.12446 16.7127ZM13 11H13.75C13.75 10.6842 13.5522 10.4023 13.2553 10.2948C12.9584 10.1873 12.626 10.2773 12.4238 10.5199L13 11ZM8 17L7.42383 16.5199C7.23753 16.7434 7.19737 17.0546 7.32081 17.3181C7.44424 17.5817 7.70899 17.75 8 17.75V17ZM11 17H11.75C11.75 16.5858 11.4142 16.25 11 16.25V17ZM11 21H10.25C10.25 21.3158 10.4478 21.5977 10.7447 21.7052C11.0416 21.8127 11.374 21.7227 11.5762 21.4801L11 21ZM16 15L16.5762 15.4801C16.7625 15.2566 16.8026 14.9454 16.6792 14.6819C16.5558 14.4183 16.291 14.25 16 14.25V15ZM13 15H12.25C12.25 15.4142 12.5858 15.75 13 15.75V15ZM2.75 10C2.75 6.54822 5.54822 3.75 9 3.75V2.25C4.71979 2.25 1.25 5.71979 1.25 10H2.75ZM17 7.75C19.3472 7.75 21.25 9.65279 21.25 12H22.75C22.75 8.82436 20.1756 6.25 17 6.25V7.75ZM14.025 8.96486C14.4856 8.51339 15.0475 8.16647 15.6726 7.96119L15.2045 6.53608C14.3565 6.8146 13.5965 7.28445 12.975 7.89371L14.025 8.96486ZM15.6726 7.96119C16.0893 7.82433 16.5352 7.75 17 7.75V6.25C16.3743 6.25 15.7704 6.35023 15.2045 6.53608L15.6726 7.96119ZM9 3.75C11.5785 3.75 13.794 5.3116 14.749 7.54367L16.1281 6.9536C14.9453 4.18924 12.2 2.25 9 2.25V3.75ZM21.25 12C21.25 13.5722 20.3967 14.9459 19.1245 15.6819L19.8755 16.9803C21.5923 15.9872 22.75 14.1293 22.75 12H21.25ZM5.87554 15.4143C4.00546 14.3325 2.75 12.3124 2.75 10H1.25C1.25 12.8695 2.80993 15.3738 5.12446 16.7127L5.87554 15.4143ZM12.4238 10.5199L7.42383 16.5199L8.57617 17.4801L13.5762 11.4801L12.4238 10.5199ZM8 17.75H11V16.25H8V17.75ZM10.25 17V21H11.75V17H10.25ZM11.5762 21.4801L16.5762 15.4801L15.4238 14.5199L10.4238 20.5199L11.5762 21.4801ZM16 14.25H13V15.75H16V14.25ZM13.75 15V11H12.25V15H13.75Z" fill="#28303F"/>
</svg>
