<svg width="24" height="24" viewBox="0 0 24 24" fill="none" xmlns="http://www.w3.org/2000/svg">
<path d="M12.975 10.8937C12.6792 11.1837 12.6745 11.6585 12.9644 11.9543C13.2544 12.2501 13.7292 12.2548 14.025 11.9649L12.975 10.8937ZM15.4386 10.2486L15.6726 10.9612L15.4386 10.2486ZM9 19.25C5.54822 19.25 2.75 16.4518 2.75 13H1.25C1.25 17.2802 4.71979 20.75 9 20.75V19.25ZM2.75 13C2.75 9.54822 5.54822 6.75 9 6.75V5.25C4.71979 5.25 1.25 8.71979 1.25 13H2.75ZM21.25 15C21.25 17.3472 19.3472 19.25 17 19.25V20.75C20.1756 20.75 22.75 18.1756 22.75 15H21.25ZM14.025 11.9649C14.4856 11.5134 15.0475 11.1665 15.6726 10.9612L15.2045 9.53608C14.3565 9.8146 13.5965 10.2845 12.975 10.8937L14.025 11.9649ZM15.6726 10.9612C16.0893 10.8243 16.5352 10.75 17 10.75V9.25C16.3743 9.25 15.7704 9.35023 15.2045 9.53608L15.6726 10.9612ZM17 19.25H9V20.75H17V19.25ZM17 4.75C19.3472 4.75 21.25 6.65279 21.25 9H22.75C22.75 5.82436 20.1756 3.25 17 3.25V4.75ZM13.1371 7.22485C13.8104 5.76259 15.2877 4.75 17 4.75V3.25C14.6807 3.25 12.6837 4.62311 11.7746 6.5975L13.1371 7.22485ZM9 6.75C10.1234 6.75 11.1755 7.04574 12.0851 7.56309L12.8267 6.25926C11.6971 5.61673 10.3902 5.25 9 5.25V6.75ZM12.0851 7.56309C13.268 8.23595 14.21 9.28387 14.749 10.5437L16.1281 9.9536C15.4593 8.39046 14.2922 7.09286 12.8267 6.25926L12.0851 7.56309ZM21.25 9C21.25 9.95763 20.9342 10.8393 20.4007 11.5496L21.6 12.4504C22.3219 11.4894 22.75 10.2936 22.75 9H21.25ZM17 10.75C18.39 10.75 19.624 11.4165 20.4007 12.4504L21.6 11.5496C20.5523 10.1546 18.8817 9.25 17 9.25V10.75ZM20.4007 12.4504C20.9342 13.1607 21.25 14.0424 21.25 15H22.75C22.75 13.7064 22.3219 12.5106 21.6 11.5496L20.4007 12.4504Z" fill="#28303F"/>
</svg>
