<svg width="24" height="24" viewBox="0 0 24 24" fill="none" xmlns="http://www.w3.org/2000/svg">
<path d="M15.4386 10.2486L15.6726 10.9612L15.4386 10.2486ZM16.1064 2L16.8364 2.17191C16.8944 1.92588 16.8245 1.66722 16.6505 1.48385C16.4766 1.30047 16.222 1.21704 15.9732 1.26192L16.1064 2ZM21.9733 6.40055L22.7193 6.32349C22.6933 6.07154 22.5419 5.84974 22.3167 5.73378C22.0915 5.61781 21.823 5.62334 21.6028 5.74847L21.9733 6.40055ZM12.0058 6.67641L11.6834 7.35356L12.0058 6.67641ZM19.9468 10.9602L19.5043 11.5658L19.9468 10.9602ZM7.8938 20.6716C8.30384 20.7302 8.68379 20.4453 8.74244 20.0353C8.8011 19.6253 8.51624 19.2453 8.1062 19.1867L7.8938 20.6716ZM16 19.25C15.5858 19.25 15.25 19.5858 15.25 20C15.25 20.4142 15.5858 20.75 16 20.75V19.25ZM12 18L12.5108 17.4509C12.2229 17.183 11.7771 17.183 11.4892 17.4509L12 18ZM2.75 13C2.75 9.54822 5.54822 6.75 9 6.75V5.25C4.71979 5.25 1.25 8.71979 1.25 13H2.75ZM21.25 15C21.25 17.3472 19.3472 19.25 17 19.25V20.75C20.1756 20.75 22.75 18.1756 22.75 15H21.25ZM14.025 11.9649C14.4856 11.5134 15.0475 11.1665 15.6726 10.9612L15.2045 9.53608C14.3565 9.8146 13.5965 10.2845 12.975 10.8937L14.025 11.9649ZM15.6726 10.9612C16.0893 10.8243 16.5352 10.75 17 10.75V9.25C16.3743 9.25 15.7704 9.35023 15.2045 9.53608L15.6726 10.9612ZM20 6.17038C18.2051 6.17038 16.75 4.7153 16.75 2.92038H15.25C15.25 5.54373 17.3766 7.67038 20 7.67038V6.17038ZM16.75 2.92038C16.75 2.66194 16.78 2.41147 16.8364 2.17191L15.3764 1.82809C15.2936 2.17952 15.25 2.54534 15.25 2.92038H16.75ZM21.6028 5.74847C21.1305 6.01685 20.5843 6.17038 20 6.17038V7.67038C20.8509 7.67038 21.6516 7.44599 22.3438 7.05263L21.6028 5.74847ZM21.2273 6.47762C21.2423 6.62292 21.25 6.77062 21.25 6.92038H22.75C22.75 6.71906 22.7396 6.51992 22.7193 6.32349L21.2273 6.47762ZM12.755 6.7124C12.8507 4.71917 14.3216 3.08413 16.2396 2.73808L15.9732 1.26192C13.3767 1.73039 11.3864 3.94029 11.2567 6.64042L12.755 6.7124ZM9 6.75C9.96199 6.75 10.8712 6.96682 11.6834 7.35356L12.3283 5.99926C11.319 5.51863 10.1898 5.25 9 5.25V6.75ZM11.6834 7.35356C13.0541 8.00625 14.1502 9.14402 14.749 10.5437L16.1281 9.9536C15.3852 8.2174 14.0276 6.80844 12.3283 5.99926L11.6834 7.35356ZM21.25 6.92038C21.25 8.33049 20.564 9.5803 19.5043 10.3546L20.3892 11.5658C21.8189 10.5212 22.75 8.82946 22.75 6.92038H21.25ZM17 10.75C17.9375 10.75 18.802 11.0526 19.5043 11.5658L20.3892 10.3546C19.4388 9.66013 18.2662 9.25 17 9.25V10.75ZM19.5043 11.5658C20.564 12.3401 21.25 13.5899 21.25 15H22.75C22.75 13.0909 21.8189 11.3992 20.3892 10.3546L19.5043 11.5658ZM8.1062 19.1867C5.07807 18.7535 2.75 16.148 2.75 13H1.25C1.25 16.9049 4.13735 20.1342 7.8938 20.6716L8.1062 19.1867ZM17 19.25H16V20.75H17V19.25ZM12.75 20.5C12.75 20.8946 12.636 21.0393 12.5675 21.0992C12.4803 21.1753 12.308 21.25 12 21.25V22.75C12.5204 22.75 13.0982 22.627 13.5538 22.2293C14.0282 21.8152 14.25 21.2099 14.25 20.5H12.75ZM12 21.25C11.692 21.25 11.5197 21.1753 11.4325 21.0992C11.364 21.0393 11.25 20.8946 11.25 20.5H9.75C9.75 21.2099 9.97183 21.8152 10.4462 22.2293C10.9018 22.627 11.4796 22.75 12 22.75V21.25ZM11.25 20.5C11.25 20.3838 11.2927 20.2077 11.4075 19.9742C11.5187 19.7478 11.675 19.5132 11.8442 19.2934C12.0118 19.0758 12.1812 18.8868 12.3095 18.7518C12.3732 18.6847 12.4257 18.632 12.4613 18.597C12.4791 18.5795 12.4926 18.5665 12.5011 18.5584C12.5053 18.5543 12.5083 18.5515 12.51 18.5499C12.5108 18.5491 12.5113 18.5487 12.5115 18.5485C12.5115 18.5485 12.5115 18.5485 12.5114 18.5486C12.5114 18.5486 12.5113 18.5487 12.5112 18.5488C12.5112 18.5488 12.5111 18.5489 12.511 18.5489C12.5109 18.549 12.5108 18.5491 12 18C11.4892 17.4509 11.489 17.451 11.4889 17.4511C11.4889 17.4511 11.4888 17.4512 11.4887 17.4513C11.4885 17.4515 11.4883 17.4517 11.488 17.4519C11.4876 17.4524 11.487 17.4529 11.4864 17.4535C11.4851 17.4547 11.4834 17.4563 11.4814 17.4582C11.4774 17.4619 11.4719 17.4671 11.4652 17.4735C11.4518 17.4864 11.433 17.5044 11.4098 17.5272C11.3634 17.5728 11.2987 17.6378 11.2218 17.7188C11.0688 17.88 10.8632 18.1088 10.6558 18.3782C10.45 18.6453 10.2313 18.9667 10.0613 19.3126C9.89476 19.6514 9.75 20.0639 9.75 20.5H11.25ZM12 18C11.4892 18.5491 11.4891 18.549 11.489 18.5489C11.4889 18.5489 11.4888 18.5488 11.4888 18.5488C11.4887 18.5487 11.4886 18.5486 11.4886 18.5486C11.4885 18.5485 11.4885 18.5485 11.4885 18.5485C11.4887 18.5487 11.4892 18.5491 11.49 18.5499C11.4917 18.5515 11.4947 18.5543 11.4989 18.5584C11.5074 18.5665 11.5209 18.5795 11.5387 18.597C11.5743 18.632 11.6268 18.6847 11.6905 18.7518C11.8188 18.8868 11.9882 19.0758 12.1558 19.2934C12.325 19.5132 12.4813 19.7478 12.5925 19.9742C12.7073 20.2077 12.75 20.3838 12.75 20.5H14.25C14.25 20.0639 14.1052 19.6514 13.9387 19.3126C13.7687 18.9667 13.55 18.6453 13.3442 18.3782C13.1368 18.1088 12.9312 17.88 12.7782 17.7188C12.7013 17.6378 12.6366 17.5728 12.5902 17.5272C12.567 17.5044 12.5482 17.4864 12.5348 17.4735C12.5281 17.4671 12.5226 17.4619 12.5186 17.4582C12.5166 17.4563 12.5149 17.4547 12.5136 17.4535C12.513 17.4529 12.5124 17.4524 12.512 17.4519C12.5117 17.4517 12.5115 17.4515 12.5113 17.4513C12.5112 17.4512 12.5111 17.4511 12.5111 17.4511C12.511 17.451 12.5108 17.4509 12 18Z" fill="#28303F"/>
</svg>
