<svg width="24" height="24" viewBox="0 0 24 24" fill="none" xmlns="http://www.w3.org/2000/svg">
<path d="M12.975 7.89371C12.6792 8.18368 12.6745 8.65853 12.9644 8.95432C13.2544 9.25011 13.7292 9.25483 14.025 8.96486L12.975 7.89371ZM15.4386 7.24864L15.6726 7.96119L15.4386 7.24864ZM18.6997 15.8967C18.3202 16.0625 18.1469 16.5047 18.3127 16.8842C18.4786 17.2638 18.9207 17.4371 19.3003 17.2712L18.6997 15.8967ZM4.57093 16.3604C4.91066 16.5974 5.37817 16.5141 5.61514 16.1744C5.85211 15.8347 5.76881 15.3671 5.42907 15.1302L4.57093 16.3604ZM8.67082 16.3354C8.85606 15.9649 8.70589 15.5144 8.33541 15.3292C7.96493 15.1439 7.51442 15.2941 7.32918 15.6646L8.67082 16.3354ZM6.32918 17.6646C6.14394 18.0351 6.29411 18.4856 6.66459 18.6708C7.03507 18.8561 7.48558 18.7059 7.67082 18.3354L6.32918 17.6646ZM16.6708 16.3354C16.8561 15.9649 16.7059 15.5144 16.3354 15.3292C15.9649 15.1439 15.5144 15.2941 15.3292 15.6646L16.6708 16.3354ZM14.3292 17.6646C14.1439 18.0351 14.2941 18.4856 14.6646 18.6708C15.0351 18.8561 15.4856 18.7059 15.6708 18.3354L14.3292 17.6646ZM12.6964 16.2785C12.8502 15.894 12.6631 15.4575 12.2785 15.3036C11.894 15.1498 11.4575 15.3369 11.3036 15.7215L12.6964 16.2785ZM9.30364 20.7215C9.14981 21.106 9.33687 21.5425 9.72146 21.6964C10.106 21.8502 10.5425 21.6631 10.6964 21.2785L9.30364 20.7215ZM2.75 10C2.75 6.54822 5.54822 3.75 9 3.75V2.25C4.71979 2.25 1.25 5.71979 1.25 10H2.75ZM17 7.75C19.3472 7.75 21.25 9.65279 21.25 12H22.75C22.75 8.82436 20.1756 6.25 17 6.25V7.75ZM14.025 8.96486C14.4856 8.51339 15.0475 8.16647 15.6726 7.96119L15.2045 6.53608C14.3565 6.8146 13.5965 7.28445 12.975 7.89371L14.025 8.96486ZM15.6726 7.96119C16.0893 7.82433 16.5352 7.75 17 7.75V6.25C16.3743 6.25 15.7704 6.35023 15.2045 6.53608L15.6726 7.96119ZM9 3.75C11.5785 3.75 13.794 5.3116 14.749 7.54367L16.1281 6.9536C14.9453 4.18924 12.2 2.25 9 2.25V3.75ZM21.25 12C21.25 13.7416 20.2023 15.2402 18.6997 15.8967L19.3003 17.2712C21.3295 16.3846 22.75 14.359 22.75 12H21.25ZM5.42907 15.1302C3.80806 13.9995 2.75 12.1232 2.75 10H1.25C1.25 12.6342 2.56497 14.9613 4.57093 16.3604L5.42907 15.1302ZM7.32918 15.6646L6.32918 17.6646L7.67082 18.3354L8.67082 16.3354L7.32918 15.6646ZM15.3292 15.6646L14.3292 17.6646L15.6708 18.3354L16.6708 16.3354L15.3292 15.6646ZM11.3036 15.7215L9.30364 20.7215L10.6964 21.2785L12.6964 16.2785L11.3036 15.7215Z" fill="#28303F"/>
</svg>
