<svg width="24" height="24" viewBox="0 0 24 24" fill="none" xmlns="http://www.w3.org/2000/svg">
<path d="M12.75 21C12.75 21.4142 12.4142 21.75 12 21.75C11.5858 21.75 11.25 21.4142 11.25 21C11.25 20.5858 11.5858 20.25 12 20.25C12.4142 20.25 12.75 20.5858 12.75 21Z" fill="#28303F"/>
<path d="M12.75 18C12.75 18.4142 12.4142 18.75 12 18.75C11.5858 18.75 11.25 18.4142 11.25 18C11.25 17.5858 11.5858 17.25 12 17.25C12.4142 17.25 12.75 17.5858 12.75 18Z" fill="#28303F"/>
<path d="M12.975 9.89371C12.6792 10.1837 12.6745 10.6585 12.9644 10.9543C13.2544 11.2501 13.7292 11.2548 14.025 10.9649L12.975 9.89371ZM15.4386 9.24864L15.6726 9.96119L15.4386 9.24864ZM12.4559 5.91117L12.0851 6.56309L12.4559 5.91117ZM21.0004 11L20.4007 11.4504L21.0004 11ZM18.2753 18.0556C17.8801 18.1797 17.6603 18.6007 17.7845 18.9958C17.9086 19.391 18.3296 19.6108 18.7247 19.4866L18.2753 18.0556ZM5.12446 18.7127C5.483 18.9201 5.9418 18.7976 6.1492 18.4391C6.35661 18.0805 6.23409 17.6217 5.87554 17.4143L5.12446 18.7127ZM2.75 12C2.75 8.54822 5.54822 5.75 9 5.75V4.25C4.71979 4.25 1.25 7.71979 1.25 12H2.75ZM14.025 10.9649C14.4856 10.5134 15.0475 10.1665 15.6726 9.96119L15.2045 8.53608C14.3565 8.8146 13.5965 9.28445 12.975 9.89371L14.025 10.9649ZM15.6726 9.96119C16.0893 9.82433 16.5352 9.75 17 9.75V8.25C16.3743 8.25 15.7704 8.35023 15.2045 8.53608L15.6726 9.96119ZM17 3.75C19.3472 3.75 21.25 5.65279 21.25 8H22.75C22.75 4.82436 20.1756 2.25 17 2.25V3.75ZM13.1371 6.22485C13.8104 4.76259 15.2877 3.75 17 3.75V2.25C14.6807 2.25 12.6837 3.62311 11.7746 5.5975L13.1371 6.22485ZM9 5.75C10.1234 5.75 11.1755 6.04574 12.0851 6.56309L12.8267 5.25926C11.6971 4.61673 10.3902 4.25 9 4.25V5.75ZM12.0851 6.56309C13.268 7.23595 14.21 8.28387 14.749 9.54367L16.1281 8.9536C15.4593 7.39046 14.2922 6.09286 12.8267 5.25926L12.0851 6.56309ZM21.25 8C21.25 8.95763 20.9342 9.83933 20.4007 10.5496L21.6 11.4504C22.3219 10.4894 22.75 9.29358 22.75 8H21.25ZM17 9.75C18.39 9.75 19.624 10.4165 20.4007 11.4504L21.6 10.5496C20.5523 9.15464 18.8817 8.25 17 8.25V9.75ZM20.4007 11.4504C20.9342 12.1607 21.25 13.0424 21.25 14H22.75C22.75 12.7064 22.3219 11.5106 21.6 10.5496L20.4007 11.4504ZM21.25 14C21.25 15.9019 20.0002 17.5138 18.2753 18.0556L18.7247 19.4866C21.0569 18.7541 22.75 16.5758 22.75 14H21.25ZM5.87554 17.4143C4.00546 16.3325 2.75 14.3124 2.75 12H1.25C1.25 14.8695 2.80993 17.3738 5.12446 18.7127L5.87554 17.4143Z" fill="#28303F"/>
<path d="M9.5 19C9.5 19.4142 9.16421 19.75 8.75 19.75C8.33579 19.75 8 19.4142 8 19C8 18.5858 8.33579 18.25 8.75 18.25C9.16421 18.25 9.5 18.5858 9.5 19Z" fill="#28303F"/>
<path d="M16 19C16 19.4142 15.6642 19.75 15.25 19.75C14.8358 19.75 14.5 19.4142 14.5 19C14.5 18.5858 14.8358 18.25 15.25 18.25C15.6642 18.25 16 18.5858 16 19Z" fill="#28303F"/>
<path d="M9.5 16C9.5 16.4142 9.16421 16.75 8.75 16.75C8.33579 16.75 8 16.4142 8 16C8 15.5858 8.33579 15.25 8.75 15.25C9.16421 15.25 9.5 15.5858 9.5 16Z" fill="#28303F"/>
<path d="M16 16C16 16.4142 15.6642 16.75 15.25 16.75C14.8358 16.75 14.5 16.4142 14.5 16C14.5 15.5858 14.8358 15.25 15.25 15.25C15.6642 15.25 16 15.5858 16 16Z" fill="#28303F"/>
</svg>
