<svg width="24" height="24" viewBox="0 0 24 24" fill="none" xmlns="http://www.w3.org/2000/svg">
<path d="M12.975 7.89371C12.6792 8.18368 12.6745 8.65853 12.9644 8.95432C13.2544 9.25011 13.7292 9.25483 14.025 8.96486L12.975 7.89371ZM15.4386 7.24864L15.6726 7.96119L15.4386 7.24864ZM16 16.25C15.5858 16.25 15.25 16.5858 15.25 17C15.25 17.4142 15.5858 17.75 16 17.75V16.25ZM7.8938 17.6716C8.30384 17.7302 8.68379 17.4453 8.74244 17.0353C8.8011 16.6253 8.51624 16.2453 8.1062 16.1867L7.8938 17.6716ZM12 17L12.5108 16.4509C12.2229 16.183 11.7771 16.183 11.4892 16.4509L12 17ZM2.75 10C2.75 6.54822 5.54822 3.75 9 3.75V2.25C4.71979 2.25 1.25 5.71979 1.25 10H2.75ZM21.25 12C21.25 14.3472 19.3472 16.25 17 16.25V17.75C20.1756 17.75 22.75 15.1756 22.75 12H21.25ZM17 7.75C19.3472 7.75 21.25 9.65279 21.25 12H22.75C22.75 8.82436 20.1756 6.25 17 6.25V7.75ZM14.025 8.96486C14.4856 8.51339 15.0475 8.16647 15.6726 7.96119L15.2045 6.53608C14.3565 6.8146 13.5965 7.28445 12.975 7.89371L14.025 8.96486ZM15.6726 7.96119C16.0893 7.82433 16.5352 7.75 17 7.75V6.25C16.3743 6.25 15.7704 6.35023 15.2045 6.53608L15.6726 7.96119ZM9 3.75C11.5785 3.75 13.794 5.3116 14.749 7.54367L16.1281 6.9536C14.9453 4.18924 12.2 2.25 9 2.25V3.75ZM17 16.25H16V17.75H17V16.25ZM8.1062 16.1867C5.07807 15.7535 2.75 13.148 2.75 10H1.25C1.25 13.905 4.13735 17.1342 7.8938 17.6716L8.1062 16.1867ZM12.75 19.5C12.75 19.8946 12.636 20.0393 12.5675 20.0992C12.4803 20.1753 12.308 20.25 12 20.25V21.75C12.5204 21.75 13.0982 21.627 13.5538 21.2293C14.0282 20.8152 14.25 20.2099 14.25 19.5H12.75ZM12 20.25C11.692 20.25 11.5197 20.1753 11.4325 20.0992C11.364 20.0393 11.25 19.8946 11.25 19.5H9.75C9.75 20.2099 9.97183 20.8152 10.4462 21.2293C10.9018 21.627 11.4796 21.75 12 21.75V20.25ZM11.25 19.5C11.25 19.3838 11.2927 19.2077 11.4075 18.9742C11.5187 18.7478 11.675 18.5132 11.8442 18.2934C12.0118 18.0758 12.1812 17.8868 12.3095 17.7518C12.3732 17.6847 12.4257 17.632 12.4613 17.597C12.4791 17.5795 12.4926 17.5665 12.5011 17.5584C12.5053 17.5543 12.5083 17.5515 12.51 17.5499C12.5108 17.5491 12.5113 17.5487 12.5115 17.5485C12.5115 17.5485 12.5115 17.5485 12.5114 17.5486C12.5114 17.5486 12.5113 17.5487 12.5112 17.5488C12.5112 17.5488 12.5111 17.5489 12.511 17.5489C12.5109 17.549 12.5108 17.5491 12 17C11.4892 16.4509 11.489 16.451 11.4889 16.4511C11.4889 16.4511 11.4888 16.4512 11.4887 16.4513C11.4885 16.4515 11.4883 16.4517 11.488 16.4519C11.4876 16.4524 11.487 16.4529 11.4864 16.4535C11.4851 16.4547 11.4834 16.4563 11.4814 16.4582C11.4774 16.4619 11.4719 16.4671 11.4652 16.4735C11.4518 16.4864 11.433 16.5044 11.4098 16.5272C11.3634 16.5728 11.2987 16.6378 11.2218 16.7188C11.0688 16.88 10.8632 17.1088 10.6558 17.3782C10.45 17.6453 10.2313 17.9667 10.0613 18.3126C9.89476 18.6514 9.75 19.0639 9.75 19.5H11.25ZM12 17C11.4892 17.5491 11.4891 17.549 11.489 17.5489C11.4889 17.5489 11.4888 17.5488 11.4888 17.5488C11.4887 17.5487 11.4886 17.5486 11.4886 17.5486C11.4885 17.5485 11.4885 17.5485 11.4885 17.5485C11.4887 17.5487 11.4892 17.5491 11.49 17.5499C11.4917 17.5515 11.4947 17.5543 11.4989 17.5584C11.5074 17.5665 11.5209 17.5795 11.5387 17.597C11.5743 17.632 11.6268 17.6847 11.6905 17.7518C11.8188 17.8868 11.9882 18.0758 12.1558 18.2934C12.325 18.5132 12.4813 18.7478 12.5925 18.9742C12.7073 19.2077 12.75 19.3838 12.75 19.5H14.25C14.25 19.0639 14.1052 18.6514 13.9387 18.3126C13.7687 17.9667 13.55 17.6453 13.3442 17.3782C13.1368 17.1088 12.9312 16.88 12.7782 16.7188C12.7013 16.6378 12.6366 16.5728 12.5902 16.5272C12.567 16.5044 12.5482 16.4864 12.5348 16.4735C12.5281 16.4671 12.5226 16.4619 12.5186 16.4582C12.5166 16.4563 12.5149 16.4547 12.5136 16.4535C12.513 16.4529 12.5124 16.4524 12.512 16.4519C12.5117 16.4517 12.5115 16.4515 12.5113 16.4513C12.5112 16.4512 12.5111 16.4511 12.5111 16.4511C12.511 16.451 12.5108 16.4509 12 17Z" fill="#28303F"/>
</svg>
