<svg width="24" height="24" viewBox="0 0 24 24" fill="none" xmlns="http://www.w3.org/2000/svg">
<path d="M12.975 9.89371C12.6792 10.1837 12.6745 10.6585 12.9644 10.9543C13.2544 11.2501 13.7292 11.2548 14.025 10.9649L12.975 9.89371ZM15.4386 9.24864L15.6726 9.96119L15.4386 9.24864ZM9 18.25C5.54822 18.25 2.75 15.4518 2.75 12H1.25C1.25 16.2802 4.71979 19.75 9 19.75V18.25ZM2.75 12C2.75 8.54822 5.54822 5.75 9 5.75V4.25C4.71979 4.25 1.25 7.71979 1.25 12H2.75ZM21.25 14C21.25 16.3472 19.3472 18.25 17 18.25V19.75C20.1756 19.75 22.75 17.1756 22.75 14H21.25ZM17 9.75C19.3472 9.75 21.25 11.6528 21.25 14H22.75C22.75 10.8244 20.1756 8.25 17 8.25V9.75ZM14.025 10.9649C14.4856 10.5134 15.0475 10.1665 15.6726 9.96119L15.2045 8.53608C14.3565 8.8146 13.5965 9.28445 12.975 9.89371L14.025 10.9649ZM15.6726 9.96119C16.0893 9.82433 16.5352 9.75 17 9.75V8.25C16.3743 8.25 15.7704 8.35023 15.2045 8.53608L15.6726 9.96119ZM9 5.75C11.5785 5.75 13.794 7.3116 14.749 9.54367L16.1281 8.9536C14.9453 6.18924 12.2 4.25 9 4.25V5.75ZM17 18.25H9V19.75H17V18.25Z" fill="#28303F"/>
</svg>
