<svg width="24" height="24" viewBox="0 0 24 24" fill="none" xmlns="http://www.w3.org/2000/svg">
<path d="M12.25 2.47602L11.6489 2.02756V2.02756L12.25 2.47602ZM5.2522 11.8564L4.65105 11.408H4.65105L5.2522 11.8564ZM11.75 21.524L11.1488 21.0755V21.0755L11.75 21.524ZM18.7478 12.1436L18.1466 11.6951L18.7478 12.1436ZM11.6489 2.02756L4.65105 11.408L5.85336 12.3049L12.8512 2.92448L11.6489 2.02756ZM6.17877 14.6015H8.47024V13.1015H6.17877V14.6015ZM8.89683 15.0858V20.7633H10.3968V15.0858H8.89683ZM12.3511 21.9724L19.3489 12.592L18.1466 11.6951L11.1488 21.0755L12.3511 21.9724ZM17.8212 9.39852H15.5298V10.8985H17.8212V9.39852ZM15.1032 8.9142V3.23675H13.6032V8.9142H15.1032ZM15.5298 9.39852C15.3276 9.39852 15.1032 9.21594 15.1032 8.9142H13.6032C13.6032 9.97585 14.4323 10.8985 15.5298 10.8985V9.39852ZM19.3489 12.592C20.2819 11.3414 19.4858 9.39852 17.8212 9.39852V10.8985C17.9804 10.8985 18.1196 10.9877 18.1987 11.1581C18.2787 11.3302 18.2684 11.5318 18.1466 11.6951L19.3489 12.592ZM8.89683 20.7633C8.89683 21.6821 9.46374 22.3746 10.1848 22.6354C10.9106 22.898 11.7936 22.7198 12.3511 21.9724L11.1488 21.0755C11.017 21.2522 10.8484 21.2804 10.695 21.2249C10.5368 21.1677 10.3968 21.0178 10.3968 20.7633H8.89683ZM8.47024 14.6015C8.67239 14.6015 8.89683 14.7841 8.89683 15.0858H10.3968C10.3968 14.0242 9.56772 13.1015 8.47024 13.1015V14.6015ZM4.65105 11.408C3.71808 12.6586 4.5142 14.6015 6.17877 14.6015V13.1015C6.01964 13.1015 5.8804 13.0123 5.80127 12.8419C5.72133 12.6698 5.73155 12.4682 5.85336 12.3049L4.65105 11.408ZM12.8512 2.92448C12.983 2.74782 13.1516 2.71962 13.305 2.77512C13.4632 2.83234 13.6032 2.98215 13.6032 3.23675H15.1032C15.1032 2.31794 14.5363 1.62537 13.8152 1.36456C13.0894 1.10203 12.2064 1.28017 11.6489 2.02756L12.8512 2.92448Z" fill="#28303F"/>
</svg>
