<svg width="24" height="24" viewBox="0 0 24 24" fill="none" xmlns="http://www.w3.org/2000/svg">
<path d="M14.4746 3L14.6921 2.28224C14.4274 2.20199 14.1399 2.27403 13.9443 2.46967C13.7486 2.66531 13.6766 2.95277 13.7568 3.21755L14.4746 3ZM3 14.4746L3.21755 13.7568C2.95277 13.6766 2.66531 13.7486 2.46967 13.9443C2.27403 14.1399 2.20199 14.4274 2.28224 14.6921L3 14.4746ZM14.1187 5.67163C14.1187 10.3368 10.3368 14.1187 5.67163 14.1187V15.6187C11.1652 15.6187 15.6187 11.1652 15.6187 5.67163H14.1187ZM20.25 11.803C20.25 16.4681 16.4681 20.25 11.803 20.25V21.75C17.2966 21.75 21.75 17.2966 21.75 11.803H20.25ZM14.2571 3.71776C17.7261 4.7692 20.25 7.99232 20.25 11.803H21.75C21.75 7.3132 18.776 3.52002 14.6921 2.28224L14.2571 3.71776ZM13.7568 3.21755C13.992 3.99326 14.1187 4.81697 14.1187 5.67163H15.6187C15.6187 4.66795 15.4698 3.6977 15.1924 2.78245L13.7568 3.21755ZM11.803 20.25C7.99232 20.25 4.7692 17.7261 3.71776 14.2571L2.28224 14.6921C3.52002 18.776 7.3132 21.75 11.803 21.75V20.25ZM5.67163 14.1187C4.81697 14.1187 3.99326 13.992 3.21755 13.7568L2.78245 15.1924C3.6977 15.4698 4.66795 15.6187 5.67163 15.6187V14.1187Z" fill="#28303F"/>
</svg>
