<svg width="24" height="24" viewBox="0 0 24 24" fill="none" xmlns="http://www.w3.org/2000/svg">
<path d="M10.4585 3.46967C10.1656 3.17678 9.69077 3.17678 9.39788 3.46967C9.10499 3.76256 9.10499 4.23744 9.39788 4.53033L10.4585 3.46967ZM13.3424 4.58579L13.8728 5.11612L13.8728 5.11612L13.3424 4.58579ZM14.4585 4.53033C14.7514 4.23744 14.7514 3.76256 14.4585 3.46967C14.1656 3.17678 13.6908 3.17678 13.3979 3.46967L14.4585 4.53033ZM9.39788 19.4697C9.10499 19.7626 9.10499 20.2374 9.39788 20.5303C9.69077 20.8232 10.1656 20.8232 10.4585 20.5303L9.39788 19.4697ZM13.3979 20.5303C13.6908 20.8232 14.1656 20.8232 14.4585 20.5303C14.7514 20.2374 14.7514 19.7626 14.4585 19.4697L13.3979 20.5303ZM12.6782 6V5.25H11.1782V6H12.6782ZM11.1782 18V18.75H12.6782V18H11.1782ZM3.80589 9.00761C3.40579 9.11482 3.16836 9.52607 3.27556 9.92617C3.38277 10.3263 3.79402 10.5637 4.19412 10.4565L3.80589 9.00761ZM4.80021 9.51764L4.99432 10.2421H4.99432L4.80021 9.51764ZM6.21442 7.06815L5.48997 7.26227L6.21442 7.06815ZM6.72445 6.07384C6.61724 5.67374 6.20599 5.4363 5.80589 5.54351C5.40579 5.65072 5.16835 6.06197 5.27556 6.46207L6.72445 6.07384ZM17.132 17.9262C17.2392 18.3263 17.6504 18.5637 18.0505 18.4565C18.4506 18.3493 18.6881 17.938 18.5809 17.5379L17.132 17.9262ZM17.642 16.9319L18.3664 16.7377V16.7377L17.642 16.9319ZM19.0562 14.4824L19.2503 15.2068L19.0562 14.4824ZM20.0505 14.9924C20.4506 14.8852 20.6881 14.4739 20.5809 14.0738C20.4736 13.6737 20.0624 13.4363 19.6623 13.5435L20.0505 14.9924ZM7.10707 8.35048L6.45755 7.97548L5.70755 9.27452L6.35707 9.64952L7.10707 8.35048ZM16.7494 15.6495L17.3989 16.0245L18.1489 14.7255L17.4994 14.3505L16.7494 15.6495ZM18.5809 6.46206C18.6881 6.06196 18.4506 5.65071 18.0505 5.5435C17.6504 5.43629 17.2392 5.67373 17.132 6.07383L18.5809 6.46206ZM17.642 7.06814L18.3664 7.26226L17.642 7.06814ZM19.0562 9.51763L19.2503 8.79319L19.0562 9.51763ZM19.6623 10.4565C20.0624 10.5637 20.4736 10.3263 20.5809 9.92616C20.6881 9.52606 20.4506 9.11481 20.0505 9.0076L19.6623 10.4565ZM4.19411 13.5435C3.79401 13.4363 3.38276 13.6737 3.27556 14.0738C3.16835 14.4739 3.40579 14.8852 3.80589 14.9924L4.19411 13.5435ZM4.8002 14.4824L4.99431 13.7579H4.99431L4.8002 14.4824ZM6.21441 16.9318L6.93886 17.126L6.21441 16.9318ZM5.27556 17.5379C5.16835 17.938 5.40579 18.3493 5.80589 18.4565C6.20599 18.5637 6.61724 18.3263 6.72444 17.9262L5.27556 17.5379ZM17.4994 9.64952L18.1489 9.27452L17.3989 7.97548L16.7494 8.35048L17.4994 9.64952ZM6.35706 14.3505L5.70754 14.7255L6.45754 16.0245L7.10706 15.6495L6.35706 14.3505ZM9.39788 4.53033L9.98367 5.11612L11.0443 4.05546L10.4585 3.46967L9.39788 4.53033ZM13.8728 5.11612L14.4585 4.53033L13.3979 3.46967L12.8121 4.05546L13.8728 5.11612ZM9.98367 5.11612C11.0576 6.19006 12.7988 6.19006 13.8728 5.11612L12.8121 4.05546C12.3239 4.54361 11.5325 4.54361 11.0443 4.05546L9.98367 5.11612ZM10.4585 20.5303L11.0443 19.9445L9.98367 18.8839L9.39788 19.4697L10.4585 20.5303ZM12.8121 19.9445L13.3979 20.5303L14.4585 19.4697L13.8728 18.8839L12.8121 19.9445ZM11.0443 19.9445C11.5325 19.4564 12.3239 19.4564 12.8121 19.9445L13.8728 18.8839C12.7988 17.8099 11.0576 17.8099 9.98367 18.8839L11.0443 19.9445ZM11.1782 6V18H12.6782V6H11.1782ZM4.19412 10.4565L4.99432 10.2421L4.60609 8.7932L3.80589 9.00761L4.19412 10.4565ZM6.93886 6.87404L6.72445 6.07384L5.27556 6.46207L5.48997 7.26227L6.93886 6.87404ZM4.99432 10.2421C6.46135 9.849 7.33195 8.34107 6.93886 6.87404L5.48997 7.26227C5.66865 7.9291 5.27292 8.61452 4.60609 8.7932L4.99432 10.2421ZM18.5809 17.5379L18.3664 16.7377L16.9176 17.126L17.132 17.9262L18.5809 17.5379ZM19.2503 15.2068L20.0505 14.9924L19.6623 13.5435L18.8621 13.7579L19.2503 15.2068ZM18.3664 16.7377C18.1878 16.0709 18.5835 15.3855 19.2503 15.2068L18.8621 13.7579C17.3951 14.151 16.5245 15.6589 16.9176 17.126L18.3664 16.7377ZM6.35707 9.64952L16.7494 15.6495L17.4994 14.3505L7.10707 8.35048L6.35707 9.64952ZM17.132 6.07383L16.9176 6.87403L18.3664 7.26226L18.5809 6.46206L17.132 6.07383ZM18.8621 10.2421L19.6623 10.4565L20.0505 9.0076L19.2503 8.79319L18.8621 10.2421ZM16.9176 6.87403C16.5245 8.34106 17.3951 9.84899 18.8621 10.2421L19.2503 8.79319C18.5835 8.61451 18.1878 7.92909 18.3664 7.26226L16.9176 6.87403ZM3.80589 14.9924L4.60609 15.2068L4.99431 13.7579L4.19411 13.5435L3.80589 14.9924ZM5.48997 16.7377L5.27556 17.5379L6.72444 17.9262L6.93886 17.126L5.48997 16.7377ZM4.60609 15.2068C5.27292 15.3855 5.66865 16.0709 5.48997 16.7377L6.93886 17.126C7.33195 15.6589 6.46135 14.151 4.99431 13.7579L4.60609 15.2068ZM16.7494 8.35048L6.35706 14.3505L7.10706 15.6495L17.4994 9.64952L16.7494 8.35048Z" fill="#28303F"/>
</svg>
