<svg width="24" height="24" viewBox="0 0 24 24" fill="none" xmlns="http://www.w3.org/2000/svg">
<path d="M12.75 2C12.75 1.58579 12.4142 1.25 12 1.25C11.5858 1.25 11.25 1.58579 11.25 2H12.75ZM11.25 3C11.25 3.41421 11.5858 3.75 12 3.75C12.4142 3.75 12.75 3.41421 12.75 3H11.25ZM12.75 21C12.75 20.5858 12.4142 20.25 12 20.25C11.5858 20.25 11.25 20.5858 11.25 21H12.75ZM11.25 22C11.25 22.4142 11.5858 22.75 12 22.75C12.4142 22.75 12.75 22.4142 12.75 22H11.25ZM19.6014 5.45927C19.8943 5.16638 19.8943 4.6915 19.6014 4.39861C19.3085 4.10572 18.8336 4.10572 18.5407 4.39861L19.6014 5.45927ZM17.8336 5.10572C17.5407 5.39861 17.5407 5.87348 17.8336 6.16638C18.1265 6.45927 18.6014 6.45927 18.8943 6.16638L17.8336 5.10572ZM6.16638 18.8943C6.45927 18.6014 6.45927 18.1265 6.16638 17.8336C5.87348 17.5407 5.39861 17.5407 5.10572 17.8336L6.16638 18.8943ZM4.39861 18.5407C4.10572 18.8336 4.10572 19.3085 4.39861 19.6014C4.6915 19.8943 5.16638 19.8943 5.45927 19.6014L4.39861 18.5407ZM22 12.75C22.4142 12.75 22.75 12.4142 22.75 12C22.75 11.5858 22.4142 11.25 22 11.25V12.75ZM21 11.25C20.5858 11.25 20.25 11.5858 20.25 12C20.25 12.4142 20.5858 12.75 21 12.75V11.25ZM3 12.75C3.41421 12.75 3.75 12.4142 3.75 12C3.75 11.5858 3.41421 11.25 3 11.25V12.75ZM2 11.25C1.58579 11.25 1.25 11.5858 1.25 12C1.25 12.4142 1.58579 12.75 2 12.75V11.25ZM18.5407 19.6014C18.8336 19.8943 19.3085 19.8943 19.6014 19.6014C19.8943 19.3085 19.8943 18.8336 19.6014 18.5407L18.5407 19.6014ZM18.8943 17.8336C18.6014 17.5407 18.1265 17.5407 17.8336 17.8336C17.5407 18.1265 17.5407 18.6014 17.8336 18.8943L18.8943 17.8336ZM5.10572 6.16638C5.39861 6.45927 5.87348 6.45927 6.16638 6.16638C6.45927 5.87348 6.45927 5.39861 6.16638 5.10572L5.10572 6.16638ZM5.45927 4.39861C5.16638 4.10572 4.6915 4.10572 4.39861 4.39861C4.10572 4.6915 4.10572 5.16638 4.39861 5.45927L5.45927 4.39861ZM17.25 12C17.25 14.8995 14.8995 17.25 12 17.25V18.75C15.7279 18.75 18.75 15.7279 18.75 12H17.25ZM12 17.25C9.1005 17.25 6.75 14.8995 6.75 12H5.25C5.25 15.7279 8.27208 18.75 12 18.75V17.25ZM6.75 12C6.75 9.1005 9.1005 6.75 12 6.75V5.25C8.27208 5.25 5.25 8.27208 5.25 12H6.75ZM12 6.75C14.8995 6.75 17.25 9.1005 17.25 12H18.75C18.75 8.27208 15.7279 5.25 12 5.25V6.75ZM11.25 2V3H12.75V2H11.25ZM11.25 21V22H12.75V21H11.25ZM18.5407 4.39861L17.8336 5.10572L18.8943 6.16638L19.6014 5.45927L18.5407 4.39861ZM5.10572 17.8336L4.39861 18.5407L5.45927 19.6014L6.16638 18.8943L5.10572 17.8336ZM22 11.25H21V12.75H22V11.25ZM3 11.25H2V12.75H3V11.25ZM19.6014 18.5407L18.8943 17.8336L17.8336 18.8943L18.5407 19.6014L19.6014 18.5407ZM6.16638 5.10572L5.45927 4.39861L4.39861 5.45927L5.10572 6.16638L6.16638 5.10572Z" fill="#28303F"/>
</svg>
