<svg width="24" height="24" viewBox="0 0 24 24" fill="none" xmlns="http://www.w3.org/2000/svg">
<path d="M20.3085 8.75201C20.6014 8.45912 20.6014 7.98424 20.3085 7.69135C20.0156 7.39846 19.5407 7.39846 19.2478 7.69135L20.3085 8.75201ZM17.8336 9.10556C17.5407 9.39846 17.5407 9.87333 17.8336 10.1662C18.1265 10.4591 18.6014 10.4591 18.8943 10.1662L17.8336 9.10556ZM4.75216 7.69138C4.45927 7.39849 3.9844 7.39849 3.6915 7.69138C3.39861 7.98427 3.39861 8.45915 3.6915 8.75204L4.75216 7.69138ZM5.10572 10.1663C5.39861 10.4591 5.87348 10.4591 6.16638 10.1663C6.45927 9.87336 6.45927 9.39849 6.16638 9.10559L5.10572 10.1663ZM11.2929 2.70696L11.8232 3.23729V3.23729L11.2929 2.70696ZM9.46967 3.46952C9.17678 3.76241 9.17678 4.23729 9.46967 4.53018C9.76256 4.82307 10.2374 4.82307 10.5303 4.53018L9.46967 3.46952ZM12.7071 2.70696L12.1768 3.23729V3.23729L12.7071 2.70696ZM13.4697 4.53018C13.7626 4.82307 14.2374 4.82307 14.5303 4.53018C14.8232 4.23729 14.8232 3.76241 14.5303 3.46952L13.4697 4.53018ZM11.25 6.99985C11.25 7.41406 11.5858 7.74985 12 7.74985C12.4142 7.74985 12.75 7.41406 12.75 6.99985H11.25ZM12.75 2.99985C12.75 2.58564 12.4142 2.24985 12 2.24985C11.5858 2.24985 11.25 2.58564 11.25 2.99985H12.75ZM3 15.2498C2.58579 15.2498 2.25 15.5856 2.25 15.9998C2.25 16.4141 2.58579 16.7498 3 16.7498V15.2498ZM21 16.7498C21.4142 16.7498 21.75 16.4141 21.75 15.9998C21.75 15.5856 21.4142 15.2498 21 15.2498V16.7498ZM6 18.2498C5.58579 18.2498 5.25 18.5856 5.25 18.9998C5.25 19.4141 5.58579 19.7498 6 19.7498V18.2498ZM18 19.7498C18.4142 19.7498 18.75 19.4141 18.75 18.9998C18.75 18.5856 18.4142 18.2498 18 18.2498V19.7498ZM9 21.2498C8.58579 21.2498 8.25 21.5856 8.25 21.9998C8.25 22.4141 8.58579 22.7498 9 22.7498V21.2498ZM15 22.7498C15.4142 22.7498 15.75 22.4141 15.75 21.9998C15.75 21.5856 15.4142 21.2498 15 21.2498V22.7498ZM6.75 15.9998C6.75 13.1004 9.1005 10.7498 12 10.7498V9.24985C8.27208 9.24985 5.25 12.2719 5.25 15.9998H6.75ZM12 10.7498C14.8995 10.7498 17.25 13.1004 17.25 15.9998H18.75C18.75 12.2719 15.7279 9.24985 12 9.24985V10.7498ZM19.2478 7.69135L17.8336 9.10556L18.8943 10.1662L20.3085 8.75201L19.2478 7.69135ZM3.6915 8.75204L5.10572 10.1663L6.16638 9.10559L4.75216 7.69138L3.6915 8.75204ZM10.7626 2.17663L9.46967 3.46952L10.5303 4.53018L11.8232 3.23729L10.7626 2.17663ZM12.1768 3.23729L13.4697 4.53018L14.5303 3.46952L13.2374 2.17663L12.1768 3.23729ZM12.75 6.99985V2.99985H11.25V6.99985H12.75ZM11.8232 3.23729C11.9209 3.13965 12.0791 3.13965 12.1768 3.23729L13.2374 2.17663C12.554 1.49321 11.446 1.49321 10.7626 2.17663L11.8232 3.23729ZM3 16.7498H21V15.2498H3V16.7498ZM6 19.7498H18V18.2498H6V19.7498ZM9 22.7498H15V21.2498H9V22.7498Z" fill="#28303F"/>
</svg>
