<svg width="24" height="24" viewBox="0 0 24 24" fill="none" xmlns="http://www.w3.org/2000/svg">
<path d="M12.7071 6.79289L12.1768 6.26256L12.7071 6.79289ZM14.5303 6.03033C14.8232 5.73744 14.8232 5.26256 14.5303 4.96967C14.2374 4.67678 13.7626 4.67678 13.4697 4.96967L14.5303 6.03033ZM11.2929 6.79289L11.8232 6.26256H11.8232L11.2929 6.79289ZM10.5303 4.96967C10.2374 4.67678 9.76256 4.67678 9.46967 4.96967C9.17678 5.26256 9.17678 5.73744 9.46967 6.03033L10.5303 4.96967ZM12.75 2C12.75 1.58579 12.4142 1.25 12 1.25C11.5858 1.25 11.25 1.58579 11.25 2H12.75ZM11.25 6.5C11.25 6.91421 11.5858 7.25 12 7.25C12.4142 7.25 12.75 6.91421 12.75 6.5H11.25ZM12.75 2.99997C12.75 2.58576 12.4142 2.24997 12 2.24997C11.5858 2.24997 11.25 2.58576 11.25 2.99997H12.75ZM11.25 4.99997C11.25 5.41418 11.5858 5.74997 12 5.74997C12.4142 5.74997 12.75 5.41418 12.75 4.99997H11.25ZM11.25 3.99997C11.25 4.41418 11.5858 4.74997 12 4.74997C12.4142 4.74997 12.75 4.41418 12.75 3.99997H11.25ZM20.3085 8.75213C20.6014 8.45924 20.6014 7.98436 20.3085 7.69147C20.0156 7.39858 19.5407 7.39858 19.2478 7.69147L20.3085 8.75213ZM17.8336 9.10569C17.5407 9.39858 17.5407 9.87345 17.8336 10.1663C18.1265 10.4592 18.6014 10.4592 18.8943 10.1663L17.8336 9.10569ZM4.75216 7.6915C4.45927 7.39861 3.9844 7.39861 3.6915 7.6915C3.39861 7.9844 3.39861 8.45927 3.6915 8.75216L4.75216 7.6915ZM5.10572 10.1664C5.39861 10.4593 5.87348 10.4593 6.16638 10.1664C6.45927 9.87348 6.45927 9.39861 6.16638 9.10572L5.10572 10.1664ZM3 15.25C2.58579 15.25 2.25 15.5858 2.25 16C2.25 16.4142 2.58579 16.75 3 16.75V15.25ZM21 16.75C21.4142 16.75 21.75 16.4142 21.75 16C21.75 15.5858 21.4142 15.25 21 15.25V16.75ZM6 18.25C5.58579 18.25 5.25 18.5858 5.25 19C5.25 19.4142 5.58579 19.75 6 19.75V18.25ZM18 19.75C18.4142 19.75 18.75 19.4142 18.75 19C18.75 18.5858 18.4142 18.25 18 18.25V19.75ZM9 21.25C8.58579 21.25 8.25 21.5858 8.25 22C8.25 22.4142 8.58579 22.75 9 22.75V21.25ZM15 22.75C15.4142 22.75 15.75 22.4142 15.75 22C15.75 21.5858 15.4142 21.25 15 21.25V22.75ZM6.75 16C6.75 13.1005 9.1005 10.75 12 10.75V9.24997C8.27208 9.24997 5.25 12.272 5.25 16H6.75ZM12 10.75C14.8995 10.75 17.25 13.1005 17.25 16H18.75C18.75 12.272 15.7279 9.24997 12 9.24997V10.75ZM13.2374 7.32322L14.5303 6.03033L13.4697 4.96967L12.1768 6.26256L13.2374 7.32322ZM11.8232 6.26256L10.5303 4.96967L9.46967 6.03033L10.7626 7.32322L11.8232 6.26256ZM11.25 2V6.5H12.75V2H11.25ZM12.1768 6.26256C12.0791 6.36019 11.9209 6.36019 11.8232 6.26256L10.7626 7.32322C11.446 8.00664 12.554 8.00664 13.2374 7.32322L12.1768 6.26256ZM11.25 2.99997V4.99997H12.75V2.99997H11.25ZM11.25 2V3.99997H12.75V2H11.25ZM19.2478 7.69147L17.8336 9.10569L18.8943 10.1663L20.3085 8.75213L19.2478 7.69147ZM3.6915 8.75216L5.10572 10.1664L6.16638 9.10572L4.75216 7.6915L3.6915 8.75216ZM3 16.75H21V15.25H3V16.75ZM6 19.75H18V18.25H6V19.75ZM9 22.75H15V21.25H9V22.75Z" fill="#28303F"/>
</svg>
