<svg width="24" height="24" viewBox="0 0 24 24" fill="none" xmlns="http://www.w3.org/2000/svg">
<path d="M14 17C14 15.8954 13.1046 15 12 15C10.8954 15 10 15.8954 10 17C10 18.1046 10.8954 19 12 19C13.1046 19 14 18.1046 14 17Z" fill="#28303F"/>
<path d="M15 12.9996H14.25C14.25 13.2355 14.361 13.4576 14.5496 13.5993L15 12.9996ZM9 12.9996L9.45043 13.5993C9.63903 13.4576 9.75 13.2355 9.75 12.9996H9ZM11.25 17C11.25 17.4142 11.5858 17.75 12 17.75C12.4142 17.75 12.75 17.4142 12.75 17H11.25ZM12.75 5C12.75 4.58579 12.4142 4.25 12 4.25C11.5858 4.25 11.25 4.58579 11.25 5H12.75ZM19.25 6C19.25 6.41421 19.5858 6.75 20 6.75C20.4142 6.75 20.75 6.41421 20.75 6H19.25ZM20.75 2C20.75 1.58579 20.4142 1.25 20 1.25C19.5858 1.25 19.25 1.58579 19.25 2H20.75ZM18 3.25C17.5858 3.25 17.25 3.58579 17.25 4C17.25 4.41421 17.5858 4.75 18 4.75V3.25ZM22 4.75C22.4142 4.75 22.75 4.41421 22.75 4C22.75 3.58579 22.4142 3.25 22 3.25V4.75ZM16.25 17C16.25 19.3472 14.3472 21.25 12 21.25V22.75C15.1756 22.75 17.75 20.1756 17.75 17H16.25ZM12 21.25C9.65279 21.25 7.75 19.3472 7.75 17H6.25C6.25 20.1756 8.82436 22.75 12 22.75V21.25ZM12 2.75C13.2426 2.75 14.25 3.75736 14.25 5H15.75C15.75 2.92893 14.0711 1.25 12 1.25V2.75ZM12 1.25C9.92893 1.25 8.25 2.92893 8.25 5H9.75C9.75 3.75736 10.7574 2.75 12 2.75V1.25ZM14.25 5V12.9996H15.75V5H14.25ZM14.5496 13.5993C15.5835 14.376 16.25 15.61 16.25 17H17.75C17.75 15.1183 16.8454 13.4477 15.4504 12.4L14.5496 13.5993ZM9.75 12.9996V5H8.25V12.9996H9.75ZM7.75 17C7.75 15.61 8.41646 14.376 9.45043 13.5993L8.54957 12.4C7.15464 13.4477 6.25 15.1183 6.25 17H7.75ZM12.75 17V5H11.25V17H12.75ZM20.75 6V2H19.25V6H20.75ZM18 4.75L22 4.75V3.25L18 3.25V4.75Z" fill="#28303F"/>
</svg>
