<svg width="24" height="24" viewBox="0 0 24 24" fill="none" xmlns="http://www.w3.org/2000/svg">
<path d="M11 19.25C10.5858 19.25 10.25 19.5858 10.25 20C10.25 20.4142 10.5858 20.75 11 20.75V19.25ZM13 20.75C13.4142 20.75 13.75 20.4142 13.75 20C13.75 19.5858 13.4142 19.25 13 19.25V20.75ZM8 15.25C7.58579 15.25 7.25 15.5858 7.25 16C7.25 16.4142 7.58579 16.75 8 16.75V15.25ZM14 16.75C14.4142 16.75 14.75 16.4142 14.75 16C14.75 15.5858 14.4142 15.25 14 15.25V16.75ZM5 11.25C4.58579 11.25 4.25 11.5858 4.25 12C4.25 12.4142 4.58579 12.75 5 12.75V11.25ZM15 12.75C15.4142 12.75 15.75 12.4142 15.75 12C15.75 11.5858 15.4142 11.25 15 11.25V12.75ZM8 7.25C7.58579 7.25 7.25 7.58579 7.25 8C7.25 8.41421 7.58579 8.75 8 8.75V7.25ZM22 8.75C22.4142 8.75 22.75 8.41421 22.75 8C22.75 7.58579 22.4142 7.25 22 7.25V8.75ZM2 3.25C1.58579 3.25 1.25 3.58579 1.25 4C1.25 4.41421 1.58579 4.75 2 4.75V3.25ZM20 4.75C20.4142 4.75 20.75 4.41421 20.75 4C20.75 3.58579 20.4142 3.25 20 3.25V4.75ZM11 20.75H13V19.25H11V20.75ZM8 16.75H14V15.25H8V16.75ZM5 12.75H15V11.25H5V12.75ZM8 8.75H22V7.25H8V8.75ZM2 4.75H20V3.25H2V4.75Z" fill="#28303F"/>
</svg>
