<svg width="24" height="24" viewBox="0 0 24 24" fill="none" xmlns="http://www.w3.org/2000/svg">
<path d="M21.6141 19.643C21.9693 19.8562 22.43 19.741 22.6431 19.3858C22.8562 19.0306 22.7411 18.5699 22.3859 18.3568L21.6141 19.643ZM14.4988 18.0009L14.0303 17.4152L14.4988 18.0009ZM9.50122 18.0009L9.96974 17.4152L9.50122 18.0009ZM9.17183 17.7374L9.64035 17.1517L9.17183 17.7374ZM4.61506 17.4309L5.00093 18.074L4.61506 17.4309ZM1.61413 18.3568C1.25894 18.5699 1.14377 19.0306 1.35688 19.3858C1.56999 19.741 2.03069 19.8562 2.38587 19.643L1.61413 18.3568ZM21.6141 13.643C21.9693 13.8562 22.43 13.741 22.6431 13.3858C22.8562 13.0306 22.7411 12.5699 22.3859 12.3568L21.6141 13.643ZM14.4988 12.0009L14.0303 11.4152L14.4988 12.0009ZM9.50122 12.0009L9.96974 11.4152L9.50122 12.0009ZM9.17183 11.7374L9.64035 11.1517V11.1517L9.17183 11.7374ZM4.61506 11.4309L5.00093 12.074L4.61506 11.4309ZM1.61413 12.3568C1.25894 12.5699 1.14377 13.0306 1.35688 13.3858C1.56999 13.741 2.03069 13.8562 2.38587 13.643L1.61413 12.3568ZM21.6141 7.64304C21.9693 7.85615 22.43 7.74098 22.6431 7.3858C22.8562 7.03061 22.7411 6.56992 22.3859 6.3568L21.6141 7.64304ZM19.3849 5.43089L18.9991 6.07401L19.3849 5.43089ZM14.4988 6.0009L14.0303 5.41525L14.4988 6.0009ZM9.50122 6.0009L9.0327 6.58655L9.0327 6.58655L9.50122 6.0009ZM9.17183 5.73738L9.64035 5.15173L9.64035 5.15173L9.17183 5.73738ZM4.61506 5.43089L5.00093 6.07401L5.00093 6.07401L4.61506 5.43089ZM1.61413 6.3568C1.25894 6.56992 1.14377 7.03061 1.35688 7.3858C1.56999 7.74098 2.03069 7.85615 2.38587 7.64304L1.61413 6.3568ZM22.3859 18.3568L19.7708 16.7878L18.9991 18.074L21.6141 19.643L22.3859 18.3568ZM14.3597 17.1517L14.0303 17.4152L14.9673 18.5866L15.2967 18.323L14.3597 17.1517ZM9.96974 17.4152L9.64035 17.1517L8.7033 18.323L9.0327 18.5866L9.96974 17.4152ZM4.22919 16.7878L1.61413 18.3568L2.38587 19.643L5.00093 18.074L4.22919 16.7878ZM9.64035 17.1517C8.08996 15.9114 5.93171 15.7663 4.22919 16.7878L5.00093 18.074C6.16581 17.3751 7.64251 17.4744 8.7033 18.323L9.64035 17.1517ZM14.0303 17.4152C12.8433 18.3648 11.1567 18.3648 9.96974 17.4152L9.0327 18.5866C10.7675 19.9744 13.2325 19.9744 14.9673 18.5866L14.0303 17.4152ZM19.7708 16.7878C18.0683 15.7663 15.91 15.9114 14.3597 17.1517L15.2967 18.323C16.3575 17.4744 17.8342 17.3751 18.9991 18.074L19.7708 16.7878ZM22.3859 12.3568L19.7708 10.7878L18.9991 12.074L21.6141 13.643L22.3859 12.3568ZM14.3597 11.1517L14.0303 11.4152L14.9673 12.5866L15.2967 12.323L14.3597 11.1517ZM9.96974 11.4152L9.64035 11.1517L8.7033 12.323L9.0327 12.5866L9.96974 11.4152ZM4.22919 10.7878L1.61413 12.3568L2.38587 13.643L5.00093 12.074L4.22919 10.7878ZM9.64035 11.1517C8.08996 9.91143 5.93171 9.76626 4.22919 10.7878L5.00093 12.074C6.16581 11.3751 7.64251 11.4744 8.7033 12.323L9.64035 11.1517ZM14.0303 11.4152C12.8433 12.3648 11.1567 12.3648 9.96974 11.4152L9.0327 12.5866C10.7675 13.9744 13.2325 13.9744 14.9673 12.5866L14.0303 11.4152ZM19.7708 10.7878C18.0683 9.76626 15.91 9.91142 14.3597 11.1517L15.2967 12.323C16.3575 11.4744 17.8342 11.3751 18.9991 12.074L19.7708 10.7878ZM22.3859 6.3568L19.7708 4.78777L18.9991 6.07401L21.6141 7.64304L22.3859 6.3568ZM14.3597 5.15173L14.0303 5.41525L14.9673 6.58655L15.2967 6.32304L14.3597 5.15173ZM9.96974 5.41525L9.64035 5.15173L8.7033 6.32304L9.0327 6.58655L9.96974 5.41525ZM4.22919 4.78777L1.61413 6.3568L2.38587 7.64304L5.00093 6.07401L4.22919 4.78777ZM9.64035 5.15173C8.08996 3.91143 5.93171 3.76626 4.22919 4.78777L5.00093 6.07401C6.16581 5.37508 7.64251 5.4744 8.7033 6.32304L9.64035 5.15173ZM14.0303 5.41525C12.8433 6.36482 11.1567 6.36482 9.96974 5.41525L9.0327 6.58655C10.7675 7.97438 13.2325 7.97438 14.9673 6.58655L14.0303 5.41525ZM19.7708 4.78777C18.0683 3.76626 15.91 3.91142 14.3597 5.15173L15.2967 6.32304C16.3575 5.4744 17.8342 5.37508 18.9991 6.07401L19.7708 4.78777Z" fill="#28303F"/>
</svg>
