<svg width="24" height="24" viewBox="0 0 24 24" fill="none" xmlns="http://www.w3.org/2000/svg">
<path d="M13.25 8C13.25 8.41421 13.5858 8.75 14 8.75C14.4142 8.75 14.75 8.41421 14.75 8H13.25ZM2 11.25C1.58579 11.25 1.25 11.5858 1.25 12C1.25 12.4142 1.58579 12.75 2 12.75V11.25ZM4.25 5C4.25 5.41421 4.58579 5.75 5 5.75C5.41421 5.75 5.75 5.41421 5.75 5H4.25ZM2 7.25C1.58579 7.25 1.25 7.58579 1.25 8C1.25 8.41421 1.58579 8.75 2 8.75V7.25ZM10.75 19C10.75 18.5858 10.4142 18.25 10 18.25C9.58579 18.25 9.25 18.5858 9.25 19H10.75ZM2 15.25C1.58579 15.25 1.25 15.5858 1.25 16C1.25 16.4142 1.58579 16.75 2 16.75V15.25ZM21.25 8C21.25 9.79493 19.7949 11.25 18 11.25V12.75C20.6234 12.75 22.75 10.6234 22.75 8H21.25ZM14.75 8C14.75 6.20507 16.2051 4.75 18 4.75V3.25C15.3766 3.25 13.25 5.37665 13.25 8H14.75ZM18 4.75C19.7949 4.75 21.25 6.20507 21.25 8H22.75C22.75 5.37665 20.6234 3.25 18 3.25V4.75ZM18 11.25H2V12.75H18V11.25ZM10.25 5C10.25 6.24264 9.24264 7.25 8 7.25V8.75C10.0711 8.75 11.75 7.07107 11.75 5H10.25ZM5.75 5C5.75 3.75736 6.75736 2.75 8 2.75V1.25C5.92893 1.25 4.25 2.92893 4.25 5H5.75ZM8 2.75C9.24264 2.75 10.25 3.75736 10.25 5H11.75C11.75 2.92893 10.0711 1.25 8 1.25V2.75ZM8 7.25H2V8.75H8V7.25ZM16.75 19C16.75 16.9289 15.0711 15.25 13 15.25V16.75C14.2426 16.75 15.25 17.7574 15.25 19H16.75ZM9.25 19C9.25 21.0711 10.9289 22.75 13 22.75V21.25C11.7574 21.25 10.75 20.2426 10.75 19H9.25ZM13 22.75C15.0711 22.75 16.75 21.0711 16.75 19H15.25C15.25 20.2426 14.2426 21.25 13 21.25V22.75ZM13 15.25H2V16.75H13V15.25Z" fill="#28303F"/>
</svg>
