<svg width="24" height="24" viewBox="0 0 24 24" fill="none" xmlns="http://www.w3.org/2000/svg">
<path d="M13.25 13C13.25 13.4142 13.5858 13.75 14 13.75C14.4142 13.75 14.75 13.4142 14.75 13H13.25ZM2 16.25C1.58579 16.25 1.25 16.5858 1.25 17C1.25 17.4142 1.58579 17.75 2 17.75V16.25ZM4.25 10C4.25 10.4142 4.58579 10.75 5 10.75C5.41421 10.75 5.75 10.4142 5.75 10H4.25ZM2 12.25C1.58579 12.25 1.25 12.5858 1.25 13C1.25 13.4142 1.58579 13.75 2 13.75V12.25ZM21.25 13C21.25 14.7949 19.7949 16.25 18 16.25V17.75C20.6234 17.75 22.75 15.6234 22.75 13H21.25ZM14.75 13C14.75 11.2051 16.2051 9.75 18 9.75V8.25C15.3766 8.25 13.25 10.3766 13.25 13H14.75ZM18 9.75C19.7949 9.75 21.25 11.2051 21.25 13H22.75C22.75 10.3766 20.6234 8.25 18 8.25V9.75ZM18 16.25H2V17.75H18V16.25ZM10.25 10C10.25 11.2426 9.24264 12.25 8 12.25V13.75C10.0711 13.75 11.75 12.0711 11.75 10H10.25ZM5.75 10C5.75 8.75736 6.75736 7.75 8 7.75V6.25C5.92893 6.25 4.25 7.92893 4.25 10H5.75ZM8 7.75C9.24264 7.75 10.25 8.75736 10.25 10H11.75C11.75 7.92893 10.0711 6.25 8 6.25V7.75ZM8 12.25H2V13.75H8V12.25Z" fill="#28303F"/>
</svg>
