<svg width="24" height="24" viewBox="0 0 24 24" fill="none" xmlns="http://www.w3.org/2000/svg">
<path d="M17 9.33333L16.4528 8.82038L16.25 9.03675V9.33333H17ZM17 14.6667H16.25V14.9633L16.4528 15.1796L17 14.6667ZM18.5409 16.3103L17.9938 16.8233L18.5409 16.3103ZM18.5409 7.68968L19.0881 8.20263L18.5409 7.68968ZM6 4.75H13V3.25H6V4.75ZM16.25 8V16H17.75V8H16.25ZM13 19.25H6V20.75H13V19.25ZM2.75 16V8H1.25V16H2.75ZM6 19.25C4.20507 19.25 2.75 17.7949 2.75 16H1.25C1.25 18.6234 3.37665 20.75 6 20.75V19.25ZM16.25 16C16.25 17.7949 14.7949 19.25 13 19.25V20.75C15.6234 20.75 17.75 18.6234 17.75 16H16.25ZM13 4.75C14.7949 4.75 16.25 6.20507 16.25 8H17.75C17.75 5.37665 15.6234 3.25 13 3.25V4.75ZM6 3.25C3.37665 3.25 1.25 5.37665 1.25 8H2.75C2.75 6.20507 4.20507 4.75 6 4.75V3.25ZM17.5472 9.84629L19.0881 8.20263L17.9938 7.17672L16.4528 8.82038L17.5472 9.84629ZM21.25 9.05756V14.9424H22.75V9.05756H21.25ZM19.0881 15.7974L17.5472 14.1537L16.4528 15.1796L17.9938 16.8233L19.0881 15.7974ZM17.75 14.6667V9.33333H16.25V14.6667H17.75ZM21.25 14.9424C21.25 16.0756 19.8631 16.6241 19.0881 15.7974L17.9938 16.8233C19.6988 18.642 22.75 17.4354 22.75 14.9424H21.25ZM19.0881 8.20263C19.8631 7.37594 21.25 7.92439 21.25 9.05756H22.75C22.75 6.56459 19.6988 5.358 17.9938 7.17672L19.0881 8.20263ZM12.25 10C12.25 10.6904 11.6904 11.25 11 11.25V12.75C12.5188 12.75 13.75 11.5188 13.75 10H12.25ZM11 11.25C10.3096 11.25 9.75 10.6904 9.75 10H8.25C8.25 11.5188 9.48122 12.75 11 12.75V11.25ZM9.75 10C9.75 9.30964 10.3096 8.75 11 8.75V7.25C9.48122 7.25 8.25 8.48122 8.25 10H9.75ZM11 8.75C11.6904 8.75 12.25 9.30964 12.25 10H13.75C13.75 8.48122 12.5188 7.25 11 7.25V8.75Z" fill="#28303F"/>
</svg>
