<svg width="24" height="24" viewBox="0 0 24 24" fill="none" xmlns="http://www.w3.org/2000/svg">
<path d="M2.53033 1.46967C2.23744 1.17678 1.76256 1.17678 1.46967 1.46967C1.17678 1.76256 1.17678 2.23744 1.46967 2.53033L2.53033 1.46967ZM21.4697 22.5303C21.7626 22.8232 22.2374 22.8232 22.5303 22.5303C22.8232 22.2374 22.8232 21.7626 22.5303 21.4697L21.4697 22.5303ZM18.5409 7.68968L19.0881 8.20263L18.5409 7.68968ZM20.4899 16.0925C20.1086 16.2542 19.9307 16.6945 20.0925 17.0758C20.2542 17.4571 20.6945 17.6351 21.0758 17.4733L20.4899 16.0925ZM16.25 13C16.25 13.4142 16.5858 13.75 17 13.75C17.4142 13.75 17.75 13.4142 17.75 13H16.25ZM8 3.25C7.58579 3.25 7.25 3.58579 7.25 4C7.25 4.41421 7.58579 4.75 8 4.75V3.25ZM4.57812 5.07653C4.95045 4.89503 5.10514 4.44606 4.92364 4.07373C4.74213 3.7014 4.29316 3.54671 3.92083 3.72821L4.57812 5.07653ZM17.6003 17.1869C17.7036 16.7858 17.4621 16.3769 17.0609 16.2737C16.6598 16.1704 16.2509 16.4119 16.1477 16.8131L17.6003 17.1869ZM1.46967 2.53033L21.4697 22.5303L22.5303 21.4697L2.53033 1.46967L1.46967 2.53033ZM17.5472 9.84629L19.0881 8.20263L17.9938 7.17672L16.4528 8.82038L17.5472 9.84629ZM21.25 9.05756V14.9424H22.75V9.05756H21.25ZM19.0881 8.20263C19.8631 7.37594 21.25 7.92439 21.25 9.05756H22.75C22.75 6.56459 19.6988 5.358 17.9938 7.17672L19.0881 8.20263ZM13 19.25H6V20.75H13V19.25ZM2.75 16V8H1.25V16H2.75ZM6 19.25C4.20507 19.25 2.75 17.7949 2.75 16H1.25C1.25 18.6234 3.37665 20.75 6 20.75V19.25ZM13 4.75C14.7949 4.75 16.25 6.20507 16.25 8H17.75C17.75 5.37665 15.6234 3.25 13 3.25V4.75ZM21.25 14.9424C21.25 15.4987 20.9275 15.9068 20.4899 16.0925L21.0758 17.4733C22.0121 17.076 22.75 16.1587 22.75 14.9424H21.25ZM16.25 8V9.33333H17.75V8H16.25ZM16.25 9.33333V13H17.75V9.33333H16.25ZM8 4.75H13V3.25H8V4.75ZM3.92083 3.72821C2.34107 4.49832 1.25 6.12103 1.25 8H2.75C2.75 6.71626 3.49422 5.60492 4.57812 5.07653L3.92083 3.72821ZM13 20.75C15.2143 20.75 17.0731 19.2355 17.6003 17.1869L16.1477 16.8131C15.7868 18.215 14.5133 19.25 13 19.25V20.75Z" fill="#28303F"/>
</svg>
