<svg width="24" height="24" viewBox="0 0 24 24" fill="none" xmlns="http://www.w3.org/2000/svg">
<path d="M2.53033 1.46967C2.23744 1.17678 1.76256 1.17678 1.46967 1.46967C1.17678 1.76256 1.17678 2.23744 1.46967 2.53033L2.53033 1.46967ZM21.4697 22.5303C21.7626 22.8232 22.2374 22.8232 22.5303 22.5303C22.8232 22.2374 22.8232 21.7626 22.5303 21.4697L21.4697 22.5303ZM15.5937 3.8906L14.9697 4.30662L15.5937 3.8906ZM8.40627 3.8906L9.0303 4.30662L9.0303 4.30662L8.40627 3.8906ZM6 6.75C6.41421 6.75 6.75 6.41421 6.75 6C6.75 5.58579 6.41421 5.25 6 5.25V6.75ZM10 5.25C9.58579 5.25 9.25 5.58579 9.25 6C9.25 6.41421 9.58579 6.75 10 6.75V5.25ZM7.57596 3.78397C7.3462 4.12862 7.43933 4.59427 7.78397 4.82404C8.12862 5.0538 8.59427 4.96067 8.82404 4.61603L7.57596 3.78397ZM21.1677 17.7308C21.075 18.1346 21.3271 18.537 21.7308 18.6296C22.1346 18.7223 22.537 18.4702 22.6296 18.0665L21.1677 17.7308ZM20.6585 20.9368C21.0016 20.7047 21.0916 20.2385 20.8596 19.8954C20.6275 19.5523 20.1612 19.4623 19.8181 19.6944L20.6585 20.9368ZM1.46967 2.53033L21.4697 22.5303L22.5303 21.4697L2.53033 1.46967L1.46967 2.53033ZM12 15.75C10.7574 15.75 9.75 14.7426 9.75 13.5H8.25C8.25 15.5711 9.92893 17.25 12 17.25V15.75ZM9.75 13.5C9.75 12.6044 10.2732 11.8295 11.034 11.4671L10.389 10.1129C9.12568 10.7146 8.25 12.0043 8.25 13.5H9.75ZM14.0896 14.3364C13.7571 15.1662 12.9458 15.75 12 15.75V17.25C13.5795 17.25 14.9292 16.2737 15.4819 14.8945L14.0896 14.3364ZM10.0704 3.75H13.9296V2.25H10.0704V3.75ZM14.9697 4.30662L16.376 6.41603L17.624 5.58397L16.2178 3.47457L14.9697 4.30662ZM13.9296 3.75C14.3476 3.75 14.7379 3.95888 14.9697 4.30662L16.2178 3.47457C15.7077 2.70953 14.8491 2.25 13.9296 2.25V3.75ZM9.0303 4.30662C9.26214 3.95888 9.65243 3.75 10.0704 3.75V2.25C9.1509 2.25 8.29226 2.70953 7.78223 3.47457L9.0303 4.30662ZM21.25 10V17H22.75V10H21.25ZM18 20.25H6V21.75H18V20.25ZM2.75 17V10H1.25V17H2.75ZM6 20.25C4.20507 20.25 2.75 18.7949 2.75 17H1.25C1.25 19.6234 3.37665 21.75 6 21.75V20.25ZM18 6.75C19.7949 6.75 21.25 8.20507 21.25 10H22.75C22.75 7.37665 20.6234 5.25 18 5.25V6.75ZM6 5.25C3.37665 5.25 1.25 7.37665 1.25 10H2.75C2.75 8.20507 4.20507 6.75 6 6.75V5.25ZM10 6.75H17V5.25H10V6.75ZM17 6.75H18V5.25H17V6.75ZM8.82404 4.61603L9.0303 4.30662L7.78223 3.47457L7.57596 3.78397L8.82404 4.61603ZM21.25 17C21.25 17.2521 21.2214 17.4966 21.1677 17.7308L22.6296 18.0665C22.7085 17.7229 22.75 17.3659 22.75 17H21.25ZM19.8181 19.6944C19.2995 20.0452 18.6748 20.25 18 20.25V21.75C18.9837 21.75 19.8996 21.4502 20.6585 20.9368L19.8181 19.6944Z" fill="#28303F"/>
</svg>
