<svg width="24" height="24" viewBox="0 0 24 24" fill="none" xmlns="http://www.w3.org/2000/svg">
<path d="M10 2V1.25V2ZM13 5H12.25H13ZM3 5H2.25H3ZM6 2V2.75V2ZM6 22V22.75V22ZM3 19H3.75H3ZM10 22V21.25V22ZM14 19V18.25H14L14 19ZM10 21.25H6V22.75H10V21.25ZM3.75 19L3.75 5H2.25L2.25 19H3.75ZM6 2.75L10 2.75V1.25L6 1.25V2.75ZM12.25 5L12.25 19H13.75L13.75 5H12.25ZM10 2.75C11.2426 2.75 12.25 3.75736 12.25 5H13.75C13.75 2.92893 12.0711 1.25 10 1.25V2.75ZM3.75 5C3.75 3.75736 4.75736 2.75 6 2.75V1.25C3.92893 1.25 2.25 2.92893 2.25 5H3.75ZM6 21.25C4.75736 21.25 3.75 20.2426 3.75 19H2.25C2.25 21.0711 3.92893 22.75 6 22.75V21.25ZM10 22.75C12.0711 22.75 13.75 21.0711 13.75 19H12.25C12.25 20.2426 11.2426 21.25 10 21.25V22.75ZM16.25 12C16.25 13.2426 15.2426 14.25 14 14.25V15.75C16.0711 15.75 17.75 14.0711 17.75 12H16.25ZM14 9.75C15.2426 9.75 16.25 10.7574 16.25 12H17.75C17.75 9.92893 16.0711 8.25 14 8.25V9.75ZM14 8.25H13V9.75H14V8.25ZM14 14.25H13V15.75H14V14.25ZM20.25 12C20.25 15.4518 17.4518 18.25 14 18.25V19.75C18.2802 19.75 21.75 16.2802 21.75 12H20.25ZM14 5.75C17.4518 5.75 20.25 8.54822 20.25 12H21.75C21.75 7.71979 18.2802 4.25 14 4.25V5.75ZM14 4.25H13V5.75H14V4.25ZM14 18.25L13 18.25L13 19.75L14 19.75L14 18.25Z" fill="#28303F"/>
</svg>
