<svg width="24" height="24" viewBox="0 0 24 24" fill="none" xmlns="http://www.w3.org/2000/svg">
<path d="M12.3321 17.4453L11.916 16.8213L12.3321 17.4453ZM14.1279 16.2481L14.5439 16.8721L14.1279 16.2481ZM14.1279 13.7519L13.7119 14.376L14.1279 13.7519ZM12.332 12.5547L12.7481 11.9307L12.332 12.5547ZM6 2.75H18V1.25H6V2.75ZM21.25 6V18H22.75V6H21.25ZM18 21.25H6V22.75H18V21.25ZM2.75 18V6H1.25V18H2.75ZM6 21.25C4.20507 21.25 2.75 19.7949 2.75 18H1.25C1.25 20.6234 3.37665 22.75 6 22.75V21.25ZM21.25 18C21.25 19.7949 19.7949 21.25 18 21.25V22.75C20.6234 22.75 22.75 20.6234 22.75 18H21.25ZM18 2.75C19.7949 2.75 21.25 4.20507 21.25 6H22.75C22.75 3.37665 20.6234 1.25 18 1.25V2.75ZM6 1.25C3.37665 1.25 1.25 3.37665 1.25 6H2.75C2.75 4.20507 4.20507 2.75 6 2.75V1.25ZM9.25 13.8028V16.1972H10.75V13.8028H9.25ZM12.7481 18.0693L14.5439 16.8721L13.7119 15.624L11.916 16.8213L12.7481 18.0693ZM14.5439 13.1279L12.7481 11.9307L11.916 13.1787L13.7119 14.376L14.5439 13.1279ZM14.5439 16.8721C15.8798 15.9815 15.8798 14.0185 14.5439 13.1279L13.7119 14.376C14.1572 14.6728 14.1572 15.3272 13.7119 15.624L14.5439 16.8721ZM9.25 16.1972C9.25 17.9943 11.2528 19.0662 12.7481 18.0693L11.916 16.8213C11.4176 17.1535 10.75 16.7962 10.75 16.1972H9.25ZM10.75 13.8028C10.75 13.2038 11.4176 12.8465 11.916 13.1787L12.7481 11.9307C11.2528 10.9338 9.25 12.0057 9.25 13.8028H10.75ZM2 8.75H22V7.25H2V8.75ZM17.376 1.58397L13.376 7.58397L14.624 8.41603L18.624 2.41603L17.376 1.58397ZM9.37596 1.58397L5.37596 7.58397L6.62404 8.41603L10.624 2.41603L9.37596 1.58397Z" fill="#28303F"/>
</svg>
