<svg width="24" height="24" viewBox="0 0 24 24" fill="none" xmlns="http://www.w3.org/2000/svg">
<path d="M7 9.87398L7.18694 9.14765C6.9624 9.08986 6.72374 9.13917 6.54049 9.28123C6.35724 9.42329 6.25 9.64212 6.25 9.87398H7ZM3 21.25C2.58579 21.25 2.25 21.5858 2.25 22C2.25 22.4142 2.58579 22.75 3 22.75V21.25ZM17 9.87398H17.75C17.75 9.64212 17.6428 9.42329 17.4595 9.28123C17.2763 9.13917 17.0376 9.08986 16.8131 9.14765L17 9.87398ZM21 22.75C21.4142 22.75 21.75 22.4142 21.75 22C21.75 21.5858 21.4142 21.25 21 21.25V22.75ZM8 1.25C5.37665 1.25 3.25 3.37665 3.25 6H4.75C4.75 4.20507 6.20507 2.75 8 2.75V1.25ZM9.25 4V8H10.75V4H9.25ZM9.25 8C9.25 8.69036 8.69036 9.25 8 9.25V10.75C9.51878 10.75 10.75 9.51878 10.75 8H9.25ZM8 2.75C8.69036 2.75 9.25 3.30964 9.25 4H10.75C10.75 2.48122 9.51878 1.25 8 1.25V2.75ZM3.25 6V12.5H4.75V6H3.25ZM5.5 14.75C6.74264 14.75 7.75 13.7426 7.75 12.5H6.25C6.25 12.9142 5.91421 13.25 5.5 13.25V14.75ZM3.25 12.5C3.25 13.7426 4.25736 14.75 5.5 14.75V13.25C5.08579 13.25 4.75 12.9142 4.75 12.5H3.25ZM7.75 12.5V9.87398H6.25V12.5H7.75ZM6.81306 10.6003C7.19323 10.6982 7.59111 10.75 8 10.75V9.25C7.71829 9.25 7.44601 9.21433 7.18694 9.14765L6.81306 10.6003ZM4.75 14V15.7714H6.25V14H4.75ZM7.3 18.3214H7.78571V16.8214H7.3V18.3214ZM7.78571 21.25H3V22.75H7.78571V21.25ZM9.25 19.7857C9.25 20.5944 8.59442 21.25 7.78571 21.25V22.75C9.42284 22.75 10.75 21.4228 10.75 19.7857H9.25ZM7.78571 18.3214C8.59442 18.3214 9.25 18.977 9.25 19.7857H10.75C10.75 18.1486 9.42284 16.8214 7.78571 16.8214V18.3214ZM4.75 15.7714C4.75 17.1798 5.89167 18.3214 7.3 18.3214V16.8214C6.7201 16.8214 6.25 16.3513 6.25 15.7714H4.75ZM16 2.75C17.7949 2.75 19.25 4.20507 19.25 6H20.75C20.75 3.37665 18.6234 1.25 16 1.25V2.75ZM13.25 4V8H14.75V4H13.25ZM13.25 8C13.25 9.51878 14.4812 10.75 16 10.75V9.25C15.3096 9.25 14.75 8.69036 14.75 8H13.25ZM16 1.25C14.4812 1.25 13.25 2.48122 13.25 4H14.75C14.75 3.30964 15.3096 2.75 16 2.75V1.25ZM19.25 6V12.5H20.75V6H19.25ZM18.5 13.25C18.0858 13.25 17.75 12.9142 17.75 12.5H16.25C16.25 13.7426 17.2574 14.75 18.5 14.75V13.25ZM19.25 12.5C19.25 12.9142 18.9142 13.25 18.5 13.25V14.75C19.7426 14.75 20.75 13.7426 20.75 12.5H19.25ZM17.75 12.5V9.87398H16.25V12.5H17.75ZM16.8131 9.14765C16.554 9.21433 16.2817 9.25 16 9.25V10.75C16.4089 10.75 16.8068 10.6982 17.1869 10.6003L16.8131 9.14765ZM17.75 14V15.7714H19.25V14H17.75ZM16.7 16.8214H16.2143V18.3214H16.7V16.8214ZM16.2143 22.75H21V21.25H16.2143V22.75ZM13.25 19.7857C13.25 21.4228 14.5772 22.75 16.2143 22.75V21.25C15.4056 21.25 14.75 20.5944 14.75 19.7857H13.25ZM16.2143 16.8214C14.5772 16.8214 13.25 18.1486 13.25 19.7857H14.75C14.75 18.977 15.4056 18.3214 16.2143 18.3214V16.8214ZM17.75 15.7714C17.75 16.3513 17.2799 16.8214 16.7 16.8214V18.3214C18.1083 18.3214 19.25 17.1798 19.25 15.7714H17.75Z" fill="#28303F"/>
</svg>
