<svg width="24" height="24" viewBox="0 0 24 24" fill="none" xmlns="http://www.w3.org/2000/svg">
<path d="M11 5H10.25H11ZM13 3V2.25V3ZM13 11V11.75V11ZM11 9H11.75H11ZM19 9H19.75H19ZM17 11V10.25V11ZM19 5H18.25H19ZM17 3V3.75V3ZM5 17H5.75H5ZM7 15V15.75V15ZM7 23V23.75V23ZM5 21H4.25H5ZM13 21H13.75H13ZM11 23V22.25V23ZM13 17H12.25H13ZM11 15V14.25V15ZM8 7.75C8.41421 7.75 8.75 7.41421 8.75 7C8.75 6.58579 8.41421 6.25 8 6.25V7.75ZM2 6.25C1.58579 6.25 1.25 6.58579 1.25 7C1.25 7.41421 1.58579 7.75 2 7.75L2 6.25ZM22 7.75C22.4142 7.75 22.75 7.41421 22.75 7C22.75 6.58579 22.4142 6.25 22 6.25V7.75ZM19 6.25C18.5858 6.25 18.25 6.58579 18.25 7C18.25 7.41421 18.5858 7.75 19 7.75V6.25ZM22 19.75C22.4142 19.75 22.75 19.4142 22.75 19C22.75 18.5858 22.4142 18.25 22 18.25V19.75ZM16 18.25C15.5858 18.25 15.25 18.5858 15.25 19C15.25 19.4142 15.5858 19.75 16 19.75V18.25ZM5 19.75C5.41421 19.75 5.75 19.4142 5.75 19C5.75 18.5858 5.41421 18.25 5 18.25V19.75ZM2 18.25C1.58579 18.25 1.25 18.5858 1.25 19C1.25 19.4142 1.58579 19.75 2 19.75V18.25ZM18.25 5V9H19.75V5H18.25ZM17 10.25H13V11.75H17V10.25ZM11.75 9V5H10.25V9H11.75ZM13 3.75L17 3.75V2.25L13 2.25V3.75ZM11.75 5C11.75 4.30964 12.3096 3.75 13 3.75V2.25C11.4812 2.25 10.25 3.48122 10.25 5H11.75ZM13 10.25C12.3096 10.25 11.75 9.69036 11.75 9H10.25C10.25 10.5188 11.4812 11.75 13 11.75V10.25ZM18.25 9C18.25 9.69036 17.6904 10.25 17 10.25V11.75C18.5188 11.75 19.75 10.5188 19.75 9H18.25ZM19.75 5C19.75 3.48122 18.5188 2.25 17 2.25V3.75C17.6904 3.75 18.25 4.30964 18.25 5H19.75ZM12.25 17V21H13.75V17H12.25ZM11 22.25H7V23.75H11V22.25ZM5.75 21L5.75 17H4.25L4.25 21H5.75ZM7 15.75H11V14.25H7V15.75ZM5.75 17C5.75 16.3096 6.30964 15.75 7 15.75V14.25C5.48122 14.25 4.25 15.4812 4.25 17H5.75ZM7 22.25C6.30964 22.25 5.75 21.6904 5.75 21H4.25C4.25 22.5188 5.48122 23.75 7 23.75V22.25ZM12.25 21C12.25 21.6904 11.6904 22.25 11 22.25V23.75C12.5188 23.75 13.75 22.5188 13.75 21H12.25ZM13.75 17C13.75 15.4812 12.5188 14.25 11 14.25V15.75C11.6904 15.75 12.25 16.3096 12.25 17H13.75ZM8 6.25L2 6.25L2 7.75L8 7.75V6.25ZM22 6.25L19 6.25V7.75L22 7.75V6.25ZM22 18.25H16V19.75H22V18.25ZM5 18.25H2V19.75H5V18.25Z" fill="#28303F"/>
</svg>
