<svg width="24" height="24" viewBox="0 0 24 24" fill="none" xmlns="http://www.w3.org/2000/svg">
<path d="M20 11V10.25V11ZM22 13H22.75H22ZM14 13H13.25H14ZM16 11V11.75V11ZM16 19V19.75V19ZM14 17H14.75H14ZM20 19V18.25V19ZM22 17H21.25H22ZM8 5V4.25V5ZM10 7H9.25H10ZM2 7H1.25H2ZM4 5V5.75V5ZM4 13L4 12.25L4 13ZM2 11H2.75H2ZM8 13V13.75V13ZM10 11H10.75H10ZM17.25 22C17.25 22.4142 17.5858 22.75 18 22.75C18.4142 22.75 18.75 22.4142 18.75 22H17.25ZM18.75 19C18.75 18.5858 18.4142 18.25 18 18.25C17.5858 18.25 17.25 18.5858 17.25 19H18.75ZM17.25 8C17.25 8.41421 17.5858 8.75 18 8.75C18.4142 8.75 18.75 8.41421 18.75 8H17.25ZM18.75 2C18.75 1.58579 18.4142 1.25 18 1.25C17.5858 1.25 17.25 1.58579 17.25 2H18.75ZM5.25 22C5.25 22.4142 5.58579 22.75 6 22.75C6.41421 22.75 6.75 22.4142 6.75 22H5.25ZM6.75 16C6.75 15.5858 6.41421 15.25 6 15.25C5.58579 15.25 5.25 15.5858 5.25 16H6.75ZM5.25 5C5.25 5.41421 5.58579 5.75 6 5.75C6.41421 5.75 6.75 5.41421 6.75 5H5.25ZM6.75 2C6.75 1.58579 6.41421 1.25 6 1.25C5.58579 1.25 5.25 1.58579 5.25 2H6.75ZM20 18.25H16V19.75H20V18.25ZM14.75 17V13H13.25V17H14.75ZM16 11.75H20V10.25H16V11.75ZM21.25 13L21.25 17H22.75L22.75 13H21.25ZM20 11.75C20.6904 11.75 21.25 12.3096 21.25 13H22.75C22.75 11.4812 21.5188 10.25 20 10.25V11.75ZM14.75 13C14.75 12.3096 15.3096 11.75 16 11.75V10.25C14.4812 10.25 13.25 11.4812 13.25 13H14.75ZM16 18.25C15.3096 18.25 14.75 17.6904 14.75 17H13.25C13.25 18.5188 14.4812 19.75 16 19.75V18.25ZM20 19.75C21.5188 19.75 22.75 18.5188 22.75 17H21.25C21.25 17.6904 20.6904 18.25 20 18.25V19.75ZM8 12.25L4 12.25L4 13.75L8 13.75V12.25ZM2.75 11L2.75 7H1.25L1.25 11H2.75ZM4 5.75L8 5.75V4.25L4 4.25V5.75ZM9.25 7V11H10.75V7H9.25ZM8 5.75C8.69036 5.75 9.25 6.30964 9.25 7H10.75C10.75 5.48122 9.51879 4.25 8 4.25V5.75ZM2.75 7C2.75 6.30964 3.30964 5.75 4 5.75V4.25C2.48122 4.25 1.25 5.48122 1.25 7H2.75ZM4 12.25C3.30964 12.25 2.75 11.6904 2.75 11H1.25C1.25 12.5188 2.48122 13.75 4 13.75L4 12.25ZM8 13.75C9.51878 13.75 10.75 12.5188 10.75 11H9.25C9.25 11.6904 8.69036 12.25 8 12.25V13.75ZM18.75 22V19H17.25V22H18.75ZM18.75 8V2H17.25V8H18.75ZM6.75 22V16H5.25V22H6.75ZM6.75 5V2H5.25V5H6.75Z" fill="#28303F"/>
</svg>
