<svg width="24" height="24" viewBox="0 0 24 24" fill="none" xmlns="http://www.w3.org/2000/svg">
<path d="M2 6H1.25H2ZM6 2V1.25V2ZM6 22V22.75V22ZM2 18H2.75H2ZM22 18H22.75H22ZM18 22V21.25V22ZM22 6H21.25H22ZM18 2V2.75V2ZM16.25 7V7.75H17.75V7H16.25ZM17.75 3V2.25L16.25 2.25V3L17.75 3ZM12.75 3V2.25L11.25 2.25V3H12.75ZM11.25 21V21.75H12.75V21H11.25ZM16.25 21V21.75H17.75V21H16.25ZM17.75 17V16.25H16.25V17H17.75ZM6.25 7L6.25 7.75L7.75 7.75L7.75 7L6.25 7ZM7.75 3L7.75 2.25L6.25 2.25L6.25 3L7.75 3ZM6.25 21L6.25 21.75H7.75L7.75 21H6.25ZM7.75 17L7.75 16.25H6.25L6.25 17H7.75ZM22 7.75C22.4142 7.75 22.75 7.41421 22.75 7C22.75 6.58579 22.4142 6.25 22 6.25V7.75ZM2 6.25C1.58579 6.25 1.25 6.58579 1.25 7C1.25 7.41421 1.58579 7.75 2 7.75L2 6.25ZM22 17.75C22.4142 17.75 22.75 17.4142 22.75 17C22.75 16.5858 22.4142 16.25 22 16.25V17.75ZM2 16.25C1.58579 16.25 1.25 16.5858 1.25 17C1.25 17.4142 1.58579 17.75 2 17.75L2 16.25ZM21.25 6V18H22.75V6H21.25ZM18 21.25H6V22.75H18V21.25ZM2.75 18L2.75 6H1.25L1.25 18H2.75ZM6 2.75L18 2.75V1.25L6 1.25V2.75ZM2.75 6C2.75 4.20507 4.20508 2.75 6 2.75V1.25C3.37665 1.25 1.25 3.37665 1.25 6H2.75ZM6 21.25C4.20507 21.25 2.75 19.7949 2.75 18H1.25C1.25 20.6234 3.37665 22.75 6 22.75V21.25ZM21.25 18C21.25 19.7949 19.7949 21.25 18 21.25V22.75C20.6234 22.75 22.75 20.6234 22.75 18H21.25ZM22.75 6C22.75 3.37665 20.6234 1.25 18 1.25V2.75C19.7949 2.75 21.25 4.20508 21.25 6H22.75ZM17.75 7L17.75 3L16.25 3L16.25 7H17.75ZM17.75 21L17.75 17H16.25L16.25 21H17.75ZM7.75 7L7.75 3L6.25 3L6.25 7L7.75 7ZM7.75 21L7.75 17H6.25L6.25 21H7.75ZM22 6.25L2 6.25L2 7.75L22 7.75V6.25ZM22 16.25L2 16.25L2 17.75L22 17.75V16.25ZM12.75 21L12.75 3H11.25L11.25 21H12.75Z" fill="#28303F"/>
</svg>
