<svg width="24" height="24" viewBox="0 0 24 24" fill="none" xmlns="http://www.w3.org/2000/svg">
<path d="M21.25 12C21.25 17.1086 17.1086 21.25 12 21.25V22.75C17.9371 22.75 22.75 17.9371 22.75 12H21.25ZM12 21.25C6.89137 21.25 2.75 17.1086 2.75 12H1.25C1.25 17.9371 6.06294 22.75 12 22.75V21.25ZM2.75 12C2.75 6.89137 6.89137 2.75 12 2.75V1.25C6.06294 1.25 1.25 6.06294 1.25 12H2.75ZM12 2.75C17.1086 2.75 21.25 6.89137 21.25 12H22.75C22.75 6.06294 17.9371 1.25 12 1.25V2.75ZM12.75 6C12.75 6.41421 12.4142 6.75 12 6.75V8.25C13.2426 8.25 14.25 7.24264 14.25 6H12.75ZM12 6.75C11.5858 6.75 11.25 6.41421 11.25 6H9.75C9.75 7.24264 10.7574 8.25 12 8.25V6.75ZM11.25 6C11.25 5.58579 11.5858 5.25 12 5.25V3.75C10.7574 3.75 9.75 4.75736 9.75 6H11.25ZM12 5.25C12.4142 5.25 12.75 5.58579 12.75 6H14.25C14.25 4.75736 13.2426 3.75 12 3.75V5.25ZM6.75 12C6.75 12.4142 6.41421 12.75 6 12.75V14.25C7.24264 14.25 8.25 13.2426 8.25 12H6.75ZM6 12.75C5.58579 12.75 5.25 12.4142 5.25 12H3.75C3.75 13.2426 4.75736 14.25 6 14.25V12.75ZM5.25 12C5.25 11.5858 5.58579 11.25 6 11.25V9.75C4.75736 9.75 3.75 10.7574 3.75 12H5.25ZM6 11.25C6.41421 11.25 6.75 11.5858 6.75 12H8.25C8.25 10.7574 7.24264 9.75 6 9.75V11.25ZM18.25 12C18.25 12.4142 17.9142 12.75 17.5 12.75V14.25C18.7426 14.25 19.75 13.2426 19.75 12H18.25ZM17.5 12.75C17.0858 12.75 16.75 12.4142 16.75 12H15.25C15.25 13.2426 16.2574 14.25 17.5 14.25V12.75ZM16.75 12C16.75 11.5858 17.0858 11.25 17.5 11.25V9.75C16.2574 9.75 15.25 10.7574 15.25 12H16.75ZM17.5 11.25C17.9142 11.25 18.25 11.5858 18.25 12H19.75C19.75 10.7574 18.7426 9.75 17.5 9.75V11.25ZM12.75 18C12.75 18.4142 12.4142 18.75 12 18.75V20.25C13.2426 20.25 14.25 19.2426 14.25 18H12.75ZM12 18.75C11.5858 18.75 11.25 18.4142 11.25 18H9.75C9.75 19.2426 10.7574 20.25 12 20.25V18.75ZM11.25 18C11.25 17.5858 11.5858 17.25 12 17.25V15.75C10.7574 15.75 9.75 16.7574 9.75 18H11.25ZM12 17.25C12.4142 17.25 12.75 17.5858 12.75 18H14.25C14.25 16.7574 13.2426 15.75 12 15.75V17.25Z" fill="#28303F"/>
<path d="M12 22H22" stroke="#28303F" stroke-width="1.5" stroke-linecap="round" stroke-linejoin="round"/>
</svg>
