<svg width="24" height="24" viewBox="0 0 24 24" fill="none" xmlns="http://www.w3.org/2000/svg">
<path d="M18 2V1.25V2ZM22 6H22.75H22ZM2 6H1.25H2ZM6 2V2.75V2ZM6 22V21.25V22ZM2 18H2.75H2ZM18 22V22.75V22ZM22 18H21.25H22ZM6.25 22C6.25 22.4142 6.58579 22.75 7 22.75C7.41422 22.75 7.75 22.4142 7.75 22H6.25ZM7.75 2C7.75 1.58579 7.41421 1.25 7 1.25C6.58579 1.25 6.25 1.58579 6.25 2L7.75 2ZM17 16.25H16.25V17.75H17V16.25ZM21 17.75H21.75V16.25H21V17.75ZM3 16.25H2.25L2.25 17.75H3L3 16.25ZM7 17.75H7.75L7.75 16.25H7L7 17.75ZM17 6.25L16.25 6.25V7.75L17 7.75V6.25ZM21 7.75L21.75 7.75V6.25L21 6.25V7.75ZM21 12.75H21.75V11.25H21V12.75ZM3 6.25L2.25 6.25L2.25 7.75L3 7.75L3 6.25ZM7 7.75L7.75 7.75L7.75 6.25L7 6.25L7 7.75ZM3 11.25H2.25L2.25 12.75H3V11.25ZM16.25 22C16.25 22.4142 16.5858 22.75 17 22.75C17.4142 22.75 17.75 22.4142 17.75 22H16.25ZM17.75 2C17.75 1.58579 17.4142 1.25 17 1.25C16.5858 1.25 16.25 1.58579 16.25 2L17.75 2ZM18 21.25L6 21.25V22.75L18 22.75V21.25ZM2.75 18L2.75 6H1.25L1.25 18H2.75ZM6 2.75L18 2.75V1.25L6 1.25V2.75ZM21.25 6L21.25 18H22.75L22.75 6H21.25ZM18 2.75C19.7949 2.75 21.25 4.20508 21.25 6H22.75C22.75 3.37665 20.6234 1.25 18 1.25V2.75ZM2.75 6C2.75 4.20508 4.20508 2.75 6 2.75V1.25C3.37665 1.25 1.25 3.37665 1.25 6H2.75ZM6 21.25C4.20507 21.25 2.75 19.7949 2.75 18H1.25C1.25 20.6234 3.37665 22.75 6 22.75V21.25ZM18 22.75C20.6234 22.75 22.75 20.6234 22.75 18H21.25C21.25 19.7949 19.7949 21.25 18 21.25V22.75ZM7.75 22L7.75 2L6.25 2L6.25 22H7.75ZM17 17.75L21 17.75V16.25L17 16.25V17.75ZM3 17.75L7 17.75L7 16.25L3 16.25L3 17.75ZM17 7.75L21 7.75V6.25L17 6.25V7.75ZM3 7.75L7 7.75L7 6.25L3 6.25L3 7.75ZM17.75 22L17.75 2L16.25 2L16.25 22H17.75ZM3 12.75L21 12.75V11.25L3 11.25V12.75Z" fill="#28303F"/>
</svg>
