<svg width="24" height="24" viewBox="0 0 24 24" fill="none" xmlns="http://www.w3.org/2000/svg">
<path d="M18.75 3V2.25H17.25V3H18.75ZM17.25 21V21.75H18.75V21H17.25ZM18 8.75H18.75V7.25H18V8.75ZM6 7.25H5.25V8.75H6V7.25ZM18 16.75H18.75V15.25H18V16.75ZM6 15.25H5.25V16.75H6V15.25ZM6.75 3V2.25H5.25V3H6.75ZM5.25 21V21.75H6.75V21H5.25ZM6 2.75H18V1.25H6V2.75ZM21.25 6V18H22.75V6H21.25ZM18 21.25H6V22.75H18V21.25ZM2.75 18V6H1.25V18H2.75ZM6 21.25C4.20507 21.25 2.75 19.7949 2.75 18H1.25C1.25 20.6234 3.37665 22.75 6 22.75V21.25ZM21.25 18C21.25 19.7949 19.7949 21.25 18 21.25V22.75C20.6234 22.75 22.75 20.6234 22.75 18H21.25ZM18 2.75C19.7949 2.75 21.25 4.20507 21.25 6H22.75C22.75 3.37665 20.6234 1.25 18 1.25V2.75ZM6 1.25C3.37665 1.25 1.25 3.37665 1.25 6H2.75C2.75 4.20507 4.20507 2.75 6 2.75V1.25ZM17.25 3V21H18.75V3H17.25ZM18 7.25L6 7.25V8.75L18 8.75V7.25ZM18 15.25L6 15.25V16.75L18 16.75V15.25ZM5.25 3V21H6.75V3H5.25Z" fill="#28303F"/>
</svg>
