<svg width="24" height="24" viewBox="0 0 24 24" fill="none" xmlns="http://www.w3.org/2000/svg">
<path d="M21.75 14C21.75 13.5858 21.4142 13.25 21 13.25C20.5858 13.25 20.25 13.5858 20.25 14H21.75ZM12 21.25C11.5858 21.25 11.25 21.5858 11.25 22C11.25 22.4142 11.5858 22.75 12 22.75V21.25ZM20.25 13V15H21.75V13H20.25ZM15.75 15V13H14.25V15H15.75ZM18 17.25C16.7574 17.25 15.75 16.2426 15.75 15H14.25C14.25 17.0711 15.9289 18.75 18 18.75V17.25ZM20.25 15C20.25 16.2426 19.2426 17.25 18 17.25V18.75C20.0711 18.75 21.75 17.0711 21.75 15H20.25ZM18 10.75C19.2426 10.75 20.25 11.7574 20.25 13H21.75C21.75 10.9289 20.0711 9.25 18 9.25V10.75ZM18 9.25C15.9289 9.25 14.25 10.9289 14.25 13H15.75C15.75 11.7574 16.7574 10.75 18 10.75V9.25ZM8.25 13V15H9.75V13H8.25ZM3.75 15V13H2.25V15H3.75ZM6 17.25C4.75736 17.25 3.75 16.2426 3.75 15H2.25C2.25 17.0711 3.92893 18.75 6 18.75V17.25ZM8.25 15C8.25 16.2426 7.24264 17.25 6 17.25V18.75C8.07107 18.75 9.75 17.0711 9.75 15H8.25ZM6 10.75C7.24264 10.75 8.25 11.7574 8.25 13H9.75C9.75 10.9289 8.07107 9.25 6 9.25V10.75ZM6 9.25C3.92893 9.25 2.25 10.9289 2.25 13H3.75C3.75 11.7574 4.75736 10.75 6 10.75V9.25ZM3.75 13V11H2.25V13H3.75ZM20.25 11V13H21.75V11H20.25ZM12 2.75C16.5563 2.75 20.25 6.44365 20.25 11H21.75C21.75 5.61522 17.3848 1.25 12 1.25V2.75ZM3.75 11C3.75 6.44365 7.44365 2.75 12 2.75V1.25C6.61522 1.25 2.25 5.61522 2.25 11H3.75ZM20.25 14V16H21.75V14H20.25ZM15 21.25H12V22.75H15V21.25ZM20.25 16C20.25 18.8995 17.8995 21.25 15 21.25V22.75C18.7279 22.75 21.75 19.7279 21.75 16H20.25Z" fill="#28303F"/>
</svg>
