<svg width="24" height="24" viewBox="0 0 24 24" fill="none" xmlns="http://www.w3.org/2000/svg">
<path d="M2 2L22 22" stroke="#28303F" stroke-width="1.5" stroke-linecap="round"/>
<path d="M8.25 16V18H9.75V16H8.25ZM3.75 18V16H2.25V18H3.75ZM6 20.25C4.75736 20.25 3.75 19.2426 3.75 18H2.25C2.25 20.0711 3.92893 21.75 6 21.75V20.25ZM8.25 18C8.25 19.2426 7.24264 20.25 6 20.25V21.75C8.07107 21.75 9.75 20.0711 9.75 18H8.25ZM6 13.75C7.24264 13.75 8.25 14.7574 8.25 16H9.75C9.75 13.9289 8.07107 12.25 6 12.25V13.75ZM6 12.25C3.92893 12.25 2.25 13.9289 2.25 16H3.75C3.75 14.7574 4.75736 13.75 6 13.75V12.25Z" fill="#28303F"/>
<path fill-rule="evenodd" clip-rule="evenodd" d="M21.6872 18.6872C21.7284 18.4644 21.75 18.2347 21.75 18V16C21.75 13.9289 20.0711 12.25 18 12.25C17.22 12.25 16.4957 12.4881 15.8956 12.8956L16.9893 13.9893C17.2932 13.8362 17.6365 13.75 18 13.75C19.2426 13.75 20.25 14.7574 20.25 16V17.25L21.6872 18.6872ZM17.0314 20.0314L18.6872 21.6872C18.4644 21.7284 18.2347 21.75 18 21.75C15.9289 21.75 14.25 20.0711 14.25 18V17.25L15.9686 18.9686C16.1904 19.4331 16.5669 19.8096 17.0314 20.0314Z" fill="#28303F"/>
<path fill-rule="evenodd" clip-rule="evenodd" d="M7.86152 4.86152C9.07803 4.15473 10.4917 3.75 12 3.75C16.5563 3.75 20.25 7.44365 20.25 12V16V16.75H21.75V16V12C21.75 6.61522 17.3848 2.25 12 2.25C10.0755 2.25 8.28127 2.80757 6.76997 3.76997L7.86152 4.86152ZM4.62375 5.62375L5.6877 6.68771C4.47857 8.12297 3.75 9.9764 3.75 12V16V16.75H2.25V16V12C2.25 9.56212 3.14474 7.33321 4.62375 5.62375Z" fill="#28303F"/>
</svg>
