<svg width="24" height="24" viewBox="0 0 24 24" fill="none" xmlns="http://www.w3.org/2000/svg">
<path d="M20.25 16V18H21.75V16H20.25ZM15.75 18V16H14.25V18H15.75ZM18 20.25C16.7574 20.25 15.75 19.2426 15.75 18H14.25C14.25 20.0711 15.9289 21.75 18 21.75V20.25ZM20.25 18C20.25 19.2426 19.2426 20.25 18 20.25V21.75C20.0711 21.75 21.75 20.0711 21.75 18H20.25ZM18 13.75C19.2426 13.75 20.25 14.7574 20.25 16H21.75C21.75 13.9289 20.0711 12.25 18 12.25V13.75ZM18 12.25C15.9289 12.25 14.25 13.9289 14.25 16H15.75C15.75 14.7574 16.7574 13.75 18 13.75V12.25ZM8.25 16V18H9.75V16H8.25ZM3.75 18V16H2.25V18H3.75ZM6 20.25C4.75736 20.25 3.75 19.2426 3.75 18H2.25C2.25 20.0711 3.92893 21.75 6 21.75V20.25ZM8.25 18C8.25 19.2426 7.24264 20.25 6 20.25V21.75C8.07107 21.75 9.75 20.0711 9.75 18H8.25ZM6 13.75C7.24264 13.75 8.25 14.7574 8.25 16H9.75C9.75 13.9289 8.07107 12.25 6 12.25V13.75ZM6 12.25C3.92893 12.25 2.25 13.9289 2.25 16H3.75C3.75 14.7574 4.75736 13.75 6 13.75V12.25ZM3.75 16V12H2.25V16H3.75ZM20.25 12V16H21.75V12H20.25ZM12 3.75C16.5563 3.75 20.25 7.44365 20.25 12H21.75C21.75 6.61522 17.3848 2.25 12 2.25V3.75ZM3.75 12C3.75 7.44365 7.44365 3.75 12 3.75V2.25C6.61522 2.25 2.25 6.61522 2.25 12H3.75Z" fill="#28303F"/>
</svg>
