<svg width="24" height="24" viewBox="0 0 24 24" fill="none" xmlns="http://www.w3.org/2000/svg">
<path d="M12 2.75C12.4142 2.75 12.75 2.41421 12.75 2C12.75 1.58579 12.4142 1.25 12 1.25V2.75ZM22.75 10C22.75 9.58579 22.4142 9.25 22 9.25C21.5858 9.25 21.25 9.58579 21.25 10H22.75ZM18.5 2.88897L17.9494 3.39826C18.0914 3.55172 18.291 3.63897 18.5 3.63897C18.709 3.63897 18.9086 3.55172 19.0506 3.39826L18.5 2.88897ZM18.7678 2.5995L19.3183 3.1088L19.3183 3.1088L18.7678 2.5995ZM18.2322 2.5995L17.6817 3.10879V3.1088L18.2322 2.5995ZM15.5546 5.49415L15.004 6.00344L15.5546 5.49415ZM17.4289 7.5204L17.9795 7.01111L17.4289 7.5204ZM19.5711 7.5204L20.1216 8.02969L19.5711 7.5204ZM21.4454 5.49415L20.8949 4.98485L21.4454 5.49415ZM21.5618 14.6087C21.8979 14.8507 22.3666 14.7744 22.6087 14.4382C22.8507 14.1021 22.7744 13.6334 22.4382 13.3913L21.5618 14.6087ZM19.061 11.8839L18.6228 12.4926L19.061 11.8839ZM14.0479 12.1569L14.5496 12.7143L14.0479 12.1569ZM9.95209 15.8431L10.4538 16.4006L9.95209 15.8431ZM4.93901 16.1161L5.37724 15.5074L4.93901 16.1161ZM2.43823 13.3913C2.10208 13.1493 1.63338 13.2256 1.39135 13.5618C1.14932 13.8979 1.22562 14.3666 1.56177 14.6087L2.43823 13.3913ZM18 21.25H6V22.75H18V21.25ZM2.75 18V6H1.25V18H2.75ZM6 2.75H12V1.25H6V2.75ZM21.25 10V18H22.75V10H21.25ZM6 21.25C4.20507 21.25 2.75 19.7949 2.75 18H1.25C1.25 20.6234 3.37665 22.75 6 22.75V21.25ZM18 22.75C20.6234 22.75 22.75 20.6234 22.75 18H21.25C21.25 19.7949 19.7949 21.25 18 21.25V22.75ZM2.75 6C2.75 4.20507 4.20507 2.75 6 2.75V1.25C3.37665 1.25 1.25 3.37665 1.25 6H2.75ZM19.0506 3.39826L19.3183 3.1088L18.2172 2.09021L17.9494 2.37967L19.0506 3.39826ZM17.6817 3.1088L17.9494 3.39826L19.0506 2.37967L18.7828 2.09021L17.6817 3.1088ZM15.004 6.00344L16.8784 8.02969L17.9795 7.01111L16.1051 4.98485L15.004 6.00344ZM20.1216 8.02969L21.996 6.00344L20.8949 4.98485L19.0205 7.01111L20.1216 8.02969ZM20.8949 3.10879C21.3684 3.62067 21.3684 4.47298 20.8949 4.98485L21.996 6.00344C23.0013 4.91664 23.0013 3.17701 21.996 2.09021L20.8949 3.10879ZM21.996 2.09021C20.9597 0.969931 19.2535 0.969931 18.2172 2.09021L19.3183 3.1088C19.7609 2.6304 20.4523 2.6304 20.8949 3.10879L21.996 2.09021ZM16.1051 3.10879C16.5477 2.6304 17.2391 2.6304 17.6817 3.10879L18.7828 2.09021C17.7465 0.969931 16.0403 0.969931 15.004 2.09021L16.1051 3.10879ZM16.8784 8.02969C17.7668 8.9901 19.2332 8.9901 20.1216 8.02969L19.0205 7.01111C18.7259 7.32963 18.2741 7.32963 17.9795 7.01111L16.8784 8.02969ZM15.004 2.09021C13.9987 3.17701 13.9987 4.91664 15.004 6.00344L16.1051 4.98485C15.6316 4.47298 15.6316 3.62067 16.1051 3.10879L15.004 2.09021ZM22.4382 13.3913L19.4992 11.2753L18.6228 12.4926L21.5618 14.6087L22.4382 13.3913ZM13.5462 11.5994L9.45036 15.2857L10.4538 16.4006L14.5496 12.7143L13.5462 11.5994ZM5.37724 15.5074L2.43823 13.3913L1.56177 14.6087L4.50078 16.7247L5.37724 15.5074ZM9.45036 15.2857C8.31386 16.3085 6.61808 16.4008 5.37724 15.5074L4.50078 16.7247C6.31432 18.0305 8.79277 17.8955 10.4538 16.4006L9.45036 15.2857ZM19.4992 11.2753C17.6857 9.96952 15.2072 10.1045 13.5462 11.5994L14.5496 12.7143C15.6861 11.6915 17.3819 11.5992 18.6228 12.4926L19.4992 11.2753ZM10.25 8.5C10.25 9.4665 9.4665 10.25 8.5 10.25V11.75C10.2949 11.75 11.75 10.2949 11.75 8.5H10.25ZM8.5 10.25C7.5335 10.25 6.75 9.4665 6.75 8.5H5.25C5.25 10.2949 6.70507 11.75 8.5 11.75V10.25ZM6.75 8.5C6.75 7.5335 7.5335 6.75 8.5 6.75V5.25C6.70507 5.25 5.25 6.70507 5.25 8.5H6.75ZM8.5 6.75C9.4665 6.75 10.25 7.5335 10.25 8.5H11.75C11.75 6.70507 10.2949 5.25 8.5 5.25V6.75Z" fill="#28303F"/>
</svg>
