<svg width="24" height="24" viewBox="0 0 24 24" fill="none" xmlns="http://www.w3.org/2000/svg">
<path d="M14 2.75C14.4142 2.75 14.75 2.41421 14.75 2C14.75 1.58579 14.4142 1.25 14 1.25V2.75ZM22.75 10C22.75 9.58579 22.4142 9.25 22 9.25C21.5858 9.25 21.25 9.58579 21.25 10H22.75ZM20.4697 7.53033C20.7626 7.82322 21.2374 7.82322 21.5303 7.53033C21.8232 7.23744 21.8232 6.76256 21.5303 6.46967L20.4697 7.53033ZM17.5303 2.46967C17.2374 2.17678 16.7626 2.17678 16.4697 2.46967C16.1768 2.76256 16.1768 3.23744 16.4697 3.53033L17.5303 2.46967ZM16.4697 6.46967C16.1768 6.76256 16.1768 7.23744 16.4697 7.53033C16.7626 7.82322 17.2374 7.82322 17.5303 7.53033L16.4697 6.46967ZM21.5303 3.53033C21.8232 3.23744 21.8232 2.76256 21.5303 2.46967C21.2374 2.17678 20.7626 2.17678 20.4697 2.46967L21.5303 3.53033ZM21.5618 14.6087C21.8979 14.8507 22.3666 14.7744 22.6087 14.4382C22.8507 14.1021 22.7744 13.6334 22.4382 13.3913L21.5618 14.6087ZM19.061 11.8839L18.6228 12.4926L19.061 11.8839ZM14.0479 12.1569L14.5496 12.7143L14.0479 12.1569ZM9.95209 15.8431L10.4538 16.4006L9.95209 15.8431ZM4.93901 16.1161L5.37724 15.5074L4.93901 16.1161ZM2.43823 13.3913C2.10208 13.1493 1.63338 13.2256 1.39135 13.5618C1.14932 13.8979 1.22562 14.3666 1.56177 14.6087L2.43823 13.3913ZM18 21.25H6V22.75H18V21.25ZM2.75 18V6H1.25V18H2.75ZM6 2.75H14V1.25H6V2.75ZM21.25 10V18H22.75V10H21.25ZM6 21.25C4.20507 21.25 2.75 19.7949 2.75 18H1.25C1.25 20.6234 3.37665 22.75 6 22.75V21.25ZM18 22.75C20.6234 22.75 22.75 20.6234 22.75 18H21.25C21.25 19.7949 19.7949 21.25 18 21.25V22.75ZM2.75 6C2.75 4.20507 4.20507 2.75 6 2.75V1.25C3.37665 1.25 1.25 3.37665 1.25 6H2.75ZM21.5303 6.46967L19.5303 4.46967L18.4697 5.53033L20.4697 7.53033L21.5303 6.46967ZM19.5303 4.46967L17.5303 2.46967L16.4697 3.53033L18.4697 5.53033L19.5303 4.46967ZM17.5303 7.53033L19.5303 5.53033L18.4697 4.46967L16.4697 6.46967L17.5303 7.53033ZM19.5303 5.53033L21.5303 3.53033L20.4697 2.46967L18.4697 4.46967L19.5303 5.53033ZM22.4382 13.3913L19.4992 11.2753L18.6228 12.4926L21.5618 14.6087L22.4382 13.3913ZM13.5462 11.5994L9.45036 15.2857L10.4538 16.4006L14.5496 12.7143L13.5462 11.5994ZM5.37724 15.5074L2.43823 13.3913L1.56177 14.6087L4.50078 16.7247L5.37724 15.5074ZM9.45036 15.2857C8.31386 16.3085 6.61808 16.4008 5.37724 15.5074L4.50078 16.7247C6.31432 18.0305 8.79277 17.8955 10.4538 16.4006L9.45036 15.2857ZM19.4992 11.2753C17.6857 9.96952 15.2072 10.1045 13.5462 11.5994L14.5496 12.7143C15.6861 11.6915 17.3819 11.5992 18.6228 12.4926L19.4992 11.2753ZM10.25 8.5C10.25 9.4665 9.4665 10.25 8.5 10.25V11.75C10.2949 11.75 11.75 10.2949 11.75 8.5H10.25ZM8.5 10.25C7.5335 10.25 6.75 9.4665 6.75 8.5H5.25C5.25 10.2949 6.70507 11.75 8.5 11.75V10.25ZM6.75 8.5C6.75 7.5335 7.5335 6.75 8.5 6.75V5.25C6.70507 5.25 5.25 6.70507 5.25 8.5H6.75ZM8.5 6.75C9.4665 6.75 10.25 7.5335 10.25 8.5H11.75C11.75 6.70507 10.2949 5.25 8.5 5.25V6.75Z" fill="#28303F"/>
</svg>
