<svg width="24" height="24" viewBox="0 0 24 24" fill="none" xmlns="http://www.w3.org/2000/svg">
<path d="M21.1094 11.4063L20.6934 12.0303L21.1094 11.4063ZM18.7285 9.81898L19.1445 9.19494L18.7285 9.81898ZM13.6812 10.3188L13.1509 9.78843L13.6812 10.3188ZM5.27153 14.181L5.68755 13.557L5.27153 14.181ZM3.5547 13.0365L3.13867 13.6605H3.13867L3.5547 13.0365ZM21.5254 10.7822L19.1445 9.19494L18.3124 10.443L20.6934 12.0303L21.5254 10.7822ZM13.1509 9.78843L9.78842 13.1509L10.8491 14.2116L14.2116 10.8491L13.1509 9.78843ZM5.68755 13.557L3.97072 12.4124L3.13867 13.6605L4.8555 14.8051L5.68755 13.557ZM21.25 13.0704V16H22.75V13.0704H21.25ZM18 19.25H6V20.75H18V19.25ZM2.75 16V13.8685H1.25V16H2.75ZM6 19.25C4.20507 19.25 2.75 17.7949 2.75 16H1.25C1.25 18.6234 3.37665 20.75 6 20.75V19.25ZM21.25 16C21.25 17.7949 19.7949 19.25 18 19.25V20.75C20.6234 20.75 22.75 18.6234 22.75 16H21.25ZM3.97072 12.4124C2.80775 11.6371 1.25 12.4708 1.25 13.8685H2.75C2.75 13.6688 2.97254 13.5497 3.13867 13.6605L3.97072 12.4124ZM9.78842 13.1509C8.69296 14.2464 6.97658 14.4163 5.68755 13.557L4.8555 14.8051C6.73946 16.061 9.24803 15.8126 10.8491 14.2116L9.78842 13.1509ZM19.1445 9.19494C17.2605 7.93897 14.752 8.18737 13.1509 9.78843L14.2116 10.8491C15.307 9.75363 17.0234 9.58367 18.3124 10.443L19.1445 9.19494ZM20.6934 12.0303C21.0411 12.2621 21.25 12.6524 21.25 13.0704H22.75C22.75 12.1509 22.2905 11.2923 21.5254 10.7822L20.6934 12.0303ZM9.25 6.5C9.25 7.4665 8.4665 8.25 7.5 8.25V9.75C9.29493 9.75 10.75 8.29493 10.75 6.5H9.25ZM7.5 8.25C6.5335 8.25 5.75 7.4665 5.75 6.5H4.25C4.25 8.29493 5.70507 9.75 7.5 9.75V8.25ZM5.75 6.5C5.75 5.5335 6.5335 4.75 7.5 4.75V3.25C5.70507 3.25 4.25 4.70507 4.25 6.5H5.75ZM7.5 4.75C8.4665 4.75 9.25 5.5335 9.25 6.5H10.75C10.75 4.70507 9.29493 3.25 7.5 3.25V4.75Z" fill="#28303F"/>
</svg>
