<svg width="24" height="24" viewBox="0 0 24 24" fill="none" xmlns="http://www.w3.org/2000/svg">
<path d="M15 2.75C15.4142 2.75 15.75 2.41421 15.75 2C15.75 1.58579 15.4142 1.25 15 1.25V2.75ZM22.75 9C22.75 8.58579 22.4142 8.25 22 8.25C21.5858 8.25 21.25 8.58579 21.25 9H22.75ZM21.5618 14.6087C21.8979 14.8507 22.3666 14.7744 22.6087 14.4382C22.8507 14.1021 22.7744 13.6334 22.4382 13.3913L21.5618 14.6087ZM19.061 11.8839L18.6228 12.4926L19.061 11.8839ZM14.0479 12.1569L14.5496 12.7143L14.0479 12.1569ZM9.95209 15.8431L10.4538 16.4006L9.95209 15.8431ZM4.93901 16.1161L5.37724 15.5074L4.93901 16.1161ZM2.43823 13.3913C2.10208 13.1493 1.63338 13.2256 1.39135 13.5618C1.14932 13.8979 1.22562 14.3666 1.56177 14.6087L2.43823 13.3913ZM19.1292 2.43934L19.6595 2.96967V2.96967L19.1292 2.43934ZM15.7081 5.86045L15.1777 5.33012L15.7081 5.86045ZM17.8294 7.98177L18.3597 8.5121L17.8294 7.98177ZM21.2505 4.56066L20.7202 4.03033V4.03033L21.2505 4.56066ZM15.4442 6.32823L16.1724 6.50772L15.4442 6.32823ZM15.015 8.06973L15.7432 8.24922L15.015 8.06973ZM15.6201 8.67486L15.4406 7.94665H15.4406L15.6201 8.67486ZM17.3616 8.2456L17.1821 7.5174L17.3616 8.2456ZM18 21.25H6V22.75H18V21.25ZM2.75 18V6H1.25V18H2.75ZM6 2.75H15V1.25H6V2.75ZM21.25 9V18H22.75V9H21.25ZM6 21.25C4.20507 21.25 2.75 19.7949 2.75 18H1.25C1.25 20.6234 3.37665 22.75 6 22.75V21.25ZM18 22.75C20.6234 22.75 22.75 20.6234 22.75 18H21.25C21.25 19.7949 19.7949 21.25 18 21.25V22.75ZM2.75 6C2.75 4.20507 4.20507 2.75 6 2.75V1.25C3.37665 1.25 1.25 3.37665 1.25 6H2.75ZM22.4382 13.3913L19.4992 11.2753L18.6228 12.4926L21.5618 14.6087L22.4382 13.3913ZM13.5462 11.5994L9.45036 15.2857L10.4538 16.4006L14.5496 12.7143L13.5462 11.5994ZM5.37724 15.5074L2.43823 13.3913L1.56177 14.6087L4.50078 16.7247L5.37724 15.5074ZM9.45036 15.2857C8.31386 16.3085 6.61808 16.4008 5.37724 15.5074L4.50078 16.7247C6.31432 18.0305 8.79277 17.8955 10.4538 16.4006L9.45036 15.2857ZM19.4992 11.2753C17.6857 9.96952 15.2072 10.1045 13.5462 11.5994L14.5496 12.7143C15.6861 11.6915 17.3819 11.5992 18.6228 12.4926L19.4992 11.2753ZM10.25 8.5C10.25 9.4665 9.4665 10.25 8.5 10.25V11.75C10.2949 11.75 11.75 10.2949 11.75 8.5H10.25ZM8.5 10.25C7.5335 10.25 6.75 9.4665 6.75 8.5H5.25C5.25 10.2949 6.70507 11.75 8.5 11.75V10.25ZM6.75 8.5C6.75 7.5335 7.5335 6.75 8.5 6.75V5.25C6.70507 5.25 5.25 6.70507 5.25 8.5H6.75ZM8.5 6.75C9.4665 6.75 10.25 7.5335 10.25 8.5H11.75C11.75 6.70507 10.2949 5.25 8.5 5.25V6.75ZM18.5988 1.90901L15.1777 5.33012L16.2384 6.39078L19.6595 2.96967L18.5988 1.90901ZM18.3597 8.5121L21.7808 5.09099L20.7202 4.03033L17.2991 7.45144L18.3597 8.5121ZM14.716 6.14874L14.2868 7.89023L15.7432 8.24922L16.1724 6.50772L14.716 6.14874ZM15.7996 9.40306L17.5411 8.9738L17.1821 7.5174L15.4406 7.94665L15.7996 9.40306ZM14.2868 7.89023C14.0618 8.80293 14.8869 9.62803 15.7996 9.40306L15.4406 7.94665C15.6231 7.90166 15.7882 8.06668 15.7432 8.24922L14.2868 7.89023ZM21.7808 5.09099C22.6595 4.21231 22.6595 2.78769 21.7808 1.90901L20.7202 2.96967C21.0131 3.26256 21.0131 3.73744 20.7202 4.03033L21.7808 5.09099ZM17.2991 7.45144C17.2668 7.48368 17.2264 7.50648 17.1821 7.5174L17.5411 8.9738C17.851 8.89743 18.134 8.73777 18.3597 8.5121L17.2991 7.45144ZM15.1777 5.33012C14.9521 5.55578 14.7924 5.83887 14.716 6.14874L16.1724 6.50772C16.1833 6.46346 16.2062 6.42302 16.2384 6.39078L15.1777 5.33012ZM19.6595 2.96967C19.9524 2.67678 20.4273 2.67678 20.7202 2.96967L21.7808 1.90901C20.9021 1.03033 19.4775 1.03033 18.5988 1.90901L19.6595 2.96967Z" fill="#28303F"/>
</svg>
