<svg width="24" height="24" viewBox="0 0 24 24" fill="none" xmlns="http://www.w3.org/2000/svg">
<path d="M8 2.75H16V1.25H8V2.75ZM19.25 6V18H20.75V6H19.25ZM16 21.25H8V22.75H16V21.25ZM4.75 18V6H3.25V18H4.75ZM8 21.25C6.20507 21.25 4.75 19.7949 4.75 18H3.25C3.25 20.6234 5.37665 22.75 8 22.75V21.25ZM19.25 18C19.25 19.7949 17.7949 21.25 16 21.25V22.75C18.6234 22.75 20.75 20.6234 20.75 18H19.25ZM16 2.75C17.7949 2.75 19.25 4.20507 19.25 6H20.75C20.75 3.37665 18.6234 1.25 16 1.25V2.75ZM8 1.25C5.37665 1.25 3.25 3.37665 3.25 6H4.75C4.75 4.20507 6.20507 2.75 8 2.75V1.25ZM15.25 15C15.25 16.7949 13.7949 18.25 12 18.25V19.75C14.6234 19.75 16.75 17.6234 16.75 15H15.25ZM12 18.25C10.2051 18.25 8.75 16.7949 8.75 15H7.25C7.25 17.6234 9.37665 19.75 12 19.75V18.25ZM8.75 15C8.75 13.2051 10.2051 11.75 12 11.75V10.25C9.37665 10.25 7.25 12.3766 7.25 15H8.75ZM12 11.75C13.7949 11.75 15.25 13.2051 15.25 15H16.75C16.75 12.3766 14.6234 10.25 12 10.25V11.75Z" fill="#28303F"/>
<circle r="1" transform="matrix(1 0 0 -1 12 15)" fill="#28303F"/>
<path d="M13.5 6.5C13.5 7.32843 12.8284 8 12 8C11.1716 8 10.5 7.32843 10.5 6.5C10.5 5.67157 11.1716 5 12 5C12.8284 5 13.5 5.67157 13.5 6.5Z" fill="#28303F"/>
</svg>
