<svg width="24" height="24" viewBox="0 0 24 24" fill="none" xmlns="http://www.w3.org/2000/svg">
<path d="M18.3675 8.8776L18.1304 8.16609L18.3675 8.8776ZM11.7351 11.0884L11.9723 11.7999L11.7351 11.0884ZM20.25 12.0001C20.25 12.4143 20.5858 12.7501 21 12.7501C21.4142 12.7501 21.75 12.4143 21.75 12.0001H20.25ZM18.3675 2.8776L18.6047 3.58912L18.3675 2.8776ZM11.7351 5.08842L11.4979 4.37691L11.7351 5.08842ZM8.25 14.0001C8.25 14.4143 8.58579 14.7501 9 14.7501C9.41421 14.7501 9.75 14.4143 9.75 14.0001H8.25ZM20.25 17.0001C20.25 18.2428 19.2426 19.2501 18 19.2501V20.7501C20.0711 20.7501 21.75 19.0712 21.75 17.0001H20.25ZM18 19.2501C16.7574 19.2501 15.75 18.2428 15.75 17.0001H14.25C14.25 19.0712 15.9289 20.7501 18 20.7501V19.2501ZM15.75 17.0001C15.75 15.7575 16.7574 14.7501 18 14.7501V13.2501C15.9289 13.2501 14.25 14.9291 14.25 17.0001H15.75ZM18 14.7501C19.2426 14.7501 20.25 15.7575 20.25 17.0001H21.75C21.75 14.9291 20.0711 13.2501 18 13.2501V14.7501ZM8.25 19.0001C8.25 20.2428 7.24264 21.2501 6 21.2501V22.7501C8.07107 22.7501 9.75 21.0712 9.75 19.0001H8.25ZM6 21.2501C4.75736 21.2501 3.75 20.2428 3.75 19.0001H2.25C2.25 21.0712 3.92893 22.7501 6 22.7501V21.2501ZM3.75 19.0001C3.75 17.7575 4.75736 16.7501 6 16.7501V15.2501C3.92893 15.2501 2.25 16.9291 2.25 19.0001H3.75ZM6 16.7501C7.24264 16.7501 8.25 17.7575 8.25 19.0001H9.75C9.75 16.9291 8.07107 15.2501 6 15.2501V16.7501ZM21.75 17.0001V10.775H20.25V17.0001H21.75ZM18.1304 8.16609L11.4979 10.3769L11.9723 11.7999L18.6047 9.58912L18.1304 8.16609ZM8.25 14.8832V19.0001H9.75V14.8832H8.25ZM11.4979 10.3769C9.55829 11.0235 8.25 12.8386 8.25 14.8832H9.75C9.75 13.4843 10.6451 12.2423 11.9723 11.7999L11.4979 10.3769ZM21.75 10.775C21.75 8.89794 19.9111 7.57252 18.1304 8.16609L18.6047 9.58912C19.4141 9.31931 20.25 9.92177 20.25 10.775H21.75ZM21.75 12.0001V4.77497H20.25V12.0001H21.75ZM18.1304 2.16609L11.4979 4.37691L11.9723 5.79994L18.6047 3.58912L18.1304 2.16609ZM8.25 8.88316V14.0001H9.75V8.88316H8.25ZM11.4979 4.37691C9.55829 5.02345 8.25 6.83861 8.25 8.88316H9.75C9.75 7.48426 10.6451 6.24231 11.9723 5.79994L11.4979 4.37691ZM21.75 4.77497C21.75 2.89794 19.9111 1.57252 18.1304 2.16609L18.6047 3.58912C19.4141 3.31931 20.25 3.92177 20.25 4.77497H21.75Z" fill="#28303F"/>
</svg>
