<svg width="24" height="24" viewBox="0 0 24 24" fill="none" xmlns="http://www.w3.org/2000/svg">
<path d="M14.1094 7.33926L14.5254 6.71522L14.1094 7.33926ZM16.1094 8.6726L15.6934 9.29663L16.1094 8.6726ZM6 2.75H18V1.25H6V2.75ZM21.25 6V18H22.75V6H21.25ZM18 21.25H6V22.75H18V21.25ZM2.75 18V6H1.25V18H2.75ZM6 21.25C4.20507 21.25 2.75 19.7949 2.75 18H1.25C1.25 20.6234 3.37665 22.75 6 22.75V21.25ZM21.25 18C21.25 19.7949 19.7949 21.25 18 21.25V22.75C20.6234 22.75 22.75 20.6234 22.75 18H21.25ZM18 2.75C19.7949 2.75 21.25 4.20507 21.25 6H22.75C22.75 3.37665 20.6234 1.25 18 1.25V2.75ZM6 1.25C3.37665 1.25 1.25 3.37665 1.25 6H2.75C2.75 4.20507 4.20507 2.75 6 2.75V1.25ZM16.25 15.2663C16.25 15.9567 15.6904 16.5163 15 16.5163V18.0163C16.5188 18.0163 17.75 16.7851 17.75 15.2663H16.25ZM15 16.5163C14.3096 16.5163 13.75 15.9567 13.75 15.2663H12.25C12.25 16.7851 13.4812 18.0163 15 18.0163V16.5163ZM13.75 15.2663C13.75 14.576 14.3096 14.0163 15 14.0163V12.5163C13.4812 12.5163 12.25 13.7475 12.25 15.2663H13.75ZM15 14.0163C15.6904 14.0163 16.25 14.576 16.25 15.2663H17.75C17.75 13.7475 16.5188 12.5163 15 12.5163V14.0163ZM10.25 12.2663C10.25 12.9567 9.69036 13.5163 9 13.5163V15.0163C10.5188 15.0163 11.75 13.7851 11.75 12.2663H10.25ZM9 13.5163C8.30964 13.5163 7.75 12.9567 7.75 12.2663H6.25C6.25 13.7851 7.48122 15.0163 9 15.0163V13.5163ZM7.75 12.2663C7.75 11.576 8.30964 11.0163 9 11.0163V9.51633C7.48122 9.51633 6.25 10.7475 6.25 12.2663H7.75ZM9 11.0163C9.69036 11.0163 10.25 11.576 10.25 12.2663H11.75C11.75 10.7475 10.5188 9.51633 9 9.51633V11.0163ZM11.75 12.2663V9.00336H10.25V12.2663H11.75ZM13.6934 7.9633L15.6934 9.29663L16.5254 8.04856L14.5254 6.71522L13.6934 7.9633ZM16.25 10.3367V15.2663H17.75V10.3367H16.25ZM15.6934 9.29663C16.0411 9.52847 16.25 9.91876 16.25 10.3367H17.75C17.75 9.41722 17.2905 8.55859 16.5254 8.04856L15.6934 9.29663ZM11.75 9.00336C11.75 8.00499 12.8627 7.4095 13.6934 7.9633L14.5254 6.71522C12.6979 5.49687 10.25 6.80695 10.25 9.00336H11.75Z" fill="#28303F"/>
</svg>
