<svg width="24" height="24" viewBox="0 0 24 24" fill="none" xmlns="http://www.w3.org/2000/svg">
<path d="M12 7V6.25C11.5858 6.25 11.25 6.58579 11.25 7H12ZM16.25 12C16.25 12.4142 16.5858 12.75 17 12.75C17.4142 12.75 17.75 12.4142 17.75 12H16.25ZM6 2.75H18V1.25H6V2.75ZM21.25 6V18H22.75V6H21.25ZM18 21.25H6V22.75H18V21.25ZM2.75 18V6H1.25V18H2.75ZM6 21.25C4.20507 21.25 2.75 19.7949 2.75 18H1.25C1.25 20.6234 3.37665 22.75 6 22.75V21.25ZM21.25 18C21.25 19.7949 19.7949 21.25 18 21.25V22.75C20.6234 22.75 22.75 20.6234 22.75 18H21.25ZM18 2.75C19.7949 2.75 21.25 4.20507 21.25 6H22.75C22.75 3.37665 20.6234 1.25 18 1.25V2.75ZM6 1.25C3.37665 1.25 1.25 3.37665 1.25 6H2.75C2.75 4.20507 4.20507 2.75 6 2.75V1.25ZM12 7.75C14.3472 7.75 16.25 9.65279 16.25 12H17.75C17.75 8.82436 15.1756 6.25 12 6.25V7.75ZM11.25 14.5C11.25 15.4665 10.4665 16.25 9.5 16.25V17.75C11.2949 17.75 12.75 16.2949 12.75 14.5H11.25ZM9.5 16.25C8.5335 16.25 7.75 15.4665 7.75 14.5H6.25C6.25 16.2949 7.70507 17.75 9.5 17.75V16.25ZM7.75 14.5C7.75 13.5335 8.5335 12.75 9.5 12.75V11.25C7.70507 11.25 6.25 12.7051 6.25 14.5H7.75ZM9.5 12.75C10.4665 12.75 11.25 13.5335 11.25 14.5H12.75C12.75 12.7051 11.2949 11.25 9.5 11.25V12.75ZM11.25 7V14.5H12.75V7H11.25Z" fill="#28303F"/>
</svg>
