<svg width="24" height="24" viewBox="0 0 24 24" fill="none" xmlns="http://www.w3.org/2000/svg">
<path d="M18.3165 2.97591L18.0602 2.27106L18.3165 2.97591ZM12.633 5.04263L12.3767 4.33779L12.633 5.04263ZM20.25 12.5001C20.25 14.0189 19.0188 15.2501 17.5 15.2501V16.7501C19.8472 16.7501 21.75 14.8473 21.75 12.5001H20.25ZM17.5 15.2501C15.9812 15.2501 14.75 14.0189 14.75 12.5001H13.25C13.25 14.8473 15.1528 16.7501 17.5 16.7501V15.2501ZM14.75 12.5001C14.75 10.9813 15.9812 9.75009 17.5 9.75009V8.25009C15.1528 8.25009 13.25 10.1529 13.25 12.5001H14.75ZM17.5 9.75009C19.0188 9.75009 20.25 10.9813 20.25 12.5001H21.75C21.75 10.1529 19.8472 8.25009 17.5 8.25009V9.75009ZM9.25 18.5001C9.25 20.0189 8.01878 21.2501 6.5 21.2501V22.7501C8.84721 22.7501 10.75 20.8473 10.75 18.5001H9.25ZM6.5 21.2501C4.98122 21.2501 3.75 20.0189 3.75 18.5001H2.25C2.25 20.8473 4.15279 22.7501 6.5 22.7501V21.2501ZM3.75 18.5001C3.75 16.9813 4.98122 15.7501 6.5 15.7501V14.2501C4.15279 14.2501 2.25 16.1529 2.25 18.5001H3.75ZM6.5 15.7501C8.01878 15.7501 9.25 16.9813 9.25 18.5001H10.75C10.75 16.1529 8.84721 14.2501 6.5 14.2501V15.7501ZM21.75 12.5001V4.85549H20.25V12.5001H21.75ZM18.0602 2.27106L12.3767 4.33779L12.8893 5.74748L18.5728 3.68075L18.0602 2.27106ZM9.25 8.8018V18.5001H10.75V8.8018H9.25ZM12.3767 4.33779C10.4996 5.02039 9.25 6.8044 9.25 8.8018H10.75C10.75 7.43516 11.605 6.21452 12.8893 5.74748L12.3767 4.33779ZM21.75 4.85549C21.75 2.94709 19.8537 1.61888 18.0602 2.27106L18.5728 3.68075C19.3881 3.38431 20.25 3.98804 20.25 4.85549H21.75Z" fill="#28303F"/>
</svg>
