<svg width="24" height="24" viewBox="0 0 24 24" fill="none" xmlns="http://www.w3.org/2000/svg">
<path d="M14.9798 2.24677L14.7947 2.97359L14.9798 2.24677ZM20.4185 12.9999L19.7233 13.2813C19.8379 13.5646 20.1129 13.7499 20.4185 13.7499C20.724 13.7499 20.999 13.5646 21.1137 13.2813L20.4185 12.9999ZM12.25 16.9999C12.25 19.3471 10.3472 21.2499 8 21.2499V22.7499C11.1756 22.7499 13.75 20.1756 13.75 16.9999H12.25ZM8 21.2499C5.65279 21.2499 3.75 19.3471 3.75 16.9999H2.25C2.25 20.1756 4.82436 22.7499 8 22.7499V21.2499ZM3.75 16.9999C3.75 14.6527 5.65279 12.7499 8 12.7499V11.2499C4.82436 11.2499 2.25 13.8243 2.25 16.9999H3.75ZM8 12.7499C10.3472 12.7499 12.25 14.6527 12.25 16.9999H13.75C13.75 13.8243 11.1756 11.2499 8 11.2499V12.7499ZM14.7947 2.97359C17.9311 3.77205 20.25 6.61613 20.25 9.99992H21.75C21.75 5.91378 18.9498 2.48354 15.1648 1.51995L14.7947 2.97359ZM13 8.74992C16.0414 8.74992 18.6472 10.623 19.7233 13.2813L21.1137 12.7185C19.8162 9.5132 16.6733 7.24992 13 7.24992V8.74992ZM20.25 9.99992C20.25 10.9627 20.0627 11.88 19.7233 12.7185L21.1137 13.2813C21.5243 12.267 21.75 11.1589 21.75 9.99992H20.25ZM12.25 3.99992V7.99992H13.75V3.99992H12.25ZM15.1648 1.51995C13.4891 1.09335 12.25 2.55079 12.25 3.99992H13.75C13.75 3.2399 14.3296 2.85517 14.7947 2.97359L15.1648 1.51995ZM12.25 7.99992V16.9999H13.75V7.99992H12.25Z" fill="#28303F"/>
</svg>
