<svg width="24" height="24" viewBox="0 0 24 24" fill="none" xmlns="http://www.w3.org/2000/svg">
<path d="M14.9798 2.24689L14.7947 2.97371L14.9798 2.24689ZM18.4377 14.7954C18.1636 15.1059 18.1931 15.5799 18.5037 15.854C18.8143 16.1281 19.2882 16.0985 19.5623 15.788L18.4377 14.7954ZM12.25 17C12.25 19.3472 10.3472 21.25 8 21.25V22.75C11.1756 22.75 13.75 20.1757 13.75 17H12.25ZM8 21.25C5.65279 21.25 3.75 19.3472 3.75 17H2.25C2.25 20.1757 4.82436 22.75 8 22.75V21.25ZM3.75 17C3.75 14.6528 5.65279 12.75 8 12.75V11.25C4.82436 11.25 2.25 13.8244 2.25 17H3.75ZM8 12.75C10.3472 12.75 12.25 14.6528 12.25 17H13.75C13.75 13.8244 11.1756 11.25 8 11.25V12.75ZM14.7947 2.97371C17.9311 3.77218 20.25 6.61625 20.25 10H21.75C21.75 5.9139 18.9498 2.48367 15.1648 1.52008L14.7947 2.97371ZM20.25 10C20.25 11.8392 19.5661 13.5169 18.4377 14.7954L19.5623 15.788C20.9233 14.246 21.75 12.2186 21.75 10H20.25ZM12.25 4.00004V17H13.75V4.00004H12.25ZM15.1648 1.52008C13.4891 1.09347 12.25 2.55091 12.25 4.00004H13.75C13.75 3.24003 14.3296 2.8553 14.7947 2.97371L15.1648 1.52008Z" fill="#28303F"/>
</svg>
