<svg width="24" height="24" viewBox="0 0 24 24" fill="none" xmlns="http://www.w3.org/2000/svg">
<path d="M10.0077 17.2454L10.3856 17.8933L10.0077 17.2454ZM16.0385 13.7275L16.4164 14.3753L16.0385 13.7275ZM16.0385 10.2724L16.4164 9.62455L16.4164 9.62455L16.0385 10.2724ZM10.0077 6.75446L9.62984 7.40229V7.40229L10.0077 6.75446ZM17.75 6.99994C17.75 6.58573 17.4142 6.24994 17 6.24994C16.5858 6.24994 16.25 6.58573 16.25 6.99994H17.75ZM16.25 16.9999C16.25 17.4142 16.5858 17.7499 17 17.7499C17.4142 17.7499 17.75 17.4142 17.75 16.9999H16.25ZM10.3856 17.8933L16.4164 14.3753L15.6606 13.0797L9.62984 16.5976L10.3856 17.8933ZM16.4164 9.62455L10.3856 6.10662L9.62984 7.40229L15.6606 10.9202L16.4164 9.62455ZM16.4164 14.3753C18.2355 13.3142 18.2355 10.6857 16.4164 9.62455L15.6606 10.9202C16.4875 11.4026 16.4875 12.5973 15.6606 13.0797L16.4164 14.3753ZM9.62984 16.5976C8.79652 17.0837 7.75 16.4826 7.75 15.5179H6.25C6.25 17.6403 8.55234 18.9627 10.3856 17.8933L9.62984 16.5976ZM10.3856 6.10662C8.55233 5.03719 6.25 6.3596 6.25 8.48202H7.75C7.75 7.51728 8.79652 6.91619 9.62984 7.40229L10.3856 6.10662ZM16.25 6.99994V16.9999H17.75V6.99994H16.25ZM6.25 8.48202V15.5179H7.75V8.48202H6.25Z" fill="#28303F"/>
</svg>
