<svg width="24" height="24" viewBox="0 0 24 24" fill="none" xmlns="http://www.w3.org/2000/svg">
<path d="M6 5.75H8V4.25H6V5.75ZM9.25 7V17H10.75V7H9.25ZM8 18.25H6V19.75H8V18.25ZM4.75 17V7H3.25V17H4.75ZM6 18.25C5.30964 18.25 4.75 17.6904 4.75 17H3.25C3.25 18.5188 4.48122 19.75 6 19.75V18.25ZM9.25 17C9.25 17.6904 8.69036 18.25 8 18.25V19.75C9.51878 19.75 10.75 18.5188 10.75 17H9.25ZM8 5.75C8.69036 5.75 9.25 6.30964 9.25 7H10.75C10.75 5.48122 9.51878 4.25 8 4.25V5.75ZM6 4.25C4.48122 4.25 3.25 5.48122 3.25 7H4.75C4.75 6.30964 5.30964 5.75 6 5.75V4.25ZM16 5.75H18V4.25H16V5.75ZM19.25 7V17H20.75V7H19.25ZM18 18.25H16V19.75H18V18.25ZM14.75 17V7H13.25V17H14.75ZM16 18.25C15.3096 18.25 14.75 17.6904 14.75 17H13.25C13.25 18.5188 14.4812 19.75 16 19.75V18.25ZM19.25 17C19.25 17.6904 18.6904 18.25 18 18.25V19.75C19.5188 19.75 20.75 18.5188 20.75 17H19.25ZM18 5.75C18.6904 5.75 19.25 6.30964 19.25 7H20.75C20.75 5.48122 19.5188 4.25 18 4.25V5.75ZM16 4.25C14.4812 4.25 13.25 5.48122 13.25 7H14.75C14.75 6.30964 15.3096 5.75 16 5.75V4.25Z" fill="#28303F"/>
</svg>
