<svg width="24" height="24" viewBox="0 0 24 24" fill="none" xmlns="http://www.w3.org/2000/svg">
<path d="M21.0208 14.0563C20.9291 14.4602 21.1823 14.862 21.5862 14.9536C21.9902 15.0453 22.392 14.7921 22.4836 14.3882L21.0208 14.0563ZM14.3882 22.4836C14.7921 22.392 15.0453 21.9902 14.9536 21.5862C14.862 21.1823 14.4602 20.9291 14.0563 21.0208L14.3882 22.4836ZM11.1708 14.9146L10.8354 14.2438L11.1708 14.9146ZM14.3167 13.3416L13.9813 12.6708L14.3167 13.3416ZM21.4697 22.5303C21.7626 22.8232 22.2374 22.8232 22.5303 22.5303C22.8232 22.2374 22.8232 21.7626 22.5303 21.4697L21.4697 22.5303ZM18.5303 17.4697C18.2374 17.1768 17.7626 17.1768 17.4697 17.4697C17.1768 17.7626 17.1768 18.2374 17.4697 18.5303L18.5303 17.4697ZM17.4697 21.4697C17.1768 21.7626 17.1768 22.2374 17.4697 22.5303C17.7626 22.8232 18.2374 22.8232 18.5303 22.5303L17.4697 21.4697ZM22.5303 18.5303C22.8232 18.2374 22.8232 17.7626 22.5303 17.4697C22.2374 17.1768 21.7626 17.1768 21.4697 17.4697L22.5303 18.5303ZM12 21.25C6.89137 21.25 2.75 17.1086 2.75 12H1.25C1.25 17.9371 6.06294 22.75 12 22.75V21.25ZM2.75 12C2.75 6.89137 6.89137 2.75 12 2.75V1.25C6.06294 1.25 1.25 6.06294 1.25 12H2.75ZM12 2.75C17.1086 2.75 21.25 6.89137 21.25 12H22.75C22.75 6.06294 17.9371 1.25 12 1.25V2.75ZM21.25 12C21.25 12.7075 21.1707 13.3957 21.0208 14.0563L22.4836 14.3882C22.6581 13.6194 22.75 12.82 22.75 12H21.25ZM14.0563 21.0208C13.3957 21.1707 12.7075 21.25 12 21.25V22.75C12.82 22.75 13.6194 22.6581 14.3882 22.4836L14.0563 21.0208ZM14.6521 9.98754L11.5062 8.41459L10.8354 9.75623L13.9813 11.3292L14.6521 9.98754ZM8.25 10.4271V13.5729H9.75V10.4271H8.25ZM11.5062 15.5854L14.6521 14.0125L13.9813 12.6708L10.8354 14.2438L11.5062 15.5854ZM8.25 13.5729C8.25 15.2456 10.0102 16.3334 11.5062 15.5854L10.8354 14.2438C10.3367 14.4931 9.75 14.1305 9.75 13.5729H8.25ZM11.5062 8.41459C10.0102 7.66658 8.25 8.75444 8.25 10.4271H9.75C9.75 9.86951 10.3367 9.50689 10.8354 9.75623L11.5062 8.41459ZM13.9813 11.3292C14.5341 11.6056 14.5341 12.3944 13.9813 12.6708L14.6521 14.0125C16.3105 13.1833 16.3105 10.8167 14.6521 9.98754L13.9813 11.3292ZM22.5303 21.4697L20.5303 19.4697L19.4697 20.5303L21.4697 22.5303L22.5303 21.4697ZM20.5303 19.4697L18.5303 17.4697L17.4697 18.5303L19.4697 20.5303L20.5303 19.4697ZM18.5303 22.5303L20.5303 20.5303L19.4697 19.4697L17.4697 21.4697L18.5303 22.5303ZM20.5303 20.5303L22.5303 18.5303L21.4697 17.4697L19.4697 19.4697L20.5303 20.5303Z" fill="#28303F"/>
</svg>
