<svg width="24" height="24" viewBox="0 0 24 24" fill="none" xmlns="http://www.w3.org/2000/svg">
<path d="M8.99228 18.2901L9.36438 18.9413L8.99228 18.2901ZM16.9611 13.7364L16.589 13.0853L16.9611 13.7364ZM16.9611 10.2635L17.3333 9.61229L16.9611 10.2635ZM8.99228 5.70983L8.62017 6.36101L8.62017 6.36101L8.99228 5.70983ZM9.36438 18.9413L17.3333 14.3876L16.589 13.0853L8.62017 17.6389L9.36438 18.9413ZM17.3333 9.61229L9.36438 5.05865L8.62017 6.36101L16.589 10.9147L17.3333 9.61229ZM17.3333 14.3876C19.1807 13.3319 19.1807 10.668 17.3333 9.61229L16.589 10.9147C17.4288 11.3945 17.4288 12.6054 16.589 13.0853L17.3333 14.3876ZM8.62017 17.6389C7.78685 18.1151 6.75 17.5134 6.75 16.5536H5.25C5.25 18.6651 7.53108 19.9889 9.36438 18.9413L8.62017 17.6389ZM9.36438 5.05865C7.53108 4.01104 5.25 5.3348 5.25 7.44631H6.75C6.75 6.48654 7.78685 5.88483 8.62017 6.36101L9.36438 5.05865ZM5.25 7.44631V16.5536H6.75V7.44631H5.25Z" fill="#28303F"/>
</svg>
