<svg width="24" height="24" viewBox="0 0 24 24" fill="none" xmlns="http://www.w3.org/2000/svg">
<path d="M10 5V4.25C9.58579 4.25 9.25 4.58579 9.25 5H10ZM14.25 10C14.25 10.4142 14.5858 10.75 15 10.75C15.4142 10.75 15.75 10.4142 15.75 10H14.25ZM6 2.75H14V1.25H6V2.75ZM17.25 6V14H18.75V6H17.25ZM14 17.25H6V18.75H14V17.25ZM2.75 14V6H1.25V14H2.75ZM6 17.25C4.20507 17.25 2.75 15.7949 2.75 14H1.25C1.25 16.6234 3.37665 18.75 6 18.75V17.25ZM17.25 14C17.25 15.7949 15.7949 17.25 14 17.25V18.75C16.6234 18.75 18.75 16.6234 18.75 14H17.25ZM14 2.75C15.7949 2.75 17.25 4.20507 17.25 6H18.75C18.75 3.37665 16.6234 1.25 14 1.25V2.75ZM6 1.25C3.37665 1.25 1.25 3.37665 1.25 6H2.75C2.75 4.20507 4.20507 2.75 6 2.75V1.25ZM21.25 10V18H22.75V10H21.25ZM18 21.25H10V22.75H18V21.25ZM10 21.25C8.20507 21.25 6.75 19.7949 6.75 18H5.25C5.25 20.6234 7.37665 22.75 10 22.75V21.25ZM21.25 18C21.25 19.7949 19.7949 21.25 18 21.25V22.75C20.6234 22.75 22.75 20.6234 22.75 18H21.25ZM18 6.75C19.7949 6.75 21.25 8.20507 21.25 10H22.75C22.75 7.37665 20.6234 5.25 18 5.25V6.75ZM10 5.75C12.3472 5.75 14.25 7.65279 14.25 10H15.75C15.75 6.82436 13.1756 4.25 10 4.25V5.75ZM9.25 12.5C9.25 13.4665 8.4665 14.25 7.5 14.25V15.75C9.29493 15.75 10.75 14.2949 10.75 12.5H9.25ZM7.5 14.25C6.5335 14.25 5.75 13.4665 5.75 12.5H4.25C4.25 14.2949 5.70507 15.75 7.5 15.75V14.25ZM5.75 12.5C5.75 11.5335 6.5335 10.75 7.5 10.75V9.25C5.70507 9.25 4.25 10.7051 4.25 12.5H5.75ZM7.5 10.75C8.4665 10.75 9.25 11.5335 9.25 12.5H10.75C10.75 10.7051 9.29493 9.25 7.5 9.25V10.75ZM9.25 5V12.5H10.75V5H9.25Z" fill="#28303F"/>
</svg>
