<svg width="24" height="24" viewBox="0 0 24 24" fill="none" xmlns="http://www.w3.org/2000/svg">
<path d="M18.5 16.889L17.9494 17.3983C18.0914 17.5517 18.291 17.639 18.5 17.639C18.709 17.639 18.9086 17.5517 19.0506 17.3983L18.5 16.889ZM18.7678 16.5995L19.3183 17.1088L19.3183 17.1088L18.7678 16.5995ZM18.2322 16.5995L17.6817 17.1088V17.1088L18.2322 16.5995ZM15.5546 19.4941L16.1051 18.9849L15.5546 19.4941ZM17.4289 21.5204L16.8784 22.0297L17.4289 21.5204ZM19.5711 21.5204L20.1216 22.0297L19.5711 21.5204ZM21.4454 19.4941L20.8949 18.9849L21.4454 19.4941ZM12 22V21.25V22ZM22 12H22.75H22ZM21.1935 13.0287C21.148 13.4404 21.4449 13.8111 21.8566 13.8566C22.2683 13.9021 22.6389 13.6052 22.6844 13.1935L21.1935 13.0287ZM13.6116 22.6299C14.0212 22.5683 14.3033 22.1863 14.2417 21.7767C14.18 21.3671 13.798 21.085 13.3884 21.1466L13.6116 22.6299ZM11.1708 14.9146L10.8354 14.2438L11.1708 14.9146ZM14.3167 13.3416L13.9813 12.6708L14.3167 13.3416ZM19.0506 17.3983L19.3183 17.1088L18.2172 16.0902L17.9494 16.3797L19.0506 17.3983ZM17.6817 17.1088L17.9494 17.3983L19.0506 16.3797L18.7828 16.0902L17.6817 17.1088ZM15.004 20.0034L16.8784 22.0297L17.9795 21.0111L16.1051 18.9849L15.004 20.0034ZM20.1216 22.0297L21.996 20.0034L20.8949 18.9849L19.0205 21.0111L20.1216 22.0297ZM20.8949 17.1088C21.3684 17.6207 21.3684 18.473 20.8949 18.9849L21.996 20.0034C23.0013 18.9166 23.0013 17.177 21.996 16.0902L20.8949 17.1088ZM21.996 16.0902C20.9597 14.9699 19.2535 14.9699 18.2172 16.0902L19.3183 17.1088C19.7609 16.6304 20.4523 16.6304 20.8949 17.1088L21.996 16.0902ZM16.1051 17.1088C16.5477 16.6304 17.2391 16.6304 17.6817 17.1088L18.7828 16.0902C17.7465 14.9699 16.0403 14.9699 15.004 16.0902L16.1051 17.1088ZM16.8784 22.0297C17.7668 22.9901 19.2332 22.9901 20.1216 22.0297L19.0205 21.0111C18.7259 21.3296 18.2741 21.3296 17.9795 21.0111L16.8784 22.0297ZM15.004 16.0902C13.9987 17.177 13.9987 18.9166 15.004 20.0034L16.1051 18.9849C15.6316 18.473 15.6316 17.6207 16.1051 17.1088L15.004 16.0902ZM12 21.25C6.89137 21.25 2.75 17.1086 2.75 12H1.25C1.25 17.9371 6.06294 22.75 12 22.75V21.25ZM2.75 12C2.75 6.89137 6.89137 2.75 12 2.75V1.25C6.06294 1.25 1.25 6.06294 1.25 12H2.75ZM12 2.75C17.1086 2.75 21.25 6.89137 21.25 12H22.75C22.75 6.06294 17.9371 1.25 12 1.25V2.75ZM21.25 12C21.25 12.348 21.2308 12.6912 21.1935 13.0287L22.6844 13.1935C22.7278 12.8014 22.75 12.4031 22.75 12H21.25ZM13.3884 21.1466C12.936 21.2147 12.4723 21.25 12 21.25V22.75C12.5473 22.75 13.0855 22.709 13.6116 22.6299L13.3884 21.1466ZM14.6521 9.98754L11.5062 8.41459L10.8354 9.75623L13.9813 11.3292L14.6521 9.98754ZM8.25 10.4271V13.5729H9.75V10.4271H8.25ZM11.5062 15.5854L14.6521 14.0125L13.9813 12.6708L10.8354 14.2438L11.5062 15.5854ZM8.25 13.5729C8.25 15.2456 10.0102 16.3334 11.5062 15.5854L10.8354 14.2438C10.3367 14.4931 9.75 14.1305 9.75 13.5729H8.25ZM11.5062 8.41459C10.0102 7.66658 8.25 8.75444 8.25 10.4271H9.75C9.75 9.86951 10.3367 9.50689 10.8354 9.75623L11.5062 8.41459ZM13.9813 11.3292C14.5341 11.6056 14.5341 12.3944 13.9813 12.6708L14.6521 14.0125C16.3105 13.1833 16.3105 10.8167 14.6521 9.98754L13.9813 11.3292Z" fill="#28303F"/>
</svg>
