<svg width="24" height="24" viewBox="0 0 24 24" fill="none" xmlns="http://www.w3.org/2000/svg">
<path d="M21 22.75C21.4142 22.75 21.75 22.4142 21.75 22C21.75 21.5858 21.4142 21.25 21 21.25V22.75ZM11.5062 13.5854L14.6521 12.0125L13.9813 10.6708L10.8354 12.2438L11.5062 13.5854ZM14.6521 7.98754L11.5062 6.41459L10.8354 7.75623L13.9813 9.32918L14.6521 7.98754ZM14.6521 12.0125C16.3105 11.1833 16.3105 8.81672 14.6521 7.98754L13.9813 9.32918C14.5341 9.60557 14.5341 10.3944 13.9813 10.6708L14.6521 12.0125ZM10.8354 12.2438C10.3367 12.4931 9.75 12.1305 9.75 11.5729H8.25C8.25 13.2456 10.0102 14.3334 11.5062 13.5854L10.8354 12.2438ZM11.5062 6.41459C10.0102 5.66658 8.25 6.75444 8.25 8.42705H9.75C9.75 7.86951 10.3367 7.50689 10.8354 7.75623L11.5062 6.41459ZM21.75 14V6H20.25V14H21.75ZM17 1.25H7V2.75H17V1.25ZM2.25 6V20H3.75V6H2.25ZM7 1.25C4.37665 1.25 2.25 3.37665 2.25 6H3.75C3.75 4.20507 5.20507 2.75 7 2.75V1.25ZM21.75 6C21.75 3.37665 19.6234 1.25 17 1.25V2.75C18.7949 2.75 20.25 4.20507 20.25 6H21.75ZM17 17.25H5V18.75H17V17.25ZM2.25 20C2.25 21.5188 3.48122 22.75 5 22.75V21.25C4.30964 21.25 3.75 20.6904 3.75 20H2.25ZM5 17.25C3.48122 17.25 2.25 18.4812 2.25 20H3.75C3.75 19.3096 4.30964 18.75 5 18.75V17.25ZM5 22.75H21V21.25H5V22.75ZM20.25 14C20.25 15.7949 18.7949 17.25 17 17.25V18.75C19.6234 18.75 21.75 16.6234 21.75 14H20.25ZM8.25 8.42705V11.5729H9.75V8.42705H8.25Z" fill="#28303F"/>
</svg>
