<svg width="24" height="24" viewBox="0 0 24 24" fill="none" xmlns="http://www.w3.org/2000/svg">
<path d="M10.023 17.2454L10.4009 16.5976L10.023 17.2454ZM3.99229 13.7275L3.61438 14.3753L3.61438 14.3753L3.99229 13.7275ZM3.99229 10.2724L3.61439 9.62455L3.61439 9.62455L3.99229 10.2724ZM10.023 6.75446L9.64512 6.10662L9.64512 6.10662L10.023 6.75446ZM18.023 17.2454L18.4009 16.5976L18.023 17.2454ZM18.023 6.75446L18.4009 7.40229V7.40229L18.023 6.75446ZM13.0308 9.66661H12.2808C12.2808 9.93516 12.4243 10.1832 12.6572 10.317C12.8901 10.4507 13.1767 10.4498 13.4087 10.3144L13.0308 9.66661ZM13.0308 14.3333L13.4087 13.6854C13.1767 13.5501 12.8901 13.5492 12.6572 13.6829C12.4243 13.8167 12.2808 14.0647 12.2808 14.3333H13.0308ZM3.75 6.99994C3.75 6.58573 3.41421 6.24994 3 6.24994C2.58579 6.24994 2.25 6.58573 2.25 6.99994H3.75ZM2.25 16.9999C2.25 17.4142 2.58579 17.7499 3 17.7499C3.41421 17.7499 3.75 17.4142 3.75 16.9999H2.25ZM10.4009 16.5976L4.37019 13.0797L3.61438 14.3753L9.64512 17.8933L10.4009 16.5976ZM4.37019 10.9202L10.4009 7.40229L9.64512 6.10662L3.61439 9.62455L4.37019 10.9202ZM4.37019 13.0797C3.54331 12.5973 3.54331 11.4026 4.37019 10.9202L3.61439 9.62455C1.79525 10.6857 1.79524 13.3142 3.61438 14.3753L4.37019 13.0797ZM9.64512 17.8933C11.4784 18.9627 13.7808 17.6403 13.7808 15.5179H12.2808C12.2808 16.4826 11.2342 17.0837 10.4009 16.5976L9.64512 17.8933ZM10.4009 7.40229C11.2342 6.91619 12.2808 7.51728 12.2808 8.48202H13.7808C13.7808 6.3596 11.4784 5.03719 9.64512 6.10662L10.4009 7.40229ZM17.6451 17.8933C19.4784 18.9627 21.7808 17.6403 21.7808 15.5179H20.2808C20.2808 16.4826 19.2342 17.0837 18.4009 16.5976L17.6451 17.8933ZM18.4009 7.40229C19.2342 6.91619 20.2808 7.51728 20.2808 8.48202H21.7808C21.7808 6.3596 19.4784 5.03719 17.6451 6.10662L18.4009 7.40229ZM20.2808 8.48202V15.5179H21.7808V8.48202H20.2808ZM12.2808 8.48202V9.66661H13.7808V8.48202H12.2808ZM13.4087 10.3144L18.4009 7.40229L17.6451 6.10662L12.6529 9.01878L13.4087 10.3144ZM12.2808 14.3333V15.5179H13.7808V14.3333H12.2808ZM18.4009 16.5976L13.4087 13.6854L12.6529 14.9811L17.6451 17.8933L18.4009 16.5976ZM2.25 6.99994V16.9999H3.75V6.99994H2.25Z" fill="#28303F"/>
</svg>
