<svg width="24" height="24" viewBox="0 0 24 24" fill="none" xmlns="http://www.w3.org/2000/svg">
<path d="M13.9922 17.2454L13.6143 17.8933H13.6143L13.9922 17.2454ZM7.96149 13.7275L7.58359 14.3753H7.58359L7.96149 13.7275ZM7.9615 10.2724L7.58359 9.62455L7.58359 9.62455L7.9615 10.2724ZM13.9922 6.75446L14.3701 7.40229V7.40229L13.9922 6.75446ZM7.74997 6.99994C7.74997 6.58573 7.41418 6.24994 6.99997 6.24994C6.58576 6.24994 6.24997 6.58573 6.24997 6.99994H7.74997ZM6.24997 16.9999C6.24997 17.4142 6.58576 17.7499 6.99997 17.7499C7.41418 17.7499 7.74997 17.4142 7.74997 16.9999H6.24997ZM14.3701 16.5976L8.3394 13.0797L7.58359 14.3753L13.6143 17.8933L14.3701 16.5976ZM8.3394 10.9202L14.3701 7.40229L13.6143 6.10662L7.58359 9.62455L8.3394 10.9202ZM8.3394 13.0797C7.51252 12.5973 7.51252 11.4026 8.3394 10.9202L7.58359 9.62455C5.76446 10.6857 5.76445 13.3142 7.58359 14.3753L8.3394 13.0797ZM13.6143 17.8933C15.4476 18.9627 17.75 17.6403 17.75 15.5179H16.25C16.25 16.4826 15.2035 17.0837 14.3701 16.5976L13.6143 17.8933ZM14.3701 7.40229C15.2035 6.91619 16.25 7.51728 16.25 8.48202H17.75C17.75 6.3596 15.4476 5.03719 13.6143 6.10662L14.3701 7.40229ZM6.24997 6.99994V16.9999H7.74997V6.99994H6.24997ZM16.25 8.48202V15.5179H17.75V8.48202H16.25Z" fill="#28303F"/>
</svg>
