<svg width="24" height="24" viewBox="0 0 24 24" fill="none" xmlns="http://www.w3.org/2000/svg">
<circle r="1" transform="matrix(1 0 0 -1 15 11)" fill="#28303F"/>
<path d="M2 8H1.25H2ZM6 4V4.75V4ZM6 18V17.25V18ZM2 14H2.75H2ZM22 14H22.75H22ZM18 18V18.75V18ZM22 8H21.25H22ZM5.75 18C5.75 17.5858 5.41421 17.25 5 17.25C4.58579 17.25 4.25 17.5858 4.25 18H5.75ZM4.25 20C4.25 20.4142 4.58579 20.75 5 20.75C5.41421 20.75 5.75 20.4142 5.75 20H4.25ZM6 8.25C5.58579 8.25 5.25 8.58579 5.25 9C5.25 9.41421 5.58579 9.75 6 9.75V8.25ZM9 9.75C9.41421 9.75 9.75 9.41421 9.75 9C9.75 8.58579 9.41421 8.25 9 8.25V9.75ZM6 12.25C5.58579 12.25 5.25 12.5858 5.25 13C5.25 13.4142 5.58579 13.75 6 13.75V12.25ZM9 13.75C9.41421 13.75 9.75 13.4142 9.75 13C9.75 12.5858 9.41421 12.25 9 12.25V13.75ZM18.25 20C18.25 20.4142 18.5858 20.75 19 20.75C19.4142 20.75 19.75 20.4142 19.75 20H18.25ZM19.75 18C19.75 17.5858 19.4142 17.25 19 17.25C18.5858 17.25 18.25 17.5858 18.25 18H19.75ZM21.25 8V14H22.75V8H21.25ZM18 17.25L6 17.25V18.75L18 18.75V17.25ZM2.75 14L2.75 8H1.25L1.25 14H2.75ZM6 4.75L18 4.75V3.25L6 3.25V4.75ZM2.75 8C2.75 6.20507 4.20508 4.75 6 4.75V3.25C3.37665 3.25 1.25 5.37665 1.25 8H2.75ZM6 17.25C4.20507 17.25 2.75 15.7949 2.75 14H1.25C1.25 16.6234 3.37665 18.75 6 18.75V17.25ZM21.25 14C21.25 15.7949 19.7949 17.25 18 17.25V18.75C20.6234 18.75 22.75 16.6234 22.75 14H21.25ZM22.75 8C22.75 5.37665 20.6234 3.25 18 3.25V4.75C19.7949 4.75 21.25 6.20508 21.25 8H22.75ZM17.25 11C17.25 12.2426 16.2426 13.25 15 13.25V14.75C17.0711 14.75 18.75 13.0711 18.75 11H17.25ZM15 13.25C13.7574 13.25 12.75 12.2426 12.75 11H11.25C11.25 13.0711 12.9289 14.75 15 14.75V13.25ZM12.75 11C12.75 9.75736 13.7574 8.75 15 8.75V7.25C12.9289 7.25 11.25 8.92893 11.25 11H12.75ZM15 8.75C16.2426 8.75 17.25 9.75736 17.25 11H18.75C18.75 8.92893 17.0711 7.25 15 7.25V8.75ZM4.25 18L4.25 20H5.75L5.75 18H4.25ZM6 9.75H9V8.25H6V9.75ZM6 13.75H9V12.25H6V13.75ZM19.75 20V18H18.25V20H19.75Z" fill="#28303F"/>
</svg>
