<svg width="24" height="24" viewBox="0 0 24 24" fill="none" xmlns="http://www.w3.org/2000/svg">
<path d="M5.89443 11.5528L6.22984 12.2236L5.89443 11.5528ZM9.42229 9.78889L9.08688 9.11807L9.42229 9.78889ZM9.42229 6.21118L9.08688 6.882L9.42229 6.21118ZM5.89443 4.44725L6.22984 3.77643V3.77643L5.89443 4.44725ZM14 5.25003C13.5858 5.25003 13.25 5.58582 13.25 6.00003C13.25 6.41425 13.5858 6.75003 14 6.75003V5.25003ZM21 6.75003C21.4142 6.75003 21.75 6.41425 21.75 6.00003C21.75 5.58582 21.4142 5.25003 21 5.25003V6.75003ZM14 10.25C13.5858 10.25 13.25 10.5858 13.25 11C13.25 11.4142 13.5858 11.75 14 11.75V10.25ZM21 11.75C21.4142 11.75 21.75 11.4142 21.75 11C21.75 10.5858 21.4142 10.25 21 10.25V11.75ZM3 15.25C2.58579 15.25 2.25 15.5858 2.25 16C2.25 16.4142 2.58579 16.75 3 16.75V15.25ZM21 16.75C21.4142 16.75 21.75 16.4142 21.75 16C21.75 15.5858 21.4142 15.25 21 15.25V16.75ZM3 20.25C2.58579 20.25 2.25 20.5858 2.25 21C2.25 21.4142 2.58579 21.75 3 21.75V20.25ZM21 21.75C21.4142 21.75 21.75 21.4142 21.75 21C21.75 20.5858 21.4142 20.25 21 20.25V21.75ZM6.22984 12.2236L9.7577 10.4597L9.08688 9.11807L5.55902 10.882L6.22984 12.2236ZM9.7577 5.54036L6.22984 3.77643L5.55902 5.11807L9.08688 6.882L9.7577 5.54036ZM9.7577 10.4597C11.7846 9.44627 11.7846 6.5538 9.7577 5.54036L9.08688 6.882C10.0082 7.34265 10.0082 8.65741 9.08688 9.11807L9.7577 10.4597ZM5.55902 10.882C4.72789 11.2976 3.75 10.6932 3.75 9.76396H2.25C2.25 11.8083 4.40136 13.1379 6.22984 12.2236L5.55902 10.882ZM6.22984 3.77643C4.40136 2.86219 2.25 4.1918 2.25 6.2361H3.75C3.75 5.30687 4.72789 4.7025 5.55902 5.11807L6.22984 3.77643ZM14 6.75003H21V5.25003H14V6.75003ZM14 11.75H21V10.25H14V11.75ZM3 16.75H21V15.25H3V16.75ZM3 21.75H21V20.25H3V21.75ZM2.25 6.2361V9.76396H3.75V6.2361H2.25Z" fill="#28303F"/>
</svg>
