<svg width="24" height="24" viewBox="0 0 24 24" fill="none" xmlns="http://www.w3.org/2000/svg">
<path d="M5.24997 12C5.24997 12.4142 5.58576 12.75 5.99997 12.75C6.41418 12.75 6.74997 12.4142 6.74997 12H5.24997ZM18.2929 6.29289L18.8232 5.76256V5.76256L18.2929 6.29289ZM17.5303 4.46967C17.2374 4.17678 16.7625 4.17678 16.4696 4.46967C16.1767 4.76256 16.1767 5.23744 16.4696 5.53033L17.5303 4.46967ZM18.2929 7.70711L18.8232 8.23744L18.2929 7.70711ZM16.4696 8.46967C16.1767 8.76256 16.1767 9.23744 16.4696 9.53033C16.7625 9.82322 17.2374 9.82322 17.5303 9.53033L16.4696 8.46967ZM18 7.75C18.4142 7.75 18.75 7.41421 18.75 7C18.75 6.58579 18.4142 6.25 18 6.25V7.75ZM18.75 12C18.75 11.5858 18.4142 11.25 18 11.25C17.5858 11.25 17.25 11.5858 17.25 12H18.75ZM5.70708 17.7071L5.17675 18.2374H5.17675L5.70708 17.7071ZM6.46964 19.5303C6.76253 19.8232 7.23741 19.8232 7.5303 19.5303C7.82319 19.2374 7.82319 18.7626 7.5303 18.4697L6.46964 19.5303ZM5.70708 16.2929L5.17675 15.7626H5.17675L5.70708 16.2929ZM7.5303 15.5303C7.82319 15.2374 7.82319 14.7626 7.5303 14.4697C7.23741 14.1768 6.76253 14.1768 6.46964 14.4697L7.5303 15.5303ZM5.99997 16.25C5.58576 16.25 5.24997 16.5858 5.24997 17C5.24997 17.4142 5.58576 17.75 5.99997 17.75V16.25ZM6.74997 12V11H5.24997V12H6.74997ZM18.8232 5.76256L17.5303 4.46967L16.4696 5.53033L17.7625 6.82322L18.8232 5.76256ZM17.7625 7.17678L16.4696 8.46967L17.5303 9.53033L18.8232 8.23744L17.7625 7.17678ZM9.99997 7.75H18V6.25H9.99997V7.75ZM17.7625 6.82322C17.8602 6.92085 17.8602 7.07915 17.7625 7.17678L18.8232 8.23744C19.5066 7.55402 19.5066 6.44598 18.8232 5.76256L17.7625 6.82322ZM6.74997 11C6.74997 9.20507 8.20505 7.75 9.99997 7.75V6.25C7.37662 6.25 5.24997 8.37665 5.24997 11H6.74997ZM17.25 12V13H18.75V12H17.25ZM5.17675 18.2374L6.46964 19.5303L7.5303 18.4697L6.23741 17.1768L5.17675 18.2374ZM6.23741 16.8232L7.5303 15.5303L6.46964 14.4697L5.17675 15.7626L6.23741 16.8232ZM14 16.25H5.99997V17.75H14V16.25ZM6.23741 17.1768C6.13978 17.0791 6.13978 16.9209 6.23741 16.8232L5.17675 15.7626C4.49333 16.446 4.49333 17.554 5.17675 18.2374L6.23741 17.1768ZM17.25 13C17.25 14.7949 15.7949 16.25 14 16.25V17.75C16.6233 17.75 18.75 15.6234 18.75 13H17.25Z" fill="#28303F"/>
</svg>
