<svg width="24" height="24" viewBox="0 0 24 24" fill="none" xmlns="http://www.w3.org/2000/svg">
<path d="M22.75 12C22.75 11.5858 22.4142 11.25 22 11.25C21.5858 11.25 21.25 11.5858 21.25 12H22.75ZM20 5.99902L19.4004 6.44953C19.5679 6.67245 19.8452 6.78406 20.1204 6.7393C20.3956 6.69453 20.6233 6.50078 20.7115 6.23627L20 5.99902ZM21.7115 3.23724C21.8425 2.8443 21.6302 2.41953 21.2372 2.28851C20.8443 2.15749 20.4195 2.36982 20.2885 2.76276L21.7115 3.23724ZM11.1708 14.9146L10.8354 14.2438L11.1708 14.9146ZM14.3167 13.3416L13.9813 12.6708L14.3167 13.3416ZM21.25 12C21.25 17.1086 17.1086 21.25 12 21.25V22.75C17.9371 22.75 22.75 17.9371 22.75 12H21.25ZM12 21.25C6.89137 21.25 2.75 17.1086 2.75 12H1.25C1.25 17.9371 6.06294 22.75 12 22.75V21.25ZM2.75 12C2.75 6.89137 6.89137 2.75 12 2.75V1.25C6.06294 1.25 1.25 6.06294 1.25 12H2.75ZM12 2.75C15.0254 2.75 17.7115 4.20163 19.4004 6.44953L20.5996 5.54852C18.6396 2.93975 15.517 1.25 12 1.25V2.75ZM20.7115 6.23627L21.7115 3.23724L20.2885 2.76276L19.2885 5.76178L20.7115 6.23627ZM14.6521 9.98754L11.5062 8.41459L10.8354 9.75623L13.9813 11.3292L14.6521 9.98754ZM8.25 10.4271V13.5729H9.75V10.4271H8.25ZM11.5062 15.5854L14.6521 14.0125L13.9813 12.6708L10.8354 14.2438L11.5062 15.5854ZM8.25 13.5729C8.25 15.2456 10.0102 16.3334 11.5062 15.5854L10.8354 14.2438C10.3367 14.4931 9.75 14.1305 9.75 13.5729H8.25ZM11.5062 8.41459C10.0102 7.66658 8.25 8.75444 8.25 10.4271H9.75C9.75 9.86951 10.3367 9.50689 10.8354 9.75623L11.5062 8.41459ZM13.9813 11.3292C14.5341 11.6056 14.5341 12.3944 13.9813 12.6708L14.6521 14.0125C16.3105 13.1833 16.3105 10.8167 14.6521 9.98754L13.9813 11.3292Z" fill="#28303F"/>
</svg>
