<svg width="24" height="24" viewBox="0 0 24 24" fill="none" xmlns="http://www.w3.org/2000/svg">
<path d="M18.2929 7.29289L18.8232 6.76256L18.8232 6.76256L18.2929 7.29289ZM17.5303 5.46967C17.2374 5.17678 16.7626 5.17678 16.4697 5.46967C16.1768 5.76256 16.1768 6.23744 16.4697 6.53033L17.5303 5.46967ZM18.2929 8.70711L18.8232 9.23744L18.8232 9.23744L18.2929 8.70711ZM16.4697 9.46967C16.1768 9.76256 16.1768 10.2374 16.4697 10.5303C16.7626 10.8232 17.2374 10.8232 17.5303 10.5303L16.4697 9.46967ZM13 7.25C12.5858 7.25 12.25 7.58579 12.25 8C12.25 8.41421 12.5858 8.75 13 8.75V7.25ZM18 8.75C18.4142 8.75 18.75 8.41421 18.75 8C18.75 7.58579 18.4142 7.25 18 7.25V8.75ZM11 16.75C11.4142 16.75 11.75 16.4142 11.75 16C11.75 15.5858 11.4142 15.25 11 15.25V16.75ZM5 15.25C4.58579 15.25 4.25 15.5858 4.25 16C4.25 16.4142 4.58579 16.75 5 16.75V15.25ZM11.1056 10.2111L11.7764 9.87574L11.1056 10.2111ZM12.8944 13.7889L12.2236 14.1243L12.8944 13.7889ZM18.2929 16.7071L18.8232 17.2374H18.8232L18.2929 16.7071ZM16.4697 17.4697C16.1768 17.7626 16.1768 18.2374 16.4697 18.5303C16.7626 18.8232 17.2374 18.8232 17.5303 18.5303L16.4697 17.4697ZM18.2929 15.2929L18.8232 14.7626H18.8232L18.2929 15.2929ZM17.5303 13.4697C17.2374 13.1768 16.7626 13.1768 16.4697 13.4697C16.1768 13.7626 16.1768 14.2374 16.4697 14.5303L17.5303 13.4697ZM18 16.75C18.4142 16.75 18.75 16.4142 18.75 16C18.75 15.5858 18.4142 15.25 18 15.25V16.75ZM5 7.25C4.58579 7.25 4.25 7.58579 4.25 8C4.25 8.41421 4.58579 8.75 5 8.75V7.25ZM18.8232 6.76256L17.5303 5.46967L16.4697 6.53033L17.7626 7.82322L18.8232 6.76256ZM17.7626 8.17678L16.4697 9.46967L17.5303 10.5303L18.8232 9.23744L17.7626 8.17678ZM13 8.75H18V7.25H13V8.75ZM11 15.25H5V16.75H11V15.25ZM17.7626 7.82322C17.8602 7.92085 17.8602 8.07915 17.7626 8.17678L18.8232 9.23744C19.5066 8.55402 19.5066 7.44598 18.8232 6.76256L17.7626 7.82322ZM10.4348 10.5466L12.2236 14.1243L13.5652 13.4534L11.7764 9.87574L10.4348 10.5466ZM17.7626 16.1768L16.4697 17.4697L17.5303 18.5303L18.8232 17.2374L17.7626 16.1768ZM18.8232 14.7626L17.5303 13.4697L16.4697 14.5303L17.7626 15.8232L18.8232 14.7626ZM16.4721 16.75H18V15.25H16.4721V16.75ZM7.52786 7.25H5V8.75H7.52786V7.25ZM18.8232 17.2374C19.5066 16.554 19.5066 15.446 18.8232 14.7626L17.7626 15.8232C17.8602 15.9209 17.8602 16.0791 17.7626 16.1768L18.8232 17.2374ZM12.2236 14.1243C13.0282 15.7335 14.673 16.75 16.4721 16.75V15.25C15.2411 15.25 14.1158 14.5545 13.5652 13.4534L12.2236 14.1243ZM11.7764 9.87574C10.9718 8.26651 9.32703 7.25 7.52786 7.25V8.75C8.75887 8.75 9.88423 9.44551 10.4348 10.5466L11.7764 9.87574Z" fill="#28303F"/>
</svg>
