<svg width="24" height="24" viewBox="0 0 24 24" fill="none" xmlns="http://www.w3.org/2000/svg">
<path d="M10 4V3.25C9.58579 3.25 9.25 3.58579 9.25 4H10ZM13.4007 11.5496C13.1519 11.8808 13.2187 12.3509 13.5499 12.5997C13.8811 12.8484 14.3513 12.7816 14.6 12.4504L13.4007 11.5496ZM22 16.25C22.4142 16.25 22.75 15.9142 22.75 15.5C22.75 15.0858 22.4142 14.75 22 14.75V16.25ZM14 14.75C13.5858 14.75 13.25 15.0858 13.25 15.5C13.25 15.9142 13.5858 16.25 14 16.25V14.75ZM22 11.75C22.4142 11.75 22.75 11.4142 22.75 11C22.75 10.5858 22.4142 10.25 22 10.25V11.75ZM18 10.25C17.5858 10.25 17.25 10.5858 17.25 11C17.25 11.4142 17.5858 11.75 18 11.75V10.25ZM22 20.75C22.4142 20.75 22.75 20.4142 22.75 20C22.75 19.5858 22.4142 19.25 22 19.25V20.75ZM14 19.25C13.5858 19.25 13.25 19.5858 13.25 20C13.25 20.4142 13.5858 20.75 14 20.75V19.25ZM9.25 16C9.25 17.7949 7.79493 19.25 6 19.25V20.75C8.62335 20.75 10.75 18.6234 10.75 16H9.25ZM6 19.25C4.20507 19.25 2.75 17.7949 2.75 16H1.25C1.25 18.6234 3.37665 20.75 6 20.75V19.25ZM2.75 16C2.75 14.2051 4.20507 12.75 6 12.75V11.25C3.37665 11.25 1.25 13.3766 1.25 16H2.75ZM6 12.75C7.79493 12.75 9.25 14.2051 9.25 16H10.75C10.75 13.3766 8.62335 11.25 6 11.25V12.75ZM10 4.75C12.3472 4.75 14.25 6.65279 14.25 9H15.75C15.75 5.82436 13.1756 3.25 10 3.25V4.75ZM14.25 9C14.25 9.95763 13.9342 10.8393 13.4007 11.5496L14.6 12.4504C15.3219 11.4894 15.75 10.2936 15.75 9H14.25ZM9.25 4V16H10.75V4H9.25ZM22 14.75H14V16.25H22V14.75ZM22 10.25H18V11.75H22V10.25ZM22 19.25H14V20.75H22V19.25Z" fill="#28303F"/>
</svg>
