<svg width="24" height="24" viewBox="0 0 24 24" fill="none" xmlns="http://www.w3.org/2000/svg">
<path d="M2 3.25C1.58579 3.25 1.25 3.58579 1.25 4C1.25 4.41421 1.58579 4.75 2 4.75V3.25ZM13 4.75C13.4142 4.75 13.75 4.41421 13.75 4C13.75 3.58579 13.4142 3.25 13 3.25V4.75ZM2 7.25C1.58579 7.25 1.25 7.58579 1.25 8C1.25 8.41421 1.58579 8.75 2 8.75V7.25ZM13 8.75C13.4142 8.75 13.75 8.41421 13.75 8C13.75 7.58579 13.4142 7.25 13 7.25V8.75ZM17 4V3.25C16.5858 3.25 16.25 3.58579 16.25 4H17ZM20.4007 11.5496C20.1519 11.8808 20.2187 12.3509 20.5499 12.5997C20.8811 12.8484 21.3513 12.7816 21.6 12.4504L20.4007 11.5496ZM2 11.25C1.58579 11.25 1.25 11.5858 1.25 12C1.25 12.4142 1.58579 12.75 2 12.75V11.25ZM6 12.75C6.41421 12.75 6.75 12.4142 6.75 12C6.75 11.5858 6.41421 11.25 6 11.25V12.75ZM2 4.75H13V3.25H2V4.75ZM2 8.75H13V7.25H2V8.75ZM16.25 16C16.25 17.7949 14.7949 19.25 13 19.25V20.75C15.6234 20.75 17.75 18.6234 17.75 16H16.25ZM13 19.25C11.2051 19.25 9.75 17.7949 9.75 16H8.25C8.25 18.6234 10.3766 20.75 13 20.75V19.25ZM9.75 16C9.75 14.2051 11.2051 12.75 13 12.75V11.25C10.3766 11.25 8.25 13.3766 8.25 16H9.75ZM13 12.75C14.7949 12.75 16.25 14.2051 16.25 16H17.75C17.75 13.3766 15.6234 11.25 13 11.25V12.75ZM17 4.75C19.3472 4.75 21.25 6.65279 21.25 9H22.75C22.75 5.82436 20.1756 3.25 17 3.25V4.75ZM21.25 9C21.25 9.95763 20.9342 10.8393 20.4007 11.5496L21.6 12.4504C22.3219 11.4894 22.75 10.2936 22.75 9H21.25ZM16.25 4V16H17.75V4H16.25ZM2 12.75H6V11.25H2V12.75Z" fill="#28303F"/>
</svg>
