<svg width="24" height="24" viewBox="0 0 24 24" fill="none" xmlns="http://www.w3.org/2000/svg">
<path d="M13.8 19.5966L14.2499 18.9965L13.8 19.5966ZM9.53323 16.3979L9.9831 15.7978L9.53323 16.3979ZM19.4697 20.5303C19.7626 20.8232 20.2374 20.8232 20.5303 20.5303C20.8232 20.2374 20.8232 19.7626 20.5303 19.4697L19.4697 20.5303ZM4.53033 3.46967C4.23744 3.17678 3.76256 3.17678 3.46967 3.46967C3.17678 3.76256 3.17678 4.23744 3.46967 4.53033L4.53033 3.46967ZM13.8 4.40345L13.3501 3.80335V3.80335L13.8 4.40345ZM10.2658 6.11556C9.93434 6.36401 9.86708 6.8341 10.1155 7.16553C10.364 7.49695 10.8341 7.56421 11.1655 7.31575L10.2658 6.11556ZM16.25 13C16.25 13.4142 16.5858 13.75 17 13.75C17.4142 13.75 17.75 13.4142 17.75 13H16.25ZM14.2499 18.9965L9.9831 15.7978L9.08336 16.998L13.3501 20.1966L14.2499 18.9965ZM16.25 17.9973C16.25 19.026 15.0744 19.6146 14.2499 18.9965L13.3501 20.1966C15.1625 21.5553 17.75 20.2632 17.75 17.9973H16.25ZM3.25 10.0009V13.9991H4.75V10.0009H3.25ZM6 16.7482H8.33358V15.2482H6V16.7482ZM3.25 13.9991C3.25 15.5177 4.48154 16.7482 6 16.7482V15.2482C5.30932 15.2482 4.75 14.6886 4.75 13.9991H3.25ZM6 7.25181C4.48154 7.25181 3.25 8.4823 3.25 10.0009H4.75C4.75 9.31137 5.30932 8.75181 6 8.75181V7.25181ZM9.9831 15.7978C9.50717 15.441 8.92839 15.2482 8.33358 15.2482V16.7482C8.60395 16.7482 8.86703 16.8358 9.08336 16.998L9.9831 15.7978ZM16.25 17V17.9973H17.75V17H16.25ZM16.4697 17.5303L19.4697 20.5303L20.5303 19.4697L17.5303 16.4697L16.4697 17.5303ZM3.46967 4.53033L7.47148 8.53214L8.53214 7.47148L4.53033 3.46967L3.46967 4.53033ZM7.47148 8.53214L16.4697 17.5303L17.5303 16.4697L8.53214 7.47148L7.47148 8.53214ZM8.00181 7.25181H6V8.75181H8.00181V7.25181ZM14.2499 5.00355C15.0744 4.38542 16.25 4.97399 16.25 6.00272H17.75C17.75 3.73677 15.1625 2.44467 13.3501 3.80335L14.2499 5.00355ZM11.1655 7.31575L14.2499 5.00355L13.3501 3.80335L10.2658 6.11556L11.1655 7.31575ZM16.25 6.00272V13H17.75V6.00272H16.25Z" fill="#28303F"/>
</svg>
