<svg width="24" height="24" viewBox="0 0 24 24" fill="none" xmlns="http://www.w3.org/2000/svg">
<path d="M7.53323 7.60208L7.9831 8.20217L7.53323 7.60208ZM11.8 4.40345L11.3501 3.80335V3.80335L11.8 4.40345ZM11.8 19.5966L12.2499 18.9965L11.8 19.5966ZM7.53323 16.3979L7.9831 15.7978L7.53323 16.3979ZM21.4697 14.5303C21.7626 14.8232 22.2374 14.8232 22.5303 14.5303C22.8232 14.2374 22.8232 13.7626 22.5303 13.4697L21.4697 14.5303ZM18.5303 9.46967C18.2374 9.17678 17.7626 9.17678 17.4697 9.46967C17.1768 9.76256 17.1768 10.2374 17.4697 10.5303L18.5303 9.46967ZM22.5303 10.5303C22.8232 10.2374 22.8232 9.76256 22.5303 9.46967C22.2374 9.17678 21.7626 9.17678 21.4697 9.46967L22.5303 10.5303ZM17.4697 13.4697C17.1768 13.7626 17.1768 14.2374 17.4697 14.5303C17.7626 14.8232 18.2374 14.8232 18.5303 14.5303L17.4697 13.4697ZM7.9831 8.20217L12.2499 5.00355L11.3501 3.80335L7.08336 7.00198L7.9831 8.20217ZM14.25 6.00272V17.9973H15.75V6.00272H14.25ZM12.2499 18.9965L7.9831 15.7978L7.08336 16.998L11.3501 20.1966L12.2499 18.9965ZM14.25 17.9973C14.25 19.026 13.0744 19.6146 12.2499 18.9965L11.3501 20.1966C13.1625 21.5553 15.75 20.2632 15.75 17.9973H14.25ZM12.2499 5.00355C13.0744 4.38542 14.25 4.97399 14.25 6.00272H15.75C15.75 3.73677 13.1625 2.44467 11.3501 3.80335L12.2499 5.00355ZM6.33358 7.25181H4V8.75181H6.33358V7.25181ZM1.25 10.0009V13.9991H2.75V10.0009H1.25ZM4 16.7482H6.33358V15.2482H4V16.7482ZM1.25 13.9991C1.25 15.5177 2.48154 16.7482 4 16.7482V15.2482C3.30932 15.2482 2.75 14.6886 2.75 13.9991H1.25ZM4 7.25181C2.48154 7.25181 1.25 8.4823 1.25 10.0009H2.75C2.75 9.31137 3.30932 8.75181 4 8.75181V7.25181ZM7.9831 15.7978C7.50717 15.441 6.92839 15.2482 6.33358 15.2482V16.7482C6.60395 16.7482 6.86703 16.8358 7.08336 16.998L7.9831 15.7978ZM7.08336 7.00198C6.86703 7.16415 6.60395 7.25181 6.33358 7.25181V8.75181C6.92839 8.75181 7.50717 8.55896 7.9831 8.20217L7.08336 7.00198ZM22.5303 13.4697L20.5303 11.4697L19.4697 12.5303L21.4697 14.5303L22.5303 13.4697ZM20.5303 11.4697L18.5303 9.46967L17.4697 10.5303L19.4697 12.5303L20.5303 11.4697ZM20.5303 12.5303L22.5303 10.5303L21.4697 9.46967L19.4697 11.4697L20.5303 12.5303ZM19.4697 11.4697L17.4697 13.4697L18.5303 14.5303L20.5303 12.5303L19.4697 11.4697Z" fill="#28303F"/>
</svg>
