<svg width="24" height="24" viewBox="0 0 24 24" fill="none" xmlns="http://www.w3.org/2000/svg">
<path d="M18.3755 9.61837C18.017 9.41097 17.5582 9.53349 17.3508 9.89203C17.1434 10.2506 17.2659 10.7094 17.6245 10.9168L18.3755 9.61837ZM17.6245 13.0832C17.2659 13.2907 17.1434 13.7494 17.3508 14.108C17.5582 14.4665 18.017 14.5891 18.3755 14.3817L17.6245 13.0832ZM18.1492 6.365C17.7433 6.2826 17.3474 6.54487 17.265 6.95081C17.1826 7.35674 17.4449 7.75262 17.8508 7.83502L18.1492 6.365ZM17.8508 16.165C17.4449 16.2474 17.1826 16.6432 17.265 17.0492C17.3474 17.4551 17.7433 17.7174 18.1492 17.635L17.8508 16.165ZM7.53323 7.60208L7.9831 8.20217L7.53323 7.60208ZM11.8 4.40345L11.3501 3.80335V3.80335L11.8 4.40345ZM11.8 19.5966L12.2499 18.9965L11.8 19.5966ZM7.53323 16.3979L7.9831 15.7978L7.53323 16.3979ZM17.6245 10.9168C18 11.134 18.25 11.5383 18.25 12H19.75C19.75 10.9812 19.1956 10.0927 18.3755 9.61837L17.6245 10.9168ZM18.25 12C18.25 12.4617 18 12.866 17.6245 13.0832L18.3755 14.3817C19.1956 13.9073 19.75 13.0188 19.75 12H18.25ZM17.8508 7.83502C19.7904 8.22873 21.25 9.94475 21.25 12H22.75C22.75 9.21731 20.7741 6.89782 18.1492 6.365L17.8508 7.83502ZM21.25 12C21.25 14.0552 19.7904 15.7712 17.8508 16.165L18.1492 17.635C20.7741 17.1022 22.75 14.7827 22.75 12H21.25ZM7.9831 8.20217L12.2499 5.00355L11.3501 3.80335L7.08336 7.00198L7.9831 8.20217ZM14.25 6.00272V17.9973H15.75V6.00272H14.25ZM12.2499 18.9965L7.9831 15.7978L7.08336 16.998L11.3501 20.1966L12.2499 18.9965ZM14.25 17.9973C14.25 19.026 13.0744 19.6146 12.2499 18.9965L11.3501 20.1966C13.1625 21.5553 15.75 20.2632 15.75 17.9973H14.25ZM12.2499 5.00355C13.0744 4.38542 14.25 4.97399 14.25 6.00272H15.75C15.75 3.73677 13.1625 2.44467 11.3501 3.80335L12.2499 5.00355ZM6.33358 7.25181H4V8.75181H6.33358V7.25181ZM1.25 10.0009V13.9991H2.75V10.0009H1.25ZM4 16.7482H6.33358V15.2482H4V16.7482ZM1.25 13.9991C1.25 15.5177 2.48154 16.7482 4 16.7482V15.2482C3.30932 15.2482 2.75 14.6886 2.75 13.9991H1.25ZM4 7.25181C2.48154 7.25181 1.25 8.4823 1.25 10.0009H2.75C2.75 9.31137 3.30932 8.75181 4 8.75181V7.25181ZM7.9831 15.7978C7.50717 15.441 6.92839 15.2482 6.33358 15.2482V16.7482C6.60395 16.7482 6.86703 16.8358 7.08336 16.998L7.9831 15.7978ZM7.08336 7.00198C6.86703 7.16415 6.60395 7.25181 6.33358 7.25181V8.75181C6.92839 8.75181 7.50717 8.55896 7.9831 8.20217L7.08336 7.00198Z" fill="#28303F"/>
</svg>
