<svg width="24" height="24" viewBox="0 0 24 24" fill="none" xmlns="http://www.w3.org/2000/svg">
<path d="M7.53323 7.60208L7.9831 8.20217L7.53323 7.60208ZM11.8 4.40345L11.3501 3.80335V3.80335L11.8 4.40345ZM11.8 19.5966L12.2499 18.9965L11.8 19.5966ZM7.53323 16.3979L7.9831 15.7978L7.53323 16.3979ZM22 12.75C22.4142 12.75 22.75 12.4142 22.75 12C22.75 11.5858 22.4142 11.25 22 11.25V12.75ZM18 11.25C17.5858 11.25 17.25 11.5858 17.25 12C17.25 12.4142 17.5858 12.75 18 12.75V11.25ZM20.75 10C20.75 9.58579 20.4142 9.25 20 9.25C19.5858 9.25 19.25 9.58579 19.25 10H20.75ZM19.25 14C19.25 14.4142 19.5858 14.75 20 14.75C20.4142 14.75 20.75 14.4142 20.75 14H19.25ZM7.9831 8.20217L12.2499 5.00355L11.3501 3.80335L7.08336 7.00198L7.9831 8.20217ZM14.25 6.00272V17.9973H15.75V6.00272H14.25ZM12.2499 18.9965L7.9831 15.7978L7.08336 16.998L11.3501 20.1966L12.2499 18.9965ZM14.25 17.9973C14.25 19.026 13.0744 19.6146 12.2499 18.9965L11.3501 20.1966C13.1625 21.5553 15.75 20.2632 15.75 17.9973H14.25ZM12.2499 5.00355C13.0744 4.38542 14.25 4.97399 14.25 6.00272H15.75C15.75 3.73677 13.1625 2.44467 11.3501 3.80335L12.2499 5.00355ZM6.33358 7.25181H4V8.75181H6.33358V7.25181ZM1.25 10.0009V13.9991H2.75V10.0009H1.25ZM4 16.7482H6.33358V15.2482H4V16.7482ZM1.25 13.9991C1.25 15.5177 2.48154 16.7482 4 16.7482V15.2482C3.30932 15.2482 2.75 14.6886 2.75 13.9991H1.25ZM4 7.25181C2.48154 7.25181 1.25 8.4823 1.25 10.0009H2.75C2.75 9.31137 3.30932 8.75181 4 8.75181V7.25181ZM7.9831 15.7978C7.50717 15.441 6.92839 15.2482 6.33358 15.2482V16.7482C6.60395 16.7482 6.86703 16.8358 7.08336 16.998L7.9831 15.7978ZM7.08336 7.00198C6.86703 7.16415 6.60395 7.25181 6.33358 7.25181V8.75181C6.92839 8.75181 7.50717 8.55896 7.9831 8.20217L7.08336 7.00198ZM22 11.25H18V12.75H22V11.25ZM19.25 10V14H20.75V10H19.25Z" fill="#28303F"/>
</svg>
