<svg width="24" height="24" viewBox="0 0 24 24" fill="none" xmlns="http://www.w3.org/2000/svg">
<path d="M9 5.75H15V4.25H9V5.75ZM18.25 9V15H19.75V9H18.25ZM15 18.25H9V19.75H15V18.25ZM5.75 15V9H4.25V15H5.75ZM9 18.25C7.20507 18.25 5.75 16.7949 5.75 15H4.25C4.25 17.6234 6.37665 19.75 9 19.75V18.25ZM18.25 15C18.25 16.7949 16.7949 18.25 15 18.25V19.75C17.6234 19.75 19.75 17.6234 19.75 15H18.25ZM15 5.75C16.7949 5.75 18.25 7.20507 18.25 9H19.75C19.75 6.37665 17.6234 4.25 15 4.25V5.75ZM9 4.25C6.37665 4.25 4.25 6.37665 4.25 9H5.75C5.75 7.20507 7.20507 5.75 9 5.75V4.25Z" fill="#28303F"/>
</svg>
