<svg width="24" height="24" viewBox="0 0 24 24" fill="none" xmlns="http://www.w3.org/2000/svg">
<path d="M13.376 7.58397C13.1462 7.92862 13.2393 8.39427 13.584 8.62404C13.9286 8.8538 14.3943 8.76067 14.624 8.41603L13.376 7.58397ZM10.624 2.41603C10.8538 2.07138 10.7607 1.60573 10.416 1.37596C10.0714 1.1462 9.60573 1.23933 9.37596 1.58397L10.624 2.41603ZM5.37596 7.58397C5.1462 7.92862 5.23933 8.39427 5.58397 8.62404C5.92862 8.8538 6.39427 8.76067 6.62404 8.41603L5.37596 7.58397ZM9.46852 13.4143C9.14507 13.1556 8.67311 13.208 8.41435 13.5315C8.15559 13.8549 8.20803 14.3269 8.53148 14.5857L9.46852 13.4143ZM10.7528 15.4023L11.2213 14.8166L10.7528 15.4023ZM12.1301 15.2799L11.5657 14.786H11.5657L12.1301 15.2799ZM15.5644 12.4939C15.8372 12.1822 15.8056 11.7083 15.4939 11.4356C15.1822 11.1628 14.7083 11.1944 14.4356 11.5061L15.5644 12.4939ZM6 2.75H18V1.25H6V2.75ZM2.75 18V6H1.25V18H2.75ZM21.25 6V18H22.75V6H21.25ZM18 21.25H6V22.75H18V21.25ZM21.25 18C21.25 19.7949 19.7949 21.25 18 21.25V22.75C20.6234 22.75 22.75 20.6234 22.75 18H21.25ZM1.25 18C1.25 20.6234 3.37665 22.75 6 22.75V21.25C4.20507 21.25 2.75 19.7949 2.75 18H1.25ZM18 2.75C19.7949 2.75 21.25 4.20507 21.25 6H22.75C22.75 3.37665 20.6234 1.25 18 1.25V2.75ZM6 1.25C3.37665 1.25 1.25 3.37665 1.25 6H2.75C2.75 4.20507 4.20507 2.75 6 2.75V1.25ZM2 8.75H22V7.25H2V8.75ZM17.376 1.58397L13.376 7.58397L14.624 8.41603L18.624 2.41603L17.376 1.58397ZM9.37596 1.58397L5.37596 7.58397L6.62404 8.41603L10.624 2.41603L9.37596 1.58397ZM8.53148 14.5857L10.2843 15.9879L11.2213 14.8166L9.46852 13.4143L8.53148 14.5857ZM12.6945 15.7738L15.5644 12.4939L14.4356 11.5061L11.5657 14.786L12.6945 15.7738ZM10.2843 15.9879C11.0156 16.5729 12.0778 16.4786 12.6945 15.7738L11.5657 14.786C11.4776 14.8867 11.3258 14.9002 11.2213 14.8166L10.2843 15.9879Z" fill="#28303F"/>
</svg>
