<svg width="24" height="24" viewBox="0 0 24 24" fill="none" xmlns="http://www.w3.org/2000/svg">
<path d="M13.376 7.58397C13.1462 7.92862 13.2393 8.39427 13.584 8.62404C13.9286 8.8538 14.3943 8.76067 14.624 8.41603L13.376 7.58397ZM10.624 2.41603C10.8538 2.07138 10.7607 1.60573 10.416 1.37596C10.0714 1.1462 9.60573 1.23933 9.37596 1.58397L10.624 2.41603ZM5.37596 7.58397C5.1462 7.92862 5.23933 8.39427 5.58397 8.62404C5.92862 8.8538 6.39427 8.76067 6.62404 8.41603L5.37596 7.58397ZM15 15.75C15.4142 15.75 15.75 15.4142 15.75 15C15.75 14.5858 15.4142 14.25 15 14.25V15.75ZM9 14.25C8.58579 14.25 8.25 14.5858 8.25 15C8.25 15.4142 8.58579 15.75 9 15.75V14.25ZM6 2.75H18V1.25H6V2.75ZM2.75 18V6H1.25V18H2.75ZM21.25 6V18H22.75V6H21.25ZM18 21.25H6V22.75H18V21.25ZM21.25 18C21.25 19.7949 19.7949 21.25 18 21.25V22.75C20.6234 22.75 22.75 20.6234 22.75 18H21.25ZM1.25 18C1.25 20.6234 3.37665 22.75 6 22.75V21.25C4.20507 21.25 2.75 19.7949 2.75 18H1.25ZM18 2.75C19.7949 2.75 21.25 4.20507 21.25 6H22.75C22.75 3.37665 20.6234 1.25 18 1.25V2.75ZM6 1.25C3.37665 1.25 1.25 3.37665 1.25 6H2.75C2.75 4.20507 4.20507 2.75 6 2.75V1.25ZM2 8.75H22V7.25H2V8.75ZM17.376 1.58397L13.376 7.58397L14.624 8.41603L18.624 2.41603L17.376 1.58397ZM9.37596 1.58397L5.37596 7.58397L6.62404 8.41603L10.624 2.41603L9.37596 1.58397ZM15 14.25H9V15.75H15V14.25Z" fill="#28303F"/>
</svg>
