<svg width="24" height="24" viewBox="0 0 24 24" fill="none" xmlns="http://www.w3.org/2000/svg">
<path d="M12 12.889L11.4494 13.3983C11.5914 13.5517 11.791 13.639 12 13.639C12.209 13.639 12.4086 13.5517 12.5506 13.3983L12 12.889ZM12.2678 12.5995L12.8183 13.1088V13.1088L12.2678 12.5995ZM11.7322 12.5995L12.2828 12.0902L11.7322 12.5995ZM9.05456 15.4941L9.60513 14.9849H9.60513L9.05456 15.4941ZM10.9289 17.5204L10.3784 18.0297L10.9289 17.5204ZM13.0711 17.5204L13.6216 18.0297L13.0711 17.5204ZM14.9454 15.4941L14.3949 14.9849L14.9454 15.4941ZM13.376 7.58397C13.1462 7.92862 13.2393 8.39427 13.584 8.62404C13.9286 8.8538 14.3943 8.76067 14.624 8.41603L13.376 7.58397ZM10.624 2.41603C10.8538 2.07138 10.7607 1.60573 10.416 1.37596C10.0714 1.1462 9.60573 1.23933 9.37596 1.58397L10.624 2.41603ZM5.37596 7.58397C5.1462 7.92862 5.23933 8.39427 5.58397 8.62404C5.92862 8.8538 6.39427 8.76067 6.62404 8.41603L5.37596 7.58397ZM6 2.75H18V1.25H6V2.75ZM2.75 18V6H1.25V18H2.75ZM21.25 6V18H22.75V6H21.25ZM18 21.25H6V22.75H18V21.25ZM21.25 18C21.25 19.7949 19.7949 21.25 18 21.25V22.75C20.6234 22.75 22.75 20.6234 22.75 18H21.25ZM1.25 18C1.25 20.6234 3.37665 22.75 6 22.75V21.25C4.20507 21.25 2.75 19.7949 2.75 18H1.25ZM18 2.75C19.7949 2.75 21.25 4.20507 21.25 6H22.75C22.75 3.37665 20.6234 1.25 18 1.25V2.75ZM6 1.25C3.37665 1.25 1.25 3.37665 1.25 6H2.75C2.75 4.20507 4.20507 2.75 6 2.75V1.25ZM12.5506 13.3983L12.8183 13.1088L11.7172 12.0902L11.4494 12.3797L12.5506 13.3983ZM11.1817 13.1088L11.4494 13.3983L12.5506 12.3797L12.2828 12.0902L11.1817 13.1088ZM8.504 16.0034L10.3784 18.0297L11.4795 17.0111L9.60513 14.9849L8.504 16.0034ZM13.6216 18.0297L15.496 16.0034L14.3949 14.9849L12.5205 17.0111L13.6216 18.0297ZM14.3949 13.1088C14.8684 13.6207 14.8684 14.473 14.3949 14.9849L15.496 16.0034C16.5013 14.9166 16.5013 13.177 15.496 12.0902L14.3949 13.1088ZM15.496 12.0902C14.4597 10.9699 12.7535 10.9699 11.7172 12.0902L12.8183 13.1088C13.2609 12.6304 13.9523 12.6304 14.3949 13.1088L15.496 12.0902ZM9.60513 13.1088C10.0477 12.6304 10.7391 12.6304 11.1817 13.1088L12.2828 12.0902C11.2465 10.9699 9.5403 10.9699 8.504 12.0902L9.60513 13.1088ZM10.3784 18.0297C11.2668 18.9901 12.7332 18.9901 13.6216 18.0297L12.5205 17.0111C12.2259 17.3296 11.7741 17.3296 11.4795 17.0111L10.3784 18.0297ZM8.504 12.0902C7.49867 13.177 7.49867 14.9166 8.504 16.0034L9.60513 14.9849C9.13162 14.473 9.13162 13.6207 9.60513 13.1088L8.504 12.0902ZM2 8.75H22V7.25H2V8.75ZM17.376 1.58397L13.376 7.58397L14.624 8.41603L18.624 2.41603L17.376 1.58397ZM9.37596 1.58397L5.37596 7.58397L6.62404 8.41603L10.624 2.41603L9.37596 1.58397Z" fill="#28303F"/>
</svg>
