<svg width="24" height="24" viewBox="0 0 24 24" fill="none" xmlns="http://www.w3.org/2000/svg">
<path d="M6.75 12C6.75 11.5858 6.41421 11.25 6 11.25C5.58579 11.25 5.25 11.5858 5.25 12H6.75ZM12 18.75C12.4142 18.75 12.75 18.4142 12.75 18C12.75 17.5858 12.4142 17.25 12 17.25V18.75ZM22.75 2C22.75 1.58579 22.4142 1.25 22 1.25C21.5858 1.25 21.25 1.58579 21.25 2H22.75ZM21.2804 5.59969L20.8002 5.02353L21.2804 5.59969ZM15.5199 9.42383C15.2017 9.68901 15.1587 10.1619 15.4238 10.4801C15.689 10.7983 16.1619 10.8413 16.4801 10.5762L15.5199 9.42383ZM21.25 12C21.25 17.1086 17.1086 21.25 12 21.25V22.75C17.9371 22.75 22.75 17.9371 22.75 12H21.25ZM12 21.25C6.89137 21.25 2.75 17.1086 2.75 12H1.25C1.25 17.9371 6.06294 22.75 12 22.75V21.25ZM2.75 12C2.75 6.89137 6.89137 2.75 12 2.75V1.25C6.06294 1.25 1.25 6.06294 1.25 12H2.75ZM12 2.75C17.1086 2.75 21.25 6.89137 21.25 12H22.75C22.75 6.06294 17.9371 1.25 12 1.25V2.75ZM14.75 12C14.75 10.4812 13.5188 9.25 12 9.25V10.75C12.6904 10.75 13.25 11.3096 13.25 12H14.75ZM12 9.25C10.4812 9.25 9.25 10.4812 9.25 12H10.75C10.75 11.3096 11.3096 10.75 12 10.75V9.25ZM9.25 12C9.25 13.5188 10.4812 14.75 12 14.75V13.25C11.3096 13.25 10.75 12.6904 10.75 12H9.25ZM12 14.75C13.5188 14.75 14.75 13.5188 14.75 12H13.25C13.25 12.6904 12.6904 13.25 12 13.25V14.75ZM5.25 12C5.25 15.7279 8.27208 18.75 12 18.75V17.25C9.1005 17.25 6.75 14.8995 6.75 12H5.25ZM21.25 2V4.06325H22.75V2H21.25ZM20.8002 5.02353L15.5199 9.42383L16.4801 10.5762L21.7605 6.17586L20.8002 5.02353ZM21.25 4.06325C21.25 4.43422 21.0852 4.78603 20.8002 5.02353L21.7605 6.17586C22.3875 5.65338 22.75 4.87939 22.75 4.06325H21.25Z" fill="#28303F"/>
</svg>
