<svg width="24" height="24" viewBox="0 0 24 24" fill="none" xmlns="http://www.w3.org/2000/svg">
<path d="M12 5.25C11.5858 5.25 11.25 5.58579 11.25 6C11.25 6.41421 11.5858 6.75 12 6.75V5.25ZM17.25 12C17.25 12.4142 17.5858 12.75 18 12.75C18.4142 12.75 18.75 12.4142 18.75 12H17.25ZM21.25 12C21.25 17.1086 17.1086 21.25 12 21.25V22.75C17.9371 22.75 22.75 17.9371 22.75 12H21.25ZM12 21.25C6.89137 21.25 2.75 17.1086 2.75 12H1.25C1.25 17.9371 6.06294 22.75 12 22.75V21.25ZM2.75 12C2.75 6.89137 6.89137 2.75 12 2.75V1.25C6.06294 1.25 1.25 6.06294 1.25 12H2.75ZM12 2.75C17.1086 2.75 21.25 6.89137 21.25 12H22.75C22.75 6.06294 17.9371 1.25 12 1.25V2.75ZM12 6.75C14.8995 6.75 17.25 9.1005 17.25 12H18.75C18.75 8.27208 15.7279 5.25 12 5.25V6.75ZM14.75 12C14.75 10.4812 13.5188 9.25 12 9.25V10.75C12.6904 10.75 13.25 11.3096 13.25 12H14.75ZM12 9.25C10.4812 9.25 9.25 10.4812 9.25 12H10.75C10.75 11.3096 11.3096 10.75 12 10.75V9.25ZM9.25 12C9.25 13.5188 10.4812 14.75 12 14.75V13.25C11.3096 13.25 10.75 12.6904 10.75 12H9.25ZM12 14.75C13.5188 14.75 14.75 13.5188 14.75 12H13.25C13.25 12.6904 12.6904 13.25 12 13.25V14.75Z" fill="#28303F"/>
</svg>
