<svg width="24" height="24" viewBox="0 0 24 24" fill="none" xmlns="http://www.w3.org/2000/svg">
<path d="M6 11.25C5.58579 11.25 5.25 11.5858 5.25 12C5.25 12.4142 5.58579 12.75 6 12.75V11.25ZM18 13.75C18.4142 13.75 18.75 13.4142 18.75 13C18.75 12.5858 18.4142 12.25 18 12.25V13.75ZM6 2.75H18V1.25H6V2.75ZM21.25 6V18H22.75V6H21.25ZM18 21.25H6V22.75H18V21.25ZM2.75 18V6H1.25V18H2.75ZM6 21.25C4.20507 21.25 2.75 19.7949 2.75 18H1.25C1.25 20.6234 3.37665 22.75 6 22.75V21.25ZM21.25 18C21.25 19.7949 19.7949 21.25 18 21.25V22.75C20.6234 22.75 22.75 20.6234 22.75 18H21.25ZM18 2.75C19.7949 2.75 21.25 4.20507 21.25 6H22.75C22.75 3.37665 20.6234 1.25 18 1.25V2.75ZM6 1.25C3.37665 1.25 1.25 3.37665 1.25 6H2.75C2.75 4.20507 4.20507 2.75 6 2.75V1.25ZM6 12.75H7V11.25H6V12.75ZM9.75 10V9.5H8.25V10H9.75ZM11.25 9.5V14.5H12.75V9.5H11.25ZM16.5 13.75H18V12.25H16.5V13.75ZM15.75 14.5C15.75 14.0858 16.0858 13.75 16.5 13.75V12.25C15.2574 12.25 14.25 13.2574 14.25 14.5H15.75ZM13.5 16.75C14.7426 16.75 15.75 15.7426 15.75 14.5H14.25C14.25 14.9142 13.9142 15.25 13.5 15.25V16.75ZM11.25 14.5C11.25 15.7426 12.2574 16.75 13.5 16.75V15.25C13.0858 15.25 12.75 14.9142 12.75 14.5H11.25ZM10.5 8.75C10.9142 8.75 11.25 9.08579 11.25 9.5H12.75C12.75 8.25736 11.7426 7.25 10.5 7.25V8.75ZM9.75 9.5C9.75 9.08579 10.0858 8.75 10.5 8.75V7.25C9.25736 7.25 8.25 8.25736 8.25 9.5H9.75ZM7 12.75C8.51878 12.75 9.75 11.5188 9.75 10H8.25C8.25 10.6904 7.69036 11.25 7 11.25V12.75Z" fill="#28303F"/>
</svg>
