<svg width="24" height="24" viewBox="0 0 24 24" fill="none" xmlns="http://www.w3.org/2000/svg">
<path opacity="0.4" d="M4 4L4 18C4 19.1046 4.89543 20 6 20L8 20C9.10457 20 10 19.1046 10 18L10 4L4 4Z" fill="#28303F"/>
<path opacity="0.4" d="M14 4L14 12C14 13.1046 14.8954 14 16 14L18 14C19.1046 14 20 13.1046 20 12L20 4L14 4Z" fill="#28303F"/>
<path fill-rule="evenodd" clip-rule="evenodd" d="M1.25 4C1.25 3.58579 1.58579 3.25 2 3.25L22 3.25C22.4142 3.25 22.75 3.58579 22.75 4C22.75 4.41421 22.4142 4.75 22 4.75L2 4.75C1.58579 4.75 1.25 4.41421 1.25 4Z" fill="#28303F"/>
</svg>
