<svg width="24" height="24" viewBox="0 0 24 24" fill="none" xmlns="http://www.w3.org/2000/svg">
<path opacity="0.4" d="M4 20L4 6C4 4.89543 4.89543 4 6 4L8 4C9.10457 4 10 4.89543 10 6L10 20L4 20Z" fill="#28303F"/>
<path opacity="0.4" d="M14 20L14 12C14 10.8954 14.8954 10 16 10L18 10C19.1046 10 20 10.8954 20 12L20 20L14 20Z" fill="#28303F"/>
<path fill-rule="evenodd" clip-rule="evenodd" d="M1.25 20C1.25 19.5858 1.58579 19.25 2 19.25L22 19.25C22.4142 19.25 22.75 19.5858 22.75 20C22.75 20.4142 22.4142 20.75 22 20.75L2 20.75C1.58579 20.75 1.25 20.4142 1.25 20Z" fill="#28303F"/>
</svg>
