<svg width="24" height="24" viewBox="0 0 24 24" fill="none" xmlns="http://www.w3.org/2000/svg">
<path fill-rule="evenodd" clip-rule="evenodd" d="M12 1.25C12.4142 1.25 12.75 1.58579 12.75 2V22C12.75 22.4142 12.4142 22.75 12 22.75C11.5858 22.75 11.25 22.4142 11.25 22V2C11.25 1.58579 11.5858 1.25 12 1.25Z" fill="#28303F"/>
<path opacity="0.4" d="M20 17C20 18.1046 19.1046 19 18 19L6 19C4.89543 19 4 18.1046 4 17L4 15.5C4 14.3954 4.89543 13.5 6 13.5L18 13.5C19.1046 13.5 20 14.3954 20 15.5L20 17Z" fill="#28303F"/>
<path opacity="0.4" d="M17 8.5C17 9.60457 16.1046 10.5 15 10.5L9 10.5C7.89543 10.5 7 9.60457 7 8.5L7 7C7 5.89543 7.89543 5 9 5L15 5C16.1046 5 17 5.89543 17 7L17 8.5Z" fill="#28303F"/>
</svg>
