<svg width="24" height="24" viewBox="0 0 24 24" fill="none" xmlns="http://www.w3.org/2000/svg">
<path opacity="0.4" d="M20 4L6 4C4.89543 4 4 4.89543 4 6L4 8C4 9.10457 4.89543 10 6 10L20 10L20 4Z" fill="#28303F"/>
<path opacity="0.4" d="M20 14L12 14C10.8954 14 10 14.8954 10 16L10 18C10 19.1046 10.8954 20 12 20L20 20L20 14Z" fill="#28303F"/>
<path fill-rule="evenodd" clip-rule="evenodd" d="M20 1.25C20.4142 1.25 20.75 1.58579 20.75 2V22C20.75 22.4142 20.4142 22.75 20 22.75C19.5858 22.75 19.25 22.4142 19.25 22V2C19.25 1.58579 19.5858 1.25 20 1.25Z" fill="#28303F"/>
</svg>
