<svg width="24" height="24" viewBox="0 0 24 24" fill="none" xmlns="http://www.w3.org/2000/svg">
<path opacity="0.4" d="M4 4L18 4C19.1046 4 20 4.89543 20 6L20 8C20 9.10457 19.1046 10 18 10L4 10L4 4Z" fill="#28303F"/>
<path opacity="0.4" d="M4 14L12 14C13.1046 14 14 14.8954 14 16L14 18C14 19.1046 13.1046 20 12 20L4 20L4 14Z" fill="#28303F"/>
<path fill-rule="evenodd" clip-rule="evenodd" d="M4 1.25C4.41421 1.25 4.75 1.58579 4.75 2V22C4.75 22.4142 4.41421 22.75 4 22.75C3.58579 22.75 3.25 22.4142 3.25 22V2C3.25 1.58579 3.58579 1.25 4 1.25Z" fill="#28303F"/>
</svg>
