<svg width="24" height="24" viewBox="0 0 24 24" fill="none" xmlns="http://www.w3.org/2000/svg">
<path d="M2 4C2 2.89543 2.89543 2 4 2H9C10.1046 2 11 2.89543 11 4V7C11 8.10457 10.1046 9 9 9H4C2.89543 9 2 8.10457 2 7V4Z" fill="#28303F"/>
<path opacity="0.4" d="M2 13C2 11.8954 2.89543 11 4 11H9C10.1046 11 11 11.8954 11 13V20C11 21.1046 10.1046 22 9 22H4C2.89543 22 2 21.1046 2 20V13Z" fill="#28303F"/>
<path opacity="0.4" d="M13 4C13 2.89543 13.8954 2 15 2H20C21.1046 2 22 2.89543 22 4V11C22 12.1046 21.1046 13 20 13H15C13.8954 13 13 12.1046 13 11V4Z" fill="#28303F"/>
<path d="M13 17C13 15.8954 13.8954 15 15 15H20C21.1046 15 22 15.8954 22 17V20C22 21.1046 21.1046 22 20 22H15C13.8954 22 13 21.1046 13 20V17Z" fill="#28303F"/>
</svg>
