<svg width="24" height="24" viewBox="0 0 24 24" fill="none" xmlns="http://www.w3.org/2000/svg">
<rect opacity="0.4" x="21" y="7" width="10" height="18" rx="3" transform="rotate(90 21 7)" fill="#28303F"/>
<path fill-rule="evenodd" clip-rule="evenodd" d="M19.75 4C19.75 4.41421 19.4142 4.75 19 4.75L5 4.75C4.58579 4.75 4.25 4.41421 4.25 4C4.25 3.58579 4.58579 3.25 5 3.25L19 3.25C19.4142 3.25 19.75 3.58579 19.75 4Z" fill="#28303F"/>
<path fill-rule="evenodd" clip-rule="evenodd" d="M19.75 20C19.75 20.4142 19.4142 20.75 19 20.75L5 20.75C4.58579 20.75 4.25 20.4142 4.25 20C4.25 19.5858 4.58579 19.25 5 19.25L19 19.25C19.4142 19.25 19.75 19.5858 19.75 20Z" fill="#28303F"/>
</svg>
