<svg width="24" height="24" viewBox="0 0 24 24" fill="none" xmlns="http://www.w3.org/2000/svg">
<path opacity="0.4" fill-rule="evenodd" clip-rule="evenodd" d="M19 7.25C19.4142 7.25 19.75 7.58579 19.75 8V16C19.75 16.4142 19.4142 16.75 19 16.75C18.5858 16.75 18.25 16.4142 18.25 16V8C18.25 7.58579 18.5858 7.25 19 7.25Z" fill="#28303F"/>
<path opacity="0.4" fill-rule="evenodd" clip-rule="evenodd" d="M5 7.25C5.41421 7.25 5.75 7.58579 5.75 8V16C5.75 16.4142 5.41421 16.75 5 16.75C4.58579 16.75 4.25 16.4142 4.25 16V8C4.25 7.58579 4.58579 7.25 5 7.25Z" fill="#28303F"/>
<path opacity="0.4" fill-rule="evenodd" clip-rule="evenodd" d="M16.75 19C16.75 19.4142 16.4142 19.75 16 19.75L8 19.75C7.58579 19.75 7.25 19.4142 7.25 19C7.25 18.5858 7.58579 18.25 8 18.25L16 18.25C16.4142 18.25 16.75 18.5858 16.75 19Z" fill="#28303F"/>
<path opacity="0.4" fill-rule="evenodd" clip-rule="evenodd" d="M16.75 5C16.75 5.41421 16.4142 5.75 16 5.75L8 5.75C7.58579 5.75 7.25 5.41421 7.25 5C7.25 4.58579 7.58579 4.25 8 4.25L16 4.25C16.4142 4.25 16.75 4.58579 16.75 5Z" fill="#28303F"/>
<path d="M2 4C2 2.89543 2.89543 2 4 2H6C7.10457 2 8 2.89543 8 4V6C8 7.10457 7.10457 8 6 8H4C2.89543 8 2 7.10457 2 6V4Z" fill="#28303F"/>
<path d="M16 4C16 2.89543 16.8954 2 18 2H20C21.1046 2 22 2.89543 22 4V6C22 7.10457 21.1046 8 20 8H18C16.8954 8 16 7.10457 16 6V4Z" fill="#28303F"/>
<path d="M2 18C2 16.8954 2.89543 16 4 16H6C7.10457 16 8 16.8954 8 18V20C8 21.1046 7.10457 22 6 22H4C2.89543 22 2 21.1046 2 20V18Z" fill="#28303F"/>
<path d="M16 18C16 16.8954 16.8954 16 18 16H20C21.1046 16 22 16.8954 22 18V20C22 21.1046 21.1046 22 20 22H18C16.8954 22 16 21.1046 16 20V18Z" fill="#28303F"/>
</svg>
