<svg width="24" height="24" viewBox="0 0 24 24" fill="none" xmlns="http://www.w3.org/2000/svg">
<path opacity="0.4" fill-rule="evenodd" clip-rule="evenodd" d="M12 3.53846C10.6923 3.53846 9.45589 3.83458 8.35231 4.3627C7.9691 4.54609 7.50978 4.3841 7.32639 4.00089C7.143 3.61767 7.30499 3.15835 7.6882 2.97496C8.99469 2.34974 10.4576 2 12 2C13.5424 2 15.0053 2.34974 16.3118 2.97496C16.695 3.15835 16.857 3.61768 16.6736 4.00089C16.4902 4.3841 16.0309 4.54609 15.6477 4.3627C14.5441 3.83458 13.3077 3.53846 12 3.53846ZM4.00089 7.32639C4.3841 7.50978 4.54609 7.9691 4.3627 8.35231C3.83458 9.45589 3.53846 10.6923 3.53846 12C3.53846 13.3077 3.83458 14.5441 4.3627 15.6477C4.54609 16.0309 4.3841 16.4902 4.00089 16.6736C3.61768 16.857 3.15835 16.695 2.97496 16.3118C2.34974 15.0053 2 13.5424 2 12C2 10.4576 2.34974 8.99469 2.97496 7.6882C3.15835 7.30499 3.61768 7.143 4.00089 7.32639ZM19.9991 7.32639C20.3823 7.143 20.8416 7.30499 21.025 7.6882C21.6503 8.99469 22 10.4576 22 12C22 13.5424 21.6503 15.0053 21.025 16.3118C20.8416 16.695 20.3823 16.857 19.9991 16.6736C19.6159 16.4902 19.4539 16.0309 19.6373 15.6477C20.1654 14.5441 20.4615 13.3077 20.4615 12C20.4615 10.6923 20.1654 9.45589 19.6373 8.35231C19.4539 7.9691 19.6159 7.50978 19.9991 7.32639ZM7.32639 19.9991C7.50978 19.6159 7.9691 19.4539 8.35231 19.6373C9.45589 20.1654 10.6923 20.4615 12 20.4615C13.3077 20.4615 14.5441 20.1654 15.6477 19.6373C16.0309 19.4539 16.4902 19.6159 16.6736 19.9991C16.857 20.3823 16.695 20.8416 16.3118 21.025C15.0053 21.6503 13.5424 22 12 22C10.4576 22 8.99469 21.6503 7.6882 21.025C7.30499 20.8416 7.143 20.3823 7.32639 19.9991Z" fill="#28303F"/>
<path d="M8.66667 5.33333C8.66667 7.17428 7.17428 8.66667 5.33333 8.66667C4.41197 8.66667 3.57792 8.29285 2.97457 7.68861C2.37238 7.08554 2 6.25292 2 5.33333C2 3.49238 3.49238 2 5.33333 2C6.25292 2 7.08554 2.37238 7.68861 2.97457C8.29285 3.57792 8.66667 4.41197 8.66667 5.33333Z" fill="#28303F"/>
<path d="M22 5.33333C22 6.25292 21.6276 7.08554 21.0254 7.68861C20.4221 8.29285 19.588 8.66667 18.6667 8.66667C16.8257 8.66667 15.3333 7.17428 15.3333 5.33333C15.3333 4.41197 15.7071 3.57792 16.3114 2.97457C16.9145 2.37238 17.7471 2 18.6667 2C20.5076 2 22 3.49238 22 5.33333Z" fill="#28303F"/>
<path d="M8.66667 18.6667C8.66667 19.588 8.29285 20.4221 7.68861 21.0254C7.08554 21.6276 6.25292 22 5.33333 22C3.49238 22 2 20.5076 2 18.6667C2 17.7471 2.37238 16.9145 2.97457 16.3114C3.57792 15.7071 4.41197 15.3333 5.33333 15.3333C7.17428 15.3333 8.66667 16.8257 8.66667 18.6667Z" fill="#28303F"/>
<path d="M22 18.6667C22 20.5076 20.5076 22 18.6667 22C17.7471 22 16.9145 21.6276 16.3114 21.0254C15.7071 20.4221 15.3333 19.588 15.3333 18.6667C15.3333 16.8257 16.8257 15.3333 18.6667 15.3333C19.588 15.3333 20.4221 15.7071 21.0254 16.3114C21.6276 16.9145 22 17.7471 22 18.6667Z" fill="#28303F"/>
</svg>
