<svg width="24" height="24" viewBox="0 0 24 24" fill="none" xmlns="http://www.w3.org/2000/svg">
<path fill-rule="evenodd" clip-rule="evenodd" d="M7.75 12C7.75 12.4142 7.41421 12.75 7 12.75L3 12.75C2.58579 12.75 2.25 12.4142 2.25 12C2.25 11.5858 2.58579 11.25 3 11.25L7 11.25C7.41421 11.25 7.75 11.5858 7.75 12Z" fill="#28303F"/>
<path fill-rule="evenodd" clip-rule="evenodd" d="M21.75 12C21.75 12.4142 21.4142 12.75 21 12.75L17 12.75C16.5858 12.75 16.25 12.4142 16.25 12C16.25 11.5858 16.5858 11.25 17 11.25L21 11.25C21.4142 11.25 21.75 11.5858 21.75 12Z" fill="#28303F"/>
<rect opacity="0.4" x="7" y="3" width="10" height="18" rx="3" fill="#28303F"/>
</svg>
