<svg width="24" height="24" viewBox="0 0 24 24" fill="none" xmlns="http://www.w3.org/2000/svg">
<rect opacity="0.4" x="7" y="3" width="10" height="18" rx="3" fill="#28303F"/>
<path fill-rule="evenodd" clip-rule="evenodd" d="M4 4.25C4.41421 4.25 4.75 4.58579 4.75 5V19C4.75 19.4142 4.41421 19.75 4 19.75C3.58579 19.75 3.25 19.4142 3.25 19V5C3.25 4.58579 3.58579 4.25 4 4.25Z" fill="#28303F"/>
<path fill-rule="evenodd" clip-rule="evenodd" d="M20 4.25C20.4142 4.25 20.75 4.58579 20.75 5V19C20.75 19.4142 20.4142 19.75 20 19.75C19.5858 19.75 19.25 19.4142 19.25 19V5C19.25 4.58579 19.5858 4.25 20 4.25Z" fill="#28303F"/>
</svg>
