<svg width="24" height="24" viewBox="0 0 24 24" fill="none" xmlns="http://www.w3.org/2000/svg">
<path fill-rule="evenodd" clip-rule="evenodd" d="M4.00024 13.5V19C4.00024 20.6569 5.34339 22 7.00024 22H17.0002C18.6571 22 20.0002 20.6569 20.0002 19V13.5H15.5001C14.7133 13.5 13.9723 13.1295 13.5001 12.5L12.0001 10.5L10.5001 12.5C10.028 13.1295 9.28704 13.5 8.50014 13.5H4.00024Z" fill="#28303F"/>
<path fill-rule="evenodd" clip-rule="evenodd" d="M11.25 4.18934L10.5303 3.46967C10.2374 3.17678 9.76256 3.17678 9.46967 3.46967C9.17678 3.76256 9.17678 4.23744 9.46967 4.53033L10.7626 5.82322C11.446 6.50664 12.554 6.50664 13.2374 5.82322L14.5303 4.53033C14.8232 4.23744 14.8232 3.76256 14.5303 3.46967C14.2374 3.17678 13.7626 3.17678 13.4697 3.46967L12.75 4.18934V2C12.75 1.58579 12.4142 1.25 12 1.25C11.5858 1.25 11.25 1.58579 11.25 2V4.18934Z" fill="#28303F"/>
<path d="M4.54952 8.03955H12.0046H19.4626C19.7758 8.03955 20.0709 8.18629 20.26 8.43602L21.7162 10.3599C22.2147 11.0185 21.7449 11.9634 20.9188 11.9634H15.5297C15.2201 11.9634 14.928 11.82 14.7386 11.5751L12.0046 8.03955L9.27745 11.5743C9.08811 11.8197 8.79567 11.9634 8.48571 11.9634H3.04287C2.20918 11.9634 1.74154 11.0032 2.25557 10.3468L3.76221 8.42298C3.95176 8.18095 4.2421 8.03955 4.54952 8.03955Z" fill="#28303F"/>
</svg>
