<svg width="24" height="24" viewBox="0 0 24 24" fill="none" xmlns="http://www.w3.org/2000/svg">
<path d="M14.4109 6.34017V4.40547C14.4109 3.07393 13.3315 1.99451 12 1.99451C10.6684 1.99451 9.58902 3.07393 9.58902 4.40547V6.34017C9.58902 7.05049 9.21226 7.70751 8.59922 8.06629L3.70919 10.9281C2.82888 11.4433 3.1943 12.7912 4.21429 12.7912H8.73831C9.29059 12.7912 9.73831 13.2389 9.73831 13.7912V16.2677C9.73831 16.9283 9.52028 17.5704 9.11805 18.0944L7.34319 20.4066C7.01719 20.8313 7.08623 21.4379 7.49933 21.7785C7.77982 22.0097 8.16419 22.0693 8.50157 21.934L11.2384 20.8112C11.7244 20.6119 12.2692 20.6117 12.7554 20.8107L15.4984 21.934C15.8358 22.0693 16.2201 22.0097 16.5006 21.7785C16.9137 21.4379 16.9828 20.8313 16.6568 20.4066L14.8819 18.0944C14.4797 17.5704 14.2616 16.9283 14.2616 16.2677V13.7912C14.2616 13.2389 14.7094 12.7912 15.2616 12.7912H19.7857C20.8057 12.7912 21.1711 11.4433 20.2908 10.9281L15.4007 8.06629C14.7877 7.70751 14.4109 7.05049 14.4109 6.34017Z" fill="#28303F"/>
</svg>
