<svg width="24" height="24" viewBox="0 0 24 24" fill="none" xmlns="http://www.w3.org/2000/svg">
<path fill-rule="evenodd" clip-rule="evenodd" d="M17 2.06213H18C20.2091 2.06213 22 3.85299 22 6.06213V12.0621C22 13.1667 21.1046 14.0621 20 14.0621H15C13.8954 14.0621 13 14.9576 13 16.0621V20.0621C13 21.1667 12.1046 22.0621 11 22.0621H6C3.79086 22.0621 2 20.2713 2 18.0621V6.06213C2 3.85299 3.79086 2.06213 6 2.06213H7H8H16H17ZM8 7.64792V3.56213H16V7.64792C16 8.53883 14.9229 8.98499 14.2929 8.35503L12.7071 6.76924C12.3166 6.37872 11.6834 6.37872 11.2929 6.76924L9.70711 8.35503C9.07714 8.98499 8 8.53883 8 7.64792ZM21 18.0621C21 19.6078 19.5314 21.4382 18.6493 22.3982C18.2946 22.7843 17.7054 22.7843 17.3507 22.3982C16.4686 21.4382 15 19.6078 15 18.0621C15 15.853 16.3431 15.0621 18 15.0621C19.6569 15.0621 21 15.853 21 18.0621ZM19 18.0621C19 18.6144 18.5523 19.0621 18 19.0621C17.4477 19.0621 17 18.6144 17 18.0621C17 17.5098 17.4477 17.0621 18 17.0621C18.5523 17.0621 19 17.5098 19 18.0621Z" fill="#28303F"/>
</svg>
