<svg width="24" height="24" viewBox="0 0 24 24" fill="none" xmlns="http://www.w3.org/2000/svg">
<path fill-rule="evenodd" clip-rule="evenodd" d="M17 2.06213H18C20.2091 2.06213 22 3.85299 22 6.06213V12.0621C22 13.1667 21.1046 14.0621 20 14.0621H15C13.8954 14.0621 13 14.9576 13 16.0621V20.0621C13 21.1667 12.1046 22.0621 11 22.0621H6C3.79086 22.0621 2 20.2713 2 18.0621V6.06213C2 3.85299 3.79086 2.06213 6 2.06213H7H8H16H17ZM8 7.64792V3.56213H16V7.64792C16 8.53883 14.9229 8.98499 14.2929 8.35503L12.7071 6.76924C12.3166 6.37872 11.6834 6.37872 11.2929 6.76924L9.70711 8.35503C9.07714 8.98499 8 8.53883 8 7.64792ZM18.75 16.0621C18.75 15.6479 18.4142 15.3121 18 15.3121C17.5858 15.3121 17.25 15.6479 17.25 16.0621V18.3121H15C14.5858 18.3121 14.25 18.6479 14.25 19.0621C14.25 19.4763 14.5858 19.8121 15 19.8121H17.25V22.0621C17.25 22.4763 17.5858 22.8121 18 22.8121C18.4142 22.8121 18.75 22.4763 18.75 22.0621V19.8121H21C21.4142 19.8121 21.75 19.4763 21.75 19.0621C21.75 18.6479 21.4142 18.3121 21 18.3121H18.75V16.0621Z" fill="#28303F"/>
</svg>
