<svg width="24" height="24" viewBox="0 0 24 24" fill="none" xmlns="http://www.w3.org/2000/svg">
<path fill-rule="evenodd" clip-rule="evenodd" d="M17 2H18C20.2091 2 22 3.79086 22 6V12C22 13.1046 21.1046 14 20 14H15C13.8954 14 13 14.8954 13 16V20C13 21.1046 12.1046 22 11 22H6C3.79086 22 2 20.2091 2 18V6C2 3.79086 3.79086 2 6 2H7H8H16H17ZM8 7.58579V3.5H16V7.58579C16 8.47669 14.9229 8.92286 14.2929 8.29289L12.7071 6.70711C12.3166 6.31658 11.6834 6.31658 11.2929 6.70711L9.70711 8.29289C9.07714 8.92286 8 8.47669 8 7.58579ZM21 18.75C21.4142 18.75 21.75 18.4142 21.75 18C21.75 17.5858 21.4142 17.25 21 17.25H15C14.5858 17.25 14.25 17.5858 14.25 18C14.25 18.4142 14.5858 18.75 15 18.75H21Z" fill="#28303F"/>
</svg>
