<svg width="24" height="24" viewBox="0 0 24 24" fill="none" xmlns="http://www.w3.org/2000/svg">
<path fill-rule="evenodd" clip-rule="evenodd" d="M17 2H18C20.2091 2 22 3.79086 22 6V12C22 13.1046 21.1046 14 20 14H15C13.8954 14 13 14.8954 13 16V20C13 21.1046 12.1046 22 11 22H6C3.79086 22 2 20.2091 2 18V6C2 3.79086 3.79086 2 6 2H7H8H16H17ZM8 7.58579V3.5H16V7.58579C16 8.47669 14.9229 8.92286 14.2929 8.29289L12.7071 6.70711C12.3166 6.31658 11.6834 6.31658 11.2929 6.70711L9.70711 8.29289C9.07714 8.92286 8 8.47669 8 7.58579ZM19.7054 18.1862L18.9858 17.462V21.2453C18.9858 21.6621 18.65 22 18.2358 22C17.8216 22 17.4858 21.6621 17.4858 21.2453V17.462L16.7661 18.1862C16.4732 18.481 15.9983 18.481 15.7054 18.1862C15.4126 17.8915 15.4126 17.4136 15.7054 17.1188L16.9983 15.8178C17.6818 15.13 18.7898 15.13 19.4732 15.8178L20.7661 17.1188C21.059 17.4136 21.059 17.8915 20.7661 18.1862C20.4732 18.481 19.9983 18.481 19.7054 18.1862Z" fill="#28303F"/>
</svg>
