<svg width="24" height="24" viewBox="0 0 24 24" fill="none" xmlns="http://www.w3.org/2000/svg">
<path fill-rule="evenodd" clip-rule="evenodd" d="M17 2.06213H18C20.2091 2.06213 22 3.85299 22 6.06213V13.0621C22 14.1667 21.1046 15.0621 20 15.0621H15C13.8954 15.0621 13 15.9576 13 17.0621V20.0621C13 21.1667 12.1046 22.0621 11 22.0621H6C3.79086 22.0621 2 20.2713 2 18.0621V6.06213C2 3.85299 3.79086 2.06213 6 2.06213H7H8H16H17ZM8 7.64792V3.56213H16V7.64792C16 8.53883 14.9229 8.98499 14.2929 8.35503L12.7071 6.76924C12.3166 6.37872 11.6834 6.37872 11.2929 6.76924L9.70711 8.35503C9.07714 8.98499 8 8.53883 8 7.64792ZM21.5644 18.556C21.8372 18.2443 21.8056 17.7705 21.4939 17.4977C21.1822 17.2249 20.7083 17.2565 20.4356 17.5683L17.5657 20.8481C17.4776 20.9488 17.3258 20.9623 17.2213 20.8787L15.4685 19.4765C15.1451 19.2177 14.6731 19.2702 14.4143 19.5936C14.1556 19.9171 14.208 20.389 14.5315 20.6478L16.2843 22.05C17.0156 22.6351 18.0778 22.5407 18.6945 21.8359L21.5644 18.556Z" fill="#28303F"/>
</svg>
