<svg width="24" height="24" viewBox="0 0 24 24" fill="none" xmlns="http://www.w3.org/2000/svg">
<path fill-rule="evenodd" clip-rule="evenodd" d="M17 2.06213H18C20.2091 2.06213 22 3.85299 22 6.06213V12.0621C22 13.1667 21.1046 14.0621 20 14.0621H15C13.8954 14.0621 13 14.9576 13 16.0621V20.0621C13 21.1667 12.1046 22.0621 11 22.0621H6C3.79086 22.0621 2 20.2713 2 18.0621V6.06213C2 3.85299 3.79086 2.06213 6 2.06213H7H8H16H17ZM8 7.64792V3.56213H16V7.64792C16 8.53883 14.9229 8.98499 14.2929 8.35503L12.7071 6.76924C12.3166 6.37872 11.6834 6.37872 11.2929 6.76924L9.70711 8.35503C9.07714 8.98499 8 8.53883 8 7.64792ZM20.9585 18.5829C20.9585 20.5045 19.4008 22.0622 17.4792 22.0622C15.5577 22.0622 14 20.5045 14 18.5829C14 16.6614 15.5577 15.1037 17.4792 15.1037C19.4008 15.1037 20.9585 16.6614 20.9585 18.5829ZM17.1704 17.034C17.4465 17.034 17.6704 17.2579 17.6704 17.534V18.6249L18.4712 18.625C18.7474 18.625 18.9712 18.8488 18.9712 19.125C18.9712 19.4011 18.7474 19.625 18.4712 19.625L17.1704 19.6249C16.8942 19.6249 16.6704 19.4011 16.6704 19.1249V17.534C16.6704 17.2579 16.8942 17.034 17.1704 17.034Z" fill="#28303F"/>
</svg>
