<svg width="24" height="24" viewBox="0 0 24 24" fill="none" xmlns="http://www.w3.org/2000/svg">
<path fill-rule="evenodd" clip-rule="evenodd" d="M17 2.06213H18C20.2091 2.06213 22 3.85299 22 6.06213V12.0621C22 13.1667 21.1046 14.0621 20 14.0621H15C13.8954 14.0621 13 14.9576 13 16.0621V20.0621C13 21.1667 12.1046 22.0621 11 22.0621H6C3.79086 22.0621 2 20.2713 2 18.0621V6.06213C2 3.85299 3.79086 2.06213 6 2.06213H7H8H16H17ZM8 7.64792V3.56213H16V7.64792C16 8.53883 14.9229 8.98499 14.2929 8.35503L12.7071 6.76924C12.3166 6.37872 11.6834 6.37872 11.2929 6.76924L9.70711 8.35503C9.07714 8.98499 8 8.53883 8 7.64792ZM16.7353 19.1779L17.455 19.9021V16.1189C17.455 15.702 17.7907 15.3641 18.205 15.3641C18.6192 15.3641 18.955 15.702 18.955 16.1189V19.9021L19.6746 19.1779C19.9675 18.8832 20.4424 18.8832 20.7353 19.1779C21.0282 19.4727 21.0282 19.9505 20.7353 20.2453L19.4424 21.5464C18.759 22.2341 17.6509 22.2341 16.9675 21.5464L15.6746 20.2453C15.3817 19.9505 15.3817 19.4727 15.6746 19.1779C15.9675 18.8832 16.4424 18.8832 16.7353 19.1779Z" fill="#28303F"/>
</svg>
