<svg width="24" height="24" viewBox="0 0 24 24" fill="none" xmlns="http://www.w3.org/2000/svg">
<path fill-rule="evenodd" clip-rule="evenodd" d="M17 2.06213H18C20.2091 2.06213 22 3.85299 22 6.06213V12.0621C22 13.1667 21.1046 14.0621 20 14.0621H15C13.8954 14.0621 13 14.9576 13 16.0621V20.0621C13 21.1667 12.1046 22.0621 11 22.0621H6C3.79086 22.0621 2 20.2713 2 18.0621V6.06213C2 3.85299 3.79086 2.06213 6 2.06213H7H8H16H17ZM8 7.64792V3.56213H16V7.64792C16 8.53883 14.9229 8.98499 14.2929 8.35503L12.7071 6.76924C12.3166 6.37872 11.6834 6.37872 11.2929 6.76924L9.70711 8.35503C9.07714 8.98499 8 8.53883 8 7.64792ZM15.75 18.5621C15.75 17.5956 16.5335 16.8121 17.5 16.8121C18.4665 16.8121 19.25 17.5956 19.25 18.5621C19.25 19.5286 18.4665 20.3121 17.5 20.3121C16.5335 20.3121 15.75 19.5286 15.75 18.5621ZM17.5 15.3121C15.7051 15.3121 14.25 16.7672 14.25 18.5621C14.25 20.3571 15.7051 21.8121 17.5 21.8121C18.1257 21.8121 18.7102 21.6353 19.2061 21.3289L19.9697 22.0925C20.2626 22.3854 20.7374 22.3854 21.0303 22.0925C21.3232 21.7996 21.3232 21.3247 21.0303 21.0318L20.2667 20.2682C20.5732 19.7723 20.75 19.1879 20.75 18.5621C20.75 16.7672 19.2949 15.3121 17.5 15.3121Z" fill="#28303F"/>
</svg>
