<svg width="24" height="24" viewBox="0 0 24 24" fill="none" xmlns="http://www.w3.org/2000/svg">
<path fill-rule="evenodd" clip-rule="evenodd" d="M17 2H18C20.2091 2 22 3.79086 22 6V12C22 13.1046 21.1046 14 20 14H15C13.8954 14 13 14.8954 13 16V20C13 21.1046 12.1046 22 11 22H6C3.79086 22 2 20.2091 2 18V6C2 3.79086 3.79086 2 6 2H7H8H16H17ZM8 7.58579V3.5H16V7.58579C16 8.47669 14.9229 8.92286 14.2929 8.29289L12.7071 6.70711C12.3166 6.31658 11.6834 6.31658 11.2929 6.70711L9.70711 8.29289C9.07714 8.92286 8 8.47669 8 7.58579ZM16.409 16.3483C16.1161 16.0554 15.6413 16.0554 15.3484 16.3483C15.0555 16.6412 15.0555 17.1161 15.3484 17.409L16.9393 19L15.3483 20.591C15.0554 20.8839 15.0554 21.3587 15.3483 21.6516C15.6412 21.9445 16.1161 21.9445 16.409 21.6516L18 20.0606L19.591 21.6516C19.8839 21.9445 20.3588 21.9445 20.6517 21.6516C20.9446 21.3587 20.9446 20.8839 20.6517 20.591L19.0607 19L20.6516 17.409C20.9445 17.1161 20.9445 16.6412 20.6516 16.3483C20.3587 16.0554 19.8839 16.0554 19.591 16.3483L18 17.9393L16.409 16.3483Z" fill="#28303F"/>
</svg>
