<svg width="24" height="24" viewBox="0 0 24 24" fill="none" xmlns="http://www.w3.org/2000/svg">
<path fill-rule="evenodd" clip-rule="evenodd" d="M17 2H18C20.2091 2 22 3.79086 22 6V12C22 13.1046 21.1046 14 20 14H15C13.8954 14 13 14.8954 13 16V20C13 21.1046 12.1046 22 11 22H6C3.79086 22 2 20.2091 2 18V6C2 3.79086 3.79086 2 6 2H7H8H16H17ZM8 7.58579V3.5H16V7.58579C16 8.47669 14.9229 8.92286 14.2929 8.29289L12.7071 6.70711C12.3166 6.31658 11.6834 6.31658 11.2929 6.70711L9.70711 8.29289C9.07714 8.92286 8 8.47669 8 7.58579ZM18 17L18.2652 16.7348C18.9974 16.0026 20.1846 16.0026 20.9168 16.7348C21.649 17.4671 21.649 18.6543 20.9168 19.3865L19.0607 21.2427C18.4749 21.8284 17.5251 21.8284 16.9393 21.2427L15.0832 19.3865C14.351 18.6543 14.351 17.4671 15.0832 16.7348C15.8154 16.0026 17.0026 16.0026 17.7348 16.7348L18 17Z" fill="#28303F"/>
</svg>
