<svg width="24" height="24" viewBox="0 0 24 24" fill="none" xmlns="http://www.w3.org/2000/svg">
<path fill-rule="evenodd" clip-rule="evenodd" d="M12.75 1.99988C12.75 1.58566 12.4142 1.24988 12 1.24988C11.5858 1.24988 11.25 1.58566 11.25 1.99988V3.6486L6.02848 7.99988H6C3.79086 7.99988 2 9.79074 2 11.9999V17.9999C2 20.209 3.79086 21.9999 6 21.9999H18C20.2091 21.9999 22 20.209 22 17.9999V11.9999C22 9.79074 20.2091 7.99988 18 7.99988H17.9716L12.75 3.6486V1.99988ZM15.6285 7.99988L12 4.97616L8.37156 7.99988H15.6285ZM12 11.2499C12.4142 11.2499 12.75 11.5857 12.75 11.9999V17.9999C12.75 18.4141 12.4142 18.7499 12 18.7499C11.5858 18.7499 11.25 18.4141 11.25 17.9999V11.9999C11.25 11.5857 11.5858 11.2499 12 11.2499ZM7.75 11.9999C7.75 11.5857 7.41421 11.2499 7 11.2499C6.58579 11.2499 6.25 11.5857 6.25 11.9999V17.9999C6.25 18.4141 6.58579 18.7499 7 18.7499C7.41421 18.7499 7.75 18.4141 7.75 17.9999V11.9999ZM17 11.2499C17.4142 11.2499 17.75 11.5857 17.75 11.9999V17.9999C17.75 18.4141 17.4142 18.7499 17 18.7499C16.5858 18.7499 16.25 18.4141 16.25 17.9999V11.9999C16.25 11.5857 16.5858 11.2499 17 11.2499Z" fill="#28303F"/>
</svg>
