<svg width="24" height="24" viewBox="0 0 24 24" fill="none" xmlns="http://www.w3.org/2000/svg">
<path fill-rule="evenodd" clip-rule="evenodd" d="M8 1.99988H16C17.1046 1.99988 18 2.89531 18 3.99988V10.7536L13.3522 8.77585C12.4874 8.40789 11.5126 8.40789 10.6479 8.77585L6 10.7536V3.99988C6 2.89531 6.89543 1.99988 8 1.99988ZM13.75 4.99988C13.75 5.41409 13.4142 5.74988 13 5.74988H11C10.5858 5.74988 10.25 5.41409 10.25 4.99988C10.25 4.58566 10.5858 4.24988 11 4.24988H13C13.4142 4.24988 13.75 4.58566 13.75 4.99988ZM4.11651 20.3542C4.24404 20.2692 4.37593 20.1939 4.51119 20.1283C4.49191 20.1001 4.4733 20.0713 4.45538 20.0419L2.3017 16.5137C1.65272 15.4505 2.09197 14.0467 3.22438 13.5648L11.2352 10.1561C11.7247 9.94781 12.2753 9.94781 12.7648 10.1561L20.7756 13.5648C21.908 14.0467 22.3473 15.4505 21.6983 16.5137L19.489 20.133C19.6355 20.2031 19.7783 20.284 19.9161 20.3759L21.4161 21.3759C21.7607 21.6056 21.8538 22.0713 21.6241 22.4159C21.3943 22.7606 20.9287 22.8537 20.584 22.6239L19.084 21.6239C18.4276 21.1863 17.5725 21.1863 16.9161 21.6239C15.7531 22.3993 14.2328 22.3898 13.0753 21.6181C12.4184 21.1802 11.5599 21.169 10.8994 21.5893L10.7141 21.7072C9.57794 22.4302 8.1182 22.3981 7.01491 21.6258C6.39673 21.1931 5.57642 21.1837 4.94856 21.6023L3.41611 22.624C3.07146 22.8537 2.60581 22.7606 2.37604 22.4159C2.14628 22.0713 2.23941 21.6056 2.58405 21.3759L4.11651 20.3542Z" fill="#28303F"/>
</svg>
