<svg width="24" height="24" viewBox="0 0 24 24" fill="none" xmlns="http://www.w3.org/2000/svg">
<path fill-rule="evenodd" clip-rule="evenodd" d="M6 3.99988C6 2.89531 6.89543 1.99988 8 1.99988H16C17.1046 1.99988 18 2.89531 18 3.99988V11.9999C18 13.1044 17.1046 13.9999 16 13.9999H8C6.89543 13.9999 6 13.1044 6 11.9999V3.99988ZM13.75 4.99988C13.75 5.41409 13.4142 5.74988 13 5.74988H11C10.5858 5.74988 10.25 5.41409 10.25 4.99988C10.25 4.58566 10.5858 4.24988 11 4.24988H13C13.4142 4.24988 13.75 4.58566 13.75 4.99988ZM3.88418 14.3153L5.43409 15.8283C6.20253 16.5785 7.24475 16.9999 8.33149 16.9999H17.2296C18.3163 16.9999 19.3585 17.4213 20.127 18.1715L21.5757 19.5857C21.8474 19.8509 22 20.2106 22 20.5857C22 21.3667 21.3514 21.9999 20.5513 21.9999H7.42506C5.71702 21.9999 4.18814 20.9656 3.58841 19.4044L2.07124 15.4549C1.80079 14.7509 2.33392 13.9999 3.10414 13.9999C3.39671 13.9999 3.6773 14.1133 3.88418 14.3153Z" fill="#28303F"/>
</svg>
