<svg width="24" height="24" viewBox="0 0 24 24" fill="none" xmlns="http://www.w3.org/2000/svg">
<path fill-rule="evenodd" clip-rule="evenodd" d="M7 5C7 3.89543 7.89543 3 9 3H15C16.1046 3 17 3.89543 17 5V11.5C17 12.6046 16.1046 13.5 15 13.5H9C7.89543 13.5 7 12.6046 7 11.5V5ZM13.75 6C13.75 6.41421 13.4142 6.75 13 6.75H11C10.5858 6.75 10.25 6.41421 10.25 6C10.25 5.58579 10.5858 5.25 11 5.25H13C13.4142 5.25 13.75 5.58579 13.75 6ZM2 18C2 16.3431 3.34315 15 5 15H19C20.6569 15 22 16.3431 22 18C22 19.6569 20.6569 21 19 21H5C3.34315 21 2 19.6569 2 18ZM18 18C18 18.5523 17.5523 19 17 19C16.4477 19 16 18.5523 16 18C16 17.4477 16.4477 17 17 17C17.5523 17 18 17.4477 18 18ZM12 19C12.5523 19 13 18.5523 13 18C13 17.4477 12.5523 17 12 17C11.4477 17 11 17.4477 11 18C11 18.5523 11.4477 19 12 19ZM8 18C8 18.5523 7.55228 19 7 19C6.44772 19 6 18.5523 6 18C6 17.4477 6.44772 17 7 17C7.55228 17 8 17.4477 8 18Z" fill="#28303F"/>
</svg>
