<svg width="24" height="24" viewBox="0 0 24 24" fill="none" xmlns="http://www.w3.org/2000/svg">
<path fill-rule="evenodd" clip-rule="evenodd" d="M6 3.06213H9.5C11.7091 3.06213 13.5 4.85299 13.5 7.06213V19.0621H10.5C10.5 17.1291 8.933 15.5621 7 15.5621C5.34384 15.5621 3.95711 16.7118 3.59319 18.2573C2.62551 17.5272 2 16.3677 2 15.0621V7.06213C2 4.85299 3.79086 3.06213 6 3.06213ZM8 6.81213C8.41421 6.81213 8.75 7.14792 8.75 7.56213V10.3121H10.5C10.9142 10.3121 11.25 10.6479 11.25 11.0621C11.25 11.4763 10.9142 11.8121 10.5 11.8121H8C7.58579 11.8121 7.25 11.4763 7.25 11.0621V7.56213C7.25 7.14792 7.58579 6.81213 8 6.81213ZM21.4456 18.4442C21.1538 16.8059 19.7222 15.5621 18 15.5621C16.7268 15.5621 15.6124 16.2419 15 17.2583V7.06213H17.2091C17.7172 7.06213 18.2063 7.25554 18.577 7.60306L21.3679 10.2195C21.7712 10.5976 22 11.1258 22 11.6786V17.0621C22 17.5983 21.7891 18.0851 21.4456 18.4442ZM9 19.0621C9 20.1667 8.10457 21.0621 7 21.0621C5.89543 21.0621 5 20.1667 5 19.0621C5 19.0201 5.00129 18.9785 5.00384 18.9371C5.06838 17.8908 5.93742 17.0621 7 17.0621C8.10457 17.0621 9 17.9576 9 19.0621ZM20 19.0621C20 20.1667 19.1046 21.0621 18 21.0621C16.8954 21.0621 16 20.1667 16 19.0621C16 17.9576 16.8954 17.0621 18 17.0621C19.1046 17.0621 20 17.9576 20 19.0621Z" fill="#28303F"/>
</svg>
