<svg width="24" height="24" viewBox="0 0 24 24" fill="none" xmlns="http://www.w3.org/2000/svg">
<path fill-rule="evenodd" clip-rule="evenodd" d="M9.06066 11.9999L4.83535 7.77457C4.93131 7.6315 5.12642 7.44677 5.50698 7.25648C6.10625 6.95685 6.98662 6.74988 8 6.74988C9.01338 6.74988 9.89375 6.95685 10.493 7.25648C11.1371 7.57855 11.25 7.88471 11.25 7.99988V11.9999H9.06066ZM7.55578 12.6163L3.46967 8.53021C3.32902 8.38956 3.25 8.19879 3.25 7.99988C3.25 6.05403 4.30336 4.34958 5.89315 3.15724C7.4827 1.96507 9.64427 1.24988 12 1.24988C14.3557 1.24988 16.5173 1.96507 18.1069 3.15724C19.6966 4.34958 20.75 6.05403 20.75 7.99988C20.75 8.19879 20.671 8.38956 20.5303 8.53021L16.4442 12.6163C16.7885 12.9756 17 13.463 17 13.9999V19.9999C17 21.1044 16.1046 21.9999 15 21.9999H9C7.89543 21.9999 7 21.1044 7 19.9999V13.9999C7 13.463 7.21153 12.9756 7.55578 12.6163ZM14.9393 11.9999L19.1646 7.77457C19.0687 7.6315 18.8736 7.44677 18.493 7.25648C17.8937 6.95685 17.0134 6.74988 16 6.74988C14.9866 6.74988 14.1063 6.95685 13.507 7.25648C12.8629 7.57855 12.75 7.88471 12.75 7.99988V11.9999H14.9393ZM13.75 13.9999C13.75 14.4141 13.4142 14.7499 13 14.7499H11C10.5858 14.7499 10.25 14.4141 10.25 13.9999C10.25 13.5857 10.5858 13.2499 11 13.2499H13C13.4142 13.2499 13.75 13.5857 13.75 13.9999Z" fill="#28303F"/>
</svg>
