<svg width="24" height="24" viewBox="0 0 24 24" fill="none" xmlns="http://www.w3.org/2000/svg">
<path fill-rule="evenodd" clip-rule="evenodd" d="M13 4.99988C13 3.89531 13.8954 2.99988 15 2.99988H20C21.1046 2.99988 22 3.89531 22 4.99988V9.99988C22 11.1044 21.1046 11.9999 20 11.9999H15C13.8954 11.9999 13 11.1044 13 9.99988V4.99988ZM19.25 5.99988C19.25 6.41409 18.9142 6.74988 18.5 6.74988H16.5C16.0858 6.74988 15.75 6.41409 15.75 5.99988C15.75 5.58566 16.0858 5.24988 16.5 5.24988H18.5C18.9142 5.24988 19.25 5.58566 19.25 5.99988ZM2 8.99988H4L10.2622 11.7396C11.2241 12.1604 11.6664 13.2783 11.2528 14.2433C11.19 14.3898 11.1111 14.5244 11.0191 14.6459L13.7331 16.3664C14.5663 16.783 15.4849 16.9999 16.4164 16.9999H18C19.1046 16.9999 20 17.8953 20 18.9999C20 20.1044 19.1046 20.9999 18 20.9999H9.88854C8.64658 20.9999 7.42168 20.7107 6.31083 20.1553L2 17.9999V8.99988Z" fill="#28303F"/>
</svg>
