<svg width="24" height="24" viewBox="0 0 24 24" fill="none" xmlns="http://www.w3.org/2000/svg">
<path fill-rule="evenodd" clip-rule="evenodd" d="M22 11.9999C22 17.5227 17.5228 21.9999 12 21.9999C11.4477 21.9999 11 21.5522 11 20.9999V17.9999C11 16.8953 10.1046 15.9999 9 15.9999H4C2.89543 15.9999 2 15.1044 2 13.9999V11.9999C2 6.47703 6.47715 1.99988 12 1.99988C17.5228 1.99988 22 6.47703 22 11.9999ZM12 5.24988C11.5858 5.24988 11.25 5.58566 11.25 5.99988V10.1453C10.517 10.442 10 11.1605 10 11.9999C10 13.1044 10.8954 13.9999 12 13.9999C12.2934 13.9999 12.572 13.9367 12.8231 13.8232C12.8588 13.8981 12.9077 13.9682 12.9697 14.0302L14.4697 15.5302C14.7626 15.8231 15.2374 15.8231 15.5303 15.5302C15.8232 15.2373 15.8232 14.7624 15.5303 14.4695L14.0303 12.9695C13.9683 12.9076 13.8982 12.8587 13.8233 12.8229C13.9368 12.5719 14 12.2933 14 11.9999C14 11.1605 13.483 10.442 12.75 10.1453V5.99988C12.75 5.58566 12.4142 5.24988 12 5.24988ZM1.25 21.9999C1.25 21.5857 1.58579 21.2499 2 21.2499H8C8.41421 21.2499 8.75 21.5857 8.75 21.9999C8.75 22.4141 8.41421 22.7499 8 22.7499H2C1.58579 22.7499 1.25 22.4141 1.25 21.9999ZM2 18.2499C1.58579 18.2499 1.25 18.5857 1.25 18.9999C1.25 19.4141 1.58579 19.7499 2 19.7499H6C6.41421 19.7499 6.75 19.4141 6.75 18.9999C6.75 18.5857 6.41421 18.2499 6 18.2499H2Z" fill="#28303F"/>
</svg>
