<svg width="24" height="24" viewBox="0 0 24 24" fill="none" xmlns="http://www.w3.org/2000/svg">
<path fill-rule="evenodd" clip-rule="evenodd" d="M9.5 3.06213H6C3.79086 3.06213 2 4.85299 2 7.06213V15.0621C2 16.3677 2.62551 17.5272 3.59319 18.2573C3.95711 16.7118 5.34384 15.5621 7 15.5621C8.933 15.5621 10.5 17.1291 10.5 19.0621H13.5V7.06213C13.5 4.85299 11.7091 3.06213 9.5 3.06213ZM8 7.31213C7.58579 7.31213 7.25 7.64792 7.25 8.06213C7.25 8.47635 7.58579 8.81213 8 8.81213H10C10.4142 8.81213 10.75 8.47635 10.75 8.06213C10.75 7.64792 10.4142 7.31213 10 7.31213H8ZM5.25 12.0621C5.25 11.6479 5.58579 11.3121 6 11.3121H10C10.4142 11.3121 10.75 11.6479 10.75 12.0621C10.75 12.4763 10.4142 12.8121 10 12.8121H6C5.58579 12.8121 5.25 12.4763 5.25 12.0621ZM21.4456 18.4442C21.1538 16.8059 19.7222 15.5621 18 15.5621C16.7268 15.5621 15.6124 16.2419 15 17.2583V7.06213H17.2091C17.7172 7.06213 18.2063 7.25554 18.577 7.60306L21.3679 10.2195C21.7712 10.5976 22 11.1258 22 11.6786V17.0621C22 17.5983 21.7891 18.0851 21.4456 18.4442ZM9 19.0621C9 20.1667 8.10457 21.0621 7 21.0621C5.89543 21.0621 5 20.1667 5 19.0621C5 19.0201 5.00129 18.9785 5.00384 18.9371C5.06838 17.8908 5.93742 17.0621 7 17.0621C8.10457 17.0621 9 17.9576 9 19.0621ZM20 19.0621C20 20.1667 19.1046 21.0621 18 21.0621C16.8954 21.0621 16 20.1667 16 19.0621C16 17.9576 16.8954 17.0621 18 17.0621C19.1046 17.0621 20 17.9576 20 19.0621Z" fill="#28303F"/>
</svg>
