<svg width="24" height="24" viewBox="0 0 24 24" fill="none" xmlns="http://www.w3.org/2000/svg">
<path fill-rule="evenodd" clip-rule="evenodd" d="M12.2295 2.56172L12 2.80294L11.7705 2.56172C11.1367 1.89561 10.1091 1.89561 9.47534 2.56172C8.84155 3.22783 8.84155 4.30781 9.47534 4.97392L11.0819 6.66247C11.589 7.19536 12.411 7.19536 12.9181 6.66247L14.5247 4.97392C15.1584 4.30781 15.1584 3.22783 14.5247 2.56172C13.8909 1.89561 12.8633 1.89561 12.2295 2.56172ZM4 11.7393V16.8261C4 17.5836 4.428 18.2762 5.10557 18.615L11.1056 21.615C11.6686 21.8965 12.3314 21.8965 12.8944 21.615L18.8944 18.615C19.572 18.2762 20 17.5836 20 16.8261V11.7393L14.6708 14.4039C13.9942 14.7422 13.1716 14.5237 12.7519 13.8943L12 12.7664L11.2481 13.8943C10.8285 14.5237 10.0058 14.7422 9.32919 14.4039L4 11.7393ZM11.9757 10.0778L4.01562 6.08557L2.02869 9.04239L10.0311 13.0648L11.9757 10.0778ZM11.9757 10.0778L13.9978 13.0648L22.0171 9.1L19.9909 6.11169L11.9757 10.0778Z" fill="#28303F"/>
</svg>
