<svg width="24" height="24" viewBox="0 0 24 24" fill="none" xmlns="http://www.w3.org/2000/svg">
<path fill-rule="evenodd" clip-rule="evenodd" d="M18.323 5.16152L12.8944 2.44723C12.3314 2.1657 11.6686 2.1657 11.1056 2.44723L5.677 5.16151L12 8.32301L18.323 5.16152ZM4 11.6771V16.764C4 17.5215 4.428 18.214 5.10557 18.5528L11.1056 21.5528C11.6686 21.8343 12.3314 21.8343 12.8944 21.5528L18.8944 18.5528C19.572 18.214 20 17.5215 20 16.764V11.6771L14.6708 14.3417C13.9942 14.68 13.1716 14.4616 12.7519 13.8321L12 12.7042L11.2481 13.8321C10.8285 14.4616 10.0058 14.68 9.32919 14.3417L4 11.6771ZM11.9757 10.0157L4.01562 6.02344L2.02869 8.98025L10.0311 13.0026L11.9757 10.0157ZM11.9757 10.0157L13.9978 13.0026L22.0171 9.03787L19.9909 6.04956L11.9757 10.0157Z" fill="#28303F"/>
</svg>
