<svg width="24" height="24" viewBox="0 0 24 24" fill="none" xmlns="http://www.w3.org/2000/svg">
<path fill-rule="evenodd" clip-rule="evenodd" d="M14.75 5.06213C14.75 5.47635 14.4142 5.81213 14 5.81213L10 5.81213C9.58579 5.81213 9.25 5.47635 9.25 5.06213C9.25 4.64792 9.58579 4.31213 10 4.31213H14C14.4142 4.31213 14.75 4.64792 14.75 5.06213ZM4 11.7393V16.8261C4 17.5836 4.428 18.2762 5.10557 18.615L11.1056 21.615C11.6686 21.8965 12.3314 21.8965 12.8944 21.615L18.8944 18.615C19.572 18.2762 20 17.5836 20 16.8261V11.7393L14.6708 14.4039C13.9942 14.7422 13.1716 14.5237 12.7519 13.8943L12 12.7664L11.2481 13.8943C10.8285 14.5237 10.0058 14.7422 9.32919 14.4039L4 11.7393ZM11.9757 10.0778L4.01562 6.08557L2.02869 9.04239L10.0311 13.0648L11.9757 10.0778ZM11.9757 10.0778L13.9978 13.0648L22.0171 9.1L19.9909 6.11169L11.9757 10.0778Z" fill="#28303F"/>
</svg>
