<svg width="24" height="24" viewBox="0 0 24 24" fill="none" xmlns="http://www.w3.org/2000/svg">
<path fill-rule="evenodd" clip-rule="evenodd" d="M12.7534 6.47231V4.68513L13.3816 5.25611C13.6942 5.54029 14.1737 5.50953 14.4491 5.18764C14.7195 4.87149 14.6917 4.39222 14.3867 4.11085L12.3322 2.2159C12.1416 2.0401 11.8516 2.04037 11.6613 2.21653L9.61001 4.11564C9.3088 4.3945 9.28179 4.86841 9.54927 5.1811C9.82597 5.50457 10.3097 5.53044 10.6179 5.23826L11.2724 4.61791V6.47231C11.2724 6.89004 11.604 7.22868 12.0129 7.22868C12.4219 7.22868 12.7534 6.89004 12.7534 6.47231ZM4.01562 6.08557L11.9757 10.0778L10.0311 13.0648L2.02869 9.04239L4.01562 6.08557ZM11.9757 10.0778L19.9909 6.11169L22.0171 9.1L13.9978 13.0648L11.9757 10.0778ZM4 11.7393V16.9348C4 17.6878 4.42294 18.377 5.09431 18.718L11.0943 21.7654C11.6635 22.0545 12.3365 22.0545 12.9057 21.7654L18.9057 18.718C19.5771 18.377 20 17.6878 20 16.9348V11.7393L14.6708 14.446C13.9942 14.7897 13.1716 14.5677 12.7519 13.9283L12 12.7826L11.2481 13.9283C10.8285 14.5677 10.0058 14.7897 9.32919 14.446L4 11.7393Z" fill="#28303F"/>
</svg>
