<svg width="24" height="24" viewBox="0 0 24 24" fill="none" xmlns="http://www.w3.org/2000/svg">
<path fill-rule="evenodd" clip-rule="evenodd" d="M11.2466 4.62546V2.83828C11.2466 2.42055 11.5781 2.08191 11.9871 2.08191C12.396 2.08191 12.7276 2.42055 12.7276 2.83828V4.69268L13.3821 4.07233C13.6903 3.78015 14.174 3.80602 14.4507 4.12949C14.7182 4.44218 14.6912 4.91609 14.39 5.19494L12.3387 7.09405C12.1484 7.27022 11.8584 7.27049 11.6678 7.09469L9.61332 5.19974C9.30826 4.91837 9.2805 4.4391 9.55095 4.12295C9.82631 3.80106 10.3058 3.7703 10.6184 4.05447L11.2466 4.62546ZM4 11.7393V16.8261C4 17.5837 4.428 18.2762 5.10557 18.615L11.1056 21.615C11.6686 21.8965 12.3314 21.8965 12.8944 21.615L18.8944 18.615C19.572 18.2762 20 17.5837 20 16.8261V11.7393L14.6708 14.4039C13.9942 14.7422 13.1716 14.5237 12.7519 13.8943L12 12.7664L11.2481 13.8943C10.8285 14.5237 10.0058 14.7422 9.32919 14.4039L4 11.7393ZM11.9757 10.0779L4.01562 6.08561L2.02869 9.04243L10.0311 13.0648L11.9757 10.0779ZM11.9757 10.0779L13.9978 13.0648L22.0171 9.10004L19.9909 6.11174L11.9757 10.0779Z" fill="#28303F"/>
</svg>
