<svg width="24" height="24" viewBox="0 0 24 24" fill="none" xmlns="http://www.w3.org/2000/svg">
<path fill-rule="evenodd" clip-rule="evenodd" d="M15.5873 3.66967C15.8601 3.35794 15.8285 2.88412 15.5168 2.61136C15.205 2.3386 14.7312 2.37019 14.4585 2.68191L11.5885 5.96181C11.5005 6.06249 11.3487 6.07597 11.2442 5.9924L9.49141 4.59014C9.16796 4.33138 8.69599 4.38382 8.43724 4.70727C8.17848 5.03072 8.23092 5.50269 8.55437 5.76144L10.3072 7.1637C11.0385 7.74873 12.1007 7.65435 12.7174 6.94956L15.5873 3.66967ZM4.01562 6.02351L11.9757 10.0158L10.0311 13.0027L2.02869 8.98032L4.01562 6.02351ZM11.9757 10.0158L19.9909 6.04963L22.0171 9.03794L13.9978 13.0027L11.9757 10.0158ZM4.02289 11.6772V16.764C4.02289 17.5216 4.45089 18.2141 5.12846 18.5529L11.1285 21.5529C11.6915 21.8344 12.3543 21.8344 12.9173 21.5529L18.9173 18.5529C19.5949 18.2141 20.0229 17.5216 20.0229 16.764V11.6772L14.6937 14.3418C14.0171 14.6801 13.1944 14.4616 12.7748 13.8322L12.0229 12.7043L11.271 13.8322C10.8513 14.4616 10.0287 14.6801 9.35208 14.3418L4.02289 11.6772Z" fill="#28303F"/>
</svg>
