<svg width="24" height="25" viewBox="0 0 24 25" fill="none" xmlns="http://www.w3.org/2000/svg">
<path fill-rule="evenodd" clip-rule="evenodd" d="M3.76399 5.62172L2.21524 7.61586C1.70501 8.27282 2.1732 9.22925 3.00502 9.22925H8.50036C8.81501 9.22925 9.11131 9.08115 9.30018 8.82948L11.9976 5.23511L14.7935 8.8419C14.9829 9.08625 15.2747 9.22925 15.5838 9.22925H20.9949C21.8269 9.22925 22.2951 8.27239 21.7844 7.6155L20.2342 5.62136C20.0447 5.37766 19.7533 5.23511 19.4447 5.23511H11.9976H4.55377C4.24494 5.23511 3.95343 5.37781 3.76399 5.62172ZM8.12438 10.9967H4V16.9057C4 18.6805 5.34315 20.1192 7 20.1192H17C18.6569 20.1192 20 18.6805 20 16.9057V10.9967H15.8894C14.7165 10.9967 13.6216 10.3674 12.9731 9.32055L12.0069 7.76087L11.0407 9.32055C10.3922 10.3674 9.29728 10.9967 8.12438 10.9967Z" fill="#28303F"/>
</svg>
