<svg width="24" height="24" viewBox="0 0 24 24" fill="none" xmlns="http://www.w3.org/2000/svg">
<path fill-rule="evenodd" clip-rule="evenodd" d="M13.9447 4.17828C14.2376 3.88539 14.2376 3.41051 13.9447 3.11762C13.6518 2.82473 13.1769 2.82473 12.884 3.11762L12.0001 4.0015L11.1163 3.11762C10.8234 2.82473 10.3485 2.82473 10.0556 3.11762C9.76271 3.41052 9.76271 3.88539 10.0556 4.17828L10.9395 5.06216L10.0556 5.94605C9.76271 6.23894 9.76271 6.71381 10.0556 7.00671C10.3485 7.2996 10.8234 7.2996 11.1163 7.00671L12.0001 6.12282L12.884 7.00671C13.1769 7.2996 13.6518 7.2996 13.9447 7.00671C14.2376 6.71382 14.2376 6.23894 13.9447 5.94605L13.0608 5.06216L13.9447 4.17828ZM4.01562 6.08557L11.9757 10.0778L10.0311 13.0648L2.02869 9.04239L4.01562 6.08557ZM11.9757 10.0778L19.9909 6.11169L22.0171 9.1L13.9978 13.0648L11.9757 10.0778ZM4 11.7393V16.8261C4 17.5836 4.428 18.2762 5.10557 18.615L11.1056 21.615C11.6686 21.8965 12.3314 21.8965 12.8944 21.615L18.8944 18.615C19.572 18.2762 20 17.5836 20 16.8261V11.7393L14.6708 14.4039C13.9942 14.7422 13.1716 14.5237 12.7519 13.8943L12 12.7664L11.2481 13.8943C10.8285 14.5237 10.0058 14.7422 9.32919 14.4039L4 11.7393Z" fill="#28303F"/>
</svg>
