<svg width="24" height="24" viewBox="0 0 24 24" fill="none" xmlns="http://www.w3.org/2000/svg">
<path fill-rule="evenodd" clip-rule="evenodd" d="M22 17.9999V8.403C22 8.18302 21.9819 7.96463 21.9463 7.74988H2.05367C2.01813 7.96463 2 8.18302 2 8.403V17.9999C2 20.209 3.79086 21.9999 6 21.9999H18C20.2091 21.9999 22 20.209 22 17.9999ZM2.62893 6.24988H21.3711C21.295 6.13081 21.2124 6.0154 21.1235 5.90422L19.201 3.5011C18.4419 2.55224 17.2926 1.99988 16.0775 1.99988H7.9225C6.70736 1.99988 5.55811 2.55224 4.79902 3.5011L2.87652 5.90422C2.78758 6.0154 2.70499 6.13081 2.62893 6.24988ZM15.75 13.9999C15.75 14.4141 15.4142 14.7499 15 14.7499H9C8.58579 14.7499 8.25 14.4141 8.25 13.9999C8.25 13.5857 8.58579 13.2499 9 13.2499H15C15.4142 13.2499 15.75 13.5857 15.75 13.9999Z" fill="#28303F"/>
</svg>
