<svg width="24" height="24" viewBox="0 0 24 24" fill="none" xmlns="http://www.w3.org/2000/svg">
<path fill-rule="evenodd" clip-rule="evenodd" d="M22 17.9999V8.403C22 8.18302 21.9819 7.96463 21.9463 7.74988H2.05367C2.01813 7.96463 2 8.18302 2 8.403V17.9999C2 20.209 3.79086 21.9999 6 21.9999H18C20.2091 21.9999 22 20.209 22 17.9999ZM21.1235 5.90422C21.2124 6.0154 21.295 6.13081 21.3711 6.24988H2.62893C2.70499 6.13081 2.78758 6.0154 2.87652 5.90422L4.79902 3.5011C5.55811 2.55224 6.70736 1.99988 7.9225 1.99988H16.0775C17.2926 1.99988 18.4419 2.55224 19.201 3.5011L21.1235 5.90422ZM16 13.9999C16 16.209 14.2091 17.9999 12 17.9999C9.79086 17.9999 8 16.209 8 13.9999C8 11.7907 9.79086 9.99988 12 9.99988C14.2091 9.99988 16 11.7907 16 13.9999ZM11.7772 11.8999C12.1086 11.8999 12.3772 12.1685 12.3772 12.4999V14.0708H13.3228C13.6542 14.0708 13.9228 14.3394 13.9228 14.6708C13.9228 15.0022 13.6542 15.2708 13.3228 15.2708H11.7772C11.4459 15.2708 11.1772 15.0022 11.1772 14.6708V12.4999C11.1772 12.1685 11.4459 11.8999 11.7772 11.8999Z" fill="#28303F"/>
</svg>
