<svg width="24" height="24" viewBox="0 0 24 24" fill="none" xmlns="http://www.w3.org/2000/svg">
<path fill-rule="evenodd" clip-rule="evenodd" d="M22 8.40312V18C22 20.2091 20.2091 22 18 22H6C3.79086 22 2 20.2091 2 18V8.40312C2 8.18314 2.01813 7.96475 2.05367 7.75H21.9463C21.9819 7.96475 22 8.18314 22 8.40312ZM21.3711 6.25C21.295 6.13093 21.2124 6.01552 21.1235 5.90434L19.201 3.50122C18.4419 2.55236 17.2926 2 16.0775 2H7.9225C6.70736 2 5.55811 2.55236 4.79902 3.50122L2.87652 5.90434C2.78758 6.01552 2.70499 6.13093 2.62893 6.25H21.3711ZM16 18.25C15.5858 18.25 15.25 18.5858 15.25 19C15.25 19.4142 15.5858 19.75 16 19.75H19C19.4142 19.75 19.75 19.4142 19.75 19C19.75 18.5858 19.4142 18.25 19 18.25H16ZM15.25 16C15.25 15.5858 15.5858 15.25 16 15.25H19C19.4142 15.25 19.75 15.5858 19.75 16C19.75 16.4142 19.4142 16.75 19 16.75H16C15.5858 16.75 15.25 16.4142 15.25 16Z" fill="#28303F"/>
</svg>
