<svg width="24" height="24" viewBox="0 0 24 24" fill="none" xmlns="http://www.w3.org/2000/svg">
<path fill-rule="evenodd" clip-rule="evenodd" d="M15 12.5621H16.5825C16.8455 11.724 17 10.8825 17 10.0621C17 4.53929 13.866 2.06213 10 2.06213C6.13401 2.06213 3 4.53929 3 10.0621C3 13.3432 5.47059 16.9611 7.47627 19.3575C8.51949 20.604 10.1835 20.8806 11.5022 20.1873C11.5007 20.1458 11.5 20.104 11.5 20.0621V16.0621C11.5 14.1291 13.067 12.5621 15 12.5621ZM10 10.0621C11.1046 10.0621 12 9.1667 12 8.06213C12 6.95756 11.1046 6.06213 10 6.06213C8.89543 6.06213 8 6.95756 8 8.06213C8 9.1667 8.89543 10.0621 10 10.0621ZM13 16.0621C13 14.9576 13.8954 14.0621 15 14.0621H16.0016H19C20.1046 14.0621 21 14.9576 21 16.0621V20.0621C21 21.1667 20.1046 22.0621 19 22.0621H15C13.8954 22.0621 13 21.1667 13 20.0621V18.7754V16.0621ZM18.75 16.0621C18.75 16.4763 18.4142 16.8121 18 16.8121H16C15.5858 16.8121 15.25 16.4763 15.25 16.0621C15.25 15.6479 15.5858 15.3121 16 15.3121H18C18.4142 15.3121 18.75 15.6479 18.75 16.0621Z" fill="#28303F"/>
</svg>
