<svg width="24" height="24" viewBox="0 0 24 24" fill="none" xmlns="http://www.w3.org/2000/svg">
<path fill-rule="evenodd" clip-rule="evenodd" d="M12 1.24988C12.4142 1.24988 12.75 1.58566 12.75 1.99988V2.99988C12.75 3.41409 12.4142 3.74988 12 3.74988C11.5858 3.74988 11.25 3.41409 11.25 2.99988V1.99988C11.25 1.58566 11.5858 1.24988 12 1.24988ZM12.83 6.37848L16.83 8.20304C16.94 8.25319 17.0438 8.31253 17.1409 8.37991L12 11.1481L6.85914 8.37991C6.95618 8.31253 7.06005 8.25319 7.16999 8.20304L11.17 6.37848C11.6972 6.138 12.3028 6.138 12.83 6.37848ZM6.03674 9.64071C6.01255 9.7651 6 9.8929 6 10.0227V14.9771C6 15.7604 6.4573 16.4716 7.16999 16.7967L11.17 18.6213C11.1965 18.6334 11.2231 18.6448 11.25 18.6557V12.4479L6.03674 9.64071ZM12.75 18.6557C12.7769 18.6448 12.8035 18.6334 12.83 18.6213L16.83 16.7967C17.5427 16.4716 18 15.7604 18 14.9771V10.0227C18 9.8929 17.9874 9.7651 17.9633 9.64071L12.75 12.4479V18.6557ZM12.75 20.9999C12.75 20.5857 12.4142 20.2499 12 20.2499C11.5858 20.2499 11.25 20.5857 11.25 20.9999V21.9999C11.25 22.4141 11.5858 22.7499 12 22.7499C12.4142 22.7499 12.75 22.4141 12.75 21.9999V20.9999ZM20.6014 3.39849C20.8943 3.69139 20.8943 4.16626 20.6014 4.45915L19.8943 5.16626C19.6014 5.45915 19.1265 5.45915 18.8336 5.16626C18.5407 4.87337 18.5407 4.39849 18.8336 4.1056L19.5407 3.39849C19.8336 3.1056 20.3085 3.1056 20.6014 3.39849ZM5.16632 19.8942C5.45921 19.6013 5.45921 19.1264 5.16632 18.8336C4.87342 18.5407 4.39855 18.5407 4.10566 18.8336L3.39855 19.5407C3.10566 19.8336 3.10566 20.3084 3.39855 20.6013C3.69144 20.8942 4.16632 20.8942 4.45921 20.6013L5.16632 19.8942ZM22.75 11.9999C22.75 12.4141 22.4142 12.7499 22 12.7499H21C20.5858 12.7499 20.25 12.4141 20.25 11.9999C20.25 11.5857 20.5858 11.2499 21 11.2499H22C22.4142 11.2499 22.75 11.5857 22.75 11.9999ZM3 12.7499C3.41421 12.7499 3.75 12.4141 3.75 11.9999C3.75 11.5857 3.41421 11.2499 3 11.2499H2C1.58579 11.2499 1.25 11.5857 1.25 11.9999C1.25 12.4141 1.58579 12.7499 2 12.7499H3ZM20.6013 20.6013C20.3084 20.8941 19.8335 20.8941 19.5406 20.6013L18.8335 19.8941C18.5406 19.6013 18.5406 19.1264 18.8335 18.8335C19.1264 18.5406 19.6013 18.5406 19.8942 18.8335L20.6013 19.5406C20.8942 19.8335 20.8942 20.3084 20.6013 20.6013ZM4.10554 5.16619C4.39844 5.45909 4.87331 5.45909 5.1662 5.16619C5.4591 4.8733 5.4591 4.39843 5.1662 4.10553L4.4591 3.39843C4.1662 3.10553 3.69133 3.10553 3.39844 3.39843C3.10554 3.69132 3.10554 4.16619 3.39844 4.45909L4.10554 5.16619Z" fill="#28303F"/>
</svg>
