<svg width="24" height="24" viewBox="0 0 24 24" fill="none" xmlns="http://www.w3.org/2000/svg">
<path fill-rule="evenodd" clip-rule="evenodd" d="M22 8.46526V18.0621C22 20.2713 20.2091 22.0621 18 22.0621H6C3.79086 22.0621 2 20.2713 2 18.0621V8.46526C2 8.24528 2.01813 8.02688 2.05367 7.81213H21.9463C21.9819 8.02688 22 8.24528 22 8.46526ZM21.3711 6.31213C21.295 6.19306 21.2124 6.07766 21.1235 5.96648L19.201 3.56335C18.4419 2.61449 17.2926 2.06213 16.0775 2.06213H7.9225C6.70736 2.06213 5.55811 2.61449 4.79902 3.56335L2.87652 5.96648C2.78758 6.07766 2.70499 6.19306 2.62893 6.31213H21.3711ZM15 14.8121C15.4142 14.8121 15.75 14.4763 15.75 14.0621C15.75 13.6479 15.4142 13.3121 15 13.3121H12.75V11.0621C12.75 10.6479 12.4142 10.3121 12 10.3121C11.5858 10.3121 11.25 10.6479 11.25 11.0621V13.3121H9C8.58579 13.3121 8.25 13.6479 8.25 14.0621C8.25 14.4763 8.58579 14.8121 9 14.8121H11.25V17.0621C11.25 17.4763 11.5858 17.8121 12 17.8121C12.4142 17.8121 12.75 17.4763 12.75 17.0621V14.8121H15Z" fill="#28303F"/>
</svg>
