<svg width="24" height="24" viewBox="0 0 24 24" fill="none" xmlns="http://www.w3.org/2000/svg">
<path fill-rule="evenodd" clip-rule="evenodd" d="M22 17.9999V8.403C22 8.18302 21.9819 7.96463 21.9463 7.74988H2.05367C2.01813 7.96463 2 8.18302 2 8.403V17.9999C2 20.209 3.79086 21.9999 6 21.9999H18C20.2091 21.9999 22 20.209 22 17.9999ZM21.1235 5.90422C21.2124 6.0154 21.295 6.13081 21.3711 6.24988H2.62893C2.70499 6.13081 2.78758 6.0154 2.87652 5.90422L4.79902 3.5011C5.55811 2.55224 6.70736 1.99988 7.9225 1.99988H16.0775C17.2926 1.99988 18.4419 2.55224 19.201 3.5011L21.1235 5.90422ZM9.75 13.9999C9.75 12.7572 10.7574 11.7499 12 11.7499C13.2426 11.7499 14.25 12.7572 14.25 13.9999C14.25 15.2425 13.2426 16.2499 12 16.2499C10.7574 16.2499 9.75 15.2425 9.75 13.9999ZM12 10.2499C9.92893 10.2499 8.25 11.9288 8.25 13.9999C8.25 16.0709 9.92893 17.7499 12 17.7499C12.7643 17.7499 13.4752 17.5212 14.068 17.1286L14.9697 18.0302C15.2626 18.3231 15.7374 18.3231 16.0303 18.0302C16.3232 17.7373 16.3232 17.2624 16.0303 16.9695L15.1287 16.0679C15.5213 15.4751 15.75 14.7642 15.75 13.9999C15.75 11.9288 14.0711 10.2499 12 10.2499Z" fill="#28303F"/>
</svg>
