<svg width="24" height="24" viewBox="0 0 24 24" fill="none" xmlns="http://www.w3.org/2000/svg">
<path fill-rule="evenodd" clip-rule="evenodd" d="M22 18.0621V8.46526C22 8.24528 21.9819 8.02688 21.9463 7.81213H2.05367C2.01813 8.02688 2 8.24528 2 8.46526V18.0621C2 20.2713 3.79086 22.0621 6 22.0621H18C20.2091 22.0621 22 20.2713 22 18.0621ZM21.1235 5.96648C21.2124 6.07766 21.295 6.19306 21.3711 6.31213H2.62893C2.70499 6.19306 2.78758 6.07766 2.87652 5.96648L4.79902 3.56335C5.55811 2.61449 6.70736 2.06213 7.9225 2.06213H16.0775C17.2926 2.06213 18.4419 2.61449 19.201 3.56335L21.1235 5.96648ZM15.5644 12.556C15.8372 12.2443 15.8056 11.7705 15.4939 11.4977C15.1822 11.2249 14.7083 11.2565 14.4356 11.5683L11.5657 14.8481C11.4776 14.9488 11.3258 14.9623 11.2213 14.8787L9.46852 13.4765C9.14507 13.2177 8.67311 13.2702 8.41435 13.5936C8.15559 13.9171 8.20803 14.389 8.53148 14.6478L10.2843 16.05C11.0156 16.6351 12.0778 16.5407 12.6945 15.8359L15.5644 12.556Z" fill="#28303F"/>
</svg>
