<svg width="24" height="24" viewBox="0 0 24 24" fill="none" xmlns="http://www.w3.org/2000/svg">
<path fill-rule="evenodd" clip-rule="evenodd" d="M22 17.9999V8.403C22 8.18302 21.9819 7.96463 21.9463 7.74988H2.05367C2.01813 7.96463 2 8.18302 2 8.403V17.9999C2 20.209 3.79086 21.9999 6 21.9999H18C20.2091 21.9999 22 20.209 22 17.9999ZM2.62893 6.24988H21.3711C21.295 6.13081 21.2124 6.0154 21.1235 5.90422L19.201 3.5011C18.4419 2.55224 17.2926 1.99988 16.0775 1.99988H7.9225C6.70736 1.99988 5.55811 2.55224 4.79902 3.5011L2.87652 5.90422C2.78758 6.0154 2.70499 6.13081 2.62893 6.24988ZM11.25 15.7511L10.5303 15.0269C10.2374 14.7321 9.76256 14.7321 9.46967 15.0269C9.17678 15.3216 9.17678 15.7995 9.46967 16.0942L10.7626 17.3953C11.446 18.083 12.554 18.083 13.2374 17.3953L14.5303 16.0942C14.8232 15.7995 14.8232 15.3216 14.5303 15.0269C14.2374 14.7321 13.7626 14.7321 13.4697 15.0269L12.75 15.7511V11.3327C12.75 10.9159 12.4142 10.578 12 10.578C11.5858 10.578 11.25 10.9159 11.25 11.3327V15.7511Z" fill="#28303F"/>
</svg>
