<svg width="24" height="24" viewBox="0 0 24 24" fill="none" xmlns="http://www.w3.org/2000/svg">
<path fill-rule="evenodd" clip-rule="evenodd" d="M12.75 2C12.75 1.58579 12.4142 1.25 12 1.25C11.5858 1.25 11.25 1.58579 11.25 2V3C11.25 3.41421 11.5858 3.75 12 3.75C12.4142 3.75 12.75 3.41421 12.75 3V2ZM5.1662 5.16632C4.87331 5.45921 4.39844 5.45921 4.10554 5.16632L3.39844 4.45921C3.10554 4.16632 3.10554 3.69144 3.39844 3.39855C3.69133 3.10566 4.1662 3.10566 4.4591 3.39855L5.1662 4.10566C5.4591 4.39855 5.4591 4.87342 5.1662 5.16632ZM20.6014 4.45928C20.8943 4.16638 20.8943 3.69151 20.6014 3.39862C20.3085 3.10572 19.8336 3.10572 19.5407 3.39862L18.8336 4.10572C18.5407 4.39862 18.5407 4.87349 18.8336 5.16638C19.1265 5.45928 19.6014 5.45928 19.8943 5.16638L20.6014 4.45928ZM18 16V9.75H6V16C6 17.1046 6.89543 18 8 18H16C17.1046 18 18 17.1046 18 16ZM17.4142 8.08088C17.468 8.13462 17.5183 8.1911 17.5652 8.25H6.43483C6.48168 8.1911 6.53205 8.13462 6.58579 8.08088L8.08088 6.58579C8.45595 6.21071 8.96466 6 9.49509 6H14.5049C15.0353 6 15.544 6.21071 15.9191 6.58579L17.4142 8.08088ZM10.25 12C10.25 11.5858 10.5858 11.25 11 11.25H13C13.4142 11.25 13.75 11.5858 13.75 12C13.75 12.4142 13.4142 12.75 13 12.75H11C10.5858 12.75 10.25 12.4142 10.25 12ZM12 20.25C12.4142 20.25 12.75 20.5858 12.75 21V22C12.75 22.4142 12.4142 22.75 12 22.75C11.5858 22.75 11.25 22.4142 11.25 22V21C11.25 20.5858 11.5858 20.25 12 20.25ZM5.16632 18.8337C5.45921 19.1266 5.45921 19.6014 5.16632 19.8943L4.45921 20.6014C4.16632 20.8943 3.69144 20.8943 3.39855 20.6014C3.10566 20.3085 3.10566 19.8337 3.39855 19.5408L4.10566 18.8337C4.39855 18.5408 4.87342 18.5408 5.16632 18.8337ZM22 12.75C22.4142 12.75 22.75 12.4142 22.75 12C22.75 11.5858 22.4142 11.25 22 11.25H21C20.5858 11.25 20.25 11.5858 20.25 12C20.25 12.4142 20.5858 12.75 21 12.75H22ZM3.75 12C3.75 12.4142 3.41421 12.75 3 12.75H2C1.58579 12.75 1.25 12.4142 1.25 12C1.25 11.5858 1.58579 11.25 2 11.25H3C3.41421 11.25 3.75 11.5858 3.75 12ZM19.5406 20.6014C19.8335 20.8943 20.3084 20.8943 20.6013 20.6014C20.8942 20.3085 20.8942 19.8336 20.6013 19.5407L19.8942 18.8336C19.6013 18.5407 19.1264 18.5407 18.8335 18.8336C18.5406 19.1265 18.5406 19.6014 18.8335 19.8943L19.5406 20.6014Z" fill="#28303F"/>
</svg>
