<svg width="24" height="24" viewBox="0 0 24 24" fill="none" xmlns="http://www.w3.org/2000/svg">
<path fill-rule="evenodd" clip-rule="evenodd" d="M22 18V8.40312C22 8.18314 21.9819 7.96475 21.9463 7.75H2.05367C2.01813 7.96475 2 8.18314 2 8.40312V18C2 20.2091 3.79086 22 6 22H18C20.2091 22 22 20.2091 22 18ZM2.62893 6.25H21.3711C21.295 6.13093 21.2124 6.01552 21.1235 5.90434L19.201 3.50122C18.4419 2.55236 17.2926 2 16.0775 2H7.9225C6.70736 2 5.55811 2.55236 4.79902 3.50122L2.87652 5.90434C2.78758 6.01552 2.70499 6.13093 2.62893 6.25ZM9.25 10C9.25 9.58579 9.58579 9.25 10 9.25H14C14.4142 9.25 14.75 9.58579 14.75 10C14.75 10.4142 14.4142 10.75 14 10.75H10C9.58579 10.75 9.25 10.4142 9.25 10Z" fill="#28303F"/>
</svg>
