<svg width="24" height="24" viewBox="0 0 24 24" fill="none" xmlns="http://www.w3.org/2000/svg">
<path fill-rule="evenodd" clip-rule="evenodd" d="M22 17.9999V8.403C22 8.18302 21.9819 7.96463 21.9463 7.74988H2.05367C2.01813 7.96463 2 8.18302 2 8.403V17.9999C2 20.209 3.79086 21.9999 6 21.9999H18C20.2091 21.9999 22 20.209 22 17.9999ZM21.1235 5.90422C21.2124 6.0154 21.295 6.13081 21.3711 6.24988H2.62893C2.70499 6.13081 2.78758 6.0154 2.87652 5.90422L4.79902 3.5011C5.55811 2.55224 6.70736 1.99988 7.9225 1.99988H16.0775C17.2926 1.99988 18.4419 2.55224 19.201 3.5011L21.1235 5.90422ZM13.4697 13.5927L12.75 12.8685V17.2869C12.75 17.7037 12.4142 18.0416 12 18.0416C11.5858 18.0416 11.25 17.7037 11.25 17.2869V12.8685L10.5303 13.5927C10.2374 13.8875 9.76256 13.8875 9.46967 13.5927C9.17678 13.298 9.17678 12.8201 9.46967 12.5254L10.7626 11.2243C11.446 10.5365 12.554 10.5365 13.2374 11.2243L14.5303 12.5254C14.8232 12.8201 14.8232 13.298 14.5303 13.5927C14.2374 13.8875 13.7626 13.8875 13.4697 13.5927Z" fill="#28303F"/>
</svg>
