<svg width="24" height="24" viewBox="0 0 24 24" fill="none" xmlns="http://www.w3.org/2000/svg">
<path fill-rule="evenodd" clip-rule="evenodd" d="M22 8.403V17.9999C22 20.209 20.2091 21.9999 18 21.9999H6C3.79086 21.9999 2 20.209 2 17.9999V8.403C2 8.18302 2.01813 7.96463 2.05367 7.74988H21.9463C21.9819 7.96463 22 8.18302 22 8.403ZM21.3711 6.24988C21.295 6.13081 21.2124 6.0154 21.1235 5.90422L19.201 3.5011C18.4419 2.55224 17.2926 1.99988 16.0775 1.99988H7.9225C6.70736 1.99988 5.55811 2.55224 4.79902 3.5011L2.87652 5.90422C2.78758 6.0154 2.70499 6.13081 2.62893 6.24988H21.3711ZM9.34833 15.5909C9.05544 15.8838 9.05544 16.3587 9.34833 16.6515C9.64123 16.9444 10.1161 16.9444 10.409 16.6515L12 15.0605L13.591 16.6515C13.8839 16.9444 14.3587 16.9444 14.6516 16.6515C14.9445 16.3586 14.9445 15.8837 14.6516 15.5909L13.0607 13.9999L14.6516 12.4089C14.9445 12.116 14.9445 11.6411 14.6516 11.3482C14.3587 11.0554 13.8839 11.0554 13.591 11.3482L12 12.9392L10.409 11.3482C10.1161 11.0553 9.64123 11.0553 9.34833 11.3482C9.05544 11.6411 9.05544 12.116 9.34833 12.4089L10.9393 13.9999L9.34833 15.5909Z" fill="#28303F"/>
</svg>
