<svg width="24" height="24" viewBox="0 0 24 24" fill="none" xmlns="http://www.w3.org/2000/svg">
<path fill-rule="evenodd" clip-rule="evenodd" d="M13.6246 2.35827L18.6246 4.66762C19.2865 4.97335 19.8406 5.4516 20.2467 6.03813L17.0166 7.65319L8.75244 3.10789L10.3754 2.35827C11.4097 1.88058 12.5903 1.88058 13.6246 2.35827ZM7.06061 3.88929L5.37545 4.66762C4.71349 4.97336 4.15938 5.4516 3.75329 6.03813L12 10.1615L15.3862 8.46838L7.06061 3.88929ZM3.13242 7.40475C3.04565 7.74617 3 8.10239 3 8.46617V15.5338C3 17.1766 3.93094 18.6652 5.37545 19.3324L10.3754 21.6417C10.658 21.7722 10.9515 21.8671 11.25 21.9263V11.4635L3.13242 7.40475ZM12.75 21.9263C13.0485 21.8671 13.342 21.7722 13.6246 21.6417L16.25 20.4291V9.71354L12.75 11.4635V21.9263ZM17.75 19.7363L18.6246 19.3324C20.0691 18.6652 21 17.1766 21 15.5338V8.46617C21 8.10239 20.9543 7.74617 20.8676 7.40475L17.75 8.96354V19.7363Z" fill="#28303F"/>
</svg>
