<svg width="24" height="24" viewBox="0 0 24 24" fill="none" xmlns="http://www.w3.org/2000/svg">
<path fill-rule="evenodd" clip-rule="evenodd" d="M22 8.40312V18C22 20.2091 20.2091 22 18 22H6C3.79086 22 2 20.2091 2 18V8.40312C2 8.18314 2.01813 7.96475 2.05367 7.75H21.9463C21.9819 7.96475 22 8.18314 22 8.40312ZM21.3711 6.25C21.295 6.13093 21.2124 6.01552 21.1235 5.90434L19.201 3.50122C18.4419 2.55236 17.2926 2 16.0775 2H7.9225C6.70736 2 5.55811 2.55236 4.79902 3.50122L2.87652 5.90434C2.78758 6.01552 2.70499 6.13093 2.62893 6.25H21.3711ZM5 9.25C4.58579 9.25 4.25 9.58579 4.25 10C4.25 10.4142 4.58579 10.75 5 10.75H8C8.41421 10.75 8.75 10.4142 8.75 10C8.75 9.58579 8.41421 9.25 8 9.25H5ZM4.25 13C4.25 12.5858 4.58579 12.25 5 12.25H8C8.41421 12.25 8.75 12.5858 8.75 13C8.75 13.4142 8.41421 13.75 8 13.75H5C4.58579 13.75 4.25 13.4142 4.25 13Z" fill="#28303F"/>
</svg>
