<svg width="24" height="24" viewBox="0 0 24 24" fill="none" xmlns="http://www.w3.org/2000/svg">
<path fill-rule="evenodd" clip-rule="evenodd" d="M22 8.46526V18.0621C22 20.2713 20.2091 22.0621 18 22.0621H6C3.79086 22.0621 2 20.2713 2 18.0621V8.46526C2 8.24528 2.01813 8.02688 2.05367 7.81213H21.9463C21.9819 8.02688 22 8.24528 22 8.46526ZM21.3711 6.31213C21.295 6.19306 21.2124 6.07766 21.1235 5.96648L19.201 3.56335C18.4419 2.61449 17.2926 2.06213 16.0775 2.06213H7.9225C6.70736 2.06213 5.55811 2.61449 4.79902 3.56335L2.87652 5.96648C2.78758 6.07766 2.70499 6.19306 2.62893 6.31213H21.3711ZM8.25 13.4586L7.53033 14.1783C7.23744 14.4711 6.76256 14.4711 6.46967 14.1783C6.17678 13.8854 6.17678 13.4105 6.46967 13.1176L7.76256 11.8247C8.44598 11.1413 9.55402 11.1413 10.2374 11.8247L11.5303 13.1176C11.8232 13.4105 11.8232 13.8854 11.5303 14.1783C11.2374 14.4711 10.7626 14.4711 10.4697 14.1783L9.75 13.4586V17.0621C9.75 17.4763 9.41421 17.8121 9 17.8121C8.58579 17.8121 8.25 17.4763 8.25 17.0621V13.4586ZM13.5303 14.946L14.25 15.6657V12.0621C14.25 11.6479 14.5858 11.3121 15 11.3121C15.4142 11.3121 15.75 11.6479 15.75 12.0621V15.6657L16.4697 14.946C16.7626 14.6531 17.2374 14.6531 17.5303 14.946C17.8232 15.2389 17.8232 15.7138 17.5303 16.0067L16.2374 17.2996C15.554 17.983 14.446 17.983 13.7626 17.2996L12.4697 16.0067C12.1768 15.7138 12.1768 15.2389 12.4697 14.946C12.7626 14.6531 13.2374 14.6531 13.5303 14.946Z" fill="#28303F"/>
</svg>
