<svg width="24" height="25" viewBox="0 0 24 25" fill="none" xmlns="http://www.w3.org/2000/svg">
<path fill-rule="evenodd" clip-rule="evenodd" d="M7.99891 2.75C7.71119 2.75 7.44883 2.9146 7.32363 3.17365C7.19844 3.4327 7.23247 3.74054 7.41124 3.96598L8.9971 5.96598C9.25445 6.29055 9.72619 6.34503 10.0508 6.08767C10.3753 5.83032 10.4298 5.35858 10.1724 5.03402L9.55077 4.25L14.499 4.25C14.9132 4.25 15.249 4.58579 15.249 5C15.249 5.41421 14.9132 5.75 14.499 5.75H12.999C12.5848 5.75 12.249 6.08579 12.249 6.5C12.249 6.91421 12.5848 7.25 12.999 7.25H14.499C15.7416 7.25 16.749 6.24264 16.749 5C16.749 3.75736 15.7416 2.75 14.499 2.75H7.99891ZM2.21426 11.3626L3.76301 9.36843C3.95245 9.12451 4.24396 8.98181 4.5528 8.98181H11.9966L9.2992 12.5762C9.11034 12.8279 8.81403 12.976 8.49938 12.976H3.00405C2.17223 12.976 1.70404 12.0195 2.21426 11.3626ZM11.9966 8.98181H19.4437C19.7524 8.98181 20.0437 9.12436 20.2332 9.36806L21.7834 11.3622C22.2941 12.0191 21.8259 12.976 20.9939 12.976H15.5828C15.2737 12.976 14.9819 12.833 14.7925 12.5886L11.9966 8.98181ZM3.99902 14.3959H8.1234C9.2963 14.3959 10.3912 13.8196 11.0397 12.8609L12.0059 11.4326L12.9721 12.8609C13.6206 13.8196 14.7155 14.3959 15.8884 14.3959H19.999V19.8071C19.999 21.4324 18.6559 22.75 16.999 22.75H6.99902C5.34217 22.75 3.99902 21.4324 3.99902 19.8071V14.3959Z" fill="#28303F"/>
</svg>
