<svg width="24" height="24" viewBox="0 0 24 24" fill="none" xmlns="http://www.w3.org/2000/svg">
<path fill-rule="evenodd" clip-rule="evenodd" d="M2.75 12C2.75 6.89137 6.89137 2.75 12 2.75C15.0258 2.75 17.7122 4.20201 19.4011 6.45043C19.5686 6.67343 19.8459 6.78506 20.1212 6.74026C20.3965 6.69546 20.6242 6.50161 20.7123 6.23701L21.7116 3.23701C21.8425 2.84403 21.63 2.41933 21.237 2.28844C20.844 2.15754 20.4193 2.37 20.2884 2.76299L19.7077 4.50646C17.7553 2.49869 15.0234 1.25 12 1.25C6.06294 1.25 1.25 6.06294 1.25 12C1.25 12.4142 1.58579 12.75 2 12.75C2.41421 12.75 2.75 12.4142 2.75 12ZM22.75 12C22.75 11.5858 22.4142 11.25 22 11.25C21.5858 11.25 21.25 11.5858 21.25 12C21.25 17.1086 17.1086 21.25 12 21.25C8.97422 21.25 6.28779 19.798 4.59894 17.5496C4.43145 17.3266 4.15405 17.2149 3.87878 17.2597C3.60351 17.3045 3.37584 17.4984 3.2877 17.763L2.28844 20.763C2.15754 21.156 2.37 21.5807 2.76299 21.7116C3.15597 21.8425 3.58067 21.63 3.71156 21.237L4.2923 19.4935C6.24475 21.5013 8.97663 22.75 12 22.75C17.9371 22.75 22.75 17.9371 22.75 12ZM7 9C7 7.89543 7.89543 7 9 7H15C16.1046 7 17 7.89543 17 9V15C17 16.1046 16.1046 17 15 17H9C7.89543 17 7 16.1046 7 15V9ZM13.75 10C13.75 10.4142 13.4142 10.75 13 10.75H11C10.5858 10.75 10.25 10.4142 10.25 10C10.25 9.58579 10.5858 9.25 11 9.25H13C13.4142 9.25 13.75 9.58579 13.75 10Z" fill="#28303F"/>
</svg>
