<svg width="24" height="25" viewBox="0 0 24 25" fill="none" xmlns="http://www.w3.org/2000/svg">
<path fill-rule="evenodd" clip-rule="evenodd" d="M12.7523 5.39362V7.18081C12.7523 7.59854 12.4208 7.93717 12.0118 7.93717C11.6029 7.93717 11.2713 7.59854 11.2713 7.18081V5.3264L10.6168 5.94675C10.3086 6.23893 9.82487 6.21306 9.54817 5.88959C9.28069 5.57691 9.30771 5.103 9.60891 4.82414L11.6602 2.92503C11.8505 2.74887 12.1405 2.74859 12.3311 2.92439L14.3856 4.81934C14.6906 5.10071 14.7184 5.57999 14.448 5.89614C14.1726 6.21803 13.6931 6.24879 13.3805 5.96461L12.7523 5.39362ZM2.21426 11.3626L3.76301 9.36843C3.95245 9.12451 4.24396 8.98181 4.5528 8.98181H11.9966L9.2992 12.5762C9.11034 12.8279 8.81403 12.976 8.49938 12.976H3.00405C2.17223 12.976 1.70404 12.0195 2.21426 11.3626ZM11.9966 8.98181H19.4437C19.7524 8.98181 20.0437 9.12436 20.2332 9.36806L21.7834 11.3622C22.2941 12.0191 21.8259 12.976 20.9939 12.976H15.5828C15.2737 12.976 14.9819 12.833 14.7925 12.5886L11.9966 8.98181ZM8.1234 14.3959H3.99902V19.8071C3.99902 21.4324 5.34217 22.75 6.99902 22.75H16.999C18.6559 22.75 19.999 21.4324 19.999 19.8071V14.3959H15.8884C14.7155 14.3959 13.6206 13.8196 12.9721 12.8609L12.0059 11.4326L11.0397 12.8609C10.3912 13.8196 9.2963 14.3959 8.1234 14.3959Z" fill="#28303F"/>
</svg>
