<svg width="24" height="24" viewBox="0 0 24 24" fill="none" xmlns="http://www.w3.org/2000/svg">
<path fill-rule="evenodd" clip-rule="evenodd" d="M19.6493 9.33611C20.5314 8.37604 22 6.54564 22 5C22 2.79086 20.6569 2 19 2C17.3431 2 16 2.79086 16 5C16 6.54564 17.4686 8.37604 18.3507 9.33611C18.7054 9.72218 19.2946 9.72218 19.6493 9.33611ZM19 6C19.5523 6 20 5.55228 20 5C20 4.44772 19.5523 4 19 4C18.4477 4 18 4.44772 18 5C18 5.55228 18.4477 6 19 6ZM9 12C7.89543 12 7 12.8954 7 14V20C7 21.1046 7.89543 22 9 22H15C16.1046 22 17 21.1046 17 20V14C17 12.8954 16.1046 12 15 12H9ZM11 13.25C10.5858 13.25 10.25 13.5858 10.25 14C10.25 14.4142 10.5858 14.75 11 14.75H13C13.4142 14.75 13.75 14.4142 13.75 14C13.75 13.5858 13.4142 13.25 13 13.25H11ZM2.75 9C2.75 8.30964 3.30964 7.75 4 7.75H14C14.4142 7.75 14.75 7.41421 14.75 7C14.75 6.58579 14.4142 6.25 14 6.25H4C2.48122 6.25 1.25 7.48122 1.25 9V15C1.25 16.5188 2.48122 17.75 4 17.75H4.84615C5.26037 17.75 5.59615 17.4142 5.59615 17C5.59615 16.5858 5.26037 16.25 4.84615 16.25H4C3.30964 16.25 2.75 15.6904 2.75 15V9Z" fill="#28303F"/>
</svg>
