<svg width="24" height="24" viewBox="0 0 24 24" fill="none" xmlns="http://www.w3.org/2000/svg">
<path fill-rule="evenodd" clip-rule="evenodd" d="M3.70615 6.80552C2.63684 7.55403 2 8.77719 2 10.0824V19.9998C2 21.1044 2.89543 21.9998 4 21.9998H5.25V18.9998V14.9998V12.9998C5.25 11.481 6.48122 10.2498 8 10.2498H16C17.5188 10.2498 18.75 11.481 18.75 12.9998V14.9998V18.9998V21.9998H20C21.1046 21.9998 22 21.1044 22 19.9998V10.0824C22 8.77719 21.3632 7.55403 20.2938 6.80552L14.2938 2.60552C12.9166 1.64142 11.0834 1.64142 9.70615 2.60552L3.70615 6.80552ZM17.25 21.9998V19.7498H6.75V21.9998H17.25ZM6.75 18.2498V15.7498H17.25V18.2498H6.75ZM6.75 14.2498H17.25V12.9998C17.25 12.3095 16.6904 11.7498 16 11.7498H8C7.30964 11.7498 6.75 12.3095 6.75 12.9998V14.2498Z" fill="#28303F"/>
</svg>
