<svg width="24" height="24" viewBox="0 0 24 24" fill="none" xmlns="http://www.w3.org/2000/svg">
<path d="M16.9998 11C16.4546 11 15.9297 11.0873 15.4384 11.2486C14.7392 9.61449 13.436 8.30031 11.8096 7.58672C12.5399 6.62272 13.6972 6 14.9998 6C17.209 6 18.9998 7.79086 18.9998 10C18.9998 10.4642 18.9208 10.9099 18.7754 11.3244C18.2236 11.1148 17.6251 11 16.9998 11Z" fill="#28303F"/>
<path fill-rule="evenodd" clip-rule="evenodd" d="M15 2.25C15.4142 2.25 15.75 2.58579 15.75 3V4C15.75 4.41421 15.4142 4.75 15 4.75C14.5858 4.75 14.25 4.41421 14.25 4V3C14.25 2.58579 14.5858 2.25 15 2.25Z" fill="#28303F"/>
<path fill-rule="evenodd" clip-rule="evenodd" d="M20.48 4.52008C20.7729 4.81297 20.7729 5.28784 20.48 5.58074L19.7729 6.28784C19.48 6.58074 19.0052 6.58074 18.7123 6.28784C18.4194 5.99495 18.4194 5.52008 18.7123 5.22718L19.4194 4.52008C19.7123 4.22718 20.1871 4.22718 20.48 4.52008Z" fill="#28303F"/>
<path fill-rule="evenodd" clip-rule="evenodd" d="M22.75 10C22.75 10.4142 22.4142 10.75 22 10.75L21 10.75C20.5858 10.75 20.25 10.4142 20.25 10C20.25 9.58579 20.5858 9.25 21 9.25L22 9.25C22.4142 9.25 22.75 9.58579 22.75 10Z" fill="#28303F"/>
<path opacity="0.4" d="M2 14C2 17.866 5.13401 21 9 21H17C19.7614 21 22 18.7614 22 16C22 13.8639 20.6604 12.0406 18.7755 11.3244C18.2238 11.1148 17.6253 11 17 11C16.4547 11 15.9299 11.0873 15.4386 11.2486C14.7393 9.61449 13.4362 8.30031 11.8097 7.58672C10.9497 7.2094 9.99931 7 9 7C5.13401 7 2 10.134 2 14Z" fill="#28303F"/>
</svg>
