<svg width="24" height="24" viewBox="0 0 24 24" fill="none" xmlns="http://www.w3.org/2000/svg">
<path opacity="0.4" d="M2 10C2 13.866 5.13401 17 9 17H17C19.7614 17 22 14.7614 22 12C22 9.23858 19.7614 7 17 7C16.4547 7 15.9299 7.08728 15.4386 7.24864C14.3696 4.75042 11.8892 3 9 3C5.13401 3 2 6.13401 2 10Z" fill="#28303F"/>
<path fill-rule="evenodd" clip-rule="evenodd" d="M12.2787 15.3038C12.6633 15.4577 12.8504 15.8942 12.6965 16.2787L10.6965 21.2787C10.5427 21.6633 10.1062 21.8504 9.72162 21.6966C9.33703 21.5427 9.14997 21.1062 9.30381 20.7217L11.3038 15.7217C11.4576 15.3371 11.8941 15.15 12.2787 15.3038ZM8.33557 15.3294C8.70606 15.5146 8.85623 15.9651 8.67098 16.3356L7.67098 18.3356C7.48574 18.7061 7.03524 18.8563 6.66475 18.671C6.29427 18.4858 6.1441 18.0353 6.32934 17.6648L7.32934 15.6648C7.51459 15.2943 7.96509 15.1441 8.33557 15.3294ZM16.3356 15.3294C16.7061 15.5146 16.8562 15.9651 16.671 16.3356L15.671 18.3356C15.4857 18.7061 15.0352 18.8563 14.6648 18.671C14.2943 18.4858 14.1441 18.0353 14.3293 17.6648L15.3293 15.6648C15.5146 15.2943 15.9651 15.1441 16.3356 15.3294Z" fill="#28303F"/>
</svg>
