<svg width="24" height="24" viewBox="0 0 24 24" fill="none" xmlns="http://www.w3.org/2000/svg">
<path opacity="0.4" d="M2 9C2 12.866 5.13401 16 9 16H17C19.7614 16 22 13.7614 22 11C22 8.23858 19.7614 6 17 6C16.4547 6 15.9299 6.08728 15.4386 6.24864C14.3696 3.75042 11.8892 2 9 2C5.13401 2 2 5.13401 2 9Z" fill="#28303F"/>
<path d="M8.5 17.5C8.5 18.6046 7.82843 19 7 19C6.17157 19 5.5 18.6046 5.5 17.5C5.5 16.3954 7 15 7 15C7 15 8.5 16.3954 8.5 17.5Z" fill="#28303F"/>
<path d="M18.5 17.5C18.5 18.6046 17.8284 19 17 19C16.1716 19 15.5 18.6046 15.5 17.5C15.5 16.3954 17 15 17 15C17 15 18.5 16.3954 18.5 17.5Z" fill="#28303F"/>
<path d="M13.5 20.5C13.5 21.6046 12.8284 22 12 22C11.1716 22 10.5 21.6046 10.5 20.5C10.5 19.3954 12 18 12 18C12 18 13.5 19.3954 13.5 20.5Z" fill="#28303F"/>
</svg>
