<svg width="24" height="24" viewBox="0 0 24 24" fill="none" xmlns="http://www.w3.org/2000/svg">
<path d="M17 11C16.4547 11 15.9299 11.0873 15.4386 11.2486C14.7677 9.68071 13.5408 8.40734 12.0059 7.67641C12.1186 5.32973 13.8491 3.40726 16.1064 3C16.0368 3.2955 16 3.60364 16 3.92038C16 6.12952 17.7909 7.92038 20 7.92038C20.7176 7.92038 21.391 7.73142 21.9733 7.40055C21.991 7.57142 22 7.74484 22 7.92038C22 9.57998 21.1914 11.0507 19.9468 11.9602C19.1204 11.3564 18.1018 11 17 11Z" fill="#28303F"/>
<path opacity="0.4" d="M2 14C2 17.866 5.13401 21 9 21H17C19.7614 21 22 18.7614 22 16C22 14.3404 21.1914 12.8696 19.9468 11.9602C19.1204 11.3564 18.1018 11 17 11C16.4547 11 15.9299 11.0873 15.4386 11.2486C14.7677 9.68071 13.5408 8.40735 12.0058 7.67641C11.0951 7.24273 10.0759 7 9 7C5.13401 7 2 10.134 2 14Z" fill="#28303F"/>
</svg>
