<svg width="24" height="24" viewBox="0 0 24 24" fill="none" xmlns="http://www.w3.org/2000/svg">
<path d="M17 10C16.4547 10 15.9299 10.0873 15.4386 10.2486C14.7677 8.68071 13.5408 7.40734 12.0059 6.67641C12.1186 4.32973 13.8491 2.40726 16.1064 2C16.0368 2.2955 16 2.60364 16 2.92038C16 5.12952 17.7909 6.92038 20 6.92038C20.7176 6.92038 21.391 6.73142 21.9733 6.40055C21.991 6.57142 22 6.74484 22 6.92038C22 8.57998 21.1914 10.0507 19.9468 10.9602C19.1204 10.3564 18.1018 10 17 10Z" fill="#28303F"/>
<path opacity="0.4" d="M2 13C2 16.866 5.13401 20 9 20H17C19.7614 20 22 17.7614 22 15C22 13.3404 21.1914 11.8696 19.9468 10.9602C19.1204 10.3564 18.1018 10 17 10C16.4547 10 15.9299 10.0873 15.4386 10.2486C14.7677 8.68071 13.5408 7.40735 12.0058 6.67641C11.0951 6.24273 10.0759 6 9 6C5.13401 6 2 9.13401 2 13Z" fill="#28303F"/>
<path d="M11 20.5C11 21.6046 10.3284 22 9.5 22C8.67157 22 8 21.6046 8 20.5C8 19.3954 9.5 18 9.5 18C9.5 18 11 19.3954 11 20.5Z" fill="#28303F"/>
<path d="M17 20.5C17 21.6046 16.3284 22 15.5 22C14.6716 22 14 21.6046 14 20.5C14 19.3954 15.5 18 15.5 18C15.5 18 17 19.3954 17 20.5Z" fill="#28303F"/>
</svg>
