<svg width="24" height="24" viewBox="0 0 24 24" fill="none" xmlns="http://www.w3.org/2000/svg">
<path d="M14 13.1429C13.5638 13.1429 13.1439 13.2114 12.7509 13.3382C11.8957 11.3753 9.91139 10 7.6 10C7.04515 10 6.50914 10.0793 6.00307 10.2269C6.00103 10.1753 6 10.1235 6 10.0714C6 7.90174 7.79086 6.14286 10 6.14286C10.4362 6.14286 10.8561 6.21144 11.2491 6.33821C12.1043 4.37533 14.0886 3 16.4 3C19.4928 3 22 5.46243 22 8.5C22 11.507 19.5431 13.9503 16.4933 13.9993C15.8095 13.4633 14.9429 13.1429 14 13.1429Z" fill="#28303F"/>
<path opacity="0.4" d="M2 15.5C2 18.5376 4.50721 21 7.6 21H14C16.2091 21 18 19.2411 18 17.0714C18 15.8278 17.4116 14.7191 16.4933 13.9993C15.8095 13.4633 14.9429 13.1429 14 13.1429C13.5638 13.1429 13.1439 13.2114 12.7509 13.3382C11.8957 11.3753 9.91139 10 7.6 10C7.04515 10 6.50914 10.0793 6.00307 10.2269C3.6883 10.902 2 13.0074 2 15.5Z" fill="#28303F"/>
</svg>
