<svg width="24" height="24" viewBox="0 0 24 24" fill="none" xmlns="http://www.w3.org/2000/svg">
<path opacity="0.4" d="M2 11C2 14.866 5.13401 18 9 18H17C19.7614 18 22 15.7614 22 13C22 10.2386 19.7614 8 17 8C16.4547 8 15.9299 8.08728 15.4386 8.24864C14.3696 5.75042 11.8892 4 9 4C5.13401 4 2 7.13401 2 11Z" fill="#28303F"/>
<path d="M10 18.5C10 19.6046 9.32843 20 8.5 20C7.67157 20 7 19.6046 7 18.5C7 17.3954 8.5 16 8.5 16C8.5 16 10 17.3954 10 18.5Z" fill="#28303F"/>
<path d="M17 18.5C17 19.6046 16.3284 20 15.5 20C14.6716 20 14 19.6046 14 18.5C14 17.3954 15.5 16 15.5 16C15.5 16 17 17.3954 17 18.5Z" fill="#28303F"/>
</svg>
