<svg width="24" height="24" viewBox="0 0 24 24" fill="none" xmlns="http://www.w3.org/2000/svg">
<path fill-rule="evenodd" clip-rule="evenodd" d="M21.0005 11C21.6282 10.1643 22.0002 9.12561 22.0002 8C22.0002 5.23858 19.7616 3 17.0002 3C14.9844 3 13.2472 4.19285 12.4561 5.91117C13.7803 6.6644 14.8348 7.83717 15.4387 9.24864C15.93 9.08728 16.4549 9 17.0002 9C18.636 9 20.0883 9.78555 21.0005 11Z" fill="#28303F"/>
<path opacity="0.4" d="M2 12C2 15.866 5.13401 19 9 19H17C19.7614 19 22 16.7614 22 14C22 12.8744 21.6281 11.8357 21.0004 11C20.0882 9.78555 18.6358 9 17 9C16.4547 9 15.9299 9.08728 15.4386 9.24864C14.8346 7.83717 13.7801 6.6644 12.4559 5.91117C11.4363 5.33124 10.2568 5 9 5C5.13401 5 2 8.13401 2 12Z" fill="#28303F"/>
<path d="M12.75 21C12.75 21.4142 12.4142 21.75 12 21.75C11.5858 21.75 11.25 21.4142 11.25 21C11.25 20.5858 11.5858 20.25 12 20.25C12.4142 20.25 12.75 20.5858 12.75 21Z" fill="#28303F"/>
<path d="M12.75 18C12.75 18.4142 12.4142 18.75 12 18.75C11.5858 18.75 11.25 18.4142 11.25 18C11.25 17.5858 11.5858 17.25 12 17.25C12.4142 17.25 12.75 17.5858 12.75 18Z" fill="#28303F"/>
<path d="M9.5 19C9.5 19.4142 9.16421 19.75 8.75 19.75C8.33579 19.75 8 19.4142 8 19C8 18.5858 8.33579 18.25 8.75 18.25C9.16421 18.25 9.5 18.5858 9.5 19Z" fill="#28303F"/>
<path d="M16 19C16 19.4142 15.6642 19.75 15.25 19.75C14.8358 19.75 14.5 19.4142 14.5 19C14.5 18.5858 14.8358 18.25 15.25 18.25C15.6642 18.25 16 18.5858 16 19Z" fill="#28303F"/>
<path d="M9.5 16C9.5 16.4142 9.16421 16.75 8.75 16.75C8.33579 16.75 8 16.4142 8 16C8 15.5858 8.33579 15.25 8.75 15.25C9.16421 15.25 9.5 15.5858 9.5 16Z" fill="#28303F"/>
<path d="M16 16C16 16.4142 15.6642 16.75 15.25 16.75C14.8358 16.75 14.5 16.4142 14.5 16C14.5 15.5858 14.8358 15.25 15.25 15.25C15.6642 15.25 16 15.5858 16 16Z" fill="#28303F"/>
</svg>
