<svg width="24" height="24" viewBox="0 0 24 24" fill="none" xmlns="http://www.w3.org/2000/svg">
<path opacity="0.4" d="M2 11C2 14.866 5.13401 18 9 18H17C19.7614 18 22 15.7614 22 13C22 11.8744 21.6281 10.8357 21.0004 10C20.0882 8.78555 18.6358 8 17 8C16.4547 8 15.9299 8.08728 15.4386 8.24864C14.8346 6.83717 13.7801 5.6644 12.4559 4.91117C11.4363 4.33124 10.2568 4 9 4C5.13401 4 2 7.13401 2 11Z" fill="#28303F"/>
<path fill-rule="evenodd" clip-rule="evenodd" d="M21.0005 10C21.6282 9.16434 22.0002 8.12561 22.0002 7C22.0002 4.23858 19.7616 2 17.0002 2C14.9844 2 13.2472 3.19285 12.4561 4.91117C13.7803 5.6644 14.8348 6.83717 15.4387 8.24864C15.93 8.08728 16.4549 8 17.0002 8C18.636 8 20.0883 8.78555 21.0005 10Z" fill="#28303F"/>
<path d="M17.5 20.5C17.5 21.6046 16.8284 22 16 22C15.1716 22 14.5 21.6046 14.5 20.5C14.5 19.3954 16 18 16 18C16 18 17.5 19.3954 17.5 20.5Z" fill="#28303F"/>
<path d="M4 18L9 12V16H12L7 22V18H4Z" fill="#28303F"/>
</svg>
