<svg width="24" height="24" viewBox="0 0 24 24" fill="none" xmlns="http://www.w3.org/2000/svg">
<path opacity="0.4" d="M2 13C2 16.866 5.13401 20 9 20H17C19.7614 20 22 17.7614 22 15C22 13.8744 21.6281 12.8357 21.0004 12C20.0882 10.7856 18.6358 10 17 10C16.4547 10 15.9299 10.0873 15.4386 10.2486C14.8346 8.83717 13.7801 7.6644 12.4559 6.91117C11.4363 6.33124 10.2568 6 9 6C5.13401 6 2 9.13401 2 13Z" fill="#28303F"/>
<path fill-rule="evenodd" clip-rule="evenodd" d="M21.0003 12C21.628 11.1643 21.9999 10.1256 21.9999 9C21.9999 6.23858 19.7613 4 16.9999 4C14.9842 4 13.247 5.19285 12.4558 6.91117C13.78 7.6644 14.8345 8.83717 15.4385 10.2486C15.9298 10.0873 16.4547 10 16.9999 10C18.6357 10 20.0881 10.7856 21.0003 12Z" fill="#28303F"/>
</svg>
