<svg width="24" height="24" viewBox="0 0 24 24" fill="none" xmlns="http://www.w3.org/2000/svg">
<path d="M17.0001 10C16.4548 10 15.9299 10.0873 15.4387 10.2486C14.7394 8.61449 13.4363 7.30031 11.8098 6.58672C12.5402 5.62272 13.6974 5 15.0001 5C17.2092 5 19.0001 6.79086 19.0001 9C19.0001 9.46419 18.921 9.90991 18.7756 10.3244C18.2239 10.1148 17.6254 10 17.0001 10Z" fill="#28303F"/>
<path fill-rule="evenodd" clip-rule="evenodd" d="M15 1.25C15.4142 1.25 15.75 1.58579 15.75 2V3C15.75 3.41421 15.4142 3.75 15 3.75C14.5858 3.75 14.25 3.41421 14.25 3V2C14.25 1.58579 14.5858 1.25 15 1.25Z" fill="#28303F"/>
<path fill-rule="evenodd" clip-rule="evenodd" d="M20.48 3.52008C20.7729 3.81297 20.7729 4.28784 20.48 4.58074L19.7729 5.28784C19.48 5.58074 19.0052 5.58074 18.7123 5.28784C18.4194 4.99495 18.4194 4.52008 18.7123 4.22718L19.4194 3.52008C19.7123 3.22718 20.1871 3.22718 20.48 3.52008Z" fill="#28303F"/>
<path fill-rule="evenodd" clip-rule="evenodd" d="M22.75 9C22.75 9.41421 22.4142 9.75 22 9.75L21 9.75C20.5858 9.75 20.25 9.41421 20.25 9C20.25 8.58579 20.5858 8.25 21 8.25L22 8.25C22.4142 8.25 22.75 8.58579 22.75 9Z" fill="#28303F"/>
<path opacity="0.4" d="M2 13C2 16.866 5.13401 20 9 20H17C19.7614 20 22 17.7614 22 15C22 12.8639 20.6604 11.0406 18.7755 10.3244C18.2238 10.1148 17.6253 10 17 10C16.4547 10 15.9299 10.0873 15.4386 10.2486C14.7393 8.61449 13.4362 7.30031 11.8097 6.58672C10.9497 6.2094 9.99931 6 9 6C5.13401 6 2 9.13401 2 13Z" fill="#28303F"/>
<path d="M12.75 22C12.75 22.4142 12.4142 22.75 12 22.75C11.5858 22.75 11.25 22.4142 11.25 22C11.25 21.5858 11.5858 21.25 12 21.25C12.4142 21.25 12.75 21.5858 12.75 22Z" fill="#28303F"/>
<path d="M12.75 19C12.75 19.4142 12.4142 19.75 12 19.75C11.5858 19.75 11.25 19.4142 11.25 19C11.25 18.5858 11.5858 18.25 12 18.25C12.4142 18.25 12.75 18.5858 12.75 19Z" fill="#28303F"/>
<path d="M9.5 20C9.5 20.4142 9.16421 20.75 8.75 20.75C8.33579 20.75 8 20.4142 8 20C8 19.5858 8.33579 19.25 8.75 19.25C9.16421 19.25 9.5 19.5858 9.5 20Z" fill="#28303F"/>
<path d="M16 20C16 20.4142 15.6642 20.75 15.25 20.75C14.8358 20.75 14.5 20.4142 14.5 20C14.5 19.5858 14.8358 19.25 15.25 19.25C15.6642 19.25 16 19.5858 16 20Z" fill="#28303F"/>
<path d="M9.5 17C9.5 17.4142 9.16421 17.75 8.75 17.75C8.33579 17.75 8 17.4142 8 17C8 16.5858 8.33579 16.25 8.75 16.25C9.16421 16.25 9.5 16.5858 9.5 17Z" fill="#28303F"/>
<path d="M16 17C16 17.4142 15.6642 17.75 15.25 17.75C14.8358 17.75 14.5 17.4142 14.5 17C14.5 16.5858 14.8358 16.25 15.25 16.25C15.6642 16.25 16 16.5858 16 17Z" fill="#28303F"/>
</svg>
