<svg width="24" height="24" viewBox="0 0 24 24" fill="none" xmlns="http://www.w3.org/2000/svg">
<path d="M17 10C16.4547 10 15.9299 10.0873 15.4386 10.2486C14.7677 8.68071 13.5408 7.40734 12.0059 6.67641C12.1186 4.32973 13.8491 2.40726 16.1064 2C16.0368 2.2955 16 2.60364 16 2.92038C16 5.12952 17.7909 6.92038 20 6.92038C20.7176 6.92038 21.391 6.73142 21.9733 6.40055C21.991 6.57142 22 6.74484 22 6.92038C22 8.57998 21.1914 10.0507 19.9468 10.9602C19.1204 10.3564 18.1018 10 17 10Z" fill="#28303F"/>
<path opacity="0.4" d="M2 13C2 16.866 5.13401 20 9 20H17C19.7614 20 22 17.7614 22 15C22 13.3404 21.1914 11.8696 19.9468 10.9602C19.1204 10.3564 18.1018 10 17 10C16.4547 10 15.9299 10.0873 15.4386 10.2486C14.7677 8.68071 13.5408 7.40735 12.0058 6.67641C11.0951 6.24273 10.0759 6 9 6C5.13401 6 2 9.13401 2 13Z" fill="#28303F"/>
<path fill-rule="evenodd" clip-rule="evenodd" d="M12.2787 16.3038C12.6633 16.4577 12.8504 16.8942 12.6965 17.2787L10.6965 22.2787C10.5427 22.6633 10.1062 22.8504 9.72162 22.6966C9.33703 22.5427 9.14997 22.1062 9.30381 21.7217L11.3038 16.7217C11.4576 16.3371 11.8941 16.15 12.2787 16.3038ZM8.33557 16.3294C8.70606 16.5146 8.85623 16.9651 8.67098 17.3356L7.67098 19.3356C7.48574 19.7061 7.03524 19.8563 6.66475 19.671C6.29427 19.4858 6.1441 19.0353 6.32934 18.6648L7.32934 16.6648C7.51459 16.2943 7.96509 16.1441 8.33557 16.3294ZM16.3356 16.3294C16.7061 16.5146 16.8562 16.9651 16.671 17.3356L15.671 19.3356C15.4857 19.7061 15.0352 19.8563 14.6648 19.671C14.2943 19.4858 14.1441 19.0353 14.3293 18.6648L15.3293 16.6648C15.5146 16.2943 15.9651 16.1441 16.3356 16.3294Z" fill="#28303F"/>
</svg>
