<svg width="24" height="24" viewBox="0 0 24 24" fill="none" xmlns="http://www.w3.org/2000/svg">
<path d="M17 10C16.4547 10 15.9299 10.0873 15.4386 10.2486C14.7677 8.68071 13.5408 7.40734 12.0059 6.67641C12.1186 4.32973 13.8491 2.40726 16.1064 2C16.0368 2.2955 16 2.60364 16 2.92038C16 5.12952 17.7909 6.92038 20 6.92038C20.7176 6.92038 21.391 6.73142 21.9733 6.40055C21.991 6.57142 22 6.74484 22 6.92038C22 8.57998 21.1914 10.0507 19.9468 10.9602C19.1204 10.3564 18.1018 10 17 10Z" fill="#28303F"/>
<path opacity="0.4" d="M2 13C2 16.866 5.13401 20 9 20H17C19.7614 20 22 17.7614 22 15C22 13.3404 21.1914 11.8696 19.9468 10.9602C19.1204 10.3564 18.1018 10 17 10C16.4547 10 15.9299 10.0873 15.4386 10.2486C14.7677 8.68071 13.5408 7.40735 12.0058 6.67641C11.0951 6.24273 10.0759 6 9 6C5.13401 6 2 9.13401 2 13Z" fill="#28303F"/>
<path d="M12.75 22C12.75 22.4142 12.4142 22.75 12 22.75C11.5858 22.75 11.25 22.4142 11.25 22C11.25 21.5858 11.5858 21.25 12 21.25C12.4142 21.25 12.75 21.5858 12.75 22Z" fill="#28303F"/>
<path d="M12.75 19C12.75 19.4142 12.4142 19.75 12 19.75C11.5858 19.75 11.25 19.4142 11.25 19C11.25 18.5858 11.5858 18.25 12 18.25C12.4142 18.25 12.75 18.5858 12.75 19Z" fill="#28303F"/>
<path d="M9.5 20C9.5 20.4142 9.16421 20.75 8.75 20.75C8.33579 20.75 8 20.4142 8 20C8 19.5858 8.33579 19.25 8.75 19.25C9.16421 19.25 9.5 19.5858 9.5 20Z" fill="#28303F"/>
<path d="M16 20C16 20.4142 15.6642 20.75 15.25 20.75C14.8358 20.75 14.5 20.4142 14.5 20C14.5 19.5858 14.8358 19.25 15.25 19.25C15.6642 19.25 16 19.5858 16 20Z" fill="#28303F"/>
<path d="M9.5 17C9.5 17.4142 9.16421 17.75 8.75 17.75C8.33579 17.75 8 17.4142 8 17C8 16.5858 8.33579 16.25 8.75 16.25C9.16421 16.25 9.5 16.5858 9.5 17Z" fill="#28303F"/>
<path d="M16 17C16 17.4142 15.6642 17.75 15.25 17.75C14.8358 17.75 14.5 17.4142 14.5 17C14.5 16.5858 14.8358 16.25 15.25 16.25C15.6642 16.25 16 16.5858 16 17Z" fill="#28303F"/>
</svg>
