<svg width="24" height="24" viewBox="0 0 24 24" fill="none" xmlns="http://www.w3.org/2000/svg">
<path opacity="0.4" d="M2 9C2 12.866 5.13401 16 9 16H17C19.7614 16 22 13.7614 22 11C22 8.23858 19.7614 6 17 6C16.4547 6 15.9299 6.08728 15.4386 6.24864C14.3696 3.75042 11.8892 2 9 2C5.13401 2 2 5.13401 2 9Z" fill="#28303F"/>
<path fill-rule="evenodd" clip-rule="evenodd" d="M10.25 13C10.25 12.5858 10.5858 12.25 11 12.25H11.5C12.7426 12.25 13.75 13.2574 13.75 14.5C13.75 15.7426 12.7426 16.75 11.5 16.75H4C3.58579 16.75 3.25 16.4142 3.25 16C3.25 15.5858 3.58579 15.25 4 15.25H11.5C11.9142 15.25 12.25 14.9142 12.25 14.5C12.25 14.0858 11.9142 13.75 11.5 13.75H11C10.5858 13.75 10.25 13.4142 10.25 13Z" fill="#28303F"/>
<path fill-rule="evenodd" clip-rule="evenodd" d="M17.25 22C17.25 22.4142 17.5858 22.75 18 22.75H18.5C19.7426 22.75 20.75 21.7426 20.75 20.5C20.75 19.2574 19.7426 18.25 18.5 18.25H12C11.5858 18.25 11.25 18.5858 11.25 19C11.25 19.4142 11.5858 19.75 12 19.75H18.5C18.9142 19.75 19.25 20.0858 19.25 20.5C19.25 20.9142 18.9142 21.25 18.5 21.25H18C17.5858 21.25 17.25 21.5858 17.25 22Z" fill="#28303F"/>
<path fill-rule="evenodd" clip-rule="evenodd" d="M6.25 19C6.25 18.5858 6.58579 18.25 7 18.25H9C9.41421 18.25 9.75 18.5858 9.75 19C9.75 19.4142 9.41421 19.75 9 19.75H7C6.58579 19.75 6.25 19.4142 6.25 19Z" fill="#28303F"/>
</svg>
