<svg width="24" height="24" viewBox="0 0 24 24" fill="none" xmlns="http://www.w3.org/2000/svg">
<path d="M16.9998 9C16.4546 9 15.9297 9.08728 15.4384 9.24864C14.7392 7.61449 13.436 6.30031 11.8096 5.58672C12.5399 4.62272 13.6972 4 14.9998 4C17.209 4 18.9998 5.79086 18.9998 8C18.9998 8.46419 18.9208 8.90991 18.7754 9.32442C18.2236 9.11478 17.6251 9 16.9998 9Z" fill="#28303F"/>
<path fill-rule="evenodd" clip-rule="evenodd" d="M15 0.25C15.4142 0.25 15.75 0.585786 15.75 1V2C15.75 2.41421 15.4142 2.75 15 2.75C14.5858 2.75 14.25 2.41421 14.25 2V1C14.25 0.585786 14.5858 0.25 15 0.25Z" fill="#28303F"/>
<path fill-rule="evenodd" clip-rule="evenodd" d="M20.48 2.52008C20.7729 2.81297 20.7729 3.28784 20.48 3.58074L19.7729 4.28784C19.48 4.58074 19.0052 4.58074 18.7123 4.28784C18.4194 3.99495 18.4194 3.52008 18.7123 3.22718L19.4194 2.52008C19.7123 2.22718 20.1871 2.22718 20.48 2.52008Z" fill="#28303F"/>
<path fill-rule="evenodd" clip-rule="evenodd" d="M22.75 8C22.75 8.41421 22.4142 8.75 22 8.75L21 8.75C20.5858 8.75 20.25 8.41421 20.25 8C20.25 7.58579 20.5858 7.25 21 7.25L22 7.25C22.4142 7.25 22.75 7.58579 22.75 8Z" fill="#28303F"/>
<path opacity="0.4" d="M2 12C2 15.866 5.13401 19 9 19H17C19.7614 19 22 16.7614 22 14C22 11.8639 20.6604 10.0406 18.7755 9.32442C18.2238 9.11478 17.6253 9 17 9C16.4547 9 15.9299 9.08728 15.4386 9.24864C14.7393 7.61449 13.4362 6.30031 11.8097 5.58672C10.9497 5.2094 9.99931 5 9 5C5.13401 5 2 8.13401 2 12Z" fill="#28303F"/>
<path d="M8 19L13 13V17H16L11 23V19H8Z" fill="#28303F"/>
</svg>
