<svg width="24" height="24" viewBox="0 0 24 24" fill="none" xmlns="http://www.w3.org/2000/svg">
<path opacity="0.4" d="M2 11C2 14.866 5.13401 18 9 18H17C19.7614 18 22 15.7614 22 13C22 11.8744 21.6281 10.8357 21.0004 10C20.0882 8.78555 18.6358 8 17 8C16.4547 8 15.9299 8.08728 15.4386 8.24864C14.8346 6.83717 13.7801 5.6644 12.4559 4.91117C11.4363 4.33124 10.2568 4 9 4C5.13401 4 2 7.13401 2 11Z" fill="#28303F"/>
<path fill-rule="evenodd" clip-rule="evenodd" d="M21.0005 10C21.6282 9.16434 22.0002 8.12561 22.0002 7C22.0002 4.23858 19.7616 2 17.0002 2C14.9844 2 13.2472 3.19285 12.4561 4.91117C13.7803 5.6644 14.8348 6.83717 15.4387 8.24864C15.93 8.08728 16.4549 8 17.0002 8C18.636 8 20.0883 8.78555 21.0005 10Z" fill="#28303F"/>
<path fill-rule="evenodd" clip-rule="evenodd" d="M12.2787 16.3038C12.6633 16.4577 12.8504 16.8942 12.6965 17.2787L10.6965 22.2787C10.5427 22.6633 10.1062 22.8504 9.72162 22.6966C9.33703 22.5427 9.14997 22.1062 9.30381 21.7217L11.3038 16.7217C11.4576 16.3371 11.8941 16.15 12.2787 16.3038ZM8.33557 16.3294C8.70606 16.5146 8.85623 16.9651 8.67098 17.3356L7.67098 19.3356C7.48574 19.7061 7.03524 19.8563 6.66475 19.671C6.29427 19.4858 6.1441 19.0353 6.32934 18.6648L7.32934 16.6648C7.51459 16.2943 7.96509 16.1441 8.33557 16.3294ZM16.3356 16.3294C16.7061 16.5146 16.8562 16.9651 16.671 17.3356L15.671 19.3356C15.4857 19.7061 15.0352 19.8563 14.6648 19.671C14.2943 19.4858 14.1441 19.0353 14.3293 18.6648L15.3293 16.6648C15.5146 16.2943 15.9651 16.1441 16.3356 16.3294Z" fill="#28303F"/>
</svg>
