<svg width="24" height="24" viewBox="0 0 24 24" fill="none" xmlns="http://www.w3.org/2000/svg">
<path opacity="0.4" d="M2 11C2 14.866 5.13401 18 9 18H17C19.7614 18 22 15.7614 22 13C22 11.8744 21.6281 10.8357 21.0004 10C20.0882 8.78555 18.6358 8 17 8C16.4547 8 15.9299 8.08728 15.4386 8.24864C14.8346 6.83717 13.7801 5.6644 12.4559 4.91117C11.4363 4.33124 10.2568 4 9 4C5.13401 4 2 7.13401 2 11Z" fill="#28303F"/>
<path fill-rule="evenodd" clip-rule="evenodd" d="M21.0005 10C21.6282 9.16434 22.0002 8.12561 22.0002 7C22.0002 4.23858 19.7616 2 17.0002 2C14.9844 2 13.2472 3.19285 12.4561 4.91117C13.7803 5.6644 14.8348 6.83717 15.4387 8.24864C15.93 8.08728 16.4549 8 17.0002 8C18.636 8 20.0883 8.78555 21.0005 10Z" fill="#28303F"/>
<path d="M13.5 20.5C13.5 21.6046 12.8284 22 12 22C11.1716 22 10.5 21.6046 10.5 20.5C10.5 19.3954 12 18 12 18C12 18 13.5 19.3954 13.5 20.5Z" fill="#28303F"/>
<path d="M18.5 17.5C18.5 18.6046 17.8284 19 17 19C16.1716 19 15.5 18.6046 15.5 17.5C15.5 16.3954 17 15 17 15C17 15 18.5 16.3954 18.5 17.5Z" fill="#28303F"/>
<path d="M8.5 17.5C8.5 18.6046 7.82843 19 7 19C6.17157 19 5.5 18.6046 5.5 17.5C5.5 16.3954 7 15 7 15C7 15 8.5 16.3954 8.5 17.5Z" fill="#28303F"/>
</svg>
