<svg width="24" height="24" viewBox="0 0 24 24" fill="none" xmlns="http://www.w3.org/2000/svg">
<path opacity="0.4" d="M2 11C2 14.866 5.13401 18 9 18H17C19.7614 18 22 15.7614 22 13C22 10.2386 19.7614 8 17 8C16.4547 8 15.9299 8.08728 15.4386 8.24864C14.3696 5.75042 11.8892 4 9 4C5.13401 4 2 7.13401 2 11Z" fill="#28303F"/>
<path d="M12.75 20C12.75 20.4142 12.4142 20.75 12 20.75C11.5858 20.75 11.25 20.4142 11.25 20C11.25 19.5858 11.5858 19.25 12 19.25C12.4142 19.25 12.75 19.5858 12.75 20Z" fill="#28303F"/>
<path d="M12.75 17C12.75 17.4142 12.4142 17.75 12 17.75C11.5858 17.75 11.25 17.4142 11.25 17C11.25 16.5858 11.5858 16.25 12 16.25C12.4142 16.25 12.75 16.5858 12.75 17Z" fill="#28303F"/>
<path d="M9.5 18C9.5 18.4142 9.16421 18.75 8.75 18.75C8.33579 18.75 8 18.4142 8 18C8 17.5858 8.33579 17.25 8.75 17.25C9.16421 17.25 9.5 17.5858 9.5 18Z" fill="#28303F"/>
<path d="M16 18C16 18.4142 15.6642 18.75 15.25 18.75C14.8358 18.75 14.5 18.4142 14.5 18C14.5 17.5858 14.8358 17.25 15.25 17.25C15.6642 17.25 16 17.5858 16 18Z" fill="#28303F"/>
<path d="M9.5 15C9.5 15.4142 9.16421 15.75 8.75 15.75C8.33579 15.75 8 15.4142 8 15C8 14.5858 8.33579 14.25 8.75 14.25C9.16421 14.25 9.5 14.5858 9.5 15Z" fill="#28303F"/>
<path d="M16 15C16 15.4142 15.6642 15.75 15.25 15.75C14.8358 15.75 14.5 15.4142 14.5 15C14.5 14.5858 14.8358 14.25 15.25 14.25C15.6642 14.25 16 14.5858 16 15Z" fill="#28303F"/>
</svg>
