<svg width="24" height="24" viewBox="0 0 24 24" fill="none" xmlns="http://www.w3.org/2000/svg">
<path d="M17 9C16.4547 9 15.9299 9.08728 15.4386 9.24863C14.7677 7.68071 13.5408 6.40734 12.0059 5.67641C12.1186 3.32973 13.8491 1.40726 16.1064 1C16.0368 1.2955 16 1.60364 16 1.92038C16 4.12952 17.7909 5.92038 20 5.92038C20.7176 5.92038 21.391 5.73142 21.9733 5.40055C21.991 5.57142 22 5.74484 22 5.92038C22 7.57998 21.1914 9.05073 19.9468 9.96019C19.1204 9.35639 18.1018 9 17 9Z" fill="#28303F"/>
<path opacity="0.4" d="M2 12C2 15.866 5.13401 19 9 19H17C19.7614 19 22 16.7614 22 14C22 12.3404 21.1914 10.8696 19.9468 9.96019C19.1204 9.35639 18.1018 9 17 9C16.4547 9 15.9299 9.08728 15.4386 9.24864C14.7677 7.68071 13.5408 6.40735 12.0058 5.67641C11.0951 5.24273 10.0759 5 9 5C5.13401 5 2 8.13401 2 12Z" fill="#28303F"/>
<path d="M17.5 19.5C17.5 20.6046 16.8284 21 16 21C15.1716 21 14.5 20.6046 14.5 19.5C14.5 18.3954 16 17 16 17C16 17 17.5 18.3954 17.5 19.5Z" fill="#28303F"/>
<path d="M4 19L9 13V17H12L7 23V19H4Z" fill="#28303F"/>
</svg>
