<svg width="24" height="24" viewBox="0 0 24 24" fill="none" xmlns="http://www.w3.org/2000/svg">
<path d="M17.0001 10C16.4548 10 15.9299 10.0873 15.4387 10.2486C14.7394 8.61449 13.4363 7.30031 11.8098 6.58672C12.5402 5.62272 13.6974 5 15.0001 5C17.2092 5 19.0001 6.79086 19.0001 9C19.0001 9.46419 18.921 9.90991 18.7756 10.3244C18.2239 10.1148 17.6254 10 17.0001 10Z" fill="#28303F"/>
<path fill-rule="evenodd" clip-rule="evenodd" d="M15 1.25C15.4142 1.25 15.75 1.58579 15.75 2V3C15.75 3.41421 15.4142 3.75 15 3.75C14.5858 3.75 14.25 3.41421 14.25 3V2C14.25 1.58579 14.5858 1.25 15 1.25Z" fill="#28303F"/>
<path fill-rule="evenodd" clip-rule="evenodd" d="M20.48 3.52008C20.7729 3.81297 20.7729 4.28784 20.48 4.58074L19.7729 5.28784C19.48 5.58074 19.0052 5.58074 18.7123 5.28784C18.4194 4.99495 18.4194 4.52008 18.7123 4.22718L19.4194 3.52008C19.7123 3.22718 20.1871 3.22718 20.48 3.52008Z" fill="#28303F"/>
<path fill-rule="evenodd" clip-rule="evenodd" d="M22.75 9C22.75 9.41421 22.4142 9.75 22 9.75L21 9.75C20.5858 9.75 20.25 9.41421 20.25 9C20.25 8.58579 20.5858 8.25 21 8.25L22 8.25C22.4142 8.25 22.75 8.58579 22.75 9Z" fill="#28303F"/>
<path opacity="0.4" d="M2 13C2 16.866 5.13401 20 9 20H17C19.7614 20 22 17.7614 22 15C22 12.8639 20.6604 11.0406 18.7755 10.3244C18.2238 10.1148 17.6253 10 17 10C16.4547 10 15.9299 10.0873 15.4386 10.2486C14.7393 8.61449 13.4362 7.30031 11.8097 6.58672C10.9497 6.2094 9.99931 6 9 6C5.13401 6 2 9.13401 2 13Z" fill="#28303F"/>
<path d="M13.5 20.5C13.5 21.6046 12.8284 22 12 22C11.1716 22 10.5 21.6046 10.5 20.5C10.5 19.3954 12 18 12 18C12 18 13.5 19.3954 13.5 20.5Z" fill="#28303F"/>
</svg>
