<svg width="24" height="24" viewBox="0 0 24 24" fill="none" xmlns="http://www.w3.org/2000/svg">
<path opacity="0.4" d="M2 10C2 13.866 5.13401 17 9 17H17C19.7614 17 22 14.7614 22 12C22 9.23858 19.7614 7 17 7C16.4547 7 15.9299 7.08728 15.4386 7.24864C14.3696 4.75042 11.8892 3 9 3C5.13401 3 2 6.13401 2 10Z" fill="#28303F"/>
<path d="M17.5 19.5C17.5 20.6046 16.8284 21 16 21C15.1716 21 14.5 20.6046 14.5 19.5C14.5 18.3954 16 17 16 17C16 17 17.5 18.3954 17.5 19.5Z" fill="#28303F"/>
<path d="M4 17L9 11V15H12L7 21V17H4Z" fill="#28303F"/>
</svg>
