<svg width="24" height="24" viewBox="0 0 24 24" fill="none" xmlns="http://www.w3.org/2000/svg">
<path opacity="0.4" d="M2 12C2 15.866 5.13401 19 9 19H17C19.7614 19 22 16.7614 22 14C22 12.8744 21.6281 11.8357 21.0004 11C20.0882 9.78555 18.6358 9 17 9C16.4547 9 15.9299 9.08728 15.4386 9.24864C14.8346 7.83717 13.7801 6.6644 12.4559 5.91117C11.4363 5.33124 10.2568 5 9 5C5.13401 5 2 8.13401 2 12Z" fill="#28303F"/>
<path fill-rule="evenodd" clip-rule="evenodd" d="M21.0005 11C21.6282 10.1643 22.0002 9.12561 22.0002 8C22.0002 5.23858 19.7616 3 17.0002 3C14.9844 3 13.2472 4.19285 12.4561 5.91117C13.7803 6.6644 14.8348 7.83717 15.4387 9.24864C15.93 9.08728 16.4549 9 17.0002 9C18.636 9 20.0883 9.78555 21.0005 11Z" fill="#28303F"/>
<path d="M10 19.5C10 20.6046 9.32843 21 8.5 21C7.67157 21 7 20.6046 7 19.5C7 18.3954 8.5 17 8.5 17C8.5 17 10 18.3954 10 19.5Z" fill="#28303F"/>
<path d="M17 19.5C17 20.6046 16.3284 21 15.5 21C14.6716 21 14 20.6046 14 19.5C14 18.3954 15.5 17 15.5 17C15.5 17 17 18.3954 17 19.5Z" fill="#28303F"/>
</svg>
