<svg width="24" height="24" viewBox="0 0 24 24" fill="none" xmlns="http://www.w3.org/2000/svg">
<path opacity="0.4" fill-rule="evenodd" clip-rule="evenodd" d="M22.6433 19.3858C22.4301 19.7409 21.9694 19.8561 21.6143 19.643L18.9992 18.074C17.8343 17.375 16.3576 17.4744 15.2968 18.323L14.9674 18.5865C13.2326 19.9743 10.7676 19.9743 9.03283 18.5865L8.70343 18.323C7.64264 17.4744 6.16595 17.375 5.00107 18.074L2.386 19.643C2.03082 19.8561 1.57012 19.7409 1.35701 19.3858C1.1439 19.0306 1.25908 18.5699 1.61426 18.3568L4.22932 16.7877C5.93184 15.7662 8.09009 15.9114 9.64048 17.1517L9.96987 17.4152C11.1568 18.3648 12.8434 18.3648 14.0304 17.4152L14.3598 17.1517C15.9102 15.9114 18.0684 15.7662 19.7709 16.7877L22.386 18.3568C22.7412 18.5699 22.8564 19.0306 22.6433 19.3858Z" fill="#28303F"/>
<path fill-rule="evenodd" clip-rule="evenodd" d="M22.6433 13.3858C22.4301 13.7409 21.9694 13.8561 21.6143 13.643L18.9992 12.074C17.8343 11.375 16.3576 11.4744 15.2968 12.323L14.9674 12.5865C13.2326 13.9743 10.7676 13.9743 9.03283 12.5865L8.70343 12.323C7.64264 11.4744 6.16595 11.375 5.00107 12.074L2.386 13.643C2.03082 13.8561 1.57012 13.7409 1.35701 13.3858C1.1439 13.0306 1.25908 12.5699 1.61426 12.3568L4.22932 10.7877C5.93184 9.76622 8.09009 9.91139 9.64048 11.1517L9.96987 11.4152C11.1568 12.3648 12.8434 12.3648 14.0304 11.4152L14.3598 11.1517C15.9102 9.91139 18.0684 9.76622 19.7709 10.7877L22.386 12.3568C22.7412 12.5699 22.8564 13.0306 22.6433 13.3858Z" fill="#28303F"/>
<path opacity="0.4" fill-rule="evenodd" clip-rule="evenodd" d="M22.6433 7.38576C22.4301 7.74094 21.9694 7.85612 21.6143 7.64301L18.9992 6.07397C17.8343 5.37504 16.3576 5.47437 15.2968 6.323L14.9674 6.58651C13.2326 7.97434 10.7676 7.97434 9.03283 6.58651L8.70343 6.323C7.64264 5.47437 6.16595 5.37504 5.00107 6.07397L2.386 7.64301C2.03082 7.85612 1.57012 7.74094 1.35701 7.38576C1.1439 7.03057 1.25908 6.56988 1.61426 6.35677L4.22932 4.78773C5.93184 3.76622 8.09009 3.91139 9.64048 5.1517L9.96987 5.41521C11.1568 6.36478 12.8434 6.36478 14.0304 5.41521L14.3598 5.15169C15.9102 3.91139 18.0684 3.76622 19.7709 4.78773L22.386 6.35677C22.7412 6.56988 22.8564 7.03057 22.6433 7.38576Z" fill="#28303F"/>
</svg>
