<svg width="24" height="24" viewBox="0 0 24 24" fill="none" xmlns="http://www.w3.org/2000/svg">
<path opacity="0.4" fill-rule="evenodd" clip-rule="evenodd" d="M18 9.75C16.2051 9.75 14.75 11.2051 14.75 13C14.75 13.4142 14.4142 13.75 14 13.75C13.5858 13.75 13.25 13.4142 13.25 13C13.25 10.3766 15.3766 8.25 18 8.25C20.6234 8.25 22.75 10.3766 22.75 13C22.75 15.6234 20.6234 17.75 18 17.75H2C1.58579 17.75 1.25 17.4142 1.25 17C1.25 16.5858 1.58579 16.25 2 16.25H18C19.7949 16.25 21.25 14.7949 21.25 13C21.25 11.2051 19.7949 9.75 18 9.75Z" fill="#28303F"/>
<path fill-rule="evenodd" clip-rule="evenodd" d="M8 7.75C6.75736 7.75 5.75 8.75736 5.75 10C5.75 10.4142 5.41421 10.75 5 10.75C4.58579 10.75 4.25 10.4142 4.25 10C4.25 7.92893 5.92893 6.25 8 6.25C10.0711 6.25 11.75 7.92893 11.75 10C11.75 12.0711 10.0711 13.75 8 13.75H2C1.58579 13.75 1.25 13.4142 1.25 13C1.25 12.5858 1.58579 12.25 2 12.25H8C9.24264 12.25 10.25 11.2426 10.25 10C10.25 8.75736 9.24264 7.75 8 7.75Z" fill="#28303F"/>
</svg>
