<svg width="24" height="24" viewBox="0 0 24 24" fill="none" xmlns="http://www.w3.org/2000/svg">
<path fill-rule="evenodd" clip-rule="evenodd" d="M17.4186 12.8187C17.7409 13.0713 18.0344 13.3597 18.2928 13.6779C20.4541 12.9156 21.9999 10.8851 21.9999 8.5C21.9999 5.46243 19.4927 3 16.3999 3C14.0885 3 12.1042 4.37533 11.2491 6.33821C10.856 6.21144 10.4361 6.14286 9.99993 6.14286C8.31251 6.14286 6.86913 7.16907 6.28149 8.62073C6.70961 8.54136 7.15044 8.5 7.59993 8.5C10.0768 8.5 12.2665 9.75254 13.5382 11.6618C13.6906 11.6492 13.8446 11.6429 13.9999 11.6429C15.2877 11.6429 16.4783 12.0816 17.4186 12.8187ZM7.6 21C4.50721 21 2 18.5376 2 15.5C2 13.0074 3.6883 10.902 6.00307 10.2269C6.50914 10.0793 7.04515 10 7.6 10C9.91139 10 11.8957 11.3753 12.7509 13.3382C13.1439 13.2114 13.5638 13.1429 14 13.1429C14.9429 13.1429 15.8095 13.4633 16.4933 13.9993C17.4116 14.7191 18 15.8278 18 17.0714C18 19.2411 16.2091 21 14 21H7.6Z" fill="#28303F"/>
</svg>
