<svg width="24" height="24" viewBox="0 0 24 24" fill="none" xmlns="http://www.w3.org/2000/svg">
<path fill-rule="evenodd" clip-rule="evenodd" d="M20.8318 9.74893C20.8958 9.79568 20.9589 9.84358 21.0211 9.8926C21.6363 9.06173 22.0001 8.03348 22.0001 6.92025C22.0001 6.67482 21.7325 6.53503 21.5052 6.62744C21.0406 6.81624 20.5325 6.92025 20.0001 6.92025C17.791 6.92025 16.0001 5.12939 16.0001 2.92025C16.0001 2.86457 16.0012 2.80915 16.0035 2.75402C16.0182 2.39432 15.7098 2.07483 15.3694 2.19219C13.9596 2.67834 12.8352 3.77733 12.3147 5.17081C12.428 5.21884 12.5401 5.26925 12.6509 5.322C14.1356 6.029 15.3822 7.15312 16.2397 8.54403C16.4895 8.51485 16.7432 8.49988 17.0001 8.49988C18.4306 8.49988 19.7572 8.96376 20.8318 9.74893ZM16 21.9999C16.8284 21.9999 17.5 21.6044 17.5 20.4999C17.5 19.3953 16 17.9999 16 17.9999C16 17.9999 14.5 19.3953 14.5 20.4999C14.5 21.6044 15.1716 21.9999 16 21.9999ZM4.68341 17.1798L8.11589 13.0608C8.41527 12.7016 9 12.9133 9 13.3809V15.4999C9 15.776 9.22386 15.9999 9.5 15.9999H10.9325C11.3564 15.9999 11.588 16.4943 11.3166 16.82L7.88411 20.9389C7.58473 21.2982 7 21.0865 7 20.6189V18.4999C7 18.2237 6.77614 17.9999 6.5 17.9999H5.06752C4.6436 17.9999 4.41202 17.5054 4.68341 17.1798ZM3.16517 16.8684C2.42893 15.7601 2 14.4301 2 12.9999C2 9.13388 5.13401 5.99988 9 5.99988C10.0759 5.99988 11.0951 6.24261 12.0058 6.67629C13.5408 7.40723 14.7677 8.68059 15.4386 10.2485C15.9299 10.0872 16.4547 9.99988 17 9.99988C18.1018 9.99988 19.1204 10.3563 19.9468 10.9601C21.1914 11.8695 22 13.3403 22 14.9999C22 17.0999 20.7053 18.8976 18.8706 19.6382C18.7985 19.3924 18.7048 19.1708 18.6118 18.9817C18.4125 18.576 18.1624 18.2113 17.9384 17.9204C17.7111 17.6252 17.4875 17.3764 17.3221 17.2022C17.2385 17.1143 17.1677 17.0431 17.1159 16.9922L17.0217 16.9016C16.4459 16.366 15.5541 16.366 14.9783 16.9016L14.8841 16.9922C14.8323 17.0431 14.7615 17.1143 14.6779 17.2022C14.5125 17.3764 14.2889 17.6252 14.0616 17.9204C13.8376 18.2113 13.5875 18.576 13.3882 18.9817C13.2515 19.2597 13.1132 19.6079 13.0445 19.9999H10.6192L12.4689 17.7802C13.5545 16.4775 12.6281 14.4998 10.9325 14.4998H10.5V13.3808C10.5 11.5102 8.16107 10.6634 6.96355 12.1004L3.53107 16.2194C3.3617 16.4227 3.24131 16.6423 3.16517 16.8684Z" fill="#28303F"/>
</svg>
