<svg width="24" height="24" viewBox="0 0 24 24" fill="none" xmlns="http://www.w3.org/2000/svg">
<path fill-rule="evenodd" clip-rule="evenodd" d="M21.7506 8.56367C20.5659 7.29573 18.8757 6.5 17 6.5C16.7431 6.5 16.4894 6.51498 16.2396 6.54415C15.5065 5.35509 14.4893 4.36129 13.2825 3.6563C14.1977 2.6394 15.5242 2 17 2C19.7614 2 22 4.23858 22 7C22 7.5461 21.9125 8.07174 21.7506 8.56367ZM5.46328 17.0421C3.39124 15.8267 2 13.5758 2 11C2 7.13401 5.13401 4 9 4C10.2568 4 11.4363 4.33124 12.4559 4.91117C13.7801 5.6644 14.8346 6.83717 15.4386 8.24864C15.9299 8.08728 16.4547 8 17 8C18.6358 8 20.0882 8.78555 21.0004 10C21.6281 10.8357 22 11.8744 22 13C22 15.3947 20.3165 17.3963 18.0684 17.8856C18.535 16.7987 18.0778 15.5232 17.0062 14.9874C15.903 14.4358 14.5633 14.8756 14 15.9691C13.7607 15.5042 13.3592 15.1202 12.8356 14.9108C11.7491 14.4762 10.5244 14.9486 9.99999 15.9688C9.78897 15.5586 9.45036 15.2095 9.00622 14.9874C7.89477 14.4317 6.54325 14.8822 5.98753 15.9936L5.46328 17.0421ZM12.6964 17.2785C12.8502 16.8939 12.6632 16.4574 12.2786 16.3036C11.894 16.1498 11.4575 16.3368 11.3037 16.7214L9.30368 21.7214C9.14985 22.106 9.33691 22.5425 9.7215 22.6963C10.1061 22.8501 10.5426 22.6631 10.6964 22.2785L12.6964 17.2785ZM8.67086 17.3354C8.8561 16.9649 8.70594 16.5144 8.33545 16.3291C7.96497 16.1439 7.51446 16.2941 7.32922 16.6645L6.32922 18.6645C6.14398 19.035 6.29415 19.4855 6.66463 19.6708C7.03512 19.856 7.48562 19.7058 7.67086 19.3354L8.67086 17.3354ZM16.6709 17.3354C16.8561 16.9649 16.7059 16.5144 16.3355 16.3291C15.965 16.1439 15.5145 16.2941 15.3292 16.6645L14.3292 18.6645C14.144 19.035 14.2941 19.4855 14.6646 19.6708C15.0351 19.856 15.4856 19.7058 15.6709 19.3354L16.6709 17.3354Z" fill="#28303F"/>
</svg>
