<svg width="24" height="24" viewBox="0 0 24 24" fill="none" xmlns="http://www.w3.org/2000/svg">
<path fill-rule="evenodd" clip-rule="evenodd" d="M12.2858 17L12.4689 16.7803C13.5545 15.4776 12.6281 13.4999 10.9325 13.4999H10.5V12.3809C10.5 10.5103 8.16107 9.66354 6.96355 11.1006L3.89206 14.7864C2.71859 13.5346 2 11.8512 2 10C2 6.13401 5.13401 3 9 3C11.8892 3 14.3696 4.75042 15.4386 7.24864C15.9299 7.08728 16.4547 7 17 7C19.7614 7 22 9.23858 22 12C22 14.4427 20.2484 16.4762 17.9327 16.9132C17.7074 16.6212 17.4861 16.3751 17.3221 16.2024C17.2385 16.1144 17.1677 16.0433 17.1159 15.9923L17.0217 15.9017C16.4459 15.3661 15.5541 15.3661 14.9783 15.9017L14.8841 15.9923C14.8323 16.0433 14.7615 16.1144 14.6779 16.2024C14.5125 16.3766 14.2889 16.6254 14.0616 16.9205C14.0416 16.9465 14.0215 16.9729 14.0012 17H12.2858ZM4.68341 16.1799L8.11589 12.0609C8.41527 11.7017 9 11.9134 9 12.381V14.5C9 14.7761 9.22386 15 9.5 15H10.9325C11.3564 15 11.588 15.4944 11.3166 15.8201L7.88411 19.9391C7.58473 20.2983 7 20.0866 7 19.619V17.5C7 17.2239 6.77614 17 6.5 17H5.06752C4.6436 17 4.41202 16.5056 4.68341 16.1799ZM16 21C16.8284 21 17.5 20.6046 17.5 19.5C17.5 18.3954 16 17 16 17C16 17 14.5 18.3954 14.5 19.5C14.5 20.6046 15.1716 21 16 21Z" fill="#28303F"/>
</svg>
