<svg width="24" height="24" viewBox="0 0 24 24" fill="none" xmlns="http://www.w3.org/2000/svg">
<path fill-rule="evenodd" clip-rule="evenodd" d="M21.7506 9.56367C20.5659 8.29573 18.8757 7.5 17 7.5C16.7431 7.5 16.4894 7.51498 16.2396 7.54415C15.5065 6.35509 14.4893 5.36129 13.2825 4.6563C14.1977 3.6394 15.5242 3 17 3C19.7614 3 22 5.23858 22 8C22 8.5461 21.9125 9.07174 21.7506 9.56367ZM13.5 19.5C13.5 20.6046 12.8284 21 12 21C11.1716 21 10.5 20.6046 10.5 19.5C10.5 18.3954 12 17 12 17C12 17 13.5 18.3954 13.5 19.5ZM2 12C2 15.866 5.13401 19 9 19H9.04449C9.1132 18.608 9.25153 18.2598 9.38815 17.9818C9.5875 17.5762 9.83757 17.2114 10.0616 16.9205C10.2889 16.6254 10.5125 16.3766 10.6779 16.2024C10.7615 16.1144 10.8323 16.0433 10.8841 15.9923L10.9783 15.9017C11.5541 15.3661 12.4459 15.3661 13.0217 15.9017L13.1159 15.9923C13.1677 16.0433 13.2385 16.1144 13.3221 16.2024C13.4875 16.3766 13.7111 16.6254 13.9384 16.9205C14.1624 17.2114 14.4125 17.5762 14.6118 17.9818C14.7485 18.2598 14.8868 18.608 14.9555 19H17C19.7614 19 22 16.7614 22 14C22 12.8744 21.6281 11.8357 21.0004 11C20.0882 9.78555 18.6358 9 17 9C16.4547 9 15.9299 9.08728 15.4386 9.24864C14.8346 7.83717 13.7801 6.6644 12.4559 5.91117C11.4363 5.33124 10.2568 5 9 5C5.13401 5 2 8.13401 2 12Z" fill="#28303F"/>
</svg>
