<svg width="24" height="24" viewBox="0 0 24 24" fill="none" xmlns="http://www.w3.org/2000/svg">
<path fill-rule="evenodd" clip-rule="evenodd" d="M20.8317 9.74893C20.8957 9.79568 20.9588 9.84358 21.021 9.8926C21.6362 9.06173 22 8.03348 22 6.92025C22 6.67482 21.7324 6.53503 21.5051 6.62744C21.0405 6.81624 20.5324 6.92025 20 6.92025C17.7908 6.92025 16 5.12939 16 2.92025C16 2.86457 16.0011 2.80915 16.0034 2.75402C16.0181 2.39432 15.7097 2.07483 15.3693 2.19219C13.9595 2.67834 12.8351 3.77733 12.3146 5.17081C12.4279 5.21884 12.54 5.26925 12.6507 5.322C14.1354 6.029 15.382 7.15311 16.2396 8.54403C16.4894 8.51485 16.7431 8.49988 17 8.49988C18.4305 8.49988 19.7571 8.96376 20.8317 9.74893ZM6.64295 19.593C3.93656 18.6254 2 16.0387 2 12.9998C2 9.13376 5.13401 5.99976 9 5.99976C10.0759 5.99976 11.0951 6.24248 12.0058 6.67617C13.5408 7.4071 14.7677 8.68047 15.4386 10.2484C15.9299 10.087 16.4547 9.99976 17 9.99976C18.1018 9.99976 19.1204 10.3561 19.9468 10.9599C21.1914 11.8694 22 13.3402 22 14.9998C22 17.2704 20.4864 19.1875 18.4132 19.7972C18.3382 19.4875 18.2245 19.2107 18.1118 18.9816C17.9125 18.5759 17.6624 18.2112 17.4384 17.9203C17.2111 17.6251 16.9875 17.3763 16.8221 17.2021C16.7385 17.1142 16.6677 17.043 16.6159 16.9921L16.5217 16.9015C15.9459 16.3658 15.0541 16.3658 14.4783 16.9015L14.3841 16.9921C14.3323 17.043 14.2615 17.1142 14.1779 17.2021C14.0125 17.3763 13.7889 17.6251 13.5616 17.9203C13.3376 18.2112 13.0875 18.5759 12.8882 18.9816C12.7515 19.2596 12.6132 19.6078 12.5445 19.9998H12.4555C12.3868 19.6078 12.2485 19.2596 12.1118 18.9816C11.9125 18.5759 11.6624 18.2112 11.4384 17.9203C11.2111 17.6251 10.9875 17.3763 10.8221 17.2021C10.7385 17.1142 10.6677 17.043 10.6159 16.9921L10.5217 16.9015C9.94588 16.3658 9.05412 16.3658 8.47831 16.9015L8.38408 16.9921C8.33229 17.043 8.26148 17.1142 8.17794 17.2021C8.01252 17.3763 7.78891 17.6251 7.56158 17.9203C7.33757 18.2112 7.0875 18.5759 6.88815 18.9816C6.80093 19.1591 6.713 19.3652 6.64295 19.593ZM11 20.4998C11 21.6043 10.3284 21.9998 9.5 21.9998C8.67157 21.9998 8 21.6043 8 20.4998C8 19.3952 9.5 17.9998 9.5 17.9998C9.5 17.9998 11 19.3952 11 20.4998ZM15.5 21.9998C16.3284 21.9998 17 21.6043 17 20.4998C17 19.3952 15.5 17.9998 15.5 17.9998C15.5 17.9998 14 19.3952 14 20.4998C14 21.6043 14.6716 21.9998 15.5 21.9998Z" fill="#28303F"/>
</svg>
