<svg width="24" height="24" viewBox="0 0 24 24" fill="none" xmlns="http://www.w3.org/2000/svg">
<path fill-rule="evenodd" clip-rule="evenodd" d="M2 11C2 13.7051 3.53445 16.0519 5.78043 17.2173C5.81557 17.1342 5.85192 17.0555 5.88815 16.9818C6.0875 16.5762 6.33757 16.2114 6.56158 15.9205C6.78891 15.6254 7.01252 15.3766 7.17794 15.2024C7.26148 15.1144 7.33229 15.0433 7.38408 14.9923L7.47831 14.9017C8.05412 14.3661 8.94588 14.3661 9.52169 14.9017L9.61592 14.9923C9.66771 15.0433 9.73852 15.1144 9.82206 15.2024C9.98748 15.3766 10.2111 15.6254 10.4384 15.9205C10.6624 16.2114 10.9125 16.5762 11.1118 16.9818C11.2485 17.2598 11.3868 17.608 11.4555 18H12.5445C12.6132 17.608 12.7515 17.2598 12.8882 16.9818C13.0875 16.5762 13.3376 16.2114 13.5616 15.9205C13.7889 15.6254 14.0125 15.3766 14.1779 15.2024C14.2615 15.1144 14.3323 15.0433 14.3841 14.9923L14.4783 14.9017C15.0541 14.3661 15.9459 14.3661 16.5217 14.9017L16.6159 14.9923C16.6677 15.0433 16.7385 15.1144 16.8221 15.2024C16.9875 15.3766 17.2111 15.6254 17.4384 15.9205C17.6624 16.2114 17.9125 16.5762 18.1118 16.9818C18.2245 17.2109 18.3382 17.4878 18.4132 17.7975C20.4864 17.1877 22 15.2706 22 13C22 10.2386 19.7614 8 17 8C16.4547 8 15.9299 8.08728 15.4386 8.24864C14.3696 5.75042 11.8892 4 9 4C5.13401 4 2 7.13401 2 11ZM10 18.5C10 19.6046 9.32843 20 8.5 20C7.67157 20 7 19.6046 7 18.5C7 17.3954 8.5 16 8.5 16C8.5 16 10 17.3954 10 18.5ZM15.5 20C16.3284 20 17 19.6046 17 18.5C17 17.3954 15.5 16 15.5 16C15.5 16 14 17.3954 14 18.5C14 19.6046 14.6716 20 15.5 20Z" fill="#28303F"/>
</svg>
