<svg width="24" height="24" viewBox="0 0 24 24" fill="none" xmlns="http://www.w3.org/2000/svg">
<path fill-rule="evenodd" clip-rule="evenodd" d="M17 7.5C18.8757 7.5 20.5659 8.29573 21.7506 9.56367C21.9125 9.07174 22 8.5461 22 8C22 5.23858 19.7614 3 17 3C15.5242 3 14.1977 3.6394 13.2825 4.6563C14.4893 5.36129 15.5065 6.35509 16.2396 7.54415C16.4894 7.51498 16.7431 7.5 17 7.5ZM11.1118 17.9818C11.2485 18.2598 11.3868 18.608 11.4555 19H12.5445C12.6132 18.608 12.7515 18.2598 12.8882 17.9818C13.0875 17.5762 13.3376 17.2114 13.5616 16.9205C13.7889 16.6254 14.0125 16.3766 14.1779 16.2024C14.2615 16.1144 14.3323 16.0433 14.3841 15.9923L14.4783 15.9017C15.0541 15.3661 15.9459 15.3661 16.5217 15.9017L16.6159 15.9923C16.6677 16.0433 16.7385 16.1144 16.8221 16.2024C16.9875 16.3766 17.2111 16.6254 17.4384 16.9205C17.6624 17.2114 17.9125 17.5762 18.1118 17.9818C18.2245 18.2109 18.3382 18.4878 18.4132 18.7975C20.4864 18.1877 22 16.2706 22 14C22 12.8744 21.6281 11.8357 21.0004 11C20.0882 9.78555 18.6358 9 17 9C16.4547 9 15.9299 9.08728 15.4386 9.24864C14.8346 7.83717 13.7801 6.6644 12.4559 5.91117C11.4363 5.33124 10.2568 5 9 5C5.13401 5 2 8.13401 2 12C2 14.7051 3.53445 17.0519 5.78043 18.2173C5.81557 18.1342 5.85192 18.0555 5.88815 17.9818C6.0875 17.5762 6.33757 17.2114 6.56158 16.9205C6.78891 16.6254 7.01252 16.3766 7.17794 16.2024C7.26148 16.1144 7.33229 16.0433 7.38408 15.9923L7.47831 15.9017C8.05412 15.3661 8.94588 15.3661 9.52169 15.9017L9.61592 15.9923C9.66771 16.0433 9.73852 16.1144 9.82206 16.2024C9.98748 16.3766 10.2111 16.6254 10.4384 16.9205C10.6624 17.2114 10.9125 17.5762 11.1118 17.9818ZM10 19.5C10 20.6046 9.32843 21 8.5 21C7.67157 21 7 20.6046 7 19.5C7 18.3954 8.5 17 8.5 17C8.5 17 10 18.3954 10 19.5ZM15.5 21C16.3284 21 17 20.6046 17 19.5C17 18.3954 15.5 17 15.5 17C15.5 17 14 18.3954 14 19.5C14 20.6046 14.6716 21 15.5 21Z" fill="#28303F"/>
</svg>
