<svg width="24" height="24" viewBox="0 0 24 24" fill="none" xmlns="http://www.w3.org/2000/svg">
<path fill-rule="evenodd" clip-rule="evenodd" d="M15.75 2C15.75 1.58579 15.4142 1.25 15 1.25C14.5858 1.25 14.25 1.58579 14.25 2V3C14.25 3.41421 14.5858 3.75 15 3.75C15.4142 3.75 15.75 3.41421 15.75 3V2ZM20.48 4.58049C20.7729 4.2876 20.7729 3.81273 20.48 3.51983C20.1871 3.22694 19.7123 3.22694 19.4194 3.51983L18.7123 4.22694C18.4194 4.51983 18.4194 4.99471 18.7123 5.2876C19.0052 5.58049 19.48 5.58049 19.7729 5.2876L20.48 4.58049ZM22.75 9C22.75 9.41421 22.4142 9.75 22 9.75H21C20.5858 9.75 20.25 9.41421 20.25 9C20.25 8.58579 20.5858 8.25 21 8.25H22C22.4142 8.25 22.75 8.58579 22.75 9ZM15 5C17.1463 5 18.8978 6.69043 18.9957 8.81253C18.3653 8.60932 17.6941 8.5 17 8.5C16.7431 8.5 16.4894 8.51498 16.2396 8.54415C15.4568 7.27448 14.3497 6.22698 13.0331 5.5162C13.6139 5.18758 14.285 5 15 5ZM8.68341 17.6799L12.1159 13.5609C12.4153 13.2017 13 13.4134 13 13.881V16C13 16.2761 13.2239 16.5 13.5 16.5H14.9325C15.3564 16.5 15.588 16.9944 15.3166 17.3201L11.8841 21.4391C11.5847 21.7983 11 21.5866 11 21.119V19C11 18.7239 10.7761 18.5 10.5 18.5H9.06752C8.6436 18.5 8.41202 18.0056 8.68341 17.6799ZM2 13C2 16.2413 4.20297 18.968 7.19331 19.7646C6.95814 19.6146 6.76472 19.3991 6.6416 19.1362C6.39473 18.6092 6.47505 17.9868 6.84766 17.5397L11.8477 11.5397C12.252 11.0546 12.9168 10.8746 13.5106 11.0896C14.1044 11.3046 14.5 11.8685 14.5 12.5V15H16C16.582 15 17.1115 15.3367 17.3584 15.8638C17.6052 16.3908 17.5249 17.0132 17.1523 17.4603L15.0359 20H17C19.7614 20 22 17.7614 22 15C22 12.8639 20.6604 11.0406 18.7755 10.3244C18.2238 10.1148 17.6253 10 17 10C16.4547 10 15.9299 10.0873 15.4386 10.2486C14.7393 8.61449 13.4362 7.30031 11.8097 6.58672C10.9497 6.2094 9.99931 6 9 6C5.13401 6 2 9.13401 2 13Z" fill="#28303F"/>
</svg>
