<svg width="24" height="24" viewBox="0 0 24 24" fill="none" xmlns="http://www.w3.org/2000/svg">
<path fill-rule="evenodd" clip-rule="evenodd" d="M20.8318 9.74893C20.8958 9.79568 20.9589 9.84358 21.0211 9.8926C21.6363 9.06173 22.0001 8.03348 22.0001 6.92025C22.0001 6.67482 21.7325 6.53503 21.5052 6.62744C21.0406 6.81624 20.5325 6.92025 20.0001 6.92025C17.791 6.92025 16.0001 5.12939 16.0001 2.92025C16.0001 2.86457 16.0012 2.80915 16.0035 2.75402C16.0182 2.39432 15.7098 2.07483 15.3694 2.19219C13.9596 2.67834 12.8352 3.77733 12.3147 5.17081C12.428 5.21884 12.5401 5.26925 12.6509 5.322C14.1356 6.029 15.3822 7.15312 16.2397 8.54403C16.4895 8.51485 16.7432 8.49988 17.0001 8.49988C18.4306 8.49988 19.7572 8.96376 20.8318 9.74893ZM12 22.7499C12.4142 22.7499 12.75 22.4141 12.75 21.9999C12.75 21.5857 12.4142 21.2499 12 21.2499C11.5858 21.2499 11.25 21.5857 11.25 21.9999C11.25 22.4141 11.5858 22.7499 12 22.7499ZM12.75 18.9999C12.75 19.4141 12.4142 19.7499 12 19.7499C11.5858 19.7499 11.25 19.4141 11.25 18.9999C11.25 18.5857 11.5858 18.2499 12 18.2499C12.4142 18.2499 12.75 18.5857 12.75 18.9999ZM8.75 20.7499C9.16421 20.7499 9.5 20.4141 9.5 19.9999C9.5 19.5857 9.16421 19.2499 8.75 19.2499C8.33579 19.2499 8 19.5857 8 19.9999C8 20.4141 8.33579 20.7499 8.75 20.7499ZM16 19.9999C16 20.4141 15.6642 20.7499 15.25 20.7499C14.8358 20.7499 14.5 20.4141 14.5 19.9999C14.5 19.5857 14.8358 19.2499 15.25 19.2499C15.6642 19.2499 16 19.5857 16 19.9999ZM8.75 17.7499C9.16421 17.7499 9.5 17.4141 9.5 16.9999C9.5 16.5857 9.16421 16.2499 8.75 16.2499C8.33579 16.2499 8 16.5857 8 16.9999C8 17.4141 8.33579 17.7499 8.75 17.7499ZM16 16.9999C16 17.4141 15.6642 17.7499 15.25 17.7499C14.8358 17.7499 14.5 17.4141 14.5 16.9999C14.5 16.5857 14.8358 16.2499 15.25 16.2499C15.6642 16.2499 16 16.5857 16 16.9999ZM2 12.9999C2 16.0016 3.88933 18.562 6.54367 19.5568C6.62379 19.1558 6.81047 18.7934 7.07292 18.5001C6.71664 18.1021 6.5 17.5764 6.5 17.0001C6.5 15.7575 7.50736 14.7501 8.75 14.7501C9.98727 14.7501 10.9913 15.7488 10.9999 16.984C11.3012 16.8343 11.6408 16.7501 12 16.7501C12.3592 16.7501 12.6988 16.8343 13.0001 16.984C13.0087 15.7488 14.0127 14.7501 15.25 14.7501C16.4926 14.7501 17.5 15.7575 17.5 17.0001C17.5 17.5764 17.2834 18.1021 16.9271 18.5001C17.2782 18.8924 17.4937 19.4087 17.4999 19.9752C20.0266 19.7244 22 17.5926 22 14.9999C22 13.3403 21.1914 11.8695 19.9468 10.9601C19.1204 10.3563 18.1018 9.99988 17 9.99988C16.4547 9.99988 15.9299 10.0872 15.4386 10.2485C14.7677 8.68059 13.5408 7.40723 12.0058 6.67629C11.0951 6.24261 10.0759 5.99988 9 5.99988C5.13401 5.99988 2 9.13388 2 12.9999Z" fill="#28303F"/>
</svg>
