<svg width="24" height="24" viewBox="0 0 24 24" fill="none" xmlns="http://www.w3.org/2000/svg">
<path fill-rule="evenodd" clip-rule="evenodd" d="M21.0211 9.8926C20.9589 9.84358 20.8958 9.79568 20.8318 9.74893C19.7572 8.96376 18.4306 8.49988 17.0001 8.49988C16.7432 8.49988 16.4895 8.51485 16.2397 8.54403C15.3822 7.15312 14.1356 6.029 12.6509 5.322C12.5401 5.26925 12.428 5.21884 12.3147 5.17081C12.8352 3.77733 13.9596 2.67834 15.3694 2.19219C15.7098 2.07483 16.0182 2.39432 16.0035 2.75402C16.0012 2.80915 16.0001 2.86457 16.0001 2.92025C16.0001 5.12939 17.791 6.92025 20.0001 6.92025C20.5325 6.92025 21.0406 6.81624 21.5052 6.62744C21.7325 6.53503 22.0001 6.67482 22.0001 6.92025C22.0001 8.03348 21.6363 9.06173 21.0211 9.8926ZM3.66314 17.5298C2.62583 16.3089 2 14.7275 2 12.9999C2 9.13388 5.13401 5.99988 9 5.99988C10.0759 5.99988 11.0951 6.24261 12.0058 6.67629C13.5408 7.40723 14.7677 8.68059 15.4386 10.2485C15.9299 10.0872 16.4547 9.99988 17 9.99988C18.1018 9.99988 19.1204 10.3563 19.9468 10.9601C21.1914 11.8695 22 13.3403 22 14.9999C22 16.3989 21.4254 17.6637 20.4994 18.5712L20.4995 18.5606L20.4999 18.5322L20.5 18.5001C20.5 17.9041 20.3042 17.3734 20.1118 16.9819C19.9125 16.5763 19.6624 16.2115 19.4384 15.9207C19.2111 15.6255 18.9875 15.3767 18.8221 15.2025C18.7385 15.1145 18.6677 15.0434 18.6159 14.9925L18.5217 14.9019C17.9459 14.3662 17.0541 14.3662 16.4783 14.9019L16.3841 14.9925C16.3323 15.0434 16.2615 15.1145 16.1779 15.2025C16.0125 15.3767 15.7889 15.6255 15.5616 15.9207C15.3376 16.2115 15.0875 16.5763 14.8882 16.9819C14.6958 17.3734 14.5 17.9041 14.5 18.5001C14.5 18.596 14.5034 18.6915 14.5103 18.7863C14.3314 18.4589 14.1258 18.164 13.9384 17.9207C13.7111 17.6255 13.4875 17.3767 13.3221 17.2025C13.2385 17.1145 13.1677 17.0434 13.1159 16.9925L13.0217 16.9019C12.4459 16.3662 11.5541 16.3662 10.9783 16.9019L10.8841 16.9925C10.8323 17.0434 10.7615 17.1145 10.6779 17.2025C10.5125 17.3767 10.2889 17.6255 10.0616 17.9207C9.87422 18.164 9.66862 18.4589 9.48973 18.7863C9.49663 18.6915 9.5 18.596 9.5 18.5001C9.5 17.9041 9.30423 17.3734 9.11185 16.9819C8.9125 16.5763 8.66243 16.2115 8.43842 15.9207C8.21109 15.6255 7.98748 15.3767 7.82206 15.2025C7.73852 15.1145 7.66771 15.0434 7.61592 14.9925L7.52169 14.9019C6.94588 14.3662 6.05412 14.3662 5.47831 14.9019L5.38408 14.9925C5.33229 15.0434 5.26148 15.1145 5.17794 15.2025C5.01252 15.3767 4.78891 15.6255 4.56158 15.9207C4.33757 16.2115 4.0875 16.5763 3.88815 16.9819C3.80912 17.1428 3.72951 17.3271 3.66314 17.5298ZM12 21.9999C12.8284 21.9999 13.5 21.6044 13.5 20.4999C13.5 19.3953 12 17.9999 12 17.9999C12 17.9999 10.5 19.3953 10.5 20.4999C10.5 21.6044 11.1716 21.9999 12 21.9999ZM19 18.4999C19 19.6044 18.3284 19.9999 17.5 19.9999C16.6716 19.9999 16 19.6044 16 18.4999C16 17.3953 17.5 15.9999 17.5 15.9999C17.5 15.9999 19 17.3953 19 18.4999ZM6.5 19.9999C7.32843 19.9999 8 19.6044 8 18.4999C8 17.3953 6.5 15.9999 6.5 15.9999C6.5 15.9999 5 17.3953 5 18.4999C5 19.6044 5.67157 19.9999 6.5 19.9999Z" fill="#28303F"/>
</svg>
