<svg width="24" height="24" viewBox="0 0 24 24" fill="none" xmlns="http://www.w3.org/2000/svg">
<path fill-rule="evenodd" clip-rule="evenodd" d="M17 6.5C18.8757 6.5 20.5659 7.29573 21.7506 8.56367C21.9125 8.07174 22 7.5461 22 7C22 4.23858 19.7614 2 17 2C15.5242 2 14.1977 2.6394 13.2825 3.6563C14.4893 4.36129 15.5065 5.35509 16.2396 6.54415C16.4894 6.51498 16.7431 6.5 17 6.5ZM8.11589 13.0609L4.68341 17.1799C4.41202 17.5056 4.6436 18 5.06752 18H6.5C6.77614 18 7 18.2239 7 18.5V20.619C7 21.0866 7.58473 21.2983 7.88411 20.9391L11.3166 16.8201C11.588 16.4944 11.3564 16 10.9325 16H9.5C9.22386 16 9 15.7761 9 15.5V13.381C9 12.9134 8.41527 12.7017 8.11589 13.0609ZM17.5 20.5C17.5 21.6046 16.8284 22 16 22C15.1716 22 14.5 21.6046 14.5 20.5C14.5 19.3954 16 18 16 18C16 18 17.5 19.3954 17.5 20.5ZM12.4689 17.7803L12.2858 18H14.0012C14.0215 17.9729 14.0416 17.9465 14.0616 17.9205C14.2889 17.6254 14.5125 17.3766 14.6779 17.2024C14.7615 17.1144 14.8323 17.0433 14.8841 16.9923L14.9783 16.9017C15.5541 16.3661 16.4459 16.3661 17.0217 16.9017L17.1159 16.9923C17.1677 17.0433 17.2385 17.1144 17.3221 17.2024C17.4861 17.3751 17.7074 17.6212 17.9327 17.9132C20.2484 17.4762 22 15.4427 22 13C22 11.8744 21.6281 10.8357 21.0004 10C20.0882 8.78555 18.6358 8 17 8C16.4547 8 15.9299 8.08728 15.4386 8.24864C14.8346 6.83717 13.7801 5.6644 12.4559 4.91117C11.4363 4.33124 10.2568 4 9 4C5.13401 4 2 7.13401 2 11C2 12.8512 2.71859 14.5346 3.89206 15.7864L6.96355 12.1006C8.16107 10.6635 10.5 11.5103 10.5 13.3809V14.4999H10.9325C12.6281 14.4999 13.5545 16.4776 12.4689 17.7803Z" fill="#28303F"/>
</svg>
