<svg width="24" height="24" viewBox="0 0 24 24" fill="none" xmlns="http://www.w3.org/2000/svg">
<path fill-rule="evenodd" clip-rule="evenodd" d="M4.6694 14.5C3.04367 13.2182 2 11.231 2 9C2 5.13401 5.13401 2 9 2C11.8892 2 14.3696 3.75042 15.4386 6.24864C15.9299 6.08728 16.4547 6 17 6C19.7614 6 22 8.23858 22 11C22 13.7614 19.7614 16 17 16H11.75C12.9926 16 14 14.9926 14 13.75C14 12.5074 12.9926 11.5 11.75 11.5H11.25C10.8358 11.5 10.5 11.8358 10.5 12.25C10.5 12.6642 10.8358 13 11.25 13H11.75C12.1642 13 12.5 13.3358 12.5 13.75C12.5 14.1642 12.1642 14.5 11.75 14.5H4.6694ZM17.25 21C17.25 21.4142 17.5858 21.75 18 21.75H18.5C19.7426 21.75 20.75 20.7426 20.75 19.5C20.75 18.2574 19.7426 17.25 18.5 17.25H12C11.5858 17.25 11.25 17.5858 11.25 18C11.25 18.4142 11.5858 18.75 12 18.75H18.5C18.9142 18.75 19.25 19.0858 19.25 19.5C19.25 19.9142 18.9142 20.25 18.5 20.25H18C17.5858 20.25 17.25 20.5858 17.25 21ZM7 17.25C6.58579 17.25 6.25 17.5858 6.25 18C6.25 18.4142 6.58579 18.75 7 18.75H9C9.41421 18.75 9.75 18.4142 9.75 18C9.75 17.5858 9.41421 17.25 9 17.25H7Z" fill="#28303F"/>
</svg>
