<svg width="24" height="24" viewBox="0 0 24 24" fill="none" xmlns="http://www.w3.org/2000/svg">
<path fill-rule="evenodd" clip-rule="evenodd" d="M21.7506 9.56367C20.5659 8.29573 18.8757 7.5 17 7.5C16.7431 7.5 16.4894 7.51498 16.2396 7.54415C15.5065 6.35509 14.4893 5.36129 13.2825 4.6563C14.1977 3.6394 15.5242 3 17 3C19.7614 3 22 5.23858 22 8C22 8.5461 21.9125 9.07174 21.7506 9.56367ZM12 18.75C12.4142 18.75 12.75 18.4142 12.75 18C12.75 17.5858 12.4142 17.25 12 17.25C11.5858 17.25 11.25 17.5858 11.25 18C11.25 18.4142 11.5858 18.75 12 18.75ZM12 21.75C12.4142 21.75 12.75 21.4142 12.75 21C12.75 20.5858 12.4142 20.25 12 20.25C11.5858 20.25 11.25 20.5858 11.25 21C11.25 21.4142 11.5858 21.75 12 21.75ZM2 12C2 15.0017 3.88931 17.5621 6.54362 18.5569C6.62372 18.1559 6.81042 17.7933 7.07292 17.5C6.71664 17.1019 6.5 16.5763 6.5 16C6.5 14.7574 7.50736 13.75 8.75 13.75C9.98727 13.75 10.9913 14.7487 10.9999 15.9839C11.3012 15.8342 11.6408 15.75 12 15.75C12.3592 15.75 12.6988 15.8342 13.0001 15.9839C13.0087 14.7487 14.0127 13.75 15.25 13.75C16.4926 13.75 17.5 14.7574 17.5 16C17.5 16.5763 17.2834 17.1019 16.9271 17.5C17.2783 17.8924 17.4938 18.4087 17.4999 18.9753C20.0266 18.7245 22 16.5927 22 14C22 12.8744 21.6281 11.8357 21.0004 11C20.0882 9.78555 18.6358 9 17 9C16.4547 9 15.9299 9.08728 15.4386 9.24864C14.8346 7.83717 13.7801 6.6644 12.4559 5.91117C11.4363 5.33124 10.2568 5 9 5C5.13401 5 2 8.13401 2 12ZM9.5 19C9.5 19.4142 9.16421 19.75 8.75 19.75C8.33579 19.75 8 19.4142 8 19C8 18.5858 8.33579 18.25 8.75 18.25C9.16421 18.25 9.5 18.5858 9.5 19ZM15.25 19.75C15.6642 19.75 16 19.4142 16 19C16 18.5858 15.6642 18.25 15.25 18.25C14.8358 18.25 14.5 18.5858 14.5 19C14.5 19.4142 14.8358 19.75 15.25 19.75ZM9.5 16C9.5 16.4142 9.16421 16.75 8.75 16.75C8.33579 16.75 8 16.4142 8 16C8 15.5858 8.33579 15.25 8.75 15.25C9.16421 15.25 9.5 15.5858 9.5 16ZM15.25 16.75C15.6642 16.75 16 16.4142 16 16C16 15.5858 15.6642 15.25 15.25 15.25C14.8358 15.25 14.5 15.5858 14.5 16C14.5 16.4142 14.8358 16.75 15.25 16.75Z" fill="#28303F"/>
</svg>
