<svg width="24" height="24" viewBox="0 0 24 24" fill="none" xmlns="http://www.w3.org/2000/svg">
<path fill-rule="evenodd" clip-rule="evenodd" d="M15 1.25C15.4142 1.25 15.75 1.58579 15.75 2V3C15.75 3.41421 15.4142 3.75 15 3.75C14.5858 3.75 14.25 3.41421 14.25 3V2C14.25 1.58579 14.5858 1.25 15 1.25ZM11.1118 18.9818C11.2485 19.2598 11.3868 19.608 11.4555 20H12.5445C12.6132 19.608 12.7515 19.2598 12.8882 18.9818C13.0875 18.5762 13.3376 18.2114 13.5616 17.9205C13.7889 17.6254 14.0125 17.3766 14.1779 17.2024C14.2615 17.1144 14.3323 17.0433 14.3841 16.9923L14.4783 16.9017C15.0541 16.3661 15.9459 16.3661 16.5217 16.9017L16.6159 16.9923C16.6677 17.0433 16.7385 17.1144 16.8221 17.2024C16.9875 17.3766 17.2111 17.6254 17.4384 17.9205C17.6624 18.2114 17.9125 18.5762 18.1118 18.9818C18.2245 19.2109 18.3382 19.4878 18.4132 19.7975C20.4864 19.1877 22 17.2706 22 15C22 12.8639 20.6604 11.0406 18.7755 10.3244C18.2238 10.1148 17.6253 10 17 10C16.4547 10 15.9299 10.0873 15.4386 10.2486C14.7393 8.61449 13.4362 7.30031 11.8097 6.58672C10.9497 6.2094 9.99931 6 9 6C5.13401 6 2 9.13401 2 13C2 15.7051 3.53445 18.0519 5.78043 19.2173C5.81557 19.1342 5.85192 19.0555 5.88815 18.9818C6.0875 18.5762 6.33757 18.2114 6.56158 17.9205C6.78891 17.6254 7.01252 17.3766 7.17794 17.2024C7.26148 17.1144 7.33229 17.0433 7.38408 16.9923L7.47831 16.9017C8.05412 16.3661 8.94588 16.3661 9.52169 16.9017L9.61592 16.9923C9.66771 17.0433 9.73852 17.1144 9.82206 17.2024C9.98748 17.3766 10.2111 17.6254 10.4384 17.9205C10.6624 18.2114 10.9125 18.5762 11.1118 18.9818ZM10 20.5C10 21.6046 9.32843 22 8.5 22C7.67157 22 7 21.6046 7 20.5C7 19.3954 8.5 18 8.5 18C8.5 18 10 19.3954 10 20.5ZM17 20.5C17 21.6046 16.3284 22 15.5 22C14.6716 22 14 21.6046 14 20.5C14 19.3954 15.5 18 15.5 18C15.5 18 17 19.3954 17 20.5ZM20.48 4.58049C20.7729 4.2876 20.7729 3.81273 20.48 3.51983C20.1871 3.22694 19.7123 3.22694 19.4194 3.51983L18.7123 4.22694C18.4194 4.51983 18.4194 4.99471 18.7123 5.2876C19.0052 5.58049 19.48 5.58049 19.7729 5.2876L20.48 4.58049ZM22.75 9C22.75 9.41421 22.4142 9.75 22 9.75H21C20.5858 9.75 20.25 9.41421 20.25 9C20.25 8.58579 20.5858 8.25 21 8.25H22C22.4142 8.25 22.75 8.58579 22.75 9ZM15 5C17.1463 5 18.8978 6.69043 18.9957 8.81253C18.3653 8.60932 17.6941 8.5 17 8.5C16.7431 8.5 16.4894 8.51498 16.2396 8.54415C15.4568 7.27448 14.3497 6.22698 13.0331 5.5162C13.6139 5.18758 14.285 5 15 5Z" fill="#28303F"/>
</svg>
