<svg width="24" height="24" viewBox="0 0 24 24" fill="none" xmlns="http://www.w3.org/2000/svg">
<path fill-rule="evenodd" clip-rule="evenodd" d="M14.75 3C14.75 2.58579 14.4142 2.25 14 2.25C13.5858 2.25 13.25 2.58579 13.25 3V4C13.25 4.41421 13.5858 4.75 14 4.75C14.4142 4.75 14.75 4.41421 14.75 4V3ZM19.48 5.58049C19.7729 5.2876 19.7729 4.81273 19.48 4.51983C19.1871 4.22694 18.7123 4.22694 18.4194 4.51983L17.7123 5.22694C17.4194 5.51983 17.4194 5.99471 17.7123 6.2876C18.0052 6.58049 18.48 6.58049 18.7729 6.2876L19.48 5.58049ZM21.75 10C21.75 10.4142 21.4142 10.75 21 10.75H20C19.5858 10.75 19.25 10.4142 19.25 10C19.25 9.58579 19.5858 9.25 20 9.25H21C21.4142 9.25 21.75 9.58579 21.75 10ZM14.0001 6C16.1464 6 17.8979 7.69043 17.9958 9.81253C17.3654 9.60932 16.6942 9.5 16.0001 9.5C15.7433 9.5 15.4895 9.51498 15.2397 9.54415C14.4569 8.27448 13.3499 7.22698 12.0332 6.5162C12.614 6.18758 13.2852 6 14.0001 6ZM8 21C4.13401 21 1 17.866 1 14C1 10.134 4.13401 7 8 7C8.99931 7 9.94972 7.2094 10.8097 7.58672C12.4362 8.30031 13.7393 9.61449 14.4386 11.2486C14.9299 11.0873 15.4547 11 16 11C16.6253 11 17.2238 11.1148 17.7755 11.3244C19.6604 12.0406 21 13.8639 21 16C21 18.7614 18.7614 21 16 21H13.9555C13.8868 20.608 13.7485 20.2598 13.6118 19.9818C13.4125 19.5762 13.1624 19.2114 12.9384 18.9205C12.7111 18.6254 12.4875 18.3766 12.3221 18.2024C12.2385 18.1144 12.1677 18.0433 12.1159 17.9923L12.0217 17.9017C11.4459 17.3661 10.5541 17.3661 9.97831 17.9017L9.88408 17.9923C9.83229 18.0433 9.76148 18.1144 9.67794 18.2024C9.51252 18.3766 9.28891 18.6254 9.06158 18.9205C8.83757 19.2114 8.5875 19.5762 8.38815 19.9818C8.25153 20.2598 8.1132 20.608 8.04449 21H8ZM11 23C11.8284 23 12.5 22.6046 12.5 21.5C12.5 20.3954 11 19 11 19C11 19 9.5 20.3954 9.5 21.5C9.5 22.6046 10.1716 23 11 23Z" fill="#28303F"/>
</svg>
