<svg width="24" height="24" viewBox="0 0 24 24" fill="none" xmlns="http://www.w3.org/2000/svg">
<path fill-rule="evenodd" clip-rule="evenodd" d="M2 11C2 14.0017 3.88931 16.5621 6.54362 17.5569C6.62372 17.1559 6.81042 16.7933 7.07292 16.5C6.71664 16.1019 6.5 15.5763 6.5 15C6.5 13.7574 7.50736 12.75 8.75 12.75C9.98727 12.75 10.9913 13.7487 10.9999 14.9839C11.3012 14.8342 11.6408 14.75 12 14.75C12.3592 14.75 12.6988 14.8342 13.0001 14.9839C13.0087 13.7487 14.0127 12.75 15.25 12.75C16.4926 12.75 17.5 13.7574 17.5 15C17.5 15.5763 17.2834 16.1019 16.9271 16.5C17.2783 16.8924 17.4938 17.4087 17.4999 17.9753C20.0266 17.7245 22 15.5927 22 13C22 10.2386 19.7614 8 17 8C16.4547 8 15.9299 8.08728 15.4386 8.24864C14.3696 5.75042 11.8892 4 9 4C5.13401 4 2 7.13401 2 11ZM8.75 15.75C9.16421 15.75 9.5 15.4142 9.5 15C9.5 14.5858 9.16421 14.25 8.75 14.25C8.33579 14.25 8 14.5858 8 15C8 15.4142 8.33579 15.75 8.75 15.75ZM12.75 17C12.75 17.4142 12.4142 17.75 12 17.75C11.5858 17.75 11.25 17.4142 11.25 17C11.25 16.5858 11.5858 16.25 12 16.25C12.4142 16.25 12.75 16.5858 12.75 17ZM12.75 20C12.75 20.4142 12.4142 20.75 12 20.75C11.5858 20.75 11.25 20.4142 11.25 20C11.25 19.5858 11.5858 19.25 12 19.25C12.4142 19.25 12.75 19.5858 12.75 20ZM8.75 18.75C9.16421 18.75 9.5 18.4142 9.5 18C9.5 17.5858 9.16421 17.25 8.75 17.25C8.33579 17.25 8 17.5858 8 18C8 18.4142 8.33579 18.75 8.75 18.75ZM16 18C16 18.4142 15.6642 18.75 15.25 18.75C14.8358 18.75 14.5 18.4142 14.5 18C14.5 17.5858 14.8358 17.25 15.25 17.25C15.6642 17.25 16 17.5858 16 18ZM16 15C16 15.4142 15.6642 15.75 15.25 15.75C14.8358 15.75 14.5 15.4142 14.5 15C14.5 14.5858 14.8358 14.25 15.25 14.25C15.6642 14.25 16 14.5858 16 15Z" fill="#28303F"/>
</svg>
