<svg width="24" height="24" viewBox="0 0 24 24" fill="none" xmlns="http://www.w3.org/2000/svg">
<path fill-rule="evenodd" clip-rule="evenodd" d="M21.021 9.8926C20.9588 9.84358 20.8957 9.79568 20.8317 9.74893C19.7571 8.96376 18.4305 8.49988 17 8.49988C16.7431 8.49988 16.4894 8.51485 16.2396 8.54403C15.382 7.15312 14.1354 6.029 12.6507 5.322C12.54 5.26925 12.4279 5.21884 12.3146 5.17081C12.8351 3.77733 13.9595 2.67834 15.3693 2.19219C15.7097 2.07483 16.0181 2.39432 16.0034 2.75402C16.0011 2.80915 16 2.86457 16 2.92025C16 5.12939 17.7908 6.92025 20 6.92025C20.5324 6.92025 21.0405 6.81624 21.5051 6.62744C21.7324 6.53503 22 6.67482 22 6.92025C22 8.03348 21.6362 9.06173 21.021 9.8926ZM8.68341 18.1798L12.1159 14.0608C12.4153 13.7016 13 13.9133 13 14.3809V16.4999C13 16.776 13.2239 16.9999 13.5 16.9999H14.9325C15.3564 16.9999 15.588 17.4943 15.3166 17.82L11.8841 21.9389C11.5847 22.2982 11 22.0865 11 21.6189V19.4999C11 19.2237 10.7761 18.9999 10.5 18.9999H9.06752C8.6436 18.9999 8.41202 18.5054 8.68341 18.1798ZM2 12.9999C2 16.3856 4.40366 19.2099 7.5976 19.8594C6.96623 19.1684 6.83473 18.055 7.53107 17.2194L10.9636 13.1004C12.1611 11.6634 14.5 12.5102 14.5 14.3808V15.4998H14.9325C16.6281 15.4998 17.5545 17.4775 16.4689 18.7802L15.4525 19.9999H17C19.7614 19.9999 22 17.7613 22 14.9999C22 13.3403 21.1914 11.8695 19.9468 10.9601C19.1204 10.3563 18.1018 9.99988 17 9.99988C16.4547 9.99988 15.9299 10.0872 15.4386 10.2485C14.7677 8.68059 13.5408 7.40723 12.0058 6.67629C11.0951 6.24261 10.0759 5.99988 9 5.99988C5.13401 5.99988 2 9.13388 2 12.9999Z" fill="#28303F"/>
</svg>
