<svg width="24" height="24" viewBox="0 0 24 24" fill="none" xmlns="http://www.w3.org/2000/svg">
<path fill-rule="evenodd" clip-rule="evenodd" d="M2 11C2 14.866 5.13401 18 9 18H9.04449C9.1132 17.608 9.25153 17.2598 9.38815 16.9818C9.5875 16.5762 9.83757 16.2114 10.0616 15.9205C10.2889 15.6254 10.5125 15.3766 10.6779 15.2024C10.7615 15.1144 10.8323 15.0433 10.8841 14.9923L10.9783 14.9017C11.5541 14.3661 12.4459 14.3661 13.0217 14.9017L13.1159 14.9923C13.1677 15.0433 13.2385 15.1144 13.3221 15.2024C13.4875 15.3766 13.7111 15.6254 13.9384 15.9205C14.1624 16.2114 14.4125 16.5762 14.6118 16.9818C14.7485 17.2598 14.8868 17.608 14.9555 18H17C19.7614 18 22 15.7614 22 13C22 10.2386 19.7614 8 17 8C16.4547 8 15.9299 8.08728 15.4386 8.24864C14.3696 5.75042 11.8892 4 9 4C5.13401 4 2 7.13401 2 11ZM12 20C12.8284 20 13.5 19.6046 13.5 18.5C13.5 17.3954 12 16 12 16C12 16 10.5 17.3954 10.5 18.5C10.5 19.6046 11.1716 20 12 20Z" fill="#28303F"/>
</svg>
