<svg width="24" height="24" viewBox="0 0 24 24" fill="none" xmlns="http://www.w3.org/2000/svg">
<path fill-rule="evenodd" clip-rule="evenodd" d="M15.4386 11.2485C15.9299 11.0872 16.4547 10.9999 17 10.9999C18.1018 10.9999 19.1204 11.3563 19.9468 11.9601C21.1914 11.0506 22 9.57985 22 7.92025C22 7.67482 21.7325 7.53503 21.5051 7.62744C21.0405 7.81624 20.5324 7.92025 20 7.92025C17.7909 7.92025 16 6.12939 16 3.92025C16 3.86457 16.0011 3.80915 16.0034 3.75402C16.0181 3.39432 15.7097 3.07483 15.3694 3.19219C13.4818 3.84306 12.106 5.59242 12.0059 7.67628C13.5408 8.40722 14.7677 9.68059 15.4386 11.2485ZM9 8.49988C5.96243 8.49988 3.5 10.9623 3.5 13.9999C3.5 17.0374 5.96243 19.4999 9 19.4999H17C18.933 19.4999 20.5 17.9329 20.5 15.9999C20.5 14.8392 19.9366 13.8104 19.0618 13.1712C18.4837 12.7488 17.7731 12.4999 17 12.4999C16.6157 12.4999 16.2487 12.5613 15.9066 12.6736C15.1675 12.9164 14.3655 12.5538 14.0595 11.8386C13.5326 10.6072 12.5673 9.60504 11.361 9.03058C10.6474 8.69079 9.84809 8.49988 9 8.49988Z" fill="#28303F"/>
</svg>
