<svg width="24" height="24" viewBox="0 0 24 24" fill="none" xmlns="http://www.w3.org/2000/svg">
<path fill-rule="evenodd" clip-rule="evenodd" d="M17 6.5C18.8757 6.5 20.5659 7.29573 21.7506 8.56367C21.9125 8.07174 22 7.5461 22 7C22 4.23858 19.7614 2 17 2C15.5242 2 14.1977 2.6394 13.2825 3.6563C14.4893 4.36129 15.5065 5.35509 16.2396 6.54415C16.4894 6.51498 16.7431 6.5 17 6.5ZM10 17.5C10 17.6684 9.98961 17.8356 9.96792 18H10.0012C10.0215 17.9729 10.0416 17.9465 10.0616 17.9205C10.2889 17.6254 10.5125 17.3766 10.6779 17.2024C10.7615 17.1144 10.8323 17.0433 10.8841 16.9923L10.9783 16.9017C11.5541 16.3661 12.4459 16.3661 13.0217 16.9017L13.1159 16.9923C13.1677 17.0433 13.2385 17.1144 13.3221 17.2024C13.4875 17.3766 13.7111 17.6254 13.9384 17.9205C13.9584 17.9465 13.9785 17.9729 13.9988 18H14.0321C14.0104 17.8356 14 17.6684 14 17.5C14 16.904 14.1958 16.3733 14.3882 15.9818C14.5875 15.5762 14.8376 15.2114 15.0616 14.9205C15.2889 14.6254 15.5125 14.3766 15.6779 14.2024C15.7615 14.1144 15.8323 14.0433 15.8841 13.9923L15.9783 13.9017C16.5541 13.3661 17.4459 13.3661 18.0217 13.9017L18.1159 13.9923C18.1677 14.0433 18.2385 14.1144 18.3221 14.2024C18.4875 14.3766 18.7111 14.6254 18.9384 14.9205C19.1624 15.2114 19.4125 15.5762 19.6118 15.9818C19.7519 16.2668 19.8938 16.6256 19.9606 17.0297C21.1974 16.1195 22 14.6535 22 13C22 11.8744 21.6281 10.8357 21.0004 10C20.0882 8.78555 18.6358 8 17 8C16.4547 8 15.9299 8.08728 15.4386 8.24864C14.8346 6.83717 13.7801 5.6644 12.4559 4.91117C11.4363 4.33124 10.2568 4 9 4C5.13401 4 2 7.13401 2 11C2 13.0546 2.88522 14.9025 4.29507 16.1831C4.32562 16.1125 4.35693 16.0453 4.38815 15.9818C4.5875 15.5762 4.83757 15.2114 5.06158 14.9205C5.28891 14.6254 5.51252 14.3766 5.67794 14.2024C5.76148 14.1144 5.83229 14.0433 5.88408 13.9923L5.97831 13.9017C6.55412 13.3661 7.44588 13.3661 8.02169 13.9017L8.11592 13.9923C8.16771 14.0433 8.23852 14.1144 8.32206 14.2024C8.48748 14.3766 8.71109 14.6254 8.93842 14.9205C9.16243 15.2114 9.4125 15.5762 9.61185 15.9818C9.80423 16.3733 10 16.904 10 17.5ZM7 19C7.82843 19 8.5 18.6046 8.5 17.5C8.5 16.3954 7 15 7 15C7 15 5.5 16.3954 5.5 17.5C5.5 18.6046 6.17157 19 7 19ZM18.5 17.5C18.5 18.6046 17.8284 19 17 19C16.1716 19 15.5 18.6046 15.5 17.5C15.5 16.3954 17 15 17 15C17 15 18.5 16.3954 18.5 17.5ZM13.5 20.5C13.5 21.6046 12.8284 22 12 22C11.1716 22 10.5 21.6046 10.5 20.5C10.5 19.3954 12 18 12 18C12 18 13.5 19.3954 13.5 20.5Z" fill="#28303F"/>
</svg>
