<svg width="24" height="24" viewBox="0 0 24 24" fill="none" xmlns="http://www.w3.org/2000/svg">
<path fill-rule="evenodd" clip-rule="evenodd" d="M21.7506 8.56367C20.5659 7.29573 18.8757 6.5 17 6.5C16.7431 6.5 16.4894 6.51498 16.2396 6.54415C15.5065 5.35509 14.4893 4.36129 13.2825 3.6563C14.1977 2.6394 15.5242 2 17 2C19.7614 2 22 4.23858 22 7C22 7.5461 21.9125 8.07174 21.7506 8.56367ZM8.68341 17.1799L12.1159 13.0609C12.4153 12.7017 13 12.9134 13 13.381V15.5C13 15.7761 13.2239 16 13.5 16H14.9325C15.3564 16 15.588 16.4944 15.3166 16.8201L11.8841 20.9391C11.5847 21.2983 11 21.0866 11 20.619V18.5C11 18.2239 10.7761 18 10.5 18H9.06752C8.6436 18 8.41202 17.5056 8.68341 17.1799ZM2 11C2 14.1997 4.14685 16.898 7.07871 17.733C7.01567 17.2221 7.14829 16.6789 7.53107 16.2195L10.9636 12.1006C12.1611 10.6635 14.5 11.5103 14.5 13.3809V14.4999H14.9325C16.6281 14.4999 17.5545 16.4776 16.4689 17.7803L16.2858 18H17C19.7614 18 22 15.7614 22 13C22 11.8744 21.6281 10.8357 21.0004 10C20.0882 8.78555 18.6358 8 17 8C16.4547 8 15.9299 8.08728 15.4386 8.24864C14.8346 6.83717 13.7801 5.6644 12.4559 4.91117C11.4363 4.33124 10.2568 4 9 4C5.13401 4 2 7.13401 2 11Z" fill="#28303F"/>
</svg>
