<svg width="24" height="24" viewBox="0 0 24 24" fill="none" xmlns="http://www.w3.org/2000/svg">
<path fill-rule="evenodd" clip-rule="evenodd" d="M2 10C2 12.2272 3.04018 14.2115 4.66125 15.4936C4.7935 15.2821 4.93191 15.0889 5.06158 14.9205C5.28891 14.6254 5.51252 14.3766 5.67794 14.2024C5.76148 14.1144 5.83229 14.0433 5.88408 13.9923L5.97831 13.9017C6.55412 13.3661 7.44588 13.3661 8.02169 13.9017L8.11592 13.9923C8.16771 14.0433 8.23852 14.1144 8.32206 14.2024C8.48748 14.3766 8.71109 14.6254 8.93842 14.9205C9.16243 15.2114 9.4125 15.5762 9.61185 15.9818C9.74847 16.2598 9.8868 16.608 9.95551 17H10.0012C10.0215 16.9729 10.0416 16.9465 10.0616 16.9205C10.2889 16.6254 10.5125 16.3766 10.6779 16.2024C10.7615 16.1144 10.8323 16.0433 10.8841 15.9923L10.9783 15.9017C11.5541 15.3661 12.4459 15.3661 13.0217 15.9017L13.1159 15.9923C13.1677 16.0433 13.2385 16.1144 13.3221 16.2024C13.4875 16.3766 13.7111 16.6254 13.9384 16.9205C13.9584 16.9465 13.9785 16.9729 13.9988 17H14.0445C14.1132 16.608 14.2515 16.2598 14.3882 15.9818C14.5875 15.5762 14.8376 15.2114 15.0616 14.9205C15.2889 14.6254 15.5125 14.3766 15.6779 14.2024C15.7615 14.1144 15.8323 14.0433 15.8841 13.9923L15.9783 13.9017C16.5541 13.3661 17.4459 13.3661 18.0217 13.9017L18.1159 13.9923C18.1677 14.0433 18.2385 14.1144 18.3221 14.2024C18.4875 14.3766 18.7111 14.6254 18.9384 14.9205C19.1624 15.2114 19.4125 15.5762 19.6118 15.9818C19.6457 16.0507 19.6796 16.1238 19.7126 16.2009C21.0891 15.3103 22 13.7615 22 12C22 9.23858 19.7614 7 17 7C16.4547 7 15.9299 7.08728 15.4386 7.24864C14.3696 4.75042 11.8892 3 9 3C5.13401 3 2 6.13401 2 10ZM7 19C7.82843 19 8.5 18.6046 8.5 17.5C8.5 16.3954 7 15 7 15C7 15 5.5 16.3954 5.5 17.5C5.5 18.6046 6.17157 19 7 19ZM18.5 17.5C18.5 18.6046 17.8284 19 17 19C16.1716 19 15.5 18.6046 15.5 17.5C15.5 16.3954 17 15 17 15C17 15 18.5 16.3954 18.5 17.5ZM12 21C12.8284 21 13.5 20.6046 13.5 19.5C13.5 18.3954 12 17 12 17C12 17 10.5 18.3954 10.5 19.5C10.5 20.6046 11.1716 21 12 21Z" fill="#28303F"/>
</svg>
