<svg width="24" height="24" viewBox="0 0 24 24" fill="none" xmlns="http://www.w3.org/2000/svg">
<path fill-rule="evenodd" clip-rule="evenodd" d="M13.2824 5.65627C14.4892 6.36126 15.5065 7.35507 16.2396 8.54415C16.4894 8.51498 16.7431 8.5 17 8.5C18.8757 8.5 20.5658 9.29569 21.7506 10.5636C21.9124 10.0717 21.9999 9.54607 21.9999 9C21.9999 6.23858 19.7613 4 16.9999 4C15.5241 4 14.1976 4.63939 13.2824 5.65627ZM3.5 13C3.5 9.96243 5.96243 7.5 9 7.5C9.99004 7.5 10.9148 7.76025 11.7143 8.21501C12.7559 8.80749 13.5854 9.73058 14.0595 10.8387C14.3655 11.5539 15.1675 11.9165 15.9066 11.6737C16.2487 11.5614 16.6157 11.5 17 11.5C18.1441 11.5 19.1599 12.0474 19.801 12.9009C20.2403 13.4857 20.5 14.2104 20.5 15C20.5 16.933 18.933 18.5 17 18.5H9C5.96243 18.5 3.5 16.0376 3.5 13Z" fill="#28303F"/>
</svg>
