<svg width="24" height="24" viewBox="0 0 24 24" fill="none" xmlns="http://www.w3.org/2000/svg">
<path fill-rule="evenodd" clip-rule="evenodd" d="M15 2.25C15.4142 2.25 15.75 2.58579 15.75 3V4C15.75 4.41421 15.4142 4.75 15 4.75C14.5858 4.75 14.25 4.41421 14.25 4V3C14.25 2.58579 14.5858 2.25 15 2.25ZM2 14C2 17.866 5.13401 21 9 21H17C19.7614 21 22 18.7614 22 16C22 13.8639 20.6604 12.0406 18.7755 11.3244C18.2238 11.1148 17.6253 11 17 11C16.4547 11 15.9299 11.0873 15.4386 11.2486C14.7393 9.61449 13.4362 8.30031 11.8097 7.58672C10.9497 7.2094 9.99931 7 9 7C5.13401 7 2 10.134 2 14ZM20.48 5.58049C20.7729 5.2876 20.7729 4.81273 20.48 4.51983C20.1871 4.22694 19.7123 4.22694 19.4194 4.51983L18.7123 5.22694C18.4194 5.51983 18.4194 5.99471 18.7123 6.2876C19.0052 6.58049 19.48 6.58049 19.7729 6.2876L20.48 5.58049ZM22.75 10C22.75 10.4142 22.4142 10.75 22 10.75H21C20.5858 10.75 20.25 10.4142 20.25 10C20.25 9.58579 20.5858 9.25 21 9.25H22C22.4142 9.25 22.75 9.58579 22.75 10ZM15 6C17.1463 6 18.8978 7.69043 18.9957 9.81253C18.3653 9.60932 17.6941 9.5 17 9.5C16.7431 9.5 16.4894 9.51498 16.2396 9.54415C15.4568 8.27448 14.3497 7.22698 13.0331 6.5162C13.6139 6.18758 14.285 6 15 6Z" fill="#28303F"/>
</svg>
