<svg width="24" height="24" viewBox="0 0 24 24" fill="none" xmlns="http://www.w3.org/2000/svg">
<path fill-rule="evenodd" clip-rule="evenodd" d="M15.75 2C15.75 1.58579 15.4142 1.25 15 1.25C14.5858 1.25 14.25 1.58579 14.25 2V3C14.25 3.41421 14.5858 3.75 15 3.75C15.4142 3.75 15.75 3.41421 15.75 3V2ZM12.6964 17.2785C12.8502 16.8939 12.6632 16.4574 12.2786 16.3036C11.894 16.1498 11.4575 16.3368 11.3037 16.7214L9.30368 21.7214C9.14985 22.106 9.33691 22.5425 9.7215 22.6963C10.1061 22.8501 10.5426 22.6631 10.6964 22.2785L12.6964 17.2785ZM8.67086 17.3354C8.8561 16.9649 8.70594 16.5144 8.33545 16.3291C7.96497 16.1439 7.51446 16.2941 7.32922 16.6645L6.32922 18.6645C6.14398 19.035 6.29415 19.4855 6.66463 19.6708C7.03512 19.856 7.48562 19.7058 7.67086 19.3354L8.67086 17.3354ZM16.6709 17.3354C16.8561 16.9649 16.7059 16.5144 16.3355 16.3291C15.965 16.1439 15.5145 16.2941 15.3292 16.6645L14.3292 18.6645C14.144 19.035 14.2941 19.4855 14.6646 19.6708C15.0351 19.856 15.4856 19.7058 15.6709 19.3354L16.6709 17.3354ZM20.48 3.51983C20.7729 3.81273 20.7729 4.2876 20.48 4.58049L19.7729 5.2876C19.48 5.58049 19.0052 5.58049 18.7123 5.2876C18.4194 4.99471 18.4194 4.51983 18.7123 4.22694L19.4194 3.51983C19.7123 3.22694 20.1871 3.22694 20.48 3.51983ZM22 9.75C22.4142 9.75 22.75 9.41421 22.75 9C22.75 8.58579 22.4142 8.25 22 8.25H21C20.5858 8.25 20.25 8.58579 20.25 9C20.25 9.41421 20.5858 9.75 21 9.75H22ZM18.9957 8.81253C18.8978 6.69043 17.1463 5 15 5C14.285 5 13.6139 5.18758 13.0331 5.5162C14.3497 6.22698 15.4568 7.27448 16.2396 8.54415C16.4894 8.51498 16.7431 8.5 17 8.5C17.6941 8.5 18.3653 8.60932 18.9957 8.81253ZM2 13C2 15.2843 3.09414 17.313 4.78692 18.5907C4.82449 18.388 4.89075 18.1872 4.98753 17.9936L5.98753 15.9936C6.54325 14.8822 7.89477 14.4317 9.00622 14.9874C9.45036 15.2095 9.78897 15.5586 9.99999 15.9688C10.5244 14.9486 11.7491 14.4762 12.8356 14.9108C13.3592 15.1202 13.7607 15.5042 14 15.9691C14.5633 14.8756 15.903 14.4358 17.0062 14.9874C18.1177 15.5431 18.5682 16.8946 18.0125 18.0061L17.0155 20C19.7698 19.9916 22 17.7563 22 15C22 12.8639 20.6604 11.0406 18.7755 10.3244C18.2238 10.1148 17.6253 10 17 10C16.4547 10 15.9299 10.0873 15.4386 10.2486C14.7393 8.61449 13.4362 7.30031 11.8097 6.58672C10.9497 6.2094 9.99931 6 9 6C5.13401 6 2 9.13401 2 13Z" fill="#28303F"/>
</svg>
