<svg width="24" height="24" viewBox="0 0 24 24" fill="none" xmlns="http://www.w3.org/2000/svg">
<path fill-rule="evenodd" clip-rule="evenodd" d="M15 1.25C15.4142 1.25 15.75 1.58579 15.75 2V3C15.75 3.41421 15.4142 3.75 15 3.75C14.5858 3.75 14.25 3.41421 14.25 3V2C14.25 1.58579 14.5858 1.25 15 1.25ZM20.48 3.51983C20.7729 3.81273 20.7729 4.2876 20.48 4.58049L19.7729 5.2876C19.48 5.58049 19.0052 5.58049 18.7123 5.2876C18.4194 4.99471 18.4194 4.51983 18.7123 4.22694L19.4194 3.51983C19.7123 3.22694 20.1871 3.22694 20.48 3.51983ZM22 9.75C22.4142 9.75 22.75 9.41421 22.75 9C22.75 8.58579 22.4142 8.25 22 8.25H21C20.5858 8.25 20.25 8.58579 20.25 9C20.25 9.41421 20.5858 9.75 21 9.75H22ZM18.9958 8.81253C18.8979 6.69043 17.1464 5 15.0001 5C14.2852 5 13.614 5.18758 13.0332 5.5162C14.3499 6.22698 15.4569 7.27448 16.2397 8.54415C16.4895 8.51498 16.7433 8.5 17.0001 8.5C17.6942 8.5 18.3654 8.60932 18.9958 8.81253ZM8.11589 13.0609L4.68341 17.1799C4.41202 17.5056 4.6436 18 5.06752 18H6.5C6.77614 18 7 18.2239 7 18.5V20.619C7 21.0866 7.58473 21.2983 7.88411 20.9391L11.3166 16.8201C11.588 16.4944 11.3564 16 10.9325 16H9.5C9.22386 16 9 15.7761 9 15.5V13.381C9 12.9134 8.41527 12.7017 8.11589 13.0609ZM10.6192 20L12.4689 17.7803C13.5545 16.4776 12.6281 14.4999 10.9325 14.4999H10.5V13.3809C10.5 11.5103 8.16108 10.6635 6.96356 12.1006L3.53108 16.2195C3.36171 16.4228 3.24131 16.6425 3.16517 16.8685C2.42893 15.7603 2 14.4302 2 13C2 9.13401 5.13401 6 9 6C9.99931 6 10.9497 6.2094 11.8097 6.58672C13.4362 7.30031 14.7393 8.61449 15.4386 10.2486C15.9299 10.0873 16.4547 10 17 10C17.6253 10 18.2238 10.1148 18.7755 10.3244C20.6604 11.0406 22 12.8639 22 15C22 17.1 20.7053 18.8977 18.8706 19.6383C18.7985 19.3926 18.7048 19.1709 18.6118 18.9818C18.4125 18.5762 18.1624 18.2114 17.9384 17.9205C17.7111 17.6254 17.4875 17.3766 17.3221 17.2024C17.2385 17.1144 17.1677 17.0433 17.1159 16.9923L17.0217 16.9017C16.4459 16.3661 15.5541 16.3661 14.9783 16.9017L14.8841 16.9923C14.8323 17.0433 14.7615 17.1144 14.6779 17.2024C14.5125 17.3766 14.2889 17.6254 14.0616 17.9205C13.8376 18.2114 13.5875 18.5762 13.3882 18.9818C13.2515 19.2598 13.1132 19.608 13.0445 20H10.6192ZM16 22C16.8284 22 17.5 21.6046 17.5 20.5C17.5 19.3954 16 18 16 18C16 18 14.5 19.3954 14.5 20.5C14.5 21.6046 15.1716 22 16 22Z" fill="#28303F"/>
</svg>
