<svg width="24" height="24" viewBox="0 0 24 24" fill="none" xmlns="http://www.w3.org/2000/svg">
<path fill-rule="evenodd" clip-rule="evenodd" d="M21.021 9.8926C20.9588 9.84358 20.8957 9.79568 20.8317 9.74893C19.7571 8.96376 18.4305 8.49988 17 8.49988C16.7431 8.49988 16.4894 8.51485 16.2396 8.54403C15.382 7.15312 14.1354 6.029 12.6507 5.322C12.54 5.26925 12.4279 5.21884 12.3146 5.17081C12.8351 3.77733 13.9595 2.67834 15.3693 2.19219C15.7097 2.07483 16.0181 2.39432 16.0034 2.75402C16.0011 2.80915 16 2.86457 16 2.92025C16 5.12939 17.7908 6.92025 20 6.92025C20.5324 6.92025 21.0405 6.81624 21.5051 6.62744C21.7324 6.53503 22 6.67482 22 6.92025C22 8.03348 21.6362 9.06173 21.021 9.8926ZM12.2786 16.3037C12.6632 16.4576 12.8502 16.894 12.6964 17.2786L10.6964 22.2786C10.5426 22.6632 10.1061 22.8503 9.7215 22.6964C9.33691 22.5426 9.14985 22.1061 9.30368 21.7215L11.3037 16.7215C11.4575 16.3369 11.894 16.1499 12.2786 16.3037ZM8.33545 16.3293C8.70594 16.5145 8.8561 16.965 8.67086 17.3355L7.67086 19.3355C7.48562 19.706 7.03512 19.8561 6.66463 19.6709C6.29415 19.4857 6.14398 19.0352 6.32922 18.6647L7.32922 16.6647C7.51446 16.2942 7.96497 16.144 8.33545 16.3293ZM16.3355 16.3293C16.7059 16.5145 16.8561 16.965 16.6709 17.3355L15.6709 19.3355C15.4856 19.706 15.0351 19.8561 14.6646 19.6709C14.2941 19.4857 14.144 19.0352 14.3292 18.6647L15.3292 16.6647C15.5145 16.2942 15.965 16.144 16.3355 16.3293ZM2 12.9999C2 15.2841 3.09414 17.3129 4.78692 18.5905C4.82449 18.3879 4.89075 18.1871 4.98753 17.9935L5.98753 15.9935C6.54325 14.8821 7.89477 14.4316 9.00622 14.9873C9.45036 15.2094 9.78897 15.5585 9.99999 15.9686C10.5244 14.9485 11.7491 14.476 12.8356 14.9107C13.3592 15.1201 13.7607 15.5041 14 15.9689C14.5633 14.8754 15.903 14.4357 17.0062 14.9873C18.1177 15.543 18.5682 16.8945 18.0125 18.006L17.0155 19.9999C19.7698 19.9915 22 17.7561 22 14.9999C22 13.3403 21.1914 11.8695 19.9468 10.9601C19.1204 10.3563 18.1018 9.99988 17 9.99988C16.4547 9.99988 15.9299 10.0872 15.4386 10.2485C14.7677 8.68059 13.5408 7.40723 12.0058 6.67629C11.0951 6.24261 10.0759 5.99988 9 5.99988C5.13401 5.99988 2 9.13388 2 12.9999Z" fill="#28303F"/>
</svg>
