<svg width="24" height="24" viewBox="0 0 24 24" fill="none" xmlns="http://www.w3.org/2000/svg">
<path fill-rule="evenodd" clip-rule="evenodd" d="M21.021 9.8926C20.9588 9.84358 20.8957 9.79568 20.8317 9.74893C19.7571 8.96376 18.4305 8.49988 17 8.49988C16.7431 8.49988 16.4894 8.51485 16.2396 8.54403C15.382 7.15311 14.1354 6.029 12.6507 5.322C12.54 5.26925 12.4279 5.21884 12.3146 5.17081C12.8351 3.77733 13.9595 2.67834 15.3693 2.19219C15.7097 2.07483 16.0181 2.39432 16.0034 2.75402C16.0011 2.80915 16 2.86457 16 2.92025C16 5.12939 17.7908 6.92025 20 6.92025C20.5324 6.92025 21.0405 6.81624 21.5051 6.62744C21.7324 6.53503 22 6.67482 22 6.92025C22 8.03348 21.6362 9.06173 21.021 9.8926ZM9 19.9998C5.13401 19.9998 2 16.8657 2 12.9998C2 9.13376 5.13401 5.99976 9 5.99976C10.0759 5.99976 11.0951 6.24248 12.0058 6.67617C13.5408 7.4071 14.7677 8.68047 15.4386 10.2484C15.9299 10.087 16.4547 9.99976 17 9.99976C18.1018 9.99976 19.1204 10.3561 19.9468 10.9599C21.1914 11.8694 22 13.3402 22 14.9998C22 17.7612 19.7614 19.9998 17 19.9998H14.9555C14.8867 19.6079 14.7484 19.2598 14.6118 18.9818C14.4125 18.5762 14.1624 18.2114 13.9384 17.9205C13.7111 17.6254 13.4875 17.3766 13.3221 17.2024C13.2385 17.1144 13.1677 17.0433 13.1159 16.9923L13.0217 16.9017C12.4459 16.3661 11.5541 16.3661 10.9783 16.9017L10.8841 16.9923C10.8323 17.0433 10.7615 17.1144 10.6779 17.2024C10.5125 17.3766 10.2889 17.6254 10.0616 17.9205C9.83757 18.2114 9.5875 18.5762 9.38815 18.9818C9.25156 19.2598 9.11325 19.6079 9.04453 19.9998H9ZM12 21.9998C12.8284 21.9998 13.5 21.6043 13.5 20.4998C13.5 19.3952 12 17.9998 12 17.9998C12 17.9998 10.5 19.3952 10.5 20.4998C10.5 21.6043 11.1716 21.9998 12 21.9998Z" fill="#28303F"/>
</svg>
