<svg width="24" height="24" viewBox="0 0 24 24" fill="none" xmlns="http://www.w3.org/2000/svg">
<path fill-rule="evenodd" clip-rule="evenodd" d="M2 10C2 13.1997 4.14686 15.898 7.07871 16.733C7.01567 16.2221 7.1483 15.6789 7.53108 15.2195L10.9636 11.1006C12.1611 9.66354 14.5 10.5103 14.5 12.3809V13.4999H14.9325C16.6281 13.4999 17.5545 15.4776 16.4689 16.7803L16.2858 17H17C19.7614 17 22 14.7614 22 12C22 9.23858 19.7614 7 17 7C16.4547 7 15.9299 7.08728 15.4386 7.24864C14.3696 4.75042 11.8892 3 9 3C5.13401 3 2 6.13401 2 10ZM12.1159 12.061L8.68337 16.18C8.41199 16.5057 8.64357 17.0001 9.06748 17.0001H10.5C10.7761 17.0001 11 17.224 11 17.5001V19.6191C11 20.0867 11.5847 20.2984 11.8841 19.9392L15.3166 15.8202C15.5879 15.4945 15.3564 15.0001 14.9324 15.0001H13.5C13.2238 15.0001 13 14.7762 13 14.5001V12.3811C13 11.9135 12.4152 11.7018 12.1159 12.061Z" fill="#28303F"/>
</svg>
