<svg width="24" height="24" viewBox="0 0 24 24" fill="none" xmlns="http://www.w3.org/2000/svg">
<path fill-rule="evenodd" clip-rule="evenodd" d="M9.39807 3.46967C9.69096 3.17678 10.1658 3.17678 10.4587 3.46967L11.0445 4.05546C11.5327 4.54361 12.3241 4.54361 12.8123 4.05546L13.3981 3.46967C13.691 3.17678 14.1658 3.17678 14.4587 3.46967C14.7516 3.76256 14.7516 4.23744 14.4587 4.53033L13.8729 5.11612C13.5287 5.46038 13.1158 5.69428 12.6784 5.81783V10.7011L16.9073 8.25949C16.7956 7.81885 16.7917 7.34433 16.9177 6.87401L17.1322 6.07381C17.2394 5.67371 17.6506 5.43628 18.0507 5.54348C18.4508 5.65069 18.6882 6.06194 18.581 6.46204L18.3666 7.26224C18.188 7.92907 18.5837 8.61449 19.2505 8.79317L20.0507 9.00758C20.4508 9.11479 20.6882 9.52604 20.581 9.92614C20.4738 10.3262 20.0626 10.5637 19.6625 10.4565L18.8623 10.2421C18.392 10.1161 17.9831 9.87552 17.6574 9.5585L13.4286 12L17.6574 14.4415C17.9831 14.1245 18.392 13.8839 18.8623 13.7579L19.6625 13.5435C20.0626 13.4363 20.4738 13.6738 20.581 14.0739C20.6882 14.474 20.4508 14.8852 20.0507 14.9924L19.2505 15.2068C18.5837 15.3855 18.188 16.0709 18.3666 16.7378L18.581 17.538C18.6882 17.9381 18.4508 18.3493 18.0507 18.4565C17.6506 18.5637 17.2394 18.3263 17.1322 17.9262L16.9177 17.126C16.7917 16.6557 16.7956 16.1811 16.9073 15.7405L12.6784 13.2989V18.1822C13.1158 18.3057 13.5287 18.5396 13.8729 18.8839L14.4587 19.4697C14.7516 19.7626 14.7516 20.2374 14.4587 20.5303C14.1658 20.8232 13.691 20.8232 13.3981 20.5303L12.8123 19.9445C12.3241 19.4564 11.5327 19.4564 11.0445 19.9445L10.4587 20.5303C10.1658 20.8232 9.69096 20.8232 9.39807 20.5303C9.10517 20.2374 9.10517 19.7626 9.39807 19.4697L9.98385 18.8839C10.3281 18.5396 10.741 18.3057 11.1784 18.1822V13.2991L6.94951 15.7407C7.06121 16.1813 7.06504 16.6557 6.93904 17.1259L6.72463 17.9261C6.61742 18.3262 6.20617 18.5637 5.80607 18.4565C5.40597 18.3493 5.16854 17.938 5.27574 17.5379L5.49015 16.7377C5.66883 16.0709 5.2731 15.3855 4.60627 15.2068L3.80607 14.9924C3.40597 14.8852 3.16854 14.4739 3.27574 14.0738C3.38295 13.6737 3.7942 13.4363 4.1943 13.5435L4.9945 13.7579C5.46482 13.8839 5.87383 14.1245 6.19956 14.4416L10.4286 12L6.19957 9.55838C5.87384 9.87548 5.46482 10.1161 4.99451 10.2421L4.19431 10.4565C3.79421 10.5637 3.38295 10.3263 3.27575 9.92619C3.16854 9.52609 3.40598 9.11483 3.80608 9.00763L4.60628 8.79322C5.27311 8.61454 5.66884 7.92912 5.49016 7.26228L5.27575 6.46209C5.16854 6.06199 5.40598 5.65073 5.80608 5.54353C6.20618 5.43632 6.61743 5.67376 6.72464 6.07386L6.93905 6.87406C7.06505 7.34429 7.06121 7.81873 6.94951 8.25931L11.1784 10.7009V5.81784C10.741 5.6943 10.3281 5.46039 9.98385 5.11612L9.39807 4.53033C9.10517 4.23744 9.10517 3.76256 9.39807 3.46967Z" fill="#28303F"/>
</svg>
