<svg width="24" height="24" viewBox="0 0 24 24" fill="none" xmlns="http://www.w3.org/2000/svg">
<path fill-rule="evenodd" clip-rule="evenodd" d="M12 1.25C12.4142 1.25 12.75 1.58579 12.75 2V3C12.75 3.41421 12.4142 3.75 12 3.75C11.5858 3.75 11.25 3.41421 11.25 3V2C11.25 1.58579 11.5858 1.25 12 1.25ZM18 12C18 15.3137 15.3137 18 12 18C8.68629 18 6 15.3137 6 12C6 8.68629 8.68629 6 12 6C15.3137 6 18 8.68629 18 12ZM12.75 21C12.75 20.5858 12.4142 20.25 12 20.25C11.5858 20.25 11.25 20.5858 11.25 21V22C11.25 22.4142 11.5858 22.75 12 22.75C12.4142 22.75 12.75 22.4142 12.75 22V21ZM19.6014 4.39849C19.8943 4.69139 19.8943 5.16626 19.6014 5.45915L18.8943 6.16626C18.6014 6.45915 18.1265 6.45915 17.8336 6.16626C17.5407 5.87337 17.5407 5.39849 17.8336 5.1056L18.5407 4.39849C18.8336 4.1056 19.3085 4.1056 19.6014 4.39849ZM6.16632 18.8942C6.45921 18.6013 6.45921 18.1264 6.16632 17.8336C5.87342 17.5407 5.39855 17.5407 5.10566 17.8336L4.39855 18.5407C4.10566 18.8336 4.10566 19.3084 4.39855 19.6013C4.69144 19.8942 5.16632 19.8942 5.45921 19.6013L6.16632 18.8942ZM22.75 12C22.75 12.4142 22.4142 12.75 22 12.75H21C20.5858 12.75 20.25 12.4142 20.25 12C20.25 11.5858 20.5858 11.25 21 11.25H22C22.4142 11.25 22.75 11.5858 22.75 12ZM3 12.75C3.41421 12.75 3.75 12.4142 3.75 12C3.75 11.5858 3.41421 11.25 3 11.25H2C1.58579 11.25 1.25 11.5858 1.25 12C1.25 12.4142 1.58579 12.75 2 12.75H3ZM19.6014 19.6014C19.3085 19.8943 18.8336 19.8943 18.5407 19.6014L17.8336 18.8943C17.5407 18.6014 17.5407 18.1265 17.8336 17.8336C18.1265 17.5407 18.6014 17.5407 18.8943 17.8336L19.6014 18.5407C19.8943 18.8336 19.8943 19.3085 19.6014 19.6014ZM5.10566 6.16632C5.39856 6.45921 5.87343 6.45921 6.16633 6.16632C6.45922 5.87342 6.45922 5.39855 6.16633 5.10566L5.45922 4.39855C5.16633 4.10566 4.69145 4.10566 4.39856 4.39855C4.10566 4.69144 4.10566 5.16632 4.39856 5.45921L5.10566 6.16632Z" fill="#28303F"/>
</svg>
