<svg width="24" height="24" viewBox="0 0 24 24" fill="none" xmlns="http://www.w3.org/2000/svg">
<path fill-rule="evenodd" clip-rule="evenodd" d="M10.7626 2.17663C11.446 1.49321 12.554 1.49321 13.2374 2.17663L14.5303 3.46952C14.8232 3.76241 14.8232 4.23729 14.5303 4.53018C14.2374 4.82307 13.7626 4.82307 13.4697 4.53018L12.75 3.81051V6.99985C12.75 7.41406 12.4142 7.74985 12 7.74985C11.5858 7.74985 11.25 7.41406 11.25 6.99985V3.81051L10.5303 4.53018C10.2374 4.82307 9.76256 4.82307 9.46967 4.53018C9.17678 4.23729 9.17678 3.76241 9.46967 3.46952L10.7626 2.17663ZM4.75212 7.69135C4.45923 7.39846 3.98436 7.39846 3.69146 7.69135C3.39857 7.98424 3.39857 8.45912 3.69146 8.75201L5.10568 10.1662C5.39857 10.4591 5.87344 10.4591 6.16634 10.1662C6.45923 9.87333 6.45923 9.39846 6.16634 9.10556L4.75212 7.69135ZM20.3085 8.75212C20.6014 8.45923 20.6014 7.98436 20.3085 7.69146C20.0156 7.39857 19.5408 7.39857 19.2479 7.69146L17.8337 9.10568C17.5408 9.39857 17.5408 9.87344 17.8337 10.1663C18.1265 10.4592 18.6014 10.4592 18.8943 10.1663L20.3085 8.75212ZM3 15.2498C2.58579 15.2498 2.25 15.5855 2.25 15.9998C2.25 16.414 2.58579 16.7498 3 16.7498H21C21.4142 16.7498 21.75 16.414 21.75 15.9998C21.75 15.5855 21.4142 15.2498 21 15.2498H18.7088C18.3357 11.8748 15.4744 9.24976 12 9.24976C8.52558 9.24976 5.66428 11.8748 5.2912 15.2498H3ZM5.25 18.9998C5.25 18.5855 5.58579 18.2498 6 18.2498H18C18.4142 18.2498 18.75 18.5855 18.75 18.9998C18.75 19.414 18.4142 19.7498 18 19.7498H6C5.58579 19.7498 5.25 19.414 5.25 18.9998ZM9 21.2498C8.58579 21.2498 8.25 21.5855 8.25 21.9998C8.25 22.414 8.58579 22.7498 9 22.7498H15C15.4142 22.7498 15.75 22.414 15.75 21.9998C15.75 21.5855 15.4142 21.2498 15 21.2498H9Z" fill="#28303F"/>
</svg>
