<svg width="24" height="24" viewBox="0 0 24 24" fill="none" xmlns="http://www.w3.org/2000/svg">
<path fill-rule="evenodd" clip-rule="evenodd" d="M10.5303 4.96967L11.25 5.68934V2C11.25 1.58579 11.5858 1.25 12 1.25C12.4142 1.25 12.75 1.58579 12.75 2V5.68934L13.4697 4.96967C13.7626 4.67678 14.2374 4.67678 14.5303 4.96967C14.8232 5.26256 14.8232 5.73744 14.5303 6.03033L13.2374 7.32322C12.554 8.00664 11.446 8.00664 10.7626 7.32322L9.46967 6.03033C9.17678 5.73744 9.17678 5.26256 9.46967 4.96967C9.76256 4.67678 10.2374 4.67678 10.5303 4.96967ZM20.0585 8.75246C20.3514 8.45957 20.3514 7.98469 20.0585 7.6918C19.7656 7.39891 19.2908 7.39891 18.9979 7.6918L17.5837 9.10601C17.2908 9.39891 17.2908 9.87378 17.5837 10.1667C17.8765 10.4596 18.3514 10.4596 18.6443 10.1667L20.0585 8.75246ZM3.44146 7.69169C3.73436 7.39879 4.20923 7.39879 4.50212 7.69169L5.91634 9.1059C6.20923 9.39879 6.20923 9.87367 5.91634 10.1666C5.62344 10.4595 5.14857 10.4595 4.85568 10.1666L3.44146 8.75235C3.14857 8.45945 3.14857 7.98458 3.44146 7.69169ZM2.75 15.2501C2.33579 15.2501 2 15.5859 2 16.0001C2 16.4143 2.33579 16.7501 2.75 16.7501H20.75C21.1642 16.7501 21.5 16.4143 21.5 16.0001C21.5 15.5859 21.1642 15.2501 20.75 15.2501H18.4588C18.0857 11.8751 15.2244 9.25009 11.75 9.25009C8.27558 9.25009 5.41428 11.8751 5.0412 15.2501H2.75ZM5 19.0001C5 18.5859 5.33579 18.2501 5.75 18.2501H17.75C18.1642 18.2501 18.5 18.5859 18.5 19.0001C18.5 19.4143 18.1642 19.7501 17.75 19.7501H5.75C5.33579 19.7501 5 19.4143 5 19.0001ZM8.75 21.2501C8.33579 21.2501 8 21.5859 8 22.0001C8 22.4143 8.33579 22.7501 8.75 22.7501H14.75C15.1642 22.7501 15.5 22.4143 15.5 22.0001C15.5 21.5859 15.1642 21.2501 14.75 21.2501H8.75Z" fill="#28303F"/>
</svg>
