<svg width="24" height="24" viewBox="0 0 24 24" fill="none" xmlns="http://www.w3.org/2000/svg">
<path fill-rule="evenodd" clip-rule="evenodd" d="M20 1.25C20.4142 1.25 20.75 1.58579 20.75 2V3.25L22 3.25C22.4142 3.25 22.75 3.58579 22.75 4C22.75 4.41421 22.4142 4.75 22 4.75H20.75V6C20.75 6.41421 20.4142 6.75 20 6.75C19.5858 6.75 19.25 6.41421 19.25 6V4.75H18C17.5858 4.75 17.25 4.41421 17.25 4C17.25 3.58579 17.5858 3.25 18 3.25L19.25 3.25V2C19.25 1.58579 19.5858 1.25 20 1.25ZM12 22C14.7614 22 17 19.7614 17 17C17 15.3642 16.2144 13.9118 15 12.9996V5C15 3.34315 13.6569 2 12 2C10.3431 2 9 3.34315 9 5V12.9996C7.78555 13.9118 7 15.3642 7 17C7 19.7614 9.23858 22 12 22ZM12.75 5C12.75 4.58579 12.4142 4.25 12 4.25C11.5858 4.25 11.25 4.58579 11.25 5V15.1454C10.517 15.4421 10 16.1607 10 17C10 18.1046 10.8954 19 12 19C13.1046 19 14 18.1046 14 17C14 16.1607 13.483 15.4421 12.75 15.1454V5Z" fill="#28303F"/>
</svg>
