<svg width="24" height="24" viewBox="0 0 24 24" fill="none" xmlns="http://www.w3.org/2000/svg">
<path fill-rule="evenodd" clip-rule="evenodd" d="M12 22C14.7614 22 17 19.7614 17 17C17 15.3642 16.2144 13.9118 15 12.9996V5C15 3.34315 13.6569 2 12 2C10.3431 2 9 3.34315 9 5V12.9996C7.78555 13.9118 7 15.3642 7 17C7 19.7614 9.23858 22 12 22ZM12.75 13C12.75 12.5858 12.4142 12.25 12 12.25C11.5858 12.25 11.25 12.5858 11.25 13V15.1454C10.517 15.4421 10 16.1607 10 17C10 18.1046 10.8954 19 12 19C13.1046 19 14 18.1046 14 17C14 16.1607 13.483 15.4421 12.75 15.1454V13ZM22 4.75C22.4142 4.75 22.75 4.41421 22.75 4C22.75 3.58579 22.4142 3.25 22 3.25L18 3.25C17.5858 3.25 17.25 3.58579 17.25 4C17.25 4.41421 17.5858 4.75 18 4.75L22 4.75Z" fill="#28303F"/>
</svg>
