<svg width="24" height="24" viewBox="0 0 24 24" fill="none" xmlns="http://www.w3.org/2000/svg">
<path fill-rule="evenodd" clip-rule="evenodd" d="M2 3.25C1.58579 3.25 1.25 3.58579 1.25 4C1.25 4.41421 1.58579 4.75 2 4.75H20C20.4142 4.75 20.75 4.41421 20.75 4C20.75 3.58579 20.4142 3.25 20 3.25H2ZM7.25 8C7.25 7.58579 7.58579 7.25 8 7.25H22C22.4142 7.25 22.75 7.58579 22.75 8C22.75 8.41421 22.4142 8.75 22 8.75H8C7.58579 8.75 7.25 8.41421 7.25 8ZM5 11.25C4.58579 11.25 4.25 11.5858 4.25 12C4.25 12.4142 4.58579 12.75 5 12.75H15C15.4142 12.75 15.75 12.4142 15.75 12C15.75 11.5858 15.4142 11.25 15 11.25H5ZM7.25 16C7.25 15.5858 7.58579 15.25 8 15.25H14C14.4142 15.25 14.75 15.5858 14.75 16C14.75 16.4142 14.4142 16.75 14 16.75H8C7.58579 16.75 7.25 16.4142 7.25 16ZM10.25 20C10.25 19.5858 10.5858 19.25 11 19.25H13C13.4142 19.25 13.75 19.5858 13.75 20C13.75 20.4142 13.4142 20.75 13 20.75H11C10.5858 20.75 10.25 20.4142 10.25 20Z" fill="#28303F"/>
</svg>
