<svg width="24" height="24" viewBox="0 0 24 24" fill="none" xmlns="http://www.w3.org/2000/svg">
<path fill-rule="evenodd" clip-rule="evenodd" d="M21.6142 7.64305C21.9694 7.85616 22.4301 7.74098 22.6432 7.3858C22.8563 7.03061 22.7412 6.56992 22.386 6.35681L19.7709 4.78777C18.0684 3.76626 15.9102 3.91143 14.3598 5.15174L14.0304 5.41525C12.8434 6.36482 11.1568 6.36482 9.96985 5.41525L9.64046 5.15174C8.09008 3.91143 5.93182 3.76626 4.22931 4.78777L1.61424 6.35681C1.25906 6.56992 1.14388 7.03061 1.35699 7.3858C1.57011 7.74098 2.0308 7.85616 2.38599 7.64305L5.00105 6.07401C6.16593 5.37508 7.64263 5.47441 8.70342 6.32304L9.03281 6.58656C10.7676 7.97439 13.2326 7.97439 14.9674 6.58655L15.2968 6.32304C16.3576 5.47441 17.8343 5.37508 18.9992 6.07401L21.6142 7.64305ZM22.6432 13.3858C22.4301 13.741 21.9694 13.8562 21.6142 13.643L18.9992 12.074C17.8343 11.3751 16.3576 11.4744 15.2968 12.323L14.9674 12.5866C13.2326 13.9744 10.7676 13.9744 9.03281 12.5866L8.70342 12.323C7.64263 11.4744 6.16593 11.3751 5.00105 12.074L2.38599 13.643C2.0308 13.8562 1.57011 13.741 1.35699 13.3858C1.14388 13.0306 1.25906 12.5699 1.61424 12.3568L4.22931 10.7878C5.93182 9.76626 8.09008 9.91143 9.64046 11.1517L9.96985 11.4153C11.1568 12.3648 12.8434 12.3648 14.0304 11.4153L14.3598 11.1517C15.9102 9.91143 18.0684 9.76626 19.7709 10.7878L22.386 12.3568C22.7412 12.5699 22.8563 13.0306 22.6432 13.3858ZM22.6432 19.3858C22.4301 19.741 21.9694 19.8562 21.6142 19.643L18.9992 18.074C17.8343 17.3751 16.3576 17.4744 15.2968 18.323L14.9674 18.5866C13.2326 19.9744 10.7676 19.9744 9.03281 18.5866L8.70342 18.323C7.64263 17.4744 6.16593 17.3751 5.00105 18.074L2.38599 19.643C2.0308 19.8562 1.57011 19.741 1.35699 19.3858C1.14388 19.0306 1.25906 18.5699 1.61424 18.3568L4.22931 16.7878C5.93182 15.7663 8.09008 15.9114 9.64046 17.1517L9.96985 17.4153C11.1568 18.3648 12.8434 18.3648 14.0304 17.4153L14.3598 17.1517C15.9102 15.9114 18.0684 15.7663 19.7709 16.7878L22.386 18.3568C22.7412 18.5699 22.8563 19.0306 22.6432 19.3858Z" fill="#28303F"/>
</svg>
