<svg width="24" height="24" viewBox="0 0 24 24" fill="none" xmlns="http://www.w3.org/2000/svg">
<path fill-rule="evenodd" clip-rule="evenodd" d="M8 2.75C6.75736 2.75 5.75 3.75736 5.75 5C5.75 5.41421 5.41421 5.75 5 5.75C4.58579 5.75 4.25 5.41421 4.25 5C4.25 2.92893 5.92893 1.25 8 1.25C10.0711 1.25 11.75 2.92893 11.75 5C11.75 7.07107 10.0711 8.75 8 8.75H2C1.58579 8.75 1.25 8.41421 1.25 8C1.25 7.58579 1.58579 7.25 2 7.25H8C9.24264 7.25 10.25 6.24264 10.25 5C10.25 3.75736 9.24264 2.75 8 2.75ZM18 4.75C16.2051 4.75 14.75 6.20507 14.75 8C14.75 8.41421 14.4142 8.75 14 8.75C13.5858 8.75 13.25 8.41421 13.25 8C13.25 5.37665 15.3766 3.25 18 3.25C20.6234 3.25 22.75 5.37665 22.75 8C22.75 10.6234 20.6234 12.75 18 12.75H2C1.58579 12.75 1.25 12.4142 1.25 12C1.25 11.5858 1.58579 11.25 2 11.25H18C19.7949 11.25 21.25 9.79493 21.25 8C21.25 6.20507 19.7949 4.75 18 4.75ZM10.75 19C10.75 20.2426 11.7574 21.25 13 21.25C14.2426 21.25 15.25 20.2426 15.25 19C15.25 17.7574 14.2426 16.75 13 16.75H2C1.58579 16.75 1.25 16.4142 1.25 16C1.25 15.5858 1.58579 15.25 2 15.25H13C15.0711 15.25 16.75 16.9289 16.75 19C16.75 21.0711 15.0711 22.75 13 22.75C10.9289 22.75 9.25 21.0711 9.25 19C9.25 18.5858 9.58579 18.25 10 18.25C10.4142 18.25 10.75 18.5858 10.75 19Z" fill="#28303F"/>
</svg>
