<svg width="24" height="24" viewBox="0 0 24 24" fill="none" xmlns="http://www.w3.org/2000/svg">
<path fill-rule="evenodd" clip-rule="evenodd" d="M18 8.75C16.2051 8.75 14.75 10.2051 14.75 12C14.75 12.4142 14.4142 12.75 14 12.75C13.5858 12.75 13.25 12.4142 13.25 12C13.25 9.37665 15.3766 7.25 18 7.25C20.6234 7.25 22.75 9.37665 22.75 12C22.75 14.6234 20.6234 16.75 18 16.75H2C1.58579 16.75 1.25 16.4142 1.25 16C1.25 15.5858 1.58579 15.25 2 15.25H18C19.7949 15.25 21.25 13.7949 21.25 12C21.25 10.2051 19.7949 8.75 18 8.75Z" fill="#28303F"/>
</svg>
