<svg width="24" height="24" viewBox="0 0 24 24" fill="none" xmlns="http://www.w3.org/2000/svg">
<path d="M20.25 10C20.25 10.4142 20.5858 10.75 21 10.75C21.4142 10.75 21.75 10.4142 21.75 10H20.25ZM9 22.75C9.41421 22.75 9.75 22.4142 9.75 22C9.75 21.5858 9.41421 21.25 9 21.25V22.75ZM12 22L11.2787 21.7944C11.2041 22.0562 11.2772 22.3378 11.4697 22.5303C11.6622 22.7228 11.9438 22.7959 12.2056 22.7213L12 22ZM13.1279 18.505L13.6582 19.0354L13.1279 18.505ZM12.8726 18.9392L12.1513 18.7336L12.8726 18.9392ZM15.0608 21.1274L15.2664 21.8487L15.0608 21.1274ZM18.1427 13.4902L17.6124 12.9599L18.1427 13.4902ZM8.75 2C8.75 1.58579 8.41421 1.25 8 1.25C7.58579 1.25 7.25 1.58579 7.25 2H8.75ZM7.25 5C7.25 5.41421 7.58579 5.75 8 5.75C8.41421 5.75 8.75 5.41421 8.75 5H7.25ZM16.75 2C16.75 1.58579 16.4142 1.25 16 1.25C15.5858 1.25 15.25 1.58579 15.25 2H16.75ZM15.25 5C15.25 5.41421 15.5858 5.75 16 5.75C16.4142 5.75 16.75 5.41421 16.75 5H15.25ZM11.9999 8.93934L11.4696 9.46967C11.7625 9.76256 12.2374 9.76256 12.5303 9.46967L11.9999 8.93934ZM12.2651 8.67418L12.7954 9.20451L12.7954 9.2045L12.2651 8.67418ZM11.7348 8.67417L11.2044 9.2045L11.2044 9.20451L11.7348 8.67417ZM9.08311 11.3258L9.61344 10.7955L9.08311 11.3258ZM10.9393 13.182L10.4089 13.7123L10.9393 13.182ZM7 4.25H17V2.75H7V4.25ZM3.75 18V7.5H2.25V18H3.75ZM20.25 7.5V10H21.75V7.5H20.25ZM9 21.25H7V22.75H9V21.25ZM2.25 18C2.25 20.6234 4.37665 22.75 7 22.75V21.25C5.20507 21.25 3.75 19.7949 3.75 18H2.25ZM17 4.25C18.7949 4.25 20.25 5.70507 20.25 7.5H21.75C21.75 4.87665 19.6234 2.75 17 2.75V4.25ZM7 2.75C4.37665 2.75 2.25 4.87665 2.25 7.5H3.75C3.75 5.70507 5.20507 4.25 7 4.25V2.75ZM19.9794 15.327L14.9646 20.3418L16.0253 21.4024L21.0401 16.3876L19.9794 15.327ZM13.6582 19.0354L18.673 14.0206L17.6124 12.9599L12.5976 17.9747L13.6582 19.0354ZM14.8551 20.4062L11.7944 21.2787L12.2056 22.7213L15.2664 21.8487L14.8551 20.4062ZM12.7213 22.2056L13.5938 19.1449L12.1513 18.7336L11.2787 21.7944L12.7213 22.2056ZM12.5976 17.9747C12.3867 18.1856 12.2331 18.4468 12.1513 18.7336L13.5938 19.1449C13.6056 19.1035 13.6278 19.0658 13.6582 19.0354L12.5976 17.9747ZM14.9646 20.3418C14.9342 20.3722 14.8965 20.3944 14.8551 20.4062L15.2664 21.8487C15.5532 21.7669 15.8144 21.6133 16.0253 21.4024L14.9646 20.3418ZM19.9794 14.0206C20.3402 14.3813 20.3402 14.9662 19.9794 15.327L21.0401 16.3876C21.9866 15.4411 21.9866 13.9064 21.0401 12.9599L19.9794 14.0206ZM21.0401 12.9599C20.0936 12.0134 18.5589 12.0134 17.6124 12.9599L18.673 14.0206C19.0338 13.6598 19.6187 13.6598 19.9794 14.0206L21.0401 12.9599ZM7.25 2V5H8.75V2H7.25ZM15.25 2V5H16.75V2H15.25ZM12.5303 9.46967L12.7954 9.20451L11.7348 8.14385L11.4696 8.40901L12.5303 9.46967ZM11.2044 9.20451L11.4696 9.46967L12.5303 8.40901L12.2651 8.14384L11.2044 9.20451ZM8.55278 11.8562L10.4089 13.7123L11.4696 12.6517L9.61344 10.7955L8.55278 11.8562ZM13.5909 13.7123L15.4471 11.8562L14.3864 10.7955L12.5303 12.6517L13.5909 13.7123ZM14.3864 9.2045C14.8258 9.64384 14.8258 10.3562 14.3864 10.7955L15.4471 11.8562C16.4722 10.831 16.4722 9.16897 15.4471 8.14384L14.3864 9.2045ZM15.4471 8.14384C14.4219 7.11872 12.7599 7.11872 11.7348 8.14385L12.7954 9.2045C13.2348 8.76517 13.9471 8.76516 14.3864 9.2045L15.4471 8.14384ZM9.61344 9.2045C10.0528 8.76516 10.7651 8.76517 11.2044 9.2045L12.2651 8.14384C11.24 7.11872 9.57791 7.11872 8.55278 8.14384L9.61344 9.2045ZM10.4089 13.7123C11.2876 14.591 12.7122 14.591 13.5909 13.7123L12.5303 12.6517C12.2374 12.9445 11.7625 12.9445 11.4696 12.6517L10.4089 13.7123ZM8.55278 8.14384C7.52765 9.16897 7.52765 10.831 8.55278 11.8562L9.61344 10.7955C9.1741 10.3562 9.1741 9.64384 9.61344 9.2045L8.55278 8.14384Z" fill="#28303F"/>
</svg>
