<svg width="24" height="24" viewBox="0 0 24 24" fill="none" xmlns="http://www.w3.org/2000/svg">
<path d="M16.75 2C16.75 1.58579 16.4142 1.25 16 1.25C15.5858 1.25 15.25 1.58579 15.25 2H16.75ZM15.25 5C15.25 5.41421 15.5858 5.75 16 5.75C16.4142 5.75 16.75 5.41421 16.75 5H15.25ZM8.75 2C8.75 1.58579 8.41421 1.25 8 1.25C7.58579 1.25 7.25 1.58579 7.25 2H8.75ZM7.25 5C7.25 5.41421 7.58579 5.75 8 5.75C8.41421 5.75 8.75 5.41421 8.75 5H7.25ZM14.6517 11.409C14.9446 11.1161 14.9446 10.6412 14.6517 10.3483C14.3588 10.0554 13.8839 10.0554 13.591 10.3483L14.6517 11.409ZM9.34837 14.591C9.05547 14.8839 9.05547 15.3587 9.34837 15.6516C9.64126 15.9445 10.1161 15.9445 10.409 15.6516L9.34837 14.591ZM13.591 15.6517C13.8839 15.9446 14.3588 15.9446 14.6517 15.6517C14.9446 15.3588 14.9446 14.8839 14.6517 14.591L13.591 15.6517ZM10.409 10.3484C10.1161 10.0555 9.64126 10.0555 9.34837 10.3484C9.05547 10.6413 9.05547 11.1161 9.34837 11.409L10.409 10.3484ZM7 4.25H17V2.75H7V4.25ZM20.25 7.5V18H21.75V7.5H20.25ZM17 21.25H7V22.75H17V21.25ZM3.75 18V7.5H2.25V18H3.75ZM7 21.25C5.20507 21.25 3.75 19.7949 3.75 18H2.25C2.25 20.6234 4.37665 22.75 7 22.75V21.25ZM20.25 18C20.25 19.7949 18.7949 21.25 17 21.25V22.75C19.6234 22.75 21.75 20.6234 21.75 18H20.25ZM17 4.25C18.7949 4.25 20.25 5.70507 20.25 7.5H21.75C21.75 4.87665 19.6234 2.75 17 2.75V4.25ZM7 2.75C4.37665 2.75 2.25 4.87665 2.25 7.5H3.75C3.75 5.70507 5.20507 4.25 7 4.25V2.75ZM15.25 2V5H16.75V2H15.25ZM7.25 2V5H8.75V2H7.25ZM13.591 10.3483L9.34837 14.591L10.409 15.6516L14.6517 11.409L13.591 10.3483ZM14.6517 14.591L10.409 10.3484L9.34837 11.409L13.591 15.6517L14.6517 14.591Z" fill="#28303F"/>
</svg>
