<svg width="24" height="24" viewBox="0 0 24 24" fill="none" xmlns="http://www.w3.org/2000/svg">
<path d="M20.25 10C20.25 10.4142 20.5858 10.75 21 10.75C21.4142 10.75 21.75 10.4142 21.75 10H20.25ZM9 22.75C9.41421 22.75 9.75 22.4142 9.75 22C9.75 21.5858 9.41421 21.25 9 21.25V22.75ZM8.75 2C8.75 1.58579 8.41421 1.25 8 1.25C7.58579 1.25 7.25 1.58579 7.25 2H8.75ZM7.25 5C7.25 5.41421 7.58579 5.75 8 5.75C8.41421 5.75 8.75 5.41421 8.75 5H7.25ZM16.75 2C16.75 1.58579 16.4142 1.25 16 1.25C15.5858 1.25 15.25 1.58579 15.25 2H16.75ZM15.25 5C15.25 5.41421 15.5858 5.75 16 5.75C16.4142 5.75 16.75 5.41421 16.75 5H15.25ZM9.46852 10.4143C9.14507 10.1556 8.67311 10.208 8.41435 10.5315C8.15559 10.8549 8.20803 11.3269 8.53148 11.5857L9.46852 10.4143ZM10.7528 12.4023L11.2213 11.8166L10.7528 12.4023ZM12.1301 12.2799L11.5657 11.786H11.5657L12.1301 12.2799ZM15.5644 9.49388C15.8372 9.18215 15.8056 8.70833 15.4939 8.43557C15.1822 8.16281 14.7083 8.19439 14.4356 8.50612L15.5644 9.49388ZM12 22L11.2787 21.7944C11.2041 22.0562 11.2772 22.3378 11.4697 22.5303C11.6622 22.7228 11.9438 22.7959 12.2056 22.7213L12 22ZM13.1279 18.505L13.6582 19.0354L13.1279 18.505ZM12.8726 18.9392L12.1513 18.7336L12.8726 18.9392ZM15.0608 21.1274L15.2664 21.8487L15.0608 21.1274ZM18.1427 13.4902L17.6124 12.9599L18.1427 13.4902ZM7 4.25H17V2.75H7V4.25ZM3.75 18V7.5H2.25V18H3.75ZM20.25 7.5V10H21.75V7.5H20.25ZM9 21.25H7V22.75H9V21.25ZM2.25 18C2.25 20.6234 4.37665 22.75 7 22.75V21.25C5.20507 21.25 3.75 19.7949 3.75 18H2.25ZM17 4.25C18.7949 4.25 20.25 5.70507 20.25 7.5H21.75C21.75 4.87665 19.6234 2.75 17 2.75V4.25ZM7 2.75C4.37665 2.75 2.25 4.87665 2.25 7.5H3.75C3.75 5.70507 5.20507 4.25 7 4.25V2.75ZM7.25 2V5H8.75V2H7.25ZM15.25 2V5H16.75V2H15.25ZM8.53148 11.5857L10.2843 12.9879L11.2213 11.8166L9.46852 10.4143L8.53148 11.5857ZM12.6945 12.7738L15.5644 9.49388L14.4356 8.50612L11.5657 11.786L12.6945 12.7738ZM10.2843 12.9879C11.0156 13.5729 12.0778 13.4786 12.6945 12.7738L11.5657 11.786C11.4776 11.8867 11.3258 11.9002 11.2213 11.8166L10.2843 12.9879ZM19.9794 15.327L14.9646 20.3418L16.0253 21.4024L21.0401 16.3876L19.9794 15.327ZM13.6582 19.0354L18.673 14.0206L17.6124 12.9599L12.5976 17.9747L13.6582 19.0354ZM14.8551 20.4062L11.7944 21.2787L12.2056 22.7213L15.2664 21.8487L14.8551 20.4062ZM12.7213 22.2056L13.5938 19.1449L12.1513 18.7336L11.2787 21.7944L12.7213 22.2056ZM12.5976 17.9747C12.3867 18.1856 12.2331 18.4468 12.1513 18.7336L13.5938 19.1449C13.6056 19.1035 13.6278 19.0658 13.6582 19.0354L12.5976 17.9747ZM14.9646 20.3418C14.9342 20.3722 14.8965 20.3944 14.8551 20.4062L15.2664 21.8487C15.5532 21.7669 15.8144 21.6133 16.0253 21.4024L14.9646 20.3418ZM19.9794 14.0206C20.3402 14.3813 20.3402 14.9662 19.9794 15.327L21.0401 16.3876C21.9866 15.4411 21.9866 13.9064 21.0401 12.9599L19.9794 14.0206ZM21.0401 12.9599C20.0936 12.0134 18.5589 12.0134 17.6124 12.9599L18.673 14.0206C19.0338 13.6598 19.6187 13.6598 19.9794 14.0206L21.0401 12.9599Z" fill="#28303F"/>
</svg>
