<svg width="24" height="24" viewBox="0 0 24 24" fill="none" xmlns="http://www.w3.org/2000/svg">
<path d="M20.25 10C20.25 10.4142 20.5858 10.75 21 10.75C21.4142 10.75 21.75 10.4142 21.75 10H20.25ZM9 22.75C9.41421 22.75 9.75 22.4142 9.75 22C9.75 21.5858 9.41421 21.25 9 21.25V22.75ZM8.75 2C8.75 1.58579 8.41421 1.25 8 1.25C7.58579 1.25 7.25 1.58579 7.25 2H8.75ZM7.25 5C7.25 5.41421 7.58579 5.75 8 5.75C8.41421 5.75 8.75 5.41421 8.75 5H7.25ZM16 9.75C16.4142 9.75 16.75 9.41421 16.75 9C16.75 8.58579 16.4142 8.25 16 8.25V9.75ZM8 8.25C7.58579 8.25 7.25 8.58579 7.25 9C7.25 9.41421 7.58579 9.75 8 9.75V8.25ZM14 13.75C14.4142 13.75 14.75 13.4142 14.75 13C14.75 12.5858 14.4142 12.25 14 12.25V13.75ZM8 12.25C7.58579 12.25 7.25 12.5858 7.25 13C7.25 13.4142 7.58579 13.75 8 13.75V12.25ZM12 22L11.2787 21.7944L10.9091 23.0909L12.2056 22.7213L12 22ZM13.1279 18.505L13.6582 19.0354L13.1279 18.505ZM12.8726 18.9392L12.1513 18.7336L12.8726 18.9392ZM15.0608 21.1274L15.2664 21.8487L15.0608 21.1274ZM18.1427 13.4902L17.6124 12.9599L18.1427 13.4902ZM10 17.75C10.4142 17.75 10.75 17.4142 10.75 17C10.75 16.5858 10.4142 16.25 10 16.25V17.75ZM8 16.25C7.58579 16.25 7.25 16.5858 7.25 17C7.25 17.4142 7.58579 17.75 8 17.75V16.25ZM16.75 2C16.75 1.58579 16.4142 1.25 16 1.25C15.5858 1.25 15.25 1.58579 15.25 2H16.75ZM15.25 5C15.25 5.41421 15.5858 5.75 16 5.75C16.4142 5.75 16.75 5.41421 16.75 5H15.25ZM7 4.25H17V2.75H7V4.25ZM3.75 18V7.5H2.25V18H3.75ZM20.25 7.5V10H21.75V7.5H20.25ZM9 21.25H7V22.75H9V21.25ZM2.25 18C2.25 20.6234 4.37665 22.75 7 22.75V21.25C5.20507 21.25 3.75 19.7949 3.75 18H2.25ZM17 4.25C18.7949 4.25 20.25 5.70507 20.25 7.5H21.75C21.75 4.87665 19.6234 2.75 17 2.75V4.25ZM7 2.75C4.37665 2.75 2.25 4.87665 2.25 7.5H3.75C3.75 5.70507 5.20507 4.25 7 4.25V2.75ZM7.25 2V5H8.75V2H7.25ZM16 8.25H8V9.75H16V8.25ZM14 12.25H8V13.75H14V12.25ZM19.9794 15.327L14.9646 20.3418L16.0253 21.4024L21.0401 16.3876L19.9794 15.327ZM13.6582 19.0354L18.673 14.0206L17.6124 12.9599L12.5976 17.9747L13.6582 19.0354ZM14.8551 20.4062L11.7944 21.2787L12.2056 22.7213L15.2664 21.8487L14.8551 20.4062ZM12.7213 22.2056L13.5938 19.1449L12.1513 18.7336L11.2787 21.7944L12.7213 22.2056ZM12.5976 17.9747C12.3867 18.1856 12.2331 18.4468 12.1513 18.7336L13.5938 19.1449C13.6056 19.1035 13.6278 19.0658 13.6582 19.0354L12.5976 17.9747ZM14.9646 20.3418C14.9342 20.3722 14.8965 20.3944 14.8551 20.4062L15.2664 21.8487C15.5532 21.7669 15.8144 21.6133 16.0253 21.4024L14.9646 20.3418ZM19.9794 14.0206C20.3402 14.3813 20.3402 14.9662 19.9794 15.327L21.0401 16.3876C21.9866 15.4411 21.9866 13.9064 21.0401 12.9599L19.9794 14.0206ZM21.0401 12.9599C20.0936 12.0134 18.5589 12.0134 17.6124 12.9599L18.673 14.0206C19.0338 13.6598 19.6187 13.6598 19.9794 14.0206L21.0401 12.9599ZM10 16.25H8V17.75H10V16.25ZM15.25 2V5H16.75V2H15.25Z" fill="#28303F"/>
</svg>
