<svg width="24" height="24" viewBox="0 0 24 24" fill="none" xmlns="http://www.w3.org/2000/svg">
<path d="M16.75 2C16.75 1.58579 16.4142 1.25 16 1.25C15.5858 1.25 15.25 1.58579 15.25 2H16.75ZM15.25 5C15.25 5.41421 15.5858 5.75 16 5.75C16.4142 5.75 16.75 5.41421 16.75 5H15.25ZM8.75 2C8.75 1.58579 8.41421 1.25 8 1.25C7.58579 1.25 7.25 1.58579 7.25 2H8.75ZM7.25 5C7.25 5.41421 7.58579 5.75 8 5.75C8.41421 5.75 8.75 5.41421 8.75 5H7.25ZM15.0303 14.9697C14.7374 14.6768 14.2626 14.6768 13.9697 14.9697C13.6768 15.2626 13.6768 15.7374 13.9697 16.0303L15.0303 14.9697ZM14.9697 17.0303C15.2626 17.3232 15.7374 17.3232 16.0303 17.0303C16.3232 16.7374 16.3232 16.2626 16.0303 15.9697L14.9697 17.0303ZM7 4.25H17V2.75H7V4.25ZM20.25 7.5V18H21.75V7.5H20.25ZM17 21.25H7V22.75H17V21.25ZM3.75 18V7.5H2.25V18H3.75ZM7 21.25C5.20507 21.25 3.75 19.7949 3.75 18H2.25C2.25 20.6234 4.37665 22.75 7 22.75V21.25ZM20.25 18C20.25 19.7949 18.7949 21.25 17 21.25V22.75C19.6234 22.75 21.75 20.6234 21.75 18H20.25ZM17 4.25C18.7949 4.25 20.25 5.70507 20.25 7.5H21.75C21.75 4.87665 19.6234 2.75 17 2.75V4.25ZM7 2.75C4.37665 2.75 2.25 4.87665 2.25 7.5H3.75C3.75 5.70507 5.20507 4.25 7 4.25V2.75ZM15.25 2V5H16.75V2H15.25ZM7.25 2V5H8.75V2H7.25ZM14.25 13C14.25 14.2426 13.2426 15.25 12 15.25V16.75C14.0711 16.75 15.75 15.0711 15.75 13H14.25ZM12 15.25C10.7574 15.25 9.75 14.2426 9.75 13H8.25C8.25 15.0711 9.92893 16.75 12 16.75V15.25ZM9.75 13C9.75 11.7574 10.7574 10.75 12 10.75V9.25C9.92893 9.25 8.25 10.9289 8.25 13H9.75ZM12 10.75C13.2426 10.75 14.25 11.7574 14.25 13H15.75C15.75 10.9289 14.0711 9.25 12 9.25V10.75ZM13.9697 16.0303L14.9697 17.0303L16.0303 15.9697L15.0303 14.9697L13.9697 16.0303Z" fill="#28303F"/>
</svg>
