<svg width="24" height="24" viewBox="0 0 24 24" fill="none" xmlns="http://www.w3.org/2000/svg">
<path d="M16.75 2C16.75 1.58579 16.4142 1.25 16 1.25C15.5858 1.25 15.25 1.58579 15.25 2H16.75ZM15.25 5C15.25 5.41421 15.5858 5.75 16 5.75C16.4142 5.75 16.75 5.41421 16.75 5H15.25ZM8.75 2C8.75 1.58579 8.41421 1.25 8 1.25C7.58579 1.25 7.25 1.58579 7.25 2H8.75ZM7.25 5C7.25 5.41421 7.58579 5.75 8 5.75C8.41421 5.75 8.75 5.41421 8.75 5H7.25ZM9.46852 12.4143C9.14507 12.1556 8.67311 12.208 8.41435 12.5315C8.15559 12.8549 8.20803 13.3269 8.53148 13.5857L9.46852 12.4143ZM10.7528 14.4023L11.2213 13.8166L10.7528 14.4023ZM12.1301 14.2799L11.5657 13.786H11.5657L12.1301 14.2799ZM15.5644 11.4939C15.8372 11.1822 15.8056 10.7083 15.4939 10.4356C15.1822 10.1628 14.7083 10.1944 14.4356 10.5061L15.5644 11.4939ZM7 4.25H17V2.75H7V4.25ZM20.25 7.5V18H21.75V7.5H20.25ZM17 21.25H7V22.75H17V21.25ZM3.75 18V7.5H2.25V18H3.75ZM7 21.25C5.20507 21.25 3.75 19.7949 3.75 18H2.25C2.25 20.6234 4.37665 22.75 7 22.75V21.25ZM20.25 18C20.25 19.7949 18.7949 21.25 17 21.25V22.75C19.6234 22.75 21.75 20.6234 21.75 18H20.25ZM17 4.25C18.7949 4.25 20.25 5.70507 20.25 7.5H21.75C21.75 4.87665 19.6234 2.75 17 2.75V4.25ZM7 2.75C4.37665 2.75 2.25 4.87665 2.25 7.5H3.75C3.75 5.70507 5.20507 4.25 7 4.25V2.75ZM15.25 2V5H16.75V2H15.25ZM7.25 2V5H8.75V2H7.25ZM8.53148 13.5857L10.2843 14.9879L11.2213 13.8166L9.46852 12.4143L8.53148 13.5857ZM12.6945 14.7738L15.5644 11.4939L14.4356 10.5061L11.5657 13.786L12.6945 14.7738ZM10.2843 14.9879C11.0156 15.5729 12.0778 15.4786 12.6945 14.7738L11.5657 13.786C11.4776 13.8867 11.3258 13.9002 11.2213 13.8166L10.2843 14.9879Z" fill="#28303F"/>
</svg>
