<svg width="24" height="24" viewBox="0 0 24 24" fill="none" xmlns="http://www.w3.org/2000/svg">
<path d="M16.75 2C16.75 1.58579 16.4142 1.25 16 1.25C15.5858 1.25 15.25 1.58579 15.25 2H16.75ZM15.25 5C15.25 5.41421 15.5858 5.75 16 5.75C16.4142 5.75 16.75 5.41421 16.75 5H15.25ZM8.75 2C8.75 1.58579 8.41421 1.25 8 1.25C7.58579 1.25 7.25 1.58579 7.25 2H8.75ZM7.25 5C7.25 5.41421 7.58579 5.75 8 5.75C8.41421 5.75 8.75 5.41421 8.75 5H7.25ZM11.9999 10.9393L11.4696 11.4697C11.7625 11.7626 12.2374 11.7626 12.5303 11.4697L11.9999 10.9393ZM12.2651 10.6742L12.7954 11.2045H12.7954L12.2651 10.6742ZM11.7348 10.6742L11.2044 11.2045L11.2044 11.2045L11.7348 10.6742ZM9.08311 13.3258L9.61344 12.7955L9.08311 13.3258ZM10.9393 15.182L10.4089 15.7123L10.9393 15.182ZM7 4.25H17V2.75H7V4.25ZM20.25 7.5V18H21.75V7.5H20.25ZM17 21.25H7V22.75H17V21.25ZM3.75 18V7.5H2.25V18H3.75ZM7 21.25C5.20507 21.25 3.75 19.7949 3.75 18H2.25C2.25 20.6234 4.37665 22.75 7 22.75V21.25ZM20.25 18C20.25 19.7949 18.7949 21.25 17 21.25V22.75C19.6234 22.75 21.75 20.6234 21.75 18H20.25ZM17 4.25C18.7949 4.25 20.25 5.70507 20.25 7.5H21.75C21.75 4.87665 19.6234 2.75 17 2.75V4.25ZM7 2.75C4.37665 2.75 2.25 4.87665 2.25 7.5H3.75C3.75 5.70507 5.20507 4.25 7 4.25V2.75ZM15.25 2V5H16.75V2H15.25ZM7.25 2V5H8.75V2H7.25ZM12.5303 11.4697L12.7954 11.2045L11.7348 10.1438L11.4696 10.409L12.5303 11.4697ZM11.2044 11.2045L11.4696 11.4697L12.5303 10.409L12.2651 10.1438L11.2044 11.2045ZM8.55278 13.8562L10.4089 15.7123L11.4696 14.6517L9.61344 12.7955L8.55278 13.8562ZM13.5909 15.7123L15.4471 13.8562L14.3864 12.7955L12.5303 14.6517L13.5909 15.7123ZM14.3864 11.2045C14.8258 11.6438 14.8258 12.3562 14.3864 12.7955L15.4471 13.8562C16.4722 12.831 16.4722 11.169 15.4471 10.1438L14.3864 11.2045ZM15.4471 10.1438C14.4219 9.11872 12.7599 9.11872 11.7348 10.1438L12.7954 11.2045C13.2348 10.7652 13.9471 10.7652 14.3864 11.2045L15.4471 10.1438ZM9.61344 11.2045C10.0528 10.7652 10.7651 10.7652 11.2044 11.2045L12.2651 10.1438C11.24 9.11872 9.57791 9.11872 8.55278 10.1438L9.61344 11.2045ZM10.4089 15.7123C11.2876 16.591 12.7122 16.591 13.5909 15.7123L12.5303 14.6517C12.2374 14.9445 11.7625 14.9445 11.4696 14.6517L10.4089 15.7123ZM8.55278 10.1438C7.52765 11.169 7.52765 12.831 8.55278 13.8562L9.61344 12.7955C9.1741 12.3562 9.1741 11.6438 9.61344 11.2045L8.55278 10.1438Z" fill="#28303F"/>
</svg>
