<svg width="24" height="24" viewBox="0 0 24 24" fill="none" xmlns="http://www.w3.org/2000/svg">
<path d="M16.75 2C16.75 1.58579 16.4142 1.25 16 1.25C15.5858 1.25 15.25 1.58579 15.25 2H16.75ZM15.25 5C15.25 5.41421 15.5858 5.75 16 5.75C16.4142 5.75 16.75 5.41421 16.75 5H15.25ZM8.75 2C8.75 1.58579 8.41421 1.25 8 1.25C7.58579 1.25 7.25 1.58579 7.25 2H8.75ZM7.25 5C7.25 5.41421 7.58579 5.75 8 5.75C8.41421 5.75 8.75 5.41421 8.75 5H7.25ZM14.5303 14.5303C14.8232 14.2374 14.8232 13.7626 14.5303 13.4697C14.2374 13.1768 13.7626 13.1768 13.4697 13.4697L14.5303 14.5303ZM11.2929 15.2929L11.8232 14.7626L11.2929 15.2929ZM10.5303 13.4697C10.2374 13.1768 9.76256 13.1768 9.46967 13.4697C9.17678 13.7626 9.17678 14.2374 9.46967 14.5303L10.5303 13.4697ZM12.75 10C12.75 9.58579 12.4142 9.25 12 9.25C11.5858 9.25 11.25 9.58579 11.25 10H12.75ZM11.25 15C11.25 15.4142 11.5858 15.75 12 15.75C12.4142 15.75 12.75 15.4142 12.75 15H11.25ZM7 4.25H17V2.75H7V4.25ZM20.25 7.5V18H21.75V7.5H20.25ZM17 21.25H7V22.75H17V21.25ZM3.75 18V7.5H2.25V18H3.75ZM7 21.25C5.20507 21.25 3.75 19.7949 3.75 18H2.25C2.25 20.6234 4.37665 22.75 7 22.75V21.25ZM20.25 18C20.25 19.7949 18.7949 21.25 17 21.25V22.75C19.6234 22.75 21.75 20.6234 21.75 18H20.25ZM17 4.25C18.7949 4.25 20.25 5.70507 20.25 7.5H21.75C21.75 4.87665 19.6234 2.75 17 2.75V4.25ZM7 2.75C4.37665 2.75 2.25 4.87665 2.25 7.5H3.75C3.75 5.70507 5.20507 4.25 7 4.25V2.75ZM15.25 2V5H16.75V2H15.25ZM7.25 2V5H8.75V2H7.25ZM13.4697 13.4697L12.1768 14.7626L13.2374 15.8232L14.5303 14.5303L13.4697 13.4697ZM11.8232 14.7626L10.5303 13.4697L9.46967 14.5303L10.7626 15.8232L11.8232 14.7626ZM12.1768 14.7626C12.0791 14.8602 11.9209 14.8602 11.8232 14.7626L10.7626 15.8232C11.446 16.5066 12.554 16.5066 13.2374 15.8232L12.1768 14.7626ZM11.25 10V15H12.75V10H11.25Z" fill="#28303F"/>
</svg>
