<svg width="24" height="24" viewBox="0 0 24 24" fill="none" xmlns="http://www.w3.org/2000/svg">
<path d="M7 8.25C6.58579 8.25 6.25 8.58579 6.25 9C6.25 9.41421 6.58579 9.75 7 9.75V8.25ZM17 9.75C17.4142 9.75 17.75 9.41421 17.75 9C17.75 8.58579 17.4142 8.25 17 8.25V9.75ZM7 12.25C6.58579 12.25 6.25 12.5858 6.25 13C6.25 13.4142 6.58579 13.75 7 13.75V12.25ZM17 13.75C17.4142 13.75 17.75 13.4142 17.75 13C17.75 12.5858 17.4142 12.25 17 12.25V13.75ZM7 16.25C6.58579 16.25 6.25 16.5858 6.25 17C6.25 17.4142 6.58579 17.75 7 17.75V16.25ZM12 17.75C12.4142 17.75 12.75 17.4142 12.75 17C12.75 16.5858 12.4142 16.25 12 16.25V17.75ZM16.75 2C16.75 1.58579 16.4142 1.25 16 1.25C15.5858 1.25 15.25 1.58579 15.25 2H16.75ZM15.25 5C15.25 5.41421 15.5858 5.75 16 5.75C16.4142 5.75 16.75 5.41421 16.75 5H15.25ZM8.75 2C8.75 1.58579 8.41421 1.25 8 1.25C7.58579 1.25 7.25 1.58579 7.25 2H8.75ZM7.25 5C7.25 5.41421 7.58579 5.75 8 5.75C8.41421 5.75 8.75 5.41421 8.75 5H7.25ZM7 4.25H17V2.75H7V4.25ZM20.25 7.5V18H21.75V7.5H20.25ZM17 21.25H7V22.75H17V21.25ZM3.75 18V7.5H2.25V18H3.75ZM7 21.25C5.20507 21.25 3.75 19.7949 3.75 18H2.25C2.25 20.6234 4.37665 22.75 7 22.75V21.25ZM20.25 18C20.25 19.7949 18.7949 21.25 17 21.25V22.75C19.6234 22.75 21.75 20.6234 21.75 18H20.25ZM17 4.25C18.7949 4.25 20.25 5.70507 20.25 7.5H21.75C21.75 4.87665 19.6234 2.75 17 2.75V4.25ZM7 2.75C4.37665 2.75 2.25 4.87665 2.25 7.5H3.75C3.75 5.70507 5.20507 4.25 7 4.25V2.75ZM7 9.75H17V8.25H7V9.75ZM7 13.75H17V12.25H7V13.75ZM7 17.75H12V16.25H7V17.75ZM15.25 2V5H16.75V2H15.25ZM7.25 2V5H8.75V2H7.25Z" fill="#28303F"/>
</svg>
