<svg width="24" height="24" viewBox="0 0 24 24" fill="none" xmlns="http://www.w3.org/2000/svg">
<path d="M14.6517 12.409C14.9446 12.1161 14.9446 11.6412 14.6517 11.3483C14.3588 11.0554 13.8839 11.0554 13.591 11.3483L14.6517 12.409ZM9.34837 15.591C9.05547 15.8839 9.05547 16.3587 9.34837 16.6516C9.64126 16.9445 10.1161 16.9445 10.409 16.6516L9.34837 15.591ZM13.591 16.6517C13.8839 16.9446 14.3588 16.9446 14.6517 16.6517C14.9446 16.3588 14.9446 15.8839 14.6517 15.591L13.591 16.6517ZM10.409 11.3484C10.1161 11.0555 9.64126 11.0555 9.34837 11.3484C9.05547 11.6413 9.05547 12.1161 9.34837 12.409L10.409 11.3484ZM13.591 11.3483L9.34837 15.591L10.409 16.6516L14.6517 12.409L13.591 11.3483ZM20.25 8V18H21.75V8H20.25ZM17 21.25H7V22.75H17V21.25ZM3.75 18V8H2.25V18H3.75ZM16 4.75H17V3.25H16V4.75ZM7 4.75H8V3.25H7V4.75ZM7 21.25C5.20507 21.25 3.75 19.7949 3.75 18H2.25C2.25 20.6234 4.37665 22.75 7 22.75V21.25ZM20.25 18C20.25 19.7949 18.7949 21.25 17 21.25V22.75C19.6234 22.75 21.75 20.6234 21.75 18H20.25ZM21.75 8C21.75 5.37665 19.6234 3.25 17 3.25V4.75C18.7949 4.75 20.25 6.20507 20.25 8H21.75ZM3.75 8C3.75 6.20507 5.20507 4.75 7 4.75V3.25C4.37665 3.25 2.25 5.37665 2.25 8H3.75ZM10 2.75H14V1.25H10V2.75ZM14 5.25H10V6.75H14V5.25ZM10 5.25C9.30964 5.25 8.75 4.69036 8.75 4H7.25C7.25 5.51878 8.48122 6.75 10 6.75V5.25ZM15.25 4C15.25 4.69036 14.6904 5.25 14 5.25V6.75C15.5188 6.75 16.75 5.51878 16.75 4H15.25ZM14 2.75C14.6904 2.75 15.25 3.30964 15.25 4H16.75C16.75 2.48122 15.5188 1.25 14 1.25V2.75ZM10 1.25C8.48122 1.25 7.25 2.48122 7.25 4H8.75C8.75 3.30964 9.30964 2.75 10 2.75V1.25ZM14.6517 15.591L10.409 11.3484L9.34837 12.409L13.591 16.6517L14.6517 15.591Z" fill="#28303F"/>
</svg>
