<svg width="24" height="24" viewBox="0 0 24 24" fill="none" xmlns="http://www.w3.org/2000/svg">
<path d="M11.9999 12.182L11.4696 12.7123C11.7625 13.0052 12.2374 13.0052 12.5303 12.7123L11.9999 12.182ZM12.2651 11.9168L12.7954 12.4471H12.7954L12.2651 11.9168ZM11.7348 11.9168L11.2044 12.4471L11.2044 12.4471L11.7348 11.9168ZM9.08311 14.5684L9.61344 14.0381L9.08311 14.5684ZM10.9393 16.4246L10.4089 16.9549L10.9393 16.4246ZM12.5303 12.7123L12.7954 12.4471L11.7348 11.3865L11.4696 11.6516L12.5303 12.7123ZM11.2044 12.4471L11.4696 12.7123L12.5303 11.6516L12.2651 11.3865L11.2044 12.4471ZM8.55278 15.0988L10.4089 16.9549L11.4696 15.8943L9.61344 14.0381L8.55278 15.0988ZM13.5909 16.9549L15.4471 15.0988L14.3864 14.0381L12.5303 15.8943L13.5909 16.9549ZM14.3864 12.4471C14.8258 12.8865 14.8258 13.5988 14.3864 14.0381L15.4471 15.0988C16.4722 14.0736 16.4722 12.4116 15.4471 11.3865L14.3864 12.4471ZM15.4471 11.3865C14.4219 10.3613 12.7599 10.3613 11.7348 11.3865L12.7954 12.4471C13.2348 12.0078 13.9471 12.0078 14.3864 12.4471L15.4471 11.3865ZM9.61344 12.4471C10.0528 12.0078 10.7651 12.0078 11.2044 12.4471L12.2651 11.3865C11.24 10.3613 9.57791 10.3613 8.55278 11.3865L9.61344 12.4471ZM10.4089 16.9549C11.2876 17.8336 12.7122 17.8336 13.5909 16.9549L12.5303 15.8943C12.2374 16.1872 11.7625 16.1872 11.4696 15.8943L10.4089 16.9549ZM8.55278 11.3865C7.52765 12.4116 7.52765 14.0736 8.55278 15.0988L9.61344 14.0381C9.1741 13.5988 9.1741 12.8865 9.61344 12.4471L8.55278 11.3865ZM20.25 8V18H21.75V8H20.25ZM17 21.25H7V22.75H17V21.25ZM3.75 18V8H2.25V18H3.75ZM16 4.75H17V3.25H16V4.75ZM7 4.75H8V3.25H7V4.75ZM7 21.25C5.20507 21.25 3.75 19.7949 3.75 18H2.25C2.25 20.6234 4.37665 22.75 7 22.75V21.25ZM20.25 18C20.25 19.7949 18.7949 21.25 17 21.25V22.75C19.6234 22.75 21.75 20.6234 21.75 18H20.25ZM21.75 8C21.75 5.37665 19.6234 3.25 17 3.25V4.75C18.7949 4.75 20.25 6.20507 20.25 8H21.75ZM3.75 8C3.75 6.20507 5.20507 4.75 7 4.75V3.25C4.37665 3.25 2.25 5.37665 2.25 8H3.75ZM10 2.75H14V1.25H10V2.75ZM14 5.25H10V6.75H14V5.25ZM10 5.25C9.30964 5.25 8.75 4.69036 8.75 4H7.25C7.25 5.51878 8.48122 6.75 10 6.75V5.25ZM15.25 4C15.25 4.69036 14.6904 5.25 14 5.25V6.75C15.5188 6.75 16.75 5.51878 16.75 4H15.25ZM14 2.75C14.6904 2.75 15.25 3.30964 15.25 4H16.75C16.75 2.48122 15.5188 1.25 14 1.25V2.75ZM10 1.25C8.48122 1.25 7.25 2.48122 7.25 4H8.75C8.75 3.30964 9.30964 2.75 10 2.75V1.25Z" fill="#28303F"/>
</svg>
