<svg width="24" height="24" viewBox="0 0 24 24" fill="none" xmlns="http://www.w3.org/2000/svg">
<path d="M10.5303 14.4697C10.2374 14.1768 9.76256 14.1768 9.46967 14.4697C9.17678 14.7626 9.17678 15.2375 9.46967 15.5304L10.5303 14.4697ZM11.2929 16.2929L10.7626 16.8233L11.2929 16.2929ZM12.7071 16.2929L12.1768 15.7626L12.7071 16.2929ZM14.5303 15.5304C14.8232 15.2375 14.8232 14.7626 14.5303 14.4697C14.2374 14.1768 13.7626 14.1768 13.4697 14.4697L14.5303 15.5304ZM12.75 11C12.75 10.5858 12.4142 10.25 12 10.25C11.5858 10.25 11.25 10.5858 11.25 11H12.75ZM11.25 16C11.25 16.4142 11.5858 16.75 12 16.75C12.4142 16.75 12.75 16.4142 12.75 16H11.25ZM9.46967 15.5304L10.7626 16.8233L11.8232 15.7626L10.5303 14.4697L9.46967 15.5304ZM13.2374 16.8233L14.5303 15.5304L13.4697 14.4697L12.1768 15.7626L13.2374 16.8233ZM10.7626 16.8233C11.446 17.5067 12.554 17.5067 13.2374 16.8233L12.1768 15.7626C12.0791 15.8602 11.9209 15.8602 11.8232 15.7626L10.7626 16.8233ZM11.25 11V16H12.75V11H11.25ZM20.25 8V18H21.75V8H20.25ZM17 21.25H7V22.75H17V21.25ZM3.75 18V8H2.25V18H3.75ZM16 4.75H17V3.25H16V4.75ZM7 4.75H8V3.25H7V4.75ZM7 21.25C5.20507 21.25 3.75 19.7949 3.75 18H2.25C2.25 20.6234 4.37665 22.75 7 22.75V21.25ZM20.25 18C20.25 19.7949 18.7949 21.25 17 21.25V22.75C19.6234 22.75 21.75 20.6234 21.75 18H20.25ZM21.75 8C21.75 5.37665 19.6234 3.25 17 3.25V4.75C18.7949 4.75 20.25 6.20507 20.25 8H21.75ZM3.75 8C3.75 6.20507 5.20507 4.75 7 4.75V3.25C4.37665 3.25 2.25 5.37665 2.25 8H3.75ZM10 2.75H14V1.25H10V2.75ZM14 5.25H10V6.75H14V5.25ZM10 5.25C9.30964 5.25 8.75 4.69036 8.75 4H7.25C7.25 5.51878 8.48122 6.75 10 6.75V5.25ZM15.25 4C15.25 4.69036 14.6904 5.25 14 5.25V6.75C15.5188 6.75 16.75 5.51878 16.75 4H15.25ZM14 2.75C14.6904 2.75 15.25 3.30964 15.25 4H16.75C16.75 2.48122 15.5188 1.25 14 1.25V2.75ZM10 1.25C8.48122 1.25 7.25 2.48122 7.25 4H8.75C8.75 3.30964 9.30964 2.75 10 2.75V1.25Z" fill="#28303F"/>
</svg>
