<svg width="24" height="24" viewBox="0 0 24 24" fill="none" xmlns="http://www.w3.org/2000/svg">
<path d="M9.46967 12.0555C9.17678 12.3484 9.17678 12.8232 9.46967 13.1161C9.76256 13.409 10.2374 13.409 10.5303 13.1161L9.46967 12.0555ZM11.2929 11.2929L10.7626 10.7626L11.2929 11.2929ZM12.7071 11.2929L12.1768 11.8232L12.7071 11.2929ZM13.4697 13.1161C13.7626 13.409 14.2374 13.409 14.5303 13.1161C14.8232 12.8232 14.8232 12.3483 14.5303 12.0555L13.4697 13.1161ZM11.25 16.5858C11.25 17 11.5858 17.3358 12 17.3358C12.4142 17.3358 12.75 17 12.75 16.5858H11.25ZM12.75 11.5858C12.75 11.1716 12.4142 10.8358 12 10.8358C11.5858 10.8358 11.25 11.1716 11.25 11.5858H12.75ZM10.5303 13.1161L11.8232 11.8232L10.7626 10.7626L9.46967 12.0555L10.5303 13.1161ZM12.1768 11.8232L13.4697 13.1161L14.5303 12.0555L13.2374 10.7626L12.1768 11.8232ZM11.8232 11.8232C11.9209 11.7256 12.0791 11.7256 12.1768 11.8232L13.2374 10.7626C12.554 10.0791 11.446 10.0791 10.7626 10.7626L11.8232 11.8232ZM12.75 16.5858V11.5858H11.25V16.5858H12.75ZM20.25 8V18H21.75V8H20.25ZM17 21.25H7V22.75H17V21.25ZM3.75 18V8H2.25V18H3.75ZM16 4.75H17V3.25H16V4.75ZM7 4.75H8V3.25H7V4.75ZM7 21.25C5.20507 21.25 3.75 19.7949 3.75 18H2.25C2.25 20.6234 4.37665 22.75 7 22.75V21.25ZM20.25 18C20.25 19.7949 18.7949 21.25 17 21.25V22.75C19.6234 22.75 21.75 20.6234 21.75 18H20.25ZM21.75 8C21.75 5.37665 19.6234 3.25 17 3.25V4.75C18.7949 4.75 20.25 6.20507 20.25 8H21.75ZM3.75 8C3.75 6.20507 5.20507 4.75 7 4.75V3.25C4.37665 3.25 2.25 5.37665 2.25 8H3.75ZM10 2.75H14V1.25H10V2.75ZM14 5.25H10V6.75H14V5.25ZM10 5.25C9.30964 5.25 8.75 4.69036 8.75 4H7.25C7.25 5.51878 8.48122 6.75 10 6.75V5.25ZM15.25 4C15.25 4.69036 14.6904 5.25 14 5.25V6.75C15.5188 6.75 16.75 5.51878 16.75 4H15.25ZM14 2.75C14.6904 2.75 15.25 3.30964 15.25 4H16.75C16.75 2.48122 15.5188 1.25 14 1.25V2.75ZM10 1.25C8.48122 1.25 7.25 2.48122 7.25 4H8.75C8.75 3.30964 9.30964 2.75 10 2.75V1.25Z" fill="#28303F"/>
</svg>
