<svg width="24" height="24" viewBox="0 0 24 24" fill="none" xmlns="http://www.w3.org/2000/svg">
<path fill-rule="evenodd" clip-rule="evenodd" d="M8.24998 5C8.24998 2.92893 9.92891 1.25 12 1.25C14.071 1.25 15.75 2.92893 15.75 5V6.00977C17.6423 6.14174 19.1995 7.59586 19.438 9.50386L20.438 17.5039C20.7364 19.8913 18.8748 22 16.4688 22H7.53111C5.12511 22 3.26357 19.8913 3.562 17.5039L4.562 9.50386C4.8005 7.59586 6.35767 6.14174 8.24998 6.00977V5ZM14.25 5V6H9.74998V5C9.74998 3.75736 10.7573 2.75 12 2.75C13.2426 2.75 14.25 3.75736 14.25 5ZM15.3683 16.6533C15.7292 16.4499 15.8567 15.9925 15.6533 15.6317C15.4499 15.2708 14.9925 15.1433 14.6317 15.3467C13.4944 15.9879 12.7191 16.2486 11.9999 16.25C11.2821 16.2514 10.507 15.9945 9.37085 15.3481C9.01082 15.1433 8.55292 15.2691 8.3481 15.6292C8.14329 15.9892 8.26912 16.4471 8.62915 16.6519C9.8491 17.3459 10.8978 17.7521 12.0028 17.75C13.1065 17.7479 14.1532 17.3384 15.3683 16.6533Z" fill="#28303F"/>
</svg>
