<svg width="24" height="24" viewBox="0 0 24 24" fill="none" xmlns="http://www.w3.org/2000/svg">
<path fill-rule="evenodd" clip-rule="evenodd" d="M8.24998 5C8.24998 2.92893 9.92891 1.25 12 1.25C14.071 1.25 15.75 2.92893 15.75 5V6.00977C17.6423 6.14174 19.1995 7.59586 19.438 9.50386L20.438 17.5039C20.7364 19.8913 18.8748 22 16.4688 22H7.53111C5.12511 22 3.26357 19.8913 3.562 17.5039L4.562 9.50386C4.8005 7.59586 6.35767 6.14174 8.24998 6.00977V5ZM14.25 5V6H9.74998V5C9.74998 3.75736 10.7573 2.75 12 2.75C13.2426 2.75 14.25 3.75736 14.25 5ZM9 13.25C8.58579 13.25 8.25 13.5858 8.25 14C8.25 14.4142 8.58579 14.75 9 14.75H15C15.4142 14.75 15.75 14.4142 15.75 14C15.75 13.5858 15.4142 13.25 15 13.25H9Z" fill="#28303F"/>
</svg>
