<svg width="24" height="24" viewBox="0 0 24 24" fill="none" xmlns="http://www.w3.org/2000/svg">
<path fill-rule="evenodd" clip-rule="evenodd" d="M12 1.25C9.92891 1.25 8.24998 2.92893 8.24998 5V6.00977C6.35767 6.14174 4.8005 7.59586 4.562 9.50386L3.562 17.5039C3.26357 19.8913 5.12511 22 7.53111 22H16.4688C18.8748 22 20.7364 19.8913 20.438 17.5039L19.438 9.50386C19.1995 7.59586 17.6423 6.14174 15.75 6.00977V5C15.75 2.92893 14.071 1.25 12 1.25ZM14.25 6V5C14.25 3.75736 13.2426 2.75 12 2.75C10.7573 2.75 9.74998 3.75736 9.74998 5V6H14.25ZM8.25 14C8.25 13.5858 8.58579 13.25 9 13.25H11.25V11C11.25 10.5858 11.5858 10.25 12 10.25C12.4142 10.25 12.75 10.5858 12.75 11V13.25H15C15.4142 13.25 15.75 13.5858 15.75 14C15.75 14.4142 15.4142 14.75 15 14.75H12.75V17C12.75 17.4142 12.4142 17.75 12 17.75C11.5858 17.75 11.25 17.4142 11.25 17V14.75H9C8.58579 14.75 8.25 14.4142 8.25 14Z" fill="#28303F"/>
</svg>
