<svg width="24" height="24" viewBox="0 0 24 24" fill="none" xmlns="http://www.w3.org/2000/svg">
<path fill-rule="evenodd" clip-rule="evenodd" d="M8.24998 5C8.24998 2.92893 9.92891 1.25 12 1.25C14.071 1.25 15.75 2.92893 15.75 5V6.00977C17.6423 6.14174 19.1995 7.59586 19.438 9.50386L20.438 17.5039C20.7364 19.8913 18.8748 22 16.4688 22H7.53111C5.12511 22 3.26357 19.8913 3.562 17.5039L4.562 9.50386C4.8005 7.59586 6.35767 6.14174 8.24998 6.00977V5ZM14.25 5V6H9.74998V5C9.74998 3.75736 10.7573 2.75 12 2.75C13.2426 2.75 14.25 3.75736 14.25 5ZM15.5644 12.4939C15.8372 12.1822 15.8056 11.7083 15.4939 11.4356C15.1822 11.1628 14.7083 11.1944 14.4356 11.5061L11.5657 14.786C11.4776 14.8867 11.3258 14.9002 11.2213 14.8166L9.46852 13.4143C9.14507 13.1556 8.67311 13.208 8.41435 13.5315C8.15559 13.8549 8.20803 14.3269 8.53148 14.5857L10.2843 15.9879C11.0156 16.5729 12.0778 16.4786 12.6945 15.7738L15.5644 12.4939Z" fill="#28303F"/>
</svg>
