<svg width="24" height="24" viewBox="0 0 24 24" fill="none" xmlns="http://www.w3.org/2000/svg">
<path fill-rule="evenodd" clip-rule="evenodd" d="M8.24998 5C8.24998 2.92893 9.92891 1.25 12 1.25C14.071 1.25 15.75 2.92893 15.75 5V6.00977C17.6423 6.14174 19.1995 7.59586 19.438 9.50386L20.438 17.5039C20.7364 19.8913 18.8748 22 16.4688 22H7.53111C5.12511 22 3.26357 19.8913 3.562 17.5039L4.562 9.50386C4.8005 7.59586 6.35767 6.14174 8.24998 6.00977V5ZM14.25 5V6H9.74998V5C9.74998 3.75736 10.7573 2.75 12 2.75C13.2426 2.75 14.25 3.75736 14.25 5ZM10.409 11.3483C10.1161 11.0554 9.64123 11.0554 9.34833 11.3483C9.05544 11.6412 9.05544 12.1161 9.34833 12.409L10.9393 14L9.34837 15.591C9.05547 15.8839 9.05547 16.3587 9.34837 16.6516C9.64126 16.9445 10.1161 16.9445 10.409 16.6516L12 15.0607L13.591 16.6516C13.8839 16.9445 14.3587 16.9445 14.6516 16.6516C14.9445 16.3587 14.9445 15.8839 14.6516 15.591L13.0607 14L14.6517 12.409C14.9446 12.1161 14.9446 11.6412 14.6517 11.3483C14.3588 11.0554 13.8839 11.0554 13.591 11.3483L12 12.9393L10.409 11.3483Z" fill="#28303F"/>
</svg>
