<svg width="24" height="24" viewBox="0 0 24 24" fill="none" xmlns="http://www.w3.org/2000/svg">
<path fill-rule="evenodd" clip-rule="evenodd" d="M8.24998 5C8.24998 2.92893 9.92891 1.25 12 1.25C14.071 1.25 15.75 2.92893 15.75 5V6.00977C17.6423 6.14174 19.1995 7.59586 19.438 9.50386L20.438 17.5039C20.7364 19.8913 18.8748 22 16.4688 22H7.53111C5.12511 22 3.26357 19.8913 3.562 17.5039L4.562 9.50386C4.8005 7.59586 6.35767 6.14174 8.24998 6.00977V5ZM14.25 5V6H9.74998V5C9.74998 3.75736 10.7573 2.75 12 2.75C13.2426 2.75 14.25 3.75736 14.25 5ZM12 11.9999L12.2652 11.7347C12.9974 11.0025 14.1846 11.0025 14.9168 11.7347C15.649 12.467 15.649 13.6542 14.9168 14.3864L13.0607 16.2425C12.4749 16.8283 11.5251 16.8283 10.9393 16.2425L9.08318 14.3864C8.35095 13.6542 8.35095 12.467 9.08318 11.7347C9.81542 11.0025 11.0026 11.0025 11.7348 11.7347L12 11.9999Z" fill="#28303F"/>
</svg>
