<svg width="24" height="24" viewBox="0 0 24 24" fill="none" xmlns="http://www.w3.org/2000/svg">
<path fill-rule="evenodd" clip-rule="evenodd" d="M12 1.625C9.92891 1.625 8.24998 3.30393 8.24998 5.375V6.38477C6.35767 6.51674 4.8005 7.97086 4.562 9.87886L3.562 17.8789C3.26357 20.2663 5.12511 22.375 7.53111 22.375H16.4688C18.8748 22.375 20.7364 20.2663 20.438 17.8789L19.438 9.87886C19.1995 7.97086 17.6423 6.51674 15.75 6.38477V5.375C15.75 3.30393 14.071 1.625 12 1.625ZM14.25 6.375V5.375C14.25 4.13236 13.2426 3.125 12 3.125C10.7573 3.125 9.74998 4.13236 9.74998 5.375V6.375H14.25Z" fill="#28303F"/>
</svg>
