<svg width="24" height="24" viewBox="0 0 24 24" fill="none" xmlns="http://www.w3.org/2000/svg">
<path fill-rule="evenodd" clip-rule="evenodd" d="M12.4802 1.42383C12.202 1.19206 11.798 1.19206 11.5199 1.42383L6.02848 6H5C3.34315 6 2 7.34315 2 9V19C2 20.6569 3.34315 22 5 22H19C20.6569 22 22 20.6569 22 19V9C22 7.34315 20.6569 6 19 6H17.9716L12.4802 1.42383ZM15.6285 6L12 2.97628L8.37156 6H15.6285ZM6.25 10C6.25 9.58579 6.58579 9.25 7 9.25H17C17.4142 9.25 17.75 9.58579 17.75 10C17.75 10.4142 17.4142 10.75 17 10.75H7C6.58579 10.75 6.25 10.4142 6.25 10ZM7 13.25C6.58579 13.25 6.25 13.5858 6.25 14C6.25 14.4142 6.58579 14.75 7 14.75H17C17.4142 14.75 17.75 14.4142 17.75 14C17.75 13.5858 17.4142 13.25 17 13.25H7ZM6.25 18C6.25 17.5858 6.58579 17.25 7 17.25H12C12.4142 17.25 12.75 17.5858 12.75 18C12.75 18.4142 12.4142 18.75 12 18.75H7C6.58579 18.75 6.25 18.4142 6.25 18Z" fill="#28303F"/>
</svg>
