<svg width="24" height="24" viewBox="0 0 24 24" fill="none" xmlns="http://www.w3.org/2000/svg">
<path fill-rule="evenodd" clip-rule="evenodd" d="M2 7.75V10.25H22V7.75H2ZM21.9298 6.25H2.0702C2.42125 4.39935 4.04721 3 6 3H18C19.9528 3 21.5787 4.39935 21.9298 6.25ZM2 11.75H22V17C22 19.2091 20.2091 21 18 21H6C3.79086 21 2 19.2091 2 17V11.75ZM6 16.25C5.58579 16.25 5.25 16.5858 5.25 17C5.25 17.4142 5.58579 17.75 6 17.75H8C8.41421 17.75 8.75 17.4142 8.75 17C8.75 16.5858 8.41421 16.25 8 16.25H6Z" fill="#28303F"/>
</svg>
