<svg width="24" height="24" viewBox="0 0 24 24" fill="none" xmlns="http://www.w3.org/2000/svg">
<path fill-rule="evenodd" clip-rule="evenodd" d="M2.75 1.25C2.33579 1.25 2 1.58579 2 2C2 2.41421 2.33579 2.75 2.75 2.75H4.75C5.44036 2.75 6 3.30964 6 4V6V13C6 15.2091 7.79086 17 10 17H18C20.2091 17 22 15.2091 22 13V8C22 5.79086 20.2091 4 18 4H7.5C7.5 2.48122 6.26878 1.25 4.75 1.25H2.75ZM17.5644 9.49388C17.8372 9.18215 17.8056 8.70833 17.4939 8.43557C17.1822 8.16281 16.7083 8.19439 16.4356 8.50612L13.5657 11.786C13.4776 11.8867 13.3258 11.9002 13.2213 11.8166L11.4685 10.4143C11.1451 10.1556 10.6731 10.208 10.4143 10.5315C10.1556 10.8549 10.208 11.3269 10.5315 11.5857L12.2843 12.9879C13.0156 13.5729 14.0778 13.4786 14.6945 12.7738L17.5644 9.49388ZM9.5 22C10.3284 22 11 21.3284 11 20.5C11 19.6716 10.3284 19 9.5 19C8.67157 19 8 19.6716 8 20.5C8 21.3284 8.67157 22 9.5 22ZM18.5 22C19.3284 22 20 21.3284 20 20.5C20 19.6716 19.3284 19 18.5 19C17.6716 19 17 19.6716 17 20.5C17 21.3284 17.6716 22 18.5 22Z" fill="#28303F"/>
</svg>
