<svg width="24" height="24" viewBox="0 0 24 24" fill="none" xmlns="http://www.w3.org/2000/svg">
<path fill-rule="evenodd" clip-rule="evenodd" d="M2.75 1.25C2.33579 1.25 2 1.58579 2 2C2 2.41421 2.33579 2.75 2.75 2.75H4.75C5.44036 2.75 6 3.30964 6 4V6V13C6 15.2091 7.79086 17 10 17H18C20.2091 17 22 15.2091 22 13V8C22 5.79086 20.2091 4 18 4H7.5C7.5 2.48122 6.26878 1.25 4.75 1.25H2.75ZM9.5 22C10.3284 22 11 21.3284 11 20.5C11 19.6716 10.3284 19 9.5 19C8.67157 19 8 19.6716 8 20.5C8 21.3284 8.67157 22 9.5 22ZM20 20.5C20 21.3284 19.3284 22 18.5 22C17.6716 22 17 21.3284 17 20.5C17 19.6716 17.6716 19 18.5 19C19.3284 19 20 19.6716 20 20.5ZM17.6533 11.6317C17.8567 11.9925 17.7292 12.4499 17.3683 12.6533C16.1532 13.3384 15.1065 13.7479 14.0028 13.75C12.8978 13.7521 11.8491 13.3459 10.6292 12.6519C10.2691 12.4471 10.1433 11.9892 10.3481 11.6292C10.5529 11.2691 11.0108 11.1433 11.3708 11.3481C12.507 11.9945 13.2821 12.2514 13.9999 12.25C14.7191 12.2486 15.4944 11.9879 16.6317 11.3467C16.9925 11.1433 17.4499 11.2708 17.6533 11.6317Z" fill="#28303F"/>
</svg>
