<svg width="24" height="24" viewBox="0 0 24 24" fill="none" xmlns="http://www.w3.org/2000/svg">
<path fill-rule="evenodd" clip-rule="evenodd" d="M2.75 1.25C2.33579 1.25 2 1.58579 2 2C2 2.41421 2.33579 2.75 2.75 2.75H4.75C5.44036 2.75 6 3.30964 6 4V6V13C6 15.2091 7.79086 17 10 17H18C20.2091 17 22 15.2091 22 13V8C22 5.79086 20.2091 4 18 4H7.5C7.5 2.48122 6.26878 1.25 4.75 1.25H2.75ZM9.5 22C10.3284 22 11 21.3284 11 20.5C11 19.6716 10.3284 19 9.5 19C8.67157 19 8 19.6716 8 20.5C8 21.3284 8.67157 22 9.5 22ZM20 20.5C20 21.3284 19.3284 22 18.5 22C17.6716 22 17 21.3284 17 20.5C17 19.6716 17.6716 19 18.5 19C19.3284 19 20 19.6716 20 20.5ZM11 7.75C10.5858 7.75 10.25 8.08579 10.25 8.5C10.25 8.91421 10.5858 9.25 11 9.25H17C17.4142 9.25 17.75 8.91421 17.75 8.5C17.75 8.08579 17.4142 7.75 17 7.75H11ZM10.25 12.5C10.25 12.0858 10.5858 11.75 11 11.75H17C17.4142 11.75 17.75 12.0858 17.75 12.5C17.75 12.9142 17.4142 13.25 17 13.25H11C10.5858 13.25 10.25 12.9142 10.25 12.5Z" fill="#28303F"/>
</svg>
