<svg width="24" height="24" viewBox="0 0 24 24" fill="none" xmlns="http://www.w3.org/2000/svg">
<path fill-rule="evenodd" clip-rule="evenodd" d="M2.75 1.25C2.33579 1.25 2 1.58579 2 2C2 2.41421 2.33579 2.75 2.75 2.75H4.75C5.44036 2.75 6 3.30964 6 4V6V13C6 15.2091 7.79086 17 10 17H18C20.2091 17 22 15.2091 22 13V8C22 5.79086 20.2091 4 18 4H7.5C7.5 2.48122 6.26878 1.25 4.75 1.25H2.75ZM9.5 22C10.3284 22 11 21.3284 11 20.5C11 19.6716 10.3284 19 9.5 19C8.67157 19 8 19.6716 8 20.5C8 21.3284 8.67157 22 9.5 22ZM20 20.5C20 21.3284 19.3284 22 18.5 22C17.6716 22 17 21.3284 17 20.5C17 19.6716 17.6716 19 18.5 19C19.3284 19 20 19.6716 20 20.5ZM13.25 9.39645L12.5303 10.1161C12.2374 10.409 11.7626 10.409 11.4697 10.1161C11.1768 9.82322 11.1768 9.34835 11.4697 9.05546L12.7626 7.76256C13.446 7.07915 14.554 7.07914 15.2374 7.76256L16.5303 9.05546C16.8232 9.34835 16.8232 9.82322 16.5303 10.1161C16.2374 10.409 15.7626 10.409 15.4697 10.1161L14.75 9.39645V13.5858C14.75 14 14.4142 14.3358 14 14.3358C13.5858 14.3358 13.25 14 13.25 13.5858V9.39645Z" fill="#28303F"/>
</svg>
