<svg width="24" height="24" viewBox="0 0 24 24" fill="none" xmlns="http://www.w3.org/2000/svg">
<path fill-rule="evenodd" clip-rule="evenodd" d="M2.75 1.25C2.33579 1.25 2 1.58579 2 2C2 2.41421 2.33579 2.75 2.75 2.75H4.75C5.44036 2.75 6 3.30964 6 4V6V13C6 15.2091 7.79086 17 10 17H18C20.2091 17 22 15.2091 22 13V8C22 5.79086 20.2091 4 18 4H7.5C7.5 2.48122 6.26878 1.25 4.75 1.25H2.75ZM9.5 22C10.3284 22 11 21.3284 11 20.5C11 19.6716 10.3284 19 9.5 19C8.67157 19 8 19.6716 8 20.5C8 21.3284 8.67157 22 9.5 22ZM20 20.5C20 21.3284 19.3284 22 18.5 22C17.6716 22 17 21.3284 17 20.5C17 19.6716 17.6716 19 18.5 19C19.3284 19 20 19.6716 20 20.5ZM11.7018 8.20185C11.9947 7.90895 12.4696 7.90895 12.7625 8.20185L13.9999 9.43929L15.2374 8.20185C15.5303 7.90895 16.0051 7.90895 16.298 8.20185C16.5909 8.49474 16.5909 8.96961 16.298 9.26251L15.0606 10.4999L16.298 11.7374C16.5909 12.0303 16.5909 12.5051 16.298 12.798C16.0051 13.0909 15.5303 13.0909 15.2374 12.798L13.9999 11.5606L12.7625 12.798C12.4696 13.0909 11.9947 13.0909 11.7018 12.798C11.409 12.5051 11.409 12.0303 11.7018 11.7374L12.9393 10.4999L11.7018 9.26251C11.409 8.96961 11.409 8.49474 11.7018 8.20185Z" fill="#28303F"/>
</svg>
