<svg width="24" height="25" viewBox="0 0 24 25" fill="none" xmlns="http://www.w3.org/2000/svg">
<path fill-rule="evenodd" clip-rule="evenodd" d="M12.75 13.6268L12.7674 13.6268C17.1094 13.6268 20.0137 9.15772 18.2503 5.19L16.9306 2.22069C16.7701 1.85956 16.412 1.62683 16.0168 1.62683H7.98322C7.58803 1.62683 7.22991 1.85956 7.06941 2.22069L5.74972 5.19C3.98629 9.15772 6.89064 13.6268 11.2326 13.6268L11.25 13.6268V20.8768H9C8.58579 20.8768 8.25 21.2126 8.25 21.6268C8.25 22.041 8.58579 22.3768 9 22.3768H15C15.4142 22.3768 15.75 22.041 15.75 21.6268C15.75 21.2126 15.4142 20.8768 15 20.8768H12.75V13.6268ZM12.8354 3.95601C13.2059 4.14125 13.3561 4.59176 13.1708 4.96224L12.2135 6.87683H13C13.2599 6.87683 13.5013 7.01142 13.638 7.23253C13.7747 7.45365 13.7871 7.72975 13.6708 7.96224L12.1708 10.9622C11.9856 11.3327 11.5351 11.4829 11.1646 11.2977C10.7941 11.1124 10.644 10.6619 10.8292 10.2914L11.7865 8.37683H11C10.7401 8.37683 10.4987 8.24224 10.362 8.02113C10.2254 7.80002 10.2129 7.52391 10.3292 7.29142L11.8292 4.29142C12.0144 3.92094 12.4649 3.77077 12.8354 3.95601Z" fill="#28303F"/>
</svg>
