<svg width="24" height="24" viewBox="0 0 24 24" fill="none" xmlns="http://www.w3.org/2000/svg">
<path fill-rule="evenodd" clip-rule="evenodd" d="M12 4.75C11.2658 4.75 10.7014 5.32651 10.7014 6C10.7014 6.41421 10.3656 6.75 9.95143 6.75C9.53722 6.75 9.20143 6.41421 9.20143 6C9.20143 4.46435 10.4715 3.25 12 3.25C13.5286 3.25 14.7986 4.46435 14.7986 6C14.7986 6.55033 14.6333 7.06399 14.3502 7.49353C14.1731 7.7623 13.966 8.01884 13.7751 8.25046C13.7402 8.29284 13.7059 8.33431 13.6721 8.37508C13.5137 8.56653 13.3682 8.74233 13.2338 8.92269C13.0236 9.20476 12.8858 9.44109 12.8129 9.65248L21.5672 15.7573C23.8257 17.3323 22.632 20.75 19.9475 20.75H4.05249C1.36801 20.75 0.17435 17.3323 2.43277 15.7573L11.286 9.58353C11.3932 8.96374 11.7216 8.44157 12.0311 8.02633C12.1905 7.81235 12.3653 7.60132 12.5242 7.40937C12.5561 7.37093 12.5873 7.33324 12.6176 7.29645C12.8073 7.06624 12.9688 6.86372 13.0978 6.66805C13.2255 6.47426 13.2986 6.24597 13.2986 6C13.2986 5.32651 12.7343 4.75 12 4.75ZM12 10.9144L3.29078 16.9877C2.30576 17.6746 2.75109 19.25 4.05249 19.25H19.9475C21.2489 19.25 21.6943 17.6746 20.7092 16.9877L12 10.9144Z" fill="#28303F"/>
</svg>
