<svg width="24" height="24" viewBox="0 0 24 24" fill="none" xmlns="http://www.w3.org/2000/svg">
<path fill-rule="evenodd" clip-rule="evenodd" d="M5 2H19C20.1046 2 21 2.89543 21 4V19.1543C21 20.5396 19.6259 21.5053 18.3226 21.0361L16.7608 20.4739C16.2728 20.2982 15.7356 20.319 15.2626 20.5318L12.8207 21.6307C12.2988 21.8655 11.7012 21.8655 11.1793 21.6307L8.73737 20.5318C8.26439 20.319 7.72721 20.2982 7.2392 20.4739L5.67744 21.0361C4.37412 21.5053 3 20.5396 3 19.1543V4C3 2.89543 3.89543 2 5 2ZM9 10C9.55228 10 10 9.55228 10 9C10 8.44772 9.55228 8 9 8C8.44772 8 8 8.44772 8 9C8 9.55228 8.44772 10 9 10ZM16 15C16 15.5523 15.5523 16 15 16C14.4477 16 14 15.5523 14 15C14 14.4477 14.4477 14 15 14C15.5523 14 16 14.4477 16 15ZM15.5303 9.53033C15.8232 9.23744 15.8232 8.76256 15.5303 8.46967C15.2374 8.17678 14.7626 8.17678 14.4697 8.46967L8.46967 14.4697C8.17678 14.7626 8.17678 15.2374 8.46967 15.5303C8.76256 15.8232 9.23744 15.8232 9.53033 15.5303L15.5303 9.53033Z" fill="#28303F"/>
</svg>
