<svg width="24" height="24" viewBox="0 0 24 24" fill="none" xmlns="http://www.w3.org/2000/svg">
<path d="M8.39799 5.25H15.602C16.7645 3.67982 15.1983 1.48227 13.2529 2.10985L12.3252 2.40914C12.1139 2.47728 11.8861 2.47728 11.6748 2.40914L10.7471 2.10985C8.80167 1.48227 7.23554 3.67982 8.39799 5.25Z" fill="#28303F"/>
<path fill-rule="evenodd" clip-rule="evenodd" d="M15.4939 6.75H8.50618C7.18691 7.48048 6.15623 8.70013 5.68429 10.2103L4.43429 14.2104C3.22692 18.0739 6.11332 22 10.1612 22H13.8389C17.8867 22 20.7731 18.0739 19.5658 14.2104L18.3158 10.2104C17.8438 8.70013 16.8131 7.48048 15.4939 6.75ZM15.364 18.6558C15.7262 18.4547 15.8568 17.9982 15.6558 17.636C15.4548 17.2739 14.9982 17.1432 14.636 17.3442C13.4669 17.9932 12.6655 18.2501 11.9401 18.2472C11.2185 18.2443 10.4607 17.9836 9.37785 17.3521C9.02004 17.1435 8.56081 17.2644 8.35214 17.6222C8.14347 17.98 8.26438 18.4392 8.62219 18.6479C9.79373 19.3311 10.8248 19.7427 11.9341 19.7472C13.0396 19.7517 14.111 19.3513 15.364 18.6558Z" fill="#28303F"/>
</svg>
