<svg width="24" height="24" viewBox="0 0 24 24" fill="none" xmlns="http://www.w3.org/2000/svg">
<path fill-rule="evenodd" clip-rule="evenodd" d="M22 18V6.96126C22 6.89031 21.9962 6.8198 21.9888 6.75H15V9C15 10.6569 13.6569 12 12 12C10.3431 12 9 10.6569 9 9V6.75H2.01118C2.00377 6.8198 2 6.8903 2 6.96126V18C2 20.2092 3.79086 22 6 22H18C20.2091 22 22 20.2092 22 18ZM18.0957 2.87654L21.0625 5.25H2.93751L5.90434 2.87653C6.6136 2.30912 7.49484 2 8.40313 2L15.5969 2.00001C16.5052 2.00001 17.3864 2.30914 18.0957 2.87654Z" fill="#28303F"/>
</svg>
