<svg width="24" height="24" viewBox="0 0 24 24" fill="none" xmlns="http://www.w3.org/2000/svg">
<path fill-rule="evenodd" clip-rule="evenodd" d="M13.4077 2.51845C12.5965 1.82718 11.4035 1.82718 10.5923 2.51845L9.87701 3.12803C9.52941 3.42425 9.09722 3.60327 8.64196 3.6396L7.70513 3.71436C6.64275 3.79914 5.79914 4.64275 5.71436 5.70513L5.6396 6.64196C5.60327 7.09722 5.42425 7.52941 5.12803 7.87701L4.51845 8.59231C3.82718 9.40347 3.82718 10.5965 4.51845 11.4077L5.12803 12.123C5.42425 12.4706 5.60327 12.9028 5.6396 13.358L5.71436 14.2949C5.79914 15.3572 6.64275 16.2009 7.70513 16.2856L8.64196 16.3604C9.09722 16.3967 9.52941 16.5757 9.87701 16.872L10.5923 17.4815C11.4035 18.1728 12.5965 18.1728 13.4077 17.4815L14.123 16.872C14.4706 16.5757 14.9028 16.3967 15.358 16.3604L16.2949 16.2856C17.3572 16.2009 18.2009 15.3572 18.2856 14.2949L18.3604 13.358C18.3967 12.9028 18.5757 12.4706 18.872 12.123L19.4815 11.4077C20.1728 10.5965 20.1728 9.40347 19.4815 8.59231L18.872 7.87701C18.5757 7.52941 18.3967 7.09722 18.3604 6.64196L18.2856 5.70513C18.2009 4.64275 17.3572 3.79914 16.2949 3.71436L15.358 3.6396C14.9028 3.60327 14.4706 3.42425 14.123 3.12803L13.4077 2.51845ZM7 20.5229V17.6863C7.18983 17.7329 7.38552 17.7648 7.58581 17.7808L8.52264 17.8556C8.66325 17.8668 8.79673 17.9221 8.90408 18.0136L9.61938 18.6231C10.9912 19.7922 13.0088 19.7922 14.3806 18.6231L15.0959 18.0136C15.2033 17.9221 15.3368 17.8668 15.4774 17.8556L16.4142 17.7808C16.6145 17.7648 16.8102 17.7329 17 17.6863V20.5229C17 21.2304 16.2855 21.7141 15.6286 21.4514L12.3714 20.1485C12.133 20.0531 11.867 20.0531 11.6286 20.1485L8.37139 21.4514C7.71453 21.7141 7 21.2304 7 20.5229Z" fill="#28303F"/>
</svg>
