<svg width="24" height="24" viewBox="0 0 24 24" fill="none" xmlns="http://www.w3.org/2000/svg">
<path fill-rule="evenodd" clip-rule="evenodd" d="M8.3886 3H15.6116C17.5669 3 19.2357 4.41365 19.5572 6.3424L21.2238 16.3424C21.6302 18.7805 19.75 21 17.2783 21H6.72194C4.25018 21 2.37001 18.7805 2.77636 16.3424L4.44303 6.3424C4.76449 4.41365 6.43325 3 8.3886 3ZM12.0001 10.75C14.0712 10.75 15.7501 9.07107 15.7501 7V6C15.7501 5.58579 15.4143 5.25 15.0001 5.25C14.5859 5.25 14.2501 5.58579 14.2501 6V7C14.2501 8.24264 13.2427 9.25 12.0001 9.25C10.7575 9.25 9.75009 8.24264 9.75009 7V6C9.75009 5.58579 9.41431 5.25 9.00009 5.25C8.58588 5.25 8.25009 5.58579 8.25009 6V7C8.25009 9.07107 9.92903 10.75 12.0001 10.75Z" fill="#28303F"/>
</svg>
