<svg width="24" height="24" viewBox="0 0 24 24" fill="none" xmlns="http://www.w3.org/2000/svg">
<path fill-rule="evenodd" clip-rule="evenodd" d="M5.24991 5V6.06435C3.62019 6.36204 2.37023 7.65897 2.06934 9.25H21.9305C21.6296 7.65897 20.3796 6.36204 18.7499 6.06435V5C18.7499 3.48122 17.5187 2.25 15.9999 2.25H7.99991C6.48113 2.25 5.24991 3.48122 5.24991 5ZM7.99991 3.75C7.30955 3.75 6.74991 4.30964 6.74991 5V6L17.2499 6V5C17.2499 4.30964 16.6903 3.75 15.9999 3.75H7.99991Z" fill="#28303F"/>
<path fill-rule="evenodd" clip-rule="evenodd" d="M21.9282 10.75H2.07161C2.07527 10.7693 2.07908 10.7887 2.08303 10.808L3.71795 18.808C4.09778 20.6666 5.71933 22 7.59969 22H16.4001C18.2805 22 19.9021 20.6666 20.2819 18.808L21.9168 10.808C21.9207 10.7887 21.9245 10.7693 21.9282 10.75ZM8.99976 13.25C9.41397 13.25 9.74976 13.5858 9.74976 14L9.74976 18C9.74976 18.4142 9.41397 18.75 8.99976 18.75C8.58554 18.75 8.24976 18.4142 8.24976 18L8.24976 14C8.24976 13.5858 8.58554 13.25 8.99976 13.25ZM15.7498 14C15.7498 13.5858 15.414 13.25 14.9998 13.25C14.5855 13.25 14.2498 13.5858 14.2498 14V18C14.2498 18.4142 14.5855 18.75 14.9998 18.75C15.414 18.75 15.7498 18.4142 15.7498 18V14Z" fill="#28303F"/>
</svg>
