<svg width="24" height="24" viewBox="0 0 24 24" fill="none" xmlns="http://www.w3.org/2000/svg">
<path d="M16.3127 6L14.4002 3.45004C14.1517 3.11867 14.2189 2.64857 14.5502 2.40004C14.8816 2.15152 15.3517 2.21867 15.6002 2.55004L18.1958 6.01078C20.0505 6.14567 21.5006 7.53009 21.8295 9.25H2.1709C2.49986 7.53007 3.94999 6.14564 5.80469 6.01078L8.40024 2.55004C8.64877 2.21867 9.11887 2.15152 9.45024 2.40004C9.78161 2.64857 9.84877 3.11867 9.60024 3.45004L7.68777 6H16.3127Z" fill="#28303F"/>
<path fill-rule="evenodd" clip-rule="evenodd" d="M2.17331 10.75H21.8271C21.814 10.8182 21.7991 10.8865 21.7823 10.9548L19.8158 18.9548C19.3762 20.7429 17.7728 22 15.9314 22H8.06907C6.22772 22 4.62426 20.743 4.18471 18.9548L2.21818 10.9548C2.20137 10.8865 2.18643 10.8182 2.17331 10.75ZM12 13.9999L12.2652 13.7347C12.9974 13.0025 14.1846 13.0025 14.9168 13.7347C15.649 14.4669 15.649 15.6541 14.9168 16.3864L13.0607 18.2425C12.4749 18.8283 11.5251 18.8283 10.9393 18.2425L9.08318 16.3864C8.35095 15.6541 8.35095 14.4669 9.08318 13.7347C9.81542 13.0025 11.0026 13.0025 11.7348 13.7347L12 13.9999Z" fill="#28303F"/>
</svg>
