<svg width="24" height="24" viewBox="0 0 24 24" fill="none" xmlns="http://www.w3.org/2000/svg">
<path d="M14.4002 3.45004L16.3127 6H7.68777L9.60024 3.45004C9.84877 3.11867 9.78161 2.64857 9.45024 2.40004C9.11887 2.15152 8.64877 2.21867 8.40024 2.55004L5.80469 6.01078C3.94999 6.14564 2.49986 7.53007 2.1709 9.25H21.8295C21.5006 7.53009 20.0505 6.14567 18.1958 6.01078L15.6002 2.55004C15.3517 2.21867 14.8816 2.15152 14.5502 2.40004C14.2189 2.64857 14.1517 3.11867 14.4002 3.45004Z" fill="#28303F"/>
<path fill-rule="evenodd" clip-rule="evenodd" d="M21.8271 10.75H2.17331C2.18643 10.8182 2.20137 10.8865 2.21818 10.9548L4.18471 18.9548C4.62426 20.743 6.22772 22 8.06907 22H15.9314C17.7728 22 19.3762 20.7429 19.8158 18.9548L21.7823 10.9548C21.7991 10.8865 21.814 10.8182 21.8271 10.75ZM14.6517 18.6517C14.3588 18.9446 13.8839 18.9446 13.591 18.6517L12 17.0607L10.409 18.6516C10.1161 18.9445 9.64126 18.9445 9.34837 18.6516C9.05547 18.3587 9.05547 17.8839 9.34837 17.591L10.9393 16L9.34837 14.409C9.05547 14.1161 9.05547 13.6413 9.34837 13.3484C9.64126 13.0555 10.1161 13.0555 10.409 13.3484L12 14.9393L13.591 13.3483C13.8839 13.0554 14.3588 13.0554 14.6517 13.3483C14.9446 13.6412 14.9446 14.1161 14.6517 14.409L13.0607 16L14.6517 17.591C14.9446 17.8839 14.9446 18.3588 14.6517 18.6517Z" fill="#28303F"/>
</svg>
