<svg width="24" height="25" viewBox="0 0 24 25" fill="none" xmlns="http://www.w3.org/2000/svg">
<path d="M16.3125 6L14.4 3.45004C14.1515 3.11867 14.2186 2.64857 14.55 2.40004C14.8814 2.15152 15.3515 2.21867 15.6 2.55004L18.1955 6.01078C20.0502 6.14567 21.5003 7.53009 21.8293 9.25H2.17065C2.49962 7.53007 3.94975 6.14564 5.80444 6.01078L8.39999 2.55004C8.64852 2.21867 9.11862 2.15152 9.44999 2.40004C9.78136 2.64857 9.84852 3.11867 9.59999 3.45004L7.68753 6H16.3125Z" fill="#28303F"/>
<path fill-rule="evenodd" clip-rule="evenodd" d="M2.17306 10.75H21.8269C21.8138 10.8182 21.7988 10.8865 21.782 10.9548L19.8155 18.9548C19.376 20.7429 17.7725 22 15.9312 22H8.06882C6.22747 22 4.62401 20.743 4.18446 18.9548L2.21793 10.9548C2.20113 10.8865 2.18618 10.8182 2.17306 10.75ZM15.5642 14.4939C15.837 14.1822 15.8054 13.7083 15.4936 13.4356C15.1819 13.1628 14.7081 13.1944 14.4353 13.5061L11.5654 16.786C11.4773 16.8867 11.3256 16.9002 11.2211 16.8166L9.46828 15.4143C9.14483 15.1556 8.67286 15.208 8.4141 15.5315C8.15535 15.8549 8.20779 16.3269 8.53123 16.5857L10.2841 17.9879C11.0153 18.5729 12.0776 18.4786 12.6943 17.7738L15.5642 14.4939Z" fill="#28303F"/>
</svg>
