<svg width="24" height="24" viewBox="0 0 24 24" fill="none" xmlns="http://www.w3.org/2000/svg">
<path d="M14.4002 3.45004L16.3127 6H7.68777L9.60024 3.45004C9.84877 3.11867 9.78161 2.64857 9.45024 2.40004C9.11887 2.15152 8.64877 2.21867 8.40024 2.55004L5.80469 6.01078C3.94999 6.14564 2.49986 7.53007 2.1709 9.25H21.8295C21.5006 7.53009 20.0505 6.14567 18.1958 6.01078L15.6002 2.55004C15.3517 2.21867 14.8816 2.15152 14.5502 2.40004C14.2189 2.64857 14.1517 3.11867 14.4002 3.45004Z" fill="#28303F"/>
<path fill-rule="evenodd" clip-rule="evenodd" d="M21.8271 10.75H2.17331C2.18643 10.8182 2.20137 10.8865 2.21818 10.9548L4.18471 18.9548C4.62426 20.743 6.22772 22 8.06907 22H15.9314C17.7728 22 19.3762 20.7429 19.8158 18.9548L21.7823 10.9548C21.7991 10.8865 21.814 10.8182 21.8271 10.75ZM12 12.25C12.4142 12.25 12.75 12.5858 12.75 13V15.25H15C15.4142 15.25 15.75 15.5858 15.75 16C15.75 16.4142 15.4142 16.75 15 16.75H12.75V19C12.75 19.4142 12.4142 19.75 12 19.75C11.5858 19.75 11.25 19.4142 11.25 19V16.75H9C8.58579 16.75 8.25 16.4142 8.25 16C8.25 15.5858 8.58579 15.25 9 15.25H11.25V13C11.25 12.5858 11.5858 12.25 12 12.25Z" fill="#28303F"/>
</svg>
