<svg width="24" height="24" viewBox="0 0 24 24" fill="none" xmlns="http://www.w3.org/2000/svg">
<path d="M16.3127 6L14.4002 3.45004C14.1517 3.11867 14.2189 2.64857 14.5502 2.40004C14.8816 2.15152 15.3517 2.21867 15.6002 2.55004L18.1958 6.01078C20.0505 6.14567 21.5006 7.53009 21.8295 9.25H2.1709C2.49986 7.53007 3.94999 6.14564 5.80469 6.01078L8.40024 2.55004C8.64877 2.21867 9.11887 2.15152 9.45024 2.40004C9.78161 2.64857 9.84877 3.11867 9.60024 3.45004L7.68777 6H16.3127Z" fill="#28303F"/>
<path fill-rule="evenodd" clip-rule="evenodd" d="M2.17331 10.75H21.8271C21.814 10.8182 21.7991 10.8865 21.7823 10.9548L19.8158 18.9548C19.3762 20.7429 17.7728 22 15.9314 22H8.06907C6.22772 22 4.62426 20.743 4.18471 18.9548L2.21818 10.9548C2.20137 10.8865 2.18643 10.8182 2.17331 10.75ZM10.5303 15.1161L11.25 14.3964V18.5858C11.25 19 11.5858 19.3358 12 19.3358C12.4142 19.3358 12.75 19 12.75 18.5858V14.3964L13.4697 15.1161C13.7626 15.409 14.2374 15.409 14.5303 15.1161C14.8232 14.8232 14.8232 14.3483 14.5303 14.0555L13.2374 12.7626C12.554 12.0791 11.446 12.0791 10.7626 12.7626L9.46967 14.0555C9.17678 14.3483 9.17678 14.8232 9.46967 15.1161C9.76256 15.409 10.2374 15.409 10.5303 15.1161Z" fill="#28303F"/>
</svg>
