<svg width="24" height="24" viewBox="0 0 24 24" fill="none" xmlns="http://www.w3.org/2000/svg">
<path d="M16.3127 6L14.4002 3.45004C14.1517 3.11867 14.2189 2.64857 14.5502 2.40004C14.8816 2.15152 15.3517 2.21867 15.6002 2.55004L18.1958 6.01078C20.0505 6.14567 21.5006 7.53009 21.8295 9.25H2.1709C2.49986 7.53007 3.94999 6.14564 5.80469 6.01078L8.40024 2.55004C8.64877 2.21867 9.11887 2.15152 9.45024 2.40004C9.78161 2.64857 9.84877 3.11867 9.60024 3.45004L7.68777 6H16.3127Z" fill="#28303F"/>
<path fill-rule="evenodd" clip-rule="evenodd" d="M2.17331 10.75H21.8271C21.814 10.8182 21.7991 10.8865 21.7823 10.9548L19.8158 18.9548C19.3762 20.7429 17.7728 22 15.9314 22H8.06907C6.22772 22 4.62426 20.743 4.18471 18.9548L2.21818 10.9548C2.20137 10.8865 2.18643 10.8182 2.17331 10.75ZM10.5303 16.4696L11.25 17.1892V12.9999C11.25 12.5857 11.5858 12.2499 12 12.2499C12.4142 12.2499 12.75 12.5857 12.75 12.9999V17.1892L13.4697 16.4696C13.7626 16.1767 14.2374 16.1767 14.5303 16.4696C14.8232 16.7625 14.8232 17.2373 14.5303 17.5302L13.2374 18.8231C12.554 19.5065 11.446 19.5065 10.7626 18.8231L9.46967 17.5302C9.17678 17.2373 9.17678 16.7625 9.46967 16.4696C9.76256 16.1767 10.2374 16.1767 10.5303 16.4696Z" fill="#28303F"/>
</svg>
