<svg width="24" height="24" viewBox="0 0 24 24" fill="none" xmlns="http://www.w3.org/2000/svg">
<path d="M17.4687 3.58568C17.7922 3.32692 17.8446 2.85495 17.5859 2.53151C17.3271 2.20806 16.8551 2.15562 16.5317 2.41438L12.0497 6H5.96501C3.99416 6 2.41316 7.43328 2.06958 9.25H21.9307C21.5872 7.43328 20.0061 6 18.0353 6H14.4508L17.4687 3.58568Z" fill="#28303F"/>
<path fill-rule="evenodd" clip-rule="evenodd" d="M20.2821 18.808C19.9023 20.6666 18.2807 22 16.4004 22H7.59993C5.71957 22 4.09802 20.6666 3.71819 18.808L2.08328 10.808C2.07932 10.7887 2.07552 10.7693 2.07185 10.75H21.9285C21.9248 10.7693 21.921 10.7887 21.917 10.808L20.2821 18.808ZM9.00024 13.25C9.41446 13.25 9.75024 13.5858 9.75024 14L9.75024 18C9.75024 18.4142 9.41446 18.75 9.00024 18.75C8.58603 18.75 8.25024 18.4142 8.25024 18L8.25024 14C8.25024 13.5858 8.58603 13.25 9.00024 13.25ZM15.7502 14C15.7502 13.5858 15.4145 13.25 15.0002 13.25C14.586 13.25 14.2502 13.5858 14.2502 14V18C14.2502 18.4142 14.586 18.75 15.0002 18.75C15.4145 18.75 15.7502 18.4142 15.7502 18V14Z" fill="#28303F"/>
</svg>
