<svg width="24" height="24" viewBox="0 0 24 24" fill="none" xmlns="http://www.w3.org/2000/svg">
<path fill-rule="evenodd" clip-rule="evenodd" d="M15.6116 3H8.3886C6.43325 3 4.76449 4.41365 4.44303 6.3424L2.77636 16.3424C2.37001 18.7805 4.25018 21 6.72194 21H12.0001C12.5524 21 13.0001 20.5523 13.0001 20V17C13.0001 14.7909 14.791 13 17.0001 13H19.4863C20.1042 13 20.5743 12.4451 20.4727 11.8356L19.5572 6.3424C19.2357 4.41365 17.5669 3 15.6116 3ZM15.75 7C15.75 9.07107 14.0711 10.75 12 10.75C9.92893 10.75 8.25 9.07107 8.25 7V6C8.25 5.58579 8.58579 5.25 9 5.25C9.41421 5.25 9.75 5.58579 9.75 6V7C9.75 8.24264 10.7574 9.25 12 9.25C13.2426 9.25 14.25 8.24264 14.25 7V6C14.25 5.58579 14.5858 5.25 15 5.25C15.4142 5.25 15.75 5.58579 15.75 6V7ZM18.2572 15.7553L18.5224 15.4902C19.2546 14.7579 20.4418 14.7579 21.1741 15.4902C21.9063 16.2224 21.9063 17.4096 21.1741 18.1418L19.3179 19.998C18.7321 20.5838 17.7824 20.5838 17.1966 19.998L15.3404 18.1418C14.6082 17.4096 14.6082 16.2224 15.3404 15.4902C16.0727 14.7579 17.2599 14.7579 17.9921 15.4902L18.2572 15.7553Z" fill="#28303F"/>
</svg>
