<svg width="24" height="24" viewBox="0 0 24 24" fill="none" xmlns="http://www.w3.org/2000/svg">
<path fill-rule="evenodd" clip-rule="evenodd" d="M7.23122 2H16.7687C18.5861 2 20.2203 3.24475 20.8953 5.14305L21.6533 7.27487C21.8827 7.92019 22.0413 8.61074 21.8739 9.27488C21.4776 10.8478 20.1917 12 18.6666 12C16.8257 12 15.3333 10.3211 15.3333 8.25C15.3333 10.3211 13.8409 12 12 12C10.159 12 8.66663 10.3211 8.66663 8.25C8.66663 10.3211 7.17424 12 5.3333 12C3.8082 12 2.52232 10.8478 2.12598 9.27488C1.95862 8.61074 2.11723 7.92019 2.34667 7.27487L3.10466 5.14305C3.7796 3.24476 5.41387 2 7.23122 2ZM3.99996 13.3005V17.9999C3.99996 20.2091 5.79082 21.9999 7.99996 21.9999H8.99996V20C8.99996 18.3431 10.3431 17 12 17C13.6568 17 15 18.3431 15 20V21.9999H16C18.2091 21.9999 20 20.2091 20 17.9999V13.3005C19.5811 13.4298 19.1348 13.4999 18.6667 13.4999C17.3296 13.4999 16.1772 12.9373 15.3334 12.0559C14.4896 12.9373 13.3372 13.4999 12 13.4999C10.6629 13.4999 9.51052 12.9373 8.6667 12.0559C7.82288 12.9373 6.67049 13.4999 5.33337 13.4999C4.86524 13.4999 4.41883 13.4297 3.99996 13.3005Z" fill="#28303F"/>
</svg>
