<svg width="24" height="24" viewBox="0 0 24 24" fill="none" xmlns="http://www.w3.org/2000/svg">
<path fill-rule="evenodd" clip-rule="evenodd" d="M7.23122 2H16.7687C18.5861 2 20.2203 3.24475 20.8953 5.14305L21.6533 7.27487C21.8827 7.92019 22.0413 8.61074 21.8739 9.27488C21.4776 10.8478 20.1917 12 18.6666 12C16.8257 12 15.3333 10.3211 15.3333 8.25C15.3333 10.3211 13.8409 12 12 12C10.159 12 8.66663 10.3211 8.66663 8.25C8.66663 10.3211 7.17424 12 5.3333 12C3.8082 12 2.52232 10.8478 2.12598 9.27488C1.95862 8.61074 2.11723 7.92019 2.34667 7.27487L3.10466 5.14305C3.7796 3.24476 5.41387 2 7.23122 2ZM4 13.3005V17.9999C4 20.2091 5.79086 21.9999 8 21.9999H16C18.2091 21.9999 20 20.2091 20 17.9999V13.3005C19.5812 13.4298 19.1348 13.4999 18.6667 13.4999C17.3296 13.4999 16.1772 12.9373 15.3334 12.0559C14.4896 12.9373 13.3372 13.4999 12.0001 13.4999C10.6629 13.4999 9.51056 12.9373 8.66674 12.0559C7.82292 12.9373 6.67053 13.4999 5.3334 13.4999C4.86527 13.4999 4.41887 13.4297 4 13.3005ZM15.6532 16.6315C15.8566 16.9923 15.729 17.4497 15.3682 17.6531C14.1531 18.3382 13.1064 18.7477 12.0027 18.7498C10.8977 18.7519 9.84898 18.3457 8.62904 17.6517C8.269 17.4469 8.14317 16.989 8.34799 16.629C8.5528 16.2689 9.0107 16.1431 9.37074 16.3479C10.5069 16.9943 11.282 17.2512 11.9998 17.2498C12.719 17.2484 13.4943 16.9877 14.6315 16.3465C14.9924 16.1431 15.4498 16.2707 15.6532 16.6315Z" fill="#28303F"/>
</svg>
