<svg width="24" height="24" viewBox="0 0 24 24" fill="none" xmlns="http://www.w3.org/2000/svg">
<path fill-rule="evenodd" clip-rule="evenodd" d="M22 6V8.25C22 10.3211 20.5076 12 18.6667 12C16.8257 12 15.3333 10.3211 15.3333 8.25C15.3333 10.3211 13.841 12 12 12C10.1591 12 8.66667 10.3211 8.66667 8.25C8.66667 10.3211 7.17428 12 5.33333 12C3.49238 12 2 10.3211 2 8.25V6C2 3.79086 3.79086 2 6 2H18C20.2091 2 22 3.79086 22 6ZM15.3333 12.0559C16.1772 12.9373 17.3295 13.4999 18.6667 13.4999C19.5333 13.4999 20.3223 13.2636 21 12.8573V17.9999C21 20.2091 19.2091 21.9999 17 21.9999H11V19C11 17.8954 10.1046 17 9 17C7.89543 17 7 17.8954 7 19V21.9999C4.79086 21.9999 3 20.2091 3 17.9999V12.8573C3.6777 13.2636 4.46672 13.4999 5.33333 13.4999C6.67046 13.4999 7.82285 12.9373 8.66667 12.0559C9.51049 12.9373 10.6629 13.4999 12 13.4999C13.3371 13.4999 14.4895 12.9373 15.3333 12.0559ZM15 15C14.4477 15 14 15.4477 14 16V17C14 17.5523 14.4477 18 15 18H17C17.5523 18 18 17.5523 18 17V16C18 15.4477 17.5523 15 17 15H15Z" fill="#28303F"/>
</svg>
