<svg width="24" height="24" viewBox="0 0 24 24" fill="none" xmlns="http://www.w3.org/2000/svg">
<path fill-rule="evenodd" clip-rule="evenodd" d="M12.5759 3.50011C11.4043 3.41786 10.2484 3.85219 9.41144 4.68911L2.84608 11.2545C1.26274 12.8378 1.24552 15.3877 2.80762 16.9498L7.05026 21.1924C8.61235 22.7545 11.1622 22.7373 12.7456 21.154L19.3109 14.5886C20.1478 13.7517 20.5822 12.5958 20.4999 11.4242L20.2216 7.45987C20.0826 5.48041 18.5196 3.91741 16.5402 3.77844L12.5759 3.50011ZM13.4142 10.5859C14.1952 11.367 15.4615 11.367 16.2426 10.5859C17.0236 9.80485 17.0236 8.53852 16.2426 7.75748C15.4615 6.97643 14.1952 6.97643 13.4142 7.75748C12.6331 8.53852 12.6331 9.80485 13.4142 10.5859Z" fill="#28303F"/>
</svg>
