<svg width="24" height="24" viewBox="0 0 24 24" fill="none" xmlns="http://www.w3.org/2000/svg">
<path fill-rule="evenodd" clip-rule="evenodd" d="M6.39683 5.58246C5.51025 6.35273 5 7.47721 5 8.66079V17.9456C5 20.1848 6.79086 22 9 22H15C17.2091 22 19 20.1848 19 17.9456V8.66079C19 7.47721 18.4897 6.35273 17.6032 5.58246L14.6032 2.97607C13.1052 1.67464 10.8948 1.67464 9.39683 2.97607L6.39683 5.58246ZM12 10C13.1046 10 14 9.10457 14 8C14 6.89543 13.1046 6 12 6C10.8954 6 10 6.89543 10 8C10 9.10457 10.8954 10 12 10Z" fill="#28303F"/>
</svg>
