<svg width="24" height="24" viewBox="0 0 24 24" fill="none" xmlns="http://www.w3.org/2000/svg">
<path fill-rule="evenodd" clip-rule="evenodd" d="M8.27078 7.14585C8.00834 6.18188 8.58958 5.19104 9.56902 4.93275L16.6628 3.06202C17.6422 2.80373 18.6489 3.37579 18.9114 4.33975L20.8121 11.3214C21.0746 12.2854 20.4933 13.2762 19.5139 13.5345L12.4202 15.4052C11.4407 15.6635 10.434 15.0915 10.1715 14.1275L8.27078 7.14585ZM15.4405 6.19034C15.5462 6.59086 15.3071 7.00117 14.9066 7.1068L13.1331 7.57448C12.7326 7.6801 12.3223 7.44104 12.2167 7.04052C12.1111 6.64 12.3501 6.22969 12.7506 6.12407L14.5241 5.65639C14.9246 5.55076 15.3349 5.78982 15.4405 6.19034ZM5.85789 5.90106C5.48313 4.53276 4.06249 3.73845 2.69541 4.09897L1.80869 4.33281C1.40817 4.43843 1.16911 4.84874 1.27473 5.24927C1.38036 5.64979 1.79067 5.88885 2.19119 5.78322L3.0779 5.54938C3.66843 5.39365 4.2599 5.74164 4.41162 6.29892L7.64023 17.716C7.02972 18.1402 6.7211 18.9085 6.92581 19.6604C7.18825 20.6243 8.19499 21.1964 9.17443 20.9381C9.83592 20.7637 10.3158 20.2551 10.4768 19.6463L22.1997 16.4078C22.5989 16.2975 22.8332 15.8844 22.7229 15.4852C22.6126 15.0859 22.1995 14.8517 21.8002 14.962L10.2093 18.164C9.94943 17.7945 9.55825 17.5351 9.11909 17.4332L5.85789 5.90106Z" fill="#28303F"/>
</svg>
