<svg width="24" height="24" viewBox="0 0 24 24" fill="none" xmlns="http://www.w3.org/2000/svg">
<path fill-rule="evenodd" clip-rule="evenodd" d="M12 2H6.00001C4.32132 2 2.88416 3.03408 2.29077 4.5H15.7093C15.1159 3.03408 13.6787 2 12 2ZM22 16H18C16.8954 16 16 15.1046 16 14C16 12.8954 16.8954 12 18 12H22V16ZM2 6H18C20.2091 6 22 7.79086 22 10V10.5H18C16.067 10.5 14.5 12.067 14.5 14C14.5 15.933 16.067 17.5 18 17.5H22V18C22 20.2091 20.2091 22 18 22H6C3.79086 22 2 20.2091 2 18V6Z" fill="#28303F"/>
</svg>
