<svg width="24" height="24" viewBox="0 0 24 24" fill="none" xmlns="http://www.w3.org/2000/svg">
<path d="M6 3H18C20.2091 3 22 4.79086 22 7C22 8.67869 20.9659 10.1159 19.5 10.7092V7C19.5 6.60218 19.342 6.22064 19.0607 5.93934C18.7794 5.65804 18.3978 5.5 18 5.5L6 5.5C5.60218 5.5 5.22064 5.65804 4.93934 5.93934C4.65804 6.22064 4.5 6.60218 4.5 7V10.7092C3.03408 10.1159 2 8.67869 2 7C2 4.79086 3.79086 3 6 3Z" fill="#28303F"/>
<path fill-rule="evenodd" clip-rule="evenodd" d="M18 7L18 19C18 20.1046 17.1046 21 16 21H8C6.89543 21 6 20.1046 6 19V7H18ZM10.5303 14.4698L11.25 15.1895V11.0002C11.25 10.5859 11.5858 10.2502 12 10.2502C12.4142 10.2502 12.75 10.5859 12.75 11.0002V15.1895L13.4697 14.4698C13.7626 14.1769 14.2374 14.1769 14.5303 14.4698C14.8232 14.7627 14.8232 15.2376 14.5303 15.5305L13.2374 16.8234C12.554 17.5068 11.446 17.5068 10.7626 16.8234L9.46967 15.5305C9.17678 15.2376 9.17678 14.7627 9.46967 14.4698C9.76256 14.1769 10.2374 14.1769 10.5303 14.4698Z" fill="#28303F"/>
</svg>
