<svg width="24" height="24" viewBox="0 0 24 24" fill="none" xmlns="http://www.w3.org/2000/svg">
<path opacity="0.4" d="M21 7C21 9.20914 19 13 17 13C15 13 13 9.20914 13 7C13 4.79086 14.7909 3 17 3C19.2091 3 21 4.79086 21 7Z" fill="#28303F"/>
<path d="M18.5 7C18.5 7.82843 17.8284 8.5 17 8.5C16.1716 8.5 15.5 7.82843 15.5 7C15.5 6.17157 16.1716 5.5 17 5.5C17.8284 5.5 18.5 6.17157 18.5 7Z" fill="#28303F"/>
<path fill-rule="evenodd" clip-rule="evenodd" d="M7.25 15C7.25 13.4812 8.48122 12.25 10 12.25H12C12.4142 12.25 12.75 12.5858 12.75 13C12.75 13.4142 12.4142 13.75 12 13.75H10C9.30964 13.75 8.75 14.3096 8.75 15C8.75 15.6904 9.30964 16.25 10 16.25H19C20.5188 16.25 21.75 17.4812 21.75 19C21.75 20.5188 20.5188 21.75 19 21.75H3C2.58579 21.75 2.25 21.4142 2.25 21C2.25 20.5858 2.58579 20.25 3 20.25H19C19.6904 20.25 20.25 19.6904 20.25 19C20.25 18.3096 19.6904 17.75 19 17.75H10C8.48122 17.75 7.25 16.5188 7.25 15Z" fill="#28303F"/>
</svg>
