<svg width="24" height="24" viewBox="0 0 24 24" fill="none" xmlns="http://www.w3.org/2000/svg">
<path opacity="0.4" d="M10 16C10 18.2091 8 22 6 22C4 22 2 18.2091 2 16C2 13.7909 3.79086 12 6 12C8.20914 12 10 13.7909 10 16Z" fill="#28303F"/>
<path d="M7.5 16C7.5 16.8284 6.82843 17.5 6 17.5C5.17157 17.5 4.5 16.8284 4.5 16C4.5 15.1716 5.17157 14.5 6 14.5C6.82843 14.5 7.5 15.1716 7.5 16Z" fill="#28303F"/>
<path fill-rule="evenodd" clip-rule="evenodd" d="M20.2246 8.60684C21.0541 7.56139 22 6.12304 22 5C22 3 20.6569 2 19 2C17.3431 2 16 3 16 5.20914C16 6.41359 16.8918 7.7288 17.7029 8.67596C18.3837 9.47089 19.574 9.4267 20.2246 8.60684ZM19 6C19.5523 6 20 5.55228 20 5C20 4.44772 19.5523 4 19 4C18.4477 4 18 4.44772 18 5C18 5.55228 18.4477 6 19 6Z" fill="#28303F"/>
<path fill-rule="evenodd" clip-rule="evenodd" d="M17.5303 10.9697C17.8232 11.2626 17.8232 11.7374 17.5303 12.0303L17.3696 12.191C17.0767 12.4839 16.6018 12.4839 16.309 12.191C16.0161 11.8982 16.0161 11.4233 16.309 11.1304L16.4697 10.9697C16.7626 10.6768 17.2374 10.6768 17.5303 10.9697ZM15.441 13.059C15.7339 13.3518 15.7339 13.8267 15.441 14.1196L15.1196 14.441C14.8267 14.7339 14.3518 14.7339 14.059 14.441C13.7661 14.1482 13.7661 13.6733 14.059 13.3804L14.3804 13.059C14.6733 12.7661 15.1482 12.7661 15.441 13.059ZM13.191 15.309C13.4839 15.6018 13.4839 16.0767 13.191 16.3696L13.0303 16.5303C12.7374 16.8232 12.2626 16.8232 11.9697 16.5303C11.6768 16.2374 11.6768 15.7626 11.9697 15.4697L12.1304 15.309C12.4233 15.0161 12.8982 15.0161 13.191 15.309Z" fill="#28303F"/>
</svg>
