<svg width="24" height="24" viewBox="0 0 24 24" fill="none" xmlns="http://www.w3.org/2000/svg">
<path opacity="0.4" fill-rule="evenodd" clip-rule="evenodd" d="M9.75066 16.0945C5.86856 16.4274 3 17.6021 3 19C3 20.6569 7.02944 22 12 22C16.9706 22 21 20.6569 21 19C21 17.6021 18.1318 16.4276 14.25 16.0945V18C14.25 19.2427 13.2426 20.25 12 20.25C10.7574 20.25 9.75 19.2427 9.75 18L9.75066 16.0945Z" fill="#28303F"/>
<path d="M12.75 18C12.75 18.4142 12.4142 18.75 12 18.75C11.5858 18.75 11.25 18.4142 11.25 18L11.2548 4C11.2548 2.89543 12.1503 2 13.2548 2H18.6368C19.3802 2 19.8637 2.78231 19.5312 3.44721L18.4784 5.55279C18.3377 5.83431 18.3377 6.16569 18.4784 6.44721L19.5312 8.55279C19.8637 9.21769 19.3802 10 18.6368 10H12.75V18Z" fill="#28303F"/>
</svg>
