<svg width="24" height="24" viewBox="0 0 24 24" fill="none" xmlns="http://www.w3.org/2000/svg">
<path opacity="0.4" d="M21 17.9865V9.91558C21 8.67704 20.4301 7.50788 19.4558 6.74749L14.4558 2.84544C13.0113 1.71819 10.9887 1.71819 9.54424 2.84544L4.54424 6.74749C3.56989 7.50788 3 8.67704 3 9.91558V17.9865C3 20.2031 4.79086 22 7 22H17C19.2091 22 21 20.2031 21 17.9865Z" fill="#28303F"/>
<path fill-rule="evenodd" clip-rule="evenodd" d="M12 22C14 22 17 17.7614 17 15C17 12.2386 14.7614 10 12 10C9.23858 10 7 12.2386 7 15C7 17.7614 10 22 12 22ZM12 17C13.1046 17 14 16.1046 14 15C14 13.8954 13.1046 13 12 13C10.8954 13 10 13.8954 10 15C10 16.1046 10.8954 17 12 17Z" fill="#28303F"/>
</svg>
