<svg width="24" height="24" viewBox="0 0 24 24" fill="none" xmlns="http://www.w3.org/2000/svg">
<path opacity="0.4" d="M7.81965 22H16.1804C18.4891 22 20.3607 20.214 20.3607 18.0108V13.133C20.3607 12.4248 20.6555 11.7456 21.1803 11.2448C22.3962 10.0845 22.2381 8.16205 20.8475 7.19691L14.4588 2.763C12.9929 1.74567 11.0071 1.74567 9.54124 2.763L3.15251 7.19692C1.76187 8.16205 1.60381 10.0845 2.81969 11.2448C3.34447 11.7456 3.6393 12.4248 3.6393 13.133V18.0108C3.6393 20.214 5.5109 22 7.81965 22Z" fill="#28303F"/>
<path fill-rule="evenodd" clip-rule="evenodd" d="M12 22C14 22 17 17.7614 17 15C17 12.2386 14.7614 10 12 10C9.23858 10 7 12.2386 7 15C7 17.7614 10 22 12 22ZM12 17C13.1046 17 14 16.1046 14 15C14 13.8954 13.1046 13 12 13C10.8954 13 10 13.8954 10 15C10 16.1046 10.8954 17 12 17Z" fill="#28303F"/>
</svg>
