<svg width="24" height="24" viewBox="0 0 24 24" fill="none" xmlns="http://www.w3.org/2000/svg">
<path opacity="0.4" d="M19 11C19 15.4183 14.5 20 12 20C9.5 20 5 15.4183 5 11C5 6.58172 8.13401 4 12 4C15.866 4 19 6.58172 19 11Z" fill="#28303F"/>
<path fill-rule="evenodd" clip-rule="evenodd" d="M3.38777 5.33191C3.7567 5.52023 3.90311 5.97197 3.71479 6.3409C3.10307 7.5393 2.75 8.97104 2.75 10.6249C2.75 11.6582 2.95378 12.7133 3.31681 13.7526C3.4534 14.1437 3.24712 14.5714 2.85607 14.708C2.46502 14.8446 2.03729 14.6383 1.90071 14.2472C1.49203 13.0772 1.25 11.8542 1.25 10.6249C1.25 8.75365 1.65066 7.08538 2.37878 5.65893C2.5671 5.29 3.01884 5.14359 3.38777 5.33191ZM20.6122 5.33191C20.9812 5.14359 21.4329 5.29 21.6212 5.65893C22.3493 7.08538 22.75 8.75365 22.75 10.6249C22.75 11.8542 22.508 13.0772 22.0993 14.2472C21.9627 14.6383 21.535 14.8446 21.1439 14.708C20.7529 14.5714 20.5466 14.1437 20.6832 13.7526C21.0462 12.7133 21.25 11.6582 21.25 10.6249C21.25 8.97104 20.8969 7.5393 20.2852 6.3409C20.0969 5.97197 20.2433 5.52023 20.6122 5.33191Z" fill="#28303F"/>
<circle cx="12" cy="11" r="3" fill="#28303F"/>
</svg>
