<svg width="24" height="24" viewBox="0 0 24 24" fill="none" xmlns="http://www.w3.org/2000/svg">
<path opacity="0.4" fill-rule="evenodd" clip-rule="evenodd" d="M12 22C15.375 22 21 15.7981 21 10.8889C21 5.97969 16.9706 2 12 2C7.02944 2 3 5.97969 3 10.8889C3 15.7981 8.625 22 12 22ZM14 11.75C14.4142 11.75 14.75 11.4142 14.75 11C14.75 10.5858 14.4142 10.25 14 10.25H10C9.58579 10.25 9.25 10.5858 9.25 11C9.25 11.4142 9.58579 11.75 10 11.75H14Z" fill="#28303F"/>
<path fill-rule="evenodd" clip-rule="evenodd" d="M12 16C14.7614 16 17 13.7614 17 11C17 8.23858 14.7614 6 12 6C9.23858 6 7 8.23858 7 11C7 13.7614 9.23858 16 12 16ZM14 11.75C14.4142 11.75 14.75 11.4142 14.75 11C14.75 10.5858 14.4142 10.25 14 10.25H10C9.58579 10.25 9.25 10.5858 9.25 11C9.25 11.4142 9.58579 11.75 10 11.75H14Z" fill="#28303F"/>
</svg>
