<svg width="24" height="24" viewBox="0 0 24 24" fill="none" xmlns="http://www.w3.org/2000/svg">
<path opacity="0.4" fill-rule="evenodd" clip-rule="evenodd" d="M12 22C15.375 22 21 15.7981 21 10.8889C21 5.97969 16.9706 2 12 2C7.02944 2 3 5.97969 3 10.8889C3 15.7981 8.625 22 12 22ZM11.116 9.05536C10.8231 8.76247 10.3483 8.76247 10.0554 9.05536C9.76247 9.34826 9.76247 9.82313 10.0554 10.116L10.9393 11L10.0555 11.8838C9.76266 12.1767 9.76266 12.6516 10.0555 12.9445C10.3484 13.2373 10.8233 13.2373 11.1162 12.9445L12 12.0607L12.8838 12.9445C13.1767 13.2373 13.6516 13.2373 13.9445 12.9445C14.2373 12.6516 14.2373 12.1767 13.9445 11.8838L13.0607 11L13.9446 10.116C14.2375 9.82313 14.2375 9.34826 13.9446 9.05536C13.6517 8.76247 13.1769 8.76247 12.884 9.05536L12 9.93934L11.116 9.05536Z" fill="#28303F"/>
<path fill-rule="evenodd" clip-rule="evenodd" d="M12 16C14.7614 16 17 13.7614 17 11C17 8.23858 14.7614 6 12 6C9.23858 6 7 8.23858 7 11C7 13.7614 9.23858 16 12 16ZM11.116 9.05536C10.8231 8.76247 10.3483 8.76247 10.0554 9.05536C9.76247 9.34826 9.76247 9.82313 10.0554 10.116L10.9393 11L10.0555 11.8838C9.76266 12.1767 9.76266 12.6516 10.0555 12.9445C10.3484 13.2373 10.8233 13.2373 11.1162 12.9445L12 12.0607L12.8838 12.9445C13.1767 13.2373 13.6516 13.2373 13.9445 12.9445C14.2373 12.6516 14.2373 12.1767 13.9445 11.8838L13.0607 11L13.9446 10.116C14.2375 9.82313 14.2375 9.34826 13.9446 9.05536C13.6517 8.76247 13.1769 8.76247 12.884 9.05536L12 9.93934L11.116 9.05536Z" fill="#28303F"/>
</svg>
