<svg width="24" height="24" viewBox="0 0 24 24" fill="none" xmlns="http://www.w3.org/2000/svg">
<path opacity="0.4" fill-rule="evenodd" clip-rule="evenodd" d="M12 22C15.375 22 21 15.7981 21 10.8889C21 5.97969 16.9706 2 12 2C7.02944 2 3 5.97969 3 10.8889C3 15.7981 8.625 22 12 22ZM13.5 9C13.5 9.82843 12.8284 10.5 12 10.5C11.1716 10.5 10.5 9.82843 10.5 9C10.5 8.17157 11.1716 7.5 12 7.5C12.8284 7.5 13.5 8.17157 13.5 9ZM9.99711 13.8708C10.5642 14.2675 11.2527 14.5 12 14.5C12.7473 14.5 13.4357 14.2675 14.0028 13.8708C14.1982 13.7341 14.3789 13.5783 14.542 13.406C14.0113 12.5614 13.0712 12 12.0001 12C10.9288 12 9.98874 12.5615 9.45801 13.4061C9.62114 13.5784 9.80174 13.7342 9.99711 13.8708Z" fill="#28303F"/>
<path fill-rule="evenodd" clip-rule="evenodd" d="M14.8626 15.1C16.1549 14.196 17 12.6967 17 11C17 8.23858 14.7614 6 12 6C9.23858 6 7 8.23858 7 11C7 12.6967 7.84511 14.196 9.13736 15.1C9.94828 15.6672 10.9353 16 12 16C13.0647 16 14.0517 15.6672 14.8626 15.1ZM13.5 9C13.5 9.82843 12.8284 10.5 12 10.5C11.1716 10.5 10.5 9.82843 10.5 9C10.5 8.17157 11.1716 7.5 12 7.5C12.8284 7.5 13.5 8.17157 13.5 9ZM9.99711 13.8708C10.5642 14.2675 11.2527 14.5 12 14.5C12.7473 14.5 13.4357 14.2675 14.0028 13.8708C14.1982 13.7341 14.3789 13.5783 14.542 13.406C14.0113 12.5614 13.0712 12 12.0001 12C10.9288 12 9.98874 12.5615 9.45801 13.4061C9.62114 13.5783 9.80174 13.7342 9.99711 13.8708Z" fill="#28303F"/>
</svg>
