<svg width="24" height="24" viewBox="0 0 24 24" fill="none" xmlns="http://www.w3.org/2000/svg">
<path fill-rule="evenodd" clip-rule="evenodd" d="M15.4424 15.9028C17.302 13.9966 19 11.1415 19 8.85714C19 5.07005 15.866 2 12 2C8.13401 2 5 5.07005 5 8.85714C5 11.1415 6.69796 13.9966 8.55756 15.9028C9.78087 17.1567 11.0741 18 12 18C12.9259 18 14.2191 17.1567 15.4424 15.9028ZM12 11C13.1046 11 14 10.1046 14 9C14 7.89543 13.1046 7 12 7C10.8954 7 10 7.89543 10 9C10 10.1046 10.8954 11 12 11Z" fill="#28303F"/>
<path opacity="0.4" fill-rule="evenodd" clip-rule="evenodd" d="M7.05541 16.4929C4.61238 17.0294 3 17.9519 3 19C3 20.6569 7.02944 22 12 22C16.9706 22 21 20.6569 21 19C21 17.9519 19.3876 17.0294 16.9446 16.4929C16.8031 16.6501 16.6601 16.8027 16.5161 16.9502C15.8438 17.6393 15.1214 18.2485 14.4009 18.6959C13.7141 19.1224 12.873 19.5 12 19.5C11.127 19.5 10.2859 19.1224 9.59907 18.6959C8.87856 18.2485 8.15617 17.6393 7.48387 16.9502C7.33993 16.8027 7.19692 16.6501 7.05541 16.4929Z" fill="#28303F"/>
</svg>
