<svg width="24" height="24" viewBox="0 0 24 24" fill="none" xmlns="http://www.w3.org/2000/svg">
<path opacity="0.4" d="M4.52245 7.41631C3.80735 7.84874 3.1749 8.29998 2.72215 8.64231C2.25538 8.99525 2 9.55197 2 10.1372V19.8066C2 20.66 3.0279 21.1549 3.73627 20.6789C4.94575 19.8661 6.58869 18.9432 8 18.7852C9.65915 18.5995 10.8296 19.4899 12 20.3803C13.1704 21.2706 14.3408 22.161 16 21.9753C17.8673 21.7663 20.14 20.2182 21.2778 19.3579C21.7446 19.0049 22 18.4482 22 17.863V8.19362C22 7.34017 20.9721 6.84527 20.2637 7.32129C20.0237 7.48258 19.7666 7.64821 19.4977 7.81133C19.4992 7.87405 19.5 7.93696 19.5 8.00005C19.5 8.26256 19.4865 8.5224 19.4599 8.77885C19.3763 9.58778 19.1639 10.3596 18.8434 11.0725C17.6714 13.6797 15.0499 15.5 12 15.5C8.17984 15.5 5.02878 12.6453 4.56 8.95199C4.52036 8.63962 4.5 8.32185 4.5 8.00005C4.5 7.80381 4.50757 7.60913 4.52245 7.41631Z" fill="#28303F"/>
<path fill-rule="evenodd" clip-rule="evenodd" d="M17.9679 8.6245C17.9891 8.41923 18 8.21088 18 8C18 4.68629 15.3137 2 12 2C9.18557 2 6.82374 3.93778 6.17591 6.55193C6.06098 7.01568 6 7.50072 6 8C6 8.2585 6.01635 8.51318 6.04807 8.76307C6.42293 11.7165 8.94479 14 12 14C14.4381 14 16.5365 12.5458 17.4753 10.4575C17.7312 9.88809 17.901 9.27155 17.9679 8.6245ZM9.24761 8.41587L10.7628 8.92094C10.9121 8.97071 11.0293 9.08787 11.0791 9.23717L11.5841 10.7524C11.7295 11.1886 12.3369 11.2138 12.518 10.7912L14.5076 6.14893C14.6854 5.73407 14.2659 5.3146 13.8511 5.4924L9.20877 7.48196C8.78618 7.66306 8.81145 8.27048 9.24761 8.41587Z" fill="#28303F"/>
</svg>
