<svg width="24" height="24" viewBox="0 0 24 24" fill="none" xmlns="http://www.w3.org/2000/svg">
<path opacity="0.4" d="M16.75 11.9399V21.8076C18.4424 21.3516 20.2888 20.0842 21.2778 19.3364C21.7446 18.9835 22 18.4267 22 17.8416V8.17214C22 7.31868 20.9721 6.82378 20.2637 7.2998C19.7563 7.6408 19.1726 8.00119 18.5616 8.31634C18.4698 8.9145 18.2981 9.48695 18.0576 10.0219C17.736 10.7372 17.2912 11.3857 16.75 11.9399Z" fill="#28303F"/>
<path d="M8.75 13.0928V18.752C10.0281 18.8588 11.014 19.6088 12 20.3589C12.9859 21.1089 13.9719 21.859 15.25 21.9658V13.0925C14.2897 13.6328 13.1811 13.9412 11.9999 13.9412C10.8191 13.9412 9.7105 13.6331 8.75 13.0928Z" fill="#28303F"/>
<path opacity="0.4" d="M5.37224 6.91479C4.31647 7.46677 3.34776 8.14772 2.72215 8.62076C2.25538 8.9737 2 9.53041 2 10.1156V19.785C2 20.6385 3.0279 21.1334 3.73627 20.6573C4.73646 19.9852 6.03308 19.2378 7.25 18.9099V11.9403C6.26647 10.933 5.60065 9.6139 5.4142 8.14493C5.3791 7.86842 5.36108 7.58714 5.36108 7.30229C5.36108 7.17231 5.36484 7.04311 5.37224 6.91479Z" fill="#28303F"/>
<path fill-rule="evenodd" clip-rule="evenodd" d="M17.2827 7.85509C17.3015 7.67339 17.3111 7.48897 17.3111 7.3023C17.3111 4.36907 14.9333 1.99121 12.0001 1.99121C9.50877 1.99121 7.41812 3.7065 6.84468 6.02049C6.74295 6.431 6.68896 6.86034 6.68896 7.3023C6.68896 7.53112 6.70344 7.75656 6.73151 7.97776C7.06334 10.5921 9.29564 12.6134 12.0001 12.6134C14.1582 12.6134 16.0157 11.3262 16.8467 9.47761C17.0732 8.9736 17.2235 8.42785 17.2827 7.85509ZM9.56368 7.67035L10.9049 8.11743C11.0371 8.16149 11.1408 8.26519 11.1848 8.39735L11.6319 9.73859C11.7606 10.1247 12.2983 10.147 12.4586 9.77298L14.2197 5.6637C14.3771 5.29647 14.0058 4.92517 13.6386 5.08255L9.5293 6.84367C9.15523 7.00398 9.1776 7.54166 9.56368 7.67035Z" fill="#28303F"/>
</svg>
