<svg width="24" height="24" viewBox="0 0 24 24" fill="none" xmlns="http://www.w3.org/2000/svg">
<path opacity="0.4" d="M12.8481 9.64174C12.2282 9.33298 11.6632 8.90316 11.0981 8.47334C9.92772 7.58296 8.7573 6.69258 7.09814 6.87829C5.57956 7.04827 3.7928 8.10392 2.56642 8.95501C1.60491 9.62229 1.09814 10.7424 1.09814 11.9128V20.66C1.09814 21.5134 2.12604 22.0083 2.83441 21.5323C4.0439 20.7195 5.68683 19.7966 7.09814 19.6386C8.7573 19.4529 9.92772 20.3433 11.0981 21.2337C12.2686 22.1241 13.439 23.0145 15.0981 22.8287C16.6167 22.6588 18.4035 21.6031 19.6299 20.752C20.5914 20.0847 21.0981 18.9646 21.0981 17.7943V9.81939C21.0981 9.09801 20.3535 8.60375 19.6768 8.85379C18.978 9.11203 18.0893 9.41413 17.1696 9.65821V12.8535C17.1696 14.0961 16.2022 15.1035 15.0089 15.1035C13.8155 15.1035 12.8481 14.0961 12.8481 12.8535V9.64174Z" fill="#28303F"/>
<path d="M14.25 1.89673C14.25 1.48251 14.5858 1.14673 15 1.14673H21C21.2599 1.14673 21.5013 1.28132 21.638 1.50243C21.7746 1.72354 21.7871 1.99965 21.6708 2.23214L20.8385 3.89673L21.6708 5.56132C21.7871 5.79381 21.7746 6.06991 21.638 6.29103C21.5013 6.51214 21.2599 6.64673 21 6.64673H15.75V13.1319C15.75 13.5462 15.4142 13.8819 15 13.8819C14.5858 13.8819 14.25 13.5462 14.25 13.1319V1.89673Z" fill="#28303F"/>
</svg>
