<svg width="24" height="24" viewBox="0 0 24 24" fill="none" xmlns="http://www.w3.org/2000/svg">
<path opacity="0.4" d="M9.20976 13.3961L5.50729 12.1619C3.49757 11.492 3.49757 8.64932 5.50729 7.97942L17.0947 4.11693C18.818 3.5425 20.4575 5.18198 19.8831 6.90526L16.0206 18.4927C15.3507 20.5024 12.508 20.5024 11.8381 18.4927L10.6039 14.7902C10.3845 14.132 9.868 13.6155 9.20976 13.3961Z" fill="#28303F"/>
<path fill-rule="evenodd" clip-rule="evenodd" d="M10.0586 13.9159C10.3037 14.1569 10.4922 14.4552 10.6039 14.7902L11.8381 18.4927C12.508 20.5024 15.3507 20.5024 16.0206 18.4927L19.883 6.90521C20.1725 6.03696 19.8999 5.18998 19.3377 4.63672L10.0586 13.9159Z" fill="#28303F"/>
</svg>
