<svg width="24" height="24" viewBox="0 0 24 24" fill="none" xmlns="http://www.w3.org/2000/svg">
<path opacity="0.4" fill-rule="evenodd" clip-rule="evenodd" d="M8.5001 16H7.8736C6.68648 16 5.56069 16.5273 4.80071 17.4393L3.73374 18.7196C2.64819 20.0223 3.5745 22 5.27018 22H18.73C20.4257 22 21.352 20.0223 20.2665 18.7196L19.1995 17.4393C18.4395 16.5273 17.3137 16 16.1266 16H15.5001C15.5001 17.933 13.9331 19.5 12.0001 19.5C10.0671 19.5 8.5001 17.933 8.5001 16Z" fill="#28303F"/>
<path fill-rule="evenodd" clip-rule="evenodd" d="M12 6C13.1046 6 14 5.10457 14 4C14 2.89543 13.1046 2 12 2C10.8954 2 10 2.89543 10 4C10 5.10457 10.8954 6 12 6ZM12 6C9.79086 6 8 7.79086 8 10V11C8 11.5523 8.44772 12 9 12C9.55228 12 10 12.4477 10 13V16C10 17.1046 10.8954 18 12 18C13.1046 18 14 17.1046 14 16V13C14 12.4477 14.4477 12 15 12C15.5523 12 16 11.5523 16 11V10C16 7.79086 14.2091 6 12 6Z" fill="#28303F"/>
</svg>
