<svg width="24" height="24" viewBox="0 0 24 24" fill="none" xmlns="http://www.w3.org/2000/svg">
<path opacity="0.4" fill-rule="evenodd" clip-rule="evenodd" d="M9.75 16.0945C5.86824 16.4275 3 17.6021 3 19C3 20.6568 7.02944 22 12 22C16.9706 22 21 20.6568 21 19C21 17.6021 18.1318 16.4275 14.25 16.0945V18C14.25 19.2426 13.2426 20.25 12 20.25C10.7574 20.25 9.75 19.2426 9.75 18V16.0945Z" fill="#28303F"/>
<path fill-rule="evenodd" clip-rule="evenodd" d="M12.75 7.90549C14.0439 7.57245 15 6.39788 15 5C15 3.34315 13.6569 2 12 2C10.3431 2 9 3.34315 9 5C9 6.39788 9.95608 7.57245 11.25 7.90549V18C11.25 18.4142 11.5858 18.75 12 18.75C12.4142 18.75 12.75 18.4142 12.75 18V7.90549Z" fill="#28303F"/>
</svg>
