<svg width="24" height="24" viewBox="0 0 24 24" fill="none" xmlns="http://www.w3.org/2000/svg">
<path opacity="0.4" fill-rule="evenodd" clip-rule="evenodd" d="M12 13.25C12.4142 13.25 12.75 13.5858 12.75 14V21C12.75 21.4142 12.4142 21.75 12 21.75C11.5858 21.75 11.25 21.4142 11.25 21V14C11.25 13.5858 11.5858 13.25 12 13.25Z" fill="#28303F"/>
<path d="M7.00005 10.1716V7.82843C7.00005 7.29799 6.78933 6.78929 6.41426 6.41421C5.15433 5.15428 6.04666 3 7.82847 3H16.1716C17.9534 3 18.8458 5.15428 17.5858 6.41421C17.2108 6.78929 17 7.29799 17 7.82843V10.1716C17 10.702 17.2108 11.2107 17.5858 11.5858C18.8458 12.8457 17.9534 15 16.1716 15H7.82847C6.04666 15 5.15433 12.8457 6.41426 11.5858C6.78933 11.2107 7.00005 10.702 7.00005 10.1716Z" fill="#28303F"/>
</svg>
