<svg width="24" height="24" viewBox="0 0 24 24" fill="none" xmlns="http://www.w3.org/2000/svg">
<path opacity="0.4" fill-rule="evenodd" clip-rule="evenodd" d="M9.7501 15H9.0001H7.8736C6.68648 15 5.56069 15.5273 4.80071 16.4393L3.73374 17.7196C2.64819 19.0223 3.5745 21 5.27018 21H18.73C20.4257 21 21.352 19.0223 20.2665 17.7196L19.1995 16.4393C18.4395 15.5273 17.3137 15 16.1266 15H14.2501V16C14.2501 17.2426 13.2427 18.25 12.0001 18.25C10.7575 18.25 9.7501 17.2426 9.7501 16V15Z" fill="#28303F"/>
<path fill-rule="evenodd" clip-rule="evenodd" d="M12.75 6.85462C13.483 6.55793 14 5.83934 14 5C14 3.89543 13.1046 3 12 3C10.8954 3 10 3.89543 10 5C10 5.83934 10.517 6.55793 11.25 6.85462V16C11.25 16.4142 11.5858 16.75 12 16.75C12.4142 16.75 12.75 16.4142 12.75 16V6.85462Z" fill="#28303F"/>
</svg>
