<svg width="24" height="24" viewBox="0 0 24 24" fill="none" xmlns="http://www.w3.org/2000/svg">
<path opacity="0.4" fill-rule="evenodd" clip-rule="evenodd" d="M8.38609 4C7.5524 4 6.80616 4.51714 6.51343 5.29775L2.01343 17.2978C1.52312 18.6053 2.48968 20 3.88609 20H20.1141C21.5105 20 22.4771 18.6053 21.9867 17.2978L18.3012 7.46976C18.204 7.48959 18.1032 7.5 18.0001 7.5C17.1717 7.5 16.5001 6.82843 16.5001 6C16.5001 5.4769 16.7678 5.01634 17.1738 4.74791C16.801 4.28365 16.2315 4 15.6141 4H8.38609Z" fill="#28303F"/>
<path fill-rule="evenodd" clip-rule="evenodd" d="M18 12C20 12 22 8.20914 22 6C22 3.79086 20.2091 2 18 2C15.7909 2 14 3.79086 14 6C14 8.20914 16 12 18 12ZM18 7.5C18.8284 7.5 19.5 6.82843 19.5 6C19.5 5.17157 18.8284 4.5 18 4.5C17.1716 4.5 16.5 5.17157 16.5 6C16.5 6.82843 17.1716 7.5 18 7.5Z" fill="#28303F"/>
<path fill-rule="evenodd" clip-rule="evenodd" d="M12 15.25C11.5858 15.25 11.25 15.5858 11.25 16V17C11.25 17.4142 11.5858 17.75 12 17.75C12.4142 17.75 12.75 17.4142 12.75 17V16C12.75 15.5858 12.4142 15.25 12 15.25Z" fill="#28303F"/>
<path fill-rule="evenodd" clip-rule="evenodd" d="M12 10.75C11.5858 10.75 11.25 11.0858 11.25 11.5V12.5C11.25 12.9142 11.5858 13.25 12 13.25C12.4142 13.25 12.75 12.9142 12.75 12.5V11.5C12.75 11.0858 12.4142 10.75 12 10.75Z" fill="#28303F"/>
<path fill-rule="evenodd" clip-rule="evenodd" d="M12 6.25C11.5858 6.25 11.25 6.58579 11.25 7V8C11.25 8.41421 11.5858 8.75 12 8.75C12.4142 8.75 12.75 8.41421 12.75 8V7C12.75 6.58579 12.4142 6.25 12 6.25Z" fill="#28303F"/>
</svg>
