<svg width="24" height="24" viewBox="0 0 24 24" fill="none" xmlns="http://www.w3.org/2000/svg">
<path opacity="0.4" d="M6.51334 5.29775C6.80607 4.51714 7.55231 4 8.386 4H15.614C16.4477 4 17.1939 4.51715 17.4867 5.29775L21.9867 17.2978C22.477 18.6053 21.5104 20 20.114 20H3.886C2.48959 20 1.52303 18.6053 2.01334 17.2978L6.51334 5.29775Z" fill="#28303F"/>
<path fill-rule="evenodd" clip-rule="evenodd" d="M12 15.25C12.4142 15.25 12.75 15.5858 12.75 16V17C12.75 17.4142 12.4142 17.75 12 17.75C11.5858 17.75 11.25 17.4142 11.25 17V16C11.25 15.5858 11.5858 15.25 12 15.25Z" fill="#28303F"/>
<path fill-rule="evenodd" clip-rule="evenodd" d="M12 10.75C12.4142 10.75 12.75 11.0858 12.75 11.5V12.5C12.75 12.9142 12.4142 13.25 12 13.25C11.5858 13.25 11.25 12.9142 11.25 12.5V11.5C11.25 11.0858 11.5858 10.75 12 10.75Z" fill="#28303F"/>
<path fill-rule="evenodd" clip-rule="evenodd" d="M12 6.25C12.4142 6.25 12.75 6.58579 12.75 7V8C12.75 8.41421 12.4142 8.75 12 8.75C11.5858 8.75 11.25 8.41421 11.25 8V7C11.25 6.58579 11.5858 6.25 12 6.25Z" fill="#28303F"/>
</svg>
