<svg width="24" height="24" viewBox="0 0 24 24" fill="none" xmlns="http://www.w3.org/2000/svg">
<path opacity="0.4" fill-rule="evenodd" clip-rule="evenodd" d="M6.81428 8H5C3.34315 8 2 9.34315 2 11V19C2 20.6569 3.34315 22 5 22H19C20.6569 22 22 20.6569 22 19V11C22 9.34315 20.6569 8 19 8H17.1857C16.9 8.98673 16.4415 9.97916 15.9019 10.8142C15.4742 11.4759 14.9488 12.1136 14.336 12.6012C13.7311 13.0825 12.9335 13.5 12 13.5C11.0665 13.5 10.2689 13.0825 9.66396 12.6012C9.05118 12.1136 8.52577 11.4759 8.09813 10.8142C7.55853 9.97916 7.09997 8.98673 6.81428 8Z" fill="#28303F"/>
<path fill-rule="evenodd" clip-rule="evenodd" d="M13.25 16.3274C13.25 15.9132 12.9142 15.5774 12.5 15.5774L11.5 15.5774C11.0858 15.5774 10.75 15.9132 10.75 16.3274C10.75 16.7416 11.0858 17.0774 11.5 17.0774L12.5 17.0774C12.9142 17.0774 13.25 16.7416 13.25 16.3274Z" fill="#28303F"/>
<path fill-rule="evenodd" clip-rule="evenodd" d="M18.75 16.3274C18.75 15.9132 18.4142 15.5774 18 15.5774L17 15.5774C16.5858 15.5774 16.25 15.9132 16.25 16.3274C16.25 16.7416 16.5858 17.0774 17 17.0774L18 17.0774C18.4142 17.0774 18.75 16.7416 18.75 16.3274Z" fill="#28303F"/>
<path fill-rule="evenodd" clip-rule="evenodd" d="M7.75 16.3274C7.75 15.9132 7.41421 15.5774 7 15.5774L6 15.5774C5.58579 15.5774 5.25 15.9132 5.25 16.3274C5.25 16.7416 5.58579 17.0774 6 17.0774L7 17.0774C7.41421 17.0774 7.75 16.7416 7.75 16.3274Z" fill="#28303F"/>
<path fill-rule="evenodd" clip-rule="evenodd" d="M14.642 10C15.4516 8.74721 16 7.15676 16 6C16 3.79086 14.2091 2 12 2C9.79086 2 8 3.79086 8 6C8 7.15676 8.54837 8.74721 9.35797 10C10.0945 11.1397 11.0473 12 12 12C12.9527 12 13.9055 11.1397 14.642 10ZM12 7.5C12.8284 7.5 13.5 6.82843 13.5 6C13.5 5.17157 12.8284 4.5 12 4.5C11.1716 4.5 10.5 5.17157 10.5 6C10.5 6.82843 11.1716 7.5 12 7.5Z" fill="#28303F"/>
</svg>
