<svg width="24" height="24" viewBox="0 0 24 24" fill="none" xmlns="http://www.w3.org/2000/svg">
<path opacity="0.4" d="M2 8C2 6.34315 3.34315 5 5 5H19C20.6569 5 22 6.34315 22 8V16C22 17.6569 20.6569 19 19 19H5C3.34315 19 2 17.6569 2 16V8Z" fill="#28303F"/>
<path fill-rule="evenodd" clip-rule="evenodd" d="M13.25 12C13.25 11.5858 12.9142 11.25 12.5 11.25L11.5 11.25C11.0858 11.25 10.75 11.5858 10.75 12C10.75 12.4142 11.0858 12.75 11.5 12.75L12.5 12.75C12.9142 12.75 13.25 12.4142 13.25 12Z" fill="#28303F"/>
<path fill-rule="evenodd" clip-rule="evenodd" d="M18.75 12C18.75 11.5858 18.4142 11.25 18 11.25L17 11.25C16.5858 11.25 16.25 11.5858 16.25 12C16.25 12.4142 16.5858 12.75 17 12.75L18 12.75C18.4142 12.75 18.75 12.4142 18.75 12Z" fill="#28303F"/>
<path fill-rule="evenodd" clip-rule="evenodd" d="M7.75 12C7.75 11.5858 7.41421 11.25 7 11.25L6 11.25C5.58579 11.25 5.25 11.5858 5.25 12C5.25 12.4142 5.58579 12.75 6 12.75L7 12.75C7.41421 12.75 7.75 12.4142 7.75 12Z" fill="#28303F"/>
</svg>
