<svg width="24" height="24" viewBox="0 0 24 24" fill="none" xmlns="http://www.w3.org/2000/svg">
<path opacity="0.4" fill-rule="evenodd" clip-rule="evenodd" d="M17.7501 5.99995C17.5413 6.15694 17.2817 6.24998 17.0004 6.24998C16.3108 6.24998 15.7518 5.69097 15.7518 5.00139C15.7518 4.63461 15.9099 4.30477 16.1618 4.07634C15.9865 4.02642 15.8025 4 15.6141 4H8.38609C7.5524 4 6.80616 4.51714 6.51343 5.29775L2.01343 17.2978C1.52312 18.6053 2.48968 20 3.88609 20H20.1141C21.5105 20 22.4771 18.6053 21.9867 17.2978L17.7501 5.99995Z" fill="#28303F"/>
<path fill-rule="evenodd" clip-rule="evenodd" d="M12 15.25C12.4142 15.25 12.75 15.5858 12.75 16V17C12.75 17.4142 12.4142 17.75 12 17.75C11.5858 17.75 11.25 17.4142 11.25 17V16C11.25 15.5858 11.5858 15.25 12 15.25Z" fill="#28303F"/>
<path fill-rule="evenodd" clip-rule="evenodd" d="M12 10.75C12.4142 10.75 12.75 11.0858 12.75 11.5V12.5C12.75 12.9142 12.4142 13.25 12 13.25C11.5858 13.25 11.25 12.9142 11.25 12.5V11.5C11.25 11.0858 11.5858 10.75 12 10.75Z" fill="#28303F"/>
<path fill-rule="evenodd" clip-rule="evenodd" d="M12 6.25C12.4142 6.25 12.75 6.58579 12.75 7V8C12.75 8.41421 12.4142 8.75 12 8.75C11.5858 8.75 11.25 8.41421 11.25 8V7C11.25 6.58579 11.5858 6.25 12 6.25Z" fill="#28303F"/>
<path fill-rule="evenodd" clip-rule="evenodd" d="M20 5C20 6.39788 19.0439 7.57245 17.75 7.90549V12C17.75 12.4142 17.4142 12.75 17 12.75C16.5858 12.75 16.25 12.4142 16.25 12V7.90549C14.9561 7.57245 14 6.39788 14 5C14 3.34315 15.3431 2 17 2C18.6569 2 20 3.34315 20 5ZM17.0003 6.24998C17.6899 6.24998 18.2489 5.69097 18.2489 5.00139C18.2489 4.31182 17.6899 3.75281 17.0003 3.75281C16.3107 3.75281 15.7517 4.31182 15.7517 5.00139C15.7517 5.69097 16.3107 6.24998 17.0003 6.24998Z" fill="#28303F"/>
</svg>
