<svg width="24" height="24" viewBox="0 0 24 24" fill="none" xmlns="http://www.w3.org/2000/svg">
<path opacity="0.4" d="M10.5772 8C10.5741 8.03852 10.5725 8.07748 10.5725 8.11681V11.9983C10.5725 12.7866 11.2116 13.4258 12 13.4258C12.7884 13.4258 13.4275 12.7866 13.4275 11.9983V8.11681C13.4275 8.07748 13.4259 8.03852 13.4228 8H19C20.6569 8 22 9.34315 22 11V19C22 20.6569 20.6569 22 19 22H5C3.34315 22 2 20.6569 2 19V11C2 9.34315 3.34315 8 5 8H10.5772Z" fill="#28303F"/>
<path fill-rule="evenodd" clip-rule="evenodd" d="M13.25 15.3926C13.25 14.9784 12.9142 14.6426 12.5 14.6426L11.5 14.6426C11.0858 14.6426 10.75 14.9784 10.75 15.3926C10.75 15.8068 11.0858 16.1426 11.5 16.1426L12.5 16.1426C12.9142 16.1426 13.25 15.8068 13.25 15.3926Z" fill="#28303F"/>
<path fill-rule="evenodd" clip-rule="evenodd" d="M17.75 15.3926C17.75 14.9784 17.4142 14.6426 17 14.6426L16 14.6426C15.5858 14.6426 15.25 14.9784 15.25 15.3926C15.25 15.8068 15.5858 16.1426 16 16.1426L17 16.1426C17.4142 16.1426 17.75 15.8068 17.75 15.3926Z" fill="#28303F"/>
<path fill-rule="evenodd" clip-rule="evenodd" d="M8.75 15.3926C8.75 14.9784 8.41421 14.6426 8 14.6426L7 14.6426C6.58579 14.6426 6.25 14.9784 6.25 15.3926C6.25 15.8068 6.58579 16.1426 7 16.1426L8 16.1426C8.41421 16.1426 8.75 15.8068 8.75 15.3926Z" fill="#28303F"/>
<path fill-rule="evenodd" clip-rule="evenodd" d="M12.75 5.85462C13.483 5.55793 14 4.83934 14 4C14 2.89543 13.1046 2 12 2C10.8954 2 10 2.89543 10 4C10 4.83934 10.517 5.55793 11.25 5.85462V12C11.25 12.4142 11.5858 12.75 12 12.75C12.4142 12.75 12.75 12.4142 12.75 12V5.85462Z" fill="#28303F"/>
</svg>
