<svg width="24" height="24" viewBox="0 0 24 24" fill="none" xmlns="http://www.w3.org/2000/svg">
<path opacity="0.4" d="M12.4998 2H11.4998C10.9475 2 10.4998 2.44772 10.4998 3V21C10.4998 21.5523 10.9475 22 11.4998 22H12.4998C13.052 22 13.4998 21.5523 13.4998 21V3C13.4998 2.44772 13.052 2 12.4998 2Z" fill="#28303F"/>
<path d="M5.5571 6.63805L10.4997 5.31368L13.4997 4.50984L15.718 3.91543C16.0115 3.8368 16.3247 3.89583 16.5694 4.07584L18.1168 5.21415C18.4935 5.4913 18.6278 5.99257 18.4401 6.42097L17.6693 8.18044C17.5474 8.45869 17.3056 8.66643 17.0121 8.74506L13.4997 9.68622L10.4997 10.4901L6.8512 11.4677C6.31773 11.6106 5.7694 11.294 5.62645 10.7606L4.85 7.86279C4.70705 7.32932 5.02364 6.78099 5.5571 6.63805Z" fill="#28303F"/>
<path d="M5.99968 13.9999H10.4997H13.4997H16.5191C16.8228 13.9999 17.1102 14.138 17.2999 14.3752L18.4999 15.8752C18.7921 16.2405 18.7921 16.7594 18.4999 17.1246L17.2999 18.6246C17.1102 18.8618 16.8228 18.9999 16.5191 18.9999H13.4997H10.4997H5.99968C5.4474 18.9999 4.99968 18.5522 4.99968 17.9999V14.9999C4.99968 14.4477 5.4474 13.9999 5.99968 13.9999Z" fill="#28303F"/>
</svg>
