<svg width="24" height="24" viewBox="0 0 24 24" fill="none" xmlns="http://www.w3.org/2000/svg">
<path opacity="0.4" d="M10.5001 10H5.41431C5.14909 10 4.89474 9.89464 4.7072 9.70711L2.7072 7.70711C2.31668 7.31658 2.31668 6.68342 2.7072 6.29289L4.7072 4.29289C4.89474 4.10536 5.14909 4 5.41431 4H10.5001V10Z" fill="#28303F"/>
<path opacity="0.4" d="M13.4999 10H18.5857C18.8509 10 19.1053 10.1054 19.2928 10.2929L21.2928 12.2929C21.6833 12.6834 21.6833 13.3166 21.2928 13.7071L19.2928 15.7071C19.1053 15.8946 18.8509 16 18.5857 16H13.4999V10Z" fill="#28303F"/>
<path d="M10.5 3C10.5 2.44772 10.9477 2 11.5 2H12.5C13.0523 2 13.5 2.44772 13.5 3V21C13.5 21.5523 13.0523 22 12.5 22H11.5C10.9477 22 10.5 21.5523 10.5 21V3Z" fill="#28303F"/>
</svg>
