<svg width="24" height="24" viewBox="0 0 24 24" fill="none" xmlns="http://www.w3.org/2000/svg">
<path opacity="0.4" d="M12.5 2H11.5C10.9477 2 10.5 2.44772 10.5 3V21C10.5 21.5523 10.9477 22 11.5 22H12.5C13.0523 22 13.5 21.5523 13.5 21V3C13.5 2.44772 13.0523 2 12.5 2Z" fill="#28303F"/>
<path d="M16.4948 9H5.6875C5.44259 9 5.20619 8.91012 5.02314 8.74741L3.33564 7.24741C2.88812 6.84962 2.88812 6.15038 3.33564 5.75259L5.02314 4.25259C5.20619 4.08988 5.44259 4 5.6875 4H16.4948C17.0471 4 17.4948 4.44772 17.4948 5V8C17.4948 8.55228 17.0471 9 16.4948 9Z" fill="#28303F"/>
<path d="M7.96586 16H18.4042C18.6408 16 18.8691 15.9101 19.0459 15.7474L20.6758 14.2474C21.1081 13.8496 21.1081 13.1504 20.6758 12.7526L19.0459 11.2526C18.8691 11.0899 18.6408 11 18.4042 11H7.96586C7.43243 11 7 11.4477 7 12V15C7 15.5523 7.43243 16 7.96586 16Z" fill="#28303F"/>
</svg>
