<svg width="24" height="24" viewBox="0 0 24 24" fill="none" xmlns="http://www.w3.org/2000/svg">
<path opacity="0.4" d="M8.97272 3.25394C10.6446 1.58202 13.3554 1.58202 15.0273 3.25394L20.7461 8.97272C22.418 10.6446 22.418 13.3554 20.7461 15.0273L15.0273 20.7461C13.3554 22.418 10.6446 22.418 8.97272 20.7461L3.25394 15.0273C1.58202 13.3554 1.58202 10.6446 3.25394 8.97272L8.97272 3.25394Z" fill="#28303F"/>
<path fill-rule="evenodd" clip-rule="evenodd" d="M9.11612 8.46967C9.40901 8.76256 9.40901 9.23744 9.11612 9.53033L8.39645 10.25H10C10.788 10.25 11.4986 10.5814 12 11.1125C12.5014 10.5814 13.212 10.25 14 10.25H15.6036L14.8839 9.53033C14.591 9.23744 14.591 8.76256 14.8839 8.46967C15.1768 8.17678 15.6517 8.17678 15.9445 8.46967L17.2374 9.76256C17.9209 10.446 17.9209 11.554 17.2374 12.2374L15.9445 13.5303C15.6517 13.8232 15.1768 13.8232 14.8839 13.5303C14.591 13.2374 14.591 12.7626 14.8839 12.4697L15.6036 11.75L14 11.75C13.3096 11.75 12.75 12.3096 12.75 13V16C12.75 16.4142 12.4142 16.75 12 16.75C11.5858 16.75 11.25 16.4142 11.25 16V13C11.25 12.3096 10.6904 11.75 10 11.75L8.39645 11.75L9.11612 12.4697C9.40901 12.7626 9.40901 13.2374 9.11612 13.5303C8.82322 13.8232 8.34835 13.8232 8.05546 13.5303L6.76256 12.2374C6.07915 11.554 6.07914 10.446 6.76256 9.76256L8.05546 8.46967C8.34835 8.17678 8.82322 8.17678 9.11612 8.46967Z" fill="#28303F"/>
</svg>
