<svg width="24" height="24" viewBox="0 0 24 24" fill="none" xmlns="http://www.w3.org/2000/svg">
<path opacity="0.4" d="M8.97272 3.25394C10.6446 1.58202 13.3554 1.58202 15.0273 3.25394L20.7461 8.97272C22.418 10.6446 22.418 13.3554 20.7461 15.0273L15.0273 20.7461C13.3554 22.418 10.6446 22.418 8.97272 20.7461L3.25394 15.0273C1.58202 13.3554 1.58202 10.6446 3.25394 8.97272L8.97272 3.25394Z" fill="#28303F"/>
<path fill-rule="evenodd" clip-rule="evenodd" d="M10.3964 10.75L11.1161 11.4697C11.409 11.7626 11.409 12.2374 11.1161 12.5303C10.8232 12.8232 10.3484 12.8232 10.0555 12.5303L8.76256 11.2374C8.07915 10.554 8.07914 9.44598 8.76256 8.76256L10.0555 7.46967C10.3483 7.17678 10.8232 7.17678 11.1161 7.46967C11.409 7.76256 11.409 8.23744 11.1161 8.53033L10.3964 9.25L12 9.25C13.5188 9.25 14.75 10.4812 14.75 12L14.75 16C14.75 16.4142 14.4142 16.75 14 16.75C13.5858 16.75 13.25 16.4142 13.25 16L13.25 12C13.25 11.3096 12.6904 10.75 12 10.75L10.3964 10.75Z" fill="#28303F"/>
</svg>
