<svg width="24" height="24" viewBox="0 0 24 24" fill="none" xmlns="http://www.w3.org/2000/svg">
<path opacity="0.4" d="M8.97272 3.25394C10.6446 1.58202 13.3554 1.58202 15.0273 3.25394L20.7461 8.97272C22.418 10.6446 22.418 13.3554 20.7461 15.0273L15.0273 20.7461C13.3554 22.418 10.6446 22.418 8.97272 20.7461L3.25394 15.0273C1.58202 13.3554 1.58202 10.6446 3.25394 8.97272L8.97272 3.25394Z" fill="#28303F"/>
<path fill-rule="evenodd" clip-rule="evenodd" d="M12.75 7.39645L13.4697 8.11612C13.7626 8.40901 14.2374 8.40901 14.5303 8.11612C14.8232 7.82322 14.8232 7.34835 14.5303 7.05546L13.2374 5.76256C12.554 5.07915 11.446 5.07914 10.7626 5.76256L9.46967 7.05546C9.17678 7.34835 9.17678 7.82322 9.46967 8.11612C9.76256 8.40901 10.2374 8.40901 10.5303 8.11612L11.25 7.39645L11.25 12.5359C10.4003 11.7384 9.25721 11.25 8 11.25H7.39645L8.11612 10.5303C8.40901 10.2374 8.40901 9.76256 8.11612 9.46967C7.82322 9.17678 7.34835 9.17678 7.05546 9.46967L5.76256 10.7626C5.07914 11.446 5.07915 12.554 5.76256 13.2374L7.05546 14.5303C7.34835 14.8232 7.82322 14.8232 8.11612 14.5303C8.40901 14.2374 8.40901 13.7626 8.11612 13.4697L7.39645 12.75H8C9.79493 12.75 11.25 14.2051 11.25 16L11.25 17C11.25 17.4142 11.5858 17.75 12 17.75C12.4142 17.75 12.75 17.4142 12.75 17L12.75 16C12.75 14.2051 14.2051 12.75 16 12.75H16.6036L15.8839 13.4697C15.591 13.7626 15.591 14.2374 15.8839 14.5303C16.1768 14.8232 16.6516 14.8232 16.9445 14.5303L18.2374 13.2374C18.9209 12.554 18.9209 11.446 18.2374 10.7626L16.9445 9.46967C16.6517 9.17678 16.1768 9.17678 15.8839 9.46967C15.591 9.76256 15.591 10.2374 15.8839 10.5303L16.6036 11.25H16C14.7428 11.25 13.5997 11.7384 12.75 12.5359L12.75 7.39645Z" fill="#28303F"/>
</svg>
