<svg width="24" height="24" viewBox="0 0 24 24" fill="none" xmlns="http://www.w3.org/2000/svg">
<path opacity="0.4" d="M8.97272 3.25394C10.6446 1.58202 13.3554 1.58202 15.0273 3.25394L20.7461 8.97272C22.418 10.6446 22.418 13.3554 20.7461 15.0273L15.0273 20.7461C13.3554 22.418 10.6446 22.418 8.97272 20.7461L3.25394 15.0273C1.58202 13.3554 1.58202 10.6446 3.25394 8.97272L8.97272 3.25394Z" fill="#28303F"/>
<path fill-rule="evenodd" clip-rule="evenodd" d="M13.6036 10.75L12.8839 11.4697C12.591 11.7626 12.591 12.2374 12.8839 12.5303C13.1768 12.8232 13.6516 12.8232 13.9445 12.5303L15.2374 11.2374C15.9209 10.554 15.9209 9.44598 15.2374 8.76256L13.9445 7.46967C13.6517 7.17678 13.1768 7.17678 12.8839 7.46967C12.591 7.76256 12.591 8.23744 12.8839 8.53033L13.6036 9.25L12 9.25C10.4812 9.25 9.25 10.4812 9.25 12L9.25 16C9.25 16.4142 9.58579 16.75 10 16.75C10.4142 16.75 10.75 16.4142 10.75 16L10.75 12C10.75 11.3096 11.3096 10.75 12 10.75L13.6036 10.75Z" fill="#28303F"/>
</svg>
