<svg width="24" height="24" viewBox="0 0 24 24" fill="none" xmlns="http://www.w3.org/2000/svg">
<path opacity="0.4" d="M8.97272 3.25394C10.6446 1.58202 13.3554 1.58202 15.0273 3.25394L20.7461 8.97272C22.418 10.6446 22.418 13.3554 20.7461 15.0273L15.0273 20.7461C13.3554 22.418 10.6446 22.418 8.97272 20.7461L3.25394 15.0273C1.58202 13.3554 1.58202 10.6446 3.25394 8.97272L8.97272 3.25394Z" fill="#28303F"/>
<path fill-rule="evenodd" clip-rule="evenodd" d="M9 16.75C9.41421 16.75 9.75 16.4142 9.75 16V11C9.75 9.75736 10.7574 8.75 12 8.75C13.2426 8.75 14.25 9.75736 14.25 11V12.6036L13.5303 11.8839C13.2374 11.591 12.7626 11.591 12.4697 11.8839C12.1768 12.1768 12.1768 12.6516 12.4697 12.9445L13.7626 14.2374C14.446 14.9209 15.554 14.9209 16.2374 14.2374L17.5303 12.9445C17.8232 12.6516 17.8232 12.1768 17.5303 11.8839C17.2374 11.591 16.7626 11.591 16.4697 11.8839L15.75 12.6036V11C15.75 8.92893 14.0711 7.25 12 7.25C9.92893 7.25 8.25 8.92893 8.25 11V16C8.25 16.4142 8.58579 16.75 9 16.75Z" fill="#28303F"/>
</svg>
