<svg width="24" height="24" viewBox="0 0 24 24" fill="none" xmlns="http://www.w3.org/2000/svg">
<path fill-rule="evenodd" clip-rule="evenodd" d="M7 2.25C4.37665 2.25 2.25 4.37665 2.25 7V17C2.25 19.6234 4.37665 21.75 7 21.75H11C13.6234 21.75 15.75 19.6234 15.75 17V16.5C15.75 16.0858 15.4142 15.75 15 15.75C14.5858 15.75 14.25 16.0858 14.25 16.5V17C14.25 18.7949 12.7949 20.25 11 20.25H7C5.20507 20.25 3.75 18.7949 3.75 17V7C3.75 5.20507 5.20507 3.75 7 3.75H11C12.7949 3.75 14.25 5.20507 14.25 7V7.5C14.25 7.91421 14.5858 8.25 15 8.25C15.4142 8.25 15.75 7.91421 15.75 7.5V7C15.75 4.37665 13.6234 2.25 11 2.25H7ZM11.4697 8.46967C11.7626 8.17678 12.2374 8.17678 12.5303 8.46967C12.8232 8.76256 12.8232 9.23744 12.5303 9.53033L10.8107 11.25H21C21.4142 11.25 21.75 11.5858 21.75 12C21.75 12.4142 21.4142 12.75 21 12.75H10.8107L12.5303 14.4697C12.8232 14.7626 12.8232 15.2374 12.5303 15.5303C12.2374 15.8232 11.7626 15.8232 11.4697 15.5303L8.46967 12.5303C8.17678 12.2374 8.17678 11.7626 8.46967 11.4697L11.4697 8.46967Z" fill="#28303F"/>
</svg>
