<svg width="24" height="24" viewBox="0 0 24 24" fill="none" xmlns="http://www.w3.org/2000/svg">
<path fill-rule="evenodd" clip-rule="evenodd" d="M12.5303 7.46967C12.2374 7.17678 11.7626 7.17678 11.4697 7.46967C11.1768 7.76257 11.1768 8.23744 11.4697 8.53033L14.1893 11.25L2 11.25C1.58579 11.25 1.25 11.5858 1.25 12C1.25 12.4142 1.58579 12.75 2 12.75L14.1894 12.75L11.4697 15.4697C11.1768 15.7626 11.1768 16.2374 11.4697 16.5303C11.7626 16.8232 12.2374 16.8232 12.5303 16.5303L16.5303 12.5303C16.671 12.3896 16.75 12.1989 16.75 12C16.75 11.801 16.671 11.6103 16.5303 11.4696L12.5303 7.46967ZM9.46913 6.33981C9.14594 6.59889 8.67392 6.54692 8.41484 6.22373C8.15576 5.90054 8.20774 5.42852 8.53093 5.16944C10.0288 3.96871 11.9315 3.25 14 3.25C18.8325 3.25 22.75 7.16751 22.75 12C22.75 16.8325 18.8325 20.75 14 20.75C11.9315 20.75 10.0288 20.0313 8.53093 18.8306C8.20774 18.5715 8.15576 18.0995 8.41484 17.7763C8.67392 17.4531 9.14594 17.4011 9.46913 17.6602C10.7105 18.6553 12.2848 19.25 14 19.25C18.0041 19.25 21.25 16.0041 21.25 12C21.25 7.99593 18.0041 4.75 14 4.75C12.2848 4.75 10.7105 5.34472 9.46913 6.33981Z" fill="#28303F"/>
</svg>
