<svg width="24" height="24" viewBox="0 0 24 24" fill="none" xmlns="http://www.w3.org/2000/svg">
<path fill-rule="evenodd" clip-rule="evenodd" d="M6 2H18C20.2091 2 22 3.79086 22 6V18C22 20.2091 20.2091 22 18 22H6C3.79086 22 2 20.2091 2 18V6C2 3.79086 3.79086 2 6 2ZM7.46967 11.4697C7.17678 11.7626 7.17678 12.2374 7.46967 12.5303L10.4697 15.5303C10.7626 15.8232 11.2374 15.8232 11.5303 15.5303C11.8232 15.2374 11.8232 14.7626 11.5303 14.4697L9.81066 12.75H16C16.4142 12.75 16.75 12.4142 16.75 12C16.75 11.5858 16.4142 11.25 16 11.25H9.81066L11.5303 9.53033C11.8232 9.23744 11.8232 8.76256 11.5303 8.46967C11.2374 8.17678 10.7626 8.17678 10.4697 8.46967L7.46967 11.4697Z" fill="#28303F"/>
</svg>
