<svg width="24" height="24" viewBox="0 0 24 24" fill="none" xmlns="http://www.w3.org/2000/svg">
<path fill-rule="evenodd" clip-rule="evenodd" d="M18 2H6C3.79086 2 2 3.79086 2 6V18C2 20.2091 3.79086 22 6 22H18C20.2091 22 22 20.2091 22 18V6C22 3.79086 20.2091 2 18 2ZM15.5303 13.5303L12.5303 16.5303C12.2374 16.8232 11.7626 16.8232 11.4697 16.5303L8.46967 13.5303C8.17678 13.2374 8.17678 12.7626 8.46967 12.4697C8.76256 12.1768 9.23744 12.1768 9.53033 12.4697L11.25 14.1893V8C11.25 7.58579 11.5858 7.25 12 7.25C12.4142 7.25 12.75 7.58579 12.75 8V14.1893L14.4697 12.4697C14.7626 12.1768 15.2374 12.1768 15.5303 12.4697C15.8232 12.7626 15.8232 13.2374 15.5303 13.5303Z" fill="#28303F"/>
</svg>
