<svg width="24" height="24" viewBox="0 0 24 24" fill="none" xmlns="http://www.w3.org/2000/svg">
<path fill-rule="evenodd" clip-rule="evenodd" d="M18 2H6C3.79086 2 2 3.79086 2 6V18C2 20.2091 3.79086 22 6 22H18C20.2091 22 22 20.2091 22 18V6C22 3.79086 20.2091 2 18 2ZM10.287 7.30711C10.5673 7.4232 10.75 7.69668 10.75 8.00002V16C10.75 16.4142 10.4142 16.75 10 16.75C9.58579 16.75 9.25 16.4142 9.25 16V9.81068L8.53033 10.5304C8.23744 10.8232 7.76256 10.8232 7.46967 10.5304C7.17678 10.2375 7.17678 9.76259 7.46967 9.46969L9.46967 7.46969C9.68417 7.25519 10.0068 7.19103 10.287 7.30711ZM13.25 16C13.25 16.3033 13.4327 16.5768 13.713 16.6929C13.9932 16.809 14.3158 16.7448 14.5303 16.5303L16.5303 14.5303C16.8232 14.2374 16.8232 13.7625 16.5303 13.4696C16.2374 13.1768 15.7626 13.1768 15.4697 13.4696L14.75 14.1893V7.99998C14.75 7.58576 14.4142 7.24998 14 7.24998C13.5858 7.24998 13.25 7.58576 13.25 7.99998V16Z" fill="#28303F"/>
</svg>
