<svg width="24" height="24" viewBox="0 0 24 24" fill="none" xmlns="http://www.w3.org/2000/svg">
<path fill-rule="evenodd" clip-rule="evenodd" d="M18 2H6C3.79086 2 2 3.79086 2 6V18C2 20.2091 3.79086 22 6 22H18C20.2091 22 22 20.2091 22 18V6C22 3.79086 20.2091 2 18 2ZM14.5303 6.46967C14.2374 6.17678 13.7626 6.17678 13.4697 6.46967C13.1768 6.76256 13.1768 7.23744 13.4697 7.53033L14.1893 8.25H11C8.92893 8.25 7.25 9.92893 7.25 12C7.25 14.0711 8.92893 15.75 11 15.75H16C16.4142 15.75 16.75 15.4142 16.75 15C16.75 14.5858 16.4142 14.25 16 14.25H11C9.75736 14.25 8.75 13.2426 8.75 12C8.75 10.7574 9.75736 9.75 11 9.75H14.1893L13.4697 10.4697C13.1768 10.7626 13.1768 11.2374 13.4697 11.5303C13.7626 11.8232 14.2374 11.8232 14.5303 11.5303L16.5303 9.53033C16.8232 9.23744 16.8232 8.76256 16.5303 8.46967L14.5303 6.46967Z" fill="#28303F"/>
</svg>
