<svg width="24" height="24" viewBox="0 0 24 24" fill="none" xmlns="http://www.w3.org/2000/svg">
<path fill-rule="evenodd" clip-rule="evenodd" d="M6 2H18C20.2091 2 22 3.79086 22 6V18C22 20.2091 20.2091 22 18 22H6C3.79086 22 2 20.2091 2 18V6C2 3.79086 3.79086 2 6 2ZM12.5303 18.5303C12.2374 18.8232 11.7626 18.8232 11.4697 18.5303L9.46967 16.5303C9.17678 16.2374 9.17678 15.7626 9.46967 15.4697C9.76256 15.1768 10.2374 15.1768 10.5303 15.4697L11.25 16.1893V12.75L7.81066 12.75L8.53033 13.4697C8.82322 13.7626 8.82322 14.2374 8.53033 14.5303C8.23744 14.8232 7.76256 14.8232 7.46967 14.5303L5.46967 12.5303C5.17678 12.2374 5.17678 11.7626 5.46967 11.4697L7.46967 9.46967C7.76256 9.17678 8.23744 9.17678 8.53033 9.46967C8.82322 9.76256 8.82322 10.2374 8.53033 10.5303L7.81066 11.25L11.25 11.25V7.81066L10.5303 8.53033C10.2374 8.82322 9.76256 8.82322 9.46967 8.53033C9.17678 8.23744 9.17678 7.76256 9.46967 7.46967L11.4697 5.46967C11.7626 5.17678 12.2374 5.17678 12.5303 5.46967L14.5303 7.46967C14.8232 7.76256 14.8232 8.23744 14.5303 8.53033C14.2374 8.82322 13.7626 8.82322 13.4697 8.53033L12.75 7.81066V11.25H16.1893L15.4697 10.5303C15.1768 10.2374 15.1768 9.76256 15.4697 9.46967C15.7626 9.17677 16.2374 9.17677 16.5303 9.46967L18.5303 11.4697C18.8232 11.7626 18.8232 12.2374 18.5303 12.5303L16.5303 14.5303C16.2374 14.8232 15.7626 14.8232 15.4697 14.5303C15.1768 14.2374 15.1768 13.7626 15.4697 13.4697L16.1893 12.75H12.75V16.1893L13.4697 15.4697C13.7626 15.1768 14.2374 15.1768 14.5303 15.4697C14.8232 15.7626 14.8232 16.2374 14.5303 16.5303L12.5303 18.5303Z" fill="#28303F"/>
</svg>
