<svg width="24" height="24" viewBox="0 0 24 24" fill="none" xmlns="http://www.w3.org/2000/svg">
<path fill-rule="evenodd" clip-rule="evenodd" d="M18 2H6C3.79086 2 2 3.79086 2 6V18C2 20.2091 3.79086 22 6 22H18C20.2091 22 22 20.2091 22 18V6C22 3.79086 20.2091 2 18 2ZM13.5303 8.46967L16.5303 11.4697C16.8232 11.7626 16.8232 12.2374 16.5303 12.5303L13.5303 15.5303C13.2374 15.8232 12.7626 15.8232 12.4697 15.5303C12.1768 15.2374 12.1768 14.7626 12.4697 14.4697L14.1893 12.75H8C7.58579 12.75 7.25 12.4142 7.25 12C7.25 11.5858 7.58579 11.25 8 11.25H14.1893L12.4697 9.53033C12.1768 9.23744 12.1768 8.76256 12.4697 8.46967C12.7626 8.17678 13.2374 8.17678 13.5303 8.46967Z" fill="#28303F"/>
</svg>
