<svg width="24" height="24" viewBox="0 0 24 24" fill="none" xmlns="http://www.w3.org/2000/svg">
<path fill-rule="evenodd" clip-rule="evenodd" d="M11.4697 21.5303C11.7626 21.8232 12.2374 21.8232 12.5303 21.5303L15.5303 18.5303C15.8232 18.2374 15.8232 17.7626 15.5303 17.4697C15.2374 17.1768 14.7626 17.1768 14.4697 17.4697L12.75 19.1893V12.75L19.1893 12.75L17.4697 14.4697C17.1768 14.7626 17.1768 15.2374 17.4697 15.5303C17.7626 15.8232 18.2374 15.8232 18.5303 15.5303L21.5303 12.5303C21.671 12.3897 21.75 12.1989 21.75 12C21.75 11.8011 21.671 11.6103 21.5303 11.4697L18.5303 8.46967C18.2374 8.17678 17.7626 8.17678 17.4697 8.46967C17.1768 8.76256 17.1768 9.23744 17.4697 9.53033L19.1893 11.25H12.75V4.81066L14.4697 6.53033C14.7626 6.82322 15.2374 6.82322 15.5303 6.53033C15.8232 6.23744 15.8232 5.76256 15.5303 5.46967L12.5303 2.46967C12.2374 2.17678 11.7626 2.17678 11.4697 2.46967L8.46967 5.46967C8.17678 5.76256 8.17678 6.23744 8.46967 6.53033C8.76256 6.82322 9.23744 6.82322 9.53033 6.53033L11.25 4.81066V11.25H4.81066L6.53033 9.53033C6.82322 9.23744 6.82322 8.76257 6.53033 8.46967C6.23744 8.17678 5.76256 8.17678 5.46967 8.46967L2.46967 11.4697C2.32902 11.6103 2.25 11.8011 2.25 12C2.25 12.1989 2.32902 12.3897 2.46967 12.5303L5.46967 15.5303C5.76256 15.8232 6.23744 15.8232 6.53033 15.5303C6.82322 15.2374 6.82322 14.7626 6.53033 14.4697L4.81066 12.75L11.25 12.75V19.1893L9.53033 17.4697C9.23744 17.1768 8.76256 17.1768 8.46967 17.4697C8.17678 17.7626 8.17678 18.2374 8.46967 18.5303L11.4697 21.5303Z" fill="#28303F"/>
</svg>
