<svg width="24" height="24" viewBox="0 0 24 24" fill="none" xmlns="http://www.w3.org/2000/svg">
<path fill-rule="evenodd" clip-rule="evenodd" d="M18 2H6C3.79086 2 2 3.79086 2 6V18C2 20.2091 3.79086 22 6 22H18C20.2091 22 22 20.2091 22 18V6C22 3.79086 20.2091 2 18 2ZM8.46967 7.46967C8.76256 7.17678 9.23744 7.17678 9.53033 7.46967L11.5303 9.46967C11.8232 9.76256 11.8232 10.2374 11.5303 10.5303C11.2374 10.8232 10.7626 10.8232 10.4697 10.5303L9.75 9.81066V16C9.75 16.4142 9.41421 16.75 9 16.75C8.58579 16.75 8.25 16.4142 8.25 16V9.81066L7.53033 10.5303C7.23744 10.8232 6.76256 10.8232 6.46967 10.5303C6.17678 10.2374 6.17678 9.76256 6.46967 9.46967L8.46967 7.46967ZM12.4697 14.5303L14.4697 16.5303C14.7626 16.8232 15.2374 16.8232 15.5303 16.5303L17.5303 14.5303C17.8232 14.2374 17.8232 13.7626 17.5303 13.4697C17.2374 13.1768 16.7626 13.1768 16.4697 13.4697L15.75 14.1893V8C15.75 7.58579 15.4142 7.25 15 7.25C14.5858 7.25 14.25 7.58579 14.25 8V14.1893L13.5303 13.4697C13.2374 13.1768 12.7626 13.1768 12.4697 13.4697C12.1768 13.7626 12.1768 14.2374 12.4697 14.5303Z" fill="#28303F"/>
</svg>
