<svg width="24" height="24" viewBox="0 0 24 24" fill="none" xmlns="http://www.w3.org/2000/svg">
<path fill-rule="evenodd" clip-rule="evenodd" d="M18 2H6C3.79086 2 2 3.79086 2 6V18C2 20.2091 3.79086 22 6 22H18C20.2091 22 22 20.2091 22 18V6C22 3.79086 20.2091 2 18 2ZM9.46967 6.46967C9.76256 6.17678 10.2374 6.17678 10.5303 6.46967C10.8232 6.76256 10.8232 7.23744 10.5303 7.53033L9.81066 8.25H13C15.0711 8.25 16.75 9.92893 16.75 12C16.75 14.0711 15.0711 15.75 13 15.75H8C7.58579 15.75 7.25 15.4142 7.25 15C7.25 14.5858 7.58579 14.25 8 14.25H13C14.2426 14.25 15.25 13.2426 15.25 12C15.25 10.7574 14.2426 9.75 13 9.75H9.81066L10.5303 10.4697C10.8232 10.7626 10.8232 11.2374 10.5303 11.5303C10.2374 11.8232 9.76256 11.8232 9.46967 11.5303L7.46967 9.53033C7.17678 9.23744 7.17678 8.76256 7.46967 8.46967L9.46967 6.46967Z" fill="#28303F"/>
</svg>
