<svg width="24" height="24" viewBox="0 0 24 24" fill="none" xmlns="http://www.w3.org/2000/svg">
<path fill-rule="evenodd" clip-rule="evenodd" d="M22 12C22 17.5228 17.5228 22 12 22C6.47715 22 2 17.5228 2 12C2 6.47715 6.47715 2 12 2C17.5228 2 22 6.47715 22 12ZM16.6 15.45C16.3514 15.7813 15.8813 15.8485 15.55 15.6L12.75 13.5C12.3055 13.1666 11.6944 13.1666 11.25 13.5L8.44996 15.6C8.11859 15.8485 7.64848 15.7813 7.39996 15.45C7.15143 15.1186 7.21859 14.6485 7.54996 14.4L10.35 12.3C11.3277 11.5666 12.6722 11.5666 13.65 12.3L16.45 14.4C16.7813 14.6485 16.8485 15.1186 16.6 15.45ZM15.55 10.6C15.8813 10.8485 16.3514 10.7813 16.6 10.45C16.8485 10.1186 16.7813 9.64848 16.45 9.39996L13.65 7.29996C12.6722 6.56662 11.3277 6.56662 10.35 7.29996L7.54996 9.39996C7.21859 9.64848 7.15143 10.1186 7.39996 10.45C7.64848 10.7813 8.11859 10.8485 8.44996 10.6L11.25 8.49996C11.6944 8.16662 12.3055 8.16662 12.75 8.49996L15.55 10.6Z" fill="#28303F"/>
</svg>
