<svg width="24" height="24" viewBox="0 0 24 24" fill="none" xmlns="http://www.w3.org/2000/svg">
<path fill-rule="evenodd" clip-rule="evenodd" d="M6 2H18C20.2091 2 22 3.79086 22 6V18C22 20.2091 20.2091 22 18 22H6C3.79086 22 2 20.2091 2 18V6C2 3.79086 3.79086 2 6 2ZM7.40004 7.55004C7.64857 7.21867 8.11867 7.15152 8.45004 7.40004L11.25 9.50004C11.6945 9.83338 12.3056 9.83338 12.75 9.50004L15.55 7.40004C15.8814 7.15152 16.3515 7.21867 16.6 7.55004C16.8486 7.88141 16.7814 8.35152 16.45 8.60004L13.65 10.7C12.6723 11.4334 11.3278 11.4334 10.35 10.7L7.55004 8.60004C7.21867 8.35152 7.15152 7.88141 7.40004 7.55004ZM8.45004 12.4C8.11867 12.1515 7.64857 12.2187 7.40004 12.55C7.15152 12.8814 7.21867 13.3515 7.55004 13.6L10.35 15.7C11.3278 16.4334 12.6723 16.4334 13.65 15.7L16.45 13.6C16.7814 13.3515 16.8486 12.8814 16.6 12.55C16.3515 12.2187 15.8814 12.1515 15.55 12.4L12.75 14.5C12.3056 14.8334 11.6945 14.8334 11.25 14.5L8.45004 12.4Z" fill="#28303F"/>
</svg>
