<svg width="24" height="24" viewBox="0 0 24 24" fill="none" xmlns="http://www.w3.org/2000/svg">
<path fill-rule="evenodd" clip-rule="evenodd" d="M6 2H18C20.2091 2 22 3.79086 22 6V18C22 20.2091 20.2091 22 18 22H6C3.79086 22 2 20.2091 2 18V6C2 3.79086 3.79086 2 6 2ZM8.55004 16.6C8.21867 16.3514 8.15152 15.8813 8.40004 15.55L10.5 12.75C10.8334 12.3055 10.8334 11.6944 10.5 11.25L8.40004 8.44996C8.15152 8.11859 8.21867 7.64848 8.55004 7.39996C8.88142 7.15143 9.35152 7.21859 9.60004 7.54996L11.7 10.35C12.4334 11.3277 12.4334 12.6722 11.7 13.65L9.60004 16.45C9.35152 16.7813 8.88141 16.8485 8.55004 16.6ZM13.4 15.55C13.1515 15.8813 13.2187 16.3514 13.55 16.6C13.8814 16.8485 14.3515 16.7813 14.6 16.45L16.7 13.65C17.4334 12.6722 17.4334 11.3277 16.7 10.35L14.6 7.54996C14.3515 7.21859 13.8814 7.15143 13.55 7.39996C13.2187 7.64848 13.1515 8.11859 13.4 8.44996L15.5 11.25C15.8334 11.6944 15.8334 12.3055 15.5 12.75L13.4 15.55Z" fill="#28303F"/>
</svg>
