<svg width="24" height="24" viewBox="0 0 24 24" fill="none" xmlns="http://www.w3.org/2000/svg">
<path fill-rule="evenodd" clip-rule="evenodd" d="M22 12C22 17.5228 17.5228 22 12 22C6.47715 22 2 17.5228 2 12C2 6.47715 6.47715 2 12 2C17.5228 2 22 6.47715 22 12ZM15.45 7.40004C15.7813 7.64857 15.8485 8.11867 15.6 8.45004L13.5 11.25C13.1666 11.6945 13.1666 12.3056 13.5 12.75L15.6 15.55C15.8485 15.8814 15.7813 16.3515 15.45 16.6C15.1186 16.8486 14.6485 16.7814 14.4 16.45L12.3 13.65C11.5666 12.6723 11.5666 11.3278 12.3 10.35L14.4 7.55004C14.6485 7.21867 15.1186 7.15152 15.45 7.40004ZM10.6 8.45004C10.8485 8.11867 10.7813 7.64857 10.45 7.40004C10.1186 7.15152 9.64848 7.21867 9.39996 7.55004L7.29996 10.35C6.56662 11.3278 6.56662 12.6723 7.29996 13.65L9.39996 16.45C9.64848 16.7814 10.1186 16.8486 10.45 16.6C10.7813 16.3515 10.8485 15.8814 10.6 15.55L8.49996 12.75C8.16662 12.3056 8.16662 11.6945 8.49996 11.25L10.6 8.45004Z" fill="#28303F"/>
</svg>
