<svg width="24" height="24" viewBox="0 0 24 24" fill="none" xmlns="http://www.w3.org/2000/svg">
<path fill-rule="evenodd" clip-rule="evenodd" d="M6 2H18C20.2091 2 22 3.79086 22 6V18C22 20.2091 20.2091 22 18 22H6C3.79086 22 2 20.2091 2 18V6C2 3.79086 3.79086 2 6 2ZM16.45 7.40004C16.7813 7.64857 16.8485 8.11867 16.6 8.45004L14.5 11.25C14.1666 11.6945 14.1666 12.3056 14.5 12.75L16.6 15.55C16.8485 15.8814 16.7813 16.3515 16.45 16.6C16.1186 16.8486 15.6485 16.7814 15.4 16.45L13.3 13.65C12.5666 12.6723 12.5666 11.3278 13.3 10.35L15.4 7.55004C15.6485 7.21867 16.1186 7.15152 16.45 7.40004ZM11.6 8.45004C11.8485 8.11867 11.7813 7.64857 11.45 7.40004C11.1186 7.15152 10.6485 7.21867 10.4 7.55004L8.29996 10.35C7.56662 11.3278 7.56662 12.6723 8.29996 13.65L10.4 16.45C10.6485 16.7814 11.1186 16.8486 11.45 16.6C11.7813 16.3515 11.8485 15.8814 11.6 15.55L9.49996 12.75C9.16662 12.3056 9.16662 11.6945 9.49996 11.25L11.6 8.45004Z" fill="#28303F"/>
</svg>
