<svg width="24" height="24" viewBox="0 0 24 24" fill="none" xmlns="http://www.w3.org/2000/svg">
<path fill-rule="evenodd" clip-rule="evenodd" d="M7.46967 11.5303C7.17677 11.2374 7.17678 10.7626 7.46967 10.4697C7.76257 10.1768 8.23744 10.1768 8.53033 10.4697L11.25 13.1893L11.25 1C11.25 0.585786 11.5858 0.25 12 0.25C12.4142 0.25 12.75 0.585786 12.75 1V13.1894L15.4697 10.4697C15.7626 10.1768 16.2374 10.1768 16.5303 10.4697C16.8232 10.7626 16.8232 11.2374 16.5303 11.5303L12.5303 15.5303C12.3896 15.671 12.1989 15.75 12 15.75C11.801 15.75 11.6103 15.671 11.4696 15.5303L7.46967 11.5303ZM6.33981 8.46913C6.59889 8.14594 6.54692 7.67392 6.22373 7.41484C5.90054 7.15576 5.42852 7.20774 5.16944 7.53093C3.96871 9.02878 3.25 10.9315 3.25 13C3.25 17.8325 7.16751 21.75 12 21.75C16.8325 21.75 20.75 17.8325 20.75 13C20.75 10.9315 20.0313 9.02878 18.8306 7.53093C18.5715 7.20774 18.0995 7.15576 17.7763 7.41484C17.4531 7.67392 17.4011 8.14594 17.6602 8.46913C18.6553 9.71047 19.25 11.2848 19.25 13C19.25 17.0041 16.0041 20.25 12 20.25C7.99594 20.25 4.75 17.0041 4.75 13C4.75 11.2848 5.34472 9.71047 6.33981 8.46913Z" fill="#28303F"/>
</svg>
