<svg width="24" height="24" viewBox="0 0 24 24" fill="none" xmlns="http://www.w3.org/2000/svg">
<path fill-rule="evenodd" clip-rule="evenodd" d="M21 2.25H15C14.5858 2.25 14.25 2.58579 14.25 3C14.25 3.41421 14.5858 3.75 15 3.75L19.1893 3.75L9.46967 13.4697C9.17678 13.7626 9.17678 14.2374 9.46967 14.5303C9.76256 14.8232 10.2374 14.8232 10.5303 14.5303L20.25 4.81066L20.25 8.99999C20.25 9.41421 20.5858 9.74999 21 9.74999C21.4142 9.74999 21.75 9.41421 21.75 8.99999L21.75 3C21.75 2.58579 21.4142 2.25 21 2.25ZM7 4.25C4.37665 4.25 2.25 6.37665 2.25 9V17C2.25 19.6234 4.37665 21.75 7 21.75H15C17.6234 21.75 19.75 19.6234 19.75 17V12C19.75 11.5858 19.4142 11.25 19 11.25C18.5858 11.25 18.25 11.5858 18.25 12V17C18.25 18.7949 16.7949 20.25 15 20.25H7C5.20507 20.25 3.75 18.7949 3.75 17V9C3.75 7.20507 5.20507 5.75 7 5.75H12C12.4142 5.75 12.75 5.41421 12.75 5C12.75 4.58579 12.4142 4.25 12 4.25H7Z" fill="#28303F"/>
</svg>
