<svg width="24" height="24" viewBox="0 0 24 24" fill="none" xmlns="http://www.w3.org/2000/svg">
<path fill-rule="evenodd" clip-rule="evenodd" d="M5.25 6C5.25 3.37665 7.37665 1.25 10 1.25H18C20.6234 1.25 22.75 3.37665 22.75 6V14C22.75 16.6234 20.6234 18.75 18 18.75H12.6911C12.3315 21.017 10.3682 22.75 8 22.75H6C3.37665 22.75 1.25 20.6234 1.25 18V16C1.25 13.6318 2.98301 11.6685 5.25 11.3089V6ZM6.75 11.25H8C9.04101 11.25 10.0038 11.5849 10.7865 12.1528L15.1893 7.75H12C11.5858 7.75 11.25 7.41421 11.25 7C11.25 6.58579 11.5858 6.25 12 6.25H17C17.4142 6.25 17.75 6.58579 17.75 7V12C17.75 12.4142 17.4142 12.75 17 12.75C16.5858 12.75 16.25 12.4142 16.25 12V8.81066L11.8472 13.2135C12.4151 13.9962 12.75 14.959 12.75 16V17.25H18C19.7949 17.25 21.25 15.7949 21.25 14V6C21.25 4.20507 19.7949 2.75 18 2.75H10C8.20507 2.75 6.75 4.20507 6.75 6V11.25Z" fill="#28303F"/>
</svg>
