<svg width="24" height="24" viewBox="0 0 24 24" fill="none" xmlns="http://www.w3.org/2000/svg">
<path fill-rule="evenodd" clip-rule="evenodd" d="M15.25 3C15.25 3.41421 15.5858 3.75 16 3.75H19.1893L9.46967 13.4697C9.17678 13.7626 9.17678 14.2374 9.46967 14.5303C9.76256 14.8232 10.2374 14.8232 10.5303 14.5303L20.25 4.81066V8C20.25 8.41421 20.5858 8.75 21 8.75C21.4142 8.75 21.75 8.41421 21.75 8V3C21.75 2.58579 21.4142 2.25 21 2.25H16C15.5858 2.25 15.25 2.58579 15.25 3ZM3.75 13C3.75 8.99594 6.99594 5.75 11 5.75C11.4142 5.75 11.75 5.41421 11.75 5C11.75 4.58579 11.4142 4.25 11 4.25C6.16751 4.25 2.25 8.16751 2.25 13C2.25 17.8325 6.16751 21.75 11 21.75C15.8325 21.75 19.75 17.8325 19.75 13C19.75 12.5858 19.4142 12.25 19 12.25C18.5858 12.25 18.25 12.5858 18.25 13C18.25 17.0041 15.0041 20.25 11 20.25C6.99594 20.25 3.75 17.0041 3.75 13Z" fill="#28303F"/>
</svg>
