<svg width="24" height="24" viewBox="0 0 24 24" fill="none" xmlns="http://www.w3.org/2000/svg">
<path fill-rule="evenodd" clip-rule="evenodd" d="M21.5303 3.53033C21.8232 3.23744 21.8232 2.76256 21.5303 2.46967C21.2374 2.17678 20.7626 2.17678 20.4697 2.46967L10.75 12.1893L10.75 8C10.75 7.58579 10.4142 7.25 10 7.25C9.58579 7.25 9.25 7.58579 9.25 8L9.25001 14C9.25001 14.4142 9.58579 14.75 10 14.75H16C16.4142 14.75 16.75 14.4142 16.75 14C16.75 13.5858 16.4142 13.25 16 13.25H11.8107L21.5303 3.53033ZM7 4.25C4.37665 4.25 2.25 6.37665 2.25 9V17C2.25 19.6234 4.37665 21.75 7 21.75H15C17.6234 21.75 19.75 19.6234 19.75 17V12C19.75 11.5858 19.4142 11.25 19 11.25C18.5858 11.25 18.25 11.5858 18.25 12V17C18.25 18.7949 16.7949 20.25 15 20.25H7C5.20507 20.25 3.75 18.7949 3.75 17V9C3.75 7.20507 5.20507 5.75 7 5.75H12C12.4142 5.75 12.75 5.41421 12.75 5C12.75 4.58579 12.4142 4.25 12 4.25H7Z" fill="#28303F"/>
</svg>
