<svg width="24" height="24" viewBox="0 0 24 24" fill="none" xmlns="http://www.w3.org/2000/svg">
<path fill-rule="evenodd" clip-rule="evenodd" d="M11.3089 5.25C11.6685 2.98301 13.6318 1.25 16 1.25H18C20.6234 1.25 22.75 3.37665 22.75 6V8C22.75 10.3682 21.017 12.3315 18.75 12.6911V18C18.75 20.6234 16.6234 22.75 14 22.75H6C3.37665 22.75 1.25 20.6234 1.25 18V10C1.25 7.37665 3.37665 5.25 6 5.25L11.3089 5.25ZM11.25 6.75L6 6.75C4.20507 6.75 2.75 8.20507 2.75 10V18C2.75 19.7949 4.20507 21.25 6 21.25H14C15.7949 21.25 17.25 19.7949 17.25 18V12.75H16C14.959 12.75 13.9962 12.4151 13.2135 11.8472L8.81066 16.25L12 16.25C12.4142 16.25 12.75 16.5858 12.75 17C12.75 17.4142 12.4142 17.75 12 17.75H7C6.58579 17.75 6.25 17.4142 6.25 17L6.25 12C6.25 11.5858 6.58579 11.25 7 11.25C7.41421 11.25 7.75 11.5858 7.75 12L7.75 15.1893L12.1528 10.7865C11.5849 10.0038 11.25 9.04101 11.25 8V6.75Z" fill="#28303F"/>
</svg>
