<svg width="24" height="24" viewBox="0 0 24 24" fill="none" xmlns="http://www.w3.org/2000/svg">
<path fill-rule="evenodd" clip-rule="evenodd" d="M15.75 14C15.75 13.5858 15.4142 13.25 15 13.25H11.8107L21.5303 3.53033C21.8232 3.23744 21.8232 2.76256 21.5303 2.46967C21.2374 2.17678 20.7626 2.17678 20.4697 2.46967L10.75 12.1893V9C10.75 8.58579 10.4142 8.25 10 8.25C9.58579 8.25 9.25 8.58579 9.25 9V14C9.25 14.4142 9.58579 14.75 10 14.75H15C15.4142 14.75 15.75 14.4142 15.75 14ZM3.75 13C3.75 8.99594 6.99594 5.75 11 5.75C11.4142 5.75 11.75 5.41421 11.75 5C11.75 4.58579 11.4142 4.25 11 4.25C6.16751 4.25 2.25 8.16751 2.25 13C2.25 17.8325 6.16751 21.75 11 21.75C15.8325 21.75 19.75 17.8325 19.75 13C19.75 12.5858 19.4142 12.25 19 12.25C18.5858 12.25 18.25 12.5858 18.25 13C18.25 17.0041 15.0041 20.25 11 20.25C6.99594 20.25 3.75 17.0041 3.75 13Z" fill="#28303F"/>
</svg>
