<svg width="24" height="24" viewBox="0 0 24 24" fill="none" xmlns="http://www.w3.org/2000/svg">
<path fill-rule="evenodd" clip-rule="evenodd" d="M18.5303 7.46967C18.2374 7.17678 17.7626 7.17678 17.4697 7.46967C17.1768 7.76257 17.1768 8.23744 17.4697 8.53033L20.1893 11.25L8 11.25C7.58578 11.25 7.25 11.5857 7.25 12C7.25 12.4142 7.58578 12.75 8 12.75L20.1893 12.75L17.4697 15.4697C17.1768 15.7626 17.1768 16.2374 17.4697 16.5303C17.7626 16.8232 18.2374 16.8232 18.5303 16.5303L22.5303 12.5303C22.671 12.3896 22.75 12.1989 22.75 12C22.75 11.801 22.671 11.6103 22.5303 11.4696L18.5303 7.46967ZM14.5309 6.33981C14.8541 6.59889 15.3261 6.54692 15.5852 6.22373C15.8442 5.90054 15.7923 5.42852 15.4691 5.16944C13.9712 3.96871 12.0685 3.25 9.99998 3.25C5.16748 3.25 1.24998 7.16751 1.24998 12C1.24998 16.8325 5.16748 20.75 9.99998 20.75C12.0685 20.75 13.9712 20.0313 15.4691 18.8306C15.7923 18.5715 15.8442 18.0995 15.5852 17.7763C15.3261 17.4531 14.8541 17.4011 14.5309 17.6602C13.2895 18.6553 11.7152 19.25 9.99998 19.25C5.99591 19.25 2.74998 16.0041 2.74998 12C2.74998 7.99593 5.99591 4.75 9.99998 4.75C11.7152 4.75 13.2895 5.34472 14.5309 6.33981Z" fill="#28303F"/>
</svg>
