<svg width="24" height="24" viewBox="0 0 24 24" fill="none" xmlns="http://www.w3.org/2000/svg">
<path fill-rule="evenodd" clip-rule="evenodd" d="M7 2.25C4.37665 2.25 2.25 4.37665 2.25 7V17C2.25 19.6234 4.37665 21.75 7 21.75H11C13.6234 21.75 15.75 19.6234 15.75 17V16.5C15.75 16.0858 15.4142 15.75 15 15.75C14.5858 15.75 14.25 16.0858 14.25 16.5V17C14.25 18.7949 12.7949 20.25 11 20.25H7C5.20507 20.25 3.75 18.7949 3.75 17V7C3.75 5.20507 5.20507 3.75 7 3.75H11C12.7949 3.75 14.25 5.20507 14.25 7V7.5C14.25 7.91421 14.5858 8.25 15 8.25C15.4142 8.25 15.75 7.91421 15.75 7.5V7C15.75 4.37665 13.6234 2.25 11 2.25H7ZM18.5303 8.46967C18.2374 8.17678 17.7626 8.17678 17.4697 8.46967C17.1768 8.76256 17.1768 9.23744 17.4697 9.53033L19.1893 11.25H9C8.58579 11.25 8.25 11.5858 8.25 12C8.25 12.4142 8.58579 12.75 9 12.75H19.1893L17.4697 14.4697C17.1768 14.7626 17.1768 15.2374 17.4697 15.5303C17.7626 15.8232 18.2374 15.8232 18.5303 15.5303L21.5303 12.5303C21.8232 12.2374 21.8232 11.7626 21.5303 11.4697L18.5303 8.46967Z" fill="#28303F"/>
</svg>
