<svg width="24" height="24" viewBox="0 0 24 24" fill="none" xmlns="http://www.w3.org/2000/svg">
<path fill-rule="evenodd" clip-rule="evenodd" d="M7 3H17C19.2091 3 21 4.79086 21 7V17C21 19.2091 19.2091 21 17 21H7C4.79086 21 3 19.2091 3 17V7C3 4.79086 4.79086 3 7 3ZM16.2149 7.5C16.2149 7.08579 15.8791 6.75 15.4649 6.75C15.0507 6.75 14.7149 7.08579 14.7149 7.5V8.10195C13.9457 7.56522 13.0098 7.25 12 7.25C9.37665 7.25 7.25 9.37665 7.25 12C7.25 14.6234 9.37665 16.75 12 16.75C14.2143 16.75 16.0731 15.2355 16.6003 13.1869C16.7036 12.7858 16.4621 12.3769 16.0609 12.2737C15.6598 12.1704 15.2509 12.4119 15.1477 12.8131C14.7868 14.215 13.5133 15.25 12 15.25C10.2051 15.25 8.75 13.7949 8.75 12C8.75 10.2051 10.2051 8.75 12 8.75C12.8231 8.75 13.5752 9.05579 14.1483 9.56112L13.315 9.77316C12.9136 9.87531 12.671 10.2835 12.7732 10.685C12.8753 11.0864 13.2835 11.329 13.685 11.2268L15.6498 10.7268C15.9822 10.6423 16.2149 10.343 16.2149 10V7.5Z" fill="#28303F"/>
</svg>
