<svg width="24" height="24" viewBox="0 0 24 24" fill="none" xmlns="http://www.w3.org/2000/svg">
<path fill-rule="evenodd" clip-rule="evenodd" d="M12 22C17.5228 22 22 17.5228 22 12C22 6.47715 17.5228 2 12 2C6.47715 2 2 6.47715 2 12C2 17.5228 6.47715 22 12 22ZM14.4828 5.72319C14.3299 5.33821 13.8939 5.15004 13.5089 5.30289C13.124 5.45575 12.9358 5.89175 13.0886 6.27672L13.2624 6.71433C12.8556 6.62848 12.4331 6.58329 12 6.58329C8.87394 6.58329 6.25 8.96052 6.25 12C6.25 12.4851 6.31789 12.9563 6.44544 13.405C6.55871 13.8035 6.97351 14.0346 7.37194 13.9214C7.77037 13.8081 8.00154 13.3933 7.88827 12.9949C7.79812 12.6778 7.75 12.3445 7.75 12C7.75 9.88474 9.60321 8.08329 12 8.08329C12.814 8.08329 13.5704 8.2937 14.2125 8.6555C14.4894 8.81154 14.8345 8.7761 15.074 8.56705C15.3134 8.358 15.395 8.02074 15.2777 7.72534L14.4828 5.72319ZM17.5546 10.5949C17.4413 10.1964 17.0265 9.96528 16.6281 10.0785C16.2296 10.1918 15.9985 10.6066 16.1117 11.005C16.2019 11.3222 16.25 11.6554 16.25 12C16.25 14.1152 14.3968 15.9166 12 15.9166C11.186 15.9166 10.4296 15.7062 9.78752 15.3444C9.51062 15.1884 9.16543 15.2238 8.92602 15.4329C8.6866 15.6419 8.60496 15.9792 8.72225 16.2746L9.51722 18.2767C9.67008 18.6617 10.1061 18.8499 10.4911 18.697C10.876 18.5442 11.0642 18.1082 10.9113 17.7232L10.7376 17.2856C11.1444 17.3714 11.5669 17.4166 12 17.4166C15.1261 17.4166 17.75 15.0394 17.75 12C17.75 11.5148 17.6821 11.0436 17.5546 10.5949Z" fill="#28303F"/>
</svg>
