<svg width="24" height="24" viewBox="0 0 24 24" fill="none" xmlns="http://www.w3.org/2000/svg">
<path fill-rule="evenodd" clip-rule="evenodd" d="M12 3.75C16.5563 3.75 20.25 7.44365 20.25 12C20.25 16.5563 16.5563 20.25 12 20.25C7.44365 20.25 3.75 16.5563 3.75 12C3.75 11.5858 3.41421 11.25 3 11.25C2.58579 11.25 2.25 11.5858 2.25 12C2.25 17.3848 6.61522 21.75 12 21.75C17.3848 21.75 21.75 17.3848 21.75 12C21.75 6.61522 17.3848 2.25 12 2.25C9.22897 2.25 6.72851 3.40622 4.95404 5.26091V3C4.95404 2.58579 4.61825 2.25 4.20404 2.25C3.78983 2.25 3.45404 2.58579 3.45404 3V7.5C3.45404 7.91421 3.78983 8.25 4.20404 8.25H8.625C9.03921 8.25 9.375 7.91421 9.375 7.5C9.375 7.08579 9.03921 6.75 8.625 6.75H5.63563C7.14953 4.91682 9.43881 3.75 12 3.75Z" fill="#28303F"/>
</svg>
