<svg width="24" height="24" viewBox="0 0 24 24" fill="none" xmlns="http://www.w3.org/2000/svg">
<path fill-rule="evenodd" clip-rule="evenodd" d="M7.46967 5.46967C7.17677 5.76257 7.17678 6.23744 7.46967 6.53033C7.76257 6.82323 8.23744 6.82322 8.53033 6.53033L11.25 3.81067L11.25 16C11.25 16.4142 11.5858 16.75 12 16.75C12.4142 16.75 12.75 16.4142 12.75 16V3.81065L15.4697 6.53033C15.7626 6.82323 16.2374 6.82322 16.5303 6.53033C16.8232 6.23743 16.8232 5.76256 16.5303 5.46967L12.5303 1.46967C12.3896 1.32902 12.1989 1.25 12 1.25C11.801 1.25 11.6103 1.32902 11.4696 1.46967L7.46967 5.46967ZM6.33981 9.46913C6.59889 9.14594 6.54692 8.67392 6.22373 8.41484C5.90054 8.15577 5.42852 8.20774 5.16944 8.53093C3.96871 10.0288 3.25 11.9315 3.25 14C3.25 18.8325 7.16751 22.75 12 22.75C16.8325 22.75 20.75 18.8325 20.75 14C20.75 11.9315 20.0313 10.0288 18.8306 8.53093C18.5715 8.20774 18.0995 8.15577 17.7763 8.41484C17.4531 8.67392 17.4011 9.14594 17.6602 9.46913C18.6553 10.7105 19.25 12.2848 19.25 14C19.25 18.0041 16.0041 21.25 12 21.25C7.99594 21.25 4.75 18.0041 4.75 14C4.75 12.2848 5.34472 10.7105 6.33981 9.46913Z" fill="#28303F"/>
</svg>
