<svg width="24" height="24" viewBox="0 0 24 24" fill="none" xmlns="http://www.w3.org/2000/svg">
<path fill-rule="evenodd" clip-rule="evenodd" d="M12 21C16.9706 21 21 16.9706 21 12C21 7.02944 16.9706 3 12 3C7.02944 3 3 7.02944 3 12C3 16.9706 7.02944 21 12 21ZM12.25 8C12.25 8.41421 12.5858 8.75 13 8.75H14.1893L8.75 14.1893V13C8.75 12.5858 8.41421 12.25 8 12.25C7.58579 12.25 7.25 12.5858 7.25 13V16C7.25 16.4142 7.58579 16.75 8 16.75H11C11.4142 16.75 11.75 16.4142 11.75 16C11.75 15.5858 11.4142 15.25 11 15.25H9.81066L15.25 9.81066V11C15.25 11.4142 15.5858 11.75 16 11.75C16.4142 11.75 16.75 11.4142 16.75 11V8C16.75 7.58579 16.4142 7.25 16 7.25H13C12.5858 7.25 12.25 7.58579 12.25 8Z" fill="#28303F"/>
</svg>
