<svg width="24" height="24" viewBox="0 0 24 24" fill="none" xmlns="http://www.w3.org/2000/svg">
<path opacity="0.4" d="M2 6C2 3.79086 3.79086 2 6 2H18C20.2091 2 22 3.79086 22 6V18C22 20.2091 20.2091 22 18 22H6C3.79086 22 2 20.2091 2 18V6Z" fill="#28303F"/>
<path fill-rule="evenodd" clip-rule="evenodd" d="M10.017 7.25019C10.3072 7.25679 10.5675 7.43019 10.6854 7.6954L13.9636 15.0715L15.3036 11.7215C15.4175 11.4367 15.6933 11.25 16 11.25H18C18.4142 11.25 18.75 11.5858 18.75 12C18.75 12.4142 18.4142 12.75 18 12.75H16.5078L14.6964 17.2785C14.5844 17.5585 14.3156 17.7442 14.0141 17.7499C13.7127 17.7556 13.4371 17.5801 13.3146 17.3046L9.96009 9.75687L8.67082 12.3354C8.54378 12.5895 8.28408 12.75 8 12.75H6C5.58579 12.75 5.25 12.4142 5.25 12C5.25 11.5858 5.58579 11.25 6 11.25H7.53647L9.32918 7.66459C9.45897 7.40501 9.72688 7.2436 10.017 7.25019Z" fill="#28303F"/>
</svg>
