<svg width="24" height="24" viewBox="0 0 24 24" fill="none" xmlns="http://www.w3.org/2000/svg">
<path d="M14 19V7H17.2091C17.7172 7 18.2063 7.1934 18.577 7.54093L21.3679 10.1574C21.7712 10.5355 22 11.0636 22 11.6165V17C22 18.1046 21.1046 19 20 19C20 17.8954 19.1046 17 18 17C16.8954 17 16 17.8954 16 19H14Z" fill="#28303F"/>
<path opacity="0.4" d="M20 19C20 20.1046 19.1046 21 18 21C16.8954 21 16 20.1046 16 19C16 17.8954 16.8954 17 18 17C19.1046 17 20 17.8954 20 19Z" fill="#28303F"/>
<path d="M9 19C9 20.1046 8.10457 21 7 21C5.89543 21 5 20.1046 5 19C5 18.958 5.00129 18.9163 5.00384 18.875C5.06838 17.8286 5.93742 17 7 17C8.10457 17 9 17.8954 9 19Z" fill="#28303F"/>
<path opacity="0.4" fill-rule="evenodd" clip-rule="evenodd" d="M6 3H10C12.2091 3 14 4.79086 14 7V19H9C9 17.8954 8.10457 17 7 17C5.93742 17 5.06838 17.8286 5.00384 18.875C3.27667 18.4323 2 16.8652 2 15V7C2 4.79086 3.79086 3 6 3ZM6.75 8C6.75 7.58579 6.41421 7.25 6 7.25C5.58579 7.25 5.25 7.58579 5.25 8V12C5.25 12.4142 5.58579 12.75 6 12.75C6.41421 12.75 6.75 12.4142 6.75 12V10.75H9.25V12C9.25 12.4142 9.58579 12.75 10 12.75C10.4142 12.75 10.75 12.4142 10.75 12V8C10.75 7.58579 10.4142 7.25 10 7.25C9.58579 7.25 9.25 7.58579 9.25 8V9.25H6.75V8Z" fill="#28303F"/>
</svg>
