<svg width="24" height="24" viewBox="0 0 24 24" fill="none" xmlns="http://www.w3.org/2000/svg">
<path opacity="0.4" d="M4 14.1111C4 9.46242 8.62926 4.87802 10.8449 2.9501C11.5154 2.3666 12.4846 2.3666 13.1551 2.9501C15.3707 4.87802 20 9.46242 20 14.1111C20 18 16.9706 22 12 22C7.02944 22 4 18 4 14.1111Z" fill="#28303F"/>
<path fill-rule="evenodd" clip-rule="evenodd" d="M12.2642 19.049C12.185 18.6425 12.4504 18.2487 12.8569 18.1695C14.6037 17.8292 15.7911 16.4345 16.1437 14.8385C16.2331 14.434 16.6334 14.1786 17.0378 14.2679C17.4423 14.3573 17.6978 14.7576 17.6084 15.162C17.1487 17.243 15.5697 19.1692 13.1437 19.6418C12.7372 19.721 12.3434 19.4556 12.2642 19.049Z" fill="#28303F"/>
</svg>
