<svg width="24" height="24" viewBox="0 0 24 24" fill="none" xmlns="http://www.w3.org/2000/svg">
<path opacity="0.4" d="M4 14.1111C4 9.46242 8.62926 4.87802 10.8449 2.9501C11.5154 2.3666 12.4846 2.3666 13.1551 2.9501C15.3707 4.87802 20 9.46242 20 14.1111C20 18 16.9706 22 12 22C7.02944 22 4 18 4 14.1111Z" fill="#28303F"/>
<path fill-rule="evenodd" clip-rule="evenodd" d="M12 10.25C12.4142 10.25 12.75 10.5858 12.75 11V13.25H15C15.4142 13.25 15.75 13.5858 15.75 14C15.75 14.4142 15.4142 14.75 15 14.75H12.75V17C12.75 17.4142 12.4142 17.75 12 17.75C11.5858 17.75 11.25 17.4142 11.25 17V14.75H9C8.58579 14.75 8.25 14.4142 8.25 14C8.25 13.5858 8.58579 13.25 9 13.25H11.25V11C11.25 10.5858 11.5858 10.25 12 10.25Z" fill="#28303F"/>
</svg>
