<svg width="24" height="24" viewBox="0 0 24 24" fill="none" xmlns="http://www.w3.org/2000/svg">
<path fill-rule="evenodd" clip-rule="evenodd" d="M17 12C19.7614 12 22 9.76142 22 7C22 4.23858 19.7614 2 17 2C14.2386 2 12 4.23858 12 7C12 9.76142 14.2386 12 17 12ZM15.75 5C15.75 4.58579 15.4142 4.25 15 4.25C14.5858 4.25 14.25 4.58579 14.25 5V9C14.25 9.41421 14.5858 9.75 15 9.75C15.4142 9.75 15.75 9.41421 15.75 9V7.75H18.25V9C18.25 9.41421 18.5858 9.75 19 9.75C19.4142 9.75 19.75 9.41421 19.75 9V5C19.75 4.58579 19.4142 4.25 19 4.25C18.5858 4.25 18.25 4.58579 18.25 5V6.25H15.75V5Z" fill="#28303F"/>
<path opacity="0.4" d="M18 20.2222V18.9096C18 18.0918 17.5021 17.3564 16.7428 17.0527L15.2642 16.4612C14.2984 16.0749 13.1977 16.4934 12.7326 17.4238L12.6667 17.5556C12.6667 17.5556 10.4444 17.1111 8.66667 15.3333C6.88889 13.5556 6.44444 11.3333 6.44444 11.3333L6.57624 11.2674C7.5066 10.8023 7.92508 9.70158 7.53876 8.7358L6.94733 7.25722C6.6436 6.4979 5.90819 6 5.09038 6H3.77778C2.79594 6 2 6.79594 2 7.77778C2 15.6325 8.36751 22 16.2222 22C17.2041 22 18 21.2041 18 20.2222Z" fill="#28303F"/>
</svg>
