<svg width="24" height="24" viewBox="0 0 24 24" fill="none" xmlns="http://www.w3.org/2000/svg">
<path opacity="0.4" d="M10.5583 4.79151C12.947 2.40283 16.8198 2.40283 19.2085 4.79151C21.5972 7.18019 21.5972 11.053 19.2085 13.4417L13.4417 19.2085C11.053 21.5972 7.18019 21.5972 4.79151 19.2085C2.40283 16.8198 2.40283 12.947 4.79151 10.5583L10.5583 4.79151Z" fill="#28303F"/>
<path fill-rule="evenodd" clip-rule="evenodd" d="M16.4194 6.52008C16.7123 6.22718 17.1871 6.22718 17.48 6.52008C18.9445 7.98454 18.9445 10.3589 17.48 11.8234C17.1871 12.1163 16.7123 12.1163 16.4194 11.8234C16.1265 11.5305 16.1265 11.0556 16.4194 10.7627C17.2981 9.88404 17.2981 8.45942 16.4194 7.58074C16.1265 7.28784 16.1265 6.81297 16.4194 6.52008Z" fill="#28303F"/>
<path d="M4.79151 10.5582C2.40283 12.9469 2.40283 16.8197 4.79151 19.2084C7.18019 21.5971 11.053 21.5971 13.4417 19.2084L16.3251 16.325L7.67491 7.6748L4.79151 10.5582Z" fill="#28303F"/>
</svg>
