<svg width="24" height="24" viewBox="0 0 24 24" fill="none" xmlns="http://www.w3.org/2000/svg">
<path opacity="0.4" d="M12.765 4.70229L12 5.52422L11.235 4.70229C9.12233 2.43257 5.69709 2.43257 3.58447 4.70229C1.47184 6.972 1.47184 10.6519 3.58447 12.9217L10.4699 20.3191C11.3149 21.227 12.685 21.227 13.5301 20.3191L20.4155 12.9217C22.5282 10.6519 22.5282 6.972 20.4155 4.70229C18.3029 2.43257 14.8777 2.43257 12.765 4.70229Z" fill="#28303F"/>
<path fill-rule="evenodd" clip-rule="evenodd" d="M10 8.25C10.2508 8.25 10.4849 8.37533 10.624 8.58397L14 13.6479L15.376 11.584C15.5151 11.3753 15.7492 11.25 16 11.25H21C21.4142 11.25 21.75 11.5858 21.75 12C21.75 12.4142 21.4142 12.75 21 12.75H16.4014L14.624 15.416C14.4849 15.6247 14.2508 15.75 14 15.75C13.7492 15.75 13.5151 15.6247 13.376 15.416L10 10.3521L8.62404 12.416C8.48494 12.6247 8.25076 12.75 8 12.75H3C2.58579 12.75 2.25 12.4142 2.25 12C2.25 11.5858 2.58579 11.25 3 11.25H7.59861L9.37596 8.58397C9.51506 8.37533 9.74924 8.25 10 8.25Z" fill="#28303F"/>
</svg>
