<svg width="24" height="24" viewBox="0 0 24 24" fill="none" xmlns="http://www.w3.org/2000/svg">
<path opacity="0.4" d="M21 18V8C21 5.79086 19.2091 4 17 4H8H7C4.79086 4 3 5.79086 3 8V18C3 20.2091 4.79086 22 7 22H17C19.2091 22 21 20.2091 21 18Z" fill="#28303F"/>
<path d="M8 4C8 2.89543 8.89543 2 10 2H14C15.1046 2 16 2.89543 16 4C16 5.10457 15.1046 6 14 6H10C8.89543 6 8 5.10457 8 4Z" fill="#28303F"/>
<path fill-rule="evenodd" clip-rule="evenodd" d="M11.1201 10.2597C11.3581 10.2983 11.563 10.449 11.6708 10.6646L13.2055 13.7339L14.4697 12.4697C14.6103 12.329 14.8011 12.25 15 12.25H17C17.4142 12.25 17.75 12.5858 17.75 13C17.75 13.4142 17.4142 13.75 17 13.75H15.3107L13.5303 15.5303C13.3599 15.7008 13.1178 15.7789 12.8799 15.7403C12.6419 15.7017 12.437 15.5511 12.3292 15.3354L10.7945 12.2661L9.53033 13.5303C9.38968 13.671 9.19891 13.75 9 13.75H7C6.58579 13.75 6.25 13.4142 6.25 13C6.25 12.5858 6.58579 12.25 7 12.25H8.68934L10.4697 10.4697C10.6401 10.2992 10.8822 10.2211 11.1201 10.2597Z" fill="#28303F"/>
</svg>
