<svg width="24" height="24" viewBox="0 0 24 24" fill="none" xmlns="http://www.w3.org/2000/svg">
<path d="M16.6068 3.41421L14.4855 5.53553L17.3139 8.36396L19.4352 6.24264C20.2163 5.46159 20.2163 4.19526 19.4352 3.41421C18.6542 2.63317 17.3878 2.63316 16.6068 3.41421Z" fill="#28303F"/>
<path opacity="0.4" d="M8.58579 11.4347L14.4853 5.53523L17.3137 8.36365L11.4142 14.2631C10.6641 15.0133 9.64665 15.4347 8.58579 15.4347H7.41421V14.2631C7.41421 13.2023 7.83564 12.1849 8.58579 11.4347Z" fill="#28303F"/>
<path fill-rule="evenodd" clip-rule="evenodd" d="M17.1978 9.30839L13.541 5.65154C13.2481 5.35864 13.2481 4.88377 13.541 4.59088C13.8339 4.29798 14.3087 4.29798 14.6016 4.59088L18.2585 8.24773C18.5514 8.54062 18.5514 9.0155 18.2585 9.30839C17.9656 9.60129 17.4907 9.60129 17.1978 9.30839Z" fill="#28303F"/>
<path d="M7.73729 20.1315C7.73729 21.5075 6.90067 22.0001 5.86865 22.0001C4.83662 22.0001 4 21.5075 4 20.1315C4 18.7555 5.86865 17.0171 5.86865 17.0171C5.86865 17.0171 7.73729 18.7555 7.73729 20.1315Z" fill="#28303F"/>
</svg>
