<svg width="24" height="24" viewBox="0 0 24 24" fill="none" xmlns="http://www.w3.org/2000/svg">
<path opacity="0.4" d="M19.1018 10.0865C20.2994 11.1101 20.2994 12.8899 19.1018 13.9135C17.4507 15.3246 14.8834 17 12 17C9.11664 17 6.54929 15.3246 4.89825 13.9135C3.70059 12.8899 3.70058 11.1101 4.89824 10.0865C6.54929 8.67537 9.11664 7 12 7C14.8834 7 17.4507 8.67537 19.1018 10.0865Z" fill="#28303F"/>
<path d="M14 12C14 13.1046 13.1046 14 12 14C10.8954 14 10 13.1046 10 12C10 10.8954 10.8954 10 12 10C13.1046 10 14 10.8954 14 12Z" fill="#28303F"/>
<path fill-rule="evenodd" clip-rule="evenodd" d="M12 1.25C12.4142 1.25 12.75 1.58579 12.75 2V4C12.75 4.41421 12.4142 4.75 12 4.75C11.5858 4.75 11.25 4.41421 11.25 4V2C11.25 1.58579 11.5858 1.25 12 1.25ZM2.46967 4.46967C2.76256 4.17678 3.23744 4.17678 3.53033 4.46967L5.03033 5.96967C5.32322 6.26256 5.32322 6.73744 5.03033 7.03033C4.73744 7.32322 4.26256 7.32322 3.96967 7.03033L2.46967 5.53033C2.17678 5.23744 2.17678 4.76256 2.46967 4.46967ZM21.5303 4.46967C21.8232 4.76256 21.8232 5.23744 21.5303 5.53033L20.0303 7.03033C19.7374 7.32322 19.2626 7.32322 18.9697 7.03033C18.6768 6.73744 18.6768 6.26256 18.9697 5.96967L20.4697 4.46967C20.7626 4.17678 21.2374 4.17678 21.5303 4.46967ZM5.03033 16.9697C5.32322 17.2626 5.32322 17.7374 5.03033 18.0303L3.53033 19.5303C3.23744 19.8232 2.76256 19.8232 2.46967 19.5303C2.17678 19.2374 2.17678 18.7626 2.46967 18.4697L3.96967 16.9697C4.26256 16.6768 4.73744 16.6768 5.03033 16.9697ZM18.9697 16.9697C19.2626 16.6768 19.7374 16.6768 20.0303 16.9697L21.5303 18.4697C21.8232 18.7626 21.8232 19.2374 21.5303 19.5303C21.2374 19.8232 20.7626 19.8232 20.4697 19.5303L18.9697 18.0303C18.6768 17.7374 18.6768 17.2626 18.9697 16.9697ZM12 19.25C12.4142 19.25 12.75 19.5858 12.75 20V22C12.75 22.4142 12.4142 22.75 12 22.75C11.5858 22.75 11.25 22.4142 11.25 22V20C11.25 19.5858 11.5858 19.25 12 19.25Z" fill="#28303F"/>
</svg>
