<svg width="24" height="24" viewBox="0 0 24 24" fill="none" xmlns="http://www.w3.org/2000/svg">
<path opacity="0.4" d="M16 5C16 3.34315 17.3431 2 19 2C20.6569 2 22 3.34315 22 5V11C22 12.6569 20.6569 14 19 14C17.3431 14 16 12.6569 16 11V5Z" fill="#28303F"/>
<path d="M16 8H22V11C22 12.6569 20.6569 14 19 14C17.3431 14 16 12.6569 16 11V8Z" fill="#28303F"/>
<path opacity="0.4" d="M4 10H2V19L6.31083 21.1554C7.42168 21.7108 8.64658 22 9.88854 22H18C19.1046 22 20 21.1046 20 20C20 18.8954 19.1046 18 18 18H16.4164C15.4849 18 14.5663 17.7831 13.7331 17.3666L11.0191 15.646C11.1111 15.5245 11.19 15.3899 11.2528 15.2434C11.6664 14.2784 11.2241 13.1605 10.2622 12.7397L4 10Z" fill="#28303F"/>
</svg>
