<svg width="24" height="24" viewBox="0 0 24 24" fill="none" xmlns="http://www.w3.org/2000/svg">
<path d="M16.459 2.94572L16 3.40235L15.541 2.94572C14.2734 1.68476 12.2183 1.68476 10.9507 2.94571C9.68311 4.20667 9.68311 6.25108 10.9507 7.51203L15.0819 11.6217C15.589 12.1261 16.411 12.1261 16.9181 11.6217L21.0493 7.51203C22.3169 6.25108 22.3169 4.20667 21.0493 2.94572C19.7817 1.68476 17.7266 1.68476 16.459 2.94572Z" fill="#28303F"/>
<path opacity="0.4" d="M4 10H2V19L6.31083 21.1554C7.42168 21.7108 8.64658 22 9.88854 22H18C19.1046 22 20 21.1046 20 20C20 18.8954 19.1046 18 18 18H16.4164C15.4849 18 14.5663 17.7831 13.7331 17.3666L11.0191 15.646C11.1111 15.5245 11.19 15.3899 11.2528 15.2434C11.6664 14.2784 11.2241 13.1605 10.2622 12.7397L4 10Z" fill="#28303F"/>
</svg>
