<svg width="24" height="24" viewBox="0 0 24 24" fill="none" xmlns="http://www.w3.org/2000/svg">
<path opacity="0.4" d="M4 6V22H20V6C20 3.79086 18.2091 2 16 2H8C5.79086 2 4 3.79086 4 6Z" fill="#28303F"/>
<path d="M9 17V22H15V17C15 15.3431 13.6569 14 12 14C10.3431 14 9 15.3431 9 17Z" fill="#28303F"/>
<path fill-rule="evenodd" clip-rule="evenodd" d="M12 4.25C12.4142 4.25 12.75 4.58579 12.75 5V7.25H15C15.4142 7.25 15.75 7.58579 15.75 8C15.75 8.41421 15.4142 8.75 15 8.75H12.75V11C12.75 11.4142 12.4142 11.75 12 11.75C11.5858 11.75 11.25 11.4142 11.25 11V8.75H9C8.58579 8.75 8.25 8.41421 8.25 8C8.25 7.58579 8.58579 7.25 9 7.25H11.25V5C11.25 4.58579 11.5858 4.25 12 4.25Z" fill="#28303F"/>
<path fill-rule="evenodd" clip-rule="evenodd" d="M2.25 22C2.25 21.5858 2.58579 21.25 3 21.25H21C21.4142 21.25 21.75 21.5858 21.75 22C21.75 22.4142 21.4142 22.75 21 22.75H3C2.58579 22.75 2.25 22.4142 2.25 22Z" fill="#28303F"/>
</svg>
