<svg width="24" height="24" viewBox="0 0 24 24" fill="none" xmlns="http://www.w3.org/2000/svg">
<path opacity="0.4" d="M20.75 14H2V18H22.75V16C22.75 14.8954 21.8546 14 20.75 14Z" fill="#28303F"/>
<path opacity="0.4" d="M22 6.5C22 8.98528 19.9853 11 17.5 11C15.0147 11 13 8.98528 13 6.5C13 4.01472 15.0147 2 17.5 2C19.9853 2 22 4.01472 22 6.5Z" fill="#28303F"/>
<path fill-rule="evenodd" clip-rule="evenodd" d="M16 3.75C16.4142 3.75 16.75 4.08579 16.75 4.5V5.75L18.25 5.75V4.5C18.25 4.08579 18.5858 3.75 19 3.75C19.4142 3.75 19.75 4.08579 19.75 4.5V8.5C19.75 8.91421 19.4142 9.25 19 9.25C18.5858 9.25 18.25 8.91421 18.25 8.5V7.25L16.75 7.25V8.5C16.75 8.91421 16.4142 9.25 16 9.25C15.5858 9.25 15.25 8.91421 15.25 8.5V4.5C15.25 4.08579 15.5858 3.75 16 3.75Z" fill="#28303F"/>
<path fill-rule="evenodd" clip-rule="evenodd" d="M2 8.25C2.41421 8.25 2.75 8.58579 2.75 9V17.25H22C22.4142 17.25 22.75 17.5858 22.75 18V22C22.75 22.4142 22.4142 22.75 22 22.75C21.5858 22.75 21.25 22.4142 21.25 22V18.75H2.75V22C2.75 22.4142 2.41421 22.75 2 22.75C1.58579 22.75 1.25 22.4142 1.25 22V9C1.25 8.58579 1.58579 8.25 2 8.25Z" fill="#28303F"/>
<path d="M5 12V14H10V12C10 11.4477 9.55228 11 9 11H6C5.44772 11 5 11.4477 5 12Z" fill="#28303F"/>
</svg>
