<svg width="24" height="24" viewBox="0 0 24 24" fill="none" xmlns="http://www.w3.org/2000/svg">
<path opacity="0.4" fill-rule="evenodd" clip-rule="evenodd" d="M9.37105 14.9172C9.65709 15.2168 9.6461 15.6916 9.34651 15.9776L3.51791 21.5426C3.21832 21.8286 2.74358 21.8176 2.45754 21.518C2.1715 21.2185 2.18248 20.7437 2.48207 20.4577L8.31067 14.8927C8.61026 14.6067 9.08501 14.6176 9.37105 14.9172Z" fill="#28303F"/>
<path fill-rule="evenodd" clip-rule="evenodd" d="M17.9048 2.46967C18.1977 2.17678 18.6726 2.17678 18.9654 2.46967L20.3664 3.87058C20.3709 3.87494 20.3755 3.87938 20.38 3.88388C20.3845 3.88839 20.3889 3.89294 20.3933 3.89753L21.7939 5.2981C22.0868 5.59099 22.0868 6.06586 21.7939 6.35876C21.501 6.65165 21.0261 6.65165 20.7332 6.35876L19.8495 5.47504L17.5516 7.77297C17.2587 8.06587 16.7838 8.06587 16.4909 7.77297C16.198 7.48008 16.198 7.00521 16.4909 6.71231L18.7888 4.41438L17.9048 3.53033C17.6119 3.23744 17.6119 2.76256 17.9048 2.46967Z" fill="#28303F"/>
<path opacity="0.4" d="M13.4852 6.53531L8.29975 11.7208C7.99376 12.0268 7.79526 12.4237 7.73407 12.8521L7.49836 14.502C7.3098 15.822 8.44117 16.9533 9.76111 16.7648L11.411 16.5291C11.8394 16.4679 12.2364 16.2694 12.5424 15.9634L17.7278 10.7779C18.5089 9.9969 18.5089 8.73057 17.7278 7.94952L16.3136 6.53531C15.5326 5.75426 14.2662 5.75426 13.4852 6.53531Z" fill="#28303F"/>
<path d="M9.76116 16.7652L11.4111 16.5295C11.8395 16.4683 12.2365 16.2698 12.5424 15.9638L16.314 12.1925L9.24292 10.7783L8.29981 11.7212C7.99381 12.0272 7.79532 12.4241 7.73412 12.8525L7.49842 14.5024C7.30986 15.8224 8.44123 16.9537 9.76116 16.7652Z" fill="#28303F"/>
</svg>
