<svg width="24" height="24" viewBox="0 0 24 24" fill="none" xmlns="http://www.w3.org/2000/svg">
<path opacity="0.4" d="M20 9.88889C20 14.5376 15.3707 19.122 13.1551 21.0499C12.4846 21.6334 11.5154 21.6334 10.8449 21.0499C8.62926 19.122 4 14.5376 4 9.88889C4 6 7.02944 2 12 2C16.9706 2 20 6 20 9.88889Z" fill="#28303F"/>
<path fill-rule="evenodd" clip-rule="evenodd" d="M12 15C14.7614 15 17 12.7614 17 10C17 7.23858 14.7614 5 12 5C9.23858 5 7 7.23858 7 10C7 12.7614 9.23858 15 12 15ZM10.75 8C10.75 7.58579 10.4142 7.25 10 7.25C9.58579 7.25 9.25 7.58579 9.25 8V12C9.25 12.4142 9.58579 12.75 10 12.75C10.4142 12.75 10.75 12.4142 10.75 12V10.75H13.25V12C13.25 12.4142 13.5858 12.75 14 12.75C14.4142 12.75 14.75 12.4142 14.75 12V8C14.75 7.58579 14.4142 7.25 14 7.25C13.5858 7.25 13.25 7.58579 13.25 8V9.25H10.75V8Z" fill="#28303F"/>
</svg>
