<svg width="24" height="24" viewBox="0 0 24 24" fill="none" xmlns="http://www.w3.org/2000/svg">
<path opacity="0.4" fill-rule="evenodd" clip-rule="evenodd" d="M20 6.75C19.3096 6.75 18.75 7.30964 18.75 8V11C18.75 11.4142 18.4142 11.75 18 11.75C17.5858 11.75 17.25 11.4142 17.25 11V8C17.25 6.48122 18.4812 5.25 20 5.25C21.5188 5.25 22.75 6.48122 22.75 8V12C22.75 14.6234 20.6234 16.75 18 16.75V15.25C19.7949 15.25 21.25 13.7949 21.25 12V8C21.25 7.30964 20.6904 6.75 20 6.75Z" fill="#28303F"/>
<path opacity="0.4" fill-rule="evenodd" clip-rule="evenodd" d="M4 6.75C4.69036 6.75 5.25 7.30964 5.25 8V11C5.25 11.4142 5.58579 11.75 6 11.75C6.41421 11.75 6.75 11.4142 6.75 11V8C6.75 6.48122 5.51878 5.25 4 5.25C2.48122 5.25 1.25 6.48122 1.25 8V12C1.25 14.6234 3.37665 16.75 6 16.75V15.25C4.20507 15.25 2.75 13.7949 2.75 12V8C2.75 7.30964 3.30964 6.75 4 6.75Z" fill="#28303F"/>
<path d="M9.87574 7.22364C11.213 6.55501 12.787 6.55501 14.1243 7.22364L18.3354 9.32921C18.5895 9.45626 18.75 9.71595 18.75 10V15.1265C18.75 16.5362 18.1238 17.8731 17.0409 18.7756L16.3212 19.3753C13.818 21.4613 10.182 21.4613 7.67876 19.3753L6.95912 18.7756C5.87616 17.8731 5.25 16.5362 5.25 15.1265V10C5.25 9.71595 5.4105 9.45626 5.66459 9.32921L9.87574 7.22364Z" fill="#28303F"/>
</svg>
