<svg width="24" height="24" viewBox="0 0 24 24" fill="none" xmlns="http://www.w3.org/2000/svg">
<path fill-rule="evenodd" clip-rule="evenodd" d="M11 2.75C9.75736 2.75 8.75 3.75736 8.75 5V7C8.75 7.41421 8.41421 7.75 8 7.75C7.58579 7.75 7.25 7.41421 7.25 7V5C7.25 2.92893 8.92893 1.25 11 1.25H13C15.0711 1.25 16.75 2.92893 16.75 5V7C16.75 7.41421 16.4142 7.75 16 7.75C15.5858 7.75 15.25 7.41421 15.25 7V5C15.25 3.75736 14.2426 2.75 13 2.75H11Z" fill="#28303F"/>
<path opacity="0.4" d="M2 10C2 7.79086 3.79086 6 6 6H18C20.2091 6 22 7.79086 22 10V18C22 20.2091 20.2091 22 18 22H6C3.79086 22 2 20.2091 2 18V10Z" fill="#28303F"/>
<path fill-rule="evenodd" clip-rule="evenodd" d="M12 10.25C12.4142 10.25 12.75 10.5858 12.75 11V13.25H15C15.4142 13.25 15.75 13.5858 15.75 14C15.75 14.4142 15.4142 14.75 15 14.75H12.75V17C12.75 17.4142 12.4142 17.75 12 17.75C11.5858 17.75 11.25 17.4142 11.25 17V14.75H9C8.58579 14.75 8.25 14.4142 8.25 14C8.25 13.5858 8.58579 13.25 9 13.25H11.25V11C11.25 10.5858 11.5858 10.25 12 10.25Z" fill="#28303F"/>
</svg>
