<svg width="24" height="24" viewBox="0 0 24 24" fill="none" xmlns="http://www.w3.org/2000/svg">
<path opacity="0.4" d="M22 18V10C22 7.79086 20.2091 6 18 6H10H6C3.79086 6 2 7.79086 2 10V18C2 20.2091 3.79086 22 6 22H18C20.2091 22 22 20.2091 22 18Z" fill="#28303F"/>
<path fill-rule="evenodd" clip-rule="evenodd" d="M8 10.25C8.41421 10.25 8.75 10.5858 8.75 11V13.25H11C11.4142 13.25 11.75 13.5858 11.75 14C11.75 14.4142 11.4142 14.75 11 14.75H8.75V17C8.75 17.4142 8.41421 17.75 8 17.75C7.58579 17.75 7.25 17.4142 7.25 17V14.75H5C4.58579 14.75 4.25 14.4142 4.25 14C4.25 13.5858 4.58579 13.25 5 13.25H7.25V11C7.25 10.5858 7.58579 10.25 8 10.25Z" fill="#28303F"/>
<path fill-rule="evenodd" clip-rule="evenodd" d="M19.75 12C19.75 12.4142 19.4142 12.75 19 12.75H14C13.5858 12.75 13.25 12.4142 13.25 12C13.25 11.5858 13.5858 11.25 14 11.25H19C19.4142 11.25 19.75 11.5858 19.75 12Z" fill="#28303F"/>
<path fill-rule="evenodd" clip-rule="evenodd" d="M17.75 16C17.75 16.4142 17.4142 16.75 17 16.75H14C13.5858 16.75 13.25 16.4142 13.25 16C13.25 15.5858 13.5858 15.25 14 15.25H17C17.4142 15.25 17.75 15.5858 17.75 16Z" fill="#28303F"/>
<path d="M10 5C10 3.89543 10.8954 3 12 3C13.1046 3 14 3.89543 14 5V7C14 8.10457 13.1046 9 12 9C10.8954 9 10 8.10457 10 7V5Z" fill="#28303F"/>
</svg>
