<svg width="24" height="24" viewBox="0 0 24 24" fill="none" xmlns="http://www.w3.org/2000/svg">
<path opacity="0.4" d="M15.9998 15C15.9998 11.134 12.8658 8 8.99977 8C8.68195 8 8.36909 8.02118 8.0625 8.06221C8.25976 6.59482 8.92227 5.17801 10.05 4.05025C12.7837 1.31658 17.2158 1.31658 19.9495 4.05025C22.6832 6.78392 22.6832 11.2161 19.9495 13.9497C18.8218 15.0775 17.4049 15.74 15.9376 15.9373C15.9786 15.6307 15.9998 15.3178 15.9998 15Z" fill="#28303F"/>
<path d="M19.9496 13.9498C22.6833 11.2161 22.6833 6.78396 19.9496 4.05029L13.9497 10.0504C15.2164 11.3171 15.9999 13.0671 15.9999 15C15.9999 15.3179 15.9787 15.6307 15.9377 15.9373C17.4051 15.74 18.8219 15.0775 19.9496 13.9498Z" fill="#28303F"/>
<path opacity="0.4" d="M16 15C16 18.866 12.866 22 9 22C5.13401 22 2 18.866 2 15C2 11.134 5.13401 8 9 8C12.866 8 16 11.134 16 15Z" fill="#28303F"/>
<path d="M9 22C12.866 22 16 18.866 16 15H2C2 18.866 5.13401 22 9 22Z" fill="#28303F"/>
</svg>
