<svg width="24" height="24" viewBox="0 0 24 24" fill="none" xmlns="http://www.w3.org/2000/svg">
<path opacity="0.4" d="M14.2061 4.16565C15.7603 2.61145 18.2801 2.61145 19.8343 4.16565C21.3885 5.71985 21.3885 8.23971 19.8343 9.79391L9.79391 19.8344C8.23971 21.3886 5.71985 21.3885 4.16565 19.8343C2.61145 18.2801 2.61145 15.7603 4.16565 14.2061L14.2061 4.16565Z" fill="#28303F"/>
<path d="M11.831 9.34041C12.2215 8.94988 12.8547 8.94988 13.2452 9.34041L14.6594 10.7546C15.0499 11.1451 15.0499 11.7783 14.6594 12.1688L12.1685 14.6597C11.778 15.0502 11.1448 15.0502 10.7543 14.6597L9.34009 13.2455C8.94956 12.855 8.94956 12.2218 9.34009 11.8313L11.831 9.34041Z" fill="#28303F"/>
<path fill-rule="evenodd" clip-rule="evenodd" d="M15.7123 5.81256C16.0052 5.51966 16.4801 5.51966 16.773 5.81256L18.1872 7.22677C18.4801 7.51966 18.4801 7.99454 18.1872 8.28743C17.8943 8.58032 17.4195 8.58032 17.1266 8.28743L15.7123 6.87322C15.4195 6.58032 15.4195 6.10545 15.7123 5.81256Z" fill="#28303F"/>
<path fill-rule="evenodd" clip-rule="evenodd" d="M5.81293 15.7125C6.10582 15.4196 6.5807 15.4196 6.87359 15.7125L8.28781 17.1267C8.5807 17.4196 8.5807 17.8944 8.28781 18.1873C7.99491 18.4802 7.52004 18.4802 7.22715 18.1873L5.81293 16.7731C5.52004 16.4802 5.52004 16.0054 5.81293 15.7125Z" fill="#28303F"/>
</svg>
