<svg width="24" height="24" viewBox="0 0 24 24" fill="none" xmlns="http://www.w3.org/2000/svg">
<path opacity="0.4" fill-rule="evenodd" clip-rule="evenodd" d="M17.25 10.75C16.1454 10.75 15.25 11.6454 15.25 12.75V18.25C15.25 20.7353 13.2353 22.75 10.75 22.75C8.26472 22.75 6.25 20.7353 6.25 18.25V13C6.25 12.5858 6.58579 12.25 7 12.25C7.41421 12.25 7.75 12.5858 7.75 13V18.25C7.75 19.9069 9.09315 21.25 10.75 21.25C12.4069 21.25 13.75 19.9069 13.75 18.25V12.75C13.75 10.817 15.317 9.25 17.25 9.25C19.183 9.25 20.75 10.817 20.75 12.75V14C20.75 14.4142 20.4142 14.75 20 14.75C19.5858 14.75 19.25 14.4142 19.25 14V12.75C19.25 11.6454 18.3546 10.75 17.25 10.75Z" fill="#28303F"/>
<path d="M22 16C22 17.1046 21.1046 18 20 18C18.8954 18 18 17.1046 18 16C18 14.8954 18.8954 14 20 14C21.1046 14 22 14.8954 22 16Z" fill="#28303F"/>
<path fill-rule="evenodd" clip-rule="evenodd" d="M3.25 2.35352C2.09575 2.67998 1.25 3.74122 1.25 5V8C1.25 11.1756 3.82436 13.75 7 13.75C10.1756 13.75 12.75 11.1756 12.75 8V5C12.75 3.74122 11.9043 2.67998 10.75 2.35352V3.99991C11.0536 4.22796 11.25 4.59104 11.25 5V8C11.25 10.3472 9.34721 12.25 7 12.25C4.65279 12.25 2.75 10.3472 2.75 8V5C2.75 4.59105 2.94639 4.22796 3.25 3.99991V2.35352Z" fill="#28303F"/>
<path opacity="0.4" fill-rule="evenodd" clip-rule="evenodd" d="M10 1.25C10.4142 1.25 10.75 1.58579 10.75 2V4C10.75 4.41421 10.4142 4.75 10 4.75C9.58579 4.75 9.25 4.41421 9.25 4V2C9.25 1.58579 9.58579 1.25 10 1.25Z" fill="#28303F"/>
<path opacity="0.4" fill-rule="evenodd" clip-rule="evenodd" d="M4 1.25C4.41421 1.25 4.75 1.58579 4.75 2V4C4.75 4.41421 4.41421 4.75 4 4.75C3.58579 4.75 3.25 4.41421 3.25 4V2C3.25 1.58579 3.58579 1.25 4 1.25Z" fill="#28303F"/>
</svg>
