<svg width="24" height="24" viewBox="0 0 24 24" fill="none" xmlns="http://www.w3.org/2000/svg">
<path d="M7 3.5C7 2.67157 7.67157 2 8.5 2H15.5C16.3284 2 17 2.67157 17 3.5C17 4.32843 16.3284 5 15.5 5H8.5C7.67157 5 7 4.32843 7 3.5Z" fill="#28303F"/>
<path opacity="0.4" d="M6 12.1407C6 10.8033 6.6684 9.5544 7.7812 8.81253L8.1094 8.59373C8.6658 8.2228 9 7.59834 9 6.92963V5H15V6.92963C15 7.59834 15.3342 8.2228 15.8906 8.59373L16.2188 8.81253C17.3316 9.5544 18 10.8033 18 12.1407V18C18 20.2091 16.2091 22 14 22H10C7.79086 22 6 20.2091 6 18V12.1407Z" fill="#28303F"/>
<path d="M15 15C15 16.6569 13.6569 18 12 18C10.3431 18 9 16.6569 9 15C9 13.3431 10.3431 12 12 12C13.6569 12 15 13.3431 15 15Z" fill="#28303F"/>
</svg>
