<svg width="24" height="24" viewBox="0 0 24 24" fill="none" xmlns="http://www.w3.org/2000/svg">
<path opacity="0.4" d="M9.68948 10.1736L16.0063 3.85678C17.1487 2.71441 19.0009 2.71441 20.1432 3.85678C21.2856 4.99915 21.2856 6.85129 20.1432 7.99366L13.8264 14.3105C13.528 14.6089 13.1409 14.8024 12.7232 14.8621L11.597 15.023C11.1793 15.0827 10.7922 15.2762 10.4939 15.5746L5.49683 20.5716C4.92565 21.1428 3.99957 21.1428 3.42839 20.5716C2.8572 20.0004 2.8572 19.0744 3.42839 18.5032L8.42544 13.5061C8.7238 13.2078 8.91735 12.8207 8.97702 12.403L9.1379 11.2768C9.19757 10.8591 9.39112 10.472 9.68948 10.1736Z" fill="#28303F"/>
<path d="M5.49683 20.5718C4.92565 21.143 3.99957 21.143 3.42839 20.5718C2.8572 20.0007 2.8572 19.0746 3.42839 18.5034L5.92691 16.0049L7.99535 18.0733L5.49683 20.5718Z" fill="#28303F"/>
</svg>
