<svg width="24" height="24" viewBox="0 0 24 24" fill="none" xmlns="http://www.w3.org/2000/svg">
<path opacity="0.4" d="M20.2632 4.23913C17.8404 1.95243 15.3189 2.87334 13.3942 4.237C12.5609 4.82745 11.4365 4.82964 10.6005 4.243C8.66806 2.88705 6.13686 1.97356 3.73648 4.23913C-1.25807 8.95318 5.84991 20.8619 8.41981 20.8619C10.9736 20.8619 9.12023 13.5665 11.9999 13.4749C14.8794 13.5668 13.0262 20.8619 15.5799 20.8619C18.1498 20.8619 25.2578 8.95318 20.2632 4.23913Z" fill="#28303F"/>
<path d="M3.73648 4.23909C6.13686 1.97352 8.66806 2.88701 10.6005 4.24296C11.0189 4.53659 11.5096 4.6827 11.9999 4.68136V13.4748C9.12023 13.5665 10.9736 20.8618 8.41981 20.8618C5.84991 20.8618 -1.25807 8.95314 3.73648 4.23909Z" fill="#28303F"/>
</svg>
