<svg width="24" height="24" viewBox="0 0 24 24" fill="none" xmlns="http://www.w3.org/2000/svg">
<path opacity="0.4" d="M8 14.9C8 10.8281 11.8368 6.81103 13.8292 4.99944C14.5018 4.38791 15.4982 4.38791 16.1708 4.99944C18.1632 6.81103 22 10.8281 22 14.9C22 18.4 19.3492 22 15 22C10.6508 22 8 18.4 8 14.9Z" fill="#28303F"/>
<path d="M6.80975 3.06662C5.06035 4.75137 2 8.19759 2 11.6892C2 14.8003 4.27208 18.0003 8 18.0003C8.23361 18.0003 8.46151 17.9877 8.68349 17.9634C8.23628 16.9991 8 15.9452 8 14.9003C8 11.7847 10.2463 8.70113 12.1939 6.61312C11.2211 5.14246 10.0483 3.89295 9.1905 3.06685C8.51673 2.41797 7.48352 2.41775 6.80975 3.06662Z" fill="#28303F"/>
<path fill-rule="evenodd" clip-rule="evenodd" d="M15.2637 19.1427C15.1851 18.736 15.451 18.3426 15.8577 18.264C17.1355 18.017 18.0082 17.0045 18.268 15.8374C18.358 15.4331 18.7587 15.1783 19.163 15.2683C19.5674 15.3583 19.8222 15.759 19.7322 16.1633C19.3632 17.8208 18.0945 19.3593 16.1424 19.7367C15.7358 19.8153 15.3423 19.5494 15.2637 19.1427Z" fill="#28303F"/>
</svg>
