<svg width="24" height="24" viewBox="0 0 24 24" fill="none" xmlns="http://www.w3.org/2000/svg">
<path d="M18.5 16H7V6H17C18.1046 6 19 6.89543 19 8V16.063C18.8402 16.0219 18.6726 16 18.5 16Z" fill="#28303F"/>
<path fill-rule="evenodd" clip-rule="evenodd" d="M3.25 3C3.25 2.58579 3.58579 2.25 4 2.25H5C6.51878 2.25 7.75 3.48122 7.75 5V15.25H18.5C18.7362 15.25 18.9666 15.28 19.1869 15.3367C20.3729 15.6419 21.25 16.7176 21.25 18C21.25 18.4142 20.9142 18.75 20.5 18.75C20.0858 18.75 19.75 18.4142 19.75 18C19.75 17.4186 19.3524 16.9281 18.8131 16.7893C18.7138 16.7638 18.6091 16.75 18.5 16.75H7C6.58579 16.75 6.25 16.4142 6.25 16V5C6.25 4.30964 5.69036 3.75 5 3.75H4C3.58579 3.75 3.25 3.41421 3.25 3Z" fill="#28303F"/>
<path opacity="0.4" d="M12 16C12 18.7614 9.76142 21 7 21C4.23858 21 2 18.7614 2 16C2 13.2386 4.23858 11 7 11C9.76142 11 12 13.2386 12 16Z" fill="#28303F"/>
<path opacity="0.4" d="M22.4925 19.0076C22.4925 20.108 21.6004 21 20.5 21C19.3996 21 18.5076 20.108 18.5076 19.0076C18.5076 17.9072 19.3996 17.0151 20.5 17.0151C21.6004 17.0151 22.4925 17.9072 22.4925 19.0076Z" fill="#28303F"/>
</svg>
