<svg width="24" height="24" viewBox="0 0 24 24" fill="none" xmlns="http://www.w3.org/2000/svg">
<path opacity="0.4" d="M15 15H12V8C8.13401 8 5 11.134 5 15C5 18.866 8.13401 22 12 22C14.1525 22 16.078 21.0285 17.3621 19.5L17.5038 19.2923L15 15Z" fill="#28303F"/>
<path fill-rule="evenodd" clip-rule="evenodd" d="M12 6.25C12.4142 6.25 12.75 6.58579 12.75 7V14.25H15C15.2668 14.25 15.5134 14.3917 15.6478 14.6221L18.9308 20.25H20C20.4142 20.25 20.75 20.5858 20.75 21C20.75 21.4142 20.4142 21.75 20 21.75H18.5C18.2332 21.75 17.9866 21.6083 17.8522 21.3779L14.5692 15.75H12C11.5858 15.75 11.25 15.4142 11.25 15V7C11.25 6.58579 11.5858 6.25 12 6.25Z" fill="#28303F"/>
<path d="M13.5 3.5C13.5 4.32843 12.8284 5 12 5C11.1716 5 10.5 4.32843 10.5 3.5C10.5 2.67157 11.1716 2 12 2C12.8284 2 13.5 2.67157 13.5 3.5Z" fill="#28303F"/>
</svg>
