<svg width="24" height="24" viewBox="0 0 24 24" fill="none" xmlns="http://www.w3.org/2000/svg">
<path d="M4 12V19C4 20.6569 5.34315 22 7 22H17C18.6569 22 20 20.6569 20 19V12" stroke="#28303F" stroke-width="1.5"/>
<path d="M12 8V7.25H10.5L11.4 8.45L12 8ZM21.8 10.4L21.2 10.85L21.8 10.4ZM20.3 8.4L20.9 7.95L20.3 8.4ZM12 8.75H19.5V7.25H12V8.75ZM19.7 8.85L21.2 10.85L22.4 9.95L20.9 7.95L19.7 8.85ZM21 11.25H15.5V12.75H21V11.25ZM15.3 11.15L12.6 7.55L11.4 8.45L14.1 12.05L15.3 11.15ZM15.5 11.25C15.4213 11.25 15.3472 11.213 15.3 11.15L14.1 12.05C14.4305 12.4907 14.9492 12.75 15.5 12.75V11.25ZM21.2 10.85C21.3236 11.0148 21.206 11.25 21 11.25V12.75C22.4421 12.75 23.2652 11.1037 22.4 9.95L21.2 10.85ZM19.5 8.75C19.5787 8.75 19.6528 8.78705 19.7 8.85L20.9 7.95C20.5695 7.50934 20.0508 7.25 19.5 7.25V8.75Z" fill="#28303F"/>
<path d="M12 8V7.25H13.5L12.6 8.45L12 8ZM2.2 10.4L2.8 10.85L2.2 10.4ZM3.7 8.4L3.1 7.95L3.7 8.4ZM12 8.75H4.5V7.25H12V8.75ZM4.3 8.85L2.8 10.85L1.6 9.95L3.1 7.95L4.3 8.85ZM3 11.25H8.5V12.75H3V11.25ZM8.7 11.15L11.4 7.55L12.6 8.45L9.9 12.05L8.7 11.15ZM8.5 11.25C8.57869 11.25 8.65279 11.213 8.7 11.15L9.9 12.05C9.5695 12.4907 9.05083 12.75 8.5 12.75V11.25ZM2.8 10.85C2.67639 11.0148 2.79399 11.25 3 11.25V12.75C1.55792 12.75 0.734753 11.1037 1.6 9.95L2.8 10.85ZM4.5 8.75C4.42131 8.75 4.34721 8.78705 4.3 8.85L3.1 7.95C3.4305 7.50934 3.94917 7.25 4.5 7.25V8.75Z" fill="#28303F"/>
<path d="M14.5303 4.53036C14.8232 4.23747 14.8232 3.76259 14.5303 3.4697C14.2374 3.17681 13.7626 3.17681 13.4697 3.4697L14.5303 4.53036ZM12.7071 5.29292L13.2374 5.82325L12.7071 5.29292ZM11.2929 5.29292L11.8232 4.76259V4.76259L11.2929 5.29292ZM10.5303 3.4697C10.2374 3.17681 9.76256 3.17681 9.46967 3.4697C9.17678 3.76259 9.17678 4.23747 9.46967 4.53036L10.5303 3.4697ZM12.75 2.00003C12.75 1.58581 12.4142 1.25003 12 1.25003C11.5858 1.25003 11.25 1.58581 11.25 2.00003H12.75ZM11.25 5.00003C11.25 5.41424 11.5858 5.75003 12 5.75003C12.4142 5.75003 12.75 5.41424 12.75 5.00003H11.25ZM13.4697 3.4697L12.1768 4.76259L13.2374 5.82325L14.5303 4.53036L13.4697 3.4697ZM11.8232 4.76259L10.5303 3.4697L9.46967 4.53036L10.7626 5.82325L11.8232 4.76259ZM12.1768 4.76259C12.0791 4.86022 11.9209 4.86022 11.8232 4.76259L10.7626 5.82325C11.446 6.50667 12.554 6.50667 13.2374 5.82325L12.1768 4.76259ZM11.25 2.00003V5.00003H12.75V2.00003H11.25Z" fill="#28303F"/>
</svg>
