<svg width="24" height="24" viewBox="0 0 24 24" fill="none" xmlns="http://www.w3.org/2000/svg">
<path d="M13 22.75C13.4142 22.75 13.75 22.4142 13.75 22C13.75 21.5858 13.4142 21.25 13 21.25V22.75ZM21.25 13C21.25 13.4142 21.5858 13.75 22 13.75C22.4142 13.75 22.75 13.4142 22.75 13H21.25ZM6 2.75H18V1.25H6V2.75ZM2.75 18V6H1.25V18H2.75ZM13 21.25H6V22.75H13V21.25ZM21.25 6V13H22.75V6H21.25ZM1.25 18C1.25 20.6234 3.37665 22.75 6 22.75V21.25C4.20507 21.25 2.75 19.7949 2.75 18H1.25ZM18 2.75C19.7949 2.75 21.25 4.20507 21.25 6H22.75C22.75 3.37665 20.6234 1.25 18 1.25V2.75ZM6 1.25C3.37665 1.25 1.25 3.37665 1.25 6H2.75C2.75 4.20507 4.20507 2.75 6 2.75V1.25Z" fill="#28303F"/>
<path d="M8 2V1.25C7.58579 1.25 7.25 1.58579 7.25 2H8ZM16 2H16.75C16.75 1.58579 16.4142 1.25 16 1.25V2ZM12.7071 8.70711L12.1768 9.23744L12.7071 8.70711ZM11.2929 8.70711L10.7626 8.17678L11.2929 8.70711ZM14.2929 10.2929L13.7626 10.8232L14.2929 10.2929ZM8 2.75H16V1.25H8V2.75ZM15.25 2V9.58579H16.75V2H15.25ZM8.75 9.58579V2H7.25V9.58579H8.75ZM14.8232 9.76256L13.2374 8.17678L12.1768 9.23744L13.7626 10.8232L14.8232 9.76256ZM10.7626 8.17678L9.17678 9.76256L10.2374 10.8232L11.8232 9.23744L10.7626 8.17678ZM13.2374 8.17678C12.554 7.49336 11.446 7.49336 10.7626 8.17678L11.8232 9.23744C11.9209 9.13981 12.0791 9.13981 12.1768 9.23744L13.2374 8.17678ZM7.25 9.58579C7.25 11.1449 9.135 11.9257 10.2374 10.8232L9.17678 9.76256C9.01929 9.92005 8.75 9.80851 8.75 9.58579H7.25ZM15.25 9.58579C15.25 9.80851 14.9807 9.92005 14.8232 9.76256L13.7626 10.8232C14.865 11.9257 16.75 11.1449 16.75 9.58579H15.25Z" fill="#28303F"/>
<path d="M18 17L17.4697 17.5303C17.6103 17.671 17.8011 17.75 18 17.75C18.1989 17.75 18.3897 17.671 18.5303 17.5303L18 17ZM18.2652 16.7349L17.7348 16.2045L18.2652 16.7349ZM17.7348 16.7349L17.2045 17.2652L17.7348 16.7349ZM18.5303 17.5303L18.7955 17.2652L17.7348 16.2045L17.4697 16.4697L18.5303 17.5303ZM17.2045 17.2652L17.4697 17.5303L18.5303 16.4697L18.2652 16.2045L17.2045 17.2652ZM14.5529 19.9168L16.409 21.773L17.4697 20.7123L15.6135 18.8562L14.5529 19.9168ZM19.591 21.773L21.4471 19.9168L20.3865 18.8562L18.5303 20.7123L19.591 21.773ZM20.3865 17.2652C20.8258 17.7045 20.8258 18.4168 20.3865 18.8562L21.4471 19.9168C22.4723 18.8917 22.4723 17.2296 21.4471 16.2045L20.3865 17.2652ZM21.4471 16.2045C20.422 15.1794 18.76 15.1794 17.7348 16.2045L18.7955 17.2652C19.2348 16.8258 19.9471 16.8258 20.3865 17.2652L21.4471 16.2045ZM15.6135 17.2652C16.0529 16.8258 16.7652 16.8258 17.2045 17.2652L18.2652 16.2045C17.24 15.1794 15.578 15.1794 14.5529 16.2045L15.6135 17.2652ZM16.409 21.773C17.2877 22.6517 18.7123 22.6517 19.591 21.773L18.5303 20.7123C18.2374 21.0052 17.7626 21.0052 17.4697 20.7123L16.409 21.773ZM14.5529 16.2045C13.5277 17.2296 13.5277 18.8917 14.5529 19.9168L15.6135 18.8562C15.1742 18.4168 15.1742 17.7045 15.6135 17.2652L14.5529 16.2045Z" fill="#28303F"/>
</svg>
