<svg width="24" height="24" viewBox="0 0 24 24" fill="none" xmlns="http://www.w3.org/2000/svg">
<path d="M14 22.75C14.4142 22.75 14.75 22.4142 14.75 22C14.75 21.5858 14.4142 21.25 14 21.25V22.75ZM21.25 11C21.25 11.4142 21.5858 11.75 22 11.75C22.4142 11.75 22.75 11.4142 22.75 11H21.25ZM6 2.75H18V1.25H6V2.75ZM2.75 18V6H1.25V18H2.75ZM14 21.25H6V22.75H14V21.25ZM21.25 6V11H22.75V6H21.25ZM1.25 18C1.25 20.6234 3.37665 22.75 6 22.75V21.25C4.20507 21.25 2.75 19.7949 2.75 18H1.25ZM18 2.75C19.7949 2.75 21.25 4.20507 21.25 6H22.75C22.75 3.37665 20.6234 1.25 18 1.25V2.75ZM6 1.25C3.37665 1.25 1.25 3.37665 1.25 6H2.75C2.75 4.20507 4.20507 2.75 6 2.75V1.25Z" fill="#28303F"/>
<path d="M8 2V1.25C7.58579 1.25 7.25 1.58579 7.25 2H8ZM16 2H16.75C16.75 1.58579 16.4142 1.25 16 1.25V2ZM12.7071 8.70711L12.1768 9.23744L12.7071 8.70711ZM11.2929 8.70711L10.7626 8.17678L11.2929 8.70711ZM14.2929 10.2929L13.7626 10.8232L14.2929 10.2929ZM8 2.75H16V1.25H8V2.75ZM15.25 2V9.58579H16.75V2H15.25ZM8.75 9.58579V2H7.25V9.58579H8.75ZM14.8232 9.76256L13.2374 8.17678L12.1768 9.23744L13.7626 10.8232L14.8232 9.76256ZM10.7626 8.17678L9.17678 9.76256L10.2374 10.8232L11.8232 9.23744L10.7626 8.17678ZM13.2374 8.17678C12.554 7.49336 11.446 7.49336 10.7626 8.17678L11.8232 9.23744C11.9209 9.13981 12.0791 9.13981 12.1768 9.23744L13.2374 8.17678ZM7.25 9.58579C7.25 11.1449 9.135 11.9257 10.2374 10.8232L9.17678 9.76256C9.01929 9.92005 8.75 9.80851 8.75 9.58579H7.25ZM15.25 9.58579C15.25 9.80851 14.9807 9.92005 14.8232 9.76256L13.7626 10.8232C14.865 11.9257 16.75 11.1449 16.75 9.58579H15.25Z" fill="#28303F"/>
<circle cx="19" cy="17" r="1" fill="#28303F"/>
<path d="M18.3507 21.3361L17.7984 21.8436L18.3507 21.3361ZM21.25 17C21.25 17.5608 20.9727 18.2583 20.5178 18.9927C20.075 19.7078 19.5217 20.3665 19.097 20.8287L20.2016 21.8436C20.6591 21.3457 21.2811 20.6091 21.7931 19.7825C22.293 18.9753 22.75 17.9848 22.75 17H21.25ZM18.903 20.8287C18.4783 20.3665 17.925 19.7078 17.4822 18.9927C17.0273 18.2583 16.75 17.5608 16.75 17H15.25C15.25 17.9848 15.707 18.9753 16.2069 19.7825C16.7189 20.6091 17.3409 21.3457 17.7984 21.8436L18.903 20.8287ZM16.75 17C16.75 16.0531 17.0318 15.5334 17.3719 15.2366C17.7305 14.9236 18.2778 14.75 19 14.75V13.25C18.0654 13.25 17.1126 13.4719 16.3855 14.1065C15.6397 14.7575 15.25 15.7378 15.25 17H16.75ZM19 14.75C19.7222 14.75 20.2695 14.9236 20.6281 15.2366C20.9682 15.5334 21.25 16.0531 21.25 17H22.75C22.75 15.7378 22.3603 14.7575 21.6145 14.1065C20.8874 13.4719 19.9346 13.25 19 13.25V14.75ZM19.097 20.8287C19.0636 20.865 19.0289 20.8757 19 20.8757C18.9711 20.8757 18.9364 20.865 18.903 20.8287L17.7984 21.8436C18.4503 22.553 19.5497 22.553 20.2016 21.8436L19.097 20.8287Z" fill="#28303F"/>
</svg>
