<svg width="24" height="24" viewBox="0 0 24 24" fill="none" xmlns="http://www.w3.org/2000/svg">
<path d="M15 22.75C15.4142 22.75 15.75 22.4142 15.75 22C15.75 21.5858 15.4142 21.25 15 21.25V22.75ZM21.25 13C21.25 13.4142 21.5858 13.75 22 13.75C22.4142 13.75 22.75 13.4142 22.75 13H21.25ZM6 2.75H18V1.25H6V2.75ZM2.75 18V6H1.25V18H2.75ZM15 21.25H6V22.75H15V21.25ZM21.25 6V13H22.75V6H21.25ZM1.25 18C1.25 20.6234 3.37665 22.75 6 22.75V21.25C4.20507 21.25 2.75 19.7949 2.75 18H1.25ZM18 2.75C19.7949 2.75 21.25 4.20507 21.25 6H22.75C22.75 3.37665 20.6234 1.25 18 1.25V2.75ZM6 1.25C3.37665 1.25 1.25 3.37665 1.25 6H2.75C2.75 4.20507 4.20507 2.75 6 2.75V1.25Z" fill="#28303F"/>
<path d="M8 2V1.25C7.58579 1.25 7.25 1.58579 7.25 2H8ZM16 2H16.75C16.75 1.58579 16.4142 1.25 16 1.25V2ZM12.7071 8.70711L12.1768 9.23744L12.7071 8.70711ZM11.2929 8.70711L10.7626 8.17678L11.2929 8.70711ZM14.2929 10.2929L13.7626 10.8232L14.2929 10.2929ZM8 2.75H16V1.25H8V2.75ZM15.25 2V9.58579H16.75V2H15.25ZM8.75 9.58579V2H7.25V9.58579H8.75ZM14.8232 9.76256L13.2374 8.17678L12.1768 9.23744L13.7626 10.8232L14.8232 9.76256ZM10.7626 8.17678L9.17678 9.76256L10.2374 10.8232L11.8232 9.23744L10.7626 8.17678ZM13.2374 8.17678C12.554 7.49336 11.446 7.49336 10.7626 8.17678L11.8232 9.23744C11.9209 9.13981 12.0791 9.13981 12.1768 9.23744L13.2374 8.17678ZM7.25 9.58579C7.25 11.1449 9.135 11.9257 10.2374 10.8232L9.17678 9.76256C9.01929 9.92005 8.75 9.80851 8.75 9.58579H7.25ZM15.25 9.58579C15.25 9.80851 14.9807 9.92005 14.8232 9.76256L13.7626 10.8232C14.865 11.9257 16.75 11.1449 16.75 9.58579H15.25Z" fill="#28303F"/>
<path d="M22.5303 20.9445C22.8232 20.6517 22.8232 20.1768 22.5303 19.8839C22.2374 19.591 21.7626 19.591 21.4697 19.8839L22.5303 20.9445ZM20.7071 21.7071L21.2374 22.2374L20.7071 21.7071ZM19.2929 21.7071L19.8232 21.1768V21.1768L19.2929 21.7071ZM18.5303 19.8839C18.2374 19.591 17.7626 19.591 17.4697 19.8839C17.1768 20.1768 17.1768 20.6517 17.4697 20.9445L18.5303 19.8839ZM20.75 16C20.75 15.5858 20.4142 15.25 20 15.25C19.5858 15.25 19.25 15.5858 19.25 16H20.75ZM19.25 21.4142C19.25 21.8284 19.5858 22.1642 20 22.1642C20.4142 22.1642 20.75 21.8284 20.75 21.4142H19.25ZM21.4697 19.8839L20.1768 21.1768L21.2374 22.2374L22.5303 20.9445L21.4697 19.8839ZM19.8232 21.1768L18.5303 19.8839L17.4697 20.9445L18.7626 22.2374L19.8232 21.1768ZM20.1768 21.1768C20.0791 21.2744 19.9209 21.2744 19.8232 21.1768L18.7626 22.2374C19.446 22.9209 20.554 22.9209 21.2374 22.2374L20.1768 21.1768ZM19.25 16V21.4142H20.75V16H19.25Z" fill="#28303F"/>
</svg>
