<svg width="24" height="24" viewBox="0 0 24 24" fill="none" xmlns="http://www.w3.org/2000/svg">
<path d="M12 22.75C12.4142 22.75 12.75 22.4142 12.75 22C12.75 21.5858 12.4142 21.25 12 21.25V22.75ZM21.25 14C21.25 14.4142 21.5858 14.75 22 14.75C22.4142 14.75 22.75 14.4142 22.75 14H21.25ZM6 2.75H18V1.25H6V2.75ZM2.75 18V6H1.25V18H2.75ZM12 21.25H6V22.75H12V21.25ZM21.25 6V14H22.75V6H21.25ZM1.25 18C1.25 20.6234 3.37665 22.75 6 22.75V21.25C4.20507 21.25 2.75 19.7949 2.75 18H1.25ZM18 2.75C19.7949 2.75 21.25 4.20507 21.25 6H22.75C22.75 3.37665 20.6234 1.25 18 1.25V2.75ZM6 1.25C3.37665 1.25 1.25 3.37665 1.25 6H2.75C2.75 4.20507 4.20507 2.75 6 2.75V1.25Z" fill="#28303F"/>
<path d="M8 2V1.25C7.58579 1.25 7.25 1.58579 7.25 2H8ZM16 2H16.75C16.75 1.58579 16.4142 1.25 16 1.25V2ZM12.7071 8.70711L12.1768 9.23744L12.7071 8.70711ZM11.2929 8.70711L10.7626 8.17678L11.2929 8.70711ZM14.2929 10.2929L13.7626 10.8232L14.2929 10.2929ZM8 2.75H16V1.25H8V2.75ZM15.25 2V9.58579H16.75V2H15.25ZM8.75 9.58579V2H7.25V9.58579H8.75ZM14.8232 9.76256L13.2374 8.17678L12.1768 9.23744L13.7626 10.8232L14.8232 9.76256ZM10.7626 8.17678L9.17678 9.76256L10.2374 10.8232L11.8232 9.23744L10.7626 8.17678ZM13.2374 8.17678C12.554 7.49336 11.446 7.49336 10.7626 8.17678L11.8232 9.23744C11.9209 9.13981 12.0791 9.13981 12.1768 9.23744L13.2374 8.17678ZM7.25 9.58579C7.25 11.1449 9.135 11.9257 10.2374 10.8232L9.17678 9.76256C9.01929 9.92005 8.75 9.80851 8.75 9.58579H7.25ZM15.25 9.58579C15.25 9.80851 14.9807 9.92005 14.8232 9.76256L13.7626 10.8232C14.865 11.9257 16.75 11.1449 16.75 9.58579H15.25Z" fill="#28303F"/>
<path d="M15.4685 19.4143C15.1451 19.1556 14.6731 19.208 14.4143 19.5315C14.1556 19.8549 14.208 20.3269 14.5315 20.5857L15.4685 19.4143ZM21.5644 18.4939C21.8372 18.1822 21.8056 17.7083 21.4939 17.4356C21.1822 17.1628 20.7083 17.1944 20.4356 17.5061L21.5644 18.4939ZM16.7528 21.4023L16.2843 21.9879L16.7528 21.4023ZM14.5315 20.5857L16.2843 21.9879L17.2213 20.8166L15.4685 19.4143L14.5315 20.5857ZM18.6945 21.7738L21.5644 18.4939L20.4356 17.5061L17.5657 20.786L18.6945 21.7738ZM16.2843 21.9879C17.0156 22.5729 18.0778 22.4786 18.6945 21.7738L17.5657 20.786C17.4776 20.8867 17.3258 20.9002 17.2213 20.8166L16.2843 21.9879Z" fill="#28303F"/>
</svg>
