<svg width="24" height="24" viewBox="0 0 24 24" fill="none" xmlns="http://www.w3.org/2000/svg">
<path d="M21.6983 15.5138L22.3385 15.9046V15.9046L21.6983 15.5138ZM18.3197 19.6092L17.9289 20.2494L19.2093 21.0309L19.6 20.3908L18.3197 19.6092ZM4.39997 20.3908L4.79073 21.0309L6.07105 20.2494L5.68029 19.6092L4.39997 20.3908ZM2.3017 15.5138L1.66154 15.9046H1.66154L2.3017 15.5138ZM3.22438 12.5649L3.51804 13.2551H3.51804L3.22438 12.5649ZM11.2352 9.15621L10.9415 8.46609L11.2352 9.15621ZM12.7648 9.15621L12.4712 9.84633V9.84633L12.7648 9.15621ZM20.7756 12.5649L21.0693 11.8748L20.7756 12.5649ZM21.0581 15.123L18.3197 19.6092L19.6 20.3908L22.3385 15.9046L21.0581 15.123ZM5.68029 19.6092L2.94186 15.123L1.66154 15.9046L4.39997 20.3908L5.68029 19.6092ZM3.51804 13.2551L11.5288 9.84633L10.9415 8.46609L2.93072 11.8748L3.51804 13.2551ZM12.4712 9.84633L20.482 13.2551L21.0693 11.8748L13.0585 8.46609L12.4712 9.84633ZM11.5288 9.84633C11.8307 9.71789 12.1693 9.71789 12.4712 9.84633L13.0585 8.46609C12.3814 8.17797 11.6186 8.17797 10.9415 8.46609L11.5288 9.84633ZM22.3385 15.9046C23.2203 14.46 22.6325 12.54 21.0693 11.8748L20.482 13.2551C21.1835 13.5536 21.4743 14.4413 21.0581 15.123L22.3385 15.9046ZM2.94186 15.123C2.52571 14.4413 2.81646 13.5536 3.51804 13.2551L2.93072 11.8748C1.36748 12.54 0.77974 14.46 1.66154 15.9046L2.94186 15.123Z" fill="#28303F"/>
<path d="M18 11V4C18 2.89543 17.1046 2 16 2H8C6.89543 2 6 2.89543 6 4V11" stroke="#28303F" stroke-width="1.5"/>
<path d="M13 5H11" stroke="#28303F" stroke-width="1.5" stroke-linecap="round" stroke-linejoin="round"/>
<path d="M3 22L4.53245 20.9784C5.41741 20.3884 6.57362 20.4015 7.44494 21.0115V21.0115C8.29985 21.6099 9.43098 21.6348 10.3114 21.0745L10.4966 20.9567C11.4105 20.3751 12.59 20.3933 13.4912 20.9942V20.9942C14.3996 21.5997 15.5916 21.6055 16.5 21V21C17.4083 20.3944 18.5916 20.3944 19.5 21L21 22" stroke="#28303F" stroke-width="1.5" stroke-linecap="round" stroke-linejoin="round"/>
</svg>
