<svg width="24" height="24" viewBox="0 0 24 24" fill="none" xmlns="http://www.w3.org/2000/svg">
<rect x="7" y="12" width="10" height="10" rx="2" stroke="#28303F" stroke-width="1.5"/>
<path d="M3.25 8C3.25 8.41421 3.58579 8.75 4 8.75C4.41421 8.75 4.75 8.41421 4.75 8H3.25ZM19.25 8C19.25 8.41421 19.5858 8.75 20 8.75C20.4142 8.75 20.75 8.41421 20.75 8H19.25ZM11.25 8C11.25 8.41421 11.5858 8.75 12 8.75C12.4142 8.75 12.75 8.41421 12.75 8H11.25ZM4.75 8C4.75 6.63214 5.4875 5.33659 6.79315 4.35736C8.09902 3.37795 9.93745 2.75 12 2.75V1.25C9.64427 1.25 7.4827 1.96519 5.89315 3.15736C4.30336 4.3497 3.25 6.05415 3.25 8H4.75ZM12 2.75C14.0626 2.75 15.901 3.37795 17.2069 4.35736C18.5125 5.33659 19.25 6.63214 19.25 8H20.75C20.75 6.05415 19.6966 4.3497 18.1069 3.15736C16.5173 1.96519 14.3557 1.25 12 1.25V2.75ZM4.75 8C4.75 7.88484 4.86285 7.57867 5.50698 7.25661C6.10625 6.95697 6.98662 6.75 8 6.75V5.25C6.80424 5.25 5.68461 5.49074 4.83616 5.91497C4.03258 6.31676 3.25 7.01059 3.25 8H4.75ZM8 6.75C9.01338 6.75 9.89375 6.95697 10.493 7.25661C11.1371 7.57867 11.25 7.88484 11.25 8H12.75C12.75 7.01059 11.9674 6.31676 11.1638 5.91497C10.3154 5.49074 9.19576 5.25 8 5.25V6.75ZM12.75 8C12.75 7.88484 12.8629 7.57867 13.507 7.25661C14.1063 6.95697 14.9866 6.75 16 6.75V5.25C14.8042 5.25 13.6846 5.49074 12.8362 5.91497C12.0326 6.31676 11.25 7.01059 11.25 8H12.75ZM16 6.75C17.0134 6.75 17.8937 6.95697 18.493 7.25661C19.1371 7.57867 19.25 7.88484 19.25 8H20.75C20.75 7.01059 19.9674 6.31676 19.1638 5.91497C18.3154 5.49074 17.1958 5.25 16 5.25V6.75Z" fill="#28303F"/>
<path d="M13 14L11 14" stroke="#28303F" stroke-width="1.5" stroke-linecap="round" stroke-linejoin="round"/>
<path d="M20 8L15 12M12 8V12M4 8L9 12" stroke="#28303F" stroke-width="1.5" stroke-linecap="round" stroke-linejoin="round"/>
</svg>
