<svg width="24" height="24" viewBox="0 0 24 24" fill="none" xmlns="http://www.w3.org/2000/svg">
<rect x="6" y="2" width="12" height="12" rx="2" stroke="#28303F" stroke-width="1.5"/>
<path d="M13 5L11 5" stroke="#28303F" stroke-width="1.5" stroke-linecap="round" stroke-linejoin="round"/>
<path d="M3.88418 14.3154L3.36027 14.8521L3.36027 14.8521L3.88418 14.3154ZM5.43409 15.8284L5.95799 15.2917L5.95799 15.2917L5.43409 15.8284ZM20.127 18.1716L20.6509 17.6349L20.6509 17.6349L20.127 18.1716ZM21.5757 19.5858L21.0518 20.1225L21.5757 19.5858ZM3.58841 19.4045L4.28853 19.1355V19.1355L3.58841 19.4045ZM2.07124 15.455L1.37112 15.7239L2.07124 15.455ZM3.36027 14.8521L4.91018 16.3651L5.95799 15.2917L4.40808 13.7787L3.36027 14.8521ZM8.33149 17.75H17.2296V16.25H8.33149V17.75ZM19.6031 18.7083L21.0518 20.1225L22.0996 19.0491L20.6509 17.6349L19.6031 18.7083ZM20.5513 21.25H7.42506V22.75H20.5513V21.25ZM4.28853 19.1355L2.77136 15.1861L1.37112 15.7239L2.88829 19.6734L4.28853 19.1355ZM7.42506 21.25C6.01864 21.25 4.77381 20.3988 4.28853 19.1355L2.88829 19.6734C3.60248 21.5326 5.4154 22.75 7.42506 22.75V21.25ZM21.25 20.5858C21.25 20.9357 20.9543 21.25 20.5513 21.25V22.75C21.7485 22.75 22.75 21.798 22.75 20.5858H21.25ZM21.0518 20.1225C21.1809 20.2485 21.25 20.4155 21.25 20.5858H22.75C22.75 20.0059 22.5139 19.4535 22.0996 19.0491L21.0518 20.1225ZM17.2296 17.75C18.1232 17.75 18.9766 18.0967 19.6031 18.7083L20.6509 17.6349C19.7405 16.7462 18.5095 16.25 17.2296 16.25V17.75ZM4.91018 16.3651C5.82058 17.2538 7.05159 17.75 8.33149 17.75V16.25C7.43791 16.25 6.58447 15.9033 5.95799 15.2917L4.91018 16.3651ZM3.10414 14.75C3.20355 14.75 3.29536 14.7887 3.36027 14.8521L4.40808 13.7787C4.05924 13.4382 3.58987 13.25 3.10414 13.25V14.75ZM3.10414 13.25C1.83491 13.25 0.902328 14.5036 1.37112 15.7239L2.77136 15.1861C2.69926 14.9984 2.83292 14.75 3.10414 14.75V13.25Z" fill="#28303F"/>
</svg>
