<svg width="24" height="24" viewBox="0 0 24 24" fill="none" xmlns="http://www.w3.org/2000/svg">
<rect x="13" y="3" width="9" height="9" rx="2" stroke="#28303F" stroke-width="1.5"/>
<path d="M18.5 6L16.5 6" stroke="#28303F" stroke-width="1.5" stroke-linecap="round" stroke-linejoin="round"/>
<path d="M2 8.25C1.58579 8.25 1.25 8.58579 1.25 9C1.25 9.41421 1.58579 9.75 2 9.75V8.25ZM4 9L4.30061 8.31288C4.20582 8.27141 4.10347 8.25 4 8.25V9ZM7.29544 13.8106C6.91472 13.6475 6.47381 13.8238 6.31064 14.2046C6.14747 14.5853 6.32384 15.0262 6.70456 15.1894L7.29544 13.8106ZM8.74342 15.2472L8.44798 15.9365L8.74342 15.2472ZM2 9.75H4V8.25H2V9.75ZM3.69939 9.68712L9.96163 12.4269L10.5629 11.0526L4.30061 8.31288L3.69939 9.68712ZM9.03886 14.5578L7.29544 13.8106L6.70456 15.1894L8.44798 15.9365L9.03886 14.5578ZM10.5635 13.948C10.3109 14.5374 9.62827 14.8104 9.03886 14.5578L8.44798 15.9365C9.79884 16.5155 11.3632 15.8897 11.9422 14.5389L10.5635 13.948ZM9.96163 12.4269C10.546 12.6825 10.8147 13.3617 10.5635 13.948L11.9422 14.5389C12.518 13.1952 11.9022 11.6386 10.5629 11.0526L9.96163 12.4269Z" fill="#28303F"/>
<path d="M2.33541 17.3292C1.96493 17.1439 1.51442 17.2941 1.32918 17.6646C1.14394 18.0351 1.29411 18.4856 1.66459 18.6708L2.33541 17.3292ZM11.3354 14.3292L10.6646 13.9938L9.99377 15.3354L10.6646 15.6708L11.3354 14.3292ZM13.7331 16.3666L13.3977 17.0374L13.7331 16.3666ZM16.4164 17.75H18V16.25H16.4164V17.75ZM18 20.25H9.88854V21.75H18V20.25ZM6.64625 19.4846L2.33541 17.3292L1.66459 18.6708L5.97542 20.8262L6.64625 19.4846ZM14.0685 15.6957L11.3354 14.3292L10.6646 15.6708L13.3977 17.0374L14.0685 15.6957ZM9.88854 20.25C8.76302 20.25 7.65295 19.9879 6.64625 19.4846L5.97542 20.8262C7.19041 21.4337 8.53015 21.75 9.88854 21.75V20.25ZM19.25 19C19.25 19.6904 18.6904 20.25 18 20.25V21.75C19.5188 21.75 20.75 20.5188 20.75 19H19.25ZM18 17.75C18.6904 17.75 19.25 18.3096 19.25 19H20.75C20.75 17.4812 19.5188 16.25 18 16.25V17.75ZM16.4164 16.25C15.6014 16.25 14.7975 16.0602 14.0685 15.6957L13.3977 17.0374C14.335 17.506 15.3685 17.75 16.4164 17.75V16.25Z" fill="#28303F"/>
</svg>
