<svg width="24" height="24" viewBox="0 0 24 24" fill="none" xmlns="http://www.w3.org/2000/svg">
<path d="M12.75 2C12.75 1.58579 12.4142 1.25 12 1.25C11.5858 1.25 11.25 1.58579 11.25 2H12.75ZM11.25 6C11.25 6.41421 11.5858 6.75 12 6.75C12.4142 6.75 12.75 6.41421 12.75 6H11.25ZM11.25 2V6H12.75V2H11.25Z" fill="#28303F"/>
<path d="M14 4.75C14.4142 4.75 14.75 4.41421 14.75 4C14.75 3.58579 14.4142 3.25 14 3.25L14 4.75ZM10 3.25C9.58579 3.25 9.25 3.58579 9.25 4C9.25 4.41421 9.58579 4.75 10 4.75L10 3.25ZM14 3.25L10 3.25L10 4.75L14 4.75L14 3.25Z" fill="#28303F"/>
<path d="M12.8944 21.5528L12.559 20.882L12.8944 21.5528ZM18.8944 18.5528L18.559 17.882L18.8944 18.5528ZM19.25 10V16.7639H20.75V10H19.25ZM4.75 16.7639V10H3.25V16.7639H4.75ZM18.559 17.882L12.559 20.882L13.2298 22.2236L19.2298 19.2236L18.559 17.882ZM11.441 20.882L5.44098 17.882L4.77016 19.2236L10.7702 22.2236L11.441 20.882ZM12.559 20.882C12.2071 21.0579 11.7929 21.0579 11.441 20.882L10.7702 22.2236C11.5444 22.6107 12.4556 22.6107 13.2298 22.2236L12.559 20.882ZM3.25 16.7639C3.25 17.8056 3.83851 18.7578 4.77016 19.2236L5.44098 17.882C5.0175 17.6702 4.75 17.2374 4.75 16.7639H3.25ZM19.25 16.7639C19.25 17.2374 18.9825 17.6702 18.559 17.882L19.2298 19.2236C20.1615 18.7578 20.75 17.8056 20.75 16.7639H19.25Z" fill="#28303F"/>
<path d="M20 6L20.3354 6.67082C20.5895 6.54378 20.75 6.28408 20.75 6C20.75 5.71592 20.5895 5.45622 20.3354 5.32918L20 6ZM12 10L11.6646 10.6708C11.8757 10.7764 12.1243 10.7764 12.3354 10.6708L12 10ZM4 6L3.66459 5.32918C3.4105 5.45622 3.25 5.71592 3.25 6C3.25 6.28408 3.4105 6.54378 3.66459 6.67082L4 6ZM18.3354 4.32918C17.9649 4.14394 17.5144 4.29411 17.3292 4.66459C17.1439 5.03507 17.2941 5.48558 17.6646 5.67082L18.3354 4.32918ZM6.33541 5.67082C6.70589 5.48558 6.85606 5.03507 6.67082 4.66459C6.48558 4.29411 6.03507 4.14394 5.66459 4.32918L6.33541 5.67082ZM19.6646 5.32918L11.6646 9.32918L12.3354 10.6708L20.3354 6.67082L19.6646 5.32918ZM12.3354 9.32918L4.33541 5.32918L3.66459 6.67082L11.6646 10.6708L12.3354 9.32918ZM17.6646 5.67082L19.6646 6.67082L20.3354 5.32918L18.3354 4.32918L17.6646 5.67082ZM4.33541 6.67082L6.33541 5.67082L5.66459 4.32918L3.66459 5.32918L4.33541 6.67082Z" fill="#28303F"/>
<path d="M20 6L12 10L14 13L22 9L20 6Z" stroke="#28303F" stroke-width="1.5" stroke-linecap="round" stroke-linejoin="round"/>
<path d="M4 6L12 10L10 13L2 9L4 6Z" stroke="#28303F" stroke-width="1.5" stroke-linecap="round" stroke-linejoin="round"/>
</svg>
