<svg width="24" height="24" viewBox="0 0 24 24" fill="none" xmlns="http://www.w3.org/2000/svg">
<path d="M4 9V17C4 18.6569 5.34315 20 7 20H17C18.6569 20 20 18.6569 20 17V9" stroke="#28303F" stroke-width="1.5"/>
<path d="M12 4V3.25H10.691L11.353 4.37929L12 4ZM14.3618 8.02899L13.7148 8.40828L14.3618 8.02899ZM21.8593 7.4855L21.2122 7.86479L21.8593 7.4855ZM20.1007 4.4855L20.7477 4.10622V4.10622L20.1007 4.4855ZM12 4.75H19.2629V3.25H12V4.75ZM19.4536 4.86479L21.2122 7.86479L22.5063 7.10622L20.7477 4.10622L19.4536 4.86479ZM21.0215 8.25H16.0374V9.75H21.0215V8.25ZM15.0088 7.6497L12.647 3.62071L11.353 4.37929L13.7148 8.40828L15.0088 7.6497ZM16.0374 8.25C15.6228 8.25 15.2302 8.02741 15.0088 7.6497L13.7148 8.40828C14.1996 9.2354 15.0792 9.75 16.0374 9.75V8.25ZM21.2122 7.86479C21.2636 7.95235 21.2605 8.04803 21.2154 8.12966C21.1707 8.21037 21.1018 8.25 21.0215 8.25V9.75C22.3905 9.75 23.1748 8.24655 22.5063 7.10622L21.2122 7.86479ZM19.2629 4.75C19.3342 4.75 19.4088 4.7883 19.4536 4.86479L20.7477 4.10622C20.4394 3.5803 19.8779 3.25 19.2629 3.25V4.75Z" fill="#28303F"/>
<path d="M12 4L12.647 4.37929L13.309 3.25H12V4ZM9.63819 8.02899L10.2852 8.40828V8.40828L9.63819 8.02899ZM2.14074 7.4855L1.49371 7.10622L2.14074 7.4855ZM3.89935 4.4855L3.25232 4.10622V4.10622L3.89935 4.4855ZM12 3.25H4.73712V4.75H12V3.25ZM3.25232 4.10622L1.49371 7.10622L2.78776 7.86479L4.54637 4.86479L3.25232 4.10622ZM2.97851 9.75H7.96264V8.25H2.97851V9.75ZM10.2852 8.40828L12.647 4.37929L11.353 3.62071L8.99117 7.6497L10.2852 8.40828ZM7.96264 9.75C8.92085 9.75 9.80036 9.2354 10.2852 8.40828L8.99117 7.6497C8.76976 8.02741 8.37718 8.25 7.96264 8.25V9.75ZM1.49371 7.10622C0.825246 8.24655 1.60946 9.75 2.97851 9.75V8.25C2.89822 8.25 2.82925 8.21037 2.78461 8.12966C2.73945 8.04803 2.73644 7.95235 2.78776 7.86479L1.49371 7.10622ZM4.73712 3.25C4.1221 3.25 3.56062 3.5803 3.25232 4.10622L4.54637 4.86479C4.59122 4.7883 4.66577 4.75 4.73712 4.75V3.25Z" fill="#28303F"/>
</svg>
