<svg width="24" height="24" viewBox="0 0 24 24" fill="none" xmlns="http://www.w3.org/2000/svg">
<path d="M19.1716 3.17157L18.6412 3.7019L19.1716 3.17157ZM4.82843 3.17157L4.2981 2.64124L4.82843 3.17157ZM21.25 7.65685V18H22.75V7.65685H21.25ZM18 21.25H6V22.75H18V21.25ZM2.75 18V7.65685H1.25V18H2.75ZM7.65685 2.75H16.3431V1.25H7.65685V2.75ZM18.6412 3.7019L20.2981 5.35876L21.3588 4.2981L19.7019 2.64124L18.6412 3.7019ZM3.7019 5.35876L5.35876 3.7019L4.2981 2.64124L2.64124 4.2981L3.7019 5.35876ZM16.3431 2.75C17.2051 2.75 18.0317 3.09241 18.6412 3.7019L19.7019 2.64124C18.8111 1.75045 17.6029 1.25 16.3431 1.25V2.75ZM7.65685 1.25C6.39708 1.25 5.1889 1.75044 4.2981 2.64124L5.35876 3.7019C5.96825 3.09241 6.7949 2.75 7.65685 2.75V1.25ZM6 21.25C4.20507 21.25 2.75 19.7949 2.75 18H1.25C1.25 20.6234 3.37665 22.75 6 22.75V21.25ZM21.25 18C21.25 19.7949 19.7949 21.25 18 21.25V22.75C20.6234 22.75 22.75 20.6234 22.75 18H21.25ZM22.75 7.65685C22.75 6.39708 22.2496 5.1889 21.3588 4.2981L20.2981 5.35876C20.9076 5.96825 21.25 6.7949 21.25 7.65685H22.75ZM2.75 7.65685C2.75 6.7949 3.09241 5.96825 3.7019 5.35876L2.64124 4.2981C1.75045 5.18889 1.25 6.39708 1.25 7.65685H2.75Z" fill="#28303F"/>
<path d="M2.5 7H21.5" stroke="#28303F" stroke-width="1.5" stroke-linecap="round" stroke-linejoin="round"/>
<path d="M9 7H15V13L12 11L9 13V7Z" stroke="#28303F" stroke-width="1.5" stroke-linejoin="round"/>
</svg>
