<svg width="24" height="24" viewBox="0 0 24 24" fill="none" xmlns="http://www.w3.org/2000/svg">
<path d="M14.5303 15.9445C14.8232 15.6517 14.8232 15.1768 14.5303 14.8839C14.2374 14.591 13.7626 14.591 13.4697 14.8839L14.5303 15.9445ZM12.7071 16.7071L13.2374 17.2374L12.7071 16.7071ZM11.2929 16.7071L11.8232 16.1768V16.1768L11.2929 16.7071ZM10.5303 14.8839C10.2374 14.591 9.76256 14.591 9.46967 14.8839C9.17678 15.1768 9.17678 15.6517 9.46967 15.9445L10.5303 14.8839ZM12.75 11C12.75 10.5858 12.4142 10.25 12 10.25C11.5858 10.25 11.25 10.5858 11.25 11H12.75ZM11.25 16.4142C11.25 16.8284 11.5858 17.1642 12 17.1642C12.4142 17.1642 12.75 16.8284 12.75 16.4142H11.25ZM13.4697 14.8839L12.1768 16.1768L13.2374 17.2374L14.5303 15.9445L13.4697 14.8839ZM11.8232 16.1768L10.5303 14.8839L9.46967 15.9445L10.7626 17.2374L11.8232 16.1768ZM12.1768 16.1768C12.0791 16.2744 11.9209 16.2744 11.8232 16.1768L10.7626 17.2374C11.446 17.9209 12.554 17.9209 13.2374 17.2374L12.1768 16.1768ZM11.25 11V16.4142H12.75V11H11.25Z" fill="#28303F"/>
<path d="M21.1235 5.90434L20.5378 6.37286L21.1235 5.90434ZM21.25 8.40312V18H22.75V8.40312H21.25ZM18 21.25H6V22.75H18V21.25ZM2.75 18V8.40312H1.25V18H2.75ZM7.9225 2.75H16.0775V1.25H7.9225V2.75ZM18.6153 3.96974L20.5378 6.37286L21.7091 5.43582L19.7866 3.0327L18.6153 3.96974ZM3.46218 6.37287L5.38468 3.96974L4.21337 3.0327L2.29087 5.43582L3.46218 6.37287ZM16.0775 2.75C17.0648 2.75 17.9986 3.19879 18.6153 3.96974L19.7866 3.0327C18.8852 1.90593 17.5205 1.25 16.0775 1.25V2.75ZM7.9225 1.25C6.47953 1.25 5.11479 1.90593 4.21337 3.0327L5.38468 3.96974C6.00143 3.19879 6.9352 2.75 7.9225 2.75V1.25ZM6 21.25C4.20507 21.25 2.75 19.7949 2.75 18H1.25C1.25 20.6234 3.37665 22.75 6 22.75V21.25ZM21.25 18C21.25 19.7949 19.7949 21.25 18 21.25V22.75C20.6234 22.75 22.75 20.6234 22.75 18H21.25ZM22.75 8.40312C22.75 7.32453 22.3829 6.27806 21.7091 5.43582L20.5378 6.37286C20.9988 6.94913 21.25 7.66514 21.25 8.40312H22.75ZM2.75 8.40312C2.75 7.66514 3.00116 6.94913 3.46218 6.37287L2.29087 5.43582C1.61708 6.27806 1.25 7.32453 1.25 8.40312H2.75Z" fill="#28303F"/>
<path d="M3 7H21" stroke="#28303F" stroke-width="1.5" stroke-linecap="round" stroke-linejoin="round"/>
</svg>
