<svg width="24" height="24" viewBox="0 0 24 24" fill="none" xmlns="http://www.w3.org/2000/svg">
<circle cx="10" cy="8" r="2" stroke="#28303F" stroke-width="1.5"/>
<path d="M12.5237 19.2954L11.9486 18.8141L12.5237 19.2954ZM7.47627 19.2954L6.90113 19.7768L7.47627 19.2954ZM20.25 16V20H21.75V16H20.25ZM19 21.25H15V22.75H19V21.25ZM15 21.25C14.3096 21.25 13.75 20.6904 13.75 20H12.25C12.25 21.5188 13.4812 22.75 15 22.75V21.25ZM20.25 20C20.25 20.6904 19.6904 21.25 19 21.25V22.75C20.5188 22.75 21.75 21.5188 21.75 20H20.25ZM19 14.75C19.6904 14.75 20.25 15.3096 20.25 16H21.75C21.75 14.4812 20.5188 13.25 19 13.25V14.75ZM15 13.25C13.4812 13.25 12.25 14.4812 12.25 16H13.75C13.75 15.3096 14.3096 14.75 15 14.75V13.25ZM8.05142 18.8141C7.06736 17.6383 5.98231 16.1778 5.1465 14.6241C4.30575 13.0613 3.75 11.4642 3.75 10H2.25C2.25 11.8169 2.92955 13.6693 3.82552 15.3347C4.72642 17.0094 5.87951 18.5561 6.90113 19.7768L8.05142 18.8141ZM3.75 10C3.75 7.37988 4.49088 5.58602 5.58934 4.45036C6.68768 3.31483 8.22764 2.75 10 2.75V1.25C7.90637 1.25 5.94633 1.92375 4.51117 3.4075C3.07613 4.89113 2.25 7.09728 2.25 10H3.75ZM10 2.75C11.7724 2.75 13.3123 3.31483 14.4107 4.45036C15.5091 5.58602 16.25 7.37988 16.25 10H17.75C17.75 7.09728 16.9239 4.89113 15.4888 3.4075C14.0537 1.92375 12.0936 1.25 10 1.25V2.75ZM11.9486 18.8141C10.9076 20.0578 9.09235 20.0578 8.05142 18.8141L6.90113 19.7768C8.54162 21.7369 11.4584 21.7369 13.0989 19.7768L11.9486 18.8141ZM16.25 10C16.25 11.1681 15.8962 12.425 15.3194 13.6885L16.6839 14.3115C17.3129 12.9336 17.75 11.4573 17.75 10H16.25ZM15 14.75H16.0016V13.25H15V14.75ZM16.0016 14.75H19V13.25H16.0016V14.75ZM12.4142 18.245C12.2572 18.4413 12.1016 18.6313 11.9486 18.8141L13.0989 19.7768C13.2587 19.5858 13.4215 19.3872 13.5858 19.1816L12.4142 18.245ZM13.75 20V18.7133H12.25V20H13.75ZM13.75 18.7133V16H12.25V18.7133H13.75Z" fill="#28303F"/>
<path d="M18 16L16 16" stroke="#28303F" stroke-width="1.5" stroke-linecap="round" stroke-linejoin="round"/>
</svg>
