<svg width="24" height="24" viewBox="0 0 24 24" fill="none" xmlns="http://www.w3.org/2000/svg">
<path d="M17.5 9.5L12 12L6.5 9.5" stroke="#28303F" stroke-width="1.5" stroke-linecap="round" stroke-linejoin="round"/>
<path d="M7.16999 16.7968L6.85874 17.4792L7.16999 16.7968ZM12.83 18.6214L13.1413 19.3038L12.83 18.6214ZM11.17 18.6214L10.8587 19.3038L11.17 18.6214ZM16.83 16.7968L16.5188 16.1145L16.83 16.7968ZM16.83 8.20316L16.5188 8.88553L16.83 8.20316ZM12.5188 7.06097L16.5188 8.88553L17.1413 7.5208L13.1413 5.69624L12.5188 7.06097ZM7.48124 8.88553L11.4812 7.06097L10.8587 5.69624L6.85874 7.5208L7.48124 8.88553ZM16.5188 16.1145L12.5188 17.939L13.1413 19.3038L17.1413 17.4792L16.5188 16.1145ZM11.4812 17.939L7.48124 16.1145L6.85874 17.4792L10.8587 19.3038L11.4812 17.939ZM18.75 14.9772V10.0228H17.25V14.9772H18.75ZM6.75 14.9772V10.0228H5.25V14.9772H6.75ZM7.48124 16.1145C7.03581 15.9113 6.75 15.4668 6.75 14.9772H5.25C5.25 16.0543 5.87879 17.0322 6.85874 17.4792L7.48124 16.1145ZM12.5188 17.939C12.1892 18.0893 11.8108 18.0893 11.4812 17.939L10.8587 19.3038C11.5837 19.6344 12.4163 19.6344 13.1413 19.3038L12.5188 17.939ZM17.1413 17.4792C18.1212 17.0322 18.75 16.0543 18.75 14.9772H17.25C17.25 15.4668 16.9642 15.9113 16.5188 16.1145L17.1413 17.4792ZM6.85874 7.5208C5.87879 7.96779 5.25 8.94572 5.25 10.0228H6.75C6.75 9.53322 7.03581 9.08871 7.48124 8.88553L6.85874 7.5208ZM16.5188 8.88553C16.9642 9.08871 17.25 9.53322 17.25 10.0228H18.75C18.75 8.94572 18.1212 7.96779 17.1413 7.5208L16.5188 8.88553ZM13.1413 5.69624C12.4163 5.36557 11.5837 5.36557 10.8587 5.69624L11.4812 7.06097C11.8108 6.91066 12.1892 6.91066 12.5188 7.06097L13.1413 5.69624Z" fill="#28303F"/>
<path d="M12 12V18" stroke="#28303F" stroke-width="1.5" stroke-linecap="round" stroke-linejoin="round"/>
<path d="M12 2V3" stroke="#28303F" stroke-width="1.5" stroke-linecap="round" stroke-linejoin="round"/>
<path d="M12 21V22" stroke="#28303F" stroke-width="1.5" stroke-linecap="round" stroke-linejoin="round"/>
<path d="M20.071 3.92896L19.3639 4.63606" stroke="#28303F" stroke-width="1.5" stroke-linecap="round" stroke-linejoin="round"/>
<path d="M4.63599 19.364L3.92888 20.0711" stroke="#28303F" stroke-width="1.5" stroke-linecap="round" stroke-linejoin="round"/>
<path d="M22 12L21 12" stroke="#28303F" stroke-width="1.5" stroke-linecap="round" stroke-linejoin="round"/>
<path d="M3 12L2 12" stroke="#28303F" stroke-width="1.5" stroke-linecap="round" stroke-linejoin="round"/>
<path d="M20.071 20.071L19.3639 19.3639" stroke="#28303F" stroke-width="1.5" stroke-linecap="round" stroke-linejoin="round"/>
<path d="M4.63599 4.63599L3.92888 3.92888" stroke="#28303F" stroke-width="1.5" stroke-linecap="round" stroke-linejoin="round"/>
</svg>
