<svg width="24" height="24" viewBox="0 0 24 24" fill="none" xmlns="http://www.w3.org/2000/svg">
<path d="M9.46852 13.4143C9.14507 13.1556 8.67311 13.208 8.41435 13.5315C8.15559 13.8549 8.20803 14.3269 8.53148 14.5857L9.46852 13.4143ZM15.5644 12.4939C15.8372 12.1822 15.8056 11.7083 15.4939 11.4356C15.1822 11.1628 14.7083 11.1944 14.4356 11.5061L15.5644 12.4939ZM10.7528 15.4023L10.2843 15.9879L10.7528 15.4023ZM8.53148 14.5857L10.2843 15.9879L11.2213 14.8166L9.46852 13.4143L8.53148 14.5857ZM12.6945 15.7738L15.5644 12.4939L14.4356 11.5061L11.5657 14.786L12.6945 15.7738ZM10.2843 15.9879C11.0156 16.5729 12.0778 16.4786 12.6945 15.7738L11.5657 14.786C11.4776 14.8867 11.3258 14.9002 11.2213 14.8166L10.2843 15.9879Z" fill="#28303F"/>
<path d="M21.1235 5.90434L20.5378 6.37286L21.1235 5.90434ZM21.25 8.40312V18H22.75V8.40312H21.25ZM18 21.25H6V22.75H18V21.25ZM2.75 18V8.40312H1.25V18H2.75ZM7.9225 2.75H16.0775V1.25H7.9225V2.75ZM18.6153 3.96974L20.5378 6.37286L21.7091 5.43582L19.7866 3.0327L18.6153 3.96974ZM3.46218 6.37287L5.38468 3.96974L4.21337 3.0327L2.29087 5.43582L3.46218 6.37287ZM16.0775 2.75C17.0648 2.75 17.9986 3.19879 18.6153 3.96974L19.7866 3.0327C18.8852 1.90593 17.5205 1.25 16.0775 1.25V2.75ZM7.9225 1.25C6.47953 1.25 5.11479 1.90593 4.21337 3.0327L5.38468 3.96974C6.00143 3.19879 6.9352 2.75 7.9225 2.75V1.25ZM6 21.25C4.20507 21.25 2.75 19.7949 2.75 18H1.25C1.25 20.6234 3.37665 22.75 6 22.75V21.25ZM21.25 18C21.25 19.7949 19.7949 21.25 18 21.25V22.75C20.6234 22.75 22.75 20.6234 22.75 18H21.25ZM22.75 8.40312C22.75 7.32453 22.3829 6.27806 21.7091 5.43582L20.5378 6.37286C20.9988 6.94913 21.25 7.66514 21.25 8.40312H22.75ZM2.75 8.40312C2.75 7.66514 3.00116 6.94913 3.46218 6.37287L2.29087 5.43582C1.61708 6.27806 1.25 7.32453 1.25 8.40312H2.75Z" fill="#28303F"/>
<path d="M3 7H21" stroke="#28303F" stroke-width="1.5" stroke-linecap="round" stroke-linejoin="round"/>
</svg>
