<svg width="24" height="24" viewBox="0 0 24 24" fill="none" xmlns="http://www.w3.org/2000/svg">
<path d="M20 7L12 11L4 7" stroke="#28303F" stroke-width="1.5" stroke-linecap="round" stroke-linejoin="round"/>
<path d="M13.6246 2.35827L13.3101 3.03915V3.03915L13.6246 2.35827ZM18.6246 4.66762L18.939 3.98673V3.98673L18.6246 4.66762ZM5.37545 4.66762L5.06097 3.98673L5.37545 4.66762ZM10.3754 2.35827L10.061 1.67739V1.67739L10.3754 2.35827ZM18.6246 19.3324L18.939 20.0133L18.6246 19.3324ZM13.6246 21.6417L13.939 22.3226H13.939L13.6246 21.6417ZM10.3754 21.6417L10.6899 20.9608H10.6899L10.3754 21.6417ZM5.37545 19.3324L5.06097 20.0133H5.06097L5.37545 19.3324ZM13.3101 3.03915L18.3101 5.3485L18.939 3.98673L13.939 1.67739L13.3101 3.03915ZM5.68993 5.3485L10.6899 3.03915L10.061 1.67739L5.06097 3.98673L5.68993 5.3485ZM18.3101 18.6515L13.3101 20.9608L13.939 22.3226L18.939 20.0133L18.3101 18.6515ZM10.6899 20.9608L5.68993 18.6515L5.06097 20.0133L10.061 22.3226L10.6899 20.9608ZM21.75 15.5338V8.46617H20.25V15.5338H21.75ZM3.75 15.5338V8.46617H2.25V15.5338H3.75ZM5.68993 18.6515C4.52184 18.112 3.75 16.8963 3.75 15.5338H2.25C2.25 17.4568 3.34004 19.2184 5.06097 20.0133L5.68993 18.6515ZM13.3101 20.9608C12.4753 21.3464 11.5247 21.3464 10.6899 20.9608L10.061 22.3226C11.2948 22.8925 12.7052 22.8925 13.939 22.3226L13.3101 20.9608ZM18.939 20.0133C20.66 19.2184 21.75 17.4568 21.75 15.5338H20.25C20.25 16.8963 19.4782 18.112 18.3101 18.6515L18.939 20.0133ZM5.06097 3.98673C3.34004 4.78158 2.25 6.54318 2.25 8.46617H3.75C3.75 7.1037 4.52183 5.88801 5.68993 5.3485L5.06097 3.98673ZM18.3101 5.3485C19.4782 5.88801 20.25 7.1037 20.25 8.46617H21.75C21.75 6.54318 20.66 4.78158 18.939 3.98673L18.3101 5.3485ZM13.939 1.67739C12.7052 1.10754 11.2948 1.10754 10.061 1.67739L10.6899 3.03915C11.5247 2.65362 12.4753 2.65362 13.3101 3.03915L13.939 1.67739Z" fill="#28303F"/>
<path d="M8.36423 3.34438C8.00214 3.14322 7.54554 3.27368 7.34438 3.63577C7.14322 3.99786 7.27368 4.45446 7.63577 4.65562L8.36423 3.34438ZM17 9H17.75C17.75 8.72762 17.6023 8.47666 17.3642 8.34438L17 9ZM16.25 19.5C16.25 19.9142 16.5858 20.25 17 20.25C17.4142 20.25 17.75 19.9142 17.75 19.5H16.25ZM7.63577 4.65562L16.6358 9.65562L17.3642 8.34438L8.36423 3.34438L7.63577 4.65562ZM17.75 19.5V9H16.25V19.5H17.75Z" fill="#28303F"/>
<path d="M12 11V22" stroke="#28303F" stroke-width="1.5" stroke-linecap="round" stroke-linejoin="round"/>
</svg>
