<svg width="24" height="24" viewBox="0 0 24 24" fill="none" xmlns="http://www.w3.org/2000/svg">
<circle cx="12" cy="13" r="1" fill="#28303F"/>
<path d="M21.1235 5.90434L20.5378 6.37286L21.1235 5.90434ZM21.25 8.40312V18H22.75V8.40312H21.25ZM18 21.25H6V22.75H18V21.25ZM2.75 18V8.40312H1.25V18H2.75ZM7.9225 2.75H16.0775V1.25H7.9225V2.75ZM18.6153 3.96974L20.5378 6.37286L21.7091 5.43582L19.7866 3.0327L18.6153 3.96974ZM3.46218 6.37287L5.38468 3.96974L4.21337 3.0327L2.29087 5.43582L3.46218 6.37287ZM16.0775 2.75C17.0648 2.75 17.9986 3.19879 18.6153 3.96974L19.7866 3.0327C18.8852 1.90593 17.5205 1.25 16.0775 1.25V2.75ZM7.9225 1.25C6.47953 1.25 5.11479 1.90593 4.21337 3.0327L5.38468 3.96974C6.00143 3.19879 6.9352 2.75 7.9225 2.75V1.25ZM6 21.25C4.20507 21.25 2.75 19.7949 2.75 18H1.25C1.25 20.6234 3.37665 22.75 6 22.75V21.25ZM21.25 18C21.25 19.7949 19.7949 21.25 18 21.25V22.75C20.6234 22.75 22.75 20.6234 22.75 18H21.25ZM22.75 8.40312C22.75 7.32453 22.3829 6.27806 21.7091 5.43582L20.5378 6.37286C20.9988 6.94913 21.25 7.66514 21.25 8.40312H22.75ZM2.75 8.40312C2.75 7.66514 3.00116 6.94913 3.46218 6.37287L2.29087 5.43582C1.61708 6.27806 1.25 7.32453 1.25 8.40312H2.75Z" fill="#28303F"/>
<path d="M3 7H21" stroke="#28303F" stroke-width="1.5" stroke-linecap="round" stroke-linejoin="round"/>
<path d="M11.3507 17.3361L10.7984 17.8436L11.3507 17.3361ZM14.25 13C14.25 13.5608 13.9727 14.2583 13.5178 14.9927C13.075 15.7078 12.5217 16.3665 12.097 16.8287L13.2016 17.8436C13.6591 17.3457 14.2811 16.6091 14.7931 15.7825C15.293 14.9753 15.75 13.9848 15.75 13H14.25ZM11.903 16.8287C11.4783 16.3665 10.925 15.7078 10.4822 14.9927C10.0273 14.2583 9.75 13.5608 9.75 13H8.25C8.25 13.9848 8.70698 14.9753 9.20693 15.7825C9.71888 16.6091 10.3409 17.3457 10.7984 17.8436L11.903 16.8287ZM9.75 13C9.75 12.0531 10.0318 11.5334 10.3719 11.2366C10.7305 10.9236 11.2778 10.75 12 10.75V9.25C11.0654 9.25 10.1126 9.47186 9.38549 10.1065C8.63973 10.7575 8.25 11.7378 8.25 13H9.75ZM12 10.75C12.7222 10.75 13.2695 10.9236 13.6281 11.2366C13.9682 11.5334 14.25 12.0531 14.25 13H15.75C15.75 11.7378 15.3603 10.7575 14.6145 10.1065C13.8874 9.47186 12.9346 9.25 12 9.25V10.75ZM12.097 16.8287C12.0636 16.865 12.0289 16.8757 12 16.8757C11.9711 16.8757 11.9364 16.865 11.903 16.8287L10.7984 17.8436C11.4503 18.553 12.5497 18.553 13.2016 17.8436L12.097 16.8287Z" fill="#28303F"/>
</svg>
