<svg width="24" height="24" viewBox="0 0 24 24" fill="none" xmlns="http://www.w3.org/2000/svg">
<path d="M14.5303 12.0555C14.8232 12.3483 14.8232 12.8232 14.5303 13.1161C14.2374 13.409 13.7626 13.409 13.4697 13.1161L14.5303 12.0555ZM12.7071 11.2929L13.2374 10.7626L12.7071 11.2929ZM11.2929 11.2929L11.8232 11.8232V11.8232L11.2929 11.2929ZM10.5303 13.1161C10.2374 13.409 9.76256 13.409 9.46967 13.1161C9.17678 12.8232 9.17678 12.3483 9.46967 12.0555L10.5303 13.1161ZM12.75 17C12.75 17.4142 12.4142 17.75 12 17.75C11.5858 17.75 11.25 17.4142 11.25 17H12.75ZM11.25 11.5858C11.25 11.1716 11.5858 10.8358 12 10.8358C12.4142 10.8358 12.75 11.1716 12.75 11.5858H11.25ZM13.4697 13.1161L12.1768 11.8232L13.2374 10.7626L14.5303 12.0555L13.4697 13.1161ZM11.8232 11.8232L10.5303 13.1161L9.46967 12.0555L10.7626 10.7626L11.8232 11.8232ZM12.1768 11.8232C12.0791 11.7256 11.9209 11.7256 11.8232 11.8232L10.7626 10.7626C11.446 10.0791 12.554 10.0791 13.2374 10.7626L12.1768 11.8232ZM11.25 17V11.5858H12.75V17H11.25Z" fill="#28303F"/>
<path d="M21.1235 5.90434L20.5378 6.37286L21.1235 5.90434ZM21.25 8.40312V18H22.75V8.40312H21.25ZM18 21.25H6V22.75H18V21.25ZM2.75 18V8.40312H1.25V18H2.75ZM7.9225 2.75H16.0775V1.25H7.9225V2.75ZM18.6153 3.96974L20.5378 6.37286L21.7091 5.43582L19.7866 3.0327L18.6153 3.96974ZM3.46218 6.37287L5.38468 3.96974L4.21337 3.0327L2.29087 5.43582L3.46218 6.37287ZM16.0775 2.75C17.0648 2.75 17.9986 3.19879 18.6153 3.96974L19.7866 3.0327C18.8852 1.90593 17.5205 1.25 16.0775 1.25V2.75ZM7.9225 1.25C6.47953 1.25 5.11479 1.90593 4.21337 3.0327L5.38468 3.96974C6.00143 3.19879 6.9352 2.75 7.9225 2.75V1.25ZM6 21.25C4.20507 21.25 2.75 19.7949 2.75 18H1.25C1.25 20.6234 3.37665 22.75 6 22.75V21.25ZM21.25 18C21.25 19.7949 19.7949 21.25 18 21.25V22.75C20.6234 22.75 22.75 20.6234 22.75 18H21.25ZM22.75 8.40312C22.75 7.32453 22.3829 6.27806 21.7091 5.43582L20.5378 6.37286C20.9988 6.94913 21.25 7.66514 21.25 8.40312H22.75ZM2.75 8.40312C2.75 7.66514 3.00116 6.94913 3.46218 6.37287L2.29087 5.43582C1.61708 6.27806 1.25 7.32453 1.25 8.40312H2.75Z" fill="#28303F"/>
<path d="M3 7H21" stroke="#28303F" stroke-width="1.5" stroke-linecap="round" stroke-linejoin="round"/>
</svg>
