<svg width="24" height="24" viewBox="0 0 24 24" fill="none" xmlns="http://www.w3.org/2000/svg">
<path d="M12 12.182L11.4697 12.7124C11.6103 12.853 11.8011 12.932 12 12.932C12.1989 12.932 12.3897 12.853 12.5303 12.7124L12 12.182ZM12.2652 11.9169L11.7348 11.3865L12.2652 11.9169ZM11.7348 11.9169L11.2045 12.4472L11.7348 11.9169ZM12.5303 12.7124L12.7955 12.4472L11.7348 11.3865L11.4697 11.6517L12.5303 12.7124ZM11.2045 12.4472L11.4697 12.7124L12.5303 11.6517L12.2652 11.3865L11.2045 12.4472ZM8.55285 15.0988L10.409 16.955L11.4697 15.8943L9.61351 14.0382L8.55285 15.0988ZM13.591 16.955L15.4471 15.0988L14.3865 14.0382L12.5303 15.8943L13.591 16.955ZM14.3865 12.4472C14.8258 12.8865 14.8258 13.5988 14.3865 14.0382L15.4471 15.0988C16.4723 14.0737 16.4723 12.4117 15.4471 11.3865L14.3865 12.4472ZM15.4471 11.3865C14.422 10.3614 12.76 10.3614 11.7348 11.3865L12.7955 12.4472C13.2348 12.0078 13.9471 12.0078 14.3865 12.4472L15.4471 11.3865ZM9.61351 12.4472C10.0529 12.0078 10.7652 12.0078 11.2045 12.4472L12.2652 11.3865C11.24 10.3614 9.57798 10.3614 8.55285 11.3865L9.61351 12.4472ZM10.409 16.955C11.2877 17.8337 12.7123 17.8337 13.591 16.955L12.5303 15.8943C12.2374 16.1872 11.7626 16.1872 11.4697 15.8943L10.409 16.955ZM8.55285 11.3865C7.52773 12.4117 7.52773 14.0737 8.55285 15.0988L9.61351 14.0382C9.17417 13.5988 9.17417 12.8865 9.61351 12.4472L8.55285 11.3865Z" fill="#28303F"/>
<path d="M21.1235 5.90434L20.5378 6.37286L21.1235 5.90434ZM21.25 8.40312V18H22.75V8.40312H21.25ZM18 21.25H6V22.75H18V21.25ZM2.75 18V8.40312H1.25V18H2.75ZM7.9225 2.75H16.0775V1.25H7.9225V2.75ZM18.6153 3.96974L20.5378 6.37286L21.7091 5.43582L19.7866 3.0327L18.6153 3.96974ZM3.46218 6.37287L5.38468 3.96974L4.21337 3.0327L2.29087 5.43582L3.46218 6.37287ZM16.0775 2.75C17.0648 2.75 17.9986 3.19879 18.6153 3.96974L19.7866 3.0327C18.8852 1.90593 17.5205 1.25 16.0775 1.25V2.75ZM7.9225 1.25C6.47953 1.25 5.11479 1.90593 4.21337 3.0327L5.38468 3.96974C6.00143 3.19879 6.9352 2.75 7.9225 2.75V1.25ZM6 21.25C4.20507 21.25 2.75 19.7949 2.75 18H1.25C1.25 20.6234 3.37665 22.75 6 22.75V21.25ZM21.25 18C21.25 19.7949 19.7949 21.25 18 21.25V22.75C20.6234 22.75 22.75 20.6234 22.75 18H21.25ZM22.75 8.40312C22.75 7.32453 22.3829 6.27806 21.7091 5.43582L20.5378 6.37286C20.9988 6.94913 21.25 7.66514 21.25 8.40312H22.75ZM2.75 8.40312C2.75 7.66514 3.00116 6.94913 3.46218 6.37287L2.29087 5.43582C1.61708 6.27806 1.25 7.32453 1.25 8.40312H2.75Z" fill="#28303F"/>
<path d="M3 7H21" stroke="#28303F" stroke-width="1.5" stroke-linecap="round" stroke-linejoin="round"/>
</svg>
