<svg width="24" height="24" viewBox="0 0 24 24" fill="none" xmlns="http://www.w3.org/2000/svg">
<path d="M21.1235 5.90434L20.5378 6.37286L21.1235 5.90434ZM21.25 8.40312V18H22.75V8.40312H21.25ZM18 21.25H6V22.75H18V21.25ZM2.75 18V8.40312H1.25V18H2.75ZM7.9225 2.75H16.0775V1.25H7.9225V2.75ZM18.6153 3.96974L20.5378 6.37286L21.7091 5.43582L19.7866 3.0327L18.6153 3.96974ZM3.46218 6.37287L5.38468 3.96974L4.21337 3.0327L2.29087 5.43582L3.46218 6.37287ZM16.0775 2.75C17.0648 2.75 17.9986 3.19879 18.6153 3.96974L19.7866 3.0327C18.8852 1.90593 17.5205 1.25 16.0775 1.25V2.75ZM7.9225 1.25C6.47953 1.25 5.11479 1.90593 4.21337 3.0327L5.38468 3.96974C6.00143 3.19879 6.9352 2.75 7.9225 2.75V1.25ZM6 21.25C4.20507 21.25 2.75 19.7949 2.75 18H1.25C1.25 20.6234 3.37665 22.75 6 22.75V21.25ZM21.25 18C21.25 19.7949 19.7949 21.25 18 21.25V22.75C20.6234 22.75 22.75 20.6234 22.75 18H21.25ZM22.75 8.40312C22.75 7.32453 22.3829 6.27806 21.7091 5.43582L20.5378 6.37286C20.9988 6.94913 21.25 7.66514 21.25 8.40312H22.75ZM2.75 8.40312C2.75 7.66514 3.00116 6.94913 3.46218 6.37287L2.29087 5.43582C1.61708 6.27806 1.25 7.32453 1.25 8.40312H2.75Z" fill="#28303F"/>
<path d="M3 7H21" stroke="#28303F" stroke-width="1.5" stroke-linecap="round" stroke-linejoin="round"/>
<path d="M11.5303 13.0555C11.8232 13.3483 11.8232 13.8232 11.5303 14.1161C11.2374 14.409 10.7626 14.409 10.4697 14.1161L11.5303 13.0555ZM9.70711 12.2929L10.2374 11.7626L9.70711 12.2929ZM8.29289 12.2929L8.82322 12.8232V12.8232L8.29289 12.2929ZM7.53033 14.1161C7.23744 14.409 6.76256 14.409 6.46967 14.1161C6.17678 13.8232 6.17678 13.3483 6.46967 13.0555L7.53033 14.1161ZM9.75 17C9.75 17.4142 9.41421 17.75 9 17.75C8.58579 17.75 8.25 17.4142 8.25 17H9.75ZM8.25 12.5858C8.25 12.1716 8.58579 11.8358 9 11.8358C9.41421 11.8358 9.75 12.1716 9.75 12.5858H8.25ZM10.4697 14.1161L9.17678 12.8232L10.2374 11.7626L11.5303 13.0555L10.4697 14.1161ZM8.82322 12.8232L7.53033 14.1161L6.46967 13.0555L7.76256 11.7626L8.82322 12.8232ZM9.17678 12.8232C9.07915 12.7256 8.92085 12.7256 8.82322 12.8232L7.76256 11.7626C8.44598 11.0791 9.55402 11.0791 10.2374 11.7626L9.17678 12.8232ZM8.25 17V12.5858H9.75V17H8.25Z" fill="#28303F"/>
<path d="M17.5303 15.9445C17.8232 15.6517 17.8232 15.1768 17.5303 14.8839C17.2374 14.591 16.7626 14.591 16.4697 14.8839L17.5303 15.9445ZM15.7071 16.7071L16.2374 17.2374L15.7071 16.7071ZM14.2929 16.7071L14.8232 16.1768V16.1768L14.2929 16.7071ZM13.5303 14.8839C13.2374 14.591 12.7626 14.591 12.4697 14.8839C12.1768 15.1768 12.1768 15.6517 12.4697 15.9445L13.5303 14.8839ZM15.75 12C15.75 11.5858 15.4142 11.25 15 11.25C14.5858 11.25 14.25 11.5858 14.25 12H15.75ZM14.25 16.4142C14.25 16.8284 14.5858 17.1642 15 17.1642C15.4142 17.1642 15.75 16.8284 15.75 16.4142H14.25ZM16.4697 14.8839L15.1768 16.1768L16.2374 17.2374L17.5303 15.9445L16.4697 14.8839ZM14.8232 16.1768L13.5303 14.8839L12.4697 15.9445L13.7626 17.2374L14.8232 16.1768ZM15.1768 16.1768C15.0791 16.2744 14.9209 16.2744 14.8232 16.1768L13.7626 17.2374C14.446 17.9209 15.554 17.9209 16.2374 17.2374L15.1768 16.1768ZM14.25 12V16.4142H15.75V12H14.25Z" fill="#28303F"/>
</svg>
