<svg width="24" height="24" viewBox="0 0 24 24" fill="none" xmlns="http://www.w3.org/2000/svg">
<circle cx="19" cy="5" r="1" fill="#28303F"/>
<path d="M18.3507 9.33611L17.7984 9.84355L18.3507 9.33611ZM21.25 5C21.25 5.56081 20.9727 6.25832 20.5178 6.99273C20.075 7.70777 19.5217 8.36649 19.097 8.82867L20.2016 9.84355C20.6591 9.34565 21.2811 8.60914 21.7931 7.78255C22.293 6.97533 22.75 5.98483 22.75 5H21.25ZM18.903 8.82867C18.4783 8.36649 17.925 7.70777 17.4822 6.99273C17.0273 6.25832 16.75 5.56081 16.75 5H15.25C15.25 5.98483 15.707 6.97533 16.2069 7.78255C16.7189 8.60914 17.3409 9.34565 17.7984 9.84355L18.903 8.82867ZM16.75 5C16.75 4.05309 17.0318 3.53339 17.3719 3.23661C17.7305 2.92357 18.2778 2.75 19 2.75V1.25C18.0654 1.25 17.1126 1.47186 16.3855 2.10654C15.6397 2.75747 15.25 3.73777 15.25 5H16.75ZM19 2.75C19.7222 2.75 20.2695 2.92357 20.6281 3.23661C20.9682 3.53339 21.25 4.05309 21.25 5H22.75C22.75 3.73777 22.3603 2.75747 21.6145 2.10654C20.8874 1.47186 19.9346 1.25 19 1.25V2.75ZM19.097 8.82867C19.0636 8.86504 19.0289 8.87566 19 8.87566C18.9711 8.87566 18.9364 8.86504 18.903 8.82867L17.7984 9.84355C18.4503 10.553 19.5497 10.553 20.2016 9.84355L19.097 8.82867Z" fill="#28303F"/>
<path d="M7 14C7 12.8954 7.89543 12 9 12H15C16.1046 12 17 12.8954 17 14V20C17 21.1046 16.1046 22 15 22H9C7.89543 22 7 21.1046 7 20V14Z" stroke="#28303F" stroke-width="1.5" stroke-linejoin="round"/>
<path d="M11 14H13" stroke="#28303F" stroke-width="1.5" stroke-linecap="round" stroke-linejoin="round"/>
<path d="M4.84615 17H4C2.89543 17 2 16.1046 2 15V9C2 7.89543 2.89543 7 4 7H14" stroke="#28303F" stroke-width="1.5" stroke-linecap="round" stroke-linejoin="round"/>
</svg>
