<svg width="24" height="24" viewBox="0 0 24 24" fill="none" xmlns="http://www.w3.org/2000/svg">
<path d="M9.70615 2.6057L9.27605 1.99127L9.70615 2.6057ZM20.2938 6.80569L20.7239 6.19127L20.2938 6.80569ZM21.25 10.0826V20H22.75V10.0826H21.25ZM20 21.25H4V22.75H20V21.25ZM2.75 20V10.0826H1.25V20H2.75ZM4.13625 7.42012L10.1362 3.22012L9.27605 1.99127L3.27605 6.19127L4.13625 7.42012ZM13.8638 3.22012L19.8638 7.42012L20.7239 6.19127L14.7239 1.99127L13.8638 3.22012ZM10.1362 3.22012C11.2553 2.43679 12.7447 2.43679 13.8638 3.22012L14.7239 1.99127C13.0884 0.846406 10.9116 0.846408 9.27605 1.99127L10.1362 3.22012ZM4 21.25C3.30964 21.25 2.75 20.6904 2.75 20H1.25C1.25 21.5188 2.48122 22.75 4 22.75V21.25ZM21.25 20C21.25 20.6904 20.6904 21.25 20 21.25V22.75C21.5188 22.75 22.75 21.5188 22.75 20H21.25ZM22.75 10.0826C22.75 8.53263 21.9937 7.08013 20.7239 6.19127L19.8638 7.42012C20.7326 8.02829 21.25 9.0221 21.25 10.0826H22.75ZM2.75 10.0826C2.75 9.0221 3.26744 8.02829 4.13625 7.42012L3.27605 6.19127C2.00625 7.08013 1.25 8.53263 1.25 10.0826H2.75Z" fill="#28303F"/>
<path d="M18 22V12C18 10.8954 17.1046 10 16 10H8C6.89543 10 6 10.8954 6 12V22" stroke="#28303F" stroke-width="1.5"/>
<path d="M18 14L6 14" stroke="#28303F" stroke-width="1.5" stroke-linecap="round" stroke-linejoin="round"/>
<path d="M18 18L6 18" stroke="#28303F" stroke-width="1.5" stroke-linecap="round" stroke-linejoin="round"/>
</svg>
