<svg width="24" height="24" viewBox="0 0 24 24" fill="none" xmlns="http://www.w3.org/2000/svg">
<g opacity="0.4">
<path d="M15 12C15 10.3431 13.6569 9 12 9C10.3432 9 9.00001 10.3431 9.00001 12C9.00001 13.6569 10.3432 15 12 15C13.6569 15 15 13.6569 15 12Z" fill="#28303F"/>
<path fill-rule="evenodd" clip-rule="evenodd" d="M17.407 3.54084C17.6606 3.21334 18.1317 3.15344 18.4592 3.40705C19.7786 4.42877 20.8493 5.72507 21.5919 7.20275C22.3347 8.68052 22.7303 10.3019 22.7493 11.9488C22.7683 13.5957 22.41 15.2253 21.7015 16.7191C20.9929 18.2127 19.9523 19.5322 18.6566 20.5826C18.3348 20.8435 17.8625 20.7941 17.6017 20.4723C17.3409 20.1506 17.3902 19.6783 17.712 19.4174C18.8355 18.5066 19.7349 17.3649 20.3462 16.0762C20.9575 14.7876 21.2657 13.3836 21.2494 11.966C21.2331 10.5485 20.8926 9.15146 20.2517 7.87636C19.6108 6.60117 18.6852 5.47922 17.5408 4.59303C17.2133 4.33942 17.1534 3.86834 17.407 3.54084Z" fill="#28303F"/>
<path fill-rule="evenodd" clip-rule="evenodd" d="M6.59299 3.54084C6.33938 3.21334 5.8683 3.15344 5.5408 3.40705C4.22139 4.42877 3.15075 5.72507 2.40807 7.20275C1.66535 8.68052 1.26969 10.3019 1.25072 11.9488C1.23175 13.5957 1.58997 15.2253 2.29854 16.7191C3.00706 18.2127 4.0477 19.5322 5.3434 20.5826C5.66517 20.8435 6.13746 20.7941 6.39831 20.4723C6.65916 20.1506 6.60977 19.6783 6.28801 19.4174C5.16447 18.5066 4.26509 17.3649 3.65379 16.0762C3.04254 14.7876 2.73429 13.3836 2.75062 11.966C2.76695 10.5485 3.10746 9.15146 3.74832 7.87636C4.38922 6.60117 5.3148 5.47922 6.4592 4.59303C6.7867 4.33942 6.8466 3.86834 6.59299 3.54084Z" fill="#28303F"/>
</g>
<path fill-rule="evenodd" clip-rule="evenodd" d="M12.0156 15C12.4298 15 12.75 14.9102 12.75 14.9102V20.1637C12.75 20.4875 12.4142 20.75 12 20.75C11.5858 20.75 11.25 20.4875 11.25 20.1637V14.9102C11.25 14.9102 11.6014 15 12.0156 15Z" fill="#28303F"/>
<path fill-rule="evenodd" clip-rule="evenodd" d="M15.4091 7.53814C15.6642 7.2118 16.1356 7.15404 16.4619 7.40914C17.165 7.95876 17.736 8.65165 18.1323 9.44032C18.5286 10.2291 18.7398 11.0934 18.7496 11.9716C18.7595 12.8499 18.5676 13.7184 18.1888 14.5154C17.8102 15.3122 17.2546 16.0169 16.5637 16.581C16.2428 16.843 15.7704 16.7952 15.5084 16.4744C15.2465 16.1535 15.2942 15.681 15.6151 15.4191C16.1371 14.9929 16.5525 14.4641 16.834 13.8716C17.1155 13.2792 17.257 12.6365 17.2497 11.9884C17.2425 11.3403 17.0867 10.7004 16.7919 10.1137C16.4971 9.52692 16.0698 9.00654 15.5381 8.59093C15.2118 8.33583 15.154 7.86448 15.4091 7.53814Z" fill="#28303F"/>
<path fill-rule="evenodd" clip-rule="evenodd" d="M8.59089 7.53814C8.3358 7.2118 7.86445 7.15404 7.53811 7.40914C6.83498 7.95876 6.26401 8.65165 5.86775 9.44032C5.47142 10.2291 5.26017 11.0934 5.25036 11.9716C5.24055 12.8499 5.43245 13.7184 5.81117 14.5154C6.18983 15.3122 6.74538 16.0169 7.43631 16.581C7.75717 16.843 8.22963 16.7952 8.49159 16.4744C8.75355 16.1535 8.70581 15.681 8.38495 15.4191C7.86291 14.9929 7.44754 14.4641 7.16598 13.8716C6.88449 13.2792 6.74302 12.6365 6.75026 11.9884C6.7575 11.3403 6.91331 10.7004 7.20808 10.1137C7.50292 9.52692 7.93021 9.00654 8.46189 8.59093C8.78823 8.33583 8.84599 7.86448 8.59089 7.53814Z" fill="#28303F"/>
</svg>
