<svg width="24" height="24" viewBox="0 0 24 24" fill="none" xmlns="http://www.w3.org/2000/svg">
<path fill-rule="evenodd" clip-rule="evenodd" d="M15.4154 4.47602C15.1514 4.92266 15 5.44364 15 6C15 7.65685 16.3431 9 18 9C18.5564 9 19.0773 8.84855 19.524 8.58464L15.4154 4.47602ZM20.5846 7.52398C20.8486 7.07734 21 6.55636 21 6C21 4.34315 19.6569 3 18 3C17.4436 3 16.9227 3.15145 16.476 3.41536L20.5846 7.52398Z" fill="#28303F"/>
<path opacity="0.4" d="M21 19V17.3541C21 16.5363 20.5021 15.8008 19.7428 15.4971L17.7086 14.6835C16.7429 14.2971 15.6422 14.7156 15.177 15.646L15 16C15 16 12.5 15.5 10.5 13.5C8.5 11.5 8 9 8 9L8.35402 8.82299C9.28438 8.35781 9.70285 7.25714 9.31654 6.29136L8.50289 4.25722C8.19916 3.4979 7.46374 3 6.64593 3H5C3.89543 3 3 3.89543 3 5C3 13.8366 10.1634 21 19 21C20.1046 21 21 20.1046 21 19Z" fill="#28303F"/>
</svg>
