<svg width="24" height="24" viewBox="0 0 24 24" fill="none" xmlns="http://www.w3.org/2000/svg">
<path fill-rule="evenodd" clip-rule="evenodd" d="M19.75 9C19.75 9.41421 19.4142 9.75 19 9.75H17C15.4812 9.75 14.25 8.51878 14.25 7L14.25 5C14.25 4.58579 14.5858 4.25 15 4.25C15.4142 4.25 15.75 4.58579 15.75 5L15.75 7C15.75 7.06006 15.7542 7.11912 15.7624 7.17692L20.4697 2.46967C20.7626 2.17678 21.2374 2.17678 21.5303 2.46967C21.8232 2.76256 21.8232 3.23744 21.5303 3.53033L16.8231 8.23758C16.8809 8.24576 16.9399 8.25 17 8.25H19C19.4142 8.25 19.75 8.58579 19.75 9Z" fill="#28303F"/>
<path opacity="0.4" d="M21 19V17.3541C21 16.5363 20.5021 15.8008 19.7428 15.4971L17.7086 14.6835C16.7429 14.2971 15.6422 14.7156 15.177 15.646L15 16C15 16 12.5 15.5 10.5 13.5C8.5 11.5 8 9 8 9L8.35402 8.82299C9.28438 8.35781 9.70285 7.25714 9.31654 6.29136L8.50289 4.25722C8.19916 3.4979 7.46374 3 6.64593 3H5C3.89543 3 3 3.89543 3 5C3 13.8366 10.1634 21 19 21C20.1046 21 21 20.1046 21 19Z" fill="#28303F"/>
</svg>
