<svg width="24" height="24" viewBox="0 0 24 24" fill="none" xmlns="http://www.w3.org/2000/svg">
<path fill-rule="evenodd" clip-rule="evenodd" d="M13.5 3.75C13.0858 3.75 12.75 4.08579 12.75 4.5C12.75 4.91421 13.0858 5.25 13.5 5.25C13.9142 5.25 14.25 4.91421 14.25 4.5C14.25 4.08579 13.9142 3.75 13.5 3.75ZM15.622 5.25C15.7049 5.01542 15.75 4.76298 15.75 4.5C15.75 3.25736 14.7426 2.25 13.5 2.25C12.2574 2.25 11.25 3.25736 11.25 4.5C11.25 5.74264 12.2574 6.75 13.5 6.75H19.5C20.7426 6.75 21.75 5.74264 21.75 4.5C21.75 3.25736 20.7426 2.25 19.5 2.25C18.2574 2.25 17.25 3.25736 17.25 4.5C17.25 4.76298 17.2951 5.01542 17.378 5.25H15.622ZM19.5 5.25C19.9142 5.25 20.25 4.91421 20.25 4.5C20.25 4.08579 19.9142 3.75 19.5 3.75C19.0858 3.75 18.75 4.08579 18.75 4.5C18.75 4.91421 19.0858 5.25 19.5 5.25Z" fill="#28303F"/>
<path opacity="0.4" d="M21 19V17.3541C21 16.5363 20.5021 15.8008 19.7428 15.4971L17.7086 14.6835C16.7429 14.2971 15.6422 14.7156 15.177 15.646L15 16C15 16 12.5 15.5 10.5 13.5C8.5 11.5 8 9 8 9L8.35402 8.82299C9.28438 8.35781 9.70285 7.25714 9.31654 6.29136L8.50289 4.25722C8.19916 3.4979 7.46374 3 6.64593 3H5C3.89543 3 3 3.89543 3 5C3 13.8366 10.1634 21 19 21C20.1046 21 21 20.1046 21 19Z" fill="#28303F"/>
</svg>
