<svg width="24" height="24" viewBox="0 0 24 24" fill="none" xmlns="http://www.w3.org/2000/svg">
<path opacity="0.4" d="M21 19V17.3541C21 16.5363 20.5021 15.8008 19.7428 15.4971L17.7086 14.6835C16.7429 14.2971 15.6422 14.7156 15.177 15.646L15 16C15 16 12.5 15.5 10.5 13.5C8.5 11.5 8 9 8 9L8.35402 8.82299C9.28438 8.35781 9.70285 7.25714 9.31654 6.29136L8.50289 4.25722C8.19916 3.4979 7.46374 3 6.64593 3H5C3.89543 3 3 3.89543 3 5C3 13.8366 10.1634 21 19 21C20.1046 21 21 20.1046 21 19Z" fill="#28303F"/>
<path fill-rule="evenodd" clip-rule="evenodd" d="M15.5302 7.53033C15.2373 7.82322 14.7624 7.82322 14.4695 7.53033L13.1766 6.23744C12.4932 5.55402 12.4932 4.44598 13.1766 3.76256L14.4695 2.46967C14.7624 2.17678 15.2373 2.17678 15.5302 2.46967C15.8231 2.76256 15.8231 3.23744 15.5302 3.53033L14.2373 4.82322C14.1397 4.92085 14.1397 5.07915 14.2373 5.17678L15.5302 6.46967C15.8231 6.76256 15.8231 7.23744 15.5302 7.53033Z" fill="#28303F"/>
<path fill-rule="evenodd" clip-rule="evenodd" d="M19.5302 7.53033C19.2373 7.82322 18.7624 7.82322 18.4695 7.53033L17.1766 6.23744C16.4932 5.55402 16.4932 4.44598 17.1766 3.76256L18.4695 2.46967C18.7624 2.17678 19.2373 2.17678 19.5302 2.46967C19.8231 2.76256 19.8231 3.23744 19.5302 3.53033L18.8105 4.25H20.9998C21.4141 4.25 21.7498 4.58579 21.7498 5C21.7498 5.41421 21.4141 5.75 20.9998 5.75H18.8105L19.5302 6.46967C19.8231 6.76256 19.8231 7.23744 19.5302 7.53033Z" fill="#28303F"/>
</svg>
