<svg width="24" height="24" viewBox="0 0 24 24" fill="none" xmlns="http://www.w3.org/2000/svg">
<path opacity="0.4" d="M13 3H11C6.02944 3 2 7.02944 2 12V17C2 19.2091 3.79086 21 6 21H13C17.9706 21 22 16.9706 22 12C22 7.02944 17.9706 3 13 3Z" fill="#28303F"/>
<path fill-rule="evenodd" clip-rule="evenodd" d="M13.0465 9.18756C14.1873 9.61222 15 10.7112 15 12C15 13.6569 13.6569 15 12 15C11.4437 15 10.9227 14.8486 10.4761 14.5847L14.5846 10.4762C14.3264 10.0394 13.9607 9.67365 13.5239 9.41553L9.41539 13.524C9.32606 13.3729 9.24961 13.2132 9.18756 13.0465C9.06628 12.7206 9 12.3681 9 12C9 10.3431 10.3431 9 12 9C12.3681 9 12.7206 9.06628 13.0465 9.18756Z" fill="#28303F"/>
</svg>
