<svg width="24" height="24" viewBox="0 0 24 24" fill="none" xmlns="http://www.w3.org/2000/svg">
<path opacity="0.4" d="M13 3H11C6.02944 3 2 7.02944 2 12V17C2 19.2091 3.79086 21 6 21H13C17.9706 21 22 16.9706 22 12C22 7.02944 17.9706 3 13 3Z" fill="#28303F"/>
<path fill-rule="evenodd" clip-rule="evenodd" d="M8.59971 16.4504L8.5984 16.4522C8.34945 16.7817 7.88069 16.848 7.55004 16.6C7.21867 16.3515 7.15152 15.8814 7.40004 15.55L7.40082 15.549L7.40174 15.5478L7.404 15.5448L7.41022 15.5366L7.42947 15.512C7.4453 15.492 7.46715 15.465 7.4949 15.4319C7.55036 15.3658 7.62969 15.2753 7.73199 15.1686C7.93597 14.9557 8.23481 14.6746 8.62142 14.3934C9.39174 13.8332 10.5434 13.25 12 13.25C13.4567 13.25 14.6083 13.8332 15.3787 14.3934C15.7653 14.6746 16.0641 14.9557 16.2681 15.1686C16.3704 15.2753 16.4497 15.3658 16.5052 15.4319C16.5329 15.465 16.5548 15.492 16.5706 15.512L16.5899 15.5366L16.5961 15.5448L16.5984 15.5478L16.5993 15.549L16.6 15.55C16.8486 15.8814 16.7814 16.3515 16.45 16.6C16.1195 16.8479 15.6508 16.7817 15.4018 16.4523M15.4018 16.4523L15.3946 16.4431C15.3872 16.4338 15.3744 16.4178 15.3562 16.3962C15.3199 16.3529 15.2625 16.2872 15.1851 16.2064C15.0297 16.0443 14.7973 15.8254 14.4964 15.6066C13.8917 15.1668 13.0434 14.75 12 14.75C10.9567 14.75 10.1083 15.1668 9.50367 15.6066C9.20278 15.8254 8.97037 16.0443 8.81497 16.2064C8.73758 16.2872 8.6802 16.3529 8.64386 16.3962C8.62572 16.4178 8.6129 16.4338 8.60553 16.4431L8.5984 16.4522L8.59971 16.4504M15.4018 16.4523L15.4012 16.4515L15.4006 16.4507C15.4006 16.4507 15.4019 16.4524 15.3946 16.4431L15.4006 16.4507L15.4018 16.4523Z" fill="#28303F"/>
</svg>
