<svg width="24" height="24" viewBox="0 0 24 24" fill="none" xmlns="http://www.w3.org/2000/svg">
<path opacity="0.4" d="M13 3H11C6.02944 3 2 7.02944 2 12V17C2 19.2091 3.79086 21 6 21H13C17.9706 21 22 16.9706 22 12C22 7.02944 17.9706 3 13 3Z" fill="#28303F"/>
<path d="M12.2651 9.91685L12 10.182L11.7348 9.91685C11.0026 9.18462 9.81538 9.18462 9.08315 9.91685C8.35092 10.6491 8.35092 11.8363 9.08315 12.5685L10.9393 14.4247C11.5251 15.0104 12.4748 15.0104 13.0606 14.4247L14.9168 12.5685C15.649 11.8363 15.649 10.6491 14.9168 9.91685C14.1845 9.18462 12.9974 9.18462 12.2651 9.91685Z" fill="#28303F"/>
</svg>
