<svg width="24" height="24" viewBox="0 0 24 24" fill="none" xmlns="http://www.w3.org/2000/svg">
<path opacity="0.4" d="M13 3H11C6.02944 3 2 7.02944 2 12V17C2 19.2091 3.79086 21 6 21H13C17.9706 21 22 16.9706 22 12C22 7.02944 17.9706 3 13 3Z" fill="#28303F"/>
<circle cx="12" cy="10" r="2" fill="#28303F"/>
<path d="M12.0001 12C10.4859 12 9.16818 12.8413 8.489 14.0821C7.95861 15.051 8.89548 16 10.0001 16H14.0001C15.1046 16 16.0415 15.051 15.5111 14.0821C14.8319 12.8413 13.5142 12 12.0001 12Z" fill="#28303F"/>
</svg>
