<svg width="24" height="24" viewBox="0 0 24 24" fill="none" xmlns="http://www.w3.org/2000/svg">
<path opacity="0.4" d="M13 3H11C6.02944 3 2 7.02944 2 12V17C2 19.2091 3.79086 21 6 21H13C17.9706 21 22 16.9706 22 12C22 7.02944 17.9706 3 13 3Z" fill="#28303F"/>
<path fill-rule="evenodd" clip-rule="evenodd" d="M12.75 10.8108L13.4697 11.5304C13.7626 11.8233 14.2374 11.8233 14.5303 11.5304C14.8232 11.2375 14.8232 10.7627 14.5303 10.4698L13.2374 9.17687C12.554 8.49345 11.446 8.49345 10.7626 9.17687L9.46967 10.4698C9.17678 10.7627 9.17678 11.2375 9.46967 11.5304C9.76256 11.8233 10.2374 11.8233 10.5303 11.5304L11.25 10.8108V15.0001C11.25 15.4143 11.5858 15.7501 12 15.7501C12.4142 15.7501 12.75 15.4143 12.75 15.0001V10.8108Z" fill="#28303F"/>
</svg>
