<svg width="24" height="24" viewBox="0 0 24 24" fill="none" xmlns="http://www.w3.org/2000/svg">
<path opacity="0.4" d="M10.8889 3H9.77778C5.48223 3 2 6.52576 2 10.875V14.25C2 15.4926 2.99492 16.5 4.22222 16.5H10.8889C14.5708 16.5 17.5556 13.4779 17.5556 9.75C17.5556 9.20688 17.4922 8.67875 17.3726 8.17276C16.6711 5.20566 14.0344 3 10.8889 3Z" fill="#28303F"/>
<path d="M10.8888 16.5001C14.5707 16.5001 17.5555 13.478 17.5555 9.75009C17.5555 9.20698 17.4921 8.67884 17.3725 8.17285C20.0985 9.39704 21.9999 12.1612 21.9999 15.3751V18.7501C21.9999 19.9927 21.005 21.0001 19.7777 21.0001H13.1111C10.2083 21.0001 7.73892 19.1218 6.82373 16.5001H10.8888Z" fill="#28303F"/>
</svg>
