<svg width="24" height="24" viewBox="0 0 24 24" fill="none" xmlns="http://www.w3.org/2000/svg">
<path opacity="0.4" d="M13 3H11C6.02944 3 2 7.02944 2 12V17C2 19.2091 3.79086 21 6 21H13C17.9706 21 22 16.9706 22 12C22 7.02944 17.9706 3 13 3Z" fill="#28303F"/>
<path fill-rule="evenodd" clip-rule="evenodd" d="M11.25 13.1892L10.5303 12.4696C10.2374 12.1767 9.76256 12.1767 9.46967 12.4696C9.17678 12.7625 9.17678 13.2373 9.46967 13.5302L10.7626 14.8231C11.446 15.5065 12.554 15.5065 13.2374 14.8231L14.5303 13.5302C14.8232 13.2373 14.8232 12.7625 14.5303 12.4696C14.2374 12.1767 13.7626 12.1767 13.4697 12.4696L12.75 13.1892L12.75 8.99991C12.75 8.58569 12.4142 8.24991 12 8.24991C11.5858 8.24991 11.25 8.58569 11.25 8.99991L11.25 13.1892Z" fill="#28303F"/>
</svg>
