<svg width="24" height="24" viewBox="0 0 24 24" fill="none" xmlns="http://www.w3.org/2000/svg">
<path opacity="0.4" d="M2 7C2 4.79086 3.79086 3 6 3H18C20.2091 3 22 4.79086 22 7V17C22 19.2091 20.2091 21 18 21H6C3.79086 21 2 19.2091 2 17V7Z" fill="#28303F"/>
<path fill-rule="evenodd" clip-rule="evenodd" d="M14.25 14C14.25 13.5858 14.5858 13.25 15 13.25H18C18.4142 13.25 18.75 13.5858 18.75 14C18.75 14.4142 18.4142 14.75 18 14.75H15C14.5858 14.75 14.25 14.4142 14.25 14ZM14.25 17C14.25 16.5858 14.5858 16.25 15 16.25H18C18.4142 16.25 18.75 16.5858 18.75 17C18.75 17.4142 18.4142 17.75 18 17.75H15C14.5858 17.75 14.25 17.4142 14.25 17Z" fill="#28303F"/>
<path d="M9 6H7C5.89543 6 5 6.89543 5 8C5 9.10457 5.89543 10 7 10H9C10.1046 10 11 9.10457 11 8C11 6.89543 10.1046 6 9 6Z" fill="#28303F"/>
</svg>
