<svg width="24" height="24" viewBox="0 0 24 24" fill="none" xmlns="http://www.w3.org/2000/svg">
<path fill-rule="evenodd" clip-rule="evenodd" d="M18.7626 2.17687C19.446 1.49345 20.554 1.49345 21.2374 2.17687L22.5303 3.46976C22.8232 3.76266 22.8232 4.23753 22.5303 4.53042C22.2374 4.82332 21.7626 4.82332 21.4697 4.53042L20.75 3.81075V8.00009C20.75 8.41431 20.4142 8.75009 20 8.75009C19.5858 8.75009 19.25 8.41431 19.25 8.00009V3.81075L18.5303 4.53042C18.2374 4.82332 17.7626 4.82332 17.4697 4.53042C17.1768 4.23753 17.1768 3.76266 17.4697 3.46976L18.7626 2.17687Z" fill="#28303F"/>
<path opacity="0.4" d="M2 10C2 8.34315 3.34315 7 5 7H15C16.6569 7 18 8.34315 18 10V18C18 19.6569 16.6569 21 15 21H5C3.34315 21 2 19.6569 2 18V10Z" fill="#28303F"/>
<path fill-rule="evenodd" clip-rule="evenodd" d="M5.40004 11.55C5.64857 11.2187 6.11867 11.1515 6.45004 11.4L8.65004 13.05C9.45004 13.65 10.55 13.65 11.35 13.05L13.55 11.4C13.8814 11.1515 14.3515 11.2187 14.6 11.55C14.8486 11.8814 14.7814 12.3515 14.45 12.6L12.25 14.25C10.9167 15.25 9.08338 15.25 7.75004 14.25L5.55004 12.6C5.21867 12.3515 5.15152 11.8814 5.40004 11.55Z" fill="#28303F"/>
</svg>
