<svg width="24" height="24" viewBox="0 0 24 24" fill="none" xmlns="http://www.w3.org/2000/svg">
<path fill-rule="evenodd" clip-rule="evenodd" d="M17.8105 4.25L18.5302 3.53033C18.8231 3.23744 18.8231 2.76256 18.5302 2.46967C18.2373 2.17678 17.7624 2.17678 17.4695 2.46967L16.1766 3.76256C15.4932 4.44598 15.4932 5.55402 16.1766 6.23744L17.4695 7.53033C17.7624 7.82322 18.2373 7.82322 18.5302 7.53033C18.8231 7.23744 18.8231 6.76256 18.5302 6.46967L17.8105 5.75L21.9998 5.75C22.4141 5.75 22.7498 5.41421 22.7498 5C22.7498 4.58579 22.4141 4.25 21.9998 4.25L17.8105 4.25Z" fill="#28303F"/>
<path opacity="0.4" d="M2 10C2 8.34315 3.34315 7 5 7H15C16.6569 7 18 8.34315 18 10V18C18 19.6569 16.6569 21 15 21H5C3.34315 21 2 19.6569 2 18V10Z" fill="#28303F"/>
<path fill-rule="evenodd" clip-rule="evenodd" d="M5.40004 11.55C5.64857 11.2187 6.11867 11.1515 6.45004 11.4L8.65004 13.05C9.45004 13.65 10.55 13.65 11.35 13.05L13.55 11.4C13.8814 11.1515 14.3515 11.2187 14.6 11.55C14.8486 11.8814 14.7814 12.3515 14.45 12.6L12.25 14.25C10.9167 15.25 9.08338 15.25 7.75004 14.25L5.55004 12.6C5.21867 12.3515 5.15152 11.8814 5.40004 11.55Z" fill="#28303F"/>
</svg>
