<svg width="24" height="24" viewBox="0 0 24 24" fill="none" xmlns="http://www.w3.org/2000/svg">
<path fill-rule="evenodd" clip-rule="evenodd" d="M20.75 4C20.75 3.58579 20.4142 3.25 20 3.25C19.5858 3.25 19.25 3.58579 19.25 4V5.25L18 5.25C17.5858 5.25 17.25 5.58579 17.25 6C17.25 6.41421 17.5858 6.75 18 6.75H19.25V8C19.25 8.41421 19.5858 8.75 20 8.75C20.4142 8.75 20.75 8.41421 20.75 8V6.75H22C22.4142 6.75 22.75 6.41421 22.75 6C22.75 5.58579 22.4142 5.25 22 5.25L20.75 5.25V4Z" fill="#28303F"/>
<path opacity="0.4" d="M2 10C2 8.34315 3.34315 7 5 7H15C16.6569 7 18 8.34315 18 10V18C18 19.6569 16.6569 21 15 21H5C3.34315 21 2 19.6569 2 18V10Z" fill="#28303F"/>
<path fill-rule="evenodd" clip-rule="evenodd" d="M5.40004 11.55C5.64857 11.2187 6.11867 11.1515 6.45004 11.4L9.25004 13.5C9.69449 13.8334 10.3056 13.8334 10.75 13.5L13.55 11.4C13.8814 11.1515 14.3515 11.2187 14.6 11.55C14.8486 11.8814 14.7814 12.3515 14.45 12.6L11.65 14.7C10.6723 15.4334 9.32782 15.4334 8.35004 14.7L5.55004 12.6C5.21867 12.3515 5.15152 11.8814 5.40004 11.55Z" fill="#28303F"/>
</svg>
