<svg width="24" height="24" viewBox="0 0 24 24" fill="none" xmlns="http://www.w3.org/2000/svg">
<path opacity="0.4" d="M2 10C2 8.34315 3.34315 7 5 7H15C16.6569 7 18 8.34315 18 10V18C18 19.6569 16.6569 21 15 21H5C3.34315 21 2 19.6569 2 18V10Z" fill="#28303F"/>
<path fill-rule="evenodd" clip-rule="evenodd" d="M5.40004 11.55C5.64857 11.2187 6.11867 11.1515 6.45004 11.4L8.65004 13.05C9.45004 13.65 10.55 13.65 11.35 13.05L13.55 11.4C13.8814 11.1515 14.3515 11.2187 14.6 11.55C14.8486 11.8814 14.7814 12.3515 14.45 12.6L12.25 14.25C10.9167 15.25 9.08338 15.25 7.75004 14.25L5.55004 12.6C5.21867 12.3515 5.15152 11.8814 5.40004 11.55Z" fill="#28303F"/>
<path d="M22 7C22 9.20914 20.2092 11 18 11C15.7909 11 14 9.20914 14 7C14 4.79086 15.7909 3 18 3C20.2092 3 22 4.79086 22 7Z" fill="#28303F"/>
</svg>
