<svg width="24" height="24" viewBox="0 0 24 24" fill="none" xmlns="http://www.w3.org/2000/svg">
<path d="M16.365 4.70626L18.2191 7.02391C18.6195 7.52432 19.3805 7.52432 19.7809 7.02391L21.635 4.70626C21.8713 4.41091 22 4.04394 22 3.6657V3.59099C22 2.71231 21.2877 2 20.409 2C19.9871 2 19.5824 2.16762 19.284 2.46599L19 2.75L18.716 2.46599C18.4176 2.16762 18.0129 2 17.591 2C16.7123 2 16 2.71231 16 3.59099V3.6657C16 4.04394 16.1287 4.41091 16.365 4.70626Z" fill="#28303F"/>
<path opacity="0.4" d="M2 10C2 8.34315 3.34315 7 5 7H15C16.6569 7 18 8.34315 18 10V18C18 19.6569 16.6569 21 15 21H5C3.34315 21 2 19.6569 2 18V10Z" fill="#28303F"/>
<path fill-rule="evenodd" clip-rule="evenodd" d="M5.40004 11.55C5.64857 11.2187 6.11867 11.1515 6.45004 11.4L8.65004 13.05C9.45004 13.65 10.55 13.65 11.35 13.05L13.55 11.4C13.8814 11.1515 14.3515 11.2187 14.6 11.55C14.8486 11.8814 14.7814 12.3515 14.45 12.6L12.25 14.25C10.9167 15.25 9.08338 15.25 7.75004 14.25L5.55004 12.6C5.21867 12.3515 5.15152 11.8814 5.40004 11.55Z" fill="#28303F"/>
</svg>
