<svg width="24" height="24" viewBox="0 0 24 24" fill="none" xmlns="http://www.w3.org/2000/svg">
<path fill-rule="evenodd" clip-rule="evenodd" d="M19.25 6.18949L18.5303 5.46982C18.2374 5.17693 17.7626 5.17693 17.4697 5.46982C17.1768 5.76271 17.1768 6.23759 17.4697 6.53048L18.7626 7.82337C19.446 8.50679 20.554 8.50679 21.2374 7.82337L22.5303 6.53048C22.8232 6.23759 22.8232 5.76271 22.5303 5.46982C22.2374 5.17693 21.7626 5.17693 21.4697 5.46982L20.75 6.18949L20.75 2.00015C20.75 1.58594 20.4142 1.25015 20 1.25015C19.5858 1.25015 19.25 1.58594 19.25 2.00015L19.25 6.18949Z" fill="#28303F"/>
<path opacity="0.4" d="M2 10C2 8.34315 3.34315 7 5 7H15C16.6569 7 18 8.34315 18 10V18C18 19.6569 16.6569 21 15 21H5C3.34315 21 2 19.6569 2 18V10Z" fill="#28303F"/>
<path fill-rule="evenodd" clip-rule="evenodd" d="M5.40004 11.55C5.64857 11.2187 6.11867 11.1515 6.45004 11.4L8.65004 13.05C9.45004 13.65 10.55 13.65 11.35 13.05L13.55 11.4C13.8814 11.1515 14.3515 11.2187 14.6 11.55C14.8486 11.8814 14.7814 12.3515 14.45 12.6L12.25 14.25C10.9167 15.25 9.08338 15.25 7.75004 14.25L5.55004 12.6C5.21867 12.3515 5.15152 11.8814 5.40004 11.55Z" fill="#28303F"/>
</svg>
