<svg width="24" height="24" viewBox="0 0 24 24" fill="none" xmlns="http://www.w3.org/2000/svg">
<path opacity="0.4" d="M2 10C2 8.34315 3.34315 7 5 7H15C16.6569 7 18 8.34315 18 10V18C18 19.6569 16.6569 21 15 21H5C3.34315 21 2 19.6569 2 18V10Z" fill="#28303F"/>
<path fill-rule="evenodd" clip-rule="evenodd" d="M21.3089 9.24822C21.745 8.60751 22 7.83353 22 7C22 4.79086 20.2091 3 18 3C15.7909 3 14 4.79086 14 7C14 9.20914 15.7909 11 18 11C18.8335 11 19.6075 10.745 20.2482 10.3089L14.6912 4.75182C14.9748 4.33514 15.3351 3.97483 15.7518 3.69116L21.3089 9.24822Z" fill="#28303F"/>
<path fill-rule="evenodd" clip-rule="evenodd" d="M5.15004 11.55C5.39857 11.2187 5.86867 11.1515 6.20004 11.4L8.40004 13.05C9.20004 13.65 10.3 13.65 11.1 13.05L13.3 11.4C13.6314 11.1515 14.1015 11.2187 14.35 11.55C14.5986 11.8814 14.5314 12.3515 14.2 12.6L12 14.25C10.6667 15.25 8.83338 15.25 7.50004 14.25L5.30004 12.6C4.96867 12.3515 4.90152 11.8814 5.15004 11.55Z" fill="#28303F"/>
</svg>
