<svg width="24" height="24" viewBox="0 0 24 24" fill="none" xmlns="http://www.w3.org/2000/svg">
<path fill-rule="evenodd" clip-rule="evenodd" d="M21.8234 3.76256C22.5068 4.44598 22.5068 5.55402 21.8234 6.23744L20.5305 7.53033C20.2376 7.82322 19.7627 7.82322 19.4698 7.53033C19.1769 7.23744 19.1769 6.76256 19.4698 6.46967L20.1895 5.75L16.0002 5.75C15.5859 5.75 15.2502 5.41421 15.2502 5C15.2502 4.58579 15.5859 4.25 16.0002 4.25L20.1895 4.25L19.4698 3.53033C19.1769 3.23744 19.1769 2.76256 19.4698 2.46967C19.7627 2.17678 20.2376 2.17678 20.5305 2.46967L21.8234 3.76256Z" fill="#28303F"/>
<path opacity="0.4" d="M2 10C2 8.34315 3.34315 7 5 7H15C16.6569 7 18 8.34315 18 10V18C18 19.6569 16.6569 21 15 21H5C3.34315 21 2 19.6569 2 18V10Z" fill="#28303F"/>
<path fill-rule="evenodd" clip-rule="evenodd" d="M5.40004 11.55C5.64857 11.2187 6.11867 11.1515 6.45004 11.4L8.65004 13.05C9.45004 13.65 10.55 13.65 11.35 13.05L13.55 11.4C13.8814 11.1515 14.3515 11.2187 14.6 11.55C14.8486 11.8814 14.7814 12.3515 14.45 12.6L12.25 14.25C10.9167 15.25 9.08338 15.25 7.75004 14.25L5.55004 12.6C5.21867 12.3515 5.15152 11.8814 5.40004 11.55Z" fill="#28303F"/>
</svg>
