<svg width="24" height="24" viewBox="0 0 24 24" fill="none" xmlns="http://www.w3.org/2000/svg">
<path opacity="0.4" d="M2 7C2 4.79086 3.79086 3 6 3H18C20.2091 3 22 4.79086 22 7V17C22 19.2091 20.2091 21 18 21H6C3.79086 21 2 19.2091 2 17V7Z" fill="#28303F"/>
<path fill-rule="evenodd" clip-rule="evenodd" d="M1.46967 1.46967C1.76256 1.17678 2.23744 1.17678 2.53033 1.46967L11.4579 10.3972C12.2589 10.5325 13.0994 10.3657 13.8028 9.89684L17.584 7.37604C17.9286 7.14628 18.3943 7.23941 18.624 7.58405C18.8538 7.9287 18.7607 8.39435 18.416 8.62412L14.6348 11.1449C14.1031 11.4994 13.5178 11.7357 12.9146 11.8539L22.5303 21.4697C22.8232 21.7626 22.8232 22.2374 22.5303 22.5303C22.2374 22.8232 21.7626 22.8232 21.4697 22.5303L19.6045 20.6652C19.1133 20.8805 18.5706 21 18 21H6C3.79086 21 2 19.2091 2 17V6.99996C2 5.91082 2.43529 4.92336 3.14138 4.20204L1.46967 2.53033C1.17678 2.23744 1.17678 1.76256 1.46967 1.46967Z" fill="#28303F"/>
</svg>
