<svg width="24" height="24" viewBox="0 0 24 24" fill="none" xmlns="http://www.w3.org/2000/svg">
<path opacity="0.4" d="M16 5H8C5.23858 5 3 7.23858 3 10V15C3 17.2091 4.79086 19 7 19H17C19.2091 19 21 17.2091 21 15V10C21 7.23858 18.7614 5 16 5Z" fill="#28303F"/>
<path d="M17 18.9998V20.4998C17 21.3283 16.3284 21.9998 15.5 21.9998C14.6716 21.9998 14 21.3283 14 20.4998V18.9998H17Z" fill="#28303F"/>
<path d="M13 14.9998V9.99983C13 7.2384 10.7614 4.99983 8 4.99983C5.23858 4.99983 3 7.2384 3 9.99983V14.9998C3 17.209 4.79086 18.9998 7 18.9998H9C11.2091 18.9998 13 17.209 13 14.9998Z" fill="#28303F"/>
<path fill-rule="evenodd" clip-rule="evenodd" d="M17.5077 1.97262C16.8173 1.97262 16.2577 2.31145 16.2577 2.72942V4.99983C16.2577 4.99983 16.2577 4.99983 15.5077 4.99983C14.7577 4.99983 14.7577 4.99983 14.7577 4.99983V2.72942C14.7577 1.80988 15.9889 1.06445 17.5077 1.06445H18.5077C18.9219 1.06445 19.2577 1.26775 19.2577 1.51853C19.2577 1.76932 18.9219 1.97262 18.5077 1.97262H17.5077Z" fill="#28303F"/>
</svg>
