<svg width="24" height="24" viewBox="0 0 24 24" fill="none" xmlns="http://www.w3.org/2000/svg">
<path opacity="0.4" d="M18 3H6C3.79086 3 2 4.79086 2 7V17C2 19.2091 3.79086 21 6 21H18C20.2091 21 22 19.2091 22 17V7C22 4.79086 20.2091 3 18 3Z" fill="#28303F"/>
<path fill-rule="evenodd" clip-rule="evenodd" d="M5.37604 7.58405C5.60581 7.23941 6.07146 7.14628 6.4161 7.37604L10.1973 9.89684C11.289 10.6246 12.7112 10.6246 13.8029 9.89684L17.5841 7.37604C17.9287 7.14628 18.3944 7.23941 18.6241 7.58405C18.8539 7.9287 18.7608 8.39435 18.4161 8.62412L14.6349 11.1449C13.0394 12.2086 10.9608 12.2086 9.36525 11.1449L5.58405 8.62412C5.23941 8.39435 5.14628 7.9287 5.37604 7.58405Z" fill="#28303F"/>
<path fill-rule="evenodd" clip-rule="evenodd" d="M1.25 15C1.25 14.5858 1.58579 14.25 2 14.25H8C8.41421 14.25 8.75 14.5858 8.75 15C8.75 15.4142 8.41421 15.75 8 15.75H2C1.58579 15.75 1.25 15.4142 1.25 15Z" fill="#28303F"/>
<path fill-rule="evenodd" clip-rule="evenodd" d="M1.25 18C1.25 17.5858 1.58579 17.25 2 17.25H8C8.41421 17.25 8.75 17.5858 8.75 18C8.75 18.4142 8.41421 18.75 8 18.75H2C1.58579 18.75 1.25 18.4142 1.25 18Z" fill="#28303F"/>
</svg>
