<svg width="24" height="24" viewBox="0 0 24 24" fill="none" xmlns="http://www.w3.org/2000/svg">
<path fill-rule="evenodd" clip-rule="evenodd" d="M22.75 5C22.75 5.41421 22.4142 5.75 22 5.75L18 5.75C17.5858 5.75 17.25 5.41421 17.25 5C17.25 4.58579 17.5858 4.25 18 4.25L22 4.25C22.4142 4.25 22.75 4.58579 22.75 5Z" fill="#28303F"/>
<path opacity="0.4" d="M2 10C2 8.34315 3.34315 7 5 7H15C16.6569 7 18 8.34315 18 10V18C18 19.6569 16.6569 21 15 21H5C3.34315 21 2 19.6569 2 18V10Z" fill="#28303F"/>
<path fill-rule="evenodd" clip-rule="evenodd" d="M5.40004 11.55C5.64857 11.2187 6.11867 11.1515 6.45004 11.4L8.65004 13.05C9.45004 13.65 10.55 13.65 11.35 13.05L13.55 11.4C13.8814 11.1515 14.3515 11.2187 14.6 11.55C14.8486 11.8814 14.7814 12.3515 14.45 12.6L12.25 14.25C10.9167 15.25 9.08338 15.25 7.75004 14.25L5.55004 12.6C5.21867 12.3515 5.15152 11.8814 5.40004 11.55Z" fill="#28303F"/>
</svg>
