<svg width="24" height="24" viewBox="0 0 24 24" fill="none" xmlns="http://www.w3.org/2000/svg">
<g opacity="0.4">
<path fill-rule="evenodd" clip-rule="evenodd" d="M22 3.25C22.4142 3.25 22.75 3.58579 22.75 4V20C22.75 20.4142 22.4142 20.75 22 20.75C21.5858 20.75 21.25 20.4142 21.25 20V4C21.25 3.58579 21.5858 3.25 22 3.25Z" fill="#28303F"/>
<path fill-rule="evenodd" clip-rule="evenodd" d="M18 6.25C18.4142 6.25 18.75 6.58579 18.75 7V20C18.75 20.4142 18.4142 20.75 18 20.75C17.5858 20.75 17.25 20.4142 17.25 20V7C17.25 6.58579 17.5858 6.25 18 6.25Z" fill="#28303F"/>
<path fill-rule="evenodd" clip-rule="evenodd" d="M14 9.25C14.4142 9.25 14.75 9.58579 14.75 10V20C14.75 20.4142 14.4142 20.75 14 20.75C13.5858 20.75 13.25 20.4142 13.25 20V10C13.25 9.58579 13.5858 9.25 14 9.25Z" fill="#28303F"/>
<path fill-rule="evenodd" clip-rule="evenodd" d="M10 12.25C10.4142 12.25 10.75 12.5858 10.75 13V20C10.75 20.4142 10.4142 20.75 10 20.75C9.58579 20.75 9.25 20.4142 9.25 20V13C9.25 12.5858 9.58579 12.25 10 12.25Z" fill="#28303F"/>
</g>
<path fill-rule="evenodd" clip-rule="evenodd" d="M5.24984 12.0625L4.49862 11.1235C3.49159 9.86469 4.38781 8 5.99984 8C7.61187 8 8.50808 9.86469 7.50106 11.1235L6.74984 12.0625V20C6.74984 20.4142 6.41405 20.75 5.99984 20.75C5.58563 20.75 5.24984 20.4142 5.24984 20V12.0625Z" fill="#28303F"/>
</svg>
