<svg width="24" height="24" viewBox="0 0 24 24" fill="none" xmlns="http://www.w3.org/2000/svg">
<path d="M12 17C12 19.7614 9.76142 22 7 22C4.23858 22 2 19.7614 2 17C2 14.2386 4.23858 12 7 12C9.76142 12 12 14.2386 12 17Z" fill="#28303F"/>
<path d="M22 7C22 9.76142 19.7614 12 17 12C14.2386 12 12 9.76142 12 7C12 4.23858 14.2386 2 17 2C19.7614 2 22 4.23858 22 7Z" fill="#28303F"/>
<path opacity="0.4" fill-rule="evenodd" clip-rule="evenodd" d="M8.94896 20.9615C8.65607 20.6687 8.67437 20.1755 8.98983 19.86L19.7604 9.08944C20.0759 8.77398 20.569 8.75568 20.8619 9.04857C21.1548 9.34146 21.1365 9.83464 20.8211 10.1501L10.0505 20.9207C9.73503 21.2361 9.24186 21.2544 8.94896 20.9615Z" fill="#28303F"/>
</svg>
