<svg width="24" height="24" viewBox="0 0 24 24" fill="none" xmlns="http://www.w3.org/2000/svg">
<path d="M8 18.5C8 19.8807 6.88071 21 5.5 21C4.11929 21 3 19.8807 3 18.5C3 17.1193 4.11929 16 5.5 16C6.88071 16 8 17.1193 8 18.5Z" fill="#28303F"/>
<g opacity="0.4">
<path fill-rule="evenodd" clip-rule="evenodd" d="M2.25 11C2.25 10.5858 2.58579 10.25 3 10.25H4C9.38478 10.25 13.75 14.6152 13.75 20V21C13.75 21.4142 13.4142 21.75 13 21.75C12.5858 21.75 12.25 21.4142 12.25 21V20C12.25 15.4437 8.55635 11.75 4 11.75H3C2.58579 11.75 2.25 11.4142 2.25 11Z" fill="#28303F"/>
<path fill-rule="evenodd" clip-rule="evenodd" d="M2.25 7C2.25 6.58579 2.58579 6.25 3 6.25H4C11.5939 6.25 17.75 12.4061 17.75 20V21C17.75 21.4142 17.4142 21.75 17 21.75C16.5858 21.75 16.25 21.4142 16.25 21V20C16.25 13.2345 10.7655 7.75 4 7.75H3C2.58579 7.75 2.25 7.41421 2.25 7Z" fill="#28303F"/>
<path fill-rule="evenodd" clip-rule="evenodd" d="M2.25 3C2.25 2.58579 2.58579 2.25 3 2.25H4C13.8031 2.25 21.75 10.1969 21.75 20V21C21.75 21.4142 21.4142 21.75 21 21.75C20.5858 21.75 20.25 21.4142 20.25 21V20C20.25 11.0254 12.9746 3.75 4 3.75H3C2.58579 3.75 2.25 3.41421 2.25 3Z" fill="#28303F"/>
</g>
</svg>
