<svg width="24" height="24" viewBox="0 0 24 24" fill="none" xmlns="http://www.w3.org/2000/svg">
<path fill-rule="evenodd" clip-rule="evenodd" d="M12 2.75C10.55 2.75 9.23854 3.3368 8.28765 4.28769C7.99476 4.58058 7.51989 4.58058 7.22699 4.28769C6.9341 3.9948 6.9341 3.51992 7.22699 3.22703C8.44768 2.00634 10.1362 1.25 12 1.25C13.8637 1.25 15.5522 2.00634 16.7729 3.22703C17.0658 3.51992 17.0658 3.9948 16.7729 4.28769C16.48 4.58058 16.0052 4.58058 15.7123 4.28769C14.7614 3.3368 13.4499 2.75 12 2.75ZM12 5.75C11.3784 5.75 10.817 6.00102 10.409 6.40901C10.1161 6.7019 9.64121 6.7019 9.34831 6.40901C9.05542 6.11612 9.05542 5.64124 9.34831 5.34835C10.0261 4.67055 10.9646 4.25 12 4.25C13.0353 4.25 13.9738 4.67055 14.6516 5.34835C14.9445 5.64124 14.9445 6.11612 14.6516 6.40901C14.3587 6.7019 13.8838 6.7019 13.591 6.40901C13.183 6.00102 12.6215 5.75 12 5.75ZM22 12C22 9.79086 20.2091 8 18 8H6C3.79086 8 2 9.79086 2 12V14C2 14.084 2.00259 14.1673 2.00769 14.25H21.9923C21.9974 14.1673 22 14.084 22 14V12ZM21.5979 15.75H2.40212C3.05126 17.0821 4.41844 18 6 18L18 18C19.5816 18 20.9487 17.0821 21.5979 15.75ZM16.75 20.5C16.75 20.0858 16.4142 19.75 16 19.75C15.5858 19.75 15.25 20.0858 15.25 20.5V22C15.25 22.4142 15.5858 22.75 16 22.75C16.4142 22.75 16.75 22.4142 16.75 22V20.5ZM12 19.75C12.4142 19.75 12.75 20.0858 12.75 20.5V22C12.75 22.4142 12.4142 22.75 12 22.75C11.5858 22.75 11.25 22.4142 11.25 22V20.5C11.25 20.0858 11.5858 19.75 12 19.75ZM8.75 20.5C8.75 20.0858 8.41421 19.75 8 19.75C7.58579 19.75 7.25 20.0858 7.25 20.5V22C7.25 22.4142 7.58579 22.75 8 22.75C8.41421 22.75 8.75 22.4142 8.75 22V20.5Z" fill="#28303F"/>
</svg>
