<svg width="24" height="24" viewBox="0 0 24 24" fill="none" xmlns="http://www.w3.org/2000/svg">
<path fill-rule="evenodd" clip-rule="evenodd" d="M3.5 6C2.67157 6 2 6.67157 2 7.5C2 8.32843 2.67157 9 3.5 9H20.5C21.3284 9 22 8.32843 22 7.5C22 6.67157 21.3284 6 20.5 6H3.5ZM15.25 17.3953C14.2419 17.7858 13.146 18 12 18C10.854 18 9.75808 17.7858 8.75 17.3953V17C8.75 15.2051 10.2051 13.75 12 13.75C13.7949 13.75 15.25 15.2051 15.25 17V17.3953ZM16.7376 16.6536C16.5602 14.192 14.5069 12.25 12 12.25C9.49314 12.25 7.43985 14.192 7.26244 16.6536C4.97144 15.2325 3.36571 12.8114 3.05493 10H20.9451C20.6343 12.8114 19.0286 15.2325 16.7376 16.6536ZM13 16C13 15.4477 12.5523 15 12 15C11.4477 15 11 15.4477 11 16C11 16.5523 11.4477 17 12 17C12.5523 17 13 16.5523 13 16Z" fill="#28303F"/>
</svg>
