<svg width="24" height="24" viewBox="0 0 24 24" fill="none" xmlns="http://www.w3.org/2000/svg">
<path fill-rule="evenodd" clip-rule="evenodd" d="M8.28769 4.28769C9.23857 3.3368 10.55 2.75 12 2.75C13.45 2.75 14.7614 3.3368 15.7123 4.28769C16.0052 4.58058 16.4801 4.58058 16.773 4.28769C17.0659 3.9948 17.0659 3.51992 16.773 3.22703C15.5523 2.00634 13.8638 1.25 12 1.25C10.1362 1.25 8.44772 2.00634 7.22703 3.22703C6.93414 3.51992 6.93414 3.9948 7.22703 4.28769C7.51992 4.58058 7.9948 4.58058 8.28769 4.28769ZM10.409 6.40901C10.817 6.00102 11.3785 5.75 12 5.75C12.6215 5.75 13.183 6.00102 13.591 6.40901C13.8839 6.7019 14.3588 6.7019 14.6517 6.40901C14.9445 6.11612 14.9445 5.64124 14.6517 5.34835C13.9739 4.67055 13.0353 4.25 12 4.25C10.9647 4.25 10.0261 4.67055 9.34835 5.34835C9.05546 5.64124 9.05546 6.11612 9.34835 6.40901C9.64124 6.7019 10.1161 6.7019 10.409 6.40901ZM14 8C16.2091 8 18 9.79086 18 12V18C18 20.2091 16.2091 22 14 22H10C7.79086 22 6 20.2091 6 18V12C6 9.79086 7.79086 8 10 8H14ZM9 12.75C9.41421 12.75 9.75 13.0858 9.75 13.5V16.5C9.75 16.9142 9.41421 17.25 9 17.25C8.58579 17.25 8.25 16.9142 8.25 16.5V13.5C8.25 13.0858 8.58579 12.75 9 12.75Z" fill="#28303F"/>
</svg>
