<svg width="24" height="24" viewBox="0 0 24 24" fill="none" xmlns="http://www.w3.org/2000/svg">
<path fill-rule="evenodd" clip-rule="evenodd" d="M2.5 5.75C2.5 3.95507 3.95507 2.5 5.75 2.5H7.75C8.16421 2.5 8.5 2.16421 8.5 1.75C8.5 1.33579 8.16421 1 7.75 1H5.75C3.12665 1 1 3.12665 1 5.75V7.75C1 8.16421 1.33579 8.5 1.75 8.5C2.16421 8.5 2.5 8.16421 2.5 7.75V5.75ZM15.75 1C15.3358 1 15 1.33579 15 1.75C15 2.16421 15.3358 2.5 15.75 2.5H17.75C19.5449 2.5 21 3.95507 21 5.75V7.75C21 8.16421 21.3358 8.5 21.75 8.5C22.1642 8.5 22.5 8.16421 22.5 7.75V5.75C22.5 3.12665 20.3734 1 17.75 1H15.75ZM22.5 15.75C22.5 15.3358 22.1642 15 21.75 15C21.3358 15 21 15.3358 21 15.75V17.75C21 19.5449 19.5449 21 17.75 21H15.75C15.3358 21 15 21.3358 15 21.75C15 22.1642 15.3358 22.5 15.75 22.5H17.75C20.3734 22.5 22.5 20.3734 22.5 17.75V15.75ZM2.5 16.3056C2.5 15.8913 2.16421 15.5556 1.75 15.5556C1.33579 15.5556 1 15.8913 1 16.3056V17.75C1 20.3734 3.12665 22.5 5.75 22.5H7.75C8.16421 22.5 8.5 22.1642 8.5 21.75C8.5 21.3358 8.16421 21 7.75 21H5.75C3.95507 21 2.5 19.5449 2.5 17.75V16.3056ZM19.2904 12.8513C17.867 14.3235 15.0245 16.75 11.75 16.75C8.47554 16.75 5.63299 14.3235 4.20965 12.8513C3.59678 12.2174 3.59678 11.2826 4.20965 10.6487C5.63299 9.17646 8.47554 6.75 11.75 6.75C15.0245 6.75 17.867 9.17646 19.2903 10.6487C19.9032 11.2826 19.9032 12.2174 19.2904 12.8513Z" fill="#28303F"/>
</svg>
