<svg width="24" height="24" viewBox="0 0 24 24" fill="none" xmlns="http://www.w3.org/2000/svg">
<path fill-rule="evenodd" clip-rule="evenodd" d="M6 2.75C4.20507 2.75 2.75 4.20507 2.75 6V8C2.75 8.41421 2.41421 8.75 2 8.75C1.58579 8.75 1.25 8.41421 1.25 8V6C1.25 3.37665 3.37665 1.25 6 1.25H8C8.41421 1.25 8.75 1.58579 8.75 2C8.75 2.41421 8.41421 2.75 8 2.75H6ZM15.25 2C15.25 1.58579 15.5858 1.25 16 1.25H18C20.6234 1.25 22.75 3.37665 22.75 6V8C22.75 8.41421 22.4142 8.75 22 8.75C21.5858 8.75 21.25 8.41421 21.25 8V6C21.25 4.20507 19.7949 2.75 18 2.75H16C15.5858 2.75 15.25 2.41421 15.25 2ZM2 15.25C2.41421 15.25 2.75 15.5858 2.75 16V18C2.75 19.7949 4.20507 21.25 6 21.25H8C8.41421 21.25 8.75 21.5858 8.75 22C8.75 22.4142 8.41421 22.75 8 22.75H6C3.37665 22.75 1.25 20.6234 1.25 18V16C1.25 15.5858 1.58579 15.25 2 15.25ZM22 15.25C22.4142 15.25 22.75 15.5858 22.75 16V18C22.75 20.6234 20.6234 22.75 18 22.75H16C15.5858 22.75 15.25 22.4142 15.25 22C15.25 21.5858 15.5858 21.25 16 21.25H18C19.7949 21.25 21.25 19.7949 21.25 18V16C21.25 15.5858 21.5858 15.25 22 15.25ZM13 9.25C13.4142 9.25 13.75 9.58579 13.75 10V13C13.75 13.4142 13.4142 13.75 13 13.75C12.5858 13.75 12.25 13.4142 12.25 13V10C12.25 9.58579 12.5858 9.25 13 9.25ZM10.75 10C10.75 8.75736 11.7574 7.75 13 7.75C14.2426 7.75 15.25 8.75736 15.25 10V12.6569C15.25 13.9582 14.733 15.2063 13.8128 16.1265L13.4697 16.4697C13.1768 16.7626 13.1768 17.2374 13.4697 17.5303C13.7626 17.8232 14.2374 17.8232 14.5303 17.5303L14.8735 17.1872C16.075 15.9857 16.75 14.3561 16.75 12.6569V10C16.75 7.92893 15.0711 6.25 13 6.25C10.9289 6.25 9.25 7.92893 9.25 10V12.6569C9.25 13.9582 8.73303 15.2063 7.81282 16.1265L7.46967 16.4697C7.17678 16.7626 7.17678 17.2374 7.46967 17.5303C7.76256 17.8232 8.23744 17.8232 8.53033 17.5303L8.87348 17.1872C10.075 15.9857 10.75 14.3561 10.75 12.6569V10Z" fill="#28303F"/>
</svg>
