<svg width="24" height="24" viewBox="0 0 24 24" fill="none" xmlns="http://www.w3.org/2000/svg">
<path fill-rule="evenodd" clip-rule="evenodd" d="M8.28765 7.04501C9.23854 6.09413 10.55 5.50732 12 5.50732C13.4499 5.50732 14.7614 6.09413 15.7123 7.04501C16.0052 7.33791 16.48 7.33791 16.7729 7.04501C17.0658 6.75212 17.0658 6.27725 16.7729 5.98435C15.5522 4.76366 13.8637 4.00732 12 4.00732C10.1362 4.00732 8.44768 4.76366 7.22699 5.98435C6.9341 6.27725 6.9341 6.75212 7.22699 7.04501C7.51989 7.33791 7.99476 7.33791 8.28765 7.04501ZM10.409 9.16633C10.817 8.75834 11.3784 8.50732 12 8.50732C12.6215 8.50732 13.183 8.75834 13.591 9.16633C13.8838 9.45923 14.3587 9.45923 14.6516 9.16633C14.9445 8.87344 14.9445 8.39857 14.6516 8.10567C13.9738 7.42788 13.0353 7.00732 12 7.00732C10.9646 7.00732 10.0261 7.42788 9.34831 8.10567C9.05542 8.39857 9.05542 8.87344 9.34831 9.16633C9.64121 9.45923 10.1161 9.45923 10.409 9.16633ZM17 11.25C18.5188 11.25 19.75 12.4812 19.75 14V16C19.75 17.5188 18.5188 18.75 17 18.75H7C5.48122 18.75 4.25 17.5188 4.25 16V14C4.25 12.4812 5.48122 11.25 7 11.25H17ZM12 16C12 16.473 12.1642 16.9076 12.4387 17.25H7C6.30964 17.25 5.75 16.6904 5.75 16L5.75 14C5.75 13.3096 6.30964 12.75 7 12.75H12.4387C12.1642 13.0924 12 13.527 12 14V16Z" fill="#28303F"/>
</svg>
