<svg width="24" height="24" viewBox="0 0 24 24" fill="none" xmlns="http://www.w3.org/2000/svg">
<path fill-rule="evenodd" clip-rule="evenodd" d="M16.1804 22H7.81965C5.5109 22 3.6393 20.214 3.6393 18.0108V13.133C3.6393 12.4248 3.34447 11.7456 2.81969 11.2448C1.60381 10.0845 1.76187 8.16205 3.15251 7.19692L9.54124 2.763C11.0071 1.74567 12.9929 1.74567 14.4588 2.763L20.8475 7.19691C22.2381 8.16205 22.3962 10.0845 21.1803 11.2448C20.6555 11.7456 20.3607 12.4248 20.3607 13.133V18.0108C20.3607 20.214 18.4891 22 16.1804 22ZM13.6 9.45C13.8485 9.11863 13.7814 8.64853 13.45 8.4C13.1186 8.15147 12.6485 8.21863 12.4 8.55L9.4 12.55C9.22955 12.7773 9.20214 13.0813 9.32918 13.3354C9.45622 13.5895 9.71592 13.75 10 13.75H12.5L10.4 16.55C10.1515 16.8814 10.2186 17.3515 10.55 17.6C10.8814 17.8485 11.3515 17.7814 11.6 17.45L14.6 13.45C14.7704 13.2227 14.7979 12.9187 14.6708 12.6646C14.5438 12.4105 14.2841 12.25 14 12.25H11.5L13.6 9.45Z" fill="#28303F"/>
</svg>
