<svg width="24" height="24" viewBox="0 0 24 24" fill="none" xmlns="http://www.w3.org/2000/svg">
<path fill-rule="evenodd" clip-rule="evenodd" d="M21 10.1503V17.9668C21 20.1943 19.2091 22 17 22H7C4.79086 22 3 20.1943 3 17.9668V10.1503C3 8.93937 3.53964 7.7925 4.46986 7.02652L9.46986 2.90935C10.9423 1.69689 13.0577 1.69688 14.5301 2.90935L19.5301 7.02652C20.4604 7.7925 21 8.93937 21 10.1503ZM15.9914 12.9026C16.6368 13.5084 16.6368 14.4916 15.9914 15.0974C15.0786 15.9541 13.6304 17 11.9999 17C10.3695 17 8.92127 15.9541 8.00853 15.0974C7.36304 14.4916 7.36304 13.5084 8.00853 12.9026C8.92127 12.0459 10.3695 11 11.9999 11C13.6304 11 15.0786 12.0459 15.9914 12.9026ZM12.9999 14C12.9999 14.5523 12.5522 15 11.9999 15C11.4477 15 10.9999 14.5523 10.9999 14C10.9999 13.4477 11.4477 13 11.9999 13C12.5522 13 12.9999 13.4477 12.9999 14Z" fill="#28303F"/>
</svg>
