<svg width="24" height="24" viewBox="0 0 24 24" fill="none" xmlns="http://www.w3.org/2000/svg">
<path fill-rule="evenodd" clip-rule="evenodd" d="M16.1804 22H7.81965C5.5109 22 3.6393 20.214 3.6393 18.0108V13.133C3.6393 12.4248 3.34447 11.7456 2.81969 11.2448C1.60381 10.0845 1.76187 8.16205 3.15251 7.19692L9.54124 2.763C11.0071 1.74567 12.9929 1.74567 14.4588 2.763L20.8475 7.19691C22.2381 8.16205 22.3962 10.0845 21.1803 11.2448C20.6555 11.7456 20.3607 12.4248 20.3607 13.133V18.0108C20.3607 20.214 18.4891 22 16.1804 22ZM14 10.25C13.5858 10.25 13.25 10.5858 13.25 11C13.25 11.4142 13.5858 11.75 14 11.75H14.7865L13.2236 14.8757C13.1315 15.06 12.8685 15.06 12.7764 14.8757L11.5652 12.4534C10.9203 11.1636 9.07967 11.1636 8.43475 12.4534L6.32918 16.6646C6.14394 17.0351 6.29411 17.4856 6.66459 17.6708C7.03507 17.8561 7.48558 17.7059 7.67082 17.3354L9.77639 13.1243C9.86852 12.94 10.1315 12.94 10.2236 13.1243L11.4348 15.5466C12.0797 16.8364 13.9203 16.8364 14.5652 15.5466L16 12.6771L16.3292 13.3354C16.5144 13.7059 16.9649 13.8561 17.3354 13.6708C17.7059 13.4856 17.8561 13.0351 17.6708 12.6646L16.6708 10.6646C16.5438 10.4105 16.2841 10.25 16 10.25H14Z" fill="#28303F"/>
</svg>
