<svg width="24" height="24" viewBox="0 0 24 24" fill="none" xmlns="http://www.w3.org/2000/svg">
<path fill-rule="evenodd" clip-rule="evenodd" d="M16.1804 22H7.81965C5.5109 22 3.6393 20.214 3.6393 18.0108V13.133C3.6393 12.4248 3.34447 11.7456 2.81969 11.2448C1.60381 10.0845 1.76187 8.16205 3.15251 7.19692L9.54124 2.763C11.0071 1.74567 12.9929 1.74567 14.4588 2.763L20.8475 7.19691C22.2381 8.16205 22.3962 10.0845 21.1803 11.2448C20.6555 11.7456 20.3607 12.4248 20.3607 13.133V18.0108C20.3607 20.214 18.4891 22 16.1804 22ZM9.75 12.5C9.75 12.0858 10.0858 11.75 10.5 11.75C10.9142 11.75 11.25 12.0858 11.25 12.5V15.5C11.25 16.7426 12.2574 17.75 13.5 17.75C14.7426 17.75 15.75 16.7426 15.75 15.5C15.75 15.0858 16.0858 14.75 16.5 14.75H17C17.4142 14.75 17.75 14.4142 17.75 14C17.75 13.5858 17.4142 13.25 17 13.25H16.5C15.2574 13.25 14.25 14.2574 14.25 15.5C14.25 15.9142 13.9142 16.25 13.5 16.25C13.0858 16.25 12.75 15.9142 12.75 15.5V12.5C12.75 11.2574 11.7426 10.25 10.5 10.25C9.25736 10.25 8.25 11.2574 8.25 12.5V13.5C8.25 13.9142 7.91421 14.25 7.5 14.25H7C6.58579 14.25 6.25 14.5858 6.25 15C6.25 15.4142 6.58579 15.75 7 15.75H7.5C8.74264 15.75 9.75 14.7426 9.75 13.5V12.5Z" fill="#28303F"/>
</svg>
