<svg width="24" height="24" viewBox="0 0 24 24" fill="none" xmlns="http://www.w3.org/2000/svg">
<path fill-rule="evenodd" clip-rule="evenodd" d="M7.81965 22H16.1804C18.4891 22 20.3607 20.214 20.3607 18.0108V13.133C20.3607 12.4248 20.6555 11.7456 21.1803 11.2448C22.3962 10.0845 22.2381 8.16205 20.8475 7.19691L14.4588 2.763C12.9929 1.74567 11.0071 1.74567 9.54124 2.763L3.15251 7.19692C1.76187 8.16205 1.60381 10.0845 2.81969 11.2448C3.34447 11.7456 3.6393 12.4248 3.6393 13.133V18.0108C3.6393 20.214 5.5109 22 7.81965 22ZM12.1768 8.93418C13.2507 7.86023 14.9919 7.86023 16.0659 8.93418C17.1398 10.0081 17.1398 11.7493 16.0659 12.8233L15.7123 13.1768C15.4194 13.4697 14.9446 13.4697 14.6517 13.1768C14.3588 12.8839 14.3588 12.409 14.6517 12.1162L15.0052 11.7626C15.4934 11.2744 15.4934 10.483 15.0052 9.99484C14.5171 9.50668 13.7256 9.50668 13.2375 9.99484L11.8232 11.409C11.3351 11.8972 11.3351 12.6887 11.8232 13.1768L10.7626 14.2375C9.68864 13.1635 9.68864 11.4223 10.7626 10.3484L12.1768 8.93418ZM7.93412 17.0658C9.00806 18.1398 10.7493 18.1398 11.8232 17.0658L13.2374 15.6516C14.3114 14.5777 14.3114 12.8365 13.2374 11.7625L12.1768 12.8232C12.6649 13.3113 12.6649 14.1028 12.1768 14.591L10.7625 16.0052C10.2744 16.4933 9.48293 16.4933 8.99478 16.0052C8.50662 15.517 8.50662 14.7256 8.99478 14.2374L9.34833 13.8838C9.64123 13.591 9.64123 13.1161 9.34833 12.8232C9.05544 12.5303 8.58056 12.5303 8.28767 12.8232L7.93412 13.1767C6.86018 14.2507 6.86018 15.9919 7.93412 17.0658Z" fill="#28303F"/>
</svg>
