<svg width="24" height="24" viewBox="0 0 24 24" fill="none" xmlns="http://www.w3.org/2000/svg">
<path fill-rule="evenodd" clip-rule="evenodd" d="M21 17.9668V10.1503C21 8.93937 20.4604 7.7925 19.5301 7.02652L14.5301 2.90935C13.0577 1.69688 10.9423 1.69689 9.46986 2.90935L4.46986 7.02652C3.53964 7.7925 3 8.93937 3 10.1503V17.9668C3 20.1943 4.79086 22 7 22H17C19.2091 22 21 20.1943 21 17.9668ZM12 9.25C12.4142 9.25 12.75 9.58579 12.75 10V12C12.75 12.4142 12.4142 12.75 12 12.75C11.5858 12.75 11.25 12.4142 11.25 12V10C11.25 9.58579 11.5858 9.25 12 9.25ZM9.5623 11.8506C9.8364 11.54 9.80685 11.0661 9.4963 10.792C9.18575 10.5179 8.71179 10.5474 8.4377 10.858C7.69904 11.6948 7.25 12.7959 7.25 14.0001C7.25 16.6234 9.37665 18.7501 12 18.7501C14.6234 18.7501 16.75 16.6234 16.75 14.0001C16.75 12.7959 16.301 11.6948 15.5623 10.858C15.2882 10.5474 14.8143 10.5179 14.5037 10.792C14.1931 11.0661 14.1636 11.54 14.4377 11.8506C14.9438 12.4239 15.25 13.1753 15.25 14.0001C15.25 15.795 13.7949 17.2501 12 17.2501C10.2051 17.2501 8.75 15.795 8.75 14.0001C8.75 13.1753 9.05623 12.4239 9.5623 11.8506Z" fill="#28303F"/>
</svg>
