<svg width="24" height="24" viewBox="0 0 24 24" fill="none" xmlns="http://www.w3.org/2000/svg">
<path fill-rule="evenodd" clip-rule="evenodd" d="M21 10.1503V17.9668C21 20.1943 19.2091 22 17 22H7C4.79086 22 3 20.1943 3 17.9668V10.1503C3 8.93937 3.53964 7.7925 4.46986 7.02652L9.46986 2.90935C10.9423 1.69689 13.0577 1.69688 14.5301 2.90935L19.5301 7.02652C20.4604 7.7925 21 8.93937 21 10.1503ZM8.29286 15.3095C7.91154 15.1477 7.47128 15.3257 7.30951 15.707C7.14774 16.0884 7.32572 16.5286 7.70704 16.6904C9.33603 17.3815 10.6774 17.7533 12.0423 17.7499C13.4079 17.7465 14.7225 17.3676 16.2969 16.6886C16.6773 16.5246 16.8527 16.0833 16.6886 15.703C16.5246 15.3226 16.0833 15.1472 15.703 15.3113C14.2138 15.9534 13.1142 16.2472 12.0385 16.2499C10.9622 16.2526 9.83541 15.9639 8.29286 15.3095Z" fill="#28303F"/>
</svg>
