<svg width="24" height="24" viewBox="0 0 24 24" fill="none" xmlns="http://www.w3.org/2000/svg">
<path fill-rule="evenodd" clip-rule="evenodd" d="M21 10.1503V17.9668C21 20.1943 19.2091 22 17 22H7C4.79086 22 3 20.1943 3 17.9668V10.1503C3 8.93937 3.53964 7.7925 4.46986 7.02652L9.46986 2.90935C10.9423 1.69689 13.0577 1.69688 14.5301 2.90935L19.5301 7.02652C20.4604 7.7925 21 8.93937 21 10.1503ZM7 12C7 10.8954 7.89543 10 9 10H15C16.1046 10 17 10.8954 17 12V16C17 17.1046 16.1046 18 15 18H9C7.89543 18 7 17.1046 7 16V12ZM9.32922 12.6645C9.51446 12.294 9.96497 12.1439 10.3355 12.3291L11.441 12.8819C11.7929 13.0578 12.2071 13.0578 12.5591 12.8819L13.6646 12.3291C14.0351 12.1439 14.4856 12.294 14.6709 12.6645C14.8561 13.035 14.7059 13.4855 14.3355 13.6707L13.2299 14.2235C12.4557 14.6106 11.5444 14.6106 10.7702 14.2235L9.66463 13.6707C9.29415 13.4855 9.14398 13.035 9.32922 12.6645Z" fill="#28303F"/>
</svg>
