<svg width="24" height="24" viewBox="0 0 24 24" fill="none" xmlns="http://www.w3.org/2000/svg">
<path fill-rule="evenodd" clip-rule="evenodd" d="M21 17.9668V10.1503C21 8.93937 20.4604 7.7925 19.5301 7.02652L14.5301 2.90935C13.0577 1.69688 10.9423 1.69689 9.46986 2.90935L4.46986 7.02652C3.53964 7.7925 3 8.93937 3 10.1503V17.9668C3 20.1943 4.79086 22 7 22H17C19.2091 22 21 20.1943 21 17.9668ZM12.1768 8.93429C13.2507 7.86035 14.9919 7.86035 16.0659 8.93429C17.1398 10.0082 17.1398 11.7494 16.0659 12.8234L15.7123 13.1769C15.4194 13.4698 14.9446 13.4698 14.6517 13.1769C14.3588 12.884 14.3588 12.4092 14.6517 12.1163L15.0052 11.7627C15.4934 11.2746 15.4934 10.4831 15.0052 9.99495C14.5171 9.50679 13.7256 9.50679 13.2375 9.99495L11.8232 11.4092C11.3351 11.8973 11.3351 12.6888 11.8232 13.1769L10.7626 14.2376C9.68864 13.1636 9.68864 11.4224 10.7626 10.3485L12.1768 8.93429ZM7.93412 17.066C9.00806 18.1399 10.7493 18.1399 11.8232 17.066L13.2374 15.6517C14.3114 14.5778 14.3114 12.8366 13.2374 11.7627L12.1768 12.8233C12.6649 13.3115 12.6649 14.1029 12.1768 14.5911L10.7625 16.0053C10.2744 16.4934 9.48293 16.4935 8.99478 16.0053C8.50662 15.5171 8.50662 14.7257 8.99478 14.2375L9.34833 13.884C9.64123 13.5911 9.64123 13.1162 9.34833 12.8233C9.05544 12.5304 8.58056 12.5304 8.28767 12.8233L7.93412 13.1769C6.86018 14.2508 6.86018 15.992 7.93412 17.066Z" fill="#28303F"/>
</svg>
