<svg width="24" height="24" viewBox="0 0 24 24" fill="none" xmlns="http://www.w3.org/2000/svg">
<path fill-rule="evenodd" clip-rule="evenodd" d="M21 17.9668V10.1503C21 8.93937 20.4604 7.7925 19.5301 7.02652L14.5301 2.90935C13.0577 1.69688 10.9423 1.69689 9.46986 2.90935L4.46986 7.02652C3.53964 7.7925 3 8.93937 3 10.1503V17.9668C3 20.1943 4.79086 22 7 22H17C19.2091 22 21 20.1943 21 17.9668ZM8.66667 12.3333C8.66667 10.4924 10.1591 9 12 9C13.841 9 15.3333 10.4924 15.3333 12.3333V13.5672C15.3333 14.1623 15.5797 14.7309 16.0139 15.138C16.7259 15.8055 16.2535 17 15.2775 17H8.72246C7.74649 17 7.27413 15.8055 7.98614 15.138C8.42033 14.7309 8.66667 14.1623 8.66667 13.5672V12.3333ZM11 18.25C10.5858 18.25 10.25 18.5858 10.25 19C10.25 19.4142 10.5858 19.75 11 19.75H13C13.4142 19.75 13.75 19.4142 13.75 19C13.75 18.5858 13.4142 18.25 13 18.25H11Z" fill="#28303F"/>
</svg>
