<svg width="24" height="24" viewBox="0 0 24 24" fill="none" xmlns="http://www.w3.org/2000/svg">
<path fill-rule="evenodd" clip-rule="evenodd" d="M21 10.1503V17.9668C21 20.1943 19.2091 22 17 22H7C4.79086 22 3 20.1943 3 17.9668V10.1503C3 8.93937 3.53964 7.7925 4.46986 7.02652L9.46986 2.90935C10.9423 1.69689 13.0577 1.69688 14.5301 2.90935L19.5301 7.02652C20.4604 7.7925 21 8.93937 21 10.1503ZM14 10.25C13.5858 10.25 13.25 10.5858 13.25 11C13.25 11.4142 13.5858 11.75 14 11.75H14.7865L13.2236 14.8757C13.1315 15.06 12.8686 15.06 12.7764 14.8757L11.5653 12.4534C10.9204 11.1636 9.07971 11.1636 8.43479 12.4534L6.32922 16.6646C6.14398 17.0351 6.29415 17.4856 6.66463 17.6708C7.03512 17.8561 7.48562 17.7059 7.67086 17.3354L9.77644 13.1243C9.86857 12.94 10.1315 12.94 10.2236 13.1243L11.4348 15.5466C12.0797 16.8364 13.9204 16.8364 14.5653 15.5466L16 12.6771L16.3292 13.3354C16.5145 13.7059 16.965 13.8561 17.3355 13.6708C17.7059 13.4856 17.8561 13.0351 17.6709 12.6646L16.6709 10.6646C16.5438 10.4105 16.2841 10.25 16 10.25H14Z" fill="#28303F"/>
</svg>
