<svg width="24" height="24" viewBox="0 0 24 24" fill="none" xmlns="http://www.w3.org/2000/svg">
<path fill-rule="evenodd" clip-rule="evenodd" d="M21 17.9668V10.1503C21 8.93937 20.4604 7.7925 19.5301 7.02652L14.5301 2.90935C13.0577 1.69688 10.9423 1.69689 9.46986 2.90935L4.46986 7.02652C3.53964 7.7925 3 8.93937 3 10.1503V17.9668C3 20.1943 4.79086 22 7 22H17C19.2091 22 21 20.1943 21 17.9668ZM14.6517 16.6517C14.3588 16.9446 13.8839 16.9446 13.591 16.6517L12 15.0607L10.409 16.6517C10.1161 16.9446 9.64123 16.9446 9.34833 16.6517C9.05544 16.3588 9.05544 15.8839 9.34833 15.591L10.9393 14L9.34837 12.409C9.05547 12.1161 9.05547 11.6413 9.34837 11.3484C9.64126 11.0555 10.1161 11.0555 10.409 11.3484L12 12.9393L13.591 11.3484C13.8839 11.0555 14.3587 11.0555 14.6516 11.3484C14.9445 11.6413 14.9445 12.1161 14.6516 12.409L13.0607 14L14.6517 15.591C14.9446 15.8839 14.9446 16.3588 14.6517 16.6517Z" fill="#28303F"/>
</svg>
