<svg width="24" height="24" viewBox="0 0 24 24" fill="none" xmlns="http://www.w3.org/2000/svg">
<path fill-rule="evenodd" clip-rule="evenodd" d="M21 10.1503V17.9668C21 20.1943 19.2091 22 17 22H7C4.79086 22 3 20.1943 3 17.9668V10.1503C3 8.93937 3.53964 7.7925 4.46986 7.02652L9.46986 2.90935C10.9423 1.69689 13.0577 1.69688 14.5301 2.90935L19.5301 7.02652C20.4604 7.7925 21 8.93937 21 10.1503ZM12 9.75C11.3096 9.75 10.75 10.3096 10.75 11V12H13.25V11C13.25 10.3096 12.6904 9.75 12 9.75ZM9.25 12C9.25 12.0479 9.25449 12.0947 9.26307 12.1401C8.5232 12.4335 8 13.1557 8 14V16C8 17.1046 8.89543 18 10 18H14C15.1046 18 16 17.1046 16 16V14C16 13.1557 15.4768 12.4335 14.7369 12.1401C14.7455 12.0947 14.75 12.0479 14.75 12V11C14.75 9.48122 13.5188 8.25 12 8.25C10.4812 8.25 9.25 9.48122 9.25 11V12Z" fill="#28303F"/>
</svg>
