<svg width="24" height="24" viewBox="0 0 24 24" fill="none" xmlns="http://www.w3.org/2000/svg">
<path fill-rule="evenodd" clip-rule="evenodd" d="M16.1804 22H7.81965C5.5109 22 3.6393 20.214 3.6393 18.0108V13.133C3.6393 12.4248 3.34447 11.7456 2.81969 11.2448C1.60381 10.0845 1.76187 8.16205 3.15251 7.19692L9.54124 2.763C11.0071 1.74567 12.9929 1.74567 14.4588 2.763L20.8475 7.19691C22.2381 8.16205 22.3962 10.0845 21.1803 11.2448C20.6555 11.7456 20.3607 12.4248 20.3607 13.133V18.0108C20.3607 20.214 18.4891 22 16.1804 22ZM14.2 9.5C13.2059 9.5 12.4 10.3059 12.4 11.3C12.4 11.3204 12.4003 11.3407 12.401 11.361L10.4281 12.3474C10.1198 12.0991 9.72756 11.95 9.3 11.95C8.30589 11.95 7.5 12.7559 7.5 13.75C7.5 14.7441 8.30589 15.55 9.3 15.55C9.72756 15.55 10.1198 15.4009 10.4281 15.1526L12.401 16.139C12.4003 16.1593 12.4 16.1796 12.4 16.2C12.4 17.1941 13.2059 18 14.2 18C15.1941 18 16 17.1941 16 16.2C16 15.2059 15.1941 14.4 14.2 14.4C13.7724 14.4 13.3802 14.5491 13.0719 14.7974L11.099 13.811C11.0997 13.7907 11.1 13.7704 11.1 13.75C11.1 13.7296 11.0997 13.7093 11.099 13.689L13.0719 12.7026C13.3802 12.9509 13.7724 13.1 14.2 13.1C15.1941 13.1 16 12.2941 16 11.3C16 10.3059 15.1941 9.5 14.2 9.5Z" fill="#28303F"/>
</svg>
