<svg width="24" height="24" viewBox="0 0 24 24" fill="none" xmlns="http://www.w3.org/2000/svg">
<path fill-rule="evenodd" clip-rule="evenodd" d="M20.3607 18.0108C20.3607 20.214 18.4891 22 16.1804 22H7.81965C5.5109 22 3.6393 20.214 3.6393 18.0108V13.133C3.6393 12.4248 3.34447 11.7456 2.81969 11.2448C1.60381 10.0845 1.76187 8.16205 3.15251 7.19692L9.54124 2.763C11.0071 1.74567 12.9929 1.74567 14.4588 2.763L20.8475 7.19691C22.2381 8.16205 22.3962 10.0845 21.1803 11.2448C20.6555 11.7456 20.3607 12.4248 20.3607 13.133V18.0108ZM12 11.7123L12.3094 11.4029C13.1636 10.5486 14.5487 10.5486 15.403 11.4029C16.2572 12.2572 16.2572 13.6422 15.403 14.4965L13.2374 16.662C12.554 17.3454 11.446 17.3454 10.7626 16.662L8.59705 14.4965C7.74278 13.6422 7.74278 12.2572 8.59705 11.4029C9.45132 10.5486 10.8364 10.5486 11.6906 11.4029L12 11.7123Z" fill="#28303F"/>
</svg>
