<svg width="24" height="24" viewBox="0 0 24 24" fill="none" xmlns="http://www.w3.org/2000/svg">
<path fill-rule="evenodd" clip-rule="evenodd" d="M16.1804 22H7.81965C5.5109 22 3.6393 20.214 3.6393 18.0108V13.133C3.6393 12.4248 3.34447 11.7456 2.81969 11.2448C1.60381 10.0845 1.76187 8.16205 3.15251 7.19692L9.54124 2.763C11.0071 1.74567 12.9929 1.74567 14.4588 2.763L20.8475 7.19691C22.2381 8.16205 22.3962 10.0845 21.1803 11.2448C20.6555 11.7456 20.3607 12.4248 20.3607 13.133V18.0108C20.3607 20.214 18.4891 22 16.1804 22ZM16.624 12.4161C16.8538 12.0715 16.7607 11.6058 16.416 11.376C16.0714 11.1463 15.6057 11.2394 15.376 11.5841L12.7292 15.5542C12.2917 16.2105 11.363 16.3025 10.8053 15.7447L9.53033 14.4697C9.23744 14.1769 8.76256 14.1769 8.46967 14.4697C8.17678 14.7626 8.17678 15.2375 8.46967 15.5304L9.74461 16.8053C10.9717 18.0324 13.0147 17.8302 13.9773 16.3862L16.624 12.4161Z" fill="#28303F"/>
</svg>
