<svg width="24" height="24" viewBox="0 0 24 24" fill="none" xmlns="http://www.w3.org/2000/svg">
<path fill-rule="evenodd" clip-rule="evenodd" d="M21 10.1503V17.9668C21 20.1943 19.2091 22 17 22H7C4.79086 22 3 20.1943 3 17.9668V10.1503C3 8.93937 3.53964 7.7925 4.46986 7.02652L9.46986 2.90935C10.9423 1.69689 13.0577 1.69688 14.5301 2.90935L19.5301 7.02652C20.4604 7.7925 21 8.93937 21 10.1503ZM10.5 17C8.567 17 7 15.433 7 13.5C7 11.567 8.567 10 10.5 10C11.9446 10 13.1848 10.8752 13.7193 12.1243C13.9649 12.0436 14.2274 12 14.5 12C15.8807 12 17 13.1193 17 14.5C17 15.8807 15.8807 17 14.5 17H10.5Z" fill="#28303F"/>
</svg>
