<svg width="24" height="24" viewBox="0 0 24 24" fill="none" xmlns="http://www.w3.org/2000/svg">
<path fill-rule="evenodd" clip-rule="evenodd" d="M21 10.1503V17.9668C21 20.1943 19.2091 22 17 22H7C4.79086 22 3 20.1943 3 17.9668V10.1503C3 8.93937 3.53964 7.7925 4.46986 7.02652L9.46986 2.90935C10.9423 1.69689 13.0577 1.69688 14.5301 2.90935L19.5301 7.02652C20.4604 7.7925 21 8.93937 21 10.1503ZM16.624 11.4161C16.8538 11.0715 16.7607 10.6058 16.416 10.376C16.0714 10.1463 15.6057 10.2394 15.376 10.5841L12.7292 14.5542C12.2917 15.2105 11.363 15.3025 10.8053 14.7447L9.53033 13.4697C9.23744 13.1769 8.76256 13.1769 8.46967 13.4697C8.17678 13.7626 8.17678 14.2375 8.46967 14.5304L9.74461 15.8053C10.9717 17.0324 13.0147 16.8302 13.9773 15.3862L16.624 11.4161Z" fill="#28303F"/>
</svg>
