<svg width="24" height="24" viewBox="0 0 24 24" fill="none" xmlns="http://www.w3.org/2000/svg">
<path fill-rule="evenodd" clip-rule="evenodd" d="M21 17.9668V10.1503C21 8.93937 20.4604 7.7925 19.5301 7.02652L14.5301 2.90935C13.0577 1.69688 10.9423 1.69689 9.46986 2.90935L4.46986 7.02652C3.53964 7.7925 3 8.93937 3 10.1503V17.9668C3 20.1943 4.79086 22 7 22H17C19.2091 22 21 20.1943 21 17.9668ZM12.0094 11.75C10.7594 11.75 9.75 12.7596 9.75 14C9.75 15.2404 10.7594 16.25 12.0094 16.25C12.5836 16.25 13.1059 16.0377 13.5046 15.6869C13.8156 15.4133 14.2895 15.4436 14.5631 15.7546C14.8367 16.0656 14.8064 16.5395 14.4954 16.8131C13.8331 17.3959 12.9616 17.75 12.0094 17.75C9.93536 17.75 8.25 16.0733 8.25 14C8.25 11.9267 9.93536 10.25 12.0094 10.25C12.9616 10.25 13.8331 10.6041 14.4954 11.1869C14.8064 11.4605 14.8367 11.9344 14.5631 12.2454C14.2895 12.5564 13.8156 12.5867 13.5046 12.3131C13.1059 11.9623 12.5836 11.75 12.0094 11.75ZM15.5 10.5C16.0523 10.5 16.5 10.0523 16.5 9.5C16.5 8.94772 16.0523 8.5 15.5 8.5C14.9477 8.5 14.5 8.94772 14.5 9.5C14.5 10.0523 14.9477 10.5 15.5 10.5Z" fill="#28303F"/>
</svg>
