<svg width="24" height="24" viewBox="0 0 24 24" fill="none" xmlns="http://www.w3.org/2000/svg">
<path fill-rule="evenodd" clip-rule="evenodd" d="M21 10.1503V17.9668C21 20.1943 19.2091 22 17 22H7C4.79086 22 3 20.1943 3 17.9668V10.1503C3 8.93937 3.53964 7.7925 4.46986 7.02652L9.46986 2.90935C10.9423 1.69689 13.0577 1.69688 14.5301 2.90935L19.5301 7.02652C20.4604 7.7925 21 8.93937 21 10.1503ZM9.10649 10.4468L11.1056 9.44721C11.6686 9.16569 12.3314 9.16569 12.8944 9.44721L14.8851 10.4426C15.5675 10.7838 16.0054 11.4852 15.9644 12.247C15.8032 15.2444 15.075 16.6394 13.113 18.1873C12.4617 18.701 11.5391 18.6998 10.887 18.1872C8.93009 16.6489 8.17507 15.2712 8.02788 12.2376C7.99114 11.4804 8.42845 10.7858 9.10649 10.4468Z" fill="#28303F"/>
</svg>
