<svg width="24" height="24" viewBox="0 0 24 24" fill="none" xmlns="http://www.w3.org/2000/svg">
<path fill-rule="evenodd" clip-rule="evenodd" d="M16.1804 22H7.81965C5.5109 22 3.6393 20.214 3.6393 18.0108V13.133C3.6393 12.4248 3.34447 11.7456 2.81969 11.2448C1.60381 10.0845 1.76187 8.16205 3.15251 7.19692L9.54124 2.763C11.0071 1.74567 12.9929 1.74567 14.4588 2.763L20.8475 7.19691C22.2381 8.16205 22.3962 10.0845 21.1803 11.2448C20.6555 11.7456 20.3607 12.4248 20.3607 13.133V18.0108C20.3607 20.214 18.4891 22 16.1804 22ZM15.9914 12.9026C16.6368 13.5084 16.6368 14.4916 15.9914 15.0974C15.0786 15.9541 13.6304 17 11.9999 17C10.3695 17 8.92127 15.9541 8.00853 15.0974C7.36304 14.4916 7.36304 13.5084 8.00853 12.9026C8.92127 12.0459 10.3695 11 11.9999 11C13.6304 11 15.0786 12.0459 15.9914 12.9026ZM12.9999 14C12.9999 14.5523 12.5522 15 11.9999 15C11.4477 15 10.9999 14.5523 10.9999 14C10.9999 13.4477 11.4477 13 11.9999 13C12.5522 13 12.9999 13.4477 12.9999 14Z" fill="#28303F"/>
</svg>
