<svg width="24" height="24" viewBox="0 0 24 24" fill="none" xmlns="http://www.w3.org/2000/svg">
<path fill-rule="evenodd" clip-rule="evenodd" d="M21 10.1503V17.9668C21 20.1943 19.2091 22 17 22H7C4.79086 22 3 20.1943 3 17.9668V10.1503C3 8.93937 3.53964 7.7925 4.46986 7.02652L9.46986 2.90935C10.9423 1.69689 13.0577 1.69688 14.5301 2.90935L19.5301 7.02652C20.4604 7.7925 21 8.93937 21 10.1503ZM13.6 9.45004C13.8485 9.11867 13.7814 8.64857 13.45 8.40004C13.1186 8.15152 12.6485 8.21867 12.4 8.55004L9.4 12.55C9.22956 12.7773 9.20214 13.0814 9.32918 13.3355C9.45623 13.5895 9.71593 13.75 10 13.75H12.5L10.4 16.55C10.1515 16.8814 10.2186 17.3515 10.55 17.6C10.8814 17.8486 11.3515 17.7814 11.6 17.45L14.6 13.45C14.7705 13.2228 14.7979 12.9187 14.6708 12.6646C14.5438 12.4105 14.2841 12.25 14 12.25H11.5L13.6 9.45004Z" fill="#28303F"/>
</svg>
