<svg width="24" height="24" viewBox="0 0 24 24" fill="none" xmlns="http://www.w3.org/2000/svg">
<path fill-rule="evenodd" clip-rule="evenodd" d="M21 10.1503V17.9668C21 20.1943 19.2091 22 17 22H7C4.79086 22 3 20.1943 3 17.9668V10.1503C3 8.93937 3.53964 7.7925 4.46986 7.02652L9.46986 2.90935C10.9423 1.69689 13.0577 1.69688 14.5301 2.90935L19.5301 7.02652C20.4604 7.7925 21 8.93937 21 10.1503ZM13.95 9.25C12.9559 9.25 12.15 10.0559 12.15 11.05C12.15 11.0704 12.1503 11.0907 12.151 11.111L10.1781 12.0974C9.8698 11.8491 9.47756 11.7 9.05 11.7C8.05589 11.7 7.25 12.5059 7.25 13.5C7.25 14.4941 8.05589 15.3 9.05 15.3C9.47756 15.3 9.8698 15.1509 10.1781 14.9026L12.151 15.889C12.1503 15.9093 12.15 15.9296 12.15 15.95C12.15 16.9441 12.9559 17.75 13.95 17.75C14.9441 17.75 15.75 16.9441 15.75 15.95C15.75 14.9559 14.9441 14.15 13.95 14.15C13.5224 14.15 13.1302 14.2991 12.8219 14.5474L10.849 13.561C10.8497 13.5407 10.85 13.5204 10.85 13.5C10.85 13.4796 10.8497 13.4593 10.849 13.439L12.8219 12.4526C13.1302 12.7009 13.5224 12.85 13.95 12.85C14.9441 12.85 15.75 12.0441 15.75 11.05C15.75 10.0559 14.9441 9.25 13.95 9.25Z" fill="#28303F"/>
</svg>
