<svg width="24" height="24" viewBox="0 0 24 24" fill="none" xmlns="http://www.w3.org/2000/svg">
<path fill-rule="evenodd" clip-rule="evenodd" d="M21 10.1503V17.9668C21 20.1943 19.2091 22 17 22H7C4.79086 22 3 20.1943 3 17.9668V10.1503C3 8.93937 3.53964 7.7925 4.46986 7.02652L9.46986 2.90935C10.9423 1.69689 13.0577 1.69688 14.5301 2.90935L19.5301 7.02652C20.4604 7.7925 21 8.93937 21 10.1503ZM12.75 9C12.75 8.58579 12.4142 8.25 12 8.25C11.5858 8.25 11.25 8.58579 11.25 9V15.1893L10.5303 14.4697C10.2374 14.1768 9.76256 14.1768 9.46967 14.4697C9.17678 14.7626 9.17678 15.2374 9.46967 15.5303L10.7626 16.8232C11.446 17.5066 12.554 17.5066 13.2374 16.8232L14.5303 15.5303C14.8232 15.2374 14.8232 14.7626 14.5303 14.4697C14.2374 14.1768 13.7626 14.1768 13.4697 14.4697L12.75 15.1893V9Z" fill="#28303F"/>
</svg>
