<svg width="24" height="24" viewBox="0 0 24 24" fill="none" xmlns="http://www.w3.org/2000/svg">
<path fill-rule="evenodd" clip-rule="evenodd" d="M21 10.1503V17.9668C21 20.1943 19.2091 22 17 22H7C4.79086 22 3 20.1943 3 17.9668V10.1503C3 8.93937 3.53964 7.7925 4.46986 7.02652L9.46986 2.90935C10.9423 1.69689 13.0577 1.69688 14.5301 2.90935L19.5301 7.02652C20.4604 7.7925 21 8.93937 21 10.1503ZM12 12.0001L12.3094 11.6908C13.1636 10.8365 14.5487 10.8365 15.403 11.6908C16.2572 12.545 16.2572 13.9301 15.403 14.7844L13.2374 16.9499C12.554 17.6333 11.446 17.6333 10.7626 16.9499L8.59705 14.7844C7.74278 13.9301 7.74278 12.545 8.59705 11.6908C9.45132 10.8365 10.8364 10.8365 11.6906 11.6908L12 12.0001Z" fill="#28303F"/>
</svg>
