<svg width="24" height="24" viewBox="0 0 24 24" fill="none" xmlns="http://www.w3.org/2000/svg">
<path fill-rule="evenodd" clip-rule="evenodd" d="M16.1804 22C18.4891 22 20.3607 20.214 20.3607 18.0108V13.133C20.3607 12.4248 20.6555 11.7456 21.1803 11.2448C22.3962 10.0845 22.2381 8.16205 20.8475 7.19691L14.4588 2.763C12.9929 1.74567 11.0071 1.74567 9.54124 2.763L3.15251 7.19692C1.76187 8.16205 1.60381 10.0845 2.81969 11.2448C3.34447 11.7456 3.6393 12.4248 3.6393 13.133V18.0108C3.6393 20.214 5.5109 22 7.81965 22H16.1804ZM8.66667 12.3333C8.66667 10.4924 10.1591 9 12 9C13.841 9 15.3333 10.4924 15.3333 12.3333V13.5672C15.3333 14.1623 15.5797 14.7309 16.0139 15.138C16.7259 15.8055 16.2535 17 15.2775 17H8.72246C7.74649 17 7.27413 15.8055 7.98614 15.138C8.42033 14.7309 8.66667 14.1623 8.66667 13.5672V12.3333ZM11 18.25C10.5858 18.25 10.25 18.5858 10.25 19C10.25 19.4142 10.5858 19.75 11 19.75H13C13.4142 19.75 13.75 19.4142 13.75 19C13.75 18.5858 13.4142 18.25 13 18.25H11Z" fill="#28303F"/>
</svg>
