<svg width="24" height="24" viewBox="0 0 24 24" fill="none" xmlns="http://www.w3.org/2000/svg">
<path fill-rule="evenodd" clip-rule="evenodd" d="M21 10.1503V17.9668C21 20.1943 19.2091 22 17 22H7C4.79086 22 3 20.1943 3 17.9668V10.1503C3 8.93937 3.53964 7.7925 4.46986 7.02652L9.46986 2.90935C10.9423 1.69689 13.0577 1.69688 14.5301 2.90935L19.5301 7.02652C20.4604 7.7925 21 8.93937 21 10.1503ZM13.4697 11.5304L12.75 10.8108V17.0001C12.75 17.4143 12.4142 17.7501 12 17.7501C11.5858 17.7501 11.25 17.4143 11.25 17.0001V10.8108L10.5303 11.5304C10.2374 11.8233 9.76256 11.8233 9.46967 11.5304C9.17678 11.2375 9.17678 10.7627 9.46967 10.4698L10.7626 9.17687C11.446 8.49345 12.554 8.49345 13.2374 9.17687L14.5303 10.4698C14.8232 10.7627 14.8232 11.2375 14.5303 11.5304C14.2374 11.8233 13.7626 11.8233 13.4697 11.5304Z" fill="#28303F"/>
</svg>
