<svg width="24" height="24" viewBox="0 0 24 24" fill="none" xmlns="http://www.w3.org/2000/svg">
<path fill-rule="evenodd" clip-rule="evenodd" d="M3.6393 18.0108C3.6393 20.214 5.5109 22 7.81965 22H16.1804C18.4891 22 20.3607 20.214 20.3607 18.0108V13.133C20.3607 12.4248 20.6555 11.7456 21.1803 11.2448C22.3962 10.0845 22.2381 8.16205 20.8475 7.19691L14.4588 2.763C12.9929 1.74567 11.0071 1.74567 9.54124 2.763L3.15251 7.19692C1.76187 8.16205 1.60381 10.0845 2.81969 11.2448C3.34447 11.7456 3.6393 12.4248 3.6393 13.133V18.0108ZM14.6517 16.6517C14.3588 16.9446 13.8839 16.9446 13.591 16.6517L12 15.0607L10.409 16.6517C10.1161 16.9446 9.64123 16.9446 9.34833 16.6517C9.05544 16.3588 9.05544 15.8839 9.34833 15.591L10.9393 14L9.34837 12.409C9.05547 12.1161 9.05547 11.6413 9.34837 11.3484C9.64126 11.0555 10.1161 11.0555 10.409 11.3484L12 12.9393L13.591 11.3484C13.8839 11.0555 14.3587 11.0555 14.6516 11.3484C14.9445 11.6413 14.9445 12.1161 14.6516 12.409L13.0607 14L14.6517 15.591C14.9446 15.8839 14.9446 16.3588 14.6517 16.6517Z" fill="#28303F"/>
</svg>
