<svg width="24" height="24" viewBox="0 0 24 24" fill="none" xmlns="http://www.w3.org/2000/svg">
<path fill-rule="evenodd" clip-rule="evenodd" d="M16.1804 22H7.81965C5.5109 22 3.6393 20.214 3.6393 18.0108V13.133C3.6393 12.4248 3.34447 11.7456 2.81969 11.2448C1.60381 10.0845 1.76187 8.16205 3.15251 7.19692L9.54124 2.763C11.0071 1.74567 12.9929 1.74567 14.4588 2.763L20.8475 7.19691C22.2381 8.16205 22.3962 10.0845 21.1803 11.2448C20.6555 11.7456 20.3607 12.4248 20.3607 13.133V18.0108C20.3607 20.214 18.4891 22 16.1804 22ZM8.29286 15.3095C7.91154 15.1477 7.47128 15.3257 7.30951 15.707C7.14774 16.0884 7.32572 16.5286 7.70704 16.6904C9.33603 17.3815 10.6774 17.7533 12.0423 17.7499C13.4079 17.7465 14.7225 17.3676 16.2969 16.6886C16.6773 16.5246 16.8527 16.0833 16.6886 15.703C16.5246 15.3226 16.0833 15.1472 15.703 15.3113C14.2138 15.9534 13.1142 16.2472 12.0385 16.2499C10.9622 16.2526 9.83541 15.9639 8.29286 15.3095Z" fill="#28303F"/>
</svg>
