<svg width="24" height="24" viewBox="0 0 24 24" fill="none" xmlns="http://www.w3.org/2000/svg">
<path fill-rule="evenodd" clip-rule="evenodd" d="M16.1804 22C18.4891 22 20.3607 20.214 20.3607 18.0108V13.133C20.3607 12.4248 20.6555 11.7456 21.1803 11.2448C22.3962 10.0845 22.2381 8.16205 20.8475 7.19691L14.4588 2.763C12.9929 1.74567 11.0071 1.74567 9.54124 2.763L3.15251 7.19692C1.76187 8.16205 1.60381 10.0845 2.81969 11.2448C3.34447 11.7456 3.6393 12.4248 3.6393 13.133V18.0108C3.6393 20.214 5.5109 22 7.81965 22H16.1804ZM12 9.25C12.4142 9.25 12.75 9.58579 12.75 10V12C12.75 12.4142 12.4142 12.75 12 12.75C11.5858 12.75 11.25 12.4142 11.25 12V10C11.25 9.58579 11.5858 9.25 12 9.25ZM9.5623 11.8506C9.8364 11.54 9.80685 11.0661 9.4963 10.792C9.18575 10.5179 8.71179 10.5474 8.4377 10.858C7.69904 11.6948 7.25 12.7959 7.25 14.0001C7.25 16.6234 9.37665 18.7501 12 18.7501C14.6234 18.7501 16.75 16.6234 16.75 14.0001C16.75 12.7959 16.301 11.6948 15.5623 10.858C15.2882 10.5474 14.8143 10.5179 14.5037 10.792C14.1931 11.0661 14.1636 11.54 14.4377 11.8506C14.9438 12.4239 15.25 13.1753 15.25 14.0001C15.25 15.795 13.7949 17.2501 12 17.2501C10.2051 17.2501 8.75 15.795 8.75 14.0001C8.75 13.1753 9.05623 12.4239 9.5623 11.8506Z" fill="#28303F"/>
</svg>
