<svg width="24" height="24" viewBox="0 0 24 24" fill="none" xmlns="http://www.w3.org/2000/svg">
<path fill-rule="evenodd" clip-rule="evenodd" d="M16.1804 22H7.81965C5.5109 22 3.6393 20.214 3.6393 18.0108V13.133C3.6393 12.4248 3.34447 11.7456 2.81969 11.2448C1.60381 10.0845 1.76187 8.16205 3.15251 7.19692L9.54124 2.763C11.0071 1.74567 12.9929 1.74567 14.4588 2.763L20.8475 7.19691C22.2381 8.16205 22.3962 10.0845 21.1803 11.2448C20.6555 11.7456 20.3607 12.4248 20.3607 13.133V18.0108C20.3607 20.214 18.4891 22 16.1804 22ZM14 17.75C13.5858 17.75 13.25 17.4142 13.25 17C13.25 16.5858 13.5858 16.25 14 16.25H14.7865L13.2236 13.1243C13.1315 12.94 12.8685 12.94 12.7764 13.1243L11.5652 15.5466C10.9203 16.8364 9.07967 16.8364 8.43475 15.5466L6.32918 11.3354C6.14394 10.9649 6.29411 10.5144 6.66459 10.3292C7.03507 10.1439 7.48558 10.2941 7.67082 10.6646L9.77639 14.8757C9.86852 15.06 10.1315 15.06 10.2236 14.8757L11.4348 12.4534C12.0797 11.1636 13.9203 11.1636 14.5652 12.4534L16 15.3229L16.3292 14.6646C16.5144 14.2941 16.9649 14.1439 17.3354 14.3292C17.7059 14.5144 17.8561 14.9649 17.6708 15.3354L16.6708 17.3354C16.5438 17.5895 16.2841 17.75 16 17.75H14Z" fill="#28303F"/>
</svg>
