<svg width="24" height="24" viewBox="0 0 24 24" fill="none" xmlns="http://www.w3.org/2000/svg">
<path fill-rule="evenodd" clip-rule="evenodd" d="M21 17.9668V10.1503C21 8.93937 20.4604 7.7925 19.5301 7.02652L14.5301 2.90935C13.0577 1.69688 10.9423 1.69689 9.46986 2.90935L4.46986 7.02652C3.53964 7.7925 3 8.93937 3 10.1503V17.9668C3 20.1943 4.79086 22 7 22H17C19.2091 22 21 20.1943 21 17.9668ZM12.75 17C12.75 17.4142 12.4142 17.75 12 17.75C11.5858 17.75 11.25 17.4142 11.25 17C11.25 16.5858 11.5858 16.25 12 16.25C12.4142 16.25 12.75 16.5858 12.75 17ZM8.28765 13.2877C9.23854 12.3368 10.55 11.75 12 11.75C13.4499 11.75 14.7614 12.3368 15.7123 13.2877C16.0052 13.5806 16.48 13.5806 16.7729 13.2877C17.0658 12.9948 17.0658 12.5199 16.7729 12.227C15.5522 11.0063 13.8637 10.25 12 10.25C10.1362 10.25 8.44768 11.0063 7.22699 12.227C6.9341 12.5199 6.9341 12.9948 7.22699 13.2877C7.51989 13.5806 7.99476 13.5806 8.28765 13.2877ZM10.409 15.409C10.817 15.001 11.3784 14.75 12 14.75C12.6215 14.75 13.183 15.001 13.591 15.409C13.8838 15.7019 14.3587 15.7019 14.6516 15.409C14.9445 15.1161 14.9445 14.6412 14.6516 14.3483C13.9738 13.6706 13.0353 13.25 12 13.25C10.9646 13.25 10.0261 13.6706 9.34831 14.3483C9.05542 14.6412 9.05542 15.1161 9.34831 15.409C9.64121 15.7019 10.1161 15.7019 10.409 15.409Z" fill="#28303F"/>
</svg>
