<svg width="24" height="24" viewBox="0 0 24 24" fill="none" xmlns="http://www.w3.org/2000/svg">
<path fill-rule="evenodd" clip-rule="evenodd" d="M21 10.1503V17.9668C21 20.1943 19.2091 22 17 22H7C4.79086 22 3 20.1943 3 17.9668V10.1503C3 8.93937 3.53964 7.7925 4.46986 7.02652L9.46986 2.90935C10.9423 1.69689 13.0577 1.69688 14.5301 2.90935L19.5301 7.02652C20.4604 7.7925 21 8.93937 21 10.1503ZM14 17.75C13.5858 17.75 13.25 17.4142 13.25 17C13.25 16.5858 13.5858 16.25 14 16.25H14.7865L13.2236 13.1243C13.1315 12.94 12.8686 12.94 12.7764 13.1243L11.5653 15.5466C10.9204 16.8364 9.07971 16.8364 8.43479 15.5466L6.32922 11.3354C6.14398 10.9649 6.29415 10.5144 6.66463 10.3292C7.03512 10.1439 7.48562 10.2941 7.67086 10.6646L9.77644 14.8757C9.86857 15.06 10.1315 15.06 10.2236 14.8757L11.4348 12.4534C12.0797 11.1636 13.9204 11.1636 14.5653 12.4534L16 15.3229L16.3292 14.6646C16.5145 14.2941 16.965 14.1439 17.3355 14.3292C17.7059 14.5144 17.8561 14.9649 17.6709 15.3354L16.6709 17.3354C16.5438 17.5895 16.2841 17.75 16 17.75H14Z" fill="#28303F"/>
</svg>
