<svg width="24" height="24" viewBox="0 0 24 24" fill="none" xmlns="http://www.w3.org/2000/svg">
<path fill-rule="evenodd" clip-rule="evenodd" d="M16.1804 22H7.81965C5.5109 22 3.6393 20.214 3.6393 18.0108V13.133C3.6393 12.4248 3.34447 11.7456 2.81969 11.2448C1.60381 10.0845 1.76187 8.16205 3.15251 7.19692L9.54124 2.763C11.0071 1.74567 12.9929 1.74567 14.4588 2.763L20.8475 7.19691C22.2381 8.16205 22.3962 10.0845 21.1803 11.2448C20.6555 11.7456 20.3607 12.4248 20.3607 13.133V18.0108C20.3607 20.214 18.4891 22 16.1804 22ZM7 12C7 10.8954 7.89543 10 9 10H15C16.1046 10 17 10.8954 17 12V16C17 17.1046 16.1046 18 15 18H9C7.89543 18 7 17.1046 7 16V12ZM9.32922 12.6645C9.51446 12.294 9.96497 12.1439 10.3355 12.3291L11.441 12.8819C11.7929 13.0578 12.2071 13.0578 12.5591 12.8819L13.6646 12.3291C14.0351 12.1439 14.4856 12.294 14.6709 12.6645C14.8561 13.035 14.7059 13.4855 14.3355 13.6707L13.2299 14.2235C12.4557 14.6106 11.5444 14.6106 10.7702 14.2235L9.66463 13.6707C9.29415 13.4855 9.14398 13.035 9.32922 12.6645Z" fill="#28303F"/>
</svg>
