<svg width="24" height="24" viewBox="0 0 24 24" fill="none" xmlns="http://www.w3.org/2000/svg">
<path fill-rule="evenodd" clip-rule="evenodd" d="M16.1804 22H7.81965C5.5109 22 3.6393 20.214 3.6393 18.0108V13.133C3.6393 12.4248 3.34447 11.7456 2.81969 11.2448C1.60381 10.0845 1.76187 8.16205 3.15251 7.19692L9.54124 2.763C11.0071 1.74567 12.9929 1.74567 14.4588 2.763L20.8475 7.19691C22.2381 8.16205 22.3962 10.0845 21.1803 11.2448C20.6555 11.7456 20.3607 12.4248 20.3607 13.133V18.0108C20.3607 20.214 18.4891 22 16.1804 22ZM9.10649 10.4468L11.1056 9.44721C11.6686 9.16569 12.3314 9.16569 12.8944 9.44721L14.8851 10.4426C15.5675 10.7838 16.0054 11.4852 15.9644 12.247C15.8032 15.2444 15.075 16.6394 13.113 18.1873C12.4617 18.701 11.5391 18.6998 10.887 18.1872C8.93009 16.6489 8.17507 15.2712 8.02788 12.2376C7.99114 11.4804 8.42845 10.7858 9.10649 10.4468Z" fill="#28303F"/>
</svg>
