<svg width="24" height="24" viewBox="0 0 24 24" fill="none" xmlns="http://www.w3.org/2000/svg">
<path fill-rule="evenodd" clip-rule="evenodd" d="M21 17.9668V10.1503C21 8.93937 20.4604 7.7925 19.5301 7.02652L14.5301 2.90935C13.0577 1.69688 10.9423 1.69689 9.46986 2.90935L4.46986 7.02652C3.53964 7.7925 3 8.93937 3 10.1503V17.9668C3 20.1943 4.79086 22 7 22H17C19.2091 22 21 20.1943 21 17.9668ZM12.4242 10H11.5758C11.1071 10 10.7273 10.3582 10.7273 10.8C10.7273 11.3056 10.1863 11.6271 9.74222 11.3853L9.69712 11.3608C9.29129 11.1399 8.77236 11.271 8.53806 11.6536L8.11382 12.3464C7.87951 12.729 8.01856 13.2183 8.42439 13.4392C8.86867 13.6811 8.86868 14.3189 8.4244 14.5608C8.01857 14.7817 7.87952 15.271 8.11383 15.6536L8.53807 16.3464C8.77237 16.729 9.2913 16.8601 9.69713 16.6392L9.74222 16.6147C10.1863 16.3729 10.7273 16.6944 10.7273 17.2C10.7273 17.6418 11.1071 18 11.5758 18H12.4242C12.8928 18 13.2727 17.6418 13.2727 17.2C13.2727 16.6944 13.8137 16.3729 14.2578 16.6147L14.3029 16.6392C14.7087 16.8601 15.2276 16.729 15.4619 16.3464L15.8862 15.6536C16.1205 15.271 15.9814 14.7817 15.5756 14.5608C15.1313 14.3189 15.1313 13.6811 15.5756 13.4392C15.9814 13.2183 16.1205 12.729 15.8862 12.3464L15.4619 11.6536C15.2276 11.271 14.7087 11.1399 14.3029 11.3608L14.2578 11.3853C13.8137 11.6271 13.2727 11.3056 13.2727 10.8C13.2727 10.3582 12.8928 10 12.4242 10ZM12 15.5C12.8284 15.5 13.5 14.8284 13.5 14C13.5 13.1716 12.8284 12.5 12 12.5C11.1716 12.5 10.5 13.1716 10.5 14C10.5 14.8284 11.1716 15.5 12 15.5Z" fill="#28303F"/>
</svg>
