<svg width="24" height="24" viewBox="0 0 24 24" fill="none" xmlns="http://www.w3.org/2000/svg">
<path fill-rule="evenodd" clip-rule="evenodd" d="M21 10.1503V17.9668C21 20.1943 19.2091 22 17 22H7C4.79086 22 3 20.1943 3 17.9668V10.1503C3 8.93937 3.53964 7.7925 4.46986 7.02652L9.46986 2.90935C10.9423 1.69689 13.0577 1.69688 14.5301 2.90935L19.5301 7.02652C20.4604 7.7925 21 8.93937 21 10.1503ZM12 9C12 9 15.5 11.9147 15.5 14.4C15.5 16.8853 13.6569 18 12 18C10.3431 18 8.5 16.8853 8.5 14.4C8.5 11.9147 12 9 12 9Z" fill="#28303F"/>
</svg>
