<svg width="24" height="24" viewBox="0 0 24 24" fill="none" xmlns="http://www.w3.org/2000/svg">
<path fill-rule="evenodd" clip-rule="evenodd" d="M20.3607 18.0108C20.3607 20.214 18.4891 22 16.1804 22H7.81965C5.5109 22 3.6393 20.214 3.6393 18.0108V13.133C3.6393 12.4248 3.34447 11.7456 2.81969 11.2448C1.60381 10.0845 1.76187 8.16205 3.15251 7.19692L9.54124 2.763C11.0071 1.74567 12.9929 1.74567 14.4588 2.763L20.8475 7.19691C22.2381 8.16205 22.3962 10.0845 21.1803 11.2448C20.6555 11.7456 20.3607 12.4248 20.3607 13.133V18.0108ZM12 9.75C11.3096 9.75 10.75 10.3096 10.75 11V12H13.25V11C13.25 10.3096 12.6904 9.75 12 9.75ZM9.25 12C9.25 12.0479 9.25449 12.0947 9.26307 12.1401C8.5232 12.4335 8 13.1557 8 14V16C8 17.1046 8.89543 18 10 18H14C15.1046 18 16 17.1046 16 16V14C16 13.1557 15.4768 12.4335 14.7369 12.1401C14.7455 12.0947 14.75 12.0479 14.75 12V11C14.75 9.48122 13.5188 8.25 12 8.25C10.4812 8.25 9.25 9.48122 9.25 11V12Z" fill="#28303F"/>
</svg>
