<svg width="24" height="24" viewBox="0 0 24 24" fill="none" xmlns="http://www.w3.org/2000/svg">
<path fill-rule="evenodd" clip-rule="evenodd" d="M20 14C20 9.83662 15.4537 5.13091 13.2155 3.06654C12.5215 2.42639 11.4785 2.42639 10.7845 3.06654C8.5463 5.13091 4 9.83662 4 14C4 19.5229 8.2129 22 12 22C15.7871 22 20 19.5229 20 14ZM12 18.75C12.4142 18.75 12.75 18.4142 12.75 18C12.75 17.5858 12.4142 17.25 12 17.25C11.5858 17.25 11.25 17.5858 11.25 18C11.25 18.4142 11.5858 18.75 12 18.75ZM8.28765 14.2877C9.23854 13.3368 10.55 12.75 12 12.75C13.4499 12.75 14.7614 13.3368 15.7123 14.2877C16.0052 14.5806 16.48 14.5806 16.7729 14.2877C17.0658 13.9948 17.0658 13.5199 16.7729 13.227C15.5522 12.0064 13.8637 11.25 12 11.25C10.1362 11.25 8.44768 12.0064 7.22699 13.227C6.9341 13.5199 6.9341 13.9948 7.22699 14.2877C7.51989 14.5806 7.99476 14.5806 8.28765 14.2877ZM10.409 16.409C10.817 16.001 11.3784 15.75 12 15.75C12.6215 15.75 13.183 16.001 13.591 16.409C13.8838 16.7019 14.3587 16.7019 14.6516 16.409C14.9445 16.1161 14.9445 15.6413 14.6516 15.3484C13.9738 14.6706 13.0353 14.25 12 14.25C10.9646 14.25 10.0261 14.6706 9.34831 15.3484C9.05542 15.6413 9.05542 16.1161 9.34831 16.409C9.64121 16.7019 10.1161 16.7019 10.409 16.409Z" fill="#28303F"/>
</svg>
