<svg width="24" height="24" viewBox="0 0 24 24" fill="none" xmlns="http://www.w3.org/2000/svg">
<path fill-rule="evenodd" clip-rule="evenodd" d="M10.6324 2.00728C10.939 1.61818 11.3955 1.25 11.9999 1.25C12.6044 1.25 13.0608 1.61818 13.3675 2.00728C13.4131 2.06519 13.4574 2.12588 13.5004 2.18914C15.8529 2.79482 17.6469 4.79144 17.9535 7.25H17.9999C18.4142 7.25 18.7499 7.58579 18.7499 8C18.7499 8.41421 18.4142 8.75 17.9999 8.75H17.9535C17.6469 11.2086 15.8529 13.2052 13.5004 13.8109C13.4574 13.8741 13.4131 13.9348 13.3675 13.9927C13.0622 14.3802 12.6083 14.7469 12.0077 14.75C12.4184 14.7541 12.75 15.0883 12.75 15.4999V16.378C13.3893 16.604 13.896 17.1107 14.122 17.75H20C20.4142 17.75 20.75 18.0858 20.75 18.5C20.75 18.9142 20.4142 19.25 20 19.25H14.122C13.896 19.8893 13.3893 20.396 12.75 20.622V22C12.75 22.4142 12.4142 22.75 12 22.75C11.5858 22.75 11.25 22.4142 11.25 22V20.622C10.6107 20.396 10.104 19.8893 9.87803 19.25H4C3.58579 19.25 3.25 18.9142 3.25 18.5C3.25 18.0858 3.58579 17.75 4 17.75H9.87803C10.104 17.1107 10.6107 16.604 11.25 16.378V15.4999C11.25 15.0884 11.5815 14.7542 11.9921 14.75C11.3916 14.7468 10.9377 14.3801 10.6324 13.9927C10.5868 13.9348 10.5425 13.8741 10.4995 13.8109C8.14699 13.2052 6.35294 11.2086 6.04636 8.75H5.99994C5.58573 8.75 5.24994 8.41421 5.24994 8C5.24994 7.58579 5.58573 7.25 5.99994 7.25H6.04636C6.35294 4.79144 8.14699 2.79482 10.4995 2.18914C10.5425 2.12588 10.5868 2.06519 10.6324 2.00728Z" fill="#28303F"/>
</svg>
