<svg width="24" height="24" viewBox="0 0 24 24" fill="none" xmlns="http://www.w3.org/2000/svg">
<path fill-rule="evenodd" clip-rule="evenodd" d="M10.2877 4.28769C11.2385 3.3368 12.55 2.75 14 2.75C15.4499 2.75 16.7614 3.3368 17.7123 4.28769C18.0052 4.58058 18.48 4.58058 18.7729 4.28769C19.0658 3.9948 19.0658 3.51992 18.7729 3.22703C17.5522 2.00634 15.8637 1.25 14 1.25C12.1362 1.25 10.4477 2.00634 9.22699 3.22703C8.9341 3.51992 8.9341 3.9948 9.22699 4.28769C9.51989 4.58058 9.99476 4.58058 10.2877 4.28769ZM12.409 6.40901C12.817 6.00102 13.3784 5.75 14 5.75C14.6215 5.75 15.183 6.00102 15.591 6.40901C15.8838 6.7019 16.3587 6.7019 16.6516 6.40901C16.9445 6.11612 16.9445 5.64124 16.6516 5.34835C15.9738 4.67055 15.0353 4.25 14 4.25C12.9646 4.25 12.0261 4.67055 11.3483 5.34835C11.0554 5.64124 11.0554 6.11612 11.3483 6.40901C11.6412 6.7019 12.1161 6.7019 12.409 6.40901ZM17.8039 8.23924C18.4227 8.11548 19 8.58878 19 9.21982V10V11.1802V18C19 19.1046 18.1046 20 17 20C15.8954 20 15 19.1046 15 18C15 16.8954 15.8954 16 17 16C17.1726 16 17.3402 16.0219 17.5 16.063V12.3L10.5 13.7V20C10.5 21.1046 9.60457 22 8.5 22C7.39543 22 6.5 21.1046 6.5 20C6.5 18.8954 7.39543 18 8.5 18C8.67265 18 8.84019 18.0219 9 18.063V12.7809L9 12.7802L9 12L9 10.8198C9 10.3431 9.33646 9.93273 9.80388 9.83924L17.8039 8.23924Z" fill="#28303F"/>
</svg>
