<svg width="24" height="24" viewBox="0 0 24 24" fill="none" xmlns="http://www.w3.org/2000/svg">
<path fill-rule="evenodd" clip-rule="evenodd" d="M12.0001 2.75C10.5501 2.75 9.23866 3.3368 8.28778 4.28769C7.99488 4.58058 7.52001 4.58058 7.22712 4.28769C6.93422 3.9948 6.93422 3.51992 7.22712 3.22703C8.4478 2.00634 10.1363 1.25 12.0001 1.25C13.8638 1.25 15.5524 2.00634 16.7731 3.22703C17.066 3.51992 17.066 3.9948 16.7731 4.28769C16.4802 4.58058 16.0053 4.58058 15.7124 4.28769C14.7615 3.3368 13.45 2.75 12.0001 2.75ZM12.0001 5.75C11.3786 5.75 10.8171 6.00102 10.4091 6.40901C10.1162 6.7019 9.64133 6.7019 9.34844 6.40901C9.05554 6.11612 9.05554 5.64124 9.34844 5.34835C10.0262 4.67055 10.9648 4.25 12.0001 4.25C13.0354 4.25 13.9739 4.67055 14.6517 5.34835C14.9446 5.64124 14.9446 6.11612 14.6517 6.40901C14.3588 6.7019 13.884 6.7019 13.5911 6.40901C13.1831 6.00102 12.6216 5.75 12.0001 5.75ZM9.67745 8.3517C9.85518 8.72584 9.69596 9.17322 9.32182 9.35096C7.20852 10.3549 5.75 12.5078 5.75 14.9999C5.75 18.4517 8.54822 21.2499 12 21.2499C15.4518 21.2499 18.25 18.4517 18.25 14.9999C18.25 12.5078 16.7915 10.3549 14.6782 9.35096C14.304 9.17322 14.1448 8.72584 14.3226 8.3517C14.5003 7.97755 14.9477 7.81833 15.3218 7.99607C17.9384 9.23908 19.75 11.9072 19.75 14.9999C19.75 19.2801 16.2802 22.7499 12 22.7499C7.71979 22.7499 4.25 19.2801 4.25 14.9999C4.25 11.9072 6.06159 9.23908 8.67818 7.99607C9.05232 7.81833 9.49971 7.97755 9.67745 8.3517ZM12.75 8C12.75 7.58579 12.4142 7.25 12 7.25C11.5858 7.25 11.25 7.58579 11.25 8V10C11.25 10.4142 11.5858 10.75 12 10.75C12.4142 10.75 12.75 10.4142 12.75 10V8Z" fill="#28303F"/>
</svg>
