<svg width="24" height="24" viewBox="0 0 24 24" fill="none" xmlns="http://www.w3.org/2000/svg">
<path fill-rule="evenodd" clip-rule="evenodd" d="M6.75007 8C6.75007 5.10051 9.10057 2.75 12.0001 2.75C14.8996 2.75 17.2501 5.10051 17.2501 8C17.2501 8.41421 17.5859 8.75 18.0001 8.75C18.4143 8.75 18.7501 8.41421 18.7501 8C18.7501 4.27208 15.728 1.25 12.0001 1.25C8.27214 1.25 5.25007 4.27208 5.25007 8C5.25007 8.41421 5.58585 8.75 6.00007 8.75C6.41428 8.75 6.75007 8.41421 6.75007 8ZM10.0001 13V7C10.0001 5.89543 10.8955 5 12.0001 5C13.1046 5 14.0001 5.89543 14.0001 7V13H16.0001C18.2092 13 20.0001 14.7909 20.0001 17V17.4377C20.0001 18.1339 19.8184 18.8179 19.473 19.4223L19.1517 19.9846C18.4396 21.2309 17.1142 22 15.6788 22H11.5757C10.0071 22 8.58333 21.0832 7.93425 19.6552L5.28534 13.8276C4.68343 12.5034 5.6515 11 7.10607 11H7.17164C7.70207 11 8.21078 11.2107 8.58585 11.5858L10.0001 13Z" fill="#28303F"/>
</svg>
