<svg width="24" height="24" viewBox="0 0 24 24" fill="none" xmlns="http://www.w3.org/2000/svg">
<path fill-rule="evenodd" clip-rule="evenodd" d="M8.28765 4.28769C9.23854 3.3368 10.55 2.75 12 2.75C13.4499 2.75 14.7614 3.3368 15.7123 4.28769C16.0052 4.58058 16.48 4.58058 16.7729 4.28769C17.0658 3.9948 17.0658 3.51992 16.7729 3.22703C15.5522 2.00634 13.8637 1.25 12 1.25C10.1362 1.25 8.44768 2.00634 7.22699 3.22703C6.9341 3.51992 6.9341 3.9948 7.22699 4.28769C7.51989 4.58058 7.99476 4.58058 8.28765 4.28769ZM10.409 6.40901C10.817 6.00102 11.3784 5.75 12 5.75C12.6215 5.75 13.183 6.00102 13.591 6.40901C13.8838 6.7019 14.3587 6.7019 14.6516 6.40901C14.9445 6.11612 14.9445 5.64124 14.6516 5.34835C13.9738 4.67055 13.0353 4.25 12 4.25C10.9646 4.25 10.0261 4.67055 9.34831 5.34835C9.05542 5.64124 9.05542 6.11612 9.34831 6.40901C9.64121 6.7019 10.1161 6.7019 10.409 6.40901ZM6 12C6 9.79086 7.79086 8 10 8H14C16.2091 8 18 9.79086 18 12V18C18 20.2091 16.2091 22 14 22H10C7.79086 22 6 20.2091 6 18V12ZM12.75 11.75C12.75 12.1642 12.4142 12.5 12 12.5C11.5858 12.5 11.25 12.1642 11.25 11.75C11.25 11.3358 11.5858 11 12 11C12.4142 11 12.75 11.3358 12.75 11.75ZM15 12.5C15.4142 12.5 15.75 12.1642 15.75 11.75C15.75 11.3358 15.4142 11 15 11C14.5858 11 14.25 11.3358 14.25 11.75C14.25 12.1642 14.5858 12.5 15 12.5ZM9.75 11.75C9.75 12.1642 9.41421 12.5 9 12.5C8.58579 12.5 8.25 12.1642 8.25 11.75C8.25 11.3358 8.58579 11 9 11C9.41421 11 9.75 11.3358 9.75 11.75ZM12 15.75C12.4142 15.75 12.75 15.4142 12.75 15C12.75 14.5858 12.4142 14.25 12 14.25C11.5858 14.25 11.25 14.5858 11.25 15C11.25 15.4142 11.5858 15.75 12 15.75ZM9.75 15C9.75 15.4142 9.41421 15.75 9 15.75C8.58579 15.75 8.25 15.4142 8.25 15C8.25 14.5858 8.58579 14.25 9 14.25C9.41421 14.25 9.75 14.5858 9.75 15ZM15 15.75C15.4142 15.75 15.75 15.4142 15.75 15C15.75 14.5858 15.4142 14.25 15 14.25C14.5858 14.25 14.25 14.5858 14.25 15C14.25 15.4142 14.5858 15.75 15 15.75ZM12.75 18.25C12.75 18.6642 12.4142 19 12 19C11.5858 19 11.25 18.6642 11.25 18.25C11.25 17.8358 11.5858 17.5 12 17.5C12.4142 17.5 12.75 17.8358 12.75 18.25ZM9 19C9.41421 19 9.75 18.6642 9.75 18.25C9.75 17.8358 9.41421 17.5 9 17.5C8.58579 17.5 8.25 17.8358 8.25 18.25C8.25 18.6642 8.58579 19 9 19ZM15.75 18.25C15.75 18.6642 15.4142 19 15 19C14.5858 19 14.25 18.6642 14.25 18.25C14.25 17.8358 14.5858 17.5 15 17.5C15.4142 17.5 15.75 17.8358 15.75 18.25Z" fill="#28303F"/>
</svg>
