<svg width="24" height="24" viewBox="0 0 24 24" fill="none" xmlns="http://www.w3.org/2000/svg">
<path fill-rule="evenodd" clip-rule="evenodd" d="M8.28765 4.28769C9.23854 3.3368 10.55 2.75 12 2.75C13.4499 2.75 14.7614 3.3368 15.7123 4.28769C16.0052 4.58058 16.48 4.58058 16.7729 4.28769C17.0658 3.9948 17.0658 3.51992 16.7729 3.22703C15.5522 2.00634 13.8637 1.25 12 1.25C10.1362 1.25 8.44768 2.00634 7.22699 3.22703C6.9341 3.51992 6.9341 3.9948 7.22699 4.28769C7.51989 4.58058 7.99476 4.58058 8.28765 4.28769ZM10.409 6.40901C10.817 6.00102 11.3784 5.75 12 5.75C12.6215 5.75 13.183 6.00102 13.591 6.40901C13.8838 6.7019 14.3587 6.7019 14.6516 6.40901C14.9445 6.11612 14.9445 5.64124 14.6516 5.34835C13.9738 4.67055 13.0353 4.25 12 4.25C10.9646 4.25 10.0261 4.67055 9.34831 5.34835C9.05542 5.64124 9.05542 6.11612 9.34831 6.40901C9.64121 6.7019 10.1161 6.7019 10.409 6.40901ZM5 11C5 9.34315 6.34315 8 8 8H16C17.6569 8 19 9.34315 19 11V19C19 20.6569 17.6569 22 16 22H8C6.34315 22 5 20.6569 5 19V11ZM12 11.75C10.2051 11.75 8.75 13.2051 8.75 15C8.75 16.7949 10.2051 18.25 12 18.25C13.7949 18.25 15.25 16.7949 15.25 15C15.25 13.2051 13.7949 11.75 12 11.75ZM7.25 15C7.25 12.3766 9.37665 10.25 12 10.25C14.6234 10.25 16.75 12.3766 16.75 15C16.75 17.6234 14.6234 19.75 12 19.75C9.37665 19.75 7.25 17.6234 7.25 15ZM10.5 15.75C10.9142 15.75 11.25 15.4142 11.25 15C11.25 14.5858 10.9142 14.25 10.5 14.25C10.0858 14.25 9.75 14.5858 9.75 15C9.75 15.4142 10.0858 15.75 10.5 15.75ZM14.25 15C14.25 15.4142 13.9142 15.75 13.5 15.75C13.0858 15.75 12.75 15.4142 12.75 15C12.75 14.5858 13.0858 14.25 13.5 14.25C13.9142 14.25 14.25 14.5858 14.25 15Z" fill="#28303F"/>
</svg>
