<svg width="24" height="24" viewBox="0 0 24 24" fill="none" xmlns="http://www.w3.org/2000/svg">
<path fill-rule="evenodd" clip-rule="evenodd" d="M5.25 6C5.25 3.37665 7.37665 1.25 10 1.25H14C16.6234 1.25 18.75 3.37665 18.75 6V13C18.75 13.4142 18.4142 13.75 18 13.75C17.5858 13.75 17.25 13.4142 17.25 13V6C17.25 4.20507 15.7949 2.75 14 2.75H10C8.20507 2.75 6.75 4.20507 6.75 6V18C6.75 19.7949 8.20507 21.25 10 21.25H18C18.4142 21.25 18.75 21.5858 18.75 22C18.75 22.4142 18.4142 22.75 18 22.75H10C7.37665 22.75 5.25 20.6234 5.25 18V6ZM20.5 19H13.5C12.6716 19 12 18.3284 12 17.5C12 16.6716 12.6716 16 13.5 16H20.5C21.3284 16 22 16.6716 22 17.5C22 18.3284 21.3284 19 20.5 19ZM12 6.5C12.4142 6.5 12.75 6.16421 12.75 5.75C12.75 5.33579 12.4142 5 12 5C11.5858 5 11.25 5.33579 11.25 5.75C11.25 6.16421 11.5858 6.5 12 6.5ZM10 5.75C10 6.16421 9.66421 6.5 9.25 6.5C8.83579 6.5 8.5 6.16421 8.5 5.75C8.5 5.33579 8.83579 5 9.25 5C9.66421 5 10 5.33579 10 5.75ZM14.75 6.5C15.1642 6.5 15.5 6.16421 15.5 5.75C15.5 5.33579 15.1642 5 14.75 5C14.3358 5 14 5.33579 14 5.75C14 6.16421 14.3358 6.5 14.75 6.5ZM12.75 8.75C12.75 9.16421 12.4142 9.5 12 9.5C11.5858 9.5 11.25 9.16421 11.25 8.75C11.25 8.33579 11.5858 8 12 8C12.4142 8 12.75 8.33579 12.75 8.75ZM12 12.5C12.4142 12.5 12.75 12.1642 12.75 11.75C12.75 11.3358 12.4142 11 12 11C11.5858 11 11.25 11.3358 11.25 11.75C11.25 12.1642 11.5858 12.5 12 12.5ZM10 8.75C10 9.16421 9.66421 9.5 9.25 9.5C8.83579 9.5 8.5 9.16421 8.5 8.75C8.5 8.33579 8.83579 8 9.25 8C9.66421 8 10 8.33579 10 8.75ZM9.25 12.5C9.66421 12.5 10 12.1642 10 11.75C10 11.3358 9.66421 11 9.25 11C8.83579 11 8.5 11.3358 8.5 11.75C8.5 12.1642 8.83579 12.5 9.25 12.5ZM15.5 8.75C15.5 9.16421 15.1642 9.5 14.75 9.5C14.3358 9.5 14 9.16421 14 8.75C14 8.33579 14.3358 8 14.75 8C15.1642 8 15.5 8.33579 15.5 8.75ZM14.75 12.5C15.1642 12.5 15.5 12.1642 15.5 11.75C15.5 11.3358 15.1642 11 14.75 11C14.3358 11 14 11.3358 14 11.75C14 12.1642 14.3358 12.5 14.75 12.5Z" fill="#28303F"/>
</svg>
