<svg width="24" height="24" viewBox="0 0 24 24" fill="none" xmlns="http://www.w3.org/2000/svg">
<path fill-rule="evenodd" clip-rule="evenodd" d="M5.25 6C5.25 3.37665 7.37665 1.25 10 1.25H14C16.6234 1.25 18.75 3.37665 18.75 6V13C18.75 13.4142 18.4142 13.75 18 13.75C17.5858 13.75 17.25 13.4142 17.25 13V6C17.25 4.20507 15.7949 2.75 14 2.75H10C8.20507 2.75 6.75 4.20507 6.75 6V18C6.75 19.7949 8.20507 21.25 10 21.25H18C18.4142 21.25 18.75 21.5858 18.75 22C18.75 22.4142 18.4142 22.75 18 22.75H10C7.37665 22.75 5.25 20.6234 5.25 18V6ZM9.55355 7.8653C10.193 7.1659 11.0585 6.75 12 6.75C12.9415 6.75 13.8071 7.1659 14.4465 7.8653C14.726 8.17101 15.2003 8.19227 15.5061 7.91279C15.8118 7.6333 15.833 7.1589 15.5535 6.85319C14.6574 5.87297 13.4017 5.25 12 5.25C10.5983 5.25 9.34259 5.87297 8.44646 6.85319C8.16698 7.1589 8.18824 7.6333 8.49395 7.91279C8.79966 8.19227 9.27406 8.17101 9.55355 7.8653ZM11.0535 10.1857C11.309 9.90618 11.6443 9.75 12 9.75C12.3557 9.75 12.6909 9.90618 12.9464 10.1857C13.2259 10.4914 13.7003 10.5127 14.006 10.2332C14.3117 9.95368 14.333 9.47928 14.0535 9.17357C13.5413 8.61325 12.8159 8.25 12 8.25C11.1841 8.25 10.4587 8.61325 9.94644 9.17357C9.66695 9.47928 9.68821 9.95368 9.99392 10.2332C10.2996 10.5127 10.774 10.4914 11.0535 10.1857ZM12 12.5C12.4142 12.5 12.75 12.1642 12.75 11.75C12.75 11.3358 12.4142 11 12 11C11.5858 11 11.25 11.3358 11.25 11.75C11.25 12.1642 11.5858 12.5 12 12.5ZM13.5 19H20.5C21.3284 19 22 18.3284 22 17.5C22 16.6716 21.3284 16 20.5 16H13.5C12.6716 16 12 16.6716 12 17.5C12 18.3284 12.6716 19 13.5 19Z" fill="#28303F"/>
</svg>
