<svg width="24" height="24" viewBox="0 0 24 24" fill="none" xmlns="http://www.w3.org/2000/svg">
<path fill-rule="evenodd" clip-rule="evenodd" d="M16 5V4C16 2.89543 15.1046 2 14 2H10C8.89543 2 8 2.89543 8 4L8 5L16 5ZM8 19V20C8 21.1046 8.89543 22 10 22H14C15.1046 22 16 21.1046 16 20V19H8ZM19 10C19 7.79086 17.2091 6 15 6H9C6.79086 6 5 7.79086 5 10V14C5 16.2091 6.79086 18 9 18H15C17.2091 18 19 16.2091 19 14V10ZM12 15.75C12.4142 15.75 12.75 15.4142 12.75 15C12.75 14.5858 12.4142 14.25 12 14.25C11.5858 14.25 11.25 14.5858 11.25 15C11.25 15.4142 11.5858 15.75 12 15.75ZM12 9.75C10.55 9.75 9.23854 10.3368 8.28765 11.2877C7.99476 11.5806 7.51989 11.5806 7.22699 11.2877C6.9341 10.9948 6.9341 10.5199 7.22699 10.227C8.44768 9.00634 10.1362 8.25 12 8.25C13.8637 8.25 15.5522 9.00634 16.7729 10.227C17.0658 10.5199 17.0658 10.9948 16.7729 11.2877C16.48 11.5806 16.0052 11.5806 15.7123 11.2877C14.7614 10.3368 13.4499 9.75 12 9.75ZM12 12.75C11.3784 12.75 10.817 13.001 10.409 13.409C10.1161 13.7019 9.64121 13.7019 9.34831 13.409C9.05542 13.1161 9.05542 12.6412 9.34831 12.3484C10.0261 11.6706 10.9646 11.25 12 11.25C13.0353 11.25 13.9738 11.6706 14.6516 12.3484C14.9445 12.6412 14.9445 13.1161 14.6516 13.409C14.3587 13.7019 13.8838 13.7019 13.591 13.409C13.183 13.001 12.6215 12.75 12 12.75Z" fill="#28303F"/>
</svg>
