<svg width="24" height="24" viewBox="0 0 24 24" fill="none" xmlns="http://www.w3.org/2000/svg">
<path fill-rule="evenodd" clip-rule="evenodd" d="M8.28769 4.28769C9.23857 3.3368 10.55 2.75 12 2.75C13.45 2.75 14.7614 3.3368 15.7123 4.28769C16.0052 4.58058 16.4801 4.58058 16.773 4.28769C17.0659 3.9948 17.0659 3.51992 16.773 3.22703C15.5523 2.00634 13.8638 1.25 12 1.25C10.1362 1.25 8.44772 2.00634 7.22703 3.22703C6.93414 3.51992 6.93414 3.9948 7.22703 4.28769C7.51992 4.58058 7.9948 4.58058 8.28769 4.28769ZM10.409 6.40901C10.817 6.00102 11.3785 5.75 12 5.75C12.6215 5.75 13.183 6.00102 13.591 6.40901C13.8839 6.7019 14.3588 6.7019 14.6517 6.40901C14.9445 6.11612 14.9445 5.64124 14.6517 5.34835C13.9739 4.67055 13.0353 4.25 12 4.25C10.9647 4.25 10.0261 4.67055 9.34835 5.34835C9.05546 5.64124 9.05546 6.11612 9.34835 6.40901C9.64124 6.7019 10.1161 6.7019 10.409 6.40901ZM7.8729 9.02871C8.22564 8.39378 8.89488 8 9.62122 8H14.3787C15.1051 8 15.7743 8.39378 16.127 9.02871L18.3493 13.0287C19.0898 14.3618 18.1259 16 16.6009 16H12.75V21.25H15C15.4142 21.25 15.75 21.5858 15.75 22C15.75 22.4142 15.4142 22.75 15 22.75H9C8.58579 22.75 8.25 22.4142 8.25 22C8.25 21.5858 8.58579 21.25 9 21.25H11.25V16H7.39899C5.87403 16 4.91009 14.3618 5.65068 13.0287L7.8729 9.02871Z" fill="#28303F"/>
</svg>
