<svg width="24" height="24" viewBox="0 0 24 24" fill="none" xmlns="http://www.w3.org/2000/svg">
<path fill-rule="evenodd" clip-rule="evenodd" d="M22 7C22 4.79086 20.2091 3 18 3H6C3.79086 3 2 4.79086 2 7V13C2 15.2091 3.79086 17 6 17H11.25V19.2691C9.83333 19.352 8.42565 19.7037 6.75119 20.2925C6.36042 20.4299 6.15503 20.858 6.29242 21.2488C6.42982 21.6395 6.85797 21.8449 7.24873 21.7075C9.09206 21.0594 10.4849 20.752 11.8873 20.75C13.2931 20.748 14.7646 21.0528 16.7651 21.7123C17.1585 21.842 17.5826 21.6282 17.7123 21.2348C17.8419 20.8414 17.6282 20.4174 17.2348 20.2877C15.5284 19.7252 14.1109 19.3834 12.75 19.2819V17L18 17C20.2091 17 22 15.2091 22 13V7ZM12 13.75C12.4142 13.75 12.75 13.4142 12.75 13C12.75 12.5858 12.4142 12.25 12 12.25C11.5858 12.25 11.25 12.5858 11.25 13C11.25 13.4142 11.5858 13.75 12 13.75ZM12 7.75C10.55 7.75 9.23854 8.3368 8.28765 9.28769C7.99476 9.58058 7.51989 9.58058 7.22699 9.28769C6.9341 8.9948 6.9341 8.51992 7.22699 8.22703C8.44768 7.00634 10.1362 6.25 12 6.25C13.8637 6.25 15.5522 7.00634 16.7729 8.22703C17.0658 8.51992 17.0658 8.9948 16.7729 9.28769C16.48 9.58058 16.0052 9.58058 15.7123 9.28769C14.7614 8.3368 13.4499 7.75 12 7.75ZM12 10.75C11.3784 10.75 10.817 11.001 10.409 11.409C10.1161 11.7019 9.64121 11.7019 9.34831 11.409C9.05542 11.1161 9.05542 10.6412 9.34831 10.3483C10.0261 9.67055 10.9646 9.25 12 9.25C13.0353 9.25 13.9738 9.67055 14.6516 10.3483C14.9445 10.6412 14.9445 11.1161 14.6516 11.409C14.3587 11.7019 13.8838 11.7019 13.591 11.409C13.183 11.001 12.6215 10.75 12 10.75Z" fill="#28303F"/>
</svg>
