<svg width="24" height="24" viewBox="0 0 24 24" fill="none" xmlns="http://www.w3.org/2000/svg">
<path fill-rule="evenodd" clip-rule="evenodd" d="M8.75 6C8.75 4.20507 10.2051 2.75 12 2.75C13.7949 2.75 15.25 4.20507 15.25 6V8H8.75V6ZM7.25319 8.06959C7.25108 8.04668 7.25 8.02347 7.25 8V6C7.25 3.37665 9.37665 1.25 12 1.25C14.6234 1.25 16.75 3.37665 16.75 6V8C16.75 8.02347 16.7489 8.04668 16.7468 8.0696C18.599 8.41939 20 10.0461 20 12V18C20 20.2091 18.2091 22 16 22H8C5.79086 22 4 20.2091 4 18V12C4 10.0461 5.40096 8.41939 7.25319 8.06959ZM12.75 18C12.75 18.4142 12.4142 18.75 12 18.75C11.5858 18.75 11.25 18.4142 11.25 18C11.25 17.5858 11.5858 17.25 12 17.25C12.4142 17.25 12.75 17.5858 12.75 18ZM8.28765 14.2877C9.23854 13.3368 10.55 12.75 12 12.75C13.4499 12.75 14.7614 13.3368 15.7123 14.2877C16.0052 14.5806 16.48 14.5806 16.7729 14.2877C17.0658 13.9948 17.0658 13.5199 16.7729 13.227C15.5522 12.0063 13.8637 11.25 12 11.25C10.1362 11.25 8.44768 12.0063 7.22699 13.227C6.9341 13.5199 6.9341 13.9948 7.22699 14.2877C7.51989 14.5806 7.99476 14.5806 8.28765 14.2877ZM10.409 16.409C10.817 16.001 11.3784 15.75 12 15.75C12.6215 15.75 13.183 16.001 13.591 16.409C13.8838 16.7019 14.3587 16.7019 14.6516 16.409C14.9445 16.1161 14.9445 15.6412 14.6516 15.3483C13.9738 14.6706 13.0353 14.25 12 14.25C10.9646 14.25 10.0261 14.6706 9.34831 15.3483C9.05542 15.6412 9.05542 16.1161 9.34831 16.409C9.64121 16.7019 10.1161 16.7019 10.409 16.409Z" fill="#28303F"/>
</svg>
