<svg width="24" height="24" viewBox="0 0 24 24" fill="none" xmlns="http://www.w3.org/2000/svg">
<path fill-rule="evenodd" clip-rule="evenodd" d="M19 5C19 3.34315 17.6569 2 16 2H8C6.34315 2 5 3.34314 5 5V19C5 20.6569 6.34315 22 8 22H16C17.6569 22 19 20.6569 19 19L19 5ZM12 14.75C12.4142 14.75 12.75 14.4142 12.75 14C12.75 13.5858 12.4142 13.25 12 13.25C11.5858 13.25 11.25 13.5858 11.25 14C11.25 14.4142 11.5858 14.75 12 14.75ZM12 8.75C10.55 8.75 9.23854 9.3368 8.28765 10.2877C7.99476 10.5806 7.51989 10.5806 7.22699 10.2877C6.9341 9.9948 6.9341 9.51992 7.22699 9.22703C8.44768 8.00634 10.1362 7.25 12 7.25C13.8637 7.25 15.5522 8.00634 16.7729 9.22703C17.0658 9.51992 17.0658 9.9948 16.7729 10.2877C16.48 10.5806 16.0052 10.5806 15.7123 10.2877C14.7614 9.3368 13.4499 8.75 12 8.75ZM12 11.75C11.3784 11.75 10.817 12.001 10.409 12.409C10.1161 12.7019 9.64121 12.7019 9.34831 12.409C9.05542 12.1161 9.05542 11.6412 9.34831 11.3483C10.0261 10.6706 10.9646 10.25 12 10.25C13.0353 10.25 13.9738 10.6706 14.6516 11.3483C14.9445 11.6412 14.9445 12.1161 14.6516 12.409C14.3587 12.7019 13.8838 12.7019 13.591 12.409C13.183 12.001 12.6215 11.75 12 11.75ZM11 18.25C10.5858 18.25 10.25 18.5858 10.25 19C10.25 19.4142 10.5858 19.75 11 19.75H13C13.4142 19.75 13.75 19.4142 13.75 19C13.75 18.5858 13.4142 18.25 13 18.25H11Z" fill="#28303F"/>
</svg>
