<svg width="24" height="24" viewBox="0 0 24 24" fill="none" xmlns="http://www.w3.org/2000/svg">
<path fill-rule="evenodd" clip-rule="evenodd" d="M8.75445 10L9.46945 6.75001H14.0636L14.7786 10H8.75445ZM7.21858 10H5.51648V16C5.51648 16.6904 6.07612 17.25 6.76648 17.25H7.26648C7.68069 17.25 8.01648 17.5858 8.01648 18C8.01648 18.4142 7.68069 18.75 7.26648 18.75H6.76648C5.2477 18.75 4.01648 17.5188 4.01648 16V9.74285C3.13888 9.2446 2.71235 8.10832 3.21373 7.10557L3.39151 6.75001H7.93358L7.21858 10ZM4.14151 5.25001H8.26358L8.97858 2H7.00258C6.24504 2 5.55251 2.428 5.21373 3.10557L4.14151 5.25001ZM10.5145 2L9.79945 5.25001H13.7336L13.0186 2H10.5145ZM14.5544 2L15.2694 5.25001H19.3915L18.3193 3.10557C17.9805 2.428 17.288 2 16.5304 2H14.5544ZM20.1415 6.75001H15.5994L16.3144 10H18.0165V16C18.0165 16.6904 17.4568 17.25 16.7665 17.25H16.2665C15.8523 17.25 15.5165 17.5858 15.5165 18C15.5165 18.4142 15.8523 18.75 16.2665 18.75H16.7665C18.2853 18.75 19.5165 17.5188 19.5165 16V9.74289C20.3941 9.24466 20.8207 8.10835 20.3193 7.10557L20.1415 6.75001ZM13.3665 14.45C13.615 14.1187 13.5479 13.6486 13.2165 13.4C12.8851 13.1515 12.415 13.2187 12.1665 13.55L9.16648 17.55C8.99604 17.7773 8.96862 18.0814 9.09566 18.3355C9.22271 18.5895 9.4824 18.75 9.76648 18.75H12.2665L10.1665 21.55C9.91796 21.8814 9.98511 22.3515 10.3165 22.6C10.6479 22.8486 11.118 22.7814 11.3665 22.45L14.3665 18.45C14.5369 18.2228 14.5643 17.9187 14.4373 17.6646C14.3103 17.4105 14.0506 17.25 13.7665 17.25H11.2665L13.3665 14.45Z" fill="#28303F"/>
</svg>
