<svg width="24" height="24" viewBox="0 0 24 24" fill="none" xmlns="http://www.w3.org/2000/svg">
<path fill-rule="evenodd" clip-rule="evenodd" d="M5 6C5 3.79086 6.79086 2 9 2H15C17.2091 2 19 3.79086 19 6V18C19 20.2091 17.2091 22 15 22H9C6.79086 22 5 20.2091 5 18V6ZM12 19C14.2091 19 16 17.2091 16 15C16 12.7909 14.2091 11 12 11C9.79086 11 8 12.7909 8 15C8 17.2091 9.79086 19 12 19ZM12 16.5C12.8284 16.5 13.5 15.8284 13.5 15C13.5 14.1716 12.8284 13.5 12 13.5C11.1716 13.5 10.5 14.1716 10.5 15C10.5 15.8284 11.1716 16.5 12 16.5ZM8.28765 7.28769C9.23854 6.3368 10.55 5.75 12 5.75C13.4499 5.75 14.7614 6.3368 15.7123 7.28769C16.0052 7.58058 16.48 7.58058 16.7729 7.28769C17.0658 6.9948 17.0658 6.51992 16.7729 6.22703C15.5522 5.00634 13.8637 4.25 12 4.25C10.1362 4.25 8.44768 5.00634 7.22699 6.22703C6.9341 6.51992 6.9341 6.9948 7.22699 7.28769C7.51989 7.58058 7.99476 7.58058 8.28765 7.28769ZM10.409 9.40901C10.817 9.00102 11.3784 8.75 12 8.75C12.6215 8.75 13.183 9.00102 13.591 9.40901C13.8838 9.7019 14.3587 9.7019 14.6516 9.40901C14.9445 9.11612 14.9445 8.64124 14.6516 8.34835C13.9738 7.67055 13.0353 7.25 12 7.25C10.9646 7.25 10.0261 7.67055 9.34831 8.34835C9.05542 8.64124 9.05542 9.11612 9.34831 9.40901C9.64121 9.7019 10.1161 9.7019 10.409 9.40901Z" fill="#28303F"/>
</svg>
