<svg width="24" height="24" viewBox="0 0 24 24" fill="none" xmlns="http://www.w3.org/2000/svg">
<path fill-rule="evenodd" clip-rule="evenodd" d="M12 2.75C10.55 2.75 9.23854 3.3368 8.28765 4.28769C7.99476 4.58058 7.51989 4.58058 7.22699 4.28769C6.9341 3.9948 6.9341 3.51992 7.22699 3.22703C8.44768 2.00634 10.1362 1.25 12 1.25C13.8637 1.25 15.5522 2.00634 16.7729 3.22703C17.0658 3.51992 17.0658 3.9948 16.7729 4.28769C16.48 4.58058 16.0052 4.58058 15.7123 4.28769C14.7614 3.3368 13.4499 2.75 12 2.75ZM12 5.75C11.3784 5.75 10.817 6.00102 10.409 6.40901C10.1161 6.7019 9.64121 6.7019 9.34831 6.40901C9.05542 6.11612 9.05542 5.64124 9.34831 5.34835C10.0261 4.67055 10.9646 4.25 12 4.25C13.0353 4.25 13.9738 4.67055 14.6516 5.34835C14.9445 5.64124 14.9445 6.11612 14.6516 6.40901C14.3587 6.7019 13.8838 6.7019 13.591 6.40901C13.183 6.00102 12.6215 5.75 12 5.75ZM9.99997 10C9.99997 8.89543 10.8954 8 12 8C13.1045 8 14 8.89543 14 10L14 16.7639C14.6137 17.3132 15 18.1115 15 19C15 20.6569 13.6568 22 12 22C10.3431 22 8.99996 20.6569 8.99996 19C8.99996 18.1115 9.38622 17.3132 9.99996 16.7639L9.99997 10ZM12 20C12.5522 20 13 19.5523 13 19C13 18.4477 12.5522 18 12 18C11.4477 18 11 18.4477 11 19C11 19.5523 11.4477 20 12 20ZM17 8.25C16.5858 8.25 16.25 8.58579 16.25 9C16.25 9.41421 16.5858 9.75 17 9.75H18C18.4142 9.75 18.75 9.41421 18.75 9C18.75 8.58579 18.4142 8.25 18 8.25H17ZM16.25 12C16.25 11.5858 16.5858 11.25 17 11.25H20C20.4142 11.25 20.75 11.5858 20.75 12C20.75 12.4142 20.4142 12.75 20 12.75H17C16.5858 12.75 16.25 12.4142 16.25 12ZM17 14.25C16.5858 14.25 16.25 14.5858 16.25 15C16.25 15.4142 16.5858 15.75 17 15.75H18C18.4142 15.75 18.75 15.4142 18.75 15C18.75 14.5858 18.4142 14.25 18 14.25H17Z" fill="#28303F"/>
</svg>
