<svg width="24" height="24" viewBox="0 0 24 24" fill="none" xmlns="http://www.w3.org/2000/svg">
<path opacity="0.4" d="M22 19V16C22 14.3431 20.6569 13 19 13H18C17.3705 13 16.7777 13.2964 16.4 13.8L15.2 15.4C14.4446 16.4072 13.259 17 12 17C10.741 17 9.55542 16.4072 8.8 15.4L7.6 13.8C7.22229 13.2964 6.62951 13 6 13H5C3.34315 13 2 14.3431 2 16V19C2 20.6569 3.34315 22 5 22H19C20.6569 22 22 20.6569 22 19Z" fill="#28303F"/>
<path fill-rule="evenodd" clip-rule="evenodd" d="M5 13H6C6.62951 13 7.22229 13.2964 7.6 13.8L8.8 15.4C9.55542 16.4072 10.741 17 12 17C13.259 17 14.4446 16.4072 15.2 15.4L16.4 13.8C16.7777 13.2964 17.3705 13 18 13H19C19.3506 13 19.6872 13.0602 20 13.1707V6C20 3.79086 18.2091 2 16 2H8C5.79086 2 4 3.79086 4 6V13.1707C4.31278 13.0602 4.64936 13 5 13ZM11.2191 11.0239L9.36501 8.70626C9.12873 8.41091 9 8.04394 9 7.6657V7.59099C9 6.71231 9.71231 6 10.591 6C11.0129 6 11.4176 6.16762 11.716 6.46599L12 6.75L12.284 6.46599C12.5824 6.16762 12.9871 6 13.409 6C14.2877 6 15 6.71231 15 7.59099V7.6657C15 8.04394 14.8713 8.41091 14.635 8.70626L12.7809 11.0239C12.3805 11.5243 11.6195 11.5243 11.2191 11.0239Z" fill="#28303F"/>
</svg>
