<svg width="24" height="24" viewBox="0 0 24 24" fill="none" xmlns="http://www.w3.org/2000/svg">
<path opacity="0.4" d="M22 19V16C22 14.3431 20.6569 13 19 13H18C17.3705 13 16.7777 13.2964 16.4 13.8L15.2 15.4C14.4446 16.4072 13.259 17 12 17C10.741 17 9.55542 16.4072 8.8 15.4L7.6 13.8C7.22229 13.2964 6.62951 13 6 13H5C3.34315 13 2 14.3431 2 16V19C2 20.6569 3.34315 22 5 22H19C20.6569 22 22 20.6569 22 19Z" fill="#28303F"/>
<path d="M6 13H5C4.64936 13 4.31278 13.0602 4 13.1707V6C4 3.79086 5.79086 2 8 2H16C18.2091 2 20 3.79086 20 6V13.1707C19.6872 13.0602 19.3506 13 19 13H18C17.3705 13 16.7777 13.2964 16.4 13.8L15.2 15.4C14.4446 16.4072 13.259 17 12 17C10.741 17 9.55542 16.4072 8.8 15.4L7.6 13.8C7.22229 13.2964 6.62951 13 6 13Z" fill="#28303F"/>
</svg>
