<svg width="24" height="24" viewBox="0 0 24 24" fill="none" xmlns="http://www.w3.org/2000/svg">
<path opacity="0.4" d="M22 19V16C22 14.3431 20.6569 13 19 13H18C17.3705 13 16.7777 13.2964 16.4 13.8L15.2 15.4C14.4446 16.4072 13.259 17 12 17C10.741 17 9.55542 16.4072 8.8 15.4L7.6 13.8C7.22229 13.2964 6.62951 13 6 13H5C3.34315 13 2 14.3431 2 16V19C2 20.6569 3.34315 22 5 22H19C20.6569 22 22 20.6569 22 19Z" fill="#28303F"/>
<path fill-rule="evenodd" clip-rule="evenodd" d="M5 13H6C6.62951 13 7.22229 13.2964 7.6 13.8L8.8 15.4C9.55542 16.4072 10.741 17 12 17C13.259 17 14.4446 16.4072 15.2 15.4L16.4 13.8C16.7777 13.2964 17.3705 13 18 13H19C19.3506 13 19.6872 13.0602 20 13.1707V6C20 3.79086 18.2091 2 16 2H8C5.79086 2 4 3.79086 4 6V13.1707C4.31278 13.0602 4.64936 13 5 13ZM11.1161 10.0555C11.1586 10.098 11.2033 10.1368 11.25 10.1718V6.00006C11.25 5.58584 11.5858 5.25006 12 5.25006C12.4142 5.25006 12.75 5.58584 12.75 6.00006V10.1718C12.7967 10.1368 12.8414 10.098 12.8839 10.0555L14.4697 8.46973C14.7626 8.17684 15.2374 8.17684 15.5303 8.46973C15.8232 8.76262 15.8232 9.23749 15.5303 9.53039L13.9445 11.1162C12.8706 12.1901 11.1294 12.1901 10.0555 11.1162L8.46967 9.53039C8.17678 9.23749 8.17678 8.76262 8.46967 8.46973C8.76256 8.17684 9.23744 8.17684 9.53033 8.46973L11.1161 10.0555Z" fill="#28303F"/>
</svg>
