<svg width="24" height="24" viewBox="0 0 24 24" fill="none" xmlns="http://www.w3.org/2000/svg">
<path fill-rule="evenodd" clip-rule="evenodd" d="M20 13.1707C19.6872 13.0602 19.3506 13 19 13H18C17.3705 13 16.7777 13.2964 16.4 13.8L15.2 15.4C14.4446 16.4072 13.259 17 12 17C10.741 17 9.55542 16.4072 8.8 15.4L7.6 13.8C7.22229 13.2964 6.62951 13 6 13H5C4.64936 13 4.31278 13.0602 4 13.1707V6C4 3.79086 5.79086 2 8 2H16C18.2091 2 20 3.79086 20 6V13.1707ZM9 9.25C8.58579 9.25 8.25 9.58579 8.25 10C8.25 10.4142 8.58579 10.75 9 10.75H12C12.4142 10.75 12.75 10.4142 12.75 10C12.75 9.58579 12.4142 9.25 12 9.25H9ZM8.25 6C8.25 5.58579 8.58579 5.25 9 5.25H15C15.4142 5.25 15.75 5.58579 15.75 6C15.75 6.41421 15.4142 6.75 15 6.75H9C8.58579 6.75 8.25 6.41421 8.25 6Z" fill="#28303F"/>
<path opacity="0.4" d="M22 19V16C22 14.3431 20.6569 13 19 13H18C17.3705 13 16.7777 13.2964 16.4 13.8L15.2 15.4C14.4446 16.4072 13.259 17 12 17C10.741 17 9.55542 16.4072 8.8 15.4L7.6 13.8C7.22229 13.2964 6.62951 13 6 13H5C3.34315 13 2 14.3431 2 16V19C2 20.6569 3.34315 22 5 22H19C20.6569 22 22 20.6569 22 19Z" fill="#28303F"/>
</svg>
