<svg width="24" height="24" viewBox="0 0 24 24" fill="none" xmlns="http://www.w3.org/2000/svg">
<path opacity="0.4" d="M2 6V18C2 20.2091 3.79086 22 6 22H12V2H6C3.79086 2 2 3.79086 2 6Z" fill="#28303F"/>
<path fill-rule="evenodd" clip-rule="evenodd" d="M4.75 6C4.75 5.58579 5.08579 5.25 5.5 5.25L8.5 5.25C8.91421 5.25 9.25 5.58579 9.25 6C9.25 6.41421 8.91421 6.75 8.5 6.75L5.5 6.75C5.08579 6.75 4.75 6.41421 4.75 6Z" fill="#28303F"/>
<path fill-rule="evenodd" clip-rule="evenodd" d="M4.75 10C4.75 9.58579 5.08579 9.25 5.5 9.25L8.5 9.25C8.91421 9.25 9.25 9.58579 9.25 10C9.25 10.4142 8.91421 10.75 8.5 10.75H5.5C5.08579 10.75 4.75 10.4142 4.75 10Z" fill="#28303F"/>
<path fill-rule="evenodd" clip-rule="evenodd" d="M22 6V18C22 20.2091 20.2091 22 18 22H12V2H18C20.2091 2 22 3.79086 22 6ZM15.5 5.25C15.0858 5.25 14.75 5.58579 14.75 6C14.75 6.41421 15.0858 6.75 15.5 6.75H18.5C18.9142 6.75 19.25 6.41421 19.25 6C19.25 5.58579 18.9142 5.25 18.5 5.25H15.5ZM14.75 10C14.75 9.58579 15.0858 9.25 15.5 9.25H18.5C18.9142 9.25 19.25 9.58579 19.25 10C19.25 10.4142 18.9142 10.75 18.5 10.75H15.5C15.0858 10.75 14.75 10.4142 14.75 10ZM17 18.5C17.5523 18.5 18 18.0523 18 17.5C18 16.9477 17.5523 16.5 17 16.5C16.4477 16.5 16 16.9477 16 17.5C16 18.0523 16.4477 18.5 17 18.5Z" fill="#28303F"/>
<path d="M8 17.5C8 18.0523 7.55228 18.5 7 18.5C6.44772 18.5 6 18.0523 6 17.5C6 16.9477 6.44772 16.5 7 16.5C7.55228 16.5 8 16.9477 8 17.5Z" fill="#28303F"/>
</svg>
