<svg width="24" height="24" viewBox="0 0 24 24" fill="none" xmlns="http://www.w3.org/2000/svg">
<path opacity="0.4" d="M22 19V16C22 14.3431 20.6569 13 19 13H18C17.3705 13 16.7777 13.2964 16.4 13.8L15.2 15.4C14.4446 16.4072 13.259 17 12 17C10.741 17 9.55542 16.4072 8.8 15.4L7.6 13.8C7.22229 13.2964 6.62951 13 6 13H5C3.34315 13 2 14.3431 2 16V19C2 20.6569 3.34315 22 5 22H19C20.6569 22 22 20.6569 22 19Z" fill="#28303F"/>
<path fill-rule="evenodd" clip-rule="evenodd" d="M5 13H6C6.62951 13 7.22229 13.2964 7.6 13.8L8.8 15.4C9.55542 16.4072 10.741 17 12 17C13.259 17 14.4446 16.4072 15.2 15.4L16.4 13.8C16.7777 13.2964 17.3705 13 18 13H19C19.3506 13 19.6872 13.0602 20 13.1707V6C20 3.79086 18.2091 2 16 2H8C5.79086 2 4 3.79086 4 6V13.1707C4.31278 13.0602 4.64936 13 5 13ZM11.1161 6.94449C11.1586 6.90202 11.2033 6.86325 11.25 6.82817V10.9999C11.25 11.4142 11.5858 11.7499 12 11.7499C12.4142 11.7499 12.75 11.4142 12.75 10.9999V6.82817C12.7967 6.86325 12.8414 6.90202 12.8839 6.94449L14.4697 8.53027C14.7626 8.82316 15.2374 8.82316 15.5303 8.53027C15.8232 8.23738 15.8232 7.76251 15.5303 7.46961L13.9445 5.88383C12.8706 4.80988 11.1294 4.80988 10.0555 5.88383L8.46967 7.46961C8.17678 7.76251 8.17678 8.23738 8.46967 8.53027C8.76256 8.82316 9.23744 8.82316 9.53033 8.53027L11.1161 6.94449Z" fill="#28303F"/>
</svg>
