<svg width="24" height="24" viewBox="0 0 24 24" fill="none" xmlns="http://www.w3.org/2000/svg">
<path opacity="0.4" d="M22 19V16C22 14.3431 20.6569 13 19 13H18C17.3705 13 16.7777 13.2964 16.4 13.8L15.2 15.4C14.4446 16.4072 13.259 17 12 17C10.741 17 9.55542 16.4072 8.8 15.4L7.6 13.8C7.22229 13.2964 6.62951 13 6 13H5C3.34315 13 2 14.3431 2 16V19C2 20.6569 3.34315 22 5 22H19C20.6569 22 22 20.6569 22 19Z" fill="#28303F"/>
<path fill-rule="evenodd" clip-rule="evenodd" d="M5 13H6C6.62951 13 7.22229 13.2964 7.6 13.8L8.8 15.4C9.55542 16.4072 10.741 17 12 17C13.259 17 14.4446 16.4072 15.2 15.4L16.4 13.8C16.7777 13.2964 17.3705 13 18 13H19C19.3506 13 19.6872 13.0602 20 13.1707V6C20 3.79086 18.2091 2 16 2H8C5.79086 2 4 3.79086 4 6V13.1707C4.31278 13.0602 4.64936 13 5 13ZM10.75 8.5C10.75 7.5335 11.5335 6.75 12.5 6.75C13.4665 6.75 14.25 7.5335 14.25 8.5C14.25 9.4665 13.4665 10.25 12.5 10.25C11.5335 10.25 10.75 9.4665 10.75 8.5ZM12.5 5.25C10.7051 5.25 9.25 6.70507 9.25 8.5C9.25 9.12574 9.42684 9.71018 9.73327 10.2061L8.46967 11.4697C8.17678 11.7626 8.17678 12.2374 8.46967 12.5303C8.76256 12.8232 9.23744 12.8232 9.53033 12.5303L10.7939 11.2667C11.2898 11.5732 11.8743 11.75 12.5 11.75C14.2949 11.75 15.75 10.2949 15.75 8.5C15.75 6.70507 14.2949 5.25 12.5 5.25Z" fill="#28303F"/>
</svg>
