<svg width="24" height="24" viewBox="0 0 24 24" fill="none" xmlns="http://www.w3.org/2000/svg">
<path opacity="0.4" d="M22 19V16C22 14.3431 20.6569 13 19 13H18C17.3705 13 16.7777 13.2964 16.4 13.8L15.2 15.4C14.4446 16.4072 13.259 17 12 17C10.741 17 9.55542 16.4072 8.8 15.4L7.6 13.8C7.22229 13.2964 6.62951 13 6 13H5C3.34315 13 2 14.3431 2 16V19C2 20.6569 3.34315 22 5 22H19C20.6569 22 22 20.6569 22 19Z" fill="#28303F"/>
<path fill-rule="evenodd" clip-rule="evenodd" d="M5 13H6C6.62951 13 7.22229 13.2964 7.6 13.8L8.8 15.4C9.55542 16.4072 10.741 17 12 17C13.259 17 14.4446 16.4072 15.2 15.4L16.4 13.8C16.7777 13.2964 17.3705 13 18 13H19C19.3506 13 19.6872 13.0602 20 13.1707V6C20 3.79086 18.2091 2 16 2H8C5.79086 2 4 3.79086 4 6V13.1707C4.31278 13.0602 4.64936 13 5 13ZM15.5645 6.49389C15.8372 6.18216 15.8056 5.70834 15.4939 5.43558C15.1822 5.16282 14.7084 5.1944 14.4356 5.50613L11.5657 8.78603C11.4776 8.88671 11.3258 8.90019 11.2214 8.81662L9.46855 7.41436C9.1451 7.1556 8.67313 7.20804 8.41438 7.53149C8.15562 7.85494 8.20806 8.3269 8.53151 8.58566L10.2843 9.98792C11.0156 10.5729 12.0779 10.4786 12.6946 9.77378L15.5645 6.49389Z" fill="#28303F"/>
</svg>
