<svg width="24" height="24" viewBox="0 0 24 24" fill="none" xmlns="http://www.w3.org/2000/svg">
<path fill-rule="evenodd" clip-rule="evenodd" d="M10.8031 4.13625C12.5687 2.3706 15.4314 2.3706 17.1971 4.13625C18.9627 5.9019 18.9627 8.76459 17.1971 10.5302L11.8637 15.8636C10.8344 16.8929 9.16567 16.8929 8.13639 15.8636C7.10712 14.8343 7.10712 13.1655 8.13639 12.1363L13.4697 6.80292C13.7626 6.51003 14.2375 6.51003 14.5304 6.80292C14.8233 7.09581 14.8233 7.57069 14.5304 7.86358L9.19705 13.1969C8.75357 13.6404 8.75357 14.3594 9.19705 14.8029C9.64054 15.2464 10.3596 15.2464 10.8031 14.8029L16.1364 9.46959C17.3163 8.28972 17.3163 6.37678 16.1364 5.19691C14.9565 4.01704 13.0436 4.01705 11.8637 5.19691L6.53038 10.5302C4.61414 12.4465 4.61414 15.5533 6.53039 17.4696C8.44663 19.3858 11.5535 19.3858 13.4697 17.4696L18.8031 12.1363C19.096 11.8434 19.5708 11.8434 19.8637 12.1363C20.1566 12.4291 20.1566 12.904 19.8637 13.1969L14.5304 18.5302C12.0284 21.0323 7.97176 21.0323 5.46973 18.5303C2.96769 16.0282 2.96769 11.9716 5.46972 9.46959L10.8031 4.13625Z" fill="#28303F"/>
</svg>
