<svg width="24" height="24" viewBox="0 0 24 24" fill="none" xmlns="http://www.w3.org/2000/svg">
<path opacity="0.4" d="M3 6L3 18C3 20.2091 4.79086 22 7 22H13L21 14V6C21 3.79086 19.2091 2 17 2L7 2C4.79086 2 3 3.79086 3 6Z" fill="#28303F"/>
<path d="M13 18L13 22L21 14L17 14C14.7909 14 13 15.7909 13 18Z" fill="#28303F"/>
<path fill-rule="evenodd" clip-rule="evenodd" d="M13.6269 7.4449C12.9947 6.81264 12.0787 6.63425 11.2854 6.91403C10.8948 7.0518 10.4664 6.84681 10.3286 6.45617C10.1909 6.06554 10.3959 5.63719 10.7865 5.49943C12.1038 5.03485 13.6317 5.32835 14.6876 6.38424C15.7435 7.44014 16.037 8.96804 15.5724 10.2854C15.4346 10.676 15.0063 10.881 14.6156 10.7432C14.225 10.6054 14.02 10.1771 14.1578 9.78646C14.4376 8.99313 14.2592 8.07717 13.6269 7.4449ZM13.7432 11.6156C13.881 12.0062 13.676 12.4346 13.2854 12.5724C11.9681 13.0369 10.4402 12.7434 9.38429 11.6875C8.3284 10.6317 8.03489 9.10378 8.49946 7.78647C8.63723 7.39583 9.06558 7.19084 9.45621 7.32861C9.84684 7.46637 10.0518 7.89472 9.91407 8.28535C9.63429 9.07867 9.81269 9.99462 10.4449 10.6269C11.0772 11.2591 11.9932 11.4375 12.7865 11.1578C13.1771 11.02 13.6055 11.225 13.7432 11.6156Z" fill="#28303F"/>
</svg>
