<svg width="24" height="24" viewBox="0 0 24 24" fill="none" xmlns="http://www.w3.org/2000/svg">
<path opacity="0.4" d="M6 22C7.86748 22 9.43606 20.7202 9.87657 18.9899C10.0128 18.4547 10.4477 18 11 18H18V5C18 3.34315 16.6569 2 15 2H5C3.34315 2 2 3.34315 2 5V18C2 20.2091 3.79086 22 6 22Z" fill="#28303F"/>
<path d="M18 22C19.8675 22 21.4361 20.7202 21.8766 18.9899C22.0128 18.4547 21.5523 18 21 18H18H11C10.4477 18 10.0128 18.4547 9.87657 18.9899C9.43606 20.7202 7.86748 22 6 22H18Z" fill="#28303F"/>
<path fill-rule="evenodd" clip-rule="evenodd" d="M10.5 7.75C9.5335 7.75 8.75 8.5335 8.75 9.5C8.75 10.4665 9.5335 11.25 10.5 11.25C11.4665 11.25 12.25 10.4665 12.25 9.5C12.25 8.5335 11.4665 7.75 10.5 7.75ZM7.25 9.5C7.25 7.70507 8.70507 6.25 10.5 6.25C12.2949 6.25 13.75 7.70507 13.75 9.5C13.75 11.2949 12.2949 12.75 10.5 12.75C9.87426 12.75 9.28982 12.5732 8.79393 12.2667L7.53033 13.5303C7.23744 13.8232 6.76256 13.8232 6.46967 13.5303C6.17678 13.2374 6.17678 12.7626 6.46967 12.4697L7.73327 11.2061C7.42684 10.7102 7.25 10.1257 7.25 9.5Z" fill="#28303F"/>
</svg>
