<svg width="24" height="24" viewBox="0 0 24 24" fill="none" xmlns="http://www.w3.org/2000/svg">
<path opacity="0.4" d="M3 6L3 14C3 16.2091 4.79086 18 7 18L13 18C15.2091 18 17 16.2091 17 14L17 6C17 3.79086 15.2091 2 13 2L7 2C4.79086 2 3 3.79086 3 6Z" fill="#28303F"/>
<path fill-rule="evenodd" clip-rule="evenodd" d="M7 10V18C7 20.2091 8.79086 22 11 22H14.9371C15.2133 22 15.4371 21.7761 15.4371 21.5V19.4562C15.4371 17.7243 16.8622 16.2993 18.5941 16.2993C19.1491 16.2929 19.813 16.289 20.5007 16.287C20.7766 16.2863 21 16.0626 21 15.7867L21 10C21 7.79086 19.2091 6 17 6H11C8.79086 6 7 7.79086 7 10ZM16.2599 21.5413C16.2599 21.9519 16.7572 22.1558 17.042 21.8595C17.7016 21.1744 18.6759 20.1608 19.5554 19.2458C20.0505 18.7308 20.5156 18.247 20.8776 17.8706C21.1557 17.581 20.9519 17.1018 20.5508 17.1009C19.7677 17.099 18.8455 17.1009 18.1805 17.1085C17.1268 17.1085 16.2599 17.9754 16.2599 19.0291V21.5413Z" fill="#28303F"/>
</svg>
