<svg width="24" height="24" viewBox="0 0 24 24" fill="none" xmlns="http://www.w3.org/2000/svg">
<path opacity="0.4" d="M6 22C7.86748 22 9.43606 20.7202 9.87657 18.9899C10.0128 18.4547 10.4477 18 11 18H18V5C18 3.34315 16.6569 2 15 2H5C3.34315 2 2 3.34315 2 5V18C2 20.2091 3.79086 22 6 22Z" fill="#28303F"/>
<path d="M18 22C19.8675 22 21.4361 20.7202 21.8766 18.9899C22.0128 18.4547 21.5523 18 21 18H18H11C10.4477 18 10.0128 18.4547 9.87657 18.9899C9.43606 20.7202 7.86748 22 6 22H18Z" fill="#28303F"/>
<path d="M7.36501 9.70626L9.21913 12.0239C9.61946 12.5243 10.3805 12.5243 10.7809 12.0239L12.635 9.70626C12.8713 9.41091 13 9.04394 13 8.6657V8.59099C13 7.71231 12.2877 7 11.409 7C10.9871 7 10.5824 7.16762 10.284 7.46599L10 7.75L9.71599 7.46599C9.41762 7.16762 9.01295 7 8.59099 7C7.71231 7 7 7.71231 7 8.59099V8.6657C7 9.04394 7.12873 9.41091 7.36501 9.70626Z" fill="#28303F"/>
</svg>
