<svg width="24" height="24" viewBox="0 0 24 24" fill="none" xmlns="http://www.w3.org/2000/svg">
<path opacity="0.4" d="M6 22C7.86748 22 9.43606 20.7202 9.87657 18.9899C10.0128 18.4547 10.4477 18 11 18H18V5C18 3.34315 16.6569 2 15 2H5C3.34315 2 2 3.34315 2 5V18C2 20.2091 3.79086 22 6 22Z" fill="#28303F"/>
<path d="M18 22C19.8675 22 21.4361 20.7202 21.8766 18.9899C22.0128 18.4547 21.5523 18 21 18H18H11C10.4477 18 10.0128 18.4547 9.87657 18.9899C9.43606 20.7202 7.86748 22 6 22H18Z" fill="#28303F"/>
<path fill-rule="evenodd" clip-rule="evenodd" d="M7.34833 7.34833C7.64123 7.05544 8.1161 7.05544 8.40899 7.34833L9.99998 8.93932L11.591 7.34833C11.8839 7.05544 12.3587 7.05544 12.6516 7.34833C12.9445 7.64123 12.9445 8.1161 12.6516 8.40899L11.0606 9.99998L12.6516 11.591C12.9445 11.8839 12.9445 12.3587 12.6516 12.6516C12.3587 12.9445 11.8839 12.9445 11.591 12.6516L9.99998 11.0606L8.40899 12.6516C8.1161 12.9445 7.64123 12.9445 7.34833 12.6516C7.05544 12.3587 7.05544 11.8839 7.34833 11.591L8.93932 9.99998L7.34833 8.40899C7.05544 8.1161 7.05544 7.64123 7.34833 7.34833Z" fill="#28303F"/>
</svg>
