<svg width="24" height="24" viewBox="0 0 24 24" fill="none" xmlns="http://www.w3.org/2000/svg">
<path opacity="0.4" d="M3 6L3 18C3 20.2091 4.79086 22 7 22H13L21 14V6C21 3.79086 19.2091 2 17 2L7 2C4.79086 2 3 3.79086 3 6Z" fill="#28303F"/>
<path d="M13 18L13 22L21 14L17 14C14.7909 14 13 15.7909 13 18Z" fill="#28303F"/>
<path fill-rule="evenodd" clip-rule="evenodd" d="M15.4939 5.43558C15.8056 5.70834 15.8372 6.18216 15.5645 6.49389L12.6946 9.77378C12.0779 10.4786 11.0156 10.5729 10.2843 9.98792L8.53151 8.58566C8.20806 8.3269 8.15562 7.85494 8.41438 7.53149C8.67313 7.20804 9.1451 7.1556 9.46855 7.41436L11.2214 8.81662C11.3258 8.90019 11.4776 8.88671 11.5657 8.78603L14.4356 5.50613C14.7084 5.1944 15.1822 5.16282 15.4939 5.43558Z" fill="#28303F"/>
</svg>
