<svg width="24" height="24" viewBox="0 0 24 24" fill="none" xmlns="http://www.w3.org/2000/svg">
<path opacity="0.4" d="M4 10L4 18C4 20.2091 5.79086 22 8 22H10.2363C11.2864 22 12.2944 21.587 13.0427 20.8503L18.8064 15.1752C19.57 14.4234 20 13.3966 20 12.325V10C20 7.79086 18.2091 6 16 6L8 6C5.79086 6 4 7.79086 4 10Z" fill="#28303F"/>
<path d="M12 18L12 22L20 14L16 14C13.7909 14 12 15.7909 12 18Z" fill="#28303F"/>
<path d="M12 2.75C10.7574 2.75 9.75 3.75736 9.75 5V6H8.25V5C8.25 2.92893 9.92893 1.25 12 1.25C14.0711 1.25 15.75 2.92893 15.75 5V8.5C15.75 9.74264 14.7426 10.75 13.5 10.75C12.2574 10.75 11.25 9.74264 11.25 8.5V8C11.25 7.58579 11.5858 7.25 12 7.25C12.4142 7.25 12.75 7.58579 12.75 8V8.5C12.75 8.91421 13.0858 9.25 13.5 9.25C13.9142 9.25 14.25 8.91421 14.25 8.5V5C14.25 3.75736 13.2426 2.75 12 2.75Z" fill="#28303F"/>
</svg>
