<svg width="24" height="24" viewBox="0 0 24 24" fill="none" xmlns="http://www.w3.org/2000/svg">
<path opacity="0.4" d="M3 6L3 18C3 20.2091 4.79086 22 7 22H13L21 14V6C21 3.79086 19.2091 2 17 2L7 2C4.79086 2 3 3.79086 3 6Z" fill="#28303F"/>
<path d="M13 18L13 22L21 14L17 14C14.7909 14 13 15.7909 13 18Z" fill="#28303F"/>
<path fill-rule="evenodd" clip-rule="evenodd" d="M12.5 6.75C11.5335 6.75 10.75 7.5335 10.75 8.5C10.75 9.4665 11.5335 10.25 12.5 10.25C13.4665 10.25 14.25 9.4665 14.25 8.5C14.25 7.5335 13.4665 6.75 12.5 6.75ZM9.25 8.5C9.25 6.70507 10.7051 5.25 12.5 5.25C14.2949 5.25 15.75 6.70507 15.75 8.5C15.75 10.2949 14.2949 11.75 12.5 11.75C11.8743 11.75 11.2898 11.5732 10.7939 11.2667L9.53033 12.5303C9.23744 12.8232 8.76256 12.8232 8.46967 12.5303C8.17678 12.2374 8.17678 11.7626 8.46967 11.4697L9.73327 10.2061C9.42684 9.71018 9.25 9.12574 9.25 8.5Z" fill="#28303F"/>
</svg>
