<svg width="24" height="24" viewBox="0 0 24 24" fill="none" xmlns="http://www.w3.org/2000/svg">
<path opacity="0.4" d="M3 18L3 6C3 3.79086 4.79086 2 7 2L13 2L21 10V18C21 20.2091 19.2091 22 17 22H7C4.79086 22 3 20.2091 3 18Z" fill="#28303F"/>
<path d="M13 6L13 2L21 10L17 10C14.7909 10 13 8.20914 13 6Z" fill="#28303F"/>
<path d="M6 18V13.7051H7.3916C7.91895 13.7051 8.2627 13.7266 8.42285 13.7695C8.66895 13.834 8.875 13.9746 9.04102 14.1914C9.20703 14.4062 9.29004 14.6846 9.29004 15.0264C9.29004 15.29 9.24219 15.5117 9.14648 15.6914C9.05078 15.8711 8.92871 16.0127 8.78027 16.1162C8.63379 16.2178 8.48438 16.2852 8.33203 16.3184C8.125 16.3594 7.8252 16.3799 7.43262 16.3799H6.86719V18H6ZM6.86719 14.4316V15.6504H7.3418C7.68359 15.6504 7.91211 15.6279 8.02734 15.583C8.14258 15.5381 8.23242 15.4678 8.29688 15.3721C8.36328 15.2764 8.39648 15.165 8.39648 15.0381C8.39648 14.8818 8.35059 14.7529 8.25879 14.6514C8.16699 14.5498 8.05078 14.4863 7.91016 14.4609C7.80664 14.4414 7.59863 14.4316 7.28613 14.4316H6.86719Z" fill="#28303F"/>
<path d="M10.0107 18V13.7051H10.8545L12.6123 16.5732V13.7051H13.418V18H12.5479L10.8164 15.1992V18H10.0107Z" fill="#28303F"/>
<path d="M16.3359 16.4209V15.6973H18.2051V17.4082C18.0234 17.584 17.7598 17.7393 17.4141 17.874C17.0703 18.0068 16.7217 18.0732 16.3682 18.0732C15.9189 18.0732 15.5273 17.9795 15.1934 17.792C14.8594 17.6025 14.6084 17.333 14.4404 16.9834C14.2725 16.6318 14.1885 16.25 14.1885 15.8379C14.1885 15.3906 14.2822 14.9932 14.4697 14.6455C14.6572 14.2979 14.9316 14.0312 15.293 13.8457C15.5684 13.7031 15.9111 13.6318 16.3213 13.6318C16.8545 13.6318 17.2705 13.7441 17.5693 13.9688C17.8701 14.1914 18.0635 14.5 18.1494 14.8945L17.2881 15.0557C17.2275 14.8447 17.1133 14.6787 16.9453 14.5576C16.7793 14.4346 16.5713 14.373 16.3213 14.373C15.9424 14.373 15.6406 14.4932 15.416 14.7334C15.1934 14.9736 15.082 15.3301 15.082 15.8027C15.082 16.3125 15.1953 16.6953 15.4219 16.9512C15.6484 17.2051 15.9453 17.332 16.3125 17.332C16.4941 17.332 16.6758 17.2969 16.8574 17.2266C17.041 17.1543 17.1982 17.0674 17.3291 16.9658V16.4209H16.3359Z" fill="#28303F"/>
</svg>
