<svg width="24" height="24" viewBox="0 0 24 24" fill="none" xmlns="http://www.w3.org/2000/svg">
<path opacity="0.4" d="M3 6L3 18C3 20.2091 4.79086 22 7 22H13L21 14V6C21 3.79086 19.2091 2 17 2L7 2C4.79086 2 3 3.79086 3 6Z" fill="#28303F"/>
<path d="M13 18L13 22L21 14L17 14C14.7909 14 13 15.7909 13 18Z" fill="#28303F"/>
<path fill-rule="evenodd" clip-rule="evenodd" d="M12.75 10.1718C12.7967 10.1368 12.8414 10.098 12.8839 10.0555L14.4697 8.46973C14.7626 8.17683 15.2374 8.17683 15.5303 8.46973C15.8232 8.76262 15.8232 9.23749 15.5303 9.53039L13.9445 11.1162C12.8706 12.1901 11.1294 12.1901 10.0555 11.1162L8.46967 9.53039C8.17678 9.23749 8.17678 8.76262 8.46967 8.46973C8.76256 8.17683 9.23744 8.17683 9.53033 8.46973L11.1161 10.0555C11.1586 10.098 11.2033 10.1368 11.25 10.1718L11.25 6.00006C11.25 5.58584 11.5858 5.25006 12 5.25006C12.4142 5.25006 12.75 5.58584 12.75 6.00006L12.75 10.1718Z" fill="#28303F"/>
</svg>
