<svg width="24" height="24" viewBox="0 0 24 24" fill="none" xmlns="http://www.w3.org/2000/svg">
<path opacity="0.4" d="M6 22C7.86748 22 9.43606 20.7202 9.87657 18.9899C10.0128 18.4547 10.4477 18 11 18H18V5C18 3.34315 16.6569 2 15 2H5C3.34315 2 2 3.34315 2 5V18C2 20.2091 3.79086 22 6 22Z" fill="#28303F"/>
<path d="M18 22C19.8675 22 21.4361 20.7202 21.8766 18.9899C22.0128 18.4547 21.5523 18 21 18H18H11C10.4477 18 10.0128 18.4547 9.87657 18.9899C9.43606 20.7202 7.86748 22 6 22H18Z" fill="#28303F"/>
<path fill-rule="evenodd" clip-rule="evenodd" d="M13.4939 7.43558C13.8056 7.70834 13.8372 8.18216 13.5645 8.49389L10.6946 11.7738C10.0779 12.4786 9.01561 12.5729 8.28433 11.9879L6.53151 10.5857C6.20806 10.3269 6.15562 9.85494 6.41438 9.53149C6.67313 9.20804 7.1451 9.1556 7.46855 9.41436L9.22137 10.8166C9.32584 10.9002 9.47759 10.8867 9.56569 10.786L12.4356 7.50613C12.7084 7.1944 13.1822 7.16282 13.4939 7.43558Z" fill="#28303F"/>
</svg>
