<svg width="24" height="24" viewBox="0 0 24 24" fill="none" xmlns="http://www.w3.org/2000/svg">
<path opacity="0.4" d="M21.0029 18L21.0029 10C21.0029 7.79086 19.212 6 17.0029 6L11.0029 6C8.79373 6 7.00287 7.79086 7.00287 10L7.00287 18C7.00287 20.2091 8.79373 22 11.0029 22L17.0029 22C19.212 22 21.0029 20.2091 21.0029 18Z" fill="#28303F"/>
<path fill-rule="evenodd" clip-rule="evenodd" d="M17.0029 14L17.0029 6C17.0029 3.79086 15.212 2 13.0029 2L9.06573 2C8.78959 2 8.56573 2.22386 8.56573 2.5L8.56573 4.54377C8.56573 6.27572 7.14071 7.70075 5.40875 7.70075C4.8538 7.70711 4.18985 7.71105 3.50218 7.71298C3.22631 7.71375 3.00287 7.93745 3.00287 8.21332L3.00287 14C3.00287 16.2091 4.79373 18 7.00287 18L13.0029 18C15.212 18 17.0029 16.2091 17.0029 14ZM7.74298 2.45867C7.74298 2.04806 7.24568 1.84419 6.96082 2.14047C6.30127 2.82563 5.32696 3.83919 4.44742 4.75417C3.95235 5.26919 3.4873 5.75297 3.12531 6.12937C2.84713 6.41898 3.051 6.89819 3.45208 6.89914C4.23519 6.90104 5.15739 6.89914 5.82236 6.89152C6.87604 6.89152 7.74298 6.02457 7.74298 4.9709L7.74298 2.45867Z" fill="#28303F"/>
</svg>
