<svg width="24" height="24" viewBox="0 0 24 24" fill="none" xmlns="http://www.w3.org/2000/svg">
<path opacity="0.4" d="M3 6L3 18C3 20.2091 4.79086 22 7 22H13L21 14V6C21 3.79086 19.2091 2 17 2L7 2C4.79086 2 3 3.79086 3 6Z" fill="#28303F"/>
<path d="M13 18L13 22L21 14L17 14C14.7909 14 13 15.7909 13 18Z" fill="#28303F"/>
<path d="M9.36501 8.70626L11.2191 11.0239C11.6195 11.5243 12.3805 11.5243 12.7809 11.0239L14.635 8.70626C14.8713 8.41091 15 8.04394 15 7.6657V7.59099C15 6.71231 14.2877 6 13.409 6C12.9871 6 12.5824 6.16762 12.284 6.46599L12 6.75L11.716 6.46599C11.4176 6.16762 11.0129 6 10.591 6C9.71231 6 9 6.71231 9 7.59099V7.6657C9 8.04394 9.12873 8.41091 9.36501 8.70626Z" fill="#28303F"/>
</svg>
