<svg width="24" height="24" viewBox="0 0 24 24" fill="none" xmlns="http://www.w3.org/2000/svg">
<path opacity="0.4" d="M3 18L3 6C3 3.79086 4.79086 2 7 2L13 2L21 10V18C21 20.2091 19.2091 22 17 22H7C4.79086 22 3 20.2091 3 18Z" fill="#28303F"/>
<path d="M13 6L13 2L21 10L17 10C14.7909 10 13 8.20914 13 6Z" fill="#28303F"/>
<path d="M10 17.1315V12.8685C10 12.0698 10.8901 11.5934 11.5547 12.0365L14.7519 14.1679C15.3457 14.5638 15.3457 15.4362 14.7519 15.8321L11.5547 17.9635C10.8901 18.4066 10 17.9302 10 17.1315Z" fill="#28303F"/>
</svg>
