<svg width="24" height="24" viewBox="0 0 24 24" fill="none" xmlns="http://www.w3.org/2000/svg">
<path opacity="0.4" d="M3 6L3 18C3 20.2091 4.79086 22 7 22H13L21 14V6C21 3.79086 19.2091 2 17 2L7 2C4.79086 2 3 3.79086 3 6Z" fill="#28303F"/>
<path d="M13 18L13 22L21 14L17 14C14.7909 14 13 15.7909 13 18Z" fill="#28303F"/>
<path fill-rule="evenodd" clip-rule="evenodd" d="M14.6516 6.34832C14.9445 6.64121 14.9445 7.11608 14.6516 7.40898L13.0607 9.00002L14.6516 10.591C14.9445 10.8839 14.9445 11.3587 14.6516 11.6516C14.3587 11.9445 13.8839 11.9445 13.591 11.6516L12 10.0607L10.4091 11.6517C10.1162 11.9446 9.64133 11.9446 9.34843 11.6517C9.05553 11.3588 9.05552 10.884 9.34841 10.5911L10.9394 9.00004L9.34833 7.40899C9.05544 7.1161 9.05544 6.64123 9.34833 6.34833C9.64123 6.05544 10.1161 6.05544 10.409 6.34833L12 7.93935L13.591 6.34834C13.8838 6.05544 14.3587 6.05543 14.6516 6.34832Z" fill="#28303F"/>
</svg>
