<svg width="24" height="24" viewBox="0 0 24 24" fill="none" xmlns="http://www.w3.org/2000/svg">
<path opacity="0.4" d="M6 22C7.86748 22 9.43606 20.7202 9.87657 18.9899C10.0128 18.4547 10.4477 18 11 18H18V5C18 3.34315 16.6569 2 15 2H5C3.34315 2 2 3.34315 2 5V18C2 20.2091 3.79086 22 6 22Z" fill="#28303F"/>
<path d="M18 22C19.8675 22 21.4361 20.7202 21.8766 18.9899C22.0128 18.4547 21.5523 18 21 18H18H11C10.4477 18 10.0128 18.4547 9.87657 18.9899C9.43606 20.7202 7.86748 22 6 22H18Z" fill="#28303F"/>
<path fill-rule="evenodd" clip-rule="evenodd" d="M10 6.25C10.4142 6.25 10.75 6.58579 10.75 7V9.25H13C13.4142 9.25 13.75 9.58579 13.75 10C13.75 10.4142 13.4142 10.75 13 10.75H10.75V13C10.75 13.4142 10.4142 13.75 10 13.75C9.58579 13.75 9.25 13.4142 9.25 13V10.75H7C6.58579 10.75 6.25 10.4142 6.25 10C6.25 9.58579 6.58579 9.25 7 9.25H9.25V7C9.25 6.58579 9.58579 6.25 10 6.25Z" fill="#28303F"/>
</svg>
