<svg width="24" height="24" viewBox="0 0 24 24" fill="none" xmlns="http://www.w3.org/2000/svg">
<path opacity="0.4" d="M3 6L3 18C3 20.2091 4.79086 22 7 22H13L21 14V6C21 3.79086 19.2091 2 17 2L7 2C4.79086 2 3 3.79086 3 6Z" fill="#28303F"/>
<path d="M13 18L13 22L21 14L17 14C14.7909 14 13 15.7909 13 18Z" fill="#28303F"/>
<path fill-rule="evenodd" clip-rule="evenodd" d="M11.25 7.82817C11.2033 7.86325 11.1586 7.90202 11.1161 7.94449L9.53033 9.53027C9.23744 9.82317 8.76256 9.82317 8.46967 9.53027C8.17678 9.23738 8.17678 8.76251 8.46967 8.46961L10.0555 6.88383C11.1294 5.80988 12.8706 5.80988 13.9445 6.88383L15.5303 8.46961C15.8232 8.76251 15.8232 9.23738 15.5303 9.53027C15.2374 9.82317 14.7626 9.82317 14.4697 9.53027L12.8839 7.94449C12.8414 7.90202 12.7967 7.86325 12.75 7.82817V11.9999C12.75 12.4142 12.4142 12.7499 12 12.7499C11.5858 12.7499 11.25 12.4142 11.25 11.9999V7.82817Z" fill="#28303F"/>
</svg>
