<svg width="24" height="24" viewBox="0 0 24 24" fill="none" xmlns="http://www.w3.org/2000/svg">
<path opacity="0.4" d="M3 18L3 6C3 3.79086 4.79086 2 7 2L13 2L21 10V18C21 20.2091 19.2091 22 17 22H7C4.79086 22 3 20.2091 3 18Z" fill="#28303F"/>
<path d="M13 6L13 2L21 10L17 10C14.7909 10 13 8.20914 13 6Z" fill="#28303F"/>
<path fill-rule="evenodd" clip-rule="evenodd" d="M11.25 13C11.25 12.0335 12.0335 11.25 13 11.25C14.5188 11.25 15.75 12.4812 15.75 14V14.05C15.75 14.4642 15.4142 14.8 15 14.8C14.5858 14.8 14.25 14.4642 14.25 14.05V14C14.25 13.3096 13.6904 12.75 13 12.75C12.8619 12.75 12.75 12.8619 12.75 13V16.5C12.75 17.7426 11.7426 18.75 10.5 18.75C9.25736 18.75 8.25 17.7426 8.25 16.5C8.25 15.2574 9.25736 14.25 10.5 14.25C10.763 14.25 11.0154 14.2951 11.25 14.378V13Z" fill="#28303F"/>
</svg>
