<svg width="24" height="24" viewBox="0 0 24 24" fill="none" xmlns="http://www.w3.org/2000/svg">
<path opacity="0.4" d="M3 18L3 6C3 3.79086 4.79086 2 7 2L13 2L21 10V18C21 20.2091 19.2091 22 17 22H7C4.79086 22 3 20.2091 3 18Z" fill="#28303F"/>
<path d="M13 6L13 2L21 10L17 10C14.7909 10 13 8.20914 13 6Z" fill="#28303F"/>
<path d="M7.98633 13.7051H8.85059V16.4238C8.85059 16.7793 8.81934 17.0527 8.75684 17.2441C8.67285 17.4941 8.52051 17.6953 8.2998 17.8477C8.0791 17.998 7.78809 18.0732 7.42676 18.0732C7.00293 18.0732 6.67676 17.9551 6.44824 17.7188C6.21973 17.4805 6.10449 17.1318 6.10254 16.6729L6.91992 16.5791C6.92969 16.8252 6.96582 16.999 7.02832 17.1006C7.12207 17.2549 7.26465 17.332 7.45605 17.332C7.64941 17.332 7.78613 17.2773 7.86621 17.168C7.94629 17.0566 7.98633 16.8271 7.98633 16.4795V13.7051Z" fill="#28303F"/>
<path d="M9.77637 18V13.7051H11.168C11.6953 13.7051 12.0391 13.7266 12.1992 13.7695C12.4453 13.834 12.6514 13.9746 12.8174 14.1914C12.9834 14.4062 13.0664 14.6846 13.0664 15.0264C13.0664 15.29 13.0186 15.5117 12.9229 15.6914C12.8271 15.8711 12.7051 16.0127 12.5566 16.1162C12.4102 16.2178 12.2607 16.2852 12.1084 16.3184C11.9014 16.3594 11.6016 16.3799 11.209 16.3799H10.6436V18H9.77637ZM10.6436 14.4316V15.6504H11.1182C11.46 15.6504 11.6885 15.6279 11.8037 15.583C11.9189 15.5381 12.0088 15.4678 12.0732 15.3721C12.1396 15.2764 12.1729 15.165 12.1729 15.0381C12.1729 14.8818 12.127 14.7529 12.0352 14.6514C11.9434 14.5498 11.8271 14.4863 11.6865 14.4609C11.583 14.4414 11.375 14.4316 11.0625 14.4316H10.6436Z" fill="#28303F"/>
<path d="M15.7764 16.4209V15.6973H17.6455V17.4082C17.4639 17.584 17.2002 17.7393 16.8545 17.874C16.5107 18.0068 16.1621 18.0732 15.8086 18.0732C15.3594 18.0732 14.9678 17.9795 14.6338 17.792C14.2998 17.6025 14.0488 17.333 13.8809 16.9834C13.7129 16.6318 13.6289 16.25 13.6289 15.8379C13.6289 15.3906 13.7227 14.9932 13.9102 14.6455C14.0977 14.2979 14.3721 14.0312 14.7334 13.8457C15.0088 13.7031 15.3516 13.6318 15.7617 13.6318C16.2949 13.6318 16.7109 13.7441 17.0098 13.9688C17.3105 14.1914 17.5039 14.5 17.5898 14.8945L16.7285 15.0557C16.668 14.8447 16.5537 14.6787 16.3857 14.5576C16.2197 14.4346 16.0117 14.373 15.7617 14.373C15.3828 14.373 15.0811 14.4932 14.8564 14.7334C14.6338 14.9736 14.5225 15.3301 14.5225 15.8027C14.5225 16.3125 14.6357 16.6953 14.8623 16.9512C15.0889 17.2051 15.3857 17.332 15.7529 17.332C15.9346 17.332 16.1162 17.2969 16.2979 17.2266C16.4814 17.1543 16.6387 17.0674 16.7695 16.9658V16.4209H15.7764Z" fill="#28303F"/>
</svg>
