<svg width="24" height="24" viewBox="0 0 24 24" fill="none" xmlns="http://www.w3.org/2000/svg">
<path opacity="0.4" d="M20.5261 8H3.47403C2.20074 8 1.25163 9.17404 1.51843 10.4191L3.32251 18.8381C3.71771 20.6824 5.34757 22 7.23372 22H16.7664C18.6525 22 20.2824 20.6824 20.6776 18.8381L22.4817 10.4191C22.7485 9.17403 21.7994 8 20.5261 8Z" fill="#28303F"/>
<path d="M20 8V7C20 5.34315 18.6569 4 17 4H14.1975C13.5294 4 12.8805 3.77702 12.3535 3.3664L11.4131 2.6336C10.8862 2.22298 10.2372 2 9.56917 2H7C5.34315 2 4 3.34315 4 5V8H20Z" fill="#28303F"/>
<path fill-rule="evenodd" clip-rule="evenodd" d="M12.5 12.75C11.5335 12.75 10.75 13.5335 10.75 14.5C10.75 15.4665 11.5335 16.25 12.5 16.25C13.4665 16.25 14.25 15.4665 14.25 14.5C14.25 13.5335 13.4665 12.75 12.5 12.75ZM9.25 14.5C9.25 12.7051 10.7051 11.25 12.5 11.25C14.2949 11.25 15.75 12.7051 15.75 14.5C15.75 16.2949 14.2949 17.75 12.5 17.75C11.8743 17.75 11.2898 17.5732 10.7939 17.2667L9.53033 18.5303C9.23744 18.8232 8.76256 18.8232 8.46967 18.5303C8.17678 18.2374 8.17678 17.7626 8.46967 17.4697L9.73327 16.2061C9.42684 15.7102 9.25 15.1257 9.25 14.5Z" fill="#28303F"/>
</svg>
