<svg width="24" height="24" viewBox="0 0 24 24" fill="none" xmlns="http://www.w3.org/2000/svg">
<path opacity="0.4" d="M21 18V13.625C21 11.4159 19.2091 9.625 17 9.625H15.1035C14.2564 9.625 13.4312 9.3561 12.7468 8.85703L11.2532 7.76797C10.5688 7.2689 9.74359 7 8.89653 7H7C4.79086 7 3 8.79086 3 11V18C3 20.2091 4.79086 22 7 22H17C19.2091 22 21 20.2091 21 18Z" fill="#28303F"/>
<path d="M17 9.625H15.1035C14.2564 9.625 13.4312 9.3561 12.7468 8.85703L11.2532 7.76797C10.5688 7.2689 9.74359 7 8.89653 7H7C6.27143 7 5.58835 7.19479 5 7.53513V4C5 2.89543 5.89543 2 7 2H17C18.1046 2 19 2.89543 19 4V10.1601C18.4117 9.81979 17.7286 9.625 17 9.625Z" fill="#28303F"/>
</svg>
