<svg width="24" height="24" viewBox="0 0 24 24" fill="none" xmlns="http://www.w3.org/2000/svg">
<path opacity="0.4" d="M13 8V5.5C13 4.39543 12.1046 3.5 11 3.5H9.66667C9.23393 3.5 8.81286 3.35964 8.46667 3.1L7.53333 2.4C7.18714 2.14036 6.76607 2 6.33333 2H5C3.89543 2 3 2.89543 3 4V8C3 9.10457 3.89543 10 5 10H11C12.1046 10 13 9.10457 13 8Z" fill="#28303F"/>
<path opacity="0.4" d="M21 20V17.5C21 16.3954 20.1046 15.5 19 15.5H17.6667C17.2339 15.5 16.8129 15.3596 16.4667 15.1L15.5333 14.4C15.1871 14.1404 14.7661 14 14.3333 14H13C11.8954 14 11 14.8954 11 16V20C11 21.1046 11.8954 22 13 22H19C20.1046 22 21 21.1046 21 20Z" fill="#28303F"/>
<path fill-rule="evenodd" clip-rule="evenodd" d="M14.25 6C14.25 5.58579 14.5858 5.25 15 5.25H17C18.5188 5.25 19.75 6.48122 19.75 8V13.5C19.75 13.9142 19.4142 14.25 19 14.25C18.5858 14.25 18.25 13.9142 18.25 13.5V8C18.25 7.30964 17.6904 6.75 17 6.75H15C14.5858 6.75 14.25 6.41421 14.25 6ZM5 11.25C5.41421 11.25 5.75 11.5858 5.75 12V16C5.75 16.6904 6.30964 17.25 7 17.25H9C9.41421 17.25 9.75 17.5858 9.75 18C9.75 18.4142 9.41421 18.75 9 18.75H7C5.48122 18.75 4.25 17.5188 4.25 16V12C4.25 11.5858 4.58579 11.25 5 11.25Z" fill="#28303F"/>
</svg>
