<svg width="24" height="24" viewBox="0 0 24 24" fill="none" xmlns="http://www.w3.org/2000/svg">
<path opacity="0.4" d="M22 17V10C22 7.79086 20.2091 6 18 6H15.3333C14.4679 6 13.6257 5.71929 12.9333 5.2L11.0667 3.8C10.3743 3.28071 9.53215 3 8.66667 3H6C3.79086 3 2 4.79086 2 7V17C2 19.2091 3.79086 21 6 21H18C20.2091 21 22 19.2091 22 17Z" fill="#28303F"/>
<path fill-rule="evenodd" clip-rule="evenodd" d="M12.5 10.75C11.5335 10.75 10.75 11.5335 10.75 12.5C10.75 13.4665 11.5335 14.25 12.5 14.25C13.4665 14.25 14.25 13.4665 14.25 12.5C14.25 11.5335 13.4665 10.75 12.5 10.75ZM9.25 12.5C9.25 10.7051 10.7051 9.25 12.5 9.25C14.2949 9.25 15.75 10.7051 15.75 12.5C15.75 14.2949 14.2949 15.75 12.5 15.75C11.8743 15.75 11.2898 15.5732 10.7939 15.2667L9.53033 16.5303C9.23744 16.8232 8.76256 16.8232 8.46967 16.5303C8.17678 16.2374 8.17678 15.7626 8.46967 15.4697L9.73327 14.2061C9.42684 13.7102 9.25 13.1257 9.25 12.5Z" fill="#28303F"/>
</svg>
