<svg width="24" height="24" viewBox="0 0 24 24" fill="none" xmlns="http://www.w3.org/2000/svg">
<path opacity="0.4" d="M22 17V10C22 7.79086 20.2091 6 18 6H15.3333C14.4679 6 13.6257 5.71929 12.9333 5.2L11.0667 3.8C10.3743 3.28071 9.53215 3 8.66667 3H6C3.79086 3 2 4.79086 2 7V17C2 19.2091 3.79086 21 6 21H18C20.2091 21 22 19.2091 22 17Z" fill="#28303F"/>
<path fill-rule="evenodd" clip-rule="evenodd" d="M9.34833 10.3483C9.64123 10.0554 10.1161 10.0554 10.409 10.3483L12 11.9393L13.591 10.3484C13.8839 10.0555 14.3587 10.0555 14.6516 10.3484C14.9445 10.6413 14.9445 11.1161 14.6516 11.409L13.0607 13L14.6516 14.591C14.9445 14.8839 14.9445 15.3587 14.6516 15.6516C14.3587 15.9445 13.8839 15.9445 13.591 15.6516L12 14.0607L10.409 15.6517C10.1161 15.9446 9.64123 15.9446 9.34833 15.6517C9.05544 15.3588 9.05544 14.8839 9.34833 14.591L10.9393 13L9.34833 11.409C9.05544 11.1161 9.05544 10.6412 9.34833 10.3483Z" fill="#28303F"/>
</svg>
