<svg width="24" height="24" viewBox="0 0 24 24" fill="none" xmlns="http://www.w3.org/2000/svg">
<path opacity="0.4" d="M20.526 8H3.47397C2.20068 8 1.25157 9.17404 1.51836 10.4191L3.32245 18.8381C3.71765 20.6824 5.34751 22 7.23366 22H16.7663C18.6525 22 20.2823 20.6824 20.6775 18.8381L22.4816 10.4191C22.7484 9.17403 21.7993 8 20.526 8Z" fill="#28303F"/>
<path fill-rule="evenodd" clip-rule="evenodd" d="M15.75 15C15.75 15.4142 15.4142 15.75 15 15.75L9 15.75C8.58579 15.75 8.25 15.4142 8.25 15C8.25 14.5858 8.58579 14.25 9 14.25L15 14.25C15.4142 14.25 15.75 14.5858 15.75 15Z" fill="#28303F"/>
<path d="M20 8V7C20 5.34315 18.6569 4 17 4H14.1975C13.5294 4 12.8805 3.77702 12.3535 3.3664L11.4131 2.6336C10.8862 2.22298 10.2372 2 9.56917 2H7C5.34315 2 4 3.34315 4 5V8H20Z" fill="#28303F"/>
</svg>
