<svg width="24" height="24" viewBox="0 0 24 24" fill="none" xmlns="http://www.w3.org/2000/svg">
<path opacity="0.4" d="M22 17V10C22 7.79086 20.2091 6 18 6H15.3333C14.4679 6 13.6257 5.71929 12.9333 5.2L11.0667 3.8C10.3743 3.28071 9.53215 3 8.66667 3H6C3.79086 3 2 4.79086 2 7V17C2 19.2091 3.79086 21 6 21H18C20.2091 21 22 19.2091 22 17Z" fill="#28303F"/>
<path fill-rule="evenodd" clip-rule="evenodd" d="M15.75 13C15.75 13.4142 15.4142 13.75 15 13.75L9 13.75C8.58579 13.75 8.25 13.4142 8.25 13C8.25 12.5858 8.58579 12.25 9 12.25L15 12.25C15.4142 12.25 15.75 12.5858 15.75 13Z" fill="#28303F"/>
</svg>
