<svg width="24" height="24" viewBox="0 0 24 24" fill="none" xmlns="http://www.w3.org/2000/svg">
<path opacity="0.4" d="M20.526 8H3.47397C2.20068 8 1.25157 9.17404 1.51836 10.4191L3.32245 18.8381C3.71765 20.6824 5.34751 22 7.23366 22H16.7663C18.6525 22 20.2823 20.6824 20.6775 18.8381L22.4816 10.4191C22.7484 9.17403 21.7993 8 20.526 8Z" fill="#28303F"/>
<path fill-rule="evenodd" clip-rule="evenodd" d="M11.25 16.1718C11.2033 16.1368 11.1586 16.098 11.1161 16.0555L9.53033 14.4697C9.23744 14.1768 8.76256 14.1768 8.46967 14.4697C8.17678 14.7626 8.17678 15.2375 8.46967 15.5304L10.0555 17.1162C11.1294 18.1901 12.8706 18.1901 13.9445 17.1162L15.5303 15.5304C15.8232 15.2375 15.8232 14.7626 15.5303 14.4697C15.2374 14.1768 14.7626 14.1768 14.4697 14.4697L12.8839 16.0555C12.8414 16.098 12.7967 16.1368 12.75 16.1718V12.0001C12.75 11.5858 12.4142 11.2501 12 11.2501C11.5858 11.2501 11.25 11.5858 11.25 12.0001V16.1718Z" fill="#28303F"/>
<path d="M20 8V7C20 5.34315 18.6569 4 17 4H14.1975C13.5294 4 12.8805 3.77702 12.3535 3.3664L11.4131 2.6336C10.8862 2.22298 10.2372 2 9.56917 2H7C5.34315 2 4 3.34315 4 5V8H20Z" fill="#28303F"/>
</svg>
