<svg width="24" height="24" viewBox="0 0 24 24" fill="none" xmlns="http://www.w3.org/2000/svg">
<path opacity="0.4" d="M20.526 8H3.47397C2.20068 8 1.25157 9.17404 1.51836 10.4191L3.32245 18.8381C3.71765 20.6824 5.34751 22 7.23366 22H16.7663C18.6525 22 20.2823 20.6824 20.6775 18.8381L22.4816 10.4191C22.7484 9.17403 21.7993 8 20.526 8Z" fill="#28303F"/>
<path d="M20 8V7C20 5.34315 18.6569 4 17 4H14.1975C13.5294 4 12.8805 3.77702 12.3535 3.3664L11.4131 2.6336C10.8862 2.22298 10.2372 2 9.56917 2H7C5.34315 2 4 3.34315 4 5V8H20Z" fill="#28303F"/>
<path fill-rule="evenodd" clip-rule="evenodd" d="M15.4939 12.4356C15.8056 12.7083 15.8372 13.1822 15.5645 13.4939L12.6946 16.7738C12.0779 17.4786 11.0156 17.5729 10.2843 16.9879L8.53151 15.5857C8.20806 15.3269 8.15562 14.8549 8.41438 14.5315C8.67313 14.208 9.1451 14.1556 9.46855 14.4144L11.2214 15.8166C11.3258 15.9002 11.4776 15.8867 11.5657 15.786L14.4356 12.5061C14.7084 12.1944 15.1822 12.1628 15.4939 12.4356Z" fill="#28303F"/>
</svg>
