<svg width="24" height="24" viewBox="0 0 24 24" fill="none" xmlns="http://www.w3.org/2000/svg">
<path opacity="0.4" d="M20.5261 8H3.47403C2.20074 8 1.25163 9.17404 1.51843 10.4191L3.32251 18.8381C3.71771 20.6824 5.34757 22 7.23372 22H16.7664C18.6525 22 20.2824 20.6824 20.6776 18.8381L22.4817 10.4191C22.7485 9.17403 21.7994 8 20.5261 8Z" fill="#28303F"/>
<path d="M9.36501 14.7063L11.2191 17.0239C11.6195 17.5243 12.3805 17.5243 12.7809 17.0239L14.635 14.7063C14.8713 14.4109 15 14.0439 15 13.6657V13.591C15 12.7123 14.2877 12 13.409 12C12.9871 12 12.5824 12.1676 12.284 12.466L12 12.75L11.716 12.466C11.4176 12.1676 11.0129 12 10.591 12C9.71231 12 9 12.7123 9 13.591V13.6657C9 14.0439 9.12873 14.4109 9.36501 14.7063Z" fill="#28303F"/>
<path d="M20 8V7C20 5.34315 18.6569 4 17 4H14.1975C13.5294 4 12.8805 3.77702 12.3535 3.3664L11.4131 2.6336C10.8862 2.22298 10.2372 2 9.56917 2H7C5.34315 2 4 3.34315 4 5V8H20Z" fill="#28303F"/>
</svg>
