<svg width="24" height="24" viewBox="0 0 24 24" fill="none" xmlns="http://www.w3.org/2000/svg">
<path opacity="0.4" d="M22 17V10C22 7.79086 20.2091 6 18 6H15.3333C14.4679 6 13.6257 5.71929 12.9333 5.2L11.0667 3.8C10.3743 3.28071 9.53215 3 8.66667 3H6C3.79086 3 2 4.79086 2 7V17C2 19.2091 3.79086 21 6 21H18C20.2091 21 22 19.2091 22 17Z" fill="#28303F"/>
<path fill-rule="evenodd" clip-rule="evenodd" d="M13.591 11.409C12.9588 10.7768 12.0428 10.5984 11.2495 10.8781C10.8589 11.0159 10.4305 10.8109 10.2927 10.4203C10.155 10.0297 10.36 9.6013 10.7506 9.46354C12.0679 8.99896 13.5958 9.29246 14.6517 10.3484C15.7076 11.4043 16.0011 12.9322 15.5365 14.2495C15.3987 14.6401 14.9704 14.8451 14.5798 14.7073C14.1891 14.5696 13.9841 14.1412 14.1219 13.7506C14.4017 12.9572 14.2233 12.0413 13.591 11.409ZM13.7074 15.5797C13.8451 15.9704 13.6401 16.3987 13.2495 16.5365C11.9322 17.0011 10.4043 16.7075 9.3484 15.6517C8.29251 14.5958 7.999 13.0679 8.46358 11.7506C8.60134 11.3599 9.02969 11.155 9.42032 11.2927C9.81095 11.4305 10.0159 11.8588 9.87818 12.2495C9.5984 13.0428 9.7768 13.9587 10.4091 14.591C11.0413 15.2233 11.9573 15.4017 12.7506 15.1219C13.1412 14.9841 13.5696 15.1891 13.7074 15.5797Z" fill="#28303F"/>
</svg>
