<svg width="24" height="24" viewBox="0 0 24 24" fill="none" xmlns="http://www.w3.org/2000/svg">
<path d="M5 20L4.25 20C4.25 20.4142 4.58579 20.75 5 20.75L5 20ZM5 4L5 3.25C4.58579 3.25 4.25 3.58579 4.25 4L5 4ZM18.25 7L18.25 17L19.75 17L19.75 7L18.25 7ZM16 19.25L5 19.25L5 20.75L16 20.75L16 19.25ZM5.75 20L5.75 4L4.25 4L4.25 20L5.75 20ZM5 4.75L16 4.75L16 3.25L5 3.25L5 4.75ZM18.25 17C18.25 18.2426 17.2426 19.25 16 19.25L16 20.75C18.0711 20.75 19.75 19.0711 19.75 17L18.25 17ZM19.75 7C19.75 4.92893 18.0711 3.25 16 3.25L16 4.75C17.2426 4.75 18.25 5.75736 18.25 7L19.75 7Z" fill="#28303F"/>
<path d="M5 8L19 8L19 12L5 12L5 8Z" stroke="#28303F" stroke-width="1.5" stroke-linecap="round" stroke-linejoin="round"/>
<path d="M5 2V22" stroke="#28303F" stroke-width="1.5" stroke-linecap="round" stroke-linejoin="round"/>
</svg>
