<svg width="24" height="24" viewBox="0 0 24 24" fill="none" xmlns="http://www.w3.org/2000/svg">
<path d="M20.9671 10V10.75V10ZM3.03293 10V9.25V10ZM13.1438 2.35375L12.7217 2.97367L13.1438 2.35375ZM21.539 8.07059L21.9611 7.45067L21.539 8.07059ZM10.8562 2.35375L11.2783 2.97367V2.97367L10.8562 2.35375ZM2.46102 8.07059L2.03887 7.45067H2.03887L2.46102 8.07059ZM20.9671 9.25L3.03293 9.25V10.75L20.9671 10.75V9.25ZM12.7217 2.97367L21.1168 8.6905L21.9611 7.45067L13.566 1.73383L12.7217 2.97367ZM10.434 1.73383L2.03887 7.45067L2.88316 8.6905L11.2783 2.97367L10.434 1.73383ZM13.566 1.73383C12.6186 1.08872 11.3814 1.08872 10.434 1.73383L11.2783 2.97367C11.7163 2.67544 12.2837 2.67544 12.7217 2.97367L13.566 1.73383ZM3.03293 9.25C2.95176 9.25 2.90152 9.22581 2.86561 9.19676C2.82439 9.16341 2.78611 9.1094 2.76521 9.03889C2.72348 8.89811 2.76398 8.77166 2.88316 8.6905L2.03887 7.45067C0.610116 8.42361 1.23812 10.75 3.03293 10.75V9.25ZM20.9671 10.75C22.7619 10.75 23.3899 8.42361 21.9611 7.45067L21.1168 8.6905C21.236 8.77166 21.2765 8.89811 21.2348 9.03889C21.2139 9.1094 21.1756 9.16341 21.1344 9.19676C21.0985 9.22582 21.0482 9.25 20.9671 9.25V10.75Z" fill="#28303F"/>
<rect x="4" y="10" width="5" height="8" stroke="#28303F" stroke-width="1.5"/>
<rect x="15" y="10" width="5" height="8" stroke="#28303F" stroke-width="1.5"/>
<path d="M3.72361 18.5528L4.39443 18.8882L3.72361 18.5528ZM2.72361 20.5528L3.39443 20.8882L2.72361 20.5528ZM19.6056 18.8882L20.6056 20.8882L21.9472 20.2174L20.9472 18.2174L19.6056 18.8882ZM20.382 21.25L3.61803 21.25L3.61803 22.75L20.382 22.75L20.382 21.25ZM3.39443 20.8882L4.39443 18.8882L3.05279 18.2174L2.05279 20.2174L3.39443 20.8882ZM4.61803 18.75L19.382 18.75L19.382 17.25L4.61803 17.25L4.61803 18.75ZM4.39443 18.8882C4.43678 18.8035 4.52334 18.75 4.61803 18.75L4.61803 17.25C3.95518 17.25 3.34922 17.6245 3.05279 18.2174L4.39443 18.8882ZM3.61803 21.25C3.43219 21.25 3.31132 21.0544 3.39443 20.8882L2.05279 20.2174C1.471 21.381 2.31712 22.75 3.61803 22.75L3.61803 21.25ZM20.6056 20.8882C20.6887 21.0544 20.5678 21.25 20.382 21.25L20.382 22.75C21.6829 22.75 22.529 21.381 21.9472 20.2174L20.6056 20.8882ZM20.9472 18.2174C20.6508 17.6245 20.0448 17.25 19.382 17.25L19.382 18.75C19.4767 18.75 19.5632 18.8035 19.6056 18.8882L20.9472 18.2174Z" fill="#28303F"/>
</svg>
