<svg width="24" height="24" viewBox="0 0 24 24" fill="none" xmlns="http://www.w3.org/2000/svg">
<rect x="2" y="6" width="20" height="16" rx="4" stroke="#28303F" stroke-width="1.5"/>
<path d="M7.25 6C7.25 6.41421 7.58579 6.75 8 6.75C8.41421 6.75 8.75 6.41421 8.75 6H7.25ZM15.25 6C15.25 6.41421 15.5858 6.75 16 6.75C16.4142 6.75 16.75 6.41421 16.75 6H15.25ZM8.75 6V5H7.25V6H8.75ZM11 2.75H13V1.25H11V2.75ZM15.25 5V6H16.75V5H15.25ZM13 2.75C14.2426 2.75 15.25 3.75736 15.25 5H16.75C16.75 2.92893 15.0711 1.25 13 1.25V2.75ZM8.75 5C8.75 3.75736 9.75736 2.75 11 2.75V1.25C8.92893 1.25 7.25 2.92893 7.25 5H8.75Z" fill="#28303F"/>
<path d="M2 13H22" stroke="#28303F" stroke-width="1.5" stroke-linecap="round"/>
<path d="M14 13C14 14.1046 13.1046 15 12 15C10.8954 15 10 14.1046 10 13C10 11.8954 10.8954 11 12 11C13.1046 11 14 11.8954 14 13Z" fill="#28303F"/>
</svg>
