<svg width="24" height="24" viewBox="0 0 24 24" fill="none" xmlns="http://www.w3.org/2000/svg">
<rect x="2" y="6" width="20" height="16" rx="4" stroke="#28303F" stroke-width="1.5"/>
<path d="M7.25 6C7.25 6.41421 7.58579 6.75 8 6.75C8.41421 6.75 8.75 6.41421 8.75 6H7.25ZM15.25 6C15.25 6.41421 15.5858 6.75 16 6.75C16.4142 6.75 16.75 6.41421 16.75 6H15.25ZM8.75 6V5H7.25V6H8.75ZM11 2.75H13V1.25H11V2.75ZM15.25 5V6H16.75V5H15.25ZM13 2.75C14.2426 2.75 15.25 3.75736 15.25 5H16.75C16.75 2.92893 15.0711 1.25 13 1.25V2.75ZM8.75 5C8.75 3.75736 9.75736 2.75 11 2.75V1.25C8.92893 1.25 7.25 2.92893 7.25 5H8.75Z" fill="#28303F"/>
<path d="M2.41152 10.373C2.06522 10.1457 1.60025 10.2422 1.37298 10.5885C1.14571 10.9348 1.24219 11.3997 1.58848 11.627L2.41152 10.373ZM22.4115 11.627C22.7578 11.3997 22.8543 10.9348 22.627 10.5885C22.3997 10.2422 21.9348 10.1457 21.5885 10.373L22.4115 11.627ZM2 11C1.58848 11.627 1.5886 11.6271 1.58873 11.6272C1.58881 11.6272 1.58897 11.6273 1.58912 11.6274C1.58943 11.6276 1.58983 11.6279 1.59032 11.6282C1.5913 11.6289 1.59266 11.6298 1.59438 11.6309C1.59781 11.6331 1.60271 11.6363 1.60904 11.6404C1.62171 11.6487 1.64009 11.6606 1.66396 11.6759C1.71168 11.7066 1.78131 11.751 1.87084 11.8071C2.04984 11.9195 2.30857 12.079 2.63079 12.2701C3.27455 12.6518 4.17509 13.1613 5.20171 13.6716C7.21583 14.6727 9.85549 15.75 12 15.75V14.25C10.2393 14.25 7.87892 13.3273 5.86936 12.3284C4.88414 11.8387 4.01691 11.3482 3.39586 10.9799C3.08567 10.796 2.83775 10.643 2.66819 10.5366C2.58343 10.4834 2.51831 10.4419 2.47484 10.414C2.45311 10.4 2.4368 10.3894 2.42616 10.3825C2.42084 10.3791 2.41694 10.3765 2.41449 10.3749C2.41326 10.3741 2.4124 10.3736 2.4119 10.3732C2.41165 10.3731 2.4115 10.373 2.41143 10.3729C2.4114 10.3729 2.41142 10.3729 2.4114 10.3729C2.41145 10.3729 2.41152 10.373 2 11ZM12 15.75C14.1445 15.75 16.7842 14.6727 18.7983 13.6716C19.8249 13.1613 20.7254 12.6518 21.3692 12.2701C21.6914 12.079 21.9502 11.9195 22.1292 11.8071C22.2187 11.751 22.2883 11.7066 22.336 11.6759C22.3599 11.6606 22.3783 11.6487 22.391 11.6404C22.3973 11.6363 22.4022 11.6331 22.4056 11.6309C22.4073 11.6298 22.4087 11.6289 22.4097 11.6282C22.4102 11.6279 22.4106 11.6276 22.4109 11.6274C22.411 11.6273 22.4112 11.6272 22.4113 11.6272C22.4114 11.6271 22.4115 11.627 22 11C21.5885 10.373 21.5886 10.3729 21.5886 10.3729C21.5886 10.3729 21.5886 10.3729 21.5886 10.3729C21.5885 10.373 21.5883 10.3731 21.5881 10.3732C21.5876 10.3736 21.5867 10.3741 21.5855 10.3749C21.5831 10.3765 21.5792 10.3791 21.5738 10.3825C21.5632 10.3894 21.5469 10.4 21.5252 10.414C21.4817 10.4419 21.4166 10.4834 21.3318 10.5366C21.1623 10.643 20.9143 10.796 20.6041 10.9799C19.9831 11.3482 19.1159 11.8387 18.1306 12.3284C16.1211 13.3273 13.7607 14.25 12 14.25V15.75Z" fill="#28303F"/>
<path d="M14 15C14 16.1046 13.1046 17 12 17C10.8954 17 10 16.1046 10 15C10 13.8954 10.8954 13 12 13C13.1046 13 14 13.8954 14 15Z" fill="#28303F"/>
</svg>
