<svg width="24" height="24" viewBox="0 0 24 24" fill="none" xmlns="http://www.w3.org/2000/svg">
<path d="M13 21.75C13.4142 21.75 13.75 21.4142 13.75 21C13.75 20.5858 13.4142 20.25 13 20.25L13 21.75ZM21.25 13C21.25 13.4142 21.5858 13.75 22 13.75C22.4142 13.75 22.75 13.4142 22.75 13L21.25 13ZM13 20.25L6 20.25L6 21.75L13 21.75L13 20.25ZM2.75 17L2.75 7L1.25 7L1.25 17L2.75 17ZM6 3.75L18 3.75L18 2.25L6 2.25L6 3.75ZM21.25 7L21.25 13L22.75 13L22.75 7L21.25 7ZM2.75 7C2.75 5.20507 4.20507 3.75 6 3.75L6 2.25C3.37665 2.25 1.25 4.37665 1.25 7L2.75 7ZM6 20.25C4.20507 20.25 2.75 18.7949 2.75 17L1.25 17C1.25 19.6234 3.37665 21.75 6 21.75L6 20.25ZM18 3.75C19.7949 3.75 21.25 5.20507 21.25 7L22.75 7C22.75 4.37665 20.6234 2.25 18 2.25L18 3.75Z" fill="#28303F"/>
<circle cx="6" cy="17" r="1" fill="#28303F"/>
<circle r="2" transform="matrix(1 0 0 -1 19 17)" stroke="#28303F" stroke-width="1.5"/>
<path d="M22.6706 20.6641C22.8561 21.0345 22.7062 21.4851 22.3359 21.6706C21.9655 21.8561 21.5149 21.7062 21.3294 21.3359L22.6706 20.6641ZM16.6706 21.3359C16.4851 21.7062 16.0345 21.8561 15.6641 21.6706C15.2938 21.4851 15.1439 21.0345 15.3294 20.6641L16.6706 21.3359ZM21.3294 21.3359C20.8335 20.3457 19.9476 19.75 19 19.75V18.25C20.6162 18.25 21.9689 19.2631 22.6706 20.6641L21.3294 21.3359ZM19 19.75C18.0524 19.75 17.1665 20.3457 16.6706 21.3359L15.3294 20.6641C16.0311 19.2631 17.3838 18.25 19 18.25V19.75Z" fill="#28303F"/>
<path d="M2 7L22 7L22 11L2 11L2 7Z" stroke="#28303F" stroke-width="1.5" stroke-linecap="round" stroke-linejoin="round"/>
</svg>
