<svg width="24" height="24" viewBox="0 0 24 24" fill="none" xmlns="http://www.w3.org/2000/svg">
<path d="M13 21.75C13.4142 21.75 13.75 21.4142 13.75 21C13.75 20.5858 13.4142 20.25 13 20.25L13 21.75ZM21.25 14C21.25 14.4142 21.5858 14.75 22 14.75C22.4142 14.75 22.75 14.4142 22.75 14L21.25 14ZM22 7L22.75 7L22 7ZM13 20.25L6 20.25L6 21.75L13 21.75L13 20.25ZM2.75 17L2.75 7L1.25 7L1.25 17L2.75 17ZM6 3.75L18 3.75L18 2.25L6 2.25L6 3.75ZM21.25 7L21.25 14L22.75 14L22.75 7L21.25 7ZM2.75 7C2.75 5.20507 4.20507 3.75 6 3.75L6 2.25C3.37665 2.25 1.25 4.37665 1.25 7L2.75 7ZM6 20.25C4.20507 20.25 2.75 18.7949 2.75 17L1.25 17C1.25 19.6234 3.37665 21.75 6 21.75L6 20.25ZM18 3.75C19.7949 3.75 21.25 5.20507 21.25 7L22.75 7C22.75 4.37665 20.6234 2.25 18 2.25L18 3.75Z" fill="#28303F"/>
<circle cx="6" cy="17" r="1" fill="#28303F"/>
<path d="M2 7L22 7L22 11L2 11L2 7Z" stroke="#28303F" stroke-width="1.5" stroke-linecap="round" stroke-linejoin="round"/>
<path d="M16.4685 18.4143C16.1451 18.1556 15.6731 18.208 15.4143 18.5315C15.1556 18.8549 15.208 19.3269 15.5315 19.5857L16.4685 18.4143ZM22.5644 17.4939C22.8372 17.1822 22.8056 16.7083 22.4939 16.4356C22.1822 16.1628 21.7083 16.1944 21.4356 16.5061L22.5644 17.4939ZM17.7528 20.4023L17.2843 20.9879L17.7528 20.4023ZM15.5315 19.5857L17.2843 20.9879L18.2213 19.8166L16.4685 18.4143L15.5315 19.5857ZM19.6945 20.7738L22.5644 17.4939L21.4356 16.5061L18.5657 19.786L19.6945 20.7738ZM17.2843 20.9879C18.0156 21.5729 19.0778 21.4786 19.6945 20.7738L18.5657 19.786C18.4776 19.8867 18.3258 19.9002 18.2213 19.8166L17.2843 20.9879Z" fill="#28303F"/>
</svg>
