<svg width="24" height="24" viewBox="0 0 24 24" fill="none" xmlns="http://www.w3.org/2000/svg">
<path d="M14 21.75C14.4142 21.75 14.75 21.4142 14.75 21C14.75 20.5858 14.4142 20.25 14 20.25L14 21.75ZM21.25 14C21.25 14.4142 21.5858 14.75 22 14.75C22.4142 14.75 22.75 14.4142 22.75 14L21.25 14ZM22 7L22.75 7L22 7ZM14 20.25L6 20.25L6 21.75L14 21.75L14 20.25ZM2.75 17L2.75 7L1.25 7L1.25 17L2.75 17ZM6 3.75L18 3.75L18 2.25L6 2.25L6 3.75ZM21.25 7L21.25 14L22.75 14L22.75 7L21.25 7ZM2.75 7C2.75 5.20507 4.20507 3.75 6 3.75L6 2.25C3.37665 2.25 1.25 4.37665 1.25 7L2.75 7ZM6 20.25C4.20507 20.25 2.75 18.7949 2.75 17L1.25 17C1.25 19.6234 3.37665 21.75 6 21.75L6 20.25ZM18 3.75C19.7949 3.75 21.25 5.20507 21.25 7L22.75 7C22.75 4.37665 20.6234 2.25 18 2.25L18 3.75Z" fill="#28303F"/>
<circle cx="6" cy="17" r="1" fill="#28303F"/>
<path d="M22 18L16 18" stroke="#28303F" stroke-width="1.5" stroke-linecap="round" stroke-linejoin="round"/>
<path d="M2 7L22 7L22 11L2 11L2 7Z" stroke="#28303F" stroke-width="1.5" stroke-linecap="round" stroke-linejoin="round"/>
</svg>
