<svg width="24" height="24" viewBox="0 0 24 24" fill="none" xmlns="http://www.w3.org/2000/svg">
<path d="M4 12C4 10.8954 4.89543 10 6 10H15C16.1046 10 17 10.8954 17 12V12C17 13.1046 16.1046 14 15 14H6C4.89543 14 4 13.1046 4 12V12Z" stroke="#28303F" stroke-width="1.5"/>
<path d="M12 18C12 20.2091 13.7909 22 16 22C18.2091 22 20 20.2091 20 18C20 15.7909 18.2091 14 16 14C15.8007 14 15.6047 14.0146 15.4132 14.0427M12 18C12 15.9902 13.4823 14.3266 15.4132 14.0427M12 18H6C4.89543 18 4 17.1046 4 16C4 14.8954 4.89543 14 6 14H15C15.1417 14 15.2799 14.0147 15.4132 14.0427" stroke="#28303F" stroke-width="1.5"/>
<path d="M14.5303 5.94454C14.8232 5.65165 14.8232 5.17678 14.5303 4.88388C14.2374 4.59099 13.7626 4.59099 13.4697 4.88388L14.5303 5.94454ZM12.7071 6.70711L13.2374 7.23744L12.7071 6.70711ZM11.2929 6.70711L11.8232 6.17678L11.8232 6.17678L11.2929 6.70711ZM10.5303 4.88388C10.2374 4.59099 9.76256 4.59099 9.46967 4.88388C9.17678 5.17678 9.17678 5.65165 9.46967 5.94454L10.5303 4.88388ZM12.75 2C12.75 1.58579 12.4142 1.25 12 1.25C11.5858 1.25 11.25 1.58579 11.25 2L12.75 2ZM11.25 6.41421C11.25 6.82843 11.5858 7.16421 12 7.16421C12.4142 7.16421 12.75 6.82843 12.75 6.41421L11.25 6.41421ZM13.4697 4.88388L12.1768 6.17678L13.2374 7.23744L14.5303 5.94454L13.4697 4.88388ZM11.8232 6.17678L10.5303 4.88388L9.46967 5.94454L10.7626 7.23744L11.8232 6.17678ZM12.1768 6.17678C12.0791 6.27441 11.9209 6.27441 11.8232 6.17678L10.7626 7.23744C11.446 7.92085 12.554 7.92086 13.2374 7.23744L12.1768 6.17678ZM11.25 2L11.25 6.41421L12.75 6.41421L12.75 2L11.25 2Z" fill="#28303F"/>
</svg>
