<svg width="24" height="24" viewBox="0 0 24 24" fill="none" xmlns="http://www.w3.org/2000/svg">
<circle cx="12" cy="12" r="10" stroke="#28303F" stroke-width="1.5"/>
<path d="M14.75 10C14.75 10.4142 14.4142 10.75 14 10.75C13.5858 10.75 13.25 10.4142 13.25 10H14.75ZM12 11.25C12.4142 11.25 12.75 11.5858 12.75 12C12.75 12.4142 12.4142 12.75 12 12.75V11.25ZM13.25 10C13.25 9.30964 12.6904 8.75 12 8.75V7.25C13.5188 7.25 14.75 8.48122 14.75 10H13.25ZM12 8.75C11.3096 8.75 10.75 9.30964 10.75 10H9.25C9.25 8.48122 10.4812 7.25 12 7.25V8.75ZM10.75 10C10.75 10.6904 11.3096 11.25 12 11.25V12.75C10.4812 12.75 9.25 11.5188 9.25 10H10.75Z" fill="#28303F"/>
<path d="M12 12.75C11.5858 12.75 11.25 12.4142 11.25 12C11.25 11.5858 11.5858 11.25 12 11.25V12.75ZM9.25 14C9.25 13.5858 9.58579 13.25 10 13.25C10.4142 13.25 10.75 13.5858 10.75 14H9.25ZM13.25 14C13.25 13.3096 12.6904 12.75 12 12.75V11.25C13.5188 11.25 14.75 12.4812 14.75 14H13.25ZM10.75 14C10.75 14.6904 11.3096 15.25 12 15.25V16.75C10.4812 16.75 9.25 15.5188 9.25 14H10.75ZM12 15.25C12.6904 15.25 13.25 14.6904 13.25 14H14.75C14.75 15.5188 13.5188 16.75 12 16.75V15.25Z" fill="#28303F"/>
<path d="M12 6.5V8" stroke="#28303F" stroke-width="1.5" stroke-linecap="round" stroke-linejoin="round"/>
<path d="M12 16V17.5" stroke="#28303F" stroke-width="1.5" stroke-linecap="round" stroke-linejoin="round"/>
</svg>
