<svg width="24" height="24" viewBox="0 0 24 24" fill="none" xmlns="http://www.w3.org/2000/svg">
<path d="M20 6.44434L12 9.99989L4 6.44434" stroke="#28303F" stroke-width="1.5" stroke-linecap="round" stroke-linejoin="round"/>
<path d="M13.6246 21.278L13.32 20.5926L13.6246 21.278ZM10.3754 21.278L10.68 20.5926L10.3754 21.278ZM13.32 3.40738L18.3199 5.6296L18.9292 4.25889L13.9292 2.03667L13.32 3.40738ZM5.68005 5.6296L10.68 3.40738L10.0708 2.03667L5.07084 4.25889L5.68005 5.6296ZM18.32 18.3704L13.32 20.5926L13.9292 21.9633L18.9292 19.7411L18.32 18.3704ZM10.68 20.5926L5.68005 18.3704L5.07084 19.7411L10.0708 21.9633L10.68 20.5926ZM21.75 15.4005V8.59949H20.25V15.4005H21.75ZM3.75 15.4005V8.59949H2.25V15.4005H3.75ZM5.68005 18.3704C4.50639 17.8488 3.75 16.6849 3.75 15.4005H2.25C2.25 17.2777 3.35549 18.9787 5.07084 19.7411L5.68005 18.3704ZM13.32 20.5926C12.4796 20.9661 11.5204 20.9661 10.68 20.5926L10.0708 21.9633C11.299 22.5092 12.701 22.5092 13.9292 21.9633L13.32 20.5926ZM18.9292 19.7411C20.6445 18.9787 21.75 17.2777 21.75 15.4005H20.25C20.25 16.6849 19.4936 17.8488 18.32 18.3704L18.9292 19.7411ZM5.07084 4.25889C3.35548 5.02127 2.25 6.72235 2.25 8.59949H3.75C3.75 7.31513 4.50638 6.15123 5.68005 5.6296L5.07084 4.25889ZM18.3199 5.6296C19.4936 6.15123 20.25 7.31513 20.25 8.59949H21.75C21.75 6.72234 20.6445 5.02127 18.9292 4.25889L18.3199 5.6296ZM13.9292 2.03667C12.701 1.49081 11.299 1.49081 10.0708 2.03667L10.68 3.40738C11.5204 3.0339 12.4796 3.0339 13.32 3.40738L13.9292 2.03667Z" fill="#28303F"/>
<path d="M12 10V21" stroke="#28303F" stroke-width="1.5" stroke-linecap="round" stroke-linejoin="round"/>
</svg>
