<svg width="24" height="24" viewBox="0 0 24 24" fill="none" xmlns="http://www.w3.org/2000/svg">
<path d="M14.75 8.5C14.75 8.91421 15.0858 9.25 15.5 9.25C15.9142 9.25 16.25 8.91421 16.25 8.5H14.75ZM12 12.75C12.4142 12.75 12.75 12.4142 12.75 12C12.75 11.5858 12.4142 11.25 12 11.25V12.75ZM12 11.25C10.4812 11.25 9.25 10.0188 9.25 8.5H7.75C7.75 10.8472 9.65279 12.75 12 12.75V11.25ZM9.25 8.5C9.25 6.98122 10.4812 5.75 12 5.75V4.25C9.65279 4.25 7.75 6.15279 7.75 8.5H9.25ZM12 5.75C13.5188 5.75 14.75 6.98122 14.75 8.5H16.25C16.25 6.15279 14.3472 4.25 12 4.25V5.75Z" fill="#28303F"/>
<path d="M9.25 15.5C9.25 15.0858 8.91421 14.75 8.5 14.75C8.08579 14.75 7.75 15.0858 7.75 15.5H9.25ZM12 11.25C11.5858 11.25 11.25 11.5858 11.25 12C11.25 12.4142 11.5858 12.75 12 12.75V11.25ZM14.75 15.5C14.75 17.0188 13.5188 18.25 12 18.25V19.75C14.3472 19.75 16.25 17.8472 16.25 15.5H14.75ZM12 18.25C10.4812 18.25 9.25 17.0188 9.25 15.5H7.75C7.75 17.8472 9.65279 19.75 12 19.75V18.25ZM12 12.75C13.5188 12.75 14.75 13.9812 14.75 15.5H16.25C16.25 13.1528 14.3472 11.25 12 11.25V12.75Z" fill="#28303F"/>
<path d="M12 3V21" stroke="#28303F" stroke-width="1.5" stroke-linecap="round" stroke-linejoin="round"/>
</svg>
