<svg width="24" height="24" viewBox="0 0 24 24" fill="none" xmlns="http://www.w3.org/2000/svg">
<path d="M2 7.25C1.58579 7.25 1.25 7.58579 1.25 8C1.25 8.41421 1.58579 8.75 2 8.75V7.25ZM4 8L4.30061 7.31288C4.20582 7.27141 4.10347 7.25 4 7.25V8ZM7.29544 12.8106C6.91472 12.6475 6.47381 12.8238 6.31064 13.2046C6.14747 13.5853 6.32384 14.0262 6.70456 14.1894L7.29544 12.8106ZM8.74342 14.2472L8.44798 14.9365L8.74342 14.2472ZM2 8.75H4V7.25H2V8.75ZM3.69939 8.68712L9.96163 11.4269L10.5629 10.0526L4.30061 7.31288L3.69939 8.68712ZM9.03886 13.5578L7.29544 12.8106L6.70456 14.1894L8.44798 14.9365L9.03886 13.5578ZM10.5635 12.948C10.3109 13.5374 9.62827 13.8104 9.03886 13.5578L8.44798 14.9365C9.79884 15.5155 11.3632 14.8897 11.9422 13.5389L10.5635 12.948ZM9.96163 11.4269C10.546 11.6825 10.8147 12.3617 10.5635 12.948L11.9422 13.5389C12.518 12.1952 11.9022 10.6386 10.5629 10.0526L9.96163 11.4269Z" fill="#28303F"/>
<path d="M2.33541 16.3292C1.96493 16.1439 1.51442 16.2941 1.32918 16.6646C1.14394 17.0351 1.29411 17.4856 1.66459 17.6708L2.33541 16.3292ZM11.3354 13.3292L10.6646 12.9938L9.99377 14.3354L10.6646 14.6708L11.3354 13.3292ZM13.7331 15.3666L13.3977 16.0374L13.7331 15.3666ZM16.4164 16.75H18V15.25H16.4164V16.75ZM18 19.25H9.88854V20.75H18V19.25ZM6.64625 18.4846L2.33541 16.3292L1.66459 17.6708L5.97542 19.8262L6.64625 18.4846ZM14.0685 14.6957L11.3354 13.3292L10.6646 14.6708L13.3977 16.0374L14.0685 14.6957ZM9.88854 19.25C8.76302 19.25 7.65295 18.9879 6.64625 18.4846L5.97542 19.8262C7.19041 20.4337 8.53015 20.75 9.88854 20.75V19.25ZM19.25 18C19.25 18.6904 18.6904 19.25 18 19.25V20.75C19.5188 20.75 20.75 19.5188 20.75 18H19.25ZM18 16.75C18.6904 16.75 19.25 17.3096 19.25 18H20.75C20.75 16.4812 19.5188 15.25 18 15.25V16.75ZM16.4164 15.25C15.6014 15.25 14.7975 15.0602 14.0685 14.6957L13.3977 16.0374C14.335 16.506 15.3685 16.75 16.4164 16.75V15.25Z" fill="#28303F"/>
<circle cx="18" cy="8" r="4" stroke="#28303F" stroke-width="1.5"/>
</svg>
