<svg width="24" height="24" viewBox="0 0 24 24" fill="none" xmlns="http://www.w3.org/2000/svg">
<path d="M20.4698 6.93158C20.7627 7.22443 21.2376 7.22435 21.5304 6.9314C21.8233 6.63846 21.8232 6.16359 21.5302 5.87074L20.4698 6.93158ZM21.5302 18.1293C21.8232 17.8364 21.8233 17.3615 21.5304 17.0686C21.2376 16.7757 20.7627 16.7756 20.4698 17.0684L21.5302 18.1293ZM15.1667 19.25C11.0559 19.25 7.75 15.9896 7.75 12H6.25C6.25 16.847 10.2568 20.75 15.1667 20.75V19.25ZM7.75 12C7.75 8.01044 11.0559 4.75 15.1667 4.75V3.25C10.2568 3.25 6.25 7.15301 6.25 12H7.75ZM15.1667 4.75C17.2472 4.75 19.124 5.58631 20.4698 6.93158L21.5302 5.87074C19.9114 4.25247 17.6564 3.25 15.1667 3.25V4.75ZM20.4698 17.0684C19.124 18.4137 17.2472 19.25 15.1667 19.25V20.75C17.6564 20.75 19.9114 19.7475 21.5302 18.1293L20.4698 17.0684Z" fill="#28303F"/>
<path d="M3 14L16 14" stroke="#28303F" stroke-width="1.5" stroke-linecap="round" stroke-linejoin="round"/>
<path d="M3 10L16 10" stroke="#28303F" stroke-width="1.5" stroke-linecap="round" stroke-linejoin="round"/>
</svg>
