<svg width="24" height="24" viewBox="0 0 24 24" fill="none" xmlns="http://www.w3.org/2000/svg">
<path d="M2 2V18C2 20.2091 3.79086 22 6 22H22" stroke="#28303F" stroke-width="1.5" stroke-linecap="round" stroke-linejoin="round"/>
<path d="M7 10L9.58579 12.5858C10.3668 13.3668 11.6332 13.3668 12.4142 12.5858L13.5858 11.4142C14.3668 10.6332 15.6332 10.6332 16.4142 11.4142L19 14" stroke="#28303F" stroke-width="1.5" stroke-linecap="round" stroke-linejoin="round"/>
<path d="M17.5 15.75C17.0858 15.75 16.75 15.4142 16.75 15C16.75 14.5858 17.0858 14.25 17.5 14.25V15.75ZM19.25 12.5C19.25 12.0858 19.5858 11.75 20 11.75C20.4142 11.75 20.75 12.0858 20.75 12.5H19.25ZM17.5 14.25H19V15.75H17.5V14.25ZM19.25 14V12.5H20.75V14H19.25ZM19 14.25C19.1381 14.25 19.25 14.1381 19.25 14H20.75C20.75 14.9665 19.9665 15.75 19 15.75V14.25Z" fill="#28303F"/>
</svg>
