<svg width="24" height="24" viewBox="0 0 24 24" fill="none" xmlns="http://www.w3.org/2000/svg">
<path d="M2 2V18C2 20.2091 3.79086 22 6 22H22" stroke="#28303F" stroke-width="1.5" stroke-linecap="round" stroke-linejoin="round"/>
<path d="M7 14L9.58579 11.4142C10.3668 10.6332 11.6332 10.6332 12.4142 11.4142L13.5858 12.5858C14.3668 13.3668 15.6332 13.3668 16.4142 12.5858L19 10" stroke="#28303F" stroke-width="1.5" stroke-linecap="round" stroke-linejoin="round"/>
<path d="M17.5 8.25C17.0858 8.25 16.75 8.58579 16.75 9C16.75 9.41421 17.0858 9.75 17.5 9.75V8.25ZM19.25 11.5C19.25 11.9142 19.5858 12.25 20 12.25C20.4142 12.25 20.75 11.9142 20.75 11.5H19.25ZM17.5 9.75H19V8.25H17.5V9.75ZM19.25 10V11.5H20.75V10H19.25ZM19 9.75C19.1381 9.75 19.25 9.86193 19.25 10H20.75C20.75 9.0335 19.9665 8.25 19 8.25V9.75Z" fill="#28303F"/>
</svg>
