<svg width="24" height="24" viewBox="0 0 24 24" fill="none" xmlns="http://www.w3.org/2000/svg">
<path d="M18.8905 7.66428L19.3071 7.04062L18.8905 7.66428ZM13.1095 16.3357L12.6929 16.9594L13.1095 16.3357ZM10.3999 16.7999L10.9996 17.2504L10.3999 16.7999ZM5.60009 13.2001L5.00044 12.7496L5.60009 13.2001ZM4 13.25C3.30964 13.25 2.75 12.6904 2.75 12H1.25C1.25 13.5188 2.48122 14.75 4 14.75V13.25ZM2.75 12C2.75 11.3096 3.30964 10.75 4 10.75V9.25C2.48122 9.25 1.25 10.4812 1.25 12H2.75ZM4 10.75C4.69036 10.75 5.25 11.3096 5.25 12H6.75C6.75 10.4812 5.51878 9.25 4 9.25V10.75ZM13.25 18C13.25 18.6904 12.6904 19.25 12 19.25V20.75C13.5188 20.75 14.75 19.5188 14.75 18H13.25ZM12 19.25C11.3096 19.25 10.75 18.6904 10.75 18H9.25C9.25 19.5188 10.4812 20.75 12 20.75V19.25ZM21.25 6C21.25 6.69036 20.6904 7.25 20 7.25V8.75C21.5188 8.75 22.75 7.51878 22.75 6H21.25ZM18.75 6C18.75 5.30964 19.3096 4.75 20 4.75V3.25C18.4812 3.25 17.25 4.48122 17.25 6H18.75ZM20 4.75C20.6904 4.75 21.25 5.30964 21.25 6H22.75C22.75 4.48122 21.5188 3.25 20 3.25V4.75ZM20 7.25C19.7424 7.25 19.5051 7.17289 19.3071 7.04062L18.4739 8.28793C18.9108 8.57982 19.4367 8.75 20 8.75V7.25ZM19.3071 7.04062C18.9696 6.81521 18.75 6.4331 18.75 6H17.25C17.25 6.95512 17.7376 7.79607 18.4739 8.28793L19.3071 7.04062ZM13.7336 16.7517L19.5145 8.0803L18.2664 7.24825L12.4855 15.9197L13.7336 16.7517ZM12 16.75C12.2576 16.75 12.4949 16.8271 12.6929 16.9594L13.5261 15.7121C13.0892 15.4202 12.5633 15.25 12 15.25V16.75ZM12.6929 16.9594C13.0304 17.1848 13.25 17.5669 13.25 18H14.75C14.75 17.0449 14.2624 16.2039 13.5261 15.7121L12.6929 16.9594ZM10.75 18C10.75 17.7177 10.8427 17.4592 10.9996 17.2504L9.80025 16.3495C9.45493 16.8092 9.25 17.3817 9.25 18H10.75ZM10.9996 17.2504C11.2289 16.9451 11.5915 16.75 12 16.75V15.25C11.0999 15.25 10.3007 15.6833 9.80025 16.3495L10.9996 17.2504ZM10.8499 16.1999L6.05009 12.6001L5.15009 13.8001L9.94991 17.3999L10.8499 16.1999ZM5.25 12C5.25 12.2823 5.15733 12.5408 5.00044 12.7496L6.19975 13.6505C6.54507 13.1908 6.75 12.6183 6.75 12H5.25ZM5.00044 12.7496C4.77111 13.0549 4.40845 13.25 4 13.25V14.75C4.90014 14.75 5.6993 14.3167 6.19975 13.6505L5.00044 12.7496Z" fill="#28303F"/>
</svg>
