<svg width="24" height="24" viewBox="0 0 24 24" fill="none" xmlns="http://www.w3.org/2000/svg">
<path d="M18.3999 7.20007L18.9996 6.74961L18.3999 7.20007ZM13.6001 10.7999L13.0004 11.2504L13.6001 10.7999ZM10.3999 13.2001L10.9996 12.7496L10.3999 13.2001ZM5.60009 16.7999L5.00044 17.2504L5.60009 16.7999ZM21.25 6C21.25 6.69036 20.6904 7.25 20 7.25V8.75C21.5188 8.75 22.75 7.51878 22.75 6H21.25ZM18.75 6C18.75 5.30964 19.3096 4.75 20 4.75V3.25C18.4812 3.25 17.25 4.48122 17.25 6H18.75ZM20 4.75C20.6904 4.75 21.25 5.30964 21.25 6H22.75C22.75 4.48122 21.5188 3.25 20 3.25V4.75ZM13.25 12C13.25 12.6904 12.6904 13.25 12 13.25V14.75C13.5188 14.75 14.75 13.5188 14.75 12H13.25ZM10.75 12C10.75 11.3096 11.3096 10.75 12 10.75V9.25C10.4812 9.25 9.25 10.4812 9.25 12H10.75ZM5.25 18C5.25 18.6904 4.69036 19.25 4 19.25V20.75C5.51878 20.75 6.75 19.5188 6.75 18H5.25ZM4 19.25C3.30964 19.25 2.75 18.6904 2.75 18H1.25C1.25 19.5188 2.48122 20.75 4 20.75V19.25ZM2.75 18C2.75 17.3096 3.30964 16.75 4 16.75V15.25C2.48122 15.25 1.25 16.4812 1.25 18H2.75ZM20 7.25C19.5915 7.25 19.2289 7.05489 18.9996 6.74961L17.8003 7.65053C18.3007 8.31673 19.0999 8.75 20 8.75V7.25ZM18.9996 6.74961C18.8427 6.54076 18.75 6.28228 18.75 6H17.25C17.25 6.61826 17.4549 7.19083 17.8003 7.65053L18.9996 6.74961ZM17.9499 6.60007L13.1501 10.1999L14.0501 11.3999L18.8499 7.80007L17.9499 6.60007ZM12 10.75C12.4085 10.75 12.7711 10.9451 13.0004 11.2504L14.1997 10.3495C13.6993 9.68327 12.9001 9.25 12 9.25V10.75ZM13.0004 11.2504C13.1573 11.4592 13.25 11.7177 13.25 12H14.75C14.75 11.3817 14.5451 10.8092 14.1997 10.3495L13.0004 11.2504ZM12 13.25C11.5915 13.25 11.2289 13.0549 10.9996 12.7496L9.80025 13.6505C10.3007 14.3167 11.0999 14.75 12 14.75V13.25ZM10.9996 12.7496C10.8427 12.5408 10.75 12.2823 10.75 12H9.25C9.25 12.6183 9.45493 13.1908 9.80025 13.6505L10.9996 12.7496ZM9.94991 12.6001L5.15009 16.1999L6.05009 17.3999L10.8499 13.8001L9.94991 12.6001ZM4 16.75C4.40845 16.75 4.77111 16.9451 5.00044 17.2504L6.19975 16.3495C5.6993 15.6833 4.90014 15.25 4 15.25V16.75ZM5.00044 17.2504C5.15733 17.4592 5.25 17.7177 5.25 18H6.75C6.75 17.3817 6.54507 16.8092 6.19975 16.3495L5.00044 17.2504Z" fill="#28303F"/>
</svg>
