<svg width="24" height="24" viewBox="0 0 24 24" fill="none" xmlns="http://www.w3.org/2000/svg">
<path d="M18.8905 16.3357L19.3071 16.9594L18.8905 16.3357ZM13.1095 7.66428L12.6929 7.04062L13.1095 7.66428ZM10.3999 7.20007L10.9996 6.74961L10.3999 7.20007ZM5.60009 10.7999L5.00044 11.2504L5.60009 10.7999ZM4 10.75C3.30964 10.75 2.75 11.3096 2.75 12H1.25C1.25 10.4812 2.48122 9.25 4 9.25V10.75ZM2.75 12C2.75 12.6904 3.30964 13.25 4 13.25V14.75C2.48122 14.75 1.25 13.5188 1.25 12H2.75ZM4 13.25C4.69036 13.25 5.25 12.6904 5.25 12H6.75C6.75 13.5188 5.51878 14.75 4 14.75V13.25ZM13.25 6C13.25 5.30964 12.6904 4.75 12 4.75V3.25C13.5188 3.25 14.75 4.48122 14.75 6H13.25ZM12 4.75C11.3096 4.75 10.75 5.30964 10.75 6H9.25C9.25 4.48122 10.4812 3.25 12 3.25V4.75ZM21.25 18C21.25 17.3096 20.6904 16.75 20 16.75V15.25C21.5188 15.25 22.75 16.4812 22.75 18H21.25ZM18.75 18C18.75 18.6904 19.3096 19.25 20 19.25V20.75C18.4812 20.75 17.25 19.5188 17.25 18H18.75ZM20 19.25C20.6904 19.25 21.25 18.6904 21.25 18H22.75C22.75 19.5188 21.5188 20.75 20 20.75V19.25ZM20 16.75C19.7424 16.75 19.5051 16.8271 19.3071 16.9594L18.4739 15.7121C18.9108 15.4202 19.4367 15.25 20 15.25V16.75ZM19.3071 16.9594C18.9696 17.1848 18.75 17.5669 18.75 18H17.25C17.25 17.0449 17.7376 16.2039 18.4739 15.7121L19.3071 16.9594ZM13.7336 7.24825L19.5145 15.9197L18.2664 16.7517L12.4855 8.0803L13.7336 7.24825ZM12 7.25C12.2576 7.25 12.4949 7.17289 12.6929 7.04062L13.5261 8.28793C13.0892 8.57982 12.5633 8.75 12 8.75V7.25ZM12.6929 7.04062C13.0304 6.81521 13.25 6.4331 13.25 6H14.75C14.75 6.95512 14.2624 7.79607 13.5261 8.28793L12.6929 7.04062ZM10.75 6C10.75 6.28228 10.8427 6.54076 10.9996 6.74961L9.80025 7.65053C9.45493 7.19083 9.25 6.61826 9.25 6H10.75ZM10.9996 6.74961C11.2289 7.05489 11.5915 7.25 12 7.25V8.75C11.0999 8.75 10.3007 8.31673 9.80025 7.65053L10.9996 6.74961ZM10.8499 7.80007L6.05009 11.3999L5.15009 10.1999L9.94991 6.60007L10.8499 7.80007ZM5.25 12C5.25 11.7177 5.15733 11.4592 5.00044 11.2504L6.19975 10.3495C6.54507 10.8092 6.75 11.3817 6.75 12H5.25ZM5.00044 11.2504C4.77111 10.9451 4.40845 10.75 4 10.75V9.25C4.90014 9.25 5.6993 9.68327 6.19975 10.3495L5.00044 11.2504Z" fill="#28303F"/>
</svg>
