<svg width="24" height="24" viewBox="0 0 24 24" fill="none" xmlns="http://www.w3.org/2000/svg">
<rect x="22" y="3" width="18" height="20" rx="4" transform="rotate(90 22 3)" stroke="#28303F" stroke-width="1.5"/>
<path d="M10 14.25C8.75736 14.25 7.75 13.2426 7.75 12H6.25C6.25 14.0711 7.92893 15.75 10 15.75V14.25ZM7.75 12C7.75 10.7574 8.75736 9.75 10 9.75V8.25C7.92893 8.25 6.25 9.92893 6.25 12H7.75ZM16.25 12C16.25 13.2426 15.2426 14.25 14 14.25V15.75C16.0711 15.75 17.75 14.0711 17.75 12H16.25ZM14 9.75C15.2426 9.75 16.25 10.7574 16.25 12H17.75C17.75 9.92893 16.0711 8.25 14 8.25V9.75ZM11.75 12C11.75 11.3337 12.0387 10.7358 12.5002 10.3227L11.4998 9.20504C10.7338 9.89062 10.25 10.8893 10.25 12H11.75ZM12.5002 10.3227C12.8988 9.96602 13.4233 9.75 14 9.75V8.25C13.04 8.25 12.1628 8.61169 11.4998 9.20504L12.5002 10.3227ZM10 9.75C10.5767 9.75 11.1012 9.96602 11.4998 10.3227L12.5002 9.20504C11.8372 8.61169 10.96 8.25 10 8.25V9.75ZM14 14.25C13.4233 14.25 12.8988 14.034 12.5002 13.6773L11.4998 14.795C12.1628 15.3883 13.04 15.75 14 15.75V14.25ZM12.5002 13.6773C12.0387 13.2642 11.75 12.6663 11.75 12H10.25C10.25 13.1107 10.7338 14.1094 11.4998 14.795L12.5002 13.6773ZM11.4998 13.6773C11.1012 14.034 10.5767 14.25 10 14.25V15.75C10.96 15.75 11.8372 15.3883 12.5002 14.795L11.4998 13.6773Z" fill="#28303F"/>
</svg>
