<svg width="24" height="24" viewBox="0 0 24 24" fill="none" xmlns="http://www.w3.org/2000/svg">
<path d="M12 7V6.25C11.5858 6.25 11.25 6.58579 11.25 7H12ZM12 15H11.25C11.25 15.4142 11.5858 15.75 12 15.75V15ZM8 2.75H16V1.25H8V2.75ZM16 21.25H8V22.75H16V21.25ZM6.75 20V4H5.25V20H6.75ZM8 21.25C7.30964 21.25 6.75 20.6904 6.75 20H5.25C5.25 21.5188 6.48122 22.75 8 22.75V21.25ZM17.25 20C17.25 20.6904 16.6904 21.25 16 21.25V22.75C17.5188 22.75 18.75 21.5188 18.75 20H17.25ZM16 2.75C16.6904 2.75 17.25 3.30964 17.25 4H18.75C18.75 2.48122 17.5188 1.25 16 1.25V2.75ZM8 1.25C6.48122 1.25 5.25 2.48122 5.25 4H6.75C6.75 3.30964 7.30964 2.75 8 2.75V1.25ZM12 7.75H18V6.25H12V7.75ZM19.25 9V13H20.75V9H19.25ZM18 14.25H12V15.75H18V14.25ZM12.75 15V7H11.25V15H12.75ZM19.25 13C19.25 13.6904 18.6904 14.25 18 14.25V15.75C19.5188 15.75 20.75 14.5188 20.75 13H19.25ZM18 7.75C18.6904 7.75 19.25 8.30964 19.25 9H20.75C20.75 7.48122 19.5188 6.25 18 6.25V7.75ZM18.75 7V4H17.25V7H18.75ZM18.75 20V15H17.25V20H18.75Z" fill="#28303F"/>
<path d="M13 19C13 19.5523 12.5523 20 12 20C11.4477 20 11 19.5523 11 19C11 18.4477 11.4477 18 12 18C12.5523 18 13 18.4477 13 19Z" fill="#28303F"/>
<path d="M20 10L12 10" stroke="#28303F" stroke-width="1.5" stroke-linecap="round" stroke-linejoin="round"/>
</svg>
