<svg width="24" height="24" viewBox="0 0 24 24" fill="none" xmlns="http://www.w3.org/2000/svg">
<path d="M14 20.75C14.4142 20.75 14.75 20.4142 14.75 20C14.75 19.5858 14.4142 19.25 14 19.25V20.75ZM21.25 13C21.25 13.4142 21.5858 13.75 22 13.75C22.4142 13.75 22.75 13.4142 22.75 13H21.25ZM6 4.75H18V3.25H6V4.75ZM14 19.25H6V20.75H14V19.25ZM2.75 16V8H1.25V16H2.75ZM21.25 8V13H22.75V8H21.25ZM6 19.25C4.20507 19.25 2.75 17.7949 2.75 16H1.25C1.25 18.6234 3.37665 20.75 6 20.75V19.25ZM18 4.75C19.7949 4.75 21.25 6.20507 21.25 8H22.75C22.75 5.37665 20.6234 3.25 18 3.25V4.75ZM6 3.25C3.37665 3.25 1.25 5.37665 1.25 8H2.75C2.75 6.20507 4.20507 4.75 6 4.75V3.25Z" fill="#28303F"/>
<circle r="1" transform="matrix(1 0 0 -1 6 8)" fill="#28303F"/>
<circle r="2" transform="matrix(1 0 0 -1 12 12)" stroke="#28303F" stroke-width="1.5"/>
<path d="M22.0303 16.2877C22.3232 15.9948 22.3232 15.5199 22.0303 15.227C21.7374 14.9341 21.2626 14.9341 20.9697 15.227L22.0303 16.2877ZM16.727 19.4696C16.4341 19.7625 16.4341 20.2374 16.727 20.5303C17.0199 20.8232 17.4948 20.8232 17.7877 20.5303L16.727 19.4696ZM20.9697 20.5303C21.2626 20.8232 21.7374 20.8232 22.0303 20.5303C22.3232 20.2374 22.3232 19.7626 22.0303 19.4697L20.9697 20.5303ZM17.7877 15.227C17.4948 14.9341 17.0199 14.9341 16.727 15.227C16.4341 15.5199 16.4341 15.9948 16.727 16.2877L17.7877 15.227ZM20.9697 15.227L16.727 19.4696L17.7877 20.5303L22.0303 16.2877L20.9697 15.227ZM22.0303 19.4697L17.7877 15.227L16.727 16.2877L20.9697 20.5303L22.0303 19.4697Z" fill="#28303F"/>
</svg>
