<svg width="24" height="24" viewBox="0 0 24 24" fill="none" xmlns="http://www.w3.org/2000/svg">
<path d="M9 14.5H13" stroke="#28303F" stroke-width="1.5" stroke-linecap="round" stroke-linejoin="round"/>
<path d="M13.25 12.3824C13.25 12.7966 13.5858 13.1324 14 13.1324C14.4142 13.1324 14.75 12.7966 14.75 12.3824H13.25ZM14 19.25C14.4142 19.25 14.75 18.9142 14.75 18.5C14.75 18.0858 14.4142 17.75 14 17.75V19.25ZM14.75 12.3824V11.8846H13.25V12.3824H14.75ZM10.4808 11.8846V12.4548H11.9808V11.8846H10.4808ZM10.6804 19.25H14V17.75H10.6804V19.25ZM9.17644 15.9775C8.0734 17.2628 8.98665 19.25 10.6804 19.25V17.75C10.2686 17.75 10.0466 17.2669 10.3147 16.9544L9.17644 15.9775ZM10.4808 12.4548C10.4808 13.7471 10.0181 14.9968 9.17644 15.9775L10.3147 16.9544C11.3898 15.7017 11.9808 14.1055 11.9808 12.4548H10.4808ZM12.6154 9.75C11.4365 9.75 10.4808 10.7057 10.4808 11.8846H11.9808C11.9808 11.5341 12.2649 11.25 12.6154 11.25V9.75ZM14.75 11.8846C14.75 10.7057 13.7943 9.75 12.6154 9.75V11.25C12.9659 11.25 13.25 11.5341 13.25 11.8846H14.75Z" fill="#28303F"/>
<path d="M5.63246 11.1026C6.44914 8.65258 8.74197 7 11.3246 7H12.6754C15.258 7 17.5509 8.65258 18.3675 11.1026L19.3675 14.1026C20.6626 17.9878 17.7708 22 13.6754 22H10.3246C6.22921 22 3.33739 17.9878 4.63246 14.1026L5.63246 11.1026Z" stroke="#28303F" stroke-width="1.5" stroke-linejoin="round"/>
<path d="M14.0859 7V7.75C14.3026 7.75 14.5088 7.65624 14.6512 7.49287L14.0859 7ZM9.91411 7L9.34879 7.49287C9.49123 7.65623 9.69737 7.75 9.91411 7.75L9.91411 7ZM11.6748 2.40914L11.9051 1.69536L11.6748 2.40914ZM12.3252 2.40914L12.0949 1.69536V1.69536L12.3252 2.40914ZM15.487 5.39296L14.9217 4.90009V4.90009L15.487 5.39296ZM13.2529 2.10985L13.0227 1.39607L13.2529 2.10985ZM8.51303 5.39296L7.94771 5.88582L8.51303 5.39296ZM10.7471 2.10985L10.5168 2.82363L10.7471 2.10985ZM14.0859 6.25L9.91411 6.25L9.91411 7.75L14.0859 7.75V6.25ZM10.4794 6.50713L9.07834 4.90009L7.94771 5.88582L9.34879 7.49287L10.4794 6.50713ZM14.9217 4.90009L13.5206 6.50713L14.6512 7.49287L16.0523 5.88582L14.9217 4.90009ZM10.5168 2.82363L11.4446 3.12292L11.9051 1.69536L10.9773 1.39607L10.5168 2.82363ZM12.5554 3.12292L13.4832 2.82363L13.0227 1.39607L12.0949 1.69536L12.5554 3.12292ZM11.4446 3.12292C11.8055 3.23936 12.1945 3.23936 12.5554 3.12292L12.0949 1.69536C12.0334 1.71521 11.9666 1.71521 11.9051 1.69536L11.4446 3.12292ZM16.0523 5.88582C17.961 3.69651 15.6993 0.532591 13.0227 1.39607L13.4832 2.82363C14.817 2.39336 15.7598 3.93875 14.9217 4.90009L16.0523 5.88582ZM9.07834 4.90009C8.24021 3.93875 9.18304 2.39336 10.5168 2.82363L10.9773 1.39607C8.30066 0.532591 6.03897 3.6965 7.94771 5.88582L9.07834 4.90009Z" fill="#28303F"/>
</svg>
