<svg width="24" height="24" viewBox="0 0 24 24" fill="none" xmlns="http://www.w3.org/2000/svg">
<rect x="3" y="8" width="18" height="14" rx="3" stroke="#28303F" stroke-width="1.5"/>
<circle r="1" transform="matrix(1 0 0 -1 18 19)" fill="#28303F"/>
<circle r="1" transform="matrix(1 0 0 -1 6 11)" fill="#28303F"/>
<circle r="2" transform="matrix(1 0 0 -1 12 15)" stroke="#28303F" stroke-width="1.5"/>
<path d="M14.5303 4.44454C14.8232 4.15165 14.8232 3.67678 14.5303 3.38388C14.2374 3.09099 13.7626 3.09099 13.4697 3.38388L14.5303 4.44454ZM12.7071 5.20711L13.2374 5.73744L12.7071 5.20711ZM11.2929 5.20711L11.8232 4.67678V4.67678L11.2929 5.20711ZM10.5303 3.38388C10.2374 3.09099 9.76256 3.09099 9.46967 3.38388C9.17678 3.67678 9.17678 4.15165 9.46967 4.44454L10.5303 3.38388ZM12.75 2C12.75 1.58579 12.4142 1.25 12 1.25C11.5858 1.25 11.25 1.58579 11.25 2H12.75ZM11.25 4.91421C11.25 5.32843 11.5858 5.66421 12 5.66421C12.4142 5.66421 12.75 5.32843 12.75 4.91421H11.25ZM13.4697 3.38388L12.1768 4.67678L13.2374 5.73744L14.5303 4.44454L13.4697 3.38388ZM11.8232 4.67678L10.5303 3.38388L9.46967 4.44454L10.7626 5.73744L11.8232 4.67678ZM12.1768 4.67678C12.0791 4.77441 11.9209 4.77441 11.8232 4.67678L10.7626 5.73744C11.446 6.42085 12.554 6.42086 13.2374 5.73744L12.1768 4.67678ZM11.25 2V4.91421H12.75V2H11.25Z" fill="#28303F"/>
</svg>
