<svg width="24" height="24" viewBox="0 0 24 24" fill="none" xmlns="http://www.w3.org/2000/svg">
<rect x="2" y="4" width="20" height="16" rx="4" stroke="#28303F" stroke-width="1.5"/>
<path d="M9 12H13" stroke="#28303F" stroke-width="1.5" stroke-linecap="round" stroke-linejoin="round"/>
<path d="M13.25 9.88235C13.25 10.2966 13.5858 10.6324 14 10.6324C14.4142 10.6324 14.75 10.2966 14.75 9.88235H13.25ZM14 16.75C14.4142 16.75 14.75 16.4142 14.75 16C14.75 15.5858 14.4142 15.25 14 15.25V16.75ZM14.75 9.88235V9.38461H13.25V9.88235H14.75ZM10.4808 9.38462V9.95476H11.9808V9.38462H10.4808ZM10.6804 16.75H14V15.25H10.6804V16.75ZM9.17644 13.4775C8.0734 14.7628 8.98665 16.75 10.6804 16.75V15.25C10.2686 15.25 10.0466 14.7669 10.3147 14.4544L9.17644 13.4775ZM10.4808 9.95476C10.4808 11.2471 10.0181 12.4968 9.17644 13.4775L10.3147 14.4544C11.3898 13.2017 11.9808 11.6055 11.9808 9.95476H10.4808ZM12.6154 7.25C11.4365 7.25 10.4808 8.2057 10.4808 9.38462H11.9808C11.9808 9.03413 12.2649 8.75 12.6154 8.75V7.25ZM14.75 9.38461C14.75 8.2057 13.7943 7.25 12.6154 7.25V8.75C12.9659 8.75 13.25 9.03413 13.25 9.38461H14.75Z" fill="#28303F"/>
</svg>
