<svg width="24" height="24" viewBox="0 0 24 24" fill="none" xmlns="http://www.w3.org/2000/svg">
<path d="M15 20.75C15.4142 20.75 15.75 20.4142 15.75 20C15.75 19.5858 15.4142 19.25 15 19.25V20.75ZM21.25 11C21.25 11.4142 21.5858 11.75 22 11.75C22.4142 11.75 22.75 11.4142 22.75 11H21.25ZM6 4.75H18V3.25H6V4.75ZM15 19.25H6V20.75H15V19.25ZM2.75 16V8H1.25V16H2.75ZM21.25 8V11H22.75V8H21.25ZM6 19.25C4.20507 19.25 2.75 17.7949 2.75 16H1.25C1.25 18.6234 3.37665 20.75 6 20.75V19.25ZM18 4.75C19.7949 4.75 21.25 6.20507 21.25 8H22.75C22.75 5.37665 20.6234 3.25 18 3.25V4.75ZM6 3.25C3.37665 3.25 1.25 5.37665 1.25 8H2.75C2.75 6.20507 4.20507 4.75 6 4.75V3.25Z" fill="#28303F"/>
<circle r="1" transform="matrix(1 0 0 -1 6 8)" fill="#28303F"/>
<circle r="2" transform="matrix(1 0 0 -1 12 12)" stroke="#28303F" stroke-width="1.5"/>
<path d="M22.5303 18.9445C22.8232 18.6517 22.8232 18.1768 22.5303 17.8839C22.2374 17.591 21.7626 17.591 21.4697 17.8839L22.5303 18.9445ZM20.7071 19.7071L21.2374 20.2374L20.7071 19.7071ZM19.2929 19.7071L19.8232 19.1768V19.1768L19.2929 19.7071ZM18.5303 17.8839C18.2374 17.591 17.7626 17.591 17.4697 17.8839C17.1768 18.1768 17.1768 18.6517 17.4697 18.9445L18.5303 17.8839ZM20.75 14C20.75 13.5858 20.4142 13.25 20 13.25C19.5858 13.25 19.25 13.5858 19.25 14H20.75ZM19.25 19.4142C19.25 19.8284 19.5858 20.1642 20 20.1642C20.4142 20.1642 20.75 19.8284 20.75 19.4142H19.25ZM21.4697 17.8839L20.1768 19.1768L21.2374 20.2374L22.5303 18.9445L21.4697 17.8839ZM19.8232 19.1768L18.5303 17.8839L17.4697 18.9445L18.7626 20.2374L19.8232 19.1768ZM20.1768 19.1768C20.0791 19.2744 19.9209 19.2744 19.8232 19.1768L18.7626 20.2374C19.446 20.9209 20.554 20.9209 21.2374 20.2374L20.1768 19.1768ZM19.25 14V19.4142H20.75V14H19.25Z" fill="#28303F"/>
</svg>
