<svg width="24" height="24" viewBox="0 0 24 24" fill="none" xmlns="http://www.w3.org/2000/svg">
<path d="M14 20.75C14.4142 20.75 14.75 20.4142 14.75 20C14.75 19.5858 14.4142 19.25 14 19.25V20.75ZM21.25 12.5C21.25 12.9142 21.5858 13.25 22 13.25C22.4142 13.25 22.75 12.9142 22.75 12.5H21.25ZM6 4.75H18V3.25H6V4.75ZM14 19.25H6V20.75H14V19.25ZM2.75 16V8H1.25V16H2.75ZM21.25 8V12.5H22.75V8H21.25ZM6 19.25C4.20507 19.25 2.75 17.7949 2.75 16H1.25C1.25 18.6234 3.37665 20.75 6 20.75V19.25ZM18 4.75C19.7949 4.75 21.25 6.20507 21.25 8H22.75C22.75 5.37665 20.6234 3.25 18 3.25V4.75ZM6 3.25C3.37665 3.25 1.25 5.37665 1.25 8H2.75C2.75 6.20507 4.20507 4.75 6 4.75V3.25Z" fill="#28303F"/>
<circle r="1" transform="matrix(1 0 0 -1 6 8)" fill="#28303F"/>
<circle r="2" transform="matrix(1 0 0 -1 12 12)" stroke="#28303F" stroke-width="1.5"/>
<path d="M19.0001 15.9999L18.4698 16.5302C18.6105 16.6709 18.8012 16.7499 19.0001 16.7499C19.1991 16.7499 19.3898 16.6709 19.5305 16.5302L19.0001 15.9999ZM19.2211 15.7789L18.6908 15.2486V15.2486L19.2211 15.7789ZM18.7792 15.7789L18.2488 16.3093L18.2488 16.3093L18.7792 15.7789ZM16.5695 17.9886L17.0998 17.4583L17.0998 17.4583L16.5695 17.9886ZM18.1163 19.5354L17.5859 20.0658H17.5859L18.1163 19.5354ZM19.5305 16.5302L19.7514 16.3093L18.6908 15.2486L18.4698 15.4696L19.5305 16.5302ZM18.2488 16.3093L18.4698 16.5302L19.5305 15.4696L19.3095 15.2486L18.2488 16.3093ZM16.0391 18.519L17.5859 20.0658L18.6466 19.0051L17.0998 17.4583L16.0391 18.519ZM20.4144 20.0658L21.9612 18.519L20.9005 17.4583L19.3537 19.0051L20.4144 20.0658ZM20.9005 16.3093C21.2178 16.6266 21.2178 17.141 20.9005 17.4583L21.9612 18.519C22.8642 17.6159 22.8642 16.1517 21.9612 15.2486L20.9005 16.3093ZM21.9612 15.2486C21.0581 14.3455 19.5939 14.3455 18.6908 15.2486L19.7514 16.3093C20.0687 15.992 20.5832 15.992 20.9005 16.3093L21.9612 15.2486ZM17.0998 16.3093C17.4171 15.992 17.9315 15.992 18.2488 16.3093L19.3095 15.2486C18.4064 14.3455 16.9422 14.3455 16.0391 15.2486L17.0998 16.3093ZM17.5859 20.0658C18.367 20.8468 19.6333 20.8468 20.4144 20.0658L19.3537 19.0051C19.1584 19.2004 18.8419 19.2004 18.6466 19.0051L17.5859 20.0658ZM16.0391 15.2486C15.136 16.1517 15.136 17.6159 16.0391 18.519L17.0998 17.4583C16.7825 17.141 16.7825 16.6266 17.0998 16.3093L16.0391 15.2486Z" fill="#28303F"/>
</svg>
