<svg width="24" height="24" viewBox="0 0 24 24" fill="none" xmlns="http://www.w3.org/2000/svg">
<rect x="3" y="8" width="18" height="14" rx="3" stroke="#28303F" stroke-width="1.5"/>
<circle r="1" transform="matrix(1 0 0 -1 18 19)" fill="#28303F"/>
<circle r="1" transform="matrix(1 0 0 -1 6 11)" fill="#28303F"/>
<circle r="2" transform="matrix(1 0 0 -1 12 15)" stroke="#28303F" stroke-width="1.5"/>
<path d="M14.5303 3.05546C14.8232 3.34835 14.8232 3.82322 14.5303 4.11612C14.2374 4.40901 13.7626 4.40901 13.4697 4.11612L14.5303 3.05546ZM12.7071 2.29289L13.2374 1.76256L12.7071 2.29289ZM11.2929 2.29289L11.8232 2.82322V2.82322L11.2929 2.29289ZM10.5303 4.11612C10.2374 4.40901 9.76256 4.40901 9.46967 4.11612C9.17678 3.82322 9.17678 3.34835 9.46967 3.05546L10.5303 4.11612ZM12.75 5.5C12.75 5.91421 12.4142 6.25 12 6.25C11.5858 6.25 11.25 5.91421 11.25 5.5H12.75ZM11.25 2.58579C11.25 2.17157 11.5858 1.83579 12 1.83579C12.4142 1.83579 12.75 2.17157 12.75 2.58579H11.25ZM13.4697 4.11612L12.1768 2.82322L13.2374 1.76256L14.5303 3.05546L13.4697 4.11612ZM11.8232 2.82322L10.5303 4.11612L9.46967 3.05546L10.7626 1.76256L11.8232 2.82322ZM12.1768 2.82322C12.0791 2.72559 11.9209 2.72559 11.8232 2.82322L10.7626 1.76256C11.446 1.07915 12.554 1.07914 13.2374 1.76256L12.1768 2.82322ZM11.25 5.5V2.58579H12.75V5.5H11.25Z" fill="#28303F"/>
</svg>
