<svg width="24" height="24" viewBox="0 0 24 24" fill="none" xmlns="http://www.w3.org/2000/svg">
<path d="M13 20.75C13.4142 20.75 13.75 20.4142 13.75 20C13.75 19.5858 13.4142 19.25 13 19.25V20.75ZM21.25 11.5C21.25 11.9142 21.5858 12.25 22 12.25C22.4142 12.25 22.75 11.9142 22.75 11.5H21.25ZM6 4.75H18V3.25H6V4.75ZM13 19.25H6V20.75H13V19.25ZM2.75 16V8H1.25V16H2.75ZM21.25 8V11.5H22.75V8H21.25ZM6 19.25C4.20507 19.25 2.75 17.7949 2.75 16H1.25C1.25 18.6234 3.37665 20.75 6 20.75V19.25ZM18 4.75C19.7949 4.75 21.25 6.20507 21.25 8H22.75C22.75 5.37665 20.6234 3.25 18 3.25V4.75ZM6 3.25C3.37665 3.25 1.25 5.37665 1.25 8H2.75C2.75 6.20507 4.20507 4.75 6 4.75V3.25Z" fill="#28303F"/>
<circle r="1" transform="matrix(1 0 0 -1 6 8)" fill="#28303F"/>
<circle r="2" transform="matrix(1 0 0 -1 12 12)" stroke="#28303F" stroke-width="1.5"/>
<circle r="2" transform="matrix(1 0 0 -1 19 16)" stroke="#28303F" stroke-width="1.5"/>
<path d="M22.6706 19.6641C22.8561 20.0345 22.7062 20.4851 22.3359 20.6706C21.9655 20.8561 21.5149 20.7062 21.3294 20.3359L22.6706 19.6641ZM16.6706 20.3359C16.4851 20.7062 16.0345 20.8561 15.6641 20.6706C15.2938 20.4851 15.1439 20.0345 15.3294 19.6641L16.6706 20.3359ZM21.3294 20.3359C20.8335 19.3457 19.9476 18.75 19 18.75V17.25C20.6162 17.25 21.9689 18.2631 22.6706 19.6641L21.3294 20.3359ZM19 18.75C18.0524 18.75 17.1665 19.3457 16.6706 20.3359L15.3294 19.6641C16.0311 18.2631 17.3838 17.25 19 17.25V18.75Z" fill="#28303F"/>
</svg>
