<svg width="24" height="24" viewBox="0 0 24 24" fill="none" xmlns="http://www.w3.org/2000/svg">
<rect x="3" y="2" width="18" height="14" rx="3" stroke="#28303F" stroke-width="1.5"/>
<circle r="1" transform="matrix(1 0 0 -1 18 13)" fill="#28303F"/>
<circle r="1" transform="matrix(1 0 0 -1 6 5)" fill="#28303F"/>
<circle r="2" transform="matrix(1 0 0 -1 12 9)" stroke="#28303F" stroke-width="1.5"/>
<path d="M14.5303 20.9445C14.8232 20.6517 14.8232 20.1768 14.5303 19.8839C14.2374 19.591 13.7626 19.591 13.4697 19.8839L14.5303 20.9445ZM11.2929 21.7071L11.8232 21.1768V21.1768L11.2929 21.7071ZM10.5303 19.8839C10.2374 19.591 9.76256 19.591 9.46967 19.8839C9.17678 20.1768 9.17678 20.6517 9.46967 20.9445L10.5303 19.8839ZM12.75 18.5C12.75 18.0858 12.4142 17.75 12 17.75C11.5858 17.75 11.25 18.0858 11.25 18.5H12.75ZM11.25 21.4142C11.25 21.8284 11.5858 22.1642 12 22.1642C12.4142 22.1642 12.75 21.8284 12.75 21.4142H11.25ZM13.4697 19.8839L12.1768 21.1768L13.2374 22.2374L14.5303 20.9445L13.4697 19.8839ZM11.8232 21.1768L10.5303 19.8839L9.46967 20.9445L10.7626 22.2374L11.8232 21.1768ZM12.1768 21.1768C12.0791 21.2744 11.9209 21.2744 11.8232 21.1768L10.7626 22.2374C11.446 22.9209 12.554 22.9209 13.2374 22.2374L12.1768 21.1768ZM11.25 18.5V21.4142H12.75V18.5H11.25Z" fill="#28303F"/>
</svg>
