<svg width="24" height="24" viewBox="0 0 24 24" fill="none" xmlns="http://www.w3.org/2000/svg">
<path d="M13.25 12.75C13.25 13.1642 13.5858 13.5 14 13.5C14.4142 13.5 14.75 13.1642 14.75 12.75H13.25ZM10.75 16.25C10.75 15.8358 10.4142 15.5 10 15.5C9.58579 15.5 9.25 15.8358 9.25 16.25H10.75ZM14.75 12.75C14.75 11.2783 13.4216 10.25 12 10.25V11.75C12.7876 11.75 13.25 12.2887 13.25 12.75H14.75ZM12 10.25C10.5784 10.25 9.25 11.2783 9.25 12.75H10.75C10.75 12.2887 11.2124 11.75 12 11.75V10.25ZM9.25 12.75C9.25 14.2217 10.5784 15.25 12 15.25V13.75C11.2124 13.75 10.75 13.2113 10.75 12.75H9.25ZM14.75 16.25C14.75 14.7783 13.4216 13.75 12 13.75V15.25C12.7876 15.25 13.25 15.7887 13.25 16.25H14.75ZM9.25 16.25C9.25 17.7217 10.5784 18.75 12 18.75V17.25C11.2124 17.25 10.75 16.7113 10.75 16.25H9.25ZM12 18.75C13.4216 18.75 14.75 17.7217 14.75 16.25H13.25C13.25 16.7113 12.7876 17.25 12 17.25V18.75Z" fill="#28303F"/>
<path d="M12 9.5V11" stroke="#28303F" stroke-width="1.5" stroke-linecap="round" stroke-linejoin="round"/>
<path d="M12 18V19.5" stroke="#28303F" stroke-width="1.5" stroke-linecap="round" stroke-linejoin="round"/>
<path d="M5.63246 11.1026C6.44914 8.65258 8.74197 7 11.3246 7H12.6754C15.258 7 17.5509 8.65258 18.3675 11.1026L19.3675 14.1026C20.6626 17.9878 17.7708 22 13.6754 22H10.3246C6.22921 22 3.33739 17.9878 4.63246 14.1026L5.63246 11.1026Z" stroke="#28303F" stroke-width="1.5" stroke-linejoin="round"/>
<path d="M14.0859 7V7.75C14.3026 7.75 14.5088 7.65624 14.6512 7.49287L14.0859 7ZM9.91411 7L9.34879 7.49287C9.49123 7.65623 9.69737 7.75 9.91411 7.75L9.91411 7ZM11.6748 2.40914L11.9051 1.69536L11.6748 2.40914ZM12.3252 2.40914L12.0949 1.69536V1.69536L12.3252 2.40914ZM15.487 5.39296L14.9217 4.90009V4.90009L15.487 5.39296ZM13.2529 2.10985L13.0227 1.39607L13.2529 2.10985ZM8.51303 5.39296L7.94771 5.88582L8.51303 5.39296ZM10.7471 2.10985L10.5168 2.82363L10.7471 2.10985ZM14.0859 6.25L9.91411 6.25L9.91411 7.75L14.0859 7.75V6.25ZM10.4794 6.50713L9.07834 4.90009L7.94771 5.88582L9.34879 7.49287L10.4794 6.50713ZM14.9217 4.90009L13.5206 6.50713L14.6512 7.49287L16.0523 5.88582L14.9217 4.90009ZM10.5168 2.82363L11.4446 3.12292L11.9051 1.69536L10.9773 1.39607L10.5168 2.82363ZM12.5554 3.12292L13.4832 2.82363L13.0227 1.39607L12.0949 1.69536L12.5554 3.12292ZM11.4446 3.12292C11.8055 3.23936 12.1945 3.23936 12.5554 3.12292L12.0949 1.69536C12.0334 1.71521 11.9666 1.71521 11.9051 1.69536L11.4446 3.12292ZM16.0523 5.88582C17.961 3.69651 15.6993 0.532591 13.0227 1.39607L13.4832 2.82363C14.817 2.39336 15.7598 3.93875 14.9217 4.90009L16.0523 5.88582ZM9.07834 4.90009C8.24021 3.93875 9.18304 2.39336 10.5168 2.82363L10.9773 1.39607C8.30066 0.532591 6.03897 3.6965 7.94771 5.88582L9.07834 4.90009Z" fill="#28303F"/>
</svg>
