<svg width="24" height="24" viewBox="0 0 24 24" fill="none" xmlns="http://www.w3.org/2000/svg">
<rect x="2" y="4" width="20" height="16" rx="4" stroke="#28303F" stroke-width="1.5"/>
<path d="M15.4698 9.731C15.7627 10.0238 16.2376 10.0238 16.5304 9.73082C16.8233 9.43788 16.8232 8.96301 16.5302 8.67016L15.4698 9.731ZM16.5302 15.3298C16.8232 15.037 16.8233 14.5621 16.5304 14.2692C16.2376 13.9762 15.7627 13.9762 15.4698 14.269L16.5302 15.3298ZM13.0833 15.25C11.2277 15.25 9.75 13.7804 9.75 12H8.25C8.25 14.6379 10.4286 16.75 13.0833 16.75V15.25ZM9.75 12C9.75 10.2196 11.2277 8.75 13.0833 8.75V7.25C10.4286 7.25 8.25 9.36214 8.25 12H9.75ZM13.0833 8.75C14.0213 8.75 14.8652 9.12661 15.4698 9.731L16.5302 8.67016C15.6526 7.79278 14.4305 7.25 13.0833 7.25V8.75ZM15.4698 14.269C14.8652 14.8734 14.0213 15.25 13.0833 15.25V16.75C14.4305 16.75 15.6526 16.2072 16.5302 15.3298L15.4698 14.269Z" fill="#28303F"/>
<path d="M8 13.5H13" stroke="#28303F" stroke-width="1.5" stroke-linecap="round" stroke-linejoin="round"/>
<path d="M8 10.5H13" stroke="#28303F" stroke-width="1.5" stroke-linecap="round" stroke-linejoin="round"/>
</svg>
