<svg width="24" height="24" viewBox="0 0 24 24" fill="none" xmlns="http://www.w3.org/2000/svg">
<path d="M4.63232 14.1026L5.34384 14.3398L4.63232 14.1026ZM5.63233 11.1026L4.92081 10.8655L5.63233 11.1026ZM13.9999 18.75H19.9999V17.25H13.9999V18.75ZM19.9999 21.25H13.9999V22.75H19.9999V21.25ZM13.9999 21.25C13.3095 21.25 12.7499 20.6904 12.7499 20H11.2499C11.2499 21.5188 12.4811 22.75 13.9999 22.75V21.25ZM21.2499 20C21.2499 20.6904 20.6902 21.25 19.9999 21.25V22.75C21.5187 22.75 22.7499 21.5188 22.7499 20H21.2499ZM19.9999 18.75C20.6902 18.75 21.2499 19.3096 21.2499 20H22.7499C22.7499 18.4812 21.5187 17.25 19.9999 17.25V18.75ZM13.9999 17.25C12.4811 17.25 11.2499 18.4812 11.2499 20H12.7499C12.7499 19.3096 13.3095 18.75 13.9999 18.75V17.25ZM13.9999 17.25C13.3095 17.25 12.7499 16.6904 12.7499 16H11.2499C11.2499 17.5188 12.4811 18.75 13.9999 18.75V17.25ZM21.2499 16C21.2499 16.6904 20.6902 17.25 19.9999 17.25V18.75C21.5187 18.75 22.7499 17.5188 22.7499 16H21.2499ZM19.9999 14.75C20.6902 14.75 21.2499 15.3096 21.2499 16H22.7499C22.7499 14.4812 21.5187 13.25 19.9999 13.25V14.75ZM13.9999 13.25C12.4811 13.25 11.2499 14.4812 11.2499 16H12.7499C12.7499 15.3096 13.3095 14.75 13.9999 14.75V13.25ZM11.3244 7.75H12.6753V6.25H11.3244V7.75ZM13.6753 21.25H10.3244V22.75H13.6753V21.25ZM5.34384 14.3398L6.34384 11.3398L4.92081 10.8655L3.92081 13.8655L5.34384 14.3398ZM10.3244 21.25C6.741 21.25 4.21066 17.7393 5.34384 14.3398L3.92081 13.8655C2.46387 18.2363 5.71716 22.75 10.3244 22.75V21.25ZM12.6753 7.75C14.9351 7.75 16.9413 9.19601 17.6559 11.3398L19.0789 10.8655C18.1602 8.10915 15.5807 6.25 12.6753 6.25V7.75ZM11.3244 6.25C8.41902 6.25 5.83958 8.10915 4.92081 10.8655L6.34384 11.3398C7.05844 9.19601 9.06466 7.75 11.3244 7.75V6.25ZM17.6559 11.3398L18.6217 14.2372L20.0447 13.7628L19.0789 10.8655L17.6559 11.3398ZM13.9999 14.75H19.3332V13.25H13.9999V14.75ZM19.3332 14.75H19.9999V13.25H19.3332V14.75Z" fill="#28303F"/>
<path d="M14.0859 7V7.75C14.3026 7.75 14.5088 7.65624 14.6512 7.49287L14.0859 7ZM9.91411 7L9.34879 7.49287C9.49123 7.65623 9.69737 7.75 9.91411 7.75L9.91411 7ZM11.6748 2.40914L11.9051 1.69536L11.6748 2.40914ZM12.3252 2.40914L12.0949 1.69536V1.69536L12.3252 2.40914ZM15.487 5.39296L14.9217 4.90009V4.90009L15.487 5.39296ZM13.2529 2.10985L13.0227 1.39607L13.2529 2.10985ZM8.51303 5.39296L7.94771 5.88582L8.51303 5.39296ZM10.7471 2.10985L10.5168 2.82363L10.7471 2.10985ZM14.0859 6.25L9.91411 6.25L9.91411 7.75L14.0859 7.75V6.25ZM10.4794 6.50713L9.07834 4.90009L7.94771 5.88582L9.34879 7.49287L10.4794 6.50713ZM14.9217 4.90009L13.5206 6.50713L14.6512 7.49287L16.0523 5.88582L14.9217 4.90009ZM10.5168 2.82363L11.4446 3.12292L11.9051 1.69536L10.9773 1.39607L10.5168 2.82363ZM12.5554 3.12292L13.4832 2.82363L13.0227 1.39607L12.0949 1.69536L12.5554 3.12292ZM11.4446 3.12292C11.8055 3.23936 12.1945 3.23936 12.5554 3.12292L12.0949 1.69536C12.0334 1.71521 11.9666 1.71521 11.9051 1.69536L11.4446 3.12292ZM16.0523 5.88582C17.961 3.69651 15.6993 0.532591 13.0227 1.39607L13.4832 2.82363C14.817 2.39336 15.7598 3.93875 14.9217 4.90009L16.0523 5.88582ZM9.07834 4.90009C8.24021 3.93875 9.18304 2.39336 10.5168 2.82363L10.9773 1.39607C8.30066 0.532591 6.03897 3.6965 7.94771 5.88582L9.07834 4.90009Z" fill="#28303F"/>
</svg>
