<svg width="24" height="24" viewBox="0 0 24 24" fill="none" xmlns="http://www.w3.org/2000/svg">
<rect x="3" y="2" width="18" height="14" rx="3" stroke="#28303F" stroke-width="1.5"/>
<circle r="1" transform="matrix(1 0 0 -1 18 13)" fill="#28303F"/>
<circle r="1" transform="matrix(1 0 0 -1 6 5)" fill="#28303F"/>
<circle r="2" transform="matrix(1 0 0 -1 12 9)" stroke="#28303F" stroke-width="1.5"/>
<path d="M14.5303 19.5555C14.8232 19.8483 14.8232 20.3232 14.5303 20.6161C14.2374 20.909 13.7626 20.909 13.4697 20.6161L14.5303 19.5555ZM11.2929 18.7929L11.8232 19.3232V19.3232L11.2929 18.7929ZM10.5303 20.6161C10.2374 20.909 9.76256 20.909 9.46967 20.6161C9.17678 20.3232 9.17678 19.8483 9.46967 19.5555L10.5303 20.6161ZM12.75 22C12.75 22.4142 12.4142 22.75 12 22.75C11.5858 22.75 11.25 22.4142 11.25 22H12.75ZM11.25 19.0858C11.25 18.6716 11.5858 18.3358 12 18.3358C12.4142 18.3358 12.75 18.6716 12.75 19.0858H11.25ZM13.4697 20.6161L12.1768 19.3232L13.2374 18.2626L14.5303 19.5555L13.4697 20.6161ZM11.8232 19.3232L10.5303 20.6161L9.46967 19.5555L10.7626 18.2626L11.8232 19.3232ZM12.1768 19.3232C12.0791 19.2256 11.9209 19.2256 11.8232 19.3232L10.7626 18.2626C11.446 17.5791 12.554 17.5791 13.2374 18.2626L12.1768 19.3232ZM11.25 22V19.0858H12.75V22H11.25Z" fill="#28303F"/>
</svg>
