<svg width="24" height="24" viewBox="0 0 24 24" fill="none" xmlns="http://www.w3.org/2000/svg">
<path d="M16 20.75C16.4142 20.75 16.75 20.4142 16.75 20C16.75 19.5858 16.4142 19.25 16 19.25V20.75ZM21.25 11C21.25 11.4142 21.5858 11.75 22 11.75C22.4142 11.75 22.75 11.4142 22.75 11H21.25ZM6 4.75H18V3.25H6V4.75ZM16 19.25H6V20.75H16V19.25ZM2.75 16V8H1.25V16H2.75ZM21.25 8V11H22.75V8H21.25ZM6 19.25C4.20507 19.25 2.75 17.7949 2.75 16H1.25C1.25 18.6234 3.37665 20.75 6 20.75V19.25ZM18 4.75C19.7949 4.75 21.25 6.20507 21.25 8H22.75C22.75 5.37665 20.6234 3.25 18 3.25V4.75ZM6 3.25C3.37665 3.25 1.25 5.37665 1.25 8H2.75C2.75 6.20507 4.20507 4.75 6 4.75V3.25Z" fill="#28303F"/>
<circle r="1" transform="matrix(1 0 0 -1 6 8)" fill="#28303F"/>
<circle r="2" transform="matrix(1 0 0 -1 12 12)" stroke="#28303F" stroke-width="1.5"/>
<path d="M22.5303 15.0555C22.8232 15.3483 22.8232 15.8232 22.5303 16.1161C22.2374 16.409 21.7626 16.409 21.4697 16.1161L22.5303 15.0555ZM20.7071 14.2929L21.2374 13.7626L20.7071 14.2929ZM19.2929 14.2929L19.8232 14.8232V14.8232L19.2929 14.2929ZM18.5303 16.1161C18.2374 16.409 17.7626 16.409 17.4697 16.1161C17.1768 15.8232 17.1768 15.3483 17.4697 15.0555L18.5303 16.1161ZM20.75 20C20.75 20.4142 20.4142 20.75 20 20.75C19.5858 20.75 19.25 20.4142 19.25 20H20.75ZM19.25 14.5858C19.25 14.1716 19.5858 13.8358 20 13.8358C20.4142 13.8358 20.75 14.1716 20.75 14.5858H19.25ZM21.4697 16.1161L20.1768 14.8232L21.2374 13.7626L22.5303 15.0555L21.4697 16.1161ZM19.8232 14.8232L18.5303 16.1161L17.4697 15.0555L18.7626 13.7626L19.8232 14.8232ZM20.1768 14.8232C20.0791 14.7256 19.9209 14.7256 19.8232 14.8232L18.7626 13.7626C19.446 13.0791 20.554 13.0791 21.2374 13.7626L20.1768 14.8232ZM19.25 20V14.5858H20.75V20H19.25Z" fill="#28303F"/>
</svg>
