<svg width="24" height="24" viewBox="0 0 24 24" fill="none" xmlns="http://www.w3.org/2000/svg">
<path d="M13 20.75C13.4142 20.75 13.75 20.4142 13.75 20C13.75 19.5858 13.4142 19.25 13 19.25V20.75ZM21.25 14C21.25 14.4142 21.5858 14.75 22 14.75C22.4142 14.75 22.75 14.4142 22.75 14H21.25ZM6 4.75H18V3.25H6V4.75ZM13 19.25H6V20.75H13V19.25ZM2.75 16V8H1.25V16H2.75ZM21.25 8V14H22.75V8H21.25ZM6 19.25C4.20507 19.25 2.75 17.7949 2.75 16H1.25C1.25 18.6234 3.37665 20.75 6 20.75V19.25ZM18 4.75C19.7949 4.75 21.25 6.20507 21.25 8H22.75C22.75 5.37665 20.6234 3.25 18 3.25V4.75ZM6 3.25C3.37665 3.25 1.25 5.37665 1.25 8H2.75C2.75 6.20507 4.20507 4.75 6 4.75V3.25Z" fill="#28303F"/>
<circle r="1" transform="matrix(1 0 0 -1 6 8)" fill="#28303F"/>
<circle r="2" transform="matrix(1 0 0 -1 12 12)" stroke="#28303F" stroke-width="1.5"/>
<path d="M17.0555 20.5303C17.3483 20.8232 17.8232 20.8232 18.1161 20.5303C18.409 20.2374 18.409 19.7626 18.1161 19.4697L17.0555 20.5303ZM16.2929 18.7071L15.7626 19.2374L16.2929 18.7071ZM16.2929 17.2929L16.8232 17.8232H16.8232L16.2929 17.2929ZM18.1161 16.5303C18.409 16.2374 18.409 15.7626 18.1161 15.4697C17.8232 15.1768 17.3483 15.1768 17.0555 15.4697L18.1161 16.5303ZM22 18.75C22.4142 18.75 22.75 18.4142 22.75 18C22.75 17.5858 22.4142 17.25 22 17.25L22 18.75ZM16.5858 17.25C16.1716 17.25 15.8358 17.5858 15.8358 18C15.8358 18.4142 16.1716 18.75 16.5858 18.75L16.5858 17.25ZM18.1161 19.4697L16.8232 18.1768L15.7626 19.2374L17.0555 20.5303L18.1161 19.4697ZM16.8232 17.8232L18.1161 16.5303L17.0555 15.4697L15.7626 16.7626L16.8232 17.8232ZM16.8232 18.1768C16.7256 18.0791 16.7256 17.9209 16.8232 17.8232L15.7626 16.7626C15.0791 17.446 15.0791 18.554 15.7626 19.2374L16.8232 18.1768ZM22 17.25L16.5858 17.25L16.5858 18.75L22 18.75L22 17.25Z" fill="#28303F"/>
</svg>
