<svg width="24" height="24" viewBox="0 0 24 24" fill="none" xmlns="http://www.w3.org/2000/svg">
<path d="M21.8025 10.0128C21.0104 6.08419 17.9158 2.98956 13.9872 2.19745C12.9045 1.97914 12 2.89543 12 4V10C12 11.1046 12.8954 12 14 12H20C21.1046 12 22.0209 11.0955 21.8025 10.0128Z" stroke="#28303F" stroke-width="1.5" stroke-linejoin="round"/>
<path d="M9.16597 4.95455C9.56991 4.86289 9.82307 4.46112 9.73141 4.05718C9.63975 3.65323 9.23798 3.40008 8.83403 3.49174L9.16597 4.95455ZM20.5084 15.1661C20.6 14.7621 20.3469 14.3604 19.9429 14.2687C19.539 14.1771 19.1372 14.4302 19.0456 14.8342L20.5084 15.1661ZM11 21.2501C6.44365 21.2501 2.75 17.5565 2.75 13.0001H1.25C1.25 18.3849 5.61522 22.7501 11 22.7501V21.2501ZM2.75 13.0001C2.75 9.07483 5.4921 5.7882 9.16597 4.95455L8.83403 3.49174C4.49195 4.47701 1.25 8.35907 1.25 13.0001H2.75ZM19.0456 14.8342C18.2119 18.508 14.9253 21.2501 11 21.2501V22.7501C15.6411 22.7501 19.5231 19.5082 20.5084 15.1661L19.0456 14.8342Z" fill="#28303F"/>
</svg>
