<svg width="24" height="24" viewBox="0 0 24 24" fill="none" xmlns="http://www.w3.org/2000/svg">
<path d="M7 12H17" stroke="#28303F" stroke-width="1.5" stroke-linecap="round" stroke-linejoin="round"/>
<path d="M18.25 8C18.25 8.41421 18.5858 8.75 19 8.75C19.4142 8.75 19.75 8.41421 19.75 8H18.25ZM19 21.75C19.4142 21.75 19.75 21.4142 19.75 21C19.75 20.5858 19.4142 20.25 19 20.25V21.75ZM9.89352 14.7083L9.30151 14.2479L9.89352 14.7083ZM19.75 8V6.5H18.25V8H19.75ZM11.25 6.5V8.56892H12.75V6.5H11.25ZM9.30151 14.2479L6.91856 17.3117L8.10259 18.2326L10.4855 15.1688L9.30151 14.2479ZM9.08928 21.75H19V20.25H9.08928V21.75ZM6.91856 17.3117C5.51361 19.118 6.80087 21.75 9.08928 21.75V20.25C8.04909 20.25 7.46398 19.0536 8.10259 18.2326L6.91856 17.3117ZM11.25 8.56892C11.25 10.6259 10.5644 12.6242 9.30151 14.2479L10.4855 15.1688C11.9532 13.2818 12.75 10.9595 12.75 8.56892H11.25ZM15.5 2.25C13.1528 2.25 11.25 4.15279 11.25 6.5H12.75C12.75 4.98122 13.9812 3.75 15.5 3.75V2.25ZM19.75 6.5C19.75 4.15279 17.8472 2.25 15.5 2.25V3.75C17.0188 3.75 18.25 4.98122 18.25 6.5H19.75Z" fill="#28303F"/>
</svg>
