<svg width="24" height="24" viewBox="0 0 24 24" fill="none" xmlns="http://www.w3.org/2000/svg">
<path d="M20.1137 15.2814C20.2691 14.8975 20.0838 14.4602 19.6999 14.3048C19.3159 14.1494 18.8787 14.3346 18.7233 14.7186L20.1137 15.2814ZM3.88631 8.71859C3.73089 9.10254 3.91616 9.53978 4.30011 9.6952C4.68406 9.85062 5.1213 9.66536 5.27672 9.28141L3.88631 8.71859ZM20.75 12C20.75 7.16751 16.8325 3.25 12 3.25V4.75C16.0041 4.75 19.25 7.99594 19.25 12H20.75ZM3.25 12C3.25 16.8325 7.16751 20.75 12 20.75V19.25C7.99594 19.25 4.75 16.0041 4.75 12H3.25ZM12 20.75C15.6733 20.75 18.8162 18.4867 20.1137 15.2814L18.7233 14.7186C17.6472 17.3769 15.0414 19.25 12 19.25V20.75ZM12 3.25C8.32669 3.25 5.18379 5.51328 3.88631 8.71859L5.27672 9.28141C6.35279 6.62306 8.95856 4.75 12 4.75V3.25Z" fill="#28303F"/>
<path d="M14.75 10C14.75 10.4142 14.4142 10.75 14 10.75C13.5858 10.75 13.25 10.4142 13.25 10H14.75ZM12 11.25C12.4142 11.25 12.75 11.5858 12.75 12C12.75 12.4142 12.4142 12.75 12 12.75V11.25ZM13.25 10C13.25 9.30964 12.6904 8.75 12 8.75V7.25C13.5188 7.25 14.75 8.48122 14.75 10H13.25ZM12 8.75C11.3096 8.75 10.75 9.30964 10.75 10H9.25C9.25 8.48122 10.4812 7.25 12 7.25V8.75ZM10.75 10C10.75 10.6904 11.3096 11.25 12 11.25V12.75C10.4812 12.75 9.25 11.5188 9.25 10H10.75Z" fill="#28303F"/>
<path d="M12 12.75C11.5858 12.75 11.25 12.4142 11.25 12C11.25 11.5858 11.5858 11.25 12 11.25V12.75ZM9.25 14C9.25 13.5858 9.58579 13.25 10 13.25C10.4142 13.25 10.75 13.5858 10.75 14H9.25ZM13.25 14C13.25 13.3096 12.6904 12.75 12 12.75V11.25C13.5188 11.25 14.75 12.4812 14.75 14H13.25ZM10.75 14C10.75 14.6904 11.3096 15.25 12 15.25V16.75C10.4812 16.75 9.25 15.5188 9.25 14H10.75ZM12 15.25C12.6904 15.25 13.25 14.6904 13.25 14H14.75C14.75 15.5188 13.5188 16.75 12 16.75V15.25Z" fill="#28303F"/>
<path d="M12 6.5V8" stroke="#28303F" stroke-width="1.5" stroke-linecap="round" stroke-linejoin="round"/>
<path d="M12 16V17.5" stroke="#28303F" stroke-width="1.5" stroke-linecap="round" stroke-linejoin="round"/>
<path d="M18 11L18.8944 11.4472C19.572 11.786 20.3828 11.7129 20.9889 11.2584L22 10.5" stroke="#28303F" stroke-width="1.5" stroke-linecap="round" stroke-linejoin="round"/>
<path d="M2 13L2.89443 12.5528C3.572 12.214 4.38282 12.2871 4.98885 12.7416L6 13.5" stroke="#28303F" stroke-width="1.5" stroke-linecap="round" stroke-linejoin="round"/>
</svg>
