<svg width="24" height="24" viewBox="0 0 24 24" fill="none" xmlns="http://www.w3.org/2000/svg">
<path d="M4 12C4 10.8954 4.89543 10 6 10H15C16.1046 10 17 10.8954 17 12V12C17 13.1046 16.1046 14 15 14H6C4.89543 14 4 13.1046 4 12V12Z" stroke="#28303F" stroke-width="1.5"/>
<path d="M12 18C12 20.2091 13.7909 22 16 22C18.2091 22 20 20.2091 20 18C20 15.7909 18.2091 14 16 14C15.8007 14 15.6047 14.0146 15.4132 14.0427M12 18C12 15.9902 13.4823 14.3266 15.4132 14.0427M12 18H6C4.89543 18 4 17.1046 4 16C4 14.8954 4.89543 14 6 14H15C15.1417 14 15.2799 14.0147 15.4132 14.0427" stroke="#28303F" stroke-width="1.5"/>
<path d="M14.5303 3.05546C14.8232 3.34835 14.8232 3.82322 14.5303 4.11612C14.2374 4.40901 13.7626 4.40901 13.4697 4.11612L14.5303 3.05546ZM12.7071 2.29289L13.2374 1.76256L12.7071 2.29289ZM11.2929 2.29289L11.8232 2.82322L11.8232 2.82322L11.2929 2.29289ZM10.5303 4.11612C10.2374 4.40901 9.76256 4.40901 9.46967 4.11612C9.17678 3.82322 9.17678 3.34835 9.46967 3.05546L10.5303 4.11612ZM12.75 7C12.75 7.41421 12.4142 7.75 12 7.75C11.5858 7.75 11.25 7.41421 11.25 7L12.75 7ZM11.25 2.58579C11.25 2.17157 11.5858 1.83579 12 1.83579C12.4142 1.83579 12.75 2.17157 12.75 2.58579L11.25 2.58579ZM13.4697 4.11612L12.1768 2.82322L13.2374 1.76256L14.5303 3.05546L13.4697 4.11612ZM11.8232 2.82322L10.5303 4.11612L9.46967 3.05546L10.7626 1.76256L11.8232 2.82322ZM12.1768 2.82322C12.0791 2.72559 11.9209 2.72559 11.8232 2.82322L10.7626 1.76256C11.446 1.07915 12.554 1.07914 13.2374 1.76256L12.1768 2.82322ZM11.25 7L11.25 2.58579L12.75 2.58579L12.75 7L11.25 7Z" fill="#28303F"/>
</svg>
