<svg width="24" height="24" viewBox="0 0 24 24" fill="none" xmlns="http://www.w3.org/2000/svg">
<path d="M14.6485 4.51551L15.2974 4.13946V4.13946L14.6485 4.51551ZM21.5936 16.4999L20.9447 16.876L21.5936 16.4999ZM18.9451 21V20.25V21ZM5.05487 21L5.05487 21.75H5.05487V21ZM2.40641 16.4999L3.05532 16.876L3.05532 16.876L2.40641 16.4999ZM9.35154 4.51551L8.70263 4.13946L8.70263 4.13946L9.35154 4.51551ZM13.9995 4.89157L20.9447 16.876L22.2425 16.1239L15.2974 4.13946L13.9995 4.89157ZM18.9451 20.25H5.05487V21.75H18.9451V20.25ZM3.05532 16.876L10.0005 4.89157L8.70263 4.13946L1.7575 16.1239L3.05532 16.876ZM5.05487 20.25C3.27223 20.25 2.19223 18.3653 3.05532 16.876L1.7575 16.1239C0.296548 18.6449 2.15323 21.75 5.05487 21.75L5.05487 20.25ZM20.9447 16.876C21.8078 18.3653 20.7278 20.25 18.9451 20.25V21.75C21.8468 21.75 23.7035 18.6449 22.2425 16.1239L20.9447 16.876ZM15.2974 4.13946C13.8374 1.62018 10.1626 1.62018 8.70263 4.13946L10.0005 4.89157C10.8825 3.36948 13.1175 3.36948 13.9995 4.89157L15.2974 4.13946Z" fill="#28303F"/>
<path d="M7.5 8.25H6.75V9.75H7.5V8.25ZM16.5 9.75H17.25V8.25H16.5V9.75ZM7.5 9.75H16.5V8.25H7.5V9.75Z" fill="#28303F"/>
<path d="M4 14.25H3.25V15.75H4V14.25ZM20 15.75H20.75V14.25H20V15.75ZM4 15.75H20V14.25H4V15.75Z" fill="#28303F"/>
</svg>
