<svg width="24" height="24" viewBox="0 0 24 24" fill="none" xmlns="http://www.w3.org/2000/svg">
<rect x="2" y="2" width="20" height="20" rx="4" stroke="#28303F" stroke-width="1.5"/>
<path d="M17.25 9C17.25 9.41421 17.5858 9.75 18 9.75C18.4142 9.75 18.75 9.41421 18.75 9H17.25ZM18.75 15C18.75 14.5858 18.4142 14.25 18 14.25C17.5858 14.25 17.25 14.5858 17.25 15H18.75ZM8 6.75H16V5.25H8V6.75ZM16 17.25H8V18.75H16V17.25ZM6.75 16V8H5.25V16H6.75ZM17.25 8V9H18.75V8H17.25ZM18.75 16V15H17.25V16H18.75ZM8 17.25C7.30964 17.25 6.75 16.6904 6.75 16H5.25C5.25 17.5188 6.48122 18.75 8 18.75V17.25ZM16 18.75C17.5188 18.75 18.75 17.5188 18.75 16H17.25C17.25 16.6904 16.6904 17.25 16 17.25V18.75ZM16 6.75C16.6904 6.75 17.25 7.30964 17.25 8H18.75C18.75 6.48122 17.5188 5.25 16 5.25V6.75ZM8 5.25C6.48122 5.25 5.25 6.48122 5.25 8H6.75C6.75 7.30964 7.30964 6.75 8 6.75V5.25Z" fill="#28303F"/>
<path d="M13.5 12C13.5 11.1716 12.8284 10.5 12 10.5C11.1716 10.5 10.5 11.1716 10.5 12C10.5 12.8284 11.1716 13.5 12 13.5C12.8284 13.5 13.5 12.8284 13.5 12Z" stroke="#28303F" stroke-width="1.5"/>
<path d="M13.5 12H18" stroke="#28303F" stroke-width="1.5" stroke-linecap="round" stroke-linejoin="round"/>
</svg>
