<svg width="24" height="24" viewBox="0 0 24 24" fill="none" xmlns="http://www.w3.org/2000/svg">
<path d="M8.75 20C8.75 19.5858 8.41421 19.25 8 19.25C7.58579 19.25 7.25 19.5858 7.25 20H8.75ZM12.75 12C12.75 11.5858 12.4142 11.25 12 11.25C11.5858 11.25 11.25 11.5858 11.25 12H12.75ZM11.25 20C11.25 20.6904 10.6904 21.25 10 21.25V22.75C11.5188 22.75 12.75 21.5188 12.75 20H11.25ZM10 21.25C9.30964 21.25 8.75 20.6904 8.75 20H7.25C7.25 21.5188 8.48122 22.75 10 22.75V21.25ZM12.75 20V12H11.25V20H12.75Z" fill="#28303F"/>
<path d="M21.0174 10.2072C20.5199 8.25905 19.2593 6.38372 17.5999 4.99466C15.9394 3.6047 13.9389 2.75 12 2.75V1.25C14.3692 1.25 16.699 2.28443 18.5627 3.84445C20.4274 5.40537 21.8847 7.54088 22.4708 9.83613L21.0174 10.2072ZM12 2.75C10.0611 2.75 8.06062 3.6047 6.40014 4.99466C4.74074 6.38372 3.48007 8.25905 2.98261 10.2072L1.52924 9.83613C2.11532 7.54088 3.57261 5.40537 5.43732 3.84445C7.30096 2.28443 9.63077 1.25 12 1.25V2.75ZM20 12.75H4V11.25H20V12.75ZM2.98261 10.2072C2.86302 10.6756 3.24434 11.25 4 11.25V12.75C2.54652 12.75 1.10227 11.5083 1.52924 9.83613L2.98261 10.2072ZM22.4708 9.83613C22.8977 11.5083 21.4535 12.75 20 12.75V11.25C20.7557 11.25 21.137 10.6756 21.0174 10.2072L22.4708 9.83613Z" fill="#28303F"/>
<path d="M16 12H16.75V12.75H16V12ZM8 12V12.75H7.25V12H8ZM15.25 12C15.25 9.30956 14.8124 6.90837 14.1321 5.20747C13.7911 4.35495 13.4038 3.71536 13.0121 3.30118C12.6219 2.88858 12.2796 2.75 12 2.75V1.25C12.825 1.25 13.535 1.67106 14.1019 2.27052C14.6673 2.86839 15.1419 3.69327 15.5248 4.65039C16.2921 6.56878 16.75 9.16759 16.75 12H15.25ZM12 2.75C11.7204 2.75 11.3781 2.88858 10.9879 3.30118C10.5962 3.71536 10.2089 4.35495 9.86793 5.20747C9.18757 6.90837 8.75 9.30956 8.75 12H7.25C7.25 9.16759 7.70786 6.56878 8.47522 4.65039C8.85806 3.69327 9.33269 2.86839 9.8981 2.27052C10.465 1.67106 11.175 1.25 12 1.25V2.75ZM16 12.75H8V11.25H16V12.75Z" fill="#28303F"/>
</svg>
