<svg width="24" height="24" viewBox="0 0 24 24" fill="none" xmlns="http://www.w3.org/2000/svg">
<path d="M20.9445 21.5303C20.6517 21.8232 20.1768 21.8232 19.8839 21.5303C19.591 21.2374 19.591 20.7626 19.8839 20.4697L20.9445 21.5303ZM21.7071 19.7071L22.2374 20.2374L21.7071 19.7071ZM21.7071 18.2929L21.1768 18.8232H21.1768L21.7071 18.2929ZM19.8839 17.5303C19.591 17.2374 19.591 16.7626 19.8839 16.4697C20.1768 16.1768 20.6517 16.1768 20.9445 16.4697L19.8839 17.5303ZM16 19.75C15.5858 19.75 15.25 19.4142 15.25 19C15.25 18.5858 15.5858 18.25 16 18.25L16 19.75ZM21.4142 18.25C21.8284 18.25 22.1642 18.5858 22.1642 19C22.1642 19.4142 21.8284 19.75 21.4142 19.75L21.4142 18.25ZM19.8839 20.4697L21.1768 19.1768L22.2374 20.2374L20.9445 21.5303L19.8839 20.4697ZM21.1768 18.8232L19.8839 17.5303L20.9445 16.4697L22.2374 17.7626L21.1768 18.8232ZM21.1768 19.1768C21.2744 19.0791 21.2744 18.9209 21.1768 18.8232L22.2374 17.7626C22.9209 18.446 22.9209 19.554 22.2374 20.2374L21.1768 19.1768ZM16 18.25L21.4142 18.25L21.4142 19.75L16 19.75L16 18.25Z" fill="#28303F"/>
<path d="M2 9H1.25C1.25 8.58579 1.58579 8.25 2 8.25V9ZM2 15V15.75C1.58579 15.75 1.25 15.4142 1.25 15H2ZM5 9.75H2V8.25H5V9.75ZM2.75 9V15H1.25V9H2.75ZM2 14.25H5V15.75H2V14.25ZM5 14.25C6.24264 14.25 7.25 13.2426 7.25 12H8.75C8.75 14.0711 7.07107 15.75 5 15.75V14.25ZM5 8.25C7.07107 8.25 8.75 9.92893 8.75 12H7.25C7.25 10.7574 6.24264 9.75 5 9.75V8.25Z" fill="#28303F"/>
<path d="M13 20.25C13.4142 20.25 13.75 20.5858 13.75 21C13.75 21.4142 13.4142 21.75 13 21.75V20.25ZM22.75 14C22.75 14.4142 22.4142 14.75 22 14.75C21.5858 14.75 21.25 14.4142 21.25 14H22.75ZM18 3.75H6V2.25H18V3.75ZM2.75 7V17H1.25V7H2.75ZM6 20.25H13V21.75H6V20.25ZM22.75 7V14H21.25V7H22.75ZM2.75 17C2.75 18.7949 4.20507 20.25 6 20.25V21.75C3.37665 21.75 1.25 19.6234 1.25 17H2.75ZM6 3.75C4.20507 3.75 2.75 5.20507 2.75 7H1.25C1.25 4.37665 3.37665 2.25 6 2.25V3.75ZM18 2.25C20.6234 2.25 22.75 4.37665 22.75 7H21.25C21.25 5.20507 19.7949 3.75 18 3.75V2.25Z" fill="#28303F"/>
</svg>
