<svg width="24" height="24" viewBox="0 0 24 24" fill="none" xmlns="http://www.w3.org/2000/svg">
<path d="M17.0555 22.5303C17.3483 22.8232 17.8232 22.8232 18.1161 22.5303C18.409 22.2374 18.409 21.7626 18.1161 21.4697L17.0555 22.5303ZM16.2929 20.7071L15.7626 21.2374L16.2929 20.7071ZM16.2929 19.2929L16.8232 19.8232H16.8232L16.2929 19.2929ZM18.1161 18.5303C18.409 18.2374 18.409 17.7626 18.1161 17.4697C17.8232 17.1768 17.3483 17.1768 17.0555 17.4697L18.1161 18.5303ZM22 20.75C22.4142 20.75 22.75 20.4142 22.75 20C22.75 19.5858 22.4142 19.25 22 19.25L22 20.75ZM16.5858 19.25C16.1716 19.25 15.8358 19.5858 15.8358 20C15.8358 20.4142 16.1716 20.75 16.5858 20.75L16.5858 19.25ZM18.1161 21.4697L16.8232 20.1768L15.7626 21.2374L17.0555 22.5303L18.1161 21.4697ZM16.8232 19.8232L18.1161 18.5303L17.0555 17.4697L15.7626 18.7626L16.8232 19.8232ZM16.8232 20.1768C16.7256 20.0791 16.7256 19.9209 16.8232 19.8232L15.7626 18.7626C15.0791 19.446 15.0791 20.554 15.7626 21.2374L16.8232 20.1768ZM22 19.25L16.5858 19.25L16.5858 20.75L22 20.75L22 19.25Z" fill="#28303F"/>
<path d="M22 6V5.25C22.4142 5.25 22.75 5.58579 22.75 6H22ZM22.75 15C22.75 15.4142 22.4142 15.75 22 15.75C21.5858 15.75 21.25 15.4142 21.25 15H22.75ZM13 21.25C13.4142 21.25 13.75 21.5858 13.75 22C13.75 22.4142 13.4142 22.75 13 22.75V21.25ZM22 6.75H6V5.25H22V6.75ZM2.75 10V18H1.25V10H2.75ZM21.25 15V6H22.75V15H21.25ZM6 21.25H13V22.75H6V21.25ZM2.75 18C2.75 19.7949 4.20507 21.25 6 21.25V22.75C3.37665 22.75 1.25 20.6234 1.25 18H2.75ZM6 6.75C4.20507 6.75 2.75 8.20507 2.75 10H1.25C1.25 7.37665 3.37665 5.25 6 5.25V6.75Z" fill="#28303F"/>
<path d="M22 5.25C22.4142 5.25 22.75 5.58579 22.75 6C22.75 6.41421 22.4142 6.75 22 6.75V5.25ZM18 2.75H12V1.25H18V2.75ZM8 5.25H22V6.75H8V5.25ZM12 2.75C10.2051 2.75 8.75 4.20507 8.75 6H7.25C7.25 3.37665 9.37665 1.25 12 1.25V2.75ZM18 1.25C20.6234 1.25 22.75 3.37665 22.75 6H21.25C21.25 4.20507 19.7949 2.75 18 2.75V1.25Z" fill="#28303F"/>
<path d="M2 12L1.25 12C1.25 11.5858 1.58579 11.25 2 11.25L2 12ZM2 16L2 16.75C1.58579 16.75 1.25 16.4142 1.25 16L2 16ZM2.75 12L2.75 16L1.25 16L1.25 12L2.75 12ZM2 15.25L6 15.25L6 16.75L2 16.75L2 15.25ZM6 12.75L2 12.75L2 11.25L6 11.25L6 12.75ZM7.25 14C7.25 13.3096 6.69036 12.75 6 12.75L6 11.25C7.51878 11.25 8.75 12.4812 8.75 14L7.25 14ZM6 15.25C6.69036 15.25 7.25 14.6904 7.25 14L8.75 14C8.75 15.5188 7.51878 16.75 6 16.75L6 15.25Z" fill="#28303F"/>
</svg>
