<svg width="24" height="24" viewBox="0 0 24 24" fill="none" xmlns="http://www.w3.org/2000/svg">
<path d="M22.5303 19.9445C22.8232 19.6517 22.8232 19.1768 22.5303 18.8839C22.2374 18.591 21.7626 18.591 21.4697 18.8839L22.5303 19.9445ZM20.7071 20.7071L21.2374 21.2374L20.7071 20.7071ZM19.2929 20.7071L19.8232 20.1768V20.1768L19.2929 20.7071ZM18.5303 18.8839C18.2374 18.591 17.7626 18.591 17.4697 18.8839C17.1768 19.1768 17.1768 19.6517 17.4697 19.9445L18.5303 18.8839ZM20.75 15C20.75 14.5858 20.4142 14.25 20 14.25C19.5858 14.25 19.25 14.5858 19.25 15H20.75ZM19.25 20.4142C19.25 20.8284 19.5858 21.1642 20 21.1642C20.4142 21.1642 20.75 20.8284 20.75 20.4142H19.25ZM21.4697 18.8839L20.1768 20.1768L21.2374 21.2374L22.5303 19.9445L21.4697 18.8839ZM19.8232 20.1768L18.5303 18.8839L17.4697 19.9445L18.7626 21.2374L19.8232 20.1768ZM20.1768 20.1768C20.0791 20.2744 19.9209 20.2744 19.8232 20.1768L18.7626 21.2374C19.446 21.9209 20.554 21.9209 21.2374 21.2374L20.1768 20.1768ZM19.25 15V20.4142H20.75V15H19.25Z" fill="#28303F"/>
<path d="M2 9H1.25C1.25 8.58579 1.58579 8.25 2 8.25V9ZM2 15V15.75C1.58579 15.75 1.25 15.4142 1.25 15H2ZM5 9.75H2V8.25H5V9.75ZM2.75 9V15H1.25V9H2.75ZM2 14.25H5V15.75H2V14.25ZM5 14.25C6.24264 14.25 7.25 13.2426 7.25 12H8.75C8.75 14.0711 7.07107 15.75 5 15.75V14.25ZM5 8.25C7.07107 8.25 8.75 9.92893 8.75 12H7.25C7.25 10.7574 6.24264 9.75 5 9.75V8.25Z" fill="#28303F"/>
<path d="M15 20.25C15.4142 20.25 15.75 20.5858 15.75 21C15.75 21.4142 15.4142 21.75 15 21.75V20.25ZM22.75 12C22.75 12.4142 22.4142 12.75 22 12.75C21.5858 12.75 21.25 12.4142 21.25 12H22.75ZM18 3.75H6V2.25H18V3.75ZM2.75 7V17H1.25V7H2.75ZM6 20.25H15V21.75H6V20.25ZM22.75 7V12H21.25V7H22.75ZM2.75 17C2.75 18.7949 4.20507 20.25 6 20.25V21.75C3.37665 21.75 1.25 19.6234 1.25 17H2.75ZM6 3.75C4.20507 3.75 2.75 5.20507 2.75 7H1.25C1.25 4.37665 3.37665 2.25 6 2.25V3.75ZM18 2.25C20.6234 2.25 22.75 4.37665 22.75 7H21.25C21.25 5.20507 19.7949 3.75 18 3.75V2.25Z" fill="#28303F"/>
</svg>
