<svg width="24" height="24" viewBox="0 0 24 24" fill="none" xmlns="http://www.w3.org/2000/svg">
<path d="M21 18L15 18" stroke="#28303F" stroke-width="1.5" stroke-linecap="round" stroke-linejoin="round"/>
<path d="M2 9H1.25C1.25 8.58579 1.58579 8.25 2 8.25V9ZM2 15V15.75C1.58579 15.75 1.25 15.4142 1.25 15H2ZM5 9.75H2V8.25H5V9.75ZM2.75 9V15H1.25V9H2.75ZM2 14.25H5V15.75H2V14.25ZM5 14.25C6.24264 14.25 7.25 13.2426 7.25 12H8.75C8.75 14.0711 7.07107 15.75 5 15.75V14.25ZM5 8.25C7.07107 8.25 8.75 9.92893 8.75 12H7.25C7.25 10.7574 6.24264 9.75 5 9.75V8.25Z" fill="#28303F"/>
<path d="M13 20.25C13.4142 20.25 13.75 20.5858 13.75 21C13.75 21.4142 13.4142 21.75 13 21.75V20.25ZM22.75 14C22.75 14.4142 22.4142 14.75 22 14.75C21.5858 14.75 21.25 14.4142 21.25 14H22.75ZM18 3.75H6V2.25H18V3.75ZM2.75 7V17H1.25V7H2.75ZM6 20.25H13V21.75H6V20.25ZM22.75 7V14H21.25V7H22.75ZM2.75 17C2.75 18.7949 4.20507 20.25 6 20.25V21.75C3.37665 21.75 1.25 19.6234 1.25 17H2.75ZM6 3.75C4.20507 3.75 2.75 5.20507 2.75 7H1.25C1.25 4.37665 3.37665 2.25 6 2.25V3.75ZM18 2.25C20.6234 2.25 22.75 4.37665 22.75 7H21.25C21.25 5.20507 19.7949 3.75 18 3.75V2.25Z" fill="#28303F"/>
</svg>
