<svg width="24" height="24" viewBox="0 0 24 24" fill="none" xmlns="http://www.w3.org/2000/svg">
<path d="M22.0303 17.2877C22.3232 16.9948 22.3232 16.5199 22.0303 16.227C21.7374 15.9341 21.2626 15.9341 20.9697 16.227L22.0303 17.2877ZM16.727 20.4696C16.4341 20.7625 16.4341 21.2374 16.727 21.5303C17.0199 21.8232 17.4948 21.8232 17.7877 21.5303L16.727 20.4696ZM20.9697 21.5303C21.2626 21.8232 21.7374 21.8232 22.0303 21.5303C22.3232 21.2374 22.3232 20.7626 22.0303 20.4697L20.9697 21.5303ZM17.7877 16.227C17.4948 15.9341 17.0199 15.9341 16.727 16.227C16.4341 16.5199 16.4341 16.9948 16.727 17.2877L17.7877 16.227ZM20.9697 16.227L16.727 20.4696L17.7877 21.5303L22.0303 17.2877L20.9697 16.227ZM22.0303 20.4697L17.7877 16.227L16.727 17.2877L20.9697 21.5303L22.0303 20.4697Z" fill="#28303F"/>
<path d="M2 9H1.25C1.25 8.58579 1.58579 8.25 2 8.25V9ZM2 15V15.75C1.58579 15.75 1.25 15.4142 1.25 15H2ZM5 9.75H2V8.25H5V9.75ZM2.75 9V15H1.25V9H2.75ZM2 14.25H5V15.75H2V14.25ZM5 14.25C6.24264 14.25 7.25 13.2426 7.25 12H8.75C8.75 14.0711 7.07107 15.75 5 15.75V14.25ZM5 8.25C7.07107 8.25 8.75 9.92893 8.75 12H7.25C7.25 10.7574 6.24264 9.75 5 9.75V8.25Z" fill="#28303F"/>
<path d="M13 20.25C13.4142 20.25 13.75 20.5858 13.75 21C13.75 21.4142 13.4142 21.75 13 21.75V20.25ZM22.75 13.5C22.75 13.9142 22.4142 14.25 22 14.25C21.5858 14.25 21.25 13.9142 21.25 13.5H22.75ZM18 3.75H6V2.25H18V3.75ZM2.75 7V17H1.25V7H2.75ZM6 20.25H13V21.75H6V20.25ZM22.75 7V13.5H21.25V7H22.75ZM2.75 17C2.75 18.7949 4.20507 20.25 6 20.25V21.75C3.37665 21.75 1.25 19.6234 1.25 17H2.75ZM6 3.75C4.20507 3.75 2.75 5.20507 2.75 7H1.25C1.25 4.37665 3.37665 2.25 6 2.25V3.75ZM18 2.25C20.6234 2.25 22.75 4.37665 22.75 7H21.25C21.25 5.20507 19.7949 3.75 18 3.75V2.25Z" fill="#28303F"/>
</svg>
