<svg width="24" height="24" viewBox="0 0 24 24" fill="none" xmlns="http://www.w3.org/2000/svg">
<path d="M22 7C22 4.79086 20.2091 3 18 3H6C3.79086 3 2 4.79086 2 7V17C2 19.2091 3.79086 21 6 21H18C20.2091 21 22 19.2091 22 17V7Z" stroke="#28303F" stroke-width="1.5" stroke-linejoin="round"/>
<path d="M2 9H1.25C1.25 8.58579 1.58579 8.25 2 8.25V9ZM2 15V15.75C1.58579 15.75 1.25 15.4142 1.25 15H2ZM5 9.75H2V8.25H5V9.75ZM2.75 9V15H1.25V9H2.75ZM2 14.25H5V15.75H2V14.25ZM5 14.25C6.24264 14.25 7.25 13.2426 7.25 12H8.75C8.75 14.0711 7.07107 15.75 5 15.75V14.25ZM5 8.25C7.07107 8.25 8.75 9.92893 8.75 12H7.25C7.25 10.7574 6.24264 9.75 5 9.75V8.25Z" fill="#28303F"/>
</svg>
