<svg width="24" height="24" viewBox="0 0 24 24" fill="none" xmlns="http://www.w3.org/2000/svg">
<path d="M22 18L16 18" stroke="#28303F" stroke-width="1.5" stroke-linecap="round" stroke-linejoin="round"/>
<path d="M22 6V5.25C22.4142 5.25 22.75 5.58579 22.75 6H22ZM22.75 14C22.75 14.4142 22.4142 14.75 22 14.75C21.5858 14.75 21.25 14.4142 21.25 14H22.75ZM14 21.25C14.4142 21.25 14.75 21.5858 14.75 22C14.75 22.4142 14.4142 22.75 14 22.75V21.25ZM22 6.75H6V5.25H22V6.75ZM2.75 10V18H1.25V10H2.75ZM21.25 14V6H22.75V14H21.25ZM6 21.25H14V22.75H6V21.25ZM2.75 18C2.75 19.7949 4.20507 21.25 6 21.25V22.75C3.37665 22.75 1.25 20.6234 1.25 18H2.75ZM6 6.75C4.20507 6.75 2.75 8.20507 2.75 10H1.25C1.25 7.37665 3.37665 5.25 6 5.25V6.75Z" fill="#28303F"/>
<path d="M22 5.25C22.4142 5.25 22.75 5.58579 22.75 6C22.75 6.41421 22.4142 6.75 22 6.75V5.25ZM18 2.75H12V1.25H18V2.75ZM8 5.25H22V6.75H8V5.25ZM12 2.75C10.2051 2.75 8.75 4.20507 8.75 6H7.25C7.25 3.37665 9.37665 1.25 12 1.25V2.75ZM18 1.25C20.6234 1.25 22.75 3.37665 22.75 6H21.25C21.25 4.20507 19.7949 2.75 18 2.75V1.25Z" fill="#28303F"/>
<path d="M2 12L1.25 12C1.25 11.5858 1.58579 11.25 2 11.25L2 12ZM2 16L2 16.75C1.58579 16.75 1.25 16.4142 1.25 16L2 16ZM2.75 12L2.75 16L1.25 16L1.25 12L2.75 12ZM2 15.25L6 15.25L6 16.75L2 16.75L2 15.25ZM6 12.75L2 12.75L2 11.25L6 11.25L6 12.75ZM7.25 14C7.25 13.3096 6.69036 12.75 6 12.75L6 11.25C7.51878 11.25 8.75 12.4812 8.75 14L7.25 14ZM6 15.25C6.69036 15.25 7.25 14.6904 7.25 14L8.75 14C8.75 15.5188 7.51878 16.75 6 16.75L6 15.25Z" fill="#28303F"/>
</svg>
