<svg width="24" height="24" viewBox="0 0 24 24" fill="none" xmlns="http://www.w3.org/2000/svg">
<path d="M22.5303 20.9445C22.8232 20.6517 22.8232 20.1768 22.5303 19.8839C22.2374 19.591 21.7626 19.591 21.4697 19.8839L22.5303 20.9445ZM20.7071 21.7071L21.2374 22.2374L20.7071 21.7071ZM19.2929 21.7071L19.8232 21.1768V21.1768L19.2929 21.7071ZM18.5303 19.8839C18.2374 19.591 17.7626 19.591 17.4697 19.8839C17.1768 20.1768 17.1768 20.6517 17.4697 20.9445L18.5303 19.8839ZM20.75 16C20.75 15.5858 20.4142 15.25 20 15.25C19.5858 15.25 19.25 15.5858 19.25 16H20.75ZM19.25 21.4142C19.25 21.8284 19.5858 22.1642 20 22.1642C20.4142 22.1642 20.75 21.8284 20.75 21.4142H19.25ZM21.4697 19.8839L20.1768 21.1768L21.2374 22.2374L22.5303 20.9445L21.4697 19.8839ZM19.8232 21.1768L18.5303 19.8839L17.4697 20.9445L18.7626 22.2374L19.8232 21.1768ZM20.1768 21.1768C20.0791 21.2744 19.9209 21.2744 19.8232 21.1768L18.7626 22.2374C19.446 22.9209 20.554 22.9209 21.2374 22.2374L20.1768 21.1768ZM19.25 16V21.4142H20.75V16H19.25Z" fill="#28303F"/>
<path d="M22 6V5.25C22.4142 5.25 22.75 5.58579 22.75 6H22ZM22.75 13C22.75 13.4142 22.4142 13.75 22 13.75C21.5858 13.75 21.25 13.4142 21.25 13H22.75ZM15 21.25C15.4142 21.25 15.75 21.5858 15.75 22C15.75 22.4142 15.4142 22.75 15 22.75V21.25ZM22 6.75H6V5.25H22V6.75ZM2.75 10V18H1.25V10H2.75ZM21.25 13V6H22.75V13H21.25ZM6 21.25H15V22.75H6V21.25ZM2.75 18C2.75 19.7949 4.20507 21.25 6 21.25V22.75C3.37665 22.75 1.25 20.6234 1.25 18H2.75ZM6 6.75C4.20507 6.75 2.75 8.20507 2.75 10H1.25C1.25 7.37665 3.37665 5.25 6 5.25V6.75Z" fill="#28303F"/>
<path d="M22 5.25C22.4142 5.25 22.75 5.58579 22.75 6C22.75 6.41421 22.4142 6.75 22 6.75V5.25ZM18 2.75H12V1.25H18V2.75ZM8 5.25H22V6.75H8V5.25ZM12 2.75C10.2051 2.75 8.75 4.20507 8.75 6H7.25C7.25 3.37665 9.37665 1.25 12 1.25V2.75ZM18 1.25C20.6234 1.25 22.75 3.37665 22.75 6H21.25C21.25 4.20507 19.7949 2.75 18 2.75V1.25Z" fill="#28303F"/>
<path d="M2 12L1.25 12C1.25 11.5858 1.58579 11.25 2 11.25L2 12ZM2 16L2 16.75C1.58579 16.75 1.25 16.4142 1.25 16L2 16ZM2.75 12L2.75 16L1.25 16L1.25 12L2.75 12ZM2 15.25L6 15.25L6 16.75L2 16.75L2 15.25ZM6 12.75L2 12.75L2 11.25L6 11.25L6 12.75ZM7.25 14C7.25 13.3096 6.69036 12.75 6 12.75L6 11.25C7.51878 11.25 8.75 12.4812 8.75 14L7.25 14ZM6 15.25C6.69036 15.25 7.25 14.6904 7.25 14L8.75 14C8.75 15.5188 7.51878 16.75 6 16.75L6 15.25Z" fill="#28303F"/>
</svg>
