<svg width="24" height="24" viewBox="0 0 24 24" fill="none" xmlns="http://www.w3.org/2000/svg">
<path fill-rule="evenodd" clip-rule="evenodd" d="M4.87378 18.4976L2.41742 21.5276C2.15657 21.8493 2.20596 22.3216 2.52772 22.5825C2.84948 22.8433 3.32178 22.7939 3.58263 22.4722L5.89829 19.6157C5.52643 19.2726 5.18356 18.8985 4.87378 18.4976ZM18.1017 19.6158L20.4174 22.4722C20.6783 22.7939 21.1506 22.8433 21.4723 22.5825C21.7941 22.3216 21.8435 21.8493 21.5826 21.5275L19.1262 18.4976C18.8164 18.8985 18.4735 19.2726 18.1017 19.6158Z" fill="#28303F"/>
<path opacity="0.4" d="M21 13C21 17.9706 16.9706 22 12 22C7.02944 22 3 17.9706 3 13C3 8.02944 7.02944 4 12 4C16.9706 4 21 8.02944 21 13Z" fill="#28303F"/>
<path fill-rule="evenodd" clip-rule="evenodd" d="M7.88371 1.6997C8.04967 2.07921 7.87655 2.5214 7.49703 2.68736C5.50668 3.55772 3.81575 4.98821 2.62451 6.77986C2.39517 7.12478 1.92963 7.21849 1.5847 6.98915C1.23977 6.75981 1.14607 6.29427 1.37541 5.94934C2.72442 3.92041 4.63929 2.29988 6.89604 1.31302C7.27556 1.14706 7.71775 1.32018 7.88371 1.6997ZM16.1162 1.6997C16.2822 1.32018 16.7244 1.14706 17.1039 1.31302C19.3606 2.29988 21.2755 3.92041 22.6245 5.94934C22.8538 6.29427 22.7601 6.75981 22.4152 6.98915C22.0703 7.21849 21.6047 7.12478 21.3754 6.77985C20.1842 4.98821 18.4932 3.55772 16.5029 2.68736C16.1234 2.5214 15.9503 2.07921 16.1162 1.6997Z" fill="#28303F"/>
<path fill-rule="evenodd" clip-rule="evenodd" d="M12 7.25C12.4142 7.25 12.75 7.58579 12.75 8V12.5986L15.416 14.376C15.7607 14.6057 15.8538 15.0714 15.624 15.416C15.3943 15.7607 14.9286 15.8538 14.584 15.624L11.584 13.624C11.3753 13.4849 11.25 13.2508 11.25 13V8C11.25 7.58579 11.5858 7.25 12 7.25Z" fill="#28303F"/>
</svg>
