<svg width="24" height="24" viewBox="0 0 24 24" fill="none" xmlns="http://www.w3.org/2000/svg">
<path fill-rule="evenodd" clip-rule="evenodd" d="M4.8739 18.4976L2.41754 21.5276C2.1567 21.8493 2.20608 22.3216 2.52784 22.5825C2.84961 22.8433 3.3219 22.7939 3.58275 22.4722L5.89841 19.6157C5.52655 19.2726 5.18368 18.8985 4.8739 18.4976ZM18.1018 19.6158L20.4176 22.4722C20.6784 22.7939 21.1507 22.8433 21.4725 22.5825C21.7942 22.3216 21.8436 21.8493 21.5827 21.5275L19.1263 18.4976C18.8165 18.8985 18.4737 19.2726 18.1018 19.6158Z" fill="#28303F"/>
<path opacity="0.4" d="M21.0001 13C21.0001 17.9706 16.9707 22 12.0001 22C7.02956 22 3.00012 17.9706 3.00012 13C3.00012 8.02944 7.02956 4 12.0001 4C16.9707 4 21.0001 8.02944 21.0001 13Z" fill="#28303F"/>
<path fill-rule="evenodd" clip-rule="evenodd" d="M7.88383 1.6997C8.04979 2.07921 7.87667 2.5214 7.49715 2.68736C5.50681 3.55772 3.81588 4.98821 2.62463 6.77986C2.39529 7.12478 1.92975 7.21849 1.58482 6.98915C1.2399 6.75981 1.14619 6.29427 1.37553 5.94934C2.72454 3.92041 4.63941 2.29988 6.89617 1.31302C7.27568 1.14706 7.71787 1.32018 7.88383 1.6997ZM16.1163 1.6997C16.2823 1.32018 16.7245 1.14706 17.104 1.31302C19.3607 2.29988 21.2756 3.92041 22.6246 5.94934C22.854 6.29427 22.7603 6.75981 22.4153 6.98915C22.0704 7.21849 21.6049 7.12478 21.3755 6.77985C20.1843 4.98821 18.4934 3.55772 16.503 2.68736C16.1235 2.5214 15.9504 2.07921 16.1163 1.6997Z" fill="#28303F"/>
<path fill-rule="evenodd" clip-rule="evenodd" d="M14.6516 10.3486C14.9445 10.6415 14.9445 11.1163 14.6516 11.4092L13.0606 13.0002L14.6516 14.5912C14.9445 14.8841 14.9445 15.359 14.6516 15.6519C14.3587 15.9448 13.8839 15.9448 13.591 15.6519L12 14.0609L10.409 15.6519C10.1161 15.9448 9.64123 15.9448 9.34833 15.6519C9.05544 15.359 9.05544 14.8841 9.34833 14.5912L10.9393 13.0002L9.34833 11.4092C9.05544 11.1163 9.05544 10.6415 9.34833 10.3486C9.64123 10.0557 10.1161 10.0557 10.409 10.3486L12 11.9396L13.591 10.3486C13.8839 10.0557 14.3587 10.0557 14.6516 10.3486Z" fill="#28303F"/>
</svg>
