<svg width="24" height="24" viewBox="0 0 24 24" fill="none" xmlns="http://www.w3.org/2000/svg">
<path fill-rule="evenodd" clip-rule="evenodd" d="M6.71505 17.4174C7.03681 17.6783 7.08619 18.1506 6.82534 18.4723L3.58263 22.4723C3.32178 22.7941 2.84948 22.8435 2.52772 22.5826C2.20596 22.3218 2.15657 21.8495 2.41742 21.5277L5.66014 17.5277C5.92098 17.206 6.39328 17.1566 6.71505 17.4174ZM17.2848 17.4174C17.6066 17.1566 18.0789 17.2059 18.3397 17.5277L21.5826 21.5277C21.8435 21.8495 21.7941 22.3218 21.4723 22.5826C21.1506 22.8435 20.6783 22.7941 20.4174 22.4723L17.1746 18.4723C16.9137 18.1506 16.9631 17.6783 17.2848 17.4174Z" fill="#28303F"/>
<path opacity="0.4" d="M21 13C21 17.9706 16.9706 22 12 22C7.02944 22 3 17.9706 3 13C3 8.02944 7.02944 4 12 4C16.9706 4 21 8.02944 21 13Z" fill="#28303F"/>
<path fill-rule="evenodd" clip-rule="evenodd" d="M7.88371 1.6997C8.04967 2.07921 7.87655 2.5214 7.49703 2.68736C5.50668 3.55772 3.81575 4.98821 2.62451 6.77986C2.39517 7.12478 1.92963 7.21849 1.5847 6.98915C1.23977 6.75981 1.14607 6.29427 1.37541 5.94934C2.72442 3.92041 4.63929 2.29988 6.89604 1.31302C7.27556 1.14706 7.71775 1.32018 7.88371 1.6997ZM16.1162 1.6997C16.2822 1.32018 16.7244 1.14706 17.1039 1.31302C19.3606 2.29988 21.2755 3.92041 22.6245 5.94934C22.8538 6.29427 22.7601 6.75981 22.4152 6.98915C22.0703 7.21849 21.6047 7.12478 21.3754 6.77985C20.1842 4.98821 18.4932 3.55772 16.5029 2.68736C16.1234 2.5214 15.9503 2.07921 16.1162 1.6997Z" fill="#28303F"/>
<path fill-rule="evenodd" clip-rule="evenodd" d="M15.4939 10.4356C15.8056 10.7083 15.8372 11.1822 15.5645 11.4939L12.6946 14.7738C12.0779 15.4786 11.0156 15.5729 10.2843 14.9879L8.53151 13.5857C8.20806 13.3269 8.15562 12.8549 8.41438 12.5315C8.67313 12.208 9.1451 12.1556 9.46855 12.4144L11.2214 13.8166C11.3258 13.9002 11.4776 13.8867 11.5657 13.786L14.4356 10.5061C14.7084 10.1944 15.1822 10.1628 15.4939 10.4356Z" fill="#28303F"/>
</svg>
