<svg width="24" height="24" viewBox="0 0 24 24" fill="none" xmlns="http://www.w3.org/2000/svg">
<path opacity="0.4" d="M3 7.5C3 5.29086 4.79086 3.5 7 3.5H17C19.2091 3.5 21 5.29086 21 7.5V9V18C21 20.2091 19.2091 22 17 22H7C4.79086 22 3 20.2091 3 18V9V7.5Z" fill="#28303F"/>
<path d="M17 3.5H7C4.79086 3.5 3 5.29086 3 7.5V9H21V7.5C21 5.29086 19.2091 3.5 17 3.5Z" fill="#28303F"/>
<path opacity="0.4" fill-rule="evenodd" clip-rule="evenodd" d="M8 1.25C8.41421 1.25 8.75 1.58579 8.75 2V5C8.75 5.41421 8.41421 5.75 8 5.75C7.58579 5.75 7.25 5.41421 7.25 5V2C7.25 1.58579 7.58579 1.25 8 1.25ZM16 1.25C16.4142 1.25 16.75 1.58579 16.75 2V5C16.75 5.41421 16.4142 5.75 16 5.75C15.5858 5.75 15.25 5.41421 15.25 5V2C15.25 1.58579 15.5858 1.25 16 1.25Z" fill="#28303F"/>
<path fill-rule="evenodd" clip-rule="evenodd" d="M9.34837 12.3486C9.64126 12.0557 10.1161 12.0557 10.409 12.3486L12 13.9395L13.591 12.3486C13.8839 12.0557 14.3587 12.0557 14.6516 12.3486C14.9445 12.6415 14.9445 13.1163 14.6516 13.4092L13.0607 15.0002L14.6517 16.5912C14.9446 16.8841 14.9446 17.359 14.6517 17.6519C14.3588 17.9448 13.8839 17.9448 13.591 17.6519L12 16.0609L10.409 17.6519C10.1161 17.9448 9.64123 17.9448 9.34833 17.6519C9.05544 17.359 9.05544 16.8841 9.34833 16.5912L10.9393 15.0002L9.34837 13.4092C9.05547 13.1163 9.05547 12.6415 9.34837 12.3486Z" fill="#28303F"/>
</svg>
