<svg width="24" height="24" viewBox="0 0 24 24" fill="none" xmlns="http://www.w3.org/2000/svg">
<path opacity="0.4" d="M20.5 13.5C20.5 18.1944 16.6944 22 12 22C7.30558 22 3.5 18.1944 3.5 13.5C3.5 8.80558 7.30558 5 12 5C16.6944 5 20.5 8.80558 20.5 13.5Z" fill="#28303F"/>
<path fill-rule="evenodd" clip-rule="evenodd" d="M11.9999 2.75C11.0296 2.75 10.092 2.88462 9.20407 3.13575C8.80549 3.24849 8.39099 3.01676 8.27826 2.61818C8.16553 2.21961 8.39725 1.80511 8.79583 1.69238C9.81525 1.40405 10.8902 1.25 11.9999 1.25C13.1097 1.25 14.1846 1.40405 15.2041 1.69238C15.6026 1.80511 15.8344 2.21961 15.7216 2.61818C15.6089 3.01676 15.1944 3.24849 14.7958 3.13575C13.9079 2.88462 12.9703 2.75 11.9999 2.75Z" fill="#28303F"/>
<path d="M14 14C14 15.1046 13.1046 16 12 16C10.8954 16 10 15.1046 10 14C10 12.8954 10.8954 12 12 12C13.1046 12 14 12.8954 14 14Z" fill="#28303F"/>
<path fill-rule="evenodd" clip-rule="evenodd" d="M12 8.25C12.4142 8.25 12.75 8.58579 12.75 9V13C12.75 13.4142 12.4142 13.75 12 13.75C11.5858 13.75 11.25 13.4142 11.25 13V9C11.25 8.58579 11.5858 8.25 12 8.25Z" fill="#28303F"/>
<path fill-rule="evenodd" clip-rule="evenodd" d="M20.4939 17.4356C20.8056 17.7083 20.8372 18.1822 20.5645 18.4939L17.6946 21.7738C17.0779 22.4786 16.0156 22.5729 15.2843 21.9879L13.5315 20.5857C13.2081 20.3269 13.1556 19.8549 13.4144 19.5315C13.6731 19.208 14.1451 19.1556 14.4685 19.4144L16.2214 20.8166C16.3258 20.9002 16.4776 20.8867 16.5657 20.786L19.4356 17.5061C19.7084 17.1944 20.1822 17.1628 20.4939 17.4356Z" fill="#28303F"/>
</svg>
