<svg width="24" height="24" viewBox="0 0 24 24" fill="none" xmlns="http://www.w3.org/2000/svg">
<path opacity="0.4" d="M20.5 13.5C20.5 18.1944 16.6944 22 12 22C7.30558 22 3.5 18.1944 3.5 13.5C3.5 8.80558 7.30558 5 12 5C16.6944 5 20.5 8.80558 20.5 13.5Z" fill="#28303F"/>
<path fill-rule="evenodd" clip-rule="evenodd" d="M11.9999 2.75C11.0296 2.75 10.092 2.88462 9.20407 3.13575C8.80549 3.24849 8.39099 3.01676 8.27826 2.61818C8.16553 2.21961 8.39725 1.80511 8.79583 1.69238C9.81525 1.40405 10.8902 1.25 11.9999 1.25C13.1097 1.25 14.1846 1.40405 15.2041 1.69238C15.6026 1.80511 15.8344 2.21961 15.7216 2.61818C15.6089 3.01676 15.1944 3.24849 14.7958 3.13575C13.9079 2.88462 12.9703 2.75 11.9999 2.75Z" fill="#28303F"/>
<path d="M14 14C14 15.1046 13.1046 16 12 16C10.8954 16 10 15.1046 10 14C10 12.8954 10.8954 12 12 12C13.1046 12 14 12.8954 14 14Z" fill="#28303F"/>
<path fill-rule="evenodd" clip-rule="evenodd" d="M12 8.25C12.4142 8.25 12.75 8.58579 12.75 9V13C12.75 13.4142 12.4142 13.75 12 13.75C11.5858 13.75 11.25 13.4142 11.25 13V9C11.25 8.58579 11.5858 8.25 12 8.25Z" fill="#28303F"/>
<path fill-rule="evenodd" clip-rule="evenodd" d="M20.75 19C20.75 19.4142 20.4142 19.75 20 19.75L14 19.75C13.5858 19.75 13.25 19.4142 13.25 19C13.25 18.5858 13.5858 18.25 14 18.25L20 18.25C20.4142 18.25 20.75 18.5858 20.75 19Z" fill="#28303F"/>
</svg>
