<svg width="24" height="24" viewBox="0 0 24 24" fill="none" xmlns="http://www.w3.org/2000/svg">
<path opacity="0.4" fill-rule="evenodd" clip-rule="evenodd" d="M11.25 2C11.25 1.58579 11.5858 1.25 12 1.25C17.9371 1.25 22.75 6.06294 22.75 12C22.75 12.4142 22.4142 12.75 22 12.75C21.5858 12.75 21.25 12.4142 21.25 12C21.25 6.89137 17.1086 2.75 12 2.75C11.5858 2.75 11.25 2.41421 11.25 2Z" fill="#28303F"/>
<path fill-rule="evenodd" clip-rule="evenodd" d="M9.13329 2.38737C9.28109 2.77432 9.08722 3.20782 8.70028 3.35562C8.53835 3.41747 8.3786 3.48374 8.22118 3.5543C7.84319 3.7237 7.39944 3.55461 7.23004 3.17662C7.06063 2.79863 7.22972 2.35488 7.60771 2.18548C7.79082 2.10341 7.97666 2.02632 8.16504 1.95436C8.55199 1.80656 8.98549 2.00042 9.13329 2.38737ZM5.67494 4.21796C5.95955 4.5189 5.94632 4.99359 5.64537 5.27821C5.51962 5.39714 5.3972 5.51956 5.27827 5.64531C4.99365 5.94625 4.51896 5.95949 4.21802 5.67488C3.91708 5.39026 3.90384 4.91557 4.18846 4.61463C4.32654 4.46862 4.46868 4.32648 4.61469 4.18839C4.91563 3.90378 5.39032 3.91701 5.67494 4.21796ZM3.17668 7.22997C3.55467 7.39938 3.72376 7.84313 3.55436 8.22111C3.4838 8.37854 3.41753 8.53829 3.35568 8.70021C3.20788 9.08716 2.77438 9.28103 2.38743 9.13323C2.00049 8.98543 1.80662 8.55193 1.95442 8.16498C2.02638 7.97659 2.10348 7.79076 2.18554 7.60765C2.35494 7.22966 2.79869 7.06057 3.17668 7.22997ZM2.02458 10.969C2.43864 10.9804 2.76503 11.3254 2.75359 11.7394C2.7512 11.8259 2.75 11.9128 2.75 11.9999C2.75 12.0871 2.7512 12.1739 2.75359 12.2605C2.76503 12.6745 2.43864 13.0194 2.02458 13.0309C1.61052 13.0423 1.2656 12.7159 1.25416 12.3019C1.25139 12.2015 1.25 12.1009 1.25 11.9999C1.25 11.899 1.25139 11.7983 1.25416 11.698C1.2656 11.284 1.61052 10.9576 2.02458 10.969ZM2.38743 14.8666C2.77438 14.7188 3.20788 14.9127 3.35568 15.2997C3.41753 15.4616 3.4838 15.6213 3.55436 15.7788C3.72376 16.1568 3.55467 16.6005 3.17668 16.7699C2.79869 16.9393 2.35494 16.7702 2.18554 16.3922C2.10348 16.2091 2.02638 16.0233 1.95442 15.8349C1.80662 15.4479 2.00049 15.0145 2.38743 14.8666ZM21.6126 14.8666C21.9995 15.0145 22.1934 15.4479 22.0456 15.8349C21.9736 16.0233 21.8965 16.2091 21.8145 16.3922C21.6451 16.7702 21.2013 16.9393 20.8233 16.7699C20.4453 16.6005 20.2762 16.1568 20.4456 15.7788C20.5162 15.6213 20.5825 15.4616 20.6443 15.2997C20.7921 14.9127 21.2256 14.7188 21.6126 14.8666ZM4.21802 18.325C4.51896 18.0404 4.99365 18.0536 5.27827 18.3546C5.3972 18.4803 5.51962 18.6027 5.64537 18.7217C5.94632 19.0063 5.95955 19.481 5.67494 19.7819C5.39032 20.0829 4.91563 20.0961 4.61469 19.8115C4.46868 19.6734 4.32654 19.5313 4.18846 19.3852C3.90384 19.0843 3.91708 18.6096 4.21802 18.325ZM19.782 18.325C20.0829 18.6096 20.0962 19.0843 19.8115 19.3852C19.6735 19.5313 19.5313 19.6734 19.3853 19.8115C19.0844 20.0961 18.6097 20.0829 18.3251 19.7819C18.0404 19.481 18.0537 19.0063 18.3546 18.7217C18.4804 18.6027 18.6028 18.4803 18.7217 18.3546C19.0063 18.0536 19.481 18.0404 19.782 18.325ZM16.77 20.8233C16.9394 21.2012 16.7703 21.645 16.3923 21.8144C16.2092 21.8965 16.0233 21.9736 15.835 22.0455C15.448 22.1933 15.0145 21.9995 14.8667 21.6125C14.7189 21.2256 14.9128 20.7921 15.2997 20.6443C15.4616 20.5824 15.6214 20.5161 15.7788 20.4456C16.1568 20.2762 16.6006 20.4453 16.77 20.8233ZM7.23004 20.8233C7.39944 20.4453 7.84319 20.2762 8.22118 20.4456C8.3786 20.5161 8.53835 20.5824 8.70028 20.6443C9.08722 20.7921 9.28109 21.2256 9.13329 21.6125C8.98549 21.9995 8.55199 22.1933 8.16504 22.0455C7.97666 21.9736 7.79082 21.8965 7.60771 21.8144C7.22973 21.645 7.06063 21.2012 7.23004 20.8233ZM10.9691 21.9754C10.9805 21.5613 11.3254 21.2349 11.7395 21.2463C11.826 21.2487 11.9129 21.2499 12 21.2499C12.0871 21.2499 12.174 21.2487 12.2605 21.2463C12.6746 21.2349 13.0195 21.5613 13.0309 21.9754C13.0424 22.3894 12.716 22.7343 12.3019 22.7458C12.2016 22.7485 12.101 22.7499 12 22.7499C11.899 22.7499 11.7984 22.7485 11.6981 22.7458C11.284 22.7343 10.9576 22.3894 10.9691 21.9754Z" fill="#28303F"/>
<path fill-rule="evenodd" clip-rule="evenodd" d="M12 5.25C11.5858 5.25 11.25 5.58579 11.25 6V10.5C11.25 10.9142 11.5858 11.25 12 11.25C12.4142 11.25 12.75 10.9142 12.75 10.5V6C12.75 5.58579 12.4142 5.25 12 5.25ZM16.75 12C16.75 11.5858 16.4142 11.25 16 11.25H13.5C13.0858 11.25 12.75 11.5858 12.75 12C12.75 12.4142 13.0858 12.75 13.5 12.75H16C16.4142 12.75 16.75 12.4142 16.75 12Z" fill="#28303F"/>
<path opacity="0.4" d="M14 12C14 13.1046 13.1046 14 12 14C10.8954 14 10 13.1046 10 12C10 10.8954 10.8954 10 12 10C13.1046 10 14 10.8954 14 12Z" fill="#28303F"/>
</svg>
