<svg width="24" height="24" viewBox="0 0 24 24" fill="none" xmlns="http://www.w3.org/2000/svg">
<path fill-rule="evenodd" clip-rule="evenodd" d="M1.25 6C1.25 3.37665 3.37665 1.25 6 1.25H18C20.6234 1.25 22.75 3.37665 22.75 6V12C22.75 12.3033 22.5673 12.5768 22.287 12.6929C22.0068 12.809 21.6842 12.7448 21.4697 12.5303L19.4697 10.5303C19.1768 10.2374 19.1768 9.76256 19.4697 9.46967C19.7626 9.17678 20.2374 9.17678 20.5303 9.46967L21.25 10.1893V6C21.25 4.20507 19.7949 2.75 18 2.75H6C4.20507 2.75 2.75 4.20507 2.75 6V18C2.75 19.7949 4.20507 21.25 6 21.25H22C22.4142 21.25 22.75 21.5858 22.75 22C22.75 22.4142 22.4142 22.75 22 22.75H6C3.37665 22.75 1.25 20.6234 1.25 18V6Z" fill="#28303F"/>
<g opacity="0.4">
<path fill-rule="evenodd" clip-rule="evenodd" d="M12 5.25C12.4142 5.25 12.75 5.58579 12.75 6V10.5C12.75 10.9142 12.4142 11.25 12 11.25C11.5858 11.25 11.25 10.9142 11.25 10.5V6C11.25 5.58579 11.5858 5.25 12 5.25ZM11.0303 12.9697C11.3232 13.2626 11.3232 13.7374 11.0303 14.0303L9.53033 15.5303C9.23744 15.8232 8.76256 15.8232 8.46967 15.5303C8.17678 15.2374 8.17678 14.7626 8.46967 14.4697L9.96967 12.9697C10.2626 12.6768 10.7374 12.6768 11.0303 12.9697Z" fill="#28303F"/>
<path d="M14 12C14 13.1046 13.1046 14 12 14C10.8954 14 10 13.1046 10 12C10 10.8954 10.8954 10 12 10C13.1046 10 14 10.8954 14 12Z" fill="#28303F"/>
</g>
</svg>
