<svg width="24" height="24" viewBox="0 0 24 24" fill="none" xmlns="http://www.w3.org/2000/svg">
<path opacity="0.4" d="M18 2H6C3.79086 2 2 3.79086 2 6V18C2 20.2091 3.79086 22 6 22H18C20.2091 22 22 20.2091 22 18V6C22 3.79086 20.2091 2 18 2Z" fill="#28303F"/>
<path fill-rule="evenodd" clip-rule="evenodd" d="M17.3483 17.3481C17.6412 17.0552 18.1161 17.0552 18.409 17.3481L20.0002 18.9393L21.591 17.3485C21.8839 17.0556 22.3587 17.0556 22.6516 17.3485C22.9445 17.6414 22.9445 18.1163 22.6516 18.4092L21.0609 20L22.6516 21.5907C22.9445 21.8836 22.9445 22.3585 22.6516 22.6514C22.3587 22.9443 21.8839 22.9443 21.591 22.6514L20.0002 21.0606L18.409 22.6518C18.1161 22.9447 17.6412 22.9447 17.3483 22.6518C17.0554 22.3589 17.0554 21.8841 17.3483 21.5912L18.9395 20L17.3483 18.4087C17.0554 18.1159 17.0554 17.641 17.3483 17.3481Z" fill="#28303F"/>
<path fill-rule="evenodd" clip-rule="evenodd" d="M12 5.25C12.4142 5.25 12.75 5.58579 12.75 6V10.5C12.75 10.9142 12.4142 11.25 12 11.25C11.5858 11.25 11.25 10.9142 11.25 10.5V6C11.25 5.58579 11.5858 5.25 12 5.25ZM11.0303 12.9697C11.3232 13.2626 11.3232 13.7374 11.0303 14.0303L9.53033 15.5303C9.23744 15.8232 8.76256 15.8232 8.46967 15.5303C8.17678 15.2374 8.17678 14.7626 8.46967 14.4697L9.96967 12.9697C10.2626 12.6768 10.7374 12.6768 11.0303 12.9697Z" fill="#28303F"/>
<path d="M14 12C14 13.1046 13.1046 14 12 14C10.8954 14 10 13.1046 10 12C10 10.8954 10.8954 10 12 10C13.1046 10 14 10.8954 14 12Z" fill="#28303F"/>
</svg>
