<svg width="24" height="24" viewBox="0 0 24 24" fill="none" xmlns="http://www.w3.org/2000/svg">
<path opacity="0.4" d="M18 2H6C3.79086 2 2 3.79086 2 6V18C2 20.2091 3.79086 22 6 22H18C20.2091 22 22 20.2091 22 18V6C22 3.79086 20.2091 2 18 2Z" fill="#28303F"/>
<path fill-rule="evenodd" clip-rule="evenodd" d="M12 5.25C12.4142 5.25 12.75 5.58579 12.75 6V10.5C12.75 10.9142 12.4142 11.25 12 11.25C11.5858 11.25 11.25 10.9142 11.25 10.5V6C11.25 5.58579 11.5858 5.25 12 5.25ZM11.0303 12.9697C11.3232 13.2626 11.3232 13.7374 11.0303 14.0303L9.53033 15.5303C9.23744 15.8232 8.76256 15.8232 8.46967 15.5303C8.17678 15.2374 8.17678 14.7626 8.46967 14.4697L9.96967 12.9697C10.2626 12.6768 10.7374 12.6768 11.0303 12.9697Z" fill="#28303F"/>
<path d="M14 12C14 13.1046 13.1046 14 12 14C10.8954 14 10 13.1046 10 12C10 10.8954 10.8954 10 12 10C13.1046 10 14 10.8954 14 12Z" fill="#28303F"/>
<path fill-rule="evenodd" clip-rule="evenodd" d="M13.25 22C13.25 21.5858 13.5858 21.25 14 21.25L22 21.25C22.4142 21.25 22.75 21.5858 22.75 22C22.75 22.4142 22.4142 22.75 22 22.75L14 22.75C13.5858 22.75 13.25 22.4142 13.25 22Z" fill="#28303F"/>
<path fill-rule="evenodd" clip-rule="evenodd" d="M15.25 19C15.25 18.5858 15.5858 18.25 16 18.25H22C22.4142 18.25 22.75 18.5858 22.75 19C22.75 19.4142 22.4142 19.75 22 19.75H16C15.5858 19.75 15.25 19.4142 15.25 19Z" fill="#28303F"/>
<path fill-rule="evenodd" clip-rule="evenodd" d="M17.25 16C17.25 15.5858 17.5858 15.25 18 15.25L22 15.25C22.4142 15.25 22.75 15.5858 22.75 16C22.75 16.4142 22.4142 16.75 22 16.75H18C17.5858 16.75 17.25 16.4142 17.25 16Z" fill="#28303F"/>
</svg>
