<svg width="24" height="24" viewBox="0 0 24 24" fill="none" xmlns="http://www.w3.org/2000/svg">
<path fill-rule="evenodd" clip-rule="evenodd" d="M12 16.75C12.4142 16.75 12.75 16.4142 12.75 16L12.75 13.5C12.75 13.0858 12.4142 12.75 12 12.75C11.5858 12.75 11.25 13.0858 11.25 13.5L11.25 16C11.25 16.4142 11.5858 16.75 12 16.75ZM6 12.75L10.5 12.75C10.9142 12.75 11.25 12.4142 11.25 12C11.25 11.5858 10.9142 11.25 10.5 11.25L6 11.25C5.58579 11.25 5.25 11.5858 5.25 12C5.25 12.4142 5.58579 12.75 6 12.75Z" fill="#28303F"/>
<path opacity="0.4" fill-rule="evenodd" clip-rule="evenodd" d="M2 12.75C1.58579 12.75 1.25 12.4142 1.25 12C1.25 6.06294 6.06294 1.25 12 1.25C17.9371 1.25 22.75 6.06294 22.75 12C22.75 17.9371 17.9371 22.75 12 22.75C11.5858 22.75 11.25 22.4142 11.25 22C11.25 21.5858 11.5858 21.25 12 21.25C17.1086 21.25 21.25 17.1086 21.25 12C21.25 6.89136 17.1086 2.75 12 2.75C6.89137 2.75 2.75 6.89136 2.75 12C2.75 12.4142 2.41421 12.75 2 12.75Z" fill="#28303F"/>
<path fill-rule="evenodd" clip-rule="evenodd" d="M2.38749 14.8668C2.77444 14.719 3.20794 14.9128 3.35574 15.2998C3.41759 15.4617 3.48386 15.6215 3.55442 15.7789C3.72382 16.1569 3.55473 16.6006 3.17674 16.77C2.79875 16.9394 2.355 16.7703 2.1856 16.3923C2.10353 16.2092 2.02644 16.0234 1.95448 15.835C1.80668 15.4481 2.00055 15.0146 2.38749 14.8668ZM4.21808 18.3251C4.51902 18.0405 4.99371 18.0537 5.27833 18.3547C5.39726 18.4804 5.51968 18.6029 5.64543 18.7218C5.94638 19.0064 5.95961 19.4811 5.675 19.782C5.39038 20.083 4.91569 20.0962 4.61475 19.8116C4.46874 19.6735 4.3266 19.5314 4.18851 19.3854C3.9039 19.0844 3.91714 18.6097 4.21808 18.3251ZM7.2301 20.8234C7.3995 20.4454 7.84325 20.2763 8.22124 20.4457C8.37866 20.5163 8.53841 20.5825 8.70034 20.6444C9.08728 20.7922 9.28115 21.2257 9.13335 21.6126C8.98555 21.9996 8.55205 22.1934 8.1651 22.0456C7.97672 21.9737 7.79088 21.8966 7.60777 21.8145C7.22978 21.6451 7.06069 21.2014 7.2301 20.8234Z" fill="#28303F"/>
<path opacity="0.4" d="M14 12C14 13.1046 13.1046 14 12 14C10.8954 14 10 13.1046 10 12C10 10.8954 10.8954 10 12 10C13.1046 10 14 10.8954 14 12Z" fill="#28303F"/>
</svg>
