<svg width="24" height="24" viewBox="0 0 24 24" fill="none" xmlns="http://www.w3.org/2000/svg">
<path opacity="0.4" d="M18 2H6C3.79086 2 2 3.79086 2 6V18C2 20.2091 3.79086 22 6 22H18C20.2091 22 22 20.2091 22 18V6C22 3.79086 20.2091 2 18 2Z" fill="#28303F"/>
<path fill-rule="evenodd" clip-rule="evenodd" d="M12 5.25C12.4142 5.25 12.75 5.58579 12.75 6V10.5C12.75 10.9142 12.4142 11.25 12 11.25C11.5858 11.25 11.25 10.9142 11.25 10.5V6C11.25 5.58579 11.5858 5.25 12 5.25ZM11.0303 12.9697C11.3232 13.2626 11.3232 13.7374 11.0303 14.0303L9.53033 15.5303C9.23744 15.8232 8.76256 15.8232 8.46967 15.5303C8.17678 15.2374 8.17678 14.7626 8.46967 14.4697L9.96967 12.9697C10.2626 12.6768 10.7374 12.6768 11.0303 12.9697Z" fill="#28303F"/>
<path d="M14 12C14 13.1046 13.1046 14 12 14C10.8954 14 10 13.1046 10 12C10 10.8954 10.8954 10 12 10C13.1046 10 14 10.8954 14 12Z" fill="#28303F"/>
<path fill-rule="evenodd" clip-rule="evenodd" d="M22.4939 17.4356C22.8056 17.7083 22.8372 18.1822 22.5645 18.4939L19.6946 21.7738C19.0779 22.4786 18.0156 22.5729 17.2843 21.9879L15.5315 20.5857C15.2081 20.3269 15.1556 19.8549 15.4144 19.5315C15.6731 19.208 16.1451 19.1556 16.4685 19.4144L18.2214 20.8166C18.3258 20.9002 18.4776 20.8867 18.5657 20.786L21.4356 17.5061C21.7084 17.1944 22.1822 17.1628 22.4939 17.4356Z" fill="#28303F"/>
</svg>
