<svg width="24" height="24" viewBox="0 0 24 24" fill="none" xmlns="http://www.w3.org/2000/svg">
<path opacity="0.4" d="M22 12C22 17.5228 17.5228 22 12 22C6.47715 22 2 17.5228 2 12C2 6.47715 6.47715 2 12 2C17.5228 2 22 6.47715 22 12Z" fill="#28303F"/>
<path d="M14 12C14 13.1046 13.1046 14 12 14C10.8954 14 10 13.1046 10 12C10 10.8954 10.8954 10 12 10C13.1046 10 14 10.8954 14 12Z" fill="#28303F"/>
<path fill-rule="evenodd" clip-rule="evenodd" d="M12 5.25C11.5858 5.25 11.25 5.58579 11.25 6V10.5C11.25 10.9142 11.5858 11.25 12 11.25C12.4142 11.25 12.75 10.9142 12.75 10.5V6C12.75 5.58579 12.4142 5.25 12 5.25Z" fill="#28303F"/>
</svg>
