<svg width="24" height="24" viewBox="0 0 24 24" fill="none" xmlns="http://www.w3.org/2000/svg">
<path fill-rule="evenodd" clip-rule="evenodd" d="M17.25 18C17.25 16.4812 18.4812 15.25 20 15.25C21.5188 15.25 22.75 16.4812 22.75 18V20C22.75 21.5188 21.5188 22.75 20 22.75C18.4812 22.75 17.25 21.5188 17.25 20V18ZM20 16.75C19.3096 16.75 18.75 17.3096 18.75 18V20C18.75 20.6904 19.3096 21.25 20 21.25C20.6904 21.25 21.25 20.6904 21.25 20V18C21.25 17.3096 20.6904 16.75 20 16.75Z" fill="#28303F"/>
<path fill-rule="evenodd" clip-rule="evenodd" d="M15 15.25C15.4142 15.25 15.75 15.5858 15.75 16V22C15.75 22.4142 15.4142 22.75 15 22.75C14.5858 22.75 14.25 22.4142 14.25 22V16C14.25 15.5858 14.5858 15.25 15 15.25Z" fill="#28303F"/>
<path opacity="0.4" fill-rule="evenodd" clip-rule="evenodd" d="M12 6.25C12.4142 6.25 12.75 6.58579 12.75 7V12C12.75 12.3228 12.5434 12.6094 12.2371 12.7115L9.23713 13.7115C8.84417 13.8425 8.41943 13.6301 8.28845 13.2372C8.15746 12.8442 8.36983 12.4195 8.76279 12.2885L11.25 11.4594V7C11.25 6.58579 11.5857 6.25 12 6.25Z" fill="#28303F"/>
<path opacity="0.4" fill-rule="evenodd" clip-rule="evenodd" d="M1.25 6C1.25 3.37665 3.37665 1.25 6 1.25H18C20.6234 1.25 22.75 3.37665 22.75 6V12C22.75 12.3033 22.5673 12.5768 22.287 12.6929C22.0068 12.809 21.6842 12.7448 21.4697 12.5303L19.4697 10.5303C19.1768 10.2374 19.1768 9.76256 19.4697 9.46967C19.7626 9.17678 20.2374 9.17678 20.5303 9.46967L21.25 10.1893V6C21.25 4.20507 19.7949 2.75 18 2.75H6C4.20507 2.75 2.75 4.20507 2.75 6V18C2.75 19.7949 4.20508 21.25 6 21.25H11.8889C12.3031 21.25 12.6389 21.5858 12.6389 22C12.6389 22.4142 12.3031 22.75 11.8889 22.75H6C3.37665 22.75 1.25 20.6234 1.25 18V6Z" fill="#28303F"/>
</svg>
