<svg width="24" height="24" viewBox="0 0 24 24" fill="none" xmlns="http://www.w3.org/2000/svg">
<path opacity="0.4" fill-rule="evenodd" clip-rule="evenodd" d="M12 6.25C12.4142 6.25 12.75 6.58579 12.75 7V12C12.75 12.3228 12.5434 12.6094 12.2371 12.7115L9.23713 13.7115C8.84417 13.8425 8.41943 13.6301 8.28845 13.2372C8.15746 12.8442 8.36983 12.4195 8.76279 12.2885L11.25 11.4594V7C11.25 6.58579 11.5857 6.25 12 6.25Z" fill="#28303F"/>
<path fill-rule="evenodd" clip-rule="evenodd" d="M14 16.75C13.3097 16.75 12.75 17.3096 12.75 18V18.5C12.75 18.9142 12.4143 19.25 12 19.25C11.5858 19.25 11.25 18.9142 11.25 18.5V18C11.25 16.4812 12.4813 15.25 14 15.25C15.5188 15.25 16.75 16.4812 16.75 18C16.75 18.8656 16.3425 19.6807 15.65 20.2L14.25 21.25H16C16.4143 21.25 16.75 21.5858 16.75 22C16.75 22.4142 16.4143 22.75 16 22.75H12C11.6772 22.75 11.3906 22.5434 11.2885 22.2372C11.1865 21.9309 11.2918 21.5937 11.55 21.4L14.75 19C15.0648 18.7639 15.25 18.3934 15.25 18C15.25 17.3096 14.6904 16.75 14 16.75Z" fill="#28303F"/>
<path fill-rule="evenodd" clip-rule="evenodd" d="M18 15.25C18.4142 15.25 18.75 15.5858 18.75 16V17C18.75 17.6904 19.3096 18.25 20 18.25H21.25V16C21.25 15.5858 21.5858 15.25 22 15.25C22.4142 15.25 22.75 15.5858 22.75 16V22C22.75 22.4142 22.4142 22.75 22 22.75C21.5858 22.75 21.25 22.4142 21.25 22V19.75H20C18.4812 19.75 17.25 18.5188 17.25 17V16C17.25 15.5858 17.5858 15.25 18 15.25Z" fill="#28303F"/>
<path opacity="0.4" fill-rule="evenodd" clip-rule="evenodd" d="M1.25 6C1.25 3.37665 3.37665 1.25 6 1.25H18C20.6234 1.25 22.75 3.37665 22.75 6V12C22.75 12.3033 22.5673 12.5768 22.287 12.6929C22.0068 12.809 21.6842 12.7448 21.4697 12.5303L19.4697 10.5303C19.1768 10.2374 19.1768 9.76256 19.4697 9.46967C19.7626 9.17678 20.2374 9.17678 20.5303 9.46967L21.25 10.1893V6C21.25 4.20507 19.7949 2.75 18 2.75H6C4.20507 2.75 2.75 4.20507 2.75 6V18C2.75 19.7949 4.20507 21.25 6 21.25H9C9.41421 21.25 9.75 21.5858 9.75 22C9.75 22.4142 9.41421 22.75 9 22.75H6C3.37665 22.75 1.25 20.6234 1.25 18V6Z" fill="#28303F"/>
</svg>
