<svg width="24" height="24" viewBox="0 0 24 24" fill="none" xmlns="http://www.w3.org/2000/svg">
<g opacity="0.4">
<path d="M17 20.5003V15.5003L7 15.5003L7 20.5003C7 21.6048 7.89543 22.5003 9 22.5003H15C16.1046 22.5003 17 21.6049 17 20.5003Z" fill="#28303F"/>
<path d="M17 2.81055V7.81055L7 7.81055L7 2.81055C7 1.70598 7.89543 0.810547 9 0.810547L15 0.810547C16.1046 0.810547 17 1.70598 17 2.81055Z" fill="#28303F"/>
</g>
<path fill-rule="evenodd" clip-rule="evenodd" d="M12 19C15.866 19 19 15.866 19 12C19 8.13401 15.866 5 12 5C8.13401 5 5 8.13401 5 12C5 15.866 8.13401 19 12 19ZM12.75 9C12.75 8.58579 12.4143 8.25 12 8.25C11.5858 8.25 11.25 8.58579 11.25 9V11.5365L9.66463 12.3292C9.29415 12.5144 9.14398 12.9649 9.32922 13.3354C9.51446 13.7059 9.96497 13.8561 10.3355 13.6708L12.3355 12.6708C12.5895 12.5438 12.75 12.2841 12.75 12V9Z" fill="#28303F"/>
</svg>
