<svg width="24" height="24" viewBox="0 0 24 24" fill="none" xmlns="http://www.w3.org/2000/svg">
<g opacity="0.4">
<path d="M17 20V17L7 17L7 20C7 21.1046 7.89543 22 9 22H15C16.1046 22 17 21.1046 17 20Z" fill="#28303F"/>
<path d="M17 4V7L7 7L7 4C7 2.89543 7.89543 2 9 2L15 2C16.1046 2 17 2.89543 17 4Z" fill="#28303F"/>
</g>
<path fill-rule="evenodd" clip-rule="evenodd" d="M9 5C6.79086 5 5 6.79086 5 9V15C5 17.2091 6.79086 19 9 19H15C17.2091 19 19 17.2091 19 15V9C19 6.79086 17.2091 5 15 5H9ZM12.75 9C12.75 8.58579 12.4143 8.25 12 8.25C11.5858 8.25 11.25 8.58579 11.25 9V11.5365L9.66463 12.3292C9.29415 12.5144 9.14398 12.9649 9.32922 13.3354C9.51446 13.7059 9.96497 13.8561 10.3355 13.6708L12.3355 12.6708C12.5895 12.5438 12.75 12.2841 12.75 12V9Z" fill="#28303F"/>
</svg>
