<svg width="24" height="24" viewBox="0 0 24 24" fill="none" xmlns="http://www.w3.org/2000/svg">
<path fill-rule="evenodd" clip-rule="evenodd" d="M15.9995 1.25C16.4137 1.25 16.7495 1.58579 16.7495 2L16.7495 5C16.7495 5.41421 16.4137 5.75 15.9995 5.75C15.5853 5.75 15.2495 5.41421 15.2495 5L15.2495 2C15.2495 1.58579 15.5853 1.25 15.9995 1.25Z" fill="#28303F"/>
<path fill-rule="evenodd" clip-rule="evenodd" d="M7.99951 1.25C8.41373 1.25 8.74951 1.58579 8.74951 2L8.74951 5C8.74951 5.41421 8.41373 5.75 7.99951 5.75C7.5853 5.75 7.24951 5.41421 7.24951 5L7.24951 2C7.24951 1.58579 7.5853 1.25 7.99951 1.25Z" fill="#28303F"/>
<path opacity="0.4" d="M17 3.5H7C4.79086 3.5 3 5.29086 3 7.5V18C3 20.2091 4.79086 22 7 22H17C19.2091 22 21 20.2091 21 18V7.5C21 5.29086 19.2091 3.5 17 3.5Z" fill="#28303F"/>
<path fill-rule="evenodd" clip-rule="evenodd" d="M7.25 9C7.25 8.58579 7.58579 8.25 8 8.25H12C12.4142 8.25 12.75 8.58579 12.75 9C12.75 9.41421 12.4142 9.75 12 9.75H8C7.58579 9.75 7.25 9.41421 7.25 9Z" fill="#28303F"/>
<path fill-rule="evenodd" clip-rule="evenodd" d="M7.25 13C7.25 12.5858 7.58579 12.25 8 12.25H16C16.4142 12.25 16.75 12.5858 16.75 13C16.75 13.4142 16.4142 13.75 16 13.75H8C7.58579 13.75 7.25 13.4142 7.25 13Z" fill="#28303F"/>
<path fill-rule="evenodd" clip-rule="evenodd" d="M7.25 17C7.25 16.5858 7.58579 16.25 8 16.25H16C16.4142 16.25 16.75 16.5858 16.75 17C16.75 17.4142 16.4142 17.75 16 17.75H8C7.58579 17.75 7.25 17.4142 7.25 17Z" fill="#28303F"/>
</svg>
