<svg width="24" height="24" viewBox="0 0 24 24" fill="none" xmlns="http://www.w3.org/2000/svg">
<path opacity="0.4" fill-rule="evenodd" clip-rule="evenodd" d="M6.71505 17.4174C7.03681 17.6783 7.08619 18.1506 6.82534 18.4723L3.58263 22.4723C3.32178 22.7941 2.84948 22.8435 2.52772 22.5826C2.20596 22.3218 2.15657 21.8495 2.41742 21.5277L5.66014 17.5277C5.92098 17.206 6.39328 17.1566 6.71505 17.4174ZM17.2848 17.4174C17.6066 17.1566 18.0789 17.2059 18.3397 17.5277L21.5826 21.5277C21.8435 21.8495 21.7941 22.3218 21.4723 22.5826C21.1506 22.8435 20.6783 22.7941 20.4174 22.4723L17.1746 18.4723C16.9137 18.1506 16.9631 17.6783 17.2848 17.4174Z" fill="#28303F"/>
<path opacity="0.4" fill-rule="evenodd" clip-rule="evenodd" d="M7.88383 1.6997C8.04979 2.07921 7.87667 2.5214 7.49715 2.68736C5.50681 3.55772 3.81588 4.98821 2.62463 6.77986C2.39529 7.12478 1.92975 7.21849 1.58482 6.98915C1.2399 6.75981 1.14619 6.29427 1.37553 5.94934C2.72454 3.92041 4.63941 2.29988 6.89617 1.31302C7.27568 1.14706 7.71787 1.32018 7.88383 1.6997ZM16.1163 1.6997C16.2823 1.32018 16.7245 1.14706 17.104 1.31302C19.3607 2.29988 21.2756 3.92041 22.6246 5.94934C22.854 6.29427 22.7603 6.75981 22.4153 6.98915C22.0704 7.21849 21.6049 7.12478 21.3755 6.77985C20.1843 4.98821 18.4934 3.55772 16.503 2.68736C16.1235 2.5214 15.9504 2.07921 16.1163 1.6997Z" fill="#28303F"/>
<path fill-rule="evenodd" clip-rule="evenodd" d="M12 22C16.9706 22 21 17.9706 21 13C21 8.02944 16.9706 4 12 4C7.02944 4 3 8.02944 3 13C3 17.9706 7.02944 22 12 22ZM12.4995 8.9723C12.4995 8.5924 12.1637 8.28442 11.7495 8.28442C11.3353 8.28442 10.9995 8.5924 10.9995 8.9723V13.5581C10.9995 13.7881 11.1248 14.0029 11.3335 14.1305L14.3335 15.9648C14.6781 16.1755 15.1438 16.0901 15.3735 15.774C15.6033 15.4579 15.5102 15.0308 15.1655 14.8201L12.4995 13.19V8.9723Z" fill="#28303F"/>
</svg>
