<svg width="24" height="24" viewBox="0 0 24 24" fill="none" xmlns="http://www.w3.org/2000/svg">
<path opacity="0.4" d="M1.53833 3.61499C1.53833 2.51042 2.43376 1.61499 3.53833 1.61499H8.46167C9.56623 1.61499 10.4617 2.51042 10.4617 3.61499V8.53833C10.4617 9.64289 9.56623 10.5383 8.46166 10.5383H3.53833C2.43376 10.5383 1.53833 9.64289 1.53833 8.53832V3.61499Z" fill="#28303F"/>
<path opacity="0.4" d="M13.4617 15.5383C13.4617 14.4338 14.3571 13.5383 15.4617 13.5383H20.385C21.4896 13.5383 22.385 14.4338 22.385 15.5383V20.4617C22.385 21.5662 21.4896 22.4617 20.385 22.4617H15.4617C14.3571 22.4617 13.4617 21.5662 13.4617 20.4617V15.5383Z" fill="#28303F"/>
<circle cx="17.9233" cy="6.07665" r="4.46166" fill="#28303F"/>
<circle cx="5.99999" cy="18" r="4.46166" fill="#28303F"/>
</svg>
