<svg width="24" height="24" viewBox="0 0 24 24" fill="none" xmlns="http://www.w3.org/2000/svg">
<path fill-rule="evenodd" clip-rule="evenodd" d="M8.33533 17.0064L5.67074 22.3356C5.4855 22.7061 5.03499 22.8562 4.66451 22.671C4.29403 22.4858 4.14386 22.0352 4.3291 21.6648L6.65855 17.0059L8.33533 17.0064ZM17.3416 17.0064L19.6707 21.6648C19.856 22.0352 19.7058 22.4858 19.3353 22.671C18.9648 22.8562 18.5143 22.7061 18.3291 22.3356L15.6645 17.0064C15.6645 17.0064 17.2783 17.0064 17.3416 17.0064ZM12.7499 17.0064V20.0002C12.7499 20.4144 12.4141 20.7502 11.9999 20.7502C11.5857 20.7502 11.2499 20.4144 11.2499 20.0002V17.0064H12.7499Z" fill="#28303F"/>
<path opacity="0.4" d="M22 14C22 15.6569 20.6569 17 19 17L5 17C3.34314 17 2 15.6569 2 14L2 5C2 3.34315 3.34315 2 5 2L19 2C20.6569 2 22 3.34315 22 5L22 14Z" fill="#28303F"/>
<path fill-rule="evenodd" clip-rule="evenodd" d="M6.25 7C6.25 6.58579 6.58579 6.25 7 6.25H17C17.4142 6.25 17.75 6.58579 17.75 7C17.75 7.41421 17.4142 7.75 17 7.75H7C6.58579 7.75 6.25 7.41421 6.25 7Z" fill="#28303F"/>
<path fill-rule="evenodd" clip-rule="evenodd" d="M6.25 12C6.25 11.5858 6.58579 11.25 7 11.25H12C12.4142 11.25 12.75 11.5858 12.75 12C12.75 12.4142 12.4142 12.75 12 12.75H7C6.58579 12.75 6.25 12.4142 6.25 12Z" fill="#28303F"/>
</svg>
