<svg width="24" height="24" viewBox="0 0 24 24" fill="none" xmlns="http://www.w3.org/2000/svg">
<circle opacity="0.4" cx="12" cy="12" r="6" fill="#28303F"/>
<path fill-rule="evenodd" clip-rule="evenodd" d="M11.75 2C12.1642 2 12.5 2.33579 12.5 2.75V3.75C12.5 4.16421 12.1642 4.5 11.75 4.5C11.3358 4.5 11 4.16421 11 3.75V2.75C11 2.33579 11.3358 2 11.75 2Z" fill="#28303F"/>
<path fill-rule="evenodd" clip-rule="evenodd" d="M11.7498 19.4778C12.164 19.4778 12.4998 19.8136 12.4998 20.2278V21.2278C12.4998 21.6421 12.164 21.9778 11.7498 21.9778C11.3355 21.9778 10.9998 21.6421 10.9998 21.2278V20.2278C10.9998 19.8136 11.3355 19.4778 11.7498 19.4778Z" fill="#28303F"/>
<path fill-rule="evenodd" clip-rule="evenodd" d="M21.876 6.37486C22.0831 6.73358 21.9602 7.19227 21.6015 7.39938L20.7354 7.89938C20.3767 8.10649 19.918 7.98358 19.7109 7.62486C19.5038 7.26614 19.6267 6.80745 19.9854 6.60034L20.8515 6.10034C21.2102 5.89324 21.6689 6.01614 21.876 6.37486Z" fill="#28303F"/>
<path fill-rule="evenodd" clip-rule="evenodd" d="M4.27563 15.8751C4.48274 16.2338 4.35984 16.6925 4.00112 16.8996L3.13509 17.3996C2.77637 17.6067 2.31768 17.4838 2.11057 17.1251C1.90346 16.7664 2.02637 16.3077 2.38509 16.1006L3.25112 15.6006C3.60984 15.3935 4.06853 15.5164 4.27563 15.8751Z" fill="#28303F"/>
<path fill-rule="evenodd" clip-rule="evenodd" d="M2.12354 6.37489C2.33064 6.01618 2.78933 5.89327 3.14805 6.10038L4.01408 6.60038C4.3728 6.80748 4.49571 7.26618 4.2886 7.62489C4.08149 7.98361 3.6228 8.10652 3.26408 7.89941L2.39805 7.39941C2.03933 7.19231 1.91643 6.73361 2.12354 6.37489Z" fill="#28303F"/>
<path fill-rule="evenodd" clip-rule="evenodd" d="M19.7109 15.8751C19.918 15.5164 20.3767 15.3935 20.7355 15.6006L21.6015 16.1006C21.9602 16.3077 22.0831 16.7664 21.876 17.1251C21.6689 17.4839 21.2102 17.6068 20.8515 17.3997L19.9855 16.8997C19.6267 16.6926 19.5038 16.2339 19.7109 15.8751Z" fill="#28303F"/>
</svg>
