<svg width="24" height="24" viewBox="0 0 24 24" fill="none" xmlns="http://www.w3.org/2000/svg">
<path opacity="0.4" d="M2 18V8H22V18C22 20.2091 20.2091 22 18 22H6C3.79086 22 2 20.2091 2 18Z" fill="#28303F"/>
<path fill-rule="evenodd" clip-rule="evenodd" d="M6 2H18C20.2091 2 22 3.79086 22 6V8H2V6C2 3.79086 3.79086 2 6 2ZM19 5C19 5.55228 18.5523 6 18 6C17.4477 6 17 5.55228 17 5C17 4.44772 17.4477 4 18 4C18.5523 4 19 4.44772 19 5ZM14 6C14.5523 6 15 5.55228 15 5C15 4.44772 14.5523 4 14 4C13.4477 4 13 4.44772 13 5C13 5.55228 13.4477 6 14 6Z" fill="#28303F"/>
</svg>
