<svg width="24" height="24" viewBox="0 0 24 24" fill="none" xmlns="http://www.w3.org/2000/svg">
<path opacity="0.4" fill-rule="evenodd" clip-rule="evenodd" d="M7 6L8.40627 3.8906C8.7772 3.3342 9.40166 3 10.0704 3H13.9296C14.5983 3 15.2228 3.3342 15.5937 3.8906L17 6H18C20.2091 6 22 7.79086 22 10V17C22 19.2091 20.2091 21 18 21H6C3.79086 21 2 19.2091 2 17V10C2 7.79086 3.79086 6 6 6H7ZM12 16.5001C10.3431 16.5001 9 15.1569 9 13.5001C9 12.5597 9.43262 11.7205 10.1097 11.1704L14.3297 15.3904C13.7796 16.0674 12.9403 16.5001 12 16.5001Z" fill="#28303F"/>
<circle cx="12" cy="6" r="1" fill="#28303F"/>
<path fill-rule="evenodd" clip-rule="evenodd" d="M19.6045 20.6652C19.1134 20.8805 18.5706 21 18 21H6C3.79086 21 2 19.2091 2 17V10C2 8.11738 3.30059 6.53854 5.05228 6.11294L1.46967 2.53033C1.17678 2.23744 1.17678 1.76256 1.46967 1.46967C1.76256 1.17678 2.23744 1.17678 2.53033 1.46967L22.5303 21.4697C22.8232 21.7626 22.8232 22.2374 22.5303 22.5303C22.2374 22.8232 21.7626 22.8232 21.4697 22.5303L19.6045 20.6652ZM12 16.5001C10.3431 16.5001 9 15.1569 9 13.5001C9 12.5597 9.43262 11.7205 10.1097 11.1704L14.3297 15.3904C13.7796 16.0674 12.9403 16.5001 12 16.5001Z" fill="#28303F"/>
<path d="M15 13.5C15 11.8431 13.6568 10.5 12 10.5C11.8604 10.5 11.7231 10.5095 11.5886 10.528L14.972 13.9114C14.9905 13.7769 15 13.6396 15 13.5Z" fill="#28303F"/>
</svg>
