<svg width="24" height="24" viewBox="0 0 24 24" fill="none" xmlns="http://www.w3.org/2000/svg">
<path opacity="0.4" d="M2 18V6C2 3.79086 3.79086 2 6 2H18C20.2091 2 22 3.79086 22 6V18C22 20.2091 20.2091 22 18 22H6C3.79086 22 2 20.2091 2 18Z" fill="#28303F"/>
<path fill-rule="evenodd" clip-rule="evenodd" d="M22.5018 2.44254C22.8096 2.71963 22.8346 3.19385 22.5575 3.50173L13.8199 13.0991C12.8454 14.1819 11.1955 14.3168 10.0579 13.4068L6.53151 10.5857C6.20806 10.3269 6.15562 9.85493 6.41438 9.53149C6.67313 9.20804 7.1451 9.1556 7.46855 9.41436L10.995 12.2355C11.512 12.6492 12.262 12.5878 12.705 12.0956L21.4426 2.49828C21.7197 2.1904 22.1939 2.16544 22.5018 2.44254Z" fill="#28303F"/>
</svg>
