<svg width="24" height="24" viewBox="0 0 24 24" fill="none" xmlns="http://www.w3.org/2000/svg">
<path opacity="0.4" d="M2 13C2 11.8954 2.89543 11 4 11H20C21.1046 11 22 11.8954 22 13V17C22 19.2091 20.2091 21 18 21H6C3.79086 21 2 19.2091 2 17V13Z" fill="#28303F"/>
<path d="M4 9C4 7.89543 4.89543 7 6 7H18C19.1046 7 20 7.89543 20 9V11H4V9Z" fill="#28303F"/>
<path opacity="0.4" d="M6 5C6 3.89543 6.89543 3 8 3H16C17.1046 3 18 3.89543 18 5V7H6V5Z" fill="#28303F"/>
<path fill-rule="evenodd" clip-rule="evenodd" d="M9.25 14C9.25 13.5858 9.58579 13.25 10 13.25H14C14.4142 13.25 14.75 13.5858 14.75 14C14.75 14.4142 14.4142 14.75 14 14.75H10C9.58579 14.75 9.25 14.4142 9.25 14Z" fill="#28303F"/>
</svg>
