<svg width="24" height="24" viewBox="0 0 24 24" fill="none" xmlns="http://www.w3.org/2000/svg">
<path fill-rule="evenodd" clip-rule="evenodd" d="M12 16.25C12.4142 16.25 12.75 16.5858 12.75 17V20.5H15C15.4142 20.5 15.75 20.8358 15.75 21.25C15.75 21.6642 15.4142 22 15 22H9C8.58579 22 8.25 21.6642 8.25 21.25C8.25 20.8358 8.58579 20.5 9 20.5H11.25V17C11.25 16.5858 11.5858 16.25 12 16.25Z" fill="#28303F"/>
<path opacity="0.4" d="M2 5C2 3.34315 3.34315 2 5 2H19C20.6569 2 22 3.34315 22 5V15C22 16.6569 20.6569 18 19 18H5C3.34315 18 2 16.6569 2 15V5Z" fill="#28303F"/>
<path d="M5 18H19C20.6569 18 22 16.6569 22 15V14H2V15C2 16.6569 3.34315 18 5 18Z" fill="#28303F"/>
</svg>
