<svg width="24" height="24" viewBox="0 0 24 24" fill="none" xmlns="http://www.w3.org/2000/svg">
<path opacity="0.4" d="M8 6C8 3.79086 9.79086 2 12 2H18C20.2092 2 22 3.79086 22 6V12C22 14.2091 20.2092 16 18 16H13.0079V12H8V6Z" fill="#28303F"/>
<path fill-rule="evenodd" clip-rule="evenodd" d="M6 8C3.79086 8 2 9.79086 2 12V18C2 20.2091 3.79086 22 6 22H12C14.2092 22 16 20.2091 16 18V12C16 9.79086 14.2092 8 12 8H6ZM12.5645 13.6833C12.8372 13.3716 12.8056 12.8978 12.4939 12.625C12.1822 12.3523 11.7084 12.3839 11.4356 12.6956L8.56569 15.9755C8.47759 16.0762 8.32584 16.0896 8.22137 16.0061L6.46855 14.6038C6.1451 14.3451 5.67313 14.3975 5.41438 14.7209C5.15562 15.0444 5.20806 15.5164 5.53151 15.7751L7.28433 17.1774C8.01561 17.7624 9.07786 17.668 9.69455 16.9632L12.5645 13.6833Z" fill="#28303F"/>
</svg>
