<svg width="24" height="24" viewBox="0 0 24 24" fill="none" xmlns="http://www.w3.org/2000/svg">
<path fill-rule="evenodd" clip-rule="evenodd" d="M10 1.25C10.4142 1.25 10.75 1.58579 10.75 2V4H9.25V2C9.25 1.58579 9.58579 1.25 10 1.25ZM14 1.25C14.4142 1.25 14.75 1.58579 14.75 2V4H13.25V2C13.25 1.58579 13.5858 1.25 14 1.25ZM1.25 10C1.25 9.58579 1.58579 9.25 2 9.25H4V10.75H2C1.58579 10.75 1.25 10.4142 1.25 10ZM20 9.25H22C22.4142 9.25 22.75 9.58579 22.75 10C22.75 10.4142 22.4142 10.75 22 10.75H20V9.25ZM1.25 14C1.25 13.5858 1.58579 13.25 2 13.25H4V14.75H2C1.58579 14.75 1.25 14.4142 1.25 14ZM20 13.25H22C22.4142 13.25 22.75 13.5858 22.75 14C22.75 14.4142 22.4142 14.75 22 14.75H20V13.25ZM10.75 20V22C10.75 22.4142 10.4142 22.75 10 22.75C9.58579 22.75 9.25 22.4142 9.25 22V20H10.75ZM14.75 20V22C14.75 22.4142 14.4142 22.75 14 22.75C13.5858 22.75 13.25 22.4142 13.25 22V20H14.75Z" fill="#28303F"/>
<path opacity="0.4" d="M4 8C4 5.79086 5.79086 4 8 4H16C18.2091 4 20 5.79086 20 8V16C20 18.2091 18.2091 20 16 20H8C5.79086 20 4 18.2091 4 16V8Z" fill="#28303F"/>
<rect x="9" y="9" width="6" height="6" rx="2" fill="#28303F"/>
</svg>
