<svg width="24" height="24" viewBox="0 0 24 24" fill="none" xmlns="http://www.w3.org/2000/svg">
<path opacity="0.4" fill-rule="evenodd" clip-rule="evenodd" d="M2.25 21C2.25 20.5858 2.58579 20.25 3 20.25H21C21.4142 20.25 21.75 20.5858 21.75 21C21.75 21.4142 21.4142 21.75 21 21.75H3C2.58579 21.75 2.25 21.4142 2.25 21Z" fill="#28303F"/>
<path d="M7.31963 17.9881L10.7523 17.4977C11.2475 17.427 11.7064 17.1976 12.06 16.8439L18.6883 10.2156C18.6883 10.2156 17.0537 10.2156 15.419 8.58102C13.7844 6.94639 13.7844 5.31177 13.7844 5.31177L7.15616 11.94C6.80248 12.2937 6.57305 12.7526 6.50231 13.2477L6.01193 16.6804C5.90295 17.4433 6.5568 18.0971 7.31963 17.9881Z" fill="#28303F"/>
<path opacity="0.4" d="M20.3229 5.31171L18.6883 3.67708C17.7855 2.77431 16.3218 2.77431 15.4191 3.67708L13.7844 5.31171C13.7844 5.31171 13.7844 6.94634 15.419 8.58096C17.0537 10.2156 18.6883 10.2156 18.6883 10.2156L20.3229 8.58096C21.2257 7.67818 21.2257 6.21449 20.3229 5.31171Z" fill="#28303F"/>
</svg>
