<svg width="24" height="24" viewBox="0 0 24 24" fill="none" xmlns="http://www.w3.org/2000/svg">
<path opacity="0.4" d="M2 6C2 3.79086 3.79086 2 6 2H18C20.2091 2 22 3.79086 22 6V18C22 20.2091 20.2091 22 18 22H6C3.79086 22 2 20.2091 2 18V6Z" fill="#28303F"/>
<path d="M8.5 17C8.5 17.8284 7.82843 18.5 7 18.5C6.17157 18.5 5.5 17.8284 5.5 17C5.5 16.1716 6.17157 15.5 7 15.5C7.82843 15.5 8.5 16.1716 8.5 17Z" fill="#28303F"/>
<path fill-rule="evenodd" clip-rule="evenodd" d="M5.25584 10.9073C5.3071 10.4962 5.68185 10.2046 6.09288 10.2558C10.0845 10.7536 13.2466 13.9156 13.7443 17.9073C13.7956 18.3183 13.5039 18.6931 13.0929 18.7443C12.6819 18.7956 12.3071 18.5039 12.2558 18.0929C11.843 14.7825 9.21764 12.1571 5.90727 11.7443C5.49624 11.6931 5.20459 11.3183 5.25584 10.9073Z" fill="#28303F"/>
<path fill-rule="evenodd" clip-rule="evenodd" d="M5.25 6C5.25 5.58579 5.58579 5.25 6 5.25C13.0416 5.25 18.75 10.9584 18.75 18C18.75 18.4142 18.4142 18.75 18 18.75C17.5858 18.75 17.25 18.4142 17.25 18C17.25 11.7868 12.2132 6.75 6 6.75C5.58579 6.75 5.25 6.41421 5.25 6Z" fill="#28303F"/>
</svg>
