<svg width="24" height="24" viewBox="0 0 24 24" fill="none" xmlns="http://www.w3.org/2000/svg">
<path opacity="0.4" fill-rule="evenodd" clip-rule="evenodd" d="M4 21.75C3.58579 21.75 3.25 21.4142 3.25 21L3.25 14C3.25 13.5858 3.58579 13.25 4 13.25C4.41421 13.25 4.75 13.5858 4.75 14V21C4.75 21.4142 4.41421 21.75 4 21.75Z" fill="#28303F"/>
<path opacity="0.4" fill-rule="evenodd" clip-rule="evenodd" d="M12 21.75C11.5858 21.75 11.25 21.4142 11.25 21L11.25 14C11.25 13.5858 11.5858 13.25 12 13.25C12.4142 13.25 12.75 13.5858 12.75 14L12.75 21C12.75 21.4142 12.4142 21.75 12 21.75Z" fill="#28303F"/>
<path opacity="0.4" fill-rule="evenodd" clip-rule="evenodd" d="M12 6.75C11.5858 6.75 11.25 6.41421 11.25 6L11.25 3C11.25 2.58579 11.5858 2.25 12 2.25C12.4142 2.25 12.75 2.58579 12.75 3L12.75 6C12.75 6.41421 12.4142 6.75 12 6.75Z" fill="#28303F"/>
<path opacity="0.4" fill-rule="evenodd" clip-rule="evenodd" d="M4 10.75C3.58579 10.75 3.25 10.4142 3.25 10L3.25 3C3.25 2.58579 3.58579 2.25 4 2.25C4.41421 2.25 4.75 2.58579 4.75 3L4.75 10C4.75 10.4142 4.41421 10.75 4 10.75Z" fill="#28303F"/>
<path opacity="0.4" fill-rule="evenodd" clip-rule="evenodd" d="M20 10.75C19.5858 10.75 19.25 10.4142 19.25 10L19.25 3C19.25 2.58579 19.5858 2.25 20 2.25C20.4142 2.25 20.75 2.58579 20.75 3L20.75 10C20.75 10.4142 20.4142 10.75 20 10.75Z" fill="#28303F"/>
<path opacity="0.4" fill-rule="evenodd" clip-rule="evenodd" d="M20 21.75C19.5858 21.75 19.25 21.4142 19.25 21L19.25 18C19.25 17.5858 19.5858 17.25 20 17.25C20.4142 17.25 20.75 17.5858 20.75 18L20.75 21C20.75 21.4142 20.4142 21.75 20 21.75Z" fill="#28303F"/>
<path d="M10 7V9C10 10.1046 10.8954 11 12 11C13.1046 11 14 10.1046 14 9V7C14 5.89543 13.1046 5 12 5C10.8954 5 10 5.89543 10 7Z" fill="#28303F"/>
<path d="M2 11V13C2 14.1046 2.89543 15 4 15C5.10457 15 6 14.1046 6 13V11C6 9.89543 5.10457 9 4 9C2.89543 9 2 9.89543 2 11Z" fill="#28303F"/>
<path d="M18 15V17C18 18.1046 18.8954 19 20 19C21.1046 19 22 18.1046 22 17V15C22 13.8954 21.1046 13 20 13C18.8954 13 18 13.8954 18 15Z" fill="#28303F"/>
</svg>
