<svg width="24" height="24" viewBox="0 0 24 24" fill="none" xmlns="http://www.w3.org/2000/svg">
<path opacity="0.4" fill-rule="evenodd" clip-rule="evenodd" d="M2.25 5C2.25 4.58579 2.58579 4.25 3 4.25H11C11.4142 4.25 11.75 4.58579 11.75 5C11.75 5.41421 11.4142 5.75 11 5.75H3C2.58579 5.75 2.25 5.41421 2.25 5Z" fill="#28303F"/>
<path opacity="0.4" fill-rule="evenodd" clip-rule="evenodd" d="M2.25 12C2.25 11.5858 2.58579 11.25 3 11.25H12C12.4142 11.25 12.75 11.5858 12.75 12C12.75 12.4142 12.4142 12.75 12 12.75H3C2.58579 12.75 2.25 12.4142 2.25 12Z" fill="#28303F"/>
<path opacity="0.4" fill-rule="evenodd" clip-rule="evenodd" d="M17.25 12C17.25 11.5858 17.5858 11.25 18 11.25L21 11.25C21.4142 11.25 21.75 11.5858 21.75 12C21.75 12.4142 21.4142 12.75 21 12.75H18C17.5858 12.75 17.25 12.4142 17.25 12Z" fill="#28303F"/>
<path opacity="0.4" fill-rule="evenodd" clip-rule="evenodd" d="M12.25 5C12.25 4.58579 12.5858 4.25 13 4.25L21 4.25C21.4142 4.25 21.75 4.58579 21.75 5C21.75 5.41421 21.4142 5.75 21 5.75L13 5.75C12.5858 5.75 12.25 5.41421 12.25 5Z" fill="#28303F"/>
<path opacity="0.4" fill-rule="evenodd" clip-rule="evenodd" d="M11.25 19C11.25 18.5858 11.5858 18.25 12 18.25L21 18.25C21.4142 18.25 21.75 18.5858 21.75 19C21.75 19.4142 21.4142 19.75 21 19.75L12 19.75C11.5858 19.75 11.25 19.4142 11.25 19Z" fill="#28303F"/>
<path opacity="0.4" fill-rule="evenodd" clip-rule="evenodd" d="M2.25 19C2.25 18.5858 2.58579 18.25 3 18.25H6C6.41421 18.25 6.75 18.5858 6.75 19C6.75 19.4142 6.41421 19.75 6 19.75H3C2.58579 19.75 2.25 19.4142 2.25 19Z" fill="#28303F"/>
<circle cx="7" cy="19" r="2" fill="#28303F"/>
<circle cx="17" cy="12" r="2" fill="#28303F"/>
<circle cx="12" cy="5" r="2" fill="#28303F"/>
</svg>
