<svg width="24" height="24" viewBox="0 0 24 24" fill="none" xmlns="http://www.w3.org/2000/svg">
<path fill-rule="evenodd" clip-rule="evenodd" d="M4.00076 8.45034C4.00025 8.40902 4 8.36763 4 8.32617H4.00966C4.00506 8.36738 4.00208 8.40877 4.00076 8.45034ZM4.00403 8.6126C4.10623 12.2406 6.14306 15.3235 9 16.6157V20.0108C9 21.4876 10.5646 22.4481 11.8944 21.7877L13.8944 20.7944C14.572 20.4579 15 19.77 15 19.0176V16.6157C17.9318 15.2896 20 12.0778 20 8.32617H19.9903C19.9949 8.36763 19.9979 8.40927 19.9992 8.45109C19.9985 8.50479 19.9975 8.55838 19.996 8.61185C19.861 10.4931 16.3327 12 12 12C7.6678 12 4.1399 10.4935 4.00403 8.6126Z" fill="#28303F"/>
<ellipse opacity="0.4" cx="12" cy="8.5" rx="8" ry="3.5" fill="#28303F"/>
<path fill-rule="evenodd" clip-rule="evenodd" d="M14 4.25C14.4142 4.25 14.75 4.58579 14.75 5V7C14.75 7.41421 14.4142 7.75 14 7.75C13.5858 7.75 13.25 7.41421 13.25 7V5C13.25 4.58579 13.5858 4.25 14 4.25Z" fill="#28303F"/>
<path fill-rule="evenodd" clip-rule="evenodd" d="M10 6.25C10.4142 6.25 10.75 6.58579 10.75 7V8C10.75 8.41421 10.4142 8.75 10 8.75C9.58579 8.75 9.25 8.41421 9.25 8V7C9.25 6.58579 9.58579 6.25 10 6.25Z" fill="#28303F"/>
<path fill-rule="evenodd" clip-rule="evenodd" d="M10 1.25C10.4142 1.25 10.75 1.58579 10.75 2V4C10.75 4.41421 10.4142 4.75 10 4.75C9.58579 4.75 9.25 4.41421 9.25 4V2C9.25 1.58579 9.58579 1.25 10 1.25Z" fill="#28303F"/>
</svg>
