<svg width="24" height="24" viewBox="0 0 24 24" fill="none" xmlns="http://www.w3.org/2000/svg">
<path opacity="0.4" fill-rule="evenodd" clip-rule="evenodd" d="M5 21.75C4.58579 21.75 4.25 21.4142 4.25 21L4.25 13C4.25 12.5858 4.58579 12.25 5 12.25C5.41421 12.25 5.75 12.5858 5.75 13L5.75 21C5.75 21.4142 5.41421 21.75 5 21.75Z" fill="#28303F"/>
<path opacity="0.4" fill-rule="evenodd" clip-rule="evenodd" d="M12 21.75C11.5858 21.75 11.25 21.4142 11.25 21L11.25 12C11.25 11.5858 11.5858 11.25 12 11.25C12.4142 11.25 12.75 11.5858 12.75 12L12.75 21C12.75 21.4142 12.4142 21.75 12 21.75Z" fill="#28303F"/>
<path opacity="0.4" fill-rule="evenodd" clip-rule="evenodd" d="M12 6.75C11.5858 6.75 11.25 6.41421 11.25 6L11.25 3C11.25 2.58579 11.5858 2.25 12 2.25C12.4142 2.25 12.75 2.58579 12.75 3L12.75 6C12.75 6.41421 12.4142 6.75 12 6.75Z" fill="#28303F"/>
<path opacity="0.4" fill-rule="evenodd" clip-rule="evenodd" d="M5 11.75C4.58579 11.75 4.25 11.4142 4.25 11L4.25 3C4.25 2.58579 4.58579 2.25 5 2.25C5.41421 2.25 5.75 2.58579 5.75 3L5.75 11C5.75 11.4142 5.41421 11.75 5 11.75Z" fill="#28303F"/>
<path opacity="0.4" fill-rule="evenodd" clip-rule="evenodd" d="M19 12.75C18.5858 12.75 18.25 12.4142 18.25 12L18.25 3C18.25 2.58579 18.5858 2.25 19 2.25C19.4142 2.25 19.75 2.58579 19.75 3L19.75 12C19.75 12.4142 19.4142 12.75 19 12.75Z" fill="#28303F"/>
<path opacity="0.4" fill-rule="evenodd" clip-rule="evenodd" d="M19 21.75C18.5858 21.75 18.25 21.4142 18.25 21L18.25 18C18.25 17.5858 18.5858 17.25 19 17.25C19.4142 17.25 19.75 17.5858 19.75 18L19.75 21C19.75 21.4142 19.4142 21.75 19 21.75Z" fill="#28303F"/>
<circle cx="19" cy="17" r="2" transform="rotate(-90 19 17)" fill="#28303F"/>
<circle cx="12" cy="7" r="2" transform="rotate(-90 12 7)" fill="#28303F"/>
<circle cx="5" cy="12" r="2" transform="rotate(-90 5 12)" fill="#28303F"/>
</svg>
