<svg width="24" height="24" viewBox="0 0 24 24" fill="none" xmlns="http://www.w3.org/2000/svg">
<path opacity="0.4" fill-rule="evenodd" clip-rule="evenodd" d="M7 21.75C6.58579 21.75 6.25 21.4142 6.25 21L6.25 16C6.25 15.5858 6.58579 15.25 7 15.25C7.41421 15.25 7.75 15.5858 7.75 16L7.75 21C7.75 21.4142 7.41421 21.75 7 21.75Z" fill="#28303F"/>
<path opacity="0.4" fill-rule="evenodd" clip-rule="evenodd" d="M7 6.75C6.58579 6.75 6.25 6.41421 6.25 6L6.25 3C6.25 2.58579 6.58579 2.25 7 2.25C7.41421 2.25 7.75 2.58579 7.75 3L7.75 6C7.75 6.41421 7.41421 6.75 7 6.75Z" fill="#28303F"/>
<path opacity="0.4" fill-rule="evenodd" clip-rule="evenodd" d="M17 8.75C16.5858 8.75 16.25 8.41421 16.25 8L16.25 3C16.25 2.58579 16.5858 2.25 17 2.25C17.4142 2.25 17.75 2.58579 17.75 3L17.75 8C17.75 8.41421 17.4142 8.75 17 8.75Z" fill="#28303F"/>
<path opacity="0.4" fill-rule="evenodd" clip-rule="evenodd" d="M17 21.75C16.5858 21.75 16.25 21.4142 16.25 21L16.25 18C16.25 17.5858 16.5858 17.25 17 17.25C17.4142 17.25 17.75 17.5858 17.75 18L17.75 21C17.75 21.4142 17.4142 21.75 17 21.75Z" fill="#28303F"/>
<path d="M4 8V10C4 11.6569 5.34315 13 7 13C8.65685 13 10 11.6569 10 10V8C10 6.34315 8.65685 5 7 5C5.34315 5 4 6.34315 4 8Z" fill="#28303F"/>
<path d="M14 14V16C14 17.6569 15.3431 19 17 19C18.6569 19 20 17.6569 20 16V14C20 12.3431 18.6569 11 17 11C15.3431 11 14 12.3431 14 14Z" fill="#28303F"/>
</svg>
