<svg width="24" height="24" viewBox="0 0 24 24" fill="none" xmlns="http://www.w3.org/2000/svg">
<path opacity="0.4" fill-rule="evenodd" clip-rule="evenodd" d="M2.25 7C2.25 6.58579 2.58579 6.25 3 6.25L8 6.25C8.41421 6.25 8.75 6.58579 8.75 7C8.75 7.41421 8.41421 7.75 8 7.75L3 7.75C2.58579 7.75 2.25 7.41421 2.25 7Z" fill="#28303F"/>
<path opacity="0.4" fill-rule="evenodd" clip-rule="evenodd" d="M17.25 7C17.25 6.58579 17.5858 6.25 18 6.25L21 6.25C21.4142 6.25 21.75 6.58579 21.75 7C21.75 7.41421 21.4142 7.75 21 7.75L18 7.75C17.5858 7.75 17.25 7.41421 17.25 7Z" fill="#28303F"/>
<path opacity="0.4" fill-rule="evenodd" clip-rule="evenodd" d="M15.25 17C15.25 16.5858 15.5858 16.25 16 16.25L21 16.25C21.4142 16.25 21.75 16.5858 21.75 17C21.75 17.4142 21.4142 17.75 21 17.75L16 17.75C15.5858 17.75 15.25 17.4142 15.25 17Z" fill="#28303F"/>
<path opacity="0.4" fill-rule="evenodd" clip-rule="evenodd" d="M2.25 17C2.25 16.5858 2.58579 16.25 3 16.25L6 16.25C6.41421 16.25 6.75 16.5858 6.75 17C6.75 17.4142 6.41421 17.75 6 17.75L3 17.75C2.58579 17.75 2.25 17.4142 2.25 17Z" fill="#28303F"/>
<path d="M16 4L14 4C12.3431 4 11 5.34315 11 7C11 8.65685 12.3431 10 14 10H16C17.6569 10 19 8.65685 19 7C19 5.34315 17.6569 4 16 4Z" fill="#28303F"/>
<path d="M10 14L8 14C6.34315 14 5 15.3431 5 17C5 18.6569 6.34315 20 8 20H10C11.6569 20 13 18.6569 13 17C13 15.3431 11.6569 14 10 14Z" fill="#28303F"/>
</svg>
