<svg width="24" height="24" viewBox="0 0 24 24" fill="none" xmlns="http://www.w3.org/2000/svg">
<path opacity="0.4" fill-rule="evenodd" clip-rule="evenodd" d="M12 4.18718C11.1554 2.87162 9.67947 2 8 2C6.48122 2 5.25 3.23122 5.25 4.75C5.25 6.26878 6.48122 7.5 8 7.5H12H16C17.5188 7.5 18.75 6.26878 18.75 4.75C18.75 3.23122 17.5188 2 16 2C14.3205 2 12.8446 2.87162 12 4.18718ZM8 6H11.163C10.8245 4.56665 9.53679 3.5 8 3.5C7.30964 3.5 6.75 4.05964 6.75 4.75C6.75 5.44036 7.30964 6 8 6ZM16 6H12.837C13.1755 4.56665 14.4632 3.5 16 3.5C16.6904 3.5 17.25 4.05964 17.25 4.75C17.25 5.44036 16.6904 6 16 6Z" fill="#28303F"/>
<path d="M2 8C2 6.89543 2.89543 6 4 6H20C21.1046 6 22 6.89543 22 8V10C22 11.1046 21.1046 12 20 12H4C2.89543 12 2 11.1046 2 10V8Z" fill="#28303F"/>
<path opacity="0.4" d="M4 12H20V20C20 21.1046 19.1046 22 18 22H6C4.89543 22 4 21.1046 4 20V12Z" fill="#28303F"/>
</svg>
