<svg width="24" height="24" viewBox="0 0 24 24" fill="none" xmlns="http://www.w3.org/2000/svg">
<path opacity="0.4" d="M22 12C22 12.6404 21.9398 13.2668 21.8247 13.8738C20.9476 18.501 16.8824 22 12 22C7.22233 22 3.2272 18.6495 2.23609 14.17C2.08151 13.4713 2 12.7452 2 12C2 6.47715 6.47715 2 12 2C17.5228 2 22 6.47715 22 12Z" fill="#28303F"/>
<path d="M9.95208 15.843L14.0479 12.1567C15.4467 10.8978 17.5338 10.7842 19.061 11.8838L21.8247 13.8737C20.9476 18.5009 16.8824 21.9999 12 21.9999C7.22232 21.9999 3.2272 18.6494 2.23608 14.1698L4.939 16.1159C6.46619 17.2155 8.55331 17.1019 9.95208 15.843Z" fill="#28303F"/>
<circle cx="9" cy="9" r="2" fill="#28303F"/>
</svg>
