<svg width="24" height="24" viewBox="0 0 24 24" fill="none" xmlns="http://www.w3.org/2000/svg">
<path opacity="0.4" d="M2 6C2 3.79086 3.79086 2 6 2H18C20.2091 2 22 3.79086 22 6V18C22 20.2091 20.2091 22 18 22H6C3.79086 22 2 20.2091 2 18V6Z" fill="#28303F"/>
<path d="M6 21.9999H18C20.2091 21.9999 22 20.209 22 17.9999V13.9999L19.061 11.8838C17.5338 10.7842 15.4467 10.8978 14.0479 12.1567L9.95209 15.843C8.55331 17.1019 6.4662 17.2155 4.93901 16.1159L2 13.9999V17.9999C2 20.209 3.79086 21.9999 6 21.9999Z" fill="#28303F"/>
<circle cx="8.5" cy="8.5" r="2.5" fill="#28303F"/>
</svg>
