<svg width="24" height="24" viewBox="0 0 24 24" fill="none" xmlns="http://www.w3.org/2000/svg">
<path opacity="0.4" d="M6 2H18C20.2091 2 22 3.79086 22 6V18C22 20.2091 20.2091 22 18 22H6C3.79086 22 2 20.2091 2 18V6C2 3.79086 3.79086 2 6 2Z" fill="#28303F"/>
<path fill-rule="evenodd" clip-rule="evenodd" d="M12 7.25C12.4142 7.25 12.75 7.58579 12.75 8V9C12.75 9.41421 12.4142 9.75 12 9.75C11.5858 9.75 11.25 9.41421 11.25 9V8C11.25 7.58579 11.5858 7.25 12 7.25ZM12 10.75C12.4142 10.75 12.75 11.0858 12.75 11.5V16C12.75 16.4142 12.4142 16.75 12 16.75C11.5858 16.75 11.25 16.4142 11.25 16V11.5C11.25 11.0858 11.5858 10.75 12 10.75Z" fill="#28303F"/>
</svg>
