<svg width="24" height="24" viewBox="0 0 24 24" fill="none" xmlns="http://www.w3.org/2000/svg">
<path opacity="0.4" d="M19 2H5C3.89543 2 3 2.89543 3 4V20.1994C3 21.3008 4.14741 22.0266 5.14262 21.5548L7.16507 20.5959C7.69479 20.3447 8.30803 20.3386 8.84263 20.5792L11.1793 21.6307C11.7012 21.8655 12.2988 21.8655 12.8207 21.6307L15.1574 20.5792C15.692 20.3386 16.3052 20.3447 16.8349 20.5959L18.8574 21.5548C19.8526 22.0266 21 21.3008 21 20.1994V4C21 2.89543 20.1046 2 19 2Z" fill="#28303F"/>
<path fill-rule="evenodd" clip-rule="evenodd" d="M7.25 7C7.25 6.58579 7.58579 6.25 8 6.25H12C12.4142 6.25 12.75 6.58579 12.75 7C12.75 7.41421 12.4142 7.75 12 7.75H8C7.58579 7.75 7.25 7.41421 7.25 7ZM7.25 11C7.25 10.5858 7.58579 10.25 8 10.25H16C16.4142 10.25 16.75 10.5858 16.75 11C16.75 11.4142 16.4142 11.75 16 11.75H8C7.58579 11.75 7.25 11.4142 7.25 11ZM7.25 15C7.25 14.5858 7.58579 14.25 8 14.25H16C16.4142 14.25 16.75 14.5858 16.75 15C16.75 15.4142 16.4142 15.75 16 15.75H8C7.58579 15.75 7.25 15.4142 7.25 15Z" fill="#28303F"/>
</svg>
