<svg width="24" height="24" viewBox="0 0 24 24" fill="none" xmlns="http://www.w3.org/2000/svg">
<path d="M22 16V7.99997C22 6.34311 21.3284 4.84311 20.2426 3.75732L14.8284 9.17154C15.5523 9.8954 16 10.8954 16 12C16 13.1045 15.5523 14.1045 14.8284 14.8284L20.2426 20.2426C21.3284 19.1568 22 17.6568 22 16Z" fill="#28303F"/>
<path d="M2 7.99997V16C2 17.6568 2.67157 19.1568 3.75736 20.2426L9.17157 14.8284C8.44772 14.1045 8 13.1045 8 12C8 10.8954 8.44772 9.89539 9.17157 9.17154L3.75736 3.75732C2.67157 4.84311 2 6.34311 2 7.99997Z" fill="#28303F"/>
<g opacity="0.4">
<path d="M16 2H7.99997C6.34311 2 4.84311 2.67157 3.75732 3.75736L9.17154 9.17157C9.8954 8.44771 10.8954 8 12 8C13.1045 8 14.1045 8.44772 14.8284 9.17157L20.2426 3.75736C19.1568 2.67157 17.6568 2 16 2Z" fill="#28303F"/>
<path d="M7.99997 22H16C17.6568 22 19.1568 21.3284 20.2426 20.2426L14.8284 14.8284C14.1045 15.5523 13.1045 16 12 16C10.8954 16 9.8954 15.5523 9.17154 14.8284L3.75732 20.2426C4.84311 21.3284 6.34311 22 7.99997 22Z" fill="#28303F"/>
</g>
</svg>
