<svg width="24" height="24" viewBox="0 0 24 24" fill="none" xmlns="http://www.w3.org/2000/svg">
<path d="M4.5 10.5C3.11929 10.5 2 9.38071 2 8C2 6.61929 3.11929 5.5 4.5 5.5C5.88071 5.5 7 6.61929 7 8C7 9.38071 5.88071 10.5 4.5 10.5Z" fill="#28303F"/>
<path opacity="0.4" d="M4.5 18.5C3.11929 18.5 2 17.3807 2 16C2 14.6193 3.11929 13.5 4.5 13.5C5.88071 13.5 7 14.6193 7 16C7 17.3807 5.88071 18.5 4.5 18.5Z" fill="#28303F"/>
<path opacity="0.4" fill-rule="evenodd" clip-rule="evenodd" d="M9.25 6.25C9.25 5.83579 9.58579 5.5 10 5.5L16 5.5C16.4142 5.5 16.75 5.83579 16.75 6.25C16.75 6.66421 16.4142 7 16 7L10 7C9.58579 7 9.25 6.66421 9.25 6.25Z" fill="#28303F"/>
<path fill-rule="evenodd" clip-rule="evenodd" d="M9.25 14.25C9.25 13.8358 9.58579 13.5 10 13.5H16C16.4142 13.5 16.75 13.8358 16.75 14.25C16.75 14.6642 16.4142 15 16 15H10C9.58579 15 9.25 14.6642 9.25 14.25Z" fill="#28303F"/>
<path opacity="0.4" fill-rule="evenodd" clip-rule="evenodd" d="M9.25 9.75C9.25 9.33579 9.58579 9 10 9L22 9C22.4142 9 22.75 9.33579 22.75 9.75C22.75 10.1642 22.4142 10.5 22 10.5L10 10.5C9.58579 10.5 9.25 10.1642 9.25 9.75Z" fill="#28303F"/>
<path fill-rule="evenodd" clip-rule="evenodd" d="M9.25 17.75C9.25 17.3358 9.58579 17 10 17H22C22.4142 17 22.75 17.3358 22.75 17.75C22.75 18.1642 22.4142 18.5 22 18.5H10C9.58579 18.5 9.25 18.1642 9.25 17.75Z" fill="#28303F"/>
</svg>
