<svg width="24" height="24" viewBox="0 0 24 24" fill="none" xmlns="http://www.w3.org/2000/svg">
<path opacity="0.4" fill-rule="evenodd" clip-rule="evenodd" d="M12 1.25C12.4142 1.25 12.75 1.58579 12.75 2V5C12.75 5.41421 12.4142 5.75 12 5.75C11.5858 5.75 11.25 5.41421 11.25 5V2C11.25 1.58579 11.5858 1.25 12 1.25Z" fill="#28303F"/>
<path opacity="0.4" fill-rule="evenodd" clip-rule="evenodd" d="M12 18.25C12.4142 18.25 12.75 18.5858 12.75 19V22C12.75 22.4142 12.4142 22.75 12 22.75C11.5858 22.75 11.25 22.4142 11.25 22V19C11.25 18.5858 11.5858 18.25 12 18.25Z" fill="#28303F"/>
<path opacity="0.4" fill-rule="evenodd" clip-rule="evenodd" d="M4.39849 4.39838C4.69139 4.10549 5.16626 4.10549 5.45915 4.39838L7.58047 6.5197C7.87337 6.81259 7.87337 7.28747 7.58047 7.58036C7.28758 7.87325 6.81271 7.87325 6.51981 7.58036L4.39849 5.45904C4.1056 5.16615 4.1056 4.69127 4.39849 4.39838Z" fill="#28303F"/>
<path opacity="0.4" fill-rule="evenodd" clip-rule="evenodd" d="M16.4195 16.4194C16.7124 16.1265 17.1873 16.1265 17.4802 16.4194L19.6015 18.5407C19.8944 18.8336 19.8944 19.3085 19.6015 19.6014C19.3086 19.8943 18.8337 19.8943 18.5408 19.6014L16.4195 17.48C16.1266 17.1871 16.1266 16.7123 16.4195 16.4194Z" fill="#28303F"/>
<path opacity="0.4" fill-rule="evenodd" clip-rule="evenodd" d="M22.75 12C22.75 12.4142 22.4142 12.75 22 12.75L19 12.75C18.5858 12.75 18.25 12.4142 18.25 12C18.25 11.5858 18.5858 11.25 19 11.25L22 11.25C22.4142 11.25 22.75 11.5858 22.75 12Z" fill="#28303F"/>
<path opacity="0.4" fill-rule="evenodd" clip-rule="evenodd" d="M5.75 12C5.75 12.4142 5.41421 12.75 5 12.75L2 12.75C1.58579 12.75 1.25 12.4142 1.25 12C1.25 11.5858 1.58579 11.25 2 11.25L5 11.25C5.41421 11.25 5.75 11.5858 5.75 12Z" fill="#28303F"/>
<path fill-rule="evenodd" clip-rule="evenodd" d="M19.6014 4.39849C19.8943 4.69139 19.8943 5.16626 19.6014 5.45915L17.4801 7.58047C17.1872 7.87337 16.7123 7.87337 16.4194 7.58047C16.1265 7.28758 16.1265 6.81271 16.4194 6.51981L18.5407 4.39849C18.8336 4.1056 19.3085 4.1056 19.6014 4.39849Z" fill="#28303F"/>
<path opacity="0.4" fill-rule="evenodd" clip-rule="evenodd" d="M7.58062 16.4195C7.87352 16.7124 7.87352 17.1873 7.58062 17.4802L5.4593 19.6015C5.16641 19.8944 4.69154 19.8944 4.39864 19.6015C4.10575 19.3086 4.10575 18.8337 4.39864 18.5408L6.51996 16.4195C6.81286 16.1266 7.28773 16.1266 7.58062 16.4195Z" fill="#28303F"/>
</svg>
