<svg width="24" height="24" viewBox="0 0 24 24" fill="none" xmlns="http://www.w3.org/2000/svg">
<path fill-rule="evenodd" clip-rule="evenodd" d="M15.8534 10.2803C16.1463 9.98744 16.1463 9.51256 15.8534 9.21967C15.5605 8.92678 15.0857 8.92678 14.7928 9.21967L13.4999 10.5126C12.8164 11.196 12.8165 12.304 13.4999 12.9874L14.7928 14.2803C15.0857 14.5732 15.5605 14.5732 15.8534 14.2803C16.1463 13.9874 16.1463 13.5126 15.8534 13.2197L15.1338 12.5L21.2499 12.5C21.6641 12.5 21.9999 12.1642 21.9999 11.75C21.9999 11.3358 21.6641 11 21.2499 11L15.1338 11L15.8534 10.2803Z" fill="#28303F"/>
<path fill-rule="evenodd" clip-rule="evenodd" d="M6.75 20.5H14C16.6234 20.5 18.75 18.3734 18.75 15.75C18.75 15.3358 18.4142 15 18 15C17.5858 15 17.25 15.3358 17.25 15.75C17.25 17.5449 15.7949 19 14 19H10.2141C9.34758 19.9233 8.11614 20.5 6.75 20.5ZM10.2141 4.5H14C15.7949 4.5 17.25 5.95507 17.25 7.75C17.25 8.16421 17.5858 8.5 18 8.5C18.4142 8.5 18.75 8.16421 18.75 7.75C18.75 5.12665 16.6234 3 14 3H6.75C8.11614 3 9.34758 3.57673 10.2141 4.5Z" fill="#28303F"/>
<path opacity="0.4" fill-rule="evenodd" clip-rule="evenodd" d="M2 7.75C2 5.12665 4.12665 3 6.75 3C9.37335 3 11.5 5.12665 11.5 7.75V15.75C11.5 18.3734 9.37335 20.5 6.75 20.5C4.12665 20.5 2 18.3734 2 15.75V7.75Z" fill="#28303F"/>
</svg>
