<svg width="24" height="24" viewBox="0 0 24 24" fill="none" xmlns="http://www.w3.org/2000/svg">
<path fill-rule="evenodd" clip-rule="evenodd" d="M15.8661 10.2803C16.159 9.98744 16.159 9.51256 15.8661 9.21967C15.5732 8.92678 15.0984 8.92678 14.8055 9.21967L13.5126 10.5126C12.8291 11.196 12.8291 12.304 13.5126 12.9874L14.8055 14.2803C15.0983 14.5732 15.5732 14.5732 15.8661 14.2803C16.159 13.9874 16.159 13.5126 15.8661 13.2197L15.1464 12.5L20.3358 12.5C20.75 12.5 21.0858 12.1642 21.0858 11.75C21.0858 11.3358 20.75 11 20.3358 11L15.1464 11L15.8661 10.2803Z" fill="#28303F"/>
<path fill-rule="evenodd" clip-rule="evenodd" d="M11 4.51611L14 4.51612C15.5188 4.51612 16.75 5.74734 16.75 7.26612C16.75 7.68033 16.4142 8.01612 16 8.01612C15.5858 8.01612 15.25 7.68033 15.25 7.26612C15.25 6.57576 14.6904 6.01612 14 6.01612L11 6.01611V4.51611ZM16 16.5161C16.4142 16.5161 16.75 16.8519 16.75 17.2661C16.75 18.7849 15.5188 20.0161 14 20.0161H11V18.5161H14C14.6904 18.5161 15.25 17.9565 15.25 17.2661C15.25 16.8519 15.5858 16.5161 16 16.5161Z" fill="#28303F"/>
<path opacity="0.4" d="M3 5.99676C3 5.27511 3.38195 4.60121 4.01783 4.20091L7.44642 2.36612C8.9654 1.40989 11 2.43812 11 4.16198V19.838C11 21.5619 8.9654 22.5901 7.44642 21.6339L4.01785 19.7959C3.38196 19.3956 3.00002 18.7217 3.00002 18L3 5.99676Z" fill="#28303F"/>
</svg>
