<svg width="24" height="24" viewBox="0 0 24 24" fill="none" xmlns="http://www.w3.org/2000/svg">
<path fill-rule="evenodd" clip-rule="evenodd" d="M19.1464 13.4394C18.8536 13.7323 18.8536 14.2072 19.1464 14.5001C19.4393 14.7929 19.9142 14.7929 20.2071 14.5001L21.5 13.2072C22.1834 12.5237 22.1834 11.4157 21.5 10.7323L20.2071 9.4394C19.9142 9.1465 19.4393 9.1465 19.1464 9.4394C18.8536 9.73229 18.8536 10.2072 19.1464 10.5001L19.8661 11.2197H13.75C13.3358 11.2197 13 11.5555 13 11.9697C13 12.3839 13.3358 12.7197 13.75 12.7197H19.8661L19.1464 13.4394Z" fill="#28303F"/>
<path fill-rule="evenodd" clip-rule="evenodd" d="M6.75 20.75H14C16.6234 20.75 18.75 18.6234 18.75 16C18.75 15.5858 18.4142 15.25 18 15.25C17.5858 15.25 17.25 15.5858 17.25 16C17.25 17.7949 15.7949 19.25 14 19.25H10.2141C9.34758 20.1733 8.11614 20.75 6.75 20.75ZM10.2141 4.75H14C15.7949 4.75 17.25 6.20507 17.25 8C17.25 8.41421 17.5858 8.75 18 8.75C18.4142 8.75 18.75 8.41421 18.75 8C18.75 5.37665 16.6234 3.25 14 3.25H6.75C8.11614 3.25 9.34758 3.82673 10.2141 4.75Z" fill="#28303F"/>
<path opacity="0.4" fill-rule="evenodd" clip-rule="evenodd" d="M2 8C2 5.37665 4.12665 3.25 6.75 3.25C9.37335 3.25 11.5 5.37665 11.5 8V16C11.5 18.6234 9.37335 20.75 6.75 20.75C4.12665 20.75 2 18.6234 2 16V8Z" fill="#28303F"/>
</svg>
