<svg width="24" height="24" viewBox="0 0 24 24" fill="none" xmlns="http://www.w3.org/2000/svg">
<path opacity="0.4" d="M12.6851 5.00006L12 5.7026L11.315 5.00008C9.18404 2.81479 5.72912 2.81479 3.5982 5.00008C1.5245 7.12668 1.46078 10.5539 3.45393 12.76L9.18026 19.0982C10.7015 20.7821 13.2984 20.7821 14.8197 19.0982L20.5461 12.76C22.5392 10.5539 22.4755 7.12666 20.4018 5.00006C18.2709 2.81477 14.816 2.81478 12.6851 5.00006Z" fill="#28303F"/>
<path fill-rule="evenodd" clip-rule="evenodd" d="M16.25 6.5C16.25 6.08579 16.5858 5.75 17 5.75C18.5188 5.75 19.75 6.98122 19.75 8.5C19.75 8.91421 19.4142 9.25 19 9.25C18.5858 9.25 18.25 8.91421 18.25 8.5C18.25 7.80964 17.6904 7.25 17 7.25C16.5858 7.25 16.25 6.91421 16.25 6.5Z" fill="#28303F"/>
</svg>
