<svg width="24" height="24" viewBox="0 0 24 24" fill="none" xmlns="http://www.w3.org/2000/svg">
<path opacity="0.4" d="M7 7C7 4.23858 9.23858 2 12 2C14.7614 2 17 4.23858 17 7V14C17 16.7614 14.7614 19 12 19C9.23858 19 7 16.7614 7 14V7Z" fill="#28303F"/>
<path d="M4.75 12C4.75 11.5858 4.41421 11.25 4 11.25C3.58579 11.25 3.25 11.5858 3.25 12V14C3.25 18.8325 7.16751 22.75 12 22.75C14.6553 22.75 17.0344 21.5672 18.6391 19.6998L20.4697 21.5303C20.7626 21.8232 21.2374 21.8232 21.5303 21.5303C21.8232 21.2374 21.8232 20.7626 21.5303 20.4697L3.53033 2.46967C3.23744 2.17678 2.76256 2.17678 2.46967 2.46967C2.17678 2.76256 2.17678 3.23744 2.46967 3.53033L7 8V14C7 16.7614 9.23858 19 12 19C13.6202 19 15.0604 18.2294 15.9741 17.0347L17.5748 18.6354C16.2449 20.2331 14.2412 21.25 12 21.25C7.99594 21.25 4.75 18.0041 4.75 14V12Z" fill="#28303F"/>
<path opacity="0.4" d="M19.2501 14V12C19.2501 11.5858 19.5859 11.25 20.0001 11.25C20.4143 11.25 20.7501 11.5858 20.7501 12V14C20.7501 15.6313 20.3037 17.1583 19.5264 18.4656L18.4243 17.3635C18.9517 16.3583 19.2501 15.214 19.2501 14Z" fill="#28303F"/>
</svg>
