<svg width="24" height="24" viewBox="0 0 24 24" fill="none" xmlns="http://www.w3.org/2000/svg">
<path opacity="0.4" d="M7 7C7 4.23858 9.23858 2 12 2C14.7614 2 17 4.23858 17 7V14C17 16.7614 14.7614 19 12 19C9.23858 19 7 16.7614 7 14V7Z" fill="#28303F"/>
<path fill-rule="evenodd" clip-rule="evenodd" d="M12.25 8C12.25 7.58579 12.5858 7.25 13 7.25H17V8.75H13C12.5858 8.75 12.25 8.41421 12.25 8ZM12.25 13C12.25 12.5858 12.5858 12.25 13 12.25H17V13.75H13C12.5858 13.75 12.25 13.4142 12.25 13Z" fill="#28303F"/>
<path fill-rule="evenodd" clip-rule="evenodd" d="M4 11.25C4.41421 11.25 4.75 11.5858 4.75 12V14C4.75 18.0041 7.99594 21.25 12 21.25C16.0041 21.25 19.25 18.0041 19.25 14V12C19.25 11.5858 19.5858 11.25 20 11.25C20.4142 11.25 20.75 11.5858 20.75 12V14C20.75 18.8325 16.8325 22.75 12 22.75C7.16751 22.75 3.25 18.8325 3.25 14V12C3.25 11.5858 3.58579 11.25 4 11.25Z" fill="#28303F"/>
</svg>
