<svg width="24" height="24" viewBox="0 0 24 24" fill="none" xmlns="http://www.w3.org/2000/svg">
<path opacity="0.4" d="M8 6C8 3.79086 9.79086 2 12 2C14.2091 2 16 3.79086 16 6V12C16 14.2091 14.2091 16 12 16C9.79086 16 8 14.2091 8 12V6Z" fill="#28303F"/>
<path d="M8 12C8 14.2091 9.79086 16 12 16C12.8978 16 13.7266 15.7042 14.3941 15.2047L15.9956 16.8062C14.9123 17.7078 13.5195 18.25 12 18.25C8.54822 18.25 5.75 15.4518 5.75 12V11C5.75 10.5858 5.41421 10.25 5 10.25C4.58579 10.25 4.25 10.5858 4.25 11V12C4.25 16.0272 7.3217 19.3369 11.25 19.7142V21.25H9C8.58579 21.25 8.25 21.5858 8.25 22C8.25 22.4142 8.58579 22.75 9 22.75H15C15.4142 22.75 15.75 22.4142 15.75 22C15.75 21.5858 15.4142 21.25 15 21.25H12.75V19.7142C14.3895 19.5567 15.8798 18.8885 17.0598 17.8705L20.4697 21.2803C20.7626 21.5732 21.2374 21.5732 21.5303 21.2803C21.8232 20.9874 21.8232 20.5126 21.5303 20.2197L3.53033 2.21967C3.23744 1.92678 2.76256 1.92678 2.46967 2.21967C2.17678 2.51256 2.17678 2.98744 2.46967 3.28033L8 8.81066V12Z" fill="#28303F"/>
<path opacity="0.4" d="M19.7499 12V11C19.7499 10.5858 19.4142 10.25 18.9999 10.25C18.5857 10.25 18.2499 10.5858 18.2499 11V12C18.2499 13.3916 17.7952 14.6769 17.0261 15.7155L18.0963 16.7857C19.1321 15.468 19.7499 13.8061 19.7499 12Z" fill="#28303F"/>
</svg>
