<svg width="24" height="24" viewBox="0 0 24 24" fill="none" xmlns="http://www.w3.org/2000/svg">
<path opacity="0.4" d="M8 6C8 3.79086 9.79086 2 12 2C14.2091 2 16 3.79086 16 6V12C16 14.2091 14.2091 16 12 16C9.79086 16 8 14.2091 8 12V6Z" fill="#28303F"/>
<path fill-rule="evenodd" clip-rule="evenodd" d="M5.75 11C5.75 10.5858 5.41421 10.25 5 10.25C4.58579 10.25 4.25 10.5858 4.25 11V12C4.25 16.0272 7.3217 19.3369 11.25 19.7142V21.25H9C8.58579 21.25 8.25 21.5858 8.25 22C8.25 22.4142 8.58579 22.75 9 22.75H15C15.4142 22.75 15.75 22.4142 15.75 22C15.75 21.5858 15.4142 21.25 15 21.25H12.75V19.7142C16.6783 19.3369 19.75 16.0272 19.75 12V11C19.75 10.5858 19.4142 10.25 19 10.25C18.5858 10.25 18.25 10.5858 18.25 11V12C18.25 15.4518 15.4518 18.25 12 18.25C8.54822 18.25 5.75 15.4518 5.75 12V11Z" fill="#28303F"/>
</svg>
