<svg width="24" height="24" viewBox="0 0 24 24" fill="none" xmlns="http://www.w3.org/2000/svg">
<path opacity="0.4" d="M2 8C2 5.79086 3.79086 4 6 4H18C20.2091 4 22 5.79086 22 8V16C22 18.2091 20.2091 20 18 20H6C3.79086 20 2 18.2091 2 16V8Z" fill="#28303F"/>
<path d="M14 12C14 13.1046 13.1046 14 12 14C10.8954 14 10 13.1046 10 12C10 10.8954 10.8954 10 12 10C13.1046 10 14 10.8954 14 12Z" fill="#28303F"/>
<path fill-rule="evenodd" clip-rule="evenodd" d="M16.25 17C16.25 16.5858 16.5858 16.25 17 16.25H19C19.4142 16.25 19.75 16.5858 19.75 17C19.75 17.4142 19.4142 17.75 19 17.75H17C16.5858 17.75 16.25 17.4142 16.25 17Z" fill="#28303F"/>
<path fill-rule="evenodd" clip-rule="evenodd" d="M16.25 7C16.25 6.58579 16.5858 6.25 17 6.25H19C19.4142 6.25 19.75 6.58579 19.75 7C19.75 7.41421 19.4142 7.75 19 7.75H17C16.5858 7.75 16.25 7.41421 16.25 7Z" fill="#28303F"/>
<path fill-rule="evenodd" clip-rule="evenodd" d="M4.25 7C4.25 6.58579 4.58579 6.25 5 6.25H7C7.41421 6.25 7.75 6.58579 7.75 7C7.75 7.41421 7.41421 7.75 7 7.75H5C4.58579 7.75 4.25 7.41421 4.25 7Z" fill="#28303F"/>
<path fill-rule="evenodd" clip-rule="evenodd" d="M4.25 17C4.25 16.5858 4.58579 16.25 5 16.25H7C7.41421 16.25 7.75 16.5858 7.75 17C7.75 17.4142 7.41421 17.75 7 17.75H5C4.58579 17.75 4.25 17.4142 4.25 17Z" fill="#28303F"/>
</svg>
