<svg width="24" height="24" viewBox="0 0 24 24" fill="none" xmlns="http://www.w3.org/2000/svg">
<path fill-rule="evenodd" clip-rule="evenodd" d="M12 1.25C12.4142 1.25 12.75 1.58579 12.75 2V6C12.75 6.41421 12.4142 6.75 12 6.75C11.5858 6.75 11.25 6.41421 11.25 6V2C11.25 1.58579 11.5858 1.25 12 1.25Z" fill="#28303F"/>
<path opacity="0.4" d="M5 9C5 6.79086 6.79086 5 9 5H15C17.2091 5 19 6.79086 19 9V15C19 18.866 15.866 22 12 22C8.13401 22 5 18.866 5 15V9Z" fill="#28303F"/>
<path fill-rule="evenodd" clip-rule="evenodd" d="M12 7.25C12.4142 7.25 12.75 7.58579 12.75 8V10C12.75 10.4142 12.4142 10.75 12 10.75C11.5858 10.75 11.25 10.4142 11.25 10V8C11.25 7.58579 11.5858 7.25 12 7.25Z" fill="#28303F"/>
</svg>
