<svg width="24" height="24" viewBox="0 0 24 24" fill="none" xmlns="http://www.w3.org/2000/svg">
<path opacity="0.4" d="M21 18V8C21 5.79086 19.2091 4 17 4H7C4.79086 4 3 5.79086 3 8V18C3 20.2091 4.79086 22 7 22H17C19.2091 22 21 20.2091 21 18Z" fill="#28303F"/>
<path fill-rule="evenodd" clip-rule="evenodd" d="M7.25 10C7.25 9.58579 7.58579 9.25 8 9.25H16C16.4142 9.25 16.75 9.58579 16.75 10C16.75 10.4142 16.4142 10.75 16 10.75H8C7.58579 10.75 7.25 10.4142 7.25 10Z" fill="#28303F"/>
<path fill-rule="evenodd" clip-rule="evenodd" d="M7.25 14C7.25 13.5858 7.58579 13.25 8 13.25H16C16.4142 13.25 16.75 13.5858 16.75 14C16.75 14.4142 16.4142 14.75 16 14.75H8C7.58579 14.75 7.25 14.4142 7.25 14Z" fill="#28303F"/>
<path fill-rule="evenodd" clip-rule="evenodd" d="M7.25 18C7.25 17.5858 7.58579 17.25 8 17.25H12C12.4142 17.25 12.75 17.5858 12.75 18C12.75 18.4142 12.4142 18.75 12 18.75H8C7.58579 18.75 7.25 18.4142 7.25 18Z" fill="#28303F"/>
<path d="M14 2H10C8.89543 2 8 2.89543 8 4C8 5.10457 8.89543 6 10 6H14C15.1046 6 16 5.10457 16 4C16 2.89543 15.1046 2 14 2Z" fill="#28303F"/>
</svg>
