<svg width="24" height="24" viewBox="0 0 24 24" fill="none" xmlns="http://www.w3.org/2000/svg">
<path d="M12 19C13.385 19 14.5633 18.1652 15 17V16H9V17C9.43668 18.1652 10.615 19 12 19Z" fill="#28303F"/>
<path opacity="0.4" d="M5.67964 8.79403C6.05382 5.49085 8.77095 3 12 3C15.2291 3 17.9462 5.49085 18.3204 8.79403L18.6652 11.8385C18.7509 12.595 19.0575 13.3069 19.5445 13.88C20.5779 15.0964 19.7392 17 18.1699 17H5.83014C4.26081 17 3.42209 15.0964 4.45549 13.88C4.94246 13.3069 5.24906 12.595 5.33476 11.8385L5.67964 8.79403Z" fill="#28303F"/>
<path d="M5.67964 8.79403L5.33476 11.8385C5.24906 12.595 4.94246 13.3069 4.45549 13.88C3.42209 15.0964 4.26081 17 5.83014 17H15.9393L20.4697 21.5303C20.7626 21.8232 21.2374 21.8232 21.5303 21.5303C21.8232 21.2374 21.8232 20.7626 21.5303 20.4697L3.53033 2.46967C3.23744 2.17678 2.76256 2.17678 2.46967 2.46967C2.17678 2.76256 2.17678 3.23744 2.46967 3.53033L6.08189 7.14255C5.88252 7.66213 5.74516 8.21563 5.67964 8.79403Z" fill="#28303F"/>
</svg>
