<svg width="24" height="24" viewBox="0 0 24 24" fill="none" xmlns="http://www.w3.org/2000/svg">
<path fill-rule="evenodd" clip-rule="evenodd" d="M15.2884 3.76303C15.4194 3.37008 15.8442 3.15771 16.2371 3.28869L16.3911 3.34001C18.4067 4.01187 19.9883 5.5935 20.6602 7.60908L20.7115 7.76303C20.8425 8.15599 20.6301 8.58073 20.2371 8.71172C19.8442 8.8427 19.4194 8.63033 19.2884 8.23737L19.2371 8.08342C18.7146 6.51575 17.4844 5.28559 15.9167 4.76303L15.7628 4.71172C15.3698 4.58073 15.1575 4.15599 15.2884 3.76303Z" fill="#28303F"/>
<path d="M12 21C13.385 21 14.5633 20.1652 15 19H9C9.43668 20.1652 10.615 21 12 21Z" fill="#28303F"/>
<path opacity="0.4" d="M5.67964 10.794C6.05382 7.49085 8.77095 5 12 5C15.2291 5 17.9462 7.49085 18.3204 10.794L18.6652 13.8385C18.7509 14.595 19.0575 15.3069 19.5445 15.88C20.5779 17.0964 19.7392 19 18.1699 19H5.83014C4.26081 19 3.42209 17.0964 4.45549 15.88C4.94246 15.3069 5.24906 14.595 5.33476 13.8385L5.67964 10.794Z" fill="#28303F"/>
<path fill-rule="evenodd" clip-rule="evenodd" d="M8.71155 3.76303C8.58057 3.37008 8.15583 3.15771 7.76287 3.28869L7.60892 3.34001C5.59334 4.01187 4.01171 5.5935 3.33984 7.60908L3.28853 7.76303C3.15754 8.15599 3.36991 8.58073 3.76287 8.71172C4.15583 8.8427 4.58057 8.63033 4.71155 8.23737L4.76287 8.08342C5.28543 6.51575 6.51559 5.28559 8.08326 4.76303L8.23721 4.71172C8.63017 4.58073 8.84254 4.15599 8.71155 3.76303Z" fill="#28303F"/>
</svg>
