<svg width="24" height="24" viewBox="0 0 24 24" fill="none" xmlns="http://www.w3.org/2000/svg">
<path d="M12 21C13.385 21 14.5633 20.1652 15 19H9C9.43668 20.1652 10.615 21 12 21Z" fill="#28303F"/>
<path opacity="0.4" fill-rule="evenodd" clip-rule="evenodd" d="M18.1412 9.83486C17.7795 9.94231 17.3965 10 17 10C14.7909 10 13 8.20914 13 6C13 5.68992 13.0353 5.38807 13.1021 5.09827C12.7435 5.03363 12.3752 5 12 5C8.77095 5 6.05382 7.49085 5.67964 10.794L5.33476 13.8385C5.24906 14.595 4.94246 15.3069 4.45549 15.88C3.42209 17.0964 4.26081 19 5.83013 19H18.1699C19.7392 19 20.5779 17.0964 19.5445 15.88C19.0575 15.3069 18.7509 14.595 18.6652 13.8385L18.3204 10.794C18.2832 10.4657 18.2228 10.1455 18.1412 9.83486Z" fill="#28303F"/>
<circle cx="17" cy="6" r="3" fill="#28303F"/>
</svg>
