<svg width="24" height="24" viewBox="0 0 24 24" fill="none" xmlns="http://www.w3.org/2000/svg">
<path d="M9.59674 19.2603C10.5761 20.2396 11.9996 20.4825 13.1323 19.9674L8.88963 15.7247C8.3745 16.8574 8.61737 18.2809 9.59674 19.2603Z" fill="#28303F"/>
<path opacity="0.4" d="M10.223 5.45291C12.8233 3.3818 16.5059 3.54179 18.7892 5.82508C21.0724 8.10837 21.2324 11.791 19.1613 14.3913L17.2524 16.7879C16.7781 17.3834 16.4915 18.1036 16.4306 18.8532C16.3012 20.444 14.3621 21.197 13.2524 20.0873L4.52691 11.3618C3.41723 10.2521 4.17022 8.31302 5.76103 8.18366C6.51067 8.12271 7.23085 7.83612 7.82636 7.3618L10.223 5.45291Z" fill="#28303F"/>
</svg>
