<svg width="24" height="24" viewBox="0 0 24 24" fill="none" xmlns="http://www.w3.org/2000/svg">
<path opacity="0.4" d="M10 22C14.4183 22 18 18.4183 18 14C18 13.2901 17.9075 12.6018 17.734 11.9465C17.4944 11.9817 17.2494 12 17 12C14.2386 12 12 9.76142 12 7C12 6.75065 12.0183 6.50556 12.0535 6.266C11.3982 6.09246 10.7099 6 10 6C5.58172 6 2 9.58172 2 14C2 18.4183 5.58172 22 10 22Z" fill="#28303F"/>
<path d="M22 7C22 9.51207 20.1474 11.5915 17.734 11.9465C17.4944 11.9817 17.2494 12 17 12C14.2386 12 12 9.76142 12 7C12 6.75065 12.0183 6.50556 12.0535 6.266C12.4085 3.85255 14.4879 2 17 2C19.7614 2 22 4.23858 22 7Z" fill="#28303F"/>
</svg>
