<svg width="24" height="24" viewBox="0 0 24 24" fill="none" xmlns="http://www.w3.org/2000/svg">
<path opacity="0.4" d="M11.3168 5.42445C9.19313 3.93632 6.21271 3.26195 3.99433 3.01127C2.89642 2.88721 2 3.80402 2 4.93518V16.2C2 17.3311 2.89642 18.2483 3.99433 18.3723C6.21271 18.623 9.19313 19.2974 11.3168 20.7855C11.5209 20.9285 11.7605 21 12 21V5.63895C11.7605 5.63895 11.5209 5.56745 11.3168 5.42445Z" fill="#28303F"/>
<path fill-rule="evenodd" clip-rule="evenodd" d="M4.25894 8.13972C4.32234 7.73038 4.70556 7.44994 5.11489 7.51334C6.41767 7.7151 7.88481 8.05233 9.27061 8.58822C9.65695 8.73761 9.84902 9.17191 9.69963 9.55824C9.55023 9.94458 9.11594 10.1367 8.7296 9.98726C7.47096 9.50054 6.1141 9.18597 4.88532 8.99567C4.47599 8.93227 4.19555 8.54905 4.25894 8.13972Z" fill="#28303F"/>
<path fill-rule="evenodd" clip-rule="evenodd" d="M4.25894 12.1397C4.32234 11.7304 4.70556 11.4499 5.11489 11.5133C5.77462 11.6155 6.47457 11.7521 7.18358 11.931C7.58521 12.0323 7.82865 12.4401 7.72732 12.8417C7.62599 13.2433 7.21826 13.4868 6.81663 13.3854C6.15824 13.2193 5.50457 13.0916 4.88532 12.9957C4.47599 12.9323 4.19555 12.5491 4.25894 12.1397Z" fill="#28303F"/>
<path d="M12.6832 5.42445C14.8069 3.93632 17.7873 3.26195 20.0057 3.01127C21.1036 2.88721 22 3.80402 22 4.93518V16.2C22 17.3311 21.1036 18.2483 20.0057 18.3723C17.7873 18.623 14.8069 19.2974 12.6832 20.7855C12.4791 20.9285 12.2395 21 12 21V5.63895C12.2395 5.63895 12.4791 5.56745 12.6832 5.42445Z" fill="#28303F"/>
</svg>
