<svg width="24" height="24" viewBox="0 0 24 24" fill="none" xmlns="http://www.w3.org/2000/svg">
<path d="M21.9854 18.7354C21.9854 20.3922 20.9854 20.9854 19.9854 20.9854C18.9854 20.9854 17.9854 20.3922 17.9854 18.7354C17.9854 17.0785 19.9854 14.9854 19.9854 14.9854C19.9854 14.9854 21.9854 17.0785 21.9854 18.7354Z" fill="#28303F"/>
<path opacity="0.4" d="M12.9565 3.64167L20 10.6127L16.8696 12.1618L10.6087 18.3583C9.74425 19.2139 8.34271 19.2139 7.47826 18.3583L2.78261 13.711C2.35039 13.2832 2.13428 12.7225 2.13428 12.1618C2.13428 11.6012 2.35039 11.0405 2.78261 10.6127L9.82609 3.64167C10.6905 2.78611 12.0921 2.78611 12.9565 3.64167Z" fill="#28303F"/>
<path d="M2.78261 13.7107L7.47826 18.3581C8.34271 19.2137 9.74425 19.2137 10.6087 18.3581L16.8696 12.1616H2.13428C2.13428 12.7223 2.35039 13.283 2.78261 13.7107Z" fill="#28303F"/>
</svg>
