<svg width="24" height="24" viewBox="0 0 24 24" fill="none" xmlns="http://www.w3.org/2000/svg">
<path opacity="0.4" d="M22 12C22 17.5228 17.5228 22 12 22C6.47715 22 2 17.5228 2 12C2 6.47715 6.47715 2 12 2C17.5228 2 22 6.47715 22 12Z" fill="#28303F"/>
<path fill-rule="evenodd" clip-rule="evenodd" d="M12 6.25C12.4142 6.25 12.75 6.58579 12.75 7V9C12.75 9.41421 12.4142 9.75 12 9.75C11.5858 9.75 11.25 9.41421 11.25 9V7C11.25 6.58579 11.5858 6.25 12 6.25Z" fill="#28303F"/>
<path fill-rule="evenodd" clip-rule="evenodd" d="M9.59967 7.54912C9.84844 7.88031 9.78162 8.35046 9.45043 8.59923C8.41646 9.37588 7.75 10.61 7.75 11.9999C7.75 14.3471 9.65279 16.2499 12 16.2499C14.3472 16.2499 16.25 14.3471 16.25 11.9999C16.25 10.61 15.5835 9.37588 14.5496 8.59923C14.2184 8.35046 14.1516 7.88031 14.4003 7.54912C14.6491 7.21793 15.1192 7.15111 15.4504 7.39988C16.8454 8.44765 17.75 10.1182 17.75 11.9999C17.75 15.1756 15.1756 17.7499 12 17.7499C8.82436 17.7499 6.25 15.1756 6.25 11.9999C6.25 10.1182 7.15464 8.44765 8.54957 7.39988C8.88076 7.15111 9.35091 7.21793 9.59967 7.54912Z" fill="#28303F"/>
</svg>
