<svg width="24" height="24" viewBox="0 0 24 24" fill="none" xmlns="http://www.w3.org/2000/svg">
<path fill-rule="evenodd" clip-rule="evenodd" d="M12.75 17.9961V22C12.75 22.4142 12.4142 22.75 12 22.75C11.5858 22.75 11.25 22.4142 11.25 22V17.9961H12.75Z" fill="#28303F"/>
<path opacity="0.4" d="M3 5H21V16C21 17.1046 20.1046 18 19 18H5C3.89543 18 3 17.1046 3 16V5Z" fill="#28303F"/>
<path d="M2 4C2 2.89543 2.89543 2 4 2H20C21.1046 2 22 2.89543 22 4C22 5.10457 21.1046 6 20 6H4C2.89543 6 2 5.10457 2 4Z" fill="#28303F"/>
<path fill-rule="evenodd" clip-rule="evenodd" d="M16.386 9.35699C16.7412 9.5701 16.8563 10.0308 16.6432 10.386L15.561 12.1897C14.6536 13.7021 12.5162 13.8459 11.4145 12.4686C10.9657 11.9077 10.0951 11.9662 9.72548 12.5822L8.64323 14.386C8.43012 14.7412 7.96943 14.8563 7.61424 14.6432C7.25906 14.4301 7.14388 13.9694 7.35699 13.6142L8.43924 11.8105C9.34667 10.2981 11.484 10.1544 12.5858 11.5316C13.0346 12.0926 13.9051 12.034 14.2747 11.418L15.357 9.61424C15.5701 9.25906 16.0308 9.14388 16.386 9.35699Z" fill="#28303F"/>
</svg>
