<svg width="24" height="24" viewBox="0 0 24 24" fill="none" xmlns="http://www.w3.org/2000/svg">
<path opacity="0.4" d="M22 12C22 17.5228 17.5228 22 12 22C6.47715 22 2 17.5228 2 12C2 6.47715 6.47715 2 12 2C17.5228 2 22 6.47715 22 12Z" fill="#28303F"/>
<path fill-rule="evenodd" clip-rule="evenodd" d="M14.2982 15.3587C14.5911 15.6516 15.0659 15.6516 15.3588 15.3587C15.6517 15.0658 15.6517 14.5909 15.3588 14.298L13.0608 12L15.3588 9.70197C15.6517 9.40908 15.6517 8.9342 15.3588 8.64131C15.0659 8.34842 14.591 8.34842 14.2982 8.64131L12.0001 10.9393L9.70198 8.64118C9.40908 8.34829 8.93421 8.34829 8.64132 8.64118C8.34842 8.93407 8.34842 9.40895 8.64132 9.70184L10.9395 12L8.6413 14.2982C8.34841 14.5911 8.34841 15.0659 8.6413 15.3588C8.93419 15.6517 9.40907 15.6517 9.70196 15.3588L12.0001 13.0607L14.2982 15.3587Z" fill="#28303F"/>
</svg>
