<svg width="24" height="24" viewBox="0 0 24 24" fill="none" xmlns="http://www.w3.org/2000/svg">
<path opacity="0.4" d="M7.34939 5.13108C8.16293 4.40191 9.2072 4 10.2882 4H17.5371C20.0019 4 22 6.0467 22 8.57143V15.4286C22 17.9533 20.0019 20 17.5371 20H10.2882C9.2072 20 8.16293 19.5981 7.34938 18.8689L3.52405 15.4403C1.49198 13.619 1.49198 10.381 3.52406 8.55965L7.34939 5.13108Z" fill="#28303F"/>
<path fill-rule="evenodd" clip-rule="evenodd" d="M10.4697 8.46967C10.7626 8.17678 11.2374 8.17678 11.5303 8.46967L14 10.9393L16.4697 8.46967C16.7626 8.17678 17.2374 8.17678 17.5303 8.46967C17.8232 8.76256 17.8232 9.23744 17.5303 9.53033L15.0607 12L17.5303 14.4697C17.8232 14.7626 17.8232 15.2374 17.5303 15.5303C17.2374 15.8232 16.7626 15.8232 16.4697 15.5303L14 13.0607L11.5303 15.5303C11.2374 15.8232 10.7626 15.8232 10.4697 15.5303C10.1768 15.2374 10.1768 14.7626 10.4697 14.4697L12.9393 12L10.4697 9.53033C10.1768 9.23744 10.1768 8.76256 10.4697 8.46967Z" fill="#28303F"/>
</svg>
