<svg width="24" height="24" viewBox="0 0 24 24" fill="none" xmlns="http://www.w3.org/2000/svg">
<path opacity="0.4" d="M2 6C2 3.79086 3.79086 2 6 2H18C20.2091 2 22 3.79086 22 6V18C22 20.2091 20.2091 22 18 22H6C3.79086 22 2 20.2091 2 18V6Z" fill="#28303F"/>
<path fill-rule="evenodd" clip-rule="evenodd" d="M11.624 7.58405C11.3943 7.23941 10.9286 7.14628 10.584 7.37604L7.58397 9.37604C7.23933 9.60581 7.1462 10.0715 7.37596 10.4161L9.37596 13.4161C9.60573 13.7608 10.0714 13.8539 10.416 13.6241C10.7607 13.3944 10.8538 12.9287 10.624 12.5841L9.46577 10.8467C10.8208 11.0275 12.0877 11.4599 13.084 12.1241C14.4111 13.0089 15.25 14.291 15.25 16.0001C15.25 16.4143 15.5858 16.7501 16 16.7501C16.4142 16.7501 16.75 16.4143 16.75 16.0001C16.75 13.7091 15.5889 11.9913 13.916 10.876C12.8379 10.1573 11.545 9.6838 10.1895 9.44181L11.416 8.62412C11.7607 8.39435 11.8538 7.9287 11.624 7.58405Z" fill="#28303F"/>
</svg>
