<svg width="24" height="24" viewBox="0 0 24 24" fill="none" xmlns="http://www.w3.org/2000/svg">
<path opacity="0.4" fill-rule="evenodd" clip-rule="evenodd" d="M16.9697 16.9697C17.2626 16.6768 17.7374 16.6768 18.0303 16.9697L22.5303 21.4697C22.8232 21.7626 22.8232 22.2374 22.5303 22.5303C22.2374 22.8232 21.7626 22.8232 21.4697 22.5303L16.9697 18.0303C16.6768 17.7374 16.6768 17.2626 16.9697 16.9697Z" fill="#28303F"/>
<path fill-rule="evenodd" clip-rule="evenodd" d="M11.5 21C16.7467 21 21 16.7467 21 11.5C21 6.25329 16.7467 2 11.5 2C6.25329 2 2 6.25329 2 11.5C2 16.7467 6.25329 21 11.5 21ZM9.20196 8.14106C8.90907 7.84816 8.43419 7.84816 8.1413 8.14106C7.84841 8.43395 7.84841 8.90882 8.1413 9.20172L10.4394 11.4998L8.1413 13.7979C7.84841 14.0908 7.84841 14.5657 8.1413 14.8586C8.43419 15.1515 8.90907 15.1515 9.20196 14.8586L11.5001 12.5605L13.7982 14.8586C14.091 15.1515 14.5659 15.1515 14.8588 14.8586C15.1517 14.5657 15.1517 14.0908 14.8588 13.7979L12.5607 11.4998L14.8588 9.20172C15.1517 8.90882 15.1517 8.43395 14.8588 8.14106C14.5659 7.84816 14.091 7.84816 13.7982 8.14106L11.5001 10.4392L9.20196 8.14106Z" fill="#28303F"/>
</svg>
