<svg width="24" height="24" viewBox="0 0 24 24" fill="none" xmlns="http://www.w3.org/2000/svg">
<path opacity="0.4" d="M2 6C2 3.79086 3.79086 2 6 2H18C20.2091 2 22 3.79086 22 6V18C22 20.2091 20.2091 22 18 22H6C3.79086 22 2 20.2091 2 18V6Z" fill="#28303F"/>
<path fill-rule="evenodd" clip-rule="evenodd" d="M12.376 7.58405C12.6057 7.23941 13.0714 7.14628 13.416 7.37604L16.416 9.37604C16.7607 9.60581 16.8538 10.0715 16.624 10.4161L14.624 13.4161C14.3943 13.7608 13.9286 13.8539 13.584 13.6241C13.2393 13.3944 13.1462 12.9287 13.376 12.5841L14.5342 10.8467C13.1792 11.0275 11.9123 11.4599 10.916 12.1241C9.58888 13.0089 8.75 14.291 8.75 16.0001C8.75 16.4143 8.41421 16.7501 8 16.7501C7.58579 16.7501 7.25 16.4143 7.25 16.0001C7.25 13.7091 8.41112 11.9913 10.084 10.876C11.1621 10.1573 12.455 9.6838 13.8105 9.44181L12.584 8.62412C12.2393 8.39435 12.1462 7.9287 12.376 7.58405Z" fill="#28303F"/>
</svg>
