<svg width="24" height="24" viewBox="0 0 24 24" fill="none" xmlns="http://www.w3.org/2000/svg">
<path opacity="0.4" d="M10.3708 2.36419L5.33248 4.71069C3.87515 5.38942 2.91343 6.90939 3.00617 8.57773C3.36871 15.1001 5.1914 17.9715 9.92759 21.3315C11.1823 22.2216 12.8361 22.2238 14.0899 21.3322C18.8406 17.9539 20.5981 15.0419 20.9925 8.60032C21.0953 6.92095 20.1321 5.38485 18.6646 4.70139L13.6462 2.36419C12.6036 1.8786 11.4134 1.8786 10.3708 2.36419Z" fill="#28303F"/>
<path d="M11 17C11 16.4477 11.4477 16 12 16C12.5523 16 13 16.4477 13 17C13 17.5523 12.5523 18 12 18C11.4477 18 11 17.5523 11 17Z" fill="#28303F"/>
<path fill-rule="evenodd" clip-rule="evenodd" d="M12 14.75C11.5858 14.75 11.25 14.4142 11.25 14L11.25 7C11.25 6.58579 11.5858 6.25 12 6.25C12.4142 6.25 12.75 6.58579 12.75 7L12.75 14C12.75 14.4142 12.4142 14.75 12 14.75Z" fill="#28303F"/>
</svg>
