<svg width="24" height="24" viewBox="0 0 24 24" fill="none" xmlns="http://www.w3.org/2000/svg">
<path fill-rule="evenodd" clip-rule="evenodd" d="M18.5063 6.02478C18.3521 6.00649 18.1949 5.99707 18.0351 5.99707H16.6105L14.4 3.04965C14.1515 2.71828 14.2186 2.24818 14.55 1.99965C14.8814 1.75113 15.3515 1.81828 15.6 2.14965L18.5063 6.02478ZM7.38942 5.99707H5.9648C5.80504 5.99707 5.64784 6.00649 5.49365 6.02477L8.39999 2.14965C8.64851 1.81828 9.11862 1.75113 9.44999 1.99965C9.78136 2.24818 9.84851 2.71828 9.59999 3.04965L7.38942 5.99707Z" fill="#28303F"/>
<path opacity="0.4" d="M18.0351 5.99707H5.96486C3.72938 5.99707 1.99546 7.84108 2.00001 9.99707H22C22.0045 7.84108 20.2706 5.99707 18.0351 5.99707Z" fill="#28303F"/>
<path fill-rule="evenodd" clip-rule="evenodd" d="M20.2819 18.8051C19.9021 20.6637 18.2806 21.9971 16.4002 21.9971H7.59975C5.71939 21.9971 4.09784 20.6637 3.71801 18.8051L2.08309 10.8051C2.02795 10.5353 2.001 10.2673 2 10.0039L21.9999 10.0039C21.9989 10.2673 21.972 10.5353 21.9169 10.8051L20.2819 18.8051ZM7.25 13.9971C7.25 13.5829 7.58579 13.2471 8 13.2471H16C16.4142 13.2471 16.75 13.5829 16.75 13.9971C16.75 14.4113 16.4142 14.7471 16 14.7471H8C7.58579 14.7471 7.25 14.4113 7.25 13.9971ZM9 17.2466C8.58579 17.2466 8.25 17.5824 8.25 17.9966C8.25 18.4108 8.58579 18.7466 9 18.7466H15C15.4142 18.7466 15.75 18.4108 15.75 17.9966C15.75 17.5824 15.4142 17.2466 15 17.2466H9Z" fill="#28303F"/>
</svg>
