<svg width="24" height="24" viewBox="0 0 24 24" fill="none" xmlns="http://www.w3.org/2000/svg">
<path opacity="0.4" fill-rule="evenodd" clip-rule="evenodd" d="M11.25 17C11.25 17.4142 11.5858 17.75 12 17.75L21 17.75C21.4142 17.75 21.75 17.4142 21.75 17C21.75 16.5858 21.4142 16.25 21 16.25L12 16.25C11.5858 16.25 11.25 16.5858 11.25 17Z" fill="#28303F"/>
<path opacity="0.4" fill-rule="evenodd" clip-rule="evenodd" d="M11.25 11C11.25 11.4142 11.5858 11.75 12 11.75L18 11.75C18.4142 11.75 18.75 11.4142 18.75 11C18.75 10.5858 18.4142 10.25 18 10.25L12 10.25C11.5858 10.25 11.25 10.5858 11.25 11Z" fill="#28303F"/>
<path opacity="0.4" fill-rule="evenodd" clip-rule="evenodd" d="M11.25 5C11.25 4.58579 11.5858 4.25 12 4.25H15C15.4142 4.25 15.75 4.58579 15.75 5C15.75 5.41421 15.4142 5.75 15 5.75H12C11.5858 5.75 11.25 5.41421 11.25 5Z" fill="#28303F"/>
<path fill-rule="evenodd" clip-rule="evenodd" d="M6.14624 17.7358C6.09894 17.7451 6.05004 17.75 6 17.75C5.94996 17.75 5.90106 17.7451 5.85376 17.7357C5.14913 17.6985 4.45623 17.3922 3.94463 16.8166L2.43945 15.1233C2.16426 14.8137 2.19215 14.3396 2.50174 14.0645C2.81132 13.7893 3.28538 13.8171 3.56056 14.1267L5.06575 15.8201C5.12261 15.884 5.18441 15.9407 5.25 15.99V5C5.25 4.58579 5.58579 4.25 6 4.25C6.41421 4.25 6.75 4.58579 6.75 5V15.99C6.8156 15.9407 6.8774 15.884 6.93427 15.8201L8.43945 14.1267C8.71464 13.8171 9.18869 13.7893 9.49828 14.0645C9.80787 14.3396 9.83575 14.8137 9.56056 15.1233L8.05538 16.8166C7.54378 17.3922 6.85087 17.6985 6.14624 17.7358Z" fill="#28303F"/>
</svg>
