<svg width="24" height="24" viewBox="0 0 24 24" fill="none" xmlns="http://www.w3.org/2000/svg">
<rect opacity="0.4" x="14" y="4" width="6" height="6" rx="3" fill="#28303F"/>
<rect opacity="0.4" x="14" y="14" width="6" height="6" rx="3" fill="#28303F"/>
<path fill-rule="evenodd" clip-rule="evenodd" d="M9.05538 19.8162C7.96146 21.0469 6.03856 21.0469 4.94463 19.8162L3.43945 18.1229C3.16426 17.8133 3.19215 17.3392 3.50174 17.0641C3.81132 16.7889 4.28538 16.8168 4.56056 17.1263L6.06575 18.8197C6.12261 18.8836 6.18441 18.9403 6.25 18.9896V5.00958C6.18441 5.05892 6.12261 5.11558 6.06575 5.17956L4.56056 6.87288C4.28538 7.18247 3.81132 7.21036 3.50174 6.93517C3.19215 6.65998 3.16426 6.18593 3.43945 5.87634L4.94463 4.18301C6.03856 2.95234 7.96146 2.95234 9.05538 4.18301L10.5606 5.87634C10.8358 6.18593 10.8079 6.65998 10.4983 6.93517C10.1887 7.21036 9.71464 7.18247 9.43945 6.87288L7.93427 5.17955C7.8774 5.11558 7.8156 5.05891 7.75 5.00957V18.9897C7.8156 18.9403 7.8774 18.8836 7.93427 18.8197L9.43945 17.1263C9.71464 16.8168 10.1887 16.7889 10.4983 17.0641C10.8079 17.3392 10.8358 17.8133 10.5606 18.1229L9.05538 19.8162Z" fill="#28303F"/>
</svg>
