<svg width="24" height="24" viewBox="0 0 24 24" fill="none" xmlns="http://www.w3.org/2000/svg">
<path opacity="0.4" d="M2 17C2 19.2091 3.79086 21 6 21H10H18C20.2091 21 22 19.2091 22 17V16C22 15.4477 21.54 15.0163 21.0181 14.8356C19.8435 14.4289 19 13.313 19 12C19 10.687 19.8435 9.57105 21.0181 9.16437C21.54 8.98368 22 8.55228 22 8V7C22 4.79086 20.2091 3 18 3H10H6C3.79086 3 2 4.79086 2 7V8C2 8.55228 2.46 8.98368 2.98189 9.16437C4.15653 9.57105 5 10.687 5 12C5 13.313 4.15653 14.4289 2.98189 14.8356C2.46 15.0163 2 15.4477 2 16V17Z" fill="#28303F"/>
<path fill-rule="evenodd" clip-rule="evenodd" d="M10 5.25C10.4142 5.25 10.75 5.58579 10.75 6V8C10.75 8.41421 10.4142 8.75 10 8.75C9.58579 8.75 9.25 8.41421 9.25 8V6C9.25 5.58579 9.58579 5.25 10 5.25Z" fill="#28303F"/>
<path fill-rule="evenodd" clip-rule="evenodd" d="M10 15.25C10.4142 15.25 10.75 15.5858 10.75 16V18C10.75 18.4142 10.4142 18.75 10 18.75C9.58579 18.75 9.25 18.4142 9.25 18V16C9.25 15.5858 9.58579 15.25 10 15.25Z" fill="#28303F"/>
<path fill-rule="evenodd" clip-rule="evenodd" d="M10 10.25C10.4142 10.25 10.75 10.5858 10.75 11V13C10.75 13.4142 10.4142 13.75 10 13.75C9.58579 13.75 9.25 13.4142 9.25 13V11C9.25 10.5858 9.58579 10.25 10 10.25Z" fill="#28303F"/>
</svg>
