<svg width="24" height="24" viewBox="0 0 24 24" fill="none" xmlns="http://www.w3.org/2000/svg">
<path opacity="0.4" d="M9.72438 22H14.2754C16.374 22 18.1157 20.3782 18.2653 18.285L18.9883 6.16204C16.862 5.41608 14.4948 5 11.9999 5C9.50501 5 7.13779 5.41608 5.01147 6.16204L5.73454 18.285C5.88406 20.3782 7.62582 22 9.72438 22Z" fill="#28303F"/>
<path fill-rule="evenodd" clip-rule="evenodd" d="M14.7499 4.41565V4C14.7499 2.48122 13.5187 1.25 11.9999 1.25C10.4811 1.25 9.24993 2.48122 9.24993 4V4.41565C6.86495 4.7059 4.63685 5.36797 2.67137 6.3258C2.29902 6.50725 2.14427 6.9562 2.32572 7.32855C2.50718 7.70091 2.95613 7.85566 3.32848 7.6742C5.82012 6.45998 8.79567 5.75 11.9999 5.75C15.2042 5.75 18.1797 6.45998 20.6714 7.6742C21.0437 7.85566 21.4927 7.70091 21.6741 7.32855C21.8556 6.9562 21.7008 6.50725 21.3285 6.3258C19.363 5.36797 17.1349 4.7059 14.7499 4.41565Z" fill="#28303F"/>
<path fill-rule="evenodd" clip-rule="evenodd" d="M10 9.25C10.4142 9.25 10.75 9.58579 10.75 10V16C10.75 16.4142 10.4142 16.75 10 16.75C9.58579 16.75 9.25 16.4142 9.25 16V10C9.25 9.58579 9.58579 9.25 10 9.25Z" fill="#28303F"/>
<path fill-rule="evenodd" clip-rule="evenodd" d="M14 9.25C14.4142 9.25 14.75 9.58579 14.75 10V16C14.75 16.4142 14.4142 16.75 14 16.75C13.5858 16.75 13.25 16.4142 13.25 16V10C13.25 9.58579 13.5858 9.25 14 9.25Z" fill="#28303F"/>
</svg>
