<svg width="24" height="24" viewBox="0 0 24 24" fill="none" xmlns="http://www.w3.org/2000/svg">
<path opacity="0.4" d="M22 12C22 15.0134 20.6672 17.7154 18.5588 19.5488C16.8031 21.0756 14.5095 22 12 22C9.49052 22 7.19694 21.0756 5.44117 19.5488C3.33285 17.7154 2 15.0134 2 12C2 6.47715 6.47715 2 12 2C17.5228 2 22 6.47715 22 12Z" fill="#28303F"/>
<circle cx="12" cy="10" r="3" fill="#28303F"/>
<path d="M18.5588 19.5488C17.5654 16.8918 15.0036 15 12 15C8.99637 15 6.43459 16.8918 5.44116 19.5488C7.19693 21.0756 9.49052 22 12 22C14.5095 22 16.8031 21.0756 18.5588 19.5488Z" fill="#28303F"/>
</svg>
