<svg width="24" height="24" viewBox="0 0 24 24" fill="none" xmlns="http://www.w3.org/2000/svg">
<path opacity="0.4" d="M9.92154 2.57125C11.2077 1.80958 12.7923 1.80958 14.0785 2.57125L18.9215 5.43932C20.2077 6.20099 21 7.6086 21 9.13192V14.8681C21 16.3914 20.2077 17.799 18.9215 18.5607L14.0785 21.4288C12.7923 22.1904 11.2077 22.1904 9.92154 21.4288L5.07846 18.5607C3.7923 17.799 3 16.3914 3 14.8681V9.13192C3 7.6086 3.7923 6.20099 5.07846 5.43932L9.92154 2.57125Z" fill="#28303F"/>
<path d="M11 17C11 16.4477 11.4477 16 12 16C12.5523 16 13 16.4477 13 17C13 17.5523 12.5523 18 12 18C11.4477 18 11 17.5523 11 17Z" fill="#28303F"/>
<path fill-rule="evenodd" clip-rule="evenodd" d="M12 14.75C11.5858 14.75 11.25 14.4142 11.25 14L11.25 7C11.25 6.58579 11.5858 6.25 12 6.25C12.4142 6.25 12.75 6.58579 12.75 7L12.75 14C12.75 14.4142 12.4142 14.75 12 14.75Z" fill="#28303F"/>
</svg>
