<svg width="24" height="24" viewBox="0 0 24 24" fill="none" xmlns="http://www.w3.org/2000/svg">
<path opacity="0.4" fill-rule="evenodd" clip-rule="evenodd" d="M18.9697 16.9697C19.2626 16.6768 19.7374 16.6768 20.0303 16.9697L22.5303 19.4697C22.8232 19.7626 22.8232 20.2374 22.5303 20.5303C22.2374 20.8232 21.7626 20.8232 21.4697 20.5303L18.9697 18.0303C18.6768 17.7374 18.6768 17.2626 18.9697 16.9697Z" fill="#28303F"/>
<circle cx="16" cy="14" r="6" fill="#28303F"/>
<path opacity="0.4" fill-rule="evenodd" clip-rule="evenodd" d="M1.25 14C1.25 13.5858 1.58579 13.25 2 13.25H7C7.41421 13.25 7.75 13.5858 7.75 14C7.75 14.4142 7.41421 14.75 7 14.75H2C1.58579 14.75 1.25 14.4142 1.25 14Z" fill="#28303F"/>
<path opacity="0.4" fill-rule="evenodd" clip-rule="evenodd" d="M1.25 9C1.25 8.58579 1.58579 8.25 2 8.25H7C7.41421 8.25 7.75 8.58579 7.75 9C7.75 9.41421 7.41421 9.75 7 9.75H2C1.58579 9.75 1.25 9.41421 1.25 9Z" fill="#28303F"/>
<path opacity="0.4" fill-rule="evenodd" clip-rule="evenodd" d="M1.25 4C1.25 3.58579 1.58579 3.25 2 3.25H15C15.4142 3.25 15.75 3.58579 15.75 4C15.75 4.41421 15.4142 4.75 15 4.75H2C1.58579 4.75 1.25 4.41421 1.25 4Z" fill="#28303F"/>
</svg>
