<svg width="24" height="24" viewBox="0 0 24 24" fill="none" xmlns="http://www.w3.org/2000/svg">
<path fill-rule="evenodd" clip-rule="evenodd" d="M7.49715 2.68712C7.87667 2.52116 8.04979 2.07897 7.88383 1.69945C7.71787 1.31994 7.27568 1.14682 6.89617 1.31277C4.63941 2.29963 2.72454 3.92017 1.37553 5.9491C1.14619 6.29403 1.2399 6.75957 1.58482 6.98891C1.92975 7.21825 2.39529 7.12454 2.62463 6.77961C3.81588 4.98796 5.50681 3.55748 7.49715 2.68712ZM17.104 1.31277C16.7245 1.14682 16.2823 1.31994 16.1163 1.69945C15.9504 2.07897 16.1235 2.52116 16.503 2.68712C18.4934 3.55748 20.1843 4.98796 21.3755 6.77961C21.6049 7.12454 22.0704 7.21824 22.4153 6.9889C22.7603 6.75957 22.854 6.29403 22.6246 5.9491C21.2756 3.92017 19.3607 2.29963 17.104 1.31277ZM19.4493 18.8963C20.7333 17.2763 21.5001 15.2277 21.5001 13C21.5001 7.75329 17.2468 3.5 12.0001 3.5C6.75336 3.5 2.50006 7.75329 2.50006 13C2.50006 15.2276 3.26679 17.2762 4.55075 18.8962L2.41742 21.5277C2.15657 21.8495 2.20596 22.3218 2.52772 22.5826C2.84948 22.8435 3.32178 22.7941 3.58263 22.4723L5.58283 20.005C7.27326 21.5544 9.52623 22.5 12.0001 22.5C14.4738 22.5 16.7268 21.5545 18.4172 20.0051L20.4174 22.4723C20.6783 22.7941 21.1506 22.8435 21.4723 22.5826C21.7941 22.3218 21.8435 21.8495 21.5826 21.5277L19.4493 18.8963ZM12 7.25C12.4142 7.25 12.75 7.58579 12.75 8V12.5986L15.416 14.376C15.7607 14.6057 15.8538 15.0714 15.624 15.416C15.3943 15.7607 14.9286 15.8538 14.584 15.624L11.584 13.624C11.3753 13.4849 11.25 13.2508 11.25 13V8C11.25 7.58579 11.5858 7.25 12 7.25Z" fill="#28303F"/>
</svg>
