<svg width="24" height="24" viewBox="0 0 24 24" fill="none" xmlns="http://www.w3.org/2000/svg">
<path fill-rule="evenodd" clip-rule="evenodd" d="M4 2C2.89543 2 2 2.89543 2 4V8C2 9.10457 2.89543 10 4 10H8C9.10457 10 10 9.10457 10 8V4C10 2.89543 9.10457 2 8 2H4ZM6 22C8.20914 22 10 20.2091 10 18C10 15.7909 8.20914 14 6 14C3.79086 14 2 15.7909 2 18C2 20.2091 3.79086 22 6 22ZM14 16C14 14.8954 14.8954 14 16 14H20C21.1046 14 22 14.8954 22 16V20C22 21.1046 21.1046 22 20 22H16C14.8954 22 14 21.1046 14 20V16ZM18.5 2.75C18.5 2.33579 18.1642 2 17.75 2C17.3358 2 17 2.33579 17 2.75V5.5H14.25C13.8358 5.5 13.5 5.83579 13.5 6.25C13.5 6.66421 13.8358 7 14.25 7H17V9.75C17 10.1642 17.3358 10.5 17.75 10.5C18.1642 10.5 18.5 10.1642 18.5 9.75V7H21.25C21.6642 7 22 6.66421 22 6.25C22 5.83579 21.6642 5.5 21.25 5.5H18.5V2.75Z" fill="#28303F"/>
</svg>
