<svg width="24" height="24" viewBox="0 0 24 24" fill="none" xmlns="http://www.w3.org/2000/svg">
<path fill-rule="evenodd" clip-rule="evenodd" d="M19 17C20.6569 17 22 15.6569 22 14L22 5C22 3.34315 20.6569 2 19 2H5C3.34315 2 2 3.34315 2 5V14C2 15.6569 3.34314 17 5 17H6.52542L4.35687 20.6142C4.14376 20.9694 4.25893 21.4301 4.61412 21.6432C4.9693 21.8563 5.43 21.7412 5.64311 21.386L8.2747 17L11.25 17V19.0001C11.25 19.4143 11.5858 19.7501 12 19.7501C12.4142 19.7501 12.75 19.4143 12.75 19.0001V17L15.7253 17L18.3569 21.386C18.57 21.7412 19.0307 21.8563 19.3859 21.6432C19.741 21.4301 19.8562 20.9694 19.6431 20.6142L17.4746 17H19ZM6.25 7C6.25 6.58579 6.58579 6.25 7 6.25H17C17.4142 6.25 17.75 6.58579 17.75 7C17.75 7.41421 17.4142 7.75 17 7.75H7C6.58579 7.75 6.25 7.41421 6.25 7ZM7 11.25C6.58579 11.25 6.25 11.5858 6.25 12C6.25 12.4142 6.58579 12.75 7 12.75H12C12.4142 12.75 12.75 12.4142 12.75 12C12.75 11.5858 12.4142 11.25 12 11.25H7Z" fill="#28303F"/>
</svg>
