<svg width="24" height="24" viewBox="0 0 24 24" fill="none" xmlns="http://www.w3.org/2000/svg">
<path fill-rule="evenodd" clip-rule="evenodd" d="M12 2C12.4143 2 12.75 2.33579 12.75 2.75V3.75C12.75 4.16421 12.4143 4.5 12 4.5C11.5858 4.5 11.25 4.16421 11.25 3.75V2.75C11.25 2.33579 11.5858 2 12 2ZM18 12C18 15.3137 15.3138 18 12 18C8.68634 18 6.00004 15.3137 6.00004 12C6.00004 8.68629 8.68634 6 12 6C15.3138 6 18 8.68629 18 12ZM12.75 20.25C12.75 19.8358 12.4143 19.5 12 19.5C11.5858 19.5 11.25 19.8358 11.25 20.25V21.25C11.25 21.6642 11.5858 22 12 22C12.4143 22 12.75 21.6642 12.75 21.25V20.25ZM3.33989 7.00002C3.547 6.6413 4.00569 6.51839 4.36441 6.7255L5.23043 7.2255C5.58915 7.4326 5.71206 7.8913 5.50495 8.25002C5.29785 8.60874 4.83915 8.73164 4.48043 8.52454L3.61441 8.02454C3.25569 7.81743 3.13278 7.35874 3.33989 7.00002ZM19.5197 15.4755C19.161 15.2684 18.7023 15.3913 18.4952 15.75C18.2881 16.1087 18.411 16.5674 18.7697 16.7745L19.6357 17.2745C19.9944 17.4816 20.4531 17.3587 20.6602 17C20.8673 16.6413 20.7444 16.1826 20.3857 15.9755L19.5197 15.4755ZM20.6602 6.99998C20.8673 7.3587 20.7444 7.8174 20.3857 8.0245L19.5197 8.5245C19.1609 8.73161 18.7022 8.6087 18.4951 8.24998C18.288 7.89126 18.4109 7.43257 18.7697 7.22546L19.6357 6.72546C19.9944 6.51836 20.4531 6.64126 20.6602 6.99998ZM5.23041 16.7745C5.58913 16.5674 5.71203 16.1087 5.50493 15.75C5.29782 15.3913 4.83913 15.2684 4.48041 15.4755L3.61438 15.9755C3.25566 16.1826 3.13276 16.6413 3.33986 17C3.54697 17.3587 4.00566 17.4816 4.36438 17.2745L5.23041 16.7745Z" fill="#28303F"/>
</svg>
