<svg width="24" height="24" viewBox="0 0 24 24" fill="none" xmlns="http://www.w3.org/2000/svg">
<path fill-rule="evenodd" clip-rule="evenodd" d="M2 9.5V18C2 20.2091 3.79086 22 6 22H18C20.2091 22 22 20.2091 22 18V9.5H2ZM2 8H22V6C22 3.79086 20.2091 2 18 2H6C3.79086 2 2 3.79086 2 6V8ZM19 5C19 5.55228 18.5523 6 18 6C17.4477 6 17 5.55228 17 5C17 4.44772 17.4477 4 18 4C18.5523 4 19 4.44772 19 5ZM14 6C14.5523 6 15 5.55228 15 5C15 4.44772 14.5523 4 14 4C13.4477 4 13 4.44772 13 5C13 5.55228 13.4477 6 14 6Z" fill="#28303F"/>
</svg>
