<svg width="24" height="24" viewBox="0 0 24 24" fill="none" xmlns="http://www.w3.org/2000/svg">
<path fill-rule="evenodd" clip-rule="evenodd" d="M2.75 12C2.75 6.89137 6.89137 2.75 12 2.75C13.6861 2.75 15.2647 3.20043 16.6245 3.98703C16.983 4.19443 17.4418 4.07191 17.6492 3.71337C17.8566 3.35482 17.7341 2.89602 17.3755 2.68862C15.7936 1.77351 13.9568 1.25 12 1.25C6.06294 1.25 1.25 6.06294 1.25 12C1.25 17.9371 6.06294 22.75 12 22.75C17.9371 22.75 22.75 17.9371 22.75 12C22.75 10.6777 22.5109 9.40951 22.0729 8.23747C21.928 7.84946 21.4959 7.65246 21.1079 7.79745C20.7199 7.94244 20.5229 8.37452 20.6678 8.76253C21.044 9.76917 21.25 10.8597 21.25 12C21.25 17.1086 17.1086 21.25 12 21.25C6.89137 21.25 2.75 17.1086 2.75 12ZM21.5575 4.50173C21.8346 4.19385 21.8096 3.71963 21.5018 3.44254C21.1939 3.16544 20.7197 3.1904 20.4426 3.49828L12.705 12.0956C12.262 12.5878 11.512 12.6492 10.995 12.2355L7.46855 9.41436C7.1451 9.1556 6.67313 9.20804 6.41438 9.53149C6.15562 9.85493 6.20806 10.3269 6.53151 10.5857L10.0579 13.4068C11.1955 14.3168 12.8454 14.1819 13.8199 13.0991L21.5575 4.50173Z" fill="#28303F"/>
</svg>
