<svg width="24" height="24" viewBox="0 0 24 24" fill="none" xmlns="http://www.w3.org/2000/svg">
<path fill-rule="evenodd" clip-rule="evenodd" d="M2 6C2 3.79086 3.79086 2 6 2H18C20.2091 2 22 3.79086 22 6V18C22 20.2091 20.2091 22 18 22H6C3.79086 22 2 20.2091 2 18V6ZM4.25 7C4.25 5.48122 5.48122 4.25 7 4.25H17C18.5188 4.25 19.75 5.48122 19.75 7V17C19.75 18.5188 18.5188 19.75 17 19.75H7C5.48122 19.75 4.25 18.5188 4.25 17V7ZM7 5.75C6.30964 5.75 5.75 6.30964 5.75 7V17C5.75 17.6904 6.30964 18.25 7 18.25H17C17.6904 18.25 18.25 17.6904 18.25 17V7C18.25 6.30964 17.6904 5.75 17 5.75H7ZM12.75 9C12.75 8.58579 12.4142 8.25 12 8.25C11.5858 8.25 11.25 8.58579 11.25 9V11.382C11.25 12.0448 11.6245 12.6508 12.2174 12.9472L13.6646 13.6708C14.0351 13.8561 14.4856 13.7059 14.6708 13.3354C14.8561 12.9649 14.7059 12.5144 14.3354 12.3292L12.8882 11.6056C12.8035 11.5632 12.75 11.4767 12.75 11.382V9Z" fill="#28303F"/>
</svg>
