<svg width="24" height="24" viewBox="0 0 24 24" fill="none" xmlns="http://www.w3.org/2000/svg">
<path fill-rule="evenodd" clip-rule="evenodd" d="M6 2C3.79086 2 2 3.79086 2 6V18C2 20.2091 3.79086 22 6 22H18C20.2091 22 22 20.2091 22 18V6C22 3.79086 20.2091 2 18 2H6ZM12.75 7C12.75 6.58579 12.4142 6.25 12 6.25C11.5858 6.25 11.25 6.58579 11.25 7V12C11.25 12.3228 11.4566 12.6094 11.7628 12.7115L14.7628 13.7115C15.1558 13.8425 15.5805 13.6301 15.7115 13.2372C15.8425 12.8442 15.6301 12.4195 15.2372 12.2885L12.75 11.4594V7Z" fill="#28303F"/>
</svg>
