<svg width="24" height="24" viewBox="0 0 24 24" fill="none" xmlns="http://www.w3.org/2000/svg">
<path fill-rule="evenodd" clip-rule="evenodd" d="M12.6429 6.5H8V6C8 3.79086 9.79086 2 12 2H18C20.2091 2 22 3.79086 22 6V12C22 14.2091 20.2091 16 18 16H17.5V11.3571C17.5 8.67462 15.3254 6.5 12.6429 6.5ZM6 22H12C14.2091 22 16 20.2091 16 18V12C16 9.79086 14.2091 8 12 8H6C3.79086 8 2 9.79086 2 12V18C2 20.2091 3.79086 22 6 22ZM12.4939 12.4356C12.8056 12.7083 12.8372 13.1822 12.5644 13.4939L9.69452 16.7738C9.07783 17.4786 8.01558 17.5729 7.2843 16.9879L5.53148 15.5857C5.20803 15.3269 5.15559 14.8549 5.41435 14.5315C5.6731 14.208 6.14507 14.1556 6.46852 14.4144L8.22134 15.8166C8.32581 15.9002 8.47756 15.8867 8.56566 15.786L11.4356 12.5061C11.7083 12.1944 12.1821 12.1628 12.4939 12.4356Z" fill="#28303F"/>
</svg>
