<svg width="24" height="24" viewBox="0 0 24 24" fill="none" xmlns="http://www.w3.org/2000/svg">
<path fill-rule="evenodd" clip-rule="evenodd" d="M2 6C2 3.79086 3.79086 2 6 2H14.7876C15.8485 2 16.8659 2.42143 17.616 3.17157L20.8284 6.38398C21.5786 7.13413 22 8.15154 22 9.21241V18C22 20.2091 20.2091 22 18 22H6C3.79086 22 2 20.2091 2 18V6ZM15.75 7C15.75 7.41421 15.4142 7.75 15 7.75L9 7.75C8.58579 7.75 8.25 7.41421 8.25 7C8.25 6.58579 8.58579 6.25 9 6.25L15 6.25C15.4142 6.25 15.75 6.58579 15.75 7ZM7 19V15C7 14.4477 7.44772 14 8 14H16C16.5523 14 17 14.4477 17 15V19C17 19.5523 16.5523 20 16 20H8C7.44772 20 7 19.5523 7 19Z" fill="#28303F"/>
</svg>
