<svg width="24" height="24" viewBox="0 0 24 24" fill="none" xmlns="http://www.w3.org/2000/svg">
<path fill-rule="evenodd" clip-rule="evenodd" d="M11.2889 3H8.12309C6.28761 3 4.68768 4.24919 4.24252 6.02986L2.62125 12.5149C2.30567 13.7772 3.26039 15 4.56153 15H9.49998L8.19312 17.2403C7.22092 18.907 8.42309 21 10.3526 21H11.5L15.3682 14.2306C15.4546 14.0795 15.5 13.9085 15.5 13.7344V5.53518C15.5 5.20083 15.3329 4.8886 15.0547 4.70313L13.5077 3.6718C12.8506 3.23375 12.0786 3 11.2889 3ZM20 15H19C17.8954 15 17 14.1046 17 13V6C17 4.89543 17.8954 4 19 4H20C21.1046 4 22 4.89543 22 6V13C22 14.1046 21.1046 15 20 15Z" fill="#28303F"/>
</svg>
