<svg width="24" height="24" viewBox="0 0 24 24" fill="none" xmlns="http://www.w3.org/2000/svg">
<path fill-rule="evenodd" clip-rule="evenodd" d="M2.75 6C2.75 4.20507 4.20507 2.75 6 2.75H12C12.4142 2.75 12.75 2.41421 12.75 2C12.75 1.58579 12.4142 1.25 12 1.25H6C3.37665 1.25 1.25 3.37665 1.25 6V18C1.25 20.6234 3.37665 22.75 6 22.75H18C20.6234 22.75 22.75 20.6234 22.75 18V12C22.75 11.5858 22.4142 11.25 22 11.25C21.5858 11.25 21.25 11.5858 21.25 12V18C21.25 19.7949 19.7949 21.25 18 21.25H6C4.20507 21.25 2.75 19.7949 2.75 18V6ZM16.419 2.67708C17.3218 1.77431 18.7855 1.77431 19.6883 2.67708L21.3229 4.31171C22.2257 5.21449 22.2257 6.67818 21.3229 7.58096L19.8736 9.03028C19.7598 8.97394 19.6401 8.91302 19.516 8.84767C18.6806 8.40786 17.6892 7.79057 16.9493 7.05069C16.2095 6.31082 15.5922 5.31945 15.1524 4.48403C15.087 4.35989 15.0261 4.24018 14.9697 4.12639L16.419 2.67708ZM15.8887 8.11135C16.7642 8.98687 17.8777 9.67594 18.7595 10.1444L13.06 15.8438C12.7064 16.1975 12.2475 16.4269 11.7523 16.4977L8.31963 16.9881C7.5568 17.097 6.90295 16.4432 7.01193 15.6804L7.50231 12.2477C7.57305 11.7525 7.80248 11.2936 8.15616 10.94L13.8556 5.24053C14.3241 6.12234 15.0131 7.23582 15.8887 8.11135Z" fill="#28303F"/>
</svg>
