<svg width="24" height="24" viewBox="0 0 24 24" fill="none" xmlns="http://www.w3.org/2000/svg">
<path fill-rule="evenodd" clip-rule="evenodd" d="M12.75 2.74988C12.75 2.33566 12.4142 1.99988 12 1.99988C11.5858 1.99988 11.25 2.33566 11.25 2.74988V4.74988C11.25 5.16409 11.5858 5.49988 12 5.49988C12.4142 5.49988 12.75 5.16409 12.75 4.74988V2.74988ZM3.53033 5.21955C3.23744 4.92665 2.76256 4.92665 2.46967 5.21955C2.17678 5.51244 2.17678 5.98731 2.46967 6.28021L3.96967 7.78021C4.26256 8.0731 4.73744 8.0731 5.03033 7.78021C5.32322 7.48731 5.32322 7.01244 5.03033 6.71955L3.53033 5.21955ZM21.5303 6.28021C21.8232 5.98731 21.8232 5.51244 21.5303 5.21955C21.2374 4.92665 20.7626 4.92665 20.4697 5.21955L18.9697 6.71955C18.6768 7.01244 18.6768 7.48731 18.9697 7.78021C19.2626 8.0731 19.7374 8.0731 20.0303 7.78021L21.5303 6.28021ZM20.8772 12.3211C22.3743 13.7542 22.3743 16.2458 20.8772 17.6789C18.8134 19.6545 15.6042 22 12 22C8.3958 22 5.18661 19.6545 3.12281 17.6789C1.62573 16.2458 1.62573 13.7542 3.12281 12.3211C5.18661 10.3455 8.3958 8 12 8C15.6042 8 18.8134 10.3455 20.8772 12.3211ZM15 15C15 16.6569 13.6568 18 12 18C10.3431 18 8.99997 16.6569 8.99997 15C8.99997 13.3431 10.3431 12 12 12C13.6568 12 15 13.3431 15 15Z" fill="#28303F"/>
</svg>
