<svg width="24" height="24" viewBox="0 0 24 24" fill="none" xmlns="http://www.w3.org/2000/svg">
<path fill-rule="evenodd" clip-rule="evenodd" d="M6 2C3.79086 2 2 3.79086 2 6V18C2 20.2091 3.79086 22 6 22H18C20.2091 22 22 20.2091 22 18V6C22 3.79086 20.2091 2 18 2H6ZM7 18.5C7.82843 18.5 8.5 17.8284 8.5 17C8.5 16.1716 7.82843 15.5 7 15.5C6.17157 15.5 5.5 16.1716 5.5 17C5.5 17.8284 6.17157 18.5 7 18.5ZM5.25578 10.9073C5.30704 10.4962 5.68179 10.2046 6.09282 10.2558C10.0845 10.7536 13.2465 13.9156 13.7443 17.9073C13.7955 18.3183 13.5039 18.6931 13.0928 18.7443C12.6818 18.7956 12.307 18.5039 12.2558 18.0929C11.843 14.7825 9.21758 12.1571 5.90721 11.7443C5.49618 11.6931 5.20453 11.3183 5.25578 10.9073ZM6 5.25C5.58579 5.25 5.25 5.58579 5.25 6C5.25 6.41421 5.58579 6.75 6 6.75C12.2132 6.75 17.25 11.7868 17.25 18C17.25 18.4142 17.5858 18.75 18 18.75C18.4142 18.75 18.75 18.4142 18.75 18C18.75 10.9584 13.0416 5.25 6 5.25Z" fill="#28303F"/>
</svg>
