<svg width="24" height="24" viewBox="0 0 24 24" fill="none" xmlns="http://www.w3.org/2000/svg">
<path fill-rule="evenodd" clip-rule="evenodd" d="M4.75 8.35352L4.75 3C4.75 2.58579 4.41421 2.25 4 2.25C3.58579 2.25 3.25 2.58579 3.25 3L3.25 8.35352C2.09575 8.67998 1.25 9.74122 1.25 11V13C1.25 14.2588 2.09575 15.32 3.25 15.6465V21C3.25 21.4142 3.58579 21.75 4 21.75C4.41421 21.75 4.75 21.4142 4.75 21V15.6465C5.90425 15.32 6.75 14.2588 6.75 13V11C6.75 9.74122 5.90425 8.67998 4.75 8.35352ZM12.75 4.35352V3C12.75 2.58579 12.4142 2.25 12 2.25C11.5858 2.25 11.25 2.58579 11.25 3V4.35352C10.0957 4.67998 9.25 5.74122 9.25 7V9C9.25 10.5188 10.4812 11.75 12 11.75C13.5188 11.75 14.75 10.5188 14.75 9V7C14.75 5.74122 13.9043 4.67998 12.75 4.35352ZM12 21.75C11.5858 21.75 11.25 21.4142 11.25 21V14C11.25 13.5858 11.5858 13.25 12 13.25C12.4142 13.25 12.75 13.5858 12.75 14V21C12.75 21.4142 12.4142 21.75 12 21.75ZM20 10.75C19.5858 10.75 19.25 10.4142 19.25 10V3C19.25 2.58579 19.5858 2.25 20 2.25C20.4142 2.25 20.75 2.58579 20.75 3V10C20.75 10.4142 20.4142 10.75 20 10.75ZM20 12.25C18.4812 12.25 17.25 13.4812 17.25 15V17C17.25 18.2588 18.0957 19.32 19.25 19.6465V21C19.25 21.4142 19.5858 21.75 20 21.75C20.4142 21.75 20.75 21.4142 20.75 21V19.6465C21.9043 19.32 22.75 18.2588 22.75 17V15C22.75 13.4812 21.5188 12.25 20 12.25Z" fill="#28303F"/>
</svg>
