<svg width="24" height="24" viewBox="0 0 24 24" fill="none" xmlns="http://www.w3.org/2000/svg">
<path fill-rule="evenodd" clip-rule="evenodd" d="M9 11C10.6569 11 12 9.65685 12 8C12 6.34315 10.6569 5 9 5C7.60212 5 6.42755 5.95608 6.09451 7.25H3C2.58579 7.25 2.25 7.58579 2.25 8C2.25 8.41421 2.58579 8.75 3 8.75H6.09451C6.42755 10.0439 7.60212 11 9 11ZM14.25 8C14.25 7.58579 14.5858 7.25 15 7.25H21C21.4142 7.25 21.75 7.58579 21.75 8C21.75 8.41421 21.4142 8.75 21 8.75H15C14.5858 8.75 14.25 8.41421 14.25 8ZM17.9055 16.75C17.5725 18.0439 16.3979 19 15 19C13.3431 19 12 17.6569 12 16C12 14.3431 13.3431 13 15 13C16.3979 13 17.5725 13.9561 17.9055 15.25H21C21.4142 15.25 21.75 15.5858 21.75 16C21.75 16.4142 21.4142 16.75 21 16.75H17.9055ZM2.25 16C2.25 15.5858 2.58579 15.25 3 15.25H9C9.41421 15.25 9.75 15.5858 9.75 16C9.75 16.4142 9.41421 16.75 9 16.75H3C2.58579 16.75 2.25 16.4142 2.25 16Z" fill="#28303F"/>
</svg>
