<svg width="24" height="24" viewBox="0 0 24 24" fill="none" xmlns="http://www.w3.org/2000/svg">
<path fill-rule="evenodd" clip-rule="evenodd" d="M14 5H16C17.3979 5 18.5725 5.95608 18.9055 7.25H21C21.4142 7.25 21.75 7.58579 21.75 8C21.75 8.41421 21.4142 8.75 21 8.75H18.9055C18.5725 10.0439 17.3979 11 16 11H14C12.3431 11 11 9.65685 11 8C11 6.34315 12.3431 5 14 5ZM3 7.25C2.58579 7.25 2.25 7.58579 2.25 8C2.25 8.41421 2.58579 8.75 3 8.75H8C8.41421 8.75 8.75 8.41421 8.75 8C8.75 7.58579 8.41421 7.25 8 7.25H3ZM16 15.25C15.5858 15.25 15.25 15.5858 15.25 16C15.25 16.4142 15.5858 16.75 16 16.75H21C21.4142 16.75 21.75 16.4142 21.75 16C21.75 15.5858 21.4142 15.25 21 15.25H16ZM10 13H8C6.60212 13 5.42755 13.9561 5.09451 15.25H3C2.58579 15.25 2.25 15.5858 2.25 16C2.25 16.4142 2.58579 16.75 3 16.75H5.09451C5.42755 18.0439 6.60212 19 8 19H10C11.6569 19 13 17.6569 13 16C13 14.3431 11.6569 13 10 13Z" fill="#28303F"/>
</svg>
