<svg width="24" height="24" viewBox="0 0 24 24" fill="none" xmlns="http://www.w3.org/2000/svg">
<path fill-rule="evenodd" clip-rule="evenodd" d="M7.25 5.09451L7.25 3C7.25 2.58579 7.58579 2.25 8 2.25C8.41421 2.25 8.75 2.58579 8.75 3L8.75 5.09451C10.0439 5.42755 11 6.60212 11 8V10C11 11.6569 9.65685 13 8 13C6.34315 13 5 11.6569 5 10V8C5 6.60212 5.95608 5.42755 7.25 5.09451ZM15.25 8C15.25 8.41421 15.5858 8.75 16 8.75C16.4142 8.75 16.75 8.41421 16.75 8V3C16.75 2.58579 16.4142 2.25 16 2.25C15.5858 2.25 15.25 2.58579 15.25 3V8ZM7.25 21C7.25 21.4142 7.58579 21.75 8 21.75C8.41421 21.75 8.75 21.4142 8.75 21L8.75 16C8.75 15.5858 8.41421 15.25 8 15.25C7.58579 15.25 7.25 15.5858 7.25 16L7.25 21ZM13 14V16C13 17.3979 13.9561 18.5725 15.25 18.9055V21C15.25 21.4142 15.5858 21.75 16 21.75C16.4142 21.75 16.75 21.4142 16.75 21V18.9055C18.0439 18.5725 19 17.3979 19 16V14C19 12.3431 17.6569 11 16 11C14.3431 11 13 12.3431 13 14Z" fill="#28303F"/>
</svg>
