<svg width="24" height="24" viewBox="0 0 24 24" fill="none" xmlns="http://www.w3.org/2000/svg">
<path fill-rule="evenodd" clip-rule="evenodd" d="M3.75 2C4.16421 2 4.5 2.33579 4.5 2.75V3H15C16.1046 3 17 3.89543 17 5V7V12V12.75C17 13.4404 16.4404 14 15.75 14H15H7H4.5V21.25C4.5 21.6642 4.16421 22 3.75 22C3.33579 22 3 21.6642 3 21.25V14V3V2.75C3 2.33579 3.33579 2 3.75 2ZM7 16V15.5H15.75C17.2688 15.5 18.5 14.2688 18.5 12.75V7H19C20.1046 7 21 7.89543 21 9V16C21 17.1046 20.1046 18 19 18H9C7.89543 18 7 17.1046 7 16Z" fill="#28303F"/>
</svg>
