<svg width="24" height="24" viewBox="0 0 24 24" fill="none" xmlns="http://www.w3.org/2000/svg">
<path fill-rule="evenodd" clip-rule="evenodd" d="M6 1.25C3.37665 1.25 1.25 3.37665 1.25 6V7.55556C1.25 7.96977 1.58579 8.30556 2 8.30556C2.41421 8.30556 2.75 7.96977 2.75 7.55556V6C2.75 4.20507 4.20507 2.75 6 2.75H7.55556C7.96977 2.75 8.30556 2.41421 8.30556 2C8.30556 1.58579 7.96977 1.25 7.55556 1.25H6ZM16.4444 1.25C16.0302 1.25 15.6944 1.58579 15.6944 2C15.6944 2.41421 16.0302 2.75 16.4444 2.75H18C19.7949 2.75 21.25 4.20507 21.25 6V7.55556C21.25 7.96977 21.5858 8.30556 22 8.30556C22.4142 8.30556 22.75 7.96977 22.75 7.55556V6C22.75 3.37665 20.6234 1.25 18 1.25H16.4444ZM2.75 16.4444C2.75 16.0302 2.41421 15.6944 2 15.6944C1.58579 15.6944 1.25 16.0302 1.25 16.4444V18C1.25 20.6234 3.37665 22.75 6 22.75H7.55556C7.96977 22.75 8.30556 22.4142 8.30556 22C8.30556 21.5858 7.96977 21.25 7.55556 21.25H6C4.20507 21.25 2.75 19.7949 2.75 18V16.4444ZM22.75 16.4444C22.75 16.0302 22.4142 15.6944 22 15.6944C21.5858 15.6944 21.25 16.0302 21.25 16.4444V18C21.25 19.7949 19.7949 21.25 18 21.25H16.4444C16.0302 21.25 15.6944 21.5858 15.6944 22C15.6944 22.4142 16.0302 22.75 16.4444 22.75H18C20.6234 22.75 22.75 20.6234 22.75 18V16.4444ZM12 17C14.7614 17 17 14.7614 17 12C17 9.23858 14.7614 7 12 7C9.23858 7 7 9.23858 7 12C7 14.7614 9.23858 17 12 17Z" fill="#28303F"/>
</svg>
