<svg width="24" height="24" viewBox="0 0 24 24" fill="none" xmlns="http://www.w3.org/2000/svg">
<path fill-rule="evenodd" clip-rule="evenodd" d="M18.5625 5H20C21.1046 5 22 5.89543 22 7V8C22 9.10457 21.1046 10 20 10H4C2.89543 10 2 9.10457 2 8V7C2 5.89543 2.89543 5 4 5H5.43747C5.31643 4.69007 5.25 4.35279 5.25 4C5.25 2.48122 6.48122 1.25 8 1.25C9.67947 1.25 11.1554 2.12162 12 3.43718C12.8446 2.12162 14.3205 1.25 16 1.25C17.5188 1.25 18.75 2.48122 18.75 4C18.75 4.35279 18.6836 4.69007 18.5625 5ZM7.24988 5H11.0933C10.6715 3.69437 9.44602 2.75 8 2.75C7.30964 2.75 6.75 3.30964 6.75 4C6.75 4.4089 6.94634 4.77194 7.24988 5ZM16.7501 5C17.0537 4.77194 17.25 4.4089 17.25 4C17.25 3.30964 16.6904 2.75 16 2.75C14.554 2.75 13.3285 3.69437 12.9067 5H16.7501ZM20 11.5H4V20C4 21.1046 4.89543 22 6 22H18C19.1046 22 20 21.1046 20 20V11.5Z" fill="#28303F"/>
</svg>
