<svg width="24" height="24" viewBox="0 0 24 24" fill="none" xmlns="http://www.w3.org/2000/svg">
<path fill-rule="evenodd" clip-rule="evenodd" d="M2 6C2 3.79086 3.79086 2 6 2H18C20.2091 2 22 3.79086 22 6V12.449L19.7535 10.9786C18.019 9.84327 15.7486 9.96391 14.1442 11.2766L8.906 15.5624C7.80825 16.4606 6.25482 16.5431 5.06808 15.7663L2 13.7581V6ZM18.932 12.2336L22 14.2418V18C22 20.2091 20.2091 22 18 22H6C3.79086 22 2 20.2091 2 18V15.5509L4.24659 17.0214C5.98106 18.1567 8.25145 18.036 9.85585 16.7233L15.0941 12.4375C16.1918 11.5394 17.7452 11.4568 18.932 12.2336ZM8.5 11C9.88071 11 11 9.88071 11 8.5C11 7.11929 9.88071 6 8.5 6C7.11929 6 6 7.11929 6 8.5C6 9.88071 7.11929 11 8.5 11Z" fill="#28303F"/>
</svg>
