<svg width="24" height="24" viewBox="0 0 24 24" fill="none" xmlns="http://www.w3.org/2000/svg">
<path fill-rule="evenodd" clip-rule="evenodd" d="M16 2H8C6.61347 2 5.33678 2.47031 4.32077 3.26011L9.75178 8.69112C10.3925 8.25495 11.1665 8 12 8C12.8335 8 13.6075 8.25495 14.2482 8.69112L19.6792 3.26011C18.6632 2.47031 17.3865 2 16 2ZM20.7399 4.32077L15.3089 9.75178C15.745 10.3925 16 11.1665 16 12C16 12.8335 15.745 13.6075 15.3089 14.2482L20.7399 19.6792C21.5297 18.6632 22 17.3865 22 16V8C22 6.61347 21.5297 5.33678 20.7399 4.32077ZM19.6792 20.7399L14.2482 15.3089C13.6075 15.745 12.8335 16 12 16C11.1665 16 10.3925 15.745 9.75178 15.3089L4.32077 20.7399C5.33678 21.5297 6.61347 22 8 22H16C17.3865 22 18.6632 21.5297 19.6792 20.7399ZM3.26011 19.6792L8.69112 14.2482C8.25495 13.6075 8 12.8335 8 12C8 11.1665 8.25495 10.3925 8.69112 9.75178L3.26011 4.32077C2.47031 5.33678 2 6.61347 2 8V16C2 17.3865 2.47031 18.6632 3.26011 19.6792Z" fill="#28303F"/>
</svg>
