<svg width="24" height="24" viewBox="0 0 24 24" fill="none" xmlns="http://www.w3.org/2000/svg">
<path fill-rule="evenodd" clip-rule="evenodd" d="M12.7111 21H15.8769C17.7124 21 19.3123 19.7508 19.7575 17.9701L21.3788 11.4851C21.6943 10.2228 20.7396 9 19.4385 9H14.5L15.8069 6.75968C16.7791 5.09303 15.5769 3 13.6474 3H12.5L8.63178 9.76943C8.54543 9.92052 8.50002 10.0915 8.50002 10.2656V18.4648C8.50002 18.7992 8.66712 19.1114 8.94532 19.2969L10.4923 20.3282C11.1494 20.7662 11.9214 21 12.7111 21ZM4 9H5C6.10457 9 7 9.89543 7 11V18C7 19.1046 6.10457 20 5 20H4C2.89543 20 2 19.1046 2 18V11C2 9.89543 2.89543 9 4 9Z" fill="#28303F"/>
</svg>
