<svg width="24" height="24" viewBox="0 0 24 24" fill="none" xmlns="http://www.w3.org/2000/svg">
<path fill-rule="evenodd" clip-rule="evenodd" d="M3 5.25C2.0335 5.25 1.25 6.0335 1.25 7V9C1.25 9.9665 2.0335 10.75 3 10.75H5C5.9665 10.75 6.75 9.9665 6.75 9V7C6.75 6.0335 5.9665 5.25 5 5.25H3ZM3 13.25C2.0335 13.25 1.25 14.0335 1.25 15V17C1.25 17.9665 2.0335 18.75 3 18.75H5C5.9665 18.75 6.75 17.9665 6.75 17V15C6.75 14.0335 5.9665 13.25 5 13.25H3ZM9.25 6C9.25 5.58579 9.58579 5.25 10 5.25H16C16.4142 5.25 16.75 5.58579 16.75 6C16.75 6.41421 16.4142 6.75 16 6.75H10C9.58579 6.75 9.25 6.41421 9.25 6ZM10 13.25C9.58579 13.25 9.25 13.5858 9.25 14C9.25 14.4142 9.58579 14.75 10 14.75H16C16.4142 14.75 16.75 14.4142 16.75 14C16.75 13.5858 16.4142 13.25 16 13.25H10ZM9.25 10C9.25 9.58579 9.58579 9.25 10 9.25H22C22.4142 9.25 22.75 9.58579 22.75 10C22.75 10.4142 22.4142 10.75 22 10.75H10C9.58579 10.75 9.25 10.4142 9.25 10ZM10 17.25C9.58579 17.25 9.25 17.5858 9.25 18C9.25 18.4142 9.58579 18.75 10 18.75H22C22.4142 18.75 22.75 18.4142 22.75 18C22.75 17.5858 22.4142 17.25 22 17.25H10Z" fill="#28303F"/>
</svg>
