<svg width="24" height="24" viewBox="0 0 24 24" fill="none" xmlns="http://www.w3.org/2000/svg">
<path fill-rule="evenodd" clip-rule="evenodd" d="M18 9.22222C18 12.6587 14.25 17 12 17C9.75 17 6 12.6587 6 9.22222C6 5.78578 8.68629 3 12 3C15.3137 3 18 5.78578 18 9.22222ZM14 9C14 10.1046 13.1046 11 12 11C10.8954 11 10 10.1046 10 9C10 7.89543 10.8954 7 12 7C13.1046 7 14 7.89543 14 9ZM5.83346 16H7.17034C8.73742 17.7664 10.5898 19 12.0001 19C13.4105 19 15.2628 17.7664 16.8299 16H18.1668C18.9742 16 19.7024 16.4855 20.0129 17.2308L20.8463 19.2308C21.3952 20.5481 20.4273 22 19.0001 22H5.00013C3.57297 22 2.60507 20.5481 3.15397 19.2308L3.98731 17.2308C4.29784 16.4855 5.02606 16 5.83346 16Z" fill="#28303F"/>
</svg>
