<svg width="24" height="24" viewBox="0 0 24 24" fill="none" xmlns="http://www.w3.org/2000/svg">
<path fill-rule="evenodd" clip-rule="evenodd" d="M6.47458 2.71526C8.16252 1.58997 10.3797 2.62162 10.7085 4.51637H14C15.5188 4.51637 16.75 5.74759 16.75 7.26637C16.75 7.68058 16.4142 8.01637 16 8.01637C15.5858 8.01637 15.25 7.68058 15.25 7.26637C15.25 6.57601 14.6904 6.01637 14 6.01637H10.75V18.5164H14C14.6904 18.5164 15.25 17.9567 15.25 17.2664C15.25 16.8522 15.5858 16.5164 16 16.5164C16.4142 16.5164 16.75 16.8522 16.75 17.2664C16.75 18.7852 15.5188 20.0164 14 20.0164H10.7085C10.3797 21.9111 8.16252 22.9428 6.47458 21.8175L4.47457 20.4841C3.70953 19.9741 3.25 19.1155 3.25 18.196V6.33674C3.25 5.41727 3.70953 4.55863 4.47457 4.0486L6.47458 2.71526ZM15.5302 9.73603C15.8231 10.0289 15.8231 10.5038 15.5302 10.7967L14.8105 11.5164L19.9998 11.5164C20.4141 11.5164 20.7499 11.8521 20.7499 12.2664C20.7499 12.6806 20.4141 13.0164 19.9998 13.0164L14.8105 13.0164L15.5302 13.736C15.8231 14.0289 15.8231 14.5038 15.5302 14.7967C15.2373 15.0896 14.7624 15.0896 14.4695 14.7967L13.1766 13.5038C12.4932 12.8204 12.4932 11.7123 13.1766 11.0289L14.4695 9.73603C14.7624 9.44313 15.2373 9.44313 15.5302 9.73603Z" fill="#28303F"/>
</svg>
