<svg width="24" height="24" viewBox="0 0 24 24" fill="none" xmlns="http://www.w3.org/2000/svg">
<path d="M6.75 3.25C4.12665 3.25 2 5.37665 2 8V16C2 18.6234 4.12665 20.75 6.75 20.75H14C16.6234 20.75 18.75 18.6234 18.75 16C18.75 15.5858 18.4142 15.25 18 15.25C17.5858 15.25 17.25 15.5858 17.25 16C17.25 17.7949 15.7949 19.25 14 19.25H9.46412C10.2616 18.4003 10.75 17.2572 10.75 16V8C10.75 6.74279 10.2616 5.59965 9.46412 4.75H14C15.7949 4.75 17.25 6.20507 17.25 8C17.25 8.41421 17.5858 8.75 18 8.75C18.4142 8.75 18.75 8.41421 18.75 8C18.75 5.37665 16.6234 3.25 14 3.25H6.75Z" fill="#28303F"/>
<path d="M15.5302 9.46967C15.8231 9.76256 15.8231 10.2374 15.5302 10.5303L14.8105 11.25L21.2499 11.25C21.6641 11.25 21.9999 11.5858 21.9999 12C21.9999 12.4142 21.6641 12.75 21.2499 12.75L14.8105 12.75L15.5302 13.4697C15.8231 13.7626 15.8231 14.2374 15.5302 14.5303C15.2373 14.8232 14.7624 14.8232 14.4695 14.5303L13.1766 13.2374C12.4932 12.554 12.4932 11.446 13.1766 10.7626L14.4695 9.46967C14.7624 9.17678 15.2373 9.17678 15.5302 9.46967Z" fill="#28303F"/>
</svg>
