<svg width="24" height="24" viewBox="0 0 24 24" fill="none" xmlns="http://www.w3.org/2000/svg">
<path fill-rule="evenodd" clip-rule="evenodd" d="M6.47458 2.71526C8.16252 1.58997 10.3797 2.62162 10.7085 4.51637H14C15.5188 4.51637 16.75 5.74759 16.75 7.26637C16.75 7.68058 16.4142 8.01637 16 8.01637C15.5858 8.01637 15.25 7.68058 15.25 7.26637C15.25 6.57601 14.6904 6.01637 14 6.01637H10.75V18.5164H14C14.6904 18.5164 15.25 17.9567 15.25 17.2664C15.25 16.8522 15.5858 16.5164 16 16.5164C16.4142 16.5164 16.75 16.8522 16.75 17.2664C16.75 18.7852 15.5188 20.0164 14 20.0164H10.7085C10.3797 21.9111 8.16252 22.9428 6.47458 21.8175L4.47457 20.4841C3.70953 19.9741 3.25 19.1155 3.25 18.196V6.33674C3.25 5.41727 3.70953 4.55863 4.47457 4.0486L6.47458 2.71526ZM17.4697 14.5303C17.1768 14.2374 17.1768 13.7626 17.4697 13.4697L18.1893 12.75L13 12.75C12.5858 12.75 12.25 12.4142 12.25 12C12.25 11.5858 12.5858 11.25 13 11.25L18.1893 11.25L17.4697 10.5303C17.1768 10.2374 17.1768 9.76256 17.4697 9.46967C17.7626 9.17678 18.2374 9.17678 18.5303 9.46967L19.8232 10.7626C20.5066 11.446 20.5066 12.554 19.8232 13.2374L18.5303 14.5303C18.2374 14.8232 17.7626 14.8232 17.4697 14.5303Z" fill="#28303F"/>
</svg>
