<svg width="24" height="24" viewBox="0 0 24 24" fill="none" xmlns="http://www.w3.org/2000/svg">
<path fill-rule="evenodd" clip-rule="evenodd" d="M12 1.75C14.7614 1.75 17 3.98858 17 6.75V12.75L7.99979 3.74979C8.91201 2.53546 10.3643 1.75 12 1.75ZM7 7.81066V13.75C7 16.5114 9.23858 18.75 12 18.75C13.6202 18.75 15.0604 17.9794 15.9741 16.7847L17.5748 18.3854C16.2439 19.9842 14.2406 21 12 21C7.99594 21 4.75 17.7541 4.75 13.75V11.75C4.75 11.3358 4.41421 11 4 11C3.58579 11 3.25 11.3358 3.25 11.75V13.75C3.25 18.5825 7.16751 22.5 12 22.5C14.6559 22.5 17.0353 21.3161 18.6391 19.4498L20.4697 21.2803C20.7626 21.5732 21.2374 21.5732 21.5303 21.2803C21.8232 20.9874 21.8232 20.5126 21.5303 20.2197L3.53033 2.21967C3.23744 1.92678 2.76256 1.92678 2.46967 2.21967C2.17678 2.51256 2.17678 2.98744 2.46967 3.28033L7 7.81066ZM20 11C20.4142 11 20.75 11.3358 20.75 11.75V13.75C20.75 14.4248 20.6735 15.0827 20.5283 15.7151C20.4356 16.1188 20.0332 16.371 19.6295 16.2783C19.2258 16.1856 18.9736 15.7832 19.0663 15.3795C19.1864 14.8564 19.25 14.3111 19.25 13.75V11.75C19.25 11.3358 19.5858 11 20 11Z" fill="#28303F"/>
</svg>
