<svg width="24" height="24" viewBox="0 0 24 24" fill="none" xmlns="http://www.w3.org/2000/svg">
<path fill-rule="evenodd" clip-rule="evenodd" d="M7 7V14C7 16.7614 9.23858 19 12 19C14.7614 19 17 16.7614 17 14V13.75H13C12.5858 13.75 12.25 13.4142 12.25 13C12.25 12.5858 12.5858 12.25 13 12.25H17V8.75H13C12.5858 8.75 12.25 8.41421 12.25 8C12.25 7.58579 12.5858 7.25 13 7.25H17V7C17 4.23858 14.7614 2 12 2C9.23858 2 7 4.23858 7 7ZM4.75 12C4.75 11.5858 4.41421 11.25 4 11.25C3.58579 11.25 3.25 11.5858 3.25 12V14C3.25 18.8325 7.16751 22.75 12 22.75C16.8325 22.75 20.75 18.8325 20.75 14V12C20.75 11.5858 20.4142 11.25 20 11.25C19.5858 11.25 19.25 11.5858 19.25 12V14C19.25 18.0041 16.0041 21.25 12 21.25C7.99594 21.25 4.75 18.0041 4.75 14V12Z" fill="#28303F"/>
</svg>
