<svg width="24" height="24" viewBox="0 0 24 24" fill="none" xmlns="http://www.w3.org/2000/svg">
<path fill-rule="evenodd" clip-rule="evenodd" d="M12 2C9.79086 2 8 3.79086 8 6V12C8 14.2091 9.79086 16 12 16C14.2091 16 16 14.2091 16 12V6C16 3.79086 14.2091 2 12 2ZM6 10.25C6.41421 10.25 6.75 10.5858 6.75 11V12C6.75 14.8995 9.10051 17.25 12 17.25C14.8995 17.25 17.25 14.8995 17.25 12V11C17.25 10.5858 17.5858 10.25 18 10.25C18.4142 10.25 18.75 10.5858 18.75 11V12C18.75 15.4744 16.125 18.3357 12.75 18.7088V20.5H15C15.4142 20.5 15.75 20.8358 15.75 21.25C15.75 21.6642 15.4142 22 15 22H9C8.58579 22 8.25 21.6642 8.25 21.25C8.25 20.8358 8.58579 20.5 9 20.5H11.25V18.7088C7.87504 18.3357 5.25 15.4744 5.25 12V11C5.25 10.5858 5.58579 10.25 6 10.25Z" fill="#28303F"/>
</svg>
