<svg width="24" height="24" viewBox="0 0 24 24" fill="none" xmlns="http://www.w3.org/2000/svg">
<path fill-rule="evenodd" clip-rule="evenodd" d="M2.46967 2.21967C2.17678 2.51256 2.17678 2.98744 2.46967 3.28033L8 8.81066V12C8 14.2091 9.79086 16 12 16C12.8978 16 13.7266 15.7042 14.3941 15.2047L15.2849 16.0956C14.3856 16.8179 13.2432 17.25 12 17.25C9.1005 17.25 6.75 14.8995 6.75 12V11C6.75 10.5858 6.41421 10.25 6 10.25C5.58579 10.25 5.25 10.5858 5.25 11V12C5.25 15.4744 7.87504 18.3357 11.25 18.7088V20.5H9C8.58579 20.5 8.25 20.8358 8.25 21.25C8.25 21.6642 8.58579 22 9 22H15C15.4142 22 15.75 21.6642 15.75 21.25C15.75 20.8358 15.4142 20.5 15 20.5H12.75V18.7088C14.1139 18.558 15.3553 18.0009 16.3505 17.1612L20.4697 21.2803C20.7626 21.5732 21.2374 21.5732 21.5303 21.2803C21.8232 20.9874 21.8232 20.5126 21.5303 20.2197L3.53033 2.21967C3.23744 1.92678 2.76256 1.92678 2.46967 2.21967ZM18.1333 14.8226L16.9793 13.6686C17.1549 13.1444 17.25 12.5833 17.25 12V11C17.25 10.5858 17.5858 10.25 18 10.25C18.4142 10.25 18.75 10.5858 18.75 11V12C18.75 13.0077 18.5292 13.9638 18.1333 14.8226ZM8.16614 4.85548L15.9493 12.6386C15.9827 12.4307 16 12.2174 16 12V6C16 3.79086 14.2091 2 12 2C10.1886 2 8.65841 3.20405 8.16614 4.85548Z" fill="#28303F"/>
</svg>
