<svg width="24" height="24" viewBox="0 0 24 24" fill="none" xmlns="http://www.w3.org/2000/svg">
<path fill-rule="evenodd" clip-rule="evenodd" d="M12.75 2.75C12.75 2.33579 12.4142 2 12 2C11.5858 2 11.25 2.33579 11.25 2.75V5H9C6.79086 5 5 6.79086 5 9V15C5 18.866 8.13401 22 12 22C15.866 22 19 18.866 19 15V9C19 6.79086 17.2091 5 15 5H12.75V2.75ZM12 7.25C12.4142 7.25 12.75 7.58579 12.75 8V10C12.75 10.4142 12.4142 10.75 12 10.75C11.5858 10.75 11.25 10.4142 11.25 10V8C11.25 7.58579 11.5858 7.25 12 7.25Z" fill="#28303F"/>
</svg>
