<svg width="24" height="24" viewBox="0 0 24 24" fill="none" xmlns="http://www.w3.org/2000/svg">
<path fill-rule="evenodd" clip-rule="evenodd" d="M7 6H17C18.1046 6 19 5.10457 19 4C19 2.89543 18.1046 2 17 2H7C5.89543 2 5 2.89543 5 4C5 5.10457 5.89543 6 7 6ZM12.9519 21.526L18.2476 15.0968C19.0429 13.9811 19.2189 12.5829 18.7221 11.3282L17.4906 7.5H6.50944L5.27795 11.3282C4.78105 12.5829 4.95707 13.9811 5.75238 15.0968L11.0481 21.526C11.1069 21.6084 11.175 21.68 11.25 21.7409V13.8546C10.517 13.5579 10 12.8393 10 12C10 10.8954 10.8954 10 12 10C13.1046 10 14 10.8954 14 12C14 12.8393 13.483 13.5579 12.75 13.8546V21.7409C12.825 21.68 12.8931 21.6084 12.9519 21.526Z" fill="#28303F"/>
</svg>
