<svg width="24" height="24" viewBox="0 0 24 24" fill="none" xmlns="http://www.w3.org/2000/svg">
<path fill-rule="evenodd" clip-rule="evenodd" d="M17.734 11.9465C20.1474 11.5915 22 9.51207 22 7C22 4.23858 19.7614 2 17 2C14.4879 2 12.4085 3.85255 12.0535 6.266C12.0183 6.50556 12 6.75065 12 7C12 9.76142 14.2386 12 17 12C17.2493 12 17.4944 11.9817 17.734 11.9465ZM10 6C10.2118 6 10.4217 6.00823 10.6294 6.02439C10.6245 6.05464 10.6198 6.08496 10.6153 6.11535C10.5695 6.42677 10.5458 6.74539 10.5458 7.06954C10.5458 10.6594 13.456 13.5695 17.0458 13.5695C17.3647 13.5695 17.6782 13.5466 17.9848 13.5022C17.9949 13.6669 18 13.8328 18 14C18 18.4183 14.4183 22 10 22C5.58172 22 2 18.4183 2 14C2 9.58172 5.58172 6 10 6Z" fill="#28303F"/>
</svg>
