<svg width="24" height="24" viewBox="0 0 24 24" fill="none" xmlns="http://www.w3.org/2000/svg">
<path fill-rule="evenodd" clip-rule="evenodd" d="M18 11.9C20.2822 11.4367 22 9.41896 22 7C22 4.23858 19.7614 2 17 2C14.581 2 12.5633 3.71776 12.1 6C12.0344 6.32311 12 6.65753 12 7C12 9.76142 14.2386 12 17 12C17.3425 12 17.6769 11.9656 18 11.9ZM6 6H10.5764C10.5261 6.32597 10.5 6.65994 10.5 7C10.5 10.5899 13.4101 13.5 17 13.5C17.3401 13.5 17.674 13.4739 18 13.4236V18C18 20.2091 16.2091 22 14 22H6C3.79086 22 2 20.2091 2 18V10C2 7.79086 3.79086 6 6 6Z" fill="#28303F"/>
</svg>
