<svg width="24" height="24" viewBox="0 0 24 24" fill="none" xmlns="http://www.w3.org/2000/svg">
<path fill-rule="evenodd" clip-rule="evenodd" d="M20 5C20 6.65685 18.6569 8 17 8C15.3431 8 14 6.65685 14 5C14 3.34315 15.3431 2 17 2C18.6569 2 20 3.34315 20 5ZM18.3236 9.82292C17.902 9.93836 17.4582 10 17 10C14.2386 10 12 7.76142 12 5C12 4.65781 12.0344 4.32366 12.0999 4.00079C12.0666 4.00027 12.0333 4 12 4C8.77095 4 6.05382 6.49086 5.67964 9.79403L5.33476 12.8385C5.24906 13.595 4.94246 14.3069 4.45549 14.88C3.42209 16.0964 4.26081 18 5.83014 18H18.1699C19.7392 18 20.5779 16.0964 19.5445 14.88C19.0575 14.3069 18.7509 13.595 18.6652 12.8385L18.3236 9.82292ZM14.9721 20.0715C14.5147 21.1992 13.3565 22 12 22C10.6435 22 9.48526 21.1992 9.02789 20.0715C9.00883 20.0245 9 19.974 9 19.9233C9 19.6895 9.18951 19.5 9.42329 19.5H14.5767C14.8105 19.5 15 19.6895 15 19.9233C15 19.974 14.9912 20.0245 14.9721 20.0715Z" fill="#28303F"/>
</svg>
