<svg width="24" height="24" viewBox="0 0 24 24" fill="none" xmlns="http://www.w3.org/2000/svg">
<path fill-rule="evenodd" clip-rule="evenodd" d="M18.7892 4.82508C16.5059 2.54179 12.8233 2.3818 10.223 4.45291L7.82636 6.3618C7.23085 6.83612 6.51067 7.12271 5.76103 7.18366C4.17022 7.31302 3.41723 9.25214 4.52691 10.3618L13.2524 19.0873C14.3621 20.197 16.3012 19.444 16.4306 17.8532C16.4915 17.1036 16.7781 16.3834 17.2524 15.7879L19.1613 13.3913C21.2324 10.791 21.0724 7.10837 18.7892 4.82508ZM11.6391 20.416C10.5198 20.885 9.13918 20.6311 8.18243 19.6744C7.22518 18.7171 6.97153 17.3356 7.44159 16.216C7.46322 16.1645 7.49328 16.117 7.52875 16.0738C7.77719 15.7712 8.2362 15.7594 8.49985 16.0488L11.7941 19.6649C11.965 19.8524 11.9582 20.1412 11.7788 20.3206C11.7386 20.3609 11.6916 20.3939 11.6391 20.416Z" fill="#28303F"/>
</svg>
