<svg width="24" height="24" viewBox="0 0 24 24" fill="none" xmlns="http://www.w3.org/2000/svg">
<path fill-rule="evenodd" clip-rule="evenodd" d="M6.22281 18.0002H17.7772C19.6056 18.0002 20.6492 16.1611 19.5522 14.8724C19.0666 14.3018 18.7673 13.6251 18.6867 12.9155L18.5227 11.47C18.3512 11.4898 18.1767 11.5 17.9999 11.5C15.5147 11.5 13.4999 9.48528 13.4999 7C13.4999 6.02913 13.8074 5.13007 14.3303 4.39487C14.3102 4.3878 14.2901 4.38081 14.2699 4.37391V4.27019C14.2699 3.01653 13.2537 2.00024 12 2.00024C10.7463 2.00024 9.73005 3.01653 9.73005 4.27019V4.37391C7.58766 5.10744 6.0016 6.85088 5.76046 8.97543L5.31328 12.9155C5.23274 13.6251 4.93344 14.3018 4.44779 14.8724C3.35076 16.1611 4.39443 18.0002 6.22281 18.0002ZM21 7C21 8.65685 19.6569 10 18 10C16.3431 10 15 8.65685 15 7C15 5.34315 16.3431 4 18 4C19.6569 4 21 5.34315 21 7ZM12 22.0002C13.3565 22.0002 14.5147 21.1995 14.9721 20.0718C14.9912 20.0247 15 19.9742 15 19.9235C15 19.6896 14.8104 19.5 14.5765 19.5H9.42349C9.1896 19.5 9 19.6896 9 19.9235C9 19.9742 9.00883 20.0247 9.0279 20.0718C9.48528 21.1995 10.6435 22.0002 12 22.0002Z" fill="#28303F"/>
</svg>
