<svg width="24" height="24" viewBox="0 0 24 24" fill="none" xmlns="http://www.w3.org/2000/svg">
<path fill-rule="evenodd" clip-rule="evenodd" d="M7.4617 2.00013C7.84629 1.8463 8.28277 2.03336 8.4366 2.41795C8.59044 2.80253 8.40338 3.23901 8.01879 3.39285L7.85156 3.45974C6.54571 3.98208 5.50405 5.00653 4.96002 6.3035L4.88322 6.48659C4.723 6.86857 4.28347 7.04833 3.9015 6.88811C3.51952 6.72789 3.33976 6.28835 3.49998 5.90638L3.57678 5.72329C4.27624 4.05576 5.61553 2.7386 7.29448 2.06702L7.4617 2.00013ZM16.5382 2.04432C16.1536 1.89049 15.7172 2.07755 15.5633 2.46213C15.4095 2.84672 15.5966 3.2832 15.9811 3.43704L16.1484 3.50393C17.4542 4.02627 18.4959 5.05072 19.0399 6.34769L19.1167 6.53078C19.2769 6.91276 19.7165 7.09252 20.0984 6.9323C20.4804 6.77208 20.6602 6.33254 20.5 5.95057L20.4232 5.76748C19.7237 4.09995 18.3844 2.78279 16.7055 2.11121L16.5382 2.04432ZM17.7772 18.0002C19.6055 18.0002 20.6492 16.1611 19.5522 14.8724C19.0665 14.3018 18.7672 13.6251 18.6867 12.9155L18.2395 8.97543C17.9984 6.85088 16.4123 5.10744 14.2699 4.37391V4.27019C14.2699 3.01653 13.2536 2.00024 12 2.00024C10.7463 2.00024 9.73002 3.01653 9.73002 4.27019V4.37391C7.58762 5.10744 6.00156 6.85088 5.76043 8.97543L5.31324 12.9155C5.2327 13.6251 4.93341 14.3018 4.44775 14.8724C3.35072 16.1611 4.3944 18.0002 6.22278 18.0002H17.7772ZM14.9721 20.0718C14.5147 21.1995 13.3565 22.0002 12 22.0002C10.6434 22.0002 9.48525 21.1995 9.02787 20.0718C9.0088 20.0247 8.99997 19.9742 8.99997 19.9235C8.99997 19.6896 9.18957 19.5 9.42346 19.5H14.5765C14.8104 19.5 15 19.6896 15 19.9235C15 19.9742 14.9911 20.0247 14.9721 20.0718Z" fill="#28303F"/>
</svg>
