<svg width="24" height="24" viewBox="0 0 24 24" fill="none" xmlns="http://www.w3.org/2000/svg">
<path fill-rule="evenodd" clip-rule="evenodd" d="M18.6869 12.9153L18.2397 8.97519C17.9986 6.85063 16.4125 5.10719 14.2701 4.37366V4.26995C14.2701 3.01629 13.2538 2 12.0002 2C10.7465 2 9.73024 3.01629 9.73024 4.26995V4.37366C9.41181 4.48269 9.10568 4.61402 8.81443 4.7656L19.9979 15.9491C19.9787 15.5809 19.8382 15.2078 19.5524 14.8721C19.0667 14.3016 18.7674 13.6249 18.6869 12.9153ZM6.223 18H16.9882L20.5185 21.5303C20.8114 21.8232 21.2863 21.8232 21.5792 21.5303C21.8721 21.2374 21.8721 20.7626 21.5792 20.4697L3.57916 2.46967C3.28626 2.17678 2.81139 2.17678 2.5185 2.46967C2.22561 2.76256 2.22561 3.23744 2.5185 3.53033L6.26889 7.28072C6.00407 7.80572 5.82874 8.37526 5.76065 8.97519L5.31346 12.9153C5.23292 13.6249 4.93362 14.3016 4.44797 14.8721C3.35094 16.1609 4.39462 18 6.223 18ZM14.9724 20.0715C14.515 21.1992 13.3568 22 12.0002 22C10.6437 22 9.4855 21.1992 9.02814 20.0715C9.00907 20.0245 9.00024 19.974 9.00024 19.9233C9.00024 19.6895 9.18976 19.5 9.42353 19.5H14.577C14.8107 19.5 15.0002 19.6895 15.0002 19.9233C15.0002 19.974 14.9914 20.0245 14.9724 20.0715Z" fill="#28303F"/>
</svg>
