<svg width="24" height="24" viewBox="0 0 24 24" fill="none" xmlns="http://www.w3.org/2000/svg">
<path fill-rule="evenodd" clip-rule="evenodd" d="M12.8805 19.0636L4.7103 10.8935C3.41744 9.60061 3.9799 7.56217 5.66691 7.42659C6.41375 7.36658 7.10388 7.09971 7.66261 6.65488L10.7649 4.18504C12.4377 2.85325 14.792 2.74197 16.8256 3.73819L16.8989 3.66485C17.7854 2.77838 19.2226 2.77838 20.1091 3.66485C20.9956 4.55132 20.9956 5.98857 20.1091 6.87504L20.0358 6.94838C21.032 8.98197 20.9207 11.3363 19.5889 13.0091L17.1191 16.1113C16.6742 16.6701 16.4074 17.3602 16.3474 18.107C16.2118 19.794 14.1733 20.3565 12.8805 19.0636ZM11.4268 20.7164C10.3298 21.1204 9.01159 20.8517 8.08819 19.9284C7.16102 19.0012 6.89393 17.676 7.30519 16.5763C7.35056 16.4549 7.43934 16.3559 7.54872 16.2864C7.81244 16.1191 8.15696 16.1572 8.3778 16.378L11.6284 19.6286C11.847 19.8472 11.8898 20.1862 11.7322 20.4523C11.6616 20.5715 11.5569 20.6685 11.4268 20.7164Z" fill="#28303F"/>
</svg>
