<svg width="24" height="24" viewBox="0 0 24 24" fill="none" xmlns="http://www.w3.org/2000/svg">
<path fill-rule="evenodd" clip-rule="evenodd" d="M7.76279 2.28845C8.15575 2.15746 8.58049 2.36983 8.71147 2.76279C8.84246 3.15575 8.63009 3.58049 8.23713 3.71147L8.08318 3.76279C6.5155 4.28535 5.28535 5.5155 4.76279 7.08318L4.71147 7.23713C4.58049 7.63009 4.15575 7.84246 3.76279 7.71147C3.36983 7.58049 3.15746 7.15575 3.28845 6.76279L3.33976 6.60884C4.01162 4.59326 5.59326 3.01162 7.60884 2.33976L7.76279 2.28845ZM16.237 2.28845C15.8441 2.15746 15.4194 2.36983 15.2884 2.76279C15.1574 3.15575 15.3698 3.58049 15.7627 3.71147L15.9167 3.76279C17.4843 4.28535 18.7145 5.5155 19.237 7.08318L19.2884 7.23713C19.4194 7.63009 19.8441 7.84246 20.237 7.71147C20.63 7.58049 20.8424 7.15575 20.7114 6.76279L20.6601 6.60884C19.9882 4.59326 18.4066 3.01162 16.391 2.33976L16.237 2.28845ZM11.9999 4C8.77086 4 6.05374 6.49086 5.67956 9.79403L5.33468 12.8385C5.24898 13.595 4.94238 14.3069 4.45541 14.88C3.42201 16.0964 4.26073 18 5.83005 18H18.1698C19.7391 18 20.5778 16.0964 19.5444 14.88C19.0575 14.3069 18.7509 13.595 18.6652 12.8385L18.3203 9.79403C17.9461 6.49086 15.229 4 11.9999 4ZM11.9999 22C13.3565 22 14.5147 21.1992 14.972 20.0715C14.9911 20.0245 14.9999 19.974 14.9999 19.9233C14.9999 19.6895 14.8104 19.5 14.5766 19.5H9.42321C9.18943 19.5 8.99992 19.6895 8.99992 19.9233C8.99992 19.974 9.00874 20.0245 9.02781 20.0715C9.48518 21.1992 10.6434 22 11.9999 22Z" fill="#28303F"/>
</svg>
