<svg width="24" height="24" viewBox="0 0 24 24" fill="none" xmlns="http://www.w3.org/2000/svg">
<path fill-rule="evenodd" clip-rule="evenodd" d="M13.4841 3.1086C12.3274 1.9638 10.4552 1.9638 9.29851 3.1086L2.25503 10.0797C1.67557 10.6532 1.38428 11.4079 1.38428 12.1618C1.38428 12.9158 1.67557 13.6705 2.25503 14.244L6.95068 18.8914C8.10738 20.0362 9.97958 20.0362 11.1363 18.8914L17.3109 12.7802L20.3326 11.2849C20.5498 11.1774 20.7017 10.9717 20.7404 10.7325C20.7791 10.4933 20.6998 10.2501 20.5276 10.0797L13.4841 3.1086ZM18.7255 10.4066L16.6941 11.4118L3.09766 11.4118C3.15632 11.3174 3.22714 11.228 3.31019 11.1458L10.3537 4.17473C10.9259 3.60842 11.8567 3.60842 12.4289 4.17473L18.7255 10.4066ZM19.9854 20.9854C20.9854 20.9854 21.9854 20.3922 21.9854 18.7354C21.9854 17.0785 19.9854 14.9854 19.9854 14.9854C19.9854 14.9854 17.9854 17.0785 17.9854 18.7354C17.9854 20.3922 18.9854 20.9854 19.9854 20.9854Z" fill="#28303F"/>
</svg>
