<svg width="24" height="24" viewBox="0 0 24 24" fill="none" xmlns="http://www.w3.org/2000/svg">
<path fill-rule="evenodd" clip-rule="evenodd" d="M14.6523 3.57693C13.4199 2.34449 11.3126 3.21735 11.3126 4.96028C11.3126 5.47914 11.1065 5.97674 10.7396 6.34363L9.11887 7.96433C8.75198 8.33122 8.25438 8.53733 7.73552 8.53733C5.99259 8.53733 5.11972 10.6446 6.35216 11.877L8.72844 14.2533L3.21088 19.7709C2.92971 20.0521 2.92971 20.5079 3.21088 20.7891C3.49206 21.0703 3.94794 21.0703 4.22912 20.7891L9.74668 15.2716L12.1229 17.6478C13.3554 18.8802 15.4626 18.0074 15.4626 16.2645C15.4626 15.7456 15.6688 15.248 16.0357 14.8811L17.6564 13.2604C18.0232 12.8935 18.5209 12.6874 19.0397 12.6874C20.7826 12.6874 21.6555 10.5801 20.4231 9.34768L14.6523 3.57693Z" fill="#28303F"/>
</svg>
