<svg width="24" height="24" viewBox="0 0 24 24" fill="none" xmlns="http://www.w3.org/2000/svg">
<path fill-rule="evenodd" clip-rule="evenodd" d="M6 2H18C20.2091 2 22 3.79086 22 6V18C22 20.2091 20.2091 22 18 22H6C3.79086 22 2 20.2091 2 18V6C2 3.79086 3.79086 2 6 2ZM15.3588 8.64129C15.6517 8.93419 15.6517 9.40906 15.3588 9.70195L13.0607 12L15.3588 14.298C15.6517 14.5909 15.6517 15.0658 15.3588 15.3587C15.0659 15.6516 14.591 15.6516 14.2981 15.3587L12.0001 13.0607L9.70191 15.3588C9.40901 15.6517 8.93414 15.6517 8.64125 15.3588C8.34835 15.0659 8.34835 14.591 8.64125 14.2981L10.9394 12L8.64125 9.70185C8.34836 9.40895 8.34836 8.93408 8.64125 8.64118C8.93415 8.34829 9.40902 8.34829 9.70191 8.64118L12.0001 10.9393L14.2981 8.64129C14.591 8.3484 15.0659 8.3484 15.3588 8.64129Z" fill="#28303F"/>
</svg>
