<svg width="24" height="24" viewBox="0 0 24 24" fill="none" xmlns="http://www.w3.org/2000/svg">
<path fill-rule="evenodd" clip-rule="evenodd" d="M10.2882 4C9.2072 4 8.16293 4.40191 7.34939 5.13108L3.52406 8.55965C1.49198 10.381 1.49198 13.619 3.52405 15.4403L7.34938 18.8689C8.16293 19.5981 9.2072 20 10.2882 20H17.5371C20.0019 20 22 17.9533 22 15.4286V8.57143C22 6.0467 20.0019 4 17.5371 4H10.2882ZM11.5303 8.46967C11.2374 8.17678 10.7626 8.17678 10.4697 8.46967C10.1768 8.76256 10.1768 9.23744 10.4697 9.53033L12.9393 12L10.4697 14.4697C10.1768 14.7626 10.1768 15.2374 10.4697 15.5303C10.7626 15.8232 11.2374 15.8232 11.5303 15.5303L14 13.0607L16.4697 15.5303C16.7626 15.8232 17.2374 15.8232 17.5303 15.5303C17.8232 15.2374 17.8232 14.7626 17.5303 14.4697L15.0607 12L17.5303 9.53033C17.8232 9.23744 17.8232 8.76256 17.5303 8.46967C17.2374 8.17678 16.7626 8.17678 16.4697 8.46967L14 10.9393L11.5303 8.46967Z" fill="#28303F"/>
</svg>
