<svg width="24" height="24" viewBox="0 0 24 24" fill="none" xmlns="http://www.w3.org/2000/svg">
<path fill-rule="evenodd" clip-rule="evenodd" d="M6 2C3.79086 2 2 3.79086 2 6V18C2 20.2091 3.79086 22 6 22H18C20.2091 22 22 20.2091 22 18V6C22 3.79086 20.2091 2 18 2H6ZM10.584 7.37604C10.9286 7.14628 11.3943 7.23941 11.624 7.58405C11.8538 7.9287 11.7607 8.39435 11.416 8.62412L10.1895 9.44181C11.545 9.6838 12.8379 10.1573 13.916 10.876C15.5889 11.9913 16.75 13.7092 16.75 16.0001C16.75 16.4143 16.4142 16.7501 16 16.7501C15.5858 16.7501 15.25 16.4143 15.25 16.0001C15.25 14.291 14.4111 13.0089 13.084 12.1241C12.0877 11.4599 10.8208 11.0275 9.46577 10.8467L10.624 12.5841C10.8538 12.9287 10.7607 13.3944 10.416 13.6241C10.0714 13.8539 9.60573 13.7608 9.37596 13.4161L7.37596 10.4161C7.1462 10.0715 7.23933 9.60581 7.58397 9.37604L10.584 7.37604Z" fill="#28303F"/>
</svg>
