<svg width="24" height="24" viewBox="0 0 24 24" fill="none" xmlns="http://www.w3.org/2000/svg">
<path fill-rule="evenodd" clip-rule="evenodd" d="M12 22C17.5228 22 22 17.5228 22 12C22 6.47715 17.5228 2 12 2C6.47715 2 2 6.47715 2 12C2 17.5228 6.47715 22 12 22ZM9.49455 16.5638C9.1849 16.8355 8.71354 16.8066 8.43945 16.4983C8.16426 16.1887 8.19215 15.7146 8.50174 15.4394L8.77679 15.2281C8.93912 15.1151 9.17203 14.9694 9.46968 14.8251C10.065 14.5365 10.9268 14.25 12 14.25C13.0733 14.25 13.935 14.5365 14.5303 14.8251C14.828 14.9694 15.0609 15.1151 15.2232 15.2281C15.3045 15.2846 15.3685 15.3332 15.4145 15.3698L15.4983 15.4394C15.8079 15.7146 15.8358 16.1887 15.5606 16.4983C15.2865 16.8066 14.8151 16.8355 14.5055 16.5638L14.3666 16.4594C14.2594 16.3848 14.0939 16.2805 13.8759 16.1749C13.44 15.9635 12.8018 15.75 12 15.75C11.1983 15.75 10.56 15.9635 10.1241 16.1749C9.90611 16.2805 9.74058 16.3848 9.63338 16.4594L9.49455 16.5638ZM17 10C17 10.5523 16.5523 11 16 11C15.4477 11 15 10.5523 15 10C15 9.44772 15.4477 9 16 9C16.5523 9 17 9.44772 17 10ZM8 11C8.55228 11 9 10.5523 9 10C9 9.44772 8.55228 9 8 9C7.44772 9 7 9.44772 7 10C7 10.5523 7.44772 11 8 11Z" fill="#28303F"/>
</svg>
