<svg width="24" height="24" viewBox="0 0 24 24" fill="none" xmlns="http://www.w3.org/2000/svg">
<path fill-rule="evenodd" clip-rule="evenodd" d="M11.5 2.75C6.66751 2.75 2.75 6.66751 2.75 11.5C2.75 16.3325 6.66751 20.25 11.5 20.25C16.3325 20.25 20.25 16.3325 20.25 11.5C20.25 6.66751 16.3325 2.75 11.5 2.75ZM1.25 11.5C1.25 5.83908 5.83908 1.25 11.5 1.25C17.1609 1.25 21.75 5.83908 21.75 11.5C21.75 14.0605 20.8111 16.4017 19.2589 18.1982L22.5303 21.4697C22.8232 21.7626 22.8232 22.2374 22.5303 22.5303C22.2374 22.8232 21.7626 22.8232 21.4697 22.5303L18.1982 19.2589C16.4017 20.8111 14.0605 21.75 11.5 21.75C5.83908 21.75 1.25 17.1609 1.25 11.5ZM9.20196 8.1413C8.90907 7.84841 8.43419 7.84841 8.1413 8.1413C7.84841 8.43419 7.84841 8.90907 8.1413 9.20196L10.4394 11.5001L8.1413 13.7982C7.84841 14.091 7.84841 14.5659 8.1413 14.8588C8.43419 15.1517 8.90907 15.1517 9.20196 14.8588L11.5001 12.5607L13.7982 14.8588C14.091 15.1517 14.5659 15.1517 14.8588 14.8588C15.1517 14.5659 15.1517 14.091 14.8588 13.7982L12.5607 11.5001L14.8588 9.20196C15.1517 8.90907 15.1517 8.43419 14.8588 8.1413C14.5659 7.84841 14.091 7.84841 13.7982 8.1413L11.5001 10.4394L9.20196 8.1413Z" fill="#28303F"/>
</svg>
