<svg width="24" height="24" viewBox="0 0 24 24" fill="none" xmlns="http://www.w3.org/2000/svg">
<path fill-rule="evenodd" clip-rule="evenodd" d="M11.5 2.75C6.66751 2.75 2.75 6.66751 2.75 11.5C2.75 16.3325 6.66751 20.25 11.5 20.25C16.3325 20.25 20.25 16.3325 20.25 11.5C20.25 6.66751 16.3325 2.75 11.5 2.75ZM1.25 11.5C1.25 5.83908 5.83908 1.25 11.5 1.25C17.1609 1.25 21.75 5.83908 21.75 11.5C21.75 14.0605 20.8111 16.4017 19.2589 18.1982L22.5303 21.4697C22.8232 21.7626 22.8232 22.2374 22.5303 22.5303C22.2374 22.8232 21.7626 22.8232 21.4697 22.5303L18.1982 19.2589C16.4017 20.8111 14.0605 21.75 11.5 21.75C5.83908 21.75 1.25 17.1609 1.25 11.5ZM11.5 6.75C11.9142 6.75 12.25 7.08579 12.25 7.5V10.75H15.5C15.9142 10.75 16.25 11.0858 16.25 11.5C16.25 11.9142 15.9142 12.25 15.5 12.25H12.25V15.5C12.25 15.9142 11.9142 16.25 11.5 16.25C11.0858 16.25 10.75 15.9142 10.75 15.5V12.25H7.5C7.08579 12.25 6.75 11.9142 6.75 11.5C6.75 11.0858 7.08579 10.75 7.5 10.75H10.75V7.5C10.75 7.08579 11.0858 6.75 11.5 6.75Z" fill="#28303F"/>
</svg>
