<svg width="24" height="24" viewBox="0 0 24 24" fill="none" xmlns="http://www.w3.org/2000/svg">
<path fill-rule="evenodd" clip-rule="evenodd" d="M11.0455 3H12.9545C14.0089 3 14.8636 3.80589 14.8636 4.8C14.8636 5.93762 16.0808 6.66088 17.08 6.11698L17.1815 6.06174C18.0946 5.56468 19.2622 5.85966 19.7894 6.72058L20.7439 8.27943C21.2711 9.14036 20.9582 10.2412 20.0451 10.7383C19.0455 11.2824 19.0455 12.7176 20.0451 13.2617C20.9582 13.7588 21.2711 14.8596 20.7439 15.7206L19.7894 17.2794C19.2622 18.1403 18.0946 18.4353 17.1815 17.9383L17.08 17.883C16.0808 17.3391 14.8636 18.0624 14.8636 19.2C14.8636 20.1941 14.0089 21 12.9545 21H11.0455C9.99109 21 9.13635 20.1941 9.13635 19.2C9.13635 18.0624 7.91917 17.3391 6.92 17.883L6.81851 17.9383C5.90541 18.4353 4.73782 18.1404 4.21064 17.2794L3.25609 15.7206C2.72891 14.8597 3.04176 13.7588 3.95487 13.2617C4.95451 12.7176 4.95451 11.2824 3.95487 10.7383C3.04176 10.2412 2.72891 9.14034 3.25609 8.27942L4.21064 6.72057C4.73782 5.85964 5.90541 5.56467 6.81852 6.06172L6.92 6.11697C7.91917 6.66087 9.13635 5.93761 9.13635 4.8C9.13635 3.80589 9.99109 3 11.0455 3ZM12 15C13.6569 15 15 13.6569 15 12C15 10.3431 13.6569 9 12 9C10.3432 9 9.00001 10.3431 9.00001 12C9.00001 13.6569 10.3432 15 12 15Z" fill="#28303F"/>
</svg>
