<svg width="24" height="24" viewBox="0 0 24 24" fill="none" xmlns="http://www.w3.org/2000/svg">
<path fill-rule="evenodd" clip-rule="evenodd" d="M22 5.5C22 7.433 20.433 9 18.5 9C17.3988 9 16.4163 8.49142 15.7747 7.69632C15.7522 7.71078 15.7287 7.72417 15.7042 7.73641L8.96659 11.1052C8.94233 11.1174 8.91773 11.128 8.89289 11.1373C8.96283 11.4133 9 11.7023 9 12C9 12.2977 8.96283 12.5867 8.89288 12.8627C8.91773 12.872 8.94233 12.8826 8.96659 12.8948L15.7042 16.2636C15.7287 16.2758 15.7522 16.2892 15.7747 16.3037C16.4163 15.5086 17.3988 15 18.5 15C20.433 15 22 16.567 22 18.5C22 20.433 20.433 22 18.5 22C16.567 22 15 20.433 15 18.5C15 18.2023 15.0372 17.9133 15.1071 17.6373C15.0823 17.6281 15.0577 17.6174 15.0334 17.6052L8.29577 14.2364C8.27129 14.2242 8.24777 14.2108 8.22525 14.1963C7.58366 14.9914 6.60122 15.5 5.5 15.5C3.567 15.5 2 13.933 2 12C2 10.067 3.567 8.5 5.5 8.5C6.60123 8.5 7.58367 9.00858 8.22526 9.80368C8.24778 9.78923 8.27129 9.77583 8.29577 9.76359L15.0334 6.39477C15.0577 6.38264 15.0823 6.37196 15.1071 6.36267C15.0372 6.08672 15 5.7977 15 5.5C15 3.567 16.567 2 18.5 2C20.433 2 22 3.567 22 5.5Z" fill="#28303F"/>
</svg>
