<svg width="24" height="24" viewBox="0 0 24 24" fill="none" xmlns="http://www.w3.org/2000/svg">
<path fill-rule="evenodd" clip-rule="evenodd" d="M6 2C3.79086 2 2 3.79086 2 6V18C2 20.2091 3.79086 22 6 22H18C20.2091 22 22 20.2091 22 18V6C22 3.79086 20.2091 2 18 2H6ZM13.416 7.37604C13.0714 7.14628 12.6057 7.23941 12.376 7.58405C12.1462 7.9287 12.2393 8.39435 12.584 8.62412L13.8105 9.44181C12.455 9.6838 11.1621 10.1573 10.084 10.876C8.41112 11.9913 7.25 13.7092 7.25 16.0001C7.25 16.4143 7.58579 16.7501 8 16.7501C8.41421 16.7501 8.75 16.4143 8.75 16.0001C8.75 14.291 9.58888 13.0089 10.916 12.1241C11.9123 11.4599 13.1792 11.0275 14.5342 10.8467L13.376 12.5841C13.1462 12.9287 13.2393 13.3944 13.584 13.6241C13.9286 13.8539 14.3943 13.7608 14.624 13.4161L16.624 10.4161C16.8538 10.0715 16.7607 9.60581 16.416 9.37604L13.416 7.37604Z" fill="#28303F"/>
</svg>
