<svg width="24" height="24" viewBox="0 0 24 24" fill="none" xmlns="http://www.w3.org/2000/svg">
<path fill-rule="evenodd" clip-rule="evenodd" d="M14.4 2.45004L16.3125 5L7.68755 5L9.60002 2.45004C9.84855 2.11867 9.78139 1.64857 9.45002 1.40004C9.11865 1.15152 8.64855 1.21867 8.40002 1.55004L5.8102 5.00314C3.98063 5.07757 2.51396 6.46706 2.11047 8.25H21.8895C21.486 6.46708 20.0194 5.07759 18.1898 5.00314L15.6 1.55004C15.3515 1.21867 14.8814 1.15152 14.55 1.40004C14.2186 1.64857 14.1515 2.11867 14.4 2.45004ZM21.9714 9.75H2.02856C2.04193 9.86901 2.06006 9.98858 2.08312 10.1085L3.71804 18.6085C4.09787 20.5832 5.71942 22 7.59978 22H16.4002C18.2806 22 19.9021 20.5832 20.282 18.6085L21.9169 10.1085C21.9399 9.98858 21.9581 9.86901 21.9714 9.75ZM7.25 14C7.25 13.5858 7.58579 13.25 8 13.25H16C16.4142 13.25 16.75 13.5858 16.75 14C16.75 14.4142 16.4142 14.75 16 14.75H8C7.58579 14.75 7.25 14.4142 7.25 14ZM9 17.25C8.58579 17.25 8.25 17.5858 8.25 18C8.25 18.4142 8.58579 18.75 9 18.75H15C15.4142 18.75 15.75 18.4142 15.75 18C15.75 17.5858 15.4142 17.25 15 17.25H9Z" fill="#28303F"/>
</svg>
