<svg width="24" height="24" viewBox="0 0 24 24" fill="none" xmlns="http://www.w3.org/2000/svg">
<path fill-rule="evenodd" clip-rule="evenodd" d="M18 2H6C3.79086 2 2 3.79086 2 6V18C2 20.2091 3.79086 22 6 22H18C20.2091 22 22 20.2091 22 18V6C22 3.79086 20.2091 2 18 2ZM9.49455 14.4362C9.1849 14.1645 8.71354 14.1934 8.43945 14.5017C8.16426 14.8113 8.19215 15.2854 8.50174 15.5606L8.77679 15.7719C8.93912 15.8849 9.17203 16.0306 9.46968 16.1749C10.065 16.4635 10.9268 16.75 12 16.75C13.0733 16.75 13.935 16.4635 14.5303 16.1749C14.828 16.0306 15.0609 15.8849 15.2232 15.7719C15.3045 15.7154 15.3685 15.6668 15.4145 15.6302L15.4983 15.5606C15.8079 15.2854 15.8358 14.8113 15.5606 14.5017C15.2865 14.1934 14.8151 14.1645 14.5055 14.4362L14.3666 14.5406C14.2594 14.6152 14.0939 14.7195 13.8759 14.8251C13.44 15.0365 12.8018 15.25 12 15.25C11.1983 15.25 10.56 15.0365 10.1241 14.8251C9.90611 14.7195 9.74058 14.6152 9.63338 14.5406L9.49455 14.4362ZM17 10C17 10.5523 16.5523 11 16 11C15.4477 11 15 10.5523 15 10C15 9.44772 15.4477 9 16 9C16.5523 9 17 9.44772 17 10ZM8 11C8.55228 11 9 10.5523 9 10C9 9.44772 8.55228 9 8 9C7.44772 9 7 9.44772 7 10C7 10.5523 7.44772 11 8 11Z" fill="#28303F"/>
</svg>
