<svg width="24" height="24" viewBox="0 0 24 24" fill="none" xmlns="http://www.w3.org/2000/svg">
<path fill-rule="evenodd" clip-rule="evenodd" d="M6 18.75C6.05004 18.75 6.09894 18.7451 6.14624 18.7358C6.85087 18.6985 7.54378 18.3922 8.05538 17.8166L9.56056 16.1233C9.83575 15.8137 9.80787 15.3396 9.49828 15.0645C9.18869 14.7893 8.71464 14.8171 8.43945 15.1267L6.93427 16.8201C6.8774 16.884 6.8156 16.9407 6.75 16.99V6C6.75 5.58579 6.41421 5.25 6 5.25C5.58579 5.25 5.25 5.58579 5.25 6V16.99C5.18441 16.9407 5.12261 16.884 5.06575 16.8201L3.56056 15.1267C3.28538 14.8171 2.81132 14.7893 2.50174 15.0645C2.19215 15.3396 2.16426 15.8137 2.43945 16.1233L3.94463 17.8166C4.45623 18.3922 5.14913 18.6985 5.85376 18.7357C5.90106 18.7451 5.94996 18.75 6 18.75ZM12 5.25C11.5858 5.25 11.25 5.58579 11.25 6C11.25 6.41421 11.5858 6.75 12 6.75H21C21.4142 6.75 21.75 6.41421 21.75 6C21.75 5.58579 21.4142 5.25 21 5.25H12ZM12 11.25C11.5858 11.25 11.25 11.5858 11.25 12C11.25 12.4142 11.5858 12.75 12 12.75H18C18.4142 12.75 18.75 12.4142 18.75 12C18.75 11.5858 18.4142 11.25 18 11.25H12ZM11.25 18C11.25 17.5858 11.5858 17.25 12 17.25H15C15.4142 17.25 15.75 17.5858 15.75 18C15.75 18.4142 15.4142 18.75 15 18.75H12C11.5858 18.75 11.25 18.4142 11.25 18Z" fill="#28303F"/>
</svg>
