<svg width="24" height="24" viewBox="0 0 24 24" fill="none" xmlns="http://www.w3.org/2000/svg">
<path fill-rule="evenodd" clip-rule="evenodd" d="M6 17.75C6.05004 17.75 6.09894 17.7451 6.14624 17.7358C6.85087 17.6985 7.54378 17.3922 8.05538 16.8166L9.56056 15.1233C9.83575 14.8137 9.80787 14.3396 9.49828 14.0645C9.18869 13.7893 8.71464 13.8171 8.43945 14.1267L6.93427 15.8201C6.8774 15.884 6.8156 15.9407 6.75 15.99V5C6.75 4.58579 6.41421 4.25 6 4.25C5.58579 4.25 5.25 4.58579 5.25 5V15.99C5.18441 15.9407 5.12261 15.884 5.06575 15.8201L3.56056 14.1267C3.28538 13.8171 2.81132 13.7893 2.50174 14.0645C2.19215 14.3396 2.16426 14.8137 2.43945 15.1233L3.94463 16.8166C4.45623 17.3922 5.14913 17.6985 5.85376 17.7357C5.90106 17.7451 5.94996 17.75 6 17.75ZM11.25 5C11.25 4.58579 11.5858 4.25 12 4.25H15C15.4142 4.25 15.75 4.58579 15.75 5C15.75 5.41421 15.4142 5.75 15 5.75H12C11.5858 5.75 11.25 5.41421 11.25 5ZM12 11.75C11.5858 11.75 11.25 11.4142 11.25 11C11.25 10.5858 11.5858 10.25 12 10.25H18C18.4142 10.25 18.75 10.5858 18.75 11C18.75 11.4142 18.4142 11.75 18 11.75H12ZM12 17.75C11.5858 17.75 11.25 17.4142 11.25 17C11.25 16.5858 11.5858 16.25 12 16.25H21C21.4142 16.25 21.75 16.5858 21.75 17C21.75 17.4142 21.4142 17.75 21 17.75H12Z" fill="#28303F"/>
</svg>
