<svg width="24" height="24" viewBox="0 0 24 24" fill="none" xmlns="http://www.w3.org/2000/svg">
<path fill-rule="evenodd" clip-rule="evenodd" d="M4.94463 19.8165C6.03856 21.0471 7.96146 21.0471 9.05538 19.8165L10.5606 18.1231C10.8358 17.8135 10.8079 17.3395 10.4983 17.0643C10.1887 16.7891 9.71464 16.817 9.43945 17.1266L7.93427 18.8199C7.8774 18.8839 7.8156 18.9406 7.75 18.9899V5.00981C7.8156 5.05916 7.8774 5.11582 7.93427 5.1798L9.43945 6.87313C9.71464 7.18271 10.1887 7.2106 10.4983 6.93541C10.8079 6.66022 10.8358 6.18617 10.5606 5.87658L9.05538 4.18325C7.96146 2.95259 6.03856 2.95259 4.94463 4.18325L3.43945 5.87658C3.16426 6.18617 3.19215 6.66022 3.50174 6.93541C3.81132 7.2106 4.28538 7.18271 4.56056 6.87313L6.06575 5.1798C6.12261 5.11583 6.18441 5.05917 6.25 5.00983V18.9899C6.18441 18.9405 6.12261 18.8839 6.06575 18.8199L4.56056 17.1266C4.28538 16.817 3.81132 16.7891 3.50174 17.0643C3.19215 17.3395 3.16426 17.8135 3.43945 18.1231L4.94463 19.8165ZM14 5.99976C14 4.89519 14.8954 3.99976 16 3.99976H18C19.1046 3.99976 20 4.89519 20 5.99976V7.99976C20 9.10433 19.1046 9.99976 18 9.99976H16C14.8954 9.99976 14 9.10433 14 7.99976V5.99976ZM14 15.9998C14 14.8952 14.8954 13.9998 16 13.9998H18C19.1046 13.9998 20 14.8952 20 15.9998V17.9998C20 19.1043 19.1046 19.9998 18 19.9998H16C14.8954 19.9998 14 19.1043 14 17.9998V15.9998Z" fill="#28303F"/>
</svg>
