<svg width="24" height="24" viewBox="0 0 24 24" fill="none" xmlns="http://www.w3.org/2000/svg">
<path fill-rule="evenodd" clip-rule="evenodd" d="M4.94463 19.8165C6.03856 21.0471 7.96146 21.0471 9.05538 19.8165L10.5606 18.1231C10.8358 17.8135 10.8079 17.3395 10.4983 17.0643C10.1887 16.7891 9.71464 16.817 9.43945 17.1266L7.93427 18.8199C7.8774 18.8839 7.8156 18.9406 7.75 18.9899V5.00981C7.8156 5.05916 7.8774 5.11582 7.93427 5.1798L9.43945 6.87313C9.71464 7.18271 10.1887 7.2106 10.4983 6.93541C10.8079 6.66022 10.8358 6.18617 10.5606 5.87658L9.05538 4.18325C7.96146 2.95259 6.03856 2.95259 4.94463 4.18325L3.43945 5.87658C3.16426 6.18617 3.19215 6.66022 3.50174 6.93541C3.81132 7.2106 4.28538 7.18271 4.56056 6.87313L6.06575 5.1798C6.12261 5.11583 6.18441 5.05917 6.25 5.00983V18.9899C6.18441 18.9405 6.12261 18.8839 6.06575 18.8199L4.56056 17.1266C4.28538 16.817 3.81132 16.7891 3.50174 17.0643C3.19215 17.3395 3.16426 17.8135 3.43945 18.1231L4.94463 19.8165ZM14 6.99976C14 5.3429 15.3431 3.99976 17 3.99976C18.6569 3.99976 20 5.3429 20 6.99976C20 8.65661 18.6569 9.99976 17 9.99976C15.3431 9.99976 14 8.65661 14 6.99976ZM14 16.9998C14 15.3429 15.3431 13.9998 17 13.9998C18.6569 13.9998 20 15.3429 20 16.9998C20 18.6566 18.6569 19.9998 17 19.9998C15.3431 19.9998 14 18.6566 14 16.9998Z" fill="#28303F"/>
</svg>
