<svg width="24" height="24" viewBox="0 0 24 24" fill="none" xmlns="http://www.w3.org/2000/svg">
<path fill-rule="evenodd" clip-rule="evenodd" d="M6 5.25C6.05004 5.25 6.09894 5.2549 6.14624 5.26425C6.85087 5.30146 7.54378 5.60784 8.05538 6.18339L9.56056 7.87672C9.83575 8.18631 9.80787 8.66036 9.49828 8.93555C9.18869 9.21074 8.71464 9.18285 8.43945 8.87326L6.93427 7.17994C6.8774 7.11596 6.8156 7.0593 6.75 7.00995V18C6.75 18.4142 6.41421 18.75 6 18.75C5.58579 18.75 5.25 18.4142 5.25 18V7.00996C5.18441 7.05931 5.12261 7.11596 5.06575 7.17994L3.56056 8.87326C3.28538 9.18285 2.81132 9.21074 2.50174 8.93555C2.19215 8.66036 2.16426 8.18631 2.43945 7.87672L3.94463 6.18339C4.45623 5.60785 5.14913 5.30147 5.85375 5.26425C5.90106 5.2549 5.94996 5.25 6 5.25ZM12 5.25C11.5858 5.25 11.25 5.58579 11.25 6C11.25 6.41421 11.5858 6.75 12 6.75H21C21.4142 6.75 21.75 6.41421 21.75 6C21.75 5.58579 21.4142 5.25 21 5.25H12ZM12 11.25C11.5858 11.25 11.25 11.5858 11.25 12C11.25 12.4142 11.5858 12.75 12 12.75H18C18.4142 12.75 18.75 12.4142 18.75 12C18.75 11.5858 18.4142 11.25 18 11.25H12ZM11.25 18C11.25 17.5858 11.5858 17.25 12 17.25H15C15.4142 17.25 15.75 17.5858 15.75 18C15.75 18.4142 15.4142 18.75 15 18.75H12C11.5858 18.75 11.25 18.4142 11.25 18Z" fill="#28303F"/>
</svg>
