<svg width="24" height="24" viewBox="0 0 24 24" fill="none" xmlns="http://www.w3.org/2000/svg">
<path fill-rule="evenodd" clip-rule="evenodd" d="M6 21C3.79086 21 2 19.2091 2 17V16C2 15.4477 2.46 15.0163 2.98189 14.8356C4.15653 14.4289 5 13.313 5 12C5 10.687 4.15653 9.57105 2.98189 9.16437C2.46 8.98368 2 8.55228 2 8V7C2 4.79086 3.79086 3 6 3H18C20.2091 3 22 4.79086 22 7V8C22 8.55228 21.54 8.98368 21.0181 9.16437C19.8435 9.57105 19 10.687 19 12C19 13.313 19.8435 14.4289 21.0181 14.8356C21.54 15.0163 22 15.4477 22 16V17C22 19.2091 20.2091 21 18 21H6ZM9 10C9.55228 10 10 9.55228 10 9C10 8.44772 9.55228 8 9 8C8.44772 8 8 8.44772 8 9C8 9.55228 8.44772 10 9 10ZM16 15C16 15.5523 15.5523 16 15 16C14.4477 16 14 15.5523 14 15C14 14.4477 14.4477 14 15 14C15.5523 14 16 14.4477 16 15ZM15.5303 9.53033C15.8232 9.23744 15.8232 8.76256 15.5303 8.46967C15.2374 8.17678 14.7626 8.17678 14.4697 8.46967L8.46967 14.4697C8.17678 14.7626 8.17678 15.2374 8.46967 15.5303C8.76256 15.8232 9.23744 15.8232 9.53033 15.5303L15.5303 9.53033Z" fill="#28303F"/>
</svg>
