<svg width="24" height="24" viewBox="0 0 24 24" fill="none" xmlns="http://www.w3.org/2000/svg">
<path fill-rule="evenodd" clip-rule="evenodd" d="M16.5575 7.50173C16.8346 7.19385 16.8096 6.71963 16.5018 6.44254C16.1939 6.16544 15.7197 6.1904 15.4426 6.49828L9.42759 13.1816L8.46855 12.4144C8.1451 12.1556 7.67313 12.208 7.41438 12.5315C7.15562 12.8549 7.20806 13.3269 7.53151 13.5857L8.42244 14.2984L7.70496 15.0956C7.26199 15.5878 6.51204 15.6492 5.99497 15.2355L2.46855 12.4144C2.1451 12.1556 1.67313 12.208 1.41438 12.5315C1.15562 12.8549 1.20806 13.3269 1.53151 13.5857L5.05793 16.4068C6.19549 17.3168 7.84536 17.1819 8.8199 16.0991L9.59573 15.237L11.0579 16.4068C12.1955 17.3168 13.8454 17.1819 14.8199 16.0991L22.5575 7.50173C22.8346 7.19385 22.8096 6.71963 22.5018 6.44254C22.1939 6.16544 21.7197 6.1904 21.4426 6.49828L13.705 15.0956C13.262 15.5878 12.512 15.6492 11.995 15.2355L10.6009 14.1202L16.5575 7.50173Z" fill="#28303F"/>
</svg>
