<svg width="24" height="24" viewBox="0 0 24 24" fill="none" xmlns="http://www.w3.org/2000/svg">
<path fill-rule="evenodd" clip-rule="evenodd" d="M6.75 4C6.75 3.30964 7.30964 2.75 8 2.75H20C20.6904 2.75 21.25 3.30964 21.25 4V10C21.25 10.6904 20.6904 11.25 20 11.25H19C18.5858 11.25 18.25 11.5858 18.25 12C18.25 12.4142 18.5858 12.75 19 12.75H20C21.5188 12.75 22.75 11.5188 22.75 10V4C22.75 2.48122 21.5188 1.25 20 1.25H8C6.48122 1.25 5.25 2.48122 5.25 4V5.5C5.25 5.91421 5.58579 6.25 6 6.25C6.41421 6.25 6.75 5.91421 6.75 5.5V4ZM7 10C7 11.1046 6.10457 12 5 12C3.89543 12 3 11.1046 3 10C3 8.89543 3.89543 8 5 8C6.10457 8 7 8.89543 7 10ZM17.6309 9.40566C17.8549 9.05723 17.754 8.5932 17.4056 8.36921C17.0572 8.14522 16.5931 8.2461 16.3691 8.59452L12.4784 14.6467C12.0794 14.5148 11.6261 14.5561 11.2428 14.8L8 16.5V16C8 14.3431 6.65685 13 5 13C3.34315 13 2 14.3431 2 16V22H8V19.68C8.2634 19.6407 8.52344 19.5478 8.76426 19.3973L12.7913 17.2554C13.2738 16.9539 13.5187 16.4145 13.4669 15.883L17.6309 9.40566ZM9.25 6C9.25 5.58579 9.58579 5.25 10 5.25H18C18.4142 5.25 18.75 5.58579 18.75 6C18.75 6.41421 18.4142 6.75 18 6.75H10C9.58579 6.75 9.25 6.41421 9.25 6ZM10 8.25C9.58579 8.25 9.25 8.58579 9.25 9C9.25 9.41421 9.58579 9.75 10 9.75H14C14.4142 9.75 14.75 9.41421 14.75 9C14.75 8.58579 14.4142 8.25 14 8.25H10Z" fill="#28303F"/>
</svg>
