<svg width="24" height="24" viewBox="0 0 24 24" fill="none" xmlns="http://www.w3.org/2000/svg">
<path fill-rule="evenodd" clip-rule="evenodd" d="M9.18436 5.12554C9.74744 4.15216 10.798 3.5 12 3.5C13.795 3.5 15.25 4.95507 15.25 6.75V8H8C5.79086 8 4 9.79086 4 12V18C4 20.2091 5.79086 22 8 22H16C18.2091 22 20 20.2091 20 18V12C20 10.0472 18.6007 8.42127 16.75 8.0702V6.75C16.75 4.12665 14.6234 2 12 2C10.2409 2 8.70612 2.95663 7.88595 4.37446C7.67855 4.733 7.80107 5.1918 8.15961 5.3992C8.51816 5.60661 8.97696 5.48409 9.18436 5.12554ZM12 13.25C12.4142 13.25 12.75 13.5858 12.75 14V16C12.75 16.4142 12.4142 16.75 12 16.75C11.5858 16.75 11.25 16.4142 11.25 16V14C11.25 13.5858 11.5858 13.25 12 13.25Z" fill="#28303F"/>
</svg>
