<svg width="24" height="24" viewBox="0 0 24 24" fill="none" xmlns="http://www.w3.org/2000/svg">
<path fill-rule="evenodd" clip-rule="evenodd" d="M7 2.25C4.37665 2.25 2.25 4.37665 2.25 7V17C2.25 19.6234 4.37665 21.75 7 21.75H8.625C9.03921 21.75 9.375 21.4142 9.375 21C9.375 20.5858 9.03921 20.25 8.625 20.25H7C5.20507 20.25 3.75 18.7949 3.75 17V7C3.75 5.20507 5.20507 3.75 7 3.75H17C18.7949 3.75 20.25 5.20507 20.25 7V8.625C20.25 9.03921 20.5858 9.375 21 9.375C21.4142 9.375 21.75 9.03921 21.75 8.625V7C21.75 4.37665 19.6234 2.25 17 2.25H7ZM9.75 15C9.75 12.1005 12.1005 9.75 15 9.75C17.8995 9.75 20.25 12.1005 20.25 15C20.25 17.8995 17.8995 20.25 15 20.25C12.1005 20.25 9.75 17.8995 9.75 15ZM15 8.25C11.2721 8.25 8.25 11.2721 8.25 15C8.25 18.7279 11.2721 21.75 15 21.75C16.5938 21.75 18.0585 21.1976 19.2133 20.2739L20.4697 21.5303C20.7626 21.8232 21.2374 21.8232 21.5303 21.5303C21.8232 21.2374 21.8232 20.7626 21.5303 20.4697L20.2739 19.2133C21.1976 18.0585 21.75 16.5938 21.75 15C21.75 11.2721 18.7279 8.25 15 8.25ZM15.75 13C15.75 12.5858 15.4142 12.25 15 12.25C14.5858 12.25 14.25 12.5858 14.25 13V14.25H13C12.5858 14.25 12.25 14.5858 12.25 15C12.25 15.4142 12.5858 15.75 13 15.75H14.25V17C14.25 17.4142 14.5858 17.75 15 17.75C15.4142 17.75 15.75 17.4142 15.75 17V15.75H17C17.4142 15.75 17.75 15.4142 17.75 15C17.75 14.5858 17.4142 14.25 17 14.25H15.75V13Z" fill="#28303F"/>
</svg>
