<svg width="24" height="24" viewBox="0 0 24 24" fill="none" xmlns="http://www.w3.org/2000/svg">
<path d="M6 7.25C5.58579 7.25 5.25 7.58579 5.25 8C5.25 8.41421 5.58579 8.75 6 8.75V7.25ZM18 8.75C18.4142 8.75 18.75 8.41421 18.75 8C18.75 7.58579 18.4142 7.25 18 7.25V8.75ZM6 15.25C5.58579 15.25 5.25 15.5858 5.25 16C5.25 16.4142 5.58579 16.75 6 16.75V15.25ZM18 16.75C18.4142 16.75 18.75 16.4142 18.75 16C18.75 15.5858 18.4142 15.25 18 15.25V16.75ZM15.75 6.5C15.75 6.08579 15.4142 5.75 15 5.75C14.5858 5.75 14.25 6.08579 14.25 6.5H15.75ZM14.25 9.5C14.25 9.91421 14.5858 10.25 15 10.25C15.4142 10.25 15.75 9.91421 15.75 9.5H14.25ZM9.75 14.5C9.75 14.0858 9.41421 13.75 9 13.75C8.58579 13.75 8.25 14.0858 8.25 14.5H9.75ZM8.25 17.5C8.25 17.9142 8.58579 18.25 9 18.25C9.41421 18.25 9.75 17.9142 9.75 17.5H8.25ZM12.75 14.5C12.75 14.0858 12.4142 13.75 12 13.75C11.5858 13.75 11.25 14.0858 11.25 14.5H12.75ZM11.25 17.5C11.25 17.9142 11.5858 18.25 12 18.25C12.4142 18.25 12.75 17.9142 12.75 17.5H11.25ZM12.75 6.5C12.75 6.08579 12.4142 5.75 12 5.75C11.5858 5.75 11.25 6.08579 11.25 6.5H12.75ZM11.25 9.5C11.25 9.91421 11.5858 10.25 12 10.25C12.4142 10.25 12.75 9.91421 12.75 9.5H11.25ZM5.25 4V20H6.75V4H5.25ZM2.75 20V4H1.25V20H2.75ZM4 21.25C3.30964 21.25 2.75 20.6904 2.75 20H1.25C1.25 21.5188 2.48122 22.75 4 22.75V21.25ZM5.25 20C5.25 20.6904 4.69036 21.25 4 21.25V22.75C5.51878 22.75 6.75 21.5188 6.75 20H5.25ZM4 2.75C4.69036 2.75 5.25 3.30964 5.25 4H6.75C6.75 2.48122 5.51878 1.25 4 1.25V2.75ZM4 1.25C2.48122 1.25 1.25 2.48122 1.25 4H2.75C2.75 3.30964 3.30964 2.75 4 2.75V1.25ZM21.25 4V20H22.75V4H21.25ZM18.75 20V4H17.25V20H18.75ZM20 21.25C19.3096 21.25 18.75 20.6904 18.75 20H17.25C17.25 21.5188 18.4812 22.75 20 22.75V21.25ZM21.25 20C21.25 20.6904 20.6904 21.25 20 21.25V22.75C21.5188 22.75 22.75 21.5188 22.75 20H21.25ZM20 2.75C20.6904 2.75 21.25 3.30964 21.25 4H22.75C22.75 2.48122 21.5188 1.25 20 1.25V2.75ZM20 1.25C18.4812 1.25 17.25 2.48122 17.25 4H18.75C18.75 3.30964 19.3096 2.75 20 2.75V1.25ZM6 8.75H18V7.25H6V8.75ZM6 16.75H18V15.25H6V16.75ZM14.25 6.5V9.5H15.75V6.5H14.25ZM8.25 14.5V17.5H9.75V14.5H8.25ZM11.25 14.5V17.5H12.75V14.5H11.25ZM11.25 6.5V9.5H12.75V6.5H11.25Z" fill="#28303F"/>
</svg>
