<svg width="24" height="24" viewBox="0 0 24 24" fill="none" xmlns="http://www.w3.org/2000/svg">
<path d="M8.09809 17.16L7.44857 17.535C7.6132 17.8202 7.94454 17.9646 8.26549 17.8911L8.09809 17.16ZM5.09809 11.9639L4.54866 11.4533C4.32454 11.6945 4.28394 12.0537 4.44857 12.3389L5.09809 11.9639ZM20.0025 11.779L20.652 11.404L20.0025 11.779ZM18.7168 14.7285L18.5494 13.9975L18.7168 14.7285ZM15.7104 4.34488L15.0609 4.71988L15.7104 4.34488ZM12.5132 3.98351L13.0626 4.49403L12.5132 3.98351ZM5.34812 12.3968L4.6986 12.7718L5.34812 12.3968ZM7.84812 16.727L8.49764 16.352L7.84812 16.727ZM5.25004 18.227L5.89956 17.852L5.25004 18.227ZM2.75004 13.8968L2.10052 14.2718H2.10052L2.75004 13.8968ZM3.29908 11.8478L2.92408 11.1983L3.29908 11.8478ZM7.29908 18.776L6.92408 18.1265L7.29908 18.776ZM14.8096 15.553C14.6025 15.1942 14.1439 15.0713 13.7851 15.2784C13.4264 15.4855 13.3035 15.9442 13.5106 16.3029L14.8096 15.553ZM16.3071 19.6466L16.9566 19.2716L16.9566 19.2716L16.3071 19.6466ZM13.709 21.1466L14.3585 20.7716L13.709 21.1466ZM11.705 16.1755C11.4979 15.8168 11.0392 15.6939 10.6805 15.901C10.3217 16.1081 10.1988 16.5668 10.4059 16.9255L11.705 16.1755ZM15.758 21.6956L15.383 21.0461L15.758 21.6956ZM18.7299 4.63575C18.6227 5.03585 18.8601 5.4471 19.2602 5.55431C19.6603 5.66152 20.0716 5.42408 20.1788 5.02398L18.7299 4.63575ZM20.5448 3.65795C20.652 3.25785 20.4146 2.8466 20.0145 2.73939C19.6144 2.63219 19.2031 2.86963 19.0959 3.26972L20.5448 3.65795ZM21.6484 7.56953C21.2483 7.46233 20.8371 7.69976 20.7299 8.09986C20.6227 8.49996 20.8601 8.91122 21.2602 9.01842L21.6484 7.56953ZM22.6262 9.38445C23.0263 9.49165 23.4376 9.25422 23.5448 8.85412C23.652 8.45402 23.4146 8.04277 23.0145 7.93556L22.6262 9.38445ZM15.0609 4.71988L19.3529 12.154L20.652 11.404L16.3599 3.96988L15.0609 4.71988ZM18.5494 13.9975L7.93069 16.4289L8.26549 17.8911L18.8842 15.4596L18.5494 13.9975ZM8.74761 16.785L5.74761 11.5889L4.44857 12.3389L7.44857 17.535L8.74761 16.785ZM5.64752 12.4744L13.0626 4.49403L11.9637 3.473L4.54866 11.4533L5.64752 12.4744ZM19.3529 12.154C19.7734 12.8823 19.3692 13.8097 18.5494 13.9975L18.8842 15.4596C20.6878 15.0466 21.5771 13.0063 20.652 11.404L19.3529 12.154ZM16.3599 3.96988C15.4348 2.36755 13.2232 2.11758 11.9637 3.473L13.0626 4.49403C13.6351 3.87793 14.6404 3.99155 15.0609 4.71988L16.3599 3.96988ZM4.6986 12.7718L7.1986 17.102L8.49764 16.352L5.99764 12.0218L4.6986 12.7718ZM5.89956 17.852L3.39956 13.5218L2.10052 14.2718L4.60052 18.602L5.89956 17.852ZM3.39956 13.5218C3.19245 13.1631 3.31536 12.7044 3.67408 12.4973L2.92408 11.1983C1.84792 11.8196 1.4792 13.1957 2.10052 14.2718L3.39956 13.5218ZM6.92408 18.1265C6.56536 18.3336 6.10667 18.2107 5.89956 17.852L4.60052 18.602C5.22184 19.6781 6.59792 20.0469 7.67408 19.4255L6.92408 18.1265ZM7.1986 17.102C7.4057 17.4607 7.2828 17.9194 6.92408 18.1265L7.67408 19.4255C8.75024 18.8042 9.11896 17.4281 8.49764 16.352L7.1986 17.102ZM5.99764 12.0218C5.37632 10.9457 4.00024 10.577 2.92408 11.1983L3.67408 12.4973C4.0328 12.2902 4.49149 12.4131 4.6986 12.7718L5.99764 12.0218ZM13.5106 16.3029L15.6576 20.0216L16.9566 19.2716L14.8096 15.553L13.5106 16.3029ZM14.3585 20.7716L11.705 16.1755L10.4059 16.9255L13.0595 21.5216L14.3585 20.7716ZM15.383 21.0461C15.0243 21.2532 14.5656 21.1303 14.3585 20.7716L13.0595 21.5216C13.6808 22.5978 15.0569 22.9665 16.133 22.3452L15.383 21.0461ZM15.6576 20.0216C15.8647 20.3803 15.7418 20.839 15.383 21.0461L16.133 22.3452C17.2092 21.7238 17.5779 20.3478 16.9566 19.2716L15.6576 20.0216ZM20.1788 5.02398L20.5448 3.65795L19.0959 3.26972L18.7299 4.63575L20.1788 5.02398ZM21.2602 9.01842L22.6262 9.38445L23.0145 7.93556L21.6484 7.56953L21.2602 9.01842Z" fill="#28303F"/>
</svg>
