<svg width="24" height="24" viewBox="0 0 24 24" fill="none" xmlns="http://www.w3.org/2000/svg">
<path d="M7.6 13.8L7 14.25H7L7.6 13.8ZM8.8 15.4L9.4 14.95L8.8 15.4ZM15.2 15.4L14.6 14.95L15.2 15.4ZM16.4 13.8L15.8 13.35L15.8 13.35L16.4 13.8ZM16.1716 3.17157L15.6412 3.7019L15.6412 3.7019L16.1716 3.17157ZM18.8284 5.82843L18.2981 6.35876L18.8284 5.82843ZM8 9.25C7.58579 9.25 7.25 9.58579 7.25 10C7.25 10.4142 7.58579 10.75 8 10.75V9.25ZM16 10.75C16.4142 10.75 16.75 10.4142 16.75 10C16.75 9.58579 16.4142 9.25 16 9.25V10.75ZM8 5.25C7.58579 5.25 7.25 5.58579 7.25 6C7.25 6.41421 7.58579 6.75 8 6.75V5.25ZM12 6.75C12.4142 6.75 12.75 6.41421 12.75 6C12.75 5.58579 12.4142 5.25 12 5.25V6.75ZM20 6.25H17V7.75H20V6.25ZM15.75 5V2H14.25V5H15.75ZM17 6.25C16.3096 6.25 15.75 5.69036 15.75 5H14.25C14.25 6.51878 15.4812 7.75 17 7.75V6.25ZM21.25 16V19H22.75V16H21.25ZM19 21.25H5V22.75H19V21.25ZM2.75 19V16H1.25V19H2.75ZM5 13.75H6V12.25H5V13.75ZM7 14.25L8.2 15.85L9.4 14.95L8.2 13.35L7 14.25ZM18 13.75H19V12.25H18V13.75ZM15.8 15.85L17 14.25L15.8 13.35L14.6 14.95L15.8 15.85ZM12 17.75C13.4951 17.75 14.9029 17.0461 15.8 15.85L14.6 14.95C13.9862 15.7684 13.023 16.25 12 16.25V17.75ZM18 12.25C17.1344 12.25 16.3194 12.6575 15.8 13.35L17 14.25C17.2361 13.9352 17.6066 13.75 18 13.75V12.25ZM8.2 15.85C9.09706 17.0461 10.5049 17.75 12 17.75V16.25C10.977 16.25 10.0138 15.7684 9.4 14.95L8.2 15.85ZM6 13.75C6.39345 13.75 6.76393 13.9352 7 14.25L8.2 13.35C7.68065 12.6575 6.86558 12.25 6 12.25V13.75ZM5 21.25C3.75736 21.25 2.75 20.2426 2.75 19H1.25C1.25 21.0711 2.92893 22.75 5 22.75V21.25ZM21.25 19C21.25 20.2426 20.2426 21.25 19 21.25V22.75C21.0711 22.75 22.75 21.0711 22.75 19H21.25ZM22.75 16C22.75 13.9289 21.0711 12.25 19 12.25V13.75C20.2426 13.75 21.25 14.7574 21.25 16H22.75ZM2.75 16C2.75 14.7574 3.75736 13.75 5 13.75V12.25C2.92893 12.25 1.25 13.9289 1.25 16H2.75ZM3.25 4V13H4.75V4H3.25ZM6 2.75H13.3431V1.25H6V2.75ZM15.6412 3.7019L18.2981 6.35876L19.3588 5.2981L16.7019 2.64124L15.6412 3.7019ZM19.25 8.65685V13H20.75V8.65685H19.25ZM18.2981 6.35876C18.9076 6.96825 19.25 7.7949 19.25 8.65685H20.75C20.75 7.39708 20.2496 6.1889 19.3588 5.2981L18.2981 6.35876ZM13.3431 2.75C14.2051 2.75 15.0317 3.09241 15.6412 3.7019L16.7019 2.64124C15.8111 1.75044 14.6029 1.25 13.3431 1.25V2.75ZM4.75 4C4.75 3.30964 5.30964 2.75 6 2.75V1.25C4.48122 1.25 3.25 2.48122 3.25 4H4.75ZM8 10.75H16V9.25H8V10.75ZM8 6.75H12V5.25H8V6.75Z" fill="#28303F"/>
</svg>
