<svg width="24" height="24" viewBox="0 0 24 24" fill="none" xmlns="http://www.w3.org/2000/svg">
<path d="M14 21.75C14.4142 21.75 14.75 21.4142 14.75 21C14.75 20.5858 14.4142 20.25 14 20.25V21.75ZM21.25 14C21.25 14.4142 21.5858 14.75 22 14.75C22.4142 14.75 22.75 14.4142 22.75 14H21.25ZM3.5 21L2.9 21.45C3.04164 21.6389 3.26393 21.75 3.5 21.75C3.73607 21.75 3.95836 21.6389 4.1 21.45L3.5 21ZM2.8 20.0667L2.2 20.5167H2.2L2.8 20.0667ZM4.2 20.0667L4.8 20.5167H4.8L4.2 20.0667ZM2 6.25C1.58579 6.25 1.25 6.58579 1.25 7C1.25 7.41421 1.58579 7.75 2 7.75V6.25ZM5 7.75C5.41421 7.75 5.75 7.41421 5.75 7C5.75 6.58579 5.41421 6.25 5 6.25V7.75ZM12 6.25C11.5858 6.25 11.25 6.58579 11.25 7C11.25 7.41421 11.5858 7.75 12 7.75V6.25ZM18 7.75C18.4142 7.75 18.75 7.41421 18.75 7C18.75 6.58579 18.4142 6.25 18 6.25V7.75ZM12 10.25C11.5858 10.25 11.25 10.5858 11.25 11C11.25 11.4142 11.5858 11.75 12 11.75V10.25ZM18 11.75C18.4142 11.75 18.75 11.4142 18.75 11C18.75 10.5858 18.4142 10.25 18 10.25V11.75ZM12 14.25C11.5858 14.25 11.25 14.5858 11.25 15C11.25 15.4142 11.5858 15.75 12 15.75V14.25ZM15 15.75C15.4142 15.75 15.75 15.4142 15.75 15C15.75 14.5858 15.4142 14.25 15 14.25V15.75ZM16.4685 18.4143C16.1451 18.1556 15.6731 18.208 15.4143 18.5315C15.1556 18.8549 15.208 19.3269 15.5315 19.5857L16.4685 18.4143ZM17.7528 20.4023L17.2843 20.9879L17.7528 20.4023ZM19.1301 20.2799L18.5657 19.786V19.786L19.1301 20.2799ZM22.5644 17.4939C22.8372 17.1822 22.8056 16.7083 22.4939 16.4356C22.1822 16.1628 21.7083 16.1944 21.4356 16.5061L22.5644 17.4939ZM12 3.75H18V2.25H12V3.75ZM8.75 17V7H7.25V17H8.75ZM14 20.25H12V21.75H14V20.25ZM21.25 7V14H22.75V7H21.25ZM7.25 17C7.25 19.6234 9.37665 21.75 12 21.75V20.25C10.2051 20.25 8.75 18.7949 8.75 17H7.25ZM18 3.75C19.7949 3.75 21.25 5.20507 21.25 7H22.75C22.75 4.37665 20.6234 2.25 18 2.25V3.75ZM12 2.25C9.37665 2.25 7.25 4.37665 7.25 7H8.75C8.75 5.20507 10.2051 3.75 12 3.75V2.25ZM4.25 4.5V17.6667H5.75V4.5H4.25ZM2.75 17.6667V4.5H1.25V17.6667H2.75ZM3.6 19.6167L2.9 20.55L4.1 21.45L4.8 20.5167L3.6 19.6167ZM4.1 20.55L3.4 19.6167L2.2 20.5167L2.9 21.45L4.1 20.55ZM1.25 17.6667C1.25 18.6944 1.58334 19.6945 2.2 20.5167L3.4 19.6167C2.97808 19.0541 2.75 18.3699 2.75 17.6667H1.25ZM4.25 17.6667C4.25 18.3699 4.02192 19.0541 3.6 19.6167L4.8 20.5167C5.41666 19.6945 5.75 18.6944 5.75 17.6667H4.25ZM3.5 3.75C3.91421 3.75 4.25 4.08579 4.25 4.5H5.75C5.75 3.25736 4.74264 2.25 3.5 2.25V3.75ZM3.5 2.25C2.25736 2.25 1.25 3.25736 1.25 4.5H2.75C2.75 4.08579 3.08579 3.75 3.5 3.75V2.25ZM2 7.75H5V6.25H2V7.75ZM12 7.75H18V6.25H12V7.75ZM12 11.75H18V10.25H12V11.75ZM12 15.75H15V14.25H12V15.75ZM15.5315 19.5857L17.2843 20.9879L18.2213 19.8166L16.4685 18.4143L15.5315 19.5857ZM19.6945 20.7738L22.5644 17.4939L21.4356 16.5061L18.5657 19.786L19.6945 20.7738ZM17.2843 20.9879C18.0156 21.5729 19.0778 21.4786 19.6945 20.7738L18.5657 19.786C18.4776 19.8867 18.3258 19.9002 18.2213 19.8166L17.2843 20.9879Z" fill="#28303F"/>
</svg>
