<svg width="24" height="24" viewBox="0 0 24 24" fill="none" xmlns="http://www.w3.org/2000/svg">
<path d="M11.4472 11.2764L11.7826 11.9472L11.4472 11.2764ZM14.2111 8.10557L14.5466 7.43475L14.2111 8.10557ZM14.2111 9.89443L13.8757 9.22361L14.2111 9.89443ZM11.4472 6.72361L11.1118 7.39443L11.4472 6.72361ZM20 16H20.75V15.25H20V16ZM11.1118 7.39443L13.8757 8.77639L14.5466 7.43475L11.7826 6.05279L11.1118 7.39443ZM13.8757 9.22361L11.1118 10.6056L11.7826 11.9472L14.5466 10.5652L13.8757 9.22361ZM10.75 10.382V7.61803H9.25V10.382H10.75ZM11.1118 10.6056C10.9456 10.6887 10.75 10.5678 10.75 10.382H9.25C9.25 11.6829 10.619 12.529 11.7826 11.9472L11.1118 10.6056ZM13.8757 8.77639C14.06 8.86852 14.06 9.13147 13.8757 9.22361L14.5466 10.5652C15.8364 9.92033 15.8364 8.07967 14.5466 7.43475L13.8757 8.77639ZM11.7826 6.05279C10.619 5.471 9.25 6.31711 9.25 7.61803H10.75C10.75 7.43219 10.9456 7.31131 11.1118 7.39443L11.7826 6.05279ZM7 16.75H20V15.25H7V16.75ZM19.25 16V19H20.75V16H19.25ZM17 21.25H7V22.75H17V21.25ZM7 21.25C5.75736 21.25 4.75 20.2426 4.75 19H3.25C3.25 21.0711 4.92893 22.75 7 22.75V21.25ZM19.25 19C19.25 20.2426 18.2426 21.25 17 21.25V22.75C19.0711 22.75 20.75 21.0711 20.75 19H19.25ZM7 15.25C4.92893 15.25 3.25 16.9289 3.25 19H4.75C4.75 17.7574 5.75736 16.75 7 16.75V15.25ZM7 2.75H17V1.25H7V2.75ZM19.25 5V19H20.75V5H19.25ZM4.75 19V5H3.25V19H4.75ZM17 2.75C18.2426 2.75 19.25 3.75736 19.25 5H20.75C20.75 2.92893 19.0711 1.25 17 1.25V2.75ZM7 1.25C4.92893 1.25 3.25 2.92893 3.25 5H4.75C4.75 3.75736 5.75736 2.75 7 2.75V1.25Z" fill="#28303F"/>
</svg>
