<svg width="24" height="24" viewBox="0 0 24 24" fill="none" xmlns="http://www.w3.org/2000/svg">
<path d="M14.25 5C14.25 5.41421 14.5858 5.75 15 5.75C15.4142 5.75 15.75 5.41421 15.75 5H14.25ZM8.25 5C8.25 5.41421 8.58579 5.75 9 5.75C9.41421 5.75 9.75 5.41421 9.75 5H8.25ZM19 12V11.25C18.5858 11.25 18.25 11.5858 18.25 12H19ZM19 20H18.25C18.25 20.4142 18.5858 20.75 19 20.75V20ZM5 12H5.75C5.75 11.5858 5.41421 11.25 5 11.25V12ZM5 20V20.75C5.41421 20.75 5.75 20.4142 5.75 20H5ZM11 9.25C10.5858 9.25 10.25 9.58579 10.25 10C10.25 10.4142 10.5858 10.75 11 10.75V9.25ZM13 10.75C13.4142 10.75 13.75 10.4142 13.75 10C13.75 9.58579 13.4142 9.25 13 9.25V10.75ZM4.67755 15.3229C4.30357 15.5009 4.14477 15.9485 4.32285 16.3224C4.50094 16.6964 4.94847 16.8552 5.32245 16.6771L4.67755 15.3229ZM18.6775 16.6771C19.0515 16.8552 19.4991 16.6964 19.6771 16.3225C19.8552 15.9485 19.6964 15.5009 19.3225 15.3229L18.6775 16.6771ZM11 5.75H13V4.25H11V5.75ZM18.25 11V18H19.75V11H18.25ZM15 21.25H9V22.75H15V21.25ZM5.75 18V11H4.25V18H5.75ZM9 21.25C7.20507 21.25 5.75 19.7949 5.75 18H4.25C4.25 20.6234 6.37665 22.75 9 22.75V21.25ZM18.25 18C18.25 19.7949 16.7949 21.25 15 21.25V22.75C17.6234 22.75 19.75 20.6234 19.75 18H18.25ZM13 5.75C15.8995 5.75 18.25 8.10051 18.25 11H19.75C19.75 7.27208 16.7279 4.25 13 4.25V5.75ZM11 4.25C7.27208 4.25 4.25 7.27208 4.25 11H5.75C5.75 8.10051 8.10051 5.75 11 5.75V4.25ZM11 2.75H13V1.25H11V2.75ZM14.25 4V5H15.75V4H14.25ZM9.75 5V4H8.25V5H9.75ZM13 2.75C13.6904 2.75 14.25 3.30964 14.25 4H15.75C15.75 2.48122 14.5188 1.25 13 1.25V2.75ZM11 1.25C9.48122 1.25 8.25 2.48122 8.25 4H9.75C9.75 3.30964 10.3096 2.75 11 2.75V1.25ZM21.25 15V18H22.75V15H21.25ZM20 19.25H19V20.75H20V19.25ZM19.75 20V12H18.25V20H19.75ZM21.25 18C21.25 18.6904 20.6904 19.25 20 19.25V20.75C21.5188 20.75 22.75 19.5188 22.75 18H21.25ZM19 12.75C20.2426 12.75 21.25 13.7574 21.25 15H22.75C22.75 12.9289 21.0711 11.25 19 11.25V12.75ZM4.25 12V20H5.75V12H4.25ZM5 19.25H4V20.75H5V19.25ZM2.75 18V15H1.25V18H2.75ZM4 19.25C3.30964 19.25 2.75 18.6904 2.75 18H1.25C1.25 19.5188 2.48122 20.75 4 20.75V19.25ZM5 11.25C2.92893 11.25 1.25 12.9289 1.25 15H2.75C2.75 13.7574 3.75736 12.75 5 12.75V11.25ZM11 10.75H13V9.25H11V10.75ZM5.32245 16.6771C8.08795 15.3602 10.067 14.75 12 14.75C13.933 14.75 15.9121 15.3602 18.6775 16.6771L19.3225 15.3229C16.4879 13.9731 14.267 13.25 12 13.25C9.733 13.25 7.51205 13.9731 4.67755 15.3229L5.32245 16.6771Z" fill="#28303F"/>
</svg>
