<svg width="24" height="24" viewBox="0 0 24 24" fill="none" xmlns="http://www.w3.org/2000/svg">
<path d="M17.1944 12C17.1944 9.51726 18.1716 7.26433 19.7638 5.60219L18.6806 4.56455C16.8316 6.4947 15.6944 9.11534 15.6944 12H17.1944ZM12 2.75C14.6263 2.75 16.9959 3.84355 18.6806 5.60219L19.7638 4.56455C17.808 2.52282 15.052 1.25 12 1.25V2.75ZM18.6806 5.60219C20.2729 7.26433 21.25 9.51726 21.25 12H22.75C22.75 9.11534 21.6128 6.4947 19.7638 4.56455L18.6806 5.60219ZM19.7638 18.3978C18.1716 16.7357 17.1944 14.4827 17.1944 12H15.6944C15.6944 14.8847 16.8316 17.5053 18.6806 19.4355L19.7638 18.3978ZM21.25 12C21.25 14.4827 20.2729 16.7357 18.6806 18.3978L19.7638 19.4355C21.6128 17.5053 22.75 14.8847 22.75 12H21.25ZM18.6806 18.3978C16.9959 20.1565 14.6263 21.25 12 21.25V22.75C15.052 22.75 17.808 21.4772 19.7638 19.4355L18.6806 18.3978ZM4.23618 5.60219C5.82842 7.26433 6.80556 9.51726 6.80556 12H8.30556C8.30556 9.11534 7.16836 6.4947 5.31937 4.56455L4.23618 5.60219ZM2.75 12C2.75 9.51726 3.72714 7.26433 5.31937 5.60219L4.23618 4.56455C2.3872 6.4947 1.25 9.11534 1.25 12H2.75ZM5.31937 5.60219C7.00406 3.84355 9.37369 2.75 12 2.75V1.25C8.94802 1.25 6.19205 2.52282 4.23618 4.56455L5.31937 5.60219ZM6.80556 12C6.80556 14.4827 5.82842 16.7357 4.23618 18.3978L5.31937 19.4355C7.16836 17.5053 8.30556 14.8847 8.30556 12H6.80556ZM12 21.25C9.37369 21.25 7.00406 20.1565 5.31937 18.3978L4.23618 19.4355C6.19205 21.4772 8.94802 22.75 12 22.75V21.25ZM5.31937 18.3978C3.72714 16.7357 2.75 14.4827 2.75 12H1.25C1.25 14.8847 2.3872 17.5053 4.23618 19.4355L5.31937 18.3978ZM11.25 2V22H12.75V2H11.25ZM22 11.25H2V12.75H22V11.25Z" fill="#28303F"/>
</svg>
