<svg width="24" height="24" viewBox="0 0 24 24" fill="none" xmlns="http://www.w3.org/2000/svg">
<path d="M21 19V19.75C21.4142 19.75 21.75 19.4142 21.75 19H21ZM3 19H2.25C2.25 19.4142 2.58579 19.75 3 19.75V19ZM17 19V19.75C17.4142 19.75 17.75 19.4142 17.75 19H17ZM13 19H12.25C12.25 19.4142 12.5858 19.75 13 19.75V19ZM22 19.75C22.4142 19.75 22.75 19.4142 22.75 19C22.75 18.5858 22.4142 18.25 22 18.25V19.75ZM2 18.25C1.58579 18.25 1.25 18.5858 1.25 19C1.25 19.4142 1.58579 19.75 2 19.75V18.25ZM12 9.75C12.4142 9.75 12.75 9.41421 12.75 9C12.75 8.58579 12.4142 8.25 12 8.25V9.75ZM7 8.25C6.58579 8.25 6.25 8.58579 6.25 9C6.25 9.41421 6.58579 9.75 7 9.75V8.25ZM7 5.75H17V4.25H7V5.75ZM20.25 9V19H21.75V9H20.25ZM21 18.25H3V19.75H21V18.25ZM3.75 19V9H2.25V19H3.75ZM17 5.75C18.7949 5.75 20.25 7.20507 20.25 9H21.75C21.75 6.37665 19.6234 4.25 17 4.25V5.75ZM7 4.25C4.37665 4.25 2.25 6.37665 2.25 9H3.75C3.75 7.20507 5.20507 5.75 7 5.75V4.25ZM14 16.75H16V15.25H14V16.75ZM16.25 17V19H17.75V17H16.25ZM17 18.25H13V19.75H17V18.25ZM13.75 19V17H12.25V19H13.75ZM16 16.75C16.1381 16.75 16.25 16.8619 16.25 17H17.75C17.75 16.0335 16.9665 15.25 16 15.25V16.75ZM14 15.25C13.0335 15.25 12.25 16.0335 12.25 17H13.75C13.75 16.8619 13.8619 16.75 14 16.75V15.25ZM22 18.25H2V19.75H22V18.25ZM12 8.25H7V9.75H12V8.25Z" fill="#28303F"/>
</svg>
