<svg width="24" height="24" viewBox="0 0 24 24" fill="none" xmlns="http://www.w3.org/2000/svg">
<path d="M21 17V17.75H21.75V17H21ZM3 17H2.25V17.75H3V17ZM12.75 17C12.75 16.5858 12.4142 16.25 12 16.25C11.5858 16.25 11.25 16.5858 11.25 17H12.75ZM15 21.75C15.4142 21.75 15.75 21.4142 15.75 21C15.75 20.5858 15.4142 20.25 15 20.25V21.75ZM9 20.25C8.58579 20.25 8.25 20.5858 8.25 21C8.25 21.4142 8.58579 21.75 9 21.75V20.25ZM22 17.75C22.4142 17.75 22.75 17.4142 22.75 17C22.75 16.5858 22.4142 16.25 22 16.25V17.75ZM2 16.25C1.58579 16.25 1.25 16.5858 1.25 17C1.25 17.4142 1.58579 17.75 2 17.75V16.25ZM16 8.75C16.4142 8.75 16.75 8.41421 16.75 8C16.75 7.58579 16.4142 7.25 16 7.25V8.75ZM8 7.25C7.58579 7.25 7.25 7.58579 7.25 8C7.25 8.41421 7.58579 8.75 8 8.75V7.25ZM12 12.75C12.4142 12.75 12.75 12.4142 12.75 12C12.75 11.5858 12.4142 11.25 12 11.25V12.75ZM8 11.25C7.58579 11.25 7.25 11.5858 7.25 12C7.25 12.4142 7.58579 12.75 8 12.75V11.25ZM7 3.75H17V2.25H7V3.75ZM20.25 7V17H21.75V7H20.25ZM21 16.25H3V17.75H21V16.25ZM3.75 17V7H2.25V17H3.75ZM17 3.75C18.7949 3.75 20.25 5.20507 20.25 7H21.75C21.75 4.37665 19.6234 2.25 17 2.25V3.75ZM7 2.25C4.37665 2.25 2.25 4.37665 2.25 7H3.75C3.75 5.20507 5.20507 3.75 7 3.75V2.25ZM11.25 17V21H12.75V17H11.25ZM12 21.75H15V20.25H12V21.75ZM12 20.25H9V21.75H12V20.25ZM22 16.25H2V17.75H22V16.25ZM16 7.25L8 7.25V8.75L16 8.75V7.25ZM12 11.25H8V12.75H12V11.25Z" fill="#28303F"/>
</svg>
