<svg width="24" height="24" viewBox="0 0 24 24" fill="none" xmlns="http://www.w3.org/2000/svg">
<path d="M2 14.25C1.58579 14.25 1.25 14.5858 1.25 15C1.25 15.4142 1.58579 15.75 2 15.75V14.25ZM2 20.25C1.58579 20.25 1.25 20.5858 1.25 21C1.25 21.4142 1.58579 21.75 2 21.75V20.25ZM2 2.25C1.58579 2.25 1.25 2.58579 1.25 3C1.25 3.41421 1.58579 3.75 2 3.75V2.25ZM2 8.25C1.58579 8.25 1.25 8.58579 1.25 9C1.25 9.41421 1.58579 9.75 2 9.75V8.25ZM22 9.75C22.4142 9.75 22.75 9.41421 22.75 9C22.75 8.58579 22.4142 8.25 22 8.25V9.75ZM22 15.75C22.4142 15.75 22.75 15.4142 22.75 15C22.75 14.5858 22.4142 14.25 22 14.25V15.75ZM4 15.75H15V14.25H4V15.75ZM15 20.25H4V21.75H15V20.25ZM4.75 21V15H3.25V21H4.75ZM4 14.25H2V15.75H4V14.25ZM4 20.25H2V21.75H4V20.25ZM17.25 18C17.25 19.2426 16.2426 20.25 15 20.25V21.75C17.0711 21.75 18.75 20.0711 18.75 18H17.25ZM15 15.75C16.2426 15.75 17.25 16.7574 17.25 18H18.75C18.75 15.9289 17.0711 14.25 15 14.25V15.75ZM4 3.75H15V2.25H4V3.75ZM15 8.25H4V9.75H15V8.25ZM4.75 9V3H3.25V9H4.75ZM4 2.25H2V3.75H4V2.25ZM4 8.25H2V9.75H4V8.25ZM17.25 6C17.25 7.24264 16.2426 8.25 15 8.25V9.75C17.0711 9.75 18.75 8.07107 18.75 6H17.25ZM15 3.75C16.2426 3.75 17.25 4.75736 17.25 6H18.75C18.75 3.92893 17.0711 2.25 15 2.25V3.75ZM20 8.25H9V9.75H20V8.25ZM9 15.75H20V14.25H9V15.75ZM20.75 15V9H19.25V15H20.75ZM20 9.75H22V8.25H20V9.75ZM20 15.75H22V14.25H20V15.75ZM5.25 12C5.25 14.0711 6.92893 15.75 9 15.75V14.25C7.75736 14.25 6.75 13.2426 6.75 12H5.25ZM9 8.25C6.92893 8.25 5.25 9.92893 5.25 12H6.75C6.75 10.7574 7.75736 9.75 9 9.75V8.25Z" fill="#28303F"/>
</svg>
