<svg width="24" height="24" viewBox="0 0 24 24" fill="none" xmlns="http://www.w3.org/2000/svg">
<path d="M12.75 6.03558C12.75 5.62137 12.4142 5.28558 12 5.28558C11.5858 5.28558 11.25 5.62137 11.25 6.03558H12.75ZM11.25 15.535C11.25 15.9492 11.5858 16.285 12 16.285C12.4142 16.285 12.75 15.9492 12.75 15.535H11.25ZM6.39603 4.00751L6.47628 3.26182L6.39603 4.00751ZM11.5218 5.6163L11.9381 4.99246V4.99246L11.5218 5.6163ZM6.39603 14.2482L6.47628 13.5025H6.47628L6.39603 14.2482ZM11.5218 15.857L11.9381 15.2332L11.5218 15.857ZM17.604 4.00751L17.5237 3.26182L17.604 4.00751ZM12.4782 5.6163L12.0619 4.99246V4.99246L12.4782 5.6163ZM17.604 14.2482L17.5237 13.5025L17.604 14.2482ZM12.4782 15.857L12.0619 15.2332L12.4782 15.857ZM5 8.75C5.41421 8.75 5.75 8.41421 5.75 8C5.75 7.58579 5.41421 7.25 5 7.25V8.75ZM19 7.25C18.5858 7.25 18.25 7.58579 18.25 8C18.25 8.41421 18.5858 8.75 19 8.75V7.25ZM11.25 6.03558V15.535H12.75V6.03558H11.25ZM6.31578 4.75321C7.83003 4.91617 9.77068 5.34937 11.1055 6.24014L11.9381 4.99246C10.2997 3.89906 8.06776 3.43309 6.47628 3.26182L6.31578 4.75321ZM6.31578 14.9939C7.83003 15.1569 9.77068 15.5901 11.1055 16.4808L11.9381 15.2332C10.2997 14.1398 8.06776 13.6738 6.47628 13.5025L6.31578 14.9939ZM4.25 5.29012V12.8H5.75V5.29012H4.25ZM6.47628 13.5025C6.02743 13.4542 5.75 13.1123 5.75 12.8H4.25C4.25 13.9959 5.22757 14.8768 6.31578 14.9939L6.47628 13.5025ZM6.47628 3.26182C5.23411 3.12814 4.25 4.12101 4.25 5.29012H5.75C5.75 4.95103 6.02088 4.72147 6.31578 4.75321L6.47628 3.26182ZM17.5237 3.26182C15.9322 3.43309 13.7003 3.89906 12.0619 4.99246L12.8945 6.24014C14.2293 5.34937 16.17 4.91617 17.6842 4.75321L17.5237 3.26182ZM17.5237 13.5025C15.9322 13.6738 13.7003 14.1398 12.0619 15.2332L12.8945 16.4808C14.2293 15.5901 16.17 15.1569 17.6842 14.9939L17.5237 13.5025ZM18.25 5.29012V12.8H19.75V5.29012H18.25ZM17.6842 14.9939C18.7724 14.8768 19.75 13.9959 19.75 12.8H18.25C18.25 13.1123 17.9726 13.4542 17.5237 13.5025L17.6842 14.9939ZM17.6842 4.75321C17.9791 4.72147 18.25 4.95103 18.25 5.29012H19.75C19.75 4.12101 18.7659 3.12814 17.5237 3.26182L17.6842 4.75321ZM11.1055 16.4808C11.6432 16.8397 12.3568 16.8397 12.8945 16.4808L12.0619 15.2332C12.0485 15.2421 12.0271 15.25 12 15.25C11.9729 15.25 11.9515 15.2421 11.9381 15.2332L11.1055 16.4808ZM11.1055 6.24014C11.6432 6.59902 12.3568 6.59902 12.8945 6.24014L12.0619 4.99246C12.0485 5.00141 12.0271 5.0093 12 5.0093C11.9729 5.0093 11.9515 5.00141 11.9381 4.99246L11.1055 6.24014ZM21.25 11V16H22.75V11H21.25ZM18 19.25H6V20.75H18V19.25ZM2.75 16V11H1.25V16H2.75ZM2.75 11C2.75 9.75736 3.75736 8.75 5 8.75V7.25C2.92893 7.25 1.25 8.92893 1.25 11H2.75ZM6 19.25C4.20507 19.25 2.75 17.7949 2.75 16H1.25C1.25 18.6234 3.37665 20.75 6 20.75V19.25ZM21.25 16C21.25 17.7949 19.7949 19.25 18 19.25V20.75C20.6234 20.75 22.75 18.6234 22.75 16H21.25ZM22.75 11C22.75 8.92893 21.0711 7.25 19 7.25V8.75C20.2426 8.75 21.25 9.75736 21.25 11H22.75Z" fill="#28303F"/>
</svg>
