<svg width="24" height="24" viewBox="0 0 24 24" fill="none" xmlns="http://www.w3.org/2000/svg">
<path d="M15 9.75C15.4142 9.75 15.75 9.41421 15.75 9C15.75 8.58579 15.4142 8.25 15 8.25V9.75ZM9 8.25C8.58579 8.25 8.25 8.58579 8.25 9C8.25 9.41421 8.58579 9.75 9 9.75V8.25ZM15 8.25L9 8.25V9.75L15 9.75V8.25ZM7 2.75H17V1.25H7V2.75ZM4.75 19V5H3.25V19H4.75ZM19.25 5V16H20.75V5H19.25ZM17 2.75C18.2426 2.75 19.25 3.75736 19.25 5H20.75C20.75 2.92893 19.0711 1.25 17 1.25V2.75ZM7 1.25C4.92893 1.25 3.25 2.92893 3.25 5H4.75C4.75 3.75736 5.75736 2.75 7 2.75V1.25ZM7 16.75H20V15.25H7V16.75ZM19.25 16V19H20.75V16H19.25ZM17 21.25H7V22.75H17V21.25ZM7 21.25C5.75736 21.25 4.75 20.2426 4.75 19H3.25C3.25 21.0711 4.92893 22.75 7 22.75V21.25ZM19.25 19C19.25 20.2426 18.2426 21.25 17 21.25V22.75C19.0711 22.75 20.75 21.0711 20.75 19H19.25ZM7 15.25C4.92893 15.25 3.25 16.9289 3.25 19H4.75C4.75 17.7574 5.75736 16.75 7 16.75V15.25Z" fill="#28303F"/>
</svg>
