<svg width="24" height="24" viewBox="0 0 24 24" fill="none" xmlns="http://www.w3.org/2000/svg">
<path d="M9.46967 7.05545C9.17678 7.34835 9.17678 7.82322 9.46967 8.11612C9.76256 8.40901 10.2374 8.40901 10.5303 8.11612L9.46967 7.05545ZM12.7071 6.29289L12.1768 6.82322L12.7071 6.29289ZM13.4697 8.11612C13.7626 8.40901 14.2374 8.40901 14.5303 8.11612C14.8232 7.82322 14.8232 7.34835 14.5303 7.05545L13.4697 8.11612ZM11.25 11.5858C11.25 12 11.5858 12.3358 12 12.3358C12.4142 12.3358 12.75 12 12.75 11.5858H11.25ZM12.75 6.58578C12.75 6.17157 12.4142 5.83578 12 5.83578C11.5858 5.83578 11.25 6.17157 11.25 6.58578H12.75ZM10.5303 8.11612L11.8232 6.82322L10.7626 5.76256L9.46967 7.05545L10.5303 8.11612ZM12.1768 6.82322L13.4697 8.11612L14.5303 7.05545L13.2374 5.76256L12.1768 6.82322ZM11.8232 6.82322C11.9209 6.72559 12.0791 6.72559 12.1768 6.82322L13.2374 5.76256C12.554 5.07914 11.446 5.07914 10.7626 5.76256L11.8232 6.82322ZM12.75 11.5858V6.58578H11.25V11.5858H12.75ZM7 2.75H17V1.25H7V2.75ZM4.75 19V5H3.25V19H4.75ZM19.25 5V16H20.75V5H19.25ZM17 2.75C18.2426 2.75 19.25 3.75736 19.25 5H20.75C20.75 2.92893 19.0711 1.25 17 1.25V2.75ZM7 1.25C4.92893 1.25 3.25 2.92893 3.25 5H4.75C4.75 3.75736 5.75736 2.75 7 2.75V1.25ZM7 16.75H20V15.25H7V16.75ZM19.25 16V19H20.75V16H19.25ZM17 21.25H7V22.75H17V21.25ZM7 21.25C5.75736 21.25 4.75 20.2426 4.75 19H3.25C3.25 21.0711 4.92893 22.75 7 22.75V21.25ZM19.25 19C19.25 20.2426 18.2426 21.25 17 21.25V22.75C19.0711 22.75 20.75 21.0711 20.75 19H19.25ZM7 15.25C4.92893 15.25 3.25 16.9289 3.25 19H4.75C4.75 17.7574 5.75736 16.75 7 16.75V15.25Z" fill="#28303F"/>
</svg>
