<svg width="24" height="24" viewBox="0 0 24 24" fill="none" xmlns="http://www.w3.org/2000/svg">
<path d="M14.773 7.53033C15.0659 7.23744 15.0659 6.76256 14.773 6.46967C14.4801 6.17678 14.0052 6.17678 13.7123 6.46967L14.773 7.53033ZM9.46971 10.7123C9.17681 11.0052 9.17681 11.4801 9.46971 11.773C9.7626 12.0659 10.2375 12.0659 10.5304 11.773L9.46971 10.7123ZM13.7123 11.773C14.0052 12.0659 14.4801 12.0659 14.773 11.773C15.0659 11.4801 15.0659 11.0052 14.773 10.7123L13.7123 11.773ZM10.5304 6.4697C10.2375 6.17681 9.7626 6.17681 9.46971 6.4697C9.17681 6.7626 9.17681 7.23747 9.46971 7.53036L10.5304 6.4697ZM13.7123 6.46967L9.46971 10.7123L10.5304 11.773L14.773 7.53033L13.7123 6.46967ZM14.773 10.7123L10.5304 6.4697L9.46971 7.53036L13.7123 11.773L14.773 10.7123ZM7 2.75H17V1.25H7V2.75ZM4.75 19V5H3.25V19H4.75ZM19.25 5V16H20.75V5H19.25ZM17 2.75C18.2426 2.75 19.25 3.75736 19.25 5H20.75C20.75 2.92893 19.0711 1.25 17 1.25V2.75ZM7 1.25C4.92893 1.25 3.25 2.92893 3.25 5H4.75C4.75 3.75736 5.75736 2.75 7 2.75V1.25ZM7 16.75H20V15.25H7V16.75ZM19.25 16V19H20.75V16H19.25ZM17 21.25H7V22.75H17V21.25ZM7 21.25C5.75736 21.25 4.75 20.2426 4.75 19H3.25C3.25 21.0711 4.92893 22.75 7 22.75V21.25ZM19.25 19C19.25 20.2426 18.2426 21.25 17 21.25V22.75C19.0711 22.75 20.75 21.0711 20.75 19H19.25ZM7 15.25C4.92893 15.25 3.25 16.9289 3.25 19H4.75C4.75 17.7574 5.75736 16.75 7 16.75V15.25Z" fill="#28303F"/>
</svg>
