<svg width="24" height="24" viewBox="0 0 24 24" fill="none" xmlns="http://www.w3.org/2000/svg">
<path d="M9.75 2C9.75 1.58579 9.41421 1.25 9 1.25C8.58579 1.25 8.25 1.58579 8.25 2H9.75ZM9 9H8.25C8.25 9.28263 8.40888 9.54126 8.66099 9.66901C8.91309 9.79676 9.21561 9.77194 9.44352 9.6048L9 9ZM12 6.8L12.4435 6.1952C12.1795 6.0016 11.8205 6.0016 11.5565 6.1952L12 6.8ZM15 9L14.5565 9.6048C14.7844 9.77194 15.0869 9.79676 15.339 9.66901C15.5911 9.54126 15.75 9.28263 15.75 9H15ZM15.75 2C15.75 1.58579 15.4142 1.25 15 1.25C14.5858 1.25 14.25 1.58579 14.25 2H15.75ZM7 16.75H20V15.25H7V16.75ZM19.25 16V19H20.75V16H19.25ZM17 21.25H7V22.75H17V21.25ZM7 21.25C5.75736 21.25 4.75 20.2426 4.75 19H3.25C3.25 21.0711 4.92893 22.75 7 22.75V21.25ZM19.25 19C19.25 20.2426 18.2426 21.25 17 21.25V22.75C19.0711 22.75 20.75 21.0711 20.75 19H19.25ZM7 15.25C4.92893 15.25 3.25 16.9289 3.25 19H4.75C4.75 17.7574 5.75736 16.75 7 16.75V15.25ZM7 2.75H17V1.25H7V2.75ZM19.25 5V16H20.75V5H19.25ZM4.75 19V5H3.25V19H4.75ZM17 2.75C18.2426 2.75 19.25 3.75736 19.25 5H20.75C20.75 2.92893 19.0711 1.25 17 1.25V2.75ZM7 1.25C4.92893 1.25 3.25 2.92893 3.25 5H4.75C4.75 3.75736 5.75736 2.75 7 2.75V1.25ZM8.25 2V9H9.75V2H8.25ZM9.44352 9.6048L12.4435 7.4048L11.5565 6.1952L8.55648 8.3952L9.44352 9.6048ZM11.5565 7.4048L14.5565 9.6048L15.4435 8.3952L12.4435 6.1952L11.5565 7.4048ZM15.75 9V2H14.25V9H15.75Z" fill="#28303F"/>
</svg>
