<svg width="24" height="24" viewBox="0 0 24 24" fill="none" xmlns="http://www.w3.org/2000/svg">
<path d="M12 9.25C11.5858 9.25 11.25 9.58579 11.25 10C11.25 10.4142 11.5858 10.75 12 10.75V9.25ZM9.25 8C9.25 8.41421 9.58579 8.75 10 8.75C10.4142 8.75 10.75 8.41421 10.75 8H9.25ZM13.25 8C13.25 8.69036 12.6904 9.25 12 9.25V10.75C13.5188 10.75 14.75 9.51878 14.75 8H13.25ZM10.75 8C10.75 7.30964 11.3096 6.75 12 6.75V5.25C10.4812 5.25 9.25 6.48122 9.25 8H10.75ZM12 6.75C12.6904 6.75 13.25 7.30964 13.25 8H14.75C14.75 6.48122 13.5188 5.25 12 5.25V6.75ZM7 2.75H17V1.25H7V2.75ZM4.75 19V5H3.25V19H4.75ZM19.25 5V16H20.75V5H19.25ZM17 2.75C18.2426 2.75 19.25 3.75736 19.25 5H20.75C20.75 2.92893 19.0711 1.25 17 1.25V2.75ZM7 1.25C4.92893 1.25 3.25 2.92893 3.25 5H4.75C4.75 3.75736 5.75736 2.75 7 2.75V1.25ZM7 16.75H20V15.25H7V16.75ZM19.25 16V19H20.75V16H19.25ZM17 21.25H7V22.75H17V21.25ZM7 21.25C5.75736 21.25 4.75 20.2426 4.75 19H3.25C3.25 21.0711 4.92893 22.75 7 22.75V21.25ZM19.25 19C19.25 20.2426 18.2426 21.25 17 21.25V22.75C19.0711 22.75 20.75 21.0711 20.75 19H19.25ZM7 15.25C4.92893 15.25 3.25 16.9289 3.25 19H4.75C4.75 17.7574 5.75736 16.75 7 16.75V15.25Z" fill="#28303F"/>
<path d="M13 13C13 13.5523 12.5523 14 12 14C11.4477 14 11 13.5523 11 13C11 12.4477 11.4477 12 12 12C12.5523 12 13 12.4477 13 13Z" fill="#28303F"/>
</svg>
