<svg width="24" height="24" viewBox="0 0 24 24" fill="none" xmlns="http://www.w3.org/2000/svg">
<path d="M12.75 9C12.75 8.58579 12.4142 8.25 12 8.25C11.5858 8.25 11.25 8.58579 11.25 9H12.75ZM11.25 12C11.25 12.4142 11.5858 12.75 12 12.75C12.4142 12.75 12.75 12.4142 12.75 12H11.25ZM11.25 9V12H12.75V9H11.25ZM7 2.75H17V1.25H7V2.75ZM4.75 19V5H3.25V19H4.75ZM19.25 5V16H20.75V5H19.25ZM17 2.75C18.2426 2.75 19.25 3.75736 19.25 5H20.75C20.75 2.92893 19.0711 1.25 17 1.25V2.75ZM7 1.25C4.92893 1.25 3.25 2.92893 3.25 5H4.75C4.75 3.75736 5.75736 2.75 7 2.75V1.25ZM7 16.75H20V15.25H7V16.75ZM19.25 16V19H20.75V16H19.25ZM17 21.25H7V22.75H17V21.25ZM7 21.25C5.75736 21.25 4.75 20.2426 4.75 19H3.25C3.25 21.0711 4.92893 22.75 7 22.75V21.25ZM19.25 19C19.25 20.2426 18.2426 21.25 17 21.25V22.75C19.0711 22.75 20.75 21.0711 20.75 19H19.25ZM7 15.25C4.92893 15.25 3.25 16.9289 3.25 19H4.75C4.75 17.7574 5.75736 16.75 7 16.75V15.25Z" fill="#28303F"/>
<path d="M13 6C13 6.55228 12.5523 7 12 7C11.4477 7 11 6.55228 11 6C11 5.44772 11.4477 5 12 5C12.5523 5 13 5.44772 13 6Z" fill="#28303F"/>
</svg>
