<svg width="24" height="24" viewBox="0 0 24 24" fill="none" xmlns="http://www.w3.org/2000/svg">
<path d="M5.11478 7.51347C4.70545 7.45008 4.32223 7.73052 4.25884 8.13986C4.19544 8.54919 4.47588 8.93241 4.88522 8.9958L5.11478 7.51347ZM8.72949 9.98739C9.11583 10.1368 9.55012 9.94471 9.69952 9.55838C9.84892 9.17205 9.65684 8.73775 9.27051 8.58836L8.72949 9.98739ZM5.11478 11.5135C4.70545 11.4501 4.32223 11.7305 4.25884 12.1399C4.19544 12.5492 4.47588 12.9324 4.88522 12.9958L5.11478 11.5135ZM6.81653 13.3856C7.21815 13.4869 7.62588 13.2435 7.72721 12.8418C7.82854 12.4402 7.5851 12.0325 7.18347 11.9311L6.81653 13.3856ZM12.75 6.05337C12.75 5.63915 12.4142 5.30337 12 5.30337C11.5858 5.30337 11.25 5.63915 11.25 6.05337H12.75ZM11.25 20.3025C11.25 20.7167 11.5858 21.0525 12 21.0525C12.4142 21.0525 12.75 20.7167 12.75 20.3025H11.25ZM3.99433 3.01127L4.07854 2.26601L3.99433 3.01127ZM11.3168 5.42445L11.7472 4.81023V4.81023L11.3168 5.42445ZM3.99433 18.3723L4.07854 17.6271L3.99433 18.3723ZM11.3168 20.7855L11.7472 20.1713L11.3168 20.7855ZM20.0057 3.01127L19.9215 2.26601L20.0057 3.01127ZM12.6832 5.42445L12.2528 4.81023V4.81023L12.6832 5.42445ZM20.0057 18.3723L19.9215 17.6271L20.0057 18.3723ZM12.6832 20.7855L12.2528 20.1713L12.6832 20.7855ZM4.88522 8.9958C6.11399 9.1861 7.47085 9.50067 8.72949 9.98739L9.27051 8.58836C7.88471 8.05247 6.41756 7.71523 5.11478 7.51347L4.88522 8.9958ZM4.88522 12.9958C5.50446 13.0917 6.15813 13.2195 6.81653 13.3856L7.18347 11.9311C6.47447 11.7523 5.77452 11.6156 5.11478 11.5135L4.88522 12.9958ZM11.25 6.05337V20.3025H12.75V6.05337H11.25ZM3.91012 3.75653C6.08646 4.00245 8.91678 4.65848 10.8864 6.03866L11.7472 4.81023C9.46948 3.21416 6.33895 2.52144 4.07854 2.26601L3.91012 3.75653ZM3.91012 19.1176C6.08646 19.3635 8.91678 20.0195 10.8864 21.3997L11.7472 20.1713C9.46948 18.5752 6.33895 17.8825 4.07854 17.6271L3.91012 19.1176ZM1.25 4.93518V16.2H2.75V4.93518H1.25ZM4.07854 17.6271C3.32877 17.5423 2.75 16.919 2.75 16.2H1.25C1.25 17.7432 2.46408 18.9542 3.91012 19.1176L4.07854 17.6271ZM4.07854 2.26601C2.46654 2.08386 1.25 3.42929 1.25 4.93518H2.75C2.75 4.17876 3.32631 3.69056 3.91012 3.75653L4.07854 2.26601ZM19.9215 2.26601C17.6611 2.52144 14.5305 3.21416 12.2528 4.81023L13.1136 6.03866C15.0832 4.65848 17.9135 4.00245 20.0899 3.75653L19.9215 2.26601ZM19.9215 17.6271C17.6611 17.8825 14.5305 18.5752 12.2528 20.1713L13.1136 21.3997C15.0832 20.0195 17.9135 19.3635 20.0899 19.1176L19.9215 17.6271ZM21.25 4.93518V16.2H22.75V4.93518H21.25ZM20.0899 19.1176C21.5359 18.9542 22.75 17.7432 22.75 16.2H21.25C21.25 16.919 20.6712 17.5423 19.9215 17.6271L20.0899 19.1176ZM20.0899 3.75653C20.6737 3.69056 21.25 4.17876 21.25 4.93518H22.75C22.75 3.42929 21.5335 2.08386 19.9215 2.26601L20.0899 3.75653ZM10.8864 21.3997C11.553 21.8668 12.447 21.8668 13.1136 21.3997L12.2528 20.1713C12.103 20.2762 11.897 20.2762 11.7472 20.1713L10.8864 21.3997ZM10.8864 6.03866C11.553 6.50571 12.447 6.50571 13.1136 6.03866L12.2528 4.81023C12.103 4.91519 11.897 4.91519 11.7472 4.81023L10.8864 6.03866Z" fill="#28303F"/>
</svg>
