<svg width="24" height="24" viewBox="0 0 24 24" fill="none" xmlns="http://www.w3.org/2000/svg">
<path d="M17.5355 17.0806L17.0052 17.6109C17.1459 17.7516 17.3366 17.8306 17.5355 17.8306C17.7344 17.8306 17.9252 17.7516 18.0659 17.6109L17.5355 17.0806ZM17.7565 16.8596L17.2262 16.3293L17.2262 16.3293L17.7565 16.8596ZM17.3146 16.8596L16.7842 17.39H16.7842L17.3146 16.8596ZM15.1049 19.0693L14.5745 19.5997L15.1049 19.0693ZM16.6517 20.6161L17.182 20.0858L16.6517 20.6161ZM5.11478 7.51347C4.70545 7.45008 4.32223 7.73052 4.25884 8.13986C4.19544 8.54919 4.47588 8.93241 4.88522 8.9958L5.11478 7.51347ZM8.72949 9.98739C9.11583 10.1368 9.55012 9.94471 9.69952 9.55838C9.84892 9.17205 9.65684 8.73775 9.27051 8.58836L8.72949 9.98739ZM12.75 6.05337C12.75 5.63915 12.4142 5.30337 12 5.30337C11.5858 5.30337 11.25 5.63915 11.25 6.05337H12.75ZM12 21V21.75C12.4142 21.75 12.75 21.4142 12.75 21H12ZM3.99433 3.01127L4.07854 2.26601L3.99433 3.01127ZM11.3168 5.42445L11.7472 4.81023V4.81023L11.3168 5.42445ZM3.99433 18.3723L4.07854 17.6271L3.99433 18.3723ZM11.3168 20.7855L11.7472 20.1713H11.7472L11.3168 20.7855ZM20.0057 3.01127L19.9215 2.26601L20.0057 3.01127ZM12.6832 5.42445L12.2528 4.81023V4.81023L12.6832 5.42445ZM21.25 14C21.25 14.4142 21.5858 14.75 22 14.75C22.4142 14.75 22.75 14.4142 22.75 14H21.25ZM5.11478 11.5135C4.70545 11.4501 4.32223 11.7305 4.25884 12.1399C4.19544 12.5492 4.47588 12.9324 4.88522 12.9958L5.11478 11.5135ZM6.81653 13.3856C7.21815 13.4869 7.62588 13.2435 7.72721 12.8418C7.82854 12.4402 7.5851 12.0325 7.18347 11.9311L6.81653 13.3856ZM18.0659 17.6109L18.2868 17.39L17.2262 16.3293L17.0052 16.5503L18.0659 17.6109ZM16.7842 17.39L17.0052 17.6109L18.0659 16.5503L17.8449 16.3293L16.7842 17.39ZM14.5745 19.5997L16.1213 21.1465L17.182 20.0858L15.6352 18.539L14.5745 19.5997ZM18.9497 21.1465L20.4965 19.5997L19.4359 18.539L17.8891 20.0858L18.9497 21.1465ZM19.4359 17.39C19.7532 17.7073 19.7532 18.2217 19.4359 18.539L20.4965 19.5997C21.3996 18.6966 21.3996 17.2324 20.4965 16.3293L19.4359 17.39ZM20.4965 16.3293C19.5935 15.4262 18.1293 15.4262 17.2262 16.3293L18.2868 17.39C18.6041 17.0727 19.1186 17.0727 19.4359 17.39L20.4965 16.3293ZM15.6352 17.39C15.9525 17.0727 16.4669 17.0727 16.7842 17.39L17.8449 16.3293C16.9418 15.4262 15.4776 15.4262 14.5745 16.3293L15.6352 17.39ZM16.1213 21.1465C16.9024 21.9275 18.1687 21.9275 18.9497 21.1465L17.8891 20.0858C17.6938 20.2811 17.3772 20.2811 17.182 20.0858L16.1213 21.1465ZM14.5745 16.3293C13.6714 17.2324 13.6714 18.6966 14.5745 19.5997L15.6352 18.539C15.3179 18.2217 15.3179 17.7073 15.6352 17.39L14.5745 16.3293ZM4.88522 8.9958C6.11399 9.1861 7.47085 9.50067 8.72949 9.98739L9.27051 8.58836C7.88471 8.05247 6.41756 7.71523 5.11478 7.51347L4.88522 8.9958ZM11.25 6.05337V21H12.75V6.05337H11.25ZM3.91012 3.75653C6.08646 4.00245 8.91678 4.65848 10.8864 6.03866L11.7472 4.81023C9.46948 3.21416 6.33895 2.52144 4.07854 2.26601L3.91012 3.75653ZM3.91012 19.1176C6.08646 19.3635 8.91678 20.0195 10.8864 21.3997L11.7472 20.1713C9.46948 18.5752 6.33895 17.8825 4.07854 17.6271L3.91012 19.1176ZM1.25 4.93518V16.2H2.75V4.93518H1.25ZM4.07854 17.6271C3.32877 17.5423 2.75 16.919 2.75 16.2H1.25C1.25 17.7432 2.46408 18.9542 3.91012 19.1176L4.07854 17.6271ZM4.07854 2.26601C2.46654 2.08386 1.25 3.42929 1.25 4.93518H2.75C2.75 4.17876 3.32631 3.69056 3.91012 3.75653L4.07854 2.26601ZM19.9215 2.26601C17.6611 2.52144 14.5305 3.21416 12.2528 4.81023L13.1136 6.03866C15.0832 4.65848 17.9135 4.00245 20.0899 3.75653L19.9215 2.26601ZM21.25 4.93518V14H22.75V4.93518H21.25ZM20.0899 3.75653C20.6737 3.69056 21.25 4.17876 21.25 4.93518H22.75C22.75 3.42929 21.5335 2.08386 19.9215 2.26601L20.0899 3.75653ZM10.8864 6.03866C11.553 6.50571 12.447 6.50571 13.1136 6.03866L12.2528 4.81023C12.103 4.91519 11.897 4.91519 11.7472 4.81023L10.8864 6.03866ZM10.8864 21.3997C11.2209 21.6341 11.6118 21.75 12 21.75V20.25C11.9091 20.25 11.8209 20.2229 11.7472 20.1713L10.8864 21.3997ZM4.88522 12.9958C5.50446 13.0917 6.15813 13.2195 6.81653 13.3856L7.18347 11.9311C6.47447 11.7523 5.77452 11.6156 5.11478 11.5135L4.88522 12.9958Z" fill="#28303F"/>
</svg>
