<svg width="24" height="24" viewBox="0 0 24 24" fill="none" xmlns="http://www.w3.org/2000/svg">
<path d="M10.5303 9.46967C10.2374 9.17678 9.76256 9.17678 9.46967 9.46967C9.17678 9.76256 9.17678 10.2374 9.46967 10.5303L10.5303 9.46967ZM11.2929 11.2929L10.7626 11.8232L11.2929 11.2929ZM12.7071 11.2929L12.1768 10.7626L12.7071 11.2929ZM14.5303 10.5303C14.8232 10.2374 14.8232 9.76256 14.5303 9.46967C14.2374 9.17678 13.7626 9.17678 13.4697 9.46967L14.5303 10.5303ZM12.75 6C12.75 5.58579 12.4142 5.25 12 5.25C11.5858 5.25 11.25 5.58579 11.25 6H12.75ZM11.25 11C11.25 11.4142 11.5858 11.75 12 11.75C12.4142 11.75 12.75 11.4142 12.75 11H11.25ZM9.46967 10.5303L10.7626 11.8232L11.8232 10.7626L10.5303 9.46967L9.46967 10.5303ZM13.2374 11.8232L14.5303 10.5303L13.4697 9.46967L12.1768 10.7626L13.2374 11.8232ZM10.7626 11.8232C11.446 12.5066 12.554 12.5066 13.2374 11.8232L12.1768 10.7626C12.0791 10.8602 11.9209 10.8602 11.8232 10.7626L10.7626 11.8232ZM11.25 6V11H12.75V6H11.25ZM7 2.75H17V1.25H7V2.75ZM4.75 19V5H3.25V19H4.75ZM19.25 5V16H20.75V5H19.25ZM17 2.75C18.2426 2.75 19.25 3.75736 19.25 5H20.75C20.75 2.92893 19.0711 1.25 17 1.25V2.75ZM7 1.25C4.92893 1.25 3.25 2.92893 3.25 5H4.75C4.75 3.75736 5.75736 2.75 7 2.75V1.25ZM7 16.75H20V15.25H7V16.75ZM19.25 16V19H20.75V16H19.25ZM17 21.25H7V22.75H17V21.25ZM7 21.25C5.75736 21.25 4.75 20.2426 4.75 19H3.25C3.25 21.0711 4.92893 22.75 7 22.75V21.25ZM19.25 19C19.25 20.2426 18.2426 21.25 17 21.25V22.75C19.0711 22.75 20.75 21.0711 20.75 19H19.25ZM7 15.25C4.92893 15.25 3.25 16.9289 3.25 19H4.75C4.75 17.7574 5.75736 16.75 7 16.75V15.25Z" fill="#28303F"/>
</svg>
