<svg width="24" height="24" viewBox="0 0 24 24" fill="none" xmlns="http://www.w3.org/2000/svg">
<path d="M7.44721 16.2764L7.78262 16.9472L7.44721 16.2764ZM10.2111 13.1056L10.5466 12.4348L10.2111 13.1056ZM10.2111 14.8944L9.87574 14.2236L10.2111 14.8944ZM7.44721 11.7236L7.1118 12.3944L7.44721 11.7236ZM2 6.25C1.58579 6.25 1.25 6.58579 1.25 7C1.25 7.41421 1.58579 7.75 2 7.75V6.25ZM22 7.75C22.4142 7.75 22.75 7.41421 22.75 7C22.75 6.58579 22.4142 6.25 22 6.25V7.75ZM14 11.25C13.5858 11.25 13.25 11.5858 13.25 12C13.25 12.4142 13.5858 12.75 14 12.75V11.25ZM18 12.75C18.4142 12.75 18.75 12.4142 18.75 12C18.75 11.5858 18.4142 11.25 18 11.25V12.75ZM14 15.25C13.5858 15.25 13.25 15.5858 13.25 16C13.25 16.4142 13.5858 16.75 14 16.75V15.25ZM18 16.75C18.4142 16.75 18.75 16.4142 18.75 16C18.75 15.5858 18.4142 15.25 18 15.25V16.75ZM7.1118 12.3944L9.87574 13.7764L10.5466 12.4348L7.78262 11.0528L7.1118 12.3944ZM9.87574 14.2236L7.1118 15.6056L7.78262 16.9472L10.5466 15.5652L9.87574 14.2236ZM6.75 15.382V12.618H5.25V15.382H6.75ZM7.1118 15.6056C6.94558 15.6887 6.75 15.5678 6.75 15.382H5.25C5.25 16.6829 6.61904 17.529 7.78262 16.9472L7.1118 15.6056ZM9.87574 13.7764C10.06 13.8685 10.06 14.1315 9.87574 14.2236L10.5466 15.5652C11.8364 14.9203 11.8364 13.0797 10.5466 12.4348L9.87574 13.7764ZM7.78262 11.0528C6.61905 10.471 5.25 11.3171 5.25 12.618H6.75C6.75 12.4322 6.94558 12.3113 7.1118 12.3944L7.78262 11.0528ZM6 2.75H18V1.25H6V2.75ZM21.25 6V18H22.75V6H21.25ZM18 21.25H6V22.75H18V21.25ZM2.75 18V6H1.25V18H2.75ZM6 21.25C4.20507 21.25 2.75 19.7949 2.75 18H1.25C1.25 20.6234 3.37665 22.75 6 22.75V21.25ZM21.25 18C21.25 19.7949 19.7949 21.25 18 21.25V22.75C20.6234 22.75 22.75 20.6234 22.75 18H21.25ZM18 2.75C19.7949 2.75 21.25 4.20507 21.25 6H22.75C22.75 3.37665 20.6234 1.25 18 1.25V2.75ZM6 1.25C3.37665 1.25 1.25 3.37665 1.25 6H2.75C2.75 4.20507 4.20507 2.75 6 2.75V1.25ZM2 7.75H22V6.25H2V7.75ZM14 12.75H18V11.25H14V12.75ZM14 16.75H18V15.25H14V16.75Z" fill="#28303F"/>
</svg>
