<svg width="24" height="24" viewBox="0 0 24 24" fill="none" xmlns="http://www.w3.org/2000/svg">
<path d="M1.25 8C1.25 8.41421 1.58579 8.75 2 8.75C2.41421 8.75 2.75 8.41421 2.75 8H1.25ZM21.25 8C21.25 8.41421 21.5858 8.75 22 8.75C22.4142 8.75 22.75 8.41421 22.75 8H21.25ZM12.75 5C12.75 4.58579 12.4142 4.25 12 4.25C11.5858 4.25 11.25 4.58579 11.25 5H12.75ZM11.25 12C11.25 12.4142 11.5858 12.75 12 12.75C12.4142 12.75 12.75 12.4142 12.75 12H11.25ZM8 2.75H16V1.25H8V2.75ZM18.25 5V12H19.75V5H18.25ZM19 11.25H5V12.75H19V11.25ZM5.75 12V5H4.25V12H5.75ZM16 2.75C17.2426 2.75 18.25 3.75736 18.25 5H19.75C19.75 2.92893 18.0711 1.25 16 1.25V2.75ZM8 1.25C5.92893 1.25 4.25 2.92893 4.25 5H5.75C5.75 3.75736 6.75736 2.75 8 2.75V1.25ZM20.25 14V16H21.75V14H20.25ZM19 17.25H5V18.75H19V17.25ZM3.75 16V14H2.25V16H3.75ZM5 17.25C4.30964 17.25 3.75 16.6904 3.75 16H2.25C2.25 17.5188 3.48122 18.75 5 18.75V17.25ZM20.25 16C20.25 16.6904 19.6904 17.25 19 17.25V18.75C20.5188 18.75 21.75 17.5188 21.75 16H20.25ZM19 12.75C19.6904 12.75 20.25 13.3096 20.25 14H21.75C21.75 12.4812 20.5188 11.25 19 11.25V12.75ZM5 11.25C3.48122 11.25 2.25 12.4812 2.25 14H3.75C3.75 13.3096 4.30964 12.75 5 12.75V11.25ZM7 18.75H9V17.25H7V18.75ZM9.25 19V21H10.75V19H9.25ZM9 21.25H7V22.75H9V21.25ZM6.75 21V19H5.25V21H6.75ZM7 21.25C6.86193 21.25 6.75 21.1381 6.75 21H5.25C5.25 21.9665 6.0335 22.75 7 22.75V21.25ZM9.25 21C9.25 21.1381 9.13807 21.25 9 21.25V22.75C9.9665 22.75 10.75 21.9665 10.75 21H9.25ZM9 18.75C9.13807 18.75 9.25 18.8619 9.25 19H10.75C10.75 18.0335 9.9665 17.25 9 17.25V18.75ZM7 17.25C6.0335 17.25 5.25 18.0335 5.25 19H6.75C6.75 18.8619 6.86193 18.75 7 18.75V17.25ZM15 18.75H17V17.25H15V18.75ZM17.25 19V21H18.75V19H17.25ZM17 21.25H15V22.75H17V21.25ZM14.75 21V19H13.25V21H14.75ZM15 21.25C14.8619 21.25 14.75 21.1381 14.75 21H13.25C13.25 21.9665 14.0335 22.75 15 22.75V21.25ZM17.25 21C17.25 21.1381 17.1381 21.25 17 21.25V22.75C17.9665 22.75 18.75 21.9665 18.75 21H17.25ZM17 18.75C17.1381 18.75 17.25 18.8619 17.25 19H18.75C18.75 18.0335 17.9665 17.25 17 17.25V18.75ZM15 17.25C14.0335 17.25 13.25 18.0335 13.25 19H14.75C14.75 18.8619 14.8619 18.75 15 18.75V17.25ZM2.75 8V7H1.25V8H2.75ZM4 5.75H5V4.25H4V5.75ZM2.75 7C2.75 6.30964 3.30964 5.75 4 5.75V4.25C2.48122 4.25 1.25 5.48122 1.25 7H2.75ZM22.75 8V7H21.25V8H22.75ZM20 4.25H19V5.75H20V4.25ZM22.75 7C22.75 5.48122 21.5188 4.25 20 4.25V5.75C20.6904 5.75 21.25 6.30964 21.25 7H22.75ZM11.25 5V12H12.75V5H11.25ZM19 4.25H5V5.75H19V4.25Z" fill="#28303F"/>
</svg>
