<svg width="24" height="24" viewBox="0 0 24 24" fill="none" xmlns="http://www.w3.org/2000/svg">
<path d="M22 8.75C22.4142 8.75 22.75 8.41421 22.75 8C22.75 7.58579 22.4142 7.25 22 7.25V8.75ZM2 7.25C1.58579 7.25 1.25 7.58579 1.25 8C1.25 8.41421 1.58579 8.75 2 8.75V7.25ZM14.75 22C14.75 22.4142 15.0858 22.75 15.5 22.75C15.9142 22.75 16.25 22.4142 16.25 22H14.75ZM16.25 8C16.25 7.58579 15.9142 7.25 15.5 7.25C15.0858 7.25 14.75 7.58579 14.75 8H16.25ZM7.75 22C7.75 22.4142 8.08579 22.75 8.5 22.75C8.91421 22.75 9.25 22.4142 9.25 22H7.75ZM9.25 8C9.25 7.58579 8.91421 7.25 8.5 7.25C8.08579 7.25 7.75 7.58579 7.75 8H9.25ZM15.5 15.75C15.9142 15.75 16.25 15.4142 16.25 15C16.25 14.5858 15.9142 14.25 15.5 14.25V15.75ZM2 14.25C1.58579 14.25 1.25 14.5858 1.25 15C1.25 15.4142 1.58579 15.75 2 15.75V14.25ZM6 2.75H18V1.25H6V2.75ZM21.25 6V18H22.75V6H21.25ZM18 21.25H6V22.75H18V21.25ZM2.75 18V6H1.25V18H2.75ZM6 21.25C4.20507 21.25 2.75 19.7949 2.75 18H1.25C1.25 20.6234 3.37665 22.75 6 22.75V21.25ZM21.25 18C21.25 19.7949 19.7949 21.25 18 21.25V22.75C20.6234 22.75 22.75 20.6234 22.75 18H21.25ZM18 2.75C19.7949 2.75 21.25 4.20507 21.25 6H22.75C22.75 3.37665 20.6234 1.25 18 1.25V2.75ZM6 1.25C3.37665 1.25 1.25 3.37665 1.25 6H2.75C2.75 4.20507 4.20507 2.75 6 2.75V1.25ZM22 7.25H2V8.75H22V7.25ZM16.25 22L16.25 8H14.75L14.75 22H16.25ZM9.25 22L9.25 8H7.75L7.75 22H9.25ZM15.5 14.25H2V15.75H15.5V14.25Z" fill="#28303F"/>
</svg>
