<svg width="24" height="24" viewBox="0 0 24 24" fill="none" xmlns="http://www.w3.org/2000/svg">
<path d="M12.75 2C12.75 1.58579 12.4142 1.25 12 1.25C11.5858 1.25 11.25 1.58579 11.25 2H12.75ZM11.25 22C11.25 22.4142 11.5858 22.75 12 22.75C12.4142 22.75 12.75 22.4142 12.75 22H11.25ZM22 12.75C22.4142 12.75 22.75 12.4142 22.75 12C22.75 11.5858 22.4142 11.25 22 11.25V12.75ZM2 11.25C1.58579 11.25 1.25 11.5858 1.25 12C1.25 12.4142 1.58579 12.75 2 12.75L2 11.25ZM19 16.25C19.4142 16.25 19.75 15.9142 19.75 15.5C19.75 15.0858 19.4142 14.75 19 14.75V16.25ZM15 14.75C14.5858 14.75 14.25 15.0858 14.25 15.5C14.25 15.9142 14.5858 16.25 15 16.25V14.75ZM19 19.25C19.4142 19.25 19.75 18.9142 19.75 18.5C19.75 18.0858 19.4142 17.75 19 17.75V19.25ZM15 17.75C14.5858 17.75 14.25 18.0858 14.25 18.5C14.25 18.9142 14.5858 19.25 15 19.25V17.75ZM6 2.75H18V1.25H6V2.75ZM21.25 6V18H22.75V6H21.25ZM18 21.25H6V22.75H18V21.25ZM2.75 18V6H1.25V18H2.75ZM6 21.25C4.20507 21.25 2.75 19.7949 2.75 18H1.25C1.25 20.6234 3.37665 22.75 6 22.75V21.25ZM21.25 18C21.25 19.7949 19.7949 21.25 18 21.25V22.75C20.6234 22.75 22.75 20.6234 22.75 18H21.25ZM18 2.75C19.7949 2.75 21.25 4.20507 21.25 6H22.75C22.75 3.37665 20.6234 1.25 18 1.25V2.75ZM6 1.25C3.37665 1.25 1.25 3.37665 1.25 6H2.75C2.75 4.20507 4.20507 2.75 6 2.75V1.25ZM11.25 2V22H12.75V2H11.25ZM22 11.25L2 11.25L2 12.75L22 12.75V11.25ZM19 14.75H15V16.25H19V14.75ZM19 17.75H15V19.25H19V17.75Z" fill="#28303F"/>
</svg>
