<svg width="24" height="24" viewBox="0 0 24 24" fill="none" xmlns="http://www.w3.org/2000/svg">
<path d="M11.25 4C11.25 4.41421 11.5858 4.75 12 4.75C12.4142 4.75 12.75 4.41421 12.75 4H11.25ZM12.75 2C12.75 1.58579 12.4142 1.25 12 1.25C11.5858 1.25 11.25 1.58579 11.25 2H12.75ZM11.25 21C11.25 21.4142 11.5858 21.75 12 21.75C12.4142 21.75 12.75 21.4142 12.75 21H11.25ZM12.75 18C12.75 17.5858 12.4142 17.25 12 17.25C11.5858 17.25 11.25 17.5858 11.25 18H12.75ZM5.32918 21.6646C5.14394 22.0351 5.29411 22.4856 5.66459 22.6708C6.03507 22.8561 6.48558 22.7059 6.67082 22.3354L5.32918 21.6646ZM8.67082 18.3354C8.85606 17.9649 8.70589 17.5144 8.33541 17.3292C7.96493 17.1439 7.51442 17.2941 7.32918 17.6646L8.67082 18.3354ZM17.3292 22.3354C17.5144 22.7059 17.9649 22.8561 18.3354 22.6708C18.7059 22.4856 18.8561 22.0351 18.6708 21.6646L17.3292 22.3354ZM16.6708 17.6646C16.4856 17.2941 16.0351 17.1439 15.6646 17.3292C15.2941 17.5144 15.1439 17.9649 15.3292 18.3354L16.6708 17.6646ZM7 4.75H17V3.25H7V4.75ZM19.25 7V15H20.75V7H19.25ZM17 17.25H7V18.75H17V17.25ZM4.75 15V7H3.25V15H4.75ZM7 17.25C5.75736 17.25 4.75 16.2426 4.75 15H3.25C3.25 17.0711 4.92893 18.75 7 18.75V17.25ZM19.25 15C19.25 16.2426 18.2426 17.25 17 17.25V18.75C19.0711 18.75 20.75 17.0711 20.75 15H19.25ZM17 4.75C18.2426 4.75 19.25 5.75736 19.25 7H20.75C20.75 4.92893 19.0711 3.25 17 3.25V4.75ZM7 3.25C4.92893 3.25 3.25 4.92893 3.25 7H4.75C4.75 5.75736 5.75736 4.75 7 4.75V3.25ZM12.75 4V2H11.25V4H12.75ZM12.75 21V18H11.25V21H12.75ZM6.67082 22.3354L8.67082 18.3354L7.32918 17.6646L5.32918 21.6646L6.67082 22.3354ZM18.6708 21.6646L16.6708 17.6646L15.3292 18.3354L17.3292 22.3354L18.6708 21.6646Z" fill="#28303F"/>
</svg>
