<svg width="24" height="24" viewBox="0 0 24 24" fill="none" xmlns="http://www.w3.org/2000/svg">
<path d="M22 11L22 13" stroke="#28303F" stroke-width="1.5" stroke-linecap="round"/>
<path d="M2 11L2 13" stroke="#28303F" stroke-width="1.5" stroke-linecap="round"/>
<path d="M12.75 2C12.75 1.58579 12.4142 1.25 12 1.25C11.5858 1.25 11.25 1.58579 11.25 2H12.75ZM11.25 22C11.25 22.4142 11.5858 22.75 12 22.75C12.4142 22.75 12.75 22.4142 12.75 22H11.25ZM22 12.75C22.4142 12.75 22.75 12.4142 22.75 12C22.75 11.5858 22.4142 11.25 22 11.25V12.75ZM2 11.25C1.58579 11.25 1.25 11.5858 1.25 12C1.25 12.4142 1.58579 12.75 2 12.75L2 11.25ZM11 21.25C10.5858 21.25 10.25 21.5858 10.25 22C10.25 22.4142 10.5858 22.75 11 22.75V21.25ZM13 22.75C13.4142 22.75 13.75 22.4142 13.75 22C13.75 21.5858 13.4142 21.25 13 21.25V22.75ZM11 1.25C10.5858 1.25 10.25 1.58579 10.25 2C10.25 2.41421 10.5858 2.75 11 2.75V1.25ZM13 2.75C13.4142 2.75 13.75 2.41421 13.75 2C13.75 1.58579 13.4142 1.25 13 1.25V2.75ZM11 6.75C10.5858 6.75 10.25 7.08579 10.25 7.5C10.25 7.91421 10.5858 8.25 11 8.25V6.75ZM13 8.25C13.4142 8.25 13.75 7.91421 13.75 7.5C13.75 7.08579 13.4142 6.75 13 6.75V8.25ZM11 15.75C10.5858 15.75 10.25 16.0858 10.25 16.5C10.25 16.9142 10.5858 17.25 11 17.25V15.75ZM13 17.25C13.4142 17.25 13.75 16.9142 13.75 16.5C13.75 16.0858 13.4142 15.75 13 15.75V17.25ZM17.25 11C17.25 10.5858 16.9142 10.25 16.5 10.25C16.0858 10.25 15.75 10.5858 15.75 11H17.25ZM15.75 13C15.75 13.4142 16.0858 13.75 16.5 13.75C16.9142 13.75 17.25 13.4142 17.25 13H15.75ZM8.25 11C8.25 10.5858 7.91421 10.25 7.5 10.25C7.08579 10.25 6.75 10.5858 6.75 11H8.25ZM6.75 13C6.75 13.4142 7.08579 13.75 7.5 13.75C7.91421 13.75 8.25 13.4142 8.25 13H6.75ZM6.53033 1.46967C6.23744 1.17678 5.76256 1.17678 5.46967 1.46967C5.17678 1.76256 5.17678 2.23744 5.46967 2.53033L6.53033 1.46967ZM8.53033 2.53033C8.82322 2.23744 8.82322 1.76256 8.53033 1.46967C8.23744 1.17678 7.76256 1.17678 7.46967 1.46967L8.53033 2.53033ZM6.25 4C6.25 4.41421 6.58579 4.75 7 4.75C7.41421 4.75 7.75 4.41421 7.75 4H6.25ZM20.5303 15.4697C20.2374 15.1768 19.7626 15.1768 19.4697 15.4697C19.1768 15.7626 19.1768 16.2374 19.4697 16.5303L20.5303 15.4697ZM22.5303 16.5303C22.8232 16.2374 22.8232 15.7626 22.5303 15.4697C22.2374 15.1768 21.7626 15.1768 21.4697 15.4697L22.5303 16.5303ZM19.4697 17.4697C19.1768 17.7626 19.1768 18.2374 19.4697 18.5303C19.7626 18.8232 20.2374 18.8232 20.5303 18.5303L19.4697 17.4697ZM21.4697 18.5303C21.7626 18.8232 22.2374 18.8232 22.5303 18.5303C22.8232 18.2374 22.8232 17.7626 22.5303 17.4697L21.4697 18.5303ZM11.25 2V22H12.75V2H11.25ZM22 11.25L2 11.25L2 12.75L22 12.75V11.25ZM11 22.75H13V21.25H11V22.75ZM11 2.75H13V1.25H11V2.75ZM11 8.25H13V6.75H11V8.25ZM11 17.25H13V15.75H11V17.25ZM15.75 11V13H17.25V11H15.75ZM6.75 11V13H8.25V11H6.75ZM5.46967 2.53033L6.46967 3.53033L7.53033 2.46967L6.53033 1.46967L5.46967 2.53033ZM7.53033 3.53033L8.53033 2.53033L7.46967 1.46967L6.46967 2.46967L7.53033 3.53033ZM6.25 3V4H7.75V3H6.25ZM19.4697 16.5303L20.4697 17.5303L21.5303 16.4697L20.5303 15.4697L19.4697 16.5303ZM21.5303 17.5303L22.5303 16.5303L21.4697 15.4697L20.4697 16.4697L21.5303 17.5303ZM20.4697 16.4697L19.4697 17.4697L20.5303 18.5303L21.5303 17.5303L20.4697 16.4697ZM20.4697 17.5303L21.4697 18.5303L22.5303 17.4697L21.5303 16.4697L20.4697 17.5303Z" fill="#28303F"/>
</svg>
