<svg width="24" height="24" viewBox="0 0 24 24" fill="none" xmlns="http://www.w3.org/2000/svg">
<path d="M3 14.25C2.58579 14.25 2.25 14.5858 2.25 15C2.25 15.4142 2.58579 15.75 3 15.75V14.25ZM21 15.75C21.4142 15.75 21.75 15.4142 21.75 15C21.75 14.5858 21.4142 14.25 21 14.25V15.75ZM20.8253 22L20.5374 22.6925C20.7538 22.7825 20.9998 22.7661 21.2024 22.6483C21.405 22.5305 21.5408 22.3247 21.5696 22.0921L20.8253 22ZM17.7461 19.841L18.3911 19.4584L17.7461 19.841ZM19.7113 21.5369L19.9992 20.8444L19.7113 21.5369ZM20.4436 18.3254L19.7986 18.7081L20.4436 18.3254ZM20.9702 20.8297L21.7145 20.9218L20.9702 20.8297ZM3.17471 22L2.4304 22.0921C2.45919 22.3247 2.59504 22.5305 2.79762 22.6483C3.00019 22.7661 3.2462 22.7825 3.4626 22.6925L3.17471 22ZM3.55641 18.3254L2.91139 17.9428L3.55641 18.3254ZM3.02982 20.8297L3.77414 20.7375L3.02982 20.8297ZM6.25391 19.841L5.60889 19.4584L6.25391 19.841ZM4.28866 21.5369L4.00077 20.8444H4.00077L4.28866 21.5369ZM12.7501 2.00001C12.7501 1.5858 12.4143 1.25001 12.0001 1.25C11.5859 1.24999 11.2501 1.58578 11.2501 1.99999L12.7501 2.00001ZM3 15.75H21V14.25H3V15.75ZM20.2259 20.7375L20.081 21.9079L21.5696 22.0921L21.7145 20.9218L20.2259 20.7375ZM21.1132 21.3075L19.9992 20.8444L19.4235 22.2295L20.5374 22.6925L21.1132 21.3075ZM17.1011 20.2237C17.6343 21.1226 18.4504 21.825 19.4235 22.2295L19.9992 20.8444C19.3196 20.5619 18.7565 20.0742 18.3911 19.4584L17.1011 20.2237ZM19.7986 18.7081C20.1637 19.3236 20.3128 20.0354 20.2259 20.7375L21.7145 20.9218C21.8425 19.8875 21.6221 18.842 21.0886 17.9428L19.7986 18.7081ZM4.00077 20.8444L2.88683 21.3075L3.4626 22.6925L4.57654 22.2295L4.00077 20.8444ZM3.91903 21.9079L3.77414 20.7375L2.28551 20.9218L2.4304 22.0921L3.91903 21.9079ZM2.91139 17.9428C2.37791 18.842 2.15746 19.8875 2.28551 20.9218L3.77414 20.7375C3.68721 20.0354 3.83632 19.3236 4.20144 18.7081L2.91139 17.9428ZM5.60889 19.4584C5.24355 20.0742 4.68042 20.5619 4.00077 20.8444L4.57654 22.2295C5.54963 21.825 6.36568 21.1226 6.89894 20.2237L5.60889 19.4584ZM9.63523 7.05198C9.63523 5.81122 10.6746 4.77079 12 4.77079V3.27079C9.88493 3.27079 8.13523 4.94458 8.13523 7.05198H9.63523ZM12 4.77079C13.3255 4.77079 14.3648 5.81122 14.3648 7.05198H15.8648C15.8648 4.94458 14.1151 3.27079 12 3.27079V4.77079ZM14.3648 7.05198C14.3648 7.47586 14.2457 7.87156 14.0369 8.21174L15.3153 8.99636C15.6638 8.42855 15.8648 7.76257 15.8648 7.05198H14.3648ZM14.0311 8.98673L19.7986 18.7081L21.0886 17.9428L15.3211 8.22137L14.0311 8.98673ZM9.96315 8.21169C9.75439 7.87153 9.63523 7.47584 9.63523 7.05198H8.13523C8.13523 7.76254 8.33625 8.42849 8.68471 8.99629L9.96315 8.21169ZM4.20144 18.7081L9.96896 8.98667L8.67891 8.22131L2.91139 17.9428L4.20144 18.7081ZM14.0369 8.21174C13.6325 8.87059 12.8914 9.3216 12.0333 9.33294L12.0531 10.8328C13.4337 10.8146 14.6461 10.0868 15.3153 8.99636L14.0369 8.21174ZM12.0333 9.33294C12.0222 9.33309 12.0112 9.33316 12 9.33316V10.8332C12.0178 10.8332 12.0354 10.833 12.0531 10.8328L12.0333 9.33294ZM11.3982 9.7002L5.60889 19.4584L6.89894 20.2237L12.6882 10.4656L11.3982 9.7002ZM12 9.33316C11.9889 9.33316 11.9778 9.33309 11.9667 9.33294L11.9469 10.8328C11.9646 10.833 11.9823 10.8332 12 10.8332V9.33316ZM11.9667 9.33294C11.1086 9.32158 10.3675 8.87055 9.96315 8.21169L8.68471 8.99629C9.35393 10.0867 10.5663 10.8145 11.9469 10.8328L11.9667 9.33294ZM18.3911 19.4584L12.6018 9.7002L11.3118 10.4656L17.1011 20.2237L18.3911 19.4584ZM12.75 4.0208L12.7501 2.00001L11.2501 1.99999L11.25 4.02078L12.75 4.0208Z" fill="#28303F"/>
</svg>
