<svg width="24" height="24" viewBox="0 0 24 24" fill="none" xmlns="http://www.w3.org/2000/svg">
<path d="M12 5H12.75C12.75 4.74007 12.6154 4.49867 12.3943 4.36201C12.1732 4.22536 11.8971 4.21293 11.6646 4.32918L12 5ZM11.25 9C11.25 9.41421 11.5858 9.75 12 9.75C12.4142 9.75 12.75 9.41421 12.75 9H11.25ZM10.6646 4.82918C10.2941 5.01442 10.1439 5.46493 10.3292 5.83541C10.5144 6.20589 10.9649 6.35606 11.3354 6.17082L10.6646 4.82918ZM11 8.25C10.5858 8.25 10.25 8.58579 10.25 9C10.25 9.41421 10.5858 9.75 11 9.75V8.25ZM13 9.75C13.4142 9.75 13.75 9.41421 13.75 9C13.75 8.58579 13.4142 8.25 13 8.25V9.75ZM4 12.75H10V11.25H4V12.75ZM11.25 14V20H12.75V14H11.25ZM10 21.25H4V22.75H10V21.25ZM2.75 20V14H1.25V20H2.75ZM4 21.25C3.30964 21.25 2.75 20.6904 2.75 20H1.25C1.25 21.5188 2.48122 22.75 4 22.75V21.25ZM11.25 20C11.25 20.6904 10.6904 21.25 10 21.25V22.75C11.5188 22.75 12.75 21.5188 12.75 20H11.25ZM10 12.75C10.6904 12.75 11.25 13.3096 11.25 14H12.75C12.75 12.4812 11.5188 11.25 10 11.25V12.75ZM4 11.25C2.48122 11.25 1.25 12.4812 1.25 14H2.75C2.75 13.3096 3.30964 12.75 4 12.75V11.25ZM14 12.75H20V11.25H14V12.75ZM21.25 14V20H22.75V14H21.25ZM20 21.25H14V22.75H20V21.25ZM14 21.25C13.3096 21.25 12.75 20.6904 12.75 20H11.25C11.25 21.5188 12.4812 22.75 14 22.75V21.25ZM21.25 20C21.25 20.6904 20.6904 21.25 20 21.25V22.75C21.5188 22.75 22.75 21.5188 22.75 20H21.25ZM20 12.75C20.6904 12.75 21.25 13.3096 21.25 14H22.75C22.75 12.4812 21.5188 11.25 20 11.25V12.75ZM14 11.25C12.4812 11.25 11.25 12.4812 11.25 14H12.75C12.75 13.3096 13.3096 12.75 14 12.75V11.25ZM9 2.75H15V1.25H9V2.75ZM16.25 4V10H17.75V4H16.25ZM15 11.25H9V12.75H15V11.25ZM7.75 10V4H6.25V10H7.75ZM9 11.25C8.30964 11.25 7.75 10.6904 7.75 10H6.25C6.25 11.5188 7.48122 12.75 9 12.75V11.25ZM16.25 10C16.25 10.6904 15.6904 11.25 15 11.25V12.75C16.5188 12.75 17.75 11.5188 17.75 10H16.25ZM15 2.75C15.6904 2.75 16.25 3.30964 16.25 4H17.75C17.75 2.48122 16.5188 1.25 15 1.25V2.75ZM9 1.25C7.48122 1.25 6.25 2.48122 6.25 4H7.75C7.75 3.30964 8.30964 2.75 9 2.75V1.25ZM11.25 5V9H12.75V5H11.25ZM11.6646 4.32918L10.6646 4.82918L11.3354 6.17082L12.3354 5.67082L11.6646 4.32918ZM11 9.75H13V8.25H11V9.75Z" fill="#28303F"/>
</svg>
