<svg width="24" height="24" viewBox="0 0 24 24" fill="none" xmlns="http://www.w3.org/2000/svg">
<path d="M3 8V7.25C2.58579 7.25 2.25 7.58579 2.25 8H3ZM21 8H21.75C21.75 7.58579 21.4142 7.25 21 7.25V8ZM17 8V8.75C17.4142 8.75 17.75 8.41421 17.75 8H17ZM7 8H6.25C6.25 8.41421 6.58579 8.75 7 8.75V8ZM4.75 18C4.75 17.5858 4.41421 17.25 4 17.25C3.58579 17.25 3.25 17.5858 3.25 18H4.75ZM3.25 22C3.25 22.4142 3.58579 22.75 4 22.75C4.41421 22.75 4.75 22.4142 4.75 22H3.25ZM7.75 18C7.75 17.5858 7.41421 17.25 7 17.25C6.58579 17.25 6.25 17.5858 6.25 18H7.75ZM6.25 20C6.25 20.4142 6.58579 20.75 7 20.75C7.41421 20.75 7.75 20.4142 7.75 20H6.25ZM17.75 18C17.75 17.5858 17.4142 17.25 17 17.25C16.5858 17.25 16.25 17.5858 16.25 18H17.75ZM16.25 20C16.25 20.4142 16.5858 20.75 17 20.75C17.4142 20.75 17.75 20.4142 17.75 20H16.25ZM20.75 18C20.75 17.5858 20.4142 17.25 20 17.25C19.5858 17.25 19.25 17.5858 19.25 18H20.75ZM19.25 22C19.25 22.4142 19.5858 22.75 20 22.75C20.4142 22.75 20.75 22.4142 20.75 22H19.25ZM22 8.75C22.4142 8.75 22.75 8.41421 22.75 8C22.75 7.58579 22.4142 7.25 22 7.25V8.75ZM2 7.25C1.58579 7.25 1.25 7.58579 1.25 8C1.25 8.41421 1.58579 8.75 2 8.75V7.25ZM3 8.75H21V7.25H3V8.75ZM20.25 8V16H21.75V8H20.25ZM19 17.25H5V18.75H19V17.25ZM3.75 16V8H2.25V16H3.75ZM5 17.25C4.30964 17.25 3.75 16.6904 3.75 16H2.25C2.25 17.5188 3.48122 18.75 5 18.75V17.25ZM20.25 16C20.25 16.6904 19.6904 17.25 19 17.25V18.75C20.5188 18.75 21.75 17.5188 21.75 16H20.25ZM9 2.75H15V1.25H9V2.75ZM16.25 4V8H17.75V4H16.25ZM17 7.25H7V8.75H17V7.25ZM7.75 8V4H6.25V8H7.75ZM15 2.75C15.6904 2.75 16.25 3.30964 16.25 4H17.75C17.75 2.48122 16.5188 1.25 15 1.25V2.75ZM9 1.25C7.48122 1.25 6.25 2.48122 6.25 4H7.75C7.75 3.30964 8.30964 2.75 9 2.75V1.25ZM3.25 18V22H4.75V18H3.25ZM6.25 18V20H7.75V18H6.25ZM16.25 18V20H17.75V18H16.25ZM19.25 18V22H20.75V18H19.25ZM22 7.25H2V8.75H22V7.25Z" fill="#28303F"/>
</svg>
