<svg width="24" height="24" viewBox="0 0 24 24" fill="none" xmlns="http://www.w3.org/2000/svg">
<path d="M22 5H21.25H22ZM22 15H22.75H22ZM2 15H2.75H2ZM2 5H1.25H2ZM20 3V2.25V3ZM20 17V16.25V17ZM19.5 16.25C19.0858 16.25 18.75 16.5858 18.75 17C18.75 17.4142 19.0858 17.75 19.5 17.75V16.25ZM9.5 17.75C9.91421 17.75 10.25 17.4142 10.25 17C10.25 16.5858 9.91421 16.25 9.5 16.25V17.75ZM4 17V17.75V17ZM6 6.25C5.58579 6.25 5.25 6.58579 5.25 7C5.25 7.41421 5.58579 7.75 6 7.75V6.25ZM18 7.75C18.4142 7.75 18.75 7.41421 18.75 7C18.75 6.58579 18.4142 6.25 18 6.25V7.75ZM6 10.25C5.58579 10.25 5.25 10.5858 5.25 11C5.25 11.4142 5.58579 11.75 6 11.75V10.25ZM10 11.75C10.4142 11.75 10.75 11.4142 10.75 11C10.75 10.5858 10.4142 10.25 10 10.25V11.75ZM13.75 17.5C13.75 17.0858 13.4142 16.75 13 16.75C12.5858 16.75 12.25 17.0858 12.25 17.5H13.75ZM13 21H12.25C12.25 21.2599 12.3846 21.5013 12.6057 21.638C12.8268 21.7746 13.1029 21.7871 13.3354 21.6708L13 21ZM15 20L15.3354 19.3292C15.1243 19.2236 14.8757 19.2236 14.6646 19.3292L15 20ZM17 21L16.6646 21.6708C16.8971 21.7871 17.1732 21.7746 17.3943 21.638C17.6154 21.5013 17.75 21.2599 17.75 21H17ZM17.75 17.5C17.75 17.0858 17.4142 16.75 17 16.75C16.5858 16.75 16.25 17.0858 16.25 17.5H17.75ZM21.25 5V15H22.75V5H21.25ZM2.75 15L2.75 5H1.25L1.25 15H2.75ZM4 3.75L20 3.75V2.25L4 2.25V3.75ZM20 16.25H19.5V17.75H20V16.25ZM9.5 16.25H4V17.75H9.5V16.25ZM2.75 5C2.75 4.30964 3.30964 3.75 4 3.75V2.25C2.48122 2.25 1.25 3.48122 1.25 5H2.75ZM1.25 15C1.25 16.5188 2.48122 17.75 4 17.75V16.25C3.30964 16.25 2.75 15.6904 2.75 15H1.25ZM21.25 15C21.25 15.6904 20.6904 16.25 20 16.25V17.75C21.5188 17.75 22.75 16.5188 22.75 15H21.25ZM22.75 5C22.75 3.48122 21.5188 2.25 20 2.25V3.75C20.6904 3.75 21.25 4.30964 21.25 5H22.75ZM17.25 15C17.25 16.2426 16.2426 17.25 15 17.25V18.75C17.0711 18.75 18.75 17.0711 18.75 15H17.25ZM15 17.25C13.7574 17.25 12.75 16.2426 12.75 15H11.25C11.25 17.0711 12.9289 18.75 15 18.75V17.25ZM12.75 15C12.75 13.7574 13.7574 12.75 15 12.75V11.25C12.9289 11.25 11.25 12.9289 11.25 15H12.75ZM15 12.75C16.2426 12.75 17.25 13.7574 17.25 15H18.75C18.75 12.9289 17.0711 11.25 15 11.25V12.75ZM6 7.75H18V6.25H6V7.75ZM6 11.75H10V10.25H6V11.75ZM12.25 17.5V21H13.75V17.5H12.25ZM13.3354 21.6708L15.3354 20.6708L14.6646 19.3292L12.6646 20.3292L13.3354 21.6708ZM14.6646 20.6708L16.6646 21.6708L17.3354 20.3292L15.3354 19.3292L14.6646 20.6708ZM17.75 21V17.5H16.25V21H17.75Z" fill="#28303F"/>
</svg>
