<svg width="24" height="24" viewBox="0 0 24 24" fill="none" xmlns="http://www.w3.org/2000/svg">
<path d="M17.6245 16.8157C17.2659 17.0231 17.1434 17.4819 17.3508 17.8404C17.5582 18.199 18.017 18.3215 18.3755 18.1141L17.6245 16.8157ZM5.62445 18.1141C5.983 18.3215 6.4418 18.199 6.6492 17.8404C6.85661 17.4819 6.73409 17.0231 6.37554 16.8157L5.62445 18.1141ZM8 5.25C7.58579 5.25 7.25 5.58579 7.25 6C7.25 6.41421 7.58579 6.75 8 6.75V5.25ZM16 6.75C16.4142 6.75 16.75 6.41421 16.75 6C16.75 5.58579 16.4142 5.25 16 5.25V6.75ZM8 9.25C7.58579 9.25 7.25 9.58579 7.25 10C7.25 10.4142 7.58579 10.75 8 10.75V9.25ZM12 10.75C12.4142 10.75 12.75 10.4142 12.75 10C12.75 9.58579 12.4142 9.25 12 9.25V10.75ZM10.25 18.5V17.75H8.75V18.5H10.25ZM9.5 22H8.75C8.75 22.2489 8.87345 22.4815 9.07953 22.621C9.28561 22.7606 9.54747 22.7888 9.77854 22.6964L9.5 22ZM12 21L12.2785 20.3036C12.0997 20.2321 11.9003 20.2321 11.7215 20.3036L12 21ZM14.5 22L14.2215 22.6964C14.4525 22.7888 14.7144 22.7606 14.9205 22.621C15.1266 22.4815 15.25 22.2489 15.25 22H14.5ZM15.25 18.5V17.75H13.75V18.5H15.25ZM19.25 6V14H20.75V6H19.25ZM4.75 14V6H3.25V14H4.75ZM8 2.75H16V1.25H8V2.75ZM4.75 6C4.75 4.20507 6.20508 2.75 8 2.75V1.25C5.37665 1.25 3.25 3.37665 3.25 6H4.75ZM20.75 6C20.75 3.37665 18.6234 1.25 16 1.25V2.75C17.7949 2.75 19.25 4.20507 19.25 6H20.75ZM19.25 14C19.25 15.202 18.5978 16.2526 17.6245 16.8157L18.3755 18.1141C19.7934 17.2939 20.75 15.7591 20.75 14H19.25ZM3.25 14C3.25 15.7591 4.20663 17.2939 5.62445 18.1141L6.37554 16.8157C5.40216 16.2526 4.75 15.202 4.75 14H3.25ZM14.25 16C14.25 17.2426 13.2426 18.25 12 18.25V19.75C14.0711 19.75 15.75 18.0711 15.75 16H14.25ZM12 18.25C10.7574 18.25 9.75 17.2426 9.75 16H8.25C8.25 18.0711 9.92893 19.75 12 19.75V18.25ZM9.75 16C9.75 14.7574 10.7574 13.75 12 13.75V12.25C9.92893 12.25 8.25 13.9289 8.25 16H9.75ZM12 13.75C13.2426 13.75 14.25 14.7574 14.25 16H15.75C15.75 13.9289 14.0711 12.25 12 12.25V13.75ZM8 6.75H16V5.25H8V6.75ZM8 10.75H12V9.25H8V10.75ZM8.75 18.5V22H10.25V18.5H8.75ZM9.77854 22.6964L12.2785 21.6964L11.7215 20.3036L9.22146 21.3036L9.77854 22.6964ZM11.7215 21.6964L14.2215 22.6964L14.7785 21.3036L12.2785 20.3036L11.7215 21.6964ZM15.25 22V18.5H13.75V22H15.25Z" fill="#28303F"/>
</svg>
