<svg width="24" height="24" viewBox="0 0 24 24" fill="none" xmlns="http://www.w3.org/2000/svg">
<path d="M8 11.25C7.58579 11.25 7.25 11.5858 7.25 12C7.25 12.4142 7.58579 12.75 8 12.75V11.25ZM16 12.75C16.4142 12.75 16.75 12.4142 16.75 12C16.75 11.5858 16.4142 11.25 16 11.25V12.75ZM21.25 12C21.25 17.1086 17.1086 21.25 12 21.25V22.75C17.9371 22.75 22.75 17.9371 22.75 12H21.25ZM12 21.25C6.89137 21.25 2.75 17.1086 2.75 12H1.25C1.25 17.9371 6.06294 22.75 12 22.75V21.25ZM2.75 12C2.75 6.89137 6.89137 2.75 12 2.75V1.25C6.06294 1.25 1.25 6.06294 1.25 12H2.75ZM12 2.75C17.1086 2.75 21.25 6.89137 21.25 12H22.75C22.75 6.06294 17.9371 1.25 12 1.25V2.75ZM12.75 8C12.75 8.41421 12.4142 8.75 12 8.75V10.25C13.2426 10.25 14.25 9.24264 14.25 8H12.75ZM12 8.75C11.5858 8.75 11.25 8.41421 11.25 8H9.75C9.75 9.24264 10.7574 10.25 12 10.25V8.75ZM11.25 8C11.25 7.58579 11.5858 7.25 12 7.25V5.75C10.7574 5.75 9.75 6.75736 9.75 8H11.25ZM12 7.25C12.4142 7.25 12.75 7.58579 12.75 8H14.25C14.25 6.75736 13.2426 5.75 12 5.75V7.25ZM12.75 16C12.75 16.4142 12.4142 16.75 12 16.75V18.25C13.2426 18.25 14.25 17.2426 14.25 16H12.75ZM12 16.75C11.5858 16.75 11.25 16.4142 11.25 16H9.75C9.75 17.2426 10.7574 18.25 12 18.25V16.75ZM11.25 16C11.25 15.5858 11.5858 15.25 12 15.25V13.75C10.7574 13.75 9.75 14.7574 9.75 16H11.25ZM12 15.25C12.4142 15.25 12.75 15.5858 12.75 16H14.25C14.25 14.7574 13.2426 13.75 12 13.75V15.25ZM8 12.75H16V11.25H8V12.75Z" fill="#28303F"/>
</svg>
