<svg width="24" height="24" viewBox="0 0 24 24" fill="none" xmlns="http://www.w3.org/2000/svg">
<path d="M16 4.25C15.5858 4.25 15.25 4.58579 15.25 5C15.25 5.41421 15.5858 5.75 16 5.75V4.25ZM8 5.75C8.41421 5.75 8.75 5.41421 8.75 5C8.75 4.58579 8.41421 4.25 8 4.25V5.75ZM12.75 19C12.75 18.5858 12.4142 18.25 12 18.25C11.5858 18.25 11.25 18.5858 11.25 19H12.75ZM9 21.25C8.58579 21.25 8.25 21.5858 8.25 22C8.25 22.4142 8.58579 22.75 9 22.75V21.25ZM15 22.75C15.4142 22.75 15.75 22.4142 15.75 22C15.75 21.5858 15.4142 21.25 15 21.25V22.75ZM12.75 3.18742C12.75 2.77321 12.4142 2.43742 12 2.43742C11.5858 2.43742 11.25 2.77321 11.25 3.18742H12.75ZM11.25 8.72875C11.25 9.14296 11.5858 9.47875 12 9.47875C12.4142 9.47875 12.75 9.14296 12.75 8.72875H11.25ZM8.79773 2.00438L8.71583 2.7499L8.79773 2.00438ZM12 3L11.5777 3.61983L12 3.90751L12.4223 3.61983L12 3ZM8.79773 7.97813L8.71583 8.72364L8.79773 7.97813ZM12 9L11.5777 9.61983C11.8325 9.79339 12.1675 9.79339 12.4223 9.61983L12 9ZM15.2023 2.00438L15.2842 2.7499L15.2023 2.00438ZM15.2023 7.97813L15.2842 8.72364L15.2023 7.97813ZM20.25 7V17H21.75V7H20.25ZM19 18.25H5V19.75H19V18.25ZM3.75 17V7H2.25V17H3.75ZM16 5.75H19V4.25H16V5.75ZM5 5.75H8V4.25H5V5.75ZM5 18.25C4.30964 18.25 3.75 17.6904 3.75 17H2.25C2.25 18.5188 3.48122 19.75 5 19.75V18.25ZM20.25 17C20.25 17.6904 19.6904 18.25 19 18.25V19.75C20.5188 19.75 21.75 18.5188 21.75 17H20.25ZM21.75 7C21.75 5.48122 20.5188 4.25 19 4.25V5.75C19.6904 5.75 20.25 6.30964 20.25 7H21.75ZM3.75 7C3.75 6.30964 4.30964 5.75 5 5.75V4.25C3.48122 4.25 2.25 5.48122 2.25 7H3.75ZM11.25 19V22H12.75V19H11.25ZM12 21.25H9V22.75H12V21.25ZM12 22.75H15V21.25H12V22.75ZM11.25 3.18742V8.72875H12.75V3.18742H11.25ZM8.71583 2.7499C9.12146 2.79446 9.66883 2.89125 10.2097 3.04363C10.7606 3.19883 11.2502 3.39669 11.5777 3.61983L12.4223 2.38017C11.9003 2.02459 11.2325 1.77338 10.6164 1.59983C9.99038 1.42345 9.36135 1.31179 8.87963 1.25887L8.71583 2.7499ZM8.71583 8.72364C9.11542 8.76754 9.66047 8.86963 10.2022 9.02835C10.7528 9.18965 11.2463 9.39403 11.5777 9.61983L12.4223 8.38017C11.9042 8.02725 11.2403 7.76944 10.6239 7.58886C9.99873 7.40568 9.36739 7.2862 8.87963 7.23261L8.71583 8.72364ZM7.25 2.75257V7.13331H8.75V2.75257H7.25ZM8.87963 7.23261C8.83634 7.22785 8.79863 7.20751 8.77457 7.18252C8.75254 7.15962 8.75 7.14271 8.75 7.13331H7.25C7.25 8.0025 7.94482 8.63894 8.71583 8.72364L8.87963 7.23261ZM8.87963 1.25887C7.94967 1.1567 7.25 1.91452 7.25 2.75257H8.75C8.75 2.73798 8.75549 2.73465 8.75228 2.73771C8.75035 2.73955 8.74529 2.74355 8.73646 2.74666C8.73212 2.74818 8.72766 2.74919 8.72348 2.74968C8.71924 2.75017 8.71652 2.74997 8.71583 2.7499L8.87963 1.25887ZM15.1204 1.25887C14.6386 1.31179 14.0096 1.42345 13.3836 1.59983C12.7675 1.77338 12.0997 2.02459 11.5777 2.38017L12.4223 3.61983C12.7498 3.39669 13.2394 3.19883 13.7903 3.04363C14.3312 2.89125 14.8785 2.79446 15.2842 2.7499L15.1204 1.25887ZM15.1204 7.23261C14.6326 7.2862 14.0013 7.40568 13.3761 7.58886C12.7597 7.76944 12.0958 8.02725 11.5777 8.38017L12.4223 9.61983C12.7537 9.39403 13.2472 9.18965 13.7978 9.02835C14.3395 8.86963 14.8846 8.76754 15.2842 8.72364L15.1204 7.23261ZM15.25 2.75257V7.13331H16.75V2.75257H15.25ZM15.2842 8.72364C16.0552 8.63894 16.75 8.0025 16.75 7.13331H15.25C15.25 7.14271 15.2475 7.15962 15.2254 7.18252C15.2014 7.20751 15.1637 7.22785 15.1204 7.23261L15.2842 8.72364ZM15.2842 2.7499C15.2835 2.74997 15.2808 2.75017 15.2765 2.74968C15.2723 2.74919 15.2679 2.74818 15.2635 2.74666C15.2547 2.74355 15.2496 2.73955 15.2477 2.73771C15.2445 2.73465 15.25 2.73798 15.25 2.75257H16.75C16.75 1.91452 16.0503 1.1567 15.1204 1.25887L15.2842 2.7499Z" fill="#28303F"/>
</svg>
