<svg width="24" height="24" viewBox="0 0 24 24" fill="none" xmlns="http://www.w3.org/2000/svg">
<path d="M10.25 12C10.25 12.4142 10.5858 12.75 11 12.75C11.4142 12.75 11.75 12.4142 11.75 12H10.25ZM6.25 12C6.25 12.4142 6.58579 12.75 7 12.75C7.41421 12.75 7.75 12.4142 7.75 12H6.25ZM7 9.25C6.58579 9.25 6.25 9.58579 6.25 10C6.25 10.4142 6.58579 10.75 7 10.75V9.25ZM11 10.75C11.4142 10.75 11.75 10.4142 11.75 10C11.75 9.58579 11.4142 9.25 11 9.25V10.75ZM7 14.25C6.58579 14.25 6.25 14.5858 6.25 15C6.25 15.4142 6.58579 15.75 7 15.75V14.25ZM17 15.75C17.4142 15.75 17.75 15.4142 17.75 15C17.75 14.5858 17.4142 14.25 17 14.25V15.75ZM7 17.25C6.58579 17.25 6.25 17.5858 6.25 18C6.25 18.4142 6.58579 18.75 7 18.75V17.25ZM12 18.75C12.4142 18.75 12.75 18.4142 12.75 18C12.75 17.5858 12.4142 17.25 12 17.25V18.75ZM14 6.75C13.5858 6.75 13.25 7.08579 13.25 7.5C13.25 7.91421 13.5858 8.25 14 8.25V6.75ZM17 8.25C17.4142 8.25 17.75 7.91421 17.75 7.5C17.75 7.08579 17.4142 6.75 17 6.75V8.25ZM16.25 6C16.25 5.58579 15.9142 5.25 15.5 5.25C15.0858 5.25 14.75 5.58579 14.75 6H16.25ZM14.75 9C14.75 9.41421 15.0858 9.75 15.5 9.75C15.9142 9.75 16.25 9.41421 16.25 9H14.75ZM6 2.75H18V1.25H6V2.75ZM20.25 5V19H21.75V5H20.25ZM18 21.25H6V22.75H18V21.25ZM3.75 19V5H2.25V19H3.75ZM6 21.25C4.75736 21.25 3.75 20.2426 3.75 19H2.25C2.25 21.0711 3.92893 22.75 6 22.75V21.25ZM20.25 19C20.25 20.2426 19.2426 21.25 18 21.25V22.75C20.0711 22.75 21.75 21.0711 21.75 19H20.25ZM18 2.75C19.2426 2.75 20.25 3.75736 20.25 5H21.75C21.75 2.92893 20.0711 1.25 18 1.25V2.75ZM6 1.25C3.92893 1.25 2.25 2.92893 2.25 5H3.75C3.75 3.75736 4.75736 2.75 6 2.75V1.25ZM10.25 9V12H11.75V9H10.25ZM7.75 12V9H6.25V12H7.75ZM9 7.75C9.69036 7.75 10.25 8.30964 10.25 9H11.75C11.75 7.48122 10.5188 6.25 9 6.25V7.75ZM9 6.25C7.48122 6.25 6.25 7.48122 6.25 9H7.75C7.75 8.30964 8.30964 7.75 9 7.75V6.25ZM7 10.75H11V9.25H7V10.75ZM7 15.75H17V14.25H7V15.75ZM7 18.75H12V17.25H7V18.75ZM14 8.25H17V6.75H14V8.25ZM14.75 6V9H16.25V6H14.75Z" fill="#28303F"/>
</svg>
