<svg width="24" height="24" viewBox="0 0 24 24" fill="none" xmlns="http://www.w3.org/2000/svg">
<path d="M10 2V1.25C9.80109 1.25 9.61032 1.32902 9.46967 1.46967C9.32902 1.61032 9.25 1.80109 9.25 2L10 2ZM14 2H14.75C14.75 1.58579 14.4142 1.25 14 1.25V2ZM14 8.28988H13.25C13.25 8.62169 13.468 8.91407 13.7861 9.00872L14 8.28988ZM10 8.28988L10.2139 9.00872C10.532 8.91407 10.75 8.62169 10.75 8.28988H10ZM8 1.25C7.58579 1.25 7.25 1.58579 7.25 2C7.25 2.41421 7.58579 2.75 8 2.75V1.25ZM16 2.75C16.4142 2.75 16.75 2.41421 16.75 2C16.75 1.58579 16.4142 1.25 16 1.25V2.75ZM6 11.25C5.58579 11.25 5.25 11.5858 5.25 12C5.25 12.4142 5.58579 12.75 6 12.75V11.25ZM18 12.75C18.4142 12.75 18.75 12.4142 18.75 12C18.75 11.5858 18.4142 11.25 18 11.25V12.75ZM10 2.75H14V1.25H10V2.75ZM18.25 15C18.25 18.4518 15.4518 21.25 12 21.25V22.75C16.2802 22.75 19.75 19.2802 19.75 15H18.25ZM12 21.25C8.54822 21.25 5.75 18.4518 5.75 15H4.25C4.25 19.2802 7.71979 22.75 12 22.75V21.25ZM13.7861 9.00872C16.3683 9.77722 18.25 12.1698 18.25 15H19.75C19.75 11.4881 17.4147 8.52363 14.2139 7.57104L13.7861 9.00872ZM13.25 2V8.28988H14.75V2H13.25ZM5.75 15C5.75 12.1698 7.63172 9.77722 10.2139 9.00872L9.78606 7.57104C6.5853 8.52363 4.25 11.4881 4.25 15H5.75ZM10.75 8.28988L10.75 2L9.25 2L9.25 8.28988H10.75ZM8 2.75H16V1.25H8V2.75ZM6 12.75H18V11.25H6V12.75Z" fill="#28303F"/>
</svg>
