<svg width="24" height="24" viewBox="0 0 24 24" fill="none" xmlns="http://www.w3.org/2000/svg">
<path d="M21.0658 16.6368C21.3586 16.3439 21.3586 15.8691 21.0658 15.5762C20.7729 15.2833 20.298 15.2833 20.0051 15.5762L21.0658 16.6368ZM4.22556 5.20859L4.91847 5.4956L4.22556 5.20859ZM6.92362 2.49469C7.21651 2.20179 7.21651 1.72692 6.92362 1.43403C6.63073 1.14113 6.15585 1.14113 5.86296 1.43403L6.92362 2.49469ZM10.4646 21.2854C10.0504 21.2854 9.71458 21.6212 9.71458 22.0354C9.71458 22.4496 10.0504 22.7854 10.4646 22.7854V21.2854ZM16.4646 22.7854C16.8788 22.7854 17.2146 22.4496 17.2146 22.0354C17.2146 21.6212 16.8788 21.2854 16.4646 21.2854V22.7854ZM19.7146 9.03543C19.7146 12.4872 16.9164 15.2854 13.4646 15.2854V16.7854C17.7448 16.7854 21.2146 13.3156 21.2146 9.03543H19.7146ZM13.4646 15.2854C10.0128 15.2854 7.21458 12.4872 7.21458 9.03543H5.71458C5.71458 13.3156 9.18437 16.7854 13.4646 16.7854V15.2854ZM7.21458 9.03543C7.21458 5.58365 10.0128 2.78543 13.4646 2.78543V1.28543C9.18437 1.28543 5.71458 4.75522 5.71458 9.03543H7.21458ZM13.4646 2.78543C16.9164 2.78543 19.7146 5.58365 19.7146 9.03543H21.2146C21.2146 4.75522 17.7448 1.28543 13.4646 1.28543V2.78543ZM20.0051 15.5762C19.1462 16.4351 18.1264 17.1165 17.0042 17.5813L17.5782 18.9671C18.8825 18.4269 20.0675 17.6351 21.0658 16.6368L20.0051 15.5762ZM17.0042 17.5813C15.8819 18.0462 14.6791 18.2854 13.4644 18.2854V19.7854C14.8761 19.7854 16.274 19.5074 17.5782 18.9671L17.0042 17.5813ZM13.4644 18.2854C12.2496 18.2854 11.0468 18.0462 9.92453 17.5813L9.35051 18.9671C10.6548 19.5074 12.0526 19.7854 13.4644 19.7854V18.2854ZM9.92453 17.5813C8.80227 17.1165 7.78256 16.4351 6.92362 15.5762L5.86296 16.6368C6.86119 17.6351 8.04626 18.4269 9.35051 18.9671L9.92453 17.5813ZM6.92362 15.5762C6.06468 14.7172 5.38333 13.6975 4.91847 12.5752L3.53265 13.1493C4.07289 14.4535 4.86473 15.6386 5.86296 16.6368L6.92362 15.5762ZM4.91847 12.5752C4.45361 11.453 4.21436 10.2501 4.21436 9.03542H2.71436C2.71436 10.4471 2.99241 11.845 3.53265 13.1493L4.91847 12.5752ZM4.21436 9.03542C4.21436 7.8207 4.45361 6.61786 4.91847 5.4956L3.53265 4.92158C2.99241 6.22583 2.71436 7.62371 2.71436 9.03542H4.21436ZM4.91847 5.4956C5.38333 4.37334 6.06468 3.35363 6.92362 2.49469L5.86296 1.43403C4.86473 2.43226 4.07289 3.61733 3.53265 4.92158L4.91847 5.4956ZM12.7144 19.0355L12.7146 22.0355L14.2146 22.0354L14.2144 19.0354L12.7144 19.0355ZM13.4646 21.2854H10.4646V22.7854H13.4646V21.2854ZM13.4646 22.7854H16.4646V21.2854H13.4646V22.7854Z" fill="#28303F"/>
</svg>
