<svg width="24" height="24" viewBox="0 0 24 24" fill="none" xmlns="http://www.w3.org/2000/svg">
<path d="M11.1056 5.44699L10.7702 4.77617V4.77617L11.1056 5.44699ZM2 9.99977L1.66459 9.32895C1.4105 9.456 1.25 9.71569 1.25 9.99977C1.25 10.2839 1.4105 10.5435 1.66459 10.6706L2 9.99977ZM12.8944 14.5526L13.2298 15.2234L12.8944 14.5526ZM22 9.99977L22.3354 10.6706C22.5895 10.5435 22.75 10.2839 22.75 9.99977C22.75 9.71569 22.5895 9.456 22.3354 9.32895L22 9.99977ZM12.8944 5.44699L13.2298 4.77617V4.77617L12.8944 5.44699ZM11.1056 14.5526L10.7702 15.2234L11.1056 14.5526ZM17.25 11.9998V15.9998H18.75V11.9998H17.25ZM15 18.2498H9V19.7498H15V18.2498ZM6.75 15.9998V11.9998H5.25V15.9998H6.75ZM9 18.2498C7.75736 18.2498 6.75 17.2424 6.75 15.9998H5.25C5.25 18.0708 6.92893 19.7498 9 19.7498V18.2498ZM17.25 15.9998C17.25 17.2424 16.2426 18.2498 15 18.2498V19.7498C17.0711 19.7498 18.75 18.0708 18.75 15.9998H17.25ZM10.7702 4.77617L1.66459 9.32895L2.33541 10.6706L11.441 6.11781L10.7702 4.77617ZM13.2298 15.2234L22.3354 10.6706L21.6646 9.32895L12.559 13.8817L13.2298 15.2234ZM12.559 6.11781L21.6646 10.6706L22.3354 9.32895L13.2298 4.77617L12.559 6.11781ZM11.441 13.8817L2.33541 9.32895L1.66459 10.6706L10.7702 15.2234L11.441 13.8817ZM12.559 13.8817C12.2071 14.0577 11.7929 14.0577 11.441 13.8817L10.7702 15.2234C11.5444 15.6105 12.4556 15.6105 13.2298 15.2234L12.559 13.8817ZM11.441 6.11781C11.7929 5.94185 12.2071 5.94185 12.559 6.11781L13.2298 4.77617C12.4556 4.38906 11.5444 4.38906 10.7702 4.77617L11.441 6.11781Z" fill="#28303F"/>
<path d="M22 10V16" stroke="#28303F" stroke-width="1.5" stroke-linecap="round" stroke-linejoin="round"/>
</svg>
