<svg width="24" height="24" viewBox="0 0 24 24" fill="none" xmlns="http://www.w3.org/2000/svg">
<path d="M16.8085 14.0871L16.2932 13.5422V13.5422L16.8085 14.0871ZM7.19153 14.0871L7.70682 13.5422H7.70682L7.19153 14.0871ZM10.5303 8.46967C10.2374 8.17678 9.76256 8.17678 9.46967 8.46967C9.17678 8.76256 9.17678 9.23744 9.46967 9.53033L10.5303 8.46967ZM14.5303 9.53033C14.8232 9.23744 14.8232 8.76256 14.5303 8.46967C14.2374 8.17678 13.7626 8.17678 13.4697 8.46967L14.5303 9.53033ZM11.25 18C11.25 18.4142 11.5858 18.75 12 18.75C12.4142 18.75 12.75 18.4142 12.75 18H11.25ZM8 18.75H16V17.25H8V18.75ZM12 21.25C10.2051 21.25 8.75 19.7949 8.75 18H7.25C7.25 20.6234 9.37665 22.75 12 22.75V21.25ZM15.25 18C15.25 19.7949 13.7949 21.25 12 21.25V22.75C14.6234 22.75 16.75 20.6234 16.75 18H15.25ZM5.75 9C5.75 5.54822 8.54822 2.75 12 2.75V1.25C7.71979 1.25 4.25 4.71979 4.25 9H5.75ZM12 2.75C15.4518 2.75 18.25 5.54822 18.25 9H19.75C19.75 4.71979 16.2802 1.25 12 1.25V2.75ZM18.25 9C18.25 10.7892 17.4991 12.4019 16.2932 13.5422L17.3238 14.6321C18.8169 13.2203 19.75 11.2185 19.75 9H18.25ZM15.25 15.7887V18H16.75V15.7887H15.25ZM7.70682 13.5422C6.50088 12.4019 5.75 10.7892 5.75 9H4.25C4.25 11.2185 5.18315 13.2203 6.67624 14.6321L7.70682 13.5422ZM8.75 18V15.7887H7.25V18H8.75ZM6.67624 14.6321C7.04694 14.9826 7.25 15.3963 7.25 15.7887H8.75C8.75 14.8736 8.28624 14.09 7.70682 13.5422L6.67624 14.6321ZM16.2932 13.5422C15.7138 14.09 15.25 14.8736 15.25 15.7887H16.75C16.75 15.3963 16.9531 14.9826 17.3238 14.6321L16.2932 13.5422ZM9.46967 9.53033L11.4697 11.5303L12.5303 10.4697L10.5303 8.46967L9.46967 9.53033ZM12.5303 11.5303L14.5303 9.53033L13.4697 8.46967L11.4697 10.4697L12.5303 11.5303ZM11.25 11V18H12.75V11H11.25Z" fill="#28303F"/>
</svg>
