<svg width="24" height="24" viewBox="0 0 24 24" fill="none" xmlns="http://www.w3.org/2000/svg">
<path d="M4.7949 6.01002L4.71171 6.75539L4.7949 6.01002ZM4.7949 19.6643L4.87808 18.9189L4.7949 19.6643ZM11.3851 21.8093L11.812 21.1926H11.812L11.3851 21.8093ZM19.2051 6.01002L19.1219 5.26465L19.2051 6.01002ZM19.2051 19.6643L19.1219 18.9189L19.2051 19.6643ZM12.6149 21.8093L12.188 21.1926H12.188L12.6149 21.8093ZM16.9628 6.38726L16.2184 6.47823L16.9628 6.38726ZM11.25 21.5C11.25 21.9142 11.5858 22.25 12 22.25C12.4142 22.25 12.75 21.9142 12.75 21.5H11.25ZM6.25 7C6.25 7.89374 6.64519 8.81837 7.13717 9.64299C7.63947 10.4849 8.29816 11.3131 8.93969 12.0341C9.5838 12.758 10.2256 13.3904 10.7051 13.8411C10.9454 14.0669 11.146 14.2481 11.2874 14.3735C11.3581 14.4363 11.4141 14.4851 11.4528 14.5186C11.4722 14.5354 11.4873 14.5484 11.4977 14.5573C11.503 14.5618 11.5071 14.5653 11.5099 14.5678C11.5114 14.569 11.5125 14.57 11.5134 14.5707C11.5138 14.5711 11.5142 14.5714 11.5144 14.5716C11.5146 14.5717 11.5147 14.5718 11.5148 14.5719C11.5149 14.572 11.515 14.5721 12 14C12.485 13.4279 12.485 13.428 12.4851 13.428C12.4851 13.428 12.4851 13.428 12.4851 13.428C12.4851 13.428 12.485 13.4279 12.4848 13.4277C12.4844 13.4274 12.4838 13.4269 12.4828 13.4261C12.4809 13.4244 12.4778 13.4218 12.4736 13.4182C12.4651 13.4109 12.4521 13.3997 12.4349 13.3848C12.4004 13.3549 12.3489 13.31 12.2829 13.2514C12.1508 13.1343 11.9609 12.9628 11.7324 12.748C11.2744 12.3177 10.6662 11.7179 10.0603 11.037C9.45184 10.3531 8.86053 9.60392 8.42533 8.87446C7.97981 8.1277 7.75 7.48697 7.75 7H6.25ZM12 14C12.485 14.5721 12.4851 14.572 12.4852 14.5719C12.4853 14.5718 12.4854 14.5717 12.4856 14.5716C12.4858 14.5714 12.4862 14.5711 12.4866 14.5707C12.4875 14.57 12.4886 14.569 12.4901 14.5678C12.4929 14.5653 12.497 14.5618 12.5023 14.5573C12.5127 14.5484 12.5278 14.5354 12.5472 14.5186C12.5859 14.4851 12.6419 14.4363 12.7126 14.3735C12.854 14.2481 13.0546 14.0669 13.2949 13.8411C13.7744 13.3904 14.4162 12.758 15.0603 12.0341C15.7018 11.3131 16.3605 10.4849 16.8628 9.64299C17.3548 8.81837 17.75 7.89374 17.75 7H16.25C16.25 7.48697 16.0202 8.1277 15.5747 8.87446C15.1395 9.60392 14.5482 10.3531 13.9397 11.037C13.3338 11.7179 12.7256 12.3177 12.2676 12.748C12.0391 12.9628 11.8492 13.1343 11.7171 13.2514C11.6511 13.31 11.5996 13.3549 11.5651 13.3848C11.5479 13.3997 11.5349 13.4109 11.5264 13.4182C11.5222 13.4218 11.5191 13.4244 11.5172 13.4261C11.5162 13.4269 11.5156 13.4274 11.5152 13.4277C11.515 13.4279 11.5149 13.428 11.5149 13.428C11.5149 13.428 11.5149 13.428 11.5149 13.428C11.515 13.428 11.515 13.4279 12 14ZM4.71171 20.4097C6.66712 20.6279 9.20052 21.2095 10.9583 22.426L11.812 21.1926C9.74712 19.7636 6.91575 19.1463 4.87808 18.9189L4.71171 20.4097ZM2.25 7.72016V17.7333H3.75V7.72016H2.25ZM4.87808 18.9189C4.23097 18.8467 3.75 18.3191 3.75 17.7333H2.25C2.25 19.1585 3.3826 20.2613 4.71171 20.4097L4.87808 18.9189ZM4.87808 5.26465C3.38612 5.09814 2.25 6.32957 2.25 7.72016H3.75C3.75 7.09981 4.22744 6.70135 4.71171 6.75539L4.87808 5.26465ZM19.1219 18.9189C17.0842 19.1463 14.2529 19.7636 12.188 21.1926L13.0417 22.426C14.7995 21.2095 17.3329 20.6279 19.2883 20.4097L19.1219 18.9189ZM20.25 7.72016V17.7333H21.75V7.72016H20.25ZM19.2883 20.4097C20.6174 20.2613 21.75 19.1585 21.75 17.7333H20.25C20.25 18.3191 19.769 18.8467 19.1219 18.9189L19.2883 20.4097ZM19.2883 6.75539C19.7726 6.70135 20.25 7.09981 20.25 7.72016H21.75C21.75 6.32957 20.6139 5.09814 19.1219 5.26465L19.2883 6.75539ZM10.9583 22.426C11.5825 22.858 12.4175 22.858 13.0417 22.426L12.188 21.1926C12.0775 21.2691 11.9225 21.2691 11.812 21.1926L10.9583 22.426ZM19.1219 5.26465C18.4113 5.34396 17.6161 5.46937 16.7964 5.65597L17.1293 7.11855C17.8876 6.94593 18.6267 6.82923 19.2883 6.75539L19.1219 5.26465ZM17.75 7C17.75 6.76208 17.7355 6.52721 17.7073 6.29629L16.2184 6.47823C16.2392 6.64893 16.25 6.82304 16.25 7H17.75ZM17.7073 6.29629C17.3598 3.45228 14.9376 1.25 12 1.25V2.75C14.1703 2.75 15.9617 4.37748 16.2184 6.47823L17.7073 6.29629ZM4.71171 6.75539C5.37332 6.82923 6.11239 6.94593 6.8707 7.11855L7.20364 5.65597C6.38395 5.46937 5.58874 5.34396 4.87808 5.26465L4.71171 6.75539ZM12 1.25C9.06236 1.25 6.64022 3.45228 6.29271 6.29629L7.78163 6.47823C8.03833 4.37748 9.82967 2.75 12 2.75V1.25ZM6.29271 6.29629C6.26449 6.52721 6.25 6.76208 6.25 7H7.75C7.75 6.82304 7.76078 6.64893 7.78163 6.47823L6.29271 6.29629ZM11.25 14V21.5H12.75V14H11.25ZM12.75 7C12.75 7.41421 12.4142 7.75 12 7.75V9.25C13.2426 9.25 14.25 8.24264 14.25 7H12.75ZM12 7.75C11.5858 7.75 11.25 7.41421 11.25 7H9.75C9.75 8.24264 10.7574 9.25 12 9.25V7.75ZM11.25 7C11.25 6.58579 11.5858 6.25 12 6.25V4.75C10.7574 4.75 9.75 5.75736 9.75 7H11.25ZM12 6.25C12.4142 6.25 12.75 6.58579 12.75 7H14.25C14.25 5.75736 13.2426 4.75 12 4.75V6.25Z" fill="#28303F"/>
</svg>
