<svg width="24" height="24" viewBox="0 0 24 24" fill="none" xmlns="http://www.w3.org/2000/svg">
<path d="M12.75 3C12.75 2.58579 12.4142 2.25 12 2.25C11.5858 2.25 11.25 2.58579 11.25 3H12.75ZM11.25 19C11.25 19.4142 11.5858 19.75 12 19.75C12.4142 19.75 12.75 19.4142 12.75 19H11.25ZM18.25 21C18.25 21.4142 18.5858 21.75 19 21.75C19.4142 21.75 19.75 21.4142 19.75 21H18.25ZM4.25 21C4.25 21.4142 4.58579 21.75 5 21.75C5.41421 21.75 5.75 21.4142 5.75 21H4.25ZM22 7.75C22.4142 7.75 22.75 7.41421 22.75 7C22.75 6.58579 22.4142 6.25 22 6.25V7.75ZM2 6.25C1.58579 6.25 1.25 6.58579 1.25 7C1.25 7.41421 1.58579 7.75 2 7.75L2 6.25ZM8.25 14C8.25 14.4142 8.58579 14.75 9 14.75C9.41421 14.75 9.75 14.4142 9.75 14H8.25ZM9.75 12C9.75 11.5858 9.41421 11.25 9 11.25C8.58579 11.25 8.25 11.5858 8.25 12H9.75ZM14.25 14C14.25 14.4142 14.5858 14.75 15 14.75C15.4142 14.75 15.75 14.4142 15.75 14H14.25ZM15.75 12C15.75 11.5858 15.4142 11.25 15 11.25C14.5858 11.25 14.25 11.5858 14.25 12H15.75ZM5 3.75H19V2.25H5V3.75ZM21.25 6V16H22.75V6H21.25ZM19 18.25H5V19.75H19V18.25ZM2.75 16V6H1.25V16H2.75ZM5 18.25C3.75736 18.25 2.75 17.2426 2.75 16H1.25C1.25 18.0711 2.92893 19.75 5 19.75V18.25ZM21.25 16C21.25 17.2426 20.2426 18.25 19 18.25V19.75C21.0711 19.75 22.75 18.0711 22.75 16H21.25ZM19 3.75C20.2426 3.75 21.25 4.75736 21.25 6H22.75C22.75 3.92893 21.0711 2.25 19 2.25V3.75ZM5 2.25C2.92893 2.25 1.25 3.92893 1.25 6H2.75C2.75 4.75736 3.75736 3.75 5 3.75V2.25ZM11.25 3V19H12.75V3H11.25ZM18.25 19V21H19.75V19H18.25ZM4.25 19L4.25 21H5.75L5.75 19H4.25ZM22 6.25L2 6.25L2 7.75L22 7.75V6.25ZM9.75 14V12H8.25V14H9.75ZM15.75 14V12H14.25V14H15.75Z" fill="#28303F"/>
</svg>
