<svg width="24" height="24" viewBox="0 0 24 24" fill="none" xmlns="http://www.w3.org/2000/svg">
<path d="M2 6.25C1.58579 6.25 1.25 6.58579 1.25 7C1.25 7.41421 1.58579 7.75 2 7.75V6.25ZM22 7.75C22.4142 7.75 22.75 7.41421 22.75 7C22.75 6.58579 22.4142 6.25 22 6.25V7.75ZM7.62404 13.584C7.39427 13.2393 6.92862 13.1462 6.58397 13.376C6.23933 13.6057 6.1462 14.0714 6.37596 14.416L7.62404 13.584ZM9 17L8.37596 17.416C8.52426 17.6385 8.77977 17.7652 9.0466 17.7486C9.31344 17.7319 9.55126 17.5745 9.67082 17.3354L9 17ZM12 11V10.25C11.7159 10.25 11.4562 10.4105 11.3292 10.6646L12 11ZM17 11.75C17.4142 11.75 17.75 11.4142 17.75 11C17.75 10.5858 17.4142 10.25 17 10.25V11.75ZM16.4697 17.5303C16.7626 17.8232 17.2374 17.8232 17.5303 17.5303C17.8232 17.2374 17.8232 16.7626 17.5303 16.4697L16.4697 17.5303ZM14.5303 13.4697C14.2374 13.1768 13.7626 13.1768 13.4697 13.4697C13.1768 13.7626 13.1768 14.2374 13.4697 14.5303L14.5303 13.4697ZM13.4697 16.4697C13.1768 16.7626 13.1768 17.2374 13.4697 17.5303C13.7626 17.8232 14.2374 17.8232 14.5303 17.5303L13.4697 16.4697ZM17.5303 14.5303C17.8232 14.2374 17.8232 13.7626 17.5303 13.4697C17.2374 13.1768 16.7626 13.1768 16.4697 13.4697L17.5303 14.5303ZM6 2.75H18V1.25H6V2.75ZM21.25 6V18H22.75V6H21.25ZM18 21.25H6V22.75H18V21.25ZM2.75 18V6H1.25V18H2.75ZM6 21.25C4.20507 21.25 2.75 19.7949 2.75 18H1.25C1.25 20.6234 3.37665 22.75 6 22.75V21.25ZM21.25 18C21.25 19.7949 19.7949 21.25 18 21.25V22.75C20.6234 22.75 22.75 20.6234 22.75 18H21.25ZM18 2.75C19.7949 2.75 21.25 4.20507 21.25 6H22.75C22.75 3.37665 20.6234 1.25 18 1.25V2.75ZM6 1.25C3.37665 1.25 1.25 3.37665 1.25 6H2.75C2.75 4.20507 4.20507 2.75 6 2.75V1.25ZM2 7.75H22V6.25H2V7.75ZM6.37596 14.416L8.37596 17.416L9.62404 16.584L7.62404 13.584L6.37596 14.416ZM9.67082 17.3354L12.6708 11.3354L11.3292 10.6646L8.32918 16.6646L9.67082 17.3354ZM12 11.75H17V10.25H12V11.75ZM17.5303 16.4697L14.5303 13.4697L13.4697 14.5303L16.4697 17.5303L17.5303 16.4697ZM14.5303 17.5303L17.5303 14.5303L16.4697 13.4697L13.4697 16.4697L14.5303 17.5303Z" fill="#28303F"/>
</svg>
