<svg width="24" height="24" viewBox="0 0 24 24" fill="none" xmlns="http://www.w3.org/2000/svg">
<path d="M16.25 7.5C16.25 7.91421 16.5858 8.25 17 8.25C17.4142 8.25 17.75 7.91421 17.75 7.5H16.25ZM6.25 7.5C6.25 7.91421 6.58579 8.25 7 8.25C7.41421 8.25 7.75 7.91421 7.75 7.5H6.25ZM9.99615 12.1796L10.1082 12.9211H10.1082L9.99615 12.1796ZM10.6568 11.6805L9.9793 11.3589L10.6568 11.6805ZM8.26595 13.9236L8.79982 13.3969H8.79981L8.26595 13.9236ZM8.75226 12.3675L8.64023 11.6259H8.64023L8.75226 12.3675ZM9.4184 15.6434L10.1584 15.7654L9.4184 15.6434ZM9.16603 14.8358L8.63217 15.3626H8.63217L9.16603 14.8358ZM10.4791 17.8932L10.8388 18.5513H10.8388L10.4791 17.8932ZM9.20591 16.9314L8.46592 16.8093L9.20591 16.9314ZM12.4083 17.285L12.0486 17.9431L12.4083 17.285ZM11.5917 17.285L11.2319 16.6269L11.2319 16.6269L11.5917 17.285ZM14.7941 16.9314L15.5341 16.8093V16.8093L14.7941 16.9314ZM13.5209 17.8932L13.8806 17.2351L13.5209 17.8932ZM14.834 14.8358L14.3001 14.3091L14.3001 14.3091L14.834 14.8358ZM14.5816 15.6434L13.8416 15.7654V15.7654L14.5816 15.6434ZM15.2477 12.3675L15.3598 11.6259H15.3598L15.2477 12.3675ZM15.7341 13.9236L16.2679 14.4504L16.2679 14.4504L15.7341 13.9236ZM13.3432 11.6805L14.0207 11.3589L13.3432 11.6805ZM14.0038 12.1796L13.8918 12.9211H13.8918L14.0038 12.1796ZM12.7869 10.5086L12.1093 10.8302L12.7869 10.5086ZM11.2131 10.5086L11.8907 10.8302L11.2131 10.5086ZM19.25 14C19.25 18.0041 16.0041 21.25 12 21.25V22.75C16.8325 22.75 20.75 18.8325 20.75 14H19.25ZM12 21.25C7.99594 21.25 4.75 18.0041 4.75 14H3.25C3.25 18.8325 7.16751 22.75 12 22.75V21.25ZM4.75 14C4.75 9.99594 7.99594 6.75 12 6.75V5.25C7.16751 5.25 3.25 9.16751 3.25 14H4.75ZM12 6.75C16.0041 6.75 19.25 9.99594 19.25 14H20.75C20.75 9.16751 16.8325 5.25 12 5.25V6.75ZM17.75 7.5V4H16.25V7.5H17.75ZM15 1.25H9V2.75H15V1.25ZM6.25 4V7.5H7.75V4H6.25ZM9 1.25C7.48122 1.25 6.25 2.48122 6.25 4H7.75C7.75 3.30964 8.30964 2.75 9 2.75V1.25ZM17.75 4C17.75 2.48122 16.5188 1.25 15 1.25V2.75C15.6904 2.75 16.25 3.30964 16.25 4H17.75ZM12.1093 10.8302L12.6656 12.0021L14.0207 11.3589L13.4644 10.1869L12.1093 10.8302ZM13.8918 12.9211L15.1357 13.1091L15.3598 11.6259L14.1159 11.438L13.8918 12.9211ZM15.2002 13.3969L14.3001 14.3091L15.3678 15.3626L16.2679 14.4504L15.2002 13.3969ZM13.8416 15.7654L14.0541 17.0535L15.5341 16.8093L15.3216 15.5213L13.8416 15.7654ZM13.8806 17.2351L12.7681 16.6269L12.0486 17.9431L13.1612 18.5513L13.8806 17.2351ZM11.2319 16.6269L10.1194 17.2351L10.8388 18.5513L11.9514 17.9431L11.2319 16.6269ZM9.94591 17.0535L10.1584 15.7654L8.6784 15.5213L8.46592 16.8093L9.94591 17.0535ZM9.6999 14.3091L8.79982 13.3969L7.73209 14.4504L8.63217 15.3626L9.6999 14.3091ZM8.8643 13.1091L10.1082 12.9211L9.88411 11.438L8.64023 11.6259L8.8643 13.1091ZM11.3344 12.0021L11.8907 10.8302L10.5356 10.1869L9.9793 11.3589L11.3344 12.0021ZM10.1082 12.9211C10.6497 12.8393 11.1036 12.4882 11.3344 12.0021L9.9793 11.3589C9.95444 11.4112 9.91424 11.4334 9.88411 11.438L10.1082 12.9211ZM8.79981 13.3969C8.75416 13.3506 8.73685 13.2854 8.75976 13.2121C8.77094 13.1764 8.78901 13.1509 8.80553 13.1357C8.81941 13.1231 8.83631 13.1133 8.8643 13.1091L8.64023 11.6259C7.275 11.8321 6.80903 13.5149 7.73209 14.4504L8.79981 13.3969ZM10.1584 15.7654C10.2454 15.2379 10.079 14.6933 9.6999 14.3091L8.63217 15.3626C8.66671 15.3976 8.68902 15.4569 8.6784 15.5213L10.1584 15.7654ZM10.1194 17.2351C10.0912 17.2505 10.0742 17.2507 10.0637 17.2497C10.0498 17.2483 10.0293 17.2421 10.0071 17.2253C9.96395 17.1927 9.93227 17.1362 9.94591 17.0535L8.46592 16.8093C8.25243 18.1035 9.58716 19.2355 10.8388 18.5513L10.1194 17.2351ZM12.7681 16.6269C12.2883 16.3647 11.7117 16.3647 11.2319 16.6269L11.9514 17.9431C11.9829 17.9259 12.0171 17.9259 12.0486 17.9431L12.7681 16.6269ZM14.0541 17.0535C14.0677 17.1362 14.0361 17.1927 13.9929 17.2253C13.9707 17.2421 13.9502 17.2483 13.9363 17.2497C13.9258 17.2507 13.9088 17.2505 13.8806 17.2351L13.1612 18.5513C14.4128 19.2355 15.7476 18.1035 15.5341 16.8093L14.0541 17.0535ZM14.3001 14.3091C13.921 14.6933 13.7546 15.2379 13.8416 15.7654L15.3216 15.5213C15.311 15.4569 15.3333 15.3976 15.3678 15.3626L14.3001 14.3091ZM15.1357 13.1091C15.1637 13.1133 15.1806 13.1231 15.1945 13.1357C15.211 13.1509 15.2291 13.1764 15.2402 13.2121C15.2631 13.2854 15.2458 13.3506 15.2002 13.3969L16.2679 14.4504C17.191 13.5149 16.725 11.8321 15.3598 11.6259L15.1357 13.1091ZM12.6656 12.0021C12.8964 12.4882 13.3503 12.8393 13.8918 12.9211L14.1159 11.438C14.0858 11.4334 14.0456 11.4112 14.0207 11.3589L12.6656 12.0021ZM13.4644 10.1869C12.8714 8.93768 11.1286 8.93769 10.5356 10.1869L11.8907 10.8302C11.9095 10.7905 11.9298 10.7738 11.9432 10.7656C11.9589 10.7558 11.9785 10.75 12 10.75C12.0215 10.75 12.0411 10.7558 12.0568 10.7656C12.0702 10.7738 12.0905 10.7905 12.1093 10.8302L13.4644 10.1869Z" fill="#28303F"/>
</svg>
