<svg width="24" height="24" viewBox="0 0 24 24" fill="none" xmlns="http://www.w3.org/2000/svg">
<path d="M16.25 11C16.25 11.4142 16.5858 11.75 17 11.75C17.4142 11.75 17.75 11.4142 17.75 11H16.25ZM6.25 11C6.25 11.4142 6.58579 11.75 7 11.75C7.41421 11.75 7.75 11.4142 7.75 11H6.25ZM20.4697 11.4697C20.1768 11.7626 20.1768 12.2374 20.4697 12.5303C20.7626 12.8232 21.2374 12.8232 21.5303 12.5303L20.4697 11.4697ZM22.5303 11.5303C22.8232 11.2374 22.8232 10.7626 22.5303 10.4697C22.2374 10.1768 21.7626 10.1768 21.4697 10.4697L22.5303 11.5303ZM21.5303 19.4697C21.2374 19.1768 20.7626 19.1768 20.4697 19.4697C20.1768 19.7626 20.1768 20.2374 20.4697 20.5303L21.5303 19.4697ZM21.4697 21.5303C21.7626 21.8232 22.2374 21.8232 22.5303 21.5303C22.8232 21.2374 22.8232 20.7626 22.5303 20.4697L21.4697 21.5303ZM2.46967 12.5303C2.76256 12.8232 3.23744 12.8232 3.53033 12.5303C3.82322 12.2374 3.82322 11.7626 3.53033 11.4697L2.46967 12.5303ZM2.53033 10.4697C2.23744 10.1768 1.76256 10.1768 1.46967 10.4697C1.17678 10.7626 1.17678 11.2374 1.46967 11.5303L2.53033 10.4697ZM3.53033 20.5303C3.82322 20.2374 3.82322 19.7626 3.53033 19.4697C3.23744 19.1768 2.76256 19.1768 2.46967 19.4697L3.53033 20.5303ZM1.46967 20.4697C1.17678 20.7626 1.17678 21.2374 1.46967 21.5303C1.76256 21.8232 2.23744 21.8232 2.53033 21.5303L1.46967 20.4697ZM12 13H12.75C12.75 12.7401 12.6154 12.4987 12.3943 12.362C12.1732 12.2254 11.8971 12.2129 11.6646 12.3292L12 13ZM11.25 19C11.25 19.4142 11.5858 19.75 12 19.75C12.4142 19.75 12.75 19.4142 12.75 19H11.25ZM10.6646 12.8292C10.2941 13.0144 10.1439 13.4649 10.3292 13.8354C10.5144 14.2059 10.9649 14.3561 11.3354 14.1708L10.6646 12.8292ZM11 18.25C10.5858 18.25 10.25 18.5858 10.25 19C10.25 19.4142 10.5858 19.75 11 19.75V18.25ZM13 19.75C13.4142 19.75 13.75 19.4142 13.75 19C13.75 18.5858 13.4142 18.25 13 18.25V19.75ZM18.25 16C18.25 19.4518 15.4518 22.25 12 22.25V23.75C16.2802 23.75 19.75 20.2802 19.75 16H18.25ZM12 22.25C8.54822 22.25 5.75 19.4518 5.75 16H4.25C4.25 20.2802 7.71979 23.75 12 23.75V22.25ZM5.75 16C5.75 12.5482 8.54822 9.75 12 9.75V8.25C7.71979 8.25 4.25 11.7198 4.25 16H5.75ZM12 9.75C15.4518 9.75 18.25 12.5482 18.25 16H19.75C19.75 11.7198 16.2802 8.25 12 8.25V9.75ZM17.75 11V5H16.25V11H17.75ZM15 2.25H9V3.75H15V2.25ZM6.25 5V11H7.75V5H6.25ZM9 2.25C7.48122 2.25 6.25 3.48122 6.25 5H7.75C7.75 4.30964 8.30964 3.75 9 3.75V2.25ZM17.75 5C17.75 3.48122 16.5188 2.25 15 2.25V3.75C15.6904 3.75 16.25 4.30964 16.25 5H17.75ZM21.5303 12.5303L22.5303 11.5303L21.4697 10.4697L20.4697 11.4697L21.5303 12.5303ZM20.4697 20.5303L21.4697 21.5303L22.5303 20.4697L21.5303 19.4697L20.4697 20.5303ZM3.53033 11.4697L2.53033 10.4697L1.46967 11.5303L2.46967 12.5303L3.53033 11.4697ZM2.46967 19.4697L1.46967 20.4697L2.53033 21.5303L3.53033 20.5303L2.46967 19.4697ZM11.25 13V19H12.75V13H11.25ZM11.6646 12.3292L10.6646 12.8292L11.3354 14.1708L12.3354 13.6708L11.6646 12.3292ZM11 19.75H13V18.25H11V19.75Z" fill="#28303F"/>
</svg>
