<svg width="24" height="24" viewBox="0 0 24 24" fill="none" xmlns="http://www.w3.org/2000/svg">
<path d="M10 4V3.25C9.58579 3.25 9.25 3.58579 9.25 4H10ZM14 4H14.75C14.75 3.58579 14.4142 3.25 14 3.25V4ZM14 12V12.75C14.4142 12.75 14.75 12.4142 14.75 12H14ZM10 12H9.25C9.25 12.4142 9.58579 12.75 10 12.75V12ZM11.25 4C11.25 4.41421 11.5858 4.75 12 4.75C12.4142 4.75 12.75 4.41421 12.75 4H11.25ZM12.75 2C12.75 1.58579 12.4142 1.25 12 1.25C11.5858 1.25 11.25 1.58579 11.25 2H12.75ZM8 17.25C7.58579 17.25 7.25 17.5858 7.25 18C7.25 18.4142 7.58579 18.75 8 18.75V17.25ZM14.2499 5.6343C13.8594 5.49627 13.4309 5.70096 13.2929 6.0915C13.1548 6.48203 13.3595 6.91053 13.7501 7.04856L14.2499 5.6343ZM9 21.25C8.58579 21.25 8.25 21.5858 8.25 22C8.25 22.4142 8.58579 22.75 9 22.75V21.25ZM15 22.75C15.4142 22.75 15.75 22.4142 15.75 22C15.75 21.5858 15.4142 21.25 15 21.25V22.75ZM11.25 14C11.25 14.4142 11.5858 14.75 12 14.75C12.4142 14.75 12.75 14.4142 12.75 14H11.25ZM12.75 12C12.75 11.5858 12.4142 11.25 12 11.25C11.5858 11.25 11.25 11.5858 11.25 12H12.75ZM10 4.75H14V3.25H10V4.75ZM13.25 4V12H14.75V4H13.25ZM14 11.25H10V12.75H14V11.25ZM10.75 12V4H9.25V12H10.75ZM12.75 4V2H11.25V4H12.75ZM17.25 12C17.25 14.8995 14.8995 17.25 12 17.25V18.75C15.7279 18.75 18.75 15.7279 18.75 12H17.25ZM12 17.25H8V18.75H12V17.25ZM13.7501 7.04856C15.7902 7.76963 17.25 9.71531 17.25 12H18.75C18.75 9.05985 16.8706 6.56058 14.2499 5.6343L13.7501 7.04856ZM11.25 18V22H12.75V18H11.25ZM12 21.25H9V22.75H12V21.25ZM12 22.75H15V21.25H12V22.75ZM12.75 14V12H11.25V14H12.75Z" fill="#28303F"/>
</svg>
