<svg width="24" height="24" viewBox="0 0 24 24" fill="none" xmlns="http://www.w3.org/2000/svg">
<path d="M12.75 19C12.75 18.5858 12.4142 18.25 12 18.25C11.5858 18.25 11.25 18.5858 11.25 19H12.75ZM9 21.25C8.58579 21.25 8.25 21.5858 8.25 22C8.25 22.4142 8.58579 22.75 9 22.75V21.25ZM15 22.75C15.4142 22.75 15.75 22.4142 15.75 22C15.75 21.5858 15.4142 21.25 15 21.25V22.75ZM7 6.25C6.58579 6.25 6.25 6.58579 6.25 7C6.25 7.41421 6.58579 7.75 7 7.75V6.25ZM12 7.75C12.4142 7.75 12.75 7.41421 12.75 7C12.75 6.58579 12.4142 6.25 12 6.25V7.75ZM7 10.25C6.58579 10.25 6.25 10.5858 6.25 11C6.25 11.4142 6.58579 11.75 7 11.75V10.25ZM17 11.75C17.4142 11.75 17.75 11.4142 17.75 11C17.75 10.5858 17.4142 10.25 17 10.25V11.75ZM6 2.75H18V1.25H6V2.75ZM21.25 6V15H22.75V6H21.25ZM18 18.25H6V19.75H18V18.25ZM2.75 15V6H1.25V15H2.75ZM6 18.25C4.20507 18.25 2.75 16.7949 2.75 15H1.25C1.25 17.6234 3.37665 19.75 6 19.75V18.25ZM21.25 15C21.25 16.7949 19.7949 18.25 18 18.25V19.75C20.6234 19.75 22.75 17.6234 22.75 15H21.25ZM18 2.75C19.7949 2.75 21.25 4.20507 21.25 6H22.75C22.75 3.37665 20.6234 1.25 18 1.25V2.75ZM6 1.25C3.37665 1.25 1.25 3.37665 1.25 6H2.75C2.75 4.20507 4.20507 2.75 6 2.75V1.25ZM11.25 19V22H12.75V19H11.25ZM12 21.25H9V22.75H12V21.25ZM12 22.75H15V21.25H12V22.75ZM7 7.75H12V6.25H7V7.75ZM7 11.75H17V10.25H7V11.75ZM2 15.75H22V14.25H2V15.75Z" fill="#28303F"/>
</svg>
