<svg width="24" height="24" viewBox="0 0 24 24" fill="none" xmlns="http://www.w3.org/2000/svg">
<path d="M9.70196 8.64124C9.40907 8.34835 8.93419 8.34835 8.6413 8.64124C8.34841 8.93413 8.34841 9.40901 8.6413 9.7019L9.70196 8.64124ZM14.2982 15.3588C14.591 15.6516 15.0659 15.6516 15.3588 15.3588C15.6517 15.0659 15.6517 14.591 15.3588 14.2981L14.2982 15.3588ZM15.3587 9.7019C15.6516 9.40901 15.6516 8.93413 15.3587 8.64124C15.0658 8.34835 14.5909 8.34835 14.298 8.64124L15.3587 9.7019ZM8.64118 14.2981C8.34829 14.591 8.34829 15.0659 8.64118 15.3588C8.93408 15.6516 9.40895 15.6516 9.70184 15.3588L8.64118 14.2981ZM21.25 12C21.25 17.1086 17.1086 21.25 12 21.25V22.75C17.9371 22.75 22.75 17.9371 22.75 12H21.25ZM12 21.25C6.89137 21.25 2.75 17.1086 2.75 12H1.25C1.25 17.9371 6.06294 22.75 12 22.75V21.25ZM2.75 12C2.75 6.89137 6.89137 2.75 12 2.75V1.25C6.06294 1.25 1.25 6.06294 1.25 12H2.75ZM12 2.75C17.1086 2.75 21.25 6.89137 21.25 12H22.75C22.75 6.06294 17.9371 1.25 12 1.25V2.75ZM8.6413 9.7019L14.2982 15.3588L15.3588 14.2981L9.70196 8.64124L8.6413 9.7019ZM14.298 8.64124L8.64118 14.2981L9.70184 15.3588L15.3587 9.7019L14.298 8.64124Z" fill="#28303F"/>
</svg>
