<svg width="24" height="24" viewBox="0 0 24 24" fill="none" xmlns="http://www.w3.org/2000/svg">
<path d="M9.70196 8.64124C9.40907 8.34835 8.93419 8.34835 8.6413 8.64124C8.34841 8.93413 8.34841 9.40901 8.6413 9.7019L9.70196 8.64124ZM14.2982 15.3588C14.591 15.6516 15.0659 15.6516 15.3588 15.3588C15.6517 15.0659 15.6517 14.591 15.3588 14.2981L14.2982 15.3588ZM15.3587 9.7019C15.6516 9.40901 15.6516 8.93413 15.3587 8.64124C15.0658 8.34835 14.5909 8.34835 14.298 8.64124L15.3587 9.7019ZM8.64118 14.2981C8.34829 14.591 8.34829 15.0659 8.64118 15.3588C8.93408 15.6516 9.40895 15.6516 9.70184 15.3588L8.64118 14.2981ZM6 2.75H18V1.25H6V2.75ZM21.25 6V18H22.75V6H21.25ZM18 21.25H6V22.75H18V21.25ZM2.75 18V6H1.25V18H2.75ZM6 21.25C4.20507 21.25 2.75 19.7949 2.75 18H1.25C1.25 20.6234 3.37665 22.75 6 22.75V21.25ZM21.25 18C21.25 19.7949 19.7949 21.25 18 21.25V22.75C20.6234 22.75 22.75 20.6234 22.75 18H21.25ZM18 2.75C19.7949 2.75 21.25 4.20507 21.25 6H22.75C22.75 3.37665 20.6234 1.25 18 1.25V2.75ZM6 1.25C3.37665 1.25 1.25 3.37665 1.25 6H2.75C2.75 4.20507 4.20507 2.75 6 2.75V1.25ZM8.6413 9.7019L14.2982 15.3588L15.3588 14.2981L9.70196 8.64124L8.6413 9.7019ZM14.298 8.64124L8.64118 14.2981L9.70184 15.3588L15.3587 9.7019L14.298 8.64124Z" fill="#28303F"/>
</svg>
