<svg width="24" height="24" viewBox="0 0 24 24" fill="none" xmlns="http://www.w3.org/2000/svg">
<path d="M12.75 10.3748C12.75 9.96063 12.4142 9.62484 12 9.62484C11.5858 9.62484 11.25 9.96063 11.25 10.3748H12.75ZM11.25 21.4575C11.25 21.8717 11.5858 22.2075 12 22.2075C12.4142 22.2075 12.75 21.8717 12.75 21.4575H11.25ZM5.59546 8.00877L5.51356 8.75428L5.59546 8.00877ZM11.4535 9.88568L11.8757 9.26585L11.4535 9.88568ZM5.59546 19.9563L5.67737 19.2107L5.59546 19.9563ZM11.4535 21.8332L11.8757 21.2133H11.8757L11.4535 21.8332ZM18.4045 8.00877L18.3226 7.26325L18.4045 8.00877ZM12.5465 9.88568L12.1243 9.26585L12.5465 9.88568ZM18.4045 19.9563L18.3226 19.2107L18.4045 19.9563ZM12.5465 21.8332L12.1243 21.2133L12.5465 21.8332ZM9.62446 4.88592C9.26591 5.09333 9.14339 5.55213 9.3508 5.91067C9.5582 6.26922 10.017 6.39174 10.3755 6.18433L9.62446 4.88592ZM13.6245 6.18433C13.983 6.39174 14.4418 6.26922 14.6492 5.91067C14.8566 5.55213 14.7341 5.09333 14.3755 4.88592L13.6245 6.18433ZM7.57093 2.63955C7.23119 2.87652 7.14789 3.34403 7.38486 3.68376C7.62183 4.02349 8.08934 4.1068 8.42907 3.86983L7.57093 2.63955ZM15.5709 3.86983C15.9107 4.1068 16.3782 4.02349 16.6151 3.68376C16.8521 3.34403 16.7688 2.87652 16.4291 2.63955L15.5709 3.86983ZM11.25 10.3748V21.4575H12.75V10.3748H11.25ZM5.51356 8.75428C7.24824 8.94485 9.48504 9.45218 11.0312 10.5055L11.8757 9.26585C10.024 8.00432 7.49209 7.46262 5.67737 7.26325L5.51356 8.75428ZM5.51356 20.7018C7.24824 20.8923 9.48504 21.3997 11.0312 22.453L11.8757 21.2133C10.024 19.9518 7.49209 19.4101 5.67737 19.2107L5.51356 20.7018ZM3.25 9.50514V18.2666H4.75V9.50514H3.25ZM5.67737 19.2107C5.13089 19.1507 4.75 18.7171 4.75 18.2666H3.25C3.25 19.5757 4.30339 20.5688 5.51356 20.7018L5.67737 19.2107ZM5.67737 7.26325C4.30824 7.11284 3.25 8.22719 3.25 9.50514H4.75C4.75 9.02351 5.12603 8.71171 5.51356 8.75428L5.67737 7.26325ZM18.3226 7.26325C16.5079 7.46262 13.976 8.00432 12.1243 9.26585L12.9688 10.5055C14.515 9.45218 16.7518 8.94485 18.4864 8.75428L18.3226 7.26325ZM18.3226 19.2107C16.5079 19.4101 13.976 19.9518 12.1243 21.2133L12.9688 22.453C14.515 21.3997 16.7518 20.8923 18.4864 20.7018L18.3226 19.2107ZM19.25 9.50514V18.2666H20.75V9.50514H19.25ZM18.4864 20.7018C19.6966 20.5688 20.75 19.5757 20.75 18.2666H19.25C19.25 18.7171 18.8691 19.1507 18.3226 19.2107L18.4864 20.7018ZM18.4864 8.75428C18.874 8.71171 19.25 9.02351 19.25 9.50514H20.75C20.75 8.22719 19.6918 7.11284 18.3226 7.26325L18.4864 8.75428ZM11.0312 22.453C11.6125 22.849 12.3875 22.849 12.9688 22.453L12.1243 21.2133C12.0525 21.2622 11.9475 21.2622 11.8757 21.2133L11.0312 22.453ZM11.0312 10.5055C11.6125 10.9015 12.3875 10.9015 12.9688 10.5055L12.1243 9.26585C12.0525 9.31474 11.9475 9.31474 11.8757 9.26585L11.0312 10.5055ZM10.3755 6.18433C10.8528 5.90825 11.4068 5.75 12 5.75V4.25C11.1361 4.25 10.3239 4.48133 9.62446 4.88592L10.3755 6.18433ZM12 5.75C12.5932 5.75 13.1472 5.90825 13.6245 6.18433L14.3755 4.88592C13.6761 4.48133 12.8639 4.25 12 4.25V5.75ZM8.42907 3.86983C9.44113 3.1639 10.6711 2.75 12 2.75V1.25C10.3544 1.25 8.82654 1.76373 7.57093 2.63955L8.42907 3.86983ZM12 2.75C13.3289 2.75 14.5589 3.1639 15.5709 3.86983L16.4291 2.63955C15.1735 1.76373 13.6456 1.25 12 1.25V2.75Z" fill="#28303F"/>
</svg>
