<svg width="24" height="24" viewBox="0 0 24 24" fill="none" xmlns="http://www.w3.org/2000/svg">
<path d="M10.0128 21.8025L10.161 21.0673H10.161L10.0128 21.8025ZM19.0552 19.0869L18.5261 18.5554L19.0552 19.0869ZM11.75 7.5C11.75 6.25736 10.7426 5.25 9.5 5.25V6.75C9.91421 6.75 10.25 7.08579 10.25 7.5H11.75ZM9.5 5.25C8.25736 5.25 7.25 6.25736 7.25 7.5H8.75C8.75 7.08579 9.08579 6.75 9.5 6.75V5.25ZM7.25 7.5C7.25 8.74264 8.25736 9.75 9.5 9.75V8.25C9.08579 8.25 8.75 7.91421 8.75 7.5H7.25ZM9.5 9.75C10.7426 9.75 11.75 8.74264 11.75 7.5H10.25C10.25 7.91421 9.91421 8.25 9.5 8.25V9.75ZM19.25 10C19.25 8.75736 18.2426 7.75 17 7.75V9.25C17.4142 9.25 17.75 9.58579 17.75 10H19.25ZM17 7.75C15.7574 7.75 14.75 8.75736 14.75 10H16.25C16.25 9.58579 16.5858 9.25 17 9.25V7.75ZM14.75 10C14.75 11.2426 15.7574 12.25 17 12.25V10.75C16.5858 10.75 16.25 10.4142 16.25 10H14.75ZM17 12.25C18.2426 12.25 19.25 11.2426 19.25 10H17.75C17.75 10.4142 17.4142 10.75 17 10.75V12.25ZM10.25 15.5C10.25 14.2574 9.24264 13.25 8 13.25V14.75C8.41421 14.75 8.75 15.0858 8.75 15.5H10.25ZM8 13.25C6.75736 13.25 5.75 14.2574 5.75 15.5H7.25C7.25 15.0858 7.58579 14.75 8 14.75V13.25ZM5.75 15.5C5.75 16.7426 6.75736 17.75 8 17.75V16.25C7.58579 16.25 7.25 15.9142 7.25 15.5H5.75ZM8 17.75C9.24264 17.75 10.25 16.7426 10.25 15.5H8.75C8.75 15.9142 8.41421 16.25 8 16.25V17.75ZM10.161 21.0673C5.9333 20.2149 2.75 16.4784 2.75 12H1.25C1.25 17.2065 4.95055 21.547 9.86453 22.5378L10.161 21.0673ZM2.75 12C2.75 6.89137 6.89137 2.75 12 2.75V1.25C6.06294 1.25 1.25 6.06294 1.25 12H2.75ZM12 2.75C17.1086 2.75 21.25 6.89137 21.25 12H22.75C22.75 6.06294 17.9371 1.25 12 1.25V2.75ZM14.2222 14.9722C15.0353 14.9722 15.6944 15.6314 15.6944 16.4444H17.1944C17.1944 14.8029 15.8637 13.4722 14.2222 13.4722V14.9722ZM12.75 16.4444C12.75 15.6314 13.4091 14.9722 14.2222 14.9722V13.4722C12.5807 13.4722 11.25 14.8029 11.25 16.4444H12.75ZM15.6944 16.4444V17.7333H17.1944V16.4444H15.6944ZM21.25 12C21.25 14.562 20.2094 16.8795 18.5261 18.5554L19.5844 19.6184C21.5389 17.6725 22.75 14.977 22.75 12H21.25ZM11.25 16.4444V20H12.75V16.4444H11.25ZM15.6944 17.7333C15.6944 18.7415 16.2266 19.5991 16.9966 20.0183C17.7947 20.4528 18.8116 20.3878 19.5844 19.6184L18.5261 18.5554C18.2467 18.8335 17.9582 18.8339 17.7139 18.7009C17.4416 18.5526 17.1944 18.2097 17.1944 17.7333H15.6944ZM9.86453 22.5378C11.515 22.8705 12.75 21.4669 12.75 20H11.25C11.25 20.7422 10.6761 21.1712 10.161 21.0673L9.86453 22.5378Z" fill="#28303F"/>
</svg>
