<svg width="24" height="24" viewBox="0 0 24 24" fill="none" xmlns="http://www.w3.org/2000/svg">
<path d="M3 21L2.26905 20.832C2.2112 21.0838 2.287 21.3477 2.46967 21.5303C2.65234 21.713 2.91617 21.7888 3.16795 21.731L3 21ZM4.92815 15.57L4.39783 15.0397H4.39783L4.92815 15.57ZM3.76486 17.6712L4.49581 17.8392L3.76486 17.6712ZM8.43 19.0719L8.96033 19.6022L8.43 19.0719ZM6.32878 20.2351L6.16083 19.5042L6.32878 20.2351ZM19.4626 8.03936L18.9323 7.50903L19.4626 8.03936ZM15.9607 4.53755L16.4911 5.06788L15.9607 4.53755ZM21.5304 3.53031C21.8232 3.2374 21.8232 2.76253 21.5303 2.46965C21.2374 2.17677 20.7625 2.17679 20.4696 2.46969L21.5304 3.53031ZM18.6937 12.9939L18.1634 12.4636L18.6937 12.9939ZM16.6258 14.0011C16.3329 14.294 16.3329 14.7689 16.6258 15.0618C16.9187 15.3547 17.3936 15.3547 17.6865 15.0618L16.6258 14.0011ZM18.6937 9.91887L18.1634 10.4492L18.6937 9.91887ZM15.3802 5.54472C15.0873 5.25183 14.6124 5.25183 14.3195 5.54473C14.0266 5.83762 14.0266 6.31249 14.3195 6.60539L15.3802 5.54472ZM5.83651 15.0883C5.54362 14.7954 5.06874 14.7954 4.77585 15.0883C4.48296 15.3812 4.48296 15.8561 4.77586 16.149L5.83651 15.0883ZM7.85093 19.224C8.14383 19.5169 8.6187 19.5169 8.91159 19.224C9.20448 18.9311 9.20448 18.4563 8.91159 18.1634L7.85093 19.224ZM18.9323 7.50903L7.89968 18.5415L8.96033 19.6022L19.9929 8.5697L18.9323 7.50903ZM5.45848 16.1004L16.4911 5.06788L15.4304 4.00721L4.39783 15.0397L5.45848 16.1004ZM6.16083 19.5042L2.83205 20.269L3.16795 21.731L6.49673 20.9661L6.16083 19.5042ZM3.73095 21.168L4.49581 17.8392L3.03391 17.5033L2.26905 20.832L3.73095 21.168ZM4.39783 15.0397C3.72094 15.7166 3.24827 16.5703 3.03391 17.5033L4.49581 17.8392C4.64711 17.1807 4.98073 16.5781 5.45848 16.1004L4.39783 15.0397ZM7.89968 18.5415C7.42192 19.0193 6.81932 19.3529 6.16083 19.5042L6.49673 20.9661C7.42968 20.7517 8.28344 20.2791 8.96033 19.6022L7.89968 18.5415ZM18.9323 5.06788C19.6064 5.74198 19.6064 6.83492 18.9323 7.50903L19.9929 8.5697C21.2528 7.3098 21.2528 5.26711 19.9929 4.00721L18.9323 5.06788ZM19.9929 4.00721C18.733 2.74732 16.6903 2.74732 15.4304 4.00721L16.4911 5.06788C17.1652 4.39377 18.2581 4.39377 18.9323 5.06788L19.9929 4.00721ZM20.4696 2.46969L18.9322 4.00724L19.9929 5.06785L21.5304 3.53031L20.4696 2.46969ZM18.1634 12.4636L16.6258 14.0011L17.6865 15.0618L19.224 13.5243L18.1634 12.4636ZM19.224 9.38854L15.3802 5.54472L14.3195 6.60539L18.1634 10.4492L19.224 9.38854ZM19.224 13.5243C20.3661 12.3822 20.3661 10.5306 19.224 9.38854L18.1634 10.4492C18.7196 11.0055 18.7196 11.9073 18.1634 12.4636L19.224 13.5243ZM4.77586 16.149L7.85093 19.224L8.91159 18.1634L5.83651 15.0883L4.77586 16.149Z" fill="#28303F"/>
</svg>
