<svg width="24" height="24" viewBox="0 0 24 24" fill="none" xmlns="http://www.w3.org/2000/svg">
<path d="M3.5 21L2.87596 21.416C3.01506 21.6247 3.24924 21.75 3.5 21.75C3.75076 21.75 3.98494 21.6247 4.12404 21.416L3.5 21ZM2.6718 19.7577L3.29584 19.3417H3.29584L2.6718 19.7577ZM4.3282 19.7577L3.70416 19.3417L4.3282 19.7577ZM2 6.25C1.58579 6.25 1.25 6.58579 1.25 7C1.25 7.41421 1.58579 7.75 2 7.75V6.25ZM5 7.75C5.41421 7.75 5.75 7.41421 5.75 7C5.75 6.58579 5.41421 6.25 5 6.25V7.75ZM12 7.25C11.5858 7.25 11.25 7.58579 11.25 8C11.25 8.41421 11.5858 8.75 12 8.75V7.25ZM18 8.75C18.4142 8.75 18.75 8.41421 18.75 8C18.75 7.58579 18.4142 7.25 18 7.25V8.75ZM12 11.25C11.5858 11.25 11.25 11.5858 11.25 12C11.25 12.4142 11.5858 12.75 12 12.75V11.25ZM18 12.75C18.4142 12.75 18.75 12.4142 18.75 12C18.75 11.5858 18.4142 11.25 18 11.25V12.75ZM12 15.25C11.5858 15.25 11.25 15.5858 11.25 16C11.25 16.4142 11.5858 16.75 12 16.75V15.25ZM15 16.75C15.4142 16.75 15.75 16.4142 15.75 16C15.75 15.5858 15.4142 15.25 15 15.25V16.75ZM11 3.75H19V2.25H11V3.75ZM21.25 6V18H22.75V6H21.25ZM19 20.25H11V21.75H19V20.25ZM8.75 18V6H7.25V18H8.75ZM11 20.25C9.75736 20.25 8.75 19.2426 8.75 18H7.25C7.25 20.0711 8.92893 21.75 11 21.75V20.25ZM21.25 18C21.25 19.2426 20.2426 20.25 19 20.25V21.75C21.0711 21.75 22.75 20.0711 22.75 18H21.25ZM19 3.75C20.2426 3.75 21.25 4.75736 21.25 6H22.75C22.75 3.92893 21.0711 2.25 19 2.25V3.75ZM11 2.25C8.92893 2.25 7.25 3.92893 7.25 6H8.75C8.75 4.75736 9.75736 3.75 11 3.75V2.25ZM4.25 4.5V17.5389H5.75V4.5H4.25ZM2.75 17.5389V4.5H1.25V17.5389H2.75ZM3.70416 19.3417L2.87596 20.584L4.12404 21.416L4.95224 20.1737L3.70416 19.3417ZM4.12404 20.584L3.29584 19.3417L2.04776 20.1737L2.87596 21.416L4.12404 20.584ZM1.25 17.5389C1.25 18.4767 1.52758 19.3935 2.04776 20.1737L3.29584 19.3417C2.93992 18.8078 2.75 18.1805 2.75 17.5389H1.25ZM4.25 17.5389C4.25 18.1805 4.06008 18.8078 3.70416 19.3417L4.95224 20.1737C5.47242 19.3935 5.75 18.4767 5.75 17.5389H4.25ZM3.5 3.75C3.91421 3.75 4.25 4.08579 4.25 4.5H5.75C5.75 3.25736 4.74264 2.25 3.5 2.25V3.75ZM3.5 2.25C2.25736 2.25 1.25 3.25736 1.25 4.5H2.75C2.75 4.08579 3.08579 3.75 3.5 3.75V2.25ZM2 7.75H5V6.25H2V7.75ZM12 8.75H18V7.25H12V8.75ZM12 12.75H18V11.25H12V12.75ZM12 16.75H15V15.25H12V16.75Z" fill="#28303F"/>
</svg>
