<svg width="24" height="24" viewBox="0 0 24 24" fill="none" xmlns="http://www.w3.org/2000/svg">
<path d="M12 6.25C11.5858 6.25 11.25 6.58579 11.25 7C11.25 7.41421 11.5858 7.75 12 7.75V6.25ZM18 7.75C18.4142 7.75 18.75 7.41421 18.75 7C18.75 6.58579 18.4142 6.25 18 6.25V7.75ZM12 10.25C11.5858 10.25 11.25 10.5858 11.25 11C11.25 11.4142 11.5858 11.75 12 11.75V10.25ZM15 11.75C15.4142 11.75 15.75 11.4142 15.75 11C15.75 10.5858 15.4142 10.25 15 10.25V11.75ZM3.5 21L2.9 21.45C3.04164 21.6389 3.26393 21.75 3.5 21.75C3.73607 21.75 3.95836 21.6389 4.1 21.45L3.5 21ZM2.8 20.0667L2.2 20.5167H2.2L2.8 20.0667ZM4.2 20.0667L4.8 20.5167H4.8L4.2 20.0667ZM2 6.25C1.58579 6.25 1.25 6.58579 1.25 7C1.25 7.41421 1.58579 7.75 2 7.75V6.25ZM5 7.75C5.41421 7.75 5.75 7.41421 5.75 7C5.75 6.58579 5.41421 6.25 5 6.25V7.75ZM11 3.75H19V2.25H11V3.75ZM21.25 6V15H22.75V6H21.25ZM8.75 18V6H7.25V18H8.75ZM19 3.75C20.2426 3.75 21.25 4.75736 21.25 6H22.75C22.75 3.92893 21.0711 2.25 19 2.25V3.75ZM11 2.25C8.92893 2.25 7.25 3.92893 7.25 6H8.75C8.75 4.75736 9.75736 3.75 11 3.75V2.25ZM12 7.75H18V6.25H12V7.75ZM12 11.75H15V10.25H12V11.75ZM11 15.75H22V14.25H11V15.75ZM21.25 15V18H22.75V15H21.25ZM19 20.25H11V21.75H19V20.25ZM11 20.25C9.75736 20.25 8.75 19.2426 8.75 18H7.25C7.25 20.0711 8.92893 21.75 11 21.75V20.25ZM21.25 18C21.25 19.2426 20.2426 20.25 19 20.25V21.75C21.0711 21.75 22.75 20.0711 22.75 18H21.25ZM11 14.25C8.92893 14.25 7.25 15.9289 7.25 18H8.75C8.75 16.7574 9.75736 15.75 11 15.75V14.25ZM4.25 4.5V17.6667H5.75V4.5H4.25ZM2.75 17.6667V4.5H1.25V17.6667H2.75ZM3.6 19.6167L2.9 20.55L4.1 21.45L4.8 20.5167L3.6 19.6167ZM4.1 20.55L3.4 19.6167L2.2 20.5167L2.9 21.45L4.1 20.55ZM1.25 17.6667C1.25 18.6944 1.58334 19.6945 2.2 20.5167L3.4 19.6167C2.97808 19.0541 2.75 18.3699 2.75 17.6667H1.25ZM4.25 17.6667C4.25 18.3699 4.02192 19.0541 3.6 19.6167L4.8 20.5167C5.41666 19.6945 5.75 18.6944 5.75 17.6667H4.25ZM3.5 3.75C3.91421 3.75 4.25 4.08579 4.25 4.5H5.75C5.75 3.25736 4.74264 2.25 3.5 2.25V3.75ZM3.5 2.25C2.25736 2.25 1.25 3.25736 1.25 4.5H2.75C2.75 4.08579 3.08579 3.75 3.5 3.75V2.25ZM2 7.75H5V6.25H2V7.75Z" fill="#28303F"/>
</svg>
