<svg width="24" height="24" viewBox="0 0 24 24" fill="none" xmlns="http://www.w3.org/2000/svg">
<path d="M14.8113 14.8113C12.5546 17.068 10.1691 18.7198 8.16029 19.5807C7.15381 20.0121 6.27847 20.2291 5.58231 20.2486C4.88832 20.2679 4.44492 20.0923 4.17635 19.8237L3.11569 20.8844C3.76988 21.5386 4.67308 21.7745 5.62415 21.748C6.57303 21.7215 7.64116 21.4352 8.75117 20.9595C10.9753 20.0063 13.5149 18.2291 15.872 15.872L14.8113 14.8113ZM4.17635 19.8237C3.90778 19.5552 3.73216 19.1118 3.75152 18.4178C3.77095 17.7216 3.98799 16.8463 4.41934 15.8398C5.28027 13.8309 6.93206 11.4454 9.18877 9.18871L8.1281 8.12805C5.77101 10.4852 3.99383 13.0247 3.04062 15.2489C2.5649 16.3589 2.27858 17.427 2.25211 18.3759C2.22557 19.327 2.4615 20.2302 3.11569 20.8844L4.17635 19.8237ZM9.18877 9.18871C11.4455 6.93199 13.831 5.2802 15.8398 4.41926C16.8463 3.98791 17.7216 3.77087 18.4178 3.75144C19.1118 3.73208 19.5552 3.9077 19.8237 4.17627L20.8844 3.11561C20.2302 2.46142 19.327 2.22549 18.3759 2.25203C17.4271 2.2785 16.3589 2.56482 15.2489 3.04055C13.0248 3.99376 10.4852 5.77094 8.1281 8.12805L9.18877 9.18871ZM19.8237 4.17627C20.0923 4.44484 20.2679 4.88825 20.2486 5.58224C20.2291 6.2784 20.0121 7.15375 19.5807 8.16024C18.7198 10.1691 17.068 12.5546 14.8113 14.8113L15.872 15.872C18.2291 13.5149 20.0063 10.9753 20.9595 8.75111C21.4352 7.64109 21.7215 6.57296 21.748 5.62408C21.7745 4.67301 21.5386 3.76981 20.8844 3.11561L19.8237 4.17627ZM14.8112 9.1887C17.0679 11.4454 18.7197 13.8309 19.5807 15.8398C20.012 16.8462 20.2291 17.7216 20.2485 18.4178C20.2678 19.1117 20.0922 19.5552 19.8237 19.8237L20.8843 20.8844C21.5385 20.2302 21.7744 19.327 21.7479 18.3759C21.7214 17.427 21.4351 16.3589 20.9594 15.2489C20.0062 13.0247 18.229 10.4851 15.8719 8.12804L14.8112 9.1887ZM19.8237 19.8237C19.5551 20.0923 19.1117 20.2679 18.4177 20.2486C17.7215 20.2291 16.8462 20.0121 15.8397 19.5807C13.8309 18.7198 11.4454 17.068 9.18868 14.8113L8.12801 15.8719C10.4851 18.2291 13.0247 20.0062 15.2488 20.9595C16.3588 21.4352 17.427 21.7215 18.3759 21.748C19.3269 21.7745 20.2301 21.5386 20.8843 20.8844L19.8237 19.8237ZM9.18868 14.8113C6.93197 12.5546 5.28018 10.1691 4.41925 8.16023C3.9879 7.15374 3.77086 6.27839 3.75143 5.58223C3.73207 4.88824 3.90769 4.44483 4.17626 4.17626L3.1156 3.1156C2.46141 3.7698 2.22548 4.673 2.25202 5.62407C2.27849 6.57295 2.56481 7.64108 3.04053 8.7511C3.99374 10.9753 5.77092 13.5148 8.12801 15.8719L9.18868 14.8113ZM4.17626 4.17626C4.44483 3.90769 4.88823 3.73207 5.58222 3.75143C6.27838 3.77086 7.15372 3.9879 8.1602 4.41925C10.169 5.28019 12.5545 6.93198 14.8112 9.1887L15.8719 8.12804C13.5148 5.77093 10.9752 3.99375 8.75108 3.04054C7.64107 2.56481 6.57294 2.27849 5.62406 2.25202C4.67299 2.22548 3.76979 2.46141 3.1156 3.1156L4.17626 4.17626ZM13.25 12C13.25 12.6904 12.6904 13.25 12 13.25V14.75C13.5188 14.75 14.75 13.5188 14.75 12H13.25ZM12 13.25C11.3096 13.25 10.75 12.6904 10.75 12H9.25C9.25 13.5188 10.4812 14.75 12 14.75V13.25ZM10.75 12C10.75 11.3096 11.3096 10.75 12 10.75V9.25C10.4812 9.25 9.25 10.4812 9.25 12H10.75ZM12 10.75C12.6904 10.75 13.25 11.3096 13.25 12H14.75C14.75 10.4812 13.5188 9.25 12 9.25V10.75Z" fill="#28303F"/>
</svg>
