<svg width="24" height="24" viewBox="0 0 24 24" fill="none" xmlns="http://www.w3.org/2000/svg">
<path d="M13.5 12C13.5 12.8284 12.8284 13.5 12 13.5C11.1716 13.5 10.5 12.8284 10.5 12C10.5 11.1716 11.1716 10.5 12 10.5C12.8284 10.5 13.5 11.1716 13.5 12Z" fill="#28303F"/>
<path d="M12.75 2C12.75 1.58579 12.4142 1.25 12 1.25C11.5858 1.25 11.25 1.58579 11.25 2H12.75ZM11.25 4C11.25 4.41421 11.5858 4.75 12 4.75C12.4142 4.75 12.75 4.41421 12.75 4H11.25ZM4.25 22C4.25 22.4142 4.58579 22.75 5 22.75C5.41421 22.75 5.75 22.4142 5.75 22H4.25ZM18.25 22C18.25 22.4142 18.5858 22.75 19 22.75C19.4142 22.75 19.75 22.4142 19.75 22H18.25ZM19.5303 4.53033C19.8232 4.23744 19.8232 3.76256 19.5303 3.46967C19.2374 3.17678 18.7626 3.17678 18.4697 3.46967L19.5303 4.53033ZM16.9697 4.96967C16.6768 5.26256 16.6768 5.73744 16.9697 6.03033C17.2626 6.32322 17.7374 6.32322 18.0303 6.03033L16.9697 4.96967ZM5.53033 3.46967C5.23744 3.17678 4.76256 3.17678 4.46967 3.46967C4.17678 3.76256 4.17678 4.23744 4.46967 4.53033L5.53033 3.46967ZM5.96967 6.03033C6.26256 6.32322 6.73744 6.32322 7.03033 6.03033C7.32322 5.73744 7.32322 5.26256 7.03033 4.96967L5.96967 6.03033ZM20.25 14V18H21.75V14H20.25ZM19 19.25H5V20.75H19V19.25ZM3.75 18V14H2.25V18H3.75ZM19 11.25H17.0909V12.75H19V11.25ZM5 12.75H6.90909V11.25H5V12.75ZM5 19.25C4.30964 19.25 3.75 18.6904 3.75 18H2.25C2.25 19.5188 3.48122 20.75 5 20.75V19.25ZM20.25 18C20.25 18.6904 19.6904 19.25 19 19.25V20.75C20.5188 20.75 21.75 19.5188 21.75 18H20.25ZM21.75 14C21.75 12.4812 20.5188 11.25 19 11.25V12.75C19.6904 12.75 20.25 13.3096 20.25 14H21.75ZM3.75 14C3.75 13.3096 4.30964 12.75 5 12.75V11.25C3.48122 11.25 2.25 12.4812 2.25 14H3.75ZM16.25 12C16.25 14.3472 14.3472 16.25 12 16.25V17.75C15.1756 17.75 17.75 15.1756 17.75 12H16.25ZM12 16.25C9.65279 16.25 7.75 14.3472 7.75 12H6.25C6.25 15.1756 8.82436 17.75 12 17.75V16.25ZM7.75 12C7.75 9.65279 9.65279 7.75 12 7.75V6.25C8.82436 6.25 6.25 8.82436 6.25 12H7.75ZM12 7.75C14.3472 7.75 16.25 9.65279 16.25 12H17.75C17.75 8.82436 15.1756 6.25 12 6.25V7.75ZM11.25 2V4H12.75V2H11.25ZM4.25 20L4.25 22H5.75L5.75 20H4.25ZM18.25 20V22H19.75V20H18.25ZM18.4697 3.46967L16.9697 4.96967L18.0303 6.03033L19.5303 4.53033L18.4697 3.46967ZM4.46967 4.53033L5.96967 6.03033L7.03033 4.96967L5.53033 3.46967L4.46967 4.53033Z" fill="#28303F"/>
</svg>
