<svg width="24" height="24" viewBox="0 0 24 24" fill="none" xmlns="http://www.w3.org/2000/svg">
<path d="M12 21V22" stroke="#28303F" stroke-width="1.5" stroke-linecap="round"/>
<path d="M19.0713 4.92871L18.3642 5.63582" stroke="#28303F" stroke-width="1.5" stroke-linecap="round"/>
<path d="M5.63574 18.3638L4.92864 19.0709" stroke="#28303F" stroke-width="1.5" stroke-linecap="round"/>
<path d="M22 12L21 12" stroke="#28303F" stroke-width="1.5" stroke-linecap="round"/>
<path d="M19.0713 19.0713L18.3642 18.3642" stroke="#28303F" stroke-width="1.5" stroke-linecap="round"/>
<path d="M17.6586 10V10.75C17.9021 10.75 18.1304 10.6318 18.2709 10.433C18.4115 10.2343 18.4469 9.97961 18.3657 9.75007L17.6586 10ZM6.34141 10L5.63428 9.75006C5.55315 9.97961 5.58849 10.2343 5.72906 10.433C5.86963 10.6318 6.09795 10.75 6.34141 10.75V10ZM6.34141 14V13.25C6.09795 13.25 5.86963 13.3682 5.72906 13.567C5.58849 13.7657 5.55315 14.0204 5.63428 14.2499L6.34141 14ZM17.6586 14L18.3657 14.2499C18.4469 14.0204 18.4115 13.7657 18.2709 13.567C18.1304 13.3682 17.9021 13.25 17.6586 13.25V14ZM11.25 3C11.25 3.41421 11.5858 3.75 12 3.75C12.4142 3.75 12.75 3.41421 12.75 3H11.25ZM3 12.75C3.41421 12.75 3.75 12.4142 3.75 12C3.75 11.5858 3.41421 11.25 3 11.25V12.75ZM5.10566 6.16638C5.39855 6.45927 5.87342 6.45927 6.16632 6.16638C6.45921 5.87348 6.45921 5.39861 6.16632 5.10572L5.10566 6.16638ZM5.45921 4.39861C5.16632 4.10572 4.69144 4.10572 4.39855 4.39861C4.10566 4.6915 4.10566 5.16638 4.39855 5.45927L5.45921 4.39861ZM21.25 12C21.25 17.1086 17.1086 21.25 12 21.25V22.75C17.9371 22.75 22.75 17.9371 22.75 12H21.25ZM12 21.25C6.89137 21.25 2.75 17.1086 2.75 12H1.25C1.25 17.9371 6.06294 22.75 12 22.75V21.25ZM2.75 12C2.75 6.89137 6.89137 2.75 12 2.75V1.25C6.06294 1.25 1.25 6.06294 1.25 12H2.75ZM12 2.75C17.1086 2.75 21.25 6.89137 21.25 12H22.75C22.75 6.06294 17.9371 1.25 12 1.25V2.75ZM12 6.75C14.2847 6.75 16.2304 8.20984 16.9515 10.2499L18.3657 9.75007C17.4394 7.12939 14.9402 5.25 12 5.25V6.75ZM6.34141 10.75H17.6586V9.25L6.34141 9.25V10.75ZM7.04854 10.2499C7.76961 8.20984 9.71529 6.75 12 6.75V5.25C9.05984 5.25 6.56056 7.12939 5.63428 9.75006L7.04854 10.2499ZM12 17.25C9.71529 17.25 7.76961 15.7902 7.04854 13.7501L5.63428 14.2499C6.56056 16.8706 9.05984 18.75 12 18.75V17.25ZM17.6586 13.25H6.34141V14.75H17.6586V13.25ZM16.9515 13.7501C16.2304 15.7902 14.2847 17.25 12 17.25V18.75C14.9402 18.75 17.4394 16.8706 18.3657 14.2499L16.9515 13.7501ZM11.25 2V3H12.75V2H11.25ZM3 11.25H2V12.75H3V11.25ZM6.16632 5.10572L5.45921 4.39861L4.39855 5.45927L5.10566 6.16638L6.16632 5.10572Z" fill="#28303F"/>
</svg>
