<svg width="24" height="24" viewBox="0 0 24 24" fill="none" xmlns="http://www.w3.org/2000/svg">
<path d="M17.3726 8.17276L16.6427 8.34532L17.3726 8.17276ZM10 9.25C9.58579 9.25 9.25 9.58579 9.25 10C9.25 10.4142 9.58579 10.75 10 10.75V9.25ZM7.25 8C7.25 8.41421 7.58579 8.75 8 8.75C8.41421 8.75 8.75 8.41421 8.75 8H7.25ZM9.77778 3.75H10.8889V2.25H9.77778V3.75ZM2.75 14.25V10.875H1.25V14.25H2.75ZM1.25 14.25C1.25 15.898 2.57195 17.25 4.22222 17.25V15.75C3.41789 15.75 2.75 15.0872 2.75 14.25H1.25ZM16.8056 9.75C16.8056 13.0725 14.1478 15.75 10.8889 15.75V17.25C14.9938 17.25 18.3056 13.8833 18.3056 9.75H16.8056ZM9.77778 2.25C5.05926 2.25 1.25 6.12036 1.25 10.875H2.75C2.75 6.93116 5.9052 3.75 9.77778 3.75V2.25ZM22.75 18.75V15.375H21.25V18.75H22.75ZM13.1111 21.75H19.7778V20.25H13.1111V21.75ZM21.25 18.75C21.25 19.5872 20.5821 20.25 19.7778 20.25V21.75C21.428 21.75 22.75 20.398 22.75 18.75H21.25ZM17.0653 8.85694C19.528 9.96287 21.25 12.4631 21.25 15.375H22.75C22.75 11.8592 20.6691 8.83102 17.6798 7.48858L17.0653 8.85694ZM10.8889 3.75C13.6728 3.75 16.018 5.70302 16.6427 8.34532L18.1025 8.00019C17.3242 4.70829 14.3959 2.25 10.8889 2.25V3.75ZM16.6427 8.34532C16.749 8.79515 16.8056 9.26538 16.8056 9.75H18.3056C18.3056 9.14839 18.2354 8.56235 18.1025 8.00019L16.6427 8.34532ZM6.1157 16.7472C7.13109 19.6559 9.87481 21.75 13.1111 21.75V20.25C10.542 20.25 8.34688 18.5875 7.53189 16.2528L6.1157 16.7472ZM10.8889 15.75H6.82379V17.25H10.8889V15.75ZM6.82379 15.75H4.22222V17.25H6.82379V15.75ZM11.25 8C11.25 8.69036 10.6904 9.25 10 9.25V10.75C11.5188 10.75 12.75 9.51878 12.75 8H11.25ZM8.75 8C8.75 7.30964 9.30964 6.75 10 6.75V5.25C8.48122 5.25 7.25 6.48122 7.25 8H8.75ZM10 6.75C10.6904 6.75 11.25 7.30964 11.25 8H12.75C12.75 6.48122 11.5188 5.25 10 5.25V6.75Z" fill="#28303F"/>
<path d="M11 13C11 13.5523 10.5523 14 10 14C9.44772 14 9 13.5523 9 13C9 12.4477 9.44772 12 10 12C10.5523 12 11 12.4477 11 13Z" fill="#28303F"/>
</svg>
