<svg width="24" height="24" viewBox="0 0 24 24" fill="none" xmlns="http://www.w3.org/2000/svg">
<path d="M11 8.75H13V7.25H11V8.75ZM14.25 10V20H15.75V10H14.25ZM13 21.25H11V22.75H13V21.25ZM9.75 20V10H8.25V20H9.75ZM11 21.25C10.3096 21.25 9.75 20.6904 9.75 20H8.25C8.25 21.5188 9.48122 22.75 11 22.75V21.25ZM14.25 20C14.25 20.6904 13.6904 21.25 13 21.25V22.75C14.5188 22.75 15.75 21.5188 15.75 20H14.25ZM13 8.75C13.6904 8.75 14.25 9.30964 14.25 10H15.75C15.75 8.48122 14.5188 7.25 13 7.25V8.75ZM11 7.25C9.48122 7.25 8.25 8.48122 8.25 10H9.75C9.75 9.30964 10.3096 8.75 11 8.75V7.25ZM17 14.75H19V13.25H17V14.75ZM20.25 16V20H21.75V16H20.25ZM19 21.25H17V22.75H19V21.25ZM15.75 20V16H14.25V20H15.75ZM17 21.25C16.3096 21.25 15.75 20.6904 15.75 20H14.25C14.25 21.5188 15.4812 22.75 17 22.75V21.25ZM20.25 20C20.25 20.6904 19.6904 21.25 19 21.25V22.75C20.5188 22.75 21.75 21.5188 21.75 20H20.25ZM19 14.75C19.6904 14.75 20.25 15.3096 20.25 16H21.75C21.75 14.4812 20.5188 13.25 19 13.25V14.75ZM17 13.25C15.4812 13.25 14.25 14.4812 14.25 16H15.75C15.75 15.3096 16.3096 14.75 17 14.75V13.25ZM5 12.75H7V11.25H5V12.75ZM8.25 14V20H9.75V14H8.25ZM7 21.25H5V22.75H7V21.25ZM3.75 20V14H2.25V20H3.75ZM5 21.25C4.30964 21.25 3.75 20.6904 3.75 20H2.25C2.25 21.5188 3.48122 22.75 5 22.75V21.25ZM8.25 20C8.25 20.6904 7.69036 21.25 7 21.25V22.75C8.51878 22.75 9.75 21.5188 9.75 20H8.25ZM7 12.75C7.69036 12.75 8.25 13.3096 8.25 14H9.75C9.75 12.4812 8.51878 11.25 7 11.25V12.75ZM5 11.25C3.48122 11.25 2.25 12.4812 2.25 14H3.75C3.75 13.3096 4.30964 12.75 5 12.75V11.25Z" fill="#28303F"/>
<path d="M11.5245 1.96353C11.6741 1.50287 12.3259 1.50287 12.4755 1.96353L12.6324 2.4463C12.6993 2.65232 12.8913 2.7918 13.1079 2.7918H13.6155C14.0999 2.7918 14.3013 3.4116 13.9094 3.6963L13.4988 3.99468C13.3235 4.122 13.2502 4.34768 13.3171 4.5537L13.474 5.03647C13.6237 5.49713 13.0964 5.88019 12.7046 5.59549L12.2939 5.29712C12.1186 5.1698 11.8814 5.1698 11.7061 5.29712L11.2954 5.59549C10.9036 5.88019 10.3763 5.49713 10.526 5.03647L10.6829 4.5537C10.7498 4.34768 10.6765 4.122 10.5012 3.99468L10.0906 3.6963C9.69871 3.4116 9.90009 2.7918 10.3845 2.7918H10.8921C11.1087 2.7918 11.3007 2.65232 11.3676 2.4463L11.5245 1.96353Z" fill="#28303F"/>
</svg>
