<svg width="24" height="24" viewBox="0 0 24 24" fill="none" xmlns="http://www.w3.org/2000/svg">
<path d="M13.25 12C13.25 12.4142 13.5858 12.75 14 12.75C14.4142 12.75 14.75 12.4142 14.75 12H13.25ZM9.25 12C9.25 12.4142 9.58579 12.75 10 12.75C10.4142 12.75 10.75 12.4142 10.75 12H9.25ZM10 9.25C9.58579 9.25 9.25 9.58579 9.25 10C9.25 10.4142 9.58579 10.75 10 10.75V9.25ZM14 10.75C14.4142 10.75 14.75 10.4142 14.75 10C14.75 9.58579 14.4142 9.25 14 9.25V10.75ZM8 14.25C7.58579 14.25 7.25 14.5858 7.25 15C7.25 15.4142 7.58579 15.75 8 15.75V14.25ZM16 15.75C16.4142 15.75 16.75 15.4142 16.75 15C16.75 14.5858 16.4142 14.25 16 14.25V15.75ZM8 17.25C7.58579 17.25 7.25 17.5858 7.25 18C7.25 18.4142 7.58579 18.75 8 18.75V17.25ZM12 18.75C12.4142 18.75 12.75 18.4142 12.75 18C12.75 17.5858 12.4142 17.25 12 17.25V18.75ZM7 2.75H17V1.25H7V2.75ZM20.25 6V18H21.75V6H20.25ZM17 21.25H7V22.75H17V21.25ZM3.75 18V6H2.25V18H3.75ZM7 21.25C5.20507 21.25 3.75 19.7949 3.75 18H2.25C2.25 20.6234 4.37665 22.75 7 22.75V21.25ZM20.25 18C20.25 19.7949 18.7949 21.25 17 21.25V22.75C19.6234 22.75 21.75 20.6234 21.75 18H20.25ZM17 2.75C18.7949 2.75 20.25 4.20507 20.25 6H21.75C21.75 3.37665 19.6234 1.25 17 1.25V2.75ZM7 1.25C4.37665 1.25 2.25 3.37665 2.25 6H3.75C3.75 4.20507 5.20507 2.75 7 2.75V1.25ZM13.25 8V12H14.75V8H13.25ZM10.75 12V8H9.25V12H10.75ZM12 6.75C12.6904 6.75 13.25 7.30964 13.25 8H14.75C14.75 6.48122 13.5188 5.25 12 5.25V6.75ZM12 5.25C10.4812 5.25 9.25 6.48122 9.25 8H10.75C10.75 7.30964 11.3096 6.75 12 6.75V5.25ZM10 10.75H14V9.25H10V10.75ZM8 15.75H16V14.25H8V15.75ZM8 18.75H12V17.25H8V18.75Z" fill="#28303F"/>
</svg>
