<svg width="24" height="24" viewBox="0 0 24 24" fill="none" xmlns="http://www.w3.org/2000/svg">
<path d="M8.88193 21.3542L9.41226 21.8846L8.88193 21.3542ZM5.76385 21.3542L5.23352 21.8846L5.76385 21.3542ZM21.3542 5.76385L21.8846 5.23352L21.3542 5.76385ZM21.3542 8.88193L20.8239 8.35159L21.3542 8.88193ZM15.1181 2.64577L15.6484 3.1761L15.1181 2.64577ZM18.2361 2.64577L17.7058 3.1761V3.1761L18.2361 2.64577ZM2.64577 15.1181L2.11544 14.5877L2.64577 15.1181ZM2.64577 18.2361L3.1761 17.7058H3.1761L2.64577 18.2361ZM18.7665 8.35159C18.4736 8.05869 17.9988 8.05869 17.7059 8.35159C17.413 8.64448 17.413 9.11935 17.7059 9.41225L18.7665 8.35159ZM19.2649 10.9713C19.5578 11.2642 20.0327 11.2642 20.3256 10.9713C20.6185 10.6784 20.6185 10.2035 20.3256 9.91062L19.2649 10.9713ZM15.6484 11.4697C15.3555 11.1768 14.8806 11.1768 14.5877 11.4697C14.2948 11.7626 14.2948 12.2374 14.5877 12.5303L15.6484 11.4697ZM16.1468 14.0894C16.4397 14.3823 16.9145 14.3823 17.2074 14.0894C17.5003 13.7965 17.5003 13.3216 17.2074 13.0287L16.1468 14.0894ZM12.5304 14.5877C12.2375 14.2949 11.7626 14.2949 11.4697 14.5877C11.1768 14.8806 11.1768 15.3555 11.4697 15.6484L12.5304 14.5877ZM13.0288 17.2074C13.3216 17.5003 13.7965 17.5003 14.0894 17.2074C14.3823 16.9145 14.3823 16.4397 14.0894 16.1468L13.0288 17.2074ZM9.41236 17.7058C9.11947 17.4129 8.6446 17.4129 8.3517 17.7058C8.05881 17.9987 8.05881 18.4736 8.3517 18.7665L9.41236 17.7058ZM9.91074 20.3255C10.2036 20.6184 10.6785 20.6184 10.9714 20.3255C11.2643 20.0326 11.2643 19.5578 10.9714 19.2649L9.91074 20.3255ZM3.1761 15.6484L15.6484 3.1761L14.5877 2.11544L2.11544 14.5877L3.1761 15.6484ZM17.7058 3.1761L20.8239 6.29418L21.8846 5.23352L18.7665 2.11544L17.7058 3.1761ZM20.8239 8.35159L8.3516 20.8239L9.41226 21.8846L21.8846 9.41226L20.8239 8.35159ZM6.29418 20.8239L3.1761 17.7058L2.11544 18.7665L5.23352 21.8846L6.29418 20.8239ZM8.3516 20.8239C7.78346 21.392 6.86232 21.392 6.29418 20.8239L5.23352 21.8846C6.38745 23.0385 8.25833 23.0385 9.41226 21.8846L8.3516 20.8239ZM20.8239 6.29418C21.392 6.86232 21.392 7.78345 20.8239 8.35159L21.8846 9.41226C23.0385 8.25833 23.0385 6.38745 21.8846 5.23352L20.8239 6.29418ZM15.6484 3.1761C16.2165 2.60797 17.1377 2.60797 17.7058 3.1761L18.7665 2.11544C17.6126 0.961518 15.7417 0.961519 14.5877 2.11544L15.6484 3.1761ZM2.11544 14.5877C0.961519 15.7417 0.961518 17.6126 2.11544 18.7665L3.1761 17.7058C2.60797 17.1377 2.60797 16.2165 3.1761 15.6484L2.11544 14.5877ZM17.7059 9.41225L19.2649 10.9713L20.3256 9.91062L18.7665 8.35159L17.7059 9.41225ZM14.5877 12.5303L16.1468 14.0894L17.2074 13.0287L15.6484 11.4697L14.5877 12.5303ZM11.4697 15.6484L13.0288 17.2074L14.0894 16.1468L12.5304 14.5877L11.4697 15.6484ZM8.3517 18.7665L9.91074 20.3255L10.9714 19.2649L9.41236 17.7058L8.3517 18.7665Z" fill="#28303F"/>
</svg>
