<svg width="24" height="24" viewBox="0 0 24 24" fill="none" xmlns="http://www.w3.org/2000/svg">
<path d="M15 21.9998V22.7498H15.75V21.9998H15ZM9 21.9998H8.25V22.7498H9V21.9998ZM7.54783 5.56152L8.01635 6.14717L7.54783 5.56152ZM16.4522 5.56152L16.9207 4.97587L16.4522 5.56152ZM13.2494 2.9993L12.7809 3.58495V3.58495L13.2494 2.9993ZM10.7506 2.9993L10.2821 2.41365V2.41365L10.7506 2.9993ZM14.25 17.9998V21.9998H15.75V17.9998H14.25ZM15 21.2498H9V22.7498H15V21.2498ZM9.75 21.9998V17.9998H8.25V21.9998H9.75ZM12 15.7498C13.2426 15.7498 14.25 16.7571 14.25 17.9998H15.75C15.75 15.9287 14.0711 14.2498 12 14.2498V15.7498ZM12 14.2498C9.92893 14.2498 8.25 15.9287 8.25 17.9998H9.75C9.75 16.7571 10.7574 15.7498 12 15.7498V14.2498ZM21.25 7.99979V19.9998H22.75V7.99979H21.25ZM20 21.2498H4V22.7498H20V21.2498ZM2.75 19.9998V7.99979H1.25V19.9998H2.75ZM12.7809 3.58495L15.9837 6.14717L16.9207 4.97587L13.7179 2.41365L12.7809 3.58495ZM17.7016 6.74979H20V5.24979H17.7016V6.74979ZM4 6.74979H6.29844V5.24979H4V6.74979ZM8.01635 6.14717L11.2191 3.58495L10.2821 2.41365L7.07931 4.97587L8.01635 6.14717ZM6.29844 6.74979C6.92288 6.74979 7.52874 6.53726 8.01635 6.14717L7.07931 4.97587C6.85767 5.15318 6.58228 5.24979 6.29844 5.24979V6.74979ZM15.9837 6.14717C16.4713 6.53726 17.0771 6.74979 17.7016 6.74979V5.24979C17.4177 5.24979 17.1423 5.15318 16.9207 4.97587L15.9837 6.14717ZM13.7179 2.41365C12.7136 1.61016 11.2864 1.61017 10.2821 2.41365L11.2191 3.58495C11.6757 3.21973 12.3243 3.21973 12.7809 3.58495L13.7179 2.41365ZM4 21.2498C3.30964 21.2498 2.75 20.6901 2.75 19.9998H1.25C1.25 21.5186 2.48122 22.7498 4 22.7498V21.2498ZM21.25 19.9998C21.25 20.6901 20.6904 21.2498 20 21.2498V22.7498C21.5188 22.7498 22.75 21.5186 22.75 19.9998H21.25ZM22.75 7.99979C22.75 6.481 21.5188 5.24979 20 5.24979V6.74979C20.6904 6.74979 21.25 7.30943 21.25 7.99979H22.75ZM2.75 7.99979C2.75 7.30943 3.30964 6.74979 4 6.74979V5.24979C2.48122 5.24979 1.25 6.481 1.25 7.99979H2.75ZM14.75 9.99979C14.75 8.481 13.5188 7.24979 12 7.24979V8.74979C12.6904 8.74979 13.25 9.30943 13.25 9.99979H14.75ZM12 7.24979C10.4812 7.24979 9.25 8.481 9.25 9.99979H10.75C10.75 9.30943 11.3096 8.74979 12 8.74979V7.24979ZM9.25 9.99979C9.25 11.5186 10.4812 12.7498 12 12.7498V11.2498C11.3096 11.2498 10.75 10.6901 10.75 9.99979H9.25ZM12 12.7498C13.5188 12.7498 14.75 11.5186 14.75 9.99979H13.25C13.25 10.6901 12.6904 11.2498 12 11.2498V12.7498Z" fill="#28303F"/>
</svg>
