<svg width="24" height="24" viewBox="0 0 24 24" fill="none" xmlns="http://www.w3.org/2000/svg">
<path d="M13.25 12C13.25 12.4142 13.5858 12.75 14 12.75C14.4142 12.75 14.75 12.4142 14.75 12H13.25ZM9.25 12C9.25 12.4142 9.58579 12.75 10 12.75C10.4142 12.75 10.75 12.4142 10.75 12H9.25ZM10 9.25C9.58579 9.25 9.25 9.58579 9.25 10C9.25 10.4142 9.58579 10.75 10 10.75V9.25ZM14 10.75C14.4142 10.75 14.75 10.4142 14.75 10C14.75 9.58579 14.4142 9.25 14 9.25V10.75ZM11 18.25C10.5858 18.25 10.25 18.5858 10.25 19C10.25 19.4142 10.5858 19.75 11 19.75V18.25ZM13 19.75C13.4142 19.75 13.75 19.4142 13.75 19C13.75 18.5858 13.4142 18.25 13 18.25V19.75ZM9 14.25C8.58579 14.25 8.25 14.5858 8.25 15C8.25 15.4142 8.58579 15.75 9 15.75V14.25ZM15 15.75C15.4142 15.75 15.75 15.4142 15.75 15C15.75 14.5858 15.4142 14.25 15 14.25V15.75ZM9 2.75H15V1.25H9V2.75ZM18.25 6V18H19.75V6H18.25ZM15 21.25H9V22.75H15V21.25ZM5.75 18V6H4.25V18H5.75ZM9 21.25C7.20507 21.25 5.75 19.7949 5.75 18H4.25C4.25 20.6234 6.37665 22.75 9 22.75V21.25ZM18.25 18C18.25 19.7949 16.7949 21.25 15 21.25V22.75C17.6234 22.75 19.75 20.6234 19.75 18H18.25ZM15 2.75C16.7949 2.75 18.25 4.20507 18.25 6H19.75C19.75 3.37665 17.6234 1.25 15 1.25V2.75ZM9 1.25C6.37665 1.25 4.25 3.37665 4.25 6H5.75C5.75 4.20507 7.20507 2.75 9 2.75V1.25ZM13.25 8V12H14.75V8H13.25ZM10.75 12V8H9.25V12H10.75ZM12 6.75C12.6904 6.75 13.25 7.30964 13.25 8H14.75C14.75 6.48122 13.5188 5.25 12 5.25V6.75ZM12 5.25C10.4812 5.25 9.25 6.48122 9.25 8H10.75C10.75 7.30964 11.3096 6.75 12 6.75V5.25ZM10 10.75H14V9.25H10V10.75ZM11 19.75H13V18.25H11V19.75ZM9 15.75H15V14.25H9V15.75Z" fill="#28303F"/>
</svg>
