<svg width="24" height="24" viewBox="0 0 24 24" fill="none" xmlns="http://www.w3.org/2000/svg">
<path d="M3 12.25C2.58579 12.25 2.25 12.5858 2.25 13C2.25 13.4142 2.58579 13.75 3 13.75V12.25ZM5.3 13.4L4.7 13.85H4.7L5.3 13.4ZM6.81141 15.4152L7.41141 14.9652L6.81141 15.4152ZM8.56923 15.1026L7.85086 14.887H7.85086L8.56923 15.1026ZM10.7862 7.71265L10.0678 7.49714V7.49714L10.7862 7.71265ZM21 7.75C21.4142 7.75 21.75 7.41421 21.75 7C21.75 6.58579 21.4142 6.25 21 6.25V7.75ZM18.6517 12.2877C18.9446 11.9948 18.9446 11.5199 18.6517 11.227C18.3588 10.9341 17.8839 10.9341 17.591 11.227L18.6517 12.2877ZM13.3484 15.4697C13.0555 15.7626 13.0555 16.2374 13.3484 16.5303C13.6413 16.8232 14.1161 16.8232 14.409 16.5303L13.3484 15.4697ZM17.591 16.5303C17.8839 16.8232 18.3588 16.8232 18.6517 16.5303C18.9446 16.2374 18.9446 15.7626 18.6517 15.4697L17.591 16.5303ZM14.409 11.227C14.1161 10.9341 13.6413 10.9341 13.3484 11.227C13.0555 11.5199 13.0555 11.9948 13.3484 12.2877L14.409 11.227ZM3 13.75H4.5V12.25H3V13.75ZM4.7 13.85L6.21141 15.8652L7.41141 14.9652L5.9 12.95L4.7 13.85ZM9.2876 15.3181L11.5046 7.92816L10.0678 7.49714L7.85086 14.887L9.2876 15.3181ZM11.744 7.75H21V6.25H11.744V7.75ZM11.5046 7.92816C11.5363 7.82242 11.6336 7.75 11.744 7.75V6.25C10.9712 6.25 10.2899 6.75692 10.0678 7.49714L11.5046 7.92816ZM6.21141 15.8652C7.07295 17.0139 8.875 16.6934 9.2876 15.3181L7.85086 14.887C7.79192 15.0835 7.53449 15.1293 7.41141 14.9652L6.21141 15.8652ZM4.5 13.75C4.57869 13.75 4.65279 13.787 4.7 13.85L5.9 12.95C5.5695 12.5093 5.05083 12.25 4.5 12.25V13.75ZM17.591 11.227L13.3484 15.4697L14.409 16.5303L18.6517 12.2877L17.591 11.227ZM18.6517 15.4697L14.409 11.227L13.3484 12.2877L17.591 16.5303L18.6517 15.4697Z" fill="#28303F"/>
</svg>
