<svg width="24" height="24" viewBox="0 0 24 24" fill="none" xmlns="http://www.w3.org/2000/svg">
<path d="M6 22L5.37596 22.416C5.51506 22.6247 5.74924 22.75 6 22.75C6.25076 22.75 6.48494 22.6247 6.62404 22.416L6 22ZM4.6718 20.0077L4.04776 20.4237H4.04776L4.6718 20.0077ZM7.3282 20.0077L6.70416 19.5917L7.3282 20.0077ZM4 5.25C3.58579 5.25 3.25 5.58579 3.25 6C3.25 6.41421 3.58579 6.75 4 6.75V5.25ZM8 6.75C8.41421 6.75 8.75 6.41421 8.75 6C8.75 5.58579 8.41421 5.25 8 5.25V6.75ZM17 5.25C16.5858 5.25 16.25 5.58579 16.25 6C16.25 6.41421 16.5858 6.75 17 6.75V5.25ZM19 6.75C19.4142 6.75 19.75 6.41421 19.75 6C19.75 5.58579 19.4142 5.25 19 5.25V6.75ZM17 9.25C16.5858 9.25 16.25 9.58579 16.25 10C16.25 10.4142 16.5858 10.75 17 10.75V9.25ZM19 10.75C19.4142 10.75 19.75 10.4142 19.75 10C19.75 9.58579 19.4142 9.25 19 9.25V10.75ZM17 13.25C16.5858 13.25 16.25 13.5858 16.25 14C16.25 14.4142 16.5858 14.75 17 14.75V13.25ZM19 14.75C19.4142 14.75 19.75 14.4142 19.75 14C19.75 13.5858 19.4142 13.25 19 13.25V14.75ZM17 17.25C16.5858 17.25 16.25 17.5858 16.25 18C16.25 18.4142 16.5858 18.75 17 18.75V17.25ZM19 18.75C19.4142 18.75 19.75 18.4142 19.75 18C19.75 17.5858 19.4142 17.25 19 17.25V18.75ZM13 2.75H17V1.25H13V2.75ZM18.25 4V20H19.75V4H18.25ZM17 21.25H13V22.75H17V21.25ZM11.75 20V4H10.25V20H11.75ZM13 21.25C12.3096 21.25 11.75 20.6904 11.75 20H10.25C10.25 21.5188 11.4812 22.75 13 22.75V21.25ZM18.25 20C18.25 20.6904 17.6904 21.25 17 21.25V22.75C18.5188 22.75 19.75 21.5188 19.75 20H18.25ZM17 2.75C17.6904 2.75 18.25 3.30964 18.25 4H19.75C19.75 2.48122 18.5188 1.25 17 1.25V2.75ZM13 1.25C11.4812 1.25 10.25 2.48122 10.25 4H11.75C11.75 3.30964 12.3096 2.75 13 2.75V1.25ZM7.25 4V17.7889H8.75V4H7.25ZM4.75 17.7889V4H3.25V17.7889H4.75ZM6.70416 19.5917L5.37596 21.584L6.62404 22.416L7.95224 20.4237L6.70416 19.5917ZM6.62404 21.584L5.29584 19.5917L4.04776 20.4237L5.37596 22.416L6.62404 21.584ZM3.25 17.7889C3.25 18.7267 3.52758 19.6435 4.04776 20.4237L5.29584 19.5917C4.93992 19.0578 4.75 18.4305 4.75 17.7889H3.25ZM7.25 17.7889C7.25 18.4305 7.06008 19.0578 6.70416 19.5917L7.95224 20.4237C8.47242 19.6435 8.75 18.7267 8.75 17.7889H7.25ZM6 2.75C6.69036 2.75 7.25 3.30964 7.25 4H8.75C8.75 2.48122 7.51878 1.25 6 1.25V2.75ZM6 1.25C4.48122 1.25 3.25 2.48122 3.25 4H4.75C4.75 3.30964 5.30964 2.75 6 2.75V1.25ZM4 6.75H8V5.25H4V6.75ZM17 6.75H19V5.25H17V6.75ZM17 10.75H19V9.25H17V10.75ZM17 14.75H19V13.25H17V14.75ZM17 18.75H19V17.25H17V18.75Z" fill="#28303F"/>
</svg>
