<svg width="24" height="24" viewBox="0 0 24 24" fill="none" xmlns="http://www.w3.org/2000/svg">
<path d="M14 6V6.75H14.75V6H14ZM10 6H9.25V6.75H10V6ZM18 12.75C18.4142 12.75 18.75 12.4142 18.75 12C18.75 11.5858 18.4142 11.25 18 11.25V12.75ZM15 11.25C14.5858 11.25 14.25 11.5858 14.25 12C14.25 12.4142 14.5858 12.75 15 12.75V11.25ZM18 16.75C18.4142 16.75 18.75 16.4142 18.75 16C18.75 15.5858 18.4142 15.25 18 15.25V16.75ZM15 15.25C14.5858 15.25 14.25 15.5858 14.25 16C14.25 16.4142 14.5858 16.75 15 16.75V15.25ZM5 6.75H19V5.25H5V6.75ZM21.25 9V19H22.75V9H21.25ZM19 21.25H5V22.75H19V21.25ZM2.75 19V9H1.25V19H2.75ZM5 21.25C3.75736 21.25 2.75 20.2426 2.75 19H1.25C1.25 21.0711 2.92893 22.75 5 22.75V21.25ZM21.25 19C21.25 20.2426 20.2426 21.25 19 21.25V22.75C21.0711 22.75 22.75 21.0711 22.75 19H21.25ZM19 6.75C20.2426 6.75 21.25 7.75736 21.25 9H22.75C22.75 6.92893 21.0711 5.25 19 5.25V6.75ZM5 5.25C2.92893 5.25 1.25 6.92893 1.25 9H2.75C2.75 7.75736 3.75736 6.75 5 6.75V5.25ZM11 17.25H7V18.75H11V17.25ZM7 17.25C6.86193 17.25 6.75 17.1381 6.75 17H5.25C5.25 17.9665 6.0335 18.75 7 18.75V17.25ZM11.25 17C11.25 17.1381 11.1381 17.25 11 17.25V18.75C11.9665 18.75 12.75 17.9665 12.75 17H11.25ZM9 14.75C10.2426 14.75 11.25 15.7574 11.25 17H12.75C12.75 14.9289 11.0711 13.25 9 13.25V14.75ZM9 13.25C6.92893 13.25 5.25 14.9289 5.25 17H6.75C6.75 15.7574 7.75736 14.75 9 14.75V13.25ZM13.25 4V6H14.75V4H13.25ZM14 5.25H10V6.75H14V5.25ZM10.75 6V4H9.25V6H10.75ZM12 2.75C12.6904 2.75 13.25 3.30964 13.25 4H14.75C14.75 2.48122 13.5188 1.25 12 1.25V2.75ZM12 1.25C10.4812 1.25 9.25 2.48122 9.25 4H10.75C10.75 3.30964 11.3096 2.75 12 2.75V1.25ZM18 11.25L15 11.25V12.75L18 12.75V11.25ZM18 15.25L15 15.25V16.75L18 16.75V15.25ZM10.25 12C10.25 12.6904 9.69036 13.25 9 13.25V14.75C10.5188 14.75 11.75 13.5188 11.75 12H10.25ZM9 13.25C8.30964 13.25 7.75 12.6904 7.75 12H6.25C6.25 13.5188 7.48122 14.75 9 14.75V13.25ZM7.75 12C7.75 11.3096 8.30964 10.75 9 10.75V9.25C7.48122 9.25 6.25 10.4812 6.25 12H7.75ZM9 10.75C9.69036 10.75 10.25 11.3096 10.25 12H11.75C11.75 10.4812 10.5188 9.25 9 9.25V10.75Z" fill="#28303F"/>
</svg>
