<svg width="24" height="24" viewBox="0 0 24 24" fill="none" xmlns="http://www.w3.org/2000/svg">
<path d="M20 5V10.5" stroke="#28303F" stroke-width="1.5" stroke-linecap="round"/>
<path d="M16.75 7V6.25H15.25V7H16.75ZM8.75 7V6.25H7.25V7H8.75ZM12 2L12.2633 1.29775C12.0936 1.23408 11.9064 1.23408 11.7367 1.29775L12 2ZM4 5L3.73666 4.29775C3.44393 4.40753 3.25 4.68737 3.25 5C3.25 5.31263 3.44393 5.59247 3.73666 5.70225L4 5ZM12 8L11.7367 8.70225C11.9064 8.76592 12.0936 8.76592 12.2633 8.70225L12 8ZM20 5L20.2633 5.70225C20.5561 5.59247 20.75 5.31263 20.75 5C20.75 4.68737 20.5561 4.40753 20.2633 4.29775L20 5ZM12.711 17.0059L12.1778 16.4785V16.4785L12.711 17.0059ZM14.2996 15.3996L14.8328 15.927L14.8328 15.927L14.2996 15.3996ZM15.238 15.1441L15.4496 14.4246L15.238 15.1441ZM9.70045 15.3996L10.2337 14.8722L9.70045 15.3996ZM11.289 17.0059L11.8222 16.4785L11.289 17.0059ZM8.762 15.1441L8.5504 14.4246L8.762 15.1441ZM19.25 22C19.25 22.4142 19.5858 22.75 20 22.75C20.4142 22.75 20.75 22.4142 20.75 22H19.25ZM3.25 22C3.25 22.4142 3.58579 22.75 4 22.75C4.41421 22.75 4.75 22.4142 4.75 22H3.25ZM15.25 7V9H16.75V7H15.25ZM8.75 9V7H7.25V9H8.75ZM12 12.25C10.2051 12.25 8.75 10.7949 8.75 9H7.25C7.25 11.6234 9.37665 13.75 12 13.75V12.25ZM15.25 9C15.25 10.7949 13.7949 12.25 12 12.25V13.75C14.6234 13.75 16.75 11.6234 16.75 9H15.25ZM11.7367 1.29775L3.73666 4.29775L4.26334 5.70225L12.2633 2.70225L11.7367 1.29775ZM12.2633 8.70225L20.2633 5.70225L19.7367 4.29775L11.7367 7.29775L12.2633 8.70225ZM11.7367 2.70225L19.7367 5.70225L20.2633 4.29775L12.2633 1.29775L11.7367 2.70225ZM12.2633 7.29775L4.26334 4.29775L3.73666 5.70225L11.7367 8.70225L12.2633 7.29775ZM13.2443 17.5332L14.8328 15.927L13.7663 14.8722L12.1778 16.4785L13.2443 17.5332ZM15.0264 15.8637C17.6994 16.6497 19.25 18.3265 19.25 20H20.75C20.75 17.3393 18.3869 15.2884 15.4496 14.4246L15.0264 15.8637ZM9.16718 15.927L10.7557 17.5332L11.8222 16.4785L10.2337 14.8722L9.16718 15.927ZM4.75 20C4.75 18.3265 6.30063 16.6497 8.97359 15.8637L8.5504 14.4246C5.61309 15.2884 3.25 17.3393 3.25 20H4.75ZM19.25 20V22H20.75V20H19.25ZM3.25 20V22H4.75V20H3.25ZM10.2337 14.8722C9.81027 14.444 9.17106 14.2421 8.5504 14.4246L8.97359 15.8637C9.02255 15.8493 9.09983 15.8589 9.16718 15.927L10.2337 14.8722ZM14.8328 15.927C14.9002 15.8589 14.9774 15.8493 15.0264 15.8637L15.4496 14.4246C14.8289 14.2421 14.1897 14.444 13.7663 14.8722L14.8328 15.927ZM12.1778 16.4785C12.0799 16.5774 11.9201 16.5774 11.8222 16.4785L10.7557 17.5332C11.4407 18.2259 12.5593 18.2259 13.2443 17.5332L12.1778 16.4785Z" fill="#28303F"/>
</svg>
