<svg width="24" height="24" viewBox="0 0 24 24" fill="none" xmlns="http://www.w3.org/2000/svg">
<path d="M19.5581 10.7383L19.2416 10.0583L20.3081 9.56186V10.7383H19.5581ZM15.4385 10.7847H14.6885V9.62505L15.7461 10.1007L15.4385 10.7847ZM16.1885 10.7847V11.8283H14.6885V10.7847H16.1885ZM18.8081 11.8283V10.7383H20.3081V11.8283H18.8081ZM15.7461 10.1007L16.9561 10.6448L16.3409 12.0129L15.1309 11.4687L15.7461 10.1007ZM17.9964 10.638L19.2416 10.0583L19.8746 11.4182L18.6294 11.9979L17.9964 10.638ZM16.9561 10.6448C17.2874 10.7938 17.6671 10.7913 17.9964 10.638L18.6294 11.9979C17.905 12.3351 17.0697 12.3406 16.3409 12.0129L16.9561 10.6448ZM17.4983 13.1381C18.2217 13.1381 18.8081 12.5517 18.8081 11.8283H20.3081C20.3081 13.3801 19.0501 14.6381 17.4983 14.6381L17.4983 13.1381ZM16.1885 11.8283C16.1885 12.5517 16.7749 13.1381 17.4983 13.1381L17.4983 14.6381C15.9465 14.6381 14.6885 13.3801 14.6885 11.8283H16.1885Z" fill="#28303F"/>
<path d="M18.1005 7.89027L17.7959 8.57563V8.57563L18.1005 7.89027ZM21.5219 9.41092L21.2173 10.0963H21.2173L21.5219 9.41092ZM16.8659 11.3945L17.1706 10.7092L17.1706 10.7092L16.8659 11.3945ZM13.4445 9.87387L13.7491 9.18851L13.4445 9.87387ZM16.8659 7.89027L17.1706 8.57563V8.57563L16.8659 7.89027ZM13.4445 9.41092L13.7491 10.0963L13.7491 10.0963L13.4445 9.41092ZM18.1005 11.3945L17.7959 10.7092L17.7959 10.7092L18.1005 11.3945ZM21.5219 9.87387L21.8265 10.5592H21.8265L21.5219 9.87387ZM18.4051 7.20491L21.8265 8.72556L21.2173 10.0963L17.7959 8.57563L18.4051 7.20491ZM16.5613 12.0799L13.1399 10.5592L13.7491 9.18851L17.1706 10.7092L16.5613 12.0799ZM17.1706 8.57563L13.7491 10.0963L13.1399 8.72556L16.5613 7.20491L17.1706 8.57563ZM17.7959 10.7092L21.2173 9.18851L21.8265 10.5592L18.4051 12.0799L17.7959 10.7092ZM13.1399 10.5592C12.3455 10.2061 12.3455 9.07864 13.1399 8.72556L13.7491 10.0963C14.1424 9.92148 14.1424 9.3633 13.7491 9.18851L13.1399 10.5592ZM17.1706 10.7092C17.3696 10.7976 17.5968 10.7976 17.7959 10.7092L18.4051 12.0799C17.8182 12.3407 17.1482 12.3407 16.5613 12.0799L17.1706 10.7092ZM21.8265 8.72556C22.621 9.07864 22.621 10.2061 21.8265 10.5592L21.2173 9.18851C20.824 9.3633 20.824 9.92148 21.2173 10.0963L21.8265 8.72556ZM17.7959 8.57563C17.5968 8.48716 17.3696 8.48716 17.1706 8.57563L16.5613 7.20491C17.1482 6.94407 17.8182 6.94407 18.4051 7.20491L17.7959 8.57563Z" fill="#28303F"/>
<path d="M16.2791 15.4814L15.7546 16.0175L15.7546 16.0175L16.2791 15.4814ZM17.1109 16.2952L17.6354 15.7591L17.6354 15.7591L17.1109 16.2952ZM17.8555 16.2952L17.3311 15.7591V15.7591L17.8555 16.2952ZM18.6874 15.4814L19.2118 16.0175V16.0175L18.6874 15.4814ZM19.1788 15.352L19.384 14.6306L19.384 14.6306L19.1788 15.352ZM15.7877 15.352L15.5824 14.6306L15.5824 14.6306L15.7877 15.352ZM15.7201 16.16C15.3294 16.2977 14.9011 16.0925 14.7635 15.7019C14.6258 15.3112 14.831 14.8829 15.2216 14.7453L15.7201 16.16ZM16.6632 19.5753C16.249 19.5753 15.9132 19.2395 15.9132 18.8253C15.9132 18.4111 16.249 18.0753 16.6632 18.0753V19.5753ZM16.8035 14.9453L17.6354 15.7591L16.5864 16.8313L15.7546 16.0175L16.8035 14.9453ZM17.6354 15.7591C17.5488 15.6744 17.4176 15.6744 17.3311 15.7591L18.38 16.8313C17.8836 17.317 17.0829 17.317 16.5864 16.8313L17.6354 15.7591ZM17.3311 15.7591L18.1629 14.9453L19.2118 16.0175L18.38 16.8313L17.3311 15.7591ZM18.1629 14.9453C18.4715 14.6434 18.9338 14.5025 19.384 14.6306L18.9735 16.0734C19.0731 16.1017 19.1602 16.068 19.2118 16.0175L18.1629 14.9453ZM19.384 14.6306C20.97 15.0818 22.4224 16.2054 22.4224 17.8121H20.9224C20.9224 17.2229 20.3253 16.458 18.9735 16.0734L19.384 14.6306ZM22.4224 17.8121C22.4224 18.809 21.5941 19.5753 20.6251 19.5753V18.0753C20.8128 18.0753 20.9224 17.9343 20.9224 17.8121H22.4224ZM15.5824 14.6306C16.0327 14.5025 16.4949 14.6434 16.8035 14.9453L15.7546 16.0175C15.8062 16.068 15.8933 16.1017 15.9929 16.0734L15.5824 14.6306ZM15.2216 14.7453C15.3395 14.7038 15.4598 14.6655 15.5824 14.6306L15.9929 16.0734C15.8993 16.1 15.8083 16.1289 15.7201 16.16L15.2216 14.7453ZM20.6251 19.5753H16.6632V18.0753H20.6251V19.5753Z" fill="#28303F"/>
<line x1="13.6445" y1="10.3926" x2="13.6445" y2="12.0589" stroke="#28303F" stroke-width="1.5" stroke-linecap="round"/>
<path d="M11.4385 8.20265L11.1766 7.49987L12.1885 7.12275V8.20265H11.4385ZM5.49777 8.20265H4.74777V7.12275L5.75968 7.49987L5.49777 8.20265ZM7.76969 9.04934L8.0316 8.34656L7.76969 9.04934ZM6.24777 8.20265V9.83874H4.74777V8.20265H6.24777ZM10.6885 9.83874V8.20265H12.1885V9.83874H10.6885ZM5.75968 7.49987L8.0316 8.34656L7.50778 9.75212L5.23586 8.90543L5.75968 7.49987ZM8.90464 8.34656L11.1766 7.49987L11.7004 8.90543L9.42846 9.75212L8.90464 8.34656ZM8.0316 8.34656C8.31316 8.45149 8.62309 8.45149 8.90464 8.34656L9.42846 9.75212C8.80904 9.98297 8.1272 9.98297 7.50778 9.75212L8.0316 8.34656ZM8.46812 12.0591C9.69439 12.0591 10.6885 11.065 10.6885 9.83874H12.1885C12.1885 11.8934 10.5228 13.5591 8.46812 13.5591V12.0591ZM6.24777 9.83874C6.24777 11.065 7.24185 12.0591 8.46812 12.0591V13.5591C6.41343 13.5591 4.74777 11.8934 4.74777 9.83874H6.24777Z" fill="#28303F"/>
<path d="M9.37279 3.84582L9.06819 4.53117V4.53117L9.37279 3.84582ZM14.3879 6.07475L14.0833 6.76011H14.0833L14.3879 6.07475ZM7.56323 8.98228L7.86784 8.29692H7.86784L7.56323 8.98228ZM2.54813 6.75334L2.85273 6.06798L2.54813 6.75334ZM7.56323 3.84582L7.86784 4.53117V4.53117L7.56323 3.84582ZM2.54813 6.07475L2.85273 6.76011V6.76011L2.54813 6.07475ZM9.37279 8.98228L9.06819 8.29692L9.37279 8.98228ZM14.3879 6.75334L14.6925 7.4387L14.6925 7.4387L14.3879 6.75334ZM9.6774 3.16046L14.6925 5.38939L14.0833 6.76011L9.06819 4.53117L9.6774 3.16046ZM7.25863 9.66763L2.24352 7.4387L2.85273 6.06798L7.86784 8.29692L7.25863 9.66763ZM7.86784 4.53117L2.85273 6.76011L2.24352 5.38939L7.25863 3.16046L7.86784 4.53117ZM9.06819 8.29692L14.0833 6.06798L14.6925 7.4387L9.6774 9.66763L9.06819 8.29692ZM2.24352 7.4387C1.35566 7.04409 1.35566 5.784 2.24352 5.38939L2.85273 6.76011C3.15259 6.62684 3.15259 6.20125 2.85273 6.06798L2.24352 7.4387ZM7.86784 8.29692C8.24993 8.46674 8.68609 8.46674 9.06819 8.29692L9.6774 9.66763C8.90745 10.0098 8.02857 10.0098 7.25863 9.66763L7.86784 8.29692ZM14.6925 5.38939C15.5804 5.784 15.5804 7.04409 14.6925 7.4387L14.0833 6.06798C13.7834 6.20125 13.7834 6.62684 14.0833 6.76011L14.6925 5.38939ZM9.06819 4.53117C8.68609 4.36135 8.24993 4.36135 7.86784 4.53117L7.25863 3.16046C8.02857 2.81826 8.90745 2.81826 9.6774 3.16046L9.06819 4.53117Z" fill="#28303F"/>
<path d="M6.703 14.9912L6.17851 15.5273L6.17851 15.5273L6.703 14.9912ZM7.92227 16.184L8.44675 15.6479L8.44675 15.6479L7.92227 16.184ZM9.01376 16.184L8.48928 15.6479V15.6479L9.01376 16.184ZM10.233 14.9912L10.7575 15.5273V15.5273L10.233 14.9912ZM10.9533 14.8015L11.1586 14.0802V14.0802L10.9533 14.8015ZM5.98269 14.8015L5.77745 14.0802L5.77745 14.0802L5.98269 14.8015ZM7.22748 14.4551L8.44675 15.6479L7.39779 16.7202L6.17851 15.5273L7.22748 14.4551ZM8.44675 15.6479C8.4486 15.6497 8.45451 15.6545 8.46801 15.6545C8.48151 15.6545 8.48743 15.6497 8.48928 15.6479L9.53824 16.7202C8.94631 17.2992 7.98971 17.2992 7.39778 16.7202L8.44675 15.6479ZM8.48928 15.6479L9.70855 14.4551L10.7575 15.5273L9.53824 16.7202L8.48928 15.6479ZM9.70855 14.4551C10.077 14.0946 10.6267 13.9288 11.1586 14.0802L10.7481 15.5229C10.7566 15.5253 10.7622 15.5241 10.7626 15.524C10.7627 15.524 10.762 15.5242 10.7608 15.5249C10.7596 15.5256 10.7585 15.5264 10.7575 15.5273L9.70855 14.4551ZM11.1586 14.0802C13.4287 14.726 15.3584 16.2894 15.3584 18.4074H13.8584C13.8584 17.3069 12.7841 16.1022 10.7481 15.5229L11.1586 14.0802ZM15.3584 18.4074C15.3584 19.6651 14.3118 20.6426 13.0733 20.6426V19.1426C13.5305 19.1426 13.8584 18.7903 13.8584 18.4074H15.3584ZM13.0733 20.6426H3.86272V19.1426H13.0733V20.6426ZM3.86272 20.6426C2.62426 20.6426 1.57763 19.6651 1.57763 18.4074H3.07763C3.07763 18.7903 3.40556 19.1426 3.86272 19.1426V20.6426ZM1.57763 18.4074C1.57763 16.2894 3.50728 14.726 5.77745 14.0802L6.18792 15.5229C4.15194 16.1022 3.07763 17.3069 3.07763 18.4074H1.57763ZM5.77745 14.0802C6.30936 13.9288 6.85899 14.0946 7.22748 14.4551L6.17851 15.5273C6.17756 15.5264 6.17643 15.5256 6.17526 15.5249C6.17406 15.5242 6.17333 15.524 6.17341 15.524C6.17381 15.5241 6.17939 15.5253 6.18792 15.5229L5.77745 14.0802Z" fill="#28303F"/>
<line x1="3.2002" y1="7.28125" x2="3.2002" y2="10.3051" stroke="#28303F" stroke-width="1.5" stroke-linecap="round"/>
</svg>
