<svg width="24" height="24" viewBox="0 0 24 24" fill="none" xmlns="http://www.w3.org/2000/svg">
<path d="M8.15052 5.23296L8.84403 4.9474L8.15052 5.23296ZM13.064 9.89261L12.5337 9.36228L13.064 9.89261ZM9.80044 9.2399L10.4939 8.95434L9.80044 9.2399ZM15.2397 3.80062L14.9542 4.49413L15.2397 3.80062ZM15.8924 7.06419L16.4228 7.59452L15.8924 7.06419ZM11.2328 2.1507L11.5183 1.45719L11.2328 2.1507ZM18.0121 9.80515C17.7192 9.51226 17.2443 9.51226 16.9514 9.80515C16.6585 10.098 16.6585 10.5729 16.9514 10.8658L18.0121 9.80515ZM18.3656 12.28C18.6585 12.5729 19.1334 12.5729 19.4263 12.28C19.7192 11.9871 19.7192 11.5123 19.4263 11.2194L18.3656 12.28ZM16.1104 12.4568C16.1104 12.0426 15.7746 11.7068 15.3604 11.7068C14.9462 11.7068 14.6104 12.0426 14.6104 12.4568H16.1104ZM14.6104 13.871C14.6104 14.2852 14.9462 14.621 15.3604 14.621C15.7746 14.621 16.1104 14.2852 16.1104 13.871H14.6104ZM19.603 7.46416C19.1888 7.46416 18.853 7.79995 18.853 8.21416C18.853 8.62837 19.1888 8.96416 19.603 8.96416V7.46416ZM21.0172 8.96416C21.4314 8.96416 21.7672 8.62837 21.7672 8.21416C21.7672 7.79995 21.4314 7.46416 21.0172 7.46416V8.96416ZM8.56926 6.4881C8.83883 6.1736 8.80241 5.70013 8.48791 5.43056C8.17342 5.16099 7.69995 5.19742 7.43038 5.51191L8.56926 6.4881ZM3.20513 11.5938L2.63568 11.1057H2.63568L3.20513 11.5938ZM3.30943 14.3096L3.83976 13.7793L3.30943 14.3096ZM14.9998 22.75C15.414 22.75 15.7498 22.4142 15.7498 22C15.7498 21.5858 15.414 21.25 14.9998 21.25V22.75ZM6.99982 21.25C6.58561 21.25 6.24982 21.5858 6.24982 22C6.24982 22.4142 6.58561 22.75 6.99982 22.75V21.25ZM10.9472 2.84421L14.9542 4.49413L15.5253 3.10711L11.5183 1.45719L10.9472 2.84421ZM15.3621 6.53386L12.5337 9.36228L13.5943 10.4229L16.4228 7.59452L15.3621 6.53386ZM10.4939 8.95434L8.84403 4.9474L7.45701 5.51852L9.10693 9.52546L10.4939 8.95434ZM9.116 3.58758L9.5874 3.11617L8.52674 2.05551L8.05534 2.52692L9.116 3.58758ZM8.84403 4.9474C8.6519 4.48078 8.75917 3.9444 9.116 3.58758L8.05534 2.52692C7.27032 3.31193 7.03431 4.49197 7.45701 5.51852L8.84403 4.9474ZM12.5337 9.36228C11.903 9.993 10.8336 9.77913 10.4939 8.95434L9.10693 9.52546C9.85409 11.34 12.2068 11.8105 13.5943 10.4229L12.5337 9.36228ZM14.9542 4.49413C15.7789 4.83375 15.9928 5.90314 15.3621 6.53386L16.4228 7.59452C17.8104 6.20693 17.3398 3.85427 15.5253 3.10711L14.9542 4.49413ZM11.5183 1.45719C10.4918 1.03449 9.31175 1.2705 8.52674 2.05551L9.5874 3.11617C9.94423 2.75935 10.4806 2.65207 10.9472 2.84421L11.5183 1.45719ZM16.9514 10.8658L18.3656 12.28L19.4263 11.2194L18.0121 9.80515L16.9514 10.8658ZM14.6104 12.4568V13.871H16.1104V12.4568H14.6104ZM19.603 8.96416H21.0172V7.46416H19.603V8.96416ZM7.43038 5.51191L2.63568 11.1057L3.77457 12.0819L8.56926 6.4881L7.43038 5.51191ZM2.7791 14.8399L10.4695 22.5303L11.5302 21.4697L3.83976 13.7793L2.7791 14.8399ZM10.9998 22.75H14.9998V21.25H10.9998V22.75ZM10.9998 21.25H6.99982V22.75H10.9998V21.25ZM2.63568 11.1057C1.70051 12.1968 1.763 13.8238 2.7791 14.8399L3.83976 13.7793C3.3779 13.3174 3.34949 12.5778 3.77457 12.0819L2.63568 11.1057Z" fill="#28303F"/>
</svg>
