<svg width="24" height="24" viewBox="0 0 24 24" fill="none" xmlns="http://www.w3.org/2000/svg">
<path d="M6.25 7C6.25 7.41421 6.58579 7.75 7 7.75C7.41421 7.75 7.75 7.41421 7.75 7H6.25ZM15 15.25C14.5858 15.25 14.25 15.5858 14.25 16C14.25 16.4142 14.5858 16.75 15 16.75V15.25ZM11 6.75C10.5858 6.75 10.25 7.08579 10.25 7.5C10.25 7.91421 10.5858 8.25 11 8.25V6.75ZM18 8.25C18.4142 8.25 18.75 7.91421 18.75 7.5C18.75 7.08579 18.4142 6.75 18 6.75V8.25ZM14 10.75C13.5858 10.75 13.25 11.0858 13.25 11.5C13.25 11.9142 13.5858 12.25 14 12.25V10.75ZM18 12.25C18.4142 12.25 18.75 11.9142 18.75 11.5C18.75 11.0858 18.4142 10.75 18 10.75V12.25ZM11.25 18V19H12.75V18H11.25ZM10 20.25H4V21.75H10V20.25ZM2.75 19V18H1.25V19H2.75ZM9.82843 16.75H10V15.25H9.82843V16.75ZM4 16.75H4.17157V15.25H4V16.75ZM5.05546 17.1161C6.1294 18.1901 7.8706 18.1901 8.94454 17.1161L7.88388 16.0555C7.39573 16.5436 6.60427 16.5436 6.11612 16.0555L5.05546 17.1161ZM4.17157 16.75C4.50309 16.75 4.82104 16.8817 5.05546 17.1161L6.11612 16.0555C5.60039 15.5397 4.90092 15.25 4.17157 15.25V16.75ZM9.82843 15.25C9.09908 15.25 8.39961 15.5397 7.88388 16.0555L8.94454 17.1161C9.17896 16.8817 9.49691 16.75 9.82843 16.75V15.25ZM4 20.25C3.30964 20.25 2.75 19.6904 2.75 19H1.25C1.25 20.5188 2.48122 21.75 4 21.75V20.25ZM11.25 19C11.25 19.6904 10.6904 20.25 10 20.25V21.75C11.5188 21.75 12.75 20.5188 12.75 19H11.25ZM12.75 18C12.75 16.4812 11.5188 15.25 10 15.25V16.75C10.6904 16.75 11.25 17.3096 11.25 18H12.75ZM2.75 18C2.75 17.3096 3.30964 16.75 4 16.75V15.25C2.48122 15.25 1.25 16.4812 1.25 18H2.75ZM8.25 12C8.25 12.6904 7.69036 13.25 7 13.25V14.75C8.51878 14.75 9.75 13.5188 9.75 12H8.25ZM7 13.25C6.30964 13.25 5.75 12.6904 5.75 12H4.25C4.25 13.5188 5.48122 14.75 7 14.75V13.25ZM5.75 12C5.75 11.3096 6.30964 10.75 7 10.75V9.25C5.48122 9.25 4.25 10.4812 4.25 12H5.75ZM7 10.75C7.69036 10.75 8.25 11.3096 8.25 12H9.75C9.75 10.4812 8.51878 9.25 7 9.25V10.75ZM7.75 7V5H6.25V7H7.75ZM9 3.75H20V2.25H9V3.75ZM21.25 5V14H22.75V5H21.25ZM20 15.25H15V16.75H20V15.25ZM21.25 14C21.25 14.6904 20.6904 15.25 20 15.25V16.75C21.5188 16.75 22.75 15.5188 22.75 14H21.25ZM20 3.75C20.6904 3.75 21.25 4.30964 21.25 5H22.75C22.75 3.48122 21.5188 2.25 20 2.25V3.75ZM7.75 5C7.75 4.30964 8.30964 3.75 9 3.75V2.25C7.48122 2.25 6.25 3.48122 6.25 5H7.75ZM11 8.25H18V6.75H11V8.25ZM14 12.25H18V10.75H14V12.25Z" fill="#28303F"/>
</svg>
