<svg width="24" height="24" viewBox="0 0 24 24" fill="none" xmlns="http://www.w3.org/2000/svg">
<path d="M1.34284 20.6386C1.14322 21.0015 1.27562 21.4575 1.63856 21.6572C2.0015 21.8568 2.45754 21.7244 2.65716 21.3614L1.34284 20.6386ZM14.6818 15.3125C14.8544 14.9359 14.689 14.4908 14.3125 14.3182C13.9359 14.1456 13.4908 14.311 13.3182 14.6875L14.6818 15.3125ZM7.25 8C7.25 8.41421 7.58579 8.75 8 8.75C8.41421 8.75 8.75 8.41421 8.75 8H7.25ZM16.7397 14.25C16.3255 14.25 15.9897 14.5858 15.9897 15C15.9897 15.4142 16.3255 15.75 16.7397 15.75V14.25ZM12 6.25C11.5858 6.25 11.25 6.58579 11.25 7C11.25 7.41421 11.5858 7.75 12 7.75V6.25ZM18 7.75C18.4142 7.75 18.75 7.41421 18.75 7C18.75 6.58579 18.4142 6.25 18 6.25V7.75ZM9.25 13C9.25 13.6904 8.69036 14.25 8 14.25V15.75C9.51878 15.75 10.75 14.5188 10.75 13H9.25ZM8 14.25C7.30964 14.25 6.75 13.6904 6.75 13H5.25C5.25 14.5188 6.48122 15.75 8 15.75V14.25ZM6.75 13C6.75 12.3096 7.30964 11.75 8 11.75V10.25C6.48122 10.25 5.25 11.4812 5.25 13H6.75ZM8 11.75C8.69036 11.75 9.25 12.3096 9.25 13H10.75C10.75 11.4812 9.51878 10.25 8 10.25V11.75ZM2.65716 21.3614C3.01877 20.704 4.6596 19.0227 8 19.0227V17.5227C4.1404 17.5227 1.98123 19.4779 1.34284 20.6386L2.65716 21.3614ZM8 19.0227C11.9323 19.0227 14.0768 16.6326 14.6818 15.3125L13.3182 14.6875C12.9232 15.5493 11.2677 17.5227 8 17.5227V19.0227ZM8.75 8V5H7.25V8H8.75ZM10 3.75H20V2.25H10V3.75ZM21.25 5V13H22.75V5H21.25ZM20 14.25H16.7397V15.75H20V14.25ZM21.25 13C21.25 13.6904 20.6904 14.25 20 14.25V15.75C21.5188 15.75 22.75 14.5188 22.75 13H21.25ZM20 3.75C20.6904 3.75 21.25 4.30964 21.25 5H22.75C22.75 3.48122 21.5188 2.25 20 2.25V3.75ZM8.75 5C8.75 4.30964 9.30964 3.75 10 3.75V2.25C8.48122 2.25 7.25 3.48122 7.25 5H8.75ZM12 7.75H18V6.25H12V7.75Z" fill="#28303F"/>
<path d="M15 11H18" stroke="#28303F" stroke-width="1.5" stroke-linecap="round"/>
</svg>
