<svg width="24" height="24" viewBox="0 0 24 24" fill="none" xmlns="http://www.w3.org/2000/svg">
<path d="M12.75 19C12.75 18.5858 12.4142 18.25 12 18.25C11.5858 18.25 11.25 18.5858 11.25 19H12.75ZM9 21.25C8.58579 21.25 8.25 21.5858 8.25 22C8.25 22.4142 8.58579 22.75 9 22.75V21.25ZM15 22.75C15.4142 22.75 15.75 22.4142 15.75 22C15.75 21.5858 15.4142 21.25 15 21.25V22.75ZM14.75 8C14.75 6.48122 13.5188 5.25 12 5.25V6.75C12.6904 6.75 13.25 7.30964 13.25 8H14.75ZM12 5.25C10.4812 5.25 9.25 6.48122 9.25 8H10.75C10.75 7.30964 11.3096 6.75 12 6.75V5.25ZM9.25 8C9.25 9.51878 10.4812 10.75 12 10.75V9.25C11.3096 9.25 10.75 8.69036 10.75 8H9.25ZM12 10.75C13.5188 10.75 14.75 9.51878 14.75 8H13.25C13.25 8.69036 12.6904 9.25 12 9.25V10.75ZM6 2.75H18V1.25H6V2.75ZM21.25 6V15H22.75V6H21.25ZM18 18.25H6V19.75H18V18.25ZM2.75 15V6H1.25V15H2.75ZM6 18.25C4.20507 18.25 2.75 16.7949 2.75 15H1.25C1.25 17.6234 3.37665 19.75 6 19.75V18.25ZM21.25 15C21.25 16.7949 19.7949 18.25 18 18.25V19.75C20.6234 19.75 22.75 17.6234 22.75 15H21.25ZM18 2.75C19.7949 2.75 21.25 4.20507 21.25 6H22.75C22.75 3.37665 20.6234 1.25 18 1.25V2.75ZM6 1.25C3.37665 1.25 1.25 3.37665 1.25 6H2.75C2.75 4.20507 4.20507 2.75 6 2.75V1.25ZM11.25 19V22H12.75V19H11.25ZM12 21.25H9V22.75H12V21.25ZM12 22.75H15V21.25H12V22.75ZM9.5 12.75H14.5V11.25H9.5V12.75ZM14.5 14.25H9.5V15.75H14.5V14.25ZM9.5 14.25C9.08579 14.25 8.75 13.9142 8.75 13.5H7.25C7.25 14.7426 8.25736 15.75 9.5 15.75V14.25ZM15.25 13.5C15.25 13.9142 14.9142 14.25 14.5 14.25V15.75C15.7426 15.75 16.75 14.7426 16.75 13.5H15.25ZM14.5 12.75C14.9142 12.75 15.25 13.0858 15.25 13.5H16.75C16.75 12.2574 15.7426 11.25 14.5 11.25V12.75ZM9.5 11.25C8.25736 11.25 7.25 12.2574 7.25 13.5H8.75C8.75 13.0858 9.08579 12.75 9.5 12.75V11.25Z" fill="#28303F"/>
</svg>
