<svg width="24" height="24" viewBox="0 0 24 24" fill="none" xmlns="http://www.w3.org/2000/svg">
<path d="M14 15V14.25C13.5858 14.25 13.25 14.5858 13.25 15H14ZM21.1094 13.5937L20.6934 12.9697V12.9697L21.1094 13.5937ZM20.0077 14.3282L20.4237 14.9522L20.0077 14.3282ZM14.75 9C14.75 8.58579 14.4142 8.25 14 8.25C13.5858 8.25 13.25 8.58579 13.25 9H14.75ZM13.25 11C13.25 11.4142 13.5858 11.75 14 11.75C14.4142 11.75 14.75 11.4142 14.75 11H13.25ZM13.25 4.5C13.25 4.91421 13.5858 5.25 14 5.25C14.4142 5.25 14.75 4.91421 14.75 4.5H13.25ZM14.75 3C14.75 2.58579 14.4142 2.25 14 2.25C13.5858 2.25 13.25 2.58579 13.25 3H14.75ZM9.46967 6.53033C9.76256 6.82322 10.2374 6.82322 10.5303 6.53033C10.8232 6.23744 10.8232 5.76256 10.5303 5.46967L9.46967 6.53033ZM9.53033 4.46967C9.23744 4.17678 8.76256 4.17678 8.46967 4.46967C8.17678 4.76256 8.17678 5.23744 8.46967 5.53033L9.53033 4.46967ZM17.4697 5.46967C17.1768 5.76256 17.1768 6.23744 17.4697 6.53033C17.7626 6.82322 18.2374 6.82322 18.5303 6.53033L17.4697 5.46967ZM19.5303 5.53033C19.8232 5.23744 19.8232 4.76256 19.5303 4.46967C19.2374 4.17678 18.7626 4.17678 18.4697 4.46967L19.5303 5.53033ZM9.25 15C9.25 15.6904 8.69036 16.25 8 16.25V17.75C9.51878 17.75 10.75 16.5188 10.75 15H9.25ZM8 16.25C7.30964 16.25 6.75 15.6904 6.75 15H5.25C5.25 16.5188 6.48122 17.75 8 17.75V16.25ZM6.75 15C6.75 14.3096 7.30964 13.75 8 13.75V12.25C6.48122 12.25 5.25 13.4812 5.25 15H6.75ZM8 13.75C8.69036 13.75 9.25 14.3096 9.25 15H10.75C10.75 13.4812 9.51878 12.25 8 12.25V13.75ZM8 9.75H20V8.25H8V9.75ZM13.25 15C13.25 17.8995 10.8995 20.25 8 20.25V21.75C11.7279 21.75 14.75 18.7279 14.75 15H13.25ZM8 20.25C5.10051 20.25 2.75 17.8995 2.75 15H1.25C1.25 18.7279 4.27208 21.75 8 21.75V20.25ZM2.75 15C2.75 12.1005 5.10051 9.75 8 9.75V8.25C4.27208 8.25 1.25 11.2721 1.25 15H2.75ZM14 15.75H17.7889V14.25H14V15.75ZM21.25 11V11.9296H22.75V11H21.25ZM20.6934 12.9697L19.5917 13.7042L20.4237 14.9522L21.5254 14.2178L20.6934 12.9697ZM21.25 11.9296C21.25 12.3476 21.0411 12.7379 20.6934 12.9697L21.5254 14.2178C22.2905 13.7077 22.75 12.8491 22.75 11.9296H21.25ZM20 9.75C20.6904 9.75 21.25 10.3096 21.25 11H22.75C22.75 9.48122 21.5188 8.25 20 8.25V9.75ZM17.7889 15.75C18.7267 15.75 19.6435 15.4724 20.4237 14.9522L19.5917 13.7042C19.0578 14.0601 18.4305 14.25 17.7889 14.25V15.75ZM13.25 9V11H14.75V9H13.25ZM14.75 4.5V3H13.25V4.5H14.75ZM10.5303 5.46967L9.53033 4.46967L8.46967 5.53033L9.46967 6.53033L10.5303 5.46967ZM18.5303 6.53033L19.5303 5.53033L18.4697 4.46967L17.4697 5.46967L18.5303 6.53033Z" fill="#28303F"/>
</svg>
