<svg width="24" height="24" viewBox="0 0 24 24" fill="none" xmlns="http://www.w3.org/2000/svg">
<path d="M18.4592 3.40701C18.1317 3.1534 17.6606 3.2133 17.407 3.5408C17.1534 3.8683 17.2133 4.33938 17.5408 4.59299L18.4592 3.40701ZM20.9218 7.53952L20.2517 7.87632L20.2517 7.87632L20.9218 7.53952ZM21.9993 11.9574L22.7493 11.9487L21.9993 11.9574ZM21.0238 16.3976L21.7015 16.719L21.0238 16.3976ZM17.712 19.4174C17.3902 19.6782 17.3408 20.1505 17.6017 20.4723C17.8625 20.7941 18.3348 20.8435 18.6566 20.5826L17.712 19.4174ZM15.6151 15.419C15.2942 15.681 15.2464 16.1535 15.5084 16.4743C15.7704 16.7952 16.2428 16.8429 16.5637 16.581L15.6151 15.419ZM17.9997 11.98L18.7496 11.9716L17.9997 11.98ZM16.4619 7.40911C16.1356 7.15401 15.6642 7.21177 15.4091 7.53811C15.154 7.86445 15.2118 8.3358 15.5381 8.59089L16.4619 7.40911ZM6.4592 4.59299C6.7867 4.33938 6.8466 3.8683 6.59299 3.5408C6.33938 3.2133 5.8683 3.1534 5.5408 3.40701L6.4592 4.59299ZM3.0782 7.53952L3.74832 7.87632V7.87632L3.0782 7.53952ZM2.00067 11.9574L1.25072 11.9487L2.00067 11.9574ZM2.97616 16.3976L2.29854 16.719H2.29854L2.97616 16.3976ZM5.3434 20.5826C5.66517 20.8435 6.13746 20.7941 6.39831 20.4723C6.65916 20.1505 6.60977 19.6782 6.28801 19.4174L5.3434 20.5826ZM7.43631 16.581C7.75717 16.8429 8.22963 16.7952 8.49159 16.4743C8.75355 16.1535 8.70581 15.681 8.38495 15.419L7.43631 16.581ZM6.00031 11.98L5.25036 11.9716L6.00031 11.98ZM8.46189 8.59089C8.78823 8.3358 8.84599 7.86445 8.59089 7.53811C8.3358 7.21177 7.86445 7.15401 7.53811 7.40911L8.46189 8.59089ZM11.25 20C11.25 20.4142 11.5858 20.75 12 20.75C12.4142 20.75 12.75 20.4142 12.75 20H11.25ZM14.75 12C14.75 10.4812 13.5188 9.25 12 9.25V10.75C12.6904 10.75 13.25 11.3096 13.25 12H14.75ZM12 9.25C10.4812 9.25 9.25 10.4812 9.25 12H10.75C10.75 11.3096 11.3096 10.75 12 10.75V9.25ZM9.25 12C9.25 13.5188 10.4812 14.75 12 14.75V13.25C11.3096 13.25 10.75 12.6904 10.75 12H9.25ZM12 14.75C13.5188 14.75 14.75 13.5188 14.75 12H13.25C13.25 12.6904 12.6904 13.25 12 13.25V14.75ZM17.5408 4.59299C18.6852 5.47918 19.6108 6.60114 20.2517 7.87632L21.5919 7.20272C20.8492 5.72503 19.7786 4.42873 18.4592 3.40701L17.5408 4.59299ZM20.2517 7.87632C20.8925 9.15142 21.2331 10.5484 21.2494 11.966L22.7493 11.9487C22.7303 10.3018 22.3346 8.68048 21.5919 7.20272L20.2517 7.87632ZM21.2494 11.966C21.2657 13.3836 20.9575 14.7876 20.3462 16.0762L21.7015 16.719C22.41 15.2253 22.7683 13.5956 22.7493 11.9487L21.2494 11.966ZM20.3462 16.0762C19.7349 17.3649 18.8355 18.5066 17.712 19.4174L18.6566 20.5826C19.9523 19.5322 20.9929 18.2127 21.7015 16.719L20.3462 16.0762ZM16.5637 16.581C17.2546 16.0169 17.8102 15.3122 18.1888 14.5154L16.834 13.8716C16.5525 14.464 16.1371 14.9928 15.6151 15.419L16.5637 16.581ZM18.1888 14.5154C18.5676 13.7184 18.7595 12.8499 18.7496 11.9716L17.2497 11.9883C17.257 12.6364 17.1155 13.2792 16.834 13.8716L18.1888 14.5154ZM18.7496 11.9716C18.7398 11.0933 18.5286 10.2291 18.1323 9.44028L16.7919 10.1137C17.0867 10.7004 17.2425 11.3403 17.2497 11.9883L18.7496 11.9716ZM18.1323 9.44028C17.736 8.65161 17.165 7.95873 16.4619 7.40911L15.5381 8.59089C16.0698 9.0065 16.4971 9.52689 16.7919 10.1137L18.1323 9.44028ZM5.5408 3.40701C4.22139 4.42873 3.15075 5.72503 2.40807 7.20272L3.74832 7.87632C4.38922 6.60114 5.3148 5.47918 6.4592 4.59299L5.5408 3.40701ZM2.40807 7.20272C1.66535 8.68048 1.26969 10.3018 1.25072 11.9487L2.75062 11.966C2.76694 10.5484 3.10746 9.15142 3.74832 7.87632L2.40807 7.20272ZM1.25072 11.9487C1.23175 13.5956 1.58997 15.2253 2.29854 16.719L3.65379 16.0762C3.04254 14.7876 2.73429 13.3836 2.75062 11.966L1.25072 11.9487ZM2.29854 16.719C3.00706 18.2127 4.0477 19.5322 5.3434 20.5826L6.28801 19.4174C5.16447 18.5066 4.26509 17.3649 3.65379 16.0762L2.29854 16.719ZM8.38495 15.419C7.86291 14.9928 7.44754 14.464 7.16598 13.8716L5.81117 14.5154C6.18983 15.3122 6.74538 16.0169 7.43631 16.581L8.38495 15.419ZM7.16598 13.8716C6.88449 13.2792 6.74302 12.6364 6.75026 11.9883L5.25036 11.9716C5.24055 12.8499 5.43245 13.7184 5.81117 14.5154L7.16598 13.8716ZM6.75026 11.9883C6.7575 11.3403 6.91331 10.7004 7.20808 10.1137L5.86775 9.44028C5.47143 10.2291 5.26017 11.0933 5.25036 11.9716L6.75026 11.9883ZM7.20808 10.1137C7.50292 9.52689 7.93021 9.0065 8.46189 8.59089L7.53811 7.40911C6.83498 7.95873 6.26401 8.65161 5.86775 9.44028L7.20808 10.1137ZM11.25 14V20H12.75V14H11.25Z" fill="#28303F"/>
</svg>
