<svg width="24" height="24" viewBox="0 0 24 24" fill="none" xmlns="http://www.w3.org/2000/svg">
<path d="M15 16L14.8529 16.7354C15.1846 16.8018 15.5196 16.6379 15.6708 16.3354L15 16ZM8 9L7.66459 8.32918C7.36208 8.48043 7.19824 8.81544 7.26456 9.14709L8 9ZM8.35402 8.82299L8.68943 9.49381L8.68943 9.49381L8.35402 8.82299ZM9.31654 6.29136L10.0129 6.01281L9.31654 6.29136ZM8.50289 4.25722L7.80653 4.53576L8.50289 4.25722ZM19.7428 15.4971L20.0213 14.8008L19.7428 15.4971ZM17.7086 14.6835L17.9872 13.9871H17.9872L17.7086 14.6835ZM15.177 15.646L15.8478 15.9814V15.9814L15.177 15.646ZM18.4697 6.46967C18.1768 6.76256 18.1768 7.23744 18.4697 7.53033C18.7626 7.82322 19.2374 7.82322 19.5303 7.53033L18.4697 6.46967ZM20.2929 5.70711L20.8232 6.23744L20.2929 5.70711ZM20.2929 4.29289L19.7626 4.82322V4.82322L20.2929 4.29289ZM19.5303 2.46967C19.2374 2.17678 18.7626 2.17678 18.4697 2.46967C18.1768 2.76256 18.1768 3.23744 18.4697 3.53033L19.5303 2.46967ZM14.4697 6.46967C14.1768 6.76256 14.1768 7.23744 14.4697 7.53033C14.7626 7.82322 15.2374 7.82322 15.5303 7.53033L14.4697 6.46967ZM16.2929 5.70711L16.8232 6.23744V6.23744L16.2929 5.70711ZM16.2929 4.29289L16.8232 3.76256V3.76256L16.2929 4.29289ZM15.5303 2.46967C15.2374 2.17678 14.7626 2.17678 14.4697 2.46967C14.1768 2.76256 14.1768 3.23744 14.4697 3.53033L15.5303 2.46967ZM13 4.25C12.5858 4.25 12.25 4.58579 12.25 5C12.25 5.41421 12.5858 5.75 13 5.75V4.25ZM16 5.75C16.4142 5.75 16.75 5.41421 16.75 5C16.75 4.58579 16.4142 4.25 16 4.25V5.75ZM20.25 17.3541V19H21.75V17.3541H20.25ZM5 3.75H6.64593V2.25H5V3.75ZM15 16C15.1471 15.2646 15.1473 15.2646 15.1475 15.2646C15.1476 15.2647 15.1477 15.2647 15.1479 15.2647C15.1481 15.2648 15.1483 15.2648 15.1484 15.2648C15.1487 15.2649 15.1488 15.2649 15.1488 15.2649C15.1488 15.2649 15.1482 15.2648 15.147 15.2645C15.1447 15.264 15.14 15.2631 15.1331 15.2615C15.1193 15.2585 15.0967 15.2533 15.0659 15.2459C15.0044 15.2309 14.9104 15.2066 14.7898 15.1711C14.5482 15.1 14.2016 14.9847 13.7954 14.8106C12.9796 14.461 11.9439 13.8833 11.0303 12.9697L9.96967 14.0303C11.0561 15.1167 12.2704 15.789 13.2046 16.1894C13.6734 16.3903 14.0768 16.525 14.3665 16.6101C14.5115 16.6528 14.6285 16.6832 14.7114 16.7034C14.7529 16.7135 14.7859 16.721 14.8097 16.7263C14.8217 16.7289 14.8313 16.7309 14.8385 16.7325C14.8421 16.7332 14.8451 16.7339 14.8475 16.7343C14.8487 16.7346 14.8498 16.7348 14.8507 16.735C14.8511 16.7351 14.8515 16.7352 14.8519 16.7352C14.8521 16.7353 14.8523 16.7353 14.8524 16.7353C14.8527 16.7354 14.8529 16.7354 15 16ZM11.0303 12.9697C10.1167 12.0561 9.53901 11.0204 9.18936 10.2046C9.01527 9.79836 8.89996 9.45184 8.8289 9.21025C8.79342 9.08962 8.76912 8.99565 8.75414 8.93406C8.74666 8.90329 8.74151 8.88065 8.73847 8.86687C8.73695 8.85999 8.73595 8.85532 8.73546 8.85296C8.73521 8.85178 8.73509 8.85118 8.73508 8.85117C8.73508 8.85116 8.73511 8.8513 8.73517 8.85159C8.7352 8.85174 8.73524 8.85192 8.73528 8.85214C8.7353 8.85225 8.73534 8.85244 8.73535 8.8525C8.73539 8.8527 8.73544 8.85291 8 9C7.26456 9.14709 7.26461 9.14732 7.26466 9.14756C7.26468 9.14765 7.26473 9.1479 7.26477 9.14809C7.26484 9.14846 7.26492 9.14887 7.26501 9.14932C7.2652 9.15022 7.26541 9.15127 7.26566 9.15247C7.26615 9.15488 7.26677 9.15789 7.26753 9.1615C7.26905 9.16873 7.27111 9.17834 7.27374 9.19026C7.279 9.21408 7.28655 9.2471 7.29664 9.28859C7.31682 9.37154 7.34721 9.48851 7.38985 9.6335C7.47504 9.92316 7.60973 10.3266 7.81064 10.7954C8.21099 11.7296 8.88325 12.9439 9.96967 14.0303L11.0303 12.9697ZM8.33541 9.67082L8.68943 9.49381L8.01861 8.15217L7.66459 8.32918L8.33541 9.67082ZM10.0129 6.01281L9.19925 3.97868L7.80653 4.53576L8.62018 6.5699L10.0129 6.01281ZM20.0213 14.8008L17.9872 13.9871L17.4301 15.3798L19.4642 16.1935L20.0213 14.8008ZM14.5062 15.3106L14.3292 15.6646L15.6708 16.3354L15.8478 15.9814L14.5062 15.3106ZM17.9872 13.9871C16.6592 13.4559 15.1458 14.0313 14.5062 15.3106L15.8478 15.9814C16.1386 15.3999 16.8265 15.1384 17.4301 15.3798L17.9872 13.9871ZM8.68943 9.49381C9.96868 8.85419 10.5441 7.34076 10.0129 6.01281L8.62018 6.5699C8.86163 7.17351 8.60008 7.86143 8.01861 8.15217L8.68943 9.49381ZM6.64593 3.75C7.15706 3.75 7.6167 4.06119 7.80653 4.53576L9.19925 3.97868C8.78162 2.93462 7.77042 2.25 6.64593 2.25V3.75ZM21.75 17.3541C21.75 16.2296 21.0654 15.2184 20.0213 14.8008L19.4642 16.1935C19.9388 16.3833 20.25 16.8429 20.25 17.3541H21.75ZM19 20.25C10.5777 20.25 3.75 13.4223 3.75 5H2.25C2.25 14.2508 9.74923 21.75 19 21.75V20.25ZM19 21.75C20.5188 21.75 21.75 20.5188 21.75 19H20.25C20.25 19.6904 19.6904 20.25 19 20.25V21.75ZM3.75 5C3.75 4.30964 4.30964 3.75 5 3.75V2.25C3.48122 2.25 2.25 3.48122 2.25 5H3.75ZM19.5303 7.53033L20.8232 6.23744L19.7626 5.17678L18.4697 6.46967L19.5303 7.53033ZM20.8232 3.76256L19.5303 2.46967L18.4697 3.53033L19.7626 4.82322L20.8232 3.76256ZM20.8232 6.23744C21.5066 5.55402 21.5066 4.44598 20.8232 3.76256L19.7626 4.82322C19.8602 4.92086 19.8602 5.07915 19.7626 5.17678L20.8232 6.23744ZM15.5303 7.53033L16.8232 6.23744L15.7626 5.17678L14.4697 6.46967L15.5303 7.53033ZM16.8232 3.76256L15.5303 2.46967L14.4697 3.53033L15.7626 4.82322L16.8232 3.76256ZM13 5.75H16V4.25H13V5.75ZM16.8232 6.23744C17.5066 5.55402 17.5066 4.44598 16.8232 3.76256L15.7626 4.82322C15.8602 4.92086 15.8602 5.07915 15.7626 5.17678L16.8232 6.23744Z" fill="#28303F"/>
</svg>
