<svg width="24" height="24" viewBox="0 0 24 24" fill="none" xmlns="http://www.w3.org/2000/svg">
<path d="M12 10.182L11.4696 10.7123C11.6103 10.8529 11.8011 10.932 12 10.932C12.1989 10.932 12.3896 10.8529 12.5303 10.7123L12 10.182ZM12.2651 9.91679L12.7955 10.4471L12.7955 10.4471L12.2651 9.91679ZM11.7348 9.91679L12.2651 9.38646V9.38646L11.7348 9.91679ZM9.08315 12.5684L9.61348 12.0381L9.08315 12.5684ZM10.9393 14.4246L10.409 14.9549L10.9393 14.4246ZM13.0606 14.4246L13.591 14.9549H13.591L13.0606 14.4246ZM14.9168 12.5684L14.3865 12.0381H14.3864L14.9168 12.5684ZM11 3.75H13V2.25H11V3.75ZM2.75 17V12H1.25V17H2.75ZM13 20.25H6V21.75H13V20.25ZM1.25 17C1.25 19.6234 3.37665 21.75 6 21.75V20.25C4.20507 20.25 2.75 18.7949 2.75 17H1.25ZM21.25 12C21.25 16.5563 17.5563 20.25 13 20.25V21.75C18.3848 21.75 22.75 17.3848 22.75 12H21.25ZM13 3.75C17.5563 3.75 21.25 7.44365 21.25 12H22.75C22.75 6.61522 18.3848 2.25 13 2.25V3.75ZM11 2.25C5.61522 2.25 1.25 6.61522 1.25 12H2.75C2.75 7.44365 6.44365 3.75 11 3.75V2.25ZM12.5303 10.7123L12.7955 10.4471L11.7348 9.38646L11.4696 9.65162L12.5303 10.7123ZM11.2045 10.4471L11.4696 10.7123L12.5303 9.65162L12.2651 9.38646L11.2045 10.4471ZM8.55282 13.0988L10.409 14.9549L11.4696 13.8943L9.61348 12.0381L8.55282 13.0988ZM13.591 14.9549L15.4471 13.0988L14.3864 12.0381L12.5303 13.8943L13.591 14.9549ZM14.3865 10.4471C14.8258 10.8865 14.8258 11.5988 14.3865 12.0381L15.4471 13.0988C16.4722 12.0736 16.4722 10.4116 15.4471 9.38646L14.3865 10.4471ZM15.4471 9.38646C14.422 8.36133 12.7599 8.36133 11.7348 9.38646L12.7955 10.4471C13.2348 10.0078 13.9471 10.0078 14.3865 10.4471L15.4471 9.38646ZM9.61348 10.4471C10.0528 10.0078 10.7651 10.0078 11.2045 10.4471L12.2651 9.38646C11.24 8.36133 9.57795 8.36133 8.55282 9.38646L9.61348 10.4471ZM10.409 14.9549C11.2877 15.8336 12.7123 15.8336 13.591 14.9549L12.5303 13.8943C12.2374 14.1872 11.7625 14.1872 11.4696 13.8943L10.409 14.9549ZM8.55282 9.38646C7.52769 10.4116 7.52769 12.0736 8.55282 13.0988L9.61348 12.0381C9.17414 11.5988 9.17414 10.8865 9.61348 10.4471L8.55282 9.38646Z" fill="#28303F"/>
</svg>
