<svg width="24" height="24" viewBox="0 0 24 24" fill="none" xmlns="http://www.w3.org/2000/svg">
<path d="M9.46967 10.4697C9.17678 10.7626 9.17678 11.2374 9.46967 11.5303C9.76256 11.8232 10.2374 11.8232 10.5303 11.5303L9.46967 10.4697ZM11.2929 9.70711L10.7626 9.17678H10.7626L11.2929 9.70711ZM12.7071 9.70711L12.1768 10.2374L12.7071 9.70711ZM13.4697 11.5303C13.7626 11.8232 14.2374 11.8232 14.5303 11.5303C14.8232 11.2374 14.8232 10.7626 14.5303 10.4697L13.4697 11.5303ZM11.25 15C11.25 15.4142 11.5858 15.75 12 15.75C12.4142 15.75 12.75 15.4142 12.75 15H11.25ZM12.75 10C12.75 9.58579 12.4142 9.25 12 9.25C11.5858 9.25 11.25 9.58579 11.25 10H12.75ZM11 3.75H13V2.25H11V3.75ZM2.75 17V12H1.25V17H2.75ZM13 20.25H6V21.75H13V20.25ZM1.25 17C1.25 19.6234 3.37665 21.75 6 21.75V20.25C4.20507 20.25 2.75 18.7949 2.75 17H1.25ZM21.25 12C21.25 16.5563 17.5563 20.25 13 20.25V21.75C18.3848 21.75 22.75 17.3848 22.75 12H21.25ZM13 3.75C17.5563 3.75 21.25 7.44365 21.25 12H22.75C22.75 6.61522 18.3848 2.25 13 2.25V3.75ZM11 2.25C5.61522 2.25 1.25 6.61522 1.25 12H2.75C2.75 7.44365 6.44365 3.75 11 3.75V2.25ZM10.5303 11.5303L11.8232 10.2374L10.7626 9.17678L9.46967 10.4697L10.5303 11.5303ZM12.1768 10.2374L13.4697 11.5303L14.5303 10.4697L13.2374 9.17678L12.1768 10.2374ZM12.75 15V10H11.25V15H12.75ZM11.8232 10.2374C11.9209 10.1398 12.0791 10.1398 12.1768 10.2374L13.2374 9.17678C12.554 8.49336 11.446 8.49336 10.7626 9.17678L11.8232 10.2374Z" fill="#28303F"/>
</svg>
