<svg width="24" height="24" viewBox="0 0 24 24" fill="none" xmlns="http://www.w3.org/2000/svg">
<path d="M7 13.25C6.58579 13.25 6.25 13.5858 6.25 14C6.25 14.4142 6.58579 14.75 7 14.75V13.25ZM14 14.75C14.4142 14.75 14.75 14.4142 14.75 14C14.75 13.5858 14.4142 13.25 14 13.25V14.75ZM7 9.25C6.58579 9.25 6.25 9.58579 6.25 10C6.25 10.4142 6.58579 10.75 7 10.75V9.25ZM10 10.75C10.4142 10.75 10.75 10.4142 10.75 10C10.75 9.58579 10.4142 9.25 10 9.25V10.75ZM3.53033 2.46967C3.23744 2.17678 2.76256 2.17678 2.46967 2.46967C2.17678 2.76256 2.17678 3.23744 2.46967 3.53033L3.53033 2.46967ZM18.8444 18.8444L19.3747 18.3141L18.8444 18.8444ZM20.4697 21.5303C20.7626 21.8232 21.2374 21.8232 21.5303 21.5303C21.8232 21.2374 21.8232 20.7626 21.5303 20.4697L20.4697 21.5303ZM7.36615 2.9499C6.98181 3.10436 6.79545 3.54114 6.94991 3.92548C7.10436 4.30982 7.54114 4.49617 7.92548 4.34172L7.36615 2.9499ZM20.0456 16.2946C19.8296 16.648 19.9411 17.1096 20.2946 17.3256C20.648 17.5416 21.1096 17.4301 21.3256 17.0766L20.0456 16.2946ZM7 14.75H14V13.25H7V14.75ZM7 10.75H10V9.25H7V10.75ZM2.75 17V12H1.25V17H2.75ZM13 20.25H6V21.75H13V20.25ZM1.25 17C1.25 19.6234 3.37665 21.75 6 21.75V20.25C4.20507 20.25 2.75 18.7949 2.75 17H1.25ZM4.6683 4.58546C2.57738 6.37259 1.25 9.03168 1.25 12H2.75C2.75 9.48869 3.87116 7.24003 5.64288 5.72572L4.6683 4.58546ZM2.46967 3.53033L4.62526 5.68592L5.68592 4.62526L3.53033 2.46967L2.46967 3.53033ZM4.62526 5.68592L18.3141 19.3747L19.3747 18.3141L5.68592 4.62526L4.62526 5.68592ZM18.3141 19.3747L20.4697 21.5303L21.5303 20.4697L19.3747 18.3141L18.3141 19.3747ZM18.3571 18.2743C16.9153 19.5066 15.0454 20.25 13 20.25V21.75C15.4161 21.75 17.6285 20.8702 19.3317 19.4145L18.3571 18.2743ZM11 3.75H13V2.25H11V3.75ZM13 3.75C17.5563 3.75 21.25 7.44365 21.25 12H22.75C22.75 6.61522 18.3848 2.25 13 2.25V3.75ZM11 2.25C9.71701 2.25 8.49015 2.4982 7.36615 2.9499L7.92548 4.34172C8.87465 3.96028 9.91185 3.75 11 3.75V2.25ZM21.25 12C21.25 13.5746 20.8096 15.0441 20.0456 16.2946L21.3256 17.0766C22.2294 15.5974 22.75 13.8583 22.75 12H21.25Z" fill="#28303F"/>
</svg>
