<svg width="24" height="24" viewBox="0 0 24 24" fill="none" xmlns="http://www.w3.org/2000/svg">
<path d="M12.7918 8.59851L13.5077 8.37492H13.5077L12.7918 8.59851ZM13.3526 10.394L12.6367 10.6176C12.7345 10.9308 13.0245 11.144 13.3526 11.144V10.394ZM15.9592 10.9925L16.6751 10.769V10.769L15.9592 10.9925ZM15.6567 11.9609L15.2045 11.3626L15.6567 11.9609ZM14.1886 13.0706L13.7364 12.4723C13.4838 12.6632 13.3783 12.9921 13.4727 13.2942L14.1886 13.0706ZM14.7494 14.8662L14.0335 15.0898V15.0898L14.7494 14.8662ZM14.4469 15.8346L14.8992 16.4329L14.8992 16.4329L14.4469 15.8346ZM13.4681 15.8346L13.0159 16.4329L13.4681 15.8346ZM12 14.7249L12.4522 14.1266C12.1847 13.9243 11.8153 13.9243 11.5478 14.1266L12 14.7249ZM10.5319 15.8346L10.9841 16.4329L10.5319 15.8346ZM9.55308 15.8346L9.10085 16.4329L9.10085 16.4329L9.55308 15.8346ZM9.25063 14.8662L8.53473 14.6426L9.25063 14.8662ZM9.81141 13.0706L10.5273 13.2942C10.6217 12.9921 10.5162 12.6632 10.2636 12.4723L9.81141 13.0706ZM8.34326 11.9609L8.7955 11.3626H8.7955L8.34326 11.9609ZM8.04081 10.9925L8.7567 11.2161L8.04081 10.9925ZM10.6474 10.394V11.144C10.9755 11.144 11.2655 10.9308 11.3633 10.6176L10.6474 10.394ZM11.2082 8.59851L11.9241 8.8221V8.8221L11.2082 8.59851ZM11 3.75H13V2.25H11V3.75ZM2.75 17V12H1.25V17H2.75ZM13 20.25H6V21.75H13V20.25ZM1.25 17C1.25 19.6234 3.37665 21.75 6 21.75V20.25C4.20507 20.25 2.75 18.7949 2.75 17H1.25ZM21.25 12C21.25 16.5563 17.5563 20.25 13 20.25V21.75C18.3848 21.75 22.75 17.3848 22.75 12H21.25ZM13 3.75C17.5563 3.75 21.25 7.44365 21.25 12H22.75C22.75 6.61522 18.3848 2.25 13 2.25V3.75ZM11 2.25C5.61522 2.25 1.25 6.61522 1.25 12H2.75C2.75 7.44365 6.44365 3.75 11 3.75V2.25ZM13.5077 8.37492C13.3034 7.72065 12.705 7.25 12 7.25V8.75C12.0164 8.75 12.0574 8.76261 12.0759 8.8221L13.5077 8.37492ZM14.0685 10.1704L13.5077 8.37492L12.0759 8.8221L12.6367 10.6176L14.0685 10.1704ZM15.1674 9.64403H13.3526V11.144H15.1674V9.64403ZM16.6751 10.769C16.4707 10.1147 15.8724 9.64403 15.1674 9.64403V11.144C15.1837 11.144 15.2247 11.1566 15.2433 11.2161L16.6751 10.769ZM16.109 12.5593C16.6608 12.1422 16.8781 11.419 16.6751 10.769L15.2433 11.2161C15.2632 11.2799 15.2363 11.3386 15.2045 11.3626L16.109 12.5593ZM14.6408 13.669L16.109 12.5593L15.2045 11.3626L13.7364 12.4723L14.6408 13.669ZM15.4653 14.6426L14.9045 12.8471L13.4727 13.2942L14.0335 15.0898L15.4653 14.6426ZM14.8992 16.4329C15.451 16.0158 15.6683 15.2926 15.4653 14.6426L14.0335 15.0898C14.0534 15.1535 14.0265 15.2122 13.9947 15.2363L14.8992 16.4329ZM13.0159 16.4329C13.5753 16.8557 14.3398 16.8557 14.8992 16.4329L13.9947 15.2363C13.9803 15.2471 13.9677 15.25 13.9575 15.25C13.9473 15.25 13.9347 15.2471 13.9204 15.2363L13.0159 16.4329ZM11.5478 15.3232L13.0159 16.4329L13.9204 15.2363L12.4522 14.1266L11.5478 15.3232ZM10.9841 16.4329L12.4522 15.3232L11.5478 14.1266L10.0796 15.2363L10.9841 16.4329ZM9.10085 16.4329C9.66023 16.8557 10.4247 16.8557 10.9841 16.4329L10.0796 15.2363C10.0653 15.2471 10.0527 15.25 10.0425 15.25C10.0323 15.25 10.0197 15.2471 10.0053 15.2363L9.10085 16.4329ZM8.53473 14.6426C8.33172 15.2926 8.54904 16.0158 9.10085 16.4329L10.0053 15.2363C9.97351 15.2122 9.94661 15.1535 9.96652 15.0898L8.53473 14.6426ZM9.09552 12.8471L8.53473 14.6426L9.96652 15.0898L10.5273 13.2942L9.09552 12.8471ZM7.89103 12.5593L9.35918 13.669L10.2636 12.4723L8.7955 11.3626L7.89103 12.5593ZM7.32491 10.769C7.1219 11.419 7.33922 12.1422 7.89103 12.5593L8.7955 11.3626C8.76368 11.3386 8.73679 11.2799 8.7567 11.2161L7.32491 10.769ZM8.83265 9.64403C8.12763 9.64403 7.52925 10.1147 7.32491 10.769L8.7567 11.2161C8.77528 11.1566 8.81626 11.144 8.83265 11.144V9.64403ZM10.6474 9.64403H8.83265V11.144H10.6474V9.64403ZM10.4923 8.37492L9.93148 10.1704L11.3633 10.6176L11.9241 8.8221L10.4923 8.37492ZM12 7.25C11.295 7.25 10.6966 7.72065 10.4923 8.37492L11.9241 8.8221C11.9426 8.76261 11.9836 8.75 12 8.75V7.25Z" fill="#28303F"/>
</svg>
