<svg width="24" height="24" viewBox="0 0 24 24" fill="none" xmlns="http://www.w3.org/2000/svg">
<path d="M9.12488 11.25C8.71066 11.25 8.37488 11.5858 8.37488 12C8.37488 12.4142 8.71066 12.75 9.12488 12.75V11.25ZM14.8749 12.75C15.2891 12.75 15.6249 12.4142 15.6249 12C15.6249 11.5858 15.2891 11.25 14.8749 11.25V12.75ZM11.4165 3.75H12.5832V2.25H11.4165V3.75ZM3.1665 17V12H1.6665V17H3.1665ZM12.5832 20.25H6.4165V21.75H12.5832V20.25ZM1.6665 17C1.6665 19.6234 3.79315 21.75 6.4165 21.75V20.25C4.62158 20.25 3.1665 18.7949 3.1665 17H1.6665ZM20.8332 12C20.8332 16.5563 17.1395 20.25 12.5832 20.25V21.75C17.9679 21.75 22.3332 17.3848 22.3332 12H20.8332ZM12.5832 3.75C17.1395 3.75 20.8332 7.44365 20.8332 12H22.3332C22.3332 6.61522 17.9679 2.25 12.5832 2.25V3.75ZM11.4165 2.25C6.03173 2.25 1.6665 6.61522 1.6665 12H3.1665C3.1665 7.44365 6.86015 3.75 11.4165 3.75V2.25ZM9.12488 12.75H14.8749V11.25H9.12488V12.75Z" fill="#28303F"/>
</svg>
