<svg width="24" height="24" viewBox="0 0 24 24" fill="none" xmlns="http://www.w3.org/2000/svg">
<path d="M17.3726 8.17276L16.6427 8.34532L17.3726 8.17276ZM9.77778 3.75H10.8889V2.25H9.77778V3.75ZM2.75 14.25V10.875H1.25V14.25H2.75ZM1.25 14.25C1.25 15.898 2.57195 17.25 4.22222 17.25V15.75C3.41789 15.75 2.75 15.0872 2.75 14.25H1.25ZM16.8056 9.75C16.8056 13.0725 14.1478 15.75 10.8889 15.75V17.25C14.9938 17.25 18.3056 13.8833 18.3056 9.75H16.8056ZM9.77778 2.25C5.05926 2.25 1.25 6.12036 1.25 10.875H2.75C2.75 6.93116 5.9052 3.75 9.77778 3.75V2.25ZM22.75 18.75V15.375H21.25V18.75H22.75ZM13.1111 21.75H19.7778V20.25H13.1111V21.75ZM21.25 18.75C21.25 19.5872 20.5821 20.25 19.7778 20.25V21.75C21.428 21.75 22.75 20.398 22.75 18.75H21.25ZM17.0653 8.85694C19.528 9.96287 21.25 12.4631 21.25 15.375H22.75C22.75 11.8592 20.6691 8.83102 17.6798 7.48858L17.0653 8.85694ZM10.8889 3.75C13.6728 3.75 16.018 5.70302 16.6427 8.34532L18.1025 8.00019C17.3242 4.70829 14.3959 2.25 10.8889 2.25V3.75ZM16.6427 8.34532C16.749 8.79515 16.8056 9.26538 16.8056 9.75H18.3056C18.3056 9.14839 18.2354 8.56235 18.1025 8.00019L16.6427 8.34532ZM6.1157 16.7472C7.13109 19.6559 9.87481 21.75 13.1111 21.75V20.25C10.542 20.25 8.34688 18.5875 7.53189 16.2528L6.1157 16.7472ZM10.8889 15.75H6.82379V17.25H10.8889V15.75ZM6.82379 15.75H4.22222V17.25H6.82379V15.75Z" fill="#28303F"/>
</svg>
