<svg width="24" height="24" viewBox="0 0 24 24" fill="none" xmlns="http://www.w3.org/2000/svg">
<path d="M8 13.25C7.58579 13.25 7.25 13.5858 7.25 14C7.25 14.4142 7.58579 14.75 8 14.75V13.25ZM16 14.75C16.4142 14.75 16.75 14.4142 16.75 14C16.75 13.5858 16.4142 13.25 16 13.25V14.75ZM8 9.25C7.58579 9.25 7.25 9.58579 7.25 10C7.25 10.4142 7.58579 10.75 8 10.75V9.25ZM12 10.75C12.4142 10.75 12.75 10.4142 12.75 10C12.75 9.58579 12.4142 9.25 12 9.25V10.75ZM22.7136 11.1522C22.678 10.7395 22.3146 10.4338 21.9019 10.4694C21.4893 10.505 21.1836 10.8684 21.2192 11.281L22.7136 11.1522ZM13.719 3.78085C14.1316 3.81643 14.495 3.51073 14.5306 3.09805C14.5662 2.68537 14.2605 2.32198 13.8478 2.28639L13.719 3.78085ZM8 14.75H16V13.25H8V14.75ZM8 10.75H12V9.25H8V10.75ZM11 3.75H13V2.25H11V3.75ZM2.75 17V12H1.25V17H2.75ZM13 20.25H6V21.75H13V20.25ZM1.25 17C1.25 19.6234 3.37665 21.75 6 21.75V20.25C4.20507 20.25 2.75 18.7949 2.75 17H1.25ZM21.25 12C21.25 16.5563 17.5563 20.25 13 20.25V21.75C18.3848 21.75 22.75 17.3848 22.75 12H21.25ZM11 2.25C5.61522 2.25 1.25 6.61522 1.25 12H2.75C2.75 7.44365 6.44365 3.75 11 3.75V2.25ZM21.2192 11.281C21.2396 11.5178 21.25 11.7576 21.25 12H22.75C22.75 11.7145 22.7377 11.4317 22.7136 11.1522L21.2192 11.281ZM13 3.75C13.2424 3.75 13.4822 3.76043 13.719 3.78085L13.8478 2.28639C13.5683 2.26229 13.2855 2.25 13 2.25V3.75ZM21.25 6C21.25 7.24264 20.2426 8.25 19 8.25V9.75C21.0711 9.75 22.75 8.07107 22.75 6H21.25ZM19 8.25C17.7574 8.25 16.75 7.24264 16.75 6H15.25C15.25 8.07107 16.9289 9.75 19 9.75V8.25ZM16.75 6C16.75 4.75736 17.7574 3.75 19 3.75V2.25C16.9289 2.25 15.25 3.92893 15.25 6H16.75ZM19 3.75C20.2426 3.75 21.25 4.75736 21.25 6H22.75C22.75 3.92893 21.0711 2.25 19 2.25V3.75Z" fill="#28303F"/>
</svg>
