<svg width="24" height="24" viewBox="0 0 24 24" fill="none" xmlns="http://www.w3.org/2000/svg">
<path d="M14.5303 13.5303C14.8232 13.2374 14.8232 12.7626 14.5303 12.4697C14.2374 12.1768 13.7626 12.1768 13.4697 12.4697L14.5303 13.5303ZM12.7071 14.2929L13.2374 14.8232L12.7071 14.2929ZM11.2929 14.2929L10.7626 14.8232L11.2929 14.2929ZM10.5303 12.4697C10.2374 12.1768 9.76256 12.1768 9.46967 12.4697C9.17678 12.7626 9.17678 13.2374 9.46967 13.5303L10.5303 12.4697ZM12.75 9C12.75 8.58579 12.4142 8.25 12 8.25C11.5858 8.25 11.25 8.58579 11.25 9H12.75ZM11.25 14C11.25 14.4142 11.5858 14.75 12 14.75C12.4142 14.75 12.75 14.4142 12.75 14H11.25ZM13.4697 12.4697L12.1768 13.7626L13.2374 14.8232L14.5303 13.5303L13.4697 12.4697ZM11.8232 13.7626L10.5303 12.4697L9.46967 13.5303L10.7626 14.8232L11.8232 13.7626ZM11.25 9V14H12.75V9H11.25ZM12.1768 13.7626C12.0791 13.8602 11.9209 13.8602 11.8232 13.7626L10.7626 14.8232C11.446 15.5066 12.554 15.5066 13.2374 14.8232L12.1768 13.7626ZM11 3.75H13V2.25H11V3.75ZM2.75 17V12H1.25V17H2.75ZM13 20.25H6V21.75H13V20.25ZM1.25 17C1.25 19.6234 3.37665 21.75 6 21.75V20.25C4.20507 20.25 2.75 18.7949 2.75 17H1.25ZM21.25 12C21.25 16.5563 17.5563 20.25 13 20.25V21.75C18.3848 21.75 22.75 17.3848 22.75 12H21.25ZM13 3.75C17.5563 3.75 21.25 7.44365 21.25 12H22.75C22.75 6.61522 18.3848 2.25 13 2.25V3.75ZM11 2.25C5.61522 2.25 1.25 6.61522 1.25 12H2.75C2.75 7.44365 6.44365 3.75 11 3.75V2.25Z" fill="#28303F"/>
</svg>
