<svg width="24" height="24" viewBox="0 0 24 24" fill="none" xmlns="http://www.w3.org/2000/svg">
<path d="M11 3.75H13V2.25H11V3.75ZM2.75 17V12H1.25V17H2.75ZM13 20.25H6V21.75H13V20.25ZM1.25 17C1.25 19.6234 3.37665 21.75 6 21.75V20.25C4.20507 20.25 2.75 18.7949 2.75 17H1.25ZM21.25 12C21.25 16.5563 17.5563 20.25 13 20.25V21.75C18.3848 21.75 22.75 17.3848 22.75 12H21.25ZM13 3.75C17.5563 3.75 21.25 7.44365 21.25 12H22.75C22.75 6.61522 18.3848 2.25 13 2.25V3.75ZM11 2.25C5.61522 2.25 1.25 6.61522 1.25 12H2.75C2.75 7.44365 6.44365 3.75 11 3.75V2.25ZM10.75 11V10H9.25V11H10.75ZM13.25 10V11H14.75V10H13.25ZM12 8.75C12.6904 8.75 13.25 9.30964 13.25 10H14.75C14.75 8.48122 13.5188 7.25 12 7.25V8.75ZM10.75 10C10.75 9.30964 11.3096 8.75 12 8.75V7.25C10.4812 7.25 9.25 8.48122 9.25 10H10.75ZM10 11.75H14V10.25H10V11.75ZM15.25 13V14H16.75V13H15.25ZM14 15.25H10V16.75H14V15.25ZM8.75 14V13H7.25V14H8.75ZM10 15.25C9.30964 15.25 8.75 14.6904 8.75 14H7.25C7.25 15.5188 8.48122 16.75 10 16.75V15.25ZM15.25 14C15.25 14.6904 14.6904 15.25 14 15.25V16.75C15.5188 16.75 16.75 15.5188 16.75 14H15.25ZM14 11.75C14.6904 11.75 15.25 12.3096 15.25 13H16.75C16.75 11.4812 15.5188 10.25 14 10.25V11.75ZM10 10.25C8.48122 10.25 7.25 11.4812 7.25 13H8.75C8.75 12.3096 9.30964 11.75 10 11.75V10.25Z" fill="#28303F"/>
</svg>
