<svg width="24" height="24" viewBox="0 0 24 24" fill="none" xmlns="http://www.w3.org/2000/svg">
<path d="M7.25 16C7.25 16.4142 7.58579 16.75 8 16.75C8.41421 16.75 8.75 16.4142 8.75 16H7.25ZM15.25 16C15.25 16.4142 15.5858 16.75 16 16.75C16.4142 16.75 16.75 16.4142 16.75 16H15.25ZM11 3.75H13V2.25H11V3.75ZM2.75 17V12H1.25V17H2.75ZM13 20.25H6V21.75H13V20.25ZM1.25 17C1.25 19.6234 3.37665 21.75 6 21.75V20.25C4.20507 20.25 2.75 18.7949 2.75 17H1.25ZM21.25 12C21.25 16.5563 17.5563 20.25 13 20.25V21.75C18.3848 21.75 22.75 17.3848 22.75 12H21.25ZM13 3.75C17.5563 3.75 21.25 7.44365 21.25 12H22.75C22.75 6.61522 18.3848 2.25 13 2.25V3.75ZM11 2.25C5.61522 2.25 1.25 6.61522 1.25 12H2.75C2.75 7.44365 6.44365 3.75 11 3.75V2.25ZM13.25 10C13.25 10.6904 12.6904 11.25 12 11.25V12.75C13.5188 12.75 14.75 11.5188 14.75 10H13.25ZM12 11.25C11.3096 11.25 10.75 10.6904 10.75 10H9.25C9.25 11.5188 10.4812 12.75 12 12.75V11.25ZM10.75 10C10.75 9.30964 11.3096 8.75 12 8.75V7.25C10.4812 7.25 9.25 8.48122 9.25 10H10.75ZM12 8.75C12.6904 8.75 13.25 9.30964 13.25 10H14.75C14.75 8.48122 13.5188 7.25 12 7.25V8.75ZM8.75 16C8.75 14.2051 10.2051 12.75 12 12.75V11.25C9.37665 11.25 7.25 13.3766 7.25 16H8.75ZM12 12.75C13.7949 12.75 15.25 14.2051 15.25 16H16.75C16.75 13.3766 14.6234 11.25 12 11.25V12.75Z" fill="#28303F"/>
</svg>
