<svg width="24" height="24" viewBox="0 0 24 24" fill="none" xmlns="http://www.w3.org/2000/svg">
<path d="M9.46852 11.4143C9.14507 11.1556 8.67311 11.208 8.41435 11.5315C8.15559 11.8549 8.20803 12.3269 8.53148 12.5857L9.46852 11.4143ZM10.7528 13.4023L11.2213 12.8166L10.7528 13.4023ZM12.1301 13.2799L11.5657 12.786H11.5657L12.1301 13.2799ZM15.5644 10.4939C15.8372 10.1822 15.8056 9.70833 15.4939 9.43557C15.1822 9.16281 14.7083 9.19439 14.4356 9.50612L15.5644 10.4939ZM11 3.75H13V2.25H11V3.75ZM2.75 17V12H1.25V17H2.75ZM13 20.25H6V21.75H13V20.25ZM1.25 17C1.25 19.6234 3.37665 21.75 6 21.75V20.25C4.20507 20.25 2.75 18.7949 2.75 17H1.25ZM21.25 12C21.25 16.5563 17.5563 20.25 13 20.25V21.75C18.3848 21.75 22.75 17.3848 22.75 12H21.25ZM13 3.75C17.5563 3.75 21.25 7.44365 21.25 12H22.75C22.75 6.61522 18.3848 2.25 13 2.25V3.75ZM11 2.25C5.61522 2.25 1.25 6.61522 1.25 12H2.75C2.75 7.44365 6.44365 3.75 11 3.75V2.25ZM8.53148 12.5857L10.2843 13.9879L11.2213 12.8166L9.46852 11.4143L8.53148 12.5857ZM12.6945 13.7738L15.5644 10.4939L14.4356 9.50612L11.5657 12.786L12.6945 13.7738ZM10.2843 13.9879C11.0156 14.5729 12.0778 14.4786 12.6945 13.7738L11.5657 12.786C11.4776 12.8867 11.3258 12.9002 11.2213 12.8166L10.2843 13.9879Z" fill="#28303F"/>
</svg>
