<svg width="24" height="24" viewBox="0 0 24 24" fill="none" xmlns="http://www.w3.org/2000/svg">
<path d="M1.46967 21.4697C1.17678 21.7626 1.17678 22.2374 1.46967 22.5303C1.76256 22.8232 2.23744 22.8232 2.53033 22.5303L1.46967 21.4697ZM12.5976 12.463C12.8905 12.1701 12.8905 11.6952 12.5976 11.4023C12.3047 11.1094 11.8299 11.1094 11.537 11.4023L12.5976 12.463ZM19.1787 11.0239L18.5707 10.5848L19.1787 11.0239ZM15.6329 14.5697L15.1938 13.9617L15.6329 14.5697ZM19.9342 2.0187L19.8297 1.27601L19.9342 2.0187ZM21.9813 4.0651L22.724 4.1695L21.9813 4.0651ZM6.62773 15.3252L5.88504 15.2208L6.62773 15.3252ZM8.67411 17.3723L8.77852 18.115L8.67411 17.3723ZM2.53033 22.5303L12.5976 12.463L11.537 11.4023L1.46967 21.4697L2.53033 22.5303ZM7.37042 15.4296C8.29244 8.87278 13.4818 3.68341 20.0386 2.7614L19.8297 1.27601C12.6103 2.2912 6.90022 8.00133 5.88504 15.2208L7.37042 15.4296ZM15.1938 13.9617C13.2769 15.346 11.0188 16.2854 8.56971 16.6296L8.77852 18.115C11.4758 17.7359 13.9627 16.701 16.072 15.1777L15.1938 13.9617ZM21.2386 3.96069C20.8943 6.40977 19.955 8.66793 18.5707 10.5848L19.7867 11.463C21.31 9.35365 22.3448 6.86683 22.724 4.1695L21.2386 3.96069ZM17.9092 12.403C18.6288 12.403 19.3412 12.0799 19.7867 11.463L18.5707 10.5848C18.4309 10.7784 18.1892 10.903 17.9092 10.903V12.403ZM17.012 13.3002C17.012 12.8047 17.4137 12.403 17.9092 12.403V10.903C16.5853 10.903 15.512 11.9763 15.512 13.3002H17.012ZM16.072 15.1777C16.6889 14.7322 17.012 14.0198 17.012 13.3002H15.512C15.512 13.5802 15.3874 13.8219 15.1938 13.9617L16.072 15.1777ZM20.0386 2.7614C20.7521 2.66107 21.3388 3.24795 21.2386 3.96069L22.724 4.1695C22.9631 2.46852 21.53 1.03692 19.8297 1.27601L20.0386 2.7614ZM5.88504 15.2208C5.64595 16.921 7.07754 18.3542 8.77852 18.115L8.56971 16.6296C7.85698 16.7298 7.2701 16.1431 7.37042 15.4296L5.88504 15.2208Z" fill="#28303F"/>
</svg>
