<svg width="24" height="24" viewBox="0 0 24 24" fill="none" xmlns="http://www.w3.org/2000/svg">
<path d="M18 17.75C18.4142 17.75 18.75 17.4142 18.75 17C18.75 16.5858 18.4142 16.25 18 16.25V17.75ZM15 16.25C14.5858 16.25 14.25 16.5858 14.25 17C14.25 17.4142 14.5858 17.75 15 17.75V16.25ZM18 14.75C18.4142 14.75 18.75 14.4142 18.75 14C18.75 13.5858 18.4142 13.25 18 13.25V14.75ZM15 13.25C14.5858 13.25 14.25 13.5858 14.25 14C14.25 14.4142 14.5858 14.75 15 14.75V13.25ZM6 3.75H18V2.25H6V3.75ZM21.25 7V17H22.75V7H21.25ZM18 20.25H6V21.75H18V20.25ZM2.75 17V7H1.25V17H2.75ZM6 20.25C4.20507 20.25 2.75 18.7949 2.75 17H1.25C1.25 19.6234 3.37665 21.75 6 21.75V20.25ZM21.25 17C21.25 18.7949 19.7949 20.25 18 20.25V21.75C20.6234 21.75 22.75 19.6234 22.75 17H21.25ZM18 3.75C19.7949 3.75 21.25 5.20507 21.25 7H22.75C22.75 4.37665 20.6234 2.25 18 2.25V3.75ZM6 2.25C3.37665 2.25 1.25 4.37665 1.25 7H2.75C2.75 5.20507 4.20507 3.75 6 3.75V2.25ZM18 16.25H15V17.75H18V16.25ZM18 13.25H15V14.75H18V13.25ZM8 7.75H10V6.25H8V7.75ZM10 10.25H8V11.75H10V10.25ZM8 10.25C7.30964 10.25 6.75 9.69036 6.75 9H5.25C5.25 10.5188 6.48122 11.75 8 11.75V10.25ZM11.25 9C11.25 9.69036 10.6904 10.25 10 10.25V11.75C11.5188 11.75 12.75 10.5188 12.75 9H11.25ZM10 7.75C10.6904 7.75 11.25 8.30964 11.25 9H12.75C12.75 7.48122 11.5188 6.25 10 6.25V7.75ZM8 6.25C6.48122 6.25 5.25 7.48122 5.25 9H6.75C6.75 8.30964 7.30964 7.75 8 7.75V6.25Z" fill="#28303F"/>
</svg>
