<svg width="24" height="24" viewBox="0 0 24 24" fill="none" xmlns="http://www.w3.org/2000/svg">
<path d="M2.53033 1.46967C2.23744 1.17678 1.76256 1.17678 1.46967 1.46967C1.17678 1.76256 1.17678 2.23744 1.46967 2.53033L2.53033 1.46967ZM21.4697 22.5303C21.7626 22.8232 22.2374 22.8232 22.5303 22.5303C22.8232 22.2374 22.8232 21.7626 22.5303 21.4697L21.4697 22.5303ZM7 2.25C6.58579 2.25 6.25 2.58579 6.25 3C6.25 3.41421 6.58579 3.75 7 3.75V2.25ZM21.1677 17.7308C21.075 18.1346 21.3271 18.537 21.7308 18.6296C22.1346 18.7223 22.537 18.4702 22.6296 18.0665L21.1677 17.7308ZM13.984 9.77596C13.6393 10.0057 13.5462 10.4714 13.776 10.816C14.0057 11.1607 14.4714 11.2538 14.816 11.024L13.984 9.77596ZM18.416 8.62404C18.7607 8.39427 18.8538 7.92862 18.624 7.58397C18.3943 7.23933 17.9286 7.1462 17.584 7.37596L18.416 8.62404ZM18 20.25H6V21.75H18V20.25ZM2.75 17V7H1.25V17H2.75ZM6 20.25C4.20507 20.25 2.75 18.7949 2.75 17H1.25C1.25 19.6234 3.37665 21.75 6 21.75V20.25ZM3.28709 3.10052C2.05729 3.95746 1.25 5.38439 1.25 7H2.75C2.75 5.89566 3.30011 4.91969 4.14464 4.33121L3.28709 3.10052ZM1.46967 2.53033L3.18553 4.24619L4.24619 3.18553L2.53033 1.46967L1.46967 2.53033ZM3.18553 4.24619L19.7538 20.8145L20.8145 19.7538L4.24619 3.18553L3.18553 4.24619ZM19.7538 20.8145L21.4697 22.5303L22.5303 21.4697L20.8145 19.7538L19.7538 20.8145ZM19.8554 19.6688C19.3295 20.0352 18.6909 20.25 18 20.25V21.75C19.0074 21.75 19.9436 21.4356 20.7129 20.8995L19.8554 19.6688ZM21.25 7V17H22.75V7H21.25ZM18 3.75C19.7949 3.75 21.25 5.20507 21.25 7H22.75C22.75 4.37665 20.6234 2.25 18 2.25V3.75ZM7 3.75H18V2.25H7V3.75ZM21.25 17C21.25 17.2521 21.2214 17.4966 21.1677 17.7308L22.6296 18.0665C22.7085 17.7229 22.75 17.3659 22.75 17H21.25ZM14.816 11.024L18.416 8.62404L17.584 7.37596L13.984 9.77596L14.816 11.024Z" fill="#28303F"/>
</svg>
