<svg width="24" height="24" viewBox="0 0 24 24" fill="none" xmlns="http://www.w3.org/2000/svg">
<path d="M20.7071 7.29289L21.2374 7.82322V7.82322L20.7071 7.29289ZM22.5303 6.53033C22.8232 6.23744 22.8232 5.76256 22.5303 5.46967C22.2374 5.17678 21.7626 5.17678 21.4697 5.46967L22.5303 6.53033ZM19.2929 7.29289L18.7626 7.82322V7.82322L19.2929 7.29289ZM18.5303 5.46967C18.2374 5.17678 17.7626 5.17678 17.4697 5.46967C17.1768 5.76256 17.1768 6.23744 17.4697 6.53033L18.5303 5.46967ZM20.75 2C20.75 1.58579 20.4142 1.25 20 1.25C19.5858 1.25 19.25 1.58579 19.25 2H20.75ZM19.25 7C19.25 7.41421 19.5858 7.75 20 7.75C20.4142 7.75 20.75 7.41421 20.75 7H19.25ZM6.45 12.4C6.11863 12.1515 5.64853 12.2186 5.4 12.55C5.15147 12.8814 5.21863 13.3515 5.55 13.6L6.45 12.4ZM8.2 14.65L7.75 15.25H7.75L8.2 14.65ZM11.8 14.65L12.25 15.25L11.8 14.65ZM14.45 13.6C14.7814 13.3515 14.8485 12.8814 14.6 12.55C14.3515 12.2186 13.8814 12.1515 13.55 12.4L14.45 13.6ZM21.2374 7.82322L22.5303 6.53033L21.4697 5.46967L20.1768 6.76256L21.2374 7.82322ZM19.8232 6.76256L18.5303 5.46967L17.4697 6.53033L18.7626 7.82322L19.8232 6.76256ZM19.25 2V7H20.75V2H19.25ZM20.1768 6.76256C20.0791 6.86019 19.9209 6.86019 19.8232 6.76256L18.7626 7.82322C19.446 8.50664 20.554 8.50664 21.2374 7.82322L20.1768 6.76256ZM5 8.75H15V7.25H5V8.75ZM17.25 11V19H18.75V11H17.25ZM15 21.25H5V22.75H15V21.25ZM2.75 19V11H1.25V19H2.75ZM5 21.25C3.75736 21.25 2.75 20.2426 2.75 19H1.25C1.25 21.0711 2.92893 22.75 5 22.75V21.25ZM17.25 19C17.25 20.2426 16.2426 21.25 15 21.25V22.75C17.0711 22.75 18.75 21.0711 18.75 19H17.25ZM15 8.75C16.2426 8.75 17.25 9.75736 17.25 11H18.75C18.75 8.92893 17.0711 7.25 15 7.25V8.75ZM5 7.25C2.92893 7.25 1.25 8.92893 1.25 11H2.75C2.75 9.75736 3.75736 8.75 5 8.75V7.25ZM5.55 13.6L7.75 15.25L8.65 14.05L6.45 12.4L5.55 13.6ZM12.25 15.25L14.45 13.6L13.55 12.4L11.35 14.05L12.25 15.25ZM7.75 15.25C9.08333 16.25 10.9167 16.25 12.25 15.25L11.35 14.05C10.55 14.65 9.45 14.65 8.65 14.05L7.75 15.25Z" fill="#28303F"/>
</svg>
