<svg width="24" height="24" viewBox="0 0 24 24" fill="none" xmlns="http://www.w3.org/2000/svg">
<circle cx="18" cy="6" r="4" stroke="#28303F" stroke-width="1.5"/>
<path d="M15 3L21 9" stroke="#28303F" stroke-width="1.5"/>
<path d="M6.2 12.4C5.86863 12.1515 5.39853 12.2186 5.15 12.55C4.90147 12.8814 4.96863 13.3515 5.3 13.6L6.2 12.4ZM7.95 14.65L7.5 15.25L7.95 14.65ZM11.55 14.65L12 15.25V15.25L11.55 14.65ZM14.2 13.6C14.5314 13.3515 14.5985 12.8814 14.35 12.55C14.1015 12.2186 13.6314 12.1515 13.3 12.4L14.2 13.6ZM5.3 13.6L7.5 15.25L8.4 14.05L6.2 12.4L5.3 13.6ZM12 15.25L14.2 13.6L13.3 12.4L11.1 14.05L12 15.25ZM7.5 15.25C8.83333 16.25 10.6667 16.25 12 15.25L11.1 14.05C10.3 14.65 9.2 14.65 8.4 14.05L7.5 15.25Z" fill="#28303F"/>
<path fill-rule="evenodd" clip-rule="evenodd" d="M18.75 11.9536V19C18.75 21.0711 17.0711 22.75 15 22.75H5C2.92893 22.75 1.25 21.0711 1.25 19V11C1.25 8.92893 2.92893 7.25 5 7.25H12.1304C12.2425 7.77911 12.4244 8.28247 12.6659 8.75H5C3.75736 8.75 2.75 9.75736 2.75 11V19C2.75 20.2426 3.75736 21.25 5 21.25H15C16.2426 21.25 17.25 20.2426 17.25 19V11.9536C17.4957 11.9842 17.746 12 18 12C18.254 12 18.5043 11.9842 18.75 11.9536Z" fill="#28303F"/>
</svg>
