<svg width="24" height="24" viewBox="0 0 24 24" fill="none" xmlns="http://www.w3.org/2000/svg">
<path d="M6.41603 8.37596C6.07138 8.1462 5.60573 8.23933 5.37596 8.58397C5.1462 8.92862 5.23933 9.39427 5.58397 9.62404L6.41603 8.37596ZM9.7812 11.5208L10.1972 10.8968L9.7812 11.5208ZM14.2188 11.5208L13.8028 10.8968L14.2188 11.5208ZM15.1252 11.8179C15.4698 11.5882 15.563 11.1225 15.3332 10.7779C15.1034 10.4332 14.6378 10.3401 14.2931 10.5699L15.1252 11.8179ZM13.8027 4.75C14.2169 4.75 14.5527 4.41421 14.5527 4C14.5527 3.58579 14.2169 3.25 13.8027 3.25V4.75ZM22.75 12.1973C22.75 11.7831 22.4142 11.4473 22 11.4473C21.5858 11.4473 21.25 11.7831 21.25 12.1973H22.75ZM21.25 7C21.25 8.24264 20.2426 9.25 19 9.25V10.75C21.0711 10.75 22.75 9.07107 22.75 7H21.25ZM19 9.25C17.7574 9.25 16.75 8.24264 16.75 7H15.25C15.25 9.07107 16.9289 10.75 19 10.75V9.25ZM16.75 7C16.75 5.75736 17.7574 4.75 19 4.75V3.25C16.9289 3.25 15.25 4.92893 15.25 7H16.75ZM19 4.75C20.2426 4.75 21.25 5.75736 21.25 7H22.75C22.75 4.92893 21.0711 3.25 19 3.25V4.75ZM5.58397 9.62404L9.36518 12.1448L10.1972 10.8968L6.41603 8.37596L5.58397 9.62404ZM9.36518 12.1448C10.9607 13.2085 13.0393 13.2085 14.6348 12.1448L13.8028 10.8968C12.7111 11.6245 11.2889 11.6245 10.1972 10.8968L9.36518 12.1448ZM14.6348 12.1448L15.1252 11.8179L14.2931 10.5699L13.8028 10.8968L14.6348 12.1448ZM18 21.25H6V22.75H18V21.25ZM2.75 18V8H1.25V18H2.75ZM6 21.25C4.20507 21.25 2.75 19.7949 2.75 18H1.25C1.25 20.6234 3.37665 22.75 6 22.75V21.25ZM21.25 18C21.25 19.7949 19.7949 21.25 18 21.25V22.75C20.6234 22.75 22.75 20.6234 22.75 18H21.25ZM6 3.25C3.37665 3.25 1.25 5.37665 1.25 8H2.75C2.75 6.20507 4.20507 4.75 6 4.75V3.25ZM6 4.75H13.8027V3.25H6V4.75ZM21.25 12.1973V18H22.75V12.1973H21.25Z" fill="#28303F"/>
</svg>
