<svg width="24" height="24" viewBox="0 0 24 24" fill="none" xmlns="http://www.w3.org/2000/svg">
<path d="M18.2191 7.02391L18.8048 6.55539L18.2191 7.02391ZM16.365 4.70626L16.9507 4.23774L16.365 4.70626ZM18.716 2.46599L18.1857 2.99632V2.99632L18.716 2.46599ZM19 2.75L18.4697 3.28033C18.7626 3.57322 19.2374 3.57322 19.5303 3.28033L19 2.75ZM19.284 2.46599L19.8143 2.99632L19.8143 2.99632L19.284 2.46599ZM21.635 4.70626L22.2206 5.17478V5.17478L21.635 4.70626ZM19.7809 7.02391L19.1952 6.55539V6.55539L19.7809 7.02391ZM6.45 12.4C6.11863 12.1515 5.64853 12.2186 5.4 12.55C5.15147 12.8814 5.21863 13.3515 5.55 13.6L6.45 12.4ZM8.2 14.65L8.65 14.05L8.2 14.65ZM11.8 14.65L12.25 15.25L11.8 14.65ZM14.45 13.6C14.7814 13.3515 14.8485 12.8814 14.6 12.55C14.3515 12.2186 13.8814 12.1515 13.55 12.4L14.45 13.6ZM18.8048 6.55539L16.9507 4.23774L15.7794 5.17478L17.6335 7.49243L18.8048 6.55539ZM16.75 3.6657V3.59099H15.25V3.6657H16.75ZM18.1857 2.99632L18.4697 3.28033L19.5303 2.21967L19.2463 1.93566L18.1857 2.99632ZM19.5303 3.28033L19.8143 2.99632L18.7537 1.93566L18.4697 2.21967L19.5303 3.28033ZM21.25 3.59099V3.6657H22.75V3.59099H21.25ZM21.0493 4.23774L19.1952 6.55539L20.3665 7.49243L22.2206 5.17478L21.0493 4.23774ZM21.25 3.6657C21.25 3.87363 21.1792 4.07537 21.0493 4.23774L22.2206 5.17478C22.5633 4.74644 22.75 4.21424 22.75 3.6657H21.25ZM20.409 2.75C20.8735 2.75 21.25 3.12652 21.25 3.59099H22.75C22.75 2.2981 21.7019 1.25 20.409 1.25V2.75ZM17.591 2.75C17.814 2.75 18.0279 2.8386 18.1857 2.99632L19.2463 1.93566C18.8073 1.49664 18.2119 1.25 17.591 1.25V2.75ZM16.75 3.59099C16.75 3.12652 17.1265 2.75 17.591 2.75V1.25C16.2981 1.25 15.25 2.2981 15.25 3.59099H16.75ZM16.9507 4.23774C16.8208 4.07537 16.75 3.87363 16.75 3.6657H15.25C15.25 4.21424 15.4367 4.74645 15.7794 5.17478L16.9507 4.23774ZM19.8143 2.99632C19.9721 2.8386 20.186 2.75 20.409 2.75V1.25C19.7881 1.25 19.1927 1.49664 18.7537 1.93566L19.8143 2.99632ZM17.6335 7.49243C18.334 8.36815 19.666 8.36815 20.3665 7.49243L19.1952 6.55539C19.0951 6.68049 18.9049 6.68049 18.8048 6.55539L17.6335 7.49243ZM5 8.75H15V7.25H5V8.75ZM17.25 11V19H18.75V11H17.25ZM15 21.25H5V22.75H15V21.25ZM2.75 19V11H1.25V19H2.75ZM5 21.25C3.75736 21.25 2.75 20.2426 2.75 19H1.25C1.25 21.0711 2.92893 22.75 5 22.75V21.25ZM17.25 19C17.25 20.2426 16.2426 21.25 15 21.25V22.75C17.0711 22.75 18.75 21.0711 18.75 19H17.25ZM15 8.75C16.2426 8.75 17.25 9.75736 17.25 11H18.75C18.75 8.92893 17.0711 7.25 15 7.25V8.75ZM5 7.25C2.92893 7.25 1.25 8.92893 1.25 11H2.75C2.75 9.75736 3.75736 8.75 5 8.75V7.25ZM5.55 13.6L7.75 15.25L8.65 14.05L6.45 12.4L5.55 13.6ZM12.25 15.25L14.45 13.6L13.55 12.4L11.35 14.05L12.25 15.25ZM7.75 15.25C9.08333 16.25 10.9167 16.25 12.25 15.25L11.35 14.05C10.55 14.65 9.45 14.65 8.65 14.05L7.75 15.25Z" fill="#28303F"/>
</svg>
