<svg width="24" height="24" viewBox="0 0 24 24" fill="none" xmlns="http://www.w3.org/2000/svg">
<path d="M16.7071 4.70711L16.1768 5.23744L16.7071 4.70711ZM17.4697 6.53033C17.7626 6.82322 18.2374 6.82322 18.5303 6.53033C18.8232 6.23744 18.8232 5.76256 18.5303 5.46967L17.4697 6.53033ZM16.7071 3.29289L17.2374 3.82322L16.7071 3.29289ZM18.5303 2.53033C18.8232 2.23744 18.8232 1.76256 18.5303 1.46967C18.2374 1.17678 17.7626 1.17678 17.4697 1.46967L18.5303 2.53033ZM22 4.75C22.4142 4.75 22.75 4.41421 22.75 4C22.75 3.58579 22.4142 3.25 22 3.25V4.75ZM17 3.25C16.5858 3.25 16.25 3.58579 16.25 4C16.25 4.41421 16.5858 4.75 17 4.75V3.25ZM6.45 12.4C6.11863 12.1515 5.64853 12.2186 5.4 12.55C5.15147 12.8814 5.21863 13.3515 5.55 13.6L6.45 12.4ZM8.2 14.65L8.65 14.05L8.2 14.65ZM11.8 14.65L12.25 15.25L11.8 14.65ZM14.45 13.6C14.7814 13.3515 14.8485 12.8814 14.6 12.55C14.3515 12.2186 13.8814 12.1515 13.55 12.4L14.45 13.6ZM16.1768 5.23744L17.4697 6.53033L18.5303 5.46967L17.2374 4.17678L16.1768 5.23744ZM17.2374 3.82322L18.5303 2.53033L17.4697 1.46967L16.1768 2.76256L17.2374 3.82322ZM22 3.25H17V4.75H22V3.25ZM17.2374 4.17678C17.1398 4.07915 17.1398 3.92085 17.2374 3.82322L16.1768 2.76256C15.4934 3.44598 15.4934 4.55402 16.1768 5.23744L17.2374 4.17678ZM5 8.75H15V7.25H5V8.75ZM17.25 11V19H18.75V11H17.25ZM15 21.25H5V22.75H15V21.25ZM2.75 19V11H1.25V19H2.75ZM5 21.25C3.75736 21.25 2.75 20.2426 2.75 19H1.25C1.25 21.0711 2.92893 22.75 5 22.75V21.25ZM17.25 19C17.25 20.2426 16.2426 21.25 15 21.25V22.75C17.0711 22.75 18.75 21.0711 18.75 19H17.25ZM15 8.75C16.2426 8.75 17.25 9.75736 17.25 11H18.75C18.75 8.92893 17.0711 7.25 15 7.25V8.75ZM5 7.25C2.92893 7.25 1.25 8.92893 1.25 11H2.75C2.75 9.75736 3.75736 8.75 5 8.75V7.25ZM5.55 13.6L7.75 15.25L8.65 14.05L6.45 12.4L5.55 13.6ZM12.25 15.25L14.45 13.6L13.55 12.4L11.35 14.05L12.25 15.25ZM7.75 15.25C9.08333 16.25 10.9167 16.25 12.25 15.25L11.35 14.05C10.55 14.65 9.45 14.65 8.65 14.05L7.75 15.25Z" fill="#28303F"/>
</svg>
