<svg width="24" height="24" viewBox="0 0 24 24" fill="none" xmlns="http://www.w3.org/2000/svg">
<path d="M16.25 22C16.25 22.4142 16.5858 22.75 17 22.75C17.4142 22.75 17.75 22.4142 17.75 22H16.25ZM14 19V18.25C13.5858 18.25 13.25 18.5858 13.25 19H14ZM13.25 22C13.25 22.4142 13.5858 22.75 14 22.75C14.4142 22.75 14.75 22.4142 14.75 22H13.25ZM15.25 7C15.25 7.41421 15.5858 7.75 16 7.75C16.4142 7.75 16.75 7.41421 16.75 7H15.25ZM19 2.75C19.4142 2.75 19.75 2.41421 19.75 2C19.75 1.58579 19.4142 1.25 19 1.25V2.75ZM17.75 22V19H16.25V22H17.75ZM17 18.25H14V19.75H17V18.25ZM13.25 19V22H14.75V19H13.25ZM12.25 10V15H13.75V10H12.25ZM9 18.25H7V19.75H9V18.25ZM3.75 15V10H2.25V15H3.75ZM7 18.25C5.20507 18.25 3.75 16.7949 3.75 15H2.25C2.25 17.6234 4.37665 19.75 7 19.75V18.25ZM12.25 15C12.25 16.7949 10.7949 18.25 9 18.25V19.75C11.6234 19.75 13.75 17.6234 13.75 15H12.25ZM8 5.75C10.3472 5.75 12.25 7.65279 12.25 10H13.75C13.75 6.82436 11.1756 4.25 8 4.25V5.75ZM8 4.25C4.82436 4.25 2.25 6.82436 2.25 10H3.75C3.75 7.65279 5.65279 5.75 8 5.75V4.25ZM8 5.75H16V4.25H8V5.75ZM20.25 10V15H21.75V10H20.25ZM17 18.25H7V19.75H17V18.25ZM20.25 15C20.25 16.7949 18.7949 18.25 17 18.25V19.75C19.6234 19.75 21.75 17.6234 21.75 15H20.25ZM16 5.75C18.3472 5.75 20.25 7.65279 20.25 10H21.75C21.75 6.82436 19.1756 4.25 16 4.25V5.75ZM16.75 7V4H15.25V7H16.75ZM18 2.75H19V1.25H18V2.75ZM16.75 4C16.75 3.30964 17.3096 2.75 18 2.75V1.25C16.4812 1.25 15.25 2.48122 15.25 4H16.75Z" fill="#28303F"/>
</svg>
