<svg width="24" height="24" viewBox="0 0 24 24" fill="none" xmlns="http://www.w3.org/2000/svg">
<path d="M1.25 12C1.25 12.4142 1.58579 12.75 2 12.75C2.41421 12.75 2.75 12.4142 2.75 12H1.25ZM8 20.25C7.58579 20.25 7.25 20.5858 7.25 21C7.25 21.4142 7.58579 21.75 8 21.75V20.25ZM6.41603 7.37596C6.07138 7.1462 5.60573 7.23933 5.37596 7.58397C5.1462 7.92862 5.23933 8.39427 5.58397 8.62404L6.41603 7.37596ZM9.7812 10.5208L10.1972 9.89676L9.7812 10.5208ZM14.2188 10.5208L13.8028 9.89676L14.2188 10.5208ZM18.416 8.62404C18.7607 8.39427 18.8538 7.92862 18.624 7.58397C18.3943 7.23933 17.9286 7.1462 17.584 7.37596L18.416 8.62404ZM2 14.25C1.58579 14.25 1.25 14.5858 1.25 15C1.25 15.4142 1.58579 15.75 2 15.75V14.25ZM8 15.75C8.41421 15.75 8.75 15.4142 8.75 15C8.75 14.5858 8.41421 14.25 8 14.25V15.75ZM2 17.25C1.58579 17.25 1.25 17.5858 1.25 18C1.25 18.4142 1.58579 18.75 2 18.75V17.25ZM8 18.75C8.41421 18.75 8.75 18.4142 8.75 18C8.75 17.5858 8.41421 17.25 8 17.25V18.75ZM6 3.75H18V2.25H6V3.75ZM21.25 7V17H22.75V7H21.25ZM2.75 12V7H1.25V12H2.75ZM18 20.25H8V21.75H18V20.25ZM21.25 17C21.25 18.7949 19.7949 20.25 18 20.25V21.75C20.6234 21.75 22.75 19.6234 22.75 17H21.25ZM18 3.75C19.7949 3.75 21.25 5.20507 21.25 7H22.75C22.75 4.37665 20.6234 2.25 18 2.25V3.75ZM6 2.25C3.37665 2.25 1.25 4.37665 1.25 7H2.75C2.75 5.20507 4.20507 3.75 6 3.75V2.25ZM5.58397 8.62404L9.36518 11.1448L10.1972 9.89676L6.41603 7.37596L5.58397 8.62404ZM14.6348 11.1448L18.416 8.62404L17.584 7.37596L13.8028 9.89676L14.6348 11.1448ZM9.36518 11.1448C10.9607 12.2085 13.0393 12.2085 14.6348 11.1448L13.8028 9.89676C12.7111 10.6245 11.2889 10.6245 10.1972 9.89676L9.36518 11.1448ZM2 15.75H8V14.25H2V15.75ZM2 18.75H8V17.25H2V18.75Z" fill="#28303F"/>
</svg>
