<svg width="24" height="24" viewBox="0 0 24 24" fill="none" xmlns="http://www.w3.org/2000/svg">
<path d="M20.75 3C20.75 2.58579 20.4142 2.25 20 2.25C19.5858 2.25 19.25 2.58579 19.25 3H20.75ZM19.25 7C19.25 7.41421 19.5858 7.75 20 7.75C20.4142 7.75 20.75 7.41421 20.75 7H19.25ZM22 5.75C22.4142 5.75 22.75 5.41421 22.75 5C22.75 4.58579 22.4142 4.25 22 4.25V5.75ZM18 4.25C17.5858 4.25 17.25 4.58579 17.25 5C17.25 5.41421 17.5858 5.75 18 5.75V4.25ZM6.45 11.4C6.11863 11.1515 5.64853 11.2186 5.4 11.55C5.15147 11.8814 5.21863 12.3515 5.55 12.6L6.45 11.4ZM8.8 14.1L8.35 14.7L8.8 14.1ZM11.2 14.1L11.65 14.7V14.7L11.2 14.1ZM14.45 12.6C14.7814 12.3515 14.8485 11.8814 14.6 11.55C14.3515 11.2186 13.8814 11.1515 13.55 11.4L14.45 12.6ZM19.25 3V7H20.75V3H19.25ZM22 4.25L18 4.25V5.75L22 5.75V4.25ZM5 7.75H15V6.25H5V7.75ZM17.25 10V18H18.75V10H17.25ZM15 20.25H5V21.75H15V20.25ZM2.75 18V10H1.25V18H2.75ZM5 20.25C3.75736 20.25 2.75 19.2426 2.75 18H1.25C1.25 20.0711 2.92893 21.75 5 21.75V20.25ZM17.25 18C17.25 19.2426 16.2426 20.25 15 20.25V21.75C17.0711 21.75 18.75 20.0711 18.75 18H17.25ZM15 7.75C16.2426 7.75 17.25 8.75736 17.25 10H18.75C18.75 7.92893 17.0711 6.25 15 6.25V7.75ZM5 6.25C2.92893 6.25 1.25 7.92893 1.25 10H2.75C2.75 8.75736 3.75736 7.75 5 7.75V6.25ZM5.55 12.6L8.35 14.7L9.25 13.5L6.45 11.4L5.55 12.6ZM11.65 14.7L14.45 12.6L13.55 11.4L10.75 13.5L11.65 14.7ZM8.35 14.7C9.32778 15.4333 10.6722 15.4333 11.65 14.7L10.75 13.5C10.3056 13.8333 9.69444 13.8333 9.25 13.5L8.35 14.7Z" fill="#28303F"/>
</svg>
