<svg width="24" height="24" viewBox="0 0 24 24" fill="none" xmlns="http://www.w3.org/2000/svg">
<path d="M21.2929 3.29289L20.7626 3.82322V3.82322L21.2929 3.29289ZM20.5303 1.46967C20.2374 1.17678 19.7626 1.17678 19.4697 1.46967C19.1768 1.76256 19.1768 2.23744 19.4697 2.53033L20.5303 1.46967ZM21.2929 4.70711L20.7626 4.17678V4.17678L21.2929 4.70711ZM19.4697 5.46967C19.1768 5.76256 19.1768 6.23744 19.4697 6.53033C19.7626 6.82322 20.2374 6.82322 20.5303 6.53033L19.4697 5.46967ZM16 3.25C15.5858 3.25 15.25 3.58579 15.25 4C15.25 4.41421 15.5858 4.75 16 4.75V3.25ZM21 4.75C21.4142 4.75 21.75 4.41421 21.75 4C21.75 3.58579 21.4142 3.25 21 3.25V4.75ZM6.45 12.4C6.11863 12.1515 5.64853 12.2186 5.4 12.55C5.15147 12.8814 5.21863 13.3515 5.55 13.6L6.45 12.4ZM8.2 14.65L7.75 15.25H7.75L8.2 14.65ZM11.8 14.65L12.25 15.25L11.8 14.65ZM14.45 13.6C14.7814 13.3515 14.8485 12.8814 14.6 12.55C14.3515 12.2186 13.8814 12.1515 13.55 12.4L14.45 13.6ZM21.8232 2.76256L20.5303 1.46967L19.4697 2.53033L20.7626 3.82322L21.8232 2.76256ZM20.7626 4.17678L19.4697 5.46967L20.5303 6.53033L21.8232 5.23744L20.7626 4.17678ZM16 4.75H21V3.25H16V4.75ZM20.7626 3.82322C20.8602 3.92085 20.8602 4.07915 20.7626 4.17678L21.8232 5.23744C22.5066 4.55402 22.5066 3.44598 21.8232 2.76256L20.7626 3.82322ZM5 8.75H15V7.25H5V8.75ZM17.25 11V19H18.75V11H17.25ZM15 21.25H5V22.75H15V21.25ZM2.75 19V11H1.25V19H2.75ZM5 21.25C3.75736 21.25 2.75 20.2426 2.75 19H1.25C1.25 21.0711 2.92893 22.75 5 22.75V21.25ZM17.25 19C17.25 20.2426 16.2426 21.25 15 21.25V22.75C17.0711 22.75 18.75 21.0711 18.75 19H17.25ZM15 8.75C16.2426 8.75 17.25 9.75736 17.25 11H18.75C18.75 8.92893 17.0711 7.25 15 7.25V8.75ZM5 7.25C2.92893 7.25 1.25 8.92893 1.25 11H2.75C2.75 9.75736 3.75736 8.75 5 8.75V7.25ZM5.55 13.6L7.75 15.25L8.65 14.05L6.45 12.4L5.55 13.6ZM12.25 15.25L14.45 13.6L13.55 12.4L11.35 14.05L12.25 15.25ZM7.75 15.25C9.08333 16.25 10.9167 16.25 12.25 15.25L11.35 14.05C10.55 14.65 9.45 14.65 8.65 14.05L7.75 15.25Z" fill="#28303F"/>
</svg>
