<svg width="24" height="24" viewBox="0 0 24 24" fill="none" xmlns="http://www.w3.org/2000/svg">
<path d="M7.25273 11.6893C6.92136 11.4408 6.45126 11.5079 6.20273 11.8393C5.95421 12.1707 6.02136 12.6408 6.35273 12.8893L7.25273 11.6893ZM9.00273 13.9393L8.55273 14.5393H8.55273L9.00273 13.9393ZM12.6027 13.9393L13.0527 14.5393L12.6027 13.9393ZM15.2527 12.8893C15.5841 12.6408 15.6513 12.1707 15.4027 11.8393C15.1542 11.5079 14.6841 11.4408 14.3527 11.6893L15.2527 12.8893ZM12.4876 8.03931C12.9018 8.03931 13.2376 7.70352 13.2376 7.28931C13.2376 6.87509 12.9018 6.53931 12.4876 6.53931V8.03931ZM19.5527 9.85516C19.5527 9.44094 19.2169 9.10516 18.8027 9.10516C18.3885 9.10516 18.0527 9.44094 18.0527 9.85516H19.5527ZM18.0527 10.2893V18.2893H19.5527V10.2893H18.0527ZM15.8027 20.5393H5.80273V22.0393H15.8027V20.5393ZM3.55273 18.2893V10.2893H2.05273V18.2893H3.55273ZM5.80273 20.5393C4.56009 20.5393 3.55273 19.5319 3.55273 18.2893H2.05273C2.05273 20.3604 3.73167 22.0393 5.80273 22.0393V20.5393ZM18.0527 18.2893C18.0527 19.5319 17.0454 20.5393 15.8027 20.5393V22.0393C17.8738 22.0393 19.5527 20.3604 19.5527 18.2893H18.0527ZM5.80273 6.53931C3.73167 6.53931 2.05273 8.21824 2.05273 10.2893H3.55273C3.55273 9.04667 4.56009 8.03931 5.80273 8.03931V6.53931ZM6.35273 12.8893L8.55273 14.5393L9.45273 13.3393L7.25273 11.6893L6.35273 12.8893ZM13.0527 14.5393L15.2527 12.8893L14.3527 11.6893L12.1527 13.3393L13.0527 14.5393ZM8.55273 14.5393C9.88607 15.5393 11.7194 15.5393 13.0527 14.5393L12.1527 13.3393C11.3527 13.9393 10.2527 13.9393 9.45273 13.3393L8.55273 14.5393ZM5.80273 8.03931H12.4876V6.53931H5.80273V8.03931ZM18.8027 9.85516C18.0527 9.85516 18.0527 9.85516 18.0527 9.85516C18.0527 9.85516 18.0527 9.85516 18.0527 9.85516C18.0527 9.85517 18.0527 9.85517 18.0527 9.85518C18.0527 9.85518 18.0527 9.85519 18.0527 9.85519C18.0527 9.8552 18.0527 9.8552 18.0527 9.85521C18.0527 9.85522 18.0527 9.85523 18.0527 9.85524C18.0527 9.85524 18.0527 9.85525 18.0527 9.85526C18.0527 9.85527 18.0527 9.85529 18.0527 9.8553C18.0527 9.85531 18.0527 9.85532 18.0527 9.85533C18.0527 9.85535 18.0527 9.85536 18.0527 9.85538C18.0527 9.85539 18.0527 9.85541 18.0527 9.85542C18.0527 9.85544 18.0527 9.85546 18.0527 9.85547C18.0527 9.85549 18.0527 9.85551 18.0527 9.85553C18.0527 9.85555 18.0527 9.85557 18.0527 9.85559C18.0527 9.85561 18.0527 9.85563 18.0527 9.85565C18.0527 9.85567 18.0527 9.8557 18.0527 9.85572C18.0527 9.85574 18.0527 9.85577 18.0527 9.85579C18.0527 9.85582 18.0527 9.85584 18.0527 9.85587C18.0527 9.8559 18.0527 9.85592 18.0527 9.85595C18.0527 9.85598 18.0527 9.85601 18.0527 9.85604C18.0527 9.85607 18.0527 9.8561 18.0527 9.85613C18.0527 9.85616 18.0527 9.85619 18.0527 9.85622C18.0527 9.85625 18.0527 9.85628 18.0527 9.85632C18.0527 9.85635 18.0527 9.85639 18.0527 9.85642C18.0527 9.85646 18.0527 9.85649 18.0527 9.85653C18.0527 9.85656 18.0527 9.8566 18.0527 9.85664C18.0527 9.85668 18.0527 9.85672 18.0527 9.85675C18.0527 9.85679 18.0527 9.85683 18.0527 9.85687C18.0527 9.85691 18.0527 9.85696 18.0527 9.857C18.0527 9.85704 18.0527 9.85708 18.0527 9.85713C18.0527 9.85717 18.0527 9.85721 18.0527 9.85726C18.0527 9.8573 18.0527 9.85735 18.0527 9.8574C18.0527 9.85744 18.0527 9.85749 18.0527 9.85754C18.0527 9.85758 18.0527 9.85763 18.0527 9.85768C18.0527 9.85773 18.0527 9.85778 18.0527 9.85783C18.0527 9.85788 18.0527 9.85793 18.0527 9.85799C18.0527 9.85804 18.0527 9.85809 18.0527 9.85814C18.0527 9.8582 18.0527 9.85825 18.0527 9.85831C18.0527 9.85836 18.0527 9.85842 18.0527 9.85847C18.0527 9.85853 18.0527 9.85858 18.0527 9.85864C18.0527 9.8587 18.0527 9.85876 18.0527 9.85882C18.0527 9.85888 18.0527 9.85894 18.0527 9.859C18.0527 9.85906 18.0527 9.85912 18.0527 9.85918C18.0527 9.85924 18.0527 9.8593 18.0527 9.85937C18.0527 9.85943 18.0527 9.85949 18.0527 9.85956C18.0527 9.85962 18.0527 9.85969 18.0527 9.85975C18.0527 9.85982 18.0527 9.85989 18.0527 9.85995C18.0527 9.86002 18.0527 9.86009 18.0527 9.86016C18.0527 9.86022 18.0527 9.86029 18.0527 9.86036C18.0527 9.86043 18.0527 9.8605 18.0527 9.86058C18.0527 9.86065 18.0527 9.86072 18.0527 9.86079C18.0527 9.86086 18.0527 9.86094 18.0527 9.86101C18.0527 9.86109 18.0527 9.86116 18.0527 9.86124C18.0527 9.86131 18.0527 9.86139 18.0527 9.86146C18.0527 9.86154 18.0527 9.86162 18.0527 9.8617C18.0527 9.86178 18.0527 9.86185 18.0527 9.86193C18.0527 9.86201 18.0527 9.86209 18.0527 9.86217C18.0527 9.86226 18.0527 9.86234 18.0527 9.86242C18.0527 9.8625 18.0527 9.86258 18.0527 9.86267C18.0527 9.86275 18.0527 9.86284 18.0527 9.86292C18.0527 9.86301 18.0527 9.86309 18.0527 9.86318C18.0527 9.86326 18.0527 9.86335 18.0527 9.86344C18.0527 9.86353 18.0527 9.86362 18.0527 9.8637C18.0527 9.86379 18.0527 9.86388 18.0527 9.86397C18.0527 9.86406 18.0527 9.86415 18.0527 9.86425C18.0527 9.86434 18.0527 9.86443 18.0527 9.86452C18.0527 9.86462 18.0527 9.86471 18.0527 9.8648C18.0527 9.8649 18.0527 9.86499 18.0527 9.86509C18.0527 9.86518 18.0527 9.86528 18.0527 9.86538C18.0527 9.86548 18.0527 9.86557 18.0527 9.86567C18.0527 9.86577 18.0527 9.86587 18.0527 9.86597C18.0527 9.86607 18.0527 9.86617 18.0527 9.86627C18.0527 9.86637 18.0527 9.86647 18.0527 9.86657C18.0527 9.86668 18.0527 9.86678 18.0527 9.86688C18.0527 9.86699 18.0527 9.86709 18.0527 9.8672C18.0527 9.8673 18.0527 9.86741 18.0527 9.86751C18.0527 9.86762 18.0527 9.86773 18.0527 9.86783C18.0527 9.86794 18.0527 9.86805 18.0527 9.86816C18.0527 9.86827 18.0527 9.86838 18.0527 9.86849C18.0527 9.8686 18.0527 9.86871 18.0527 9.86882C18.0527 9.86893 18.0527 9.86904 18.0527 9.86916C18.0527 9.86927 18.0527 9.86938 18.0527 9.8695C18.0527 9.86961 18.0527 9.86972 18.0527 9.86984C18.0527 9.86996 18.0527 9.87007 18.0527 9.87019C18.0527 9.87031 18.0527 9.87042 18.0527 9.87054C18.0527 9.87066 18.0527 9.87078 18.0527 9.8709C18.0527 9.87102 18.0527 9.87114 18.0527 9.87126C18.0527 9.87138 18.0527 9.8715 18.0527 9.87162C18.0527 9.87174 18.0527 9.87186 18.0527 9.87199C18.0527 9.87211 18.0527 9.87223 18.0527 9.87236C18.0527 9.87248 18.0527 9.87261 18.0527 9.87273C18.0527 9.87286 18.0527 9.87299 18.0527 9.87311C18.0527 9.87324 18.0527 9.87337 18.0527 9.8735C18.0527 9.87362 18.0527 9.87375 18.0527 9.87388C18.0527 9.87401 18.0527 9.87414 18.0527 9.87427C18.0527 9.8744 18.0527 9.87454 18.0527 9.87467C18.0527 9.8748 18.0527 9.87493 18.0527 9.87507C18.0527 9.8752 18.0527 9.87533 18.0527 9.87547C18.0527 9.8756 18.0527 9.87574 18.0527 9.87587C18.0527 9.87601 18.0527 9.87615 18.0527 9.87628C18.0527 9.87642 18.0527 9.87656 18.0527 9.8767C18.0527 9.87684 18.0527 9.87697 18.0527 9.87711C18.0527 9.87725 18.0527 9.87739 18.0527 9.87753C18.0527 9.87768 18.0527 9.87782 18.0527 9.87796C18.0527 9.8781 18.0527 9.87824 18.0527 9.87839C18.0527 9.87853 18.0527 9.87868 18.0527 9.87882C18.0527 9.87896 18.0527 9.87911 18.0527 9.87926C18.0527 9.8794 18.0527 9.87955 18.0527 9.8797C18.0527 9.87984 18.0527 9.87999 18.0527 9.88014C18.0527 9.88029 18.0527 9.88044 18.0527 9.88059C18.0527 9.88074 18.0527 9.88089 18.0527 9.88104C18.0527 9.88119 18.0527 9.88134 18.0527 9.88149C18.0527 9.88164 18.0527 9.8818 18.0527 9.88195C18.0527 9.8821 18.0527 9.88226 18.0527 9.88241C18.0527 9.88257 18.0527 9.88272 18.0527 9.88288C18.0527 9.88303 18.0527 9.88319 18.0527 9.88335C18.0527 9.8835 18.0527 9.88366 18.0527 9.88382C18.0527 9.88398 18.0527 9.88414 18.0527 9.8843C18.0527 9.88446 18.0527 9.88462 18.0527 9.88478C18.0527 9.88494 18.0527 9.8851 18.0527 9.88526C18.0527 9.88542 18.0527 9.88559 18.0527 9.88575C18.0527 9.88591 18.0527 9.88608 18.0527 9.88624C18.0527 9.8864 18.0527 9.88657 18.0527 9.88673C18.0527 9.8869 18.0527 9.88707 18.0527 9.88723C18.0527 9.8874 18.0527 9.88757 18.0527 9.88774C18.0527 9.8879 18.0527 9.88807 18.0527 9.88824C18.0527 9.88841 18.0527 9.88858 18.0527 9.88875C18.0527 9.88892 18.0527 9.88909 18.0527 9.88926C18.0527 9.88943 18.0527 9.88961 18.0527 9.88978C18.0527 9.88995 18.0527 9.89013 18.0527 9.8903C18.0527 9.89047 18.0527 9.89065 18.0527 9.89082C18.0527 9.891 18.0527 9.89117 18.0527 9.89135C18.0527 9.89153 18.0527 9.8917 18.0527 9.89188C18.0527 9.89206 18.0527 9.89224 18.0527 9.89242C18.0527 9.8926 18.0527 9.89277 18.0527 9.89295C18.0527 9.89313 18.0527 9.89331 18.0527 9.8935C18.0527 9.89368 18.0527 9.89386 18.0527 9.89404C18.0527 9.89422 18.0527 9.89441 18.0527 9.89459C18.0527 9.89477 18.0527 9.89496 18.0527 9.89514C18.0527 9.89533 18.0527 9.89551 18.0527 9.8957C18.0527 9.89588 18.0527 9.89607 18.0527 9.89626C18.0527 9.89644 18.0527 9.89663 18.0527 9.89682C18.0527 9.89701 18.0527 9.8972 18.0527 9.89739C18.0527 9.89757 18.0527 9.89776 18.0527 9.89796C18.0527 9.89815 18.0527 9.89834 18.0527 9.89853C18.0527 9.89872 18.0527 9.89891 18.0527 9.89911C18.0527 9.8993 18.0527 9.89949 18.0527 9.89969C18.0527 9.89988 18.0527 9.90007 18.0527 9.90027C18.0527 9.90046 18.0527 9.90066 18.0527 9.90086C18.0527 9.90105 18.0527 9.90125 18.0527 9.90145C18.0527 9.90164 18.0527 9.90184 18.0527 9.90204C18.0527 9.90224 18.0527 9.90244 18.0527 9.90264C18.0527 9.90284 18.0527 9.90304 18.0527 9.90324C18.0527 9.90344 18.0527 9.90364 18.0527 9.90384C18.0527 9.90405 18.0527 9.90425 18.0527 9.90445C18.0527 9.90465 18.0527 9.90486 18.0527 9.90506C18.0527 9.90527 18.0527 9.90547 18.0527 9.90568C18.0527 9.90588 18.0527 9.90609 18.0527 9.90629C18.0527 9.9065 18.0527 9.90671 18.0527 9.90692C18.0527 9.90712 18.0527 9.90733 18.0527 9.90754C18.0527 9.90775 18.0527 9.90796 18.0527 9.90817C18.0527 9.90838 18.0527 9.90859 18.0527 9.9088C18.0527 9.90901 18.0527 9.90922 18.0527 9.90944C18.0527 9.90965 18.0527 9.90986 18.0527 9.91007C18.0527 9.91029 18.0527 9.9105 18.0527 9.91072C18.0527 9.91093 18.0527 9.91114 18.0527 9.91136C18.0527 9.91158 18.0527 9.91179 18.0527 9.91201C18.0527 9.91223 18.0527 9.91244 18.0527 9.91266C18.0527 9.91288 18.0527 9.9131 18.0527 9.91332C18.0527 9.91353 18.0527 9.91375 18.0527 9.91397C18.0527 9.91419 18.0527 9.91441 18.0527 9.91463C18.0527 9.91486 18.0527 9.91508 18.0527 9.9153C18.0527 9.91552 18.0527 9.91574 18.0527 9.91597C18.0527 9.91619 18.0527 9.91642 18.0527 9.91664C18.0527 9.91686 18.0527 9.91709 18.0527 9.91731C18.0527 9.91754 18.0527 9.91777 18.0527 9.91799C18.0527 9.91822 18.0527 9.91845 18.0527 9.91867C18.0527 9.9189 18.0527 9.91913 18.0527 9.91936C18.0527 9.91959 18.0527 9.91982 18.0527 9.92005C18.0527 9.92028 18.0527 9.92051 18.0527 9.92074C18.0527 9.92097 18.0527 9.9212 18.0527 9.92143C18.0527 9.92166 18.0527 9.9219 18.0527 9.92213C18.0527 9.92236 18.0527 9.9226 18.0527 9.92283C18.0527 9.92306 18.0527 9.9233 18.0527 9.92353C18.0527 9.92377 18.0527 9.92401 18.0527 9.92424C18.0527 9.92448 18.0527 9.92472 18.0527 9.92495C18.0527 9.92519 18.0527 9.92543 18.0527 9.92567C18.0527 9.9259 18.0527 9.92614 18.0527 9.92638C18.0527 9.92662 18.0527 9.92686 18.0527 9.9271C18.0527 9.92734 18.0527 9.92758 18.0527 9.92783C18.0527 9.92807 18.0527 9.92831 18.0527 9.92855C18.0527 9.9288 18.0527 9.92904 18.0527 9.92928C18.0527 9.92953 18.0527 9.92977 18.0527 9.93002C18.0527 9.93026 18.0527 9.93051 18.0527 9.93075C18.0527 9.931 18.0527 9.93124 18.0527 9.93149C18.0527 9.93174 18.0527 9.93199 18.0527 9.93223C18.0527 9.93248 18.0527 9.93273 18.0527 9.93298C18.0527 9.93323 18.0527 9.93348 18.0527 9.93373C18.0527 9.93398 18.0527 9.93423 18.0527 9.93448C18.0527 9.93473 18.0527 9.93498 18.0527 9.93523C18.0527 9.93549 18.0527 9.93574 18.0527 9.93599C18.0527 9.93625 18.0527 9.9365 18.0527 9.93675C18.0527 9.93701 18.0527 9.93726 18.0527 9.93752C18.0527 9.93777 18.0527 9.93803 18.0527 9.93828C18.0527 9.93854 18.0527 9.9388 18.0527 9.93906C18.0527 9.93931 18.0527 9.93957 18.0527 9.93983C18.0527 9.94009 18.0527 9.94035 18.0527 9.94061C18.0527 9.94086 18.0527 9.94112 18.0527 9.94139C18.0527 9.94165 18.0527 9.94191 18.0527 9.94217C18.0527 9.94243 18.0527 9.94269 18.0527 9.94295C18.0527 9.94322 18.0527 9.94348 18.0527 9.94374C18.0527 9.94401 18.0527 9.94427 18.0527 9.94453C18.0527 9.9448 18.0527 9.94506 18.0527 9.94533C18.0527 9.94559 18.0527 9.94586 18.0527 9.94613C18.0527 9.94639 18.0527 9.94666 18.0527 9.94693C18.0527 9.9472 18.0527 9.94746 18.0527 9.94773C18.0527 9.948 18.0527 9.94827 18.0527 9.94854C18.0527 9.94881 18.0527 9.94908 18.0527 9.94935C18.0527 9.94962 18.0527 9.94989 18.0527 9.95016C18.0527 9.95043 18.0527 9.95071 18.0527 9.95098C18.0527 9.95125 18.0527 9.95152 18.0527 9.9518C18.0527 9.95207 18.0527 9.95234 18.0527 9.95262C18.0527 9.95289 18.0527 9.95317 18.0527 9.95344C18.0527 9.95372 18.0527 9.95399 18.0527 9.95427C18.0527 9.95455 18.0527 9.95482 18.0527 9.9551C18.0527 9.95538 18.0527 9.95566 18.0527 9.95594C18.0527 9.95621 18.0527 9.95649 18.0527 9.95677C18.0527 9.95705 18.0527 9.95733 18.0527 9.95761C18.0527 9.95789 18.0527 9.95817 18.0527 9.95846C18.0527 9.95874 18.0527 9.95902 18.0527 9.9593C18.0527 9.95958 18.0527 9.95987 18.0527 9.96015C18.0527 9.96043 18.0527 9.96072 18.0527 9.961C18.0527 9.96128 18.0527 9.96157 18.0527 9.96185C18.0527 9.96214 18.0527 9.96243 18.0527 9.96271C18.0527 9.963 18.0527 9.96328 18.0527 9.96357C18.0527 9.96386 18.0527 9.96415 18.0527 9.96443C18.0527 9.96472 18.0527 9.96501 18.0527 9.9653C18.0527 9.96559 18.0527 9.96588 18.0527 9.96617C18.0527 9.96646 18.0527 9.96675 18.0527 9.96704C18.0527 9.96733 18.0527 9.96762 18.0527 9.96792C18.0527 9.96821 18.0527 9.9685 18.0527 9.96879C18.0527 9.96909 18.0527 9.96938 18.0527 9.96967C18.0527 9.96997 18.0527 9.97026 18.0527 9.97056C18.0527 9.97085 18.0527 9.97115 18.0527 9.97144C18.0527 9.97174 18.0527 9.97203 18.0527 9.97233C18.0527 9.97263 18.0527 9.97292 18.0527 9.97322C18.0527 9.97352 18.0527 9.97382 18.0527 9.97412C18.0527 9.97441 18.0527 9.97471 18.0527 9.97501C18.0527 9.97531 18.0527 9.97561 18.0527 9.97591C18.0527 9.97621 18.0527 9.97651 18.0527 9.97681C18.0527 9.97712 18.0527 9.97742 18.0527 9.97772C18.0527 9.97802 18.0527 9.97833 18.0527 9.97863C18.0527 9.97893 18.0527 9.97924 18.0527 9.97954C18.0527 9.97984 18.0527 9.98015 18.0527 9.98045C18.0527 9.98076 18.0527 9.98106 18.0527 9.98137C18.0527 9.98168 18.0527 9.98198 18.0527 9.98229C18.0527 9.9826 18.0527 9.9829 18.0527 9.98321C18.0527 9.98352 18.0527 9.98383 18.0527 9.98414C18.0527 9.98444 18.0527 9.98475 18.0527 9.98506C18.0527 9.98537 18.0527 9.98568 18.0527 9.98599C18.0527 9.9863 18.0527 9.98661 18.0527 9.98693C18.0527 9.98724 18.0527 9.98755 18.0527 9.98786C18.0527 9.98817 18.0527 9.98849 18.0527 9.9888C18.0527 9.98911 18.0527 9.98943 18.0527 9.98974C18.0527 9.99005 18.0527 9.99037 18.0527 9.99068C18.0527 9.991 18.0527 9.99131 18.0527 9.99163C18.0527 9.99195 18.0527 9.99226 18.0527 9.99258C18.0527 9.9929 18.0527 9.99321 18.0527 9.99353C18.0527 9.99385 18.0527 9.99417 18.0527 9.99449C18.0527 9.9948 18.0527 9.99512 18.0527 9.99544C18.0527 9.99576 18.0527 9.99608 18.0527 9.9964C18.0527 9.99672 18.0527 9.99704 18.0527 9.99736C18.0527 9.99769 18.0527 9.99801 18.0527 9.99833C18.0527 9.99865 18.0527 9.99897 18.0527 9.9993C18.0527 9.99962 18.0527 9.99994 18.0527 10.0003C18.0527 10.0006 18.0527 10.0009 18.0527 10.0012C18.0527 10.0016 18.0527 10.0019 18.0527 10.0022C18.0527 10.0025 18.0527 10.0029 18.0527 10.0032C18.0527 10.0035 18.0527 10.0038 18.0527 10.0042C18.0527 10.0045 18.0527 10.0048 18.0527 10.0052C18.0527 10.0055 18.0527 10.0058 18.0527 10.0061C18.0527 10.0065 18.0527 10.0068 18.0527 10.0071C18.0527 10.0075 18.0527 10.0078 18.0527 10.0081C18.0527 10.0085 18.0527 10.0088 18.0527 10.0091C18.0527 10.0094 18.0527 10.0098 18.0527 10.0101C18.0527 10.0104 18.0527 10.0108 18.0527 10.0111C18.0527 10.0114 18.0527 10.0118 18.0527 10.0121C18.0527 10.0124 18.0527 10.0128 18.0527 10.0131C18.0527 10.0135 18.0527 10.0138 18.0527 10.0141C18.0527 10.0145 18.0527 10.0148 18.0527 10.0151C18.0527 10.0155 18.0527 10.0158 18.0527 10.0161C18.0527 10.0165 18.0527 10.0168 18.0527 10.0172C18.0527 10.0175 18.0527 10.0178 18.0527 10.0182C18.0527 10.0185 18.0527 10.0189 18.0527 10.0192C18.0527 10.0195 18.0527 10.0199 18.0527 10.0202C18.0527 10.0206 18.0527 10.0209 18.0527 10.0212C18.0527 10.0216 18.0527 10.0219 18.0527 10.0223C18.0527 10.0226 18.0527 10.0229 18.0527 10.0233C18.0527 10.0236 18.0527 10.024 18.0527 10.0243C18.0527 10.0247 18.0527 10.025 18.0527 10.0254C18.0527 10.0257 18.0527 10.026 18.0527 10.0264C18.0527 10.0267 18.0527 10.0271 18.0527 10.0274C18.0527 10.0278 18.0527 10.0281 18.0527 10.0285C18.0527 10.0288 18.0527 10.0292 18.0527 10.0295C18.0527 10.0299 18.0527 10.0302 18.0527 10.0306C18.0527 10.0309 18.0527 10.0313 18.0527 10.0316C18.0527 10.032 18.0527 10.0323 18.0527 10.0327C18.0527 10.033 18.0527 10.0334 18.0527 10.0337C18.0527 10.0341 18.0527 10.0344 18.0527 10.0348C18.0527 10.0351 18.0527 10.0355 18.0527 10.0358C18.0527 10.0362 18.0527 10.0365 18.0527 10.0369C18.0527 10.0372 18.0527 10.0376 18.0527 10.038C18.0527 10.0383 18.0527 10.0387 18.0527 10.039C18.0527 10.0394 18.0527 10.0397 18.0527 10.0401C18.0527 10.0404 18.0527 10.0408 18.0527 10.0412C18.0527 10.0415 18.0527 10.0419 18.0527 10.0422C18.0527 10.0426 18.0527 10.0429 18.0527 10.0433C18.0527 10.0437 18.0527 10.044 18.0527 10.0444C18.0527 10.0447 18.0527 10.0451 18.0527 10.0455C18.0527 10.0458 18.0527 10.0462 18.0527 10.0465C18.0527 10.0469 18.0527 10.0473 18.0527 10.0476C18.0527 10.048 18.0527 10.0483 18.0527 10.0487C18.0527 10.0491 18.0527 10.0494 18.0527 10.0498C18.0527 10.0502 18.0527 10.0505 18.0527 10.0509C18.0527 10.0513 18.0527 10.0516 18.0527 10.052C18.0527 10.0523 18.0527 10.0527 18.0527 10.0531C18.0527 10.0534 18.0527 10.0538 18.0527 10.0542C18.0527 10.0545 18.0527 10.0549 18.0527 10.0553C18.0527 10.0556 18.0527 10.056 18.0527 10.0564C18.0527 10.0567 18.0527 10.0571 18.0527 10.0575C18.0527 10.0578 18.0527 10.0582 18.0527 10.0586C18.0527 10.059 18.0527 10.0593 18.0527 10.0597C18.0527 10.0601 18.0527 10.0604 18.0527 10.0608C18.0527 10.0612 18.0527 10.0615 18.0527 10.0619C18.0527 10.0623 18.0527 10.0627 18.0527 10.063C18.0527 10.0634 18.0527 10.0638 18.0527 10.0642C18.0527 10.0645 18.0527 10.0649 18.0527 10.0653C18.0527 10.0656 18.0527 10.066 18.0527 10.0664C18.0527 10.0668 18.0527 10.0671 18.0527 10.0675C18.0527 10.0679 18.0527 10.0683 18.0527 10.0686C18.0527 10.069 18.0527 10.0694 18.0527 10.0698C18.0527 10.0702 18.0527 10.0705 18.0527 10.0709C18.0527 10.0713 18.0527 10.0717 18.0527 10.072C18.0527 10.0724 18.0527 10.0728 18.0527 10.0732C18.0527 10.0736 18.0527 10.0739 18.0527 10.0743C18.0527 10.0747 18.0527 10.0751 18.0527 10.0755C18.0527 10.0758 18.0527 10.0762 18.0527 10.0766C18.0527 10.077 18.0527 10.0774 18.0527 10.0777C18.0527 10.0781 18.0527 10.0785 18.0527 10.0789C18.0527 10.0793 18.0527 10.0796 18.0527 10.08C18.0527 10.0804 18.0527 10.0808 18.0527 10.0812C18.0527 10.0816 18.0527 10.0819 18.0527 10.0823C18.0527 10.0827 18.0527 10.0831 18.0527 10.0835C18.0527 10.0839 18.0527 10.0843 18.0527 10.0846C18.0527 10.085 18.0527 10.0854 18.0527 10.0858C18.0527 10.0862 18.0527 10.0866 18.0527 10.087C18.0527 10.0874 18.0527 10.0877 18.0527 10.0881C18.0527 10.0885 18.0527 10.0889 18.0527 10.0893C18.0527 10.0897 18.0527 10.0901 18.0527 10.0905C18.0527 10.0908 18.0527 10.0912 18.0527 10.0916C18.0527 10.092 18.0527 10.0924 18.0527 10.0928C18.0527 10.0932 18.0527 10.0936 18.0527 10.094C18.0527 10.0944 18.0527 10.0948 18.0527 10.0951C18.0527 10.0955 18.0527 10.0959 18.0527 10.0963C18.0527 10.0967 18.0527 10.0971 18.0527 10.0975C18.0527 10.0979 18.0527 10.0983 18.0527 10.0987C18.0527 10.0991 18.0527 10.0995 18.0527 10.0999C18.0527 10.1003 18.0527 10.1007 18.0527 10.1011C18.0527 10.1014 18.0527 10.1018 18.0527 10.1022C18.0527 10.1026 18.0527 10.103 18.0527 10.1034C18.0527 10.1038 18.0527 10.1042 18.0527 10.1046C18.0527 10.105 18.0527 10.1054 18.0527 10.1058C18.0527 10.1062 18.0527 10.1066 18.0527 10.107C18.0527 10.1074 18.0527 10.1078 18.0527 10.1082C18.0527 10.1086 18.0527 10.109 18.0527 10.1094C18.0527 10.1098 18.0527 10.1102 18.0527 10.1106C18.0527 10.111 18.0527 10.1114 18.0527 10.1118C18.0527 10.1122 18.0527 10.1126 18.0527 10.113C18.0527 10.1134 18.0527 10.1138 18.0527 10.1142C18.0527 10.1146 18.0527 10.115 18.0527 10.1154C18.0527 10.1158 18.0527 10.1162 18.0527 10.1166C18.0527 10.117 18.0527 10.1174 18.0527 10.1179C18.0527 10.1183 18.0527 10.1187 18.0527 10.1191C18.0527 10.1195 18.0527 10.1199 18.0527 10.1203C18.0527 10.1207 18.0527 10.1211 18.0527 10.1215C18.0527 10.1219 18.0527 10.1223 18.0527 10.1227C18.0527 10.1231 18.0527 10.1235 18.0527 10.1239C18.0527 10.1244 18.0527 10.1248 18.0527 10.1252C18.0527 10.1256 18.0527 10.126 18.0527 10.1264C18.0527 10.1268 18.0527 10.1272 18.0527 10.1276C18.0527 10.128 18.0527 10.1284 18.0527 10.1289C18.0527 10.1293 18.0527 10.1297 18.0527 10.1301C18.0527 10.1305 18.0527 10.1309 18.0527 10.1313C18.0527 10.1317 18.0527 10.1321 18.0527 10.1326C18.0527 10.133 18.0527 10.1334 18.0527 10.1338C18.0527 10.1342 18.0527 10.1346 18.0527 10.135C18.0527 10.1354 18.0527 10.1359 18.0527 10.1363C18.0527 10.1367 18.0527 10.1371 18.0527 10.1375C18.0527 10.1379 18.0527 10.1383 18.0527 10.1388C18.0527 10.1392 18.0527 10.1396 18.0527 10.14C18.0527 10.1404 18.0527 10.1408 18.0527 10.1413C18.0527 10.1417 18.0527 10.1421 18.0527 10.1425C18.0527 10.1429 18.0527 10.1433 18.0527 10.1438C18.0527 10.1442 18.0527 10.1446 18.0527 10.145C18.0527 10.1454 18.0527 10.1458 18.0527 10.1463C18.0527 10.1467 18.0527 10.1471 18.0527 10.1475C18.0527 10.1479 18.0527 10.1484 18.0527 10.1488C18.0527 10.1492 18.0527 10.1496 18.0527 10.15C18.0527 10.1505 18.0527 10.1509 18.0527 10.1513C18.0527 10.1517 18.0527 10.1521 18.0527 10.1526C18.0527 10.153 18.0527 10.1534 18.0527 10.1538C18.0527 10.1542 18.0527 10.1547 18.0527 10.1551C18.0527 10.1555 18.0527 10.1559 18.0527 10.1564C18.0527 10.1568 18.0527 10.1572 18.0527 10.1576C18.0527 10.1581 18.0527 10.1585 18.0527 10.1589C18.0527 10.1593 18.0527 10.1598 18.0527 10.1602C18.0527 10.1606 18.0527 10.161 18.0527 10.1615C18.0527 10.1619 18.0527 10.1623 18.0527 10.1627C18.0527 10.1632 18.0527 10.1636 18.0527 10.164C18.0527 10.1644 18.0527 10.1649 18.0527 10.1653C18.0527 10.1657 18.0527 10.1661 18.0527 10.1666C18.0527 10.167 18.0527 10.1674 18.0527 10.1679C18.0527 10.1683 18.0527 10.1687 18.0527 10.1691C18.0527 10.1696 18.0527 10.17 18.0527 10.1704C18.0527 10.1709 18.0527 10.1713 18.0527 10.1717C18.0527 10.1721 18.0527 10.1726 18.0527 10.173C18.0527 10.1734 18.0527 10.1739 18.0527 10.1743C18.0527 10.1747 18.0527 10.1752 18.0527 10.1756C18.0527 10.176 18.0527 10.1765 18.0527 10.1769C18.0527 10.1773 18.0527 10.1778 18.0527 10.1782C18.0527 10.1786 18.0527 10.179 18.0527 10.1795C18.0527 10.1799 18.0527 10.1803 18.0527 10.1808C18.0527 10.1812 18.0527 10.1816 18.0527 10.1821C18.0527 10.1825 18.0527 10.183 18.0527 10.1834C18.0527 10.1838 18.0527 10.1843 18.0527 10.1847C18.0527 10.1851 18.0527 10.1856 18.0527 10.186C18.0527 10.1864 18.0527 10.1869 18.0527 10.1873C18.0527 10.1877 18.0527 10.1882 18.0527 10.1886C18.0527 10.1891 18.0527 10.1895 18.0527 10.1899C18.0527 10.1904 18.0527 10.1908 18.0527 10.1912C18.0527 10.1917 18.0527 10.1921 18.0527 10.1926C18.0527 10.193 18.0527 10.1934 18.0527 10.1939C18.0527 10.1943 18.0527 10.1947 18.0527 10.1952C18.0527 10.1956 18.0527 10.1961 18.0527 10.1965C18.0527 10.1969 18.0527 10.1974 18.0527 10.1978C18.0527 10.1983 18.0527 10.1987 18.0527 10.1991C18.0527 10.1996 18.0527 10.2 18.0527 10.2005C18.0527 10.2009 18.0527 10.2013 18.0527 10.2018C18.0527 10.2022 18.0527 10.2027 18.0527 10.2031C18.0527 10.2036 18.0527 10.204 18.0527 10.2044C18.0527 10.2049 18.0527 10.2053 18.0527 10.2058C18.0527 10.2062 18.0527 10.2067 18.0527 10.2071C18.0527 10.2075 18.0527 10.208 18.0527 10.2084C18.0527 10.2089 18.0527 10.2093 18.0527 10.2098C18.0527 10.2102 18.0527 10.2107 18.0527 10.2111C18.0527 10.2115 18.0527 10.212 18.0527 10.2124C18.0527 10.2129 18.0527 10.2133 18.0527 10.2138C18.0527 10.2142 18.0527 10.2147 18.0527 10.2151C18.0527 10.2156 18.0527 10.216 18.0527 10.2165C18.0527 10.2169 18.0527 10.2173 18.0527 10.2178C18.0527 10.2182 18.0527 10.2187 18.0527 10.2191C18.0527 10.2196 18.0527 10.22 18.0527 10.2205C18.0527 10.2209 18.0527 10.2214 18.0527 10.2218C18.0527 10.2223 18.0527 10.2227 18.0527 10.2232C18.0527 10.2236 18.0527 10.2241 18.0527 10.2245C18.0527 10.225 18.0527 10.2254 18.0527 10.2259C18.0527 10.2263 18.0527 10.2268 18.0527 10.2272C18.0527 10.2277 18.0527 10.2281 18.0527 10.2286C18.0527 10.229 18.0527 10.2295 18.0527 10.2299C18.0527 10.2304 18.0527 10.2308 18.0527 10.2313C18.0527 10.2317 18.0527 10.2322 18.0527 10.2326C18.0527 10.2331 18.0527 10.2335 18.0527 10.234C18.0527 10.2345 18.0527 10.2349 18.0527 10.2354C18.0527 10.2358 18.0527 10.2363 18.0527 10.2367C18.0527 10.2372 18.0527 10.2376 18.0527 10.2381C18.0527 10.2385 18.0527 10.239 18.0527 10.2394C18.0527 10.2399 18.0527 10.2404 18.0527 10.2408C18.0527 10.2413 18.0527 10.2417 18.0527 10.2422C18.0527 10.2426 18.0527 10.2431 18.0527 10.2435C18.0527 10.244 18.0527 10.2444 18.0527 10.2449C18.0527 10.2454 18.0527 10.2458 18.0527 10.2463C18.0527 10.2467 18.0527 10.2472 18.0527 10.2476C18.0527 10.2481 18.0527 10.2486 18.0527 10.249C18.0527 10.2495 18.0527 10.2499 18.0527 10.2504C18.0527 10.2508 18.0527 10.2513 18.0527 10.2518C18.0527 10.2522 18.0527 10.2527 18.0527 10.2531C18.0527 10.2536 18.0527 10.2541 18.0527 10.2545C18.0527 10.255 18.0527 10.2554 18.0527 10.2559C18.0527 10.2564 18.0527 10.2568 18.0527 10.2573C18.0527 10.2577 18.0527 10.2582 18.0527 10.2587C18.0527 10.2591 18.0527 10.2596 18.0527 10.26C18.0527 10.2605 18.0527 10.261 18.0527 10.2614C18.0527 10.2619 18.0527 10.2623 18.0527 10.2628C18.0527 10.2633 18.0527 10.2637 18.0527 10.2642C18.0527 10.2646 18.0527 10.2651 18.0527 10.2656C18.0527 10.266 18.0527 10.2665 18.0527 10.267C18.0527 10.2674 18.0527 10.2679 18.0527 10.2683C18.0527 10.2688 18.0527 10.2693 18.0527 10.2697C18.0527 10.2702 18.0527 10.2707 18.0527 10.2711C18.0527 10.2716 18.0527 10.2721 18.0527 10.2725C18.0527 10.273 18.0527 10.2734 18.0527 10.2739C18.0527 10.2744 18.0527 10.2748 18.0527 10.2753C18.0527 10.2758 18.0527 10.2762 18.0527 10.2767C18.0527 10.2772 18.0527 10.2776 18.0527 10.2781C18.0527 10.2786 18.0527 10.279 18.0527 10.2795C18.0527 10.28 18.0527 10.2804 18.0527 10.2809C18.0527 10.2814 18.0527 10.2818 18.0527 10.2823C18.0527 10.2828 18.0527 10.2832 18.0527 10.2837C18.0527 10.2842 18.0527 10.2846 18.0527 10.2851C18.0527 10.2856 18.0527 10.286 18.0527 10.2865C18.0527 10.287 18.0527 10.2874 18.0527 10.2879C18.0527 10.2884 18.0527 10.2888 18.0527 10.2893H19.5527C19.5527 10.2888 19.5527 10.2884 19.5527 10.2879C19.5527 10.2874 19.5527 10.287 19.5527 10.2865C19.5527 10.286 19.5527 10.2856 19.5527 10.2851C19.5527 10.2846 19.5527 10.2842 19.5527 10.2837C19.5527 10.2832 19.5527 10.2828 19.5527 10.2823C19.5527 10.2818 19.5527 10.2814 19.5527 10.2809C19.5527 10.2804 19.5527 10.28 19.5527 10.2795C19.5527 10.279 19.5527 10.2786 19.5527 10.2781C19.5527 10.2776 19.5527 10.2772 19.5527 10.2767C19.5527 10.2762 19.5527 10.2758 19.5527 10.2753C19.5527 10.2748 19.5527 10.2744 19.5527 10.2739C19.5527 10.2734 19.5527 10.273 19.5527 10.2725C19.5527 10.2721 19.5527 10.2716 19.5527 10.2711C19.5527 10.2707 19.5527 10.2702 19.5527 10.2697C19.5527 10.2693 19.5527 10.2688 19.5527 10.2683C19.5527 10.2679 19.5527 10.2674 19.5527 10.267C19.5527 10.2665 19.5527 10.266 19.5527 10.2656C19.5527 10.2651 19.5527 10.2646 19.5527 10.2642C19.5527 10.2637 19.5527 10.2633 19.5527 10.2628C19.5527 10.2623 19.5527 10.2619 19.5527 10.2614C19.5527 10.261 19.5527 10.2605 19.5527 10.26C19.5527 10.2596 19.5527 10.2591 19.5527 10.2587C19.5527 10.2582 19.5527 10.2577 19.5527 10.2573C19.5527 10.2568 19.5527 10.2564 19.5527 10.2559C19.5527 10.2554 19.5527 10.255 19.5527 10.2545C19.5527 10.2541 19.5527 10.2536 19.5527 10.2531C19.5527 10.2527 19.5527 10.2522 19.5527 10.2518C19.5527 10.2513 19.5527 10.2508 19.5527 10.2504C19.5527 10.2499 19.5527 10.2495 19.5527 10.249C19.5527 10.2486 19.5527 10.2481 19.5527 10.2476C19.5527 10.2472 19.5527 10.2467 19.5527 10.2463C19.5527 10.2458 19.5527 10.2454 19.5527 10.2449C19.5527 10.2444 19.5527 10.244 19.5527 10.2435C19.5527 10.2431 19.5527 10.2426 19.5527 10.2422C19.5527 10.2417 19.5527 10.2413 19.5527 10.2408C19.5527 10.2404 19.5527 10.2399 19.5527 10.2394C19.5527 10.239 19.5527 10.2385 19.5527 10.2381C19.5527 10.2376 19.5527 10.2372 19.5527 10.2367C19.5527 10.2363 19.5527 10.2358 19.5527 10.2354C19.5527 10.2349 19.5527 10.2345 19.5527 10.234C19.5527 10.2335 19.5527 10.2331 19.5527 10.2326C19.5527 10.2322 19.5527 10.2317 19.5527 10.2313C19.5527 10.2308 19.5527 10.2304 19.5527 10.2299C19.5527 10.2295 19.5527 10.229 19.5527 10.2286C19.5527 10.2281 19.5527 10.2277 19.5527 10.2272C19.5527 10.2268 19.5527 10.2263 19.5527 10.2259C19.5527 10.2254 19.5527 10.225 19.5527 10.2245C19.5527 10.2241 19.5527 10.2236 19.5527 10.2232C19.5527 10.2227 19.5527 10.2223 19.5527 10.2218C19.5527 10.2214 19.5527 10.2209 19.5527 10.2205C19.5527 10.22 19.5527 10.2196 19.5527 10.2191C19.5527 10.2187 19.5527 10.2182 19.5527 10.2178C19.5527 10.2173 19.5527 10.2169 19.5527 10.2165C19.5527 10.216 19.5527 10.2156 19.5527 10.2151C19.5527 10.2147 19.5527 10.2142 19.5527 10.2138C19.5527 10.2133 19.5527 10.2129 19.5527 10.2124C19.5527 10.212 19.5527 10.2115 19.5527 10.2111C19.5527 10.2107 19.5527 10.2102 19.5527 10.2098C19.5527 10.2093 19.5527 10.2089 19.5527 10.2084C19.5527 10.208 19.5527 10.2075 19.5527 10.2071C19.5527 10.2067 19.5527 10.2062 19.5527 10.2058C19.5527 10.2053 19.5527 10.2049 19.5527 10.2044C19.5527 10.204 19.5527 10.2036 19.5527 10.2031C19.5527 10.2027 19.5527 10.2022 19.5527 10.2018C19.5527 10.2013 19.5527 10.2009 19.5527 10.2005C19.5527 10.2 19.5527 10.1996 19.5527 10.1991C19.5527 10.1987 19.5527 10.1983 19.5527 10.1978C19.5527 10.1974 19.5527 10.1969 19.5527 10.1965C19.5527 10.1961 19.5527 10.1956 19.5527 10.1952C19.5527 10.1947 19.5527 10.1943 19.5527 10.1939C19.5527 10.1934 19.5527 10.193 19.5527 10.1926C19.5527 10.1921 19.5527 10.1917 19.5527 10.1912C19.5527 10.1908 19.5527 10.1904 19.5527 10.1899C19.5527 10.1895 19.5527 10.1891 19.5527 10.1886C19.5527 10.1882 19.5527 10.1877 19.5527 10.1873C19.5527 10.1869 19.5527 10.1864 19.5527 10.186C19.5527 10.1856 19.5527 10.1851 19.5527 10.1847C19.5527 10.1843 19.5527 10.1838 19.5527 10.1834C19.5527 10.183 19.5527 10.1825 19.5527 10.1821C19.5527 10.1816 19.5527 10.1812 19.5527 10.1808C19.5527 10.1803 19.5527 10.1799 19.5527 10.1795C19.5527 10.179 19.5527 10.1786 19.5527 10.1782C19.5527 10.1778 19.5527 10.1773 19.5527 10.1769C19.5527 10.1765 19.5527 10.176 19.5527 10.1756C19.5527 10.1752 19.5527 10.1747 19.5527 10.1743C19.5527 10.1739 19.5527 10.1734 19.5527 10.173C19.5527 10.1726 19.5527 10.1721 19.5527 10.1717C19.5527 10.1713 19.5527 10.1709 19.5527 10.1704C19.5527 10.17 19.5527 10.1696 19.5527 10.1691C19.5527 10.1687 19.5527 10.1683 19.5527 10.1679C19.5527 10.1674 19.5527 10.167 19.5527 10.1666C19.5527 10.1661 19.5527 10.1657 19.5527 10.1653C19.5527 10.1649 19.5527 10.1644 19.5527 10.164C19.5527 10.1636 19.5527 10.1632 19.5527 10.1627C19.5527 10.1623 19.5527 10.1619 19.5527 10.1615C19.5527 10.161 19.5527 10.1606 19.5527 10.1602C19.5527 10.1598 19.5527 10.1593 19.5527 10.1589C19.5527 10.1585 19.5527 10.1581 19.5527 10.1576C19.5527 10.1572 19.5527 10.1568 19.5527 10.1564C19.5527 10.1559 19.5527 10.1555 19.5527 10.1551C19.5527 10.1547 19.5527 10.1542 19.5527 10.1538C19.5527 10.1534 19.5527 10.153 19.5527 10.1526C19.5527 10.1521 19.5527 10.1517 19.5527 10.1513C19.5527 10.1509 19.5527 10.1505 19.5527 10.15C19.5527 10.1496 19.5527 10.1492 19.5527 10.1488C19.5527 10.1484 19.5527 10.1479 19.5527 10.1475C19.5527 10.1471 19.5527 10.1467 19.5527 10.1463C19.5527 10.1458 19.5527 10.1454 19.5527 10.145C19.5527 10.1446 19.5527 10.1442 19.5527 10.1438C19.5527 10.1433 19.5527 10.1429 19.5527 10.1425C19.5527 10.1421 19.5527 10.1417 19.5527 10.1413C19.5527 10.1408 19.5527 10.1404 19.5527 10.14C19.5527 10.1396 19.5527 10.1392 19.5527 10.1388C19.5527 10.1383 19.5527 10.1379 19.5527 10.1375C19.5527 10.1371 19.5527 10.1367 19.5527 10.1363C19.5527 10.1359 19.5527 10.1354 19.5527 10.135C19.5527 10.1346 19.5527 10.1342 19.5527 10.1338C19.5527 10.1334 19.5527 10.133 19.5527 10.1326C19.5527 10.1321 19.5527 10.1317 19.5527 10.1313C19.5527 10.1309 19.5527 10.1305 19.5527 10.1301C19.5527 10.1297 19.5527 10.1293 19.5527 10.1289C19.5527 10.1284 19.5527 10.128 19.5527 10.1276C19.5527 10.1272 19.5527 10.1268 19.5527 10.1264C19.5527 10.126 19.5527 10.1256 19.5527 10.1252C19.5527 10.1248 19.5527 10.1244 19.5527 10.1239C19.5527 10.1235 19.5527 10.1231 19.5527 10.1227C19.5527 10.1223 19.5527 10.1219 19.5527 10.1215C19.5527 10.1211 19.5527 10.1207 19.5527 10.1203C19.5527 10.1199 19.5527 10.1195 19.5527 10.1191C19.5527 10.1187 19.5527 10.1183 19.5527 10.1179C19.5527 10.1174 19.5527 10.117 19.5527 10.1166C19.5527 10.1162 19.5527 10.1158 19.5527 10.1154C19.5527 10.115 19.5527 10.1146 19.5527 10.1142C19.5527 10.1138 19.5527 10.1134 19.5527 10.113C19.5527 10.1126 19.5527 10.1122 19.5527 10.1118C19.5527 10.1114 19.5527 10.111 19.5527 10.1106C19.5527 10.1102 19.5527 10.1098 19.5527 10.1094C19.5527 10.109 19.5527 10.1086 19.5527 10.1082C19.5527 10.1078 19.5527 10.1074 19.5527 10.107C19.5527 10.1066 19.5527 10.1062 19.5527 10.1058C19.5527 10.1054 19.5527 10.105 19.5527 10.1046C19.5527 10.1042 19.5527 10.1038 19.5527 10.1034C19.5527 10.103 19.5527 10.1026 19.5527 10.1022C19.5527 10.1018 19.5527 10.1014 19.5527 10.1011C19.5527 10.1007 19.5527 10.1003 19.5527 10.0999C19.5527 10.0995 19.5527 10.0991 19.5527 10.0987C19.5527 10.0983 19.5527 10.0979 19.5527 10.0975C19.5527 10.0971 19.5527 10.0967 19.5527 10.0963C19.5527 10.0959 19.5527 10.0955 19.5527 10.0951C19.5527 10.0948 19.5527 10.0944 19.5527 10.094C19.5527 10.0936 19.5527 10.0932 19.5527 10.0928C19.5527 10.0924 19.5527 10.092 19.5527 10.0916C19.5527 10.0912 19.5527 10.0908 19.5527 10.0905C19.5527 10.0901 19.5527 10.0897 19.5527 10.0893C19.5527 10.0889 19.5527 10.0885 19.5527 10.0881C19.5527 10.0877 19.5527 10.0874 19.5527 10.087C19.5527 10.0866 19.5527 10.0862 19.5527 10.0858C19.5527 10.0854 19.5527 10.085 19.5527 10.0846C19.5527 10.0843 19.5527 10.0839 19.5527 10.0835C19.5527 10.0831 19.5527 10.0827 19.5527 10.0823C19.5527 10.0819 19.5527 10.0816 19.5527 10.0812C19.5527 10.0808 19.5527 10.0804 19.5527 10.08C19.5527 10.0796 19.5527 10.0793 19.5527 10.0789C19.5527 10.0785 19.5527 10.0781 19.5527 10.0777C19.5527 10.0774 19.5527 10.077 19.5527 10.0766C19.5527 10.0762 19.5527 10.0758 19.5527 10.0755C19.5527 10.0751 19.5527 10.0747 19.5527 10.0743C19.5527 10.0739 19.5527 10.0736 19.5527 10.0732C19.5527 10.0728 19.5527 10.0724 19.5527 10.072C19.5527 10.0717 19.5527 10.0713 19.5527 10.0709C19.5527 10.0705 19.5527 10.0702 19.5527 10.0698C19.5527 10.0694 19.5527 10.069 19.5527 10.0686C19.5527 10.0683 19.5527 10.0679 19.5527 10.0675C19.5527 10.0671 19.5527 10.0668 19.5527 10.0664C19.5527 10.066 19.5527 10.0656 19.5527 10.0653C19.5527 10.0649 19.5527 10.0645 19.5527 10.0642C19.5527 10.0638 19.5527 10.0634 19.5527 10.063C19.5527 10.0627 19.5527 10.0623 19.5527 10.0619C19.5527 10.0615 19.5527 10.0612 19.5527 10.0608C19.5527 10.0604 19.5527 10.0601 19.5527 10.0597C19.5527 10.0593 19.5527 10.059 19.5527 10.0586C19.5527 10.0582 19.5527 10.0578 19.5527 10.0575C19.5527 10.0571 19.5527 10.0567 19.5527 10.0564C19.5527 10.056 19.5527 10.0556 19.5527 10.0553C19.5527 10.0549 19.5527 10.0545 19.5527 10.0542C19.5527 10.0538 19.5527 10.0534 19.5527 10.0531C19.5527 10.0527 19.5527 10.0523 19.5527 10.052C19.5527 10.0516 19.5527 10.0513 19.5527 10.0509C19.5527 10.0505 19.5527 10.0502 19.5527 10.0498C19.5527 10.0494 19.5527 10.0491 19.5527 10.0487C19.5527 10.0483 19.5527 10.048 19.5527 10.0476C19.5527 10.0473 19.5527 10.0469 19.5527 10.0465C19.5527 10.0462 19.5527 10.0458 19.5527 10.0455C19.5527 10.0451 19.5527 10.0447 19.5527 10.0444C19.5527 10.044 19.5527 10.0437 19.5527 10.0433C19.5527 10.0429 19.5527 10.0426 19.5527 10.0422C19.5527 10.0419 19.5527 10.0415 19.5527 10.0412C19.5527 10.0408 19.5527 10.0404 19.5527 10.0401C19.5527 10.0397 19.5527 10.0394 19.5527 10.039C19.5527 10.0387 19.5527 10.0383 19.5527 10.038C19.5527 10.0376 19.5527 10.0372 19.5527 10.0369C19.5527 10.0365 19.5527 10.0362 19.5527 10.0358C19.5527 10.0355 19.5527 10.0351 19.5527 10.0348C19.5527 10.0344 19.5527 10.0341 19.5527 10.0337C19.5527 10.0334 19.5527 10.033 19.5527 10.0327C19.5527 10.0323 19.5527 10.032 19.5527 10.0316C19.5527 10.0313 19.5527 10.0309 19.5527 10.0306C19.5527 10.0302 19.5527 10.0299 19.5527 10.0295C19.5527 10.0292 19.5527 10.0288 19.5527 10.0285C19.5527 10.0281 19.5527 10.0278 19.5527 10.0274C19.5527 10.0271 19.5527 10.0267 19.5527 10.0264C19.5527 10.026 19.5527 10.0257 19.5527 10.0254C19.5527 10.025 19.5527 10.0247 19.5527 10.0243C19.5527 10.024 19.5527 10.0236 19.5527 10.0233C19.5527 10.0229 19.5527 10.0226 19.5527 10.0223C19.5527 10.0219 19.5527 10.0216 19.5527 10.0212C19.5527 10.0209 19.5527 10.0206 19.5527 10.0202C19.5527 10.0199 19.5527 10.0195 19.5527 10.0192C19.5527 10.0189 19.5527 10.0185 19.5527 10.0182C19.5527 10.0178 19.5527 10.0175 19.5527 10.0172C19.5527 10.0168 19.5527 10.0165 19.5527 10.0161C19.5527 10.0158 19.5527 10.0155 19.5527 10.0151C19.5527 10.0148 19.5527 10.0145 19.5527 10.0141C19.5527 10.0138 19.5527 10.0135 19.5527 10.0131C19.5527 10.0128 19.5527 10.0124 19.5527 10.0121C19.5527 10.0118 19.5527 10.0114 19.5527 10.0111C19.5527 10.0108 19.5527 10.0104 19.5527 10.0101C19.5527 10.0098 19.5527 10.0094 19.5527 10.0091C19.5527 10.0088 19.5527 10.0085 19.5527 10.0081C19.5527 10.0078 19.5527 10.0075 19.5527 10.0071C19.5527 10.0068 19.5527 10.0065 19.5527 10.0061C19.5527 10.0058 19.5527 10.0055 19.5527 10.0052C19.5527 10.0048 19.5527 10.0045 19.5527 10.0042C19.5527 10.0038 19.5527 10.0035 19.5527 10.0032C19.5527 10.0029 19.5527 10.0025 19.5527 10.0022C19.5527 10.0019 19.5527 10.0016 19.5527 10.0012C19.5527 10.0009 19.5527 10.0006 19.5527 10.0003C19.5527 9.99994 19.5527 9.99962 19.5527 9.9993C19.5527 9.99897 19.5527 9.99865 19.5527 9.99833C19.5527 9.99801 19.5527 9.99769 19.5527 9.99736C19.5527 9.99704 19.5527 9.99672 19.5527 9.9964C19.5527 9.99608 19.5527 9.99576 19.5527 9.99544C19.5527 9.99512 19.5527 9.9948 19.5527 9.99449C19.5527 9.99417 19.5527 9.99385 19.5527 9.99353C19.5527 9.99321 19.5527 9.9929 19.5527 9.99258C19.5527 9.99226 19.5527 9.99195 19.5527 9.99163C19.5527 9.99131 19.5527 9.991 19.5527 9.99068C19.5527 9.99037 19.5527 9.99005 19.5527 9.98974C19.5527 9.98943 19.5527 9.98911 19.5527 9.9888C19.5527 9.98849 19.5527 9.98817 19.5527 9.98786C19.5527 9.98755 19.5527 9.98724 19.5527 9.98693C19.5527 9.98661 19.5527 9.9863 19.5527 9.98599C19.5527 9.98568 19.5527 9.98537 19.5527 9.98506C19.5527 9.98475 19.5527 9.98444 19.5527 9.98414C19.5527 9.98383 19.5527 9.98352 19.5527 9.98321C19.5527 9.9829 19.5527 9.9826 19.5527 9.98229C19.5527 9.98198 19.5527 9.98168 19.5527 9.98137C19.5527 9.98106 19.5527 9.98076 19.5527 9.98045C19.5527 9.98015 19.5527 9.97984 19.5527 9.97954C19.5527 9.97924 19.5527 9.97893 19.5527 9.97863C19.5527 9.97833 19.5527 9.97802 19.5527 9.97772C19.5527 9.97742 19.5527 9.97712 19.5527 9.97681C19.5527 9.97651 19.5527 9.97621 19.5527 9.97591C19.5527 9.97561 19.5527 9.97531 19.5527 9.97501C19.5527 9.97471 19.5527 9.97441 19.5527 9.97412C19.5527 9.97382 19.5527 9.97352 19.5527 9.97322C19.5527 9.97292 19.5527 9.97263 19.5527 9.97233C19.5527 9.97203 19.5527 9.97174 19.5527 9.97144C19.5527 9.97115 19.5527 9.97085 19.5527 9.97056C19.5527 9.97026 19.5527 9.96997 19.5527 9.96967C19.5527 9.96938 19.5527 9.96909 19.5527 9.96879C19.5527 9.9685 19.5527 9.96821 19.5527 9.96792C19.5527 9.96762 19.5527 9.96733 19.5527 9.96704C19.5527 9.96675 19.5527 9.96646 19.5527 9.96617C19.5527 9.96588 19.5527 9.96559 19.5527 9.9653C19.5527 9.96501 19.5527 9.96472 19.5527 9.96443C19.5527 9.96415 19.5527 9.96386 19.5527 9.96357C19.5527 9.96328 19.5527 9.963 19.5527 9.96271C19.5527 9.96243 19.5527 9.96214 19.5527 9.96185C19.5527 9.96157 19.5527 9.96128 19.5527 9.961C19.5527 9.96072 19.5527 9.96043 19.5527 9.96015C19.5527 9.95987 19.5527 9.95958 19.5527 9.9593C19.5527 9.95902 19.5527 9.95874 19.5527 9.95846C19.5527 9.95817 19.5527 9.95789 19.5527 9.95761C19.5527 9.95733 19.5527 9.95705 19.5527 9.95677C19.5527 9.95649 19.5527 9.95621 19.5527 9.95594C19.5527 9.95566 19.5527 9.95538 19.5527 9.9551C19.5527 9.95482 19.5527 9.95455 19.5527 9.95427C19.5527 9.95399 19.5527 9.95372 19.5527 9.95344C19.5527 9.95317 19.5527 9.95289 19.5527 9.95262C19.5527 9.95234 19.5527 9.95207 19.5527 9.9518C19.5527 9.95152 19.5527 9.95125 19.5527 9.95098C19.5527 9.95071 19.5527 9.95043 19.5527 9.95016C19.5527 9.94989 19.5527 9.94962 19.5527 9.94935C19.5527 9.94908 19.5527 9.94881 19.5527 9.94854C19.5527 9.94827 19.5527 9.948 19.5527 9.94773C19.5527 9.94746 19.5527 9.9472 19.5527 9.94693C19.5527 9.94666 19.5527 9.94639 19.5527 9.94613C19.5527 9.94586 19.5527 9.94559 19.5527 9.94533C19.5527 9.94506 19.5527 9.9448 19.5527 9.94453C19.5527 9.94427 19.5527 9.94401 19.5527 9.94374C19.5527 9.94348 19.5527 9.94322 19.5527 9.94295C19.5527 9.94269 19.5527 9.94243 19.5527 9.94217C19.5527 9.94191 19.5527 9.94165 19.5527 9.94139C19.5527 9.94112 19.5527 9.94086 19.5527 9.94061C19.5527 9.94035 19.5527 9.94009 19.5527 9.93983C19.5527 9.93957 19.5527 9.93931 19.5527 9.93906C19.5527 9.9388 19.5527 9.93854 19.5527 9.93828C19.5527 9.93803 19.5527 9.93777 19.5527 9.93752C19.5527 9.93726 19.5527 9.93701 19.5527 9.93675C19.5527 9.9365 19.5527 9.93625 19.5527 9.93599C19.5527 9.93574 19.5527 9.93549 19.5527 9.93523C19.5527 9.93498 19.5527 9.93473 19.5527 9.93448C19.5527 9.93423 19.5527 9.93398 19.5527 9.93373C19.5527 9.93348 19.5527 9.93323 19.5527 9.93298C19.5527 9.93273 19.5527 9.93248 19.5527 9.93223C19.5527 9.93199 19.5527 9.93174 19.5527 9.93149C19.5527 9.93124 19.5527 9.931 19.5527 9.93075C19.5527 9.93051 19.5527 9.93026 19.5527 9.93002C19.5527 9.92977 19.5527 9.92953 19.5527 9.92928C19.5527 9.92904 19.5527 9.9288 19.5527 9.92855C19.5527 9.92831 19.5527 9.92807 19.5527 9.92783C19.5527 9.92758 19.5527 9.92734 19.5527 9.9271C19.5527 9.92686 19.5527 9.92662 19.5527 9.92638C19.5527 9.92614 19.5527 9.9259 19.5527 9.92567C19.5527 9.92543 19.5527 9.92519 19.5527 9.92495C19.5527 9.92472 19.5527 9.92448 19.5527 9.92424C19.5527 9.92401 19.5527 9.92377 19.5527 9.92353C19.5527 9.9233 19.5527 9.92306 19.5527 9.92283C19.5527 9.9226 19.5527 9.92236 19.5527 9.92213C19.5527 9.9219 19.5527 9.92166 19.5527 9.92143C19.5527 9.9212 19.5527 9.92097 19.5527 9.92074C19.5527 9.92051 19.5527 9.92028 19.5527 9.92005C19.5527 9.91982 19.5527 9.91959 19.5527 9.91936C19.5527 9.91913 19.5527 9.9189 19.5527 9.91867C19.5527 9.91845 19.5527 9.91822 19.5527 9.91799C19.5527 9.91777 19.5527 9.91754 19.5527 9.91731C19.5527 9.91709 19.5527 9.91686 19.5527 9.91664C19.5527 9.91642 19.5527 9.91619 19.5527 9.91597C19.5527 9.91574 19.5527 9.91552 19.5527 9.9153C19.5527 9.91508 19.5527 9.91486 19.5527 9.91463C19.5527 9.91441 19.5527 9.91419 19.5527 9.91397C19.5527 9.91375 19.5527 9.91353 19.5527 9.91332C19.5527 9.9131 19.5527 9.91288 19.5527 9.91266C19.5527 9.91244 19.5527 9.91223 19.5527 9.91201C19.5527 9.91179 19.5527 9.91158 19.5527 9.91136C19.5527 9.91114 19.5527 9.91093 19.5527 9.91072C19.5527 9.9105 19.5527 9.91029 19.5527 9.91007C19.5527 9.90986 19.5527 9.90965 19.5527 9.90944C19.5527 9.90922 19.5527 9.90901 19.5527 9.9088C19.5527 9.90859 19.5527 9.90838 19.5527 9.90817C19.5527 9.90796 19.5527 9.90775 19.5527 9.90754C19.5527 9.90733 19.5527 9.90712 19.5527 9.90692C19.5527 9.90671 19.5527 9.9065 19.5527 9.90629C19.5527 9.90609 19.5527 9.90588 19.5527 9.90568C19.5527 9.90547 19.5527 9.90527 19.5527 9.90506C19.5527 9.90486 19.5527 9.90465 19.5527 9.90445C19.5527 9.90425 19.5527 9.90405 19.5527 9.90384C19.5527 9.90364 19.5527 9.90344 19.5527 9.90324C19.5527 9.90304 19.5527 9.90284 19.5527 9.90264C19.5527 9.90244 19.5527 9.90224 19.5527 9.90204C19.5527 9.90184 19.5527 9.90164 19.5527 9.90145C19.5527 9.90125 19.5527 9.90105 19.5527 9.90086C19.5527 9.90066 19.5527 9.90046 19.5527 9.90027C19.5527 9.90007 19.5527 9.89988 19.5527 9.89969C19.5527 9.89949 19.5527 9.8993 19.5527 9.89911C19.5527 9.89891 19.5527 9.89872 19.5527 9.89853C19.5527 9.89834 19.5527 9.89815 19.5527 9.89796C19.5527 9.89776 19.5527 9.89757 19.5527 9.89739C19.5527 9.8972 19.5527 9.89701 19.5527 9.89682C19.5527 9.89663 19.5527 9.89644 19.5527 9.89626C19.5527 9.89607 19.5527 9.89588 19.5527 9.8957C19.5527 9.89551 19.5527 9.89533 19.5527 9.89514C19.5527 9.89496 19.5527 9.89477 19.5527 9.89459C19.5527 9.89441 19.5527 9.89422 19.5527 9.89404C19.5527 9.89386 19.5527 9.89368 19.5527 9.8935C19.5527 9.89331 19.5527 9.89313 19.5527 9.89295C19.5527 9.89277 19.5527 9.8926 19.5527 9.89242C19.5527 9.89224 19.5527 9.89206 19.5527 9.89188C19.5527 9.8917 19.5527 9.89153 19.5527 9.89135C19.5527 9.89117 19.5527 9.891 19.5527 9.89082C19.5527 9.89065 19.5527 9.89047 19.5527 9.8903C19.5527 9.89013 19.5527 9.88995 19.5527 9.88978C19.5527 9.88961 19.5527 9.88943 19.5527 9.88926C19.5527 9.88909 19.5527 9.88892 19.5527 9.88875C19.5527 9.88858 19.5527 9.88841 19.5527 9.88824C19.5527 9.88807 19.5527 9.8879 19.5527 9.88774C19.5527 9.88757 19.5527 9.8874 19.5527 9.88723C19.5527 9.88707 19.5527 9.8869 19.5527 9.88673C19.5527 9.88657 19.5527 9.8864 19.5527 9.88624C19.5527 9.88608 19.5527 9.88591 19.5527 9.88575C19.5527 9.88559 19.5527 9.88542 19.5527 9.88526C19.5527 9.8851 19.5527 9.88494 19.5527 9.88478C19.5527 9.88462 19.5527 9.88446 19.5527 9.8843C19.5527 9.88414 19.5527 9.88398 19.5527 9.88382C19.5527 9.88366 19.5527 9.8835 19.5527 9.88335C19.5527 9.88319 19.5527 9.88303 19.5527 9.88288C19.5527 9.88272 19.5527 9.88257 19.5527 9.88241C19.5527 9.88226 19.5527 9.8821 19.5527 9.88195C19.5527 9.8818 19.5527 9.88164 19.5527 9.88149C19.5527 9.88134 19.5527 9.88119 19.5527 9.88104C19.5527 9.88089 19.5527 9.88074 19.5527 9.88059C19.5527 9.88044 19.5527 9.88029 19.5527 9.88014C19.5527 9.87999 19.5527 9.87984 19.5527 9.8797C19.5527 9.87955 19.5527 9.8794 19.5527 9.87926C19.5527 9.87911 19.5527 9.87896 19.5527 9.87882C19.5527 9.87868 19.5527 9.87853 19.5527 9.87839C19.5527 9.87824 19.5527 9.8781 19.5527 9.87796C19.5527 9.87782 19.5527 9.87768 19.5527 9.87753C19.5527 9.87739 19.5527 9.87725 19.5527 9.87711C19.5527 9.87697 19.5527 9.87684 19.5527 9.8767C19.5527 9.87656 19.5527 9.87642 19.5527 9.87628C19.5527 9.87615 19.5527 9.87601 19.5527 9.87587C19.5527 9.87574 19.5527 9.8756 19.5527 9.87547C19.5527 9.87533 19.5527 9.8752 19.5527 9.87507C19.5527 9.87493 19.5527 9.8748 19.5527 9.87467C19.5527 9.87454 19.5527 9.8744 19.5527 9.87427C19.5527 9.87414 19.5527 9.87401 19.5527 9.87388C19.5527 9.87375 19.5527 9.87362 19.5527 9.8735C19.5527 9.87337 19.5527 9.87324 19.5527 9.87311C19.5527 9.87299 19.5527 9.87286 19.5527 9.87273C19.5527 9.87261 19.5527 9.87248 19.5527 9.87236C19.5527 9.87223 19.5527 9.87211 19.5527 9.87199C19.5527 9.87186 19.5527 9.87174 19.5527 9.87162C19.5527 9.8715 19.5527 9.87138 19.5527 9.87126C19.5527 9.87114 19.5527 9.87102 19.5527 9.8709C19.5527 9.87078 19.5527 9.87066 19.5527 9.87054C19.5527 9.87042 19.5527 9.87031 19.5527 9.87019C19.5527 9.87007 19.5527 9.86996 19.5527 9.86984C19.5527 9.86972 19.5527 9.86961 19.5527 9.8695C19.5527 9.86938 19.5527 9.86927 19.5527 9.86916C19.5527 9.86904 19.5527 9.86893 19.5527 9.86882C19.5527 9.86871 19.5527 9.8686 19.5527 9.86849C19.5527 9.86838 19.5527 9.86827 19.5527 9.86816C19.5527 9.86805 19.5527 9.86794 19.5527 9.86783C19.5527 9.86773 19.5527 9.86762 19.5527 9.86751C19.5527 9.86741 19.5527 9.8673 19.5527 9.8672C19.5527 9.86709 19.5527 9.86699 19.5527 9.86688C19.5527 9.86678 19.5527 9.86668 19.5527 9.86657C19.5527 9.86647 19.5527 9.86637 19.5527 9.86627C19.5527 9.86617 19.5527 9.86607 19.5527 9.86597C19.5527 9.86587 19.5527 9.86577 19.5527 9.86567C19.5527 9.86557 19.5527 9.86548 19.5527 9.86538C19.5527 9.86528 19.5527 9.86518 19.5527 9.86509C19.5527 9.86499 19.5527 9.8649 19.5527 9.8648C19.5527 9.86471 19.5527 9.86462 19.5527 9.86452C19.5527 9.86443 19.5527 9.86434 19.5527 9.86425C19.5527 9.86415 19.5527 9.86406 19.5527 9.86397C19.5527 9.86388 19.5527 9.86379 19.5527 9.8637C19.5527 9.86362 19.5527 9.86353 19.5527 9.86344C19.5527 9.86335 19.5527 9.86326 19.5527 9.86318C19.5527 9.86309 19.5527 9.86301 19.5527 9.86292C19.5527 9.86284 19.5527 9.86275 19.5527 9.86267C19.5527 9.86258 19.5527 9.8625 19.5527 9.86242C19.5527 9.86234 19.5527 9.86226 19.5527 9.86217C19.5527 9.86209 19.5527 9.86201 19.5527 9.86193C19.5527 9.86185 19.5527 9.86178 19.5527 9.8617C19.5527 9.86162 19.5527 9.86154 19.5527 9.86146C19.5527 9.86139 19.5527 9.86131 19.5527 9.86124C19.5527 9.86116 19.5527 9.86109 19.5527 9.86101C19.5527 9.86094 19.5527 9.86086 19.5527 9.86079C19.5527 9.86072 19.5527 9.86065 19.5527 9.86058C19.5527 9.8605 19.5527 9.86043 19.5527 9.86036C19.5527 9.86029 19.5527 9.86022 19.5527 9.86016C19.5527 9.86009 19.5527 9.86002 19.5527 9.85995C19.5527 9.85989 19.5527 9.85982 19.5527 9.85975C19.5527 9.85969 19.5527 9.85962 19.5527 9.85956C19.5527 9.85949 19.5527 9.85943 19.5527 9.85937C19.5527 9.8593 19.5527 9.85924 19.5527 9.85918C19.5527 9.85912 19.5527 9.85906 19.5527 9.859C19.5527 9.85894 19.5527 9.85888 19.5527 9.85882C19.5527 9.85876 19.5527 9.8587 19.5527 9.85864C19.5527 9.85858 19.5527 9.85853 19.5527 9.85847C19.5527 9.85842 19.5527 9.85836 19.5527 9.85831C19.5527 9.85825 19.5527 9.8582 19.5527 9.85814C19.5527 9.85809 19.5527 9.85804 19.5527 9.85799C19.5527 9.85793 19.5527 9.85788 19.5527 9.85783C19.5527 9.85778 19.5527 9.85773 19.5527 9.85768C19.5527 9.85763 19.5527 9.85758 19.5527 9.85754C19.5527 9.85749 19.5527 9.85744 19.5527 9.8574C19.5527 9.85735 19.5527 9.8573 19.5527 9.85726C19.5527 9.85721 19.5527 9.85717 19.5527 9.85713C19.5527 9.85708 19.5527 9.85704 19.5527 9.857C19.5527 9.85696 19.5527 9.85691 19.5527 9.85687C19.5527 9.85683 19.5527 9.85679 19.5527 9.85675C19.5527 9.85672 19.5527 9.85668 19.5527 9.85664C19.5527 9.8566 19.5527 9.85656 19.5527 9.85653C19.5527 9.85649 19.5527 9.85646 19.5527 9.85642C19.5527 9.85639 19.5527 9.85635 19.5527 9.85632C19.5527 9.85628 19.5527 9.85625 19.5527 9.85622C19.5527 9.85619 19.5527 9.85616 19.5527 9.85613C19.5527 9.8561 19.5527 9.85607 19.5527 9.85604C19.5527 9.85601 19.5527 9.85598 19.5527 9.85595C19.5527 9.85592 19.5527 9.8559 19.5527 9.85587C19.5527 9.85584 19.5527 9.85582 19.5527 9.85579C19.5527 9.85577 19.5527 9.85574 19.5527 9.85572C19.5527 9.8557 19.5527 9.85567 19.5527 9.85565C19.5527 9.85563 19.5527 9.85561 19.5527 9.85559C19.5527 9.85557 19.5527 9.85555 19.5527 9.85553C19.5527 9.85551 19.5527 9.85549 19.5527 9.85547C19.5527 9.85546 19.5527 9.85544 19.5527 9.85542C19.5527 9.85541 19.5527 9.85539 19.5527 9.85538C19.5527 9.85536 19.5527 9.85535 19.5527 9.85533C19.5527 9.85532 19.5527 9.85531 19.5527 9.8553C19.5527 9.85529 19.5527 9.85527 19.5527 9.85526C19.5527 9.85525 19.5527 9.85524 19.5527 9.85524C19.5527 9.85523 19.5527 9.85522 19.5527 9.85521C19.5527 9.8552 19.5527 9.8552 19.5527 9.85519C19.5527 9.85519 19.5527 9.85518 19.5527 9.85518C19.5527 9.85517 19.5527 9.85517 19.5527 9.85516C19.5527 9.85516 19.5527 9.85516 19.5527 9.85516C19.5527 9.85516 19.5527 9.85516 18.8027 9.85516Z" fill="#28303F"/>
<path d="M17.209 5.00854C17.209 4.59433 16.8732 4.25854 16.459 4.25854C16.0448 4.25854 15.709 4.59433 15.709 5.00854H17.209ZM16.459 6.50854H15.709C15.709 6.92276 16.0448 7.25854 16.459 7.25854V6.50854ZM17.959 7.25854C18.3732 7.25854 18.709 6.92276 18.709 6.50854C18.709 6.09433 18.3732 5.75854 17.959 5.75854V7.25854ZM19.709 6.50854C19.709 8.30347 18.2539 9.75854 16.459 9.75854V11.2585C19.0823 11.2585 21.209 9.1319 21.209 6.50854H19.709ZM16.459 9.75854C14.6641 9.75854 13.209 8.30347 13.209 6.50854H11.709C11.709 9.1319 13.8356 11.2585 16.459 11.2585V9.75854ZM13.209 6.50854C13.209 4.71362 14.6641 3.25854 16.459 3.25854V1.75854C13.8356 1.75854 11.709 3.88519 11.709 6.50854H13.209ZM16.459 3.25854C18.2539 3.25854 19.709 4.71362 19.709 6.50854H21.209C21.209 3.88519 19.0823 1.75854 16.459 1.75854V3.25854ZM15.709 5.00854V6.50854H17.209V5.00854H15.709ZM16.459 7.25854H17.959V5.75854H16.459V7.25854Z" fill="#28303F"/>
</svg>
