<svg width="24" height="24" viewBox="0 0 24 24" fill="none" xmlns="http://www.w3.org/2000/svg">
<path d="M19.2929 2.7072L18.7626 2.17687V2.17687L19.2929 2.7072ZM17.4697 3.46976C17.1768 3.76266 17.1768 4.23753 17.4697 4.53042C17.7626 4.82332 18.2374 4.82332 18.5303 4.53042L17.4697 3.46976ZM20.7071 2.7072L21.2374 2.17687V2.17687L20.7071 2.7072ZM21.4697 4.53042C21.7626 4.82332 22.2374 4.82332 22.5303 4.53042C22.8232 4.23753 22.8232 3.76266 22.5303 3.46976L21.4697 4.53042ZM19.25 8.00009C19.25 8.41431 19.5858 8.75009 20 8.75009C20.4142 8.75009 20.75 8.41431 20.75 8.00009H19.25ZM20.75 3.00009C20.75 2.58588 20.4142 2.25009 20 2.25009C19.5858 2.25009 19.25 2.58588 19.25 3.00009H20.75ZM6.45 12.4001C6.11863 12.1516 5.64853 12.2187 5.4 12.5501C5.15147 12.8815 5.21863 13.3516 5.55 13.6001L6.45 12.4001ZM8.2 14.6501L7.75 15.2501H7.75L8.2 14.6501ZM11.8 14.6501L12.25 15.2501L11.8 14.6501ZM14.45 13.6001C14.7814 13.3516 14.8485 12.8815 14.6 12.5501C14.3515 12.2187 13.8814 12.1516 13.55 12.4001L14.45 13.6001ZM18.7626 2.17687L17.4697 3.46976L18.5303 4.53042L19.8232 3.23753L18.7626 2.17687ZM20.1768 3.23753L21.4697 4.53042L22.5303 3.46976L21.2374 2.17687L20.1768 3.23753ZM20.75 8.00009V3.00009H19.25V8.00009H20.75ZM19.8232 3.23753C19.9209 3.1399 20.0791 3.1399 20.1768 3.23753L21.2374 2.17687C20.554 1.49345 19.446 1.49345 18.7626 2.17687L19.8232 3.23753ZM5 8.75009H15V7.25009H5V8.75009ZM17.25 11.0001V19.0001H18.75V11.0001H17.25ZM15 21.2501H5V22.7501H15V21.2501ZM2.75 19.0001V11.0001H1.25V19.0001H2.75ZM5 21.2501C3.75736 21.2501 2.75 20.2427 2.75 19.0001H1.25C1.25 21.0712 2.92893 22.7501 5 22.7501V21.2501ZM17.25 19.0001C17.25 20.2427 16.2426 21.2501 15 21.2501V22.7501C17.0711 22.7501 18.75 21.0712 18.75 19.0001H17.25ZM15 8.75009C16.2426 8.75009 17.25 9.75745 17.25 11.0001H18.75C18.75 8.92903 17.0711 7.25009 15 7.25009V8.75009ZM5 7.25009C2.92893 7.25009 1.25 8.92903 1.25 11.0001H2.75C2.75 9.75745 3.75736 8.75009 5 8.75009V7.25009ZM5.55 13.6001L7.75 15.2501L8.65 14.0501L6.45 12.4001L5.55 13.6001ZM12.25 15.2501L14.45 13.6001L13.55 12.4001L11.35 14.0501L12.25 15.2501ZM7.75 15.2501C9.08333 16.2501 10.9167 16.2501 12.25 15.2501L11.35 14.0501C10.55 14.6501 9.45 14.6501 8.65 14.0501L7.75 15.2501Z" fill="#28303F"/>
</svg>
