<svg width="24" height="24" viewBox="0 0 24 24" fill="none" xmlns="http://www.w3.org/2000/svg">
<path d="M21.4463 7.09894L20.8601 6.63113V6.63113L21.4463 7.09894ZM11.1394 20.0145L11.7256 20.4824H11.7256L11.1394 20.0145ZM5.78568 10.5244L5.24114 11.0401H5.24115L5.78568 10.5244ZM2.6962 7.26234L3.24073 6.74661L2.6962 7.26234ZM4.61094 3.75H19.3894V2.25H4.61094V3.75ZM20.8601 6.63113L10.5532 19.5467L11.7256 20.4824L22.0325 7.56675L20.8601 6.63113ZM7.22673 18.4553V12.247H5.72673V18.4553H7.22673ZM6.33022 10.0087L3.24073 6.74661L2.15166 7.77807L5.24114 11.0401L6.33022 10.0087ZM7.22673 12.247C7.22673 11.4142 6.9047 10.6152 6.33022 10.0087L5.24115 11.0401C5.55531 11.3718 5.72673 11.803 5.72673 12.247H7.22673ZM10.5532 19.5467C9.44584 20.9344 7.22673 20.1217 7.22673 18.4553H5.72673C5.72673 21.6253 9.78645 22.9123 11.7256 20.4824L10.5532 19.5467ZM4.61094 2.25C1.72137 2.25 0.130505 5.64402 2.15166 7.77807L3.24073 6.74661C2.1803 5.62694 2.95729 3.75 4.61094 3.75V2.25ZM19.3894 3.75C20.9674 3.75 21.7757 5.48366 20.8601 6.63113L22.0325 7.56675C23.7793 5.37776 22.1481 2.25 19.3894 2.25V3.75Z" fill="#28303F"/>
</svg>
