<svg width="24" height="24" viewBox="0 0 24 24" fill="none" xmlns="http://www.w3.org/2000/svg">
<path d="M9.45352 4.26033L9.78877 3.58943V3.58943L9.45352 4.26033ZM20.6842 9.87225L20.3489 10.5431L20.6842 9.87225ZM20.6842 14.1278L21.0194 14.7987V14.7987L20.6842 14.1278ZM9.45352 19.7397L9.11827 19.0688V19.0688L9.45352 19.7397ZM6.21382 16.6458L5.52853 16.341L6.21382 16.6458ZM7.85018 12.9662L8.53547 13.2709L7.85018 12.9662ZM7.85018 11.0338L8.53547 10.7291V10.7291L7.85018 11.0338ZM6.21382 7.35425L6.89911 7.04949L6.21382 7.35425ZM8.5 11.25C8.08579 11.25 7.75 11.5858 7.75 12C7.75 12.4142 8.08579 12.75 8.5 12.75V11.25ZM12 12.75C12.4142 12.75 12.75 12.4142 12.75 12C12.75 11.5858 12.4142 11.25 12 11.25V12.75ZM2 9.24999C1.58579 9.24999 1.25 9.58578 1.25 9.99999C1.25 10.4142 1.58579 10.75 2 10.75V9.24999ZM4 10.75C4.41421 10.75 4.75 10.4142 4.75 9.99999C4.75 9.58578 4.41421 9.24999 4 9.24999V10.75ZM2 13.25C1.58579 13.25 1.25 13.5858 1.25 14C1.25 14.4142 1.58579 14.75 2 14.75V13.25ZM4 14.75C4.41421 14.75 4.75 14.4142 4.75 14C4.75 13.5858 4.41421 13.25 4 13.25V14.75ZM9.11828 4.93123L20.3489 10.5431L21.0194 9.20135L9.78877 3.58943L9.11828 4.93123ZM20.3489 13.4569L9.11827 19.0688L9.78877 20.4106L21.0194 14.7987L20.3489 13.4569ZM6.89911 16.9505L8.53547 13.2709L7.16489 12.6614L5.52853 16.341L6.89911 16.9505ZM8.53547 10.7291L6.89911 7.04949L5.52853 7.659L7.16489 11.3386L8.53547 10.7291ZM8.53547 13.2709C8.8953 12.4618 8.8953 11.5382 8.53547 10.7291L7.16489 11.3386C7.35216 11.7597 7.35216 12.2403 7.16489 12.6614L8.53547 13.2709ZM9.11827 19.0688C7.74883 19.7531 6.27867 18.3456 6.89911 16.9505L5.52853 16.341C4.33497 19.0249 7.16331 21.7225 9.78877 20.4106L9.11827 19.0688ZM20.3489 10.5431C21.5504 11.1435 21.5504 12.8565 20.3489 13.4569L21.0194 14.7987C23.3269 13.6456 23.3269 10.3544 21.0194 9.20135L20.3489 10.5431ZM9.78877 3.58943C7.16331 2.27749 4.33496 4.97512 5.52853 7.659L6.89911 7.04949C6.27867 5.65436 7.74883 4.24692 9.11828 4.93123L9.78877 3.58943ZM8.5 12.75H12V11.25H8.5V12.75ZM2 10.75H4V9.24999H2V10.75ZM2 14.75H4V13.25H2V14.75Z" fill="#28303F"/>
</svg>
