<svg width="24" height="24" viewBox="0 0 24 24" fill="none" xmlns="http://www.w3.org/2000/svg">
<path d="M22.7498 4C22.7498 3.58579 22.4141 3.25 21.9998 3.25C21.5856 3.25 21.2498 3.58579 21.2498 4H22.7498ZM21.2498 20C21.2498 20.4142 21.5856 20.75 21.9998 20.75C22.4141 20.75 22.7498 20.4142 22.7498 20H21.2498ZM18.7498 7C18.7498 6.58579 18.4141 6.25 17.9998 6.25C17.5856 6.25 17.2498 6.58579 17.2498 7H18.7498ZM17.2498 20C17.2498 20.4142 17.5856 20.75 17.9998 20.75C18.4141 20.75 18.7498 20.4142 18.7498 20H17.2498ZM14.7498 10C14.7498 9.58579 14.4141 9.25 13.9998 9.25C13.5856 9.25 13.2498 9.58579 13.2498 10H14.7498ZM13.2498 20C13.2498 20.4142 13.5856 20.75 13.9998 20.75C14.4141 20.75 14.7498 20.4142 14.7498 20H13.2498ZM10.7498 13C10.7498 12.5858 10.4141 12.25 9.99984 12.25C9.58562 12.25 9.24984 12.5858 9.24984 13H10.7498ZM9.24984 20C9.24984 20.4142 9.58562 20.75 9.99984 20.75C10.4141 20.75 10.7498 20.4142 10.7498 20H9.24984ZM5.24984 20C5.24984 20.4142 5.58562 20.75 5.99984 20.75C6.41405 20.75 6.74984 20.4142 6.74984 20H5.24984ZM4.49862 11.1235L5.08427 10.655H5.08427L4.49862 11.1235ZM7.50106 11.1235L8.08671 11.592L7.50106 11.1235ZM21.2498 4V20H22.7498V4H21.2498ZM17.2498 7V20H18.7498V7H17.2498ZM13.2498 10V20H14.7498V10H13.2498ZM9.24984 13V20H10.7498V13H9.24984ZM5.24984 13V20H6.74984V13H5.24984ZM6.58549 12.5315L5.08427 10.655L3.91297 11.592L5.41419 13.4685L6.58549 12.5315ZM6.91541 10.655L5.41419 12.5315L6.58549 13.4685L8.08671 11.592L6.91541 10.655ZM5.99984 8.75C6.98299 8.75 7.52957 9.88724 6.91541 10.655L8.08671 11.592C9.48659 9.84214 8.24075 7.25 5.99984 7.25V8.75ZM5.08427 10.655C4.4701 9.88724 5.01669 8.75 5.99984 8.75V7.25C3.75893 7.25 2.51308 9.84214 3.91297 11.592L5.08427 10.655Z" fill="#28303F"/>
</svg>
