<svg width="24" height="24" viewBox="0 0 24 24" fill="none" xmlns="http://www.w3.org/2000/svg">
<path d="M21.4142 11.5858L21.9445 12.1161L21.4142 11.5858ZM12.5858 20.4142L12.0555 19.8839L12.0555 19.8839L12.5858 20.4142ZM21.5 11.75C21.9142 11.75 22.25 11.4142 22.25 11C22.25 10.5858 21.9142 10.25 21.5 10.25V11.75ZM11.25 20.5C11.25 20.9142 11.5858 21.25 12 21.25C12.4142 21.25 12.75 20.9142 12.75 20.5H11.25ZM6 3.75H18V2.25H6V3.75ZM2.75 17V7H1.25V17H2.75ZM11.1716 20.25H6V21.75H11.1716V20.25ZM21.25 7V10.1716H22.75V7H21.25ZM20.8839 11.0555L12.0555 19.8839L13.1161 20.9445L21.9445 12.1161L20.8839 11.0555ZM21.25 10.1716C21.25 10.5031 21.1183 10.821 20.8839 11.0555L21.9445 12.1161C22.4603 11.6004 22.75 10.9009 22.75 10.1716H21.25ZM11.1716 21.75C11.9009 21.75 12.6004 21.4603 13.1161 20.9445L12.0555 19.8839C11.821 20.1183 11.5031 20.25 11.1716 20.25V21.75ZM1.25 17C1.25 19.6234 3.37665 21.75 6 21.75V20.25C4.20507 20.25 2.75 18.7949 2.75 17H1.25ZM18 3.75C19.7949 3.75 21.25 5.20507 21.25 7H22.75C22.75 4.37665 20.6234 2.25 18 2.25V3.75ZM6 2.25C3.37665 2.25 1.25 4.37665 1.25 7H2.75C2.75 5.20507 4.20507 3.75 6 3.75V2.25ZM18 11.75H21.5V10.25H18V11.75ZM12.75 20.5V17H11.25V20.5H12.75ZM18 10.25C14.2721 10.25 11.25 13.2721 11.25 17H12.75C12.75 14.1005 15.1005 11.75 18 11.75V10.25Z" fill="#28303F"/>
</svg>
