<svg width="24" height="24" viewBox="0 0 24 24" fill="none" xmlns="http://www.w3.org/2000/svg">
<path d="M3 10.25C2.58579 10.25 2.25 10.5858 2.25 11C2.25 11.4142 2.58579 11.75 3 11.75V10.25ZM12.25 21C12.25 21.4142 12.5858 21.75 13 21.75C13.4142 21.75 13.75 21.4142 13.75 21H12.25ZM3 6.25C2.58579 6.25 2.25 6.58579 2.25 7C2.25 7.41421 2.58579 7.75 3 7.75V6.25ZM16.25 21C16.25 21.4142 16.5858 21.75 17 21.75C17.4142 21.75 17.75 21.4142 17.75 21H16.25ZM3 2.25C2.58579 2.25 2.25 2.58579 2.25 3C2.25 3.41421 2.58579 3.75 3 3.75V2.25ZM20.25 21C20.25 21.4142 20.5858 21.75 21 21.75C21.4142 21.75 21.75 21.4142 21.75 21H20.25ZM7.25 18.5C7.25 19.4665 6.4665 20.25 5.5 20.25V21.75C7.29493 21.75 8.75 20.2949 8.75 18.5H7.25ZM5.5 20.25C4.5335 20.25 3.75 19.4665 3.75 18.5H2.25C2.25 20.2949 3.70507 21.75 5.5 21.75V20.25ZM3.75 18.5C3.75 17.5335 4.5335 16.75 5.5 16.75V15.25C3.70507 15.25 2.25 16.7051 2.25 18.5H3.75ZM5.5 16.75C6.4665 16.75 7.25 17.5335 7.25 18.5H8.75C8.75 16.7051 7.29493 15.25 5.5 15.25V16.75ZM3 11.75H4V10.25H3V11.75ZM12.25 20V21H13.75V20H12.25ZM4 11.75C8.55635 11.75 12.25 15.4437 12.25 20H13.75C13.75 14.6152 9.38478 10.25 4 10.25V11.75ZM3 7.75H4V6.25H3V7.75ZM16.25 20V21H17.75V20H16.25ZM4 7.75C10.7655 7.75 16.25 13.2345 16.25 20H17.75C17.75 12.4061 11.5939 6.25 4 6.25V7.75ZM3 3.75H4V2.25H3V3.75ZM20.25 20V21H21.75V20H20.25ZM4 3.75C12.9746 3.75 20.25 11.0254 20.25 20H21.75C21.75 10.1969 13.8031 2.25 4 2.25V3.75Z" fill="#28303F"/>
</svg>
