<svg width="24" height="24" viewBox="0 0 24 24" fill="none" xmlns="http://www.w3.org/2000/svg">
<path d="M3 11.25C2.58579 11.25 2.25 11.5858 2.25 12C2.25 12.4142 2.58579 12.75 3 12.75V11.25ZM21 12.75C21.4142 12.75 21.75 12.4142 21.75 12C21.75 11.5858 21.4142 11.25 21 11.25V12.75ZM10 6.25C9.58579 6.25 9.25 6.58579 9.25 7C9.25 7.41421 9.58579 7.75 10 7.75V6.25ZM14 7.75C14.4142 7.75 14.75 7.41421 14.75 7C14.75 6.58579 14.4142 6.25 14 6.25V7.75ZM10 16.25C9.58579 16.25 9.25 16.5858 9.25 17C9.25 17.4142 9.58579 17.75 10 17.75V16.25ZM14 17.75C14.4142 17.75 14.75 17.4142 14.75 17C14.75 16.5858 14.4142 16.25 14 16.25V17.75ZM17 1.25H7V2.75H17V1.25ZM2.25 6V18H3.75V6H2.25ZM7 22.75H17V21.25H7V22.75ZM21.75 18V6H20.25V18H21.75ZM17 22.75C19.6234 22.75 21.75 20.6234 21.75 18H20.25C20.25 19.7949 18.7949 21.25 17 21.25V22.75ZM2.25 18C2.25 20.6234 4.37665 22.75 7 22.75V21.25C5.20507 21.25 3.75 19.7949 3.75 18H2.25ZM7 1.25C4.37665 1.25 2.25 3.37665 2.25 6H3.75C3.75 4.20507 5.20507 2.75 7 2.75V1.25ZM17 2.75C18.7949 2.75 20.25 4.20507 20.25 6H21.75C21.75 3.37665 19.6234 1.25 17 1.25V2.75ZM3 12.75H21V11.25H3V12.75ZM10 7.75H14V6.25H10V7.75ZM10 17.75H14V16.25H10V17.75Z" fill="#28303F"/>
</svg>
