<svg width="24" height="24" viewBox="0 0 24 24" fill="none" xmlns="http://www.w3.org/2000/svg">
<path d="M18 5H17.25H18ZM18 19H18.75H18ZM22 19H22.75H22ZM22 5H21.25H22ZM2 13H2.75H2ZM2 19H1.25H2ZM6 19H5.25H6ZM6 13H6.75H6ZM10 9H10.75H10ZM10 19H9.25H10ZM14 19H14.75H14ZM14 9H13.25H14ZM21.25 5V19H22.75V5H21.25ZM18.75 19V5H17.25V19H18.75ZM18.75 5C18.75 4.30964 19.3096 3.75 20 3.75V2.25C18.4812 2.25 17.25 3.48122 17.25 5H18.75ZM20 20.25C19.3096 20.25 18.75 19.6904 18.75 19H17.25C17.25 20.5188 18.4812 21.75 20 21.75V20.25ZM21.25 19C21.25 19.6904 20.6904 20.25 20 20.25V21.75C21.5188 21.75 22.75 20.5188 22.75 19H21.25ZM22.75 5C22.75 3.48122 21.5188 2.25 20 2.25V3.75C20.6904 3.75 21.25 4.30964 21.25 5H22.75ZM5.25 13L5.25 19H6.75L6.75 13H5.25ZM2.75 19L2.75 13H1.25L1.25 19H2.75ZM2.75 13C2.75 12.3096 3.30964 11.75 4 11.75V10.25C2.48122 10.25 1.25 11.4812 1.25 13H2.75ZM4 20.25C3.30964 20.25 2.75 19.6904 2.75 19H1.25C1.25 20.5188 2.48122 21.75 4 21.75V20.25ZM5.25 19C5.25 19.6904 4.69036 20.25 4 20.25V21.75C5.51878 21.75 6.75 20.5188 6.75 19H5.25ZM6.75 13C6.75 11.4812 5.51878 10.25 4 10.25V11.75C4.69036 11.75 5.25 12.3096 5.25 13H6.75ZM13.25 9V19H14.75V9H13.25ZM10.75 19L10.75 9H9.25L9.25 19H10.75ZM10.75 9C10.75 8.30964 11.3096 7.75 12 7.75V6.25C10.4812 6.25 9.25 7.48122 9.25 9H10.75ZM12 20.25C11.3096 20.25 10.75 19.6904 10.75 19H9.25C9.25 20.5188 10.4812 21.75 12 21.75V20.25ZM13.25 19C13.25 19.6904 12.6904 20.25 12 20.25V21.75C13.5188 21.75 14.75 20.5188 14.75 19H13.25ZM14.75 9C14.75 7.48122 13.5188 6.25 12 6.25V7.75C12.6904 7.75 13.25 8.30964 13.25 9H14.75Z" fill="#28303F"/>
</svg>
