<svg width="24" height="24" viewBox="0 0 24 24" fill="none" xmlns="http://www.w3.org/2000/svg">
<path d="M7.25 6C7.25 6.41421 7.58579 6.75 8 6.75C8.41421 6.75 8.75 6.41421 8.75 6H7.25ZM15.25 6C15.25 6.41421 15.5858 6.75 16 6.75C16.4142 6.75 16.75 6.41421 16.75 6H15.25ZM12.75 11.1093C12.75 10.6951 12.4142 10.3593 12 10.3593C11.5858 10.3593 11.25 10.6951 11.25 11.1093H12.75ZM11.25 14.1093C11.25 14.5235 11.5858 14.8593 12 14.8593C12.4142 14.8593 12.75 14.5235 12.75 14.1093H11.25ZM6 6.75H18V5.25H6V6.75ZM21.25 10V18H22.75V10H21.25ZM18 21.25H6V22.75H18V21.25ZM2.75 18V10H1.25V18H2.75ZM6 21.25C4.20507 21.25 2.75 19.7949 2.75 18H1.25C1.25 20.6234 3.37665 22.75 6 22.75V21.25ZM21.25 18C21.25 19.7949 19.7949 21.25 18 21.25V22.75C20.6234 22.75 22.75 20.6234 22.75 18H21.25ZM18 6.75C19.7949 6.75 21.25 8.20507 21.25 10H22.75C22.75 7.37665 20.6234 5.25 18 5.25V6.75ZM6 5.25C3.37665 5.25 1.25 7.37665 1.25 10H2.75C2.75 8.20507 4.20507 6.75 6 6.75V5.25ZM8.75 6V5H7.25V6H8.75ZM11 2.75H13V1.25H11V2.75ZM15.25 5V6H16.75V5H15.25ZM13 2.75C14.2426 2.75 15.25 3.75736 15.25 5H16.75C16.75 2.92893 15.0711 1.25 13 1.25V2.75ZM8.75 5C8.75 3.75736 9.75736 2.75 11 2.75V1.25C8.92893 1.25 7.25 2.92893 7.25 5H8.75ZM2 10C1.52986 10.5844 1.53017 10.5846 1.5305 10.5849C1.53063 10.585 1.53096 10.5852 1.53121 10.5854C1.53171 10.5858 1.53226 10.5863 1.53286 10.5868C1.53405 10.5877 1.53544 10.5888 1.53702 10.5901C1.54019 10.5926 1.54412 10.5957 1.54884 10.5993C1.55828 10.6067 1.57082 10.6163 1.58651 10.6281C1.61788 10.6516 1.66178 10.6837 1.7184 10.7231C1.83163 10.802 1.99569 10.9103 2.21189 11.0383C2.64436 11.2943 3.28515 11.6287 4.14458 11.9639C5.86503 12.6348 8.45331 13.3051 11.9885 13.3592L12.0115 11.8594C8.65885 11.8081 6.24713 11.1738 4.68954 10.5664C3.90995 10.2624 3.34221 9.96426 2.97591 9.74746C2.79272 9.63903 2.65983 9.55089 2.57596 9.49245C2.53402 9.46323 2.50434 9.44143 2.48676 9.42824C2.47797 9.42164 2.4722 9.4172 2.46943 9.41505C2.46805 9.41397 2.46742 9.41348 2.46754 9.41357C2.4676 9.41362 2.46785 9.41381 2.46828 9.41416C2.4685 9.41433 2.46876 9.41454 2.46907 9.41479C2.46923 9.41491 2.46949 9.41513 2.46957 9.41519C2.46985 9.41541 2.47014 9.41565 2 10ZM11.9885 13.3592C15.5358 13.4135 18.1355 12.7414 19.8651 12.0391C20.7288 11.6884 21.3727 11.3313 21.8073 11.0562C22.0245 10.9187 22.1894 10.8016 22.3033 10.7161C22.3602 10.6734 22.4043 10.6385 22.4359 10.6129C22.4517 10.6001 22.4643 10.5896 22.4738 10.5816C22.4786 10.5776 22.4826 10.5742 22.4858 10.5715C22.4874 10.5701 22.4888 10.5689 22.49 10.5678C22.4906 10.5673 22.4911 10.5668 22.4916 10.5664C22.4919 10.5662 22.4922 10.5659 22.4924 10.5658C22.4927 10.5655 22.493 10.5652 22 10C21.507 9.43481 21.5073 9.43455 21.5076 9.4343C21.5077 9.43423 21.5079 9.434 21.5081 9.43386C21.5084 9.43358 21.5087 9.43335 21.5089 9.43315C21.5093 9.43277 21.5096 9.43254 21.5097 9.43248C21.5098 9.43234 21.5092 9.43286 21.5079 9.43399C21.5052 9.43625 21.4995 9.44098 21.4908 9.44804C21.4735 9.46214 21.444 9.48549 21.4024 9.51677C21.3191 9.57932 21.187 9.67354 21.0049 9.78885C20.6407 10.0194 20.0761 10.3344 19.3008 10.6493C17.7524 11.278 15.3521 11.9105 12.0115 11.8594L11.9885 13.3592ZM11.25 11.1093V12.6093H12.75V11.1093H11.25ZM11.25 12.6093V14.1093H12.75V12.6093H11.25Z" fill="#28303F"/>
</svg>
