<svg width="24" height="24" viewBox="0 0 24 24" fill="none" xmlns="http://www.w3.org/2000/svg">
<path d="M7.25 6C7.25 6.41421 7.58579 6.75 8 6.75C8.41421 6.75 8.75 6.41421 8.75 6H7.25ZM15.25 6C15.25 6.41421 15.5858 6.75 16 6.75C16.4142 6.75 16.75 6.41421 16.75 6H15.25ZM2.41578 9.72328C2.07105 9.49365 1.60543 9.58696 1.3758 9.9317C1.14617 10.2764 1.23948 10.7421 1.58422 10.9717L2.41578 9.72328ZM22.4158 10.9717C22.7605 10.7421 22.8538 10.2764 22.6242 9.9317C22.3946 9.58696 21.929 9.49365 21.5842 9.72328L22.4158 10.9717ZM9.90297 13.6571C10.3151 13.6984 10.6827 13.3977 10.7239 12.9856C10.7652 12.5734 10.4645 12.2058 10.0524 12.1646L9.90297 13.6571ZM13.9476 12.1646C13.5355 12.2058 13.2348 12.5734 13.2761 12.9856C13.3173 13.3977 13.6849 13.6984 14.097 13.6571L13.9476 12.1646ZM6 6.75H18V5.25H6V6.75ZM21.25 10V18H22.75V10H21.25ZM18 21.25H6V22.75H18V21.25ZM2.75 18V10H1.25V18H2.75ZM6 21.25C4.20507 21.25 2.75 19.7949 2.75 18H1.25C1.25 20.6234 3.37665 22.75 6 22.75V21.25ZM21.25 18C21.25 19.7949 19.7949 21.25 18 21.25V22.75C20.6234 22.75 22.75 20.6234 22.75 18H21.25ZM18 6.75C19.7949 6.75 21.25 8.20507 21.25 10H22.75C22.75 7.37665 20.6234 5.25 18 5.25V6.75ZM6 5.25C3.37665 5.25 1.25 7.37665 1.25 10H2.75C2.75 8.20507 4.20507 6.75 6 6.75V5.25ZM8.75 6V5H7.25V6H8.75ZM11 2.75H13V1.25H11V2.75ZM15.25 5V6H16.75V5H15.25ZM13 2.75C14.2426 2.75 15.25 3.75736 15.25 5H16.75C16.75 2.92893 15.0711 1.25 13 1.25V2.75ZM8.75 5C8.75 3.75736 9.75736 2.75 11 2.75V1.25C8.92893 1.25 7.25 2.92893 7.25 5H8.75ZM2 10.3475C1.58422 10.9717 1.58441 10.9718 1.58463 10.972C1.58471 10.972 1.58493 10.9722 1.58511 10.9723C1.58545 10.9725 1.58584 10.9728 1.58628 10.9731C1.58716 10.9736 1.58824 10.9743 1.5895 10.9752C1.59203 10.9768 1.59532 10.979 1.59937 10.9816C1.60747 10.9869 1.61861 10.9941 1.63274 11.0032C1.66101 11.0212 1.70127 11.0465 1.75318 11.0781C1.85699 11.1414 2.00749 11.2301 2.20199 11.3369C2.59086 11.5506 3.15644 11.8373 3.8771 12.1387C5.31736 12.741 7.38455 13.405 9.90297 13.6571L10.0524 12.1646C7.71116 11.9302 5.78951 11.3126 4.45584 10.7548C3.78954 10.4762 3.27189 10.2133 2.92426 10.0223C2.75051 9.92682 2.61945 9.84945 2.53376 9.79723C2.49092 9.77113 2.45945 9.75132 2.43967 9.73869C2.42978 9.73238 2.42281 9.72787 2.41882 9.72526C2.41682 9.72396 2.41556 9.72314 2.41506 9.7228C2.4148 9.72263 2.41474 9.72259 2.41486 9.72267C2.41492 9.72271 2.41503 9.72278 2.41518 9.72288C2.41526 9.72293 2.41541 9.72303 2.41545 9.72306C2.41561 9.72317 2.41578 9.72328 2 10.3475ZM14.097 13.6571C16.6155 13.405 18.6826 12.741 20.1229 12.1387C20.8436 11.8373 21.4091 11.5506 21.798 11.3369C21.9925 11.2301 22.143 11.1414 22.2468 11.0781C22.2987 11.0465 22.339 11.0212 22.3673 11.0032C22.3814 10.9941 22.3925 10.9869 22.4006 10.9816C22.4047 10.979 22.408 10.9768 22.4105 10.9752C22.4118 10.9743 22.4128 10.9736 22.4137 10.9731C22.4142 10.9728 22.4145 10.9725 22.4149 10.9723C22.4151 10.9722 22.4153 10.972 22.4154 10.972C22.4156 10.9718 22.4158 10.9717 22 10.3475C21.5842 9.72328 21.5844 9.72317 21.5846 9.72306C21.5846 9.72303 21.5847 9.72293 21.5848 9.72288C21.585 9.72278 21.5851 9.72271 21.5851 9.72267C21.5853 9.72259 21.5852 9.72263 21.5849 9.7228C21.5844 9.72314 21.5832 9.72396 21.5812 9.72526C21.5772 9.72787 21.5702 9.73238 21.5603 9.73869C21.5406 9.75132 21.5091 9.77112 21.4662 9.79723C21.3805 9.84945 21.2495 9.92682 21.0757 10.0223C20.7281 10.2133 20.2105 10.4762 19.5442 10.7548C18.2105 11.3126 16.2888 11.9302 13.9476 12.1646L14.097 13.6571Z" fill="#28303F"/>
<path d="M14 12.1599V13.1599C14 13.1699 14 13.1699 14 13.1799C14 14.2699 13.99 15.1599 12 15.1599C10.02 15.1599 10 14.2799 10 13.1899V12.1599C10 11.1599 10 11.1599 11 11.1599H13C14 11.1599 14 11.1599 14 12.1599Z" stroke="#28303F" stroke-width="1.5" stroke-miterlimit="10" stroke-linecap="round" stroke-linejoin="round"/>
</svg>
