<svg width="24" height="24" viewBox="0 0 24 24" fill="none" xmlns="http://www.w3.org/2000/svg">
<path d="M7.25 6C7.25 6.41421 7.58579 6.75 8 6.75C8.41421 6.75 8.75 6.41421 8.75 6H7.25ZM15.25 6C15.25 6.41421 15.5858 6.75 16 6.75C16.4142 6.75 16.75 6.41421 16.75 6H15.25ZM2 12.25C1.58579 12.25 1.25 12.5858 1.25 13C1.25 13.4142 1.58579 13.75 2 13.75V12.25ZM22 13.75C22.4142 13.75 22.75 13.4142 22.75 13C22.75 12.5858 22.4142 12.25 22 12.25V13.75ZM8.75 11.5C8.75 11.0858 8.41421 10.75 8 10.75C7.58579 10.75 7.25 11.0858 7.25 11.5H8.75ZM7.25 14.5C7.25 14.9142 7.58579 15.25 8 15.25C8.41421 15.25 8.75 14.9142 8.75 14.5H7.25ZM16.75 11.5C16.75 11.0858 16.4142 10.75 16 10.75C15.5858 10.75 15.25 11.0858 15.25 11.5H16.75ZM15.25 14.5C15.25 14.9142 15.5858 15.25 16 15.25C16.4142 15.25 16.75 14.9142 16.75 14.5H15.25ZM6 6.75H18V5.25H6V6.75ZM21.25 10V18H22.75V10H21.25ZM18 21.25H6V22.75H18V21.25ZM2.75 18V10H1.25V18H2.75ZM6 21.25C4.20507 21.25 2.75 19.7949 2.75 18H1.25C1.25 20.6234 3.37665 22.75 6 22.75V21.25ZM21.25 18C21.25 19.7949 19.7949 21.25 18 21.25V22.75C20.6234 22.75 22.75 20.6234 22.75 18H21.25ZM18 6.75C19.7949 6.75 21.25 8.20507 21.25 10H22.75C22.75 7.37665 20.6234 5.25 18 5.25V6.75ZM6 5.25C3.37665 5.25 1.25 7.37665 1.25 10H2.75C2.75 8.20507 4.20507 6.75 6 6.75V5.25ZM8.75 6V5H7.25V6H8.75ZM11 2.75H13V1.25H11V2.75ZM15.25 5V6H16.75V5H15.25ZM13 2.75C14.2426 2.75 15.25 3.75736 15.25 5H16.75C16.75 2.92893 15.0711 1.25 13 1.25V2.75ZM8.75 5C8.75 3.75736 9.75736 2.75 11 2.75V1.25C8.92893 1.25 7.25 2.92893 7.25 5H8.75ZM2 13.75H22V12.25H2V13.75ZM7.25 11.5V14.5H8.75V11.5H7.25ZM15.25 11.5V14.5H16.75V11.5H15.25Z" fill="#28303F"/>
</svg>
