<svg width="24" height="24" viewBox="0 0 24 24" fill="none" xmlns="http://www.w3.org/2000/svg">
<path d="M7.25 6C7.25 6.41421 7.58579 6.75 8 6.75C8.41421 6.75 8.75 6.41421 8.75 6H7.25ZM15.25 6C15.25 6.41421 15.5858 6.75 16 6.75C16.4142 6.75 16.75 6.41421 16.75 6H15.25ZM8.75 10.6767C8.75 10.2625 8.41421 9.92673 8 9.92673C7.58579 9.92673 7.25 10.2625 7.25 10.6767H8.75ZM7.25 13.6767C7.25 14.0909 7.58579 14.4267 8 14.4267C8.41421 14.4267 8.75 14.0909 8.75 13.6767H7.25ZM16.75 10.6767C16.75 10.2625 16.4142 9.92673 16 9.92673C15.5858 9.92673 15.25 10.2625 15.25 10.6767H16.75ZM15.25 13.6767C15.25 14.0909 15.5858 14.4267 16 14.4267C16.4142 14.4267 16.75 14.0909 16.75 13.6767H15.25ZM6 6.75H18V5.25H6V6.75ZM21.25 10V18H22.75V10H21.25ZM18 21.25H6V22.75H18V21.25ZM2.75 18V10H1.25V18H2.75ZM6 21.25C4.20507 21.25 2.75 19.7949 2.75 18H1.25C1.25 20.6234 3.37665 22.75 6 22.75V21.25ZM21.25 18C21.25 19.7949 19.7949 21.25 18 21.25V22.75C20.6234 22.75 22.75 20.6234 22.75 18H21.25ZM18 6.75C19.7949 6.75 21.25 8.20507 21.25 10H22.75C22.75 7.37665 20.6234 5.25 18 5.25V6.75ZM6 5.25C3.37665 5.25 1.25 7.37665 1.25 10H2.75C2.75 8.20507 4.20507 6.75 6 6.75V5.25ZM8.75 6V5H7.25V6H8.75ZM11 2.75H13V1.25H11V2.75ZM15.25 5V6H16.75V5H15.25ZM13 2.75C14.2426 2.75 15.25 3.75736 15.25 5H16.75C16.75 2.92893 15.0711 1.25 13 1.25V2.75ZM8.75 5C8.75 3.75736 9.75736 2.75 11 2.75V1.25C8.92893 1.25 7.25 2.92893 7.25 5H8.75ZM2 10C1.54691 10.5977 1.54722 10.5979 1.54753 10.5981C1.54766 10.5982 1.54799 10.5985 1.54823 10.5987C1.54872 10.599 1.54926 10.5994 1.54984 10.5999C1.55102 10.6008 1.55239 10.6018 1.55395 10.603C1.55709 10.6053 1.56101 10.6082 1.56571 10.6117C1.57513 10.6186 1.58769 10.6277 1.60343 10.6388C1.6349 10.6611 1.67905 10.6917 1.736 10.7293C1.8499 10.8045 2.01502 10.908 2.23236 11.0306C2.6671 11.276 3.31054 11.5979 4.17065 11.9232C5.89215 12.5744 8.47491 13.2367 11.9799 13.3308L12.0201 11.8314C8.6877 11.7419 6.27047 11.1137 4.70132 10.5202C3.91609 10.2232 3.34155 9.93424 2.96963 9.72433C2.78364 9.61936 2.64826 9.53413 2.5625 9.4775C2.51962 9.44919 2.48914 9.42802 2.47095 9.41513C2.46185 9.40868 2.45582 9.40429 2.45285 9.40211C2.45136 9.40102 2.45064 9.40049 2.45068 9.40052C2.4507 9.40053 2.45091 9.40069 2.45131 9.40099C2.45152 9.40114 2.45176 9.40133 2.45206 9.40155C2.45221 9.40166 2.45246 9.40186 2.45254 9.40191C2.45281 9.40212 2.45309 9.40233 2 10ZM11.9799 13.3308C15.5061 13.4255 18.1088 12.7599 19.8462 12.0543C20.7137 11.7019 21.3627 11.3408 21.8013 11.0621C22.0205 10.9228 22.1871 10.8041 22.3021 10.7174C22.3597 10.674 22.4043 10.6387 22.4361 10.6128C22.4521 10.5998 22.4648 10.5892 22.4744 10.5811C22.4792 10.5771 22.4832 10.5737 22.4864 10.5709C22.488 10.5696 22.4894 10.5683 22.4906 10.5673C22.4912 10.5668 22.4917 10.5663 22.4922 10.5659C22.4925 10.5656 22.4928 10.5653 22.493 10.5652C22.4933 10.5649 22.4936 10.5647 22 10C21.5064 9.43533 21.5067 9.43508 21.507 9.43483C21.507 9.43477 21.5073 9.43453 21.5075 9.4344C21.5078 9.43412 21.508 9.4339 21.5083 9.43371C21.5087 9.43333 21.5089 9.43312 21.509 9.43307C21.5091 9.43298 21.5085 9.43354 21.507 9.43472C21.5042 9.4371 21.4984 9.44199 21.4895 9.44923C21.4717 9.46372 21.4417 9.48759 21.3994 9.51948C21.3147 9.58328 21.1808 9.67913 20.9967 9.79612C20.6286 10.0301 20.0596 10.3486 19.2818 10.6645C17.7286 11.2953 15.3313 11.9203 12.0201 11.8314L11.9799 13.3308ZM7.25 10.6767V13.6767H8.75V10.6767H7.25ZM15.25 10.6767V13.6767H16.75V10.6767H15.25Z" fill="#28303F"/>
</svg>
