<svg width="24" height="24" viewBox="0 0 24 24" fill="none" xmlns="http://www.w3.org/2000/svg">
<path d="M20 18H19.25H20ZM16 22V22.75V22ZM16 2V2.75V2ZM20 6H20.75H20ZM8 2V1.25V2ZM4 18H3.25H4ZM8 22V21.25V22ZM8 5.25C7.58579 5.25 7.25 5.58579 7.25 6C7.25 6.41421 7.58579 6.75 8 6.75V5.25ZM16 6.75C16.4142 6.75 16.75 6.41421 16.75 6C16.75 5.58579 16.4142 5.25 16 5.25V6.75ZM4.75 18L4.75 6H3.25L3.25 18H4.75ZM8 2.75L16 2.75V1.25L8 1.25V2.75ZM19.25 6V18H20.75V6H19.25ZM16 21.25H8V22.75H16V21.25ZM19.25 18C19.25 19.7949 17.7949 21.25 16 21.25V22.75C18.6234 22.75 20.75 20.6234 20.75 18H19.25ZM16 2.75C17.7949 2.75 19.25 4.20507 19.25 6H20.75C20.75 3.37665 18.6234 1.25 16 1.25V2.75ZM4.75 6C4.75 4.20508 6.20507 2.75 8 2.75V1.25C5.37665 1.25 3.25 3.37665 3.25 6H4.75ZM3.25 18C3.25 20.6234 5.37665 22.75 8 22.75V21.25C6.20508 21.25 4.75 19.7949 4.75 18H3.25ZM8 6.75H16V5.25H8V6.75Z" fill="#28303F"/>
<path d="M8.75 10C8.75 10.4142 8.41421 10.75 8 10.75C7.58579 10.75 7.25 10.4142 7.25 10C7.25 9.58579 7.58579 9.25 8 9.25C8.41421 9.25 8.75 9.58579 8.75 10Z" fill="#28303F"/>
<path d="M12.75 10C12.75 10.4142 12.4142 10.75 12 10.75C11.5858 10.75 11.25 10.4142 11.25 10C11.25 9.58579 11.5858 9.25 12 9.25C12.4142 9.25 12.75 9.58579 12.75 10Z" fill="#28303F"/>
<path d="M16.75 10C16.75 10.4142 16.4142 10.75 16 10.75C15.5858 10.75 15.25 10.4142 15.25 10C15.25 9.58579 15.5858 9.25 16 9.25C16.4142 9.25 16.75 9.58579 16.75 10Z" fill="#28303F"/>
<path d="M8.75 14C8.75 14.4142 8.41421 14.75 8 14.75C7.58579 14.75 7.25 14.4142 7.25 14C7.25 13.5858 7.58579 13.25 8 13.25C8.41421 13.25 8.75 13.5858 8.75 14Z" fill="#28303F"/>
<path d="M12.75 14C12.75 14.4142 12.4142 14.75 12 14.75C11.5858 14.75 11.25 14.4142 11.25 14C11.25 13.5858 11.5858 13.25 12 13.25C12.4142 13.25 12.75 13.5858 12.75 14Z" fill="#28303F"/>
<path d="M16.75 14C16.75 14.4142 16.4142 14.75 16 14.75C15.5858 14.75 15.25 14.4142 15.25 14C15.25 13.5858 15.5858 13.25 16 13.25C16.4142 13.25 16.75 13.5858 16.75 14Z" fill="#28303F"/>
<path d="M8.75 18C8.75 18.4142 8.41421 18.75 8 18.75C7.58579 18.75 7.25 18.4142 7.25 18C7.25 17.5858 7.58579 17.25 8 17.25C8.41421 17.25 8.75 17.5858 8.75 18Z" fill="#28303F"/>
<path d="M12.75 18C12.75 18.4142 12.4142 18.75 12 18.75C11.5858 18.75 11.25 18.4142 11.25 18C11.25 17.5858 11.5858 17.25 12 17.25C12.4142 17.25 12.75 17.5858 12.75 18Z" fill="#28303F"/>
<path d="M16.75 18C16.75 18.4142 16.4142 18.75 16 18.75C15.5858 18.75 15.25 18.4142 15.25 18C15.25 17.5858 15.5858 17.25 16 17.25C16.4142 17.25 16.75 17.5858 16.75 18Z" fill="#28303F"/>
</svg>
