<svg width="24" height="24" viewBox="0 0 24 24" fill="none" xmlns="http://www.w3.org/2000/svg">
<path d="M2.75 2C2.75 1.58579 2.41421 1.25 2 1.25C1.58579 1.25 1.25 1.58579 1.25 2H2.75ZM22 22.75C22.4142 22.75 22.75 22.4142 22.75 22C22.75 21.5858 22.4142 21.25 22 21.25V22.75ZM12.456 10.0149L11.864 10.4753V10.4753L12.456 10.0149ZM15.4223 13.8287L16.0143 13.3682V13.3682L15.4223 13.8287ZM17.2443 13.8287L16.6523 13.3682V13.3682L17.2443 13.8287ZM21.592 9.46046C21.8463 9.13349 21.7874 8.66229 21.4605 8.40799C21.1335 8.15368 20.6623 8.21258 20.408 8.53954L21.592 9.46046ZM6.40799 14.5395C6.15368 14.8665 6.21258 15.3377 6.53954 15.592C6.86651 15.8463 7.33771 15.7874 7.59201 15.4605L6.40799 14.5395ZM10.8773 10.0149L11.4693 10.4753V10.4753L10.8773 10.0149ZM1.25 2V18H2.75V2H1.25ZM6 22.75H22V21.25H6V22.75ZM1.25 18C1.25 20.6234 3.37665 22.75 6 22.75V21.25C4.20507 21.25 2.75 19.7949 2.75 18H1.25ZM11.864 10.4753L14.8303 14.2892L16.0143 13.3682L13.048 9.55443L11.864 10.4753ZM17.8364 14.2892L21.592 9.46046L20.408 8.53954L16.6523 13.3682L17.8364 14.2892ZM14.8303 14.2892C15.5976 15.2757 17.069 15.2757 17.8364 14.2892L16.6523 13.3682C16.4856 13.5827 16.1811 13.5827 16.0143 13.3682L14.8303 14.2892ZM7.59201 15.4605L11.4693 10.4753L10.2853 9.55443L6.40799 14.5395L7.59201 15.4605ZM13.048 9.55443C12.3474 8.65362 10.9859 8.65362 10.2853 9.55443L11.4693 10.4753C11.5694 10.3467 11.7639 10.3467 11.864 10.4753L13.048 9.55443Z" fill="#28303F"/>
</svg>
