<svg width="24" height="24" viewBox="0 0 24 24" fill="none" xmlns="http://www.w3.org/2000/svg">
<path d="M13.9872 2.19744L14.1355 1.46224L13.9872 2.19744ZM21.8025 10.0128L22.5378 9.86452L21.8025 10.0128ZM9.16597 4.95442C9.56991 4.86276 9.82307 4.46099 9.73141 4.05705C9.63975 3.6531 9.23798 3.39995 8.83403 3.49161L9.16597 4.95442ZM20.5084 15.166C20.6 14.762 20.3469 14.3602 19.9429 14.2686C19.539 14.1769 19.1372 14.4301 19.0456 14.834L20.5084 15.166ZM13.839 2.93265C17.4716 3.66508 20.3349 6.52838 21.0673 10.161L22.5378 9.86452C21.686 5.63998 18.36 2.31402 14.1355 1.46224L13.839 2.93265ZM20 11.25H14V12.75H20V11.25ZM12.75 9.99999V3.99999H11.25V9.99999H12.75ZM14 11.25C13.3096 11.25 12.75 10.6903 12.75 9.99999H11.25C11.25 11.5188 12.4812 12.75 14 12.75V11.25ZM14.1355 1.46224C12.485 1.12947 11.25 2.53306 11.25 3.99999H12.75C12.75 3.25778 13.3239 2.82878 13.839 2.93265L14.1355 1.46224ZM21.0673 10.161C21.1712 10.6761 20.7422 11.25 20 11.25V12.75C21.4669 12.75 22.8705 11.5149 22.5378 9.86452L21.0673 10.161ZM11 21.25C6.44365 21.25 2.75 17.5563 2.75 13H1.25C1.25 18.3848 5.61522 22.75 11 22.75V21.25ZM2.75 13C2.75 9.0747 5.4921 5.78806 9.16597 4.95442L8.83403 3.49161C4.49195 4.47688 1.25 8.35894 1.25 13H2.75ZM19.0456 14.834C18.2119 18.5079 14.9253 21.25 11 21.25V22.75C15.6411 22.75 19.5231 19.5081 20.5084 15.166L19.0456 14.834Z" fill="#28303F"/>
</svg>
