<svg width="24" height="24" viewBox="0 0 24 24" fill="none" xmlns="http://www.w3.org/2000/svg">
<path d="M14.5 14.25C14.0858 14.25 13.75 14.5858 13.75 15C13.75 15.4142 14.0858 15.75 14.5 15.75V14.25ZM17.2764 14.4472L16.6056 14.1118V14.1118L17.2764 14.4472ZM18.6708 13.3354C18.8561 12.9649 18.7059 12.5144 18.3354 12.3292C17.9649 12.1439 17.5144 12.2941 17.3292 12.6646L18.6708 13.3354ZM15.8728 14.9112L16.284 15.5384L17.5384 14.716L17.1272 14.0888L15.8728 14.9112ZM13.7644 10.3271L13.1372 10.7383V10.7383L13.7644 10.3271ZM12.0726 10.3576L11.431 9.96919L12.0726 10.3576ZM10.1644 13.5099L9.52284 13.1216H9.52284L10.1644 13.5099ZM8.43044 13.4698L7.77155 13.8281L8.43044 13.4698ZM6.65889 8.64173C6.46103 8.27783 6.00562 8.14324 5.64173 8.34111C5.27783 8.53897 5.14324 8.99438 5.34111 9.35827L6.65889 8.64173ZM6 2.75H18V1.25H6V2.75ZM21.25 6V18H22.75V6H21.25ZM18 21.25H6V22.75H18V21.25ZM2.75 18V6H1.25V18H2.75ZM6 21.25C4.20507 21.25 2.75 19.7949 2.75 18H1.25C1.25 20.6234 3.37665 22.75 6 22.75V21.25ZM21.25 18C21.25 19.7949 19.7949 21.25 18 21.25V22.75C20.6234 22.75 22.75 20.6234 22.75 18H21.25ZM18 2.75C19.7949 2.75 21.25 4.20507 21.25 6H22.75C22.75 3.37665 20.6234 1.25 18 1.25V2.75ZM6 1.25C3.37665 1.25 1.25 3.37665 1.25 6H2.75C2.75 4.20507 4.20507 2.75 6 2.75V1.25ZM14.5 15.75H16.382V14.25H14.5V15.75ZM17.9472 14.7826L18.6708 13.3354L17.3292 12.6646L16.6056 14.1118L17.9472 14.7826ZM16.382 15.75C17.0448 15.75 17.6508 15.3755 17.9472 14.7826L16.6056 14.1118C16.5632 14.1965 16.4767 14.25 16.382 14.25V15.75ZM17.1272 14.0888L14.3917 9.91596L13.1372 10.7383L15.8728 14.9112L17.1272 14.0888ZM11.431 9.96919L9.52284 13.1216L10.8061 13.8983L12.7142 10.7459L11.431 9.96919ZM9.08934 13.1115L6.65889 8.64173L5.34111 9.35827L7.77155 13.8281L9.08934 13.1115ZM9.52284 13.1216C9.4229 13.2867 9.18153 13.2811 9.08934 13.1115L7.77155 13.8281C8.41688 15.0149 10.1065 15.054 10.8061 13.8983L9.52284 13.1216ZM14.3917 9.91596C13.6857 8.83911 12.0978 8.86767 11.431 9.96919L12.7142 10.7459C12.8095 10.5886 13.0363 10.5845 13.1372 10.7383L14.3917 9.91596Z" fill="#28303F"/>
</svg>
