<svg width="24" height="24" viewBox="0 0 24 24" fill="none" xmlns="http://www.w3.org/2000/svg">
<path d="M18 13H18.75H18ZM18 15H17.25H18ZM14 15H13.25H14ZM14 13H14.75H14ZM10 9H10.75H10ZM8 17V16.25V17ZM10 15H9.25H10ZM6 15H6.75H6ZM6 9H5.25H6ZM13.25 13V15H14.75V13H13.25ZM18.75 15V13H17.25V15H18.75ZM18.75 13C18.75 11.4812 17.5188 10.25 16 10.25V11.75C16.6904 11.75 17.25 12.3096 17.25 13H18.75ZM16 17.75C17.5188 17.75 18.75 16.5188 18.75 15H17.25C17.25 15.6904 16.6904 16.25 16 16.25V17.75ZM13.25 15C13.25 16.5188 14.4812 17.75 16 17.75V16.25C15.3096 16.25 14.75 15.6904 14.75 15H13.25ZM14.75 13C14.75 12.3096 15.3096 11.75 16 11.75V10.25C14.4812 10.25 13.25 11.4812 13.25 13H14.75ZM5.25 9L5.25 15H6.75L6.75 9H5.25ZM10.75 15V9H9.25V15H10.75ZM10.75 9C10.75 7.48122 9.51878 6.25 8 6.25V7.75C8.69036 7.75 9.25 8.30964 9.25 9H10.75ZM8 17.75C9.51878 17.75 10.75 16.5188 10.75 15H9.25C9.25 15.6904 8.69036 16.25 8 16.25V17.75ZM5.25 15C5.25 16.5188 6.48122 17.75 8 17.75V16.25C7.30964 16.25 6.75 15.6904 6.75 15H5.25ZM6.75 9C6.75 8.30964 7.30964 7.75 8 7.75V6.25C6.48122 6.25 5.25 7.48122 5.25 9H6.75ZM6 2.75H18V1.25H6V2.75ZM21.25 6V18H22.75V6H21.25ZM18 21.25H6V22.75H18V21.25ZM2.75 18V6H1.25V18H2.75ZM6 21.25C4.20507 21.25 2.75 19.7949 2.75 18H1.25C1.25 20.6234 3.37665 22.75 6 22.75V21.25ZM21.25 18C21.25 19.7949 19.7949 21.25 18 21.25V22.75C20.6234 22.75 22.75 20.6234 22.75 18H21.25ZM18 2.75C19.7949 2.75 21.25 4.20507 21.25 6H22.75C22.75 3.37665 20.6234 1.25 18 1.25V2.75ZM6 1.25C3.37665 1.25 1.25 3.37665 1.25 6H2.75C2.75 4.20507 4.20507 2.75 6 2.75V1.25Z" fill="#28303F"/>
</svg>
