<svg width="24" height="24" viewBox="0 0 24 24" fill="none" xmlns="http://www.w3.org/2000/svg">
<path d="M18 10H17.25H18ZM18 20H18.75H18ZM22 20H22.75H22ZM22 10H21.25H22ZM2 18H2.75H2ZM2 20H1.25H2ZM6 20H5.25H6ZM6 18H6.75H6ZM10 14H9.25H10ZM10 20H10.75H10ZM14 20H14.75H14ZM14 14H13.25H14ZM19 1.25C18.5858 1.25 18.25 1.58579 18.25 2C18.25 2.41421 18.5858 2.75 19 2.75V1.25ZM21.25 5C21.25 5.41421 21.5858 5.75 22 5.75C22.4142 5.75 22.75 5.41421 22.75 5H21.25ZM21.4702 3.58428C21.7929 3.32458 21.844 2.85246 21.5843 2.52977C21.3246 2.20708 20.8525 2.15602 20.5298 2.41572L21.4702 3.58428ZM1.90494 11.256C1.49407 11.3085 1.20355 11.6842 1.25605 12.0951C1.30855 12.5059 1.68419 12.7965 2.09506 12.744L1.90494 11.256ZM21.25 10V20H22.75V10H21.25ZM18.75 20V10H17.25V20H18.75ZM18.75 10C18.75 9.30964 19.3096 8.75 20 8.75V7.25C18.4812 7.25 17.25 8.48122 17.25 10H18.75ZM20 21.25C19.3096 21.25 18.75 20.6904 18.75 20H17.25C17.25 21.5188 18.4812 22.75 20 22.75V21.25ZM21.25 20C21.25 20.6904 20.6904 21.25 20 21.25V22.75C21.5188 22.75 22.75 21.5188 22.75 20H21.25ZM22.75 10C22.75 8.48122 21.5188 7.25 20 7.25V8.75C20.6904 8.75 21.25 9.30964 21.25 10H22.75ZM5.25 18L5.25 20H6.75L6.75 18H5.25ZM2.75 20L2.75 18H1.25L1.25 20H2.75ZM2.75 18C2.75 17.3096 3.30964 16.75 4 16.75V15.25C2.48122 15.25 1.25 16.4812 1.25 18H2.75ZM4 21.25C3.30964 21.25 2.75 20.6904 2.75 20H1.25C1.25 21.5188 2.48122 22.75 4 22.75V21.25ZM5.25 20C5.25 20.6904 4.69036 21.25 4 21.25V22.75C5.51878 22.75 6.75 21.5188 6.75 20H5.25ZM6.75 18C6.75 16.4812 5.51878 15.25 4 15.25V16.75C4.69036 16.75 5.25 17.3096 5.25 18H6.75ZM13.25 14V20H14.75V14H13.25ZM10.75 20V14H9.25V20H10.75ZM10.75 14C10.75 13.3096 11.3096 12.75 12 12.75V11.25C10.4812 11.25 9.25 12.4812 9.25 14H10.75ZM12 21.25C11.3096 21.25 10.75 20.6904 10.75 20H9.25C9.25 21.5188 10.4812 22.75 12 22.75V21.25ZM13.25 20C13.25 20.6904 12.6904 21.25 12 21.25V22.75C13.5188 22.75 14.75 21.5188 14.75 20H13.25ZM14.75 14C14.75 12.4812 13.5188 11.25 12 11.25V12.75C12.6904 12.75 13.25 13.3096 13.25 14H14.75ZM19 2.75H21V1.25H19V2.75ZM21.25 3V5H22.75V3H21.25ZM21 2.75C21.1381 2.75 21.25 2.86193 21.25 3H22.75C22.75 2.0335 21.9665 1.25 21 1.25V2.75ZM20.5298 2.41572C16.5781 5.59606 13.6185 7.58096 10.8097 8.88373C8.01222 10.1812 5.32863 10.8186 1.90494 11.256L2.09506 12.744C5.61349 12.2944 8.45914 11.6274 11.4408 10.2445C14.411 8.86687 17.4804 6.7953 21.4702 3.58428L20.5298 2.41572Z" fill="#28303F"/>
</svg>
