<svg width="24" height="24" viewBox="0 0 24 24" fill="none" xmlns="http://www.w3.org/2000/svg">
<path d="M2.45 8.4C2.11863 8.15147 1.64853 8.21863 1.4 8.55C1.15147 8.88137 1.21863 9.35147 1.55 9.6L2.45 8.4ZM4.61233 10.9592L5.06233 10.3592L4.61233 10.9592ZM7.22654 10.7735L6.69621 10.2431L6.69621 10.2431L7.22654 10.7735ZM8.03788 9.96212L8.56821 10.4924L8.56821 10.4924L8.03788 9.96212ZM11.241 10.4819L11.9118 10.1465L11.241 10.4819ZM12.759 13.5181L12.0882 13.8535L12.759 13.5181ZM15.9621 14.0379L16.4924 14.5682H16.4924L15.9621 14.0379ZM16.7735 13.2265L16.2431 12.6962H16.2431L16.7735 13.2265ZM19.3877 13.0408L18.9377 13.6408V13.6408L19.3877 13.0408ZM21.55 15.6C21.8814 15.8485 22.3515 15.7814 22.6 15.45C22.8485 15.1186 22.7814 14.6485 22.45 14.4L21.55 15.6ZM6 2.75H18V1.25H6V2.75ZM21.25 6V18H22.75V6H21.25ZM18 21.25H6V22.75H18V21.25ZM2.75 18V6H1.25V18H2.75ZM6 21.25C4.20507 21.25 2.75 19.7949 2.75 18H1.25C1.25 20.6234 3.37665 22.75 6 22.75V21.25ZM21.25 18C21.25 19.7949 19.7949 21.25 18 21.25V22.75C20.6234 22.75 22.75 20.6234 22.75 18H21.25ZM18 2.75C19.7949 2.75 21.25 4.20507 21.25 6H22.75C22.75 3.37665 20.6234 1.25 18 1.25V2.75ZM6 1.25C3.37665 1.25 1.25 3.37665 1.25 6H2.75C2.75 4.20507 4.20507 2.75 6 2.75V1.25ZM1.55 9.6L4.16233 11.5592L5.06233 10.3592L2.45 8.4L1.55 9.6ZM7.75687 11.3038L8.56821 10.4924L7.50756 9.43179L6.69621 10.2431L7.75687 11.3038ZM10.5701 10.8173L12.0882 13.8535L13.4299 13.1827L11.9118 10.1465L10.5701 10.8173ZM16.4924 14.5682L17.3038 13.7569L16.2431 12.6962L15.4318 13.5076L16.4924 14.5682ZM18.9377 13.6408L21.55 15.6L22.45 14.4L19.8377 12.4408L18.9377 13.6408ZM17.3038 13.7569C17.7437 13.317 18.44 13.2675 18.9377 13.6408L19.8377 12.4408C18.7428 11.6196 17.2108 11.7285 16.2431 12.6962L17.3038 13.7569ZM12.0882 13.8535C12.9277 15.5324 15.1652 15.8955 16.4924 14.5682L15.4318 13.5076C14.8285 14.1109 13.8114 13.9458 13.4299 13.1827L12.0882 13.8535ZM8.56821 10.4924C9.17151 9.88914 10.1886 10.0542 10.5701 10.8173L11.9118 10.1465C11.0723 8.46762 8.83482 8.10452 7.50755 9.43179L8.56821 10.4924ZM4.16233 11.5592C5.25716 12.3804 6.78917 12.2715 7.75687 11.3038L6.69621 10.2431C6.25635 10.683 5.55998 10.7325 5.06233 10.3592L4.16233 11.5592Z" fill="#28303F"/>
</svg>
