<svg width="24" height="24" viewBox="0 0 24 24" fill="none" xmlns="http://www.w3.org/2000/svg">
<path d="M6 10H5.25H6ZM6 20H6.75H6ZM2 20H1.25H2ZM2 10H2.75H2ZM22 18H22.75H22ZM22 20H21.25H22ZM18 20H17.25H18ZM18 18H18.75H18ZM14 14H14.75H14ZM14 20H13.25H14ZM10 20H9.25H10ZM10 14H10.75H10ZM19 11.25C18.5858 11.25 18.25 11.5858 18.25 12C18.25 12.4142 18.5858 12.75 19 12.75V11.25ZM22.75 9C22.75 8.58579 22.4142 8.25 22 8.25C21.5858 8.25 21.25 8.58579 21.25 9H22.75ZM20.5298 11.5843C20.8525 11.844 21.3246 11.7929 21.5843 11.4702C21.844 11.1475 21.7929 10.6754 21.4702 10.4157L20.5298 11.5843ZM2.09506 1.25605C1.68419 1.20355 1.30855 1.49407 1.25605 1.90494C1.20355 2.31581 1.49407 2.69145 1.90494 2.74395L2.09506 1.25605ZM1.25 10L1.25 20H2.75L2.75 10H1.25ZM6.75 20L6.75 10H5.25L5.25 20H6.75ZM6.75 10C6.75 8.48122 5.51878 7.25 4 7.25V8.75C4.69036 8.75 5.25 9.30964 5.25 10H6.75ZM4 22.75C5.51878 22.75 6.75 21.5188 6.75 20H5.25C5.25 20.6904 4.69036 21.25 4 21.25V22.75ZM1.25 20C1.25 21.5188 2.48122 22.75 4 22.75V21.25C3.30964 21.25 2.75 20.6904 2.75 20H1.25ZM2.75 10C2.75 9.30964 3.30964 8.75 4 8.75V7.25C2.48122 7.25 1.25 8.48122 1.25 10H2.75ZM17.25 18V20H18.75V18H17.25ZM22.75 20V18H21.25V20H22.75ZM22.75 18C22.75 16.4812 21.5188 15.25 20 15.25V16.75C20.6904 16.75 21.25 17.3096 21.25 18H22.75ZM20 22.75C21.5188 22.75 22.75 21.5188 22.75 20H21.25C21.25 20.6904 20.6904 21.25 20 21.25V22.75ZM17.25 20C17.25 21.5188 18.4812 22.75 20 22.75V21.25C19.3096 21.25 18.75 20.6904 18.75 20H17.25ZM18.75 18C18.75 17.3096 19.3096 16.75 20 16.75V15.25C18.4812 15.25 17.25 16.4812 17.25 18H18.75ZM9.25 14V20H10.75V14H9.25ZM14.75 20V14H13.25V20H14.75ZM14.75 14C14.75 12.4812 13.5188 11.25 12 11.25V12.75C12.6904 12.75 13.25 13.3096 13.25 14H14.75ZM12 22.75C13.5188 22.75 14.75 21.5188 14.75 20H13.25C13.25 20.6904 12.6904 21.25 12 21.25V22.75ZM9.25 20C9.25 21.5188 10.4812 22.75 12 22.75V21.25C11.3096 21.25 10.75 20.6904 10.75 20H9.25ZM10.75 14C10.75 13.3096 11.3096 12.75 12 12.75V11.25C10.4812 11.25 9.25 12.4812 9.25 14H10.75ZM19 12.75H21V11.25H19V12.75ZM22.75 11V9H21.25V11H22.75ZM21 12.75C21.9665 12.75 22.75 11.9665 22.75 11H21.25C21.25 11.1381 21.1381 11.25 21 11.25V12.75ZM21.4702 10.4157C17.4804 7.2047 14.411 5.13313 11.4408 3.75551C8.45914 2.37259 5.61349 1.70563 2.09506 1.25605L1.90494 2.74395C5.32863 3.18143 8.01222 3.81879 10.8097 5.11627C13.6185 6.41904 16.5781 8.40394 20.5298 11.5843L21.4702 10.4157Z" fill="#28303F"/>
</svg>
