<svg width="24" height="24" viewBox="0 0 24 24" fill="none" xmlns="http://www.w3.org/2000/svg">
<path d="M2.75 2C2.75 1.58579 2.41421 1.25 2 1.25C1.58579 1.25 1.25 1.58579 1.25 2H2.75ZM22 22.75C22.4142 22.75 22.75 22.4142 22.75 22C22.75 21.5858 22.4142 21.25 22 21.25V22.75ZM15.5 14.25C15.0858 14.25 14.75 14.5858 14.75 15C14.75 15.4142 15.0858 15.75 15.5 15.75V14.25ZM18.2764 14.4472L17.6056 14.1118V14.1118L18.2764 14.4472ZM19.6708 13.3354C19.8561 12.9649 19.7059 12.5144 19.3354 12.3292C18.9649 12.1439 18.5144 12.2941 18.3292 12.6646L19.6708 13.3354ZM16.8728 14.9112L17.284 15.5384L18.5384 14.716L18.1272 14.0888L16.8728 14.9112ZM14.7644 10.3271L14.1372 10.7383V10.7383L14.7644 10.3271ZM13.0726 10.3576L12.431 9.96919L13.0726 10.3576ZM11.1644 13.5099L10.5228 13.1216L11.1644 13.5099ZM9.43044 13.4698L8.77155 13.8281L9.43044 13.4698ZM7.65889 8.64173C7.46103 8.27783 7.00562 8.14324 6.64173 8.34111C6.27783 8.53897 6.14324 8.99438 6.34111 9.35827L7.65889 8.64173ZM1.25 2V18H2.75V2H1.25ZM6 22.75H22V21.25H6V22.75ZM1.25 18C1.25 20.6234 3.37665 22.75 6 22.75V21.25C4.20507 21.25 2.75 19.7949 2.75 18H1.25ZM15.5 15.75H17.382V14.25H15.5V15.75ZM18.9472 14.7826L19.6708 13.3354L18.3292 12.6646L17.6056 14.1118L18.9472 14.7826ZM17.382 15.75C18.0448 15.75 18.6508 15.3755 18.9472 14.7826L17.6056 14.1118C17.5632 14.1965 17.4767 14.25 17.382 14.25V15.75ZM18.1272 14.0888L15.3917 9.91596L14.1372 10.7383L16.8728 14.9112L18.1272 14.0888ZM12.431 9.96919L10.5228 13.1216L11.8061 13.8983L13.7142 10.7459L12.431 9.96919ZM10.0893 13.1115L7.65889 8.64173L6.34111 9.35827L8.77155 13.8281L10.0893 13.1115ZM10.5228 13.1216C10.4229 13.2867 10.1815 13.2811 10.0893 13.1115L8.77155 13.8281C9.41688 15.0149 11.1065 15.054 11.8061 13.8983L10.5228 13.1216ZM15.3917 9.91596C14.6857 8.83911 13.0978 8.86767 12.431 9.96919L13.7142 10.7459C13.8095 10.5886 14.0363 10.5845 14.1372 10.7383L15.3917 9.91596Z" fill="#28303F"/>
</svg>
