<svg width="24" height="24" viewBox="0 0 24 24" fill="none" xmlns="http://www.w3.org/2000/svg">
<path d="M6 11.25C5.58579 11.25 5.25 11.5858 5.25 12C5.25 12.4142 5.58579 12.75 6 12.75V11.25ZM20 12.75C20.4142 12.75 20.75 12.4142 20.75 12C20.75 11.5858 20.4142 11.25 20 11.25V12.75ZM2.75 2C2.75 1.58579 2.41421 1.25 2 1.25C1.58579 1.25 1.25 1.58579 1.25 2H2.75ZM22 21.75C22.4142 21.75 22.75 21.4142 22.75 21C22.75 20.5858 22.4142 20.25 22 20.25V21.75ZM6 12.75H7V11.25H6V12.75ZM9.75 10V9H8.25V10H9.75ZM12.25 9V15H13.75V9H12.25ZM17.75 15V14H16.25V15H17.75ZM19 12.75H20V11.25H19V12.75ZM17.75 14C17.75 13.3096 18.3096 12.75 19 12.75V11.25C17.4812 11.25 16.25 12.4812 16.25 14H17.75ZM15 17.75C16.5188 17.75 17.75 16.5188 17.75 15H16.25C16.25 15.6904 15.6904 16.25 15 16.25V17.75ZM12.25 15C12.25 16.5188 13.4812 17.75 15 17.75V16.25C14.3096 16.25 13.75 15.6904 13.75 15H12.25ZM11 7.75C11.6904 7.75 12.25 8.30964 12.25 9H13.75C13.75 7.48122 12.5188 6.25 11 6.25V7.75ZM9.75 9C9.75 8.30964 10.3096 7.75 11 7.75V6.25C9.48122 6.25 8.25 7.48122 8.25 9H9.75ZM7 12.75C8.51878 12.75 9.75 11.5188 9.75 10H8.25C8.25 10.6904 7.69036 11.25 7 11.25V12.75ZM1.25 2V17H2.75V2H1.25ZM6 21.75H22V20.25H6V21.75ZM1.25 17C1.25 19.6234 3.37665 21.75 6 21.75V20.25C4.20507 20.25 2.75 18.7949 2.75 17H1.25Z" fill="#28303F"/>
</svg>
