<svg width="24" height="24" viewBox="0 0 24 24" fill="none" xmlns="http://www.w3.org/2000/svg">
<path d="M4.92894 19.0711L4.39861 19.6014H4.39861L4.92894 19.0711ZM12 7.03563V7.78563V7.03563ZM22 12H22.75V11.25H22V12ZM19.0711 19.0711L18.5407 19.6014L19.0711 20.1317L19.6014 19.6014L19.0711 19.0711ZM15.5103 15.5103L14.98 14.98L14.4497 15.5103L14.98 16.0407L15.5103 15.5103ZM16.9644 12V11.25H16.2144V12H16.9644ZM12 2.75C13.5212 2.75 15.0189 3.12515 16.3604 3.84223L17.0675 2.51935C15.5084 1.68599 13.7679 1.25 12 1.25V2.75ZM16.3604 3.84223C17.702 4.5593 18.846 5.59617 19.6911 6.86098L20.9383 6.02762C19.9561 4.55771 18.6266 3.3527 17.0675 2.51935L16.3604 3.84223ZM19.6911 6.86098C20.5362 8.12578 21.0564 9.57949 21.2055 11.0933L22.6982 10.9463C22.525 9.18698 21.9205 7.49753 20.9383 6.02762L19.6911 6.86098ZM21.2055 11.0933C21.3546 12.6072 21.128 14.1344 20.5459 15.5398L21.9317 16.1138C22.6082 14.4806 22.8715 12.7057 22.6982 10.9463L21.2055 11.0933ZM20.5459 15.5398C19.9638 16.9452 19.044 18.1853 17.8681 19.1503L18.8197 20.3099C20.1863 19.1883 21.2552 17.7471 21.9317 16.1138L20.5459 15.5398ZM17.8681 19.1503C16.6923 20.1154 15.2965 20.7755 13.8046 21.0723L14.0972 22.5434C15.8311 22.1986 17.4532 21.4314 18.8197 20.3099L17.8681 19.1503ZM13.8046 21.0723C12.3126 21.369 10.7705 21.2933 9.31487 20.8517L8.87945 22.2871C10.5712 22.8003 12.3633 22.8883 14.0972 22.5434L13.8046 21.0723ZM9.31487 20.8517C7.8592 20.4101 6.5349 19.6164 5.45927 18.5407L4.39861 19.6014C5.64867 20.8515 7.18772 21.7739 8.87945 22.2871L9.31487 20.8517ZM5.45927 19.6014L9.02 16.0407L7.95934 14.98L4.39861 18.5407L5.45927 19.6014ZM7.95934 16.0407C8.62383 16.7052 9.44194 17.1955 10.3412 17.4683L10.7766 16.0329C10.1134 15.8317 9.51006 15.4701 9.02 14.98L7.95934 16.0407ZM10.3412 17.4683C11.2405 17.7411 12.1931 17.7879 13.1148 17.6046L12.8222 16.1334C12.1424 16.2686 11.4399 16.2341 10.7766 16.0329L10.3412 17.4683ZM13.1148 17.6046C14.0365 17.4212 14.8987 17.0134 15.6252 16.4173L14.6736 15.2578C14.1378 15.6974 13.5019 15.9982 12.8222 16.1334L13.1148 17.6046ZM15.6252 16.4173C16.3516 15.8211 16.9198 15.055 17.2794 14.1868L15.8936 13.6128C15.6284 14.2531 15.2093 14.8181 14.6736 15.2578L15.6252 16.4173ZM17.2794 14.1868C17.639 13.3186 17.779 12.3751 17.6869 11.4399L16.1941 11.5869C16.262 12.2766 16.1588 12.9725 15.8936 13.6128L17.2794 14.1868ZM17.6869 11.4399C17.5947 10.5047 17.2734 9.60663 16.7513 8.82527L15.5041 9.65862C15.8892 10.2349 16.1261 10.8972 16.1941 11.5869L17.6869 11.4399ZM16.7513 8.82527C16.2292 8.04391 15.5225 7.40336 14.6937 6.96038L13.9866 8.28326C14.5979 8.60996 15.1191 9.08237 15.5041 9.65862L16.7513 8.82527ZM14.6937 6.96038C13.865 6.51739 12.9397 6.28563 12 6.28563V7.78563C12.6931 7.78563 13.3754 7.95655 13.9866 8.28326L14.6937 6.96038ZM12.75 7.03563V2H11.25V7.03563H12.75ZM5.45927 18.5407C4.16563 17.2471 3.28465 15.5989 2.92774 13.8046L1.45656 14.0972C1.87135 16.1825 2.89519 18.098 4.39861 19.6014L5.45927 18.5407ZM2.92774 13.8046C2.57083 12.0103 2.75401 10.1504 3.45412 8.46018L2.0683 7.88615C1.25466 9.85046 1.04177 12.0119 1.45656 14.0972L2.92774 13.8046ZM3.45412 8.46018C4.15423 6.76996 5.33983 5.32531 6.86098 4.30891L6.02762 3.0617C4.2598 4.24293 2.88194 5.92185 2.0683 7.88615L3.45412 8.46018ZM6.86098 4.30891C8.38213 3.2925 10.1705 2.75 12 2.75V1.25C9.87386 1.25 7.79545 1.88048 6.02762 3.0617L6.86098 4.30891ZM12 6.28563C10.8698 6.28563 9.76499 6.62077 8.82527 7.24868L9.65863 8.49588C10.3517 8.0328 11.1665 7.78563 12 7.78563V6.28563ZM8.82527 7.24868C7.88555 7.87658 7.15312 8.76904 6.72062 9.81321L8.10644 10.3872C8.42541 9.61716 8.96558 8.95896 9.65863 8.49588L8.82527 7.24868ZM6.72062 9.81321C6.28811 10.8574 6.17495 12.0063 6.39544 13.1148L7.86661 12.8222C7.704 12.0047 7.78746 11.1573 8.10644 10.3872L6.72062 9.81321ZM6.39544 13.1148C6.61593 14.2233 7.16017 15.2415 7.95934 16.0407L9.02 14.98C8.43061 14.3906 8.02923 13.6397 7.86661 12.8222L6.39544 13.1148ZM21.25 12C21.25 13.2147 21.0107 14.4176 20.5459 15.5398L21.9317 16.1138C22.4719 14.8096 22.75 13.4117 22.75 12H21.25ZM20.5459 15.5398C20.081 16.6621 19.3997 17.6818 18.5407 18.5407L19.6014 19.6014C20.5996 18.6032 21.3915 17.4181 21.9317 16.1138L20.5459 15.5398ZM19.6014 18.5407L16.0407 14.98L14.98 16.0407L18.5407 19.6014L19.6014 18.5407ZM16.0407 16.0407C16.5713 15.51 16.9922 14.8801 17.2794 14.1868L15.8936 13.6128C15.6818 14.1241 15.3714 14.5887 14.98 14.98L16.0407 16.0407ZM17.2794 14.1868C17.5666 13.4935 17.7144 12.7504 17.7144 12H16.2144C16.2144 12.5534 16.1054 13.1015 15.8936 13.6128L17.2794 14.1868ZM16.9644 12.75H22V11.25H16.9644V12.75Z" fill="#28303F"/>
</svg>
