<svg width="24" height="24" viewBox="0 0 24 24" fill="none" xmlns="http://www.w3.org/2000/svg">
<path d="M3.21216 16.6064L2.89156 17.2844H2.89156L3.21216 16.6064ZM7.14217 18.4647L7.46278 17.7867H7.46278L7.14217 18.4647ZM10.9609 18.8023L11.1603 19.5253L10.9609 18.8023ZM14.4907 17.8287L14.2913 17.1057L14.4907 17.8287ZM5.15542 5.46592L4.79314 4.80922V4.80922L5.15542 5.46592ZM3.10557 6.59675L2.7433 5.94005L3.10557 6.59675ZM15.7615 14.6313L15.0891 14.9637L15.7615 14.6313ZM18.8446 5.46592L18.4823 6.12262L18.8446 5.46592ZM20.8944 6.59675L21.2567 5.94005V5.94005L20.8944 6.59675ZM15.5917 16.2832C15.1775 16.2832 14.8417 16.619 14.8417 17.0332C14.8417 17.4475 15.1775 17.7832 15.5917 17.7832V16.2832ZM9.94461 11.5588L9.3889 12.0625V12.0625L9.94461 11.5588ZM12.0554 11.5588L12.6111 12.0625L12.0554 11.5588ZM11.799 6.65633L11.1918 6.21608L11.1918 6.21608L11.799 6.65633ZM9.83452 9.36569L9.22734 8.92543L9.83452 9.36569ZM13.4706 9.99741L14.1429 9.66503C14.0329 9.44255 13.82 9.28889 13.5742 9.2546C13.3284 9.22032 13.0815 9.30985 12.9149 9.49374L13.4706 9.99741ZM11.7739 6.69096L12.3811 7.13122L12.3811 7.13122L11.7739 6.69096ZM1.25 8.57043V14.5782H2.75V8.57043H1.25ZM2.89156 17.2844L6.82157 19.1428L7.46278 17.7867L3.53277 15.9284L2.89156 17.2844ZM11.1603 19.5253L14.6902 18.5517L14.2913 17.1057L10.7615 18.0793L11.1603 19.5253ZM8.62547 4.25H6.94427V5.75H8.62547V4.25ZM4.79314 4.80922L2.7433 5.94005L3.46785 7.25345L5.51769 6.12262L4.79314 4.80922ZM6.94427 4.25C6.19378 4.25 5.45701 4.44299 4.79314 4.80922L5.51769 6.12262C5.96467 5.87605 6.45281 5.75 6.94427 5.75V4.25ZM14.6902 18.5517C16.4779 18.0586 17.2389 15.9274 16.4338 14.2989L15.0891 14.9637C15.5376 15.8708 15.0432 16.8983 14.2913 17.1057L14.6902 18.5517ZM6.82157 19.1428C8.18737 19.7886 9.7131 19.9245 11.1603 19.5253L10.7615 18.0793C9.66442 18.3819 8.50752 18.2807 7.46278 17.7867L6.82157 19.1428ZM1.25 14.5782C1.25 15.7197 1.86689 16.7999 2.89156 17.2844L3.53277 15.9284C3.08669 15.7175 2.75 15.2021 2.75 14.5782H1.25ZM2.75 8.57043C2.75 7.98089 3.05214 7.48278 3.46785 7.25345L2.7433 5.94005C1.80387 6.45829 1.25 7.48834 1.25 8.57043H2.75ZM21.25 8.57043V14.8266H22.75V8.57043H21.25ZM14.9225 5.75H17.0557V4.25H14.9225V5.75ZM18.4823 6.12262L20.5322 7.25345L21.2567 5.94005L19.2069 4.80922L18.4823 6.12262ZM20 16.2832H15.5917V17.7832H20V16.2832ZM9.3889 12.0625C10.2695 13.034 11.7305 13.034 12.6111 12.0625L11.4997 11.0552C11.2145 11.3698 10.7855 11.3698 10.5003 11.0552L9.3889 12.0625ZM17.0557 5.75C17.5472 5.75 18.0353 5.87605 18.4823 6.12262L19.2069 4.80922C18.543 4.44299 17.8062 4.25 17.0557 4.25V5.75ZM12.4062 7.09659C13.0348 6.22962 13.9652 5.75 14.9225 5.75V4.25C13.4495 4.25 12.0814 4.98925 11.1918 6.21608L12.4062 7.09659ZM9.22734 8.92543C8.54726 9.86336 8.60916 11.2022 9.3889 12.0625L10.5003 11.0552C10.2045 10.7288 10.1716 10.1785 10.4417 9.80595L9.22734 8.92543ZM21.25 14.8266C21.25 15.7022 20.6227 16.2832 20 16.2832V17.7832C21.5865 17.7832 22.75 16.3884 22.75 14.8266H21.25ZM22.75 8.57043C22.75 7.48835 22.1961 6.45829 21.2567 5.94005L20.5322 7.25345C20.9479 7.48278 21.25 7.98089 21.25 8.57043H22.75ZM12.6111 12.0625L14.0263 10.5011L12.9149 9.49374L11.4997 11.0552L12.6111 12.0625ZM16.4338 14.2989L14.1429 9.66503L12.7983 10.3298L15.0891 14.9637L16.4338 14.2989ZM10.4417 9.80595L12.3811 7.13122L11.1667 6.2507L9.22734 8.92543L10.4417 9.80595ZM12.3811 7.13122L12.4062 7.09659L11.1918 6.21608L11.1667 6.25071L12.3811 7.13122ZM12.3854 6.25672C11.5065 5.01898 10.1298 4.25 8.62547 4.25V5.75C9.60304 5.75 10.5402 6.24908 11.1624 7.12521L12.3854 6.25672Z" fill="#28303F"/>
</svg>
