<svg width="24" height="24" viewBox="0 0 24 24" fill="none" xmlns="http://www.w3.org/2000/svg">
<path d="M4.46986 7.02652L3.99311 6.44755H3.99311L4.46986 7.02652ZM9.46986 2.90935L8.99311 2.33037V2.33037L9.46986 2.90935ZM14.5301 2.90935L14.0534 3.48832L14.5301 2.90935ZM19.5301 7.02652L19.0534 7.6055V7.6055L19.5301 7.02652ZM7 14.25C6.58579 14.25 6.25 14.5858 6.25 15C6.25 15.4142 6.58579 15.75 7 15.75V14.25ZM17 15.75C17.4142 15.75 17.75 15.4142 17.75 15C17.75 14.5858 17.4142 14.25 17 14.25V15.75ZM20.25 10.1503V17.9668H21.75V10.1503H20.25ZM17 21.25H7V22.75H17V21.25ZM3.75 17.9668V10.1503H2.25V17.9668H3.75ZM4.94661 7.6055L9.94661 3.48832L8.99311 2.33037L3.99311 6.44755L4.94661 7.6055ZM14.0534 3.48832L19.0534 7.6055L20.0069 6.44755L15.0069 2.33037L14.0534 3.48832ZM9.94661 3.48832C11.1421 2.50389 12.8579 2.50389 14.0534 3.48832L15.0069 2.33037C13.2575 0.889874 10.7425 0.889878 8.99311 2.33037L9.94661 3.48832ZM7 21.25C5.2109 21.25 3.75 19.7859 3.75 17.9668H2.25C2.25 20.6027 4.37082 22.75 7 22.75V21.25ZM20.25 17.9668C20.25 19.7859 18.7891 21.25 17 21.25V22.75C19.6292 22.75 21.75 20.6027 21.75 17.9668H20.25ZM21.75 10.1503C21.75 8.71654 21.1111 7.35681 20.0069 6.44755L19.0534 7.6055C19.8096 8.22818 20.25 9.16221 20.25 10.1503H21.75ZM3.75 10.1503C3.75 9.16221 4.1904 8.22819 4.94661 7.6055L3.99311 6.44755C2.88889 7.35681 2.25 8.71654 2.25 10.1503H3.75ZM7 15.75H8V14.25H7V15.75ZM9.75 14V13.5H8.25V14H9.75ZM11.25 13.5V16.5H12.75V13.5H11.25ZM15.75 16.5V16H14.25V16.5H15.75ZM16 15.75H17V14.25H16V15.75ZM15.75 16C15.75 15.8619 15.8619 15.75 16 15.75V14.25C15.0335 14.25 14.25 15.0335 14.25 16H15.75ZM13.5 18.75C14.7426 18.75 15.75 17.7426 15.75 16.5H14.25C14.25 16.9142 13.9142 17.25 13.5 17.25V18.75ZM11.25 16.5C11.25 17.7426 12.2574 18.75 13.5 18.75V17.25C13.0858 17.25 12.75 16.9142 12.75 16.5H11.25ZM10.5 12.75C10.9142 12.75 11.25 13.0858 11.25 13.5H12.75C12.75 12.2574 11.7426 11.25 10.5 11.25V12.75ZM9.75 13.5C9.75 13.0858 10.0858 12.75 10.5 12.75V11.25C9.25736 11.25 8.25 12.2574 8.25 13.5H9.75ZM8 15.75C8.9665 15.75 9.75 14.9665 9.75 14H8.25C8.25 14.1381 8.13807 14.25 8 14.25V15.75Z" fill="#28303F"/>
</svg>
