<svg width="24" height="24" viewBox="0 0 24 24" fill="none" xmlns="http://www.w3.org/2000/svg">
<path d="M3.15251 7.19692L3.58013 7.81306H3.58013L3.15251 7.19692ZM9.54124 2.763L9.11361 2.14685V2.14685L9.54124 2.763ZM14.4588 2.763L14.8864 2.14685V2.14685L14.4588 2.763ZM20.8475 7.19691L20.4199 7.81306L20.8475 7.19691ZM2.81969 11.2448L2.30191 11.7874L2.30191 11.7874L2.81969 11.2448ZM21.1803 11.2448L20.6625 10.7022V10.7022L21.1803 11.2448ZM7 14.25C6.58579 14.25 6.25 14.5858 6.25 15C6.25 15.4142 6.58579 15.75 7 15.75V14.25ZM17 15.75C17.4142 15.75 17.75 15.4142 17.75 15C17.75 14.5858 17.4142 14.25 17 14.25V15.75ZM16.1804 21.25H7.81965V22.75H16.1804V21.25ZM3.58013 7.81306L9.96886 3.37914L9.11361 2.14685L2.72488 6.58077L3.58013 7.81306ZM14.0311 3.37914L20.4199 7.81306L21.2751 6.58077L14.8864 2.14685L14.0311 3.37914ZM19.6107 13.133V18.0108H21.1107V13.133H19.6107ZM4.3893 18.0108V13.133H2.8893V18.0108H4.3893ZM4.3893 13.133C4.3893 12.2143 4.00651 11.3407 3.33747 10.7022L2.30191 11.7874C2.68244 12.1505 2.8893 12.6354 2.8893 13.133H4.3893ZM20.6625 10.7022C19.9935 11.3407 19.6107 12.2143 19.6107 13.133H21.1107C21.1107 12.6354 21.3176 12.1505 21.6981 11.7874L20.6625 10.7022ZM9.96886 3.37914C11.1775 2.54029 12.8224 2.54029 14.0311 3.37914L14.8864 2.14685C13.1634 0.951051 10.8366 0.951051 9.11361 2.14685L9.96886 3.37914ZM7.81965 21.25C5.89166 21.25 4.3893 19.7671 4.3893 18.0108H2.8893C2.8893 20.6609 5.13015 22.75 7.81965 22.75V21.25ZM16.1804 22.75C18.8698 22.75 21.1107 20.6609 21.1107 18.0108H19.6107C19.6107 19.7671 18.1083 21.25 16.1804 21.25V22.75ZM20.4199 7.81306C21.4262 8.51149 21.53 9.87443 20.6625 10.7022L21.6981 11.7874C23.2624 10.2946 23.05 7.8126 21.2751 6.58077L20.4199 7.81306ZM2.72488 6.58077C0.949956 7.8126 0.737579 10.2946 2.30191 11.7874L3.33747 10.7022C2.47003 9.87443 2.57378 8.51149 3.58013 7.81306L2.72488 6.58077ZM7 15.75H8V14.25H7V15.75ZM9.75 14V13.5H8.25V14H9.75ZM11.25 13.5V16.5H12.75V13.5H11.25ZM15.75 16.5V16H14.25V16.5H15.75ZM16 15.75H17V14.25H16V15.75ZM15.75 16C15.75 15.8619 15.8619 15.75 16 15.75V14.25C15.0335 14.25 14.25 15.0335 14.25 16H15.75ZM13.5 18.75C14.7426 18.75 15.75 17.7426 15.75 16.5H14.25C14.25 16.9142 13.9142 17.25 13.5 17.25V18.75ZM11.25 16.5C11.25 17.7426 12.2574 18.75 13.5 18.75V17.25C13.0858 17.25 12.75 16.9142 12.75 16.5H11.25ZM10.5 12.75C10.9142 12.75 11.25 13.0858 11.25 13.5H12.75C12.75 12.2574 11.7426 11.25 10.5 11.25V12.75ZM9.75 13.5C9.75 13.0858 10.0858 12.75 10.5 12.75V11.25C9.25736 11.25 8.25 12.2574 8.25 13.5H9.75ZM8 15.75C8.9665 15.75 9.75 14.9665 9.75 14H8.25C8.25 14.1381 8.13807 14.25 8 14.25V15.75Z" fill="#28303F"/>
</svg>
