<svg width="24" height="24" viewBox="0 0 24 24" fill="none" xmlns="http://www.w3.org/2000/svg">
<path d="M4.24252 17.9701L3.51491 18.152L4.24252 17.9701ZM2.62125 11.4851L3.34885 11.3032L2.62125 11.4851ZM9.99998 9V9.75C10.2766 9.75 10.5307 9.59776 10.6612 9.35389C10.7917 9.11003 10.7774 8.81412 10.624 8.58397L9.99998 9ZM8.59115 6.88675L7.96711 7.30277L8.59115 6.88675ZM12 3L12.6512 2.6279C12.5176 2.39421 12.2691 2.25 12 2.25V3ZM15.8682 9.76943L15.217 10.1415V10.1415L15.8682 9.76943ZM15.5547 19.2969L15.9707 19.9209L15.9707 19.9209L15.5547 19.2969ZM14.0077 20.3282L13.5917 19.7042V19.7042L14.0077 20.3282ZM20 7.25H18V8.75H20V7.25ZM15.25 10V19H16.75V10H15.25ZM18 21.75H20V20.25H18V21.75ZM22.75 19V10H21.25V19H22.75ZM20 21.75C21.5188 21.75 22.75 20.5188 22.75 19H21.25C21.25 19.6904 20.6903 20.25 20 20.25V21.75ZM15.25 19C15.25 20.5188 16.4812 21.75 18 21.75V20.25C17.3096 20.25 16.75 19.6904 16.75 19H15.25ZM18 7.25C16.4812 7.25 15.25 8.48122 15.25 10H16.75C16.75 9.30964 17.3096 8.75 18 8.75V7.25ZM20 8.75C20.6903 8.75 21.25 9.30964 21.25 10H22.75C22.75 8.48122 21.5188 7.25 20 7.25V8.75ZM11.7889 20.25H8.12309V21.75H11.7889V20.25ZM4.97012 17.7882L3.34885 11.3032L1.89364 11.667L3.51491 18.152L4.97012 17.7882ZM4.56153 9.75H9.99998V8.25H4.56153V9.75ZM10.624 8.58397L9.21518 6.47072L7.96711 7.30277L9.37594 9.41603L10.624 8.58397ZM10.6713 3.75H12V2.25H10.6713V3.75ZM11.3488 3.3721L15.217 10.1415L16.5194 9.39732L12.6512 2.6279L11.3488 3.3721ZM15.25 10.2656V18.4648H16.75V10.2656H15.25ZM15.1387 18.6728L13.5917 19.7042L14.4237 20.9522L15.9707 19.9209L15.1387 18.6728ZM15.25 18.4648C15.25 18.5484 15.2082 18.6265 15.1387 18.6728L15.9707 19.9209C16.4576 19.5963 16.75 19.0499 16.75 18.4648H15.25ZM3.34885 11.3032C3.15162 10.5142 3.74832 9.75 4.56153 9.75V8.25C2.77246 8.25 1.45973 9.93132 1.89364 11.667L3.34885 11.3032ZM8.12309 20.25C6.63176 20.25 5.33182 19.235 4.97012 17.7882L3.51491 18.152C4.04354 20.2666 5.94346 21.75 8.12309 21.75V20.25ZM11.7889 21.75C12.7266 21.75 13.6434 21.4724 14.4237 20.9522L13.5917 19.7042C13.0578 20.0601 12.4305 20.25 11.7889 20.25V21.75ZM9.21518 6.47072C8.43987 5.30775 9.27355 3.75 10.6713 3.75V2.25C8.07551 2.25 6.52724 5.14297 7.96711 7.30277L9.21518 6.47072ZM15.217 10.1415C15.2386 10.1793 15.25 10.2221 15.25 10.2656H16.75C16.75 9.96102 16.6705 9.66174 16.5194 9.39732L15.217 10.1415Z" fill="#28303F"/>
</svg>
