<svg width="24" height="24" viewBox="0 0 24 24" fill="none" xmlns="http://www.w3.org/2000/svg">
<path d="M6 9.25C5.58579 9.25 5.25 9.58579 5.25 10C5.25 10.4142 5.58579 10.75 6 10.75V9.25ZM18 10.75C18.4142 10.75 18.75 10.4142 18.75 10C18.75 9.58579 18.4142 9.25 18 9.25V10.75ZM12.75 18C12.75 17.5858 12.4142 17.25 12 17.25C11.5858 17.25 11.25 17.5858 11.25 18H12.75ZM11.25 22C11.25 22.4142 11.5858 22.75 12 22.75C12.4142 22.75 12.75 22.4142 12.75 22H11.25ZM6 2.75H18V1.25H6V2.75ZM21.25 6V14H22.75V6H21.25ZM18 17.25H6V18.75H18V17.25ZM2.75 14V6H1.25V14H2.75ZM6 17.25C4.20507 17.25 2.75 15.7949 2.75 14H1.25C1.25 16.6234 3.37665 18.75 6 18.75V17.25ZM21.25 14C21.25 15.7949 19.7949 17.25 18 17.25V18.75C20.6234 18.75 22.75 16.6234 22.75 14H21.25ZM18 2.75C19.7949 2.75 21.25 4.20507 21.25 6H22.75C22.75 3.37665 20.6234 1.25 18 1.25V2.75ZM6 1.25C3.37665 1.25 1.25 3.37665 1.25 6H2.75C2.75 4.20507 4.20507 2.75 6 2.75V1.25ZM6 10.75H7V9.25H6V10.75ZM9.75 8V7.5H8.25V8H9.75ZM11.25 7.5V12.5H12.75V7.5H11.25ZM15.75 12.5V12H14.25V12.5H15.75ZM17 10.75H18V9.25H17V10.75ZM15.75 12C15.75 11.3096 16.3096 10.75 17 10.75V9.25C15.4812 9.25 14.25 10.4812 14.25 12H15.75ZM13.5 14.75C14.7426 14.75 15.75 13.7426 15.75 12.5H14.25C14.25 12.9142 13.9142 13.25 13.5 13.25V14.75ZM11.25 12.5C11.25 13.7426 12.2574 14.75 13.5 14.75V13.25C13.0858 13.25 12.75 12.9142 12.75 12.5H11.25ZM10.5 6.75C10.9142 6.75 11.25 7.08579 11.25 7.5H12.75C12.75 6.25736 11.7426 5.25 10.5 5.25V6.75ZM9.75 7.5C9.75 7.08579 10.0858 6.75 10.5 6.75V5.25C9.25736 5.25 8.25 6.25736 8.25 7.5H9.75ZM7 10.75C8.51878 10.75 9.75 9.51878 9.75 8H8.25C8.25 8.69036 7.69036 9.25 7 9.25V10.75ZM11.25 18V22H12.75V18H11.25Z" fill="#28303F"/>
<path d="M14 22L10 22" stroke="#28303F" stroke-width="1.5" stroke-linecap="round"/>
</svg>
