<svg width="24" height="24" viewBox="0 0 24 24" fill="none" xmlns="http://www.w3.org/2000/svg">
<circle cx="12" cy="12" r="2" fill="#28303F"/>
<path d="M11.4697 11.4697C11.1768 11.7626 11.1768 12.2374 11.4697 12.5303C11.7626 12.8232 12.2374 12.8232 12.5303 12.5303L11.4697 11.4697ZM22.5303 2.53033C22.8232 2.23744 22.8232 1.76256 22.5303 1.46967C22.2374 1.17678 21.7626 1.17678 21.4697 1.46967L22.5303 2.53033ZM17.25 12C17.25 14.8995 14.8995 17.25 12 17.25V18.75C15.7279 18.75 18.75 15.7279 18.75 12H17.25ZM12 17.25C9.1005 17.25 6.75 14.8995 6.75 12H5.25C5.25 15.7279 8.27208 18.75 12 18.75V17.25ZM6.75 12C6.75 9.1005 9.1005 6.75 12 6.75V5.25C8.27208 5.25 5.25 8.27208 5.25 12H6.75ZM12 6.75C14.8995 6.75 17.25 9.1005 17.25 12H18.75C18.75 8.27208 15.7279 5.25 12 5.25V6.75ZM12.5303 12.5303L22.5303 2.53033L21.4697 1.46967L11.4697 11.4697L12.5303 12.5303ZM21.25 12C21.25 17.1086 17.1086 21.25 12 21.25V22.75C17.9371 22.75 22.75 17.9371 22.75 12H21.25ZM12 21.25C6.89137 21.25 2.75 17.1086 2.75 12H1.25C1.25 17.9371 6.06294 22.75 12 22.75V21.25ZM2.75 12C2.75 6.89137 6.89137 2.75 12 2.75V1.25C6.06294 1.25 1.25 6.06294 1.25 12H2.75ZM12 2.75C17.1086 2.75 21.25 6.89137 21.25 12H22.75C22.75 6.06294 17.9371 1.25 12 1.25V2.75Z" fill="#28303F"/>
</svg>
